<?xml version="1.0" encoding="UTF-8"?>
<svg width="300px" height="180px" viewBox="0 0 300 180" version="1.1" xmlns="http://www.w3.org/2000/svg" xmlns:xlink="http://www.w3.org/1999/xlink">
    <title>dbs_logo_title</title>
    <g id="DBS_Main" stroke="none" stroke-width="1" fill="none" fill-rule="evenodd">
        <g transform="translate(6, -85)" id="dbs_logo_title">
            <g transform="translate(-6, 85)">
                <g id="Title" transform="translate(30.0443, 160.4984)">
                    <path d="M0,18.0221843 L0,0.425302284 L3.55729947,0.425302284 C6.13505271,0.425302284 7.93947997,0.58479064 9.12524646,1.06325571 C10.7750085,1.70120914 12.1154402,2.71130206 12.9918763,4.19986005 C13.9198675,5.68841805 14.4354181,7.44278997 14.4354181,9.46297581 C14.4354181,11.2173477 14.0745327,12.7590685 13.3012067,14.1413009 C12.5794358,15.4703706 11.5998896,16.4804635 10.4656781,17.0652541 C9.27991166,17.7032076 7.63014959,18.0221843 5.51639193,18.0221843 L0,18.0221843 L0,18.0221843 L0,18.0221843 Z M1.64976207,16.3741379 L3.60885453,16.3741379 C5.98038751,16.3741379 7.57859452,16.2678124 8.55814075,15.9488356 C9.84701737,15.5235334 10.8781187,14.7260916 11.5998896,13.6096731 C12.3216605,12.4932546 12.734101,11.1110222 12.734101,9.5161386 C12.734101,7.81492946 12.3216605,6.37953426 11.5483345,5.15679019 C10.7750085,3.93404612 9.64079711,3.13660434 8.1972553,2.71130206 C7.11459894,2.39232535 5.36172674,2.23283699 2.88708363,2.23283699 L1.70131714,2.23283699 L1.64976207,16.3741379 L1.64976207,16.3741379 L1.64976207,16.3741379 Z" id="Shape" fill="#595959"></path>
                    <polygon id="Shape" fill="#595959" points="17.4256119 0.478465069 19.126929 0.478465069 19.126929 18.0753471 17.4256119 18.0753471"></polygon>
                    <path d="M39.5427347,3.40241827 L38.2538581,4.67832512 C37.3258669,3.72139498 36.2432105,2.97711599 35.1089991,2.49865092 C33.9747877,2.02018585 32.8405763,1.75437192 31.7579199,1.75437192 C30.3659332,1.75437192 29.1286116,2.12651142 27.9428451,2.81762763 C26.7570786,3.50874384 25.8290875,4.41251119 25.1588716,5.58209247 C24.4886558,6.75167375 24.1277703,7.97441782 24.1277703,9.25032467 C24.1277703,10.5793943 24.4886558,11.8021384 25.1588716,13.0248824 C25.8806425,14.1944637 26.8086337,15.1513939 27.9944002,15.8425101 C29.1801667,16.5336263 30.5721534,16.9057658 31.9641402,16.9057658 C33.7685674,16.9057658 35.2121092,16.4273007 36.3978757,15.364045 C37.5836422,14.3007893 38.3569682,13.0248824 38.5116334,11.3768361 L33.0467965,11.3768361 L33.0467965,9.67562696 L40.4191708,9.67562696 C40.4191708,12.386929 39.6458448,14.5666032 38.0476378,16.1614868 C36.5009859,17.7563703 34.4387833,18.5538121 31.809475,18.5538121 C28.664616,18.5538121 26.1899729,17.4373936 24.3339906,15.2577194 C22.8904488,13.5565103 22.2202329,11.5894872 22.2202329,9.30348746 C22.2202329,7.65544111 22.6326734,6.06055754 23.4575545,4.62516234 C24.2824355,3.18976713 25.3650919,2.07334863 26.8086337,1.27590685 C28.2521755,0.478465069 29.8503825,0.0531627855 31.6032547,0.0531627855 C33.0467965,0.0531627855 34.3872282,0.318976713 35.7276599,0.850604568 C37.0680916,1.38223242 38.3054131,2.23283699 39.5427347,3.40241827 L39.5427347,3.40241827 Z" id="Shape" fill="#595959"></path>
                    <polygon id="Shape" fill="#595959" points="43.4609196 0.478465069 45.1622367 0.478465069 45.1622367 18.0753471 43.4609196 18.0753471"></polygon>
                    <polygon id="Shape" fill="#595959" points="47.4306596 2.1796742 47.4306596 0.478465069 56.7621263 0.478465069 56.7621263 2.1796742 52.9470515 2.1796742 52.9470515 18.0221843 51.2457344 18.0221843 51.2457344 2.1796742"></polygon>
                    <path d="M64.2376107,0.478465069 L72.1770907,18.0753471 L70.3211083,18.0753471 L67.640245,12.2806034 L60.2678707,12.2806034 L57.5870074,18.0753471 L55.731025,18.0753471 L63.8251702,0.478465069 L64.2376107,0.478465069 L64.2376107,0.478465069 L64.2376107,0.478465069 Z M64.0829455,4.19986005 L61.1958619,10.5793943 L67.0215842,10.5793943 L64.0829455,4.19986005 L64.0829455,4.19986005 Z" id="Shape" fill="#595959"></path>
                    <polygon id="Shape" fill="#595959" points="74.9610642 0.478465069 76.6623813 0.478465069 76.6623813 16.4273007 83.2614296 16.4273007 83.2614296 18.1285098 75.0126192 18.1285098 75.0126192 0.478465069"></polygon>
                    <path d="M95.9439755,0.478465069 C97.3359623,0.478465069 98.3155085,0.637953426 99.0888345,0.956930138 C99.8621605,1.27590685 100.377711,1.80753471 100.790152,2.49865092 C101.202592,3.18976713 101.460367,3.98720891 101.460367,4.78465069 C101.460367,5.58209247 101.305702,6.27320869 100.944817,6.91116211 C100.583931,7.60227832 100.068381,8.08074339 99.3466098,8.45288289 C100.223046,8.7718596 100.893262,9.1439991 101.357257,9.56930138 C101.821253,9.99460367 102.182138,10.4730687 102.491469,11.1110222 C102.800799,11.7489756 102.903909,12.3337662 102.903909,13.0780452 C102.903909,14.5134404 102.439914,15.7361845 101.408812,16.6399519 C100.377711,17.5437192 99.0888345,18.1285098 97.3875174,18.1285098 L92.6960065,18.1285098 L92.5413413,0.956930126 L92.5413413,0.478465069 L95.9439755,0.478465069 Z M94.1911033,2.1796742 L94.1911033,7.81492946 L95.1190945,7.81492946 C96.304861,7.81492946 97.1812971,7.70860389 97.7484028,7.44278997 C98.3155085,7.17697604 98.7795041,6.80483654 99.0372794,6.32637147 C99.3466098,5.8479064 99.501275,5.26311576 99.501275,4.67832512 C99.501275,3.88088334 99.1919446,3.24292991 98.676394,2.76446484 C98.1608433,2.28599978 97.2328522,2.07334863 96.0470857,2.07334863 L94.1395483,2.07334863 L94.1395483,2.1796742 L94.1911033,2.1796742 L94.1911033,2.1796742 L94.1911033,2.1796742 Z M94.1911033,16.3209751 L96.304861,16.3209751 C97.5421825,16.3209751 98.4186186,16.2146496 99.0372794,15.9488356 C99.6559402,15.6830217 100.119936,15.2577194 100.480821,14.7792544 C100.841707,14.2476265 100.996372,13.6628359 100.996372,13.0780452 C100.996372,12.2806034 100.738597,11.5894872 100.223046,11.0578594 C99.7590503,10.419906 99.0372794,10.1009292 98.2123984,9.83511531 C97.5937376,9.72878974 96.6141914,9.56930138 95.1706496,9.56930138 L94.1911033,9.56930138 L94.1911033,16.3209751 Z" id="Shape" fill="#2852AA"></path>
                    <polygon id="Shape" fill="#2852AA" points="105.326997 0.478465069 107.028314 0.478465069 107.028314 18.0753471 105.326997 18.0753471"></polygon>
                    <path d="M113.936693,0.478465069 C115.32868,0.478465069 116.308226,0.637953426 117.081552,0.956930138 C117.854878,1.27590685 118.370429,1.80753471 118.782869,2.49865092 C119.19531,3.18976713 119.453085,3.98720891 119.453085,4.78465069 C119.453085,5.58209247 119.29842,6.27320869 118.937534,6.91116211 C118.576649,7.60227832 118.061098,8.08074339 117.339327,8.45288289 C118.215764,8.7718596 118.885979,9.1439991 119.349975,9.56930138 C119.813971,9.99460367 120.174856,10.4730687 120.484186,11.1110222 C120.793517,11.7489756 120.896627,12.3337662 120.896627,13.0780452 C120.896627,14.5134404 120.432631,15.7361845 119.40153,16.6399519 C118.370429,17.5437192 117.081552,18.1285098 115.380235,18.1285098 L110.688724,18.1285098 L110.534059,0.478465069 L113.936693,0.478465069 Z M112.183821,2.1796742 L112.183821,7.81492946 L113.111812,7.81492946 C114.297579,7.81492946 115.174015,7.70860389 115.74112,7.44278997 C116.308226,7.17697604 116.772222,6.80483654 117.029997,6.32637147 C117.339327,5.8479064 117.493993,5.26311576 117.493993,4.67832512 C117.493993,3.88088334 117.184662,3.24292991 116.669112,2.76446484 C116.153561,2.28599978 115.22557,2.07334863 114.039803,2.07334863 L112.132266,2.07334863 L112.183821,2.1796742 L112.183821,2.1796742 L112.183821,2.1796742 Z M112.183821,9.56930138 L112.183821,16.3209751 L114.297579,16.3209751 C115.5349,16.3209751 116.411336,16.2146496 117.029997,15.9488356 C117.648658,15.6830217 118.112653,15.2577194 118.473539,14.7792544 C118.834424,14.2476265 118.989089,13.6628359 118.989089,13.0780452 C118.989089,12.2806034 118.731314,11.5894872 118.215764,11.0578594 C117.751768,10.419906 117.029997,10.1009292 116.205116,9.83511531 C115.586455,9.72878974 114.606909,9.56930138 113.163367,9.56930138 L112.183821,9.56930138 L112.183821,9.56930138 Z" id="Shape" fill="#2852AA"></path>
                    <polygon id="Shape" fill="#2852AA" points="123.629045 0.478465069 125.330362 0.478465069 125.330362 16.4273007 131.877856 16.4273007 131.877856 18.1285098 123.629045 18.1285098"></polygon>
                    <path d="M134.094723,0.478465069 L143.838631,0.478465069 L143.838631,2.1796742 L135.744486,2.1796742 L135.744486,7.70860389 L143.787076,7.70860389 L143.787076,9.40981303 L135.744486,9.40981303 L135.744486,16.3209751 L143.787076,16.3209751 L143.787076,18.0221843 L134.094723,18.0221843 C134.094723,18.0221843 134.094723,0.478465069 134.094723,0.478465069 L134.094723,0.478465069 Z" id="Shape" fill="#2852AA"></path>
                    <path d="M153.170097,14.7792544 L154.763229,13.875487 C155.90118,15.8425101 157.209824,16.7462774 158.68916,16.7462774 C159.371931,16.7462774 159.940907,16.6399519 160.452985,16.3209751 C160.965063,16.0019984 161.420243,15.6298589 161.704731,15.2045566 C161.989219,14.7792544 162.159911,14.2476265 162.159911,13.7159987 C162.159911,13.0780452 161.989219,12.5464174 161.477141,12.0147895 C160.908165,11.2173477 159.827112,10.3135804 158.290878,9.19716189 C156.697746,8.08074339 155.730487,7.28330161 155.332205,6.80483654 C154.649434,5.95423197 154.364946,5.10362741 154.364946,4.09353448 C154.364946,3.34925548 154.535639,2.60497649 154.933922,2.02018585 C155.332205,1.38223242 155.844283,0.903767353 156.583951,0.531627855 C157.323619,0.159488356 158.120185,2.27373675e-13 158.859853,2.27373675e-13 C159.770214,2.27373675e-13 160.56678,0.159488356 161.363346,0.637953426 C162.159911,1.06325571 162.956477,1.80753471 163.809941,2.9239532 L162.273706,4.0403717 C161.534038,3.18976713 160.965063,2.5518137 160.452985,2.33916256 C159.940907,2.07334863 159.428829,1.91386028 158.802956,1.91386028 C158.00639,1.91386028 157.437414,2.1796742 156.982234,2.60497649 C156.527053,3.03027877 156.242565,3.56190663 156.242565,4.19986005 C156.242565,4.57199955 156.299463,4.94413905 156.527053,5.31627855 C156.697746,5.68841805 156.982234,6.06055754 157.437414,6.48585983 C157.721902,6.75167375 158.46157,7.28330161 159.884009,8.24023175 C161.534038,9.35665024 162.615092,10.3667432 163.240965,11.2173477 C163.809941,12.0679523 164.151326,12.9717197 164.151326,13.875487 C164.151326,15.1513939 163.639248,16.2678124 162.558194,17.1715797 C161.534038,18.0753471 160.282292,18.6069749 158.746058,18.6069749 C157.608107,18.6069749 156.583951,18.2879982 155.67359,17.7563703 C154.706331,17.1184169 153.966663,16.1614868 153.170097,14.7792544 L153.170097,14.7792544 Z" id="Shape" fill="#595959"></path>
                    <path d="M173.291345,0.0531627855 C175.6193,0.0531627855 177.490793,0.956930138 179.042763,2.76446484 C180.594733,4.57199955 181.370718,6.69851097 181.370718,9.30348746 C181.370718,11.8553012 180.594733,14.0881381 179.042763,15.8425101 C177.490793,17.596882 175.6193,18.5538121 173.428283,18.5538121 C171.145975,18.5538121 169.274481,17.6500448 167.768158,15.8425101 C166.261834,14.0349754 165.440203,11.9084639 165.440203,9.35665024 C165.440203,7.65544111 165.805372,6.11372033 166.490065,4.62516234 C167.174757,3.13660434 168.178973,2.07334863 169.365774,1.27590685 C170.643867,0.478465069 171.92196,0.0531627855 173.291345,0.0531627855 L173.291345,0.0531627855 Z M173.428283,1.75437192 C172.332775,1.75437192 171.282913,2.12651142 170.278697,2.81762763 C169.274481,3.50874384 168.498497,4.41251119 167.905096,5.58209247 C167.311696,6.75167375 167.083465,8.02758061 167.083465,9.46297581 C167.083465,11.5363244 167.722512,13.3438592 168.954958,14.7260916 C170.233051,16.2146496 171.693729,16.852603 173.47393,16.852603 C174.615084,16.852603 175.756238,16.5336263 176.714808,15.8956729 C177.719024,15.2045566 178.495009,14.3007893 179.042763,13.1843708 C179.636163,12.0147895 179.864394,10.7388827 179.864394,9.30348746 C179.864394,7.86809225 179.590517,6.64534818 179.042763,5.52892969 C178.449363,4.41251119 177.673378,3.50874384 176.669162,2.81762763 C175.6193,2.07334863 174.569438,1.75437192 173.428283,1.75437192 L173.428283,1.75437192 Z" id="Shape" fill="#595959"></path>
                    <path d="M199.672766,3.72139498 L198.366177,4.78465069 C197.688687,3.82772055 196.817628,3.03027877 195.849784,2.49865092 C194.88194,2.02018585 193.76892,1.70120914 192.607508,1.70120914 C191.300919,1.70120914 190.139507,2.02018585 189.026487,2.76446484 C187.913467,3.50874384 187.0908,4.35934841 186.510094,5.4757669 C185.929388,6.5921854 185.639034,7.86809225 185.639034,9.35665024 C185.639034,11.4831617 186.316525,13.2906964 187.623114,14.7260916 C188.978095,16.2146496 190.623429,16.852603 192.704292,16.852603 C194.930333,16.852603 196.817628,15.8956729 198.317785,13.9818126 L199.624374,15.0450683 C198.850099,16.1614868 197.833863,17.0120914 196.624059,17.596882 C195.414254,18.1816726 194.107666,18.5006493 192.607508,18.5006493 C189.800762,18.5006493 187.574722,17.4373936 185.97778,15.4172078 C184.622799,13.7159987 183.896916,11.64265 183.896916,9.1439991 C183.896916,6.5921854 184.719583,4.41251119 186.364917,2.65813927 C187.961859,0.903767353 190.139507,0 192.6559,0 C194.156058,0 195.511039,0.318976713 196.720843,0.956930138 C197.930648,1.59488356 198.898491,2.5518137 199.672766,3.72139498 L199.672766,3.72139498 Z" id="Shape" fill="#595959"></path>
                    <polygon id="Shape" fill="#595959" points="203.436286 0.478465069 205.137603 0.478465069 205.137603 18.0753471 203.436286 18.0753471"></polygon>
                    <polygon id="Shape" fill="#595959" points="208.540237 0.478465069 218.335699 0.478465069 218.335699 2.1796742 210.189999 2.1796742 210.189999 7.70860389 218.232589 7.70860389 218.232589 9.40981303 210.189999 9.40981303 210.189999 16.3209751 218.232589 16.3209751 218.232589 18.0221843 208.540237 18.0221843 208.540237 0.478465069"></polygon>
                    <polygon id="Shape" fill="#595959" points="220.037016 2.1796742 220.037016 0.478465069 229.368483 0.478465069 229.368483 2.1796742 225.553408 2.1796742 225.553408 18.0221843 223.852091 18.0221843 223.852091 2.1796742"></polygon>
                    <polygon id="Shape" fill="#595959" points="230.502695 0.478465069 232.461787 0.478465069 236.843968 7.70860389 241.123038 0.478465069 243.08213 0.478465069 237.668849 9.67562696 237.668849 18.0753471 236.019087 18.0753471 236.019087 9.67562696"></polygon>
                </g>
                <g id="Logo">
                    <rect id="Rectangle-path" fill="#6C6C6C" x="0" y="134.714498" width="137.865768" height="6.69851097"></rect>
                    <rect id="Rectangle-path" fill="#6C6C6C" x="161.721193" y="134.714498" width="137.865768" height="6.69851097"></rect>
                    <rect id="Rectangle-path" fill="#6C6C6C" x="25.9208298" y="139.871289" width="249.759072" height="9.72878974"></rect>
                    <ellipse id="Oval" fill="#6C6C6C" cx="280.688508" cy="140.881381" rx="19.0017239" ry="6.16688311"></ellipse>
                    <ellipse id="Oval" fill="#6C6C6C" cx="19.0017239" cy="140.881381" rx="19.0017239" ry="6.16688311"></ellipse>
                    <path d="M137.814133,134.714498 L137.814133,134.714498 C144.423428,134.714498 149.793481,137.957428 149.793481,141.944637 L149.793481,141.944637 C149.793481,145.931846 144.423428,149.174776 137.814133,149.174776 L137.814133,149.174776 C131.204838,149.174776 125.834786,145.931846 125.834786,141.944637 L125.834786,141.944637 C125.834786,137.957428 131.204838,134.714498 137.814133,134.714498 L137.814133,134.714498 Z" id="Shape" fill="#6C6C6C"></path>
                    <path d="M161.721193,134.714498 L161.721193,134.714498 C168.330489,134.714498 173.700541,137.957428 173.700541,141.944637 L173.700541,141.944637 C173.700541,145.931846 168.330489,149.174776 161.721193,149.174776 L161.721193,149.174776 C155.111898,149.174776 149.741846,145.931846 149.741846,141.944637 L149.741846,141.944637 C149.845116,137.957428 155.163533,134.714498 161.721193,134.714498 L161.721193,134.714498 Z" id="Shape" fill="#6C6C6C"></path>
                    <ellipse id="Oval" fill="#A1A1A1" cx="269.173876" cy="141.944637" rx="2.99483691" ry="3.08344156"></ellipse>
                    <rect id="Rectangle-path" fill="#A1A1A1" x="221.256486" y="140.349754" width="38.984515" height="4.09353448"></rect>
                    <line x1="274.182483" y1="148.058358" x2="284.199696" y2="137.744777" id="lineAB" stroke="#6C6C6C" stroke-width="2" fill="#000000"></line>
                    <line x1="17.5043054" y1="137.744777" x2="27.5215185" y2="148.058358" id="lineBC" stroke="#6C6C6C" stroke-width="2" fill="#000000"></line>
                    <path d="M242.633425,48.324972 C228.640308,27.750974 205.301234,11.64265 172.719474,0 C203.339099,46.6237629 197.814142,90.8552004 156.247871,132.694313 C196.265088,118.978314 225.02585,90.8552004 242.633425,48.324972" id="Shape" fill="#D1EAF1"></path>
                    <path d="M276.712604,70.9191558 C263.339108,43.5403213 245.060276,22.2752071 221.772837,7.23013882 C221.772837,67.5699003 199.931182,109.409012 156.299506,132.694313 C208.244436,129.238731 248.364923,108.664733 276.712604,70.9191558" id="Shape" fill="#A5CBE2" opacity="0.75"></path>
                    <path d="M293.648923,83.3060848 C288.278871,64.1143193 278.364928,44.2314375 263.648919,23.6574395 C252.340828,88.0907355 216.609325,124.400918 156.299506,132.694313 C225.593836,129.929848 271.342552,113.449384 293.648923,83.3060848" id="Shape" fill="#3F87C1" opacity="0.85"></path>
                    <path d="M299.638597,122.380732 C299.638597,114.459477 298.605894,107.335664 296.64376,100.743478 C267.418282,121.370639 220.585229,131.950034 156.299506,132.64115 C196.265088,133.332266 244.027573,129.929848 299.638597,122.380732" id="Shape" fill="#2468B9"></path>
                    <path d="M0,124.400918 C0,117.542919 1.03270238,109.35585 2.99483691,99.7333855 C28.2960453,120.9985 71.2048294,131.950034 131.876094,132.64115 C98.5198075,134.023382 54.6299561,131.258917 0,124.400918" id="Shape" fill="#7AA4D6"></path>
                    <path d="M5.98967383,83.3060848 C5.98967383,80.54162 8.67470003,70.2812024 13.9414822,52.4185065 C36.6609346,100.424502 75.9036253,127.165383 131.876094,132.64115 C71.876086,131.258917 29.9483691,114.831617 5.98967383,83.3060848" id="Shape" fill="#9BC0DD"></path>
                </g>
            </g>
        </g>
    </g>
</svg>