<?xml version="1.0" encoding="UTF-8"?>
<svg width="100px" height="100px" viewBox="0 0 100 100" version="1.1" xmlns="http://www.w3.org/2000/svg" xmlns:xlink="http://www.w3.org/1999/xlink">
    <title>logo_type_ow</title>
    <g id="BibleCloud-Icons" stroke="none" stroke-width="1" fill="none" fill-rule="evenodd">
        <g id="BibleCloud" transform="translate(-59, -10035)">
            <g id="logo_type_ow" transform="translate(59, 10035)">
                <rect id="Rectangle" fill="#14789C" fill-rule="nonzero" x="-5.68434189e-14" y="6.32383035e-13" width="99.9860196" height="99.9860196" rx="12"></rect>
                <rect id="Rectangle" fill="#F04E23" x="0" y="0" width="100" height="41" rx="12"></rect>
                <rect id="Rectangle" fill="#14789C" x="0" y="27" width="100" height="41"></rect>
                <path d="M8.728,56.206 C8.728,50.9499737 10.3119842,46.720016 13.48,43.516 C16.6480158,40.311984 20.5989763,38.71 25.333,38.71 C30.0670237,38.71 34.0089842,40.311984 37.159,43.516 C40.3090157,46.720016 41.884,50.9589736 41.884,56.233 C41.884,61.5070264 40.3090157,65.7369841 37.159,68.923 C34.0089842,72.1090159 30.0400239,73.702 25.252,73.702 C20.4639761,73.702 16.5130156,72.0910161 13.399,68.869 C10.2849844,65.6469839 8.728,61.4260261 8.728,56.206 Z M37.51,56.206 C37.51,51.2739753 36.3400117,47.3680144 34,44.488 C31.6599883,41.6079856 28.7800171,40.168 25.36,40.168 C21.9399829,40.168 19.0420119,41.6169855 16.666,44.515 C14.2899881,47.4130145 13.102,51.3099755 13.102,56.206 C13.102,61.1020245 14.2809882,64.9989855 16.639,67.897 C18.9970118,70.7950145 21.8949828,72.244 25.333,72.244 C28.7710172,72.244 31.6599883,70.7950145 34,67.897 C36.3400117,64.9989855 37.51,61.1020245 37.51,56.206 Z M90.862,40.222 C89.3859926,40.4740013 88.3600029,40.8609974 87.784,41.383 C87.2079971,41.9050026 85.6420128,45.8559631 83.086,53.236 C80.2059856,61.5520416 77.9560081,68.3199739 76.336,73.54 L75.904,73.54 C73.7799894,67.4199694 70.9540176,60.0040436 67.426,51.292 L59.812,73.54 L59.38,73.54 C57.6879915,68.6079753 55.2940155,62.0560409 52.198,53.884 C51.2259951,51.3639874 50.2540049,48.8350127 49.282,46.297 C48.3099951,43.7589873 47.4640036,42.1390035 46.744,41.437 C46.0239964,40.7349965 45.0700059,40.3300005 43.882,40.222 L43.882,39.412 L56.302,39.412 L56.302,40.222 C53.6379867,40.222 52.306,40.9419928 52.306,42.382 C52.306,42.8500023 52.4859982,43.587995 52.846,44.596 L60.784,65.98 L66.616,48.916 L64.942,44.974 C64.1139959,42.9219897 63.3940031,41.6170028 62.782,41.059 C62.1699969,40.5009972 61.0720079,40.222 59.488,40.222 L59.488,39.412 L73.042,39.412 L73.042,40.222 C69.9099843,40.222 68.344,40.9779924 68.344,42.49 C68.344,42.8140016 68.4699987,43.2819969 68.722,43.894 C69.2620027,45.1540063 69.6039993,45.9999978 69.748,46.432 L77.146,65.872 L83.68,46.432 C84.2200027,44.8119919 84.49,43.5880041 84.49,42.76 C84.49,41.3199928 83.2660122,40.4740013 80.818,40.222 L80.818,39.412 L90.862,39.412 L90.862,40.222 Z" id="OW" fill="#FDFCFC" fill-rule="nonzero"></path>
            </g>
        </g>
    </g>
</svg>