<?xml version="1.0" encoding="UTF-8"?>
<svg width="102px" height="102px" viewBox="0 0 102 102" version="1.1" xmlns="http://www.w3.org/2000/svg" xmlns:xlink="http://www.w3.org/1999/xlink">
    <title>logo_type_bible_societies</title>
    <g id="BibleCloud-Icons" stroke="none" stroke-width="1" fill="none" fill-rule="evenodd">
        <g id="BibleCloud" transform="translate(-1026, -10052)" fill-rule="nonzero">
            <g id="logo_type_bible_societies" transform="translate(1027, 10053)">
                <rect id="Rectangle" stroke="#979797" fill="#0DB5CC" x="0.0093868584" y="0.0119832235" width="99.9860196" height="99.9860196" rx="12"></rect>
                <g id="Group-7" transform="translate(23.8408, 12.9248)">
                    <path d="M46.4685402,33.9087645 C52.0920273,36.0957336 54.7088192,40.2692138 55.3891713,45.8877109 C56.4903988,54.9848826 51.1537471,62.4388163 42.5985858,65.5926287 C38.0143822,67.2826688 33.261381,68.0401068 28.4066883,68.0727995 C19.3349826,68.1338832 10.2624165,68.0758967 1.19019449,68.1120763 C0.254151103,68.1158162 -0.00119602602,67.8849026 4.20596349e-06,66.932857 C0.0282273966,45.0084496 0.030177487,23.0840422 0.00585871273,1.15963486 C0.00499837874,0.321841618 0.14953449,-0.00405289873 1.09813875,3.79934641e-05 C11.1528621,0.0429213373 21.2089621,-0.0431120621 31.262653,0.0749257619 C35.6159431,0.126545802 39.8900823,0.783496839 43.7493686,3.12893937 C54.2819215,9.52982429 56.7295717,24.564677 47.1967269,33.3048101 C47.0033238,33.4820389 46.7923699,33.6401683 46.4685402,33.9087645 Z M32.6897751,33.9860225 C39.0302645,31.3017805 41.9159968,25.4962467 41.8192953,20.3946382 C41.6764798,12.8618978 35.4720952,6.56287648 27.9149214,6.5492832 C22.9645596,6.54016366 18.0138537,6.57629769 13.063836,6.52368032 C12.0324676,6.51314917 11.7370289,6.78432645 11.7404703,7.83582665 C11.778497,19.3987155 11.7643875,30.9628089 11.7643875,42.526386 C11.7643875,48.3837119 11.79123,54.2412099 11.7401261,60.0981917 C11.7306624,61.1875466 11.9220007,61.6199504 13.1392013,61.5585226 C15.4008473,61.4439261 17.6736776,61.5757293 19.9394532,61.5134411 C23.1836006,61.4234501 26.4330821,61.7185447 29.6731,61.3145319 C39.9606297,60.0317739 45.365592,47.6152616 39.3002374,39.1991303 C37.6246509,36.8750241 35.4581578,35.1786175 32.6897751,33.9860225 L32.6897751,33.9860225 Z" id="Shape" fill="#FFFFFF"></path>
                    <path d="M32.6897751,33.9860225 C35.4581578,35.1786175 37.6246509,36.8743358 39.3002374,39.1996465 C45.3661082,47.6157778 39.9606297,60.0322901 29.6731,61.3150481 C26.4330821,61.7190609 23.1836006,61.4239663 19.9394532,61.5139573 C17.6736776,61.5767617 15.4008473,61.4451306 13.1392013,61.5590388 C11.9220007,61.6204666 11.7306624,61.1880628 11.7401261,60.0987079 C11.7917462,54.2417261 11.7643875,48.3842281 11.7643875,42.5269022 C11.7643875,30.9640133 11.778497,19.3997479 11.7404703,7.83634285 C11.7370289,6.78484265 12.0329838,6.51366537 13.063836,6.52419652 C18.0138537,6.57612562 22.9645596,6.54067986 27.9149214,6.5497994 C35.4720952,6.56339268 41.6764798,12.862414 41.8192953,20.3951544 C41.9159968,25.4962467 39.0302645,31.3014363 32.6897751,33.9860225 Z" id="Path" fill="#0DB5CC"></path>
                </g>
            </g>
        </g>
    </g>
</svg>