<?xml version="1.0" encoding="UTF-8"?>
<svg width="101px" height="102px" viewBox="0 0 101 102" version="1.1" xmlns="http://www.w3.org/2000/svg" xmlns:xlink="http://www.w3.org/1999/xlink">
    <title>logo_type_grn</title>
    <defs>
        <rect id="path-1" x="0" y="0" width="99.009901" height="99.21875" rx="9"></rect>
        <filter x="-4.5%" y="-4.5%" width="109.1%" height="109.1%" filterUnits="objectBoundingBox" id="filter-2">
            <feGaussianBlur stdDeviation="2" in="SourceAlpha" result="shadowBlurInner1"></feGaussianBlur>
            <feOffset dx="3" dy="2" in="shadowBlurInner1" result="shadowOffsetInner1"></feOffset>
            <feComposite in="shadowOffsetInner1" in2="SourceAlpha" operator="arithmetic" k2="-1" k3="1" result="shadowInnerInner1"></feComposite>
            <feColorMatrix values="0 0 0 0 0.910495924   0 0 0 0 0.910495924   0 0 0 0 0.910495924  0 0 0 0.5 0" type="matrix" in="shadowInnerInner1"></feColorMatrix>
        </filter>
    </defs>
    <g id="BibleCloud-Icons" stroke="none" stroke-width="1" fill="none" fill-rule="evenodd">
        <g id="BibleCloud" transform="translate(-1316, -9918)">
            <g id="logo_type_grn" transform="translate(1317, 9919)">
                <g id="Rectangle">
                    <use fill="#FCFCFC" fill-rule="evenodd" xlink:href="#path-1"></use>
                    <use fill="black" fill-opacity="1" filter="url(#filter-2)" xlink:href="#path-1"></use>
                    <use stroke="#CCCCCC" stroke-width="2" xlink:href="#path-1"></use>
                </g>
                <path d="M50.2267538,49.5505423 L52.2986122,49.5505423 L56.2961055,57.4255731 L59.9226641,56.542492 L55.1865269,48.7401604 C55.1865269,48.7401604 58.369039,48.6674612 58.369039,43.2941372 C58.369039,37.9208132 53.9285745,38.2158863 53.9285745,38.2158863 L46.0798114,38.2158863 L46.0798114,56.7627277 L50.2256786,56.9102642 L50.2267538,49.5505423 Z M48.8376073,16.9009745 C49.2825803,16.4550218 50.0044599,16.4446403 50.4622167,16.8776107 C50.7783175,17.1887203 58.2238907,24.6179341 62.1439715,36.3727485 C64.4491425,43.3026901 65.0297359,50.2839487 63.8642483,57.1262235 C62.4116896,65.6523395 58.2314169,73.9571506 51.4395489,81.807592 C51.020325,82.291171 50.2862336,82.345259 49.7999101,81.9284009 C49.3135865,81.5115427 49.2591916,80.7815941 49.6784155,80.2980151 C61.4676877,66.671197 64.9254441,52.163436 59.9624455,37.1767158 C56.3784447,26.3527133 49.4520212,19.1520742 48.8660373,18.5560717 L48.8331245,18.5227948 C48.3878671,18.0647923 48.3926344,17.3469271 48.8376073,16.9009745 Z M55.0489048,43.7207103 C55.0489048,46.8050795 53.3447555,47.0349372 53.3447555,47.0349372 L50.1192365,47.0862543 L50.1192365,40.7432516 L53.3276934,40.742933 C53.5735807,40.7475949 55.0489048,40.8933718 55.0489048,43.7207103 Z M65.2931533,5.07254828 C65.7474115,4.62085354 66.4839097,4.62085354 66.938168,5.07254828 C66.9405334,5.07490031 66.9441051,5.07845449 66.9488636,5.08320591 L67.0232106,5.15816124 C67.5031,5.64567486 69.8799847,8.12094805 72.8129134,12.2451767 C75.7793157,16.414688 79.8940029,23.1286702 82.6496713,31.4377578 C85.754771,40.8041906 86.5353466,50.2401153 84.9688195,59.4825319 C83.014155,71.0096269 77.3856242,82.2469943 68.2402025,92.869626 C67.9789846,93.2084261 67.55108,93.3762585 67.1275993,93.3060101 C66.7041186,93.2357618 66.3541767,92.9388977 66.2177086,92.5341282 C66.0812405,92.1293587 66.1805186,91.6827447 66.4758436,91.3728784 C82.5464547,72.6966753 87.2557125,52.8027611 80.4659949,32.2438633 C75.6429553,17.6281227 66.4007758,7.84658093 65.3838783,6.80062506 L65.3115706,6.72680478 C65.3013969,6.71651854 65.2952159,6.71033056 65.2931533,6.70827962 C64.838895,6.25658488 64.838895,5.52424302 65.2931533,5.07254828 Z M79.8144401,40.2632233 C79.8875518,45.3660636 79.9036794,50.4111722 79.9778664,55.5140125 L77.7576341,55.5877808 L69.6938364,45.2837425 C69.7432944,48.6428718 69.7916772,52.2938669 69.8411351,55.6540653 C69.0272292,55.6786548 68.2133232,55.5931263 67.398342,55.6177157 C67.3499593,50.5886437 67.3005013,45.3746164 67.2510433,40.3498208 L69.0272292,40.3498208 C71.7904238,43.809446 74.7363979,47.3962948 77.4942167,50.8623347 C77.521096,47.3738436 77.3630456,43.7624054 77.3866994,40.2781907 C78.1769515,40.2536013 79.0241879,40.2878127 79.8144401,40.2632233 Z M34.3889177,30.7102316 C34.836941,30.2538132 35.5722357,30.2449581 36.0312444,30.6904531 L36.0667734,30.7253322 C36.5254044,31.1792947 40.6642802,35.3966171 42.8736455,41.9192676 C44.2294387,45.9219984 44.5691934,49.9557333 43.8843081,53.9114234 C43.0327711,58.8282394 40.5889028,63.6103481 36.6215144,68.1230422 C36.1990245,68.6033737 35.4649332,68.6521965 34.9818756,68.2320909 C34.498818,67.8119853 34.4497181,67.0820367 34.8722079,66.6017051 C41.5135516,59.0484751 43.4746672,51.0194932 40.6996457,42.7360642 C38.6019831,36.4764518 34.4507401,32.3839161 34.4088083,32.3432901 C33.9497997,31.8977951 33.9408943,31.1666499 34.3889177,30.7102316 Z M13.9568672,50.6538591 C14.1628488,30.5298734 32.5515004,36.4408766 35.1249023,37.3670246 L35.2686473,37.4195514 C35.3695856,37.457046 35.4226965,37.4782036 35.4226965,37.4782036 L33.8679963,40.42252 C33.8679963,40.42252 33.862134,40.4205772 33.8506434,40.4168801 L33.7995202,40.4007139 C32.718872,40.0638753 19.2093454,36.1190712 19.138126,49.4030058 C19.5727246,60.0643528 30.7358718,57.5199873 31.2107026,57.4068901 L31.2262962,57.4031218 L31.2768293,49.4030058 L36.0140417,49.4030058 L36.1624155,60.2223529 C36.1624155,60.2223529 16.9178937,66.6989937 13.9568672,50.6538591 Z" id="Shape" fill="#01597D" fill-rule="nonzero"></path>
            </g>
        </g>
    </g>
</svg>