<?xml version="1.0" encoding="UTF-8"?>
<svg width="101px" height="101px" viewBox="0 0 101 101" version="1.1" xmlns="http://www.w3.org/2000/svg" xmlns:xlink="http://www.w3.org/1999/xlink">
    <title>wfb_type_logo</title>
    <defs>
        <rect id="path-1" x="5.68434189e-14" y="0" width="99.009901" height="99.21875" rx="9"></rect>
        <filter x="-4.0%" y="-4.0%" width="108.1%" height="108.1%" filterUnits="objectBoundingBox" id="filter-2">
            <feGaussianBlur stdDeviation="2" in="SourceAlpha" result="shadowBlurInner1"></feGaussianBlur>
            <feOffset dx="3" dy="2" in="shadowBlurInner1" result="shadowOffsetInner1"></feOffset>
            <feComposite in="shadowOffsetInner1" in2="SourceAlpha" operator="arithmetic" k2="-1" k3="1" result="shadowInnerInner1"></feComposite>
            <feColorMatrix values="0 0 0 0 0.910495924   0 0 0 0 0.910495924   0 0 0 0 0.910495924  0 0 0 0.5 0" type="matrix" in="shadowInnerInner1"></feColorMatrix>
        </filter>
    </defs>
    <g id="BibleCloud-Icons" stroke="none" stroke-width="1" fill="none" fill-rule="evenodd">
        <g id="BibleCloud" transform="translate(-1400, -9760)">
            <g id="wfb_type_logo" transform="translate(1401, 9761)">
                <g id="Rectangle">
                    <use fill="#095395" fill-rule="evenodd" xlink:href="#path-1"></use>
                    <use fill="black" fill-opacity="1" filter="url(#filter-2)" xlink:href="#path-1"></use>
                    <use stroke="#CCCCCC" stroke-width="1" xlink:href="#path-1"></use>
                </g>
                <g id="world-grid" transform="translate(14, 11)" fill="#FFFFFF" fill-rule="nonzero">
                    <path d="M37.6899902,0 C37.6873535,0 37.6848633,0 37.6822266,0 C37.6702148,0 37.6583496,0 37.6464844,0 C37.6447266,0 37.6429688,0 37.6412109,0 C37.6365234,0 37.6316895,0 37.627002,0 C16.9608398,0.0106933385 0,16.7361001 0,37.3534427 C0,42.3948391 1.00415039,47.3043998 2.98476563,51.9458946 C6.81928711,60.9324005 14.048291,68.1722301 23.0538574,72.0149472 C27.6947754,73.9952656 32.6037598,75 37.6444336,75 C37.645752,75 37.6470703,75 37.6483887,75 C37.6517578,75 37.6552734,75 37.6586426,75 C58.3936523,74.9929688 75,57.9089689 75,37.3534427 C75,16.7393228 58.3362305,0.0238769065 37.6899902,0 Z M30.3687012,5.19183556 C26.6214844,8.74436769 23.5598145,12.9051017 21.2542969,17.5780907 L11.0617676,17.5780907 C15.7362305,11.4198996 22.5347168,6.93235951 30.3687012,5.19183556 Z M8.24501953,21.9433165 L19.3765137,21.9433165 C17.8394531,26.1542946 16.9306641,30.6425671 16.6961426,35.1561813 L4.47026367,35.1561813 C4.78623047,30.4206437 6.11557617,25.9266583 8.24501953,21.9433165 Z M8.3277832,53.0272402 C6.14663086,48.9637716 4.78681641,44.3974231 4.4690918,39.550704 L16.6812012,39.550704 C16.8909668,44.1643669 17.8064941,48.725149 19.3768066,53.0272402 L8.3277832,53.0272402 Z M11.151709,57.4217628 L21.2542969,57.4217628 C23.5554199,62.0861092 26.6128418,66.2453784 30.3588867,69.7987895 C22.5786621,68.0522597 15.8213379,63.5716044 11.151709,57.4217628 Z M21.0821777,39.550704 L35.4490723,39.550704 L35.4490723,53.0272402 L24.1151367,53.0272402 C22.3605469,48.8000023 21.3178711,44.2500601 21.0821777,39.550704 Z M35.4493652,68.4249152 C31.7134277,65.3143256 28.6158691,61.5789813 26.2602539,57.4217628 L35.4492188,57.4217628 L35.4492188,68.4249152 L35.4493652,68.4249152 Z M35.4493652,35.1561813 L21.0969727,35.1561813 C21.360498,30.560536 22.397168,26.1119607 24.1154297,21.9726133 L35.4493652,21.9726133 L35.4493652,35.1561813 L35.4493652,35.1561813 Z M35.4493652,17.5780907 L26.2605469,17.5780907 C28.6160156,13.4208722 31.7135742,9.68552796 35.4493652,6.57479185 L35.4493652,17.5780907 L35.4493652,17.5780907 Z M66.7888184,21.9726133 C68.8996582,25.9559552 70.2171387,30.4206437 70.5304687,35.1561813 L58.5966797,35.1561813 C58.3621582,30.6425671 57.4533691,26.1835914 55.9163086,21.9726133 L66.7888184,21.9726133 Z M63.9971191,17.5780907 L54.0388184,17.5780907 C51.7394531,12.9174064 48.6854004,8.76135984 44.9438965,5.20999959 C52.673584,6.96400007 59.3802246,11.4418722 63.9971191,17.5780907 Z M39.8438965,6.57567075 C43.5796875,9.68640686 46.678418,13.4208722 49.0338867,17.5780907 L39.8438965,17.5780907 L39.8438965,6.57567075 Z M39.84375,21.9726133 L51.1804688,21.9726133 C52.8984375,26.1116678 53.9327637,30.560829 54.1962891,35.1561813 L39.84375,35.1561813 L39.84375,21.9726133 Z M54.2121094,39.5214072 C53.9765625,44.2204703 52.9349121,48.8002953 51.1804687,53.0272402 L39.84375,53.0272402 L39.84375,39.5214072 L54.2121094,39.5214072 Z M39.8438965,68.4241828 L39.8438965,57.392466 L49.0338867,57.392466 C46.678418,61.5496845 43.5796875,65.3133002 39.8438965,68.4241828 Z M44.9538574,69.7803325 C48.6878906,66.2339527 51.7398926,62.0522714 54.0386719,57.392466 L63.9077637,57.392466 C59.2962891,63.5198955 52.6303711,68.0203261 44.9538574,69.7803325 Z M55.9164551,53.0272402 C57.4867676,48.725149 58.4022949,44.13507 58.6120605,39.5214072 L70.5317871,39.5214072 C70.2168457,44.3681262 68.869043,48.9637716 66.7070801,53.0272402 L55.9164551,53.0272402 Z" id="Shape"></path>
                </g>
            </g>
        </g>
    </g>
</svg>