<?xml version="1.0" encoding="UTF-8"?>
<svg width="102px" height="102px" viewBox="0 0 102 102" version="1.1" xmlns="http://www.w3.org/2000/svg" xmlns:xlink="http://www.w3.org/1999/xlink">
    <title>logo_type_ubs</title>
    <g id="BibleCloud-Icons" stroke="none" stroke-width="1" fill="none" fill-rule="evenodd">
        <g id="BibleCloud" transform="translate(-875, -10044)" fill-rule="nonzero">
            <g id="logo_type_ubs" transform="translate(876, 10045)">
                <rect id="Rectangle" stroke="#979797" fill="#FBFBFB" x="0" y="0" width="100" height="100" rx="12"></rect>
                <g id="Group-6" transform="translate(10.9541, 12.1873)">
                    <path d="M21.5400173,58.1309579 C27.7296919,58.1888216 33.2898099,59.9164373 38.5091111,62.8217711 C39.1974956,63.2048284 39.6798856,63.2287454 40.3865936,62.8354655 C45.9634921,59.732238 51.9051245,57.9047111 58.3445771,58.1701123 C65.5775333,58.468303 72.246126,60.4736642 78.0278618,65.0136461 C78.6493174,65.5016296 78.6417951,65.7924908 78.1717494,66.3819285 C76.8370279,68.0561168 75.5703926,69.7846969 74.2921846,71.5030544 C74.0589941,71.8164825 73.9293795,71.9453255 73.5303132,71.6490637 C64.3421444,64.8261679 54.623173,64.3715525 44.4846901,69.3001853 C42.9030837,70.0688074 41.4395191,71.0478603 40.0779875,72.1599997 C39.6172,72.5363063 39.3205523,72.5418998 38.843563,72.1698365 C35.080497,69.230556 30.8778601,67.2099574 26.1409489,66.4673739 C18.6045944,65.2863768 11.6763868,66.7566921 5.57485787,71.4905173 C5.06681503,71.8845687 4.85947028,71.8805182 4.47660581,71.346051 C3.24488159,69.6266005 1.97143126,67.9372391 0.656254808,66.2779669 C0.220155772,65.730191 0.313509126,65.4777126 0.81422257,65.0757531 C4.58886129,62.0444694 8.89680997,60.1592717 13.5801009,59.0729781 C16.2526299,58.4532585 18.9673995,58.1668334 21.5400173,58.1309579 Z" id="Path" fill="#3BBBD9"></path>
                    <path d="M16.3104936,0.51245774 C16.6769634,-0.158760591 17.236312,0.0829165838 17.7815804,0.184563728 C22.0368732,0.975366933 26.295252,1.75189711 30.5472658,2.56063804 C30.9312876,2.63373912 31.7431146,2.47364969 31.2832914,3.40081823 C33.2981037,3.58521039 35.2758832,3.75841558 37.2519269,3.95013714 C38.216321,4.04368337 38.2006978,4.06914338 38.0909498,5.03025859 C37.7285304,8.20581566 37.3852061,11.3834944 37.0343595,14.5604016 C36.6486019,14.5580871 36.6806198,14.2284571 36.6534238,14.0091539 C36.5785869,13.4011998 36.3403815,13.4993752 35.9783479,13.7915866 C34.8403628,14.7083397 33.6101817,15.4979856 32.4409502,16.3719196 C32.194451,16.5561189 31.9489163,16.7522766 31.6053991,16.6697245 C31.2775051,16.5078992 31.164671,16.1823197 31.0142255,15.8856721 C30.4665782,14.8063221 29.9190595,13.7269079 29.3716694,12.6474294 C29.0111788,11.9387925 28.8923655,11.9040744 28.1717701,12.2726658 C27.4841571,12.6242839 26.8328053,13.0441811 26.1272545,13.3620454 C25.8279066,13.4970606 25.4828464,13.7709486 25.1942996,13.5277284 C24.8613908,13.2470897 25.125249,12.8526524 25.2346113,12.5247584 C25.4136029,11.9885553 25.597995,11.454088 25.7848946,10.9066979 C25.4625941,10.6910594 24.9022811,11.1481822 24.7458564,10.5300056 C24.7844321,10.1386544 25.0598631,9.89176951 25.2990328,9.62347506 C26.8613514,7.87174952 28.3631059,6.06678942 29.9402761,4.32779389 C30.1078878,4.14282309 30.3144611,3.96903926 30.336835,3.61414221 C29.0381819,3.47546234 27.7416504,3.33350352 26.4406826,3.22954183 C25.0569699,3.11882938 25.0698928,3.12384423 24.9327559,4.49540559 C24.7398771,6.41975768 24.4912563,8.33832341 24.3049354,10.2624826 C24.2771608,10.5489077 24.2293268,10.8274247 23.9940147,11.0309119 C22.9218013,11.5850528 21.7452404,11.6845782 20.5752374,11.8149643 C20.4924144,11.79867 20.4141874,11.7643634 20.3460974,11.7144745 C20.2879398,11.6566063 20.2554823,11.5777909 20.2560229,11.4957499 C20.9544372,10.2142629 21.368548,8.8741408 21.3168565,7.38203017 C21.2275536,4.811534 20.0911115,2.87541629 17.9489992,1.49826144 C17.6436721,1.30191079 17.3252291,1.13584212 16.9408216,1.19332001 C16.5965329,1.09109423 16.3182087,0.925989952 16.3104936,0.51245774 L16.3104936,0.51245774 Z" id="Path" fill="#437CBF"></path>
                    <path d="M1.92771206,26.0359205 C1.92424024,25.9347234 1.92070413,25.8335263 1.91710372,25.7323292 C2.05211891,25.3741532 2.36998322,25.3037525 2.6789751,25.3369276 C4.90325378,25.5753259 7.14720609,25.6247028 9.35258264,26.0293626 C9.42899933,26.063679 9.49773949,26.113004 9.55471966,26.1744075 C9.87065518,26.7738749 9.87972049,27.4539657 10.0401957,28.0954807 C10.2650924,28.9950675 10.4705083,29.120053 11.3257331,28.7234941 C12.3555132,28.2459262 13.2635867,27.5876307 14.020829,26.7320202 C14.1352559,26.6228651 14.277982,26.5479607 14.4328182,26.515803 C15.263933,26.6205363 15.4598979,26.7617236 15.4496754,27.553684 C15.4402243,28.2673357 15.7827771,28.6638946 16.3089505,29.0720262 C17.6317136,30.0975629 19.0642246,30.9815266 20.2965275,32.1241408 C20.3968568,32.2433004 20.4711621,32.3821219 20.5146735,32.5316938 C20.609377,33.4440106 20.6882644,34.3597993 20.8163359,35.2688373 C20.9206834,36.0079489 20.9887696,36.0231864 21.6025101,35.6432151 C22.1670664,35.2937186 22.6600647,34.8418035 23.24063,34.514681 C24.1645196,34.7170109 25.8252063,36.09378 26.0703553,36.8579659 C25.9889604,37.5064246 25.4990482,37.9253574 25.1659465,38.4287711 C24.7580077,39.0459834 24.273689,39.6091896 23.8696078,40.2294879 C23.7494443,40.4140729 23.500052,40.5913286 23.6233016,40.8295339 C23.7465511,41.0677393 24.0318189,40.9630061 24.2530509,40.9668637 C24.380351,40.9691782 24.5078439,40.9572197 24.6347582,40.9811367 C24.9678599,41.0656176 25.155531,41.3651585 25.4406059,41.5223547 C26.4850448,42.1328162 27.4596615,42.8495539 28.4651388,43.5188435 C28.9835971,43.8637108 29.3793845,43.8369007 29.8320711,43.408131 C30.3163899,42.9496581 30.680738,42.3717931 31.2481875,41.9954865 C31.3275642,41.9681359 31.4099317,41.9503932 31.4935294,41.9426377 C32.272567,41.8346255 33.025373,42.0197892 33.778372,42.1565403 C34.1907469,42.2321488 34.52327,42.4886776 34.4654064,42.9458005 C34.2958659,44.3125399 34.3381064,45.7172764 33.7845441,47.0195943 C33.4277183,47.3710195 33.1148688,47.0998318 32.815328,46.9289412 C31.831646,46.3674709 30.9029344,45.7161191 29.9670863,45.0803905 C29.4162244,44.7062056 28.9384635,44.6633865 28.326459,44.9544406 C26.4748222,45.8347396 24.5730369,45.9766984 22.6455988,45.173551 C22.4058504,45.1056576 22.2172149,44.9706424 22.0906864,44.7540395 C22.0677338,44.7083272 22.065805,44.6485348 22.0372589,44.6115021 C21.2726873,43.6137399 21.2850315,42.6634259 22.1495144,41.714462 C22.4195448,41.4187788 22.1809537,41.2540603 21.8688757,41.2195349 C21.6395428,41.1940749 21.3945867,41.1655289 21.2451056,41.4066274 C21.015194,41.7777263 21.0522268,42.3960958 20.4367504,42.411719 C19.9800133,42.4234846 19.6567484,42.0473709 19.2763914,41.8400261 C19.1325038,41.7615245 18.9743431,41.7889132 18.826405,41.7472514 C18.4520272,41.5350847 18.4967751,41.0739114 18.2491187,40.7857505 C17.2672369,38.3331032 17.6057392,35.8813561 19.2646257,33.4305091 C17.7352895,33.9481959 16.1785645,34.105585 14.603323,33.5190405 C14.4984049,33.4665787 14.4149582,33.3793142 14.3672394,33.2721556 C14.425103,32.2327316 14.5892429,31.200637 14.6879969,30.0263906 C14.0190931,30.8958884 13.5704569,31.7430122 12.922384,32.443741 C12.7667308,32.5147204 12.6153209,32.4823168 12.4641039,32.4281178 C11.648409,31.8806969 10.9573312,31.1674047 10.435983,30.3348039 C10.1503295,29.8815386 9.81877078,29.7486451 9.28179611,29.8026512 C6.57204142,30.0757676 4.33368259,29.1163883 2.52100734,27.1104485 C2.23824698,26.7962489 2.05462633,26.4328651 1.92771206,26.0359205 Z" id="Path" fill="#0A6333"></path>
                    <path d="M61.5403865,1.48244538 C61.9627911,0.248020863 61.9647199,0.241655861 63.2454353,0.592116697 C66.845133,1.57695601 70.4384656,2.58494077 74.0456855,3.54123402 C74.7064883,3.71636799 74.9805692,3.92371274 74.6511321,4.60534653 C74.5215175,4.87306234 74.4949003,5.19073378 74.4003896,5.56858341 C75.170169,5.43858307 75.7976039,5.09873057 76.4549349,4.85917507 C77.2686907,4.56233455 77.3140172,4.57602894 77.1955896,5.40714382 C76.8721318,7.67674902 76.5311221,9.94365392 76.2005278,12.2122947 C76.1596374,12.4925477 76.1405424,12.7758867 76.1091032,13.0574898 C76.0828717,13.2914518 76.122219,13.5084405 76.4161663,13.4469121 C77.1683937,13.2891372 77.1153521,13.8162751 77.1367616,14.2703118 C77.2782061,17.2572334 77.4168217,20.2442193 77.5526084,23.2312694 C77.5931129,24.1067465 77.6440329,24.9818377 77.6721932,25.8577005 C77.7040182,26.8546912 77.6953387,26.8550769 76.6946833,26.8591274 C76.5237927,26.8990533 76.3806766,26.8398395 76.2487475,26.7376137 C75.8604824,26.4425091 75.5468614,26.0660096 75.1796201,25.7473738 C73.6446904,24.4165099 71.856125,23.8943869 69.8470991,24.0822508 C69.6688188,24.1013084 69.4891042,24.1029234 69.3105102,24.0870728 C69.231041,24.0735687 69.1540153,24.0483484 69.0819488,24.0122358 C67.7019007,22.849948 66.4917789,21.5131048 65.2276511,20.2318107 C65.0237782,20.0252375 64.8690893,19.7528926 64.9271459,19.4639601 C65.2145353,18.0335707 65.4390463,16.5815789 66.1789295,15.2854331 C66.5342123,15.0925543 66.8858304,15.2198543 67.2301191,15.3149436 C68.3470804,15.6235497 69.4717569,15.9053457 70.5781098,16.2513703 C71.3025627,16.4778101 71.9328908,16.8757191 72.5038121,17.3700675 C73.1086801,17.8931549 73.7500022,18.3713015 74.3579563,18.8899527 C74.6588473,19.1464816 74.883744,19.2344343 74.9655246,18.7182906 C75.1956933,17.267456 75.4036167,15.8134711 75.5892947,14.3563358 C75.6523661,13.857744 75.3879292,13.7632334 74.9965781,13.8245689 C74.3564133,13.924673 73.713741,13.9443466 73.0677898,13.929495 C71.9257542,13.9032634 71.6983501,13.5936929 72.0414815,12.4802034 C72.6021803,10.6569198 73.0830272,8.81087655 73.6390969,6.98624281 C73.6985036,6.79124231 73.7781625,6.59874924 73.7660112,6.34222039 C73.3503573,6.28435675 73.0106977,6.48765103 72.6666018,6.62517364 C70.1315954,7.64125932 67.5634137,8.57479286 65.0100838,9.54998823 C64.6175753,9.69985508 64.1284346,10.0530162 63.8458671,9.35884531 C63.8072914,8.5342883 64.0580339,7.72786191 63.9897547,6.89964022 C63.8491461,5.19902757 63.2386846,3.70402375 62.0802543,2.44047453 C61.9066634,2.2512604 61.7238142,2.06763975 61.590535,1.84255016 C61.5307425,1.72894452 61.5070184,1.60935965 61.5403865,1.48244538 L61.5403865,1.48244538 Z" id="Path" fill="#F8AE1B"></path>
                    <path d="M53.4772798,55.107968 L40.6315497,59.2400112 C40.9368769,57.8107791 41.2171299,56.4924523 41.4995045,55.1747041 C41.7913301,53.8166442 42.0710044,52.4551126 42.3879044,51.1032249 C42.4953379,50.6449448 42.5439433,50.3415464 41.9084076,50.4304635 C41.4049938,50.5010571 41.4150235,50.133623 41.4038366,49.7777615 C41.2896523,46.1990877 41.1714819,42.6206068 41.0493253,39.0423187 C41.0425745,38.8363241 41.0460463,38.629558 41.0325448,38.4251064 C40.9449778,37.0921208 40.9440134,37.0921208 42.2862572,37.0477587 C42.3483952,36.9937522 42.4306659,36.9689025 42.5123112,36.9794796 C42.76884,37.0566311 42.9526536,37.2450738 43.1387816,37.4161573 C44.4493933,38.6204927 46.019427,39.1885209 47.7692237,39.2525566 C48.4959912,39.2791739 48.9968975,39.5032991 49.2590198,40.2142505 C49.4542132,40.7429314 49.9148078,41.1385258 50.0567667,41.7023107 C50.1011288,42.1110209 49.8341845,42.37025 49.5988723,42.6433665 C48.6695821,43.7223306 48.0110938,44.9305236 47.818215,46.3618774 C47.8037955,46.4642589 47.7830535,46.5656498 47.756108,46.6654687 C47.5558997,47.4238683 47.2220265,47.5476965 46.6142653,47.0176655 C46.0309997,46.5088511 45.4377044,46.0094878 44.873341,45.4794568 C44.7227026,45.3382695 44.5726429,45.1961178 44.4032953,45.07634 C44.1851493,44.922037 44.0067364,44.9343812 43.9488727,45.224471 C43.6564684,46.6930504 43.2421647,48.1355912 43.0085884,49.616322 C42.9331728,50.0940828 43.2801618,50.1019908 43.5976404,50.1068128 C44.6563523,50.1228218 45.716993,50.1488604 46.7735832,50.101798 C47.6488673,50.0632222 48.2305899,50.3681636 48.6529945,51.1545306 C49.5456378,52.817339 50.9143059,53.9451015 52.7127082,54.5478479 C53.0180353,54.6491093 53.3889413,54.6959788 53.4772798,55.107968 L53.4772798,55.107968 Z" id="Path" fill="#C74191"></path>
                    <path d="M41.5899646,28.5018764 C41.5294007,28.4019651 41.4689653,28.3020539 41.4086585,28.2021427 C41.3455872,27.8973941 41.5772346,27.7340257 41.7365525,27.5432686 C42.7456946,26.3298679 43.9481012,25.3830257 45.4892031,24.9488554 C46.0956141,24.7781577 46.2364157,24.4437058 46.1150949,23.8619832 C45.9694714,23.1626046 45.772735,22.4400805 46.3500213,21.8070522 C46.4883154,21.6554494 46.3984339,21.4573628 46.3145316,21.2976592 C45.9266523,20.559319 45.7187289,19.7613793 45.5580608,18.953217 C45.4604641,18.4625332 45.2147365,18.3167168 44.7425691,18.4241503 C44.3164998,18.5205898 43.8883088,18.6170292 43.451824,18.6621628 C42.9474458,18.7136615 42.5821333,18.5140319 42.4509757,18.0175618 C42.1423696,16.8473659 41.9444759,15.6524815 41.7112854,14.465891 C41.6707809,14.2595106 41.7112854,14.0527445 41.9014639,13.9121359 C42.3230971,13.7549396 42.6305459,14.0278632 42.9634548,14.1987538 C43.9810835,14.7239629 44.8949434,15.4391576 45.9789224,15.8422743 C46.7849631,16.2581211 47.5260035,16.7758079 48.2595217,17.3062246 C50.2411588,18.4364946 52.2113518,19.5866311 54.1701006,20.756634 C54.3762881,21.1940832 54.1176376,21.4737575 53.7843429,21.6282535 C52.2256891,22.351742 50.8707153,23.4397715 49.2887232,24.1163904 C48.9968975,24.2786015 48.6740183,24.3792842 48.3492104,24.5864361 C49.9475972,24.7918521 51.3797226,25.3133964 52.5844437,26.3589926 C53.4309889,27.0938609 54.0630529,27.9938335 54.5518078,28.9954533 C54.6742859,29.2461958 54.7768974,29.5241342 54.604078,29.8068945 C54.3458132,30.0937054 53.9731713,30.1361387 53.6373693,30.2541805 C51.7203466,30.9292564 50.197954,32.0660843 49.2518833,33.9127062 C48.9363335,34.5287612 48.757342,35.1216707 48.9280397,35.8312719 C49.093144,36.5165704 48.8101908,36.835592 48.1605749,36.8691529 C47.8083781,33.7964003 47.1645486,30.7697457 46.7099332,27.7130019 C46.6520695,27.3301375 46.5787756,26.9493947 46.5340277,26.56518 C46.469799,26.0123893 46.2402732,25.8337835 45.7179574,26.1346745 C44.5334885,26.8170798 43.3168088,27.4447075 42.1961828,28.2343534 C42.0121764,28.3641609 41.8640455,28.5763276 41.5899646,28.5018764 L41.5899646,28.5018764 Z" id="Path" fill="#C12226"></path>
                    <path d="M45.9272309,15.9985062 C45.4380902,16.1049753 45.13122,15.7317547 44.7684149,15.5344397 C43.8408606,15.0302544 42.934523,14.4874934 42.0196987,13.9601627 C41.8904699,13.9082783 41.7868939,13.8365274 41.7996239,13.6750878 C41.2863734,11.2062387 40.791832,8.73237486 40.2469493,6.26989083 C40.1061478,5.63339069 40.1964151,5.38901321 40.9008086,5.24261818 C44.3269152,4.53050954 47.7379774,3.74587846 51.1544401,2.98593586 C51.2796184,3.29087729 51.1148999,3.54258417 50.9823922,3.78387559 C49.8723745,5.80447422 49.723472,7.88120058 50.5883407,10.0248559 C50.6654923,10.2159988 50.7212342,10.4150498 50.699246,10.6262521 C50.6475545,10.9499028 50.3906399,11.080096 50.1375829,11.2083604 C48.3461243,12.1148909 47.0295334,13.4521198 46.348864,15.3699141 C46.2624543,15.6148702 46.1571425,15.8494108 45.9272309,15.9985062 L45.9272309,15.9985062 Z" id="Path" fill="#E75454"></path>
                    <path d="M9.48007555,26.2147192 C7.35975857,26.0314843 5.23905582,25.8526856 3.11951035,25.6619285 C2.71176451,25.6250886 2.3063332,25.5076254 1.91710372,25.7321364 C0.197203191,22.8501409 0.644103442,19.0180243 2.98545957,16.587751 C3.49774574,16.6780183 3.4908021,17.1310907 3.55580227,17.4827088 C3.66593608,18.079283 3.94734629,18.2264495 4.52752582,18.0821762 C6.80349602,17.5164626 9.07483713,16.9384047 11.354472,16.390436 C11.6783156,16.3132844 12.0035093,16.2102871 12.3443262,16.2999758 C13.2525926,16.9750517 13.8539888,17.9315378 14.5849996,18.7688248 C14.7007269,18.9019112 14.7292729,19.0922826 14.689347,19.2774463 C14.5724624,19.5827735 14.2740789,19.6375511 14.0231435,19.7565573 C11.7197845,20.8501803 10.327778,22.6418317 9.86718336,25.1571646 C9.79948289,25.5269133 9.81703487,25.9385167 9.48007555,26.2147192 L9.48007555,26.2147192 Z" id="Path" fill="#0B8C79"></path>
                    <path d="M53.4772798,55.107968 C53.1408992,54.9852971 52.8058686,54.8593472 52.4681378,54.7414982 C50.5493792,54.0664223 49.1481145,52.795158 48.2473704,50.9919338 C47.9987495,50.4941135 47.694001,50.3332526 47.165513,50.3494544 C45.8514295,50.3901518 44.535803,50.3828224 43.2207551,50.3984456 C42.8878463,50.4024961 42.5516585,50.3934308 42.6519555,49.9208776 C43.0407992,48.0910362 43.4444946,46.2644736 43.8763503,44.2814864 L47.3933029,47.3322508 C47.5721016,45.8067722 47.943972,44.4982822 48.7081579,43.3103415 C49.0699986,42.7479068 49.7041842,42.403811 49.9088286,41.7329784 C49.9573424,41.6697859 50.0401853,41.6436615 50.1161733,41.6675925 C50.9935791,42.4834699 51.8698277,43.2897034 53.0213143,43.7350606 C53.5779626,43.9505063 54.1226524,44.1277619 54.7238557,44.0859072 C55.2336345,44.0351801 55.7447634,43.9657437 56.2207883,44.2367385 C56.4173319,44.7658051 55.9455502,44.7189356 55.7144814,44.7320513 C55.1300585,44.7650336 54.9936932,45.0659246 55.0008297,45.5865045 C55.0172244,46.8209291 55.0216606,48.056318 54.9998653,49.2911282 C54.9825062,50.268831 54.7782476,50.4676891 53.8175181,50.4977782 C53.0776349,50.5205379 52.33563,50.4831194 51.4836843,50.5265172 C52.3338941,51.4696946 53.2560478,52.1602008 54.1039432,52.9294016 C54.4086917,53.205797 54.7348498,53.4596255 55.0087378,53.7682317 C55.5995256,54.4342423 55.5059794,54.7121807 54.6148792,54.9588727 C54.4661696,54.9999559 54.3147597,55.0325524 54.1918959,55.1347782 L53.4772798,55.107968 Z" id="Path" fill="#A01F59"></path>
                    <path d="M1.92771206,26.0359205 C2.629791,26.7495722 3.19396158,27.59361 4.04494298,28.1685817 C5.71315199,29.2961514 7.51097557,29.8452774 9.52810238,29.4859442 C9.993519,29.4030063 10.2932527,29.5181549 10.5231643,29.9681412 C11.0009251,30.9032178 11.7554671,31.611276 12.5696087,32.2562628 C12.7613302,32.4701654 12.6963301,32.7070206 12.567487,32.8970063 C11.7462089,34.1059708 10.9696788,35.3483033 9.97847445,36.4326681 C9.92774732,36.4882172 9.848667,36.514063 9.77710895,36.5426091 C9.43436327,36.6402057 9.11727047,36.5011401 8.79477707,36.4268818 C6.46094322,35.8955006 4.42626443,36.5123271 2.61918267,38.0221826 C2.25772774,38.3242308 1.96995252,38.6689053 1.85596113,39.137408 C1.65864609,39.2473489 1.47213226,39.2531353 1.30374904,39.0814731 C0.438687487,38.9753897 0.526254476,38.4345575 0.606106312,37.7673896 C1.07306596,33.8612076 1.49219166,29.9473103 1.92771206,26.0359205 L1.92771206,26.0359205 Z" id="Path" fill="#68B345"></path>
                    <path d="M14.5919432,19.2352058 C14.1924911,18.4418952 13.4512578,17.9261372 12.9524731,17.2136428 C12.7765676,16.9629003 12.5896681,16.719873 12.4077833,16.473181 C12.9123543,15.9689957 12.6519679,15.6895143 12.1362099,15.4270062 C11.582069,15.1450173 11.0317857,14.8740226 10.4195883,14.730135 C10.1426143,14.6651348 9.76380031,14.6815295 9.74451243,14.2373296 C9.91810338,13.8533078 9.79504668,13.5815415 9.49376995,13.2922233 C6.68815448,10.588255 6.14423618,7.1995668 7.93916657,3.73932058 L8.50700185,3.33176761 C9.84442366,2.84339841 11.2400949,2.56873895 12.6178284,2.23409418 C13.4040025,2.04295126 13.7099083,2.21133448 13.8952649,2.95468949 C14.632062,5.90862878 15.3389629,8.87028323 15.983564,11.8464036 C16.0329409,12.0740006 16.0501072,12.3068054 15.9662049,12.533438 C15.7823913,12.9134093 15.4099423,12.9494776 15.0596744,13.0308725 C13.8804132,13.3045675 12.6872647,13.5130696 11.372024,13.8108745 C11.7602891,14.1557418 12.1485542,14.2516026 12.5200388,14.3463061 C13.4757534,14.5895263 14.4422692,14.726856 15.4292302,14.5318555 C15.7063971,14.477078 15.9885788,14.4194072 16.2715321,14.5100602 C16.4223633,14.5818112 16.5124377,14.7060251 16.5726159,14.855892 C16.6970228,15.3899735 16.3589062,15.6019473 15.9382374,15.7398557 C15.4753282,15.8918442 14.9967959,15.9973489 14.5215424,16.1063254 C14.0891081,16.2058509 14.0148497,16.3570679 14.3392719,16.7042498 C14.9038283,17.3087321 15.3835179,17.972621 15.5339634,18.8182018 C15.5288836,18.9428503 15.4854352,19.0628891 15.4095566,19.1619119 C15.1547636,19.3810222 14.8882051,19.4838266 14.5919432,19.2352058 L14.5919432,19.2352058 Z" id="Path" fill="#036A63"></path>
                    <path d="M1.30374904,39.0824375 L1.87968523,39.0438617 C2.08471543,38.8023774 2.37441943,38.7570509 2.65120055,38.7931193 C4.24380106,38.9975708 5.86147581,38.9696034 7.43903177,39.3055983 C8.72746235,40.0890721 9.89939413,41.0382288 11.1054655,41.9395516 C11.2927508,42.0795816 11.4447393,42.2529797 11.4526474,42.5081584 C11.4223654,42.8426103 11.1897535,43.0555485 10.9824088,43.2831455 C9.75029879,44.635419 9.13675123,46.2260907 9.11900638,48.0551607 C9.11476305,48.4794941 9.26925899,49.0376855 8.8391392,49.2689472 C8.35694212,49.5281763 7.98700052,49.0428932 7.63364651,48.7734415 C6.4464773,47.8682611 5.32334387,46.8832289 4.15932013,45.9481524 C3.77587701,45.6395462 3.60440773,45.6752288 3.50681105,46.1680342 C3.37179586,46.8500538 3.29001524,47.5422959 3.13744809,48.2189148 C3.06916898,48.5213488 3.07225504,49.0083679 2.50094794,48.8473141 C-0.0984800561,46.7169674 -0.956597973,42.3970602 1.30374904,39.0824375 L1.30374904,39.0824375 Z" id="Path" fill="#B0C43D"></path>
                    <path d="M13.8601609,55.3031614 L0.776611198,60.1920611 C1.42777013,56.467378 2.05559072,52.8765528 2.68341132,49.2857276 C3.02403533,48.8328481 3.3559798,49.1856235 3.61790925,49.3507278 C4.55742204,49.9420943 5.57466499,50.2451069 6.66886659,50.3753002 C7.27257733,50.447244 7.85217822,50.3544692 8.43737259,50.2750032 C9.01774499,50.1961157 9.41198932,50.3608342 9.67854787,50.9282838 C10.4622146,52.596107 11.6580633,53.860042 13.3787354,54.6060973 C13.6248487,54.7125664 14.1807255,54.7461273 13.8601609,55.3031614 L13.8601609,55.3031614 Z" id="Path" fill="#B0C43D"></path>
                    <path d="M68.0486969,55.930982 L66.0551013,55.466144 C65.3914052,55.2568705 64.7294451,55.0418106 64.0730784,54.810356 C63.0168739,54.4380998 62.9376007,54.0693155 63.7718017,53.3411979 C65.1323689,52.153643 66.5556218,51.0403464 67.922747,49.8605066 C68.8994854,49.0174332 69.9418026,48.2530544 70.9052323,47.3960937 C71.5116434,46.856033 71.4474147,46.6824421 70.6413741,46.3931238 C68.994593,45.4298624 67.4157211,44.3549407 65.9158428,43.1759049 C65.6309607,42.9521655 65.3564941,42.6481884 65.5165836,42.2489293 C65.6670291,41.8759016 66.0657096,41.8863171 66.3924463,41.8992399 C68.3486234,41.9763915 70.302486,42.0921188 72.2405325,42.3860661 C72.9806086,42.5361258 73.147063,42.72534 73.1003863,43.4661876 C73.0589174,44.1258332 72.9094363,44.7806568 73.0272852,45.5257477 C73.5158473,45.2545601 73.8421983,44.8454641 74.2727038,44.5879708 C74.8339812,44.2523617 75.1817418,44.3372284 75.3130923,44.9513546 C75.6122473,46.3510762 75.9715806,47.7457831 75.9881682,49.1933387 C75.7358827,49.7447793 75.3468461,49.4994374 75.0220381,49.3214102 C74.4349149,48.9994955 73.9226288,48.5574172 73.3642446,48.1897901 C72.8241838,47.8347002 72.755519,47.8755905 72.67586,48.529064 C72.4202956,50.6237281 72.306497,52.7320866 72.0686774,54.8284866 C71.9296118,56.0555817 71.5768364,56.3344845 70.3453051,56.2081489 C69.5784189,56.1296472 68.8171261,56.0048546 68.0486969,55.930982 L68.0486969,55.930982 Z" id="Path" fill="#B52125"></path>
                    <path d="M20.3378036,32.5673764 L20.1663343,32.2626278 C19.7819268,31.4446287 19.8837668,30.5550715 19.8116301,29.6959892 C19.6899236,28.2447689 19.495116,26.7962489 19.5466146,25.3351917 C19.5851904,25.2428028 19.6561698,25.0719121 19.7169266,25.1099093 C20.3561271,25.5099399 21.298533,25.2998949 21.7342463,26.0960987 C22.3281202,27.1814279 22.8629732,28.2966533 23.3798885,29.420944 C23.3925463,29.4941691 23.394042,29.5688888 23.3843247,29.6425618 C23.224621,30.1696996 22.8656735,30.5705018 22.5883138,30.968218 C23.0986711,30.8683067 23.6425894,30.4568962 24.260959,30.818544 C24.5716868,31.283382 24.4225914,31.8132201 24.464639,32.3145122 C24.5577995,33.4299305 24.7171174,33.5252126 25.6201761,32.9000923 C26.419466,32.346723 27.188281,31.7489915 28.0311615,31.2586935 C28.1843073,31.2046874 28.3330168,31.2372839 28.4809549,31.2804888 C30.4868948,32.2325387 31.7294202,33.8326615 32.3852082,35.9190318 C32.6336361,36.709835 32.638651,36.7310517 33.3679258,36.370754 C34.660214,35.7321322 35.9488375,35.0871454 37.2415114,34.4498737 C37.5128919,34.3162087 37.7975811,34.0430923 38.1372407,34.3331821 C38.1279825,34.5665654 38.1185957,34.7998845 38.1090804,35.0331393 C37.1516299,37.1162307 35.5691876,38.4672183 33.3617537,39.0861022 C33.0452396,39.1750193 32.7206245,39.3019336 32.3894515,39.124678 C32.1475815,38.8831937 32.1545251,38.5664866 32.1653263,38.2659814 C32.1873145,37.6564843 31.9356076,37.6628493 31.4709625,37.8763662 C30.6664649,38.2466935 29.9356471,38.7796177 29.0565053,38.9886984 C27.8629711,38.524439 26.7853571,37.8867816 25.9409336,36.9009779 C25.6109179,36.0081418 24.6486454,35.7982896 24.0653798,35.1758697 C23.8443407,34.9401717 23.5368918,34.7856758 23.2687903,34.5941471 C23.0759114,34.6797853 22.9204511,34.5810313 22.7786852,34.4772625 C21.9450629,33.8673797 21.027924,33.3620371 20.3378036,32.5673764 L20.3378036,32.5673764 Z" id="Path" fill="#036A63"></path>
                    <path d="M61.5403865,1.48244538 L61.6933394,1.72122937 C61.7116254,1.97754153 61.680322,2.23497536 61.6011433,2.47943605 C60.7123577,5.31745517 59.955694,8.19443581 59.0836888,11.0374698 C58.9928429,11.333153 58.8977536,11.6242072 58.6894445,11.863184 C58.1829447,12.2348615 57.6303468,12.2998617 57.103209,11.96676 C56.3824208,11.5115659 55.595668,11.1952447 54.8436335,10.8081368 C54.781885,10.752778 54.7312797,10.6861335 54.6945381,10.6117862 C54.0912132,8.96691552 53.9594769,7.2122968 53.5224135,5.52750021 C53.3746683,4.95812191 53.2925019,4.37177026 53.1706025,3.79525544 C52.9777237,2.87946675 52.9713587,2.88660327 52.0617421,2.99191511 C51.8136999,3.02065405 51.5103015,3.21719758 51.320123,2.86133614 C53.3503656,-0.0873954236 57.7451097,-0.898836664 60.8803551,1.09456605 C61.0956079,1.23151002 61.3203117,1.35340944 61.5403865,1.48244538 Z" id="Path" fill="#F18749"></path>
                    <path d="M22.6672012,44.9800935 C24.77826,45.6767718 26.8254759,45.5616232 28.7783741,44.4606708 C29.1506302,44.2508186 29.3998297,44.3989496 29.692234,44.5881637 C31.0097893,45.4410739 32.3346739,46.2835686 33.6558939,47.1297281 C33.6709385,47.1640605 33.685983,47.1983929 33.7014133,47.2325325 C33.6927338,47.2686008 33.6836685,47.3050549 33.6755676,47.3413161 C33.6549295,47.3715981 33.63352,47.402073 33.6132677,47.4329336 C32.3261873,48.462135 30.9129641,49.3082945 29.5487321,50.2271692 C28.3970526,51.0031207 27.2712189,51.8174552 26.0962011,52.5584956 C25.5841078,52.8813748 25.7434257,53.062488 26.1787532,53.2702185 C27.0837407,53.70246 27.9725263,54.1676837 28.8721132,54.6120765 C29.079265,54.7144952 29.2945178,54.808813 29.4642512,54.9696739 C29.5701417,55.0699709 29.7342816,55.1920632 29.5890438,55.3484879 C29.4802601,55.4642152 29.3084051,55.439141 29.1674107,55.3465591 C27.5485786,55.3396155 25.9771948,54.9256975 24.3708999,54.7914539 C22.9673207,54.6739906 21.5741569,54.4309633 20.1765569,54.2434851 C20.0668088,53.8305315 20.3871805,53.6455607 20.6226856,53.4264504 C22.7721273,51.418196 23.4259865,48.9796289 22.7501391,46.1435386 C22.661222,45.7676178 22.3643814,45.3901539 22.6672012,44.9800935 L22.6672012,44.9800935 Z" id="Path" fill="#68B346"></path>
                    <path d="M7.94032385,3.73854906 C8.16965678,3.9559235 8.01554659,4.16288249 7.91987869,4.36791268 C6.98210182,6.38233919 6.87582558,8.4231901 7.77849851,10.4725277 C8.24738694,11.5366402 8.85129056,12.5224439 9.82725745,13.2100569 C10.1119466,13.4106509 10.2097362,13.6268681 10.2012495,13.9761716 C10.1927628,14.3191102 9.9798246,14.2543029 9.79311789,14.2888282 C9.52058011,14.6070783 9.13732987,14.5764106 8.79188388,14.5497933 C6.93156756,14.4062914 5.30752781,14.983192 3.84107006,16.0945598 C3.60440773,16.2737443 3.35057919,16.4943976 3.00590472,16.3181064 C2.23979001,13.0403235 1.50144984,9.75559706 0.686729663,6.4897727 C0.493850833,5.71825738 0.684415117,5.4675149 1.41966922,5.30453229 C3.60074304,4.81847763 5.7677367,4.26549403 7.94032385,3.73854906 L7.94032385,3.73854906 Z" id="Path" fill="#0B8C79"></path>
                    <path d="M41.5899646,28.5018764 C41.89182,28.0304805 42.3421921,27.7454056 42.821496,27.4823189 C43.9050892,26.8878663 44.9788457,26.2752831 46.0535665,25.6648216 C46.4165645,25.4586342 46.6129151,25.4152364 46.6977818,25.9612764 C47.1298304,28.7504972 47.6043123,31.5333529 48.0672215,34.3177517 C48.2089875,35.1706619 48.5879944,36.0089133 48.2116878,36.8903696 C47.9318206,37.2410233 47.5317899,37.2014831 47.1508542,37.2109342 C46.0238632,37.2389016 44.8930146,37.1455483 43.7714242,37.3476853 C43.2975209,37.4333235 42.8571786,37.2840353 42.4438392,37.0535451 L42.2872216,37.0467943 C41.3216702,35.6835267 40.6149621,34.2153331 40.5559412,32.5127916 C40.5059856,31.0806663 40.7488201,29.710648 41.5899646,28.5018764 Z" id="Path" fill="#D62E2B"></path>
                    <path d="M38.1376264,34.3331821 C36.4046102,35.1857065 34.6658075,36.0278155 32.9420494,36.8984705 C32.5231166,37.1106372 32.3634129,37.0475658 32.2717954,36.5790632 C31.8181444,34.2475439 30.4643279,32.5849283 28.4009102,31.4652667 C28.1501677,30.9637818 28.619249,30.8443898 28.86922,30.6653982 C30.0012259,29.8553071 31.1596561,29.0820559 32.2760388,28.2495909 C32.4370926,28.1296202 32.6286213,28.0374241 32.7464703,27.8075126 C32.2191395,27.4007311 31.6146573,27.1850926 31.0365994,26.921813 C30.8020588,26.8149581 30.5571026,26.7289342 30.349565,26.5709664 C30.0083624,26.312123 29.9445195,26.0322558 30.3366421,25.7730267 C30.742845,25.5029963 31.1430685,25.204227 31.6717494,25.2219719 C33.5908938,25.8993623 35.4012545,26.8192014 37.2201018,27.7199456 C37.4953399,27.8692338 37.7520617,28.0358811 37.8197621,28.3757336 C38.7251354,30.3182163 38.9500321,32.298889 38.1376264,34.3331821 L38.1376264,34.3331821 Z" id="Path" fill="#3BBCD9"></path>
                    <path d="M70.8496832,46.2008236 C71.9163032,46.5557207 71.9978909,46.7613295 71.1752627,47.4738239 C69.5487155,48.8818394 67.871827,50.2319912 66.2182768,51.6077959 C65.3912123,52.2959875 64.5739847,52.9955591 63.7436414,53.6797003 C63.27456,54.0654579 63.2228685,54.2990342 63.8979444,54.5121653 C64.6461214,54.7478632 65.4652778,54.8581899 66.0543298,55.4665298 C63.6462376,55.4501351 61.2587834,55.1284132 58.8599494,54.9789321 C58.4651264,54.9542436 58.3341617,54.7229819 58.3169955,54.3744498 C58.2813129,54.2394346 58.3524852,54.1493602 58.4477673,54.0704728 C59.0574573,53.598884 59.6393727,53.0968205 60.1751901,52.5401721 C62.1925098,50.4441579 62.7370067,47.2591498 61.5390363,44.5978077 C61.3654454,44.2139788 61.0375514,43.8581173 61.2200147,43.3761131 C61.5616032,43.1666467 61.8729096,43.3568253 62.1782368,43.4677306 C64.5768779,44.3437862 66.9616318,45.2580319 69.3456141,46.1718918 C69.824918,46.3551267 70.3408689,46.6953649 70.8496832,46.2008236 L70.8496832,46.2008236 Z" id="Path" fill="#D62E2B"></path>
                    <path d="M22.6672012,44.9800935 C23.5284052,47.2300251 23.5392064,49.4429239 22.417616,51.6234191 C21.8750478,52.6784663 20.9903126,53.4264504 20.1771355,54.2434851 L19.7452798,54.3848653 C18.9930524,54.2884259 18.9610345,53.7508726 19.0289278,53.1782153 C19.2316435,51.4662228 19.4812287,49.7604024 19.7256062,48.0540034 C19.8490486,47.1916422 19.9549391,46.3277379 20.0747168,45.4491748 C19.7176981,46.1049628 19.2615397,46.6643114 18.8373991,47.2429479 C18.5326506,47.6597591 18.1351273,47.7916882 17.7052004,47.4643728 C16.5812955,46.6085695 15.3588294,45.8804519 14.3415865,44.8851971 C14.2987215,44.820271 14.2661882,44.7490881 14.2451471,44.6741877 C14.1004879,43.8864705 14.2391678,43.0842875 14.1309628,42.2944487 C14.0134996,41.4345948 13.8258285,41.3450991 13.0278888,41.6942097 C12.5071159,41.9219996 12.1176936,42.3675497 11.5674103,42.5397905 C11.489203,42.5532891 11.4092223,42.5289659 11.3517717,42.4742117 L7.57481846,39.5850797 C7.6118649,39.5009883 7.67981358,39.4343517 7.76461123,39.3989517 C8.9438724,39.2780166 10.1038457,39.5077353 11.2670979,39.62597 C12.0496073,39.705629 12.8579625,39.634071 13.6107686,39.9392053 C13.694067,39.9573064 13.7737814,39.9891139 13.8466594,40.0333301 C14.2083072,40.5072334 14.6567505,40.6457204 15.2602683,40.538094 C16.3425115,40.3452152 17.4079741,40.6468777 18.4786445,40.7643409 C18.7899509,40.9969528 18.6715233,41.4394168 18.9353816,41.6961385 C19.1620142,41.7258419 19.2929789,41.8905604 19.4129496,42.0552789 C20.0847465,42.9787828 20.871885,43.7746008 21.8839203,44.3285488 C22.0200927,44.4031929 22.1282977,44.5156413 22.166102,44.6772737 L22.6672012,44.9800935 Z" id="Path" fill="#4B8B40"></path>
                    <path d="M14.4445838,44.7615618 C15.4593193,45.5070385 16.4838916,46.2395923 17.4855114,47.0022352 C18.2720713,47.6011239 18.2570267,47.6161685 18.8059599,46.8438816 C19.3060947,46.1398739 19.8106657,45.4391451 20.4377148,44.7957013 C20.0519571,47.5808717 19.6712143,50.3668135 19.2779344,53.1508265 C19.2059906,53.6602195 19.1876671,54.124286 19.7441225,54.385251 C18.0853646,55.3731764 16.3288171,55.716115 14.4399547,55.1839623 C14.7558902,54.649495 14.555682,54.3212153 14.0852505,53.9638108 C12.796627,52.9857222 11.5463865,51.9555564 10.321413,50.8970374 C9.65829559,50.3243801 9.68587726,50.0620649 10.4298109,49.6379244 C12.1587768,48.6521207 13.352311,47.2423693 13.9232323,45.3209104 C14.0019269,45.0618741 14.0588261,44.7492175 14.4445838,44.7615618 L14.4445838,44.7615618 Z" id="Path" fill="#B0C43D"></path>
                    <path d="M76.4206025,26.6897798 C76.5124128,26.7461004 76.603966,26.8025496 76.695262,26.8591274 C76.9369391,27.7216815 77.4667773,28.4673511 77.6637066,29.3547866 C78.1414674,31.5024923 77.7084545,33.4742926 76.6057662,35.3340303 C76.5585109,35.6040607 76.3473085,35.7221025 76.139578,35.8445806 C75.797411,35.9603079 75.5167723,36.2056497 75.173448,36.3171337 C74.6086988,36.5003686 74.3861166,36.3034393 74.4964433,35.7284675 C74.748343,34.4151556 74.7471858,34.4168915 73.5013814,33.9358517 C71.4415641,33.141448 69.3773105,32.3584886 67.3086208,31.5869733 C67.0000147,31.471246 66.6620909,31.3940944 66.4697908,31.0804735 C66.3702653,30.7911552 66.5342123,30.5834247 66.708189,30.3990325 C67.7410551,29.3050238 68.8069035,28.2449618 69.9871291,27.3066063 C70.1481829,27.1787276 70.3302605,27.0859529 70.5433917,27.0716798 C72.4906963,26.7555514 74.4503452,26.6417529 76.4206025,26.6897798 L76.4206025,26.6897798 Z" id="Path" fill="#F18749"></path>
                    <path d="M37.8388571,45.5990417 C38.1001437,48.7324226 38.361173,51.8658035 38.6219452,54.9991844 C38.7338149,56.360716 38.8202246,57.7243694 38.9415454,59.0851295 C38.99478,59.6811251 38.7872423,59.7532618 38.29598,59.5094629 C35.6670415,58.2009729 33.0352742,56.8982693 30.4006779,55.6013521 C30.6554708,55.1436506 31.0857835,55.3517669 31.4314224,55.3710547 C31.9992577,55.4030726 32.2428636,55.241633 32.3198223,54.6280855 C32.5850307,52.5093115 32.8907436,50.3951667 33.1848838,48.2796717 C33.2388899,47.8906351 33.2790087,47.5069991 33.6585942,47.2767017 L33.6485645,47.2855742 C34.0129127,47.0217159 34.2823644,47.3010045 34.5512375,47.4659159 C35.2083756,47.8686469 35.8294455,48.3282771 36.4939131,48.7207855 C37.213544,49.1460834 37.2395826,49.1389468 37.2590634,48.3379211 C37.2766153,47.6173258 37.425132,46.9106177 37.4417196,46.1882865 C37.4473131,45.9448734 37.4247463,45.603285 37.8388571,45.5990417 L37.8388571,45.5990417 Z" id="Path" fill="#68B346"></path>
                    <path d="M15.819617,12.5830078 C15.4180432,10.2019187 14.7439317,7.88216498 14.2347316,5.52518567 C14.0449388,4.64662259 13.8206208,3.77577467 13.6269704,2.89798312 C13.5341957,2.4780859 13.3874149,2.29793707 12.8924878,2.44047453 C11.7080189,2.78129142 10.5038764,3.05402209 9.30494157,3.34507625 C9.04301212,3.40872626 8.76854554,3.57344478 8.50796624,3.33061033 C10.5063838,0.724624453 13.1033044,-0.225689545 16.3103007,0.51245774 C16.5743518,0.649401709 16.7795749,0.844209328 16.9061034,1.11655424 C17.236312,1.24867624 17.3225288,1.56017555 17.4207041,1.84949379 C18.4136443,4.78125202 19.3618367,7.72631888 20.3738719,10.6509406 C20.4703113,10.9300363 20.5100444,11.2004524 20.3646137,11.4729902 L20.3453258,11.6560322 C20.2488864,11.8564333 20.0725952,11.9694603 19.8727727,12.0178729 C18.559075,12.3365087 17.2478847,12.671925 15.8944539,12.7893882 C15.8022579,12.7442545 15.7773122,12.6754611 15.819617,12.5830078 L15.819617,12.5830078 Z" id="Path" fill="#3BBCD9"></path>
                    <path d="M14.4445838,44.7615618 C14.0370308,45.6680923 13.7768373,46.6351867 13.1964649,47.4726666 C12.5048014,48.4706217 11.6582562,49.2857276 10.5771703,49.8130584 C9.90845943,50.1397951 9.92832595,50.3116501 10.5050337,50.7510281 C11.8764021,51.7958527 13.1843135,52.9234224 14.530222,54.0021937 C15.3414703,54.6525811 15.3468709,54.7042726 14.4405333,55.1837694 L13.8586179,55.3035472 C13.9330691,55.0308165 13.7108727,55.0281162 13.5527121,54.9654306 C11.5573806,54.1734701 10.155923,52.7737484 9.3466034,50.7946187 C9.20946655,50.4590096 9.0358756,50.4667247 8.75523691,50.5170661 C7.41781509,50.7577789 6.10238147,50.6968292 4.80623573,50.2460713 C4.21255469,50.039691 3.71338427,49.673607 3.17043037,49.3821671 C3.007062,49.2944072 2.87474712,49.1754009 2.6826398,49.2857276 C2.62130433,49.1390111 2.55990457,48.9924232 2.49844052,48.8459639 C2.99992548,48.6505776 2.87494,48.1652945 2.95537047,47.79516 C3.1081305,47.093274 3.19126128,46.3765362 3.32376904,45.6696353 C3.41037163,45.2067261 3.55425924,45.0560878 4.01061055,45.445703 C5.40068828,46.6326793 6.83532103,47.7673855 8.25394482,48.9213795 C8.40921228,49.0477152 8.56255095,49.2674041 8.78031115,49.1410685 C8.94811574,49.0432789 8.86768526,48.8068095 8.85534102,48.6368833 C8.73633478,47.0118791 9.1679976,45.5346201 9.96111535,44.1254474 C10.3264279,43.4762173 10.9465333,43.0727147 11.351386,42.4747904 C11.3970982,42.476912 11.4426177,42.4786479 11.4883299,42.4796123 C12.6874576,42.8912158 13.5407536,43.7788441 14.4301179,44.6165169 C14.4360328,44.6648652 14.4408548,44.7132135 14.4445838,44.7615618 Z" id="Path" fill="#7B983C"></path>
                    <path d="M41.7996239,13.6750878 C41.8729179,13.7701127 41.9463404,13.8651377 42.0198915,13.9601627 C41.8885411,14.077433 41.8848764,14.2168844 41.9201732,14.3812172 C42.1670581,15.5338611 42.4191507,16.6855406 42.6423115,17.8428135 C42.7420299,18.3603075 42.9894934,18.5300408 43.5083375,18.4137349 C44.1791701,18.2632894 44.9981336,17.8806178 45.5019331,18.1221021 C46.0337,18.376895 45.8398568,19.3669421 46.0786408,20.0032493 C46.213656,20.3637399 46.367959,20.716901 46.5056745,21.0764271 C46.6534197,21.4639207 47.273718,21.8732096 46.3619798,22.1918454 C46.0626318,22.2965786 46.2003473,22.7997995 46.2437451,23.1261505 C46.3143387,23.6567601 46.5822474,24.2355895 46.446075,24.7002346 C46.2854069,25.2482034 45.5374228,25.1290043 45.0606263,25.3367348 C43.9664247,25.8150743 43.0004875,26.471248 42.2235716,27.3947519 C41.9786155,27.6861918 41.681775,27.9348126 41.4084657,28.201564 C40.9816248,28.4872176 40.7719655,28.4281967 40.7719655,27.859397 C40.7704225,23.2147462 40.762193,18.5699667 40.747277,13.9250587 C40.747277,13.5464376 40.747277,13.1807393 41.2732576,13.6006365 C41.3916852,13.6964973 41.621211,13.654064 41.7996239,13.6750878 L41.7996239,13.6750878 Z" id="Path" fill="#D62E2B"></path>
                    <path d="M58.4250076,54.262773 L58.3171883,54.3742569 C57.0017547,54.9463356 55.6361726,55.2485767 54.1934389,55.1340067 C54.072311,54.9797036 54.0611241,54.9044809 54.3012582,54.8493175 C54.6229801,54.7756378 54.928693,54.6315573 55.326795,54.4865124 C54.5273122,53.5502786 53.5665827,52.865173 52.7055716,52.0766843 C52.1942499,51.6083745 51.6609399,51.1643674 51.1453748,50.7006867 C51.0551075,50.6194848 50.9357155,50.4863984 50.9480597,50.3920806 C50.9739055,50.1936083 51.1770069,50.230641 51.3234019,50.2289051 C52.2492203,50.2182968 53.1750387,50.1903294 54.1008571,50.2154036 C54.6050424,50.2285194 54.7840339,50.0495278 54.7686036,49.5463069 C54.7261703,48.1575794 54.7477727,46.7688518 54.6860515,45.3814743 C54.6551909,44.692704 54.8391973,44.3592165 55.5794662,44.477837 C55.8001196,44.5131339 56.0448828,44.520849 56.2470199,44.36481 C57.1342625,43.8419155 58.1464906,43.6525085 59.0968046,43.2981901 C59.2401135,43.2447627 59.3986599,43.3284721 59.4918204,43.4760244 C59.6183489,43.7165443 59.5923103,43.9694084 59.5741797,44.2282518 C59.355648,47.3243428 58.9762553,50.4061608 58.7469224,53.5012874 C58.7255128,53.7940774 58.6435393,54.0556211 58.4250076,54.262773 L58.4250076,54.262773 Z" id="Path" fill="#C74191"></path>
                    <path d="M68.0486969,55.930982 C68.7284019,55.7010704 69.4125431,55.7992457 70.1015063,55.8862341 C71.6096258,56.0766055 71.7047151,56.0283858 71.7945966,54.6502666 C71.9398344,52.424252 72.2044641,50.2063383 72.3853845,47.9820596 C72.4316754,47.4136457 72.6617799,47.3548177 73.0623892,47.6263911 C73.7224205,48.0736771 74.3454192,48.5770908 75.0156731,49.0074035 C75.2249466,49.1424187 75.4702885,49.5760103 75.8055119,49.1360537 C76.2562697,49.2106978 76.1820114,49.5125531 76.1004236,49.8174946 C76.1067886,51.4536857 76.6067306,53.0119538 76.8673099,54.6076403 C77.0829484,55.9271244 77.3902044,57.2307924 77.629567,58.5471904 C77.7699828,59.3187058 77.6459617,59.4375191 76.9911381,59.2029785 C74.0188753,58.1413734 71.0488628,57.0732104 68.0811005,55.9984896 C68.0648987,55.993089 68.0593052,55.9545132 68.0486969,55.930982 L68.0486969,55.930982 Z" id="Path" fill="#D62E2C"></path>
                    <path d="M76.1004236,49.8174946 L75.8055119,49.1360537 C75.5547694,47.7523409 75.2812673,46.3724858 75.0658216,44.9833724 C74.9784475,44.4197805 74.7957912,44.477837 74.4528527,44.7658051 C73.8881035,45.2395155 73.3127459,45.7004959 72.5657262,46.3107646 C72.7778929,45.2998866 72.6527145,44.4743652 72.8153114,43.6463364 C72.8924629,43.2555639 73.1536209,42.588396 72.2771795,42.618678 C72.0557546,42.4693898 72.1084105,42.2522082 72.1732178,42.0641513 C72.690133,40.5596965 73.2047338,39.0552416 73.8213674,37.5870479 C73.8711301,37.4688132 73.9610117,37.3725667 74.0564867,37.2861569 C74.8172008,36.8247908 75.4753034,36.2336172 76.1229905,35.6295207 L76.6051875,35.3349947 C77.9194639,34.9264773 77.9102057,34.9257058 77.7950571,36.288009 C77.4285873,40.6133168 77.0775478,44.9397818 76.6956477,49.2635466 C76.6725023,49.5299122 76.9203516,50.3137718 76.1004236,49.8174946 L76.1004236,49.8174946 Z" id="Path" fill="#E75454"></path>
                    <path d="M32.4226267,39.076844 C34.3209401,38.7356414 35.8514337,37.7887992 37.1107396,36.3337213 C37.4721945,35.9161386 37.5113489,35.258036 38.109659,35.0333322 C38.109659,35.1947075 38.1103019,35.3562757 38.1115878,35.5180367 C37.9864094,36.0212576 38.1628936,36.544345 38.0110979,37.0458299 C37.9045002,39.5775575 37.7979668,42.1093493 37.6914977,44.6412054 C36.6364505,45.5847686 35.3999043,46.2721888 34.24321,47.0714787 C34.0781057,47.1854701 33.854752,47.1891347 33.6489503,47.1258705 L33.6558939,47.1295352 C33.8306422,45.8081223 33.9670075,44.4797658 34.1990407,43.1683826 C34.2927798,42.6389303 34.1411771,42.4568526 33.6670809,42.4051611 C32.9023163,42.3218375 32.1381304,42.2340776 31.3735587,42.1482465 C31.3075942,42.107742 31.2202201,42.048721 31.2397008,41.9796704 C31.5261259,40.9687925 31.8137082,39.9561786 32.4226267,39.076844 L32.4226267,39.076844 Z" id="Path" fill="#0B8C7A"></path>
                    <path d="M37.8197621,28.3745763 L37.21663,27.9232399 C36.3791501,26.7146611 35.3530348,25.7358011 33.9494555,25.2036484 C33.6246476,25.0803988 33.1779402,25.0190633 33.1690678,24.5711987 C33.1611597,24.1831265 33.5565613,24.0633487 33.8441437,23.9032593 C34.7738196,23.3855725 34.8166387,23.3246228 34.311682,22.3602286 C33.5486533,20.9001359 32.8276722,19.4188265 32.055964,17.9625913 C31.8646282,17.6021008 31.5571794,17.1864469 32.0366762,16.7885379 C33.1709966,16.6394425 34.2873792,16.8909565 35.4120557,16.9565353 C36.0462413,16.9935681 36.5224591,16.9659864 36.6225632,16.1971714 C36.646866,16.0106575 36.7814954,15.8100636 37.044775,15.8256867 C37.4242319,19.8109491 37.8035603,23.7961472 38.1827601,27.7812811 C38.209956,28.0696349 38.2950156,28.3928998 37.8197621,28.3745763 L37.8197621,28.3745763 Z" id="Path" fill="#437CBF"></path>
                    <path d="M33.6585942,47.2770875 C33.4510566,48.670637 33.2325249,50.0626436 33.0390674,51.4583148 C32.8631619,52.7291934 32.7096304,54.0031581 32.5568704,55.2773156 C32.5146299,55.6287409 32.3867512,55.7575839 32.0013793,55.7002989 C31.4748201,55.6217972 30.935338,55.6304768 30.400485,55.6017378 C30.0095196,55.4177314 29.5402455,55.6146607 29.1672178,55.346752 C29.2879599,55.2850308 29.7265664,55.3120338 29.2549777,55.0751786 C28.0832388,54.4857409 26.9165147,53.8837661 25.7252951,53.3354116 C25.0994033,53.0472506 25.1401007,52.8796389 25.6832475,52.5216558 C28.1713844,50.8821857 30.6367616,49.2085761 33.1137115,47.5521327 C33.2820948,47.4398772 33.4765166,47.3677405 33.6585942,47.2770875 Z" id="Path" fill="#307D3D"></path>
                    <path d="M51.320123,2.86133614 C51.7465781,2.78688491 52.1880777,2.75737445 52.5958236,2.6266026 C53.0826498,2.47056363 53.2396531,2.67617246 53.3254842,3.10031301 C53.8292837,5.58999296 54.3383552,8.07864421 54.8526988,10.5662668 C54.5633805,10.6978101 50.8278962,10.8293535 50.5495721,10.7178695 C50.1813664,9.76292646 49.8282052,8.81261246 49.7603119,7.76682344 C49.6445846,5.99388123 50.2004614,4.43657755 51.1548258,2.98612874 L51.320123,2.86133614 Z" id="Path" fill="#E53326"></path>
                    <path d="M3.00686912,16.3181064 C3.57952636,16.1190554 3.96046206,15.6405231 4.45346035,15.3215015 C6.10257435,14.2548815 7.9179499,14.1354895 9.79408229,14.2886353 C10.7199007,14.5710099 11.6833304,14.7611885 12.4866708,15.3512048 C12.7518792,15.5458196 13.2030227,15.6738911 13.1974808,15.9992777 C13.1906785,16.3881214 12.6363447,16.2361329 12.4081691,16.4729881 C10.9793227,16.6677957 9.61026876,17.1189393 8.21440466,17.4541627 C6.840143,17.7841784 5.46568845,18.1140012 4.09972057,18.4764205 C3.67384411,18.5890617 3.51163302,18.4957084 3.40535678,18.0607666 C3.28480751,17.5677683 3.2940657,17.030215 2.98680972,16.5889083 C2.99285326,16.4982552 2.99953972,16.4079879 3.00686912,16.3181064 L3.00686912,16.3181064 Z" id="Path" fill="#035239"></path>
                    <path d="M37.0441964,15.8251081 C36.9653089,16.0102718 36.8088842,16.2008361 36.8208427,16.3798276 C36.8860357,17.348658 36.4075033,17.3816403 35.6138069,17.2566548 C34.4067712,17.0662834 33.1763972,17.02385 31.9558599,16.9185382 C31.7895984,17.0252002 31.6069421,17.066862 31.4838854,16.8861345 C31.3778021,16.7300956 31.4397162,16.6006739 31.6505327,16.5864008 C33.0213226,15.605612 34.3955843,14.6294522 35.7603949,13.6401767 C36.0304252,13.4447905 36.2811677,13.2308878 36.6364505,13.1352199 C36.9643445,13.5576246 36.7921037,14.120445 37.0343595,14.559823 L37.0441964,15.8251081 Z" id="Path" fill="#2C509E"></path>
                    <path d="M33.6489503,47.1260634 C34.7438591,46.4125403 35.8388322,45.6988886 36.9338697,44.9851084 C37.1691818,44.8308053 37.3859776,44.6396624 37.6914977,44.6411961 C37.9173588,44.9332239 37.9277743,45.2584177 37.8388571,45.5990417 C37.5545537,46.6708693 37.566898,47.7704715 37.5246575,48.8656375 C37.5161709,49.0857123 37.6268833,49.3885321 37.3942714,49.5009804 C37.1703391,49.6093783 36.9863327,49.3437842 36.7944183,49.23095 C35.7293414,48.6093016 34.7830778,47.7953529 33.6485645,47.2851884 C33.6485645,47.2324682 33.6486931,47.1794265 33.6489503,47.1260634 Z" id="Path" fill="#0B6333"></path>
                    <path d="M38.0110979,37.0458299 C38.0033828,36.5337366 37.882062,36.0139282 38.1117807,35.5176509 C38.1449558,36.031673 38.229051,36.5487812 38.0110979,37.0458299 Z" id="Path" fill="#036A63"></path>
                    <path d="M31.6505327,16.5864008 C31.3760662,17.0427522 31.8166014,16.8423511 31.9558599,16.9185382 C32.1207713,18.0497725 32.9202541,18.8872524 33.3445875,19.9027595 C33.7586984,20.895121 34.3028095,21.8340552 34.8044874,22.7888054 C35.0872477,23.3269373 35.0114464,23.6733477 34.3994418,23.913289 C34.0071263,24.067592 33.3478664,24.2026072 33.3551958,24.569077 C33.3634896,24.987817 34.0495596,24.939983 34.4279879,25.1104879 C35.5439848,25.6119728 36.3675774,26.4527317 37.1377426,27.3544402 C37.2224164,27.4535799 37.6585154,27.6790553 37.21663,27.9232399 L31.6258442,25.4104145 C30.8836465,25.3957557 30.2648912,25.0325648 29.6324415,24.7069854 C28.0519924,24.082058 26.5417511,23.3022488 24.993127,22.6074993 C24.1406026,22.2250206 24.1058844,21.8473638 24.8652484,21.2916799 C26.3198119,20.2285318 27.7741826,19.1651908 29.2283604,18.1016569 C29.6420855,17.7994158 30.0797275,17.5276495 30.5194913,17.098687 C28.5386257,16.804161 26.6057869,16.7165941 24.6918503,16.4654658 C24.5457856,16.4161711 24.4144597,16.3309419 24.3099502,16.2176165 C23.9820562,15.484677 24.5637787,14.9014114 24.633408,14.1752226 C24.2902766,14.2593178 24.0092521,14.5245261 23.649726,14.5009949 C23.5787395,14.4817341 23.5163857,14.4389636 23.4728561,14.3796741 C23.2292501,13.7400879 23.5770106,13.112846 23.4844288,12.4564793 C22.9920092,13.0760061 22.4793372,13.6837673 21.901858,14.2332791 C21.5517829,14.5665737 21.2267821,14.5418852 21.0531911,14.1023144 C20.7638729,13.3693748 20.3900737,12.6541801 20.3588274,11.8384956 C20.390516,11.7707398 20.4346837,11.7095593 20.4890206,11.6581538 C21.6117682,11.3426041 22.7908365,11.275868 23.8969966,10.8866385 C23.9955577,10.9122914 24.0025013,11.2108678 24.1953802,10.9711195 C24.3546981,10.7732258 24.4740901,10.4869936 24.8193432,10.5616377 C25.2448339,10.8685079 25.645829,10.4013554 26.1573436,10.5764894 L25.1821483,13.4835591 C26.3853264,13.0675195 27.3423912,12.4227255 28.34864,11.8849794 C28.9135821,11.5833169 29.1992357,11.6614328 29.4775598,12.2470129 C30.1719236,13.7076843 30.9224152,15.1417384 31.6505327,16.5864008 L31.6505327,16.5864008 Z" id="Path" fill="#2560AA"></path>
                    <path d="M24.8197289,10.5614448 L24.0215963,11.533747 C23.7957352,11.3242806 23.9267,11.0914758 23.8973824,10.8864456 C24.1708846,9.6832675 24.1903653,8.44845723 24.3514191,7.23100605 C24.5265531,5.90657141 24.6799561,4.57930788 24.811628,3.24921547 C24.8519397,2.84416992 25.0768364,2.78842794 25.386407,2.82141022 C27.0995567,3.00425935 28.8088489,3.22028364 30.5320284,3.29936396 C31.1205017,3.32617412 30.9108424,3.60199085 30.6714798,3.87491439 C28.7190317,6.1016362 26.7684481,8.33047967 24.8197289,10.5614448 L24.8197289,10.5614448 Z" id="Path" fill="#2C509E"></path>
                    <path d="M20.3646137,11.47164 L16.9061034,1.11616848 C16.9979137,0.717295058 17.2397838,0.80601932 17.4922622,0.937176925 C19.8612,2.16774386 21.2624647,4.09595353 21.5506256,6.75498109 C21.6813975,7.9612453 21.594602,9.17638193 21.104304,10.3247825 C20.9222264,10.7512376 20.7870184,11.202574 20.3646137,11.47164 L20.3646137,11.47164 Z" id="Path" fill="#2560AA"></path>
                    <path d="M20.4894063,11.6575752 L20.4622104,11.7871898 C19.9306364,12.9018365 18.9836013,13.598322 17.9713732,14.2132197 C17.4892244,14.5048149 16.9751764,14.7400616 16.4393366,14.9143343 C16.3863593,14.8063221 16.3332533,14.6983743 16.2800187,14.5904907 C15.8915608,14.0211124 15.6188301,13.4262741 15.8715014,12.7170586 C16.8021417,12.2348615 17.8612394,12.265915 18.8418354,11.9787185 C19.3325191,11.8350237 19.8434551,11.7601867 20.3462902,11.6544891 C20.3935455,11.6535248 20.4413795,11.654682 20.4894063,11.6575752 L20.4894063,11.6575752 Z" id="Path" fill="#0E8FA6"></path>
                    <path d="M14.5919432,19.2352058 L15.4010699,19.0494635 C15.4818003,19.0237494 15.5698106,19.0356446 15.6408183,19.0818672 C16.0894544,19.5812304 16.1174219,20.2198523 16.2194548,20.8337856 C16.3994107,22.6071135 16.1785645,24.3011683 15.243295,25.8592435 C15.0425081,26.1940812 14.8233978,26.5009514 14.4524918,26.6648984 L14.1373278,26.8307742 C13.2448774,27.0961754 12.3628426,26.8153439 11.4896801,26.722762 C10.825984,26.6523613 10.0857151,26.8845874 9.49261267,26.3775089 C9.48817646,26.32331 9.48393313,26.2689181 9.47949691,26.2145263 C9.71442333,22.8121437 11.3955552,20.4688588 14.5919432,19.2352058 L14.5919432,19.2352058 Z" id="Path" fill="#035239"></path>
                    <path d="M14.4530704,26.6648984 C15.6982962,24.9054577 16.1718137,22.942337 16.0049735,20.8079398 C16.2152114,20.7030137 16.3521554,20.8432366 16.4713545,20.9697652 C17.5634345,22.1295456 18.5868495,23.3502757 19.6324457,24.5513322 C19.7175052,24.6489288 19.7634104,24.771214 19.789449,24.8996713 C19.7961835,24.974551 19.7783057,25.0495835 19.738529,25.1133811 C19.9267788,27.3565619 20.1152214,29.5996784 20.3038569,31.8427306 C20.3175513,32.0039773 20.295756,32.1499866 20.1663343,32.2626278 C18.7407668,31.2044945 17.3310155,30.1253375 15.8821097,29.099415 C15.3665446,28.7341025 15.0608316,28.3518166 15.2151347,27.704901 C15.3694378,27.0579854 15.0822412,26.7364564 14.4530704,26.6648984 L14.4530704,26.6648984 Z" id="Path" fill="#0B8C79"></path>
                    <path d="M18.4780659,40.7649195 C18.3787333,41.1913746 18.0979017,41.0663891 17.8197704,40.9911664 C16.7963554,40.7143853 15.7648394,40.6696374 14.7250296,40.9005134 C14.1055028,41.038036 13.9149385,40.6445631 13.8102053,40.1494432 C13.5538693,39.6140116 13.6481871,39.0461763 13.7058579,38.4987862 C13.850517,37.1220171 14.014464,35.7473696 14.1595089,34.3711792 C14.2000134,33.9883147 14.2493904,33.5986995 14.6064091,33.3489214 C16.4030754,33.7539669 18.1654093,33.7229134 19.9182921,32.9263239 C18.0286582,35.3014338 17.4631375,37.8923751 18.4780659,40.7649195 L18.4780659,40.7649195 Z" id="Path" fill="#67B345"></path>
                    <path d="M32.4226267,39.076844 C32.2982198,40.1777964 31.7247911,41.1254101 31.3733659,42.1484394 L31.1723861,42.1677273 C30.3044314,42.4659179 29.4538357,42.1403385 28.6015042,42.0685876 C27.4943797,41.9754271 26.3916914,41.8178451 25.2859171,41.6963314 C25.0197443,41.55688 24.8230079,41.3462563 24.6654259,41.0943566 C24.5865384,40.7471747 24.8694917,40.6476492 25.0826228,40.5379012 C26.11221,40.0069057 27.1348536,39.4616373 28.1823785,38.9663244 C28.4342782,38.8473182 28.6956291,38.6997659 28.9839829,38.8849296 C29.9346827,38.3944387 30.8882756,37.9095413 31.834732,37.4109496 C32.2602227,37.1868243 32.4413359,37.2834566 32.4214694,37.7754905 C32.4039174,38.2086964 32.4208908,38.6430595 32.4226267,39.076844 Z" id="Path" fill="#045138"></path>
                    <path d="M14.6064091,33.3485356 L13.8102053,40.1490574 L13.6535877,40.1440426 C13.2894325,39.8128696 13.0363754,39.3943226 12.752072,39.0002711 C12.1562693,38.1760999 11.3940122,37.5430716 10.5021405,37.0599101 C10.2350033,36.915251 9.93199065,36.8153397 9.77286562,36.5223568 C9.76592198,36.4866742 9.75955698,36.4507987 9.75357773,36.4149233 C10.5928578,35.2584218 11.4318164,34.1016632 12.2704536,32.9446473 C12.4197418,32.738267 12.5790597,32.532851 12.5703802,32.2560699 L12.8768646,32.4155807 C13.4915695,32.4827026 14.0235293,32.7155073 14.4328182,33.1930753 L14.6064091,33.3485356 Z" id="Path" fill="#307D3D"></path>
                    <path d="M28.9839829,38.8851225 C27.5327626,39.5987741 26.0609042,40.2719212 24.6654259,41.0943566 C24.5184522,41.1389116 24.3693569,41.2262857 24.2248906,41.2193421 C23.8777087,41.2025616 23.4200073,41.3736451 23.2180631,41.0206769 C23.0197837,40.673495 23.4377521,40.4399187 23.6192511,40.1801109 C24.3861373,39.0824375 25.1659465,37.9936365 25.9415122,36.9011708 C26.1355483,36.7779212 26.271335,36.8755179 26.4007567,37.0168981 C27.0453578,37.7193628 27.8018285,38.2526728 28.7143383,38.553178 C28.8686414,38.6039051 28.9693241,38.7134603 28.9839829,38.8851225 Z" id="Path" fill="#0B8C79"></path>
                    <path d="M9.49319131,26.3775089 C11.0585959,26.3524347 12.6145494,26.4224497 14.1379064,26.8307742 C13.2552929,28.1022314 11.992901,28.8286131 10.5503602,29.2596973 C10.1912198,29.3671308 10.0118425,29.0214919 9.93179777,28.7088354 C9.73564,27.9417562 9.54218253,27.1729412 9.49319131,26.3775089 L9.49319131,26.3775089 Z" id="Path" fill="#1A3E21"></path>
                    <path d="M25.2859171,41.6965243 C25.3198638,41.5292983 25.4016444,41.407206 25.5924015,41.4293871 C27.3823171,41.6428397 29.1720398,41.8591211 30.9615696,42.0782315 C31.0344778,42.0871039 31.1023711,42.1370595 31.1723861,42.1679202 C30.8311835,42.9201476 30.1655586,43.3886503 29.5965661,43.9381621 C29.2032861,44.3179405 28.8210003,44.0473315 28.4823051,43.8266781 C27.409513,43.128071 26.3504153,42.4082472 25.2859171,41.6965243 Z" id="Path" fill="#193F21"></path>
                    <path d="M22.1655234,44.6778524 C20.7027303,44.1023019 19.705161,43.0225662 18.9348029,41.6967172 C19.2729195,41.2883927 19.5134394,41.7030822 19.7313925,41.833854 C20.67457,42.3978317 20.6764988,42.4163481 20.9320632,41.3819389 C20.9937845,41.1311964 21.0412327,40.9493117 21.3432809,40.9300238 C21.8052856,40.8992481 22.2676466,40.9845856 22.688225,41.1782589 C22.7148423,41.1904102 22.6978689,41.3711377 22.6554356,41.4482892 C22.5564888,41.6272808 22.4463549,41.8056937 22.3111469,41.9578751 C21.6746467,42.6715268 21.3251503,43.3973298 22.1497073,44.2159076 C22.2885801,44.3538159 22.355509,44.5173772 22.1655234,44.6778524 L22.1655234,44.6778524 Z" id="Path" fill="#1B4623"></path>
                    <path d="M20.3378036,32.5673764 C21.4491714,33.0495734 22.3099896,33.8932254 23.2695618,34.5945329 C22.7530323,35.414075 21.8202703,35.7114942 21.1127907,36.2934096 C20.7970481,36.5532174 20.6739914,36.2127863 20.6435165,35.9400556 C20.5175666,34.8180794 20.2872693,33.7053615 20.3378036,32.5673764 L20.3378036,32.5673764 Z" id="Path" fill="#154A25"></path>
                    <path d="M14.4322395,33.193461 C13.8522529,33.0570957 13.3218361,32.8217835 12.8764789,32.4159665 C13.2562573,31.3618837 14.0376094,30.5643297 14.6527,29.6614639 C14.7583976,29.5061964 15.0708613,29.4465969 14.9998819,29.7341792 C14.7202076,30.8750575 15.0006534,32.1060102 14.4322395,33.193461 L14.4322395,33.193461 Z" id="Path" fill="#1B4522"></path>
                    <path d="M58.5879902,11.7896972 C59.5161232,8.62519853 60.4419415,5.46005692 61.3654454,2.29427238 C61.4314099,2.06763975 61.4591845,1.84235728 61.6933394,1.72142225 C64.0092355,3.78406846 64.6829613,6.34704237 64.0092355,9.32084818 C63.8861788,9.86765966 64.1538946,9.95850559 64.6071599,9.83390587 C65.4025922,9.61498839 66.2026536,9.41285138 67.0032936,9.21534346 C67.8936223,8.99584735 68.1761898,9.27937923 67.9511002,10.1729868 C67.5670784,11.6967296 67.0572997,13.1871043 66.6973878,14.7179836 C66.6277585,15.013474 66.4398945,15.2138751 66.2082471,15.3863088 C65.8996409,16.5281514 65.6236313,17.6796381 65.2718203,18.8077863 C65.0625468,19.4793904 65.1844462,19.9411423 65.7115841,20.4329834 C66.8979818,21.5401079 68.0162932,22.7201405 69.1621863,23.8706628 C69.0865778,24.0861084 68.903343,24.1862125 68.7104641,24.2512127 C67.219125,24.7526977 65.9899082,25.6206524 65.0021757,26.8448543 C64.831478,27.057021 64.6258691,27.2821106 64.2885241,27.1461311 C63.9183896,26.2239774 63.8929296,25.2580402 63.9436567,24.2855451 C63.9531078,24.1057821 64.1195622,23.8787637 63.7272467,24.0513902 C63.5729436,24.1188978 63.3850796,23.9620873 63.2560437,23.8372947 C62.0960704,22.7153186 60.925103,21.6041436 59.8492249,20.3988438 C59.7799814,20.3216923 59.7404412,20.2252529 59.7082305,20.1270775 C59.6503668,19.5069721 59.855397,18.9279499 59.9852045,18.3373549 C60.3080836,17.8036591 60.7719572,17.3949489 61.2165429,16.9679152 C61.646277,16.5563117 62.0667528,16.5669201 62.5059379,16.9679152 C62.8220663,17.2572334 63.0826456,17.6142521 63.5264598,17.8667305 C63.725125,16.8874847 63.5440118,15.9857762 63.386044,15.0892754 C63.3297234,14.7694823 62.9979718,14.6929094 62.7281343,14.6263662 C61.7214997,14.3742735 60.7318384,13.8851328 59.6602036,14.3692587 C59.5693577,14.4103419 59.4572951,14.371959 59.3604699,14.3306829 C59.0861962,13.7246576 59.1764635,13.5053544 59.852311,13.4305174 C61.2603264,13.2750571 62.0659813,12.3311081 62.8000781,11.2760609 C62.8567845,11.1944731 62.8965175,11.0930189 62.8160871,10.9481669 C61.9620196,11.0571434 61.1380412,11.3439542 60.296318,11.5694296 C59.7437202,11.7196822 59.2001876,12.0616564 58.5879902,11.7896972 Z" id="Path" fill="#EB5F24"></path>
                    <path d="M66.2084399,15.3863088 C66.7227835,13.5651468 67.237127,11.7440492 67.7514706,9.92301589 C67.8814709,9.4655073 67.8511889,9.21920103 67.2654159,9.39703531 C66.4076838,9.65742174 65.5356786,9.87074572 64.6711957,10.109144 C64.4027083,10.1832094 64.0688351,10.389204 63.8788494,10.1571708 C63.6888638,9.92513755 63.8441312,9.5848993 64.0094284,9.32084818 C64.1380786,9.78067131 64.4025154,9.49656079 64.60851,9.41844486 C67.6184485,8.27583067 70.6273582,7.13019471 73.6352393,5.98153698 C73.798029,5.91962288 73.9781779,5.74468178 74.1332525,5.86349514 C74.3467693,6.02724926 74.1525403,6.24732401 74.1002702,6.43036602 C73.4770787,8.58000059 72.8639169,10.7329141 72.2036926,12.8711688 C71.9988553,13.5344791 72.1998351,13.6914825 72.831899,13.6725804 C73.6560702,13.6478919 74.4779269,13.6415269 75.2961189,13.515577 C75.857975,13.4291673 76.0066845,13.6787525 75.9133312,14.2371367 C75.644651,15.8314731 75.428048,17.4346819 75.1886854,19.0340332 C75.1597536,19.2280693 75.2731663,19.4957851 75.0490411,19.5951177 C74.8069782,19.7025512 74.622586,19.4857554 74.4468734,19.3416749 C73.6313817,18.672964 72.8093322,18.010811 72.0083064,17.3258983 C71.404017,16.8084044 70.7110034,16.4965193 69.9445029,16.3292934 C68.6886688,16.0540553 67.4885767,15.5614427 66.2084399,15.3863088 L66.2084399,15.3863088 Z" id="Path" fill="#EE7923"></path>
                    <path d="M76.3311067,16.4409702 C76.9886307,16.98566 77.215649,17.612902 76.9446543,18.3709158 C76.8771467,18.559937 76.9639422,18.7140472 77.056524,18.8772227 C77.2270289,19.1777279 77.293765,19.3490043 76.816197,19.5351324 C76.3594599,19.7133524 76.4701724,20.3465736 76.7664342,20.586322 C77.3591509,21.0660117 77.2249072,21.6107015 77.1151592,22.1820086 C77.0304854,22.6225439 76.9784081,23.0376191 77.2540319,23.4430504 C77.4073718,23.6645522 77.4059849,23.9582607 77.2505601,24.1783045 C76.9890164,24.556347 76.9984675,24.9577279 77.1016577,25.3639307 C77.1953968,25.7336794 77.064432,25.9888581 76.7378882,26.109986 C76.308347,26.2693039 76.3091185,25.8713949 76.206507,25.6322251 C76.0801714,25.3380849 75.8942362,25.1091377 75.6130188,24.9432619 C75.3939085,24.8140331 75.1528099,24.664552 75.2779883,24.3356936 C75.3763565,24.077236 75.5389534,23.9078884 75.8425446,23.8841643 C76.0678271,23.8666123 76.4524275,23.9703811 76.3536735,23.5369824 C76.279801,23.2123673 75.9945332,23.3813292 75.7717581,23.3903945 C75.3431814,23.4077536 74.9634029,23.4845193 74.6723488,23.8396093 C74.5122594,24.0346098 74.2754041,24.0903518 74.0397062,23.9796393 C73.7874207,23.8598615 73.6443046,23.682413 73.7245422,23.362427 C73.8277324,22.950245 73.5532658,22.9494735 73.2662621,23.002708 C72.3032368,23.18097 71.3158737,23.1831919 70.3520559,23.0092659 C70.0480788,22.955067 69.8164313,23.1423523 69.4841011,23.157204 C69.681609,22.4242644 69.2034624,22.2919495 68.7114285,21.9956877 C68.097881,21.6261318 67.6598531,21.0096911 66.9141836,20.7467972 C66.638174,20.6503578 66.5596723,20.0362316 66.0909767,19.9264836 C65.9993593,19.905074 65.9142997,19.7064088 65.9792999,19.6836491 C66.6129068,19.4616456 65.9555758,18.6839581 66.5579364,18.4067912 C66.7836046,18.3028296 66.5749097,17.9892086 66.4061407,17.8204396 C66.2009177,17.6154094 66.1906951,17.3781684 66.3982327,17.2144143 C66.6618981,17.0061052 66.7008596,17.312011 66.8318243,17.4526197 C67.2314693,17.881968 67.4793186,17.5756764 67.5755651,17.2041917 C67.6822271,16.7929741 67.9150318,16.5950804 68.2940387,16.4961336 C68.5380305,16.4322907 68.7559835,16.4533145 68.9343965,16.6436859 C69.1646938,16.8896064 68.911251,16.98566 68.7881943,17.1357198 C68.6338912,17.323198 68.6605085,17.5129907 68.8460579,17.6790594 C68.9602422,17.7812852 69.1641151,17.8964339 69.1604504,18.0002027 C69.1236106,19.0760808 70.0519364,18.4276222 70.4511956,18.7211837 C70.5630653,18.803543 70.73222,18.5983199 70.7252764,18.4330228 C70.7129321,18.1357965 70.4575606,18.1437045 70.2639102,18.1608707 C69.595778,18.2187344 69.3730029,17.8948908 69.4609557,17.2790287 C69.4717569,17.2045775 69.4802435,17.1148888 69.5265345,17.0628116 C69.7107337,16.8506448 70.0893549,16.8546953 70.1393105,16.9933752 C70.3528274,17.5864776 71.5257235,16.9200812 71.3374738,17.9228583 C71.1947435,18.6828009 71.263987,18.7595666 72.0069562,18.7339137 C72.7148215,18.7094181 73.393755,19.0097305 73.8722874,19.4568236 C74.3920958,19.9421067 75.0953321,20.1253416 75.5576626,20.6640522 C75.6863128,20.8139191 75.8965507,20.8272277 76.0306015,20.651708 C76.1532724,20.490847 76.128584,20.280802 75.9765954,20.1604456 C75.4751105,19.7636938 75.6602742,19.3841083 75.9339692,18.9530241 C76.4153948,18.1926957 76.598051,17.3637025 76.3311067,16.4409702 L76.3311067,16.4409702 Z" id="Path" fill="#F8AE1B"></path>
                    <path d="M64.3529456,27.143045 C65.0237782,26.6222722 65.4359602,25.8629082 66.1357246,25.3461858 C67.0659792,24.6595372 68.053326,24.1578593 69.1623792,23.8706628 C69.2071291,23.8748888 69.2514507,23.8828241 69.294887,23.8943869 C70.1641919,24.2814947 70.6992378,25.0709477 71.3990021,25.6601926 C71.6723115,25.8916472 71.6111689,26.2100901 71.4065244,26.4942006 C71.1444021,26.8606704 70.7997276,27.112763 70.3815663,27.2705379 C69.0155984,28.4278109 67.7084586,29.6464193 66.5353696,31.0027433 C66.3546421,31.1547318 66.1476831,31.1198207 65.9567331,31.0542419 C65.211835,30.7986775 64.4715661,30.5267183 63.7372764,30.2441508 C63.5443975,30.1696996 63.3862369,30.0391206 63.3196937,29.8271468 C63.4228839,28.8398001 63.6302286,27.8921864 64.3529456,27.143045 L64.3529456,27.143045 Z" id="Path" fill="#E74725"></path>
                    <path d="M70.3815663,27.2705379 C70.6539112,26.8091717 71.3652484,26.5761741 71.3571474,26.059066 C71.3488537,25.5276848 70.6029912,25.3839901 70.2781833,24.9579207 C69.9863576,24.5758278 69.6252884,24.2467765 69.2945012,23.8943869 C72.2164226,23.4326349 74.5818886,24.3893139 76.4202167,26.6895869 C76.2257949,26.8801512 75.9654085,26.9455371 75.7200666,26.9613531 C73.9417238,27.0763089 72.1614522,27.170048 70.3815663,27.2705379 Z" id="Path" fill="#EC6324"></path>
                    <path d="M67.5130723,16.3780917 C67.500921,16.5516827 67.3882797,16.5902584 67.2488284,16.5844721 C67.0505489,16.5748281 66.9006821,16.4895757 66.8599846,16.2808808 C66.8298955,16.1265777 66.9134121,16.021073 67.0619288,16.0230018 C67.2933834,16.0260878 67.4283985,16.1813553 67.5130723,16.3780917 L67.5130723,16.3780917 Z" id="Path" fill="#F8AE1B"></path>
                    <path d="M76.8229477,14.0573736 C76.9000993,14.3659797 76.9533338,14.5985916 76.6645942,14.7069895 C76.5874427,14.7359213 76.4074867,14.6967669 76.3932137,14.6514404 C76.2904093,14.3270182 76.5554248,14.2332791 76.8229477,14.0573736 Z" id="Path" fill="#F8AE1B"></path>
                    <path d="M42.4436463,37.0535451 C44.3656839,36.967714 46.286757,36.8535297 48.2122664,36.8903696 C48.6879056,36.6076092 48.8780841,36.2783651 48.6454723,35.684684 C48.2514208,34.6793996 48.9347905,33.9036409 49.4077294,33.1454342 C50.5991419,31.2359338 52.3934937,30.1903376 54.5768821,29.7700547 C54.619894,29.7825918 54.662906,29.7953218 54.7061109,29.8072803 C54.9969722,29.9822214 55.0814531,30.277326 55.1458746,30.5787956 C55.4116616,31.8240213 55.4182195,33.0570957 54.9612896,34.2658673 C54.8320608,34.8772932 54.5574013,35.4306626 54.2682759,35.9788242 C54.175887,36.1541511 54.027756,36.3215699 54.1994182,36.5416447 C55.0444203,37.6262023 54.7230842,38.8147217 54.4987661,39.9941757 C54.3022226,40.2217727 54.0265988,40.2941023 53.7523251,40.3490728 C52.738361,40.5521742 51.8042489,40.944104 50.9229855,41.4805 C50.6699285,41.6348031 50.4130139,41.8429193 50.0743186,41.70964 L49.9080571,41.730471 C49.7161426,41.4604406 49.433768,41.2150987 49.3487085,40.9142078 C48.989761,39.6604954 48.1301,39.4548865 46.9406163,39.4014591 C45.1358491,39.3218001 43.6009193,38.4912639 42.4436463,37.0535451 L42.4436463,37.0535451 Z" id="Path" fill="#A92023"></path>
                    <path d="M50.5491863,10.7178695 C51.9718606,10.3321119 53.407072,10.2975866 54.8525059,10.5662668 C54.8804225,10.596791 54.8984435,10.635052 54.9041974,10.6760148 C55.0650584,10.8748729 55.2500292,11.0567577 55.2951628,11.3275595 C55.4847627,12.4688236 55.8496895,13.5718976 56.0070786,14.7222269 C56.0973459,15.3820654 55.9492149,15.8353307 55.2679669,16.0235804 C53.214386,16.5541901 51.130716,16.9573068 49.0711558,17.463228 C48.7399829,17.54443 48.4136319,17.407486 48.0953818,17.5210917 L45.927038,15.9973489 C46.4597694,13.6554141 47.8957522,12.0489264 50.0054609,10.9911788 C50.1870242,10.900783 50.368266,10.8096799 50.5491863,10.7178695 L50.5491863,10.7178695 Z" id="Path" fill="#CF2227"></path>
                    <path d="M48.0953818,17.5220561 C48.8809773,17.054132 49.7909796,17.0194138 50.6479403,16.8116833 C52.1577958,16.4452135 53.68231,16.1410436 55.2008451,15.8106422 C55.5466768,15.6831493 55.8016626,15.876221 56.0188442,16.0858803 C56.9584213,16.992025 57.8820537,17.914243 58.7897415,18.8525342 C59.2015378,19.2768677 59.2601729,19.6907856 58.7378571,20.0798222 C57.3778684,20.5647196 55.9386066,20.6567228 54.5348345,20.9242457 C54.3793741,20.9539491 54.2324005,20.8914563 54.1081865,20.7892306 C53.8248475,20.7919309 53.5874137,20.7203728 53.32587,20.5647196 C51.5942038,19.5303104 49.841321,18.5321625 48.0953818,17.5220561 L48.0953818,17.5220561 Z" id="Path" fill="#E65454"></path>
                    <path d="M54.1081865,20.7892306 C55.4423294,20.4214106 56.8202557,20.2811877 58.1727221,20.0080713 C58.3715802,19.9677596 58.5665807,19.9077743 58.7633171,19.8568543 C59.5037789,19.5391829 59.5886456,20.1147333 59.7537499,20.5820787 C59.798112,20.8035036 59.7703375,21.0183706 59.6937646,21.2284157 C58.4080343,23.2711954 56.7108934,24.7476828 54.247445,25.1631438 C53.9685422,25.2100134 53.6890608,25.2607405 53.403793,25.2136781 C52.1518165,25.3762749 50.965226,25.1438559 49.8386207,24.600902 C49.534065,24.4541212 49.1421352,24.3551744 49.1508148,23.8895649 C50.6552697,23.2887473 51.8977951,22.2078544 53.3821906,21.568461 C53.7340016,21.4160868 54.1222667,21.2870508 54.1081865,20.7892306 L54.1081865,20.7892306 Z" id="Path" fill="#CE2227"></path>
                    <path d="M49.1508148,23.889372 C50.4448389,24.803039 51.9053174,25.0634255 53.4520127,24.9847309 C53.6227105,25.293337 53.3841194,25.4810081 53.2134216,25.6405189 C52.8027826,26.0262766 52.9117591,26.3204168 53.2712853,26.6683702 C54.0846553,27.4560873 54.8943606,28.2499766 55.6670332,29.0766553 C55.8815145,29.3065668 56.2784591,29.5812263 55.7960691,29.9482747 C55.3545695,30.1162722 54.9474023,30.0510791 54.5749533,29.7667757 L54.5776536,29.7704404 C53.6724732,26.8579701 51.2570516,25.0856065 47.6671908,24.7700568 C48.1416728,24.3410942 48.6568521,24.1312421 49.1508148,23.889372 L49.1508148,23.889372 Z" id="Path" fill="#E85250"></path>
                    <path d="M54.414671,40.0020838 C54.4156354,39.2587287 54.4229648,38.5155666 54.414671,37.7724045 C54.409849,37.3039018 54.5527722,36.7568974 53.7727702,36.7227579 C53.4523985,36.7088706 53.6277253,36.4388402 53.7179926,36.3252346 C54.2057832,35.7113013 54.4212288,34.9673676 54.7342712,34.2701107 C54.9560818,33.9941011 55.2513793,33.8583144 55.5950894,33.7994863 C57.2214437,33.5205835 58.8452906,33.2256718 60.4820603,33.0150481 C61.2134569,32.9209233 61.4435613,33.2418736 61.2464391,33.9927509 C60.622669,36.3678608 59.6582749,38.6237716 58.8285101,40.9259734 C58.5283907,41.5275624 58.4057197,42.0435133 59.2019235,42.4184698 C59.6050403,42.6082625 59.7369694,43.0219876 59.3608557,43.4266474 C58.7862697,43.4858612 58.355957,43.8949572 57.8145461,44.0585184 C57.2958949,44.2151361 56.7892022,44.356902 56.2474056,44.3653887 L54.5718672,44.2882371 C54.0769401,43.7163514 54.3220891,43.0310529 54.2771484,42.3901166 C54.4285582,41.6430969 54.2725193,40.8808397 54.3824602,40.1315055 L54.414671,40.0020838 Z" id="Path" fill="#D62E2B"></path>
                    <path d="M54.5620304,42.324152 C54.5655022,42.9787828 54.5689097,43.6333492 54.572253,44.2878514 C53.0957655,44.3983709 50.6274951,42.9841834 50.0750902,41.7111831 C51.3928383,40.8144894 52.7848448,40.1062383 54.4148638,40.0018909 L54.4158282,40.0018909 C54.6382175,40.7645338 54.3618222,41.5593874 54.5620304,42.324152 L54.5620304,42.324152 Z" id="Path" fill="#861A1A"></path>
                    <path d="M50.5866048,50.1477031 C49.7647481,50.2344986 49.1400136,50.3041279 48.5148933,50.3648847 C48.2045513,50.3951667 47.9320135,50.2829112 47.8216868,49.9906998 C47.5773093,49.342434 47.4220418,48.6704442 47.4532882,47.9689439 C47.4656325,47.6938986 47.5846387,47.5583048 47.8317165,47.7683499 C48.7156802,48.5199987 49.5888426,49.2839917 50.5866048,50.1477031 Z" id="Path" fill="#7F1538"></path>
                    <path d="M7.57481846,39.5850797 L1.87987811,39.0436689 C1.57435804,38.9020958 1.46653878,38.7867542 1.77495203,38.4712045 C3.92805841,36.2662137 6.44126957,35.4163896 9.45538706,36.3445225 C9.55182648,36.3746116 9.65385938,36.3921636 9.75319198,36.415309 L9.80796956,36.4469412 C9.88357806,36.9000135 9.52925965,37.1521062 9.30224127,37.4391099 C8.74867903,38.1379099 8.41114107,39.0120367 7.62940317,39.5268303 C7.61050105,39.5457324 7.59237044,39.5650203 7.57481846,39.5850797 L7.57481846,39.5850797 Z" id="Path" fill="#4B8B40"></path>
                    <path d="M16.4393366,14.9143343 C16.4661468,14.6828797 16.6183282,14.5478645 16.8200794,14.4805498 C18.2267448,14.0126257 19.2582607,13.0401307 20.2226549,11.973125 C20.289391,11.8992524 20.3819728,11.8487181 20.4624033,11.7869969 C20.7607868,12.6281415 21.0603277,13.4696718 21.3847499,14.386232 C22.2912804,13.639791 22.8762819,12.66556 23.7841625,11.8469822 C23.7760616,12.7938244 23.707011,13.6318829 23.5100817,14.4593331 C23.4356305,14.8537703 23.0870984,14.9590822 22.79643,15.1037413 C21.3411592,15.8285799 19.9481883,16.6726177 18.4713151,17.3548301 C17.9675156,17.5878277 17.5370101,17.8354842 17.8641326,18.5132604 C17.954207,18.6997742 17.9264324,18.9130982 17.7061648,19.0533211 C17.3150065,19.3025205 15.7870204,19.1260364 15.380239,18.7740325 C15.0085615,17.9218939 14.5057264,17.1573222 13.8395229,16.5071276 C13.5415251,16.2164592 13.5644777,16.0646636 13.9913185,15.973239 C14.6395843,15.8343663 15.2803277,15.6607753 15.9257003,15.5085939 C16.2460721,15.4335641 16.5292182,15.3378962 16.4393366,14.9143343 Z" id="Path" fill="#3BBBD8"></path>
                    <path d="M15.3806247,18.7744183 C16.0717096,19.0886179 16.7998272,18.8658429 17.5088498,18.9021041 C17.8795629,18.921392 17.7017286,18.606228 17.6016245,18.4744917 C17.1180772,17.8360628 17.478182,17.5679612 18.0344446,17.2863581 C19.8687222,16.361697 21.6864123,15.4042465 23.5104674,14.459526 C23.5431283,14.4502678 23.5762391,14.4424241 23.6098,14.4359948 C23.7654533,14.5710099 23.7893702,14.7638888 23.7463583,14.9349723 C23.6013134,15.5095583 23.8620856,15.8652269 24.3354102,16.1234917 L24.6660045,16.2507917 C23.8888957,17.7602614 23.4342803,19.3898946 22.8976914,20.989053 C22.7588186,21.4025852 22.790065,21.7864141 23.0327066,22.1619492 C23.184888,22.3964899 23.3220248,22.6553333 23.1700363,22.9527524 C22.5155984,23.1004976 22.0494103,22.9141766 22.03398,22.3584927 C22.0096773,21.4751077 21.4188894,21.0401659 20.8402529,20.5913369 C20.0828177,20.0036351 19.2094624,19.632922 18.2749645,19.4109184 C17.7453192,19.2735887 17.2141309,19.4209481 16.6821711,19.3947166 C16.2670958,19.3742715 15.87208,19.3293307 15.5177616,19.099612 C15.4812093,19.0774933 15.4417344,19.0606126 15.4004913,19.0494635 C15.3941905,18.9577818 15.3875684,18.8661 15.3806247,18.7744183 L15.3806247,18.7744183 Z" id="Path" fill="#0D90A6"></path>
                    <path d="M15.8718871,12.7170586 C16.031205,13.3365854 16.3155084,13.9289163 16.2804045,14.5904907 C14.5252071,15.1656554 12.8433037,14.9183847 11.2121274,14.1335608 C11.0601389,14.0604597 10.8109395,14.0213053 10.8319633,13.8110674 C10.8564589,13.5657255 11.1162667,13.5547314 11.3122316,13.514034 C12.8143719,13.2018274 14.3169623,12.8914854 15.8200027,12.5830078 C15.84007,12.6265683 15.8573985,12.6713389 15.8718871,12.7170586 L15.8718871,12.7170586 Z" id="Path" fill="#025050"></path>
                    <path d="M58.5999487,40.9234659 C59.1562113,39.3515035 59.6592392,37.7577457 60.289953,36.2160652 C60.6392566,35.3619977 60.7027137,34.4329004 61.1291688,33.6037143 C61.307196,33.2565324 60.9453553,33.1622147 60.679954,33.2083127 C58.6963881,33.5520228 56.7159083,33.9138635 54.7346569,34.2691463 C55.1283226,32.7521543 55.2324772,31.2455777 54.5749533,29.7658113 L55.9424642,29.7596392 C56.2367973,29.4876801 56.5720207,29.6203807 56.8920067,29.6745797 C58.6857798,29.9783638 60.1161692,30.9234701 61.3475076,32.2167226 C61.53325,32.3739189 61.6132947,32.6024803 61.7442594,32.797095 C62.131753,33.4528831 62.445374,34.1453181 62.7071105,34.8608985 C63.3466967,36.9117791 63.0928682,38.8754785 62.1153583,40.7629907 C61.7637402,41.4421171 61.7946008,41.5177256 62.5607155,41.5730818 C63.0988474,41.612622 63.6425729,41.5730818 64.2538059,41.7106044 C63.7579144,41.1192379 64.0535976,40.7925012 64.5699343,40.5622039 C66.2144192,39.8292643 67.8411592,39.0556273 69.4989528,38.3498837 C70.8965528,37.7839772 72.1965561,36.9960672 73.6394826,36.5368227 C73.9137563,36.4494486 74.2059678,36.3890775 74.4034757,36.6787815 C74.5851676,36.9455329 74.4356865,37.1609786 74.2449293,37.3538574 C73.6215449,38.4600175 73.3370486,39.6994569 72.8693175,40.8669524 C72.6405632,41.4378738 72.4727586,42.0330978 72.2775652,42.6173278 C70.2639102,42.4533808 68.2566202,42.2022526 66.2333213,42.1717777 C66.0423713,42.1690774 65.7812133,42.0753383 65.6807235,42.3135437 C65.5921921,42.5241674 65.7449521,42.7209038 65.9071632,42.8433818 C67.4989922,44.0438597 69.1319044,45.1845451 70.8502619,46.1994735 C70.843704,46.7229466 70.6134067,46.891137 70.1084499,46.7009584 C68.5505676,46.1136424 66.9884419,45.5378991 65.4274736,44.9588768 C64.0341169,44.4419616 62.640503,43.9258821 61.246632,43.4106385 C60.8161265,43.346024 60.6251764,43.0115722 60.6168826,42.6605327 C60.6031882,42.0691662 60.2608283,41.9167919 59.7840318,41.7705898 C59.3124431,41.6272808 58.8001569,41.4745208 58.5999487,40.9234659 L58.5999487,40.9234659 Z" id="Path" fill="#C42227"></path>
                    <path d="M29.7853944,24.5393737 L31.62623,25.4106073 C31.0790328,25.5091684 30.6641504,25.8602079 30.0804991,26.1788437 C31.0713176,26.6498538 31.9687828,27.071487 32.8602688,27.5056572 C33.0093641,27.5781796 33.2653143,27.571236 33.2579849,27.8044265 C33.2518128,28.004249 33.0265303,28.0563263 32.8826427,28.1566233 C31.5114028,29.1081588 30.1413845,30.0612374 28.7725877,31.015859 C28.6130769,31.1275359 28.3897232,31.2043017 28.4007173,31.464881 L28.0691586,31.3591834 C27.9470663,31.4054743 27.8091579,31.4421213 27.6918876,31.4104891 C26.6258463,31.1229068 25.52798,31.0264674 24.4438081,30.8548052 C23.9716407,30.5093592 24.2023238,30.0395064 24.2509293,29.5962709 C23.9016257,29.5110184 23.5758534,29.9473103 23.2506597,29.6028287 C23.2460306,29.5484369 23.2412086,29.4942379 23.2363866,29.4398461 C23.1725437,29.2126349 23.1650783,28.9794443 23.2363866,28.7584052 C23.7843554,27.0695582 23.7463583,25.3861117 23.2120839,23.7028582 C23.1574992,23.531196 23.1461193,23.3506614 23.2010898,23.1728272 C23.3611792,22.9178413 23.6042066,22.9654824 23.8119371,23.0530494 C25.1042252,23.598125 26.3901484,24.1567021 27.6394246,24.7953239 C27.799514,24.8771045 27.9287428,25.003633 27.9941287,25.1810815 C28.0361763,25.6264388 27.6720211,25.7940505 27.4017979,26.0104605 C26.6376119,26.6205363 25.9671651,27.3075706 25.3605612,28.3169056 C26.7766776,27.5519481 28.10677,27.0290536 29.3008828,26.2019892 C28.9421282,25.7954006 28.229248,25.8908756 28.1468888,25.236052 C28.5147087,24.5821928 29.1380931,24.53243 29.7853944,24.5393737 L29.7853944,24.5393737 Z" id="Path" fill="#0D90A6"></path>
                    <path d="M23.2784342,23.1039694 C24.1369379,25.2215861 24.2283625,27.3343808 23.2367724,29.4398461 C22.5094263,28.5020692 22.2235799,27.3284016 21.5826435,26.3449124 C21.39883,26.0627307 21.4566937,25.5245987 20.7658017,25.8912614 C20.4126405,26.0785467 20.1293015,25.3373134 19.7387219,25.1133811 C19.7241714,25.066247 19.7139071,25.0178952 19.7080542,24.9689148 C19.523662,24.5418811 19.4004124,24.1009601 19.3971335,23.6316859 C19.3888397,22.455125 18.8570728,21.4558198 18.3170121,20.4592149 C18.1947269,20.2331609 18.0469817,20.018101 17.9698302,19.7717947 C17.8201562,19.2978914 17.944563,19.059879 18.484238,19.2099387 C19.9165562,19.5015715 21.0688143,20.2661432 22.0457456,21.323312 C22.1844255,21.4731789 22.3755684,21.6319182 22.2880014,21.8512214 C21.9481489,22.6998883 22.6093376,22.762381 23.1216237,22.9483162 C23.2027845,22.9593689 23.2667806,23.0228928 23.2784342,23.1039694 L23.2784342,23.1039694 Z" id="Path" fill="#034B4D"></path>
                    <path d="M24.3633776,30.7172826 C25.6419714,30.6816 26.9012773,30.7558584 28.0691586,31.3591834 C27.1047645,32.2850017 25.9698654,32.9751222 24.8426815,33.6716077 C24.4883631,33.8905251 24.4268348,33.5792187 24.3556625,33.3140103 C24.1386738,32.5039192 24.216404,31.6778192 24.2000093,30.856734 C24.2316778,30.7887676 24.2912825,30.7378889 24.3633776,30.7172826 L24.3633776,30.7172826 Z" id="Path" fill="#025050"></path>
                    <path d="M24.3633776,30.7172826 L24.2000093,30.856734 C23.4207788,30.8449684 22.7385664,31.226097 21.9531638,31.4477147 L23.2504668,29.6028287 C23.7519517,29.599164 24.0869823,29.1485991 24.6233783,29.1013438 C24.6058263,29.661271 24.2461073,30.157934 24.3633776,30.7172826 Z" id="Path" fill="#3BBAD4"></path>
                    <path d="M59.5396544,20.643607 C59.443215,20.2210095 59.3203511,19.8242578 58.7627384,19.8568543 C58.8591779,19.6446876 59.097769,19.4763044 58.8101866,19.198366 C57.6903321,18.1155442 56.593816,17.0086126 55.4822553,15.9171113 C55.4166765,15.8526898 55.2953557,15.8449746 55.2000736,15.8108351 C55.7193034,15.650167 55.8730278,15.3865016 55.7275972,14.7968711 C55.391988,13.4384255 55.1709489,12.0518195 54.9036188,10.6762077 C55.5754158,10.7940567 56.21018,11.0446063 56.7384751,11.4537023 C57.3219336,11.9056174 57.897484,12.0795941 58.5876045,11.7896972 C59.9701599,11.412169 61.3524582,11.0345766 62.7344993,10.6569198 C62.9287283,10.6038782 63.1515034,10.475228 63.2977055,10.6819941 C63.4134328,10.8463268 63.2629873,11.0338051 63.1690553,11.1744137 C62.3363974,12.4209896 61.4877306,13.6523281 59.7518211,13.6610076 C59.264802,13.663515 59.2912264,13.94859 59.4000101,14.2838134 C59.7786312,14.4246149 59.915961,14.7581024 60.0228158,15.0993051 C60.3497455,16.1427795 60.7171796,17.1874113 60.1840625,18.2758265 C60.2033504,18.9316145 59.9832757,19.5488268 59.8561685,20.1793477 C59.8399667,20.3949862 59.8868363,20.6530581 59.5396544,20.643607 L59.5396544,20.643607 Z" id="Path" fill="#E53226"></path>
                    <path d="M58.5999487,40.9234659 C59.2312411,41.2357368 59.81875,41.6564055 60.55574,41.7059754 C60.8005033,41.7225629 60.9675364,41.8440766 60.8628031,42.098098 C60.6350132,42.650503 60.9848954,43.0135009 61.2458605,43.4116029 C61.7996156,44.4649141 62.196946,45.5525579 62.3956112,46.7484066 C62.8438616,49.4465886 60.9459339,53.1379036 58.4250076,54.2633516 C58.4595329,52.0734054 58.8034359,49.9094978 58.978377,47.7311243 C59.0941043,46.2955271 59.2327841,44.8620517 59.3612415,43.4274189 C59.3569981,43.1035754 59.4561378,42.7716309 59.0582288,42.5530992 C58.0649028,42.0047447 58.0737753,41.9902787 58.5999487,40.9234659 Z" id="Path" fill="#AA2023"></path>
                    <path d="M7.62940317,39.5268303 C8.25047301,38.4260708 8.9976856,37.4142285 9.80777668,36.4467483 C11.3390417,37.088649 12.5522496,38.0999127 13.4281123,39.5185365 C13.5529049,39.7208664 13.6830981,39.8973506 13.6535877,40.1446212 L7.62940317,39.5268303 Z" id="Path" fill="#236231"></path>
                    <path d="M14.4303107,44.6167098 C13.3262723,44.0741416 12.4523383,43.2154451 11.4887157,42.4798052 C12.058094,41.862593 12.7667308,41.4768353 13.5502046,41.1979325 C14.0003838,41.0370716 14.1886336,41.1458552 14.2964528,41.6272808 C14.5188421,42.6213783 14.4104442,43.6197191 14.4303107,44.6167098 L14.4303107,44.6167098 Z" id="Path" fill="#376C34"></path>
                    <path d="M62.4953296,34.9073823 L61.5349859,32.8549587 C61.3716175,31.7217956 61.9431175,30.7813184 62.3905964,29.8298471 C62.6070064,29.3690596 63.0504348,29.2795638 63.4057177,29.8005295 L66.5351767,31.0027433 C69.0624037,31.9644371 71.5897593,32.9254238 74.1172435,33.8857032 C75.2571574,34.3160158 75.2614007,34.3054075 74.8654205,35.4304697 C74.7817111,35.6686751 74.6954942,35.9061089 74.558936,36.2878161 L76.1227976,35.6297136 C75.7756157,36.5086624 75.0544417,36.9798654 74.2443507,37.3554004 C74.3816804,36.7335591 74.3134013,36.534701 73.5806546,36.8128323 C72.2112149,37.3336051 70.9507517,38.0837109 69.5828551,38.5973472 C67.7443341,38.3572131 66.2520306,37.4838577 65.0002469,36.1392994 C64.6060026,35.7161233 64.34118,35.2194603 64.0532119,34.7349487 C63.7918611,34.2955707 63.5362966,34.2103182 63.163269,34.6091917 C62.9921854,34.7914622 62.7962205,34.9849196 62.4953296,34.9073823 L62.4953296,34.9073823 Z" id="Path" fill="#E53326"></path>
                    <path d="M23.2784342,23.1039694 L23.1214308,22.9483162 C22.0430453,21.8085952 22.7318156,20.659616 23.1114011,19.5179662 C23.4113277,18.6158719 23.7448152,17.7241931 24.0410771,16.8213273 C24.147932,16.4957478 24.2968344,16.2648718 24.6665832,16.2509846 L31.0975491,16.8296211 L31.1584988,17.003212 L24.3392678,22.0037886 L29.7846229,24.5393737 C29.2979896,24.8526089 28.6736409,24.8749828 28.2282836,25.2753993 C28.1276009,25.3743461 28.0244107,25.3747319 27.9196775,25.2829216 C26.4433829,24.4053229 24.8463462,23.7854103 23.2784342,23.1039694 L23.2784342,23.1039694 Z" id="Path" fill="#3BBBD9"></path>
                    <path d="M24.3354102,16.1234917 C23.4230933,16.1661179 23.3270397,16.0677497 23.4495177,15.1702845 C23.4832715,14.9226281 23.5552153,14.6803722 23.6098,14.4358019 L25.0783795,13.5933072 L24.3354102,16.1234917 Z" id="Path" fill="#144C94"></path>
                    <path d="M18.4836594,19.2099387 C18.2442967,19.2645234 17.9148597,19.2319269 18.1771749,19.6589606 C18.4296533,20.0697925 18.5982294,20.5342448 18.866331,20.9331182 C19.6976387,22.1700501 19.7211699,23.5628281 19.7076684,24.9689148 L16.0043949,20.8077469 C15.8421195,20.2386258 15.6799084,19.6692475 15.5177616,19.099612 C16.5083873,19.0866891 17.5038349,18.9441517 18.4836594,19.2099387 L18.4836594,19.2099387 Z" id="Path" fill="#036A63"></path>
                    <path d="M63.4057177,29.8005295 C62.868743,29.519698 62.6002557,29.6782444 62.4316796,30.2705752 C62.1824801,31.1462451 61.8385772,31.994912 61.5349859,32.8551516 L61.2697775,32.3953284 C60.6467789,31.4153111 60.7231589,30.2638245 60.5268082,29.1883321 C60.1335283,27.0338756 59.8341803,24.8618671 59.4731112,22.7006598 C59.3924878,22.2184627 59.288719,21.7320223 59.5078294,21.2554187 C59.5186306,21.0512243 59.5294318,20.8470299 59.540233,20.6428355 L59.855397,20.1785762 C61.011127,21.3113536 62.1805513,22.4304365 63.314486,23.5844306 C63.6902139,23.9667164 63.9027664,24.0027848 64.1133901,23.4027387 C64.1176334,24.6863473 64.272708,25.9115137 64.3527527,27.1422735 C64.0372029,28.028616 63.7215246,28.9147014 63.4057177,29.8005295 L63.4057177,29.8005295 Z" id="Path" fill="#F18749"></path>
                    <path d="M60.1844483,18.276598 C60.2369113,16.8842058 60.0272521,15.543505 59.400203,14.2840062 C60.8251918,13.3568377 62.1120793,14.2911428 63.4456436,14.5860545 C63.6159556,14.6236659 63.7017867,14.7486513 63.7089232,14.9226281 C63.7509708,15.9497078 63.951179,16.9688796 63.8674696,18.0017457 C63.8578256,18.1215235 63.8414309,18.2875921 63.7635079,18.3452629 C63.6007181,18.4660051 63.4853766,18.2931856 63.3818007,18.1926957 C62.9931498,17.8158105 62.5990984,17.4429757 62.2332072,17.0446809 C61.9546902,16.7416683 61.7446452,16.7725289 61.4707572,17.0562537 C61.0608897,17.4809729 60.6149539,17.8715525 60.1844483,18.276598 L60.1844483,18.276598 Z" id="Path" fill="#F28748"></path>
                    <path d="M68.0621984,14.0068394 C69.2098274,13.9356671 70.2031534,13.8901477 71.1935862,13.8072098 C71.8921933,13.7493461 71.9894042,14.0294062 71.7529348,14.6157578 C71.5712429,15.0663228 71.454937,15.5429264 71.2981265,16.0044854 C71.1725624,16.3738484 70.9295351,16.5185075 70.6076203,16.23594 C69.8021583,15.5267246 68.8639957,14.9685332 68.0621984,14.0068394 L68.0621984,14.0068394 Z" id="Path" fill="#E95A25"></path>
                    <path d="M59.5078294,21.2561902 C59.8056343,23.0212244 60.1281277,24.7827868 60.395072,26.5526429 C60.6884407,28.5007191 61.1104596,30.4295074 61.2697775,32.3968715 C60.3320006,31.7432051 59.5770729,30.8594343 58.4595329,30.4194777 C57.6342044,30.0946697 56.789588,29.9484676 55.9428499,29.761568 C55.0604293,28.6878116 54.0316136,27.7556282 53.0290294,26.8018424 C52.5121142,26.31058 52.358004,25.9649411 53.005884,25.5045393 C53.1866114,25.376082 53.3056177,25.1604435 53.4525914,24.9849238 C55.7594222,24.8470154 57.5395009,23.7697871 58.8782729,21.9225866 C59.0617006,21.6685652 59.2449355,21.4282381 59.5078294,21.2561902 L59.5078294,21.2561902 Z" id="Path" fill="#E53326"></path>
                    <path d="M54.5620304,42.324152 C54.2559317,41.5659453 54.4912439,40.773792 54.4156354,40.0011194 C54.7458439,40.757783 54.5109175,41.5499364 54.5620304,42.324152 Z" id="Path" fill="#A92023"></path>
                    <path d="M62.4953296,34.9073823 C62.5763387,34.8446967 62.6629413,34.7879903 62.7371996,34.7179753 C63.7465345,33.7663112 63.755407,33.7605248 64.4515067,34.923777 C65.4294023,36.5582322 66.8208302,37.636232 68.6543364,38.169542 C68.9714292,38.261931 69.4050208,38.1776429 69.583048,38.5973472 C67.8934294,39.3495747 66.2059325,40.1060455 64.5132279,40.8511364 C64.1004672,41.0328282 63.957544,41.2176062 64.4135095,41.5163755 C64.576363,41.6187516 64.7160332,41.7540201 64.8235699,41.913513 C63.6736263,41.8622072 62.5267688,41.9113913 61.2846291,41.6565984 C62.7194548,39.5644417 63.152082,37.3245398 62.4953296,34.9073823 L62.4953296,34.9073823 Z" id="Path" fill="#E75353"></path>
                    <path d="M27.9196775,25.2829216 L28.2282836,25.2753993 C28.6709406,25.7346438 29.3757198,25.7155488 29.9096084,26.2158765 C28.9633449,26.7173614 28.0519924,27.2038018 27.1371681,27.6836844 C26.7276863,27.8983585 26.3212906,28.1244125 25.8942569,28.2981963 C25.6269269,28.40698 25.3462882,28.8563877 25.1057683,28.5828855 C24.8120138,28.2484336 25.2768518,27.9575723 25.4529502,27.6825271 C26.0879073,26.6953732 27.0056247,25.9886652 27.9196775,25.2829216 L27.9196775,25.2829216 Z" id="Path" fill="#046C87"></path>
                </g>
            </g>
        </g>
    </g>
</svg>