<?xml version="1.0" encoding="UTF-8"?>
<svg width="101px" height="102px" viewBox="0 0 101 102" version="1.1" xmlns="http://www.w3.org/2000/svg" xmlns:xlink="http://www.w3.org/1999/xlink">
    <title>wiki_type_logo</title>
    <defs>
        <rect id="path-1" x="0" y="0" width="99.009901" height="99.21875" rx="9"></rect>
        <filter x="-4.5%" y="-4.5%" width="109.1%" height="109.1%" filterUnits="objectBoundingBox" id="filter-2">
            <feGaussianBlur stdDeviation="2" in="SourceAlpha" result="shadowBlurInner1"></feGaussianBlur>
            <feOffset dx="3" dy="2" in="shadowBlurInner1" result="shadowOffsetInner1"></feOffset>
            <feComposite in="shadowOffsetInner1" in2="SourceAlpha" operator="arithmetic" k2="-1" k3="1" result="shadowInnerInner1"></feComposite>
            <feColorMatrix values="0 0 0 0 0.910495924   0 0 0 0 0.910495924   0 0 0 0 0.910495924  0 0 0 0.5 0" type="matrix" in="shadowInnerInner1"></feColorMatrix>
        </filter>
    </defs>
    <g id="BibleCloud-Icons" stroke="none" stroke-width="1" fill="none" fill-rule="evenodd">
        <g id="BibleCloud" transform="translate(-725, -9768)">
            <g id="wiki_type_logo" transform="translate(726, 9769)">
                <g id="Rectangle">
                    <use fill="#FCFCFC" fill-rule="evenodd" xlink:href="#path-1"></use>
                    <use fill="black" fill-opacity="1" filter="url(#filter-2)" xlink:href="#path-1"></use>
                    <use stroke="#CCCCCC" stroke-width="2" xlink:href="#path-1"></use>
                </g>
                <path d="M94.9009901,23.7991225 C94.9009901,24.1307854 94.7960501,24.4300909 94.5942423,24.7051284 C94.3843622,24.9720766 94.1664098,25.1095954 93.9161681,25.1095954 C91.9061626,25.3037395 90.2513389,25.9508866 88.9759137,27.059126 C87.6924162,28.1592761 86.3766295,30.2705935 85.0124089,33.3768995 L64.185846,80.4083148 C64.0486167,80.8451391 63.6692181,81.0635513 63.0395778,81.0635513 C62.5471669,81.0635513 62.1677682,80.8451391 61.8933096,80.4083148 L50.2126754,55.9299759 L36.7803495,80.4083148 C36.505891,80.8451391 36.1264923,81.0635513 35.6340814,81.0635513 C35.0367303,81.0635513 34.6411871,80.8451391 34.4474516,80.4083148 L13.9841427,33.3768995 C12.7087176,30.4566483 11.3606416,28.4181349 9.93991484,27.2613595 C8.52726038,26.104584 6.54954414,25.3846329 4.02291073,25.1095954 C3.80495833,25.1095954 3.59507824,24.9963446 3.40941508,24.7617538 C3.21567962,24.5352523 3.11881188,24.2683041 3.11881188,23.9689986 C3.11881188,23.2005114 3.33676428,22.8203125 3.77266909,22.8203125 C5.59701142,22.8203125 7.50207686,22.9012059 9.49593772,23.0629927 C11.344497,23.2328688 13.0881162,23.3137622 14.7187231,23.3137622 C16.3816192,23.3137622 18.3431908,23.2328688 20.6034379,23.0629927 C22.9686251,22.9012059 25.067426,22.8203125 26.8917683,22.8203125 C27.3276731,22.8203125 27.5456255,23.2005114 27.5456255,23.9689986 C27.5456255,24.7293964 27.4083962,25.1095954 27.14201,25.1095954 C25.3176677,25.2471141 23.8807963,25.7162958 22.8313958,26.5009616 C21.7819953,27.2937168 21.2572951,28.3291522 21.2572951,29.615357 C21.2572951,30.2705935 21.4752475,31.0876167 21.9111523,32.0664267 L38.8226443,70.3370881 L48.4206223,52.1684334 L39.4765015,33.3768995 C37.8701115,30.0279133 36.5462525,27.8599705 35.5129967,26.8892499 C34.4797409,25.9266186 32.9137125,25.3280075 30.8149116,25.1095954 C30.6211761,25.1095954 30.4435853,24.9963446 30.2659944,24.7617538 C30.0884036,24.5352523 29.9996081,24.2683041 29.9996081,23.9689986 C29.9996081,23.2005114 30.1852713,22.8203125 30.5727422,22.8203125 C32.3970846,22.8203125 34.068053,22.9012059 35.5937198,23.0629927 C37.0628804,23.2328688 38.6289088,23.3137622 40.2918049,23.3137622 C41.9224118,23.3137622 43.6498864,23.2328688 45.4742287,23.0629927 C47.3550772,22.9012059 49.2036365,22.8203125 51.0279788,22.8203125 C51.4638836,22.8203125 51.681836,23.2005114 51.681836,23.9689986 C51.681836,24.7293964 51.552679,25.1095954 51.2782204,25.1095954 C47.6295358,25.3603649 45.8051934,26.3958002 45.8051934,28.2239908 C45.8051934,29.041014 46.2249536,30.3110402 47.0725463,32.02598 L52.9895504,44.062916 L58.8742653,33.053326 C59.6895687,31.5001729 60.1012566,30.1897001 60.1012566,29.1219074 C60.1012566,26.6142124 58.2769142,25.2794715 54.6282296,25.1095954 C54.2972648,25.1095954 54.1358186,24.7293964 54.1358186,23.9689986 C54.1358186,23.6939611 54.2165417,23.4351022 54.3779879,23.1924221 C54.5475065,22.9416526 54.7089527,22.8203125 54.8703989,22.8203125 C56.1781133,22.8203125 57.7845033,22.9012059 59.6895687,23.0629927 C61.513911,23.2328688 63.0153609,23.3137622 64.185846,23.3137622 C65.0253664,23.3137622 66.2685023,23.2409581 67.8991092,23.1034394 C69.9656208,22.9173846 71.7011677,22.8203125 73.0896053,22.8203125 C73.4124977,22.8203125 73.5739439,23.143886 73.5739439,23.7991225 C73.5739439,24.6727711 73.2752684,25.1095954 72.6779174,25.1095954 C70.5548996,25.3280075 68.8435696,25.9185292 67.5519998,26.8730712 C66.26043,27.8276132 64.6459678,29.9955559 62.7166854,33.3768995 L54.8703989,47.9134412 L65.4935604,69.6009583 L81.1780611,33.053326 C81.7189059,31.7185851 81.9933645,30.4890056 81.9933645,29.3726769 C81.9933645,26.6951057 80.1690222,25.2794715 76.5203375,25.1095954 C76.1893728,25.1095954 76.0279265,24.7293964 76.0279265,23.9689986 C76.0279265,23.2005114 76.2700959,22.8203125 76.7625069,22.8203125 C78.0944382,22.8203125 79.6766112,22.9012059 81.5009535,23.0629927 C83.1880666,23.2328688 84.6087933,23.3137622 85.7469892,23.3137622 C86.9497636,23.3137622 88.3382011,23.2328688 89.9123018,23.0629927 C91.550981,22.9012059 93.0201416,22.8203125 94.327856,22.8203125 C94.7072546,22.8203125 94.9009901,23.143886 94.9009901,23.7991225 Z" id="Path" fill="#000000"></path>
            </g>
        </g>
    </g>
</svg>