<?xml version="1.0" encoding="UTF-8"?>
<svg width="102px" height="102px" viewBox="0 0 102 102" version="1.1" xmlns="http://www.w3.org/2000/svg" xmlns:xlink="http://www.w3.org/1999/xlink">
    <title>logo_type_britannica</title>
    <g id="BibleCloud-Icons" stroke="none" stroke-width="1" fill="none" fill-rule="evenodd">
        <g id="BibleCloud" transform="translate(-1341, -10200)" fill-rule="nonzero">
            <g id="logo_type_britannica" transform="translate(1342, 10201)">
                <rect id="Rectangle" stroke="#979797" fill="#FFFFFF" x="0.0103255442" y="0.0131815458" width="100" height="100" rx="12"></rect>
                <g id="Encyclopædia_Britannica" transform="translate(3, 16)">
                    <path d="M28.4080391,71.3741288 L66.14263,71.3663667 C57.9518118,69.5164182 53.4982058,66.8569303 54.5735088,63.0003667 C52.79463,61.5241394 52.1054391,59.8859758 54.5735088,57.7789515 C53.7721588,56.1581636 50.7915042,54.5397258 54.9891882,52.9776879 C55.545248,46.3773212 64.159173,55.7914924 66.8894458,51.4464848 C63.6558458,51.0221959 61.7334745,49.4717015 62.1136761,48.5270727 C64.3094306,43.0714409 70.8236306,50.7201212 76.1616912,48.8580595 C73.0565579,48.0742277 69.1162488,44.4825732 72.4468397,43.3673914 C74.8429139,42.5651156 78.6914306,45.3413914 83.217673,43.6950526 C74.4806579,41.4199677 80.1580442,34.3598556 90.0663564,36.7326435 C89.3442655,35.5216102 88.2184018,34.4870405 87.0285897,33.9563677 C83.2608988,32.2756905 82.8126897,31.4012768 83.4140048,29.8978465 C84.806273,26.4173541 91.4666715,23.4221011 93.2882776,20.0171647 C87.1368321,23.7632783 84.4629594,19.4222515 86.4875912,13.6263753 C87.5591912,10.5582723 92.0078124,7.38762379 92.5989442,4.72913288 C85.2156715,7.34090864 81.1188382,15.2008753 79.9830048,17.8592238 C79.2428261,19.5915298 75.4546973,15.6860435 74.0739655,14.4528632 C72.1071579,19.1767192 82.449223,31.4739844 70.9518836,24.6518632 C71.7502427,28.4882738 73.2424215,30.8313662 72.9837079,32.7650602 C72.4054726,37.0867102 67.7219867,36.8834708 67.2925064,35.2806283 C66.4843912,37.9166874 60.3043897,44.2270071 58.2713548,37.7356662 C56.3776821,39.1141905 55.2731109,43.0228814 54.359673,44.4996071 C52.5767352,44.7171602 51.8914609,42.8977617 52.308123,41.3689798 C52.5543817,40.4656541 54.43587,39.9210238 53.541517,39.1237329 C52.4389397,38.140792 53.2045697,37.2791253 55.0621806,36.6167814 C56.2542003,33.3020708 57.6998064,35.0983965 60.7602185,34.4440995 C57.9452033,33.0763995 60.1613958,31.662198 64.2031109,31.4927844 C63.1059458,29.9341647 63.3148109,28.5773602 66.6971018,27.711848 C65.3371639,26.5305814 65.0290291,25.0648935 69.6821715,24.1577935 C66.1630109,22.7028586 63.4563806,25.2783874 68.2815715,20.7890329 C64.8406018,20.465445 63.4290352,23.6672844 65.0018973,17.478595 C61.853467,19.737942 60.5549852,17.5904123 62.4018715,15.4085298 C62.3777306,14.9398686 61.334473,15.8329114 60.6967685,15.6600226 C59.4759791,15.3290286 59.1816594,13.7447014 64.5128124,10.2550226 C59.3643897,9.58349227 56.6324791,16.3059165 56.7535397,9.2346953 C53.2509003,13.6678635 53.5723518,12.1579529 53.5483533,7.71047106 C49.1171079,9.29138015 49.7251882,14.5550953 47.99687,7.41831621 C43.1016064,8.30825409 48.6545211,16.0143314 41.1656336,7.58594955 C40.1579109,11.9410692 44.4913109,14.6627965 37.3134852,9.24262833 C37.8670526,16.3199026 41.2727367,13.9726798 31.4848442,10.2504935 C35.4699458,14.0282253 37.317117,16.9446465 32.2651867,15.2284344 C33.2400094,17.6933708 32.45726,18.635792 29.4246776,17.6290662 C30.6638397,22.0334647 31.4550776,21.9938708 26.1450033,20.6095783 C27.6924427,22.5060995 30.6958852,24.4563859 25.4064624,23.7508162 C27.5974458,25.2700556 31.4833488,25.3090086 26.8613261,28.3120238 C29.6251397,29.0893753 33.9037776,29.6836405 30.1175003,31.2528708 C32.5733927,32.0474556 37.2142155,32.0995829 34.6732958,34.5493511 C38.1226685,34.726128 40.8003155,34.8103435 39.0544791,37.1344935 C41.4100336,37.1409026 42.9638109,37.7546656 40.9942261,39.895245 C45.0027564,42.5430541 42.4944518,45.3471026 40.3446932,44.7408026 C38.7355841,43.8107011 39.0380932,42.4166526 38.7167841,41.6242041 C37.4079053,38.3955889 36.2363947,37.6803344 35.8753492,37.6877405 C35.1592402,37.7027662 35.7584332,41.5072026 31.7797977,40.7679495 C29.218725,39.1829814 29.098875,37.8114359 27.4154205,35.214045 C21.8669992,40.1736132 21.6274417,33.0265511 22.9815402,24.2908177 C13.004722,32.6696359 19.4087568,20.4689344 20.3672008,14.5760602 C12.2775038,25.3931814 11.103928,5.34340864 0.141534091,4.67330258 C12.125822,19.1720905 10.6852008,23.7617117 1.34274015,20.7102723 C6.46609621,26.8054602 4.72040227,23.4577783 10.0541189,28.3527571 C15.6784523,33.5137132 3.78766591,34.4436011 5.04185379,36.5464238 C13.6335962,35.6552041 20.882278,40.3737192 12.0635826,44.102742 C8.50546894,47.0575465 18.9372614,43.2580238 21.4244159,43.2399359 C22.6623674,43.2306783 26.6420568,44.349848 18.5796341,49.4917192 C23.8830144,49.5776936 25.3910735,47.3745829 27.7346644,46.8872783 C31.7427674,46.0538829 34.0383614,47.0966206 28.846428,52.5175223 C32.269025,52.011788 42.5077614,48.2368192 39.4000644,52.7383439 C41.7114674,53.4235826 44.486675,53.9372712 39.8850261,57.1795591 C43.6688109,59.1569061 42.5517776,61.209097 40.0248511,63.5016288 C45.4155374,66.02325 33.0616586,69.4708424 28.4065935,71.3741288 L28.4080391,71.3741288 Z" id="Path" fill="#77A6EB"></path>
                    <path d="M9.68637242,14.9663667 C9.63709364,14.7223227 9.73579364,14.476292 10.1928758,14.6431206 C13.5479636,20.8020433 14.5456455,28.9154539 17.8887697,33.7991812 C21.8318561,40.2322706 29.3389667,41.9437115 36.2102242,44.4973782 C39.0009561,45.5623555 41.8614758,47.1221145 43.2961152,48.8081327 C43.7516662,49.3435624 43.7472439,49.3112962 43.5385355,49.5527267 C43.2708918,49.8622217 42.5343733,49.4919827 42.2081506,49.4186485 C37.5115688,47.9538152 37.1500961,49.8997861 35.2602688,49.6702338 C33.8024855,49.4932076 35.4087959,48.0354171 37.5673991,47.5540232 C34.05244,45.2619186 32.0343597,45.1594444 29.8316264,44.8499565 C28.756537,44.9744994 26.7338991,46.1064944 26.0649324,45.849205 C25.3571053,45.5770323 26.7952839,44.781308 28.0674173,43.9093156 L21.8926142,41.1464989 C20.3671794,41.4467221 18.968787,42.4751747 17.2106309,42.4985323 C16.741457,41.2150762 19.2546324,40.5961005 20.1962703,39.7944656 C18.8627521,38.9399914 17.5139945,38.118702 16.5321218,36.5026141 L11.2394233,35.7972011 L15.5820809,35.0918236 L11.5828082,25.6797176 C10.7444279,24.9136176 6.41074303,23.1405782 7.45606576,22.4359342 C7.94466636,22.1065141 11.1007733,24.172513 11.4033536,23.5922767 C11.7887536,20.5466767 10.9533998,17.5836115 9.6870703,14.9656403 L9.68637242,14.9663667 Z" id="Path" fill="#1A3668"></path>
                    <path d="M84.8436452,14.6031848 C84.8880103,14.3583148 84.7844679,14.1139505 84.330747,14.2875015 C81.0992121,20.4959167 80.2639652,28.6225015 77.0193985,33.5567894 C73.2054909,40.0481303 65.7337015,41.8722288 58.9151409,44.5284409 C56.1461288,45.6351485 53.3171561,47.2374924 51.9164848,48.9450167 C51.4717153,49.4871261 51.4754824,49.4548171 51.6889977,49.6931 C51.9627941,49.9985929 52.6918068,49.6169315 53.0164629,49.539118 C57.6830644,48.0039983 58.0833477,49.9442438 59.968475,49.6863847 C61.4224841,49.4874821 59.7872971,48.0540605 57.619472,47.6051392 C61.0882144,45.2605514 63.1037311,45.1278832 65.2996992,44.7853529 C66.3770674,44.8937805 68.4222083,45.995318 69.0859053,45.7280589 C69.7881921,45.4452898 68.3343326,44.6712711 67.0448947,43.8185059 L73.1635114,40.9634695 C74.6947144,41.2407624 76.1135447,42.2481362 77.8718432,42.2450741 C78.3152811,40.9548529 75.7901705,40.3736195 74.8325811,39.5862983 C76.1487947,38.7119559 77.4809598,37.8705847 78.4304311,36.2399695 L83.7860811,34.9833605 L79.3520583,34.8150791 L83.1626189,25.3445791 C83.9855462,24.566017 88.9834265,23.2000261 87.9242174,22.51112 C87.429108,22.1890988 83.6146023,23.8303245 83.3004856,23.2547882 C82.854242,20.2153124 83.6302191,17.2401412 84.8440083,14.6032276 L84.8436452,14.6031848 Z" id="Path" fill="#1A3668"></path>
                    <path d="M46.9730391,37.8468212 C46.8090874,45.7834121 46.77487,61.1880182 47.1181979,68.6546091 C47.1423388,69.1781036 48.0399676,69.465003 48.9326827,68.6546091 C49.3049441,67.7524939 48.8752145,67.3715803 48.4972135,66.9569833 C47.9333773,65.5882152 48.3358753,65.0567591 48.4972135,64.3162955 L50.0214377,63.4359712 L48.7876165,62.1785076 C47.3370968,59.7965333 48.7673211,58.2465303 50.4569711,56.7713712 L49.0780195,55.7653576 C47.3373817,53.6335515 48.400835,52.1256348 50.0941453,50.7354318 L49.0054544,49.1635667 C48.312062,47.6409091 48.1887938,46.1388318 49.8038135,44.6994924 C49.9379629,44.4374959 50.0696056,44.1755564 49.7312341,43.9135955 C47.1607614,42.1742394 49.2723432,39.7099439 49.2231926,37.8461803 C49.1774032,37.1976871 46.9867047,37.1965406 46.9732456,37.8461803 L46.9730391,37.8468212 Z" id="Path" fill="#1A3668"></path>
                    <path d="M43.0634936,35.1051545 C41.8724709,34.9895417 41.4025421,34.2484727 42.5366236,34.0940848 C44.5982858,34.172817 45.9855691,34.8357591 47.3603903,35.5095682 C47.7234724,35.644743 48.0865403,35.6906392 48.4496509,35.5095682 C49.96711,35.0272556 51.43586,33.9943879 53.0100752,34.1512682 C53.6887979,34.3477282 53.76471,35.03145 53.0638403,35.0016121 C50.1276933,35.7548939 49.5745176,36.1080348 48.7200433,36.5880758 C47.8580918,36.8874017 47.5954615,36.6772547 47.0491221,36.5880758 C45.4244888,35.7287591 44.5579085,35.5701697 43.0634509,35.105297 L43.0634936,35.1051545 Z" id="Path" fill="#1A3668"></path>
                    <path d="M42.5863724,33.4245485 L44.1805982,31.7100455 L45.3900648,31.6859045 C45.0465589,30.4554303 44.3818436,29.9244015 43.8507436,29.2331455 C42.235083,30.039053 42.1623755,31.6087106 42.5863012,33.4242636 L42.5863724,33.4245485 Z" id="Path" fill="#1A3668"></path>
                    <path d="M47.6210694,33.8518212 L49.5334709,31.8261924 L50.9842755,31.7976364 C50.5722136,30.3439121 49.7748088,29.7164621 49.1378164,28.9000152 C47.1997785,29.85205 47.1124724,31.7064848 47.6210694,33.8513939 L47.6210694,33.8518212 Z" id="Path" fill="#1A3668"></path>
                    <path d="M53.1684936,33.6168212 L55.0808952,31.5912636 L56.5316997,31.5627076 C56.119645,30.1089833 55.322233,29.4815333 54.6852406,28.6650152 C52.7472027,29.6171212 52.6598967,31.4715561 53.1684936,33.6163939 L53.1684936,33.6168212 Z" id="Path" fill="#1A3668"></path>
                    <path d="M56.9427361,29.949397 L59.0825179,28.102297 L60.5291209,28.2018515 C60.2894636,26.7193576 59.56968,26.0251818 59.03153,25.1568924 C56.9918724,25.9336742 56.6878679,27.7708758 56.9427361,29.949397 L56.9427361,29.949397 Z" id="Path" fill="#1A3668"></path>
                    <path d="M61.2581906,26.7662152 L62.0007906,24.5968091 L63.0623497,24.1967892 C62.2780906,23.1033271 61.4823664,22.792415 60.7425436,22.283462 C59.6265073,23.5730423 60.1744917,25.1271044 61.2582761,26.766265 L61.2581906,26.7662152 Z" id="Path" fill="#1A3668"></path>
                    <path d="M58.31713,23.5118639 L59.2097739,21.3852848 L60.2973255,21.0415867 C59.5908086,19.9091003 58.8182497,19.5568852 58.1151724,19.0102609 C56.9111891,20.2389548 57.3497845,21.8189382 58.3172012,23.5118639 L58.31713,23.5118639 Z" id="Path" fill="#1A3668"></path>
                    <path d="M55.3475845,26.7163667 L56.8035876,24.8376485 L57.9545891,24.7302321 C57.5826695,23.4838064 56.9302739,22.9813336 56.3993164,22.3043912 C54.8899755,23.2468124 54.8777982,24.8717306 55.3476558,26.7163667 L55.3475845,26.7163667 Z" id="Path" fill="#1A3668"></path>
                    <path d="M51.8012209,29.7571242 L53.5145845,28.0491727 L54.6720664,28.0664773 C54.4812108,26.7897864 53.9056815,26.2211576 53.4756315,25.4924439 C51.8431648,26.2655939 51.5986224,27.876697 51.8010785,29.7574803 L51.8012209,29.7571242 Z" id="Path" fill="#1A3668"></path>
                    <path d="M46.1398573,30.4336394 L47.8156209,28.2994833 L49.1387421,28.1747624 C48.7126515,26.7623412 47.9633148,26.1942109 47.3538103,25.4278973 C45.6178012,26.500423 45.6019209,28.3428942 46.1398573,30.4336394 L46.1398573,30.4336394 Z" id="Path" fill="#1A3668"></path>
                    <path d="M44.3880391,28.0622758 L45.1877512,25.5759758 L46.3952952,25.0910853 C45.4701073,23.871008 44.5504027,23.5402989 43.6898755,22.9832065 C42.4410285,24.4804414 43.1063562,26.2304792 44.3879892,28.0621974 L44.3880391,28.0622758 Z" id="Path" fill="#1A3668"></path>
                    <path d="M42.0095542,24.9930333 L42.4015983,23.0344152 L43.3353317,22.5640377 C42.453512,21.7136938 41.6690392,21.5395089 40.9094195,21.1880059 C40.0478241,22.4320105 40.7731908,23.7073483 42.0095044,24.9929408 L42.0095542,24.9930333 Z" id="Path" fill="#1A3668"></path>
                    <path d="M39.4459179,22.9990939 L39.8061729,21.4157636 L40.5511941,21.0519053 C39.8824909,20.3439286 39.2719395,20.1871053 38.6855789,19.8868038 C37.9762991,20.8804977 38.5108529,21.9307341 39.4459108,22.9991295 L39.4459179,22.9990939 Z" id="Path" fill="#1A3668"></path>
                    <path d="M37.3095542,21.8454576 L37.3831377,20.2328591 L38.0543476,19.773662 C37.2673824,19.1636661 36.6362294,19.0904386 36.0033673,18.8721877 C35.4797944,19.9488438 36.1952127,20.9148362 37.30954,21.845365 L37.3095542,21.8454576 Z" id="Path" fill="#1A3668"></path>
                    <path d="M40.8131906,30.8181848 L42.1945633,28.9701591 L43.3947012,28.8382315 C42.9063427,27.6450724 42.1818164,27.1763542 41.5712436,26.5362997 C40.0603361,27.4824239 40.1749876,29.0501588 40.8131906,30.8180709 L40.8131906,30.8181848 Z" id="Path" fill="#1A3668"></path>
                    <path d="M38.9403118,28.2830333 L39.8964058,26.4622818 L40.9927876,26.1903868 C40.321827,25.1927762 39.5610679,24.8694732 38.8757936,24.3793202 C37.636133,25.414958 38.0259482,26.7937671 38.9403118,28.2830333 L38.9403118,28.2830333 Z" id="Path" fill="#1A3668"></path>
                    <path d="M36.4977361,25.9686394 L37.0319124,24.3542606 L37.9444245,23.9867633 C37.1937064,23.2603997 36.4759594,23.0970391 35.7965958,22.7873376 C34.8851518,23.7978376 35.4532536,24.8728558 36.4977645,25.9685967 L36.4977361,25.9686394 Z" id="Path" fill="#1A3668"></path>
                    <path d="M34.1263724,24.3592455 L34.5255235,22.9860621 L35.2073653,22.6734836 C34.6464132,22.0556259 34.1101289,21.9167124 33.6024577,21.6532276 C32.9214135,22.5127579 33.3459161,23.4271927 34.1263938,24.3592882 L34.1263724,24.3592455 Z" id="Path" fill="#1A3668"></path>
                    <path d="M32.837433,26.8730476 L32.9769447,25.5910727 L33.5920323,25.2246294 C32.9238703,24.741448 32.3688217,24.6845638 31.8188505,24.512437 C31.3059167,25.3694036 31.8943567,26.1356461 32.8373974,26.8730476 L32.837433,26.8730476 Z" id="Path" fill="#1A3668"></path>
                    <path d="M34.8456148,28.6747 L34.9890289,27.2896242 L35.6213071,26.8936136 C34.9344876,26.3715647 34.3639147,26.3100802 33.7985617,26.1240955 C33.2712715,27.0499955 33.8761686,27.87805 34.8455935,28.6747712 L34.8456148,28.6747 Z" id="Path" fill="#1A3668"></path>
                    <path d="M36.6187967,30.6401545 L37.0690495,29.0546167 L37.8449768,28.7012194 C37.2037544,27.97863 36.5922132,27.8109255 36.0128314,27.4993724 C35.2396814,28.4864436 35.7263877,29.5508512 36.6187895,30.6400406 L36.6187967,30.6401545 Z" id="Path" fill="#1A3668"></path>
                    <path d="M38.7195542,33.1610636 L39.2255021,31.3596818 L40.0973521,30.9580597 C39.3768279,30.1371264 38.6895597,29.9465627 38.0386809,29.5926385 C37.169893,30.714087 37.7168021,31.9234112 38.7195827,33.1610067 L38.7195542,33.1610636 Z" id="Path" fill="#1A3668"></path>
                    <path d="M53.0901603,23.9106091 L54.3147239,21.9118273 L55.446783,21.7021147 C54.9284656,20.4956389 54.219727,20.0541238 53.6110058,19.4281692 C52.2218709,20.5004102 52.403177,22.1177086 53.0901461,23.910545 L53.0901603,23.9106091 Z" id="Path" fill="#1A3668"></path>
                    <path d="M50.09213,26.9869727 L51.3368467,25.2075955 L52.3733391,25.0746353 C51.9896482,23.9332474 51.3807133,23.4876732 50.8748936,22.8774565 C49.5462179,23.7927459 49.5970633,25.2953217 50.09213,26.9870368 L50.09213,26.9869727 Z" id="Path" fill="#1A3668"></path>
                    <path d="M48.5610694,24.9075859 L49.1661944,22.8941273 L50.115452,22.5098738 C49.370858,21.5112662 48.6402929,21.2353192 47.9540217,20.7757874 C46.9831868,21.982192 47.5280521,23.4093541 48.5609911,24.9075859 L48.5610694,24.9075859 Z" id="Path" fill="#1A3668"></path>
                    <path d="M45.6484936,23.1628818 L46.0427168,21.1104773 L46.9483214,20.6540076 C46.1033895,19.7172833 45.3470456,19.4992318 44.6161244,19.0948894 C43.7740411,20.3718652 44.4645352,21.7508879 45.6484153,23.1628106 L45.6484936,23.1628818 Z" id="Path" fill="#1A3668"></path>
                    <path d="M42.7359179,20.8342455 L43.0981597,19.1654606 L43.9302733,18.794303 C43.1538476,18.0326894 42.4590309,17.8553712 41.7873582,17.5265848 C41.0136385,18.5647864 41.6480673,19.6861636 42.7359036,20.8343167 L42.7359179,20.8342455 Z" id="Path" fill="#1A3668"></path>
                    <path d="M40.2150088,19.2319727 L40.2885852,17.6193742 L40.9598021,17.1601202 C40.1729082,16.5501883 39.5416839,16.4769324 38.9088218,16.2587171 C38.3852418,17.3353732 39.1006602,18.3013656 40.2149945,19.2318944 L40.2150088,19.2319727 Z" id="Path" fill="#1A3668"></path>
                    <path d="M42.0309179,15.7354576 L41.8126314,14.3405545 L42.3276018,13.8546956 C41.5219079,13.4382115 40.9487927,13.461448 40.3487594,13.3603553 C40.0734106,14.356328 40.8782856,15.0883886 42.0310033,15.7352795 L42.0309179,15.7354576 Z" id="Path" fill="#1A3668"></path>
                    <path d="M45.0787967,17.34488 L45.2320523,15.651997 L46.0133917,15.2055967 C45.147025,14.5205859 44.4342629,14.4090179 43.7256311,14.1446073 C43.085078,15.2488224 43.8548668,16.3046845 45.0787326,17.34488 L45.0787967,17.34488 Z" id="Path" fill="#1A3668"></path>
                    <path d="M48.1551603,19.3459121 L48.308423,17.351403 L49.0897624,16.8253876 C48.2233958,16.0184118 47.5106336,15.8868118 46.8020018,15.5754724 C46.1614488,16.8764467 46.9312305,18.1204512 48.1551033,19.3460118 L48.1551603,19.3459121 Z" id="Path" fill="#1A3668"></path>
                    <path d="M51.2172815,21.2615182 L51.6603989,19.2998379 L52.5122383,18.8636636 C51.7706353,17.9681712 51.0827262,17.7595909 50.4253671,17.3731227 C49.6000898,18.5934136 50.1821136,19.9116924 51.2173171,21.2615182 L51.2172815,21.2615182 Z" id="Path" fill="#1A3668"></path>
                    <path d="M56.0525845,20.314397 L56.4564783,18.5446333 L57.2329041,18.1510653 C56.5569729,17.3430926 55.9299359,17.1550214 55.3308283,16.8062956 C54.5786147,17.9073062 55.1091236,19.0966198 56.0526344,20.3144895 L56.0525845,20.314397 Z" id="Path" fill="#1A3668"></path>
                    <path d="M53.4604633,17.8789424 L53.5768809,16.3556439 L54.2505048,15.9484744 C53.4920245,15.3387776 52.8724079,15.2436453 52.2549988,15.011038 C51.7099697,16.0086486 52.3882936,16.9525653 53.4604776,17.879035 L53.4604633,17.8789424 Z" id="Path" fill="#1A3668"></path>
                    <path d="M50.3769785,16.0274273 L50.4875638,14.6808061 L51.1274047,14.3209071 C50.4069517,13.7819453 49.8183835,13.6978082 49.2319517,13.4922829 C48.7142538,14.3741738 49.3585668,15.208495 50.3770426,16.0275056 L50.3769785,16.0274273 Z" id="Path" fill="#1A3668"></path>
                    <path d="M47.5000088,14.2186465 L47.5814042,13.3769121 L48.0523656,13.1518676 C47.5220774,12.8150129 47.0888656,12.7624014 46.6571777,12.633892 C46.2761145,13.1852091 46.7503588,13.7066314 47.4999732,14.2186465 L47.5000088,14.2186465 Z" id="Path" fill="#1A3668"></path>
                    <path d="M55.0200088,34.4998515 C55.3506752,34.1045174 55.6593797,33.6762121 56.4280861,33.6586227 C56.5820253,33.409772 56.4161936,33.3414297 56.2356282,33.2814905 C55.3859252,33.242395 54.3866767,34.4190329 55.0199661,34.4999298 L55.0200088,34.4998515 Z" id="Path" fill="#1A3668"></path>
                    <path d="M60.3110694,30.5333364 C59.8819167,30.849803 59.4650694,31.2026876 58.7133542,31.0624567 C58.4958867,31.2727033 58.6384035,31.3730056 58.7974558,31.4683088 C59.6124785,31.6799868 60.9043376,30.7415891 60.3111406,30.5333648 L60.3110694,30.5333364 Z" id="Path" fill="#1A3668"></path>
                    <path d="M62.2053118,28.9809121 C62.4719585,28.6185706 62.7209161,28.2260636 63.3408603,28.2098985 C63.4649902,27.9818132 63.3312467,27.9192177 63.1856535,27.8641779 C62.5004291,27.8285718 61.6946853,28.9067945 62.2053474,28.9809264 L62.2053118,28.9809121 Z" id="Path" fill="#1A3668"></path>
                    <path d="M64.526827,25.7265182 C64.7934736,25.3641695 65.0424241,24.9716697 65.6623755,24.9554333 C65.7865195,24.7273409 65.6527618,24.6647811 65.5071758,24.6097483 C64.8219514,24.5739286 64.0162076,25.652365 64.5268697,25.7264968 L64.526827,25.7265182 Z" id="Path" fill="#1A3668"></path>
                    <path d="M64.8757664,23.2839424 C65.0139748,22.8712183 65.1253791,22.4338833 65.7150012,22.267247 C65.7600785,22.0181114 65.6113662,21.9906377 65.4538023,21.9733545 C64.7847217,22.1062648 64.361622,23.3372091 64.875745,23.2839424 L64.8757664,23.2839424 Z" id="Path" fill="#1A3668"></path>
                    <path d="M63.4159179,20.0366697 C63.5828248,19.7828198 63.5555862,19.5243127 63.7016992,19.2697864 C63.6251747,19.117485 63.4765336,19.1347611 63.3245812,19.159842 C62.7767748,19.3841744 62.9719673,20.1812374 63.4159179,20.0366768 L63.4159179,20.0366697 Z" id="Path" fill="#1A3668"></path>
                    <path d="M60.6600088,17.3163667 C60.8269158,17.0191059 60.7996771,16.7165256 60.9457973,16.4185242 C60.8692656,16.2402305 60.7206317,16.2604476 60.5686792,16.2898297 C60.0208658,16.5524386 60.2160582,17.4854812 60.6600017,17.3163524 L60.6600088,17.3163667 Z" id="Path" fill="#1A3668"></path>
                    <path d="M58.3384936,14.204397 C58.5054006,13.8349983 58.4781548,13.4588061 58.624275,13.0884318 C58.5477505,12.8668339 58.3991023,12.8919148 58.247157,12.9284395 C57.6993506,13.2548617 57.894543,14.4147077 58.3384936,14.2044183 L58.3384936,14.204397 Z" id="Path" fill="#1A3668"></path>
                    <path d="M51.8937967,12.8798515 C52.1568471,13.20465 52.533723,13.392942 52.8092285,13.7032773 C53.064702,13.7704303 53.1226971,13.6497258 53.1716127,13.5195215 C53.1605036,12.9435579 51.9370082,12.4432215 51.8938536,12.8798658 L51.8937967,12.8798515 Z" id="Path" fill="#1A3668"></path>
                    <path d="M54.4716755,14.1331848 C54.7347188,14.4579905 54.9353945,14.7480517 55.2108573,15.0583015 C57.3972118,14.9528933 54.5932844,13.4933439 54.4716755,14.1331848 Z" id="Path" fill="#1A3668"></path>
                    <path d="M57.0139482,15.8137909 C57.2561335,16.247957 57.4277048,16.6287424 57.6905915,17.0485379 C60.5757506,17.382188 57.3716182,15.0918424 57.0139482,15.8137909 Z" id="Path" fill="#1A3668"></path>
                    <path d="M59.7769785,17.6581848 C60.2082889,17.7241985 60.5662224,19.160547 60.2354136,19.5359061 C59.8114594,19.90544 59.6843814,19.5480121 59.6955118,18.7466621 C59.55088,18.2522008 58.7802936,17.6613182 59.7769714,17.6581848 L59.7769785,17.6581848 Z" id="Path" fill="#1A3668"></path>
                    <path d="M61.706827,19.9512152 C61.3688115,20.2137956 61.4348821,20.5229061 61.372778,20.8917136 C61.6568147,21.3121714 61.9299986,21.3758564 62.2437023,22.7727818 C62.3948144,22.8327424 62.5459336,22.8597603 62.6970529,22.7833924 C62.8894965,22.3562123 62.9175612,21.9289894 63.4605892,21.5017879 C63.0691718,20.7052091 62.1799105,20.1837939 61.7069195,19.9515712 L61.706827,19.9512152 Z" id="Path" fill="#1A3668"></path>
                    <path d="M36.7968198,15.1372758 C37.0598703,15.7325664 37.4367462,16.0779879 37.7121876,16.6467591 C37.9676682,16.7701127 38.0256562,16.5479665 38.0745789,16.3098261 C38.0634698,15.2539639 36.8399744,14.3365382 36.7968198,15.1372473 L36.7968198,15.1372758 Z" id="Path" fill="#1A3668"></path>
                    <path d="M34.5892512,17.3590939 C34.8523017,17.9545127 35.2291918,18.2997348 35.504683,18.8685773 C35.7601636,18.991995 35.8181588,18.7697847 35.8670815,18.5317724 C35.8559724,17.4758391 34.632477,16.5584845 34.5893224,17.3591224 L34.5892512,17.3590939 Z" id="Path" fill="#1A3668"></path>
                    <path d="M32.23213,19.0468212 C32.6315374,19.5822367 32.730743,20.0496303 33.0981406,20.5780242 C33.0622497,20.8295312 32.8210115,20.7389209 32.5703092,20.6322879 C31.5931365,20.0011705 31.4606108,18.6040242 32.2321585,19.0465364 L32.23213,19.0468212 Z" id="Path" fill="#1A3668"></path>
                    <path d="M30.2453118,21.9309121 C30.7079271,22.3202715 30.9026211,22.7063409 31.3367088,23.0955864 C31.3666179,23.3198476 31.1427412,23.2859577 30.9071644,23.2402894 C29.9372553,22.8748217 29.4928205,21.6905712 30.2453189,21.9308409 L30.2453118,21.9309121 Z" id="Path" fill="#1A3668"></path>
                    <path d="M30.4090997,25.4772758 C29.8324952,25.2267586 29.5125391,24.9094659 28.9632088,24.6516424 C28.8566541,24.4456614 29.0819336,24.4194695 29.3224383,24.4015455 C30.3743838,24.4967205 31.2102005,25.5098909 30.4091353,25.4772758 L30.4090997,25.4772758 Z" id="Path" fill="#1A3668"></path>
                    <path d="M30.686827,27.4783364 C31.3000345,27.6517308 31.6709073,27.9241812 32.2584073,28.1083358 C32.3991367,28.2982941 32.1808786,28.3532271 31.9461421,28.4019576 C30.8895679,28.4432606 29.8889664,27.5492636 30.6867558,27.4783364 L30.686827,27.4783364 Z" id="Path" fill="#1A3668"></path>
                    <path d="M32.9442512,31.0033364 C33.4928765,30.8917327 34.0498194,30.742757 34.644583,31.165052 C34.9489223,31.0640945 34.8750824,30.9184942 34.7838383,30.7707647 C34.1704812,30.2598248 32.5264853,30.5832917 32.9442868,31.0033364 L32.9442512,31.0033364 Z" id="Path" fill="#1A3668"></path>
                    <path d="M36.6757664,33.8660636 C37.2779645,33.7373121 37.8892921,33.5654417 38.5420936,34.0526394 C38.8761568,33.9362005 38.7951103,33.7681185 38.6949433,33.597715 C38.0216897,33.0083208 36.2170464,33.381458 36.6757948,33.8660636 L36.6757664,33.8660636 Z" id="Path" fill="#1A3668"></path>
                    <path d="M27.2544027,5.78712424 C31.1499906,9.54313636 32.705833,9.49905606 34.8591452,10.4256682 C32.768927,6.11334697 29.0933133,5.83647424 27.2544027,5.78712424 Z" id="Path" fill="#A6B4C9"></path>
                    <path d="M35.1090997,7.57454848 C34.7539862,6.49682424 32.9221755,0.867007576 32.4475467,3.65047576 C28.95388,2.09285303 33.9355952,7.85597879 35.1090997,7.57454848 Z" id="Path" fill="#A6B4C9"></path>
                    <path d="M39.1966755,8.52879091 C37.6971618,4.05816515 36.5100558,3.60945758 35.2431921,2.1332303 C35.172977,6.52032424 37.8323224,7.91031364 39.1966755,8.52879091 Z" id="Path" fill="#A6B4C9"></path>
                    <path d="M40.92713,6.59894242 C42.2007588,4.84933182 38.7402058,-1.35189091 38.1685861,1.70054545 C36.8883345,1.64108333 36.4243164,2.73988636 37.2749452,2.83516818 C39.6574179,3.102 40.171427,6.78231364 40.9270588,6.59894242 L40.92713,6.59894242 Z" id="Path" fill="#A6B4C9"></path>
                    <path d="M47.4430391,6.69151818 C47.8295714,5.32574091 49.8744345,-1.79696667 47.3548144,0.981872727 C44.655875,-2.59625152 45.9581311,6.36679091 47.4430391,6.69151818 Z" id="Path" fill="#A6B4C9"></path>
                    <path d="M42.0237967,0.332275758 C42.5012455,5.63636818 43.7888603,6.46029242 44.8692906,8.42838182 C46.2443967,3.65709848 43.4733906,1.39112879 42.0237967,0.332275758 Z" id="Path" fill="#A6B4C9"></path>
                    <path d="M49.8856148,8.17985152 C52.0023239,3.4750803 51.4136133,2.37634848 51.5161588,0.356487879 C48.2476648,4.04135909 49.2842997,6.82995455 49.8856148,8.17985152 Z" id="Path" fill="#A6B4C9"></path>
                    <path d="M53.0972815,7.01909394 C54.0378512,5.95497121 58.9696467,0.414383333 55.4459997,2.04706364 C54.4616345,-1.88028485 51.855983,6.28190606 53.0972815,7.01909394 Z" id="Path" fill="#A6B4C9"></path>
                    <path d="M55.3689482,8.92757879 C59.3892285,4.99496061 59.2446679,3.75857576 60.1640164,1.83335606 C55.4038421,4.44057424 55.3133315,7.44408788 55.3689482,8.92757879 Z" id="Path" fill="#A6B4C9"></path>
                    <path d="M59.356827,7.76682121 C61.6744255,7.79715758 65.859633,2.33476061 62.6502452,3.43477424 C62.0605376,2.51165152 60.7743755,2.72749545 61.1129891,3.36840455 C62.0613921,5.16287879 58.7994497,7.32950758 59.3566133,7.76703485 L59.356827,7.76682121 Z" id="Path" fill="#A6B4C9"></path>
                    <path d="M67.2115239,4.98954848 C61.7980497,6.8614303 61.3091785,8.14175303 59.5619179,9.57325909 C64.9552391,9.36123924 66.5231164,6.46791212 67.2115239,4.98954848 Z" id="Path" fill="#A6B4C9"></path>
                </g>
            </g>
        </g>
    </g>
</svg>