<?xml version="1.0" encoding="UTF-8"?>
<svg id="Layer_1" data-name="Layer 1" xmlns="http://www.w3.org/2000/svg" viewBox="0 0 160.11 175.07">
  <defs>
    <style>
      .cls-1 {
        fill: #fff;
      }

      .cls-2 {
        fill: none;
      }

      .cls-3 {
        fill: #c02326;
      }

      .cls-4 {
        fill: #d0d9da;
      }

      .cls-5 {
        fill: #3d5039;
      }

      .cls-6 {
        fill: #010101;
      }

      .cls-7 {
        fill: #ea743d;
      }
    </style>
  </defs>
  <path class="cls-4" d="M124.34,104.98c10.6-20.13,16.81-46.79,18.46-79.25-9.68-3.15-20.45-6.36-30.87-9.46-10.74-3.2-21.85-6.51-31.78-9.76-.03,0-.06.02-.09.03v137.34h.48c18.46-5.68,33.2-18.76,43.8-38.9Z"/>
  <path class="cls-1" d="M35.52,104.98c-10.6-20.13-16.81-46.79-18.46-79.25,9.68-3.15,20.45-6.36,30.87-9.46,10.74-3.2,21.85-6.51,31.78-9.76.03,0,.06.02.09.03v137.34h-.48c-18.46-5.68-33.2-18.76-43.8-38.9Z"/>
  <path class="cls-2" d="M144.54,23.58c-9.95-3.26-21.1-6.58-31.88-9.79-10.76-3.2-21.89-6.52-31.81-9.77l-.8-.16-.09-.02-.31.1c-9.92,3.25-21.15,6.58-32.01,9.8-10.88,3.23-22.13,6.56-32.09,9.83l-.94.31.05.99c1.59,33.28,7.92,60.64,18.8,81.32,10.97,20.84,26.29,34.37,45.52,40.23l.18.06h1.75l.18-.06c19.24-5.85,34.55-19.39,45.52-40.23,10.88-20.67,17.21-48.03,18.8-81.32l.05-.99-.94-.31Z"/>
  <path class="cls-6" d="M80.06,0L10.06,20.73c3.02,66.76,22.11,114.58,68.66,130.05h2.69c46.55-15.47,65.64-63.29,68.66-130.05L80.06,0ZM126.63,106.19c-10.97,20.84-26.29,34.37-45.52,40.23l-.18.06h-1.75l-.18-.06c-19.24-5.85-34.55-19.39-45.52-40.23-10.88-20.67-17.21-48.03-18.8-81.32l-.05-.99.94-.31c9.95-3.26,21.21-6.6,32.09-9.83,10.86-3.22,22.09-6.55,32.01-9.8l.31-.1.09.02.8.16c9.92,3.25,21.05,6.56,31.81,9.77,10.78,3.21,21.92,6.53,31.88,9.79l.94.31-.05.99c-1.59,33.28-7.92,60.64-18.8,81.32Z"/>
  <path class="cls-2" d="M80.15,6.51s-.06.02-.09.03c-9.85,3.22-20.95,6.51-31.68,9.69-10.52,3.12-21.39,6.34-31.08,9.5,1.65,32.46,7.86,59.12,18.46,79.25,10.6,20.14,25.34,33.22,43.8,38.9h.98c18.46-5.68,33.2-18.76,43.8-38.9,10.6-20.13,16.81-46.79,18.46-79.25-9.68-3.15-20.45-6.36-30.87-9.46-10.74-3.2-21.85-6.51-31.78-9.76Z"/>
  <path class="cls-3" d="M144.54,23.58c-9.95-3.26-21.1-6.58-31.88-9.79-10.76-3.2-21.89-6.52-31.81-9.77l-.8-.16-.09-.02-.31.1c-9.92,3.25-21.15,6.58-32.01,9.8-10.88,3.23-22.13,6.56-32.09,9.83l-.94.31.05.99c1.59,33.28,7.92,60.64,18.8,81.32,10.97,20.84,26.29,34.37,45.52,40.23l.18.06h1.75l.18-.06c19.24-5.85,34.55-19.39,45.52-40.23,10.88-20.67,17.21-48.03,18.8-81.32l.05-.99-.94-.31ZM124.34,104.98c-10.6,20.14-25.34,33.22-43.8,38.9h-.98c-18.46-5.68-33.2-18.76-43.8-38.9-10.6-20.13-16.81-46.79-18.46-79.25,9.69-3.15,20.55-6.38,31.08-9.5,10.73-3.18,21.82-6.47,31.68-9.69.03,0,.06-.02.09-.03,9.93,3.25,21.04,6.56,31.78,9.76,10.42,3.1,21.19,6.31,30.87,9.46-1.65,32.46-7.86,59.12-18.46,79.25Z"/>
  <path class="cls-6" d="M80.82,143.63h-1.54l-.1-.03c-18.47-5.62-33.18-18.63-43.72-38.66-10.49-19.93-16.59-46.33-18.13-78.45l-.03-.55.52-.17c9.62-3.15,20.42-6.46,30.86-9.66,10.44-3.2,21.23-6.5,30.83-9.65l.11-.04h.55s.11.04.11.04c9.61,3.15,20.47,6.45,30.98,9.65,10.52,3.2,21.39,6.51,31.01,9.66l.52.17-.03.55c-1.54,32.12-7.63,58.52-18.13,78.45-10.54,20.03-25.26,33.04-43.72,38.66l-.1.03ZM79.5,142.19h1.11c18.04-5.52,32.43-18.28,42.77-37.92,10.33-19.63,16.37-45.64,17.94-77.3-9.48-3.1-20.14-6.34-30.46-9.48-10.48-3.19-21.31-6.48-30.9-9.62h-.09c-9.59,3.14-20.35,6.44-30.75,9.62-10.25,3.14-20.84,6.38-30.31,9.48,1.57,31.66,7.6,57.67,17.94,77.3,10.34,19.64,24.73,32.4,42.77,37.92Z"/>
  <path class="cls-7" d="M109.24,51.25h-23.36v-20.16c0-1.64-1.33-2.96-2.96-2.96h-5.16c-1.64,0-2.96,1.33-2.96,2.96v20.16h-23.36c-1.4,0-2.53,1.13-2.53,2.53v6.02c0,1.4,1.13,2.53,2.53,2.53h23.36v56.84c0,1.64,1.33,2.96,2.96,2.96h5.16c1.64,0,2.96-1.33,2.96-2.96v-56.84h23.36c1.4,0,2.53-1.13,2.53-2.53v-6.02c0-1.4-1.13-2.53-2.53-2.53Z"/>
  <path class="cls-5" d="M73.22,74.93c.67.36,1.13,1.69,2.08,1.82l61.82,17.12c1.06.3.98-1.74,2.16-1.37s.6,1.9,1.08,2.23c1.04.71,3.42.09,3.09,2.25-.39,2.55-1.95,5.62-2.24,8.12-.1.89.69,1.89.26,2.73-.9,1.77-2.55.81-4.06.92-4.69.32-5.1,5.67-4.52,9.35,1.19,7.47,3.38,15.02,4.62,22.51.07,1.16-.01,2.49-1.02,3.26-.7.54-3.93.78-4.46,1.27s.06.87.08,1.24c.02.48-.24,1.25-.8,1.26l-18.28-3.23c-.27-.71.49-1.23.47-1.9,0-.34-.62-.85-.81-1.26-.42-.89-.25-1.53.03-2.44-.76-6.34-1.35-12.85-2.49-19.15-.39-2.15-.79-4.34-3.39-4.63-1.07-.12-2.21,1.02-3.43.5-5.31-1.82-11.38-2.7-16.61-4.6-3.16-1.14-.63-1.6.01-3.02.49-1.08,1.57-4.52,1.77-5.7.23-1.32-.11-3.01-.71-4.16l-22.65-6.87c-.72-.99.41-2.83.51-4.01.04-.51-.34-.49-.29-.83.21-1.4.77-1.27,1.08-1.9.1-.2.54-1.7.5-1.78-.06-.1-.82-.12-.99-.3-.25-.27,1.19-5.44,1.53-5.54.24-.07.9.31,1,.25s.23-1.49.71-1.77c.52-.3,2.09.47,2.22.39.09-.05.24-1.14.33-1.19.06-.04,1.21.33,1.39.43ZM108.46,110.08c.09-.33.53-4.25-.44-3.68-.56,2.05-1.91,3.78-3.86,4.66-.42.19-2.4.9-2.66.46.4-1.01,1.5-1.55,2.09-2.48,1.33-2.11.79-5.09-.49-7.07-2.54-.62-5.2-1.68-7.75-2.19-3.08-.62-3.98.61-4.83,3.31-.66,2.08-1.97,5.7.42,7.06l12.76,3.6c1.09.15,1.83-.38,2.65-1,.78-.58,1.84-1.68,2.12-2.68Z"/>
  <g>
    <path class="cls-6" d="M9,170c-.53.25-1.05.44-1.55.55s-1.05.17-1.63.17c-1.6,0-2.86-.47-3.77-1.4-.91-.93-1.36-2.22-1.36-3.85s.5-2.99,1.51-4.02,2.32-1.55,3.94-1.55c.53,0,1.02.04,1.46.13.44.09.89.23,1.35.42l-.58,1.45c-.37-.16-.72-.27-1.07-.34-.35-.07-.72-.11-1.13-.11-1.05,0-1.91.35-2.58,1.05-.68.7-1.01,1.65-1.01,2.84s.31,2.1.93,2.78,1.46,1.02,2.51,1.02c.35,0,.72-.05,1.11-.14.39-.09.79-.24,1.2-.45l.69,1.44Z"/>
    <path class="cls-6" d="M14.77,170.72c-1.49,0-2.7-.49-3.61-1.46-.92-.97-1.38-2.25-1.38-3.81,0-1.67.47-3.01,1.4-4.02.93-1.01,2.19-1.52,3.76-1.52,1.47,0,2.65.49,3.56,1.46.9.98,1.35,2.26,1.35,3.84,0,1.68-.46,3.02-1.39,4.01-.93,1-2.16,1.5-3.68,1.5ZM14.79,169.16c.99,0,1.77-.33,2.33-1,.57-.67.85-1.6.85-2.81s-.28-2.19-.83-2.87c-.55-.68-1.32-1.02-2.28-1.02s-1.75.35-2.33,1.06c-.59.71-.88,1.64-.88,2.8s.29,2.1.87,2.79c.58.7,1.34,1.04,2.28,1.04Z"/>
    <path class="cls-6" d="M29.83,170.54h-2.04l-1.6-2.78c-.28-.49-.54-.82-.77-1.01-.23-.19-.51-.29-.82-.3h-.93v4.08h-1.77v-10.46h3.41c1.09,0,1.94.24,2.56.73s.93,1.21.93,2.17c0,.72-.2,1.33-.59,1.83-.4.5-.94.87-1.63,1.1v.03c.26.11.5.28.72.51.22.23.42.51.61.83l1.93,3.25ZM23.67,161.52v3.49h1.35c.56,0,1.02-.18,1.38-.53s.54-.79.54-1.33-.16-.92-.47-1.2c-.32-.29-.78-.43-1.4-.43h-1.39Z"/>
    <path class="cls-6" d="M39.29,170.54h-2.04l-1.6-2.78c-.28-.49-.54-.82-.77-1.01-.23-.19-.51-.29-.82-.3h-.93v4.08h-1.77v-10.46h3.41c1.09,0,1.94.24,2.56.73s.93,1.21.93,2.17c0,.72-.2,1.33-.59,1.83-.4.5-.94.87-1.63,1.1v.03c.26.11.5.28.72.51.22.23.42.51.61.83l1.93,3.25ZM33.12,161.52v3.49h1.35c.56,0,1.02-.18,1.38-.53s.54-.79.54-1.33-.16-.92-.47-1.2c-.32-.29-.78-.43-1.4-.43h-1.39Z"/>
    <path class="cls-6" d="M48.88,166.15c0,1.52-.35,2.66-1.04,3.42-.7.76-1.74,1.14-3.14,1.14s-2.35-.37-3.02-1.1c-.67-.73-1.01-1.84-1.01-3.32v-6.21h1.77v6.2c0,.96.2,1.68.59,2.16s.98.72,1.77.72,1.34-.23,1.73-.7c.38-.46.57-1.16.57-2.1v-6.29h1.77v6.08Z"/>
    <path class="cls-6" d="M53.24,166.9v3.64h-1.77v-10.46h3.28c1.22,0,2.14.28,2.78.84.64.56.96,1.38.96,2.46s-.36,1.89-1.08,2.55c-.72.65-1.68.98-2.9.98h-1.26ZM53.24,161.53v3.93h1.11c.74,0,1.31-.17,1.69-.51.38-.34.57-.84.57-1.49s-.18-1.13-.54-1.45-.91-.48-1.63-.48h-1.19Z"/>
    <path class="cls-6" d="M67.12,161.58h-3.01v8.96h-1.77v-8.96h-3v-1.5h7.78v1.5Z"/>
    <path class="cls-6" d="M70.59,170.54h-1.78v-10.46h1.78v10.46Z"/>
    <path class="cls-6" d="M77.63,170.72c-1.49,0-2.7-.49-3.61-1.46-.92-.97-1.38-2.25-1.38-3.81,0-1.67.47-3.01,1.4-4.02.93-1.01,2.19-1.52,3.76-1.52,1.47,0,2.65.49,3.56,1.46.9.98,1.35,2.26,1.35,3.84,0,1.68-.46,3.02-1.39,4.01-.93,1-2.16,1.5-3.68,1.5ZM77.65,169.16c.99,0,1.77-.33,2.33-1,.57-.67.85-1.6.85-2.81s-.28-2.19-.83-2.87c-.55-.68-1.32-1.02-2.28-1.02s-1.75.35-2.33,1.06c-.59.71-.88,1.64-.88,2.8s.29,2.1.87,2.79c.58.7,1.34,1.04,2.28,1.04Z"/>
    <path class="cls-6" d="M93.66,170.54h-1.93l-4.86-7.48c-.1-.15-.18-.29-.25-.42-.07-.13-.13-.24-.18-.34h-.04c.02.15.03.35.04.61s.01.57.01.95v6.68h-1.71v-10.46h2.06l4.71,7.31c.1.16.19.3.27.43.08.13.14.25.19.35h.03c-.02-.14-.03-.33-.04-.58,0-.25-.01-.55-.01-.91v-6.6h1.71v10.46Z"/>
    <path class="cls-6" d="M108.24,170.54l-1.14-1.17c-.44.41-.93.73-1.47.97-.54.24-1.16.36-1.86.36-1.02,0-1.85-.26-2.5-.79-.65-.53-.98-1.3-.98-2.31,0-.72.19-1.33.57-1.81.38-.48.9-.9,1.57-1.24-.35-.41-.6-.79-.76-1.15-.16-.35-.23-.72-.23-1.1,0-.77.26-1.36.78-1.77.52-.41,1.17-.62,1.96-.62s1.39.21,1.87.62c.48.41.72.96.72,1.63,0,.54-.14,1.01-.43,1.4s-.87.79-1.75,1.22l2.58,2.61c.33-.44.55-.89.68-1.35.13-.46.19-1,.19-1.61h1.47c0,.74-.11,1.43-.32,2.05-.22.62-.57,1.24-1.06,1.85l2.21,2.22h-2.08ZM106.19,168.42l-2.91-2.99c-.38.21-.7.47-.96.8-.26.32-.39.76-.39,1.31s.18,1,.54,1.31c.36.32.81.47,1.35.47.49,0,.92-.08,1.3-.24.38-.16.73-.38,1.07-.67ZM103.77,163.94c.57-.24.97-.48,1.19-.72.23-.24.34-.56.34-.94s-.12-.67-.36-.85c-.24-.18-.5-.28-.77-.28-.38,0-.68.11-.91.33-.23.22-.35.51-.35.87,0,.28.07.54.21.78.14.24.35.51.64.82Z"/>
    <path class="cls-6" d="M123.76,170c-.53.25-1.04.44-1.55.55s-1.05.17-1.63.17c-1.6,0-2.86-.47-3.77-1.4-.91-.93-1.36-2.22-1.36-3.85s.5-2.99,1.51-4.02c1-1.03,2.32-1.55,3.94-1.55.53,0,1.02.04,1.46.13.44.09.89.23,1.35.42l-.58,1.45c-.37-.16-.72-.27-1.07-.34-.35-.07-.72-.11-1.13-.11-1.04,0-1.91.35-2.58,1.05-.68.7-1.01,1.65-1.01,2.84s.31,2.1.93,2.78,1.46,1.02,2.51,1.02c.35,0,.72-.05,1.11-.14s.79-.24,1.2-.45l.69,1.44Z"/>
    <path class="cls-6" d="M133.56,170.54h-2.04l-1.6-2.78c-.28-.49-.54-.82-.77-1.01-.23-.19-.51-.29-.83-.3h-.93v4.08h-1.77v-10.46h3.41c1.09,0,1.94.24,2.56.73s.93,1.21.93,2.17c0,.72-.2,1.33-.59,1.83s-.94.87-1.63,1.1v.03c.26.11.5.28.72.51.22.23.42.51.61.83l1.93,3.25ZM127.39,161.52v3.49h1.35c.56,0,1.02-.18,1.38-.53s.54-.79.54-1.33-.16-.92-.47-1.2c-.32-.29-.78-.43-1.4-.43h-1.39Z"/>
    <path class="cls-6" d="M136.86,170.54h-1.78v-10.46h1.78v10.46Z"/>
    <path class="cls-6" d="M150.86,170.54h-1.76v-6.65c0-.3,0-.63.03-1,.02-.36.04-.75.07-1.15h-.05c-.06.28-.11.52-.16.72-.05.2-.1.36-.15.48l-3.03,7.59h-1.24l-3.05-7.53c-.04-.11-.09-.26-.14-.47s-.11-.47-.17-.79h-.05c.03.37.05.74.06,1.14.01.39.02.8.02,1.23v6.42h-1.64v-10.46h2.51l2.68,6.76c.11.25.2.49.27.71.07.22.13.42.17.61h.04c.09-.28.17-.53.25-.76.08-.22.15-.42.21-.58l2.71-6.74h2.44v10.46Z"/>
    <path class="cls-6" d="M159.46,170.54h-5.89v-10.46h5.66v1.5h-3.89v2.92h3.61v1.5h-3.61v3.05h4.12v1.5Z"/>
  </g>
</svg>