<?xml version="1.0" encoding="UTF-8"?>
<svg id="Layer_1" data-name="Layer 1" xmlns="http://www.w3.org/2000/svg" viewBox="0 0 140.01 152.56">
  <defs>
    <style>
      .cls-1 {
        fill: #fff;
      }

      .cls-2 {
        fill: none;
      }

      .cls-3 {
        fill: #c02326;
      }

      .cls-4 {
        fill: #d0d9da;
      }

      .cls-5 {
        fill: #3d5039;
      }

      .cls-6 {
        fill: #010101;
      }

      .cls-7 {
        fill: #ea743d;
      }
    </style>
  </defs>
  <path class="cls-4" d="M114.28,104.98c10.6-20.13,16.81-46.79,18.46-79.25-9.68-3.15-20.45-6.36-30.87-9.46-10.74-3.2-21.85-6.51-31.78-9.76-.03,0-.06.02-.09.03v137.34h.48c18.46-5.68,33.2-18.76,43.8-38.9Z"/>
  <path class="cls-1" d="M25.46,104.98C14.86,84.85,8.65,58.19,7,25.73c9.68-3.15,20.45-6.36,30.87-9.46,10.74-3.2,21.85-6.51,31.78-9.76.03,0,.06.02.09.03v137.34h-.48c-18.46-5.68-33.2-18.76-43.8-38.9Z"/>
  <path class="cls-2" d="M134.48,23.58c-9.95-3.26-21.1-6.58-31.88-9.79-10.76-3.2-21.89-6.52-31.81-9.77l-.8-.16-.09-.02-.31.1c-9.92,3.25-21.15,6.58-32.01,9.8-10.88,3.23-22.13,6.56-32.09,9.83l-.94.31.05.99c1.59,33.28,7.92,60.64,18.8,81.32,10.97,20.84,26.29,34.37,45.52,40.23l.18.06h1.75l.18-.06c19.24-5.85,34.55-19.39,45.52-40.23,10.88-20.67,17.21-48.03,18.8-81.32l.05-.99-.94-.31Z"/>
  <path class="cls-6" d="M70,0L0,20.73c3.02,66.76,22.11,114.58,68.66,130.05h2.69c46.55-15.47,65.64-63.29,68.66-130.05L70,0ZM116.58,106.19c-10.97,20.84-26.29,34.37-45.52,40.23l-.18.06h-1.75l-.18-.06c-19.24-5.85-34.55-19.39-45.52-40.23C12.53,85.51,6.2,58.16,4.61,24.87l-.05-.99.94-.31c9.95-3.26,21.21-6.6,32.09-9.83,10.86-3.22,22.09-6.55,32.01-9.8l.31-.1.09.02.8.16c9.92,3.25,21.05,6.56,31.81,9.77,10.78,3.21,21.92,6.53,31.88,9.79l.94.31-.05.99c-1.59,33.28-7.92,60.64-18.8,81.32Z"/>
  <path class="cls-2" d="M70.09,6.51s-.06.02-.09.03c-9.85,3.22-20.95,6.51-31.68,9.69-10.52,3.12-21.39,6.34-31.08,9.5,1.65,32.46,7.86,59.12,18.46,79.25,10.6,20.14,25.34,33.22,43.8,38.9h.98c18.46-5.68,33.2-18.76,43.8-38.9,10.6-20.13,16.81-46.79,18.46-79.25-9.68-3.15-20.45-6.36-30.87-9.46-10.74-3.2-21.85-6.51-31.78-9.76Z"/>
  <path class="cls-3" d="M134.48,23.58c-9.95-3.26-21.1-6.58-31.88-9.79-10.76-3.2-21.89-6.52-31.81-9.77l-.8-.16-.09-.02-.31.1c-9.92,3.25-21.15,6.58-32.01,9.8-10.88,3.23-22.13,6.56-32.09,9.83l-.94.31.05.99c1.59,33.28,7.92,60.64,18.8,81.32,10.97,20.84,26.29,34.37,45.52,40.23l.18.06h1.75l.18-.06c19.24-5.85,34.55-19.39,45.52-40.23,10.88-20.67,17.21-48.03,18.8-81.32l.05-.99-.94-.31ZM114.28,104.98c-10.6,20.14-25.34,33.22-43.8,38.9h-.98c-18.46-5.68-33.2-18.76-43.8-38.9C15.11,84.85,8.9,58.19,7.25,25.73c9.69-3.15,20.55-6.38,31.08-9.5,10.73-3.18,21.82-6.47,31.68-9.69.03,0,.06-.02.09-.03,9.93,3.25,21.04,6.56,31.78,9.76,10.42,3.1,21.19,6.31,30.87,9.46-1.65,32.46-7.86,59.12-18.46,79.25Z"/>
  <path class="cls-6" d="M70.76,143.63h-1.54l-.1-.03c-18.47-5.62-33.18-18.63-43.72-38.66C14.91,85.01,8.81,58.62,7.27,26.49l-.03-.55.52-.17c9.62-3.15,20.42-6.46,30.86-9.66,10.44-3.2,21.23-6.5,30.83-9.65l.11-.04h.55s.11.04.11.04c9.61,3.15,20.47,6.45,30.98,9.65,10.52,3.2,21.39,6.51,31.01,9.66l.52.17-.03.55c-1.54,32.12-7.63,58.52-18.13,78.45-10.54,20.03-25.26,33.04-43.72,38.66l-.1.03ZM69.44,142.19h1.11c18.04-5.52,32.43-18.28,42.77-37.92,10.33-19.63,16.37-45.64,17.94-77.3-9.48-3.1-20.14-6.34-30.46-9.48-10.48-3.19-21.31-6.48-30.9-9.62h-.09c-9.59,3.14-20.35,6.44-30.75,9.62-10.25,3.14-20.84,6.38-30.31,9.48,1.57,31.66,7.6,57.67,17.94,77.3,10.34,19.64,24.73,32.4,42.77,37.92Z"/>
  <path class="cls-7" d="M99.18,51.25h-23.36v-20.16c0-1.64-1.33-2.96-2.96-2.96h-5.16c-1.64,0-2.96,1.33-2.96,2.96v20.16h-23.36c-1.4,0-2.53,1.13-2.53,2.53v6.02c0,1.4,1.13,2.53,2.53,2.53h23.36v56.84c0,1.64,1.33,2.96,2.96,2.96h5.16c1.64,0,2.96-1.33,2.96-2.96v-56.84h23.36c1.4,0,2.53-1.13,2.53-2.53v-6.02c0-1.4-1.13-2.53-2.53-2.53Z"/>
  <path class="cls-5" d="M117.04,97.77c.22.79,1.94.41,1.77-.64v-28.45c.99-4.3,7.01-4.05,7.71.31l.08,41.72c.54.83,1.67.82,1.84-.25v-15.1c.74-4.39,6.78-4.71,7.73-.32l-.07,26.78c-1.48,3.66-3.6,7.13-5.91,10.33-1.81,2.52-3.82,5.25-6.54,6.8-.24,2.83.26,6.02-.04,8.8-.22,2.06-1.93,4.36-4.08,4.6-5.77.65-12.75-.49-18.65,0-6.44-1.56-3.24-9.56-4.1-14.06-.03-.17-1.54-1.95-1.85-2.49-2.39-4.17-3.57-11.98-3.78-16.8-.58-12.93.45-26.27,0-39.24.36-3.99,6.2-3.99,6.61.48l.08,19.38c.44.71,1.46.71,1.53-.23v-30.24c-.03-5.26,7.19-5.87,7.88-.64v29.11c.04,1.11,1.18,1.47,1.84.56l.08-33.69c-.22-5.24,7.89-5.2,7.89-.15v33.44Z"/>
</svg>