<?xml version="1.0" encoding="UTF-8"?>
<svg id="Layer_2" data-name="Layer 2" xmlns="http://www.w3.org/2000/svg" viewBox="0 0 432 432">
  <defs>
    <style>
      .cls-1 {
        fill: #c01f1d;
      }

      .cls-2 {
        fill: #fff;
      }

      .cls-3 {
        fill: none;
      }

      .cls-4 {
        fill: #3c4f38;
      }

      .cls-5 {
        fill: #cfd8da;
      }

      .cls-6 {
        fill: #ea733d;
      }
    </style>
  </defs>
  <path class="cls-5" d="M299.42,249.51c21.28-40.42,33.75-93.95,37.06-159.12-19.44-6.33-41.05-12.77-61.98-19-21.57-6.42-43.87-13.06-63.81-19.59-.06.02-.12.04-.17.06v275.76h.96c37.07-11.4,66.66-37.67,87.94-78.1Z"/>
  <path class="cls-2" d="M121.08,249.51c-21.28-40.42-33.75-93.95-37.06-159.12,19.44-6.33,41.05-12.77,61.98-19,21.57-6.42,43.87-13.06,63.81-19.59.06.02.12.04.17.06v275.76h-.96c-37.07-11.4-66.66-37.67-87.94-78.1Z"/>
  <path class="cls-3" d="M339.99,86.06c-19.98-6.55-42.36-13.21-64-19.66-21.61-6.43-43.95-13.09-63.87-19.61l-1.6-.31-.18-.04-.63.21c-19.91,6.53-42.47,13.22-64.27,19.68-21.85,6.48-44.43,13.18-64.42,19.73l-1.88.62.09,1.98c3.19,66.83,15.89,121.76,37.75,163.28,22.03,41.84,52.78,69.02,91.4,80.77l.37.11h3.52l.37-.11c38.62-11.75,69.37-38.93,91.4-80.77,21.85-41.51,34.55-96.45,37.75-163.28l.09-1.98-1.88-.62Z"/>
  <path d="M210.52,38.72l-140.56,41.61c6.06,134.04,44.39,230.06,137.86,261.11h5.41c93.46-31.05,131.79-127.08,137.86-261.11l-140.56-41.61ZM304.03,251.93c-22.03,41.84-52.78,69.02-91.4,80.77l-.37.11h-3.52l-.37-.11c-38.62-11.75-69.37-38.93-91.4-80.77-21.85-41.51-34.55-96.45-37.75-163.28l-.09-1.98,1.88-.62c19.99-6.55,42.58-13.25,64.42-19.73,21.81-6.47,44.36-13.16,64.27-19.68l.63-.21.18.04,1.6.31c19.92,6.53,42.26,13.18,63.87,19.61,21.64,6.44,44.02,13.11,64,19.66l1.88.62-.09,1.98c-3.19,66.83-15.89,121.76-37.75,163.28Z"/>
  <path class="cls-3" d="M210.69,51.8c-.06.02-.12.04-.17.06-19.78,6.47-42.06,13.07-63.6,19.46-21.13,6.27-42.95,12.74-62.4,19.07,3.31,65.17,15.78,118.7,37.06,159.12,21.29,40.43,50.87,66.71,87.94,78.1h1.96c37.07-11.4,66.66-37.67,87.94-78.1,21.28-40.42,33.75-93.95,37.06-159.12-19.44-6.33-41.05-12.77-61.98-19-21.57-6.42-43.87-13.06-63.81-19.59Z"/>
  <path class="cls-1" d="M339.99,86.06c-19.98-6.55-42.36-13.21-64-19.66-21.61-6.43-43.95-13.09-63.87-19.61l-1.6-.31-.18-.04-.63.21c-19.91,6.53-42.47,13.22-64.27,19.68-21.85,6.48-44.43,13.18-64.42,19.73l-1.88.62.09,1.98c3.19,66.83,15.89,121.76,37.75,163.28,22.03,41.84,52.78,69.02,91.4,80.77l.37.11h3.52l.37-.11c38.62-11.75,69.37-38.93,91.4-80.77,21.85-41.51,34.55-96.45,37.75-163.28l.09-1.98-1.88-.62ZM299.42,249.51c-21.28,40.43-50.87,66.71-87.94,78.1h-1.96c-37.07-11.4-66.66-37.67-87.94-78.1-21.28-40.42-33.75-93.95-37.06-159.12,19.45-6.33,41.27-12.81,62.4-19.07,21.55-6.39,43.82-13,63.6-19.46.06-.02.12-.04.17-.06,19.93,6.53,42.24,13.17,63.81,19.59,20.93,6.23,42.55,12.67,61.98,19-3.31,65.17-15.78,118.7-37.06,159.12Z"/>
  <path d="M212.04,327.11h-3.08l-.21-.06c-37.08-11.29-66.62-37.4-87.79-77.62-21.07-40.02-33.32-93.02-36.4-157.52l-.05-1.1,1.05-.34c19.32-6.33,41-12.97,61.96-19.39,20.95-6.42,42.62-13.05,61.91-19.38l.22-.07h1.1s.22.07.22.07c19.29,6.32,41.11,12.96,62.21,19.38,21.11,6.42,42.95,13.06,62.26,19.39l1.05.34-.05,1.1c-3.08,64.5-15.33,117.5-36.4,157.52-21.17,40.22-50.71,66.33-87.79,77.62l-.21.06ZM209.39,324.22h2.22c36.22-11.09,65.11-36.7,85.87-76.14,20.75-39.42,32.87-91.63,36.01-155.21-19.03-6.22-40.44-12.73-61.16-19.03-21.04-6.4-42.78-13.01-62.05-19.32h-.18c-19.26,6.31-40.86,12.92-61.74,19.32-20.57,6.3-41.84,12.81-60.86,19.03,3.15,63.58,15.26,115.79,36.01,155.21,20.76,39.43,49.65,65.05,85.87,76.14Z"/>
  <path class="cls-6" d="M269.1,141.62h-46.89v-40.47c0-3.28-2.66-5.95-5.95-5.95h-10.36c-3.28,0-5.95,2.66-5.95,5.95v40.47h-46.89c-2.81,0-5.08,2.28-5.08,5.08v12.08c0,2.81,2.28,5.08,5.08,5.08h46.89v114.12c0,3.28,2.66,5.95,5.95,5.95h10.36c3.28,0,5.95-2.66,5.95-5.95v-114.12h46.89c2.81,0,5.08-2.28,5.08-5.08v-12.08c0-2.81-2.28-5.08-5.08-5.08Z"/>
  <path class="cls-4" d="M304.97,235.02c.44,1.59,3.89.83,3.56-1.28l.02-57.12c1.97-8.63,14.05-8.14,15.47.62l.17,83.77c1.08,1.66,3.35,1.64,3.69-.5l.02-30.32c1.46-8.82,13.58-9.47,15.5-.65l-.14,53.77c-2.98,7.36-7.23,14.32-11.86,20.74-3.64,5.05-7.66,10.55-13.13,13.66-.49,5.68.52,12.08-.08,17.67-.45,4.14-3.88,8.75-8.19,9.24-11.59,1.31-25.6-.99-37.45,0-12.93-3.13-6.51-19.19-8.24-28.24-.07-.34-3.09-3.92-3.71-5-4.81-8.37-7.16-24.05-7.6-33.73-1.16-25.95.91-52.75,0-78.8.71-8.01,12.44-8.02,13.26.97l.16,38.91c.88,1.43,2.94,1.43,3.07-.46l-.03-60.72c-.02-10.55,14.47-11.8,15.85-1.29l-.02,58.45c.11,2.23,2.4,2.95,3.71,1.12l.15-67.64c-.44-10.52,15.83-10.44,15.83-.31v67.15Z"/>
  <g>
    <path d="M78.3,374.8v-21.01h6.61c3.72,0,6.51.85,8.36,2.56s2.78,4.26,2.78,7.68-1.03,5.86-3.08,7.82c-2.05,1.96-4.78,2.94-8.19,2.94h-6.49ZM81.86,356.82v14.99h2.75c2.41,0,4.3-.68,5.65-2.04,1.36-1.36,2.04-3.25,2.04-5.67s-.65-4.16-1.94-5.41c-1.29-1.25-3.19-1.88-5.69-1.88h-2.81Z"/>
    <path d="M111.99,374.8h-11.84v-21.01h11.37v3.02h-7.81v5.86h7.25v3h-7.25v6.12h8.28v3Z"/>
    <path d="M133.89,374.8h-3.87l-9.76-15.01c-.2-.3-.37-.58-.51-.83s-.26-.48-.35-.69h-.07c.04.29.07.7.09,1.22.02.52.03,1.15.03,1.9v13.42h-3.44v-21.01h4.13l9.45,14.68c.21.31.39.6.55.86s.29.5.39.7h.06c-.04-.28-.07-.67-.09-1.16s-.03-1.1-.03-1.82v-13.26h3.43v21.01Z"/>
    <path d="M148.02,375.16c-3,0-5.42-.98-7.26-2.94-1.84-1.96-2.76-4.51-2.76-7.65,0-3.35.94-6.04,2.81-8.07s4.39-3.05,7.54-3.05c2.95,0,5.33.98,7.14,2.94s2.72,4.53,2.72,7.71c0,3.37-.93,6.05-2.8,8.06s-4.33,3-7.4,3ZM148.07,372.04c1.98,0,3.54-.67,4.69-2.01,1.14-1.34,1.71-3.22,1.71-5.63s-.56-4.4-1.67-5.76c-1.11-1.36-2.64-2.04-4.58-2.04s-3.51.71-4.69,2.13c-1.18,1.42-1.77,3.29-1.77,5.62s.58,4.21,1.74,5.61,2.69,2.09,4.57,2.09Z"/>
    <path d="M184.98,374.8h-3.53v-13.34c0-.61.02-1.27.05-2s.08-1.5.14-2.31h-.1c-.12.57-.23,1.05-.33,1.45s-.2.72-.3.97l-6.09,15.23h-2.49l-6.12-15.12c-.08-.21-.17-.53-.29-.95-.11-.42-.23-.95-.34-1.58h-.1c.06.73.1,1.49.12,2.29.02.79.04,1.62.04,2.48v12.89h-3.3v-21.01h5.04l5.39,13.58c.21.51.39.98.53,1.42.14.44.25.85.33,1.23h.09c.18-.57.34-1.07.5-1.52.16-.45.3-.84.42-1.17l5.45-13.54h4.89v21.01Z"/>
    <path d="M194,374.8h-3.57v-21.01h3.57v21.01Z"/>
    <path d="M217.35,374.8h-3.87l-9.76-15.01c-.2-.3-.37-.58-.51-.83s-.26-.48-.35-.69h-.07c.04.29.07.7.09,1.22.02.52.03,1.15.03,1.9v13.42h-3.44v-21.01h4.13l9.45,14.68c.21.31.39.6.55.86s.29.5.39.7h.06c-.04-.28-.07-.67-.09-1.16s-.03-1.1-.03-1.82v-13.26h3.43v21.01Z"/>
    <path d="M220.47,374.8l7.85-21.01h4.04l7.79,21.01h-3.93l-1.76-5.02h-8.39l-1.71,5.02h-3.9ZM227,366.87h6.5l-2.87-8.29c-.07-.21-.13-.43-.18-.65s-.1-.49-.15-.81h-.09c-.05.28-.1.54-.15.77s-.11.45-.18.67l-2.87,8.32Z"/>
    <path d="M255.07,356.82h-6.04v17.99h-3.56v-17.99h-6.02v-3.02h15.62v3.02Z"/>
    <path d="M262.04,374.8h-3.57v-21.01h3.57v21.01Z"/>
    <path d="M276.18,375.16c-3,0-5.42-.98-7.26-2.94s-2.76-4.51-2.76-7.65c0-3.35.94-6.04,2.81-8.07s4.39-3.05,7.54-3.05c2.95,0,5.33.98,7.14,2.94s2.72,4.53,2.72,7.71c0,3.37-.93,6.05-2.8,8.06s-4.33,3-7.4,3ZM276.22,372.04c1.98,0,3.54-.67,4.69-2.01s1.71-3.22,1.71-5.63-.56-4.4-1.67-5.76-2.64-2.04-4.58-2.04-3.51.71-4.69,2.13-1.77,3.29-1.77,5.62.58,4.21,1.74,5.61,2.69,2.09,4.57,2.09Z"/>
    <path d="M308.36,374.8h-3.87l-9.76-15.01c-.2-.3-.37-.58-.51-.83s-.26-.48-.35-.69h-.07c.04.29.07.7.09,1.22s.03,1.15.03,1.9v13.42h-3.44v-21.01h4.13l9.45,14.68c.21.31.39.6.55.86s.29.5.39.7h.06c-.04-.28-.07-.67-.09-1.16s-.03-1.1-.03-1.82v-13.26h3.43v21.01Z"/>
    <path d="M311.48,374.8l7.85-21.01h4.04l7.79,21.01h-3.93l-1.76-5.02h-8.39l-1.71,5.02h-3.9ZM318.01,366.87h6.5l-2.87-8.29c-.07-.21-.13-.43-.18-.65s-.1-.49-.15-.81h-.09c-.05.28-.1.54-.15.77s-.11.45-.18.67l-2.87,8.32Z"/>
    <path d="M346.01,374.8h-11.69v-21.01h3.56v18h8.13v3Z"/>
    <path d="M131.25,411.16c-3,0-5.42-.98-7.26-2.94-1.84-1.96-2.76-4.51-2.76-7.65,0-3.35.94-6.04,2.81-8.07s4.39-3.05,7.54-3.05c2.95,0,5.33.98,7.14,2.94s2.72,4.53,2.72,7.71c0,3.37-.93,6.05-2.8,8.06s-4.33,3-7.4,3ZM131.29,408.04c1.98,0,3.54-.67,4.69-2.01,1.14-1.34,1.71-3.22,1.71-5.63s-.56-4.4-1.67-5.76c-1.11-1.36-2.64-2.04-4.58-2.04s-3.51.71-4.69,2.13c-1.18,1.42-1.77,3.29-1.77,5.62s.58,4.21,1.74,5.61,2.69,2.09,4.57,2.09Z"/>
    <path d="M149.1,403.49v7.31h-3.56v-21.01h6.58c2.44,0,4.3.56,5.58,1.69,1.28,1.13,1.92,2.77,1.92,4.93s-.72,3.8-2.16,5.11c-1.44,1.31-3.38,1.96-5.82,1.96h-2.53ZM149.1,392.71v7.88h2.23c1.49,0,2.62-.34,3.38-1.03s1.14-1.68,1.14-2.99-.36-2.27-1.09-2.91c-.73-.64-1.82-.96-3.27-.96h-2.39Z"/>
    <path d="M166.99,403.49v7.31h-3.56v-21.01h6.58c2.44,0,4.3.56,5.58,1.69,1.28,1.13,1.92,2.77,1.92,4.93s-.72,3.8-2.16,5.11c-1.44,1.31-3.38,1.96-5.82,1.96h-2.53ZM166.99,392.71v7.88h2.23c1.49,0,2.62-.34,3.38-1.03s1.14-1.68,1.14-2.99-.36-2.27-1.09-2.91c-.73-.64-1.82-.96-3.27-.96h-2.39Z"/>
    <path d="M197.27,410.8h-4.1l-3.21-5.58c-.57-.98-1.08-1.65-1.55-2.03s-1.02-.57-1.66-.59h-1.86v8.2h-3.56v-21.01h6.86c2.19,0,3.9.49,5.15,1.46,1.24.98,1.87,2.43,1.87,4.37,0,1.45-.4,2.67-1.19,3.68s-1.89,1.74-3.27,2.21v.06c.53.22,1.01.57,1.44,1.03.43.46.84,1.02,1.22,1.66l3.87,6.53ZM184.89,392.68v7.02h2.71c1.12,0,2.04-.35,2.76-1.05s1.08-1.6,1.08-2.68-.32-1.84-.95-2.42c-.64-.58-1.57-.86-2.81-.86h-2.78Z"/>
    <path d="M212.14,410.8h-11.84v-21.01h11.37v3.02h-7.81v5.86h7.25v3h-7.25v6.12h8.28v3Z"/>
    <path d="M214.47,409.27l1.58-2.75c.96.61,1.85,1.03,2.67,1.28.82.25,1.74.37,2.73.37,1.2,0,2.14-.26,2.83-.78.69-.52,1.03-1.26,1.03-2.23,0-.88-.29-1.57-.86-2.07-.57-.5-1.54-.96-2.92-1.38-2.16-.62-3.74-1.41-4.75-2.35-1.01-.94-1.51-2.22-1.51-3.83,0-1.74.65-3.19,1.95-4.34,1.3-1.16,3.08-1.74,5.33-1.74.99,0,1.96.11,2.91.34s1.89.57,2.81,1.04l-1.39,2.81c-.78-.42-1.54-.72-2.28-.92-.74-.19-1.48-.29-2.23-.29-1.1,0-1.97.24-2.6.73-.63.48-.94,1.16-.94,2.04,0,.78.29,1.39.86,1.84s1.57.89,2.99,1.33c2.2.63,3.78,1.45,4.74,2.43.96.99,1.44,2.33,1.44,4.04,0,1.85-.66,3.36-1.97,4.54-1.31,1.18-3.19,1.77-5.62,1.77-1.22,0-2.41-.16-3.57-.48-1.16-.32-2.24-.79-3.26-1.41Z"/>
    <path d="M231.22,409.27l1.58-2.75c.96.61,1.85,1.03,2.67,1.28s1.74.37,2.73.37c1.2,0,2.15-.26,2.83-.78s1.03-1.26,1.03-2.23c0-.88-.29-1.57-.86-2.07s-1.54-.96-2.92-1.38c-2.16-.62-3.74-1.41-4.75-2.35s-1.51-2.22-1.51-3.83c0-1.74.65-3.19,1.96-4.34s3.08-1.74,5.33-1.74c.99,0,1.96.11,2.92.34s1.89.57,2.81,1.04l-1.39,2.81c-.78-.42-1.54-.72-2.28-.92s-1.48-.29-2.23-.29c-1.1,0-1.97.24-2.6.73s-.94,1.16-.94,2.04c0,.78.29,1.39.86,1.84s1.57.89,2.99,1.33c2.2.63,3.78,1.45,4.74,2.43s1.44,2.33,1.44,4.04c0,1.85-.66,3.36-1.97,4.54s-3.19,1.77-5.62,1.77c-1.22,0-2.41-.16-3.57-.48-1.16-.32-2.24-.79-3.26-1.41Z"/>
    <path d="M253.25,410.8h-3.57v-21.01h3.57v21.01Z"/>
    <path d="M267.39,411.16c-3,0-5.42-.98-7.26-2.94s-2.76-4.51-2.76-7.65c0-3.35.94-6.04,2.81-8.07s4.39-3.05,7.54-3.05c2.95,0,5.33.98,7.14,2.94s2.72,4.53,2.72,7.71c0,3.37-.93,6.05-2.8,8.06s-4.33,3-7.4,3ZM267.43,408.04c1.98,0,3.54-.67,4.69-2.01s1.71-3.22,1.71-5.63-.56-4.4-1.67-5.76-2.64-2.04-4.58-2.04-3.51.71-4.69,2.13-1.77,3.29-1.77,5.62.58,4.21,1.74,5.61,2.69,2.09,4.57,2.09Z"/>
    <path d="M299.57,410.8h-3.87l-9.76-15.01c-.2-.3-.37-.58-.51-.83s-.26-.48-.35-.69h-.07c.04.29.07.7.09,1.22s.03,1.15.03,1.9v13.42h-3.44v-21.01h4.13l9.45,14.68c.21.31.39.6.55.86s.29.5.39.7h.06c-.04-.28-.07-.67-.09-1.16s-.03-1.1-.03-1.82v-13.26h3.43v21.01Z"/>
  </g>
</svg>