<?xml version="1.0" encoding="UTF-8"?>
<svg id="Layer_3" data-name="Layer 3" xmlns="http://www.w3.org/2000/svg" viewBox="0 0 432 432">
  <defs>
    <style>
      .cls-1 {
        fill: #c01f1d;
      }

      .cls-2 {
        fill: #fff;
      }

      .cls-3 {
        fill: none;
      }

      .cls-4 {
        fill: #3c4f38;
      }

      .cls-5 {
        fill: #cfd8da;
      }

      .cls-6 {
        fill: #ea733d;
      }
    </style>
  </defs>
  <path class="cls-5" d="M299.58,249.51c21.21-40.28,33.63-93.62,36.93-158.56-19.37-6.31-40.91-12.72-61.76-18.93-21.49-6.4-43.72-13.02-63.58-19.52-.06.02-.12.04-.17.06v274.79h.96c36.94-11.36,66.42-37.54,87.63-77.83Z"/>
  <path class="cls-2" d="M121.87,249.51c-21.21-40.28-33.63-93.62-36.93-158.56,19.37-6.31,40.91-12.72,61.76-18.93,21.49-6.4,43.72-13.02,63.58-19.52.06.02.12.04.17.06v274.79h-.96c-36.94-11.36-66.42-37.54-87.63-77.83Z"/>
  <path class="cls-3" d="M340,86.63c-19.91-6.53-42.21-13.17-63.78-19.59-21.53-6.41-43.8-13.04-63.64-19.55l-1.59-.31-.18-.04-.63.21c-19.84,6.5-42.32,13.17-64.05,19.61-21.77,6.46-44.28,13.13-64.2,19.66l-1.88.62.09,1.97c3.18,66.59,15.84,121.34,37.61,162.7,21.95,41.69,52.59,68.77,91.08,80.49l.37.11h3.5l.37-.11c38.49-11.71,69.13-38.79,91.08-80.49,21.78-41.37,34.43-96.11,37.61-162.7l.09-1.97-1.88-.62Z"/>
  <path d="M210.99,39.46l-140.06,41.47c6.04,133.57,44.23,229.25,137.37,260.19h5.39c93.14-30.95,131.33-126.63,137.37-260.19l-140.06-41.47ZM304.17,251.92c-21.95,41.69-52.59,68.77-91.08,80.49l-.37.11h-3.5l-.37-.11c-38.49-11.71-69.13-38.79-91.08-80.49-21.78-41.37-34.43-96.11-37.61-162.7l-.09-1.97,1.88-.62c19.92-6.53,42.43-13.2,64.2-19.66,21.73-6.45,44.2-13.11,64.05-19.61l.63-.21.18.04,1.59.31c19.85,6.51,42.11,13.13,63.64,19.55,21.56,6.42,43.86,13.06,63.78,19.59l1.88.62-.09,1.97c-3.18,66.59-15.84,121.34-37.61,162.7Z"/>
  <path class="cls-3" d="M211.16,52.49c-.06.02-.12.04-.17.06-19.71,6.44-41.91,13.03-63.38,19.39-21.05,6.24-42.8,12.69-62.18,19,3.3,64.94,15.72,118.28,36.93,158.56,21.21,40.29,50.69,66.47,87.63,77.83h1.96c36.94-11.36,66.42-37.54,87.63-77.83,21.21-40.28,33.63-93.62,36.93-158.56-19.37-6.31-40.91-12.72-61.76-18.93-21.49-6.4-43.72-13.02-63.58-19.52Z"/>
  <path class="cls-1" d="M340,86.63c-19.91-6.53-42.21-13.17-63.78-19.59-21.53-6.41-43.8-13.04-63.64-19.55l-1.59-.31-.18-.04-.63.21c-19.84,6.5-42.32,13.17-64.05,19.61-21.77,6.46-44.28,13.13-64.2,19.66l-1.88.62.09,1.97c3.18,66.59,15.84,121.34,37.61,162.7,21.95,41.69,52.59,68.77,91.08,80.49l.37.11h3.5l.37-.11c38.49-11.71,69.13-38.79,91.08-80.49,21.78-41.37,34.43-96.11,37.61-162.7l.09-1.97-1.88-.62ZM299.58,249.51c-21.21,40.29-50.69,66.47-87.63,77.83h-1.96c-36.94-11.36-66.42-37.54-87.63-77.83-21.21-40.28-33.63-93.62-36.93-158.56,19.38-6.31,41.12-12.76,62.18-19,21.47-6.37,43.67-12.95,63.38-19.39.06-.02.12-.04.17-.06,19.86,6.51,42.09,13.12,63.58,19.52,20.85,6.21,42.4,12.62,61.76,18.93-3.3,64.94-15.72,118.28-36.93,158.56Z"/>
  <path d="M212.51,326.83h-3.07l-.21-.06c-36.95-11.25-66.38-37.27-87.48-77.34-20.99-39.88-33.2-92.69-36.27-156.96l-.05-1.1,1.04-.34c19.25-6.31,40.85-12.93,61.74-19.32,20.88-6.39,42.47-13.01,61.69-19.31l.22-.07h1.1s.22.07.22.07c19.22,6.3,40.96,12.91,61.99,19.31,21.04,6.4,42.8,13.02,62.04,19.33l1.04.34-.05,1.1c-3.07,64.27-15.28,117.08-36.27,156.96-21.1,40.08-50.53,66.1-87.48,77.34l-.21.06ZM209.87,323.95h2.21c36.09-11.05,64.88-36.57,85.57-75.87,20.68-39.28,32.75-91.31,35.89-154.66-18.96-6.2-40.3-12.69-60.94-18.96-20.96-6.37-42.63-12.97-61.83-19.25h-.18c-19.19,6.29-40.71,12.88-61.53,19.25-20.5,6.28-41.69,12.77-60.65,18.97,3.14,63.35,15.21,115.38,35.89,154.66,20.69,39.3,49.48,64.82,85.57,75.87Z"/>
  <path class="cls-6" d="M269.36,142h-46.73v-40.33c0-3.27-2.65-5.92-5.92-5.92h-10.32c-3.27,0-5.92,2.65-5.92,5.92v40.33h-46.73c-2.8,0-5.06,2.27-5.06,5.06v12.04c0,2.8,2.27,5.06,5.06,5.06h46.73v113.72c0,3.27,2.65,5.92,5.92,5.92h10.32c3.27,0,5.92-2.65,5.92-5.92v-113.72h46.73c2.8,0,5.06-2.27,5.06-5.06v-12.04c0-2.8-2.27-5.06-5.06-5.06Z"/>
  <path class="cls-4" d="M197.3,189.38c1.35.72,2.26,3.39,4.16,3.65l123.69,34.25c2.13.59,1.97-3.47,4.32-2.74s1.2,3.79,2.17,4.46c2.08,1.42,6.84.18,6.18,4.5-.78,5.1-3.91,11.24-4.49,16.25-.21,1.78,1.37,3.78.51,5.46-1.8,3.54-5.11,1.62-8.13,1.83-9.38.65-10.21,11.35-9.04,18.7,2.39,14.95,6.77,30.05,9.25,45.04.13,2.32-.03,4.98-2.04,6.53-1.4,1.07-7.86,1.56-8.93,2.54-1.06.97.13,1.74.15,2.49.03.95-.48,2.51-1.6,2.51l-36.57-6.46c-.54-1.43.98-2.46.94-3.81-.02-.67-1.24-1.7-1.62-2.52-.84-1.78-.51-3.06.05-4.88-1.51-12.68-2.7-25.71-4.97-38.32-.78-4.31-1.58-8.68-6.78-9.27-2.14-.24-4.43,2.04-6.85,1.01-10.62-3.64-22.77-5.41-33.22-9.2-6.31-2.29-1.27-3.19.02-6.05.97-2.15,3.13-9.05,3.54-11.4.46-2.64-.21-6.01-1.43-8.33l-45.32-13.75c-1.44-1.98.81-5.67,1.02-8.02.09-1.02-.68-.98-.57-1.66.42-2.8,1.53-2.54,2.17-3.8.2-.39,1.08-3.39.99-3.55-.11-.19-1.64-.23-1.97-.6-.49-.53,2.37-10.88,3.07-11.09.48-.14,1.8.61,2,.5s.46-2.99,1.43-3.53c1.05-.59,4.18.93,4.44.78.18-.1.48-2.28.65-2.38.13-.07,2.42.65,2.79.85ZM267.81,259.71c.19-.67,1.06-8.51-.88-7.36-1.12,4.1-3.82,7.56-7.72,9.32-.84.38-4.81,1.79-5.33.92.8-2.02,3.01-3.09,4.19-4.96,2.67-4.21,1.57-10.18-.98-14.14-5.09-1.24-10.41-3.36-15.5-4.38-6.15-1.23-7.96,1.22-9.67,6.61-1.32,4.16-3.94,11.39.83,14.12l25.52,7.21c2.19.3,3.66-.76,5.3-2,1.55-1.17,3.68-3.36,4.24-5.36Z"/>
  <g>
    <path d="M136.98,381.02c-2.99,0-5.4-.98-7.23-2.93-1.83-1.95-2.75-4.49-2.75-7.63,0-3.34.93-6.02,2.8-8.04,1.87-2.02,4.37-3.04,7.52-3.04,2.94,0,5.31.98,7.12,2.93s2.71,4.51,2.71,7.69c0,3.36-.93,6.03-2.79,8.03-1.86,1.99-4.32,2.99-7.37,2.99ZM137.02,377.92c1.98,0,3.53-.67,4.67-2.01s1.71-3.21,1.71-5.61-.55-4.39-1.66-5.74-2.63-2.04-4.57-2.04-3.49.71-4.67,2.12c-1.18,1.42-1.77,3.28-1.77,5.6s.58,4.2,1.74,5.59,2.68,2.09,4.55,2.09Z"/>
    <path d="M167.12,380.67h-4.09l-3.2-5.56c-.56-.97-1.08-1.65-1.55-2.02-.47-.37-1.02-.57-1.65-.59h-1.85v8.17h-3.55v-20.93h6.83c2.18,0,3.89.49,5.13,1.46,1.24.97,1.86,2.42,1.86,4.35,0,1.44-.4,2.66-1.19,3.66-.79,1-1.88,1.74-3.26,2.2v.06c.53.22,1,.57,1.44,1.03.43.46.84,1.01,1.22,1.66l3.85,6.51ZM154.79,362.62v6.99h2.7c1.12,0,2.04-.35,2.75-1.05s1.07-1.59,1.07-2.67-.32-1.83-.95-2.41c-.63-.57-1.57-.86-2.8-.86h-2.77Z"/>
    <path d="M186.13,379.17c-1.02.59-2.14,1.05-3.36,1.37-1.22.32-2.54.48-3.95.48-3.19,0-5.73-.9-7.61-2.69-1.88-1.79-2.82-4.4-2.82-7.82s1-5.98,3.01-8.04c2.01-2.06,4.69-3.09,8.04-3.09,1.25,0,2.39.12,3.44.35,1.05.23,2.12.6,3.21,1.11l-1.26,2.8c-.9-.43-1.76-.74-2.61-.93-.84-.19-1.77-.29-2.79-.29-2.18,0-3.94.68-5.29,2.03s-2.02,3.3-2.02,5.84.62,4.49,1.87,5.76c1.25,1.27,2.94,1.91,5.09,1.91.69,0,1.33-.06,1.91-.18.58-.12,1.11-.3,1.58-.53v-5.01h-4.39v-2.98h7.96v9.9Z"/>
    <path d="M188.55,380.67l7.82-20.93h4.03l7.77,20.93h-3.91l-1.75-5.01h-8.36l-1.71,5.01h-3.88ZM195.06,372.76h6.48l-2.86-8.26c-.07-.21-.13-.43-.18-.65-.05-.22-.1-.49-.15-.81h-.09c-.05.28-.1.54-.15.77-.05.23-.11.45-.18.66l-2.86,8.29Z"/>
    <path d="M229.13,380.67h-3.85l-9.72-14.96c-.19-.3-.36-.58-.51-.83-.15-.25-.26-.48-.35-.69h-.07c.04.29.07.7.09,1.21.02.52.03,1.15.03,1.9v13.37h-3.43v-20.93h4.12l9.42,14.63c.2.31.39.6.55.86s.29.5.39.7h.06c-.04-.28-.07-.67-.09-1.16s-.03-1.1-.03-1.82v-13.21h3.42v20.93Z"/>
    <path d="M238.15,380.67h-3.56v-20.93h3.56v20.93Z"/>
    <path d="M257.77,380.67h-16.07v-1.68l11.3-16.25h-10.44v-3.01h15.34v1.59l-11.25,16.35h11.12v2.99Z"/>
    <path d="M273.25,380.67h-11.79v-20.93h11.33v3.01h-7.78v5.84h7.23v2.99h-7.23v6.1h8.25v2.99Z"/>
    <path d="M277.25,380.67v-20.93h6.58c3.71,0,6.49.85,8.33,2.55,1.85,1.7,2.77,4.25,2.77,7.66s-1.02,5.84-3.07,7.79-4.76,2.93-8.16,2.93h-6.47ZM280.8,362.75v14.93h2.74c2.4,0,4.28-.68,5.63-2.03s2.03-3.24,2.03-5.65-.64-4.14-1.93-5.39c-1.29-1.25-3.18-1.87-5.67-1.87h-2.8Z"/>
    <path d="M68.8,415.47c-1.06.51-2.09.87-3.09,1.09-1,.22-2.09.34-3.27.34-3.21,0-5.72-.93-7.54-2.8s-2.72-4.43-2.72-7.69,1-5.98,3.01-8.04c2.01-2.06,4.63-3.09,7.88-3.09,1.06,0,2.03.09,2.92.26.89.18,1.79.46,2.7.85l-1.17,2.91c-.73-.31-1.44-.54-2.14-.68-.7-.14-1.45-.21-2.26-.21-2.09,0-3.81.7-5.17,2.09s-2.03,3.29-2.03,5.69.62,4.21,1.86,5.57,2.92,2.04,5.03,2.04c.7,0,1.44-.09,2.22-.28.78-.18,1.58-.49,2.39-.91l1.37,2.88Z"/>
    <path d="M80.35,416.9c-2.99,0-5.4-.98-7.23-2.93-1.83-1.95-2.75-4.49-2.75-7.63,0-3.34.93-6.02,2.8-8.04,1.87-2.02,4.37-3.04,7.52-3.04,2.94,0,5.31.98,7.12,2.93s2.71,4.51,2.71,7.69c0,3.36-.93,6.03-2.79,8.03-1.86,1.99-4.32,2.99-7.37,2.99ZM80.39,413.79c1.98,0,3.53-.67,4.67-2.01s1.71-3.21,1.71-5.61-.55-4.39-1.66-5.74-2.63-2.04-4.57-2.04-3.49.71-4.67,2.12c-1.18,1.42-1.77,3.28-1.77,5.6s.58,4.2,1.74,5.59,2.68,2.09,4.55,2.09Z"/>
    <path d="M110.49,416.55h-4.09l-3.2-5.56c-.56-.97-1.08-1.65-1.55-2.02-.47-.37-1.02-.57-1.65-.59h-1.85v8.17h-3.55v-20.93h6.83c2.18,0,3.89.49,5.13,1.46,1.24.97,1.86,2.42,1.86,4.35,0,1.44-.4,2.66-1.19,3.66-.79,1-1.88,1.74-3.26,2.2v.06c.53.22,1,.57,1.44,1.03.43.46.84,1.01,1.22,1.66l3.85,6.51ZM98.15,398.49v6.99h2.7c1.12,0,2.04-.35,2.75-1.05s1.07-1.59,1.07-2.67-.32-1.83-.95-2.41c-.63-.57-1.57-.86-2.8-.86h-2.77Z"/>
    <path d="M129.4,416.55h-4.09l-3.2-5.56c-.56-.97-1.08-1.65-1.55-2.02-.47-.37-1.02-.57-1.65-.59h-1.85v8.17h-3.55v-20.93h6.83c2.18,0,3.89.49,5.13,1.46,1.24.97,1.86,2.42,1.86,4.35,0,1.44-.4,2.66-1.19,3.66-.79,1-1.88,1.74-3.26,2.2v.06c.53.22,1,.57,1.44,1.03.43.46.84,1.01,1.22,1.66l3.85,6.51ZM117.07,398.49v6.99h2.7c1.12,0,2.04-.35,2.75-1.05s1.07-1.59,1.07-2.67-.32-1.83-.95-2.41c-.63-.57-1.57-.86-2.8-.86h-2.77Z"/>
    <path d="M148.6,407.77c0,3.05-.7,5.33-2.09,6.85s-3.48,2.28-6.28,2.28-4.7-.74-6.04-2.2c-1.34-1.47-2.01-3.68-2.01-6.64v-12.44h3.55v12.41c0,1.92.39,3.36,1.18,4.32.79.96,1.97,1.45,3.55,1.45s2.69-.46,3.45-1.39c.76-.93,1.15-2.33,1.15-4.2v-12.58h3.55v12.16Z"/>
    <path d="M157.33,409.26v7.28h-3.55v-20.93h6.55c2.43,0,4.29.56,5.56,1.69,1.27,1.12,1.91,2.76,1.91,4.91s-.72,3.79-2.15,5.09c-1.44,1.3-3.37,1.96-5.8,1.96h-2.53ZM157.33,398.52v7.85h2.22c1.49,0,2.61-.34,3.37-1.02.76-.68,1.14-1.67,1.14-2.98s-.36-2.26-1.09-2.9c-.72-.64-1.81-.96-3.26-.96h-2.38Z"/>
    <path d="M185.09,398.62h-6.01v17.92h-3.55v-17.92h-6v-3.01h15.56v3.01Z"/>
    <path d="M192.04,416.55h-3.56v-20.93h3.56v20.93Z"/>
    <path d="M206.12,416.9c-2.99,0-5.4-.98-7.23-2.93-1.83-1.95-2.75-4.49-2.75-7.63,0-3.34.93-6.02,2.8-8.04,1.87-2.02,4.37-3.04,7.52-3.04,2.94,0,5.31.98,7.12,2.93s2.71,4.51,2.71,7.69c0,3.36-.93,6.03-2.79,8.03-1.86,1.99-4.32,2.99-7.37,2.99ZM206.17,413.79c1.98,0,3.53-.67,4.67-2.01s1.71-3.21,1.71-5.61-.55-4.39-1.66-5.74-2.63-2.04-4.57-2.04-3.49.71-4.67,2.12c-1.18,1.42-1.77,3.28-1.77,5.6s.58,4.2,1.74,5.59,2.68,2.09,4.55,2.09Z"/>
    <path d="M238.19,416.55h-3.85l-9.72-14.96c-.2-.3-.37-.58-.51-.83-.15-.25-.26-.48-.35-.69h-.07c.04.29.07.7.09,1.21.02.52.03,1.15.03,1.9v13.37h-3.43v-20.93h4.12l9.42,14.63c.2.31.39.6.55.86.16.26.29.5.39.7h.06c-.04-.28-.07-.67-.09-1.16-.02-.49-.03-1.1-.03-1.82v-13.21h3.42v20.93Z"/>
    <path d="M267.37,416.55l-2.29-2.34c-.89.82-1.87,1.47-2.94,1.95s-2.31.72-3.71.72c-2.03,0-3.7-.53-5.01-1.59-1.3-1.06-1.96-2.6-1.96-4.63,0-1.45.38-2.66,1.14-3.63.76-.97,1.81-1.8,3.14-2.49-.7-.83-1.21-1.59-1.52-2.29-.31-.7-.47-1.44-.47-2.2,0-1.54.52-2.72,1.55-3.55s2.34-1.24,3.92-1.24,2.77.41,3.74,1.24c.96.83,1.44,1.91,1.44,3.25,0,1.09-.28,2.02-.85,2.79-.57.77-1.74,1.59-3.51,2.45l5.17,5.23c.65-.88,1.1-1.78,1.36-2.71.25-.93.38-2,.38-3.22h2.93c0,1.49-.22,2.85-.65,4.09-.43,1.24-1.14,2.47-2.12,3.7l4.42,4.45h-4.16ZM263.26,412.31l-5.82-5.98c-.76.42-1.4.95-1.91,1.59-.52.64-.77,1.52-.77,2.63s.36,2,1.07,2.63c.72.63,1.62.95,2.71.95.97,0,1.84-.16,2.6-.47.76-.32,1.47-.76,2.13-1.34ZM258.42,403.34c1.14-.48,1.93-.96,2.39-1.45.45-.49.68-1.11.68-1.88s-.24-1.34-.71-1.71c-.48-.37-.99-.55-1.55-.55-.75,0-1.35.22-1.82.66-.46.44-.69,1.02-.69,1.73,0,.55.14,1.07.42,1.55.28.48.71,1.03,1.28,1.64Z"/>
    <path d="M298.42,415.47c-1.06.51-2.09.87-3.09,1.09-1,.22-2.09.34-3.27.34-3.21,0-5.72-.93-7.54-2.8-1.82-1.87-2.72-4.43-2.72-7.69s1-5.98,3.01-8.04c2.01-2.06,4.63-3.09,7.87-3.09,1.06,0,2.03.09,2.92.26.88.18,1.79.46,2.7.85l-1.17,2.91c-.73-.31-1.44-.54-2.14-.68-.7-.14-1.45-.21-2.26-.21-2.09,0-3.81.7-5.17,2.09s-2.03,3.29-2.03,5.69.62,4.21,1.86,5.57c1.24,1.36,2.92,2.04,5.03,2.04.7,0,1.44-.09,2.22-.28s1.58-.49,2.39-.91l1.37,2.88Z"/>
    <path d="M318.02,416.55h-4.09l-3.2-5.56c-.56-.97-1.08-1.65-1.55-2.02-.47-.37-1.02-.57-1.65-.59h-1.85v8.17h-3.55v-20.93h6.83c2.18,0,3.89.49,5.13,1.46,1.24.97,1.86,2.42,1.86,4.35,0,1.44-.4,2.66-1.19,3.66-.79,1-1.88,1.74-3.26,2.2v.06c.53.22,1,.57,1.44,1.03.43.46.84,1.01,1.22,1.66l3.85,6.51ZM305.69,398.49v6.99h2.7c1.12,0,2.04-.35,2.75-1.05.71-.7,1.07-1.59,1.07-2.67s-.32-1.83-.95-2.41-1.57-.86-2.8-.86h-2.77Z"/>
    <path d="M324.62,416.55h-3.56v-20.93h3.56v20.93Z"/>
    <path d="M352.65,416.55h-3.52v-13.3c0-.6.02-1.27.05-1.99.03-.72.08-1.49.14-2.3h-.1c-.12.56-.23,1.05-.33,1.45-.1.4-.2.72-.3.96l-6.07,15.18h-2.48l-6.1-15.06c-.08-.21-.17-.53-.28-.95-.11-.42-.23-.94-.34-1.58h-.1c.06.73.1,1.49.12,2.28s.04,1.61.04,2.47v12.84h-3.28v-20.93h5.02l5.37,13.53c.21.51.39.98.53,1.42.14.44.25.85.33,1.23h.09c.17-.56.34-1.07.5-1.52s.3-.84.42-1.17l5.43-13.49h4.88v20.93Z"/>
    <path d="M369.85,416.55h-11.79v-20.93h11.33v3.01h-7.78v5.84h7.23v2.99h-7.23v6.1h8.25v2.99Z"/>
  </g>
</svg>