<?xml version="1.0" encoding="UTF-8"?>
<svg id="Layer_3" data-name="Layer 3" xmlns="http://www.w3.org/2000/svg" viewBox="0 0 432 432">
  <defs>
    <style>
      .cls-1 {
        fill: #c01f1d;
      }

      .cls-2 {
        fill: #fff;
      }

      .cls-3 {
        fill: none;
      }

      .cls-4 {
        fill: #3c4f38;
      }

      .cls-5 {
        fill: #cfd8da;
      }

      .cls-6 {
        fill: #ea733d;
      }
    </style>
  </defs>
  <path class="cls-5" d="M299.58,249.51c21.21-40.28,33.63-93.62,36.93-158.56-19.37-6.31-40.91-12.72-61.76-18.93-21.49-6.4-43.72-13.02-63.58-19.52-.06.02-.12.04-.17.06v274.79h.96c36.94-11.36,66.42-37.54,87.63-77.83Z"/>
  <path class="cls-2" d="M121.87,249.51c-21.21-40.28-33.63-93.62-36.93-158.56,19.37-6.31,40.91-12.72,61.76-18.93,21.49-6.4,43.72-13.02,63.58-19.52.06.02.12.04.17.06v274.79h-.96c-36.94-11.36-66.42-37.54-87.63-77.83Z"/>
  <path class="cls-3" d="M340,86.63c-19.91-6.53-42.21-13.17-63.78-19.59-21.53-6.41-43.8-13.04-63.64-19.55l-1.59-.31-.18-.04-.63.21c-19.84,6.5-42.32,13.17-64.05,19.61-21.77,6.46-44.28,13.13-64.2,19.66l-1.88.62.09,1.97c3.18,66.59,15.84,121.34,37.61,162.7,21.95,41.69,52.59,68.77,91.08,80.49l.37.11h3.5l.37-.11c38.49-11.71,69.13-38.79,91.08-80.49,21.78-41.37,34.43-96.11,37.61-162.7l.09-1.97-1.88-.62Z"/>
  <path d="M210.99,39.46l-140.06,41.47c6.04,133.57,44.23,229.25,137.37,260.19h5.39c93.14-30.95,131.33-126.63,137.37-260.19l-140.06-41.47ZM304.17,251.92c-21.95,41.69-52.59,68.77-91.08,80.49l-.37.11h-3.5l-.37-.11c-38.49-11.71-69.13-38.79-91.08-80.49-21.78-41.37-34.43-96.11-37.61-162.7l-.09-1.97,1.88-.62c19.92-6.53,42.43-13.2,64.2-19.66,21.73-6.45,44.2-13.11,64.05-19.61l.63-.21.18.04,1.59.31c19.85,6.51,42.11,13.13,63.64,19.55,21.56,6.42,43.86,13.06,63.78,19.59l1.88.62-.09,1.97c-3.18,66.59-15.84,121.34-37.61,162.7Z"/>
  <path class="cls-3" d="M211.16,52.49c-.06.02-.12.04-.17.06-19.71,6.44-41.91,13.03-63.38,19.39-21.05,6.24-42.8,12.69-62.18,19,3.3,64.94,15.72,118.28,36.93,158.56,21.21,40.29,50.69,66.47,87.63,77.83h1.96c36.94-11.36,66.42-37.54,87.63-77.83,21.21-40.28,33.63-93.62,36.93-158.56-19.37-6.31-40.91-12.72-61.76-18.93-21.49-6.4-43.72-13.02-63.58-19.52Z"/>
  <path class="cls-1" d="M340,86.63c-19.91-6.53-42.21-13.17-63.78-19.59-21.53-6.41-43.8-13.04-63.64-19.55l-1.59-.31-.18-.04-.63.21c-19.84,6.5-42.32,13.17-64.05,19.61-21.77,6.46-44.28,13.13-64.2,19.66l-1.88.62.09,1.97c3.18,66.59,15.84,121.34,37.61,162.7,21.95,41.69,52.59,68.77,91.08,80.49l.37.11h3.5l.37-.11c38.49-11.71,69.13-38.79,91.08-80.49,21.78-41.37,34.43-96.11,37.61-162.7l.09-1.97-1.88-.62ZM299.58,249.51c-21.21,40.29-50.69,66.47-87.63,77.83h-1.96c-36.94-11.36-66.42-37.54-87.63-77.83-21.21-40.28-33.63-93.62-36.93-158.56,19.38-6.31,41.12-12.76,62.18-19,21.47-6.37,43.67-12.95,63.38-19.39.06-.02.12-.04.17-.06,19.86,6.51,42.09,13.12,63.58,19.52,20.85,6.21,42.4,12.62,61.76,18.93-3.3,64.94-15.72,118.28-36.93,158.56Z"/>
  <path d="M212.51,326.83h-3.07l-.21-.06c-36.95-11.25-66.38-37.27-87.48-77.34-20.99-39.88-33.2-92.69-36.27-156.96l-.05-1.1,1.04-.34c19.25-6.31,40.85-12.93,61.74-19.32,20.88-6.39,42.47-13.01,61.69-19.31l.22-.07h1.1s.22.07.22.07c19.22,6.3,40.96,12.91,61.99,19.31,21.04,6.4,42.8,13.02,62.04,19.33l1.04.34-.05,1.1c-3.07,64.27-15.28,117.08-36.27,156.96-21.1,40.08-50.53,66.1-87.48,77.34l-.21.06ZM209.87,323.95h2.21c36.09-11.05,64.88-36.57,85.57-75.87,20.68-39.28,32.75-91.31,35.89-154.66-18.96-6.2-40.3-12.69-60.94-18.96-20.96-6.37-42.63-12.97-61.83-19.25h-.18c-19.19,6.29-40.71,12.88-61.53,19.25-20.5,6.28-41.69,12.77-60.65,18.97,3.14,63.35,15.21,115.38,35.89,154.66,20.69,39.3,49.48,64.82,85.57,75.87Z"/>
  <path class="cls-6" d="M269.36,142h-46.73v-40.33c0-3.27-2.65-5.92-5.92-5.92h-10.32c-3.27,0-5.92,2.65-5.92,5.92v40.33h-46.73c-2.8,0-5.06,2.27-5.06,5.06v12.04c0,2.8,2.27,5.06,5.06,5.06h46.73v113.72c0,3.27,2.65,5.92,5.92,5.92h10.32c3.27,0,5.92-2.65,5.92-5.92v-113.72h46.73c2.8,0,5.06-2.27,5.06-5.06v-12.04c0-2.8-2.27-5.06-5.06-5.06Z"/>
  <path class="cls-4" d="M197.3,189.38c1.35.72,2.26,3.39,4.16,3.65l123.69,34.25c2.13.59,1.97-3.47,4.32-2.74s1.2,3.79,2.17,4.46c2.08,1.42,6.84.18,6.18,4.5-.78,5.1-3.91,11.24-4.49,16.25-.21,1.78,1.37,3.78.51,5.46-1.8,3.54-5.11,1.62-8.13,1.83-9.38.65-10.21,11.35-9.04,18.7,2.39,14.95,6.77,30.05,9.25,45.04.13,2.32-.03,4.98-2.04,6.53-1.4,1.07-7.86,1.56-8.93,2.54-1.06.97.13,1.74.15,2.49.03.95-.48,2.51-1.6,2.51l-36.57-6.46c-.54-1.43.98-2.46.94-3.81-.02-.67-1.24-1.7-1.62-2.52-.84-1.78-.51-3.06.05-4.88-1.51-12.68-2.7-25.71-4.97-38.32-.78-4.31-1.58-8.68-6.78-9.27-2.14-.24-4.43,2.04-6.85,1.01-10.62-3.64-22.77-5.41-33.22-9.2-6.31-2.29-1.27-3.19.02-6.05.97-2.15,3.13-9.05,3.54-11.4.46-2.64-.21-6.01-1.43-8.33l-45.32-13.75c-1.44-1.98.81-5.67,1.02-8.02.09-1.02-.68-.98-.57-1.66.42-2.8,1.53-2.54,2.17-3.8.2-.39,1.08-3.39.99-3.55-.11-.19-1.64-.23-1.97-.6-.49-.53,2.37-10.88,3.07-11.09.48-.14,1.8.61,2,.5s.46-2.99,1.43-3.53c1.05-.59,4.18.93,4.44.78.18-.1.48-2.28.65-2.38.13-.07,2.42.65,2.79.85ZM267.81,259.71c.19-.67,1.06-8.51-.88-7.36-1.12,4.1-3.82,7.56-7.72,9.32-.84.38-4.81,1.79-5.33.92.8-2.02,3.01-3.09,4.19-4.96,2.67-4.21,1.57-10.18-.98-14.14-5.09-1.24-10.41-3.36-15.5-4.38-6.15-1.23-7.96,1.22-9.67,6.61-1.32,4.16-3.94,11.39.83,14.12l25.52,7.21c2.19.3,3.66-.76,5.3-2,1.55-1.17,3.68-3.36,4.24-5.36Z"/>
</svg>