<?xml version="1.0" encoding="UTF-8"?>
<svg id="Layer_1" data-name="Layer 1" xmlns="http://www.w3.org/2000/svg" viewBox="0 0 160.56 150.77">
  <defs>
    <style>
      .cls-1 {
        fill: #fff;
      }

      .cls-2 {
        fill: none;
      }

      .cls-3 {
        fill: #c02326;
      }

      .cls-4 {
        fill: #d0d9da;
      }

      .cls-5 {
        fill: #3d5039;
      }

      .cls-6 {
        fill: #010101;
      }

      .cls-7 {
        fill: #ea743d;
      }
    </style>
  </defs>
  <path class="cls-1" d="M88.81,111.07c3.8.2,12.56,2.71,12.56,2.71l12.2-14.15,9.44-6.88,12.41,18.31h16.73v22.68h-12.93l-3.81,2.61-4.42.89h-29.29l-15.78-2.9-3.51-15.43,6.4-7.86Z"/>
  <path class="cls-4" d="M114.28,104.98c10.6-20.13,16.81-46.79,18.46-79.25-9.68-3.15-20.45-6.36-30.87-9.46-10.74-3.2-21.85-6.51-31.78-9.76-.03,0-.06.02-.09.03v137.34h.48c18.46-5.68,33.2-18.76,43.8-38.9Z"/>
  <path class="cls-1" d="M25.46,104.98C14.86,84.85,8.65,58.19,7,25.73c9.68-3.15,20.45-6.36,30.87-9.46,10.74-3.2,21.85-6.51,31.78-9.76.03,0,.06.02.09.03v137.34h-.48c-18.46-5.68-33.2-18.76-43.8-38.9Z"/>
  <g>
    <path class="cls-2" d="M134.48,23.58c-9.95-3.26-21.1-6.58-31.88-9.79-10.76-3.2-21.89-6.52-31.81-9.77l-.8-.16-.09-.02-.31.1c-9.92,3.25-21.15,6.58-32.01,9.8-10.88,3.23-22.13,6.56-32.09,9.83l-.94.31.05.99c1.59,33.28,7.92,60.64,18.8,81.32,10.97,20.84,26.29,34.37,45.52,40.23l.18.06h1.75l.18-.06c19.24-5.85,34.55-19.39,45.52-40.23,10.88-20.67,17.21-48.03,18.8-81.32l.05-.99-.94-.31Z"/>
    <path class="cls-6" d="M70,0L0,20.73c3.02,66.76,22.11,114.58,68.66,130.05h2.69c46.55-15.47,65.64-63.29,68.66-130.05L70,0ZM116.58,106.19c-10.97,20.84-26.29,34.37-45.52,40.23l-.18.06h-1.75l-.18-.06c-19.24-5.85-34.55-19.39-45.52-40.23C12.53,85.51,6.2,58.16,4.61,24.87l-.05-.99.94-.31c9.95-3.26,21.21-6.6,32.09-9.83,10.86-3.22,22.09-6.55,32.01-9.8l.31-.1.09.02.8.16c9.92,3.25,21.05,6.56,31.81,9.77,10.78,3.21,21.92,6.53,31.88,9.79l.94.31-.05.99c-1.59,33.28-7.92,60.64-18.8,81.32Z"/>
  </g>
  <g>
    <path class="cls-2" d="M70.09,6.51s-.06.02-.09.03c-9.85,3.22-20.95,6.51-31.68,9.69-10.52,3.12-21.39,6.34-31.08,9.5,1.65,32.46,7.86,59.12,18.46,79.25,10.6,20.14,25.34,33.22,43.8,38.9h.98c18.46-5.68,33.2-18.76,43.8-38.9,10.6-20.13,16.81-46.79,18.46-79.25-9.68-3.15-20.45-6.36-30.87-9.46-10.74-3.2-21.85-6.51-31.78-9.76Z"/>
    <path class="cls-3" d="M134.48,23.58c-9.95-3.26-21.1-6.58-31.88-9.79-10.76-3.2-21.89-6.52-31.81-9.77l-.8-.16-.09-.02-.31.1c-9.92,3.25-21.15,6.58-32.01,9.8-10.88,3.23-22.13,6.56-32.09,9.83l-.94.31.05.99c1.59,33.28,7.92,60.64,18.8,81.32,10.97,20.84,26.29,34.37,45.52,40.23l.18.06h1.75l.18-.06c19.24-5.85,34.55-19.39,45.52-40.23,10.88-20.67,17.21-48.03,18.8-81.32l.05-.99-.94-.31ZM114.28,104.98c-10.6,20.14-25.34,33.22-43.8,38.9h-.98c-18.46-5.68-33.2-18.76-43.8-38.9C15.11,84.85,8.9,58.19,7.25,25.73c9.69-3.15,20.55-6.38,31.08-9.5,10.73-3.18,21.82-6.47,31.68-9.69.03,0,.06-.02.09-.03,9.93,3.25,21.04,6.56,31.78,9.76,10.42,3.1,21.19,6.31,30.87,9.46-1.65,32.46-7.86,59.12-18.46,79.25Z"/>
  </g>
  <path class="cls-6" d="M70.76,143.63h-1.54l-.1-.03c-18.47-5.62-33.18-18.63-43.72-38.66C14.91,85.01,8.81,58.62,7.27,26.49l-.03-.55.52-.17c9.62-3.15,20.42-6.46,30.86-9.66,10.44-3.2,21.23-6.5,30.83-9.65l.11-.04h.55s.11.04.11.04c9.61,3.15,20.47,6.45,30.98,9.65,10.52,3.2,21.39,6.51,31.01,9.66l.52.17-.03.55c-1.54,32.12-7.63,58.52-18.13,78.45-10.54,20.03-25.26,33.04-43.72,38.66l-.1.03ZM69.44,142.19h1.11c18.04-5.52,32.43-18.28,42.77-37.92,10.33-19.63,16.37-45.64,17.94-77.3-9.48-3.1-20.14-6.34-30.46-9.48-10.48-3.19-21.31-6.48-30.9-9.62h-.09c-9.59,3.14-20.35,6.44-30.75,9.62-10.25,3.14-20.84,6.38-30.31,9.48,1.57,31.66,7.6,57.67,17.94,77.3,10.34,19.64,24.73,32.4,42.77,37.92Z"/>
  <path class="cls-7" d="M99.18,51.25h-23.36v-20.16c0-1.64-1.33-2.96-2.96-2.96h-5.16c-1.64,0-2.96,1.33-2.96,2.96v20.16h-23.36c-1.4,0-2.53,1.13-2.53,2.53v6.02c0,1.4,1.13,2.53,2.53,2.53h23.36v56.84c0,1.64,1.33,2.96,2.96,2.96h5.16c1.64,0,2.96-1.33,2.96-2.96v-56.84h23.36c1.4,0,2.53-1.13,2.53-2.53v-6.02c0-1.4-1.13-2.53-2.53-2.53Z"/>
  <g>
    <polygon class="cls-1" points="152.15 135.66 138.32 137.25 100.81 137.16 85.34 136.89 85.34 113.2 101.71 109.65 118.06 97.32 126.68 101.16 134.49 112.52 147.35 112.79 152.15 115 152.15 135.66"/>
    <path class="cls-5" d="M78.29,138.61c-.74-.3-1.29-.74-1.11-1.63.08-.39.62-.78.99-.78h4.3l-.08-28.45c-.5.07-1-.07-1.48-.08-.75-.02-2.02.16-2.68-.05-.83-.26-1.04-1.6-.23-2.05.72-.41,1.52-.15,2.26-.14,6.41.07,12.83-.05,19.24-.02v-13.49s-2.44,0-2.44,0c-.02,0-.34-.2-.4-.24-.99-.74-.24-1.97.8-2.09l43.21.02c1.22.49,1.21,1.81-.12,2.18-.81.23-1.58.08-2.4.05l.08,13.58c6.33-.05,12.67.06,19.01,0,.23,0,.43-.08.64-.09,1.14-.02,2.63-.04,2.37,1.57-.07.42-.68.85-1.08.85h-3.78l-.12,28.45h4.14c.12,0,.71.25.82.35.7.68.21,1.68-.54,2.06h-81.4ZM131,136.36v-18.84c0-.53-.33-1.52-.55-2.02-2.02-4.75-9.27-6.45-10.28-11.34-.2-.95-.03-2.23-1.5-2.02-1.13.16-1,1.69-1.2,2.5-.95,3.94-7.06,6.09-9.4,9.41-1.25,1.77-1.25,2.93-1.26,5-.05,5.77.03,11.55,0,17.32h2.53s.12-.11.12-.12v-18.8c0-.97,1.5-2.77,2.26-3.37,2.44-1.92,5.54-3.34,7.06-6.24l.2.08c1.65,3.69,8.4,5.44,9.25,9.39.09,5.82.28,11.74.12,17.57-.01.48-.15.98-.08,1.48h2.73ZM98.54,129.77v-7.75c0-.14-.16-.73-.22-.91-.64-2.12-2.81-3.74-4.58-4.9-.29-.05-3.01,2.25-3.36,2.63-.43.47-1.57,2.01-1.57,2.61v8.32h9.72ZM139.28,129.77h9.52c.09,0,.12-.2.12-.28.14-1.22-.02-2.97,0-4.27,0-1.17.18-2.23-.02-3.43-.41-2.47-2.62-4.5-4.75-5.59-2.19,1.52-4.92,3.52-4.92,6.47l.05,7.1Z"/>
    <path class="cls-5" d="M119.11,43.63c.04.19-.1.17-.21.23-2.77,1.43-4.72,3.41-4.94,6.72-.53,8.12,9.82,11.68,14.45,4.97.13-.19.45-.89.58-.95.08-.04.16.05.16.08.02.12-.24,1.25-.3,1.47-1.22,4.61-4.59,6.65-9.04,7.35-.1.02-.36.03-.3.18,1.71,2.51,3.94,4.47,6.4,6.21,3.08,2.18,7.72,4.31,9.36,7.84,1.19,2.56,1.02,5.15-.29,7.61-.39.73-.83,1.71-1.77,1.68-9.37.15-18.75-.23-28.13-.08-.42,0-.89.24-1.28-.08-.24-.2-1-1.45-1.18-1.79-2.32-4.31-.44-8.36,3.11-11.14,3.7-2.9,7.96-4.72,11.09-8.44.34-.4,1.19-1.44,1.32-1.9.04-.16-.02-.09-.1-.12-.23-.08-.47-.06-.7-.11-10.4-2.38-10.84-16.22-.88-19.37l1.61-.36h1.04Z"/>
  </g>
</svg>