<?xml version="1.0" encoding="UTF-8"?>
<svg id="Layer_1" data-name="Layer 1" xmlns="http://www.w3.org/2000/svg" viewBox="0 0 150.18 176.39">
  <defs>
    <style>
      .cls-1 {
        fill: #fff;
      }

      .cls-2 {
        fill: none;
      }

      .cls-3 {
        fill: #c02326;
      }

      .cls-4 {
        fill: #d0d9da;
      }

      .cls-5 {
        fill: #3d5039;
      }

      .cls-6 {
        fill: #010101;
      }

      .cls-7 {
        fill: #ea743d;
      }
    </style>
  </defs>
  <path class="cls-4" d="M119.09,104.98c10.6-20.13,16.81-46.79,18.46-79.25-9.68-3.15-20.45-6.36-30.87-9.46-10.74-3.2-21.85-6.51-31.78-9.76-.03,0-.06.02-.09.03v137.34h.48c18.46-5.68,33.2-18.76,43.8-38.9Z"/>
  <path class="cls-1" d="M30.26,104.98C19.67,84.85,13.46,58.19,11.81,25.73c9.68-3.15,20.45-6.36,30.87-9.46,10.74-3.2,21.85-6.51,31.78-9.76.03,0,.06.02.09.03v137.34h-.48c-18.46-5.68-33.2-18.76-43.8-38.9Z"/>
  <g>
    <path class="cls-2" d="M139.29,23.58c-9.95-3.26-21.1-6.58-31.88-9.79-10.76-3.2-21.89-6.52-31.81-9.77l-.8-.16-.09-.02-.31.1c-9.92,3.25-21.15,6.58-32.01,9.8-10.88,3.23-22.13,6.56-32.09,9.83l-.94.31.05.99c1.59,33.28,7.92,60.64,18.8,81.32,10.97,20.84,26.29,34.37,45.52,40.23l.18.06h1.75l.18-.06c19.24-5.85,34.55-19.39,45.52-40.23,10.88-20.67,17.21-48.03,18.8-81.32l.05-.99-.94-.31Z"/>
    <path class="cls-6" d="M74.81,0L4.8,20.73c3.02,66.76,22.11,114.58,68.66,130.05h2.69c46.55-15.47,65.64-63.29,68.66-130.05L74.81,0ZM121.38,106.19c-10.97,20.84-26.29,34.37-45.52,40.23l-.18.06h-1.75l-.18-.06c-19.24-5.85-34.55-19.39-45.52-40.23C17.33,85.51,11.01,58.16,9.42,24.87l-.05-.99.94-.31c9.95-3.26,21.21-6.6,32.09-9.83,10.86-3.22,22.09-6.55,32.01-9.8l.31-.1.09.02.8.16c9.92,3.25,21.05,6.56,31.81,9.77,10.78,3.21,21.92,6.53,31.88,9.79l.94.31-.05.99c-1.59,33.28-7.92,60.64-18.8,81.32Z"/>
  </g>
  <g>
    <path class="cls-2" d="M74.89,6.51s-.06.02-.09.03c-9.85,3.22-20.95,6.51-31.68,9.69-10.52,3.12-21.39,6.34-31.08,9.5,1.65,32.46,7.86,59.12,18.46,79.25,10.6,20.14,25.34,33.22,43.8,38.9h.98c18.46-5.68,33.2-18.76,43.8-38.9,10.6-20.13,16.81-46.79,18.46-79.25-9.68-3.15-20.45-6.36-30.87-9.46-10.74-3.2-21.85-6.51-31.78-9.76Z"/>
    <path class="cls-3" d="M139.29,23.58c-9.95-3.26-21.1-6.58-31.88-9.79-10.76-3.2-21.89-6.52-31.81-9.77l-.8-.16-.09-.02-.31.1c-9.92,3.25-21.15,6.58-32.01,9.8-10.88,3.23-22.13,6.56-32.09,9.83l-.94.31.05.99c1.59,33.28,7.92,60.64,18.8,81.32,10.97,20.84,26.29,34.37,45.52,40.23l.18.06h1.75l.18-.06c19.24-5.85,34.55-19.39,45.52-40.23,10.88-20.67,17.21-48.03,18.8-81.32l.05-.99-.94-.31ZM119.09,104.98c-10.6,20.14-25.34,33.22-43.8,38.9h-.98c-18.46-5.68-33.2-18.76-43.8-38.9C19.91,84.85,13.7,58.19,12.06,25.73c9.69-3.15,20.55-6.38,31.08-9.5,10.73-3.18,21.82-6.47,31.68-9.69.03,0,.06-.02.09-.03,9.93,3.25,21.04,6.56,31.78,9.76,10.42,3.1,21.19,6.31,30.87,9.46-1.65,32.46-7.86,59.12-18.46,79.25Z"/>
  </g>
  <path class="cls-6" d="M75.57,143.63h-1.54l-.1-.03c-18.47-5.62-33.18-18.63-43.72-38.66C19.71,85.01,13.61,58.62,12.08,26.49l-.03-.55.52-.17c9.62-3.15,20.42-6.46,30.86-9.66,10.44-3.2,21.23-6.5,30.83-9.65l.11-.04h.55s.11.04.11.04c9.61,3.15,20.47,6.45,30.98,9.65,10.52,3.2,21.39,6.51,31.01,9.66l.52.17-.03.55c-1.54,32.12-7.63,58.52-18.13,78.45-10.54,20.03-25.26,33.04-43.72,38.66l-.1.03ZM74.25,142.19h1.11c18.04-5.52,32.43-18.28,42.77-37.92,10.33-19.63,16.37-45.64,17.94-77.3-9.48-3.1-20.14-6.34-30.46-9.48-10.48-3.19-21.31-6.48-30.9-9.62h-.09c-9.59,3.14-20.35,6.44-30.75,9.62-10.25,3.14-20.84,6.38-30.31,9.48,1.57,31.66,7.6,57.67,17.94,77.3,10.34,19.64,24.73,32.4,42.77,37.92Z"/>
  <path class="cls-7" d="M103.98,51.25h-23.36v-20.16c0-1.64-1.33-2.96-2.96-2.96h-5.16c-1.64,0-2.96,1.33-2.96,2.96v20.16h-23.36c-1.4,0-2.53,1.13-2.53,2.53v6.02c0,1.4,1.13,2.53,2.53,2.53h23.36v56.84c0,1.64,1.33,2.96,2.96,2.96h5.16c1.64,0,2.96-1.33,2.96-2.96v-56.84h23.36c1.4,0,2.53-1.13,2.53-2.53v-6.02c0-1.4-1.13-2.53-2.53-2.53Z"/>
  <path class="cls-5" d="M128.48,124.2c-.06.02-.15.16-.13.23.48,1.89.57,3.84.74,5.78.24,2.79.4,5.57.53,8.36.05,1.12.16,2.21.1,3.33-.05,1.01-.3,2.03-.37,3.02-.02.22.12.55,0,.69-.07.09-.31.07-.32.26-.01.26.42.93.54,1.21.29.72.16.87.2,1.55,0,.11.1.32.09.34-.03.06-1.06.64-1.14.66-.19.05-.43-.02-.58.05-.22.1-.69.77-.83.81-.16.05-.39-.01-.57.01s-.3.14-.53.16c-1.01.09-2.19-.05-3.2-.03-.15-.09-.11-.29-.17-.41-.09-.17-.21-.18-.25-.44s-.09-2.17-.05-2.37c.04-.16.27-.44.3-.6.02-.11.02-.47,0-.58-.03-.13-.21-.24-.29-.4-.11-.22-.41-1.27-.44-1.52-.03-.27.06-.46.03-.72-.09-.99-.64-2.44-.83-3.51-.55-3.14-.99-6.32-1.62-9.45-.15-.76-.45-1.42-.66-2.15s-.52-2.8-.89-3.29c-.18-.24-.19-.11-.42-.11-.71,0-1.22-.04-1.9-.11-.14-.01-.68.01-.77.08-.17.12-.09,1.6-.1,1.91-.17,4.27-.34,8.54-.64,12.81-.08,1.2-.28,2.39-.32,3.6-.01.37.11.69.11.95,0,.34-.09,1.21-.17,1.53-.03.14-.18.2-.2.33-.03.16.05.31.06.47,0,.3.02,1.36-.17,1.55-.14.13-2.08.05-2.45.06-2.94.1-5.89.25-8.84.32-.53.01-1.12.05-1.64.05-.23,0-.52-.1-.78-.07-.21.01-.37-.63-.36-.75.02-.11.21-.33.28-.47.05-.11.02-.28.12-.36.43-.11.8-.42,1.24-.51.71-.15,1.37-.03,2.1-.28.32-.11,1.37-.65,1.54-.9.28-.6.42-1.33.67-1.92.09-.21.26-.37.35-.61.23-.58.31-1.48.24-2.06-.09-.73-.17-1.48-.17-2.21,0-.41.11-.79.11-1.17,0-1.45-.12-2.91-.21-4.34-.17-2.6-.29-5.14-.64-7.72-.05-.36-.1-1.13-.22-1.42-.03-.07-.16-.22-.23-.24-.35-.02-.73-.06-1.06-.15-.37-.11-.66-.34-1-.48-.64-.27-2.27-.62-2.96-.64-.59-.02-.49.03-1.09-.13-.45-.12-.92-.08-1.38-.15-1.11-.16-2.18-.48-3.25-.77-.62-.17-1.44-.3-2.01-.58-.15-.07-.17-.21-.18-.36.17-.78.29-1.58.44-2.37.43-2.17.93-4.34,1.28-6.5.5-3.1,1-6.2,1.53-9.32.42-2.41,1.01-4.78,1.44-7.19.13-.73.42-1.94.44-2.63,0-.24-.12-.39-.1-.62.06-1.01.75-2.8,1.01-3.86.57-2.32,1.03-4.66,1.6-6.98.4-1.65.88-3.27,1.25-4.93-.03-.11-.41-.26-.54-.31-1.83-.82-3.82-1.41-5.68-2.26-5.05-2.29-9.48-5.75-14.11-8.75-.83-.54-.54-.9-.62-1.71-.02-.24-.15-.45-.16-.69-.02-.41.2-.94.32-1.33,0-.05,0-.09-.03-.13-.06-.11-.83-.37-1.02-.47-1.17-.59-2.57-1.94-3.54-2.87-.59-.56-1.3-1.17-1.59-1.91-.16-.42-1.1-.69-1.18-1.26-.02-.12.06-.21.02-.33-.08-.26-.57-.42-.22-.84.3-.35.63-.09.82-.19.13-.07.1-.37.33-.46.45-.19,1.08.15,1.5.32,1.03.42,1.99.97,3.06,1.33.14.05.95.33,1,.31.04,0,.08-.08.08-.13,0-.15-.62-1-.73-1.23-.27-.53-.69-1.88.28-1.88.23,0,.29.03.45.19.46.46.94,1.47,1.36,2.03.64.85,1.42,1.64,1.87,2.63.1.23.36,1.22.47,1.29.06.04.2.05.3.11,2.1,1.29,4.1,2.73,6.31,3.85.72.36,1.48.65,2.19,1.04.39.21.77.52,1.14.71.29.15.62.2.9.37.5.29,1.18,1.03,1.69,1.22.21.08.36.03.55.08.16.04.33.21.47.27.83.34,1.8.82,2.59,1.11.56.2,1.22.33,1.8.53.12.04.26.18.35.19.09,0,.46-.23.69-.26.37-.04.59.11.84.1.21,0,.54-.27.81-.31.59-.09.91.08,1.42.14.75.09,1.5.05,2.26.17.42.07,1.01.3,1.39.31.5.01,1.02-.03,1.53,0,.37.02.78.17,1.16.1.3-.05.72-.92.98-1.19.23-.24.55-.37.79-.59-.45-.78-1.06-1.44-1.3-2.34-.19-.68-.21-2.65-.02-3.33.21-.79.39-1.29.43-2.16.01-.31-.2-.43.16-.74.28-.25.32-.18.54-.57s.21-.7.37-1.06c.09-.21.52-.82.68-1.01.45-.53,1.06-.74,1.73-.91,1.11-.28,3.24-.31,4.3.17.86.39,2.57,1.79,2.96,2.65.72,1.62-.55,4.44-.88,6.15-.06.32-.02.63-.12.99-.13.48-.46.92-.6,1.35-.21.62.16.44.57.54.24.06.51.65.72.86.29.3.66.44.93.66.1.08.18.29.27.31.11.03.35-.11.5-.03,2.33.5,4.63,1.16,6.92,1.76.5.13,2.05,1.81,2.3,2.3.15.29.23.71.37,1,.26.56,1.43,1.07,1.96,1.48,1.86,1.47,3.59,3.58,5.05,5.43.78.99,2.19,2.67,2.06,3.97-.08.84-1.64,2.95-2.2,3.73-1.43,1.98-3.44,3.61-5.29,5.19-.16.14-.45.29-.58.43-.14.15-.16.33-.34.5-.32.3-.52.24-.8.37-.07.04-.18.29-.29.4-.32.32-.59.3-.91.46-.3.15-1.59,1.08-1.78,1.06-.59-.28-.92-.79-1.27-1.32-.08-.12-.33-.75-.51-.63-.02.01-.1.34-.13.42-.13.3-.49.94-.54,1.2-.08.41-.04.89-.14,1.34-.08.36-.5,1.02-.51,1.24s.1.56.11.79c.04,1.07-.05,2.16,0,3.23s.18,2.1.21,3.18c.03,1.21.17,2.35.21,3.54.11,2.77.56,5.57.85,8.36.24,2.35.4,4.74.53,7.09,0,.14.04.82-.13.82-.2,0-.75-.04-.9,0ZM129.89,80.87c-.81,2.12-1.46,4.3-2.07,6.48-.05.4.48-.05.6-.15.99-.77,3.1-2.23,3.79-3.15.16-.21.22-.52.4-.72.16-.19.71-.37.4-.6-.85-.51-1.65-1.12-2.49-1.64-.13-.08-.51-.35-.62-.23Z"/>
  <g>
    <path class="cls-6" d="M1.36,171.86v-10.46h3.29c1.85,0,3.24.42,4.17,1.27.92.85,1.39,2.12,1.39,3.83s-.51,2.92-1.53,3.9-2.38,1.47-4.08,1.47H1.36ZM3.13,162.9v7.46h1.37c1.2,0,2.14-.34,2.82-1.01.68-.68,1.01-1.62,1.01-2.82s-.32-2.07-.97-2.69c-.64-.62-1.59-.93-2.83-.93h-1.4Z"/>
    <path class="cls-6" d="M14.03,171.86h-1.78v-10.46h1.78v10.46Z"/>
    <path class="cls-6" d="M24.39,171.32c-.53.25-1.05.44-1.55.55-.5.11-1.05.17-1.63.17-1.6,0-2.86-.47-3.77-1.4s-1.36-2.21-1.36-3.84.5-2.99,1.51-4.02,2.32-1.55,3.94-1.55c.53,0,1.02.04,1.46.13.44.09.89.23,1.35.42l-.58,1.45c-.37-.16-.72-.27-1.07-.34-.35-.07-.72-.11-1.13-.11-1.05,0-1.91.35-2.58,1.05-.68.7-1.01,1.65-1.01,2.84s.31,2.1.93,2.78c.62.68,1.46,1.02,2.51,1.02.35,0,.72-.05,1.11-.14.39-.09.79-.24,1.2-.45l.69,1.44Z"/>
    <path class="cls-6" d="M32.98,162.9h-3.01v8.96h-1.77v-8.96h-3v-1.5h7.78v1.5Z"/>
    <path class="cls-6" d="M32.48,171.86l3.91-10.46h2.01l3.88,10.46h-1.96l-.88-2.5h-4.18l-.85,2.5h-1.94ZM35.73,167.9h3.24l-1.43-4.13c-.03-.11-.06-.21-.09-.33-.03-.11-.05-.24-.08-.4h-.04c-.02.14-.05.27-.08.38-.03.11-.06.22-.09.33l-1.43,4.14Z"/>
    <path class="cls-6" d="M49.71,162.9h-3.01v8.96h-1.77v-8.96h-3v-1.5h7.78v1.5Z"/>
    <path class="cls-6" d="M55.02,172.03c-1.49,0-2.7-.49-3.61-1.46-.92-.98-1.38-2.25-1.38-3.81,0-1.67.47-3.01,1.4-4.02.93-1.01,2.19-1.52,3.76-1.52,1.47,0,2.65.49,3.56,1.46.9.98,1.35,2.26,1.35,3.84,0,1.68-.46,3.02-1.39,4.01-.93,1-2.16,1.5-3.68,1.5ZM55.04,170.48c.99,0,1.77-.33,2.33-1s.85-1.6.85-2.8-.28-2.19-.83-2.87c-.55-.68-1.32-1.02-2.28-1.02s-1.75.35-2.33,1.06-.88,1.64-.88,2.8.29,2.1.87,2.79c.58.7,1.34,1.04,2.28,1.04Z"/>
    <path class="cls-6" d="M70.09,171.86h-2.04l-1.6-2.78c-.28-.49-.54-.82-.77-1.01-.23-.19-.51-.29-.82-.29h-.93v4.08h-1.77v-10.46h3.41c1.09,0,1.94.24,2.56.73s.93,1.21.93,2.17c0,.72-.2,1.33-.59,1.83-.4.5-.94.87-1.63,1.1v.03c.26.11.5.28.72.51.22.23.42.51.61.83l1.93,3.25ZM63.92,162.83v3.5h1.35c.56,0,1.02-.18,1.38-.53.36-.35.54-.8.54-1.33s-.16-.92-.47-1.2c-.32-.29-.78-.43-1.4-.43h-1.39Z"/>
    <path class="cls-6" d="M77.48,168.22v3.64h-1.77v-10.46h3.28c1.22,0,2.14.28,2.78.84.64.56.96,1.38.96,2.46s-.36,1.89-1.08,2.55c-.72.65-1.68.98-2.9.98h-1.26ZM77.48,162.85v3.92h1.11c.74,0,1.31-.17,1.69-.51.38-.34.57-.84.57-1.49s-.18-1.13-.54-1.45c-.36-.32-.91-.48-1.63-.48h-1.19Z"/>
    <path class="cls-6" d="M82.72,171.86l3.91-10.46h2.01l3.88,10.46h-1.96l-.88-2.5h-4.18l-.85,2.5h-1.94ZM85.97,167.9h3.24l-1.43-4.13c-.03-.11-.06-.21-.09-.33-.03-.11-.05-.24-.08-.4h-.04c-.02.14-.05.27-.08.38s-.06.22-.09.33l-1.43,4.14Z"/>
    <path class="cls-6" d="M102.03,171.86h-2.04l-1.6-2.78c-.28-.49-.54-.82-.77-1.01-.23-.19-.51-.29-.82-.29h-.93v4.08h-1.77v-10.46h3.41c1.09,0,1.94.24,2.56.73s.93,1.21.93,2.17c0,.72-.2,1.33-.59,1.83-.4.5-.94.87-1.63,1.1v.03c.26.11.5.28.72.51.22.23.42.51.61.83l1.93,3.25ZM95.87,162.83v3.5h1.35c.56,0,1.02-.18,1.38-.53.36-.35.54-.8.54-1.33s-.16-.92-.47-1.2-.78-.43-1.4-.43h-1.39Z"/>
    <path class="cls-6" d="M102.38,171.86l3.91-10.46h2.01l3.88,10.46h-1.96l-.88-2.5h-4.18l-.85,2.5h-1.94ZM105.63,167.9h3.24l-1.43-4.13c-.03-.11-.06-.21-.09-.33-.03-.11-.05-.24-.08-.4h-.04c-.02.14-.05.27-.08.38s-.06.22-.09.33l-1.43,4.14Z"/>
    <path class="cls-6" d="M122.66,171.86h-1.93l-4.86-7.48c-.1-.15-.18-.29-.25-.42-.07-.13-.13-.24-.18-.34h-.04c.02.15.03.35.04.61s.01.57.01.95v6.68h-1.71v-10.46h2.06l4.71,7.31c.1.16.19.3.27.43.08.13.14.25.19.35h.03c-.02-.14-.03-.33-.04-.58,0-.25-.01-.55-.01-.91v-6.6h1.71v10.46Z"/>
    <path class="cls-6" d="M129.7,172.03c-1.49,0-2.7-.49-3.62-1.46-.92-.98-1.38-2.25-1.38-3.81,0-1.67.47-3.01,1.4-4.02.93-1.01,2.19-1.52,3.76-1.52,1.47,0,2.65.49,3.56,1.46.9.98,1.35,2.26,1.35,3.84,0,1.68-.46,3.02-1.39,4.01-.93,1-2.16,1.5-3.68,1.5ZM129.72,170.48c.99,0,1.77-.33,2.33-1,.57-.67.85-1.6.85-2.8s-.28-2.19-.83-2.87-1.32-1.02-2.28-1.02-1.75.35-2.33,1.06c-.59.71-.88,1.64-.88,2.8s.29,2.1.87,2.79c.58.7,1.34,1.04,2.28,1.04Z"/>
    <path class="cls-6" d="M138.61,171.86h-1.78v-10.46h1.78v10.46Z"/>
    <path class="cls-6" d="M140.16,171.86l3.91-10.46h2.01l3.88,10.46h-1.96l-.88-2.5h-4.18l-.85,2.5h-1.94ZM143.41,167.9h3.24l-1.43-4.13c-.03-.11-.06-.21-.09-.33-.03-.11-.05-.24-.08-.4h-.04c-.02.14-.05.27-.08.38s-.06.22-.09.33l-1.43,4.14Z"/>
  </g>
</svg>