<?xml version="1.0" encoding="UTF-8"?>
<svg id="Layer_1" data-name="Layer 1" xmlns="http://www.w3.org/2000/svg" viewBox="0 0 149.24 193">
  <defs>
    <style>
      .cls-1 {
        fill: #fff;
      }

      .cls-2 {
        fill: none;
      }

      .cls-3 {
        fill: #c02326;
      }

      .cls-4 {
        fill: #d0d9da;
      }

      .cls-5 {
        fill: #3d5039;
      }

      .cls-6 {
        fill: #010101;
      }

      .cls-7 {
        fill: #ea743d;
      }
    </style>
  </defs>
  <g>
    <path class="cls-6" d="M11.59,170.54h-5.89v-10.46h5.66v1.5h-3.89v2.92h3.61v1.5h-3.61v3.05h4.12v1.5Z"/>
    <path class="cls-6" d="M20.34,161.58h-3.01v8.96h-1.77v-8.96h-3v-1.5h7.78v1.5Z"/>
    <path class="cls-6" d="M30.46,170.54h-1.78v-4.52h-4.89v4.52h-1.77v-10.46h1.77v4.39h4.89v-4.39h1.78v10.46Z"/>
    <path class="cls-6" d="M42.09,170.54h-1.93l-4.86-7.48c-.1-.15-.18-.29-.26-.42-.07-.13-.13-.24-.18-.34h-.04c.02.15.03.35.04.61s.01.57.01.95v6.68h-1.71v-10.46h2.06l4.71,7.31c.1.16.19.3.27.43.08.13.14.25.19.35h.03c-.02-.14-.03-.33-.04-.58,0-.25-.01-.55-.01-.91v-6.6h1.71v10.46Z"/>
    <path class="cls-6" d="M49.13,170.72c-1.49,0-2.7-.49-3.61-1.46-.92-.98-1.38-2.25-1.38-3.81,0-1.67.47-3.01,1.4-4.02.93-1.01,2.19-1.52,3.76-1.52,1.47,0,2.65.49,3.56,1.46.9.98,1.35,2.26,1.35,3.84,0,1.68-.46,3.02-1.39,4.01-.93,1-2.16,1.5-3.68,1.5ZM49.15,169.16c.99,0,1.77-.33,2.33-1s.85-1.6.85-2.8-.28-2.19-.83-2.87c-.55-.68-1.32-1.02-2.28-1.02s-1.75.35-2.33,1.06-.88,1.64-.88,2.8.29,2.1.87,2.79c.58.7,1.34,1.04,2.28,1.04Z"/>
    <path class="cls-6" d="M56.02,167.05v-1.26h3.98v1.26h-3.98Z"/>
    <path class="cls-6" d="M70.35,170.54h-2.04l-1.6-2.78c-.28-.49-.54-.82-.77-1.01-.23-.19-.51-.29-.82-.29h-.93v4.08h-1.77v-10.46h3.41c1.09,0,1.94.24,2.56.73s.93,1.21.93,2.17c0,.72-.2,1.33-.59,1.83-.4.5-.94.87-1.63,1.1v.03c.26.11.5.28.72.51.22.23.42.51.61.83l1.93,3.25ZM64.18,161.52v3.5h1.35c.56,0,1.02-.18,1.38-.53.36-.35.54-.8.54-1.33s-.16-.92-.47-1.2c-.32-.29-.78-.43-1.4-.43h-1.39Z"/>
    <path class="cls-6" d="M77.75,170.54h-5.89v-10.46h5.66v1.5h-3.89v2.92h3.61v1.5h-3.61v3.05h4.12v1.5Z"/>
    <path class="cls-6" d="M85.57,170.54h-5.82v-10.46h1.77v8.97h4.05v1.5Z"/>
    <path class="cls-6" d="M89.01,170.54h-1.78v-10.46h1.78v10.46Z"/>
    <path class="cls-6" d="M99.93,169.79c-.51.3-1.07.53-1.68.69s-1.27.24-1.97.24c-1.59,0-2.86-.45-3.8-1.35-.94-.9-1.41-2.2-1.41-3.91s.5-2.99,1.51-4.02c1-1.03,2.34-1.54,4.02-1.54.62,0,1.2.06,1.72.18.53.12,1.06.3,1.61.55l-.63,1.4c-.45-.21-.88-.37-1.3-.46-.42-.09-.89-.14-1.4-.14-1.09,0-1.97.34-2.64,1.01s-1.01,1.65-1.01,2.92.31,2.24.93,2.88c.62.63,1.47.95,2.55.95.34,0,.66-.03.96-.09.29-.06.55-.15.79-.27v-2.5h-2.2v-1.49h3.98v4.95Z"/>
    <path class="cls-6" d="M104.09,170.54h-1.78v-10.46h1.78v10.46Z"/>
    <path class="cls-6" d="M111.13,170.72c-1.49,0-2.7-.49-3.62-1.46-.92-.98-1.38-2.25-1.38-3.81,0-1.67.47-3.01,1.4-4.02.93-1.01,2.19-1.52,3.76-1.52,1.47,0,2.65.49,3.56,1.46.9.98,1.35,2.26,1.35,3.84,0,1.68-.46,3.02-1.39,4.01-.93,1-2.16,1.5-3.68,1.5ZM111.16,169.16c.99,0,1.77-.33,2.33-1,.57-.67.85-1.6.85-2.8s-.28-2.19-.83-2.87-1.32-1.02-2.28-1.02-1.75.35-2.33,1.06c-.59.71-.88,1.64-.88,2.8s.29,2.1.87,2.79c.58.7,1.34,1.04,2.28,1.04Z"/>
    <path class="cls-6" d="M126.34,166.15c0,1.52-.35,2.66-1.04,3.42s-1.74,1.14-3.14,1.14-2.35-.37-3.02-1.1c-.67-.73-1.01-1.84-1.01-3.32v-6.21h1.77v6.2c0,.96.2,1.68.59,2.16.39.48.99.72,1.77.72s1.34-.23,1.72-.7.57-1.16.57-2.1v-6.29h1.77v6.08Z"/>
    <path class="cls-6" d="M128.09,169.77l.79-1.37c.48.3.92.51,1.33.64s.87.19,1.36.19c.6,0,1.07-.13,1.41-.39s.51-.63.51-1.11c0-.44-.14-.78-.43-1.03-.29-.25-.77-.48-1.46-.69-1.07-.31-1.86-.7-2.36-1.17s-.75-1.11-.75-1.91c0-.87.32-1.59.97-2.16.65-.58,1.53-.86,2.65-.86.49,0,.98.06,1.45.17.48.11.94.28,1.4.52l-.69,1.4c-.39-.21-.77-.36-1.13-.46s-.74-.14-1.11-.14c-.55,0-.98.12-1.29.36-.31.24-.47.58-.47,1.02,0,.39.14.69.43.92.29.22.78.44,1.49.66,1.09.32,1.88.72,2.36,1.21.48.49.72,1.16.72,2.01,0,.92-.33,1.67-.98,2.26-.65.59-1.59.88-2.8.88-.61,0-1.2-.08-1.78-.24-.58-.16-1.12-.39-1.62-.7Z"/>
    <path class="cls-6" d="M43.24,188.47h-1.78v-4.52h-4.89v4.52h-1.77v-10.46h1.77v4.39h4.89v-4.39h1.78v10.46Z"/>
    <path class="cls-6" d="M50.28,188.64c-1.49,0-2.7-.49-3.61-1.46-.92-.97-1.38-2.25-1.38-3.81,0-1.67.47-3.01,1.4-4.02.93-1.01,2.19-1.52,3.76-1.52,1.47,0,2.65.49,3.56,1.46.9.97,1.35,2.25,1.35,3.84,0,1.68-.46,3.02-1.39,4.01-.93,1-2.16,1.5-3.68,1.5ZM50.3,187.09c.99,0,1.77-.33,2.33-1,.57-.67.85-1.6.85-2.81s-.28-2.19-.83-2.87c-.55-.68-1.32-1.02-2.28-1.02s-1.75.35-2.33,1.06c-.59.71-.88,1.64-.88,2.8s.29,2.1.87,2.79c.58.7,1.34,1.04,2.28,1.04Z"/>
    <path class="cls-6" d="M56.56,187.7l.79-1.37c.48.3.92.51,1.33.64s.86.19,1.36.19c.6,0,1.07-.13,1.41-.39s.51-.63.51-1.11c0-.44-.14-.78-.43-1.03-.28-.25-.77-.48-1.46-.69-1.07-.31-1.86-.7-2.36-1.17-.5-.47-.75-1.11-.75-1.91,0-.87.32-1.59.97-2.16s1.53-.86,2.65-.86c.49,0,.98.06,1.45.17.48.11.94.28,1.4.52l-.69,1.4c-.39-.21-.77-.36-1.13-.46-.37-.09-.74-.14-1.11-.14-.55,0-.98.12-1.29.36-.31.24-.47.58-.47,1.02,0,.39.14.69.43.92.29.22.78.44,1.49.66,1.09.32,1.88.72,2.36,1.21s.72,1.16.72,2.01c0,.92-.33,1.67-.98,2.26-.65.59-1.59.88-2.8.88-.61,0-1.2-.08-1.78-.24-.58-.16-1.12-.39-1.62-.7Z"/>
    <path class="cls-6" d="M72.49,179.51h-3.01v8.96h-1.77v-8.96h-3v-1.5h7.78v1.5Z"/>
    <path class="cls-6" d="M75.96,188.47h-1.78v-10.46h1.78v10.46Z"/>
    <path class="cls-6" d="M84.5,188.47h-5.82v-10.46h1.77v8.97h4.05v1.5Z"/>
    <path class="cls-6" d="M87.94,188.47h-1.78v-10.46h1.78v10.46Z"/>
    <path class="cls-6" d="M97.4,179.51h-3.01v8.96h-1.77v-8.96h-3v-1.5h7.78v1.5Z"/>
    <path class="cls-6" d="M106.69,178.01l-3.42,6.67v3.79h-1.78v-3.76l-3.33-6.7h2.01l2.03,4.33s.04.11.09.24.1.29.16.51h.03c.02-.13.06-.26.1-.38s.09-.24.15-.35l2.09-4.34h1.88Z"/>
  </g>
  <path class="cls-4" d="M114.28,104.98c10.6-20.13,16.81-46.79,18.46-79.25-9.68-3.15-20.45-6.36-30.87-9.46-10.74-3.2-21.85-6.51-31.78-9.76-.03,0-.06.02-.09.03v137.34h.48c18.46-5.68,33.2-18.76,43.8-38.9Z"/>
  <path class="cls-1" d="M25.46,104.98C14.86,84.85,8.65,58.19,7,25.73c9.68-3.15,20.45-6.36,30.87-9.46,10.74-3.2,21.85-6.51,31.78-9.76.03,0,.06.02.09.03v137.34h-.48c-18.46-5.68-33.2-18.76-43.8-38.9Z"/>
  <g>
    <path class="cls-2" d="M134.48,23.58c-9.95-3.26-21.1-6.58-31.88-9.79-10.76-3.2-21.89-6.52-31.81-9.77l-.8-.16-.09-.02-.31.1c-9.92,3.25-21.15,6.58-32.01,9.8-10.88,3.23-22.13,6.56-32.09,9.83l-.94.31.05.99c1.59,33.28,7.92,60.64,18.8,81.32,10.97,20.84,26.29,34.37,45.52,40.23l.18.06h1.75l.18-.06c19.24-5.85,34.55-19.39,45.52-40.23,10.88-20.67,17.21-48.03,18.8-81.32l.05-.99-.94-.31Z"/>
    <path class="cls-6" d="M70,0L0,20.73c3.02,66.76,22.11,114.58,68.66,130.05h2.69c46.55-15.47,65.64-63.29,68.66-130.05L70,0ZM116.58,106.19c-10.97,20.84-26.29,34.37-45.52,40.23l-.18.06h-1.75l-.18-.06c-19.24-5.85-34.55-19.39-45.52-40.23C12.53,85.51,6.2,58.16,4.61,24.87l-.05-.99.94-.31c9.95-3.26,21.21-6.6,32.09-9.83,10.86-3.22,22.09-6.55,32.01-9.8l.31-.1.09.02.8.16c9.92,3.25,21.05,6.56,31.81,9.77,10.78,3.21,21.92,6.53,31.88,9.79l.94.31-.05.99c-1.59,33.28-7.92,60.64-18.8,81.32Z"/>
  </g>
  <g>
    <path class="cls-2" d="M70.09,6.51s-.06.02-.09.03c-9.85,3.22-20.95,6.51-31.68,9.69-10.52,3.12-21.39,6.34-31.08,9.5,1.65,32.46,7.86,59.12,18.46,79.25,10.6,20.14,25.34,33.22,43.8,38.9h.98c18.46-5.68,33.2-18.76,43.8-38.9,10.6-20.13,16.81-46.79,18.46-79.25-9.68-3.15-20.45-6.36-30.87-9.46-10.74-3.2-21.85-6.51-31.78-9.76Z"/>
    <path class="cls-3" d="M134.48,23.58c-9.95-3.26-21.1-6.58-31.88-9.79-10.76-3.2-21.89-6.52-31.81-9.77l-.8-.16-.09-.02-.31.1c-9.92,3.25-21.15,6.58-32.01,9.8-10.88,3.23-22.13,6.56-32.09,9.83l-.94.31.05.99c1.59,33.28,7.92,60.64,18.8,81.32,10.97,20.84,26.29,34.37,45.52,40.23l.18.06h1.75l.18-.06c19.24-5.85,34.55-19.39,45.52-40.23,10.88-20.67,17.21-48.03,18.8-81.32l.05-.99-.94-.31ZM114.28,104.98c-10.6,20.14-25.34,33.22-43.8,38.9h-.98c-18.46-5.68-33.2-18.76-43.8-38.9C15.11,84.85,8.9,58.19,7.25,25.73c9.69-3.15,20.55-6.38,31.08-9.5,10.73-3.18,21.82-6.47,31.68-9.69.03,0,.06-.02.09-.03,9.93,3.25,21.04,6.56,31.78,9.76,10.42,3.1,21.19,6.31,30.87,9.46-1.65,32.46-7.86,59.12-18.46,79.25Z"/>
  </g>
  <path class="cls-6" d="M70.76,143.63h-1.54l-.1-.03c-18.47-5.62-33.18-18.63-43.72-38.66C14.91,85.01,8.81,58.62,7.27,26.49l-.03-.55.52-.17c9.62-3.15,20.42-6.46,30.86-9.66,10.44-3.2,21.23-6.5,30.83-9.65l.11-.04h.55s.11.04.11.04c9.61,3.15,20.47,6.45,30.98,9.65,10.52,3.2,21.39,6.51,31.01,9.66l.52.17-.03.55c-1.54,32.12-7.63,58.52-18.13,78.45-10.54,20.03-25.26,33.04-43.72,38.66l-.1.03ZM69.44,142.19h1.11c18.04-5.52,32.43-18.28,42.77-37.92,10.33-19.63,16.37-45.64,17.94-77.3-9.48-3.1-20.14-6.34-30.46-9.48-10.48-3.19-21.31-6.48-30.9-9.62h-.09c-9.59,3.14-20.35,6.44-30.75,9.62-10.25,3.14-20.84,6.38-30.31,9.48,1.57,31.66,7.6,57.67,17.94,77.3,10.34,19.64,24.73,32.4,42.77,37.92Z"/>
  <path class="cls-7" d="M99.18,51.25h-23.36v-20.16c0-1.64-1.33-2.96-2.96-2.96h-5.16c-1.64,0-2.96,1.33-2.96,2.96v20.16h-23.36c-1.4,0-2.53,1.13-2.53,2.53v6.02c0,1.4,1.13,2.53,2.53,2.53h23.36v56.84c0,1.64,1.33,2.96,2.96,2.96h5.16c1.64,0,2.96-1.33,2.96-2.96v-56.84h23.36c1.4,0,2.53-1.13,2.53-2.53v-6.02c0-1.4-1.13-2.53-2.53-2.53Z"/>
  <circle class="cls-1" cx="110.82" cy="118.93" r="26.17"/>
  <path class="cls-5" d="M110.03,42.98c.07,4.92,2.18,9.72,4.78,13.81,3.51,5.54,9.42,10.54,9.14,17.71.55-.26.7-1.08.87-1.63,1.01-3.21.62-6.38.43-9.68,4,1.97,6.33,6.74,7.83,10.76,2.22,5.94,3.31,12.5,3.91,18.81,1.26-.39,2.02-2.11,2.49-3.26.97-2.37,1.19-4.91,1.74-7.39,4.44,6.31,6.4,14.58,5.3,22.25-.67,4.66-3.31,8.91-3.01,13.72,1.14-.3,1.69-1.56,2.35-2.43l2-4.85c1.52,4.73,1.85,10.29.68,15.13-2.99,12.39-17.07,22.44-29.85,20.23-1.56-.27-3.76-.84-4.95-1.89,9.78-4.62,19.51-13.59,19.56-25.22-1.38,1.17-2.85,2.56-4.78,2.61,1.57-4.59,2.71-9.54.43-14.13l-1.7,3.62c-1.53,2.56-3.31,6.17-6.56,6.59.28-.87.78-1.62,1.09-2.5,2.69-7.74-1.82-16.3-5.87-22.72-.38,0-.24.95-.22,1.2.44,6.29,1.19,14.89-1.07,20.86-.68,1.81-2.06,3.43-2.62,5.32-.43.07-.62-.29-.86-.55-3.22-3.51-4.01-7.48-5.86-11.53-.09-.19-.1-.68-.45-.31-.2.21-1.18,4.91-1.27,5.58-.76,5.53-.35,11.44,1.92,16.59-1.45,1.05-4.25-4.48-4.67-5.44-2.26-5.2-3.2-11.19-4.25-16.73l-.92,2.22c-1.15,4.14-2.45,8.43-1.68,12.77l-5-2.61c1.03,8.5,4.88,18.81,12.32,23.65.97.63,2,1.02,3.02,1.54.15.08.73.1.31.45-.33.27-5.03.48-5.77.45-13.52-.7-19.4-13.31-20.1-25.34-.38-6.61,2.42-13.61-.22-19.89,2.39.72,4.03,3,5.65,4.78,2.46-8.51,2.86-17.51,1.96-26.3,2.86,1.18,5.02,4.48,6.42,7.16.43.83.71,1.99,1.14,2.78.14.25-.01.37.48.28,3.76-9.61,4.95-20.21,1.96-30.21,4.53.41,6.92,5.74,8.47,9.44.51.77,1.34-2.01,1.42-2.27,1.73-6.32-.51-13.44,1.01-19.64.39-1.6,1.12-3.66,3.01-3.83ZM112.86,73.08c.12-.99-.08-2.14,0-3.15-2.05,1.09-2.8,4.15-2.17,6.3,1.39-.13,2.03-1.97,2.17-3.15Z"/>
</svg>