<?xml version="1.0" encoding="UTF-8"?>
<svg id="Layer_1" data-name="Layer 1" xmlns="http://www.w3.org/2000/svg" viewBox="0 0 157.42 150.77">
  <defs>
    <style>
      .cls-1 {
        fill: #fff;
      }

      .cls-2 {
        fill: none;
      }

      .cls-3 {
        fill: #c02326;
      }

      .cls-4 {
        fill: #d0d9da;
      }

      .cls-5 {
        fill: #3d5039;
      }

      .cls-6 {
        fill: #010101;
      }

      .cls-7 {
        fill: #ea743d;
      }
    </style>
  </defs>
  <path class="cls-4" d="M114.28,104.98c10.6-20.13,16.81-46.79,18.46-79.25-9.68-3.15-20.45-6.36-30.87-9.46-10.74-3.2-21.85-6.51-31.78-9.76-.03,0-.06.02-.09.03v137.34h.48c18.46-5.68,33.2-18.76,43.8-38.9Z"/>
  <path class="cls-1" d="M25.46,104.98C14.86,84.85,8.65,58.19,7,25.73c9.68-3.15,20.45-6.36,30.87-9.46,10.74-3.2,21.85-6.51,31.78-9.76.03,0,.06.02.09.03v137.34h-.48c-18.46-5.68-33.2-18.76-43.8-38.9Z"/>
  <g>
    <path class="cls-2" d="M134.48,23.58c-9.95-3.26-21.1-6.58-31.88-9.79-10.76-3.2-21.89-6.52-31.81-9.77l-.8-.16-.09-.02-.31.1c-9.92,3.25-21.15,6.58-32.01,9.8-10.88,3.23-22.13,6.56-32.09,9.83l-.94.31.05.99c1.59,33.28,7.92,60.64,18.8,81.32,10.97,20.84,26.29,34.37,45.52,40.23l.18.06h1.75l.18-.06c19.24-5.85,34.55-19.39,45.52-40.23,10.88-20.67,17.21-48.03,18.8-81.32l.05-.99-.94-.31Z"/>
    <path class="cls-6" d="M70,0L0,20.73c3.02,66.76,22.11,114.58,68.66,130.05h2.69c46.55-15.47,65.64-63.29,68.66-130.05L70,0ZM116.58,106.19c-10.97,20.84-26.29,34.37-45.52,40.23l-.18.06h-1.75l-.18-.06c-19.24-5.85-34.55-19.39-45.52-40.23C12.53,85.51,6.2,58.16,4.61,24.87l-.05-.99.94-.31c9.95-3.26,21.21-6.6,32.09-9.83,10.86-3.22,22.09-6.55,32.01-9.8l.31-.1.09.02.8.16c9.92,3.25,21.05,6.56,31.81,9.77,10.78,3.21,21.92,6.53,31.88,9.79l.94.31-.05.99c-1.59,33.28-7.92,60.64-18.8,81.32Z"/>
  </g>
  <g>
    <path class="cls-2" d="M70.09,6.51s-.06.02-.09.03c-9.85,3.22-20.95,6.51-31.68,9.69-10.52,3.12-21.39,6.34-31.08,9.5,1.65,32.46,7.86,59.12,18.46,79.25,10.6,20.14,25.34,33.22,43.8,38.9h.98c18.46-5.68,33.2-18.76,43.8-38.9,10.6-20.13,16.81-46.79,18.46-79.25-9.68-3.15-20.45-6.36-30.87-9.46-10.74-3.2-21.85-6.51-31.78-9.76Z"/>
    <path class="cls-3" d="M134.48,23.58c-9.95-3.26-21.1-6.58-31.88-9.79-10.76-3.2-21.89-6.52-31.81-9.77l-.8-.16-.09-.02-.31.1c-9.92,3.25-21.15,6.58-32.01,9.8-10.88,3.23-22.13,6.56-32.09,9.83l-.94.31.05.99c1.59,33.28,7.92,60.64,18.8,81.32,10.97,20.84,26.29,34.37,45.52,40.23l.18.06h1.75l.18-.06c19.24-5.85,34.55-19.39,45.52-40.23,10.88-20.67,17.21-48.03,18.8-81.32l.05-.99-.94-.31ZM114.28,104.98c-10.6,20.14-25.34,33.22-43.8,38.9h-.98c-18.46-5.68-33.2-18.76-43.8-38.9C15.11,84.85,8.9,58.19,7.25,25.73c9.69-3.15,20.55-6.38,31.08-9.5,10.73-3.18,21.82-6.47,31.68-9.69.03,0,.06-.02.09-.03,9.93,3.25,21.04,6.56,31.78,9.76,10.42,3.1,21.19,6.31,30.87,9.46-1.65,32.46-7.86,59.12-18.46,79.25Z"/>
  </g>
  <path class="cls-6" d="M70.76,143.63h-1.54l-.1-.03c-18.47-5.62-33.18-18.63-43.72-38.66C14.91,85.01,8.81,58.62,7.27,26.49l-.03-.55.52-.17c9.62-3.15,20.42-6.46,30.86-9.66,10.44-3.2,21.23-6.5,30.83-9.65l.11-.04h.55s.11.04.11.04c9.61,3.15,20.47,6.45,30.98,9.65,10.52,3.2,21.39,6.51,31.01,9.66l.52.17-.03.55c-1.54,32.12-7.63,58.52-18.13,78.45-10.54,20.03-25.26,33.04-43.72,38.66l-.1.03ZM69.44,142.19h1.11c18.04-5.52,32.43-18.28,42.77-37.92,10.33-19.63,16.37-45.64,17.94-77.3-9.48-3.1-20.14-6.34-30.46-9.48-10.48-3.19-21.31-6.48-30.9-9.62h-.09c-9.59,3.14-20.35,6.44-30.75,9.62-10.25,3.14-20.84,6.38-30.31,9.48,1.57,31.66,7.6,57.67,17.94,77.3,10.34,19.64,24.73,32.4,42.77,37.92Z"/>
  <path class="cls-7" d="M99.18,51.25h-23.36v-20.16c0-1.64-1.33-2.96-2.96-2.96h-5.16c-1.64,0-2.96,1.33-2.96,2.96v20.16h-23.36c-1.4,0-2.53,1.13-2.53,2.53v6.02c0,1.4,1.13,2.53,2.53,2.53h23.36v56.84c0,1.64,1.33,2.96,2.96,2.96h5.16c1.64,0,2.96-1.33,2.96-2.96v-56.84h23.36c1.4,0,2.53-1.13,2.53-2.53v-6.02c0-1.4-1.13-2.53-2.53-2.53Z"/>
  <circle class="cls-1" cx="118.59" cy="105.96" r="37.52"/>
  <g>
    <circle class="cls-5" cx="137.04" cy="78.22" r="1.28"/>
    <circle class="cls-5" cx="100.98" cy="78.21" r="1.28"/>
    <circle class="cls-5" cx="137.03" cy="132.23" r="1.28"/>
    <circle class="cls-5" cx="100.99" cy="132.23" r="1.28"/>
    <circle class="cls-5" cx="89.59" cy="89.25" r="1.27"/>
    <path class="cls-5" d="M121.99,67.6l3.82.53c15.65,2.69,28.35,15.29,31.07,30.95l.53,3.7v5.88l-.53,3.58c-2.77,15.46-15.59,27.88-30.95,30.71l-3.58.53h-6.5l-3.58-.53c-15.2-2.56-27.99-14.81-30.95-29.97l-.65-4.32c.09-1.93-.12-3.97,0-5.88,1.21-18.58,17.04-34.04,35.55-35.18h5.76ZM113.17,69.07v9.25c-.29.25-1.83.78-2.09.62-1.78-2.65-3.17-5.74-5.39-8.03.64,3.28,2.05,6.38,3.06,9.56-3.55.98-6.6,3.44-8.21,6.74l-.31-.12c-2.71-2.46-5.22-5.19-8.27-7.23-.18.24.54,1.41.68,1.71l7,9.88c.02.25-2.72,3.94-2.96,4.11-.08.06-.44.25-.49.25h-12.93c1.09.78,2.27,1.86,3.42,2.53s2.23.36,3.51.41c.33.01.62.13.97.13,1.71.02,3.39-.13,5.09-.13-.23,1.04-.24,2.24-.67,3.19h-10.97l2.69,3.98-2.69,4.23,10.95-.11c.33.11.56,2.68.69,3.17h-8.4c-1.08,0-3.54,2.27-4.47,2.94h14.04c.17,0,.78.3.92.46.16.18,1.45,2.58,1.41,2.73-2.16,3.31-4.9,6.48-6.93,9.86-.35.59-.81,1.19-.85,1.9.13.16,2.13-1.6,2.33-1.78,2.16-1.95,4.15-4.12,6.31-6.07,2.07,2.83,4.81,4.78,8.14,5.9.07.12,0,.34-.04.48-.7,3.08-2.71,6.59-3.12,9.75-.02.13-.1.45.11.41.56-.84,1.17-1.65,1.72-2.51.99-1.55,4.44-7.02,4.62-8.49.06-.51.04-.98-.23-1.42-.35-.57-2.48-1.57-3.21-2.06-6.19-4.21-11.74-16.12-10.59-23.54.63-4.08,4.29-9.46,7.57-11.92,5.2-3.9,18.91-3.69,24.75-1.23,4.33,1.82,9.47,9.16,9.81,13.84.59,7.97-4.76,18.86-11.41,23.29-1.3.86-2.84,1.03-2.69,2.95.1,1.3,3.97,7.63,4.92,9.05.44.66.96,1.42,1.57,1.92-.57-3.61-2.2-6.96-3.18-10.46,1.32-.66,2.77-1.16,4.03-1.99,1.52-1.01,2.85-2.57,3.99-3.97,2.75,2.48,5.33,5.14,8.16,7.53l.6.31c.16-.2-.74-1.7-.9-1.98l-6.92-9.76.03-.28c.6-.69,1.17-2.94,2.22-2.94h14.16c-.72-.62-3.56-2.94-4.35-2.94h-8.52c.29-.87.25-2.17.51-2.98.03-.09.08-.15.16-.21h10.97l-2.7-4.11,2.7-3.98h-10.97c-.2,0-.6-2.78-.67-3.19h8.52c.13,0,.96-.45,1.15-.56l3.32-2.38h-13.05c-.06,0-.58-.34-.67-.43-.4-.38-2.29-3.06-2.56-3.57-.07-.14-.17-.27-.12-.44,1.73-2.65,3.75-5.1,5.52-7.72.28-.42,2.43-3.52,2.18-3.77-.77.32-1.56.99-2.21,1.53-2.16,1.81-4.17,3.97-6.31,5.82-1.86-3.22-4.54-5.89-8.27-6.74l3.19-9.68c-2.28,2.34-3.66,5.48-5.52,8.15-.39.24-1.46-.48-1.96-.43v-9.44c-.39.09-.77.56-1.04.86-.89.94-1.62,2.06-2.51,3,0,.15,1.98,1.79,2.08,2.21l-1.97,1.96c1.46,1.28,2.02,2.55,1.12,4.42,1.41.61,2.99,1,4.46,1.53,3.21,1.15,4.61,1.63,6.73,4.43.13.17.91,1.22.81,1.34-1.36-.98-2.83-1.64-4.44-2.12-2.85-.84-6-1.08-8.8-1.86-.5-.14-.97-.3-1.09-.87-.37-4.56-.52-9.15-1.29-13.66-.35,1.75-.62,3.55-.8,5.33-.24,2.47-.19,5.02-.49,7.47-.08.62-.1,1.45-.83,1.62-4.55,1.14-9.63,1.33-13.57,4.08-.2-.11.04-.28.11-.38,1.62-2.51,3.02-3.67,5.77-4.77,1.97-.79,4.02-1.38,6.02-2.08-.16-.82-.5-1.77-.29-2.61.13-.53,1.06-1.43,1.44-1.87-.54-.52-1.05-1.08-1.59-1.6-.15-.15-.42-.13-.38-.36.17-.43,1.97-1.9,1.97-2.21-1.04-1.34-2.03-2.75-3.31-3.86ZM104.45,78.21c0-1.89-1.54-3.43-3.43-3.43s-3.43,1.54-3.43,3.43,1.54,3.43,3.43,3.43,3.43-1.54,3.43-3.43ZM140.5,78.2c0-1.9-1.54-3.43-3.43-3.43s-3.43,1.54-3.43,3.43,1.54,3.43,3.43,3.43,3.43-1.54,3.43-3.43ZM93,89.26c0-1.88-1.52-3.4-3.4-3.4s-3.4,1.52-3.4,3.4,1.52,3.4,3.4,3.4,3.4-1.52,3.4-3.4ZM151.85,89.26c0-1.87-1.52-3.39-3.39-3.39s-3.39,1.52-3.39,3.39,1.52,3.39,3.39,3.39,3.39-1.52,3.39-3.39ZM119.17,95.79c.1-1.18,1.39-2.99,1.36-4.1-.01-.35-.94-2.43-1.17-2.64-.12-.11-.2-.15-.37-.13-.45.05-1.43,2.42-1.42,2.89.02.53,1.06,3.19,1.34,3.82.07.14-.06.22.26.17ZM116.72,94.81c-.43-3.07-2.25-5.98-5.7-5.76-2.94.18-6.36,3.59-7.95,5.9-.08.12-.42.49-.32.6,2.57-1.38,5.45-3.27,8.51-2.93,1.96.22,3.67,1.51,5.47,2.19ZM135.23,95.42c.11-.12-1.12-1.65-1.28-1.84-2.54-2.9-7.53-6.87-10.98-2.88-.93,1.08-1.52,2.88-1.65,4.23,1.67-.8,3.66-2.11,5.53-2.32,2.99-.34,5.79,1.61,8.38,2.81ZM120.89,110.5l-1-11.45c-.1-2.01-1.27-2.93-1.69-.37s-.56,5.89-.75,8.57c-.08,1.07-.1,2.17-.12,3.25h-3c-.08,0-.53.26-.64.34-1.81,1.18-1.08,4.23,1.19,3.95-.63-.82-.76-1.72.33-2.18,2.34.12,5.03-.25,7.34-.03.9.09,1.52.69,1.1,1.6-.14.3-.41.43-.43.74.28-.18.61-.07.89-.15,1.23-.36,1.67-2.06,1.1-3.12-.15-.29-1.04-1.14-1.31-1.14h-3ZM116.23,98.98c-3.93-.87-7.92-2.68-11.92-1.08-1.64.66-3.13,2.05-3.28,3.89,3.45-3.24,8.33-3.25,12.55-1.58l2.28,1.33.36-2.57ZM136.95,101.67c-.21-1.8-1.49-3.03-3.1-3.7-4.05-1.69-8,.06-11.97,1.01l.36,2.69c4.1-3.3,10.64-3.54,14.71,0ZM101.7,106.77c3.77,3.77,7.98,4.27,12.21.85.26-.21,1.46-1.25,1.47-1.47.02-.77-2.56-2.92-3.27-3.35-4.33-2.59-8.23-.39-11.18,3-.02.14.62.82.78.97ZM129.08,101.71c-2.69.27-5.07,2.21-6.45,4.44,1.19,1.3,2.7,2.57,4.36,3.22,4.14,1.61,7.46-.52,10.2-3.46-2.13-2.38-4.69-4.54-8.11-4.19ZM110.1,111.85l-2.53,1.33-2.49-1.33c-.13,1.26-.15,2.53-.12,3.8.16.18,2.34-1.34,2.61-1.33.5.03,1.94,1.16,2.53,1.33v-3.8ZM133.15,111.85c-.63.06-2.08,1.28-2.53,1.32-.38.04-2.08-1.21-2.62-1.32v3.8c.55-.11,2.16-1.29,2.53-1.32.44-.04,2.04,1.22,2.62,1.32v-3.8ZM113.97,139.31c.63-.1,1.49.08,2.15,0l-.49-4.66c.21-.21,2.8,1.45,3.37,1.48.78.03,2.39-1.36,3.31-1.48l-.3,4.66h2.02c.63,0,2.32,1.72,2.82,2.21-.13-1.45-.56-2.98-.98-4.41s-1.8-6.14-2.58-7.1c-.62-.75-1.16-.69-1.28-1.91-.4-4.16,3.01-2.9,5.44-4.5s1.99-4.84-.45-6.13c-3.15-1.66-12.19-1.61-15.45-.21s-3.4,5.28-.16,6.75c2.09.94,4.9.43,4.75,3.72-.07,1.57-.83,1.53-1.53,2.52s-1.92,5.09-2.34,6.49c-.46,1.52-.75,3.07-1.16,4.6.09.18.21.01.31-.06.67-.52,1.73-1.82,2.57-1.96ZM92.99,121.79c0-1.87-1.52-3.39-3.39-3.39s-3.39,1.52-3.39,3.39,1.52,3.39,3.39,3.39,3.39-1.52,3.39-3.39ZM151.83,121.79c0-1.86-1.51-3.37-3.37-3.37s-3.37,1.51-3.37,3.37,1.51,3.37,3.37,3.37,3.37-1.51,3.37-3.37ZM104.43,132.23c0-1.89-1.53-3.42-3.42-3.42s-3.42,1.53-3.42,3.42,1.53,3.42,3.42,3.42,3.42-1.53,3.42-3.42ZM140.49,132.22c0-1.89-1.53-3.43-3.43-3.43s-3.43,1.53-3.43,3.43,1.53,3.43,3.43,3.43,3.43-1.53,3.43-3.43Z"/>
    <circle class="cls-5" cx="89.6" cy="121.79" r="1.27"/>
    <circle class="cls-5" cx="91.72" cy="105.96" r="2.92"/>
    <circle class="cls-5" cx="148.43" cy="89.24" r="1.26"/>
    <circle class="cls-5" cx="146.37" cy="105.96" r="2.92"/>
    <circle class="cls-5" cx="148.47" cy="121.78" r="1.26"/>
    <g>
      <path class="cls-5" d="M114.86,117.77c2.38-.19,5.92-.19,8.3-.04,1.8.11,4.65.98,4.19,3.35-.42,2.22-3.52,2.34-5.3,2.42-2.17.1-8,.23-9.8-.63-1.68-.81-2.03-2.76-.63-4.03.9-.82,2.05-.97,3.23-1.06ZM124.54,121.13c.74-.71-.19-1.24-.89-1.32-2.05-.23-4.79-.08-6.86,0-.79.03-2.55-.16-3.17.23-.39.24-.2,1.03.28,1.18.25.08,1.31.16,1.66.18,2.1.12,4.89.12,6.99,0,.34-.02,1.85-.15,1.99-.28Z"/>
      <circle class="cls-5" cx="119.04" cy="126.82" r="1.6"/>
      <circle class="cls-5" cx="116.92" cy="132.02" r="1.6"/>
      <circle class="cls-5" cx="121.17" cy="132.01" r="1.59"/>
      <path class="cls-5" d="M107.5,103.06c2.36-.28,4.77,1.1,6.15,2.95-2.15,2.08-4.94,3.35-7.88,2.02-1.08-.49-2.15-1.33-3.02-2.13,1.19-1.3,2.95-2.63,4.75-2.85Z"/>
      <path class="cls-5" d="M129.2,103.06c2.37-.28,4.55,1.11,6.01,2.85-3.18,3.5-7.7,3.51-10.88,0,1.26-1.35,2.98-2.63,4.87-2.85Z"/>
    </g>
  </g>
</svg>