<?xml version="1.0" encoding="UTF-8"?>
<svg id="Layer_2" data-name="Layer 2" xmlns="http://www.w3.org/2000/svg" viewBox="0 0 432 432">
  <defs>
    <style>
      .cls-1 {
        fill: #c01f1d;
      }

      .cls-2 {
        fill: #fff;
      }

      .cls-3 {
        fill: none;
      }

      .cls-4 {
        fill: #3c4f38;
      }

      .cls-5 {
        fill: #cfd8da;
      }

      .cls-6 {
        fill: #ea733d;
      }
    </style>
  </defs>
  <path class="cls-5" d="M299.59,249.62c21.18-40.24,33.59-93.53,36.89-158.4-19.35-6.3-40.87-12.71-61.7-18.91-21.47-6.39-43.67-13-63.52-19.5-.06.02-.12.04-.17.06v274.51h.96c36.9-11.34,66.35-37.5,87.54-77.75Z"/>
  <path class="cls-2" d="M122.06,249.62c-21.18-40.24-33.59-93.53-36.89-158.4,19.35-6.3,40.87-12.71,61.7-18.91,21.47-6.39,43.67-13,63.52-19.5.06.02.12.04.17.06v274.51h-.96c-36.9-11.34-66.35-37.5-87.54-77.75Z"/>
  <path class="cls-3" d="M339.97,86.91c-19.89-6.52-42.17-13.15-63.71-19.57-21.51-6.4-43.75-13.03-63.58-19.53l-1.59-.31-.18-.04-.63.21c-19.82,6.5-42.27,13.16-63.98,19.59-21.75,6.45-44.23,13.12-64.13,19.64l-1.87.61.09,1.97c3.18,66.53,15.82,121.21,37.58,162.53,21.93,41.65,52.54,68.7,90.98,80.4l.37.11h3.5l.37-.11c38.45-11.7,69.06-38.75,90.99-80.4,21.75-41.32,34.4-96.01,37.58-162.53l.09-1.97-1.87-.61Z"/>
  <path d="M211.09,39.79l-139.92,41.42c6.04,133.43,44.19,229.02,137.23,259.93h5.38c93.04-30.91,131.19-126.5,137.23-259.93l-139.92-41.42ZM304.17,252.03c-21.93,41.65-52.54,68.7-90.99,80.4l-.37.11h-3.5l-.37-.11c-38.45-11.7-69.06-38.75-90.98-80.4-21.75-41.32-34.4-96.01-37.58-162.53l-.09-1.97,1.87-.61c19.9-6.52,42.38-13.19,64.13-19.64,21.71-6.44,44.16-13.1,63.98-19.59l.63-.21.18.04,1.59.31c19.83,6.5,42.07,13.12,63.58,19.53,21.54,6.41,43.82,13.05,63.71,19.57l1.87.61-.09,1.97c-3.18,66.53-15.82,121.21-37.58,162.53Z"/>
  <path class="cls-3" d="M211.26,52.81c-.06.02-.12.04-.17.06-19.69,6.44-41.86,13.01-63.32,19.37-21.03,6.24-42.75,12.68-62.11,18.98,3.3,64.87,15.7,118.16,36.89,158.4,21.19,40.25,50.64,66.41,87.54,77.75h1.95c36.9-11.34,66.35-37.5,87.54-77.75,21.18-40.24,33.59-93.53,36.89-158.4-19.35-6.3-40.87-12.71-61.7-18.91-21.47-6.39-43.67-13-63.52-19.5Z"/>
  <path class="cls-1" d="M339.97,86.91c-19.89-6.52-42.17-13.15-63.71-19.57-21.51-6.4-43.75-13.03-63.58-19.53l-1.59-.31-.18-.04-.63.21c-19.82,6.5-42.27,13.16-63.98,19.59-21.75,6.45-44.23,13.12-64.13,19.64l-1.87.61.09,1.97c3.18,66.53,15.82,121.21,37.58,162.53,21.93,41.65,52.54,68.7,90.98,80.4l.37.11h3.5l.37-.11c38.45-11.7,69.06-38.75,90.99-80.4,21.75-41.32,34.4-96.01,37.58-162.53l.09-1.97-1.87-.61ZM299.59,249.62c-21.19,40.25-50.64,66.41-87.54,77.75h-1.95c-36.9-11.34-66.35-37.5-87.54-77.75-21.18-40.24-33.59-93.53-36.89-158.4,19.36-6.3,41.08-12.75,62.11-18.98,21.45-6.36,43.62-12.94,63.32-19.37.06-.02.12-.04.17-.06,19.84,6.5,42.05,13.11,63.52,19.5,20.83,6.2,42.35,12.61,61.7,18.91-3.3,64.87-15.7,118.16-36.89,158.4Z"/>
  <path d="M212.6,326.87h-3.07l-.2-.06c-36.91-11.23-66.32-37.23-87.39-77.27-20.97-39.84-33.16-92.6-36.23-156.8l-.05-1.09,1.04-.34c19.23-6.3,40.81-12.91,61.68-19.3,20.86-6.39,42.43-12.99,61.63-19.29l.22-.07h1.1s.22.07.22.07c19.2,6.29,40.92,12.9,61.93,19.29,21.02,6.39,42.75,13,61.98,19.31l1.04.34-.05,1.09c-3.07,64.21-15.26,116.96-36.23,156.8-21.08,40.04-50.48,66.03-87.39,77.27l-.2.06ZM209.96,323.99h2.21c36.05-11.04,64.81-36.54,85.48-75.79,20.66-39.24,32.72-91.22,35.85-154.5-18.94-6.19-40.26-12.67-60.88-18.95-20.94-6.37-42.59-12.95-61.77-19.23h-.18c-19.17,6.28-40.67,12.87-61.46,19.23-20.48,6.27-41.65,12.76-60.58,18.95,3.13,63.29,15.19,115.27,35.85,154.5,20.67,39.26,49.42,64.75,85.48,75.79Z"/>
  <path class="cls-6" d="M269.4,142.22h-46.68v-40.29c0-3.27-2.65-5.92-5.92-5.92h-10.31c-3.27,0-5.92,2.65-5.92,5.92v40.29h-46.68c-2.79,0-5.06,2.27-5.06,5.06v12.03c0,2.79,2.27,5.06,5.06,5.06h46.68v113.6c0,3.27,2.65,5.92,5.92,5.92h10.31c3.27,0,5.92-2.65,5.92-5.92v-113.6h46.68c2.79,0,5.06-2.27,5.06-5.06v-12.03c0-2.79-2.27-5.06-5.06-5.06Z"/>
  <path class="cls-4" d="M318.36,288.04c-.12.03-.31.32-.26.46.95,3.79,1.15,7.67,1.48,11.54.48,5.57.81,11.13,1.06,16.71.1,2.23.32,4.41.21,6.66-.1,2.01-.6,4.06-.74,6.03-.03.43.23,1.1,0,1.38-.15.19-.62.14-.64.51-.03.52.84,1.86,1.07,2.42.59,1.43.33,1.75.4,3.09.01.22.2.64.18.69-.07.11-2.11,1.28-2.28,1.32-.39.1-.86-.04-1.17.1-.45.2-1.38,1.53-1.66,1.62-.32.1-.78-.03-1.14.03s-.6.27-1.06.31c-2.01.18-4.37-.1-6.41-.06-.29-.17-.22-.59-.34-.82-.17-.34-.42-.37-.49-.88s-.18-4.33-.09-4.73c.07-.31.55-.87.61-1.19.04-.21.04-.94,0-1.16-.05-.27-.42-.48-.58-.79-.22-.43-.81-2.55-.87-3.04-.06-.55.12-.93.07-1.44-.19-1.98-1.28-4.88-1.66-7.02-1.1-6.28-1.98-12.63-3.23-18.88-.3-1.51-.9-2.85-1.32-4.29s-1.05-5.6-1.78-6.57c-.37-.49-.39-.21-.83-.21-1.41-.01-2.44-.09-3.81-.22-.27-.03-1.36.03-1.54.16-.35.25-.18,3.21-.2,3.82-.33,8.53-.67,17.07-1.27,25.6-.17,2.39-.56,4.79-.64,7.19-.02.74.23,1.37.22,1.9-.01.67-.19,2.41-.34,3.05-.07.29-.36.41-.4.66-.06.32.1.63.11.94.01.6.05,2.73-.35,3.1-.28.26-4.17.11-4.9.13-5.89.19-11.77.49-17.66.65-1.05.03-2.23.11-3.28.1-.47,0-1.05-.19-1.56-.13-.41.02-.74-1.26-.71-1.5.03-.23.43-.66.55-.94.1-.23.03-.56.23-.72.87-.22,1.59-.83,2.47-1.02,1.41-.31,2.74-.07,4.21-.55.64-.21,2.73-1.29,3.07-1.79.55-1.19.83-2.66,1.34-3.84.18-.43.51-.75.69-1.21.45-1.15.62-2.97.47-4.13-.19-1.45-.33-2.95-.35-4.41,0-.82.22-1.58.22-2.33.01-2.89-.24-5.81-.43-8.68-.34-5.2-.57-10.27-1.29-15.43-.1-.71-.21-2.26-.44-2.84-.06-.15-.32-.44-.47-.48-.7-.04-1.46-.11-2.13-.31-.74-.21-1.32-.67-2-.96-1.28-.54-4.54-1.25-5.91-1.28-1.19-.03-.99.06-2.18-.25-.9-.24-1.84-.16-2.77-.3-2.22-.33-4.35-.95-6.5-1.54-1.24-.34-2.88-.6-4.02-1.17-.29-.15-.35-.41-.35-.71.34-1.57.58-3.15.89-4.73.85-4.33,1.87-8.68,2.57-12.99,1-6.19,1.99-12.39,3.06-18.62.83-4.82,2.01-9.56,2.88-14.37.26-1.47.85-3.88.88-5.26.01-.48-.24-.77-.21-1.25.12-2.03,1.49-5.6,2.02-7.72,1.14-4.63,2.07-9.31,3.19-13.95.8-3.29,1.76-6.54,2.49-9.85-.06-.21-.83-.51-1.08-.62-3.65-1.63-7.63-2.82-11.36-4.51-10.1-4.59-18.95-11.5-28.21-17.49-1.66-1.07-1.07-1.79-1.24-3.42-.05-.48-.29-.9-.32-1.37-.05-.82.39-1.88.64-2.66.02-.09-.01-.17-.05-.25-.11-.23-1.66-.75-2.03-.93-2.35-1.18-5.14-3.88-7.07-5.73-1.17-1.12-2.6-2.34-3.17-3.81-.32-.84-2.19-1.38-2.37-2.51-.04-.24.12-.43.05-.66-.15-.53-1.14-.83-.43-1.69.59-.71,1.26-.18,1.64-.37.27-.13.21-.73.66-.93.9-.38,2.16.3,3.01.64,2.06.84,3.98,1.94,6.12,2.67.27.09,1.9.65,2.01.63.09-.02.16-.15.17-.26,0-.3-1.24-2-1.47-2.45-.54-1.07-1.38-3.75.57-3.75.47,0,.58.07.9.38.92.92,1.87,2.93,2.71,4.06,1.27,1.71,2.85,3.27,3.73,5.26.21.47.71,2.43.93,2.58.13.09.41.11.6.22,4.2,2.58,8.2,5.46,12.62,7.69,1.44.73,2.96,1.3,4.38,2.08.77.42,1.53,1.04,2.29,1.42.59.29,1.23.41,1.8.74,1.01.58,2.36,2.05,3.38,2.44.42.16.71.07,1.1.17.31.08.65.41.95.53,1.65.67,3.6,1.65,5.19,2.22,1.11.4,2.44.67,3.59,1.06.24.08.52.36.7.37.19.02.91-.47,1.38-.52.74-.08,1.18.23,1.68.21.43-.02,1.08-.53,1.61-.62,1.18-.18,1.82.16,2.84.28,1.49.17,2.99.09,4.52.35.84.14,2.01.6,2.77.62.99.03,2.05-.06,3.07,0,.75.04,1.56.33,2.32.21.6-.1,1.45-1.84,1.96-2.37.46-.47,1.09-.74,1.57-1.18-.9-1.56-2.11-2.88-2.6-4.67-.37-1.36-.41-5.3-.05-6.65.43-1.59.78-2.57.86-4.32.03-.63-.39-.86.31-1.48.57-.5.64-.36,1.08-1.14s.42-1.4.74-2.12c.19-.42,1.04-1.65,1.36-2.03.9-1.06,2.12-1.48,3.47-1.82,2.21-.56,6.48-.62,8.59.34,1.73.78,5.14,3.57,5.91,5.3,1.44,3.24-1.1,8.88-1.76,12.28-.12.64-.04,1.25-.24,1.98-.27.97-.92,1.83-1.21,2.71-.42,1.25.32.89,1.14,1.08.48.11,1.03,1.29,1.45,1.73.57.6,1.32.87,1.86,1.32.19.16.36.58.55.62.21.05.71-.22,1.01-.06,4.66,1,9.26,2.31,13.84,3.51,1.01.26,4.09,3.62,4.6,4.61.3.58.47,1.41.74,2.01.51,1.11,2.85,2.13,3.91,2.97,3.71,2.93,7.18,7.15,10.1,10.84,1.56,1.98,4.37,5.33,4.13,7.93-.16,1.68-3.28,5.91-4.4,7.45-2.85,3.95-6.87,7.23-10.57,10.37-.32.27-.9.57-1.16.85-.28.3-.33.67-.69,1.01-.64.6-1.03.47-1.59.74-.15.07-.37.59-.58.8-.64.64-1.18.61-1.83.93-.59.29-3.18,2.15-3.56,2.12-1.18-.57-1.85-1.57-2.55-2.63-.16-.24-.67-1.5-1.01-1.26-.04.03-.2.68-.27.84-.25.59-.98,1.88-1.09,2.41-.17.83-.08,1.78-.29,2.67-.17.71-1,2.03-1.01,2.49s.2,1.11.22,1.58c.09,2.15-.09,4.32,0,6.46.08,2.12.36,4.19.42,6.35.07,2.41.33,4.7.43,7.08.22,5.54,1.13,11.13,1.69,16.71.48,4.69.8,9.47,1.06,14.17.02.28.09,1.64-.27,1.64-.41,0-1.51-.08-1.8,0ZM321.19,201.42c-1.62,4.23-2.91,8.59-4.13,12.96-.1.8.95-.1,1.2-.29,1.97-1.55,6.2-4.45,7.57-6.29.32-.43.45-1.03.79-1.43.32-.38,1.42-.75.79-1.21-1.69-1.03-3.29-2.25-4.97-3.28-.26-.16-1.02-.69-1.24-.46Z"/>
</svg>