<?xml version="1.0" encoding="UTF-8"?>
<svg id="Layer_2" data-name="Layer 2" xmlns="http://www.w3.org/2000/svg" viewBox="0 0 432 432">
  <defs>
    <style>
      .cls-1 {
        fill: #c01f1d;
      }

      .cls-2 {
        fill: #fff;
      }

      .cls-3 {
        fill: none;
      }

      .cls-4 {
        fill: #3c4f38;
      }

      .cls-5 {
        fill: #cfd8da;
      }

      .cls-6 {
        fill: #ea733d;
      }
    </style>
  </defs>
  <path class="cls-5" d="M299.42,249.51c21.28-40.42,33.75-93.95,37.06-159.12-19.44-6.33-41.05-12.77-61.98-19-21.57-6.42-43.87-13.06-63.81-19.59-.06.02-.12.04-.17.06v275.76h.96c37.07-11.4,66.66-37.67,87.94-78.1Z"/>
  <path class="cls-2" d="M121.08,249.51c-21.28-40.42-33.75-93.95-37.06-159.12,19.44-6.33,41.05-12.77,61.98-19,21.57-6.42,43.87-13.06,63.81-19.59.06.02.12.04.17.06v275.76h-.96c-37.07-11.4-66.66-37.67-87.94-78.1Z"/>
  <path class="cls-3" d="M339.99,86.06c-19.98-6.55-42.36-13.21-64-19.66-21.61-6.43-43.95-13.09-63.87-19.61l-1.6-.31-.18-.04-.63.21c-19.91,6.53-42.47,13.22-64.27,19.68-21.85,6.48-44.43,13.18-64.42,19.73l-1.88.62.09,1.98c3.19,66.83,15.89,121.76,37.75,163.28,22.03,41.84,52.78,69.02,91.4,80.77l.37.11h3.52l.37-.11c38.62-11.75,69.37-38.93,91.4-80.77,21.85-41.51,34.55-96.45,37.75-163.28l.09-1.98-1.88-.62Z"/>
  <path d="M210.52,38.72l-140.56,41.61c6.06,134.04,44.39,230.06,137.86,261.11h5.41c93.46-31.05,131.79-127.08,137.86-261.11l-140.56-41.61ZM304.03,251.93c-22.03,41.84-52.78,69.02-91.4,80.77l-.37.11h-3.52l-.37-.11c-38.62-11.75-69.37-38.93-91.4-80.77-21.85-41.51-34.55-96.45-37.75-163.28l-.09-1.98,1.88-.62c19.99-6.55,42.58-13.25,64.42-19.73,21.81-6.47,44.36-13.16,64.27-19.68l.63-.21.18.04,1.6.31c19.92,6.53,42.26,13.18,63.87,19.61,21.64,6.44,44.02,13.11,64,19.66l1.88.62-.09,1.98c-3.19,66.83-15.89,121.76-37.75,163.28Z"/>
  <path class="cls-3" d="M210.69,51.8c-.06.02-.12.04-.17.06-19.78,6.47-42.06,13.07-63.6,19.46-21.13,6.27-42.95,12.74-62.4,19.07,3.31,65.17,15.78,118.7,37.06,159.12,21.29,40.43,50.87,66.71,87.94,78.1h1.96c37.07-11.4,66.66-37.67,87.94-78.1,21.28-40.42,33.75-93.95,37.06-159.12-19.44-6.33-41.05-12.77-61.98-19-21.57-6.42-43.87-13.06-63.81-19.59Z"/>
  <path class="cls-1" d="M339.99,86.06c-19.98-6.55-42.36-13.21-64-19.66-21.61-6.43-43.95-13.09-63.87-19.61l-1.6-.31-.18-.04-.63.21c-19.91,6.53-42.47,13.22-64.27,19.68-21.85,6.48-44.43,13.18-64.42,19.73l-1.88.62.09,1.98c3.19,66.83,15.89,121.76,37.75,163.28,22.03,41.84,52.78,69.02,91.4,80.77l.37.11h3.52l.37-.11c38.62-11.75,69.37-38.93,91.4-80.77,21.85-41.51,34.55-96.45,37.75-163.28l.09-1.98-1.88-.62ZM299.42,249.51c-21.28,40.43-50.87,66.71-87.94,78.1h-1.96c-37.07-11.4-66.66-37.67-87.94-78.1-21.28-40.42-33.75-93.95-37.06-159.12,19.45-6.33,41.27-12.81,62.4-19.07,21.55-6.39,43.82-13,63.6-19.46.06-.02.12-.04.17-.06,19.93,6.53,42.24,13.17,63.81,19.59,20.93,6.23,42.55,12.67,61.98,19-3.31,65.17-15.78,118.7-37.06,159.12Z"/>
  <path d="M212.04,327.11h-3.08l-.21-.06c-37.08-11.29-66.62-37.4-87.79-77.62-21.07-40.02-33.32-93.02-36.4-157.52l-.05-1.1,1.05-.34c19.32-6.33,41-12.97,61.96-19.39,20.95-6.42,42.62-13.05,61.91-19.38l.22-.07h1.1s.22.07.22.07c19.29,6.32,41.11,12.96,62.21,19.38,21.11,6.42,42.95,13.06,62.26,19.39l1.05.34-.05,1.1c-3.08,64.5-15.33,117.5-36.4,157.52-21.17,40.22-50.71,66.33-87.79,77.62l-.21.06ZM209.39,324.22h2.22c36.22-11.09,65.11-36.7,85.87-76.14,20.75-39.42,32.87-91.63,36.01-155.21-19.03-6.22-40.44-12.73-61.16-19.03-21.04-6.4-42.78-13.01-62.05-19.32h-.18c-19.26,6.31-40.86,12.92-61.74,19.32-20.57,6.3-41.84,12.81-60.86,19.03,3.15,63.58,15.26,115.79,36.01,155.21,20.76,39.43,49.65,65.05,85.87,76.14Z"/>
  <path class="cls-6" d="M269.1,141.62h-46.89v-40.47c0-3.28-2.66-5.95-5.95-5.95h-10.36c-3.28,0-5.95,2.66-5.95,5.95v40.47h-46.89c-2.81,0-5.08,2.28-5.08,5.08v12.08c0,2.81,2.28,5.08,5.08,5.08h46.89v114.12c0,3.28,2.66,5.95,5.95,5.95h10.36c3.28,0,5.95-2.66,5.95-5.95v-114.12h46.89c2.81,0,5.08-2.28,5.08-5.08v-12.08c0-2.81-2.28-5.08-5.08-5.08Z"/>
  <path class="cls-4" d="M304.97,235.02c.44,1.59,3.89.83,3.56-1.28l.02-57.12c1.97-8.63,14.05-8.14,15.47.62l.17,83.77c1.08,1.66,3.35,1.64,3.69-.5l.02-30.32c1.46-8.82,13.58-9.47,15.5-.65l-.14,53.77c-2.98,7.36-7.23,14.32-11.86,20.74-3.64,5.05-7.66,10.55-13.13,13.66-.49,5.68.52,12.08-.08,17.67-.45,4.14-3.88,8.75-8.19,9.24-11.59,1.31-25.6-.99-37.45,0-12.93-3.13-6.51-19.19-8.24-28.24-.07-.34-3.09-3.92-3.71-5-4.81-8.37-7.16-24.05-7.6-33.73-1.16-25.95.91-52.75,0-78.8.71-8.01,12.44-8.02,13.26.97l.16,38.91c.88,1.43,2.94,1.43,3.07-.46l-.03-60.72c-.02-10.55,14.47-11.8,15.85-1.29l-.02,58.45c.11,2.23,2.4,2.95,3.71,1.12l.15-67.64c-.44-10.52,15.83-10.44,15.83-.31v67.15Z"/>
</svg>