<?xml version="1.0" encoding="UTF-8"?>
<svg id="Layer_1" data-name="Layer 1" xmlns="http://www.w3.org/2000/svg" viewBox="0 0 156.18 150.77">
  <defs>
    <style>
      .cls-1 {
        fill: #fff;
      }

      .cls-2 {
        fill: none;
      }

      .cls-3 {
        fill: #c02326;
      }

      .cls-4 {
        fill: #d0d9da;
      }

      .cls-5 {
        fill: #3d5039;
      }

      .cls-6 {
        fill: #010101;
      }

      .cls-7 {
        fill: #ea743d;
      }
    </style>
  </defs>
  <path class="cls-4" d="M114.28,104.98c10.6-20.13,16.81-46.79,18.46-79.25-9.68-3.15-20.45-6.36-30.87-9.46-10.74-3.2-21.85-6.51-31.78-9.76-.03,0-.06.02-.09.03v137.34h.48c18.46-5.68,33.2-18.76,43.8-38.9Z"/>
  <path class="cls-1" d="M25.46,104.98C14.86,84.85,8.65,58.19,7,25.73c9.68-3.15,20.45-6.36,30.87-9.46,10.74-3.2,21.85-6.51,31.78-9.76.03,0,.06.02.09.03v137.34h-.48c-18.46-5.68-33.2-18.76-43.8-38.9Z"/>
  <g>
    <path class="cls-2" d="M134.48,23.58c-9.95-3.26-21.1-6.58-31.88-9.79-10.76-3.2-21.89-6.52-31.81-9.77l-.8-.16-.09-.02-.31.1c-9.92,3.25-21.15,6.58-32.01,9.8-10.88,3.23-22.13,6.56-32.09,9.83l-.94.31.05.99c1.59,33.28,7.92,60.64,18.8,81.32,10.97,20.84,26.29,34.37,45.52,40.23l.18.06h1.75l.18-.06c19.24-5.85,34.55-19.39,45.52-40.23,10.88-20.67,17.21-48.03,18.8-81.32l.05-.99-.94-.31Z"/>
    <path class="cls-6" d="M70,0L0,20.73c3.02,66.76,22.11,114.58,68.66,130.05h2.69c46.55-15.47,65.64-63.29,68.66-130.05L70,0ZM116.58,106.19c-10.97,20.84-26.29,34.37-45.52,40.23l-.18.06h-1.75l-.18-.06c-19.24-5.85-34.55-19.39-45.52-40.23C12.53,85.51,6.2,58.16,4.61,24.87l-.05-.99.94-.31c9.95-3.26,21.21-6.6,32.09-9.83,10.86-3.22,22.09-6.55,32.01-9.8l.31-.1.09.02.8.16c9.92,3.25,21.05,6.56,31.81,9.77,10.78,3.21,21.92,6.53,31.88,9.79l.94.31-.05.99c-1.59,33.28-7.92,60.64-18.8,81.32Z"/>
  </g>
  <g>
    <path class="cls-2" d="M70.09,6.51s-.06.02-.09.03c-9.85,3.22-20.95,6.51-31.68,9.69-10.52,3.12-21.39,6.34-31.08,9.5,1.65,32.46,7.86,59.12,18.46,79.25,10.6,20.14,25.34,33.22,43.8,38.9h.98c18.46-5.68,33.2-18.76,43.8-38.9,10.6-20.13,16.81-46.79,18.46-79.25-9.68-3.15-20.45-6.36-30.87-9.46-10.74-3.2-21.85-6.51-31.78-9.76Z"/>
    <path class="cls-3" d="M134.48,23.58c-9.95-3.26-21.1-6.58-31.88-9.79-10.76-3.2-21.89-6.52-31.81-9.77l-.8-.16-.09-.02-.31.1c-9.92,3.25-21.15,6.58-32.01,9.8-10.88,3.23-22.13,6.56-32.09,9.83l-.94.31.05.99c1.59,33.28,7.92,60.64,18.8,81.32,10.97,20.84,26.29,34.37,45.52,40.23l.18.06h1.75l.18-.06c19.24-5.85,34.55-19.39,45.52-40.23,10.88-20.67,17.21-48.03,18.8-81.32l.05-.99-.94-.31ZM114.28,104.98c-10.6,20.14-25.34,33.22-43.8,38.9h-.98c-18.46-5.68-33.2-18.76-43.8-38.9C15.11,84.85,8.9,58.19,7.25,25.73c9.69-3.15,20.55-6.38,31.08-9.5,10.73-3.18,21.82-6.47,31.68-9.69.03,0,.06-.02.09-.03,9.93,3.25,21.04,6.56,31.78,9.76,10.42,3.1,21.19,6.31,30.87,9.46-1.65,32.46-7.86,59.12-18.46,79.25Z"/>
  </g>
  <path class="cls-6" d="M70.76,143.63h-1.54l-.1-.03c-18.47-5.62-33.18-18.63-43.72-38.66C14.91,85.01,8.81,58.62,7.27,26.49l-.03-.55.52-.17c9.62-3.15,20.42-6.46,30.86-9.66,10.44-3.2,21.23-6.5,30.83-9.65l.11-.04h.55s.11.04.11.04c9.61,3.15,20.47,6.45,30.98,9.65,10.52,3.2,21.39,6.51,31.01,9.66l.52.17-.03.55c-1.54,32.12-7.63,58.52-18.13,78.45-10.54,20.03-25.26,33.04-43.72,38.66l-.1.03ZM69.44,142.19h1.11c18.04-5.52,32.43-18.28,42.77-37.92,10.33-19.63,16.37-45.64,17.94-77.3-9.48-3.1-20.14-6.34-30.46-9.48-10.48-3.19-21.31-6.48-30.9-9.62h-.09c-9.59,3.14-20.35,6.44-30.75,9.62-10.25,3.14-20.84,6.38-30.31,9.48,1.57,31.66,7.6,57.67,17.94,77.3,10.34,19.64,24.73,32.4,42.77,37.92Z"/>
  <path class="cls-7" d="M99.18,51.25h-23.36v-20.16c0-1.64-1.33-2.96-2.96-2.96h-5.16c-1.64,0-2.96,1.33-2.96,2.96v20.16h-23.36c-1.4,0-2.53,1.13-2.53,2.53v6.02c0,1.4,1.13,2.53,2.53,2.53h23.36v56.84c0,1.64,1.33,2.96,2.96,2.96h5.16c1.64,0,2.96-1.33,2.96-2.96v-56.84h23.36c1.4,0,2.53-1.13,2.53-2.53v-6.02c0-1.4-1.13-2.53-2.53-2.53Z"/>
  <path class="cls-5" d="M113.85,69.15c.56.41,1.2,1,1.69,1.51,1.29,1.34,2.28,2.96,3.06,4.64.51-.31.85-.47,1.46-.42.88.08,1.26.57,1.57,1.33.06.14.2.72.28.74.07.02.38-.05.43-.1.02-.03-.04-.55-.03-.67.1-1.18.9-2.31,1.97-2.76.83-.35,2.96-.16,3.88-.08,1.48.14,2.4.69,3.02,2.06.23.51.03.73.83.64-.1-.14.02-.09.05-.15.63-1.18,1.25-1.78,2.69-1.92,1.6-.16,2.58,1.01,3.64,2.01.74.7,1.42,1.14,1.69,2.21.18.72.05,1.31-.11,2.02.29.24.59.47.83.76.68-.16,1.52-.31,2.2-.06,2.13.77,2.3,2.75,2.65,4.75.37,2.15-.58,3.86-2.83,4.14-.25.03-.43-.12-.56.21.01.14,1.05.31,1.24.38,1.19.48,1.54,1.93.8,2.97.08.02.18.01.25.04,2.13.87,4.5,1.88,6.05,3.58.51.56.77,1.02.73,1.82-.08,1.76-.32,3.58-.46,5.34-.02.27-.17.57-.06.86l.83.81c5.35,5.9,5.93,12.97,1.97,19.92-3.02,5.31-8.09,8.46-14.22,9.18-.46.05-1.97.04-2.25.14-.21.07-.38.3-.55.4-1.69,1-3.75.9-5.15-.5-.19-.19-.47-.65-.65-.77-.3-.21-1.16-.42-1.56-.59-8.1-3.5-13.35-11.68-11.47-20.64.93-4.44,3.88-8.36,7.67-10.75.22-1.39.56-2.79.97-4.14.37-1.22.89-2.56,1.51-3.68.81-1.47,2.14-1.88,3.7-2.31,2.02-.55,4.23-.54,6.29-.28-.05-.32-.08-.65.03-.96.3-.88,1.11-1.36,2.03-1.28.22.02.95.29,1.08.16.01-.01.03-.31.02-.32-.01-.01-.09,0-.14-.02-1.38-.96-1.54-2.33-1.83-3.89-.22-1.16-.43-2.07.18-3.16.07-.12.33-.37.39-.48.03-.05.05-.1.06-.15,0-.03-.38-.45-.41-.45-.25-.04-.43.27-.59.36-2.24,1.36-3.63-.07-5.16-1.49-.7-.65-1.42-1.15-1.7-2.15-.04-.14-.06-.67-.08-.7-.02-.02-.4-.06-.47,0-.17.18-.39.91-.55,1.18-.84,1.35-2.79,1.25-4.16,1.17-1.55-.1-2.59-.1-3.68-1.33-.06-.07-.12-.26-.19-.28-.06-.01-.27.15-.4.1,0,.08,0,.15.01.23.09.38.33.85.36,1.25.05.63-.37,1.46-.93,1.75-.32.17-.75.19-1.11.2.12.87.33,1.73.42,2.6.15,1.42.21,3.55-.25,4.89-.38,1.1-1.13,1.42-2.06,1.91-1.55.81-3.14,1.46-4.64,2.3-.26,1.32-.69,2.64-1.25,3.87-3.26,7.15-9.96,9.97-17.59,9.34-5.31-.44-10.09-3.73-13.17-7.93-.19-.26-.47-.86-.64-1.04-.1-.12-1.02-.45-1.26-.59-1.39-.8-2.07-2.61-1.81-4.18.04-.27.35-.98.34-1.12-.02-.56-.34-1.56-.42-2.21-.63-4.83.6-10.14,3.48-14.03,4.97-6.73,13.79-8.85,21.37-5.15,2.27-.82,4.84-1.79,7.27-1.96,1.5-.11,2.17-.01,3.39.87ZM101.72,75.96c-2.68-1.5-5.75-2.21-8.78-1.44-6.82,1.72-10.09,8.82-8.71,15.42.74.52,1.38,1.11,1.75,1.95.48,1.09.48,2.29-.04,3.36,2.73,3.71,7.36,7,12.28,6.1,2.67-.49,6.49-2.63,8.09-4.84,2.07-2.86,2.84-6.79,2.28-10.25-.67-4.1-3.27-8.29-6.86-10.3ZM129.04,75c-.31-.27-.68-.41-1.08-.48-.31-.05-1.89-.16-2.17-.11-.52.09-1.01.3-1.34.72-.27.34-.46.75-.49,1.19.55-.01.87.62.54,1.05-.04.05-.14.06-.15.09-.1.17.28.46.41.56.6.44,1.44.48,2.18.5s1.36.08,1.99-.38c.17-.12.8-.76.67-.96-.04-.06-1.02-.07-1.12-.37-.3-.89.57-.99,1.23-.87.02-.08-.07-.03-.09-.07-.06-.13-.08-.28-.18-.43-.07-.11-.3-.36-.4-.45ZM136.93,76.18c-.26-.21-.79-.6-1.1-.69-.57-.16-1.38.09-1.83.43-.42.32-.06.3.05.65.06.22-.01.56-.21.69-.4.24-.67,0-.45.73s1.79,2.25,2.51,2.53c.66.26,1.42.14,1.97-.3.28-.22,0-.28-.03-.57-.03-.25.2-.47.41-.56.19-.08.34.02.38-.26.04-.32-.11-.91-.26-1.19-.13-.26-1.17-1.23-1.43-1.44ZM143.43,82.88c-.36-.25-.73-.39-1.16-.45.15.5-.17.91-.71.79-.23-.05-.5-.4-.65-.36-.09.03-.53.6-.58.71-.35.76-.07,1.99.14,2.79.18.7.4,1.03.9,1.53.15.06.21-.21.26-.28.49-.56,1.21-.08,1.15.6.89-.28,1.6-.81,1.73-1.78.07-.56-.34-2.55-.59-3.03-.03-.06-.42-.49-.48-.53ZM142.73,106.38c-6.01-2.94-13.92-1.58-17.7,4.12-4.38,6.6-.58,14.78,6.19,17.75.21.09.96.41,1.14.42.09,0,.06-.09.11-.11,1.83-.6,3.78-.44,5.04,1.2.19.24,0,.32.37.28,5.47-.58,11.08-3.5,12.03-9.41.24-1.48.3-3.36.13-4.86-.46-4.07-3.72-7.63-7.32-9.4Z"/>
</svg>