<?xml version="1.0" encoding="UTF-8"?>
<svg width="332px" height="37px" viewBox="0 0 332 37" version="1.1" xmlns="http://www.w3.org/2000/svg" xmlns:xlink="http://www.w3.org/1999/xlink">
    <title>dbs_banner_logo_color</title>
    <g id="DBS_Main" stroke="none" stroke-width="1" fill="none" fill-rule="evenodd">
        <g transform="translate(-546, -987)" id="dbs_banner_logo_color">
            <g transform="translate(546.1763, 987)">
                <g id="Group" transform="translate(93.0566, 13.8887)">
                    <path d="M1.37667655e-14,17.0732817 L1.37667655e-14,0.441550389 L3.45328556,0.441550389 C5.91466995,0.441550389 7.67804979,0.625529714 8.8536364,1.03028423 C10.4700679,1.61901809 11.7191286,2.61250646 12.5640815,3.97395349 C13.4825085,5.37219639 13.9233535,7.06480621 13.9233535,8.9781912 C13.9233535,10.670801 13.5927198,12.1058398 12.821241,13.3936951 C12.1232365,14.6815504 11.1680724,15.601447 10.06596,16.1901809 C8.92711055,16.7789147 7.31067902,17.1100775 5.29013959,17.1100775 L1.37667655e-14,17.1100775 L1.37667655e-14,17.0732817 L1.37667655e-14,17.0732817 L1.37667655e-14,17.0732817 Z M1.54295738,15.4910594 L3.41654848,15.4910594 C5.69424749,15.4910594 7.27394194,15.3806718 8.19236891,15.0863049 C9.44142967,14.6815504 10.4333308,13.9088372 11.1313354,12.878553 C11.8293399,11.8482687 12.2334478,10.4868217 12.2334478,8.9781912 C12.2334478,7.35917312 11.8293399,6.03452197 11.0945983,4.85705426 C10.3598567,3.67958656 9.25774429,2.94366925 7.8984723,2.53891473 C6.86983405,2.2445478 5.14319123,2.06056847 2.79201811,2.06056847 L1.65316862,2.06056847 L1.54295738,15.4910594 L1.54295738,15.4910594 L1.54295738,15.4910594 L1.54295738,15.4910594 Z" id="Shape" fill="#595959"></path>
                    <polygon id="Shape" fill="#595959" points="16.8623199 0.441550389 18.5154886 0.441550389 18.5154886 17.0732817 16.8623199 17.0732817"></polygon>
                    <path d="M38.1698266,3.20124031 L36.9207658,4.41550388 C36.0023388,3.49560723 34.9737006,2.79648579 33.8715882,2.31813954 C32.7694757,1.83979328 31.7041004,1.61901809 30.6754621,1.61901809 C29.3529273,1.61901809 28.1406036,1.95018088 27.0017541,2.61250646 C25.8629046,3.23803618 24.9444776,4.12113695 24.3199472,5.2250129 C23.6954169,6.32888888 23.3280461,7.46956074 23.3280461,8.72062015 C23.3280461,10.0084754 23.6586798,11.1491473 24.3199472,12.326615 C25.0179518,13.4304909 25.9363788,14.3503876 27.0752283,15.0127132 C28.2140778,15.6382429 29.5366127,16.0062016 30.9326217,16.0062016 C32.6592645,16.0062016 34.0920106,15.5278553 35.2308601,14.5711628 C36.3697096,13.5776744 37.1044512,12.3634108 37.2881366,10.8179845 L31.997997,10.8179845 L31.997997,9.19896643 L39.0882536,9.19896643 C39.0882536,11.7378811 38.3535119,13.8352455 36.8105546,15.343876 C35.3043343,16.8525065 33.320532,17.5884238 30.7856734,17.5884238 C27.7364957,17.5884238 25.3485855,16.5581395 23.5484685,14.4607752 C22.1891966,12.8417571 21.491192,10.9651679 21.491192,8.83100777 C21.491192,7.24878551 21.8952999,5.74015505 22.7035157,4.41550388 C23.5117314,3.09085271 24.5403697,1.98697674 25.8996417,1.21426357 C27.2589137,0.478346255 28.8386081,0.0367958655 30.5285138,0.0367958655 C31.8877858,0.0367958655 33.2103207,0.257571059 34.4961185,0.772713178 C35.7084422,1.2878553 36.9575029,2.09736434 38.1698266,3.20124031 L38.1698266,3.20124031 L38.1698266,3.20124031 Z" id="Shape" fill="#595959"></path>
                    <polygon id="Shape" fill="#595959" points="41.9537458 0.441550389 43.6069145 0.441550389 43.6069145 17.0732817 41.9537458 17.0732817"></polygon>
                    <polygon id="Shape" fill="#595959" points="45.8111393 2.06056847 45.8111393 0.441550389 54.8117242 0.441550389 54.8117242 2.06056847 51.1380159 2.06056847 51.1380159 17.0732817 49.4848473 17.0732817 49.4848473 2.06056847"></polygon>
                    <path d="M62.012192,0.441550389 L69.6902416,17.0732817 L67.9268618,17.0732817 L65.3552659,11.5539018 L58.2650097,11.5539018 L55.6934139,17.0732817 L53.893297,17.0732817 L61.6815582,0.441550389 L62.012192,0.441550389 L62.012192,0.441550389 L62.012192,0.441550389 Z M61.8652434,3.97395349 L59.0364883,10.0084754 L64.6572614,10.0084754 L61.8652434,3.97395349 L61.8652434,3.97395349 L61.8652434,3.97395349 Z" id="Shape" fill="#595959"></path>
                    <polygon id="Shape" fill="#595959" points="72.3353115 0.441550389 73.9884797 0.441550389 73.9884797 15.5278553 80.3807319 15.5278553 80.3807319 17.1468734 72.4087856 17.1468734 72.4087856 0.441550389"></polygon>
                    <path d="M89.2343684,0.441550389 L92.5039688,0.441550389 C93.8265032,0.441550389 94.7816674,0.625529714 95.553146,0.919896642 C96.287888,1.21426357 96.8022069,1.72940568 97.2063147,2.3549354 C97.6104225,2.98046512 97.8308451,3.75317829 97.8308451,4.48909561 C97.8308451,5.2250129 97.64716,5.88733848 97.3165263,6.51286824 C96.9858925,7.13839795 96.4715731,7.61674417 95.7735686,7.94790696 C96.6185218,8.24227388 97.2797887,8.57343667 97.7206341,8.9781912 C98.1614789,9.38294573 98.5288496,9.86129201 98.8227464,10.41323 C99.1166431,11.0019638 99.2268541,11.5906977 99.2268541,12.2530233 C99.2268541,13.5776744 98.7860093,14.7551421 97.7941081,15.601447 C96.8022069,16.4477519 95.553146,16.9996899 93.8999778,16.9996899 L89.3813164,16.9996899 L89.3813164,0.441550389 L89.2343684,0.441550389 L89.2343684,0.441550389 L89.2343684,0.441550389 L89.2343684,0.441550389 Z M90.9242741,2.06056847 L90.9242741,7.39596899 L91.8427013,7.39596899 C92.9815506,7.39596899 93.8632402,7.28558138 94.3775596,7.06480621 C94.8918785,6.84403103 95.3694608,6.47607237 95.6266205,6.03452197 C95.9205167,5.55617569 96.0674653,5.04103359 96.0674653,4.45229974 C96.0674653,3.71638243 95.7735686,3.12764858 95.2592498,2.64930233 C94.7449304,2.17095607 93.8999778,2.02377261 92.7243909,2.02377261 L90.8875371,2.02377261 L90.9242741,2.06056847 L90.9242741,2.06056847 L90.9242741,2.06056847 L90.9242741,2.06056847 Z M90.9242741,9.08857881 L90.9242741,15.4542636 L92.9815506,15.4542636 C94.193874,15.4542636 95.0388271,15.343876 95.6266205,15.1231008 C96.2144134,14.9023256 96.6552588,14.4975711 96.9858925,14.0192248 C97.3165263,13.5040827 97.5002114,12.9889406 97.5002114,12.4002067 C97.5002114,11.6642894 97.2797887,11.0019638 96.7654699,10.4868217 C96.324625,9.89808788 95.6266205,9.56692509 94.8184044,9.30935399 C94.2306115,9.19896643 93.2754473,9.08857881 91.8794383,9.08857881 L90.9242741,9.08857881 L90.9242741,9.08857881 L90.9242741,9.08857881 L90.9242741,9.08857881 Z" id="Shape" fill="#2852AA"></path>
                    <polygon id="Shape" fill="#2852AA" points="102.129084 0.441550389 103.782252 0.441550389 103.782252 17.0732817 102.129084 17.0732817"></polygon>
                    <path d="M107.602909,0.441550389 L110.872509,0.441550389 C112.195044,0.441550389 113.150208,0.625529714 113.921686,0.919896642 C114.656428,1.21426357 115.170747,1.72940568 115.574855,2.3549354 C115.978963,2.98046512 116.199386,3.75317829 116.199386,4.48909561 C116.199386,5.2250129 116.0157,5.88733848 115.685066,6.51286824 C115.354432,7.13839795 114.840114,7.61674417 114.142109,7.94790696 C114.987062,8.24227388 115.648329,8.57343667 116.089174,8.9781912 C116.530019,9.38294573 116.89739,9.86129201 117.191287,10.41323 C117.485183,11.0019638 117.595395,11.5906977 117.595395,12.2530233 C117.595395,13.5776744 117.154549,14.7551421 116.162649,15.601447 C115.170747,16.4845478 113.921686,16.9996899 112.268518,16.9996899 L107.71312,16.9996899 L107.71312,0.441550389 L107.602909,0.441550389 L107.602909,0.441550389 L107.602909,0.441550389 L107.602909,0.441550389 Z M109.256077,2.06056847 L109.256077,7.39596899 L110.174504,7.39596899 C111.313353,7.39596899 112.195044,7.28558138 112.709362,7.06480621 C113.223682,6.84403103 113.701264,6.47607237 113.958423,6.03452197 C114.25232,5.55617569 114.399268,5.04103359 114.399268,4.45229974 C114.399268,3.71638243 114.105372,3.12764858 113.591053,2.64930233 C113.076734,2.17095607 112.231781,2.02377261 111.056194,2.02377261 L109.256077,2.06056847 L109.256077,2.06056847 L109.256077,2.06056847 L109.256077,2.06056847 L109.256077,2.06056847 Z M109.256077,9.08857881 L109.256077,15.4542636 L111.313353,15.4542636 C112.525677,15.4542636 113.37063,15.343876 113.958423,15.1231008 C114.546217,14.9023256 114.987062,14.4975711 115.317695,14.0192248 C115.648329,13.5040827 115.832015,12.9889406 115.832015,12.4002067 C115.832015,11.6642894 115.611592,11.0019638 115.097273,10.4868217 C114.656428,9.89808788 113.958423,9.56692509 113.150208,9.30935399 C112.562414,9.19896643 111.60725,9.08857881 110.211241,9.08857881 L109.256077,9.08857881 L109.256077,9.08857881 L109.256077,9.08857881 L109.256077,9.08857881 Z" id="Shape" fill="#2852AA"></path>
                    <polygon id="Shape" fill="#2852AA" points="120.79152 0.441550389 122.444689 0.441550389 122.444689 15.5278553 128.763467 15.5278553 128.763467 17.1468734 120.79152 17.1468734 120.79152 0.441550389"></polygon>
                    <path d="M131.3718,0.441550389 L140.776492,0.441550389 L140.776492,2.06056847 L132.988231,2.06056847 L132.988231,7.28558138 L140.739755,7.28558138 L140.739755,8.90459951 L132.988231,8.90459951 L132.988231,15.4542636 L140.739755,15.4542636 L140.739755,17.0732817 L131.408537,17.0732817 C131.3718,17.0732817 131.3718,0.441550389 131.3718,0.441550389 L131.3718,0.441550389 L131.3718,0.441550389 Z" id="Shape" fill="#2852AA"></path>
                    <path d="M148.307593,13.982429 L149.666865,13.0993282 C150.658767,14.9391215 151.797616,15.8222222 153.120151,15.8222222 C153.707944,15.8222222 154.222264,15.7118347 154.663109,15.4174677 C155.103953,15.1231008 155.508061,14.791938 155.765221,14.3871834 C155.985644,13.982429 156.169329,13.4672868 156.169329,12.9889406 C156.169329,12.4002067 155.985644,11.8850646 155.581536,11.3699225 C155.067216,10.6340051 154.148789,9.75090439 152.789517,8.68382428 C151.430245,7.65354004 150.548556,6.88082685 150.217922,6.4392765 C149.630128,5.62976743 149.372969,4.8202584 149.372969,3.90036176 C149.372969,3.20124031 149.556654,2.50211886 149.887288,1.91338502 C150.217922,1.32465116 150.695504,0.883100776 151.320034,0.515142121 C151.944565,0.183979328 152.642569,0 153.340574,0 C154.148789,0 154.846794,0.183979328 155.508061,0.588733847 C156.169329,0.993488374 156.867333,1.69260982 157.638812,2.72289406 L156.316277,3.75317829 C155.691747,2.94366925 155.177428,2.3549354 154.699846,2.13416021 C154.259001,1.91338502 153.781418,1.72940568 153.2671,1.72940568 C152.569095,1.72940568 152.054776,1.95018088 151.650668,2.3549354 C151.24656,2.75968992 151.026137,3.27483204 151.026137,3.86356589 C151.026137,4.19472868 151.099612,4.56268734 151.24656,4.89385013 C151.430245,5.2250129 151.650668,5.59297156 152.054776,5.9977261 C152.275198,6.21850127 152.973203,6.73364342 154.185526,7.69033591 C155.618273,8.72062015 156.610174,9.71410852 157.124493,10.5236176 C157.638812,11.3331266 157.932709,12.2162274 157.932709,13.0257364 C157.932709,14.24 157.491864,15.2702842 156.573437,16.153385 C155.65501,17.0364858 154.552898,17.4780362 153.2671,17.4780362 C152.275198,17.4780362 151.393508,17.1836692 150.585293,16.6685271 C149.666865,16.1901809 148.968861,15.2702842 148.307593,13.982429 L148.307593,13.982429 L148.307593,13.982429 Z" id="Shape" fill="#595959"></path>
                    <path d="M169.210992,0.0367958655 C171.745851,0.0367958655 173.803128,0.919896642 175.456296,2.57571059 C177.109465,4.23152455 177.991155,6.29209301 177.991155,8.79421189 C177.991155,11.222739 177.146202,13.3201034 175.456296,15.0127132 C173.803128,16.705323 171.745851,17.5516279 169.321204,17.5516279 C166.859819,17.5516279 164.802543,16.6685271 163.112637,15.0127132 C161.459469,13.3201034 160.577778,11.2963307 160.577778,8.86780364 C160.577778,7.24878551 160.981886,5.77695092 161.716628,4.41550388 C162.45137,3.01726098 163.553482,1.98697674 164.876017,1.21426357 C166.235289,0.441550389 167.668035,0.0367958655 169.210992,0.0367958655 L169.210992,0.0367958655 L169.210992,0.0367958655 Z M169.321204,1.65581395 C168.10888,1.65581395 166.970031,1.98697674 165.867918,2.64930233 C164.765806,3.27483204 163.920853,4.15793282 163.296322,5.26180877 C162.671792,6.36568476 162.377895,7.5799483 162.377895,8.90459951 C162.377895,10.8915762 163.0759,12.5473902 164.435172,13.9088372 C165.794444,15.3070801 167.410875,15.9326098 169.357941,15.9326098 C170.607001,15.9326098 171.819325,15.6382429 172.921437,15.0127132 C174.02355,14.3871834 174.868503,13.5040827 175.456296,12.4737984 C176.080826,11.3699225 176.374723,10.1556589 176.374723,8.83100777 C176.374723,7.50635661 176.080826,6.32888888 175.456296,5.2250129 C174.831766,4.19472868 173.950076,3.3116279 172.8847,2.68609819 C171.672377,1.95018088 170.533527,1.65581395 169.321204,1.65581395 L169.321204,1.65581395 L169.321204,1.65581395 Z" id="Shape" fill="#595959"></path>
                    <path d="M196.616854,3.49560723 L195.294319,4.48909561 C194.596315,3.56919897 193.677888,2.79648579 192.722724,2.3549354 C191.730823,1.87658915 190.591973,1.61901809 189.416387,1.61901809 C188.093852,1.61901809 186.881528,1.91338502 185.742679,2.61250646 C184.603829,3.3116279 183.722139,4.12113695 183.171083,5.15142119 C182.58329,6.18170545 182.252656,7.39596899 182.252656,8.79421189 C182.252656,10.8179845 182.95066,12.5105943 184.309932,13.9088372 C185.669204,15.3070801 187.395847,15.9326098 189.526598,15.9326098 C191.804297,15.9326098 193.751362,15.0127132 195.331056,13.2097158 L196.653591,14.2032041 C195.845376,15.2334884 194.816737,16.0429974 193.567677,16.6317313 C192.318616,17.2204651 190.996081,17.514832 189.453124,17.514832 C186.587631,17.514832 184.309932,16.5213437 182.620027,14.6079587 C181.260755,12.9889406 180.489276,11.0019638 180.489276,8.68382428 C180.489276,6.25529714 181.334229,4.23152455 183.024135,2.53891473 C184.714041,0.84630491 186.918265,0.0367958655 189.489861,0.0367958655 C191.032818,0.0367958655 192.428827,0.33116279 193.677888,0.956692508 C194.926949,1.58222222 195.882113,2.39173126 196.616854,3.49560723 L196.616854,3.49560723 L196.616854,3.49560723 Z" id="Shape" fill="#595959"></path>
                    <polygon id="Shape" fill="#595959" points="199.776243 0.441550389 201.429412 0.441550389 201.429412 17.0732817 199.776243 17.0732817"></polygon>
                    <polygon id="Shape" fill="#595959" points="205.213331 0.441550389 214.654761 0.441550389 214.654761 2.06056847 206.756289 2.06056847 206.756289 7.28558138 214.507812 7.28558138 214.507812 8.90459951 206.756289 8.90459951 206.756289 15.4542636 214.507812 15.4542636 214.507812 17.0732817 205.213331 17.0732817"></polygon>
                    <polygon id="Shape" fill="#595959" points="215.830347 2.06056847 215.830347 0.441550389 224.830932 0.441550389 224.830932 2.06056847 221.157224 2.06056847 221.157224 17.0732817 219.504055 17.0732817 219.504055 2.06056847"></polygon>
                    <polygon id="Shape" fill="#595959" points="225.859571 0.441550389 227.733162 0.441550389 231.957926 7.28558138 236.109216 0.441550389 237.982807 0.441550389 232.766142 9.12537468 232.766142 17.0732817 231.14971 17.0732817 231.14971 9.12537468"></polygon>
                </g>
                <g id="Logo" transform="translate(-0, 0)">
                    <g id="pr" transform="translate(38.5592, 0)">
                        <path d="M21.3368963,11.7354281 C17.888509,6.75081482 12.1281348,2.82592248 4.07536678,0 C11.6383071,11.3036899 10.2667894,22.0382705 0,32.1841171 C9.89452033,28.867583 16.987226,22.0382705 21.3368963,11.7354281" id="Shape" fill="#D1EAF1"></path>
                        <path d="M29.7423402,17.2106529 C26.4506979,10.5579604 21.9246896,5.41635142 16.1839085,1.74657709 C16.1839085,16.3864255 10.7958034,26.5322722 0.0195931095,32.1841171 C12.8530799,31.3598897 22.7476002,26.3752765 29.7423402,17.2106529" id="Shape" fill="#A5CBE2" opacity="0.75"></path>
                        <path d="M33.9352656,20.2131955 C32.6225274,15.5621981 30.1537957,10.7345805 26.5290704,5.7303428 C23.7468488,21.3710388 14.9103564,30.1824221 0.0195931095,32.1841171 C17.1243777,31.5168855 28.4296019,27.5331197 33.9352656,20.2131955" id="Shape" fill="#3F87C1" opacity="0.85"></path>
                        <path d="M35.4243422,29.6918104 C35.4243422,27.7686133 35.1696316,26.0416607 34.6993972,24.4520792 C27.4695396,29.4366926 15.909605,32.0271215 0.0391862193,32.1841171 C9.89452033,32.3607373 21.6895723,31.5168855 35.4243422,29.6918104" id="Shape" fill="#2468B9"></path>
                    </g>
                    <g id="pl" transform="translate(0, 12.7167)">
                        <path d="M0,17.4657709 C0,15.7976916 0.254710425,13.815621 0.724945053,11.4803101 C6.975147,16.6415435 17.5554262,19.2908458 32.544155,19.467466 C24.315049,19.8010818 13.4800594,19.1338501 0,17.4657709" id="Shape" fill="#7AA4D6"></path>
                        <path d="M1.48907633,7.49654436 C1.48907633,6.82931268 2.15524205,4.33700602 3.44838727,0 C9.05201662,11.6373058 18.7506058,18.1330026 32.544155,19.4478415 C17.7513573,19.1338501 7.38660231,15.1500844 1.48907633,7.49654436" id="Shape" fill="#9BC0DD"></path>
                    </g>
                    <g id="Bible" transform="translate(0, 32.6747)">
                        <rect id="Rectangle-path" fill="#6C6C6C" x="0" y="0" width="34.0332313" height="1.62883032"></rect>
                        <polygon id="Rectangle-path" fill="#6C6C6C" points="39.9307572 0 73.9639884 0 73.9639884 1.62883032 39.9307572 1.62883032"></polygon>
                        <polygon id="Rectangle-path" fill="#6C6C6C" points="6.40694682 1.25596555 68.0664625 1.25596555 68.0664625 3.61090095 6.40694682 3.61090095"></polygon>
                        <ellipse id="Oval" fill="#6C6C6C" cx="69.2812354" cy="1.51108355" rx="4.68275318" ry="1.49145909"></ellipse>
                        <ellipse id="Oval" fill="#6C6C6C" cx="4.68275319" cy="1.51108355" rx="4.68275318" ry="1.49145909"></ellipse>
                        <path d="M34.0136382,0 L34.0136382,0 C35.6398663,0 36.9721977,0.784978466 36.9721977,1.74657709 L36.9721977,1.74657709 C36.9721977,2.70817571 35.6594594,3.49315417 34.0136382,3.49315417 L34.0136382,3.49315417 C32.3874101,3.49315417 31.0550787,2.70817571 31.0550787,1.74657709 L31.0550787,1.74657709 C31.0746718,0.804602928 32.3874101,0 34.0136382,0 L34.0136382,0 L34.0136382,0 Z" id="Shape" fill="#6C6C6C"></path>
                        <path d="M39.9307572,0 L39.9307572,0 C41.5569853,0 42.8893169,0.784978466 42.8893169,1.74657709 L42.8893169,1.74657709 C42.8893169,2.70817571 41.5765784,3.49315417 39.9307572,3.49315417 L39.9307572,3.49315417 C38.304529,3.49315417 36.9721977,2.70817571 36.9721977,1.74657709 L36.9721977,1.74657709 C36.9917908,0.804602928 38.304529,0 39.9307572,0 L39.9307572,0 L39.9307572,0 Z" id="Shape" fill="#6C6C6C"></path>
                        <ellipse id="Oval" fill="#A1A1A1" cx="66.4402344" cy="1.76620155" rx="1" ry="1"></ellipse>
                        <rect id="Rectangle-path" fill="#A1A1A1" x="54.6255895" y="1.37371232" width="9.62021679" height="1.00084755"></rect>
                        <line x1="67.6941934" y1="3.25766065" x2="70.1629254" y2="0.765354004" id="lineAB" stroke="#6C6C6C" stroke-width="2" fill="#000000"></line>
                        <line x1="4.31048409" y1="0.745729545" x2="6.77921589" y2="3.23803619" id="lineBC" stroke="#6C6C6C" stroke-width="2" fill="#000000"></line>
                    </g>
                </g>
            </g>
        </g>
    </g>
</svg>