<svg xmlns="http://www.w3.org/2000/svg" width="300" height="180"><g fill="none" fill-rule="evenodd"><g fill="#FFF"><path d="M30.044 178.52v-17.596h3.558c2.577 0 4.382.16 5.568.638 1.65.638 2.99 1.648 3.866 3.136.928 1.489 1.444 3.243 1.444 5.263 0 1.755-.361 3.296-1.134 4.679-.722 1.329-1.702 2.339-2.836 2.924-1.186.638-2.836.957-4.95.957h-5.516Zm1.65-1.647h1.96c2.37 0 3.969-.107 4.948-.426a5.66 5.66 0 0 0 3.042-2.339c.722-1.116 1.134-2.499 1.134-4.093 0-1.702-.412-3.137-1.185-4.36-.774-1.223-1.908-2.02-3.351-2.445-1.083-.32-2.836-.479-5.31-.479h-1.186l-.052 14.142ZM47.47 160.976h1.701v17.597h-1.7zM69.587 163.9l-1.289 1.277a9.648 9.648 0 0 0-3.145-2.18c-1.134-.478-2.268-.744-3.35-.744-1.393 0-2.63.372-3.816 1.063s-2.114 1.595-2.784 2.764c-.67 1.17-1.03 2.393-1.03 3.669 0 1.329.36 2.552 1.03 3.774.722 1.17 1.65 2.127 2.836 2.818a7.944 7.944 0 0 0 3.97 1.063c1.804 0 3.247-.478 4.433-1.542 1.186-1.063 1.96-2.339 2.114-3.987H63.09v-1.701h7.372c0 2.711-.773 4.891-2.371 6.486-1.547 1.595-3.609 2.392-6.238 2.392-3.145 0-5.62-1.116-7.476-3.296-1.443-1.701-2.113-3.668-2.113-5.954 0-1.648.412-3.243 1.237-4.678.825-1.436 1.907-2.552 3.35-3.35a9.768 9.768 0 0 1 4.796-1.222c1.443 0 2.784.265 4.124.797 1.34.532 2.578 1.382 3.815 2.552ZM73.505 160.976h1.701v17.597h-1.7zM77.475 162.678v-1.702h9.331v1.702h-3.815v15.842h-1.7v-15.842zM94.282 160.977l7.94 17.597h-1.857l-2.68-5.795h-7.373l-2.68 5.795h-1.857l8.094-17.597h.413Zm-.155 3.721-2.887 6.38h5.826l-2.939-6.38ZM105.005 160.976h1.701v15.95h6.6v1.701h-8.249v-17.65zM125.988 160.977c1.392 0 2.372.16 3.145.478.773.32 1.289.85 1.701 1.542.413.691.67 1.489.67 2.286 0 .797-.154 1.489-.515 2.127-.36.69-.876 1.17-1.598 1.541.876.32 1.547.691 2.01 1.117.465.425.825.903 1.135 1.541.31.638.412 1.223.412 1.967 0 1.436-.464 2.659-1.495 3.562-1.031.904-2.32 1.489-4.021 1.489h-4.692l-.154-17.172v-.478h3.402Zm-1.753 1.701v5.635h.928c1.186 0 2.063-.106 2.63-.372.567-.266 1.03-.638 1.289-1.116.309-.479.464-1.063.464-1.648 0-.798-.31-1.436-.825-1.914-.516-.479-1.444-.691-2.63-.691h-1.907v.106h.051Zm0 14.141h2.114c1.237 0 2.114-.106 2.733-.372.618-.266 1.082-.69 1.443-1.17.361-.531.516-1.116.516-1.7 0-.798-.258-1.49-.774-2.02-.464-.639-1.185-.958-2.01-1.223a16.824 16.824 0 0 0-3.042-.266h-.98v6.751ZM135.371 160.976h1.701v17.597h-1.7zM143.981 160.977c1.392 0 2.372.16 3.145.478.773.32 1.289.85 1.701 1.542.413.691.67 1.489.67 2.286 0 .797-.154 1.489-.515 2.127-.361.69-.877 1.17-1.598 1.541.876.32 1.546.691 2.01 1.117.464.425.825.903 1.134 1.541.31.638.413 1.223.413 1.967 0 1.436-.464 2.659-1.495 3.562-1.031.904-2.32 1.489-4.021 1.489h-4.692l-.155-17.65h3.403Zm-1.753 1.701v5.635h.928c1.186 0 2.062-.106 2.63-.372.567-.266 1.03-.638 1.288-1.116.31-.479.464-1.063.464-1.648 0-.798-.309-1.436-.825-1.914-.515-.479-1.443-.691-2.629-.691h-1.907l.051.106Zm0 7.39v6.751h2.114c1.237 0 2.114-.106 2.732-.372.619-.266 1.083-.69 1.444-1.17.36-.531.515-1.116.515-1.7 0-.798-.257-1.49-.773-2.02-.464-.639-1.186-.958-2.01-1.223a16.824 16.824 0 0 0-3.042-.266h-.98ZM153.673 160.976h1.701v15.95h6.548v1.701h-8.249zM164.139 160.977h9.744v1.701h-8.094v5.529h8.042v1.701h-8.042v6.911h8.042v1.702h-9.692v-17.544ZM183.214 175.278l1.594-.904c1.137 1.967 2.446 2.87 3.925 2.87.683 0 1.252-.106 1.764-.425s.968-.69 1.252-1.116a2.72 2.72 0 0 0 .455-1.489c0-.638-.17-1.17-.683-1.7-.569-.798-1.65-1.702-3.186-2.818-1.593-1.117-2.56-1.914-2.958-2.393-.683-.85-.968-1.701-.968-2.711 0-.744.17-1.489.57-2.073.398-.638.91-1.117 1.65-1.489a5.089 5.089 0 0 1 2.275-.532c.91 0 1.707.16 2.504.638.796.426 1.593 1.17 2.446 2.286l-1.536 1.117c-.74-.85-1.309-1.489-1.82-1.701-.513-.266-1.025-.426-1.65-.426-.797 0-1.366.266-1.821.691-.456.426-.74.957-.74 1.595 0 .372.057.745.284 1.117.171.372.456.744.91 1.17.285.265 1.025.797 2.447 1.754 1.65 1.116 2.731 2.126 3.357 2.977.57.85.91 1.754.91 2.658 0 1.276-.511 2.392-1.593 3.296-1.024.904-2.275 1.435-3.812 1.435a6.017 6.017 0 0 1-3.072-.85c-.967-.638-1.707-1.595-2.504-2.977ZM203.336 160.552c2.328 0 4.2.903 5.751 2.71 1.552 1.808 2.328 3.935 2.328 6.54 0 2.552-.776 4.785-2.328 6.539-1.552 1.754-3.423 2.711-5.614 2.711-2.283 0-4.154-.904-5.66-2.711-1.507-1.808-2.328-3.934-2.328-6.486 0-1.701.365-3.243 1.05-4.731.684-1.489 1.688-2.552 2.875-3.35 1.278-.797 2.556-1.222 3.926-1.222Zm.137 1.7c-1.096 0-2.146.373-3.15 1.064-1.004.691-1.78 1.595-2.374 2.764-.593 1.17-.821 2.446-.821 3.881 0 2.074.639 3.881 1.871 5.263 1.278 1.489 2.739 2.127 4.52 2.127a5.86 5.86 0 0 0 3.24-.957 6.945 6.945 0 0 0 2.328-2.711c.593-1.17.822-2.446.822-3.881 0-1.436-.274-2.658-.822-3.775-.593-1.116-1.37-2.02-2.374-2.711-1.05-.744-2.1-1.063-3.24-1.063ZM229.717 164.22l-1.307 1.063c-.677-.957-1.548-1.754-2.516-2.286-.968-.478-2.08-.797-3.242-.797-1.307 0-2.468.319-3.581 1.063s-1.936 1.595-2.517 2.711c-.58 1.117-.87 2.392-.87 3.881 0 2.127.677 3.934 1.983 5.37 1.355 1.488 3 2.126 5.082 2.126 2.226 0 4.113-.957 5.613-2.87l1.307 1.062a7.655 7.655 0 0 1-3 2.552c-1.21.585-2.517.904-4.017.904-2.807 0-5.033-1.063-6.63-3.083-1.355-1.702-2.08-3.775-2.08-6.274 0-2.551.822-4.731 2.467-6.485 1.597-1.755 3.775-2.659 6.291-2.659 1.5 0 2.855.32 4.065.957 1.21.638 2.178 1.595 2.952 2.765ZM233.48 160.976h1.702v17.597h-1.702zM238.584 160.976h9.796v1.702h-8.146v5.53h8.043v1.7h-8.043v6.911h8.043v1.701h-9.693v-17.544zM250.081 162.678v-1.702h9.331v1.702h-3.815v15.842h-1.7v-15.842zM260.547 160.976h1.96l4.381 7.231 4.28-7.23h1.958l-5.413 9.197v8.4h-1.65v-8.4z"/></g><g transform="translate(0 134.714)"><path fill="#6C6C6C" d="M0 0h137.866v6.699H0zM161.721 0h137.866v6.699H161.721z"/><path fill="#6C6C6C" d="M25.921 5.157H275.68v9.729H25.921z"/><ellipse cx="280.689" cy="6.167" fill="#6C6C6C" rx="19.002" ry="6.167"/><ellipse cx="19.002" cy="6.167" fill="#6C6C6C" rx="19.002" ry="6.167"/><path fill="#6C6C6C" d="M137.814 0c6.61 0 11.98 3.243 11.98 7.23 0 3.987-5.37 7.23-11.98 7.23s-11.98-3.243-11.98-7.23c0-3.987 5.37-7.23 11.98-7.23Z"/><path fill="#6C6C6C" d="M161.721 0c6.61 0 11.98 3.243 11.98 7.23 0 3.987-5.37 7.23-11.98 7.23s-11.98-3.243-11.98-7.23c.104-3.987 5.423-7.23 11.98-7.23Z"/><ellipse cx="269.174" cy="7.23" fill="#A1A1A1" rx="2.995" ry="3.083"/><path fill="#A1A1A1" d="M221.256 5.635h38.985v4.094h-38.985z"/><path fill="#000" stroke="#6C6C6C" stroke-width="2" d="M274.182 13.344 284.2 3.03M17.504 3.03l10.018 10.314"/></g><path fill="#D1EAF1" d="M242.633 48.325C228.64 27.751 205.301 11.643 172.72 0c30.62 46.624 25.095 90.855-16.471 132.694 40.017-13.716 68.778-41.839 86.385-84.369"/><path fill="#A5CBE2" d="M276.713 70.92c-13.374-27.38-31.653-48.645-54.94-63.69 0 60.34-21.842 102.179-65.473 125.464 51.944-3.455 92.065-24.03 120.413-61.775" opacity=".75"/><path fill="#3F87C1" d="M293.649 83.306c-5.37-19.192-15.284-39.075-30-59.649-11.308 64.434-47.04 100.744-107.35 109.037 69.295-2.764 115.044-19.245 137.35-49.388" opacity=".85"/><path fill="#2468B9" d="M299.639 122.38c0-7.92-1.033-15.044-2.995-21.637-29.226 20.628-76.059 31.207-140.344 31.898 39.965.691 87.728-2.711 143.339-10.26"/><path fill="#7AA4D6" d="M0 124.4c0-6.857 1.033-15.044 2.995-24.667C28.296 121 71.205 131.95 131.876 132.641 98.52 134.023 54.63 131.26 0 124.401"/><path fill="#9BC0DD" d="M5.99 83.306c0-2.764 2.685-13.025 7.951-30.887 22.72 48.006 61.963 74.746 117.935 80.222-60-1.382-101.928-17.81-125.886-49.335"/></g></svg>