<?xml version="1.0" encoding="UTF-8"?>
<svg width="200px" height="100px" viewBox="0 0 200 100" version="1.1" xmlns="http://www.w3.org/2000/svg" xmlns:xlink="http://www.w3.org/1999/xlink">
    <title>dbs_logo_notitle</title>
    <g id="DBS_Main" stroke="none" stroke-width="1" fill="none" fill-rule="evenodd">
        <g transform="translate(-665, -296)" id="dbs_logo_notitle">
            <g transform="translate(665.4739, 296)">
                <g id="pr" transform="translate(103.6307, 0)">
                    <path d="M57.3444272,32.0737482 C48.076641,18.4504505 32.5952254,7.72344437 10.9528382,0 C31.2787785,30.8937775 27.5927271,60.2321391 0,87.9614498 C26.5922275,78.8971297 45.6543786,60.2321391 57.3444272,32.0737482" id="Shape" fill="#D1EAF1"></path>
                    <path d="M79.934656,47.0379216 C71.0881328,28.8556463 58.9241634,14.8032684 43.4954057,4.7735177 C43.4954057,44.7852504 29.0144898,72.5145611 0.0526578762,87.9614498 C34.5435668,85.7087785 61.1357942,72.0854808 79.934656,47.0379216" id="Shape" fill="#A5CBE2" opacity="0.75"></path>
                    <path d="M91.2034415,55.2440813 C87.6753638,42.5325791 81.0404714,29.3383616 71.2987643,15.6614289 C63.8213459,58.4085481 40.0726438,82.4906767 0.0526578762,87.9614498 C46.0229838,86.1378588 76.4065783,75.2499476 91.2034415,55.2440813" id="Shape" fill="#3F87C1" opacity="0.85"></path>
                    <path d="M95.2054401,81.149801 C95.2054401,75.893568 94.5208877,71.1736853 93.2570987,66.8292479 C73.8263424,80.4525456 42.7581955,87.5323696 0.105315752,87.9614498 C26.5922275,88.4441651 58.2922689,86.1378588 95.2054401,81.149801" id="Shape" fill="#2468B9"></path>
                </g>
                <g id="pl" transform="translate(0, 34.7555)">
                    <path d="M0,47.735177 C0,43.1761995 0.68455239,37.7590614 1.94834142,31.3764928 C18.7462039,45.4825058 47.1814571,52.7232349 87.4647323,53.2059501 C65.3484243,54.1177457 36.2286188,52.2941546 0,47.735177" id="Shape" fill="#7AA4D6"></path>
                    <path d="M4.00199859,20.4885816 C4.00199859,18.6649906 5.79236638,11.8533417 9.26778621,0 C24.3279388,31.805573 50.3935875,49.5587681 87.4647323,53.1523151 C47.7080358,52.2941546 19.8520193,41.4062435 4.00199859,20.4885816" id="Shape" fill="#9BC0DD"></path>
                </g>
                <g id="Bible" transform="translate(-0, 89.3023)">
                    <rect id="Rectangle-path" fill="#6C6C6C" x="1.42108547e-14" y="0" width="91.4667309" height="4.45170752"></rect>
                    <polygon id="Rectangle-path" fill="#6C6C6C" points="107.316752 0 198.783483 0 198.783483 4.45170752 107.316752 4.45170752"></polygon>
                    <rect id="Rectangle-path" fill="#6C6C6C" x="17.2191255" y="3.43264194" width="165.714336" height="6.43620365"></rect>
                    <ellipse id="Oval" fill="#6C6C6C" cx="186.19825" cy="4.12989734" rx="12.5852324" ry="4.07626231"></ellipse>
                    <ellipse id="Oval" fill="#6C6C6C" cx="12.5852324" cy="4.12989734" rx="12.5852324" ry="4.07626231"></ellipse>
                    <path d="M91.414073,0 L91.414073,0 C95.7846768,0 99.3654124,2.14540122 99.3654124,4.7735177 L99.3654124,4.7735177 C99.3654124,7.40163419 95.8373346,9.54703541 91.414073,9.54703541 L91.414073,9.54703541 C87.0434693,9.54703541 83.4627337,7.40163419 83.4627337,4.7735177 L83.4627337,4.7735177 C83.5153916,2.19903625 87.0434693,0 91.414073,0 L91.414073,0 Z" id="Shape" fill="#6C6C6C"></path>
                    <path d="M107.316752,0 L107.316752,0 C111.687355,0 115.268091,2.14540122 115.268091,4.7735177 L115.268091,4.7735177 C115.268091,7.40163419 111.740013,9.54703541 107.316752,9.54703541 L107.316752,9.54703541 C102.946148,9.54703541 99.3654124,7.40163419 99.3654124,4.7735177 L99.3654124,4.7735177 C99.4180702,2.19903625 102.946148,0 107.316752,0 L107.316752,0 Z" id="Shape" fill="#6C6C6C"></path>
                    <ellipse id="Oval" fill="#A1A1A1" cx="178.562858" cy="4.82715273" rx="1.94834142" ry="2.03813115"></ellipse>
                    <rect id="Rectangle-path" fill="#A1A1A1" x="146.810159" y="3.75445213" width="25.8550172" height="2.73538655"></rect>
                    <line x1="181.932962" y1="8.90341504" x2="188.567855" y2="2.09176618" id="lineAB" stroke="#6C6C6C" stroke-width="2" fill="#000000"></line>
                    <line x1="11.5847328" y1="2.03813115" x2="18.2196252" y2="8.84978001" id="lineBC" stroke="#6C6C6C" stroke-width="2" fill="#000000"></line>
                </g>
            </g>
        </g>
    </g>
</svg>