<svg xmlns="http://www.w3.org/2000/svg" width="200" height="100"><g fill="none" fill-rule="evenodd"><path fill="#D1EAF1" d="M161.449 32.074C152.181 18.45 136.699 7.724 115.057 0c20.326 30.894 16.64 60.232-10.952 87.961 26.592-9.064 45.654-27.729 57.344-55.887"/><path fill="#A5CBE2" d="M184.04 47.038c-8.847-18.182-21.011-32.235-36.44-42.264 0 40.011-14.48 67.74-43.443 83.187 34.491-2.252 61.083-15.876 79.882-40.923" opacity=".75"/><path fill="#3F87C1" d="M195.308 55.244c-3.528-12.711-10.163-25.906-19.905-39.583-7.477 42.748-31.226 66.83-71.246 72.3 45.97-1.823 76.354-12.711 91.151-32.717" opacity=".85"/><path fill="#2468B9" d="M199.31 81.15c0-5.256-.685-9.976-1.948-14.32-19.431 13.623-50.5 20.702-93.152 21.131 26.487.483 58.187-1.823 95.1-6.811"/><path fill="#7AA4D6" d="M.474 82.49c0-4.558.684-9.975 1.948-16.358C19.22 80.238 47.655 87.479 87.94 87.962c-22.117.911-51.236-.912-87.465-5.471"/><path fill="#9BC0DD" d="M4.476 55.244c0-1.824 1.79-8.635 5.266-20.489 15.06 31.806 41.125 49.56 78.197 53.153-39.757-.858-67.613-11.746-83.463-32.664"/><g transform="translate(.474 89.302)"><path fill="#6C6C6C" d="M0 0h91.467v4.452H0zM107.317 0h91.466v4.452h-91.466z"/><path fill="#6C6C6C" d="M17.219 3.433h165.714v6.436H17.219z"/><ellipse cx="186.198" cy="4.13" fill="#6C6C6C" rx="12.585" ry="4.076"/><ellipse cx="12.585" cy="4.13" fill="#6C6C6C" rx="12.585" ry="4.076"/><path fill="#6C6C6C" d="M91.414 0c4.37 0 7.951 2.145 7.951 4.774 0 2.628-3.528 4.773-7.95 4.773-4.372 0-7.952-2.145-7.952-4.773C83.515 2.199 87.043 0 91.414 0ZM107.317 0c4.37 0 7.951 2.145 7.951 4.774 0 2.628-3.528 4.773-7.951 4.773-4.37 0-7.952-2.145-7.952-4.773C99.418 2.199 102.946 0 107.317 0Z"/><ellipse cx="178.563" cy="4.827" fill="#A1A1A1" rx="1.948" ry="2.038"/><path fill="#A1A1A1" d="M146.81 3.754h25.855v2.735H146.81z"/><path fill="#000" stroke="#6C6C6C" stroke-width="2" d="m181.933 8.903 6.635-6.811M11.585 2.038 18.22 8.85"/></g></g></svg>