<svg viewBox="0 0 1881 1941" xmlns="http://www.w3.org/2000/svg" xmlns:xlink="http://www.w3.org/1999/xlink"><linearGradient id="a" gradientUnits="userSpaceOnUse" x1="164" x2="1711" y1="899.5" y2="899.5"><stop offset="0" stop-color="#eca203"/><stop offset="1" stop-color="#bf1d1b"/></linearGradient><circle cx="937.5" cy="899.5" fill="url(#a)" r="773.5"/><circle cx="937.15" cy="899" fill="#d1d1d1" r="507.66"/><g fill="#a33205"><path d="m1052.28 468.22s.07-.01.1-.02c.02-.05.05-.1.07-.15z"/><path d="m1222.74 505.61c-.28.85-.85 2.11-1.08 3.42-.37 2.13-.84 3.86-3.46 4.36-3.19.6-6.47 1.76-9.35-.27-2.37-1.66-4.26-4.01-6.28-5.97 2.12-5.33 7.83-3.72 11.98-5.93-3.04-3.94-5.19-8.22-10.65-8.24-2.04 0-4.09.41-6.11.29-1.8-.11-3.57-.7-6.11-1.23 6.66 5.6 6.67 5.68 3.78 13.43-.45 1.22-.69 2.52-1.14 4.22 3.63.63 5.06 2.9 4.45 5.95-.5 2.51-1.76 4.87-2.95 8.02-3.22-4.66-7.86-4.73-12.28-5.39-1.97 1.59-3.82 3.36-5.93 4.73-2.81 1.82-5.88 3.24-8.73 5.01-2.34 1.45-2.54 2.63-1.04 5.02.97 1.55 2.15 2.96 3.3 4.51-1.99 1.11-3.68 2.05-5.7 3.17-5.7-2.32-11.59-4.72-17.58-7.15-1.09 1.38-2.1 2.66-3.08 3.9 2.86 3.94 2.92 3.78 7.82 5.7 1.19.47 1.82 2.33 2.76 3.61-4.79 2.7-9.47 2.4-12.63-.73-1.64-1.63-3.17-2.85-5.65-2.94-2.27-.08-3.45-1.43-3.76-3.96-.32-2.63-1.45-5.15-2.29-7.97 2.34-5.38 2.11-7.41-2.38-9.31-4.52-1.91-7.15-6-11.11-8.49-.53-.34-.64-1.35-1.34-2.94 1.7.75 2.88.89 3.28 1.53 1.33 2.09 3.23 2.8 5.51 3.23 1.8.34 3.5 1.2 5.28 1.7 4.69 1.3 9.39 2.54 14.1 3.77 2.45.64 4.99 1.03 7.39 1.82 8.17 2.71 19.97-1.07 24.72-8.1 1.08-1.6 1.45-3.17.49-5.21-1.42-3.01-2.21-6.08-5.94-7.56-2.02-.8-3.63-2.5-6.07-3.1-2.87-.71-5.5-2.5-8.15-3.97-5.04-2.8-9.98-5.8-15.06-8.51-1.61-.86-3.52-1.31-5.34-1.57-3-.43-6.23-1.29-9.03-.61-3.28.8-4.96-1.97-7.65-2.07-1.33-.05-2.63-.71-3.95-1.1.05-.21.11-.43.16-.64 1.44-.12 2.89-.25 4.33-.37.05-.32.11-.65.16-.97-1.91-.92-3.81-1.84-5.69-2.74-1.62 1.02-3.04 1.92-4.56 2.88-5.3-2.07-11.92.03-16.35-5.52 4.67 1.11 8.84.48 12.96-2.58-1.1-.95-1.85-1.93-2.83-2.35-2.56-1.1-5.29-1.84-7.85-2.95-4.66-2.02-4.62-2.08-6.79 2.24-.24.47-.7.83-1.06 1.23-.22-.11-.43-.23-.65-.34.32-2.01.64-4.03.97-6.1-.41-.24-.82-.65-1.28-.71-1.47-.2-3-.52-4.44-.33-2.02.26-.75 2.25-1.35 3.22-.99 1.61-2.33 3-3.53 4.48-.27-.13-.55-.26-.82-.4v-5.74c-4.87 2.41-6.73 7.33-10.55 9.99-.31-.24-.62-.48-.93-.72 2.26-3.71 4.51-7.42 6.88-11.31-1.22-.13-2.35-.24-3.43-.36-.39 1.22-.69 2.18-1.06 3.34-1.73-.74-3.09-1.32-4.87-2.08-1.15 1.76-2.18 3.35-3.23 4.95-1.27-.36-2.45-1.75-3.95.17-.66.84-2.37.87-3.64 1.23-.6 1.23-.87 2.28.88 3.05 1.74.77.93 1.71-.13 2.67-.89-1.29-1.71-2.47-2.58-3.72-3.13.71-6.07 1.38-9.01 2.05l-.91 1.05c1.43.52 2.87 1.03 4.3 1.55-2.32.83-3.75.59-5.14.74-1.46.16-2.89.71-4.31 1.09-.27 1.49-.52 2.9-.78 4.31-.2-.05-.41-.11-.61-.16-.13-1.53-.26-3.07-.44-5.18-1.21.82-1.9 1.25-2.55 1.73-1.68 1.23-2.56.76-3.2-1.18-.44-1.34-1.37-2.52-1.92-3.49-2.34 2.27-4.51 4.35-6.63 6.49-.28.28-.25.86-.44 1.56h3.38c-.18.87-.31 1.52-.46 2.24-1.43-.55-2.82-1.07-4.2-1.61-4.33-1.71-7.08.67-6.45 5.74 1.32-.53 2.6-1.04 4.07-1.63-.46 5.14-4.08 6.06-7.72 6.95-.78 2.16-1.56 4.33-2.33 6.48-3.14-1.91-7.17.07-8.94 4.49.78.42 1.55.84 2.06 1.12-1.61 1.23-3.06 2.34-5.07 3.88 1.82.53 2.73.79 3.82 1.11-5.42.93-9.4 3.37-12.17 7.37-1.4 2.03-1.16 3 1.15 4.7-6.01 1.75-7.32 6.89-8.97 12.59-2.21.87-4.89 1.93-7.44 2.93.59.32 1.48.81 2.22 1.21-3.83 3.72-8.05 6.8-10.81 10.88-1.75 2.59-2.69 3.58-5.55 2.41-1.28-.52-2.66-.43-3.24 1.39-.97 3.02-1.87 3.68-4.31 4.36-2.6.72-5.75.73-7.13 4.67 1.21-.18 1.95-.42 2.67-.36.63.06 1.22.46 1.83.71-6.81.3-6.83.26-12.4 3.67-2.47 1.51-5.01 3.87-4.45 6.54.65 3.08.08 6.01.46 8.89.39 2.95-.45 6.46 2.44 8.75-1.63 1.15-2.39 2.4-1.15 4.16-.02 0-.04 0-.06 0-.11 1.79-.19 3.6-.29 5.86 1.79-.66 3.15-1.16 5.02-1.85-.24 1.56.83 2.76-1.16 3.67-2.5 1.14-1.87 3.4-.37 4.48 2.99 2.14 6.21 4.32 9.67 5.35 3.96 1.18 7.65-.75 10.73-3.48 2.28-2.02 4.29-5.2 6.9-5.8 3.48-.8 5.1-2.5 5.93-5.99 1.7 2.45 3.77 4.17 4.16 6.21 1.77 9.22 6.3 17.01 12.04 25.04-2.47 2.24-5.02 4.54-7.57 6.84-2.89-2.75-3.31 1.24-5.93 1.48 2.57 3.28 4.61 5.88 6.8 8.67 1.06-2.04 2.13-3.83 2.95-5.72.84-1.93 1.44-3.96 2.55-7.1.85 2.85 1.39 4.68 2.07 6.97 2.56-.13 5.36-.27 8.11-.4.54-6.82 2.17-7.24 11.6-7.62 2.96-3.88 4.19-8.43 4.91-13.13.43-2.83.53-5.72.78-8.57.17-1.97.95-3.48 2.89-4.35 1.86-.84 3.64-1.85 5.39-2.9 1.14-.68 2.87-1.41 3.1-2.4.63-2.74 2.72-4.47 4.12-6.66-2.73-4.81-6.93-7.43-10.75-8.85-4.26-7.08 1.44-12.94.42-18.72 1.24-1.14 2.25-2.13 3.33-3.03 2.49-2.05 4-4.97 7.04-6.66 6.36-3.55 13.45-6.4 16.83-13.83-.53-1.22-1.14-2.62-1.87-4.29 2.94-1.47 1.67-5.55 4.86-7.19 2.21-1.14 6.61-3.35 9.18-3.59.33-.03.65-.21.99-.26 4.91-.68 9.32.34 12.92 3.65v6.1c-1.86.9-4.24 1.25-5 2.55-3.97 6.78-11.69 9.77-15.98 16.17-.38.56-1.45.69-2.22.96-3.1 1.11-5.33 6-4.76 9.28.71 4.06 3.05 7.82 2.08 12.21-.54 2.45-.66 5-.97 7.51 2.28.93 5.01.7 5.62 3.68.2.99 2.47-.49 2.08 1.53 1.19.14 2.43.13 3.57.46.94.27 1.84 1.45 2.63 1.35 3-.41 5.97-1.12 8.93-1.84 5.25-1.27 10.44-2.79 15.72-3.88 3.41-.7 6.95-.83 9.7-1.14 1.69 1.5 3.04 2.88 4.57 4 1.67 1.23 4.63-.9 5.77 2.07-9.05 1.37-12.06 2.66-14.15 6.31-4.86-.7-9.91-2.22-14.86-1.93-4.89.28-9.67 2.38-14.19 3.6-1.34 3.42-1.1 6.21.72 8.33 1.11 1.29 3.28 1.67 4.65 2.31 0 2.58-.15 5.26.05 7.9.17 2.3-1.04 3.51-2.81 4.37-1.94.94-3.6.43-4.98-1.24-1.6-1.93-3.28-3.78-5.27-6.07-2.27 1.25-5.08 1.87-6.14 3.57-2.84 4.57-5.18 9.53-3.73 15.3.5 1.98.89 4 1.06 6.03.1 1.23-.31 2.51-.43 3.36h-7.13c-1.06 1.69-1.67 3.15-2.69 4.22-2.28 2.39-6.41 2.48-7.4-.1-1.21-3.15-3.17-3.33-5.61-2.5-3.48 1.19-6.78 2.94-10.29 4.03-5.87 1.83-11.45 6.33-18.11 2.41-.38-.22-.82-.36-1.51-.65 2.04-1.75 1.93-3.2-.51-4.62-1.14 1.5-2.13 3.18-4.43 2.35-.57-.2-1.52.49-2.24.87-1.93 1.02-3.76 2.24-5.76 3.07-.96.4-2.46.52-3.24.02-.66-.42-.64-1.92-.98-3.18-4.32.75-6.35-2.09-8.09-5.3-1.42-2.61-1.35-5.19.67-7.46 2.12-2.37 3.24-5.79 6.82-6.72.18-.05.15-.89.21-1.33-4.17-1.64-4.67-2.39-3.26-6.28.72-1.99 1.37-3.77-.13-6.2-1.42.83-3.24 1.33-4.11 2.52-1.6 2.17-3.53 2.94-6.07 3.09-2.2.13-3.76 1.26-4.13 3.86.96.39 1.79.73 3.46 1.41-1.95.12-3.02.18-4.44.27.54 4.32-1.97 8.97 2.83 12.17.38.25.22 1.27.37 1.92.36 1.63.83 3.24 1.1 4.89.37 2.28.63 4.59.86 6.89.04.38-.23.93-.53 1.17-1.24.99-2.56 1.9-4.04 2.97-2.01-1.47-5.03-2.59-6.71-.63-1.98 2.32-4.04 1.54-6.18 1.92-1.96.35-3.87 1.04-5.74 1.76-.51.2-.76 1.06-1.11 1.6.66 1.46 1.26 2.81 1.98 4.41-1.27.67-2.32 1.22-4.04 2.13.5-1.46.99-2.14.86-2.69-.2-.85-.81-1.61-1.24-2.41-.75.53-1.53 1.01-2.24 1.6-.22.19-.27.61-.35.95-1 4.31-3.92 7.3-6.89 10.33-2.86 2.91-6.51 4.03-10.19 5.16-2.1.64-4 1.44-3.79 4.04.34 4.08-1.92 5.83-5.48 6.72-2.11.53-4.39.93-4.53 3.97-.02.45-1.75 1.33-2.47 1.15-2.47-.62-5.56.45-7.28-2.67-.32-.58-2.26-.26-3.44-.35.74 3.28 1.35 5.99 2.18 9.68-4.13-1.33-7.75 1.6-10.83-1.78-.27-.3-1-.4-1.45-.29-3.24.76-6.47 1.6-10.14 2.53.74 1.25 1.5 1.94 1.49 2.61-.07 3.46 1.93 3.98 4.83 4.22 2.32.19 4.74.98 6.79 2.11 1.93 1.07 4.52 2.7 4.89 4.49.85 4.11 3.63 5.86 6.98 7.59.38 7.03-.63 13.86-1.93 20.64-.7 3.65-2.96 5.04-6.62 4.53-1.49-.2-2.98-.51-4.47-.56-3.54-.13-7.16.3-10.61-.29-5.4-.91-10.75-1.47-16.22-1.18-1.1.06-2.25-.93-3.36-.88-1.76.07-3.57.43-5.24.99-1.51.51-2.91 1.41-4.3 2.23-.96.57-1.83 1.3-2.95 2.11 2.3 3.4 3.74 6.71 2.7 10.6-.16.6.1 1.35.29 2 1.8 6.3.15 12.1-2.65 17.68-2.58 5.14-2.4 6.16 2.38 9.48v10.39c2.99 0 5.91.46 8.61-.1 4.97-1.04 6.46-.62 8.76 4.23 1.07 2.26 2.33 4.14 5.33 4.52 6.2-8.08 15.66-4.73 24-6.38 1.59-3.46 3.76-6.42 7.17-6.31 2.69-3.66 4.92-6.71 7.26-9.89-3.42-4.54-3.43-5.63.43-10.56 1.55-1.99 3.68-3.7 4.64-5.93.92-2.14 2.51-2.53 4.18-3.26 2.77-1.21 5.61-2.3 8.25-3.74 4.84-2.64 4.94-2.9 3.47-8.44-.67-2.51-.08-4.35 1.94-5.79 1.37-.98 2.82-1.84 4.07-2.65 4.44 1.35 8.55 2.85 12.8 3.75 1.6.34 3.94-.22 5.16-1.27 2.63-2.28 5.26-4.22 8.73-5.01.88-.2 1.61-1.18 2.33-1.88 3.45-3.37 4.02-3.78 7.39-1.76 2.29 1.38 5.82 1.27 6.51 5.01.76 4.1 3.11 7.44 6.06 10.28 1.68 1.61 3.77 2.79 5.48 4.38 3.23 3.02 6.16 6.45 11.12 6.5.47 0 1.23.23 1.37.55 1.69 4.04 7.69 3.4 8.8 8.1.11.45 1.09.9 1.71.97 2.56.27 3.18 2.25 3.89 4.18.7 1.9 1.37 3.82 1.99 5.57-1.02 1.74-1.93 3.31-2.97 5.08-5.61.57-11.12 3.97-17.18 1.16-.62-.29-1.69.13-2.44.46-.95.43-2.27.93-2.57 1.72-.61 1.65.84 2.17 2.15 2.81 3.91 1.91 7.69 4.09 11.62 5.97 1.1.53 2.84.91 3.72.39.8-.47 1.39-2.45 1.07-3.43-.97-2.92.27-4.94 1.97-6.95 1.12.32 2.21.63 3.51 1 2.4-3.21 4.73-6.32 8.15-10.89.71-1.88-3.08-2.57-4.7-4.89 1.05-1.86 2.1-3.71 3.43-6.05 3.3 1.98 6.18 3.71 9.19 5.51.97-1.44 1.08-2.86-.23-4.08-1.23-1.15-2.53-2.3-3.99-3.12-3.98-2.23-8.06-4.29-12.16-6.45.4-1.15.76-2.17 1.13-3.2-.61-.19-.93-.37-1.25-.38-8.34-.31-11.39-2.66-14.67-10.72-.72-1.76-2.23-3.29-3.64-4.65-1.21-1.16-3.08-1.68-4.14-2.93-1.14-1.33-2.7-3.54-2.27-4.71.93-2.54.04-4.77-.22-7 6.54-2.99 6.54-3.03 9.05-2.28-.97 2.69-.34 4.91 2.06 7 1.22-1.48 2.33-2.82 3.92-4.76 1.09 1.95 1.97 3.29 2.61 4.74 2.46 5.59 4.49 11.44 11.97 12.29 1.48.17 2.84 1.72 4.18 2.73 1.07.8 1.89 2.03 3.05 2.59 4.81 2.3 8.93 5.47 12.57 9.39-.22 2.37-.26 4.76-.72 7.07-.57 2.86-.77 5.33 2.31 7 .78.42 1.12 1.63 1.69 2.46 2.48 3.6 4.91 7.23 7.49 10.76.4.55 1.47.58 2.19.94.37.18.65.56.84.73-.92 1.21-1.7 2.23-2.77 3.63 2.57 1.56 3.87 3.54 3.43 6.42-.07.43 1.59 1.68 1.89 1.51 2.73-1.48 2.47 1.35 2.81 1.65h5.36c-.54-1.99-1.14-4.19-1.78-6.53 1.35.19 2.55.35 4.04.56-.76-1.62-1.33-2.84-2.4-5.12 2.87.79 4.67 1.29 6.62 1.83v-3.55c1.07.6 1.95 1.09 2.93 1.63-1.68-5.4-6.3-7.07-11.11-9.43 1.4-.26 2.06-.39 2.89-.55-.94-3.57-6.01-5.58-3.92-10.21 2.86 1.16 5.5 2.23 8.2 3.32-.12-1.81-.23-3.43-.33-4.87 6.38-4.33 12.4-2.61 17.68.67-.79 2.74-1.59 5.52-2.51 8.7 1.97.13 3.25.21 4.76.31.19 2.98.38 5.84.58 8.97-1.3-.62-2.08-.99-3.05-1.45-.07 1.18-.12 1.98-.16 2.68 2.1.94 3.92 1.76 4.87 2.19.93 3.15 1.61 5.5 2.28 7.78 1.58.71 4.48-.88 4.14 2.79 3.43-.84 6.16-.46 8.3 2.8 1.33 2.03 6.71 1.75 8.43.07.54-1.36 1.07-2.71 1.63-4.15 4.36.22 7.81 1.57 10.73 4.56.96.99 2.7 1.94 3.95 1.79 3.46-.41 7.19-.38 9.66-3.73 1.48-2.01 3.48-2.5 5.83-1.05 1.41.87 2.87.65 4.23-.52.64-.55 1.65-.67 2.49-.98-1.9 3.58-2.23 7.28-1.72 10.7.59 3.98.5 7.38-1.34 11.13-2.45 5.02-4.06 10.44-5.95 15.73-1.31 3.67-3 7.14-7.24 7.8-2.79.44-5.75-.26-8.57.08-2.63.31-3.54-2.18-5.55-2.68-4.99-1.23-9.2.72-13.4 3.08-1.53.86-3.49 1.75-5.08 1.51-3.33-.5-6.63-1.52-9.78-2.74-4.97-1.92-9.97-3.19-15.47-2.17-1.3-2.87-3.47-3.57-6.46-4.02-3.13-.47-7.45.14-8.85-4.43-.14-.46-1.13-.65-1.71-.99-4.88-2.8-9.58-1.43-14.1.82-4.99 2.48-5.85 4.69-4.55 10.26.63 2.7-.45 5.05-3.15 6.87-2.24 1.51-4.5 1.64-6.59-.16-4.58-3.96-9.99-5.66-15.9-6.16-3.21-.27-5.55-1.88-6.18-5.14-.52-2.71-1.75-4.25-4.61-4.49-.96-.08-1.89-.73-2.81-1.15-3.28-1.48-6.55-2.48-10.29-1.74-1.51.3-3.4-.23-4.86-.93-2.97-1.43-5.64-3.49-8.64-4.83-6.68-2.99-6.79-3.14-1.78-8.13 3.95-3.94 4.05-5.68.49-10.19-1.39-1.76-1.42-3.23.32-4.87 1.13-1.07 1.85-2.57 2.75-3.88-.23-.23-.45-.45-.68-.68-1.43.53-2.86 1.06-4.24 1.57-2.62-4.24-4.67-4.9-8.78-2.94-.76.36-1.41 1.1-2.2 1.27-2.14.45-4.5 1.36-6.47.88-5.18-1.27-10.03-.92-14.92 1.04-1.13.45-2.81.78-3.75.26-3.28-1.78-6.63-1.27-9.96-.79-3.84.55-7.6 1.66-11.44 2.16-4.95.64-9.82 1.21-13.43 5.23-.39.43-1.21.64-1.84.67-3.1.15-5.47 1.74-7.6 3.77-2.64 2.5-6.07 3.15-9.02 1.92-2.88-1.2-5.69-1.06-8.22-.58-5.19.99-8.51-.89-10.71-5.22-2.34.22-3.85 1-4.38 3.19-.24.99-.72 1.91-1.04 2.88-2.07 6.31-5.6 11.12-12.32 13.23-1.97.62-3.5 2.54-5.31 3.75-3.1 2.07-3.11 5.91-5.06 8.62-2.49 3.46-2.58 7.12-1.42 11.06.34 1.17.38 2.82-.19 3.81-4.06 6.93-9.52 12.56-17.37 14.79-3.92 1.11-6.17 2.95-7.5 6.64-.66 1.81-1.72 4.11-3.25 4.86-4.88 2.39-5.52 6.93-6.84 11.29-.51 1.69-1.19 3.62-2.43 4.73-3.41 3.06-5.47 6.79-6.88 11.04-.48 1.44-.84 3.26-1.9 4.1-3.23 2.57-3.29 6.13-3.76 9.57.79.98 1.37 2.09 2.28 2.75 3.26 2.38 4.01 5.28 2.28 8.88-.67 1.39-.03 2.41.56 3.73 2.11 4.67 2.44 9.48.31 14.34-.75 1.7-1.62 3.53-1.65 5.32-.1 4.8-2.36 8.37-5.63 11.54.96 1.4 2.05 2.72 2.84 4.21 1.12 2.12 2.28 4.01.99 6.88-.8 1.77-.24 5.06 1.01 6.62 1.74 2.17 4.7 3.35 7.72 5.34 0 1.83 1.31 3.81 3.79 5.12.82.44 1.42 1.31 2.09 2 1.14 1.18 2.11 2.57 3.4 3.54 3.4 2.54 5.91 5.69 6.29 9.97.45 5 3.86 7.75 7.37 10.4 5.52 4.17 11.13 8.21 16.76 12.22 3.3 2.35 6.64 4.67 10.1 6.79 2.78 1.7 5.52 1.48 8.63-.02 10.35-5 21.08-6.11 32.08-1.99.85.32 1.99.4 2.84.13 6.25-2.02 11.73-6.17 18.52-6.74.29-.02.61-.31.82-.56 2.24-2.6 5.45-2.58 8.43-3.06 2.35-.38 4.75-.43 7.12-.69 8.23-.9 12.19 1.65 14.92 9.65 1.55 4.54 3.33 5.65 8.05 5.01.67-.09 1.33-.25 2-.38 3.43-.66 6.84-1.55 10.3-1.84 1.12-.09 2.43 1.31 3.55 2.16 1.48 1.12 2.85 2.38 4.96 4.17.38 1 2.07 3.19 1.74 5.02-.65 3.6.21 7.61-2.29 10.84-.4.51-.91 1.56-.7 1.82 2.15 2.67-.47 4.92-.56 7.37-.11 2.94-.74 5.74-4.6 7.07 3.11 4.91 5.6 9.56 8.79 13.67 3.22 4.14 7.25 7.65 10.68 11.64 1.63 1.9 3.49 4.15 3.89 6.47 1.16 6.78 4.74 12.54 7.21 18.74 1.27 3.19 1.88 5.76-.91 8.11.58 2.03.95 3.88 1.64 5.61.75 1.89 1.82 3.65 2.7 5.5 2.36 4.97.96 10.62-2.78 14.45-2.17 2.22-3.91 5.07-5.12 7.94-1.3 3.09-1.34 6.73-2.68 9.8-2.39 5.45-2.01 11.2-2.67 16.85-.36 3.07.79 5.66 2.33 8.17 1.96 3.17 4 6.3 5.8 9.56 3.29 5.94 6.5 11.91 9.57 17.96.72 1.42.92 3.19 1.04 4.82.24 3.37-.13 6.83.47 10.13 1.14 6.3 2.96 12.48 4.14 18.77.95 5.08 3.34 9.13 6.87 12.82 2.08 2.17 4.18 4.7 5.15 7.46 2.21 6.31 4.82 12.31 8.45 17.96 2.43 3.79 1.63 6.88-1.7 9.73.83 3.4 5.17 5.58 3.67 8.97 2.51 1.77 4.61 3.2 6.66 4.71 1.97 1.45 3.74 1.7 6.08.39 1.96-1.11 4.41-1.39 6.67-1.93 1.31-.31 3.06.06 3.95-.68 2.94-2.43 6.18-2.46 9.65-2.08 2.67.29 5.36.41 8.04.5 1.13.04 2.33-.03 3.41-.34 2.78-.81 5.48-2.41 8.27-2.55 3.3-.17 6.01-1.28 8.46-3.1 10.32-7.67 19.56-16.32 25.69-27.92 1.45-2.75 3.8-5.14 6.12-7.28 3.03-2.8 7.54-15.95 6.26-19.78-.29-.87-1.15-1.55-1.6-2.13.76-3.53 3.29-4.98 5.99-6.15 2.81-1.22 5.79-2.07 8.53-3.42 3.01-1.48 5.51-3.52 4.54-7.55-.15-.64-.11-1.38.05-2.02 1.85-7.41-1.59-13.87-3.66-20.58-.57-1.85-1.05-3.72-1.43-5.08 3.35-3.05 6.08-5.57 8.84-8.05 1.74-1.56 3.98-2.78 5.2-4.66 2.67-4.14 6.51-6.71 10.93-7.91 6.8-1.84 11.04-6.46 14.5-11.95 1.53-2.42 2.88-5.11 1.91-8.55-2.18-7.74-1.69-15.77-1.46-23.7.08-2.8-.02-4.99-2.69-6.52-.96-.55-2.06-1.47-2.38-2.45-2.2-6.65-4.6-13.33-1.7-20.87-.59-.38-1.22-.69-1.73-1.14-3.02-2.67-3.94-5.65-1.94-9.51 2.32-4.47 4.27-9.13 6.37-13.72.91-1.98 1.25-4.79 2.78-5.8 5.46-3.6 9.04-8.72 13.02-13.67 6.74-8.4 14.14-16.18 23.95-21.17.6-.31 1.2-.69 1.68-1.16 9.01-8.65 17.45-17.71 21.93-29.72.47-1.26 1.18-2.45 1.85-3.63 2.75-4.87 6.04-9.51 8.15-14.64 1.73-4.22 3.51-8.65 3.36-13.47-.06-1.84.19-3.68.3-5.48-1.68-.98-3.04-1.31-4.73.06-1.39 1.12-3.21 1.99-4.96 2.34-4.78.97-9.72 1.26-14.43 2.46-4.99 1.27-9.85 2.96-15.07 3.06-.31 0-.6.31-.91.45-5.48 2.48-7.74 1.87-11.47-2.71-1.49-1.83-3.31-3.41-4.96-5.08 3.95-2.88 4.04-4.64.29-8.03-1.6-1.44-2.91-3.23-4.6-4.55-4.48-3.51-7.47-8.6-13.07-11.05-3.01-1.32-6.5-3.26-7.48-7.19-.37-1.48-.49-3.02-.9-4.49-1.17-4.23-1.65-9.13-5.72-11.59-6-3.63-8.01-8.78-7.67-15.36.07-1.34-.21-2.7-.31-4.05-.45-5.6-2.49-10.31-7.3-13.61-3.87-2.65-4.6-5.1-3.4-9.69-4.59-7.39-8.74-14.75-11.63-22.79-.97-2.69-1.66-5.72-3.41-7.81-2.89-3.46-5.08-7.15-6.35-11.41-.22-.73.05-1.61.11-2.86 4.04 5.71 5.02 12.88 12.11 16.11 1.24-3.83 2.35-7.27 3.46-10.71.2.04.39.09.59.13-.39 2.47-.78 4.93-1.07 6.78 1.89 1.7 3.78 2.85 4.92 4.51 3.66 5.31 7.11 10.78 10.51 16.26.87 1.4 1.57 3.05 1.81 4.66.39 2.63 1.8 4.15 3.95 5.52 5.74 3.64 8.41 9.02 8.41 15.79 0 5.34 1.33 10.33 6.19 13.12 4.13 2.37 6.69 5.59 8.31 9.88 1.38 3.67 3.46 6.81 6.12 9.83 3.18 3.61 6.14 7.76 5.04 13.31-.31 1.57.04 3.34.37 4.96.87 4.29 1.98 8.54 2.83 12.84.69 3.47 3.11 5.73 6.39 5.02 2.73-.59 5.53-1.57 7.87-3.06 2.23-1.41 4.33-2.55 7-2.58 1.18-.01 2.38-.21 3.52-.5 4.21-1.08 7.6-4.52 12.34-4.21.62.04 1.25-1.07 1.97-1.49 2.29-1.35 4.53-2.87 6.97-3.87 3.92-1.59 8.03-2.73 12-4.22 1.91-.72 3.55-1.65 3.55-4.35 0-1.13 1.51-2.85 2.7-3.28 4.57-1.67 8.93-4.28 14.05-3.96 1.96.12 3.7-.54 3.9-2.44.35-3.39 2.52-4.21 5.23-4.41 2.14-.15 3.63-.95 4.08-3.11.54-2.59 2.43-3.52 4.68-4.11 1.09-.29 2.19-.57 3.35-.88-.08-1.15-.27-2.01-.16-2.83.43-3.15-1.06-7.48 4.6-7.55.51 0 .99-1.25 1.51-1.9 1.36-1.72 2.85-3.35 4.08-5.16 1.58-2.33 2.96-4.8 4.43-7.21-.57.25-1.14.5-1.7.75-.93-1.64-1.94-3.25-2.78-4.93-2-4.02-5.45-5.55-9.66-6.4-6.54-1.32-9.72-5.5-9.93-12.28-.06-1.94 0-3.88 0-6.75-2.95 3.14-5.19 5.55-7.45 7.94-1.63 1.72-3.61 3.2-4.86 5.16-2.05 3.22-4.79 4.03-8.3 3.54-1.67-.23-3.7-.9-5-.25-3.93 1.97-6.21.06-8.11-2.13.23-2.86.57-5.17.56-7.47 0-2.11 1.05-5.04-3.39-5.14-.82 2.65-1.64 5.29-2.8 9.02-.34-4.38-4.67-6.26-3.2-10.83.39-1.21-1.51-3.63-2.92-4.85-3.79-3.27-6.84-6.93-8.64-11.66-1.02-2.68-2.45-5.2-3.71-7.83 2.43-1.92 5.03-3.97 7.14-5.64 2.69.43 4.92.78 7.97 1.26 1.97 3.62 4.46 7.83 6.59 12.22 1.33 2.74 2.63 4.94 6.1 5.36 1.49.18 2.85 1.68 4.21 2.65 1.23.88 2.43 1.79 3.56 2.8 3.2 2.86 7.61 2.48 11.11 4.43 2.39-1.31 4.58-2.6 6.85-3.73 5.67-2.82 8.03-1.76 9.25 4.52.64 3.31 2.12 5.21 5.55 5.51 1.34.12 2.65.54 3.99.73 5.01.72 10.11 1.02 15 2.22 4.26 1.05 8.34 1.14 12.6.5 3.47-.52 7.06-1.27 10.47-.88 2.92.33 5.67.37 8.52-.12 2.65-.46 5.33-.71 8.32-1.09.67 4.41 5.57 6.05 6.13 10.53.09.75 1.72 1.66 2.77 1.87 2.38.47 3.78 1.84 5.11 3.74.92 1.32 2.36 2.75 3.83 3.12 2.46.62 5.13.44 7.94.6-1.6 3.69-5.53 2.92-9.24 4.06 3.56 3.98 6.55 8.11 10.86 10.78 4.18 2.58 11.41-1.8 11.6-6.61.05-1.29.69-2.56 1.05-3.84 1.19 1.45 1.68 2.67 1.87 3.93.49 3.21 1.48 6.53 1.06 9.65-.39 2.93-.56 5.63.07 8.5 1.12 5.12 2.53 10.26 2.88 15.45.4 5.89 3.1 10.82 5.63 15.69 2.15 4.15 3.72 8.3 4.85 12.77.75 2.93 1.62 6.07 3.35 8.47 3.88 5.4 5.99 11.39 7.33 17.76.73 3.47 2.51 6.34 4.98 8.75 2.58 2.52 6.42 2.02 7.35-1.35.59-2.14 1.63-3.39 3.05-4.15 8.81-37.54 13.49-76.68 13.49-116.9 0-163.75-77.22-309.45-197.21-402.73-3.3.87-6.51 2.18-9.62 3.61-5.42 2.48-10.73 5.2-16.43 7.98z"/><path d="m588.3 1246.08c1.93-1.72 3.71-1.94 5.79-2 4.08-.11 8.16-.03 12.67-.03-.13-5.05 3.95-5.46 6.35-7.06.6-2.65.73-5.12 1.72-7.17 1.6-3.32 3.55-6.53 5.79-9.45 1.48-1.93 2.11-3.73 1.82-6.08-.35-2.81.34-5.33 2.21-7.6.77-.94 1.1-2.34 1.35-3.58.44-2.16.42-4.43 1.02-6.54.92-3.19.73-6.28.52-9.55-.38-5.95-1.62-12.15 1.94-17.79.7.38 1.42.76 2.76 1.48 1.82-3.01 3.8-5.94 5.4-9.05 1.66-3.22 3.69-5.91 6.46-8.36 4.17-3.69 8.05-7.84 10.21-13.17 3.26-8.04.95-15.72-1.66-23.35-.75-2.18-2.67-2.64-4.58-2.42-6.1.7-10.12-2.89-14.34-6.42-3.62-3.03-7.45-5.87-11.47-8.33-1.73-1.06-4.28-1.53-6.29-1.21-5.23.82-10.12.22-14.75-2.23-2.22-1.18-4.21-.72-6.33.07-1.88.7-4.58-.68-5.72 2.52.08-2.37 1.31-4.31.13-6.54-1.28-2.42-3.36-2.93-5.63-3.41-.15-.03-.24-.25-.39-.32-3.37-1.57-6.64-3.47-10.16-4.58-2.29-.72-5.08-.8-7.39-.19-1.35.36-2.01 2.84-3.28 4.04-1.65 1.57-3.44 3.57-5.47 4.03-2.73.61-5.76-.09-9-.24-.77-1.87-1.59-3.86-2.42-5.88-3.22.66-5.28 4.24-8.63 3.83 1.25-1.98 2.39-3.91 3.65-5.75 1.24-1.81 2.49-3.63 3.95-5.26 2.25-2.52 4.77-4.8 7-7.34 1.88-2.13 1.65-4.3-.88-5.35-2.24-.93-3.12-2.5-3.71-4.47-.83-2.76-1.43-5.59-2.29-8.34-.49-1.58-.93-3.45-2.04-4.5-2.66-2.49-5.61-4.69-8.61-6.78-6.33-4.4-13.39-6.79-21.1-5.59-5.01.78-9.17.02-12.96-3.36-1.72-1.53-3.74-2.72-5.84-4.22-.14-4.66-4.19-6.59-7.55-9.12-3.63-2.73-7.69-2.26-11.89-1.46 1.11-2.43 2.06-4.51 3.19-6.97-2.82-1.08-5.23-2.65-7.73-2.8-3.14-.19-4.22-1.91-5.46-4.02 1.19-.66 2.06-1.14 3.92-2.17-6.55-.04-11.77.09-16.34 3.38-3.17 2.28-6.61 1.41-9.01-.6-1.93-1.62-3.8-1.95-5.79-1.92 20.49 96.75 68.42 183.35 135.26 251.31 2.16-1.72 4.46-3.18 7.22-3.78 3.37-.73 6.15-2.39 8.36-4.36z"/><path d="m475.19 733.96v-3.08c3.97-.01 7.41-.57 9.42-4.58-1.39-.82-2.66-1.57-3.89-2.3-.65-1.84 1.52-4.06-1.16-5.74-3.57 2.99-5.8 6.77-6.75 11.61-1.34-.33-2.8-1.2-3.79-.83-4.28 1.63-8.32.17-11.56-1.8-.59-.36-1.21-.72-1.83-1.09-2.38 6.7-4.64 13.45-6.74 20.27 1.99-1.84 4.02-3.72 5.85-5.42 7.15-2.46 14.02-4.83 20.45-7.05z"/><path d="m490.2 682.33c2.9-3.69 7.02-4.86 11.1-5.21 5.33-.46 8.3-3.91 11.16-6.18-.14-3.79-.36-6.62-.31-9.45.04-2.28-.95-3.69-2.65-5.13-2.86-2.42-5.27-.69-7.91.8.47-1.54 1.23-2.68 1.05-3.65-.58-3.17-3.98-2.51-6.01-3.79 1.54-.76 2.92-1.44 4.6-2.27-3.34-2.44-3.36-2.29-7.05-2.74-.35-.04-.69-.2-1.03-.4-8.24 14.42-15.78 29.28-22.61 44.54 7.52.96 14.44.09 19.64-6.51z"/><path d="m743.38 431.2c3.44-.67 6.77-1.88 10.62-3 .24-1.07.59-2.65 1.06-4.79-2.12-.35-4.12-.68-6.11-1-5.19 2.05-10.32 4.21-15.43 6.43 1.32.75 2.6 1.43 3.94 1.96 1.76.7 4.02.77 5.92.4z"/><path d="m551.67 565.82c2.76 1.51 4.01 4.09 5.16 6.85.96 2.31 2.05 4.46 4.68 5.7 1.91.9 3.77 2.51 3.76 5.36 3.76-.81 7.33-1.58 10.91-2.35s-.14.11-.14.11h.05c.01-.02.03-.03.04-.05.68-.34 1.38-.7 2.76-1.41-.79 3.47.07 5.48 3.24 6.01.67.11 1.76 1.05 1.72 1.53-.2 2.22 1.52 2.4 2.83 3.02 1.35.64 2.83 1.03 4.09 1.81 2.63 1.63 5.06.21 7.14-.79 2.46-1.18.48-3.58.38-5.46 2.38-.77 3.44-2.51 4.06-4.81.86-3.2 2.35-6.27 2.91-9.51.46-2.69.03-5.56-.18-8.33-.03-.34-1.11-.61-1.51-.81 1.55-.71 3.54-1.08 4.71-2.26 2.6-2.64 4.83-5.66 7.15-8.57 1.67-2.09 1.33-4.25-.93-6.71 1.5-1.04 2.98-2.07 5.12-3.54-2.11-2.16-3.94-4.04-5.92-6.07 2.78-1.76 7.6 1.42 8.93-3.61-.47-.67-1-1.43-1.64-2.34 3.32-.42 6.47-.43 9.36-1.29 3.41-1.01 3.37-4.9 5.01-7.42.09-.14.19-.36.31-.38.76-.08 1.53-.11 2.82-.2-1.06 1.56-1.93 2.61-2.52 3.79-.64 1.29-1.01 2.7-1.88 5.13 4.03-1.43 7.06-2.82 10.25-3.54 2.44-.55 4.3-1.6 5.87-3.42.4-.46.92-1.15 1.41-1.16 5.51-.21 8.37-4.19 10.82-8.15 3.05-4.93 5.57-10.17 11.36-11.98.17-2.02.3-3.53.45-5.37 1.18.7 1.79 1.02 2.35 1.4 2.96 1.98 5.87 3.28 9.32.79 1.15-.83 2.84-.96 4.32-1.28 7.62-1.65 15.28-3.11 22.84-4.99 2.18-.54 4.25-2.03 6.05-3.48 5.01-4.01 10.32-7.48 16.13-10.21 2.24-1.06 4.36-2.38 6.51-3.57-5.97-1.09-11.43-2.17-16.91-3.05-2.15-.35-4.39-.47-6.56-.34-3.03.18-6.03.64-9.05 1 1.11-.63 2.27-1.29 3.97-2.26-1.73-.55-2.66-.84-3.6-1.14 3.98.71 7.63.28 10.84-2.35.57-2.91-1.03-4.27-2.84-4.54.22-2.2.4-4.01.58-5.82 4.75 1.65 9.81 2.88 11.01 8.96.15.78.76 1.53 1.32 2.16 2.64 2.98 7.12 3.17 9.52.46q2.66 1.89 6.74 1.15c-.45-4.22-.9-8.47-1.37-12.98-1.94.41-3.24.68-4.54.95-.18-.33-.36-.66-.54-.98 1.19-.65 2.38-1.29 4.62-2.51-7.55-3.83-13.8-7-19.43-9.85-.23-2.38-.41-4.13-.61-6.19-2.45.44-4.31.78-6.18 1.11-.04-.16-.07-.32-.11-.48 2.25-.87 4.5-1.74 6.68-2.59q3.73 7.46 16.05 11.91c2.14-3.21 3.05-6.62 1.84-10.53-4.44-1.37-8.24-4.54-12.59-6.23-69.6 30.71-131.04 76.5-180.15 133.28.08.45.14.92.13 1.43 0 .33.67.75 1.1.99z"/><path d="m1231.35 1164.13c-.91 1.8-1.94 3.01-2.1 4.33-.6 4.96-1.31 5.96-6.39 7.61-.57 4.84-.58 5.03-4.77 8.89-2.28 2.1-4.55 4.45-7.28 5.74-3.6 1.7-7.65 2.47-11.25 3.56-.96 2.41-1.42 4.25-2.38 5.78-1.25 2-1.82 4.01-1.37 6.29.39 1.99.9 3.96 1.29 5.94.71 3.58 2.78 7.09.87 10.84-1.37 2.7-2.72 5.47-4.46 7.93-2.92 4.1-3.64 8.18-1.46 12.87.89 1.91 1.35 4.17 1.39 6.28.09 4.14 1.12 7.99 4.56 10.23 3.58 2.33 7.63 4.78 12 1.02.59-.5 1.57-.71 2.39-.75 3.7-.19 5.23-2.48 6.19-5.73 3.53-11.88 6.75-23.89 10.97-35.53 2.67-7.35 2.97-15.21 5.96-22.41.41-.98 0-2.33-.11-3.5-.12-1.17-.38-2.33-.5-3.5-.02-.18.39-.4.77-.75.8.94 1.6 1.87 3.11 3.63.52-2.6 1.33-4.37 1.12-6.01-.47-3.68-1.46-7.29-2.22-10.93-.91-4.34-2.71-8.17-6.34-11.84z"/><path d="m847.64 618.43c3.15 1.45 5.49 2.53 8.04 3.7.09 2.49-5.37 3.43-3.04 7.83 1.56-1.04 2.87-1.91 4.49-2.99-.71 4.31-1.33 8.06-1.98 11.98 1.61-.56 2.89-1.01 4.35-1.52-.75-1.3-1.38-2.38-2.13-3.66 1.38-.4 2.44-.71 3.38-.98 2.22 4.3.06 7.95-2.06 12.44 4.68-.43 8.41-.77 12.03-1.1-1.14 4.57-.8 5.35 3.71 7.81-.5 2.26-1 4.52-1.55 7.04h-9.46c.38 1.34.38 3.26 1.33 4.32 2.29 2.55 2.51 4.66-.2 6.38-1.82 1.15-3.85 1.96-6.5 3.27 1.35 1.04 2.51 2.4 2.93 2.2 2.76-1.33 4.89.56 7.25 1.1 1.97.45 3.94.94 6.01 1.44-.5 1.85-2.17 2.03-4.17 1.53-2.68-.66-4.61.65-6.27 2.48-2.36 2.59-4.63 5.26-7.11 8.09.96 0 2.4.45 3.01-.08 2.93-2.51 6.07-2.64 9.6-1.09 1.49-3.69 3.63-5.05 7.63-3.96 2.89.79 6.53.99 9.17-.12 2.89-1.21 5.5-1.06 8.33-1.08 4.02-.02 7.31-1.49 10.09-5.22-2.07-.32-3.49-.54-5.73-.88 2.11-2.11 3.75-3.69 5.32-5.33 2.04-2.14 2.92-5.25 1.81-6.92-1.49-2.24-3.93-2.6-6.34-2.54-1.09.03-2.16.74-3.51 1.24 0-2.03.31-3.64-.08-5.08-.51-1.88-2.01-3.55-2.27-5.42-.4-2.91-2.2-4.88-4.37-5.8-3.37-1.43-4.51-4.01-5.1-7.05-.57-2.91-2.17-5.12-4.54-6.47-1.88-1.07-4.24-1.29-6.12-1.82.99-1.62 2.02-3.26 3.01-4.92 1.55-2.61 3.21-5.17 4.57-7.89 1.36-2.74.8-3.66-2.24-3.77-3.83-.14-7.67-.03-11.57-.03-1.42-4.85 6.46-4.49 5.77-9.63-4.22.32-8.39.63-12.96.97-2.01 3.98-4.2 8.31-6.62 13.1-.79-1.47-1.38-2.56-2.13-3.94-1.05.67-1.95 1.25-3.76 2.4z"/><path d="m783.13 547.2c1.83-.88 3.56-2.05 5.48-2.64 3.05-.95 6.48-1.11 7.63-4.93 4.99-1.81 5.35-5.6 4.26-10.18-4.32-1.41-8.02-3.64-8.72-9.17-2.34 1.36-4.24 1.08-5.99-1.23-.63-.83-2.52-.69-3.8-.98-.47 1.79-.76 2.88-.92 3.47-2.65.8-4.81 1.45-7.11 2.15-1.19-.48-2.67-1.07-4.33-1.73-.24 1.36-.37 2.15-.55 3.16-1.25-1.09-2.36-2.07-3.28-2.88-2.95.16-4.65 1.45-5.29 4.4-1.02-.9-1.7-1.64-2.52-2.19-.74-.5-1.62-.8-2.73-1.32-.22 1.96-.39 3.45-.5 4.35-2.19 1.35-3.89 2.39-6.1 3.75-.28-1.44-.56-2.65-.73-3.88-.12-.93.31-2.27-.18-2.77-2.91-2.99-5.74-6.38-11.07-5.25 1.29 1.79 2.41 3.34 3.98 5.51-2.69-1.08-4.77-1.92-6.73-2.71-2.11 2.78-4.08 5.36-6.52 8.57 2.65-.19 4.87.01 6.86-.58 2.93-.88 5.67-.85 8.46.24.27.1.49.32.85.57-.94.87-1.85 1.7-2.79 2.56.78.7 1.27 1.14 1.92 1.72-4.39.42-8.49.66-12.36 2.83 5.86.07 12.2-1.23 14.47 7.42-2.06.82-4.02 1.6-5.99 2.38.06.38.13.75.19 1.13 2.43 0 4.92.3 7.29-.08 2.76-.44 5.11.34 7.2 1.75 3.85 2.6 8.2 3.09 12.58 3.31 1.61.08 3.85-.22 4.78-1.26 2.16-2.44 4.97-2.58 7.68-3.39 1.59-.47 3.06-1.35 4.57-2.07z"/><path d="m531.52 707.92c-2.06 1.65-3.49 2.79-5.28 4.23.13-3.93 2.71-5.69 5.07-7.88-6.46-.28-6.9-1.14-3.91-6.54-2.09-1.55-5.44-2.72-7.27-1.68-3.51 2.01-5.69-.93-9.01-1.29.88-1.47 1.46-2.43 1.99-3.32-2.72-2.3-4.86-.47-7.35.98 1.26-3.01 2.43-6.15 4.6-8.22 2.37-2.26.05-6.39 4.05-7.59-4.69-.83-8.09.57-10.23 4.56-2.08 3.88-4.25 7.72-6.13 11.69-1.92 4.06-3.61 8.21-7.49 10.96.78.31 1.55.61 2.69 1.06-1.27 1.18-2.5 2.09-3.43 3.25-.76.95-1.78 2.31-1.58 3.27.41 2 2.28 1.35 3.8 1.29 3.21-.12 6.42-.03 9.63-.1 2.97-.07 5.94-.25 9.47-.41.81 4.55 3.93-.29 6.79.59-2.34 2.13-4.31 3.94-6.58 6 2.35.73 3.93.41 5.54-1.28 2.17-2.28 4.64-4.29 6.97-6.41 2.44 2.65.62 4.71-.12 6.86-.13.37.15.88.27 1.5.89-.41 1.62-.75 2.5-1.15.76 2.28 2.02 3.74 4.93 2.07.76-2.54 1.58-5.31 2.52-8.45-1.54.46-2.36.71-3.57 1.07.38-1.74.65-2.99 1.1-5.04z"/><path d="m823.96 673.18c3.84 4.64 8.07 3.87 12.78 1.49 4.29-2.17 8.87-3.78 14.12-5.96 3.22-4.34 2.27-9.95.47-15.39 1.61-1.24 3.18-2.07 4.17-3.36.67-.87 1.07-2.66.62-3.55-1.03-2.05-2.28-4.67-4.12-5.46-2.55-1.1-5.75-1.09-8.63-.88-3.58.25-6.86 1.53-7.98 5.93.4.27 1.06.73 1.88 1.29-2.8 5.15-7.79.87-11.46 3.33 1.31 2.43 1.55 5.02-.48 7.53 2.37 1.01 4.21 1.8 5.9 2.52-1.33 2.29-2.56 4.69-4.05 6.91-1.24 1.85-3.61 3.04-3.22 5.6z"/><path d="m952.24 782.36c-.1 1.01-.2 2.05-.03 3.03.4 2.4 1.76 2.84 3.94 1.53 1.19-.72 2.52-1.22 4.23-2.03-.71-5.26 3.62-11.42-2.08-16.43-2.74 1.45-5.07 2.69-8.02 4.25 2.44 2.92 2.29 6.26 1.96 9.64z"/><path d="m1225.9 484c-.64 1.65-.39 4.08.39 5.73.98 2.07 3.38 1.43 5.04.7 2.3-1.01 4.48-2.4 7.34-4.06-2.17-1.6-4.35-3.2-6.54-4.77-.22-.07-.45-.15-.67-.21-2.37-.61-4.74.51-5.55 2.62z"/><path d="m1007.47 492.45s0 .03 0 .04l.07-.02s.03-.07.04-.11c-.04.03-.08.06-.12.09z"/><path d="m1006.72 489.89c-.86-.28-1.99.28-3.46.57.35-2.17.65-4.04.95-5.9-.2-.15-.4-.3-.6-.45-1.35 1.63-2.7 3.26-4.06 4.91-2.9-2.19-4 1.46-6.17 2.82 1.77.37 3.54.74 6.27 1.31-3.15 1.51-5.24 2.51-7.34 3.52.14.33.28.66.43.98 5.09-1.18 10.46-1.55 14.74-5.2-.23-.92-.27-2.41-.75-2.56z"/><path d="m471.44 698.81c-1.03-1.24-2.33-2.36-3.78-3.33-.49 1.14-1 2.27-1.48 3.42 1.62.27 3.36.28 5.26-.08z"/><path d="m957.23 766.89c2.68-4 3.2-8.05 1.71-12.7-1.51 2.3-5.69 1.69-5.5 5.32.14 2.74.61 5.65 3.79 7.38z"/><path d="m1120.11 822.73c1.73-.27 3.26-1.62 4.99-2.12 2.52-.72 2.01-2.76 2.59-4.24-2.22.18-4.28.09-6.18.59-1.87.49-3.58 1.59-5.41 2.45 0 2.92 1.95 3.63 4.01 3.31z"/><path d="m468.91 722.9c-7.61-.01-10.22-.03-11.68-1.28-.24.65-.46 1.31-.69 1.96 2.77 1.79 6.21 1.84 8.73 3.84 1.25-1.55 2.26-2.8 3.64-4.52z"/><path d="m1073.92 818.58c-14.25-3.5-15.61-3.64-18.46-1.55 12.18 3.53 14.56 3.71 18.46 1.55z"/><path d="m433.86 946.36c.5 1.27.75 3 1.31 3.1 2.1.4 4.32.5 6.45.26 1.12-.12 2.15-1.16 4.24-2.39-4.7-1.66-8.05-1.89-12-.98z"/><path d="m962.08 638.17c1.22 3.24 2.92 4.54 4.95 3.88 1.74-.56 1.69-1.93 1.21-3.31-.75-2.2-2.03-2.35-6.17-.57z"/><path d="m917.9 781.37c-.67-.81-1.38-1.66-2.19-2.63-1.88 1.2-3.22 2.05-5.18 3.3q5.27 2.65 7.37-.67z"/><path d="m851.93 606.96c-2.46 1.66-4.21 2.83-6.08 4.09.43 1.14.78 2.07 1.25 3.3 3.31-1.47 4.3-3.73 4.83-7.39z"/><path d="m473.49 1001.97c-.39 1.73-.71 3.12-1.32 5.76 1.99-1.01 3.62-1.33 4.25-2.3.56-.87 0-2.45-.07-4-1.3.25-2.25.42-2.87.54z"/><path d="m1046.23 466.8c.04.42.09.83.13 1.25h6.03c.64-.97 1.29-1.96 2.23-3.4-3.24.83-5.82 1.49-8.4 2.15z"/><path d="m1052.29 468.22s.17-.17.17-.17h-.06c-.04.06-.07.11-.11.17z"/><path d="m990.1 497.55c-.19-.38-.39-.76-.58-1.14-1.49.72-2.99 1.44-4.48 2.16.19.38.38.75.58 1.13 1.56-.6 3.44-.61 4.48-2.15z"/><path d="m853.11 635.24c.29-.45.48-.97 1.04-2.1-1.72.64-2.7 1.01-3.95 1.47 1.03 1.55 1.75 2.48 2.91.63z"/><path d="m577.62 583c.72-1.51-.62-1.41-1.55-1.5-.38.47-.77.94-1.14 1.4.92 1.22 2.01 1.53 2.7.1z"/></g><circle cx="937" cy="899" fill="none" r="640" stroke="#fff" stroke-miterlimit="10" stroke-width="8"/><circle cx="937" cy="899" fill="none" r="509" stroke="#fff" stroke-miterlimit="10" stroke-width="8"/><circle cx="938.5" cy="899.5" fill="none" r="127" stroke="#fff" stroke-miterlimit="10" stroke-width="5"/><path d="m938 772v-646" fill="none" stroke="#fff" stroke-miterlimit="10" stroke-width="8"/><path d="m938 1026v647" fill="none" stroke="#fff" stroke-miterlimit="10" stroke-width="8"/><path d="m1066 899h645" fill="none" stroke="#fff" stroke-miterlimit="10" stroke-width="8"/><path d="m811 899h-647" fill="none" stroke="#fff" stroke-miterlimit="10" stroke-width="8"/><path d="m939 1607c-190-134.79-481-134.79-671 0l174-311c179.14-79.49 295.99-82 497 0z" fill="#fff"/><path d="m939 1607c190-134.79 481-134.79 671 0l-174-311c-179.14-79.49-295.99-82-497 0z" fill="#fff"/><path d="m939 1607c-190-134.79-481-134.79-671 0l174-311c179.14-79.49 295.99-82 497 0v2.02" fill="none" stroke="#231f20" stroke-miterlimit="10" stroke-width="4"/><path d="m937 1607c190-134.79 481-134.79 671 0l-174-311c-179.14-79.49-295.99-82-497 0v2.02" fill="none" stroke="#231f20" stroke-miterlimit="10" stroke-width="4"/><path d="m938 1296v311" fill="none" stroke="#231f20" stroke-miterlimit="10" stroke-width="6"/><path d="m95.32 1754.84c0-28.34 0-33.42-.36-39.23-.36-6.18-1.82-9.08-7.81-10.35-1.45-.36-4.54-.54-5.27-.54-1.63 0-2.36-.36-2.36-1.09 0-1.09.91-1.45 2.91-1.45 8.17 0 19.62.54 20.53.54 4.36 0 11.44-.54 19.8-.54 29.79 0 36.33 18.16 36.33 27.25 0 14.89-8.54 23.79-17.07 32.7 13.44 4.18 31.42 17.07 31.42 38.33 0 19.44-15.26 39.6-46.32 39.6-2 0-7.81-.36-13.08-.54-5.27-.36-10.35-.54-11.08-.54-5.81 0-11.44.54-17.8.54-2 0-2.91-.36-2.91-1.27 0-.54.36-1.27 2.72-1.27 1.45 0 2.72-.18 4.36-.54 3.63-.73 4.36-4.9 5.09-10.17.91-7.63.91-21.98.91-39.42v-31.97zm14.53 4c0 1.27.36 1.63 1.27 2 1.09.18 4.36.73 11.08.73 10.17 0 12.71-.36 16.53-4.72s6.54-10.9 6.54-18.35c0-15.08-6.72-31.24-24.52-31.24-2 0-5.81.18-8.72.91-1.63.36-2.18.91-2.18 2v48.68zm0 19.25c0 13.99 0 36.51.18 39.23.54 8.9.54 11.44 6.18 14.17 4.9 2.36 12.71 2.72 15.98 2.72 9.81 0 25.61-5.27 25.61-25.79 0-10.9-3.63-26.7-17.62-36.33-6.18-4.18-10.72-4.72-15.08-5.27-2.36-.36-11.44-.36-14.17-.36-.73 0-1.09.36-1.09 1.27v10.35z"/><path d="m211.39 1754.84c0-28.34 0-33.42-.36-39.23-.36-6.18-2.18-9.26-6.18-10.17-2-.54-4.36-.73-5.63-.73-.73 0-1.45-.36-1.45-1.09 0-1.09.91-1.45 2.91-1.45 5.99 0 17.44.54 18.35.54s12.35-.54 17.8-.54c2 0 2.91.36 2.91 1.45 0 .73-.73 1.09-1.45 1.09-1.27 0-2.36.18-4.54.54-4.9.91-6.36 4-6.72 10.35-.36 5.81-.36 10.9-.36 39.23v31.97c0 17.44 0 31.79.91 39.42.54 5.27 1.63 9.26 7.08 9.99 2.54.36 6.36.73 7.45.73 1.63 0 2.18.54 2.18 1.09 0 .91-.73 1.45-2.72 1.45-9.99 0-21.62-.54-22.52-.54s-12.35.54-17.8.54c-2 0-2.91-.36-2.91-1.45 0-.54.36-1.09 2-1.09 1.09 0 3.09-.18 4.72-.54 3.63-.73 4.72-4.9 5.45-10.17.91-7.63.91-21.98.91-39.42v-31.97z"/><path d="m286.77 1754.84c0-28.34 0-33.42-.36-39.23-.36-6.18-1.82-9.08-7.81-10.35-1.45-.36-4.54-.54-5.27-.54-1.63 0-2.36-.36-2.36-1.09 0-1.09.91-1.45 2.91-1.45 8.17 0 19.62.54 20.53.54 4.36 0 11.44-.54 19.8-.54 29.79 0 36.33 18.16 36.33 27.25 0 14.89-8.54 23.79-17.07 32.7 13.44 4.18 31.42 17.07 31.42 38.33 0 19.44-15.26 39.6-46.32 39.6-2 0-7.81-.36-13.08-.54-5.27-.36-10.35-.54-11.08-.54-5.81 0-11.44.54-17.8.54-2 0-2.91-.36-2.91-1.27 0-.54.36-1.27 2.72-1.27 1.45 0 2.72-.18 4.36-.54 3.63-.73 4.36-4.9 5.09-10.17.91-7.63.91-21.98.91-39.42v-31.97zm14.53 4c0 1.27.36 1.63 1.27 2 1.09.18 4.36.73 11.08.73 10.17 0 12.71-.36 16.53-4.72s6.54-10.9 6.54-18.35c0-15.08-6.72-31.24-24.52-31.24-2 0-5.81.18-8.72.91-1.63.36-2.18.91-2.18 2v48.68zm0 19.25c0 13.99 0 36.51.18 39.23.54 8.9.54 11.44 6.18 14.17 4.9 2.36 12.71 2.72 15.98 2.72 9.81 0 25.61-5.27 25.61-25.79 0-10.9-3.63-26.7-17.62-36.33-6.18-4.18-10.72-4.72-15.08-5.27-2.36-.36-11.44-.36-14.17-.36-.73 0-1.09.36-1.09 1.27v10.35z"/><path d="m418.1 1787.17c0 26.7.73 38.33 4 41.6 2.91 2.91 7.63 4.18 21.8 4.18 9.63 0 17.62-.18 21.98-5.45 2.36-2.91 4.18-7.45 4.72-10.9.18-1.45.54-2.36 1.63-2.36.91 0 1.09.73 1.09 2.72s-1.27 12.9-2.72 18.16c-1.27 4.18-1.82 4.9-11.44 4.9-15.62 0-31.06-1.09-48.68-1.09-5.63 0-11.08.54-17.8.54-2 0-2.91-.36-2.91-1.45 0-.54.36-1.09 1.45-1.09 1.63 0 3.81-.36 5.45-.73 3.63-.73 4.54-4.72 5.27-9.99.91-7.63.91-21.98.91-39.42v-31.97c0-28.34 0-33.42-.36-39.23-.36-6.18-1.82-9.08-7.81-10.35-1.45-.36-4.54-.54-6.18-.54-.73 0-1.45-.36-1.45-1.09 0-1.09.91-1.45 2.91-1.45 8.17 0 19.62.54 20.53.54s14.17-.54 19.62-.54c2 0 2.91.36 2.91 1.45 0 .73-.73 1.09-1.45 1.09-1.27 0-3.81.18-5.99.54-5.27.91-6.72 4-7.08 10.35-.36 5.81-.36 10.9-.36 39.23v32.33z"/><path d="m503.66 1754.84c0-28.34 0-33.42-.36-39.23-.36-6.18-1.82-9.08-7.81-10.35-1.27-.36-3.63-.36-5.27-.54-1.27-.18-2.36-.36-2.36-1.09 0-1.09.91-1.45 2.91-1.45 4.18 0 9.08 0 20.53.54 1.27 0 37.42 0 41.6-.18 4-.18 7.27-.54 8.36-1.09s1.45-.73 2-.73.73.73.73 1.63c0 1.27-1.09 3.45-1.45 8.54-.18 2.72-.36 6.18-.73 10.9-.18 1.82-.73 3.09-1.45 3.09-1.09 0-1.45-.91-1.45-2.36 0-2.36-.36-4.54-.91-5.99-1.27-4.18-5.09-5.99-13.08-6.72-3.09-.36-22.89-.54-24.88-.54-.73 0-1.09.54-1.09 1.82v50.13c0 1.27.18 1.82 1.09 1.82 2.36 0 24.7 0 28.88-.36 4.9-.36 7.27-.91 9.08-3.09.91-1.09 1.45-1.82 2.18-1.82.54 0 .91.36.91 1.45s-.91 4.18-1.45 10.17c-.54 5.63-.54 9.81-.73 12.35-.18 1.82-.54 2.72-1.27 2.72-1.09 0-1.27-1.45-1.27-2.91 0-1.63-.18-3.45-.73-5.09-.73-2.72-2.91-5.27-9.45-5.99-4.9-.54-22.89-.91-25.97-.91-.91 0-1.27.54-1.27 1.27v15.98c0 6.18-.18 27.25 0 31.06.36 7.45 1.45 11.44 5.99 13.26 3.09 1.27 7.99 1.63 15.08 1.63 5.45 0 11.44-.18 16.35-1.63 5.81-1.82 7.81-5.63 9.26-13.44.36-2 .73-2.72 1.63-2.72 1.09 0 1.09 1.45 1.09 2.72 0 1.45-1.45 13.8-2.36 17.62-1.27 4.72-2.72 4.72-9.81 4.72-13.44 0-19.44-.36-26.52-.54-7.27-.18-15.62-.54-22.71-.54-4.36 0-8.72.73-13.44.54-2 0-2.91-.36-2.91-1.45 0-.54.91-.91 2-1.09 1.82-.18 2.91-.18 4.18-.54 3.81-.91 6.18-3.45 6.54-17.07.18-7.08.36-16.35.36-32.51v-31.97z"/><path d="m649.88 1719.97c-2.91-9.63-5.27-12.35-9.99-14.17-2.36-.91-6.9-1.09-8.17-1.09-.91 0-1.63-.18-1.63-1.27 0-.91 1.09-1.27 2.91-1.27 9.45 0 19.44.54 21.43.54 1.63 0 9.63-.54 18.71-.54 2.54 0 3.27.54 3.27 1.27 0 1.09-.91 1.27-1.82 1.27-1.45 0-4.9 0-7.08 1.09-1.09.54-2.36 2-2.36 4.36s1.63 8.72 3.45 16.71c2.72 11.62 21.62 78.29 24.52 88.46l38.69-104.08c2.72-7.45 3.45-8.36 4.54-8.36 1.27 0 2.36 2.36 4.54 8.54l36.51 104.08c5.27-17.8 21.98-70.48 28.34-93.73 1.82-6.72 2-9.26 2-11.62 0-3.27-2-5.45-10.35-5.45-.91 0-1.63-.54-1.63-1.27 0-.91.91-1.27 3.09-1.27 9.26 0 16.89.54 18.53.54 1.27 0 9.08-.54 14.71-.54 1.63 0 2.54.36 2.54 1.09 0 .91-.54 1.45-1.63 1.45-.73 0-4.18.18-6.18.91-5.45 2-8.36 9.63-11.81 19.62-7.99 23.07-26.34 80.83-33.42 101.17-4.72 13.44-5.63 15.62-7.63 15.62-1.82 0-2.91-2.36-5.45-9.45l-35.78-101.54c-6.72 17.98-31.61 84.46-38.14 101.36-2.91 7.63-4.18 9.63-5.99 9.63s-2.72-2-6.36-14.35l-32.33-107.71z"/><path d="m858.41 1785.9c-.91 0-1.45.54-1.82 1.45l-10.9 32.15c-1.63 4.54-2.54 8.9-2.54 12.17 0 3.63 3.45 5.27 6.54 5.27h1.63c1.82 0 2.36.36 2.36 1.09 0 1.09-1.63 1.45-3.27 1.45-4.36 0-11.62-.54-13.62-.54s-11.99.54-20.53.54c-2.36 0-3.45-.36-3.45-1.45 0-.73.91-1.09 2.54-1.09 1.27 0 2.91-.18 4.36-.36 8.36-1.09 11.99-7.99 15.26-17.07l41.23-112.8c2.18-5.99 2.91-7.08 4-7.08s1.82.91 4 6.54c2.72 6.9 31.24 81.92 42.32 109.53 6.54 16.17 11.81 19.07 15.62 20.16 2.72.91 5.63 1.09 7.08 1.09 1.09 0 2 .18 2 1.09 0 1.09-1.63 1.45-3.63 1.45-2.72 0-15.98 0-28.52-.36-3.45-.18-5.45-.18-5.45-1.27 0-.73.54-1.09 1.27-1.27 1.09-.36 2.18-2 1.09-4.9l-16.89-44.68c-.36-.73-.73-1.09-1.63-1.09h-39.05zm36.69-6.54c.91 0 .91-.54.73-1.27l-17.26-49.04c-.91-2.72-1.82-2.72-2.72 0l-15.98 49.04c-.36.91 0 1.27.54 1.27z"/><path d="m998.64 1786.81c0 17.44 0 31.79.91 39.42.54 5.27 1.63 9.26 7.08 9.99 2.54.36 6.54.73 8.17.73 1.09 0 1.45.54 1.45 1.09 0 .91-.91 1.45-2.91 1.45-9.99 0-21.43-.54-22.34-.54s-12.35.54-17.8.54c-2 0-2.91-.36-2.91-1.45 0-.54.36-1.09 1.45-1.09 1.63 0 3.81-.36 5.45-.73 3.63-.73 4.54-4.72 5.27-9.99.91-7.63.91-21.98.91-39.42v-76.83c-8.9.18-17.98.18-26.88.36-11.26.18-15.62 1.45-18.53 5.81-2 3.09-2.54 4.36-3.09 5.63-.54 1.45-1.09 1.82-1.82 1.82-.54 0-.91-.54-.91-1.63 0-1.82 3.63-17.44 4-18.89.36-1.09 1.09-3.45 1.82-3.45 1.27 0 3.09 1.82 7.99 2.18 5.27.54 12.17.91 14.35.91h68.12c5.81 0 9.99-.36 12.9-.91 2.72-.36 4.36-.91 5.09-.91.91 0 .91 1.09.91 2.18 0 5.45-.54 17.98-.54 19.98 0 1.63-.54 2.36-1.27 2.36-.91 0-1.27-.54-1.45-3.09 0-.73-.18-1.27-.18-2-.54-5.45-4.9-9.63-22.34-9.99-7.63-.18-15.26-.18-22.89-.36v76.83z"/><path d="m1078.75 1822.41c-17.62-15.8-21.98-36.51-21.98-53.77 0-12.17 4.18-33.42 20.34-49.59 10.9-10.9 27.43-19.44 55.4-19.44 7.27 0 17.44.54 26.34 2.18 6.9 1.27 12.53 1.82 19.25 2.72 1.27.18 1.63.91 1.63 2 0 1.45-.54 3.63-.91 10.17-.36 5.99-.36 15.98-.54 18.71s-.54 3.81-1.63 3.81c-1.27 0-1.45-1.27-1.45-3.81 0-7.08-2.91-14.53-7.63-18.53-6.36-5.45-20.34-10.35-36.33-10.35-24.16 0-35.42 7.08-41.78 13.26-13.26 12.71-16.35 28.88-16.35 47.41 0 34.69 26.7 66.48 65.57 66.48 13.62 0 24.34-1.63 31.61-9.08 3.81-4 6.18-11.99 6.72-15.26.36-2 .73-2.72 1.82-2.72.91 0 1.27 1.27 1.27 2.72 0 1.27-2.18 17.07-4 23.25-1.09 3.45-1.45 3.81-4.72 5.27-7.27 2.91-21.07 4.18-32.7 4.18-27.25 0-45.59-6.72-59.94-19.62z"/><path d="m1308.89 1759.75c.54 0 1.09-.18 1.09-1.09v-3.81c0-28.34 0-33.42-.36-39.23-.36-6.18-1.82-9.08-7.81-10.35-1.45-.36-4.54-.54-6.18-.54-.73 0-1.45-.36-1.45-1.09 0-1.09.91-1.45 2.91-1.45 8.17 0 19.62.54 20.53.54s12.35-.54 17.8-.54c2 0 2.91.36 2.91 1.45 0 .73-.73 1.09-1.45 1.09-1.27 0-2.36.18-4.54.54-4.9.91-6.36 4-6.72 10.35-.36 5.81-.36 10.9-.36 39.23v31.97c0 17.44 0 31.79.91 39.42.54 5.27 1.63 9.26 7.08 9.99 2.54.36 6.54.73 8.17.73 1.09 0 1.45.54 1.45 1.09 0 .91-.91 1.45-2.91 1.45-9.99 0-21.43-.54-22.34-.54s-12.35.54-17.8.54c-2 0-2.91-.36-2.91-1.45 0-.54.36-1.09 1.45-1.09 1.63 0 3.81-.36 5.45-.73 3.63-.73 4.54-4.72 5.27-9.99.91-7.63.91-21.98.91-39.42v-19.07c0-.73-.54-1.09-1.09-1.09h-77.02c-.54 0-1.09.18-1.09 1.09v19.07c0 17.44 0 31.79.91 39.42.54 5.27 1.63 9.26 7.08 9.99 2.54.36 6.54.73 8.17.73 1.09 0 1.45.54 1.45 1.09 0 .91-.91 1.45-2.91 1.45-9.99 0-21.43-.54-22.34-.54s-12.35.54-17.8.54c-2 0-2.91-.36-2.91-1.45 0-.54.36-1.09 1.45-1.09 1.63 0 3.81-.36 5.45-.73 3.63-.73 4.54-4.72 5.27-9.99.91-7.63.91-21.98.91-39.42v-31.97c0-28.34 0-33.42-.36-39.23-.36-6.18-1.82-9.08-7.81-10.35-1.45-.36-4.54-.54-6.18-.54-.73 0-1.45-.36-1.45-1.09 0-1.09.91-1.45 2.91-1.45 8.17 0 19.62.54 20.53.54s12.35-.54 17.8-.54c2 0 2.91.36 2.91 1.45 0 .73-.73 1.09-1.45 1.09-1.27 0-2.36.18-4.54.54-4.9.91-6.36 4-6.72 10.35-.36 5.81-.36 10.9-.36 39.23v3.81c0 .91.54 1.09 1.09 1.09h77.02z"/><path d="m1454.76 1787.17c0 26.7.73 38.33 4 41.6 2.91 2.91 7.63 4.18 21.8 4.18 9.63 0 17.62-.18 21.98-5.45 2.36-2.91 4.18-7.45 4.72-10.9.18-1.45.54-2.36 1.63-2.36.91 0 1.09.73 1.09 2.72s-1.27 12.9-2.72 18.16c-1.27 4.18-1.82 4.9-11.44 4.9-15.62 0-31.06-1.09-48.68-1.09-5.63 0-11.08.54-17.8.54-2 0-2.91-.36-2.91-1.45 0-.54.36-1.09 1.45-1.09 1.63 0 3.81-.36 5.45-.73 3.63-.73 4.54-4.72 5.27-9.99.91-7.63.91-21.98.91-39.42v-31.97c0-28.34 0-33.42-.36-39.23-.36-6.18-1.82-9.08-7.81-10.35-1.45-.36-4.54-.54-6.18-.54-.73 0-1.45-.36-1.45-1.09 0-1.09.91-1.45 2.91-1.45 8.17 0 19.62.54 20.53.54s14.17-.54 19.62-.54c2 0 2.91.36 2.91 1.45 0 .73-.73 1.09-1.45 1.09-1.27 0-3.81.18-5.99.54-5.27.91-6.72 4-7.08 10.35-.36 5.81-.36 10.9-.36 39.23v32.33z"/><path d="m1540.31 1754.84c0-28.34 0-33.42-.36-39.23-.36-6.18-2.18-9.26-6.18-10.17-2-.54-4.36-.73-5.63-.73-.73 0-1.45-.36-1.45-1.09 0-1.09.91-1.45 2.91-1.45 5.99 0 17.44.54 18.35.54s12.35-.54 17.8-.54c2 0 2.91.36 2.91 1.45 0 .73-.73 1.09-1.45 1.09-1.27 0-2.36.18-4.54.54-4.9.91-6.36 4-6.72 10.35-.36 5.81-.36 10.9-.36 39.23v31.97c0 17.44 0 31.79.91 39.42.54 5.27 1.63 9.26 7.08 9.99 2.54.36 6.36.73 7.45.73 1.63 0 2.18.54 2.18 1.09 0 .91-.73 1.45-2.72 1.45-9.99 0-21.62-.54-22.52-.54s-12.35.54-17.8.54c-2 0-2.91-.36-2.91-1.45 0-.54.36-1.09 2-1.09 1.09 0 3.09-.18 4.72-.54 3.63-.73 4.72-4.9 5.45-10.17.91-7.63.91-21.98.91-39.42v-31.97z"/><path d="m1604.07 1837.12c-2.54-1.27-2.72-2-2.72-6.9 0-9.08.73-16.35.91-19.25.18-2 .54-2.91 1.45-2.91 1.09 0 1.27.54 1.27 2 0 1.63 0 4.18.54 6.72 2.72 13.44 14.71 18.53 26.88 18.53 17.44 0 25.97-12.53 25.97-24.16 0-12.53-5.27-19.8-20.89-32.7l-8.17-6.72c-19.25-15.8-23.61-27.06-23.61-39.42 0-19.44 14.53-32.7 37.6-32.7 7.08 0 12.35.73 16.89 1.82 3.45.73 4.9.91 6.36.91s1.82.36 1.82 1.27-.73 6.9-.73 19.25c0 2.91-.36 4.18-1.27 4.18-1.09 0-1.27-.91-1.45-2.36-.18-2.18-1.27-7.08-2.36-9.08s-5.99-9.63-22.71-9.63c-12.53 0-22.34 7.81-22.34 21.07 0 10.35 4.72 16.89 22.16 30.52l5.09 4c21.43 16.89 26.52 28.15 26.52 42.69 0 7.45-2.91 21.25-15.44 30.15-7.81 5.45-17.62 7.63-27.43 7.63-8.54 0-16.89-1.27-24.34-4.9z"/><path d="m1751.56 1786.81c0 17.44 0 31.79.91 39.42.54 5.27 1.63 9.26 7.08 9.99 2.54.36 6.54.73 8.17.73 1.09 0 1.45.54 1.45 1.09 0 .91-.91 1.45-2.91 1.45-9.99 0-21.43-.54-22.34-.54s-12.35.54-17.8.54c-2 0-2.91-.36-2.91-1.45 0-.54.36-1.09 1.45-1.09 1.63 0 3.81-.36 5.45-.73 3.63-.73 4.54-4.72 5.27-9.99.91-7.63.91-21.98.91-39.42v-76.83c-8.9.18-17.98.18-26.88.36-11.26.18-15.62 1.45-18.53 5.81-2 3.09-2.54 4.36-3.09 5.63-.54 1.45-1.09 1.82-1.82 1.82-.54 0-.91-.54-.91-1.63 0-1.82 3.63-17.44 4-18.89.36-1.09 1.09-3.45 1.82-3.45 1.27 0 3.09 1.82 7.99 2.18 5.27.54 12.17.91 14.35.91h68.12c5.81 0 9.99-.36 12.9-.91 2.72-.36 4.36-.91 5.09-.91.91 0 .91 1.09.91 2.18 0 5.45-.54 17.98-.54 19.98 0 1.63-.54 2.36-1.27 2.36-.91 0-1.27-.54-1.45-3.09 0-.73-.18-1.27-.18-2-.54-5.45-4.9-9.63-22.34-9.99-7.63-.18-15.26-.18-22.89-.36v76.83z"/></svg>