<?xml version="1.0" encoding="UTF-8"?>
<svg width="253px" height="73px" viewBox="0 0 253 73" version="1.1" xmlns="http://www.w3.org/2000/svg" xmlns:xlink="http://www.w3.org/1999/xlink">
    <title>biblica</title>
    <g id="Page-1" stroke="none" stroke-width="1" fill="none" fill-rule="evenodd">
        <g id="Color-Palette" transform="translate(-1252, -1407)">
            <g id="SPONSERS" transform="translate(1245, 580)">
                <g id="biblica" transform="translate(7, 827)">
                    <g id="Layer_1" fill="#044F7A" fill-rule="nonzero">
                        <path d="M35.2899954,45.0522579 C35.2899954,46.5864811 34.3992623,47.6853167 32.8086676,47.6853167 C32.1300138,47.6853167 31.6846473,47.4572565 31.2392808,47.249929 L31.2392808,42.8545868 C31.6846473,42.6265266 32.3633011,42.4191991 33.0419548,42.4191991 C34.6113416,42.4191991 35.2899954,43.5180346 35.2899954,45.0522579 L35.2899954,45.0522579 Z M14.3789765,43.7460949 L12.3642231,43.7460949 L12.3642231,47.2706617 L13.4882434,47.2706617 C14.6122637,47.2706617 15.5029968,47.2706617 15.9695712,47.0426015 C16.648225,46.8145413 16.8603043,46.1718262 16.8603043,45.5083783 C17.0723836,44.1814825 15.9483633,43.7460949 14.3789765,43.7460949 L14.3789765,43.7460949 Z M16.4149378,39.7861403 C16.4149378,39.3507526 16.1816505,38.915365 15.736284,38.4592445 C15.2909175,38.2311843 14.3789765,38.0238569 13.4882434,38.0238569 L12.3642231,38.0238569 L12.3642231,41.3203635 L14.1668972,41.3203635 C15.5029968,41.5484237 16.4149378,40.8849759 16.4149378,39.7861403 L16.4149378,39.7861403 Z M65.1719686,47.0426015 C65.1719686,47.7060494 65.8506224,47.9133769 66.5292762,47.9133769 C66.9746427,47.9133769 67.6532964,47.6853167 67.8865837,47.4779892 L67.8865837,46.1510934 C67.6532964,46.1510934 67.2079299,45.9230332 66.7625634,45.9230332 C66.0839096,45.943766 65.1719686,46.1510934 65.1719686,47.0426015 L65.1719686,47.0426015 Z M74.1641309,36.2615734 C74.1641309,39.9934678 73.4854772,43.5180346 72.5947441,47.0218688 C72.3614569,47.4572565 71.9160904,47.6853167 71.7040111,47.6853167 C71.2586445,47.6853167 71.0253573,47.4572565 71.0253573,46.8145413 L71.0253573,43.5180346 C71.0253573,42.1911389 70.5799908,41.3203635 69.901337,40.8849759 C69.010604,40.221528 67.8865837,40.0142005 66.5292762,40.0142005 C64.9598893,40.0142005 63.8358691,40.4495882 62.9239281,40.6776484 L62.9239281,43.3107072 C63.8146611,42.8753195 64.7266021,42.4399318 65.8506224,42.4399318 C66.5292762,42.4399318 67.2079299,42.667992 67.4200092,42.8753195 C67.6320885,43.082647 67.8653757,43.5387674 67.8653757,43.9741551 L67.8653757,44.4095427 C67.4200092,44.1814825 66.7413555,44.1814825 66.0627017,44.1814825 C64.9386814,44.1814825 64.0479484,44.4095427 63.1360074,44.8449304 C62.4573536,45.2803181 62.0119871,46.1718262 62.0119871,47.2706617 C62.0119871,48.3694973 62.4573536,49.0329452 63.1360074,49.6963931 C63.8146611,50.1317807 64.7053942,50.359841 65.3840479,50.359841 C66.5080682,50.359841 67.6320885,49.9244533 68.3107423,49.4890656 L68.3107423,49.4890656 C68.7561088,50.1525135 69.6680498,50.359841 70.5587828,50.359841 C70.7920701,50.359841 71.0041494,50.359841 71.4495159,50.359841 C65.8294145,63.5458677 52.5744583,73 37.0714615,73 C16.6270171,72.5231468 0,56.2686737 0,36.2615734 C0,16.2544732 16.6270171,0 37.0926694,0 C57.5583218,0 74.1641309,16.2752059 74.1641309,36.2615734 L74.1641309,36.2615734 Z M42.9248502,31.4308435 L46.7422775,32.5296791 L47.8662978,38.4592445 L48.9903181,32.5296791 L52.8077455,31.4308435 L48.9903181,30.332008 L47.8662978,26.6001136 L46.7422775,30.332008 L42.9248502,31.4308435 Z M20.2323651,45.5083783 C20.2323651,43.7460949 19.3416321,42.4399318 17.3056708,41.9838114 L17.3056708,41.9838114 C18.6629783,41.5484237 19.5537114,40.6569156 19.5537114,39.1226924 C19.5537114,38.0238569 19.1083449,36.9250213 17.7510373,36.2615734 C16.8603043,35.8261857 15.2697095,35.3907981 13.2549562,35.3907981 L8.99216229,35.3907981 L8.99216229,49.8829878 L13.4882434,49.8829878 C15.0576302,49.8829878 16.4149378,49.6549276 17.3056708,49.2195399 C19.3204242,48.804885 20.2323651,47.4779892 20.2323651,45.5083783 L20.2323651,45.5083783 Z M25.4071,40.0142005 L22.2683264,40.0142005 L22.2683264,49.9037205 L25.4071,49.9037205 C25.4071,49.9037205 25.4071,40.0142005 25.4071,40.0142005 Z M25.6191793,36.9250213 C25.6191793,36.054246 24.7284463,35.1627379 23.8165053,35.1627379 C22.9257722,35.1627379 22.0138313,36.0335132 22.0138313,36.9250213 C22.0138313,37.7957966 22.9045643,38.6873047 23.8165053,38.6873047 C24.7284463,38.6873047 25.6191793,37.8165294 25.6191793,36.9250213 L25.6191793,36.9250213 Z M38.428769,44.8449304 C38.428769,41.776484 36.1807284,39.7861403 33.6994006,39.7861403 C32.8086676,39.7861403 31.8967266,40.0142005 31.2180728,40.4495882 L31.2180728,40.4495882 L31.2180728,34.5200227 L28.0792992,34.5200227 L28.0792992,50.111048 L30.560627,49.6756603 C31.2392808,49.9037205 32.1300138,50.111048 33.0419548,50.111048 C36.1807284,50.111048 38.428769,47.9133769 38.428769,44.8449304 L38.428769,44.8449304 Z M43.6035039,34.5200227 L40.4647303,34.5200227 L40.4647303,49.9037205 L43.6035039,49.9037205 L43.6035039,34.5200227 Z M49.4568926,40.0142005 L46.3181189,40.0142005 L46.3181189,49.9037205 L49.4568926,49.9037205 L49.4568926,40.0142005 Z M60.4638082,46.6072139 C59.5730751,47.2706617 58.4490549,47.4779892 57.5371139,47.4779892 C55.7344398,47.4779892 54.6104195,46.3791536 54.6104195,44.8449304 C54.6104195,43.3107072 55.7344398,42.2118716 57.5371139,42.2118716 C58.4278469,42.2118716 59.5518672,42.6472593 60.4638082,43.082647 L60.4638082,40.221528 C59.5730751,39.7861403 58.6611342,39.5580801 57.5371139,39.5580801 C54.3983402,39.5580801 51.6837252,41.527691 51.6837252,44.8241977 C51.6837252,47.8926441 54.165053,49.8829878 57.3038266,49.8829878 C58.4278469,49.8829878 59.5518672,49.6549276 60.6758875,49.2195399 L60.6758875,46.5864811 L60.4638082,46.5864811 L60.4638082,46.6072139 Z" id="Shape"></path>
                    </g>
                    <g id="Layer_2" transform="translate(89.7056, 26.0707)">
                        <g id="Group">
                            <polygon id="Rectangle-path" points="0 0 163.294433 0 163.294433 19.1121302 0 19.1121302"></polygon>
                            <polygon id="Shape" fill="#044F7A" fill-rule="nonzero" points="2.37828043 1.9532177 0.19111182 1.9532177 0.19111182 0.420046817 6.45533259 0.420046817 6.45533259 1.9532177 4.22569469 1.9532177 4.22569469 8.48494571 2.37828043 8.48494571"></polygon>
                            <polygon id="Shape" fill="#044F7A" fill-rule="nonzero" points="12.3373297 0.420046817 12.3373297 3.52839327 15.3738842 3.52839327 15.3738842 0.420046817 17.2212985 0.420046817 17.2212985 8.48494571 15.3738842 8.48494571 15.3738842 5.10356883 12.3373297 5.10356883 12.3373297 8.48494571 10.4899155 8.48494571 10.4899155 0.420046817 12.3373297 0.420046817"></polygon>
                            <polygon id="Shape" fill="#044F7A" fill-rule="nonzero" points="26.7344202 5.08256649 23.740335 5.08256649 23.740335 6.99377951 27.0954092 6.99377951 27.0954092 8.48494571 21.8716861 8.48494571 21.8716861 0.420046817 26.9042973 0.420046817 26.9042973 1.91121302 23.7191003 1.91121302 23.7191003 3.59140029 26.7131855 3.59140029 26.7131855 5.08256649"></polygon>
                            <polygon id="Shape" fill="#044F7A" fill-rule="nonzero" points="38.7319955 0.420046817 38.7319955 8.48494571 36.8845813 8.48494571 36.8845813 0.420046817 38.7319955 0.420046817"></polygon>
                            <path d="M43.3823832,8.48494571 L43.3823832,0.420046817 L45.5270825,0.420046817 L47.2258542,3.38137688 C47.7142511,4.22147052 48.2026479,5.22958288 48.5636369,6.15368588 L48.6061062,6.15368588 C48.4786984,5.08256649 48.4574637,3.99044477 48.4574637,2.79331134 L48.4574637,0.441049158 L50.1562354,0.441049158 L50.1562354,8.50594805 L48.2026479,8.50594805 L46.4614069,5.3976016 C45.97301,4.53650563 45.4421439,3.48638859 45.0386856,2.54128325 L44.9962163,2.56228559 C45.0386856,3.63340497 45.0599202,4.76753138 45.0599202,6.09067885 L45.0599202,8.5269504 L43.3823832,8.5269504 L43.3823832,8.48494571 Z" id="Shape" fill="#044F7A" fill-rule="nonzero"></path>
                            <polygon id="Shape" fill="#044F7A" fill-rule="nonzero" points="55.88959 1.9532177 53.7024214 1.9532177 53.7024214 0.420046817 59.9666422 0.420046817 59.9666422 1.9532177 57.7370043 1.9532177 57.7370043 8.48494571 55.88959 8.48494571"></polygon>
                            <polygon id="Shape" fill="#044F7A" fill-rule="nonzero" points="68.8427245 5.08256649 65.8486393 5.08256649 65.8486393 6.99377951 69.2037135 6.99377951 69.2037135 8.48494571 64.0012251 8.48494571 64.0012251 0.420046817 69.0338363 0.420046817 69.0338363 1.91121302 65.8486393 1.91121302 65.8486393 3.59140029 68.8427245 3.59140029"></polygon>
                            <path d="M73.5143468,0.525058522 C74.1089169,0.420046817 75.0007721,0.357039795 75.9775658,0.357039795 C77.1879407,0.357039795 78.0373265,0.546060863 78.610662,0.987110021 C79.0990589,1.36515216 79.3538746,1.93221536 79.3538746,2.66729729 C79.3538746,3.69641199 78.610662,4.41049158 77.9099186,4.66251967 L77.9099186,4.70452436 C78.4832541,4.93555011 78.8017738,5.46060863 78.9928856,6.2166929 C79.2477014,7.11979356 79.5025171,8.1699106 79.6511597,8.48494571 L77.7612761,8.48494571 C77.6338682,8.25391996 77.4427564,7.6028474 77.1879407,6.59473503 C76.9755942,5.58662267 76.6146052,5.31359224 75.8713926,5.2925899 L75.3192918,5.2925899 L75.3192918,8.46394337 L73.4931121,8.46394337 L73.4931121,0.525058522 L73.5143468,0.525058522 Z M75.3405264,3.99044477 L76.0625044,3.99044477 C76.9755942,3.99044477 77.527695,3.52839327 77.527695,2.83531602 C77.527695,2.10023409 77.0180635,1.72219195 76.1686776,1.70118961 C75.72275,1.70118961 75.4679343,1.74319429 75.3405264,1.76419663 L75.3405264,3.99044477 Z" id="Shape" fill="#044F7A" fill-rule="nonzero"></path>
                            <path d="M83.7282118,8.48494571 L83.7282118,0.420046817 L85.8729111,0.420046817 L87.5716829,3.38137688 C88.0600798,4.22147052 88.5484766,5.22958288 88.9094656,6.15368588 L88.9519349,6.15368588 C88.824527,5.08256649 88.8032924,3.99044477 88.8032924,2.79331134 L88.8032924,0.441049158 L90.5020641,0.441049158 L90.5020641,8.50594805 L88.5484766,8.50594805 L86.8072356,5.3976016 C86.3188387,4.53650563 85.7879726,3.48638859 85.3845143,2.54128325 L85.342045,2.56228559 C85.3845143,3.63340497 85.4057489,4.76753138 85.4057489,6.09067885 L85.4057489,8.5269504 L83.7282118,8.5269504 L83.7282118,8.48494571 Z" id="Shape" fill="#044F7A" fill-rule="nonzero"></path>
                            <path d="M97.0423353,6.42671631 L96.4689998,8.50594805 L94.5578816,8.50594805 L97.0423353,0.441049158 L99.463085,0.441049158 L101.990008,8.50594805 L100.015186,8.50594805 L99.3781464,6.42671631 L97.0423353,6.42671631 Z M99.102096,5.06156415 L98.5924645,3.3393722 C98.443822,2.85631836 98.2951795,2.26825281 98.1890062,1.78519897 L98.1677716,1.78519897 C98.0403637,2.26825281 97.9341905,2.8773207 97.7855479,3.3393722 L97.2971511,5.06156415 L99.102096,5.06156415 Z" id="Shape" fill="#044F7A" fill-rule="nonzero"></path>
                            <polygon id="Shape" fill="#044F7A" fill-rule="nonzero" points="107.234966 1.9532177 105.047797 1.9532177 105.047797 0.420046817 111.312018 0.420046817 111.312018 1.9532177 109.08238 1.9532177 109.08238 8.48494571 107.234966 8.48494571"></polygon>
                            <polygon id="Shape" fill="#044F7A" fill-rule="nonzero" points="117.194015 0.420046817 117.194015 8.48494571 115.346601 8.48494571 115.346601 0.420046817 117.194015 0.420046817"></polygon>
                            <path d="M129.297764,4.3684869 C129.297764,7.01478185 127.68393,8.61095976 125.284415,8.61095976 C122.863666,8.61095976 121.440944,6.80475844 121.440944,4.49450095 C121.440944,2.07923175 123.012308,0.273030431 125.411823,0.273030431 C127.938746,0.294032772 129.297764,2.14223877 129.297764,4.3684869 Z M123.415766,4.47349861 C123.415766,6.04867417 124.158979,7.16179824 125.390589,7.16179824 C126.643433,7.16179824 127.344176,5.98566715 127.344176,4.41049158 C127.344176,2.96133006 126.643433,1.72219195 125.369354,1.72219195 C124.137744,1.74319429 123.415766,2.91932538 123.415766,4.47349861 Z" id="Shape" fill="#044F7A" fill-rule="nonzero"></path>
                            <path d="M133.565928,8.48494571 L133.565928,0.420046817 L135.710627,0.420046817 L137.409399,3.38137688 C137.897795,4.22147052 138.386192,5.22958288 138.747181,6.15368588 L138.789651,6.15368588 C138.662243,5.08256649 138.641008,3.99044477 138.641008,2.79331134 L138.641008,0.441049158 L140.33978,0.441049158 L140.33978,8.50594805 L138.407427,8.50594805 L136.666186,5.3976016 C136.177789,4.53650563 135.646923,3.48638859 135.243465,2.54128325 L135.200995,2.56228559 C135.243465,3.63340497 135.264699,4.76753138 135.264699,6.09067885 L135.264699,8.5269504 L133.565928,8.5269504 L133.565928,8.48494571 Z" id="Shape" fill="#044F7A" fill-rule="nonzero"></path>
                            <path d="M146.858816,6.42671631 L146.285481,8.50594805 L144.374363,8.50594805 L146.858816,0.441049158 L149.279566,0.441049158 L151.806489,8.50594805 L149.831667,8.50594805 L149.194628,6.42671631 L146.858816,6.42671631 Z M148.939812,5.06156415 L148.43018,3.3393722 C148.281538,2.85631836 148.132895,2.26825281 148.026722,1.78519897 L148.005487,1.78519897 C147.878079,2.26825281 147.771906,2.8773207 147.623264,3.3393722 L147.134867,5.06156415 L148.939812,5.06156415 Z" id="Shape" fill="#044F7A" fill-rule="nonzero"></path>
                            <polygon id="Shape" fill="#044F7A" fill-rule="nonzero" points="155.947245 0.420046817 157.794659 0.420046817 157.794659 6.95177483 161.04356 6.95177483 161.04356 8.48494571 155.947245 8.48494571"></polygon>
                        </g>
                        <g id="Group" transform="translate(0, 16.5498)">
                            <rect id="Rectangle-path" x="0" y="0" width="130.380731" height="23.102575"></rect>
                            <path d="M0.806916574,0.546060863 C1.29531345,0.441049158 2.27210719,0.378042136 3.185197,0.378042136 C4.31063327,0.378042136 5.01137661,0.48305384 5.58471208,0.840093635 C6.15804754,1.13412641 6.56150582,1.68018727 6.56150582,2.4152692 C6.56150582,3.12934879 6.13681289,3.8014237 5.22372308,4.13746115 L5.22372308,4.15846349 C6.15804754,4.41049158 6.83755623,5.10356883 6.83755623,6.15368588 C6.83755623,6.88876781 6.49780188,7.45583101 5.98817036,7.87587783 C5.39360026,8.33792933 4.39557186,8.61095976 2.78173871,8.61095976 C1.86864891,8.61095976 1.18914021,8.54795274 0.785681927,8.48494571 L0.785681927,0.546060863 L0.806916574,0.546060863 Z M2.63309619,3.63340497 L3.24890094,3.63340497 C4.22569469,3.63340497 4.73532621,3.23436049 4.73532621,2.64629495 C4.73532621,2.03722706 4.26816398,1.72219195 3.41877811,1.72219195 C3.01531983,1.72219195 2.78173871,1.74319429 2.63309619,1.76419663 L2.63309619,3.63340497 Z M2.63309619,7.20380292 C2.82420801,7.22480526 3.03655447,7.22480526 3.35507417,7.22480526 C4.18322539,7.22480526 4.92643803,6.90977015 4.92643803,6.06967651 C4.92643803,5.25058522 4.18322539,4.93555011 3.27013559,4.93555011 L2.63309619,4.93555011 L2.63309619,7.20380292 L2.63309619,7.20380292 Z" id="Shape" fill="#044F7A" fill-rule="nonzero"></path>
                            <polygon id="Shape" fill="#044F7A" fill-rule="nonzero" points="13.0168384 0.420046817 13.0168384 8.48494571 11.1694242 8.48494571 11.1694242 0.420046817"></polygon>
                            <path d="M17.667226,0.546060863 C18.1556229,0.441049158 19.1324167,0.378042136 20.0455065,0.378042136 C21.1709427,0.378042136 21.8716861,0.48305384 22.4450215,0.840093635 C23.018357,1.13412641 23.4218153,1.68018727 23.4218153,2.4152692 C23.4218153,3.12934879 22.9971223,3.8014237 22.0840325,4.13746115 L22.0840325,4.15846349 C23.018357,4.41049158 23.6978657,5.10356883 23.6978657,6.15368588 C23.6978657,6.88876781 23.3581113,7.45583101 22.8484798,7.87587783 C22.2539097,8.33792933 21.2558813,8.61095976 19.6420482,8.61095976 C18.7289584,8.61095976 18.0494497,8.54795274 17.6459914,8.48494571 L17.6459914,0.546060863 L17.667226,0.546060863 Z M19.4934056,3.63340497 L20.1092104,3.63340497 C21.0860041,3.63340497 21.5956357,3.23436049 21.5956357,2.64629495 C21.5956357,2.03722706 21.1284734,1.72219195 20.2790876,1.72219195 C19.8756293,1.72219195 19.6420482,1.74319429 19.4934056,1.76419663 L19.4934056,3.63340497 L19.4934056,3.63340497 Z M19.4934056,7.20380292 C19.6845175,7.22480526 19.8968639,7.22480526 20.2153836,7.22480526 C21.0435349,7.22480526 21.7867475,6.90977015 21.7867475,6.06967651 C21.7867475,5.25058522 21.0435349,4.93555011 20.130445,4.93555011 L19.4934056,4.93555011 L19.4934056,7.20380292 Z" id="Shape" fill="#044F7A" fill-rule="nonzero"></path>
                            <polygon id="Shape" fill="#044F7A" fill-rule="nonzero" points="28.0297336 0.420046817 29.8771479 0.420046817 29.8771479 6.95177483 33.1260488 6.95177483 33.1260488 8.48494571 28.0297336 8.48494571"></polygon>
                            <polygon id="Shape" fill="#044F7A" fill-rule="nonzero" points="42.1083044 5.08256649 39.1142192 5.08256649 39.1142192 6.99377951 42.4692933 6.99377951 42.4692933 8.48494571 37.2668049 8.48494571 37.2668049 0.420046817 42.2994162 0.420046817 42.2994162 1.91121302 39.1142192 1.91121302 39.1142192 3.59140029 42.1083044 3.59140029 42.1083044 5.08256649"></polygon>
                            <path d="M49.5829,6.61573738 C50.0712969,6.86776547 50.8357441,7.11979356 51.6214261,7.11979356 C52.4708119,7.11979356 52.9167395,6.76275376 52.9167395,6.23769524 C52.9167395,5.73363906 52.5345159,5.43960629 51.5577221,5.10356883 C50.1987047,4.64151733 49.3280842,3.88543306 49.3280842,2.73030431 C49.3280842,1.34414982 50.4959898,0.294032772 52.407108,0.294032772 C53.3201978,0.294032772 53.9997065,0.48305384 54.4881034,0.693077249 L54.0846451,2.16324111 C53.7661254,2.01622472 53.1715553,1.78519897 52.3858733,1.78519897 C51.6001914,1.78519897 51.1967331,2.14223877 51.1967331,2.56228559 C51.1967331,3.08734411 51.6638954,3.29736752 52.704393,3.69641199 C54.148349,4.22147052 54.8278577,4.95655245 54.8278577,6.11168119 C54.8278577,7.45583101 53.7661254,8.61095976 51.5364875,8.61095976 C50.602163,8.61095976 49.6890732,8.37993401 49.221911,8.12790592 L49.5829,6.61573738 Z" id="Shape" fill="#044F7A" fill-rule="nonzero"></path>
                            <path d="M66.5706173,4.38948924 C66.5706173,7.03578419 64.9567842,8.6319621 62.5572691,8.6319621 C60.1365194,8.6319621 58.7137981,6.82576078 58.7137981,4.51550329 C58.7137981,2.10023409 60.2851619,0.294032772 62.684677,0.294032772 C65.2115999,0.294032772 66.5706173,2.16324111 66.5706173,4.38948924 Z M60.6673855,4.49450095 C60.6673855,6.06967651 61.4105982,7.18280058 62.6422077,7.18280058 C63.8950518,7.18280058 64.5957952,6.00666949 64.5957952,4.43149392 C64.5957952,2.9823324 63.8950518,1.74319429 62.620973,1.74319429 C61.4105982,1.74319429 60.6673855,2.91932538 60.6673855,4.49450095 Z" id="Shape" fill="#044F7A" fill-rule="nonzero"></path>
                            <path d="M76.8269517,8.2749223 C76.4871973,8.44294103 75.72275,8.6319621 74.7247216,8.6319621 C71.9005136,8.6319621 70.4565577,6.88876781 70.4565577,4.59951265 C70.4565577,1.848206 72.4313798,0.315035113 74.9158335,0.315035113 C75.8713926,0.315035113 76.5933706,0.504056181 76.9331249,0.672074908 L76.5509013,2.12123643 C76.1686776,1.97422004 75.6590461,1.82720366 75.0007721,1.82720366 C73.5355814,1.82720366 72.3889105,2.70930197 72.3889105,4.49450095 C72.3889105,6.11168119 73.3657043,7.11979356 75.0007721,7.11979356 C75.5528729,7.11979356 76.1686776,6.99377951 76.5296666,6.84676313 L76.8269517,8.2749223 Z" id="Shape" fill="#044F7A" fill-rule="nonzero"></path>
                            <polygon id="Shape" fill="#044F7A" fill-rule="nonzero" points="82.9425299 0.420046817 82.9425299 8.48494571 81.0951156 8.48494571 81.0951156 0.420046817"></polygon>
                            <polygon id="Shape" fill="#044F7A" fill-rule="nonzero" points="92.434417 5.08256649 89.4403318 5.08256649 89.4403318 6.99377951 92.795406 6.99377951 92.795406 8.48494571 87.5929175 8.48494571 87.5929175 0.420046817 92.6255288 0.420046817 92.6255288 1.91121302 89.4403318 1.91121302 89.4403318 3.59140029 92.434417 3.59140029 92.434417 5.08256649"></polygon>
                            <polygon id="Shape" fill="#044F7A" fill-rule="nonzero" points="98.1890062 1.9532177 96.0018376 1.9532177 96.0018376 0.420046817 102.266058 0.420046817 102.266058 1.9532177 100.03642 1.9532177 100.03642 8.48494571 98.1890062 8.48494571"></polygon>
                            <path d="M107.702128,8.50594805 L107.702128,5.20858054 L105.132736,0.420046817 L107.234966,0.420046817 L108.063117,2.35226218 C108.317933,2.94032772 108.48781,3.36037454 108.700156,3.9064354 L108.721391,3.9064354 C108.912503,3.40237922 109.103615,2.94032772 109.337196,2.35226218 L110.165347,0.420046817 L112.225108,0.420046817 L109.528308,5.12457117 L109.528308,8.48494571 L107.702128,8.48494571 L107.702128,8.50594805 Z" id="Shape" fill="#044F7A" fill-rule="nonzero"></path>
                        </g>
                    </g>
                </g>
            </g>
        </g>
    </g>
</svg>