<?xml version="1.0" encoding="UTF-8"?>
<svg width="226px" height="77px" viewBox="0 0 226 77" version="1.1" xmlns="http://www.w3.org/2000/svg" xmlns:xlink="http://www.w3.org/1999/xlink">
    <title>blc</title>
    <g id="Page-1" stroke="none" stroke-width="1" fill="none" fill-rule="evenodd">
        <g id="Color-Palette" transform="translate(-1265, -985)">
            <g id="SPONSERS" transform="translate(1245, 580)">
                <g id="Layer_1" transform="translate(20, 405)">
                    <rect id="Rectangle-path" x="86.176764" y="22.2682018" width="139.823236" height="54.7317982"></rect>
                    <path d="M88.033056,23.4415848 C88.9481295,23.2069082 90.4645371,23.0765323 91.9286547,23.0765323 C94.0725413,23.0765323 95.4320791,23.4415848 96.4517325,24.3020657 C97.3145161,24.9539451 97.8374153,25.9708771 97.8374153,27.3267863 C97.8374153,28.9955977 96.765472,30.4297325 95.0399048,31.0816119 L95.0399048,31.1598375 C96.6086023,31.5248899 98.4648943,32.8807992 98.4648943,35.4100914 C98.4648943,36.8703014 97.9158502,38.0176092 97.0530665,38.8259397 C95.9288333,39.895022 94.0725413,40.4165256 91.3534657,40.4165256 C89.889348,40.4165256 88.7389699,40.3122249 88.0592009,40.2079241 L88.033056,23.4415848 L88.033056,23.4415848 L88.033056,23.4415848 Z M90.1769426,30.4297325 L92.1116695,30.4297325 C94.3339909,30.4297325 95.6673838,29.2041991 95.6673838,27.5353877 C95.6673838,25.5536742 94.2294111,24.7453437 92.0855245,24.7453437 C91.0920161,24.7453437 90.542972,24.8235693 90.2030875,24.9017948 L90.2030875,30.4297325 L90.1769426,30.4297325 Z M90.1769426,38.5912631 C90.6214068,38.6694887 91.2227409,38.6955638 91.9809447,38.6955638 C94.1771211,38.6955638 96.2164279,37.8611581 96.2164279,35.3840163 C96.2164279,33.0894006 94.281701,32.0724687 91.9547997,32.0724687 L90.1769426,32.0724687 L90.1769426,38.5912631 L90.1769426,38.5912631 Z" id="Shape" fill="#2C4C9D"></path>
                    <path d="M103.641596,24.5628175 C103.641596,25.3189976 103.118697,25.9448019 102.282058,25.9448019 C101.497709,25.9448019 100.97481,25.3450728 100.97481,24.5628175 C100.97481,23.8066373 101.523854,23.1808331 102.334348,23.1808331 C103.092552,23.1547579 103.641596,23.754487 103.641596,24.5628175 L103.641596,24.5628175 Z M101.262405,40.2600745 L101.262405,27.9786658 L103.406291,27.9786658 L103.406291,40.2600745 L101.262405,40.2600745 L101.262405,40.2600745 Z" id="Shape" fill="#2C4C9D"></path>
                    <path d="M106.988151,22.2682018 L109.132037,22.2682018 L109.132037,29.9603793 L109.184327,29.9603793 C109.942531,28.5783949 111.328214,27.717914 113.236796,27.717914 C116.191176,27.717914 118.256628,30.2472062 118.256628,33.9498815 C118.256628,38.3305113 115.563697,40.4947511 112.896911,40.4947511 C111.197489,40.4947511 109.811806,39.8167965 108.896733,38.2262106 L108.844443,38.2262106 L108.739863,40.2339993 L106.909716,40.2339993 C106.962006,39.3995936 106.988151,38.1740603 106.988151,37.0789028 L106.988151,22.2682018 L106.988151,22.2682018 L106.988151,22.2682018 Z M109.079747,35.3318659 C109.079747,35.6186929 109.105892,35.8794446 109.158182,36.1401964 C109.550357,37.6786319 110.831459,38.7477142 112.400157,38.7477142 C114.674768,38.7477142 115.982016,36.8442262 115.982016,34.028107 C115.982016,31.5509651 114.753203,29.4649509 112.426302,29.4649509 C110.988329,29.4649509 109.628791,30.5340332 109.158182,32.2028446 C109.079747,32.4896715 109.053602,32.7764985 109.053602,33.141551 L109.053602,35.3318659 L109.079747,35.3318659 Z" id="Shape" fill="#2C4C9D"></path>
                    <polygon id="Shape" fill="#2C4C9D" points="120.897268 22.2682018 123.041155 22.2682018 123.041155 40.2600745 120.897268 40.2600745"></polygon>
                    <path d="M127.877972,34.5235354 C127.930262,37.548256 129.760409,38.7737894 131.956586,38.7737894 C133.499138,38.7737894 134.440357,38.4869624 135.224705,38.1479851 L135.61688,39.7646461 C134.858676,40.1036234 133.525283,40.5469015 131.642846,40.5469015 C128.008697,40.5469015 125.81252,38.0436844 125.81252,34.3410091 C125.81252,30.6383339 127.930262,27.7700643 131.355252,27.7700643 C135.25085,27.7700643 136.244359,31.2641382 136.244359,33.5066035 C136.244359,33.9759567 136.218214,34.2888588 136.165924,34.5496106 L127.877972,34.5235354 L127.877972,34.5235354 L127.877972,34.5235354 Z M134.205052,32.9590247 C134.231197,31.5770403 133.656008,29.3606502 131.224527,29.3606502 C129.02835,29.3606502 128.087132,31.3945141 127.930262,32.9590247 L134.205052,32.9590247 L134.205052,32.9590247 Z" id="Shape" fill="#2C4C9D"></path>
                    <polygon id="Shape" fill="#6BA81B" points="138.937289 22.2682018 141.081176 22.2682018 141.081176 40.2600745 138.937289 40.2600745"></polygon>
                    <path d="M145.944138,34.5235354 C145.996428,37.548256 147.826575,38.7737894 150.022752,38.7737894 C151.565304,38.7737894 152.506523,38.4869624 153.290871,38.1479851 L153.683046,39.7646461 C152.924842,40.1036234 151.591449,40.5469015 149.709012,40.5469015 C146.074863,40.5469015 143.878687,38.0436844 143.878687,34.3410091 C143.878687,30.6383339 145.996428,27.7700643 149.421418,27.7700643 C153.317016,27.7700643 154.310525,31.2641382 154.310525,33.5066035 C154.310525,33.9759567 154.28438,34.2888588 154.23209,34.5496106 L145.944138,34.5235354 L145.944138,34.5235354 L145.944138,34.5235354 Z M152.245073,32.9590247 C152.271218,31.5770403 151.696029,29.3606502 149.264548,29.3606502 C147.068371,29.3606502 146.127153,31.3945141 145.970283,32.9590247 L152.245073,32.9590247 L152.245073,32.9590247 Z" id="Shape" fill="#6BA81B"></path>
                    <path d="M165.317552,37.3135794 C165.317552,38.3826617 165.369842,39.3995936 165.500567,40.2339993 L163.56584,40.2339993 L163.382825,38.6955638 L163.30439,38.6955638 C162.650766,39.6603454 161.369664,40.5208263 159.696386,40.5208263 C157.29105,40.5208263 156.088382,38.7737894 156.088382,37.0006773 C156.088382,34.028107 158.624443,32.411446 163.199811,32.4375212 L163.199811,32.1767694 C163.199811,31.1859126 162.938361,29.334575 160.50688,29.3606502 C159.382647,29.3606502 158.232269,29.6735523 157.39563,30.2732814 L156.872731,28.7869963 C157.866239,28.161192 159.304212,27.717914 160.794474,27.717914 C164.402479,27.717914 165.317552,30.2732814 165.317552,32.7243481 L165.317552,37.3135794 L165.317552,37.3135794 Z M163.225956,34.0020318 C160.872909,33.9498815 158.206124,34.3670843 158.206124,36.7660007 C158.206124,38.2262106 159.121197,38.9041653 160.19314,38.9041653 C161.761838,38.9041653 162.755346,37.8872333 163.121376,36.8703014 C163.199811,36.6095496 163.199811,36.3487978 163.199811,36.1401964 L163.199811,34.0020318 L163.225956,34.0020318 L163.225956,34.0020318 Z" id="Shape" fill="#6BA81B"></path>
                    <path d="M178.939075,38.4608872 C178.939075,41.3030816 178.390031,42.9979682 177.265798,44.0931256 C176.089275,45.1882831 174.442143,45.5533356 172.925735,45.5533356 C171.513907,45.5533356 169.94521,45.2143583 169.003991,44.5364037 L169.553035,42.8154419 C170.337384,43.3630207 171.540052,43.8062987 173.030315,43.8062987 C175.226491,43.8062987 176.847479,42.6329157 176.847479,39.5038943 L176.847479,38.1479851 L176.795189,38.1479851 C176.16771,39.2952929 174.860462,40.181849 173.030315,40.181849 C170.075935,40.181849 167.984338,37.6004064 167.984338,34.2106333 C167.984338,30.0386048 170.624979,27.717914 173.344054,27.717914 C175.409506,27.717914 176.507594,28.8130715 177.056638,29.8039282 L177.108928,29.8039282 L177.187363,27.9525906 L179.095945,27.9525906 C179.01751,28.8130715 179.01751,29.8300034 179.01751,31.2902133 L178.939075,38.4608872 L178.939075,38.4608872 L178.939075,38.4608872 Z M176.769044,32.8286488 C176.769044,32.4635963 176.742899,32.0985439 176.664464,31.8377921 C176.27229,30.507958 175.252636,29.4649509 173.657794,29.4649509 C171.592342,29.4649509 170.128224,31.2641382 170.128224,34.0802574 C170.128224,36.5052489 171.330893,38.4869624 173.631649,38.4869624 C174.991187,38.4869624 176.16771,37.6264815 176.612174,36.2184219 C176.716754,35.8533695 176.795189,35.4100914 176.795189,35.0450389 L176.769044,32.8286488 L176.769044,32.8286488 L176.769044,32.8286488 Z" id="Shape" fill="#6BA81B"></path>
                    <path d="M192.403729,36.8963766 C192.403729,38.2001355 192.429874,39.3213681 192.482164,40.2600745 L190.573582,40.2600745 L190.469002,38.2522858 L190.416712,38.2522858 C189.867668,39.2431426 188.586565,40.5208263 186.494968,40.5208263 C184.638676,40.5208263 182.416355,39.4256688 182.416355,35.1493397 L182.416355,28.0308161 L184.560241,28.0308161 L184.560241,34.7842872 C184.560241,37.104978 185.266155,38.721639 187.200882,38.721639 C188.638855,38.721639 189.658508,37.6786319 190.024538,36.6877751 C190.129117,36.374873 190.233697,35.9576702 190.233697,35.5404673 L190.233697,28.0308161 L192.377584,28.0308161 L192.403729,36.8963766 L192.403729,36.8963766 L192.403729,36.8963766 Z" id="Shape" fill="#6BA81B"></path>
                    <path d="M197.188256,34.5235354 C197.240546,37.548256 199.070693,38.7737894 201.26687,38.7737894 C202.809422,38.7737894 203.750641,38.4869624 204.534989,38.1479851 L204.927164,39.7646461 C204.16896,40.1036234 202.835567,40.5469015 200.95313,40.5469015 C197.318981,40.5469015 195.122804,38.0436844 195.122804,34.3410091 C195.122804,30.6383339 197.240546,27.7700643 200.665536,27.7700643 C204.561134,27.7700643 205.554643,31.2641382 205.554643,33.5066035 C205.554643,33.9759567 205.528498,34.2888588 205.476208,34.5496106 L197.188256,34.5235354 L197.188256,34.5235354 L197.188256,34.5235354 Z M203.489191,32.9590247 C203.515336,31.5770403 202.940147,29.3606502 200.508666,29.3606502 C198.312489,29.3606502 197.371271,31.3945141 197.214401,32.9590247 L203.489191,32.9590247 L203.489191,32.9590247 Z" id="Shape" fill="#6BA81B"></path>
                    <path d="M95.0137598,59.9729089 C94.5170056,60.2597359 93.4712073,60.5204876 92.1378144,60.5204876 C89.0527094,60.5204876 86.778098,58.512699 86.778098,54.8100237 C86.778098,51.2637995 89.1049993,48.8909583 92.4515539,48.8909583 C93.8110917,48.8909583 94.6738754,49.2038605 95.0399048,49.4124619 L94.6738754,50.5858449 C94.1509762,50.2990179 93.3927724,50.1164917 92.5038438,50.1164917 C89.9416379,50.1164917 88.2683606,51.8113783 88.2683606,54.7578733 C88.2683606,57.5479174 89.7847682,59.2949543 92.4515539,59.2949543 C93.3404825,59.2949543 94.2032661,59.112428 94.7784552,58.8256011 L95.0137598,59.9729089 L95.0137598,59.9729089 Z" id="Shape" fill="#2C4C9D"></path>
                    <path d="M102.125188,58.4083982 C102.125188,59.112428 102.151333,59.7903827 102.229768,60.3640366 L100.948665,60.3640366 L100.844085,59.3471046 L100.791796,59.3471046 C100.373476,59.9729089 99.5106926,60.5465628 98.3864594,60.5465628 C96.791617,60.5465628 95.9811233,59.3731798 95.9811233,58.225872 C95.9811233,56.2702337 97.6544006,55.2011514 100.687216,55.2011514 L100.687216,55.0447003 C100.687216,54.3928209 100.504201,53.1672875 98.9093586,53.1933627 C98.1772997,53.1933627 97.392951,53.4019641 96.8700518,53.7930918 L96.5563123,52.8283102 C97.2099363,52.4111073 98.1511548,52.1242804 99.1446632,52.1242804 C101.549999,52.1242804 102.099043,53.8191669 102.099043,55.435828 L102.125188,58.4083982 L102.125188,58.4083982 L102.125188,58.4083982 Z M100.765651,56.2180833 C99.2230981,56.1920081 97.4452409,56.4788351 97.4452409,58.0433458 C97.4452409,59.0081273 98.0465749,59.4253302 98.7786338,59.4253302 C99.8244321,59.4253302 100.478056,58.7473756 100.713361,58.0694209 C100.765651,57.9129699 100.791796,57.7565188 100.791796,57.6000677 L100.791796,56.2180833 L100.765651,56.2180833 Z" id="Shape" fill="#2C4C9D"></path>
                    <path d="M104.425945,54.418896 C104.425945,53.5584152 104.3998,52.8804605 104.34751,52.2285811 L105.602468,52.2285811 L105.680903,53.5844903 L105.707048,53.5844903 C106.099222,52.8283102 107.014296,52.07213 108.295399,52.07213 C109.367342,52.07213 111.066764,52.7500847 111.066764,55.5140535 L111.066764,60.3379614 L109.654936,60.3379614 L109.654936,55.6705046 C109.654936,54.3667457 109.184327,53.2715882 107.824789,53.2715882 C106.909716,53.2715882 106.177657,53.975618 105.916207,54.7839485 C105.837772,54.9664748 105.837772,55.2272265 105.837772,55.4879783 L105.837772,60.3640366 L104.425945,60.3640366 L104.425945,54.418896 L104.425945,54.418896 L104.425945,54.418896 Z" id="Shape" fill="#2C4C9D"></path>
                    <path d="M118.910252,58.4083982 C118.910252,59.112428 118.936396,59.7903827 119.014831,60.3640366 L117.733728,60.3640366 L117.629149,59.3471046 L117.576859,59.3471046 C117.158539,59.9729089 116.295756,60.5465628 115.171523,60.5465628 C113.57668,60.5465628 112.766186,59.3731798 112.766186,58.225872 C112.766186,56.2702337 114.439464,55.2011514 117.472279,55.2011514 L117.472279,55.0447003 C117.472279,54.3928209 117.289264,53.1672875 115.694422,53.1933627 C114.962363,53.1933627 114.178014,53.4019641 113.655115,53.7930918 L113.341375,52.8283102 C113.994999,52.4111073 114.936218,52.1242804 115.929726,52.1242804 C118.335062,52.1242804 118.884107,53.8191669 118.884107,55.435828 L118.884107,58.4083982 L118.910252,58.4083982 Z M117.550714,56.2180833 C116.008161,56.1920081 114.230304,56.4788351 114.230304,58.0433458 C114.230304,59.0081273 114.831638,59.4253302 115.563697,59.4253302 C116.609495,59.4253302 117.263119,58.7473756 117.498424,58.0694209 C117.550714,57.9129699 117.576859,57.7565188 117.576859,57.6000677 L117.576859,56.2180833 L117.550714,56.2180833 Z" id="Shape" fill="#2C4C9D"></path>
                    <path d="M127.930262,48.4476803 L127.930262,58.225872 C127.930262,58.955977 127.956407,59.7643075 128.008697,60.3118862 L126.753739,60.3118862 L126.675304,58.9299018 L126.649159,58.9299018 C126.23084,59.842533 125.289621,60.5204876 124.008518,60.5204876 C122.126081,60.5204876 120.635819,58.8777514 120.635819,56.4006095 C120.609674,53.7148662 122.256806,52.07213 124.139243,52.07213 C125.341911,52.07213 126.12626,52.6457839 126.492289,53.2976634 L126.518434,53.2976634 L126.518434,48.4737555 L127.930262,48.4476803 L127.930262,48.4476803 L127.930262,48.4476803 Z M126.544579,55.5401287 C126.544579,55.3576024 126.518434,55.0968507 126.466144,54.9143244 C126.256985,53.975618 125.472636,53.2194379 124.426838,53.2194379 C122.936575,53.2194379 122.099936,54.5753471 122.099936,56.322384 C122.099936,57.9651202 122.884285,59.3210295 124.426838,59.3210295 C125.368056,59.3210295 126.256985,58.6430748 126.518434,57.5479174 C126.570724,57.3393159 126.596869,57.1567897 126.596869,56.9221131 L126.544579,55.5401287 L126.544579,55.5401287 L126.544579,55.5401287 Z" id="Shape" fill="#2C4C9D"></path>
                    <path d="M135.826039,58.4083982 C135.826039,59.112428 135.852184,59.7903827 135.930619,60.3640366 L134.649516,60.3640366 L134.544936,59.3471046 L134.492647,59.3471046 C134.074327,59.9729089 133.211544,60.5465628 132.08731,60.5465628 C130.492468,60.5465628 129.681974,59.3731798 129.681974,58.225872 C129.681974,56.2702337 131.355252,55.2011514 134.388067,55.2011514 L134.388067,55.0447003 C134.388067,54.3928209 134.205052,53.1672875 132.61021,53.1933627 C131.878151,53.1933627 131.093802,53.4019641 130.570903,53.7930918 L130.257163,52.8283102 C130.910787,52.4111073 131.852006,52.1242804 132.845514,52.1242804 C135.25085,52.1242804 135.799894,53.8191669 135.799894,55.435828 L135.799894,58.4083982 L135.826039,58.4083982 L135.826039,58.4083982 Z M134.466502,56.2180833 C132.923949,56.1920081 131.146092,56.4788351 131.146092,58.0433458 C131.146092,59.0081273 131.747426,59.4253302 132.479485,59.4253302 C133.525283,59.4253302 134.178907,58.7473756 134.414212,58.0694209 C134.466502,57.9129699 134.492647,57.7565188 134.492647,57.6000677 L134.492647,56.2180833 L134.466502,56.2180833 Z" id="Shape" fill="#2C4C9D"></path>
                    <path d="M89.288014,12.8029123 C87.3271421,12.8029123 85.3401253,12.8550626 83.3792534,12.8029123 C82.6210497,12.7768371 82.4903249,13.0115137 82.4903249,13.7155435 C82.5164698,32.7764985 82.5164698,51.8374534 82.5164698,70.8984084 C82.5164698,72.0717914 82.6733396,71.9414155 81.4445265,71.9414155 C80.0065538,71.9414155 80.0065538,71.9414155 80.0065538,70.5072807 C80.0065538,51.6549272 80.0065538,32.8286488 80.0065538,13.9762953 C80.0065538,12.7768371 80.0065538,12.7768371 78.7515959,12.7768371 C77.1044635,12.7768371 75.4834761,12.7507619 73.8363437,12.8029123 C73.2872996,12.8029123 73.1565596,12.6464612 73.1565596,12.0988825 C73.1565596,9.98679309 73.1304299,9.98679309 75.2481715,9.98679309 C76.6077093,9.98679309 77.9672471,9.96071791 79.3267849,9.98679309 C79.8758291,10.0128683 80.0326988,9.8564172 80.0326988,9.30883847 C80.0065538,6.20589231 80.0326988,3.10294616 80.0326988,0 C80.8693375,0 81.7059761,0 82.5426148,0 C82.5426148,3.07687098 82.5687597,6.12766678 82.5426148,9.20453776 C82.5426148,9.88249238 82.7517744,10.0128683 83.3792534,10.0128683 C85.3662703,9.98679309 87.3532871,10.0128683 89.3664489,10.0128683 C89.288014,10.9515747 89.288014,11.8642059 89.288014,12.8029123 L89.288014,12.8029123 Z" id="Shape" fill="#3C63AE"></path>
                    <path d="M89.288014,10.0389434 C89.4545485,10.0389434 89.7043503,10.0128683 89.8708848,10.0128683 C89.8708848,10.9515747 89.8708848,11.8902811 89.8708848,12.8289875 C89.7043503,12.8289875 89.4545485,12.8029123 89.288014,12.8029123 C89.288014,11.8642059 89.288014,10.9515747 89.288014,10.0389434 L89.288014,10.0389434 Z" id="Shape" fill="#849CD0"></path>
                    <path d="M14.382709,37.991534 C14.1212594,40.1036234 13.5983602,42.1896377 13.1800409,44.2756519 C11.9512279,50.5076194 10.6962699,56.765662 9.44131187,62.9976295 C8.86612279,65.8137487 8.2386438,68.6298679 7.68959968,71.4459871 C7.55887489,72.1239418 7.27128035,72.306468 6.61765639,72.1500169 C4.68292949,71.6806637 2.72205763,71.2113105 0.787330732,70.7941077 C0.055271905,70.6376566 -0.101597844,70.2986793 0.055271905,69.6207247 C0.944200481,65.3443955 1.83312906,61.0680664 2.72205763,56.765662 C4.10774041,50.0382662 5.46727824,43.3108703 6.85296102,36.5834744 C6.95754085,36.1141212 7.00983077,35.644768 7.24513539,35.2275652 C8.02948413,35.1493397 8.55238329,34.7321368 8.97070262,34.0802574 C9.80734128,32.7243481 11.2976039,32.8025737 12.1865325,34.1324077 C12.9447363,35.3840163 13.70294,36.6617 14.382709,37.991534 L14.382709,37.991534 Z" id="Shape" fill="#3F64AF"></path>
                    <path d="M73.2872996,56.0616322 C73.2872996,57.3393159 73.2872996,58.6169997 73.2872996,59.8946834 C72.8166904,59.2428039 72.7382555,58.4083982 72.1630664,57.8347443 C72.0061967,57.6782933 71.8754719,57.4175415 71.6401672,57.4696918 C71.3525727,57.5479174 71.5094425,57.8347443 71.4832975,58.0433458 C71.4571525,58.2519472 71.5878773,58.5387741 71.3002828,58.6169997 C71.0388332,58.6952252 70.8296735,58.4866238 70.6728038,58.3040975 C70.5943689,58.1997968 70.515934,58.0694209 70.4374992,57.9651202 C69.6270055,56.8699627 69.4439908,56.8699627 68.4504824,57.8086692 C67.7445685,58.4866238 67.3785391,59.5296309 66.2804508,59.842533 C66.0190012,59.9207586 65.8882765,60.3118862 65.8098416,60.5987132 C65.6791168,61.1462919 65.4961021,61.746021 65.522247,62.2935997 C65.574537,64.3013884 66.1235811,64.8489672 67.9537281,63.9363359 C68.032163,63.9102608 68.1105979,63.8581104 68.1628878,63.80596 C69.0518164,63.362682 70.0714698,63.5712834 70.6728038,64.3535388 C71.3525727,65.2400948 72.2153563,65.4486962 73.2872996,65.0314934 C73.2872996,67.1435828 73.3134446,69.229597 73.3134446,71.3416864 C73.3134446,71.7328141 73.2088647,71.86319 72.7905454,71.86319 C69.6531504,71.8371148 66.5157555,71.86319 63.3783605,71.86319 C63.0123311,71.86319 62.8293164,71.7849644 62.8293164,71.3677616 C62.8554613,65.709448 62.8554613,60.0772096 62.8554613,54.418896 C62.8554613,54.3667457 62.8816063,54.3145953 62.9077512,54.262445 C63.0123311,54.3667457 63.1430559,54.4971216 63.2476357,54.6014223 C63.4306504,54.8100237 63.6398101,55.0447003 63.9274046,54.8100237 C64.1627092,54.6274975 63.9796945,54.3406705 63.8751147,54.1581443 C63.5875201,53.7148662 63.2476357,53.2715882 62.9338962,52.8543854 C62.8554613,52.6457839 62.8554613,52.4371825 62.9077512,52.2285811 C63.1430559,52.3328818 63.2999256,52.6718591 63.6136651,52.4371825 C63.9012596,52.2025059 63.8228248,51.8635286 63.7182449,51.6027768 C63.5090853,51.0291229 63.1953458,50.5076194 62.9861861,49.9600406 C62.8816063,49.725364 62.5940117,49.282086 63.2476357,49.2560108 C63.4045054,49.4385371 63.4567954,49.7775144 63.7443899,49.725364 C64.0319844,49.6732137 63.8751147,49.3603115 63.9274046,49.1517101 C64.0842743,48.7084321 64.0058395,48.2130037 64.0842743,47.7697257 C64.1627092,47.1699966 64.0581294,46.2834406 64.7378983,46.1009143 C65.9928563,45.7880122 66.4111756,44.6667795 67.1955244,43.9105994 C67.6399887,43.4673214 67.6922786,42.971893 67.2478143,42.4503894 C66.8556399,42.0071114 66.4634655,41.5377582 66.2804508,40.9380291 C66.149726,40.4947511 66.1235811,40.0775483 66.5941903,39.7907213 C67.0647996,39.4778192 67.3523941,39.7646461 67.6661336,40.0775483 C67.9798731,40.4165256 68.1890328,40.8337284 68.3720475,41.2770064 C68.4504824,41.4856079 68.5027723,41.7724348 68.7642219,41.7202845 C69.0518164,41.6681341 68.9210916,41.355232 68.9472366,41.1466305 C69.0256714,40.181849 68.9210916,39.1127667 70.2021945,38.7477142 C70.515934,38.6694887 70.6728038,38.3044362 70.7773836,37.9654589 C70.9081084,37.5743312 70.9603983,37.1571283 71.143413,36.7920759 C71.4832975,36.1662716 71.4832975,35.6969184 70.8558185,35.2275652 C70.4636441,34.9407382 70.515934,34.6799865 70.9342534,34.3931595 C71.6401672,33.8977311 72.398371,33.584829 73.2611546,33.5587538 C73.2611546,37.7829326 73.2872996,42.0331866 73.2872996,46.2573654 C73.2872996,49.0213342 73.2872996,51.7853031 73.2872996,54.5492719 C73.2872996,54.8360989 73.4441694,55.149001 73.1304299,55.4097528 C72.7644004,54.9664748 72.5552408,54.3928209 71.9277618,54.2363698 C71.143413,54.0799187 70.3590643,53.975618 69.7838752,53.3237386 C69.6531504,53.1933627 69.4701357,53.1672875 69.3394109,53.2715882 C69.1563962,53.4280393 69.3394109,53.5584152 69.4178458,53.6887911 C69.6792954,54.1059939 69.9146,54.5753471 70.2544845,54.9143244 C71.1172681,55.7226549 72.0061967,56.4266847 73.2872996,56.0616322 L73.2872996,56.0616322 Z M66.6464802,51.8896038 C66.6203353,51.4463258 66.6726252,50.9508974 66.1235811,51.1073485 C65.3915223,51.3420251 65.2346525,52.0982052 64.9993479,52.7240095 C64.8424781,53.1933627 65.0254928,53.6105655 65.3392323,53.9234677 C65.6268269,54.2102946 65.9405664,54.3145953 66.1235811,53.7670166 C66.3850307,53.1412123 66.5680454,52.4893329 66.6464802,51.8896038 L66.6464802,51.8896038 Z" id="Shape" fill="#3C63AE"></path>
                    <path d="M43.1421629,38.8520149 C43.1421629,37.7568574 43.1421629,36.6877751 43.1421629,35.5926177 C43.9265116,35.1754148 44.7631503,35.0971893 45.6259339,35.0971893 C46.7240222,35.0971893 47.0377617,34.6278361 46.7240222,33.5587538 C46.6194423,33.1937013 46.4102827,32.9068744 46.5932974,32.4635963 C46.6978772,32.2549949 46.9331818,31.7856417 46.4625726,31.6291907 C46.0703982,31.4988148 45.7566587,31.8117169 45.573644,32.124619 C45.4429192,32.3592956 45.3644843,32.6461226 45.3383394,32.9068744 C45.3121944,33.9238063 45.2599045,34.0020318 44.2663961,33.9498815 C43.9003667,33.9238063 43.5081923,33.8195056 43.1421629,33.7412801 C43.1421629,33.1937013 43.1421629,32.6461226 43.1421629,32.0985439 C43.8219318,31.6031155 44.6062805,31.1859126 45.2076146,30.5861835 C46.4364276,29.3606502 48.5018793,29.4910261 49.7045474,30.8208601 C49.4953877,31.0816119 48.9201986,31.2119878 49.1816482,31.681341 C49.4692428,32.1767694 49.913707,31.8899424 50.2797365,31.7074162 C51.168665,31.2902133 52.1360285,31.0294616 53.077247,30.7687098 C53.1556819,34.9146631 53.1295369,39.0866915 53.077247,43.2326448 C52.8157974,43.1544192 52.5804928,42.9979682 52.2928982,43.0501185 C51.822289,43.1544192 51.4562596,43.4412462 51.6654192,43.8845242 C51.9268688,44.4581781 52.3713331,44.9536065 53.051102,45.1100576 C53.051102,45.761937 53.051102,46.4138165 53.051102,47.0656959 C52.4759129,47.3264477 52.0575936,47.7697257 51.822289,48.3433796 C51.5869844,48.8909583 51.3255348,48.7866576 51.0640852,48.4476803 C50.541186,47.7175753 50.0444318,46.9613952 49.7568373,46.0748391 C49.5999675,45.6054859 49.4430978,45.1361327 49.2339381,44.6928547 C49.1555033,44.5103285 49.0509234,44.2495767 48.7633289,44.3017271 C48.5541692,44.3538774 48.5803142,44.6146292 48.5541692,44.7971554 C48.3711545,46.5963427 49.5215327,48.7345073 51.1163751,49.568913 C52.1883184,50.1164917 52.2144634,50.3772435 51.5085495,51.3681002 C50.567331,52.6979343 49.7829823,54.1059939 50.0444318,55.8530308 C50.1228667,56.4527599 50.1751566,57.1046393 50.0182869,57.6782933 C49.3646629,59.7643075 48.5803142,61.8242465 47.1684864,63.5452083 C46.7763121,64.0406366 46.4102827,64.8489672 45.6520789,64.6142906 C44.97231,64.379614 44.9984549,63.5452083 44.8938751,62.8933288 C44.5801356,60.9376905 44.7108604,58.9820522 44.7370053,57.0264138 C44.7370053,56.1920081 44.5539906,55.4619031 44.0572364,54.7839485 C43.717352,54.3145953 43.5604822,53.7930918 43.5081923,53.1933627 C43.4559024,52.5936336 43.5866272,51.915679 43.089873,51.4202506 C43.089873,47.8740264 43.089873,44.3017271 43.089873,40.7555029 C43.5604822,40.7033525 43.8742217,40.8337284 44.0310915,41.355232 C44.1356713,41.7463596 44.3709759,42.1114121 44.8154402,42.2678632 C46.1226881,42.7893667 47.456081,42.7893667 48.7633289,42.3200135 C49.4169528,42.1114121 49.5476776,41.4334575 49.0770684,40.9380291 C48.5018793,40.3122249 47.7436755,39.9210972 46.8808919,39.9993227 C46.3579927,40.0514731 46.0965432,39.9210972 45.9135285,39.4778192 C45.6782238,38.9563156 45.2599045,38.5912631 44.8154402,38.278361 C44.6585705,38.1740603 44.4232658,37.9654589 44.2141062,38.1479851 C43.9788016,38.3305113 44.1879612,38.5391128 44.2663961,38.7477142 C44.4232658,39.0606163 44.6324255,39.3735185 44.7370053,39.7124958 C44.8154402,39.9210972 45.1030348,40.181849 44.8415852,40.3643752 C44.5278457,40.5990518 44.2663961,40.3122249 44.0572364,40.1296986 C43.6650621,39.7646461 43.5866272,39.164917 43.1421629,38.8520149 L43.1421629,38.8520149 Z" id="Shape" fill="#84C442"></path>
                    <path d="M36.3444738,25.9708771 C36.3444738,24.7453437 36.3444738,23.5458855 36.3183288,22.3203522 C36.3183288,21.9552997 36.4490536,21.7727735 36.7627931,21.6423976 C37.6778666,21.2512699 38.6452301,21.1730444 39.6125935,21.407721 C40.7629717,21.6684727 40.8152616,21.7727735 40.8152616,22.9461565 C40.8152616,28.2394175 40.7891167,33.5587538 40.7891167,38.8520149 C40.1877826,38.9041653 39.6125935,38.9823908 39.6910284,39.8167965 C39.7433183,40.4686759 40.0047679,40.9119539 40.7891167,40.7555029 C40.7891167,41.0944802 40.7891167,41.4073823 40.7891167,41.7463596 C39.7433183,41.9549611 39.1158393,42.685066 38.6713751,43.5716221 C38.096186,44.7450051 37.9654612,46.048764 37.8085914,47.3264477 C37.5209969,49.6732137 38.3053456,50.4033187 40.6322469,50.9769726 C40.6845368,50.9769726 40.7368267,51.0030477 40.7891167,51.0291229 C40.7891167,57.782594 40.7891167,64.5621402 40.8152616,71.3156112 C40.8152616,71.7328141 40.7106818,71.8892652 40.2662175,71.8892652 C39.2465641,71.86319 38.2007658,71.8371148 37.1811124,71.8892652 C36.5013435,71.9153403 36.2921839,71.7588893 36.2921839,71.0287843 C36.3183288,66.5960041 36.3183288,62.1632238 36.3183288,57.7304436 C36.3183288,48.838808 36.3183288,39.9471724 36.3183288,31.0555367 C36.3183288,30.6904843 36.3444738,30.3254318 36.3444738,29.9864545 C36.9980977,29.8821537 37.2595473,29.4388757 37.3902721,28.8652218 C37.468707,28.4740941 37.442562,28.0308161 37.4948519,27.6396885 C37.7301566,26.2055537 37.7301566,26.2055537 36.3444738,25.9708771 L36.3444738,25.9708771 Z" id="Shape" fill="#3C63AE"></path>
                    <path d="M25.4943162,32.5939722 C25.4681712,31.0816119 25.4681712,29.5431764 25.4420262,28.0308161 C25.4420262,27.8222147 25.4420262,27.5875381 25.6511859,27.5353877 C26.2786649,27.3528615 26.7492741,26.8313579 27.4290431,26.7792076 C27.5336229,27.2485608 27.1153036,27.1964104 26.8799989,27.3528615 C26.7231292,27.4571622 26.3832447,27.431087 26.4616796,27.7439892 C26.5139695,27.9786658 26.7492741,27.9525906 26.9322889,27.9786658 C27.6904926,28.0829665 28.4486964,28.161192 29.2069002,28.3176431 C30.5141481,28.5783949 30.9847574,29.2563495 30.6971628,30.5601084 C30.618728,30.9251609 30.566438,31.2902133 30.618728,31.6291907 C30.6971628,32.1506942 30.8540326,32.6982729 31.4030767,32.9068744 C31.8998309,33.0894006 32.2920053,32.7764985 32.6841796,32.4896715 C33.102499,32.1767694 33.4423834,31.7595665 33.9391376,31.5770403 C33.9391376,35.2536404 33.9652826,38.9302404 33.9652826,42.6068405 C33.9652826,46.8310193 33.9391376,51.0551981 33.9391376,55.2793769 C33.729978,55.0968507 33.5208183,54.9143244 33.2855137,54.7578733 C32.1351355,53.975618 31.1677721,53.0369116 30.4618582,51.8113783 C29.337625,49.9078903 27.6120578,49.2038605 25.6250409,49.6210633 C25.5204611,46.4138165 25.4943162,43.1804944 25.598896,39.9732475 C26.3832447,39.2692177 26.9845788,38.3044362 28.1872468,38.2262106 C28.4486964,38.2001355 28.7624359,37.8872333 28.6578561,37.548256 C28.5794212,37.2092787 28.2133918,37.1571283 27.9257973,37.1571283 C27.5597678,37.1571283 27.2198834,37.4178801 26.827709,37.2092787 C27.481333,36.6356248 28.2656817,36.4009482 29.0761754,36.2705723 C29.5206397,36.2184219 29.7297994,35.931595 29.5729296,35.5143921 C29.36377,34.8625127 29.1284653,34.2106333 28.8147258,33.6369793 C28.5009863,33.0894006 28.0042321,32.8286488 27.455188,33.3762276 C27.0630136,33.7673552 26.9061439,33.5326786 26.7231292,33.2197765 C26.4616796,32.7764985 26.0433603,32.5678971 25.4943162,32.5939722 L25.4943162,32.5939722 Z" id="Shape" fill="#3C63AE"></path>
                    <path d="M43.1421629,51.4202506 C43.6650621,51.915679 43.5081923,52.6197088 43.5604822,53.1933627 C43.6127721,53.7930918 43.7696419,54.3145953 44.1095263,54.7839485 C44.6062805,55.4619031 44.7892953,56.1920081 44.7892953,57.0264138 C44.7631503,58.9820522 44.6324255,60.9637657 44.946165,62.8933288 C45.0507448,63.5452083 44.9984549,64.379614 45.7043688,64.6142906 C46.4625726,64.8489672 46.802457,64.0667118 47.2207764,63.5452083 C48.6326041,61.7981714 49.4169528,59.7643075 50.0705768,57.6782933 C50.2535915,57.1307145 50.2013016,56.4527599 50.0967218,55.8530308 C49.8352722,54.1059939 50.593476,52.6979343 51.5608394,51.3681002 C52.2667533,50.3772435 52.2406083,50.1164917 51.168665,49.568913 C49.5738226,48.7345073 48.4234444,46.5963427 48.6064591,44.7971554 C48.6326041,44.6146292 48.6064591,44.3538774 48.8156188,44.3017271 C49.0770684,44.2235015 49.2077932,44.5103285 49.286228,44.6928547 C49.4692428,45.1361327 49.6522575,45.6054859 49.8091272,46.0748391 C50.0705768,46.9613952 50.567331,47.7175753 51.1163751,48.4476803 C51.3778247,48.8127328 51.6392743,48.8909583 51.8745789,48.3433796 C52.1098835,47.7697257 52.5282029,47.3264477 53.1033919,47.0656959 C53.1033919,48.8648832 53.1295369,50.6640704 53.1295369,52.4632577 C53.1295369,58.6430748 53.1295369,64.822892 53.1556819,70.9766339 C53.1556819,71.6545886 53.0249571,71.86319 52.3190432,71.86319 C49.4953877,71.8110396 46.6455873,71.8371148 43.8219318,71.86319 C43.3774675,71.86319 43.1160179,71.8371148 43.1160179,71.2634609 C43.1421629,64.7185913 43.1421629,58.1997968 43.1421629,51.6549272 C43.1160179,51.5767017 43.1421629,51.4984761 43.1421629,51.4202506 L43.1421629,51.4202506 Z M52.4759129,58.6169997 C52.5282029,58.1737216 52.4759129,57.7043684 51.9791587,57.6000677 C51.4301146,57.4696918 51.4301146,58.0433458 51.3255348,58.3823231 C51.0902302,59.1645784 50.9333604,59.9989841 50.9595054,60.8073146 C50.9595054,61.015916 50.8549255,61.302743 51.1425201,61.3809685 C51.3778247,61.4331189 51.4562596,61.1984423 51.5869844,61.0680664 C52.1098835,60.3118862 52.3974781,59.5035557 52.4759129,58.6169997 L52.4759129,58.6169997 Z" id="Shape" fill="#3C63AE"></path>
                    <path d="M60.58085,45.9183881 C60.6069949,46.205215 60.6331399,46.4659668 60.6331399,46.7527938 C60.6331399,54.8360989 60.6331399,62.919404 60.6592848,71.0027091 C60.6592848,71.6806637 60.52856,71.9153403 59.7965012,71.86319 C58.5153983,71.8110396 57.2342953,71.8371148 55.9793373,71.86319 C55.587163,71.86319 55.3780033,71.8110396 55.3780033,71.3416864 C55.4041483,62.5282763 55.4041483,53.7409414 55.4041483,44.9275313 C55.4041483,44.875381 55.4302932,44.8232306 55.4564382,44.7710803 C56.162352,45.318659 56.4760915,46.0748391 56.6852512,46.9092448 C56.9205558,47.7958009 57.1558604,48.6562817 57.443455,49.5167626 C57.5480348,49.8035896 57.5741798,50.2468676 57.9924991,50.2207924 C58.4369634,50.1947172 58.4108184,49.7514392 58.4892533,49.4646123 C58.8552827,48.108703 59.5350516,46.9092448 60.58085,45.9183881 L60.58085,45.9183881 Z" id="Shape" fill="#3F64AF"></path>
                    <path d="M73.2872996,33.584829 C72.424516,33.6109042 71.6663122,33.9238063 70.9603983,34.4192347 C70.542079,34.7060616 70.4897891,34.9928886 70.8819635,35.2536404 C71.5094425,35.6969184 71.5094425,36.1923468 71.169558,36.818151 C70.9865433,37.1832035 70.9342534,37.6004064 70.8035286,37.991534 C70.6989488,38.3044362 70.542079,38.6694887 70.2283395,38.7737894 C68.9472366,39.1388419 69.0518164,40.2079241 68.9733815,41.1727057 C68.9472366,41.3813071 69.0779613,41.6942093 68.7903668,41.7463596 C68.5289172,41.79851 68.4766273,41.511683 68.3981924,41.3030816 C68.2151777,40.8598036 68.0060181,40.4426007 67.6922786,40.1036234 C67.404684,39.7907213 67.1170895,39.5038943 66.6203353,39.8167965 C66.149726,40.1036234 66.175871,40.5208263 66.3065958,40.9641043 C66.4896105,41.5638334 66.8817849,42.0331866 67.2739592,42.4764646 C67.7184235,42.9979682 67.6661336,43.4933965 67.2216693,43.9366746 C66.4373206,44.6928547 66.0451462,45.8140874 64.7640433,46.1269895 C64.0842743,46.3095157 64.2149991,47.1960718 64.1104193,47.7958009 C64.0319844,48.2651541 64.1104193,48.7345073 63.9535496,49.1777853 C63.8751147,49.3603115 64.0581294,49.6732137 63.7705348,49.7514392 C63.4567954,49.8035896 63.4045054,49.4906874 63.2737806,49.282086 C62.9861861,49.0474094 62.9338962,48.7605825 62.9338962,48.39553 C62.9338962,41.9028107 62.9338962,35.3840163 62.9338962,28.891297 C62.9338962,28.5523197 62.9338962,28.2394175 63.2737806,28.0308161 C63.6921,27.9786658 64.0842743,27.9004402 64.5025937,27.8743651 C64.894768,27.8482899 65.4438122,27.717914 65.6529718,28.1090417 C65.8359865,28.448019 65.2085075,28.60447 65.1300727,28.9434473 C65.4699571,29.2563495 65.8621315,29.1259736 66.2281609,29.1520488 C66.8556399,29.2041991 67.5615538,28.9695225 68.1105979,29.3084998 C69.0256714,29.8821537 69.940745,29.6735523 70.9081084,29.5692516 C71.6924572,29.4910261 72.4768059,29.1781239 73.2872996,29.4649509 C73.2872996,30.8208601 73.2872996,32.2028446 73.2872996,33.584829 L73.2872996,33.584829 Z" id="Shape" fill="#86C443"></path>
                    <path d="M73.2872996,29.4388757 C72.4768059,29.1259736 71.6924572,29.4388757 70.9081084,29.5431764 C69.9668899,29.6474771 69.0256714,29.8300034 68.1105979,29.2824247 C67.5615538,28.9434473 66.8556399,29.1781239 66.2281609,29.1259736 C65.8621315,29.0998984 65.4438122,29.2563495 65.1300727,28.9173722 C65.2346525,28.5783949 65.8621315,28.4219438 65.6529718,28.0829665 C65.4438122,27.6918388 64.894768,27.8222147 64.5025937,27.8482899 C64.0842743,27.8743651 63.6921,27.9525906 63.2737806,28.0047409 C63.1430559,28.0047409 63.038476,28.0047409 62.9077512,27.9786658 C62.7247365,27.0921097 62.8293164,26.2055537 62.8293164,25.3450728 C62.8031714,23.5980359 62.8554613,21.850999 62.8031714,20.1039621 C62.7770264,19.4781578 62.9861861,19.1652557 63.5613752,18.9566542 C66.5680454,17.8354216 69.5485706,17.8093464 72.5290958,18.9827294 C73.051995,19.1913308 73.2872996,19.4520826 73.2872996,20.0518117 C73.2872996,23.1808331 73.3134446,26.3098544 73.2872996,29.4388757 L73.2872996,29.4388757 Z" id="Shape" fill="#3C63AE"></path>
                    <path d="M25.6511859,49.6210633 C27.6382027,49.2038605 29.36377,49.9078903 30.4880032,51.8113783 C31.220062,53.0369116 32.1612805,53.975618 33.3116586,54.7578733 C33.5469633,54.9143244 33.729978,55.0968507 33.9652826,55.2793769 C33.9652826,55.9573315 33.9652826,56.6613613 33.9652826,57.3393159 C33.3116586,58.5909245 32.7364696,59.8946834 31.847541,61.0419912 C31.3769317,61.6417203 31.0109023,62.3196749 30.6710179,63.0237047 C30.2004086,63.9884863 29.7036544,64.979343 28.8670158,65.6572977 C28.2918267,66.1005757 28.0565221,66.6481544 28.0042321,67.2739587 C27.9519422,67.7954622 27.9257973,68.3169658 27.7950725,68.8123942 C27.5597678,69.6467999 27.7950725,70.5333559 27.455188,71.419912 C26.5662594,70.4290552 26.3832447,69.2817474 25.9910704,68.2126651 C25.8342006,66.152726 25.8080557,64.092787 26.4355347,62.1110735 C26.9845788,60.3901118 26.6969842,58.9299018 25.598896,57.5479174 C25.4681712,54.8882492 25.3635914,52.2546563 25.6511859,49.6210633 L25.6511859,49.6210633 Z" id="Shape" fill="#85C442"></path>
                    <path d="M23.0628351,49.1517101 C23.08898,49.568913 23.1674149,49.9861158 23.1674149,50.3772435 C23.1674149,57.2350152 23.1674149,64.1188622 23.1935598,70.9766339 C23.1935598,71.6806637 22.9582552,71.8892652 22.3046313,71.8371148 C21.6510073,71.7849644 20.9712384,71.7588893 20.3176144,71.8371148 C19.5332657,71.9153403 19.2718161,71.6545886 19.2979611,70.846258 C19.324106,64.1449374 19.324106,57.4436167 19.350251,50.742296 C19.350251,49.4124619 19.2195262,48.0826278 19.4286859,46.7527938 C19.8731502,47.1960718 20.2391796,47.7958009 20.8928035,47.9261768 C21.7555871,48.0826278 22.3830661,48.6562817 23.0628351,49.1517101 L23.0628351,49.1517101 Z" id="Shape" fill="#4367B1"></path>
                    <path d="M60.58085,45.9183881 C59.5089067,46.8831697 58.8552827,48.0826278 58.4631084,49.4646123 C58.3846735,49.7514392 58.3846735,50.1947172 57.9663541,50.2207924 C57.5218899,50.2468676 57.4957449,49.7775144 57.41731,49.5167626 C57.1297155,48.6562817 56.8944109,47.7958009 56.6591062,46.9092448 C56.4499466,46.0748391 56.1100621,45.318659 55.4302932,44.7710803 C55.2734235,43.4933965 55.3780033,42.241788 55.3780033,40.9641043 C55.3518583,38.2522858 55.4041483,35.5404673 55.3518583,32.8286488 C55.3518583,32.1767694 55.587163,31.9160176 56.188497,31.7595665 C57.5218899,31.3945141 58.8029928,31.4466644 60.1102407,31.8117169 C60.4239802,31.8899424 60.6592848,31.9942431 60.6592848,32.411446 C60.6069949,36.8963766 60.6069949,41.4073823 60.58085,45.9183881 L60.58085,45.9183881 Z" id="Shape" fill="#86C443"></path>
                    <path d="M53.077247,30.794785 C52.1360285,31.0555367 51.168665,31.3162885 50.2797365,31.7334914 C49.913707,31.8899424 49.4692428,32.2028446 49.1816482,31.7074162 C48.8940537,31.2119878 49.4953877,31.1076871 49.7045474,30.8469353 C48.5018793,29.5171013 46.4364276,29.3867254 45.2076146,30.6122587 C44.6062805,31.2119878 43.8480768,31.6291907 43.1421629,32.124619 C43.1421629,29.8821537 43.1421629,27.6396885 43.089873,25.3972232 C43.089873,24.9800203 43.2728877,24.8235693 43.6127721,24.6931934 C46.6455873,23.5198104 49.6784024,23.6501863 52.6850726,24.7974941 C52.9726671,24.9017948 53.1295369,25.084321 53.1033919,25.3972232 C53.1033919,27.1964104 53.1033919,28.9955977 53.077247,30.794785 L53.077247,30.794785 Z" id="Shape" fill="#3C63AE"></path>
                    <path d="M25.9649254,68.1865899 C26.3570998,69.2556722 26.5139695,70.40298 27.4290431,71.3938368 C27.7689275,70.5072807 27.5336229,69.5946495 27.7689275,68.786319 C27.8996523,68.2908906 27.9257973,67.7693871 27.9780872,67.2478835 C28.0303771,66.6220792 28.2918267,66.0745005 28.8408708,65.6312225 C29.7036544,64.9532679 30.1742637,63.9624111 30.6448729,62.9976295 C30.9847574,62.2935997 31.3507868,61.6417203 31.821396,61.015916 C32.6841796,59.8686082 33.2593687,58.5648493 33.9391376,57.3132408 C33.9391376,61.9546224 33.9391376,66.6220792 33.9652826,71.2634609 C33.9652826,71.7588893 33.8084128,71.86319 33.3378036,71.86319 C30.7494527,71.8371148 28.1611019,71.8371148 25.598896,71.8371148 C25.5466061,71.7849644 25.4943162,71.7328141 25.4681712,71.6806637 C25.4943162,70.5855063 25.4943162,69.4642736 25.5204611,68.3691162 C25.6773309,68.3169658 25.8342006,68.2387403 25.9649254,68.1865899 L25.9649254,68.1865899 Z" id="Shape" fill="#3C63AE"></path>
                    <path d="M23.0628351,49.1517101 C22.3830661,48.6562817 21.7555871,48.0826278 20.8666586,47.9261768 C20.2130346,47.7958009 19.8470052,47.222147 19.4025409,46.7527938 C19.376396,46.5181172 19.2979611,46.2573654 19.2979611,46.0226888 C19.2979611,40.9380291 19.2979611,35.8794446 19.2979611,30.794785 C19.6117006,30.794785 19.8992951,30.5601084 20.2653245,30.7165594 C20.6836439,30.8990857 20.9450934,30.7165594 20.9712384,30.2211311 C20.9712384,29.9864545 21.0758182,29.7517779 21.1281082,29.5171013 C21.206543,29.1520488 21.3634128,28.7348459 21.7294422,28.7087707 C22.0170367,28.6826956 22.0954716,29.1259736 22.2000514,29.4128005 C22.3307762,29.7257027 22.487646,30.0125296 22.5922258,30.2993566 C22.6968056,30.6122587 22.9059653,30.6383339 23.1674149,30.5601084 C23.3504296,30.9251609 23.2981397,31.2902133 23.1935598,31.6552658 C21.3634128,32.3592956 21.9124569,33.5587538 22.6968056,34.5496106 C22.8275304,34.7060616 23.0105451,34.8364375 23.1935598,34.9928886 C23.3765746,37.1832035 23.2197048,39.3995936 23.2458498,41.5899086 C23.2458498,42.1114121 23.3504296,42.6329157 23.115125,43.1283441 C21.9908918,43.1022689 21.3895577,43.5716221 21.1019632,44.7710803 C20.8666586,45.7358618 21.0496733,46.0748391 22.0954716,46.6484931 C22.461501,46.8310193 22.7752405,47.0917711 23.115125,47.3264477 C23.1935598,47.9522519 23.2981397,48.551981 23.0628351,49.1517101 L23.0628351,49.1517101 Z" id="Shape" fill="#85C345"></path>
                    <path d="M23.1412699,30.5601084 C22.8798203,30.6383339 22.6706607,30.6383339 22.5660808,30.2993566 C22.461501,29.9864545 22.3046313,29.6996275 22.1739065,29.4128005 C22.0693266,29.1259736 21.9908918,28.6826956 21.7032972,28.7087707 C21.3372678,28.7348459 21.206543,29.1520488 21.1019632,29.5171013 C21.0496733,29.7517779 20.9450934,29.9864545 20.9450934,30.2211311 C20.9189485,30.7165594 20.6574989,30.8990857 20.2391796,30.7165594 C19.8731502,30.5601084 19.6117006,30.794785 19.2718161,30.794785 C19.2718161,26.101253 19.2456712,21.3816458 19.2456712,16.6881138 C19.2456712,16.1926854 19.4548308,15.9580088 19.8731502,15.7494074 C20.5267741,15.4365052 21.206543,15.3843549 21.8863119,15.4886556 C22.8798203,15.6451067 23.1935598,16.0362343 23.1935598,17.0531663 C23.1935598,21.2251947 23.1935598,25.3972232 23.1935598,29.5692516 C23.2197048,29.9082289 23.1674149,30.2472062 23.1412699,30.5601084 L23.1412699,30.5601084 Z" id="Shape" fill="#3F64AF"></path>
                    <path d="M8.36936859,29.5431764 C8.52623834,27.717914 9.02299254,25.9708771 9.362877,24.1716898 C9.41516691,23.9370132 9.57203666,23.8066373 9.78119633,23.7023366 C11.6897783,22.7897054 15.4285073,23.5198104 16.840335,25.1103962 C16.9972048,25.2929225 17.1017846,25.4493735 17.0494947,25.7101253 C16.6834653,27.2485608 16.5265955,28.8130715 15.9775514,30.2993566 C13.4153455,30.0125296 10.9054295,29.5431764 8.36936859,29.5431764 L8.36936859,29.5431764 Z" id="Shape" fill="#4066AF"></path>
                    <path d="M73.2872996,65.0314934 C72.2153563,65.4486962 71.3787177,65.2400948 70.6728038,64.3535388 C70.0714698,63.5712834 69.0518164,63.362682 68.1628878,63.80596 C68.0844529,63.8320352 68.0060181,63.8841856 67.9537281,63.9363359 C66.1235811,64.8750423 65.574537,64.3013884 65.522247,62.2935997 C65.4961021,61.7199458 65.6791168,61.1462919 65.8098416,60.5987132 C65.8882765,60.3118862 65.9928563,59.9207586 66.2804508,59.842533 C67.3785391,59.5296309 67.7184235,58.4866238 68.4504824,57.8086692 C69.4178458,56.8960379 69.6270055,56.8960379 70.4374992,57.9651202 C70.515934,58.0694209 70.5943689,58.1997968 70.6728038,58.3040975 C70.8296735,58.4866238 71.0388332,58.6952252 71.3002828,58.6169997 C71.5617324,58.5387741 71.4571525,58.2519472 71.4832975,58.0433458 C71.5094425,57.8347443 71.3525727,57.5479174 71.6401672,57.4696918 C71.8754719,57.4175415 72.0061967,57.6782933 72.1630664,57.8347443 C72.7382555,58.4083982 72.8428353,59.2428039 73.2872996,59.8946834 C73.2872996,61.5895699 73.2872996,63.3105317 73.2872996,65.0314934 L73.2872996,65.0314934 Z" id="Shape" fill="#84C442"></path>
                    <path d="M8.36936859,29.5431764 C10.9315745,29.5692516 13.4414905,30.0386048 15.9775514,30.2993566 C15.9775514,30.4818828 16.0559863,30.6904843 16.0036964,30.8730105 C15.5330871,33.1937013 15.0363329,35.488317 14.5395787,37.8090078 C14.5134337,37.8872333 14.4611438,37.9393837 14.4088539,38.0176092 C13.729085,36.6877751 12.9708812,35.4100914 12.1603875,34.1845581 C11.2976039,32.854724 9.78119633,32.8025737 8.94455767,34.1324077 C8.55238329,34.7842872 8.00333917,35.20149 7.21899043,35.2797155 C7.14055556,34.1324077 7.53272993,33.0633254 7.76803455,31.968168 C7.9249043,31.1076871 7.89875934,30.2472062 8.36936859,29.5431764 L8.36936859,29.5431764 Z" id="Shape" fill="#81C249"></path>
                    <path d="M33.9391376,31.5509651 C33.4423834,31.7334914 33.102499,32.1767694 32.6841796,32.4635963 C32.2920053,32.7504233 31.8998309,33.0633254 31.4030767,32.8807992 C30.8540326,32.6721978 30.6971628,32.124619 30.618728,31.6031155 C30.566438,31.2641382 30.618728,30.8990857 30.6971628,30.5340332 C30.9847574,29.2302743 30.5141481,28.5523197 29.2069002,28.2915679 C28.4486964,28.1351168 27.6904926,28.0568913 26.9322889,27.9525906 C26.7492741,27.9265154 26.5139695,27.9786658 26.4616796,27.717914 C26.3832447,27.4050119 26.7231292,27.431087 26.8799989,27.3267863 C27.1153036,27.1703353 27.5336229,27.2224856 27.4290431,26.7531324 C29.5990746,26.101253 31.6906712,26.3359296 33.6776881,27.431087 C33.9391376,27.5875381 33.9914275,27.7961395 33.9652826,28.0568913 C33.9652826,29.2302743 33.9652826,30.3775821 33.9391376,31.5509651 L33.9391376,31.5509651 Z" id="Shape" fill="#85C442"></path>
                    <path d="M40.7629717,51.0291229 C40.7106818,51.0030477 40.6583919,50.9769726 40.606102,50.9769726 C38.3053456,50.4293938 37.5209969,49.6992889 37.7824465,47.3264477 C37.9393162,46.048764 38.0438961,44.7450051 38.6452301,43.5716221 C39.0896944,42.685066 39.7171734,41.9549611 40.7629717,41.7463596 C40.7629717,44.8493058 40.7629717,47.9261768 40.7629717,51.0291229 L40.7629717,51.0291229 Z" id="Shape" fill="#84C442"></path>
                    <path d="M25.4943162,32.5939722 C26.0433603,32.5678971 26.4616796,32.7764985 26.7492741,33.2458517 C26.9322889,33.5587538 27.1153036,33.7934304 27.481333,33.4023027 C28.0303771,32.854724 28.5271313,33.1154758 28.8408708,33.6630545 C29.1807553,34.2367084 29.3899149,34.8885879 29.5990746,35.5404673 C29.7297994,35.9576702 29.5467847,36.2184219 29.1023204,36.2966475 C28.2918267,36.4009482 27.5074779,36.6356248 26.853854,37.2353539 C27.2460284,37.4439553 27.6120578,37.1832035 27.9519422,37.1832035 C28.2656817,37.1832035 28.6055662,37.2353539 28.684001,37.5743312 C28.7624359,37.9133085 28.4748414,38.2262106 28.2133918,38.2522858 C26.9845788,38.3305113 26.4093897,39.3213681 25.6250409,39.9993227 C25.3897363,39.6864206 25.4943162,39.2952929 25.4943162,38.9563156 C25.4943162,36.818151 25.4943162,34.7060616 25.4943162,32.5939722 L25.4943162,32.5939722 Z" id="Shape" fill="#85C345"></path>
                    <path d="M43.1421629,38.8520149 C43.5866272,39.164917 43.6650621,39.7646461 44.0572364,40.1036234 C44.292541,40.3122249 44.5278457,40.5729766 44.8415852,40.3383 C45.1291797,40.1296986 44.8154402,39.8689468 44.7370053,39.6864206 C44.6324255,39.3474433 44.4232658,39.0606163 44.2663961,38.721639 C44.1879612,38.5391128 43.9788016,38.3044362 44.2141062,38.1219099 C44.4232658,37.9654589 44.6585705,38.1479851 44.8154402,38.2522858 C45.2860495,38.5651879 45.6782238,38.9563156 45.9135285,39.451744 C46.1226881,39.895022 46.3841377,39.9993227 46.8808919,39.9732475 C47.7436755,39.895022 48.5018793,40.2861497 49.0770684,40.9119539 C49.5476776,41.4073823 49.4169528,42.0853369 48.7633289,42.2939384 C47.456081,42.7372164 46.1226881,42.7372164 44.8154402,42.241788 C44.3971209,42.0853369 44.1618163,41.7202845 44.0310915,41.3291568 C43.8742217,40.8337284 43.5604822,40.6772773 43.089873,40.7294277 C43.1421629,40.1296986 43.1421629,39.5038943 43.1421629,38.8520149 L43.1421629,38.8520149 Z" id="Shape" fill="#3C63AE"></path>
                    <path d="M25.9649254,68.1865899 C25.8080557,68.2648154 25.6773309,68.3169658 25.5204611,68.3951913 C25.4681712,64.7707416 25.4158813,61.1462919 25.572751,57.5218422 C26.6708393,58.9038266 26.9584338,60.3640366 26.4093897,62.0849983 C25.7819107,64.0667118 25.8080557,66.1266509 25.9649254,68.1865899 L25.9649254,68.1865899 Z" id="Shape" fill="#537BB7"></path>
                    <path d="M43.1421629,33.7673552 C43.5081923,33.8455808 43.9003667,33.9498815 44.2663961,33.9759567 C45.2599045,34.028107 45.3383394,33.9238063 45.3383394,32.9329495 C45.3383394,32.6721978 45.4167742,32.3853708 45.573644,32.1506942 C45.7566587,31.8377921 46.0442532,31.5509651 46.4625726,31.6552658 C46.9331818,31.8117169 46.6717322,32.2810701 46.5932974,32.4896715 C46.4102827,32.9329495 46.6194423,33.2197765 46.7240222,33.584829 C47.0639066,34.6278361 46.7240222,35.1232645 45.6259339,35.1232645 C44.7631503,35.1232645 43.9265116,35.20149 43.1421629,35.6186929 C43.1421629,34.9928886 43.1421629,34.3670843 43.1421629,33.7673552 L43.1421629,33.7673552 Z" id="Shape" fill="#3C63AE"></path>
                    <path d="M23.0628351,47.3525229 C22.7229506,47.1178463 22.4092111,46.8570945 22.0431817,46.6745682 C20.9973834,46.1269895 20.8143687,45.761937 21.0496733,44.7971554 C21.3372678,43.6237724 21.9386019,43.1283441 23.0628351,43.1544192 C23.2981397,44.5624788 23.1935598,45.9705384 23.0628351,47.3525229 L23.0628351,47.3525229 Z" id="Shape" fill="#3F6CAF"></path>
                    <path d="M62.9600411,27.9786658 C63.0907659,27.9786658 63.1953458,27.9786658 63.3260706,28.0047409 C62.9861861,28.2133424 62.9861861,28.5262445 62.9861861,28.8652218 C62.9861861,35.3579411 62.9861861,41.8767355 62.9861861,48.3694548 C62.9861861,48.7084321 63.038476,49.0213342 63.3260706,49.2560108 C62.6724466,49.282086 62.9861861,49.6992889 63.064621,49.9600406 C63.2737806,50.5336945 63.5875201,51.0551981 63.7966798,51.6027768 C63.8751147,51.8635286 63.9796945,52.2285811 63.6921,52.4371825 C63.3783605,52.6718591 63.1953458,52.3328818 62.9861861,52.2285811 C62.7770264,51.0812733 62.9077512,49.9339655 62.9077512,48.7605825 C62.8816063,42.1114121 62.9077512,35.4361666 62.9077512,28.7869963 C62.8554613,28.5262445 62.9077512,28.2394175 62.9600411,27.9786658 L62.9600411,27.9786658 Z" id="Shape" fill="#81C249"></path>
                    <path d="M73.2872996,56.0616322 C72.0061967,56.4266847 71.1172681,55.7226549 70.2806294,54.9403996 C69.940745,54.6014223 69.7054403,54.1320691 69.4439908,53.7148662 C69.3655559,53.5844903 69.1825412,53.4541145 69.3655559,53.2976634 C69.4962807,53.1933627 69.7054403,53.2194379 69.8100202,53.3498137 C70.3852093,54.0016932 71.169558,54.1059939 71.9539067,54.262445 C72.5813857,54.3928209 72.7905454,54.9925499 73.1565748,55.435828 C73.2088647,55.6444294 73.2611546,55.8530308 73.2872996,56.0616322 L73.2872996,56.0616322 Z" id="Shape" fill="#7FC145"></path>
                    <path d="M36.3444738,25.9708771 C37.7563015,26.2055537 37.7563015,26.2055537 37.4948519,27.6136133 C37.4164171,28.0047409 37.468707,28.448019 37.3902721,28.8391466 C37.2856923,29.4128005 36.9980977,29.8560786 36.3444738,29.9603793 C36.3444738,28.6305452 36.3444738,27.3007111 36.3444738,25.9708771 L36.3444738,25.9708771 Z" id="Shape" fill="#85C345"></path>
                    <path d="M23.1412699,34.9928886 C22.9844002,34.8364375 22.8013855,34.7060616 22.6445157,34.5496106 C21.860167,33.5587538 21.3111229,32.3853708 23.1412699,31.6552658 C23.2981397,32.8025737 23.2719947,33.8977311 23.1412699,34.9928886 L23.1412699,34.9928886 Z" id="Shape" fill="#3F6CAF"></path>
                    <path d="M53.077247,45.1361327 C52.3713331,45.0057569 51.9530138,44.4842533 51.6915642,43.9105994 C51.4824045,43.4673214 51.822289,43.1544192 52.3190432,43.0761937 C52.6066377,43.0240433 52.8419424,43.1804944 53.1033919,43.2587199 C53.1556819,43.8845242 53.1556819,44.5103285 53.077247,45.1361327 L53.077247,45.1361327 Z" id="Shape" fill="#4066AF"></path>
                    <path d="M40.7629717,40.7815781 C39.978623,40.9380291 39.7171734,40.4947511 39.6648835,39.8428717 C39.5864486,39.008466 40.1616377,38.9302404 40.7629717,38.8780901 C40.7629717,39.5038943 40.7629717,40.1296986 40.7629717,40.7815781 L40.7629717,40.7815781 Z" id="Shape" fill="#7FC145"></path>
                    <path d="M62.9600411,52.8543854 C63.2737806,53.2976634 63.6136651,53.7148662 63.9012596,54.1581443 C64.0058395,54.3406705 64.1888542,54.6274975 63.9535496,54.8100237 C63.665955,55.0447003 63.4567954,54.8100237 63.2737806,54.6014223 C63.1692008,54.4710464 63.038476,54.3667457 62.9338962,54.262445 C62.8554613,53.7930918 62.7508815,53.3237386 62.9600411,52.8543854 L62.9600411,52.8543854 Z" id="Shape" fill="#81C249"></path>
                    <path d="M25.5159199,71.7067389 C25.7377617,71.9005106 25.9596035,72.0942824 26.0705244,72.2880541 C25.6268408,72.2880541 25.4049991,72.0942824 25.5159199,71.7067389 L25.5159199,71.7067389 Z" id="Shape" fill="#537BB7"></path>
                    <path d="M66.6464802,51.8896038 C66.5680454,52.4893329 66.3850307,53.1412123 66.149726,53.7930918 C65.9405664,54.3406705 65.6529718,54.2102946 65.3653773,53.9495428 C65.0254928,53.6366407 64.8686231,53.2194379 65.0254928,52.7500847 C65.2607975,52.1242804 65.4176672,51.3681002 66.149726,51.1334236 C66.6726252,50.9508974 66.6203353,51.4463258 66.6464802,51.8896038 L66.6464802,51.8896038 Z" id="Shape" fill="#7FC145"></path>
                    <path d="M52.4759129,58.6169997 C52.3974781,59.5035557 52.1098835,60.3379614 51.5608394,61.0419912 C51.4562596,61.1984423 51.3516797,61.4331189 51.1163751,61.3548933 C50.8287806,61.2766678 50.9333604,60.9898408 50.9333604,60.7812394 C50.9072155,59.9468337 51.0379402,59.1385032 51.2993898,58.3562479 C51.4039697,58.0433458 51.4039697,57.4696918 51.9530138,57.5739925 C52.449768,57.7043684 52.5020579,58.1737216 52.4759129,58.6169997 L52.4759129,58.6169997 Z" id="Shape" fill="#7FC145"></path>
                </g>
            </g>
        </g>
    </g>
</svg>