<?xml version="1.0" encoding="UTF-8"?>
<svg width="216px" height="69px" viewBox="0 0 216 69" version="1.1" xmlns="http://www.w3.org/2000/svg" xmlns:xlink="http://www.w3.org/1999/xlink">
    <title>bli</title>
    <g id="Page-1" stroke="none" stroke-width="1" fill="none" fill-rule="evenodd">
        <g id="Color-Palette" transform="translate(-1263, -844)">
            <g id="SPONSERS" transform="translate(1245, 580)">
                <g id="bli" transform="translate(18, 264)">
                    <g id="Layer_2" transform="translate(20.4722, 12.0773)" fill="#A1988A" fill-rule="nonzero">
                        <polygon id="Rectangle-path" points="0 38.4639918 1.88564506 38.4639918 1.88564506 41.8792652 0 41.8792652"></polygon>
                        <polygon id="Rectangle-path" transform="translate(1.8708, 18.1859) rotate(-72.0253) translate(-1.8708, -18.1859)" points="0.400014761 17.4727482 3.34321608 17.4695191 3.34164287 18.8990959 0.398441557 18.902325"></polygon>
                        <polygon id="Rectangle-path" transform="translate(7.3708, 1.7551) rotate(-53.6916) translate(-7.3708, -1.7551)" points="5.68131663 1.09948671 9.0625655 1.09345056 9.06021125 2.41075036 5.67896238 2.41678651"></polygon>
                    </g>
                    <g id="Group" fill-rule="nonzero">
                        <path d="M18.7097038,0 C19.0627171,0.999724024 19.6363636,1.84393542 20.3644535,2.62149855 C21.7103166,4.04332827 21.79857,5.35407755 20.6733401,6.97585208 C19.3716037,8.8197875 18.0698672,10.6415068 16.7460674,12.4854423 C16.6798774,12.5965227 16.6136874,12.5743066 16.5695608,12.4632262 C16.2827375,11.4635021 15.7532176,10.6415068 15.047191,9.88615979 C13.7233912,8.46433007 13.6572012,7.10914861 14.7603677,5.50959018 C15.8635342,3.91003174 16.988764,2.33268939 18.1139939,0.733130951 C18.2684372,0.510970057 18.5331971,0.333241341 18.4670072,0 C18.5552605,0 18.6214505,0 18.7097038,0 Z" id="Shape" fill="#005581"></path>
                        <path d="M181.073749,24.0155927 C182.176915,23.9267283 183.081512,24.3710501 184.030235,24.3044018 C183.941982,25.1263971 184.162615,25.1263971 184.162615,25.5707189 C184.184678,29.080861 184.228805,32.6354354 184.184678,36.1233614 C184.140552,39.6335035 186.015935,40.8331723 189.016547,41.0775493 C190.340347,41.1886298 191.42145,40.9442528 193.782227,39.5890713 C193.782227,34.6570995 193.87048,29.8362081 193.87048,24.8820201 C194.444127,24.4599144 194.907457,24.4154823 195.39285,24.4154823 C195.878243,24.3932662 196.143003,24.0155927 196.738713,24.2155375 C196.738713,30.5471229 196.937283,37.012005 196.937283,43.4102387 C196.275383,43.7434801 195.59142,43.8101283 194.775077,43.721264 C194.59857,42.988133 194.422063,42.2550021 194.245557,41.499655 C193.760163,41.3885746 193.495403,41.7662481 193.164454,41.9439768 C191.002247,43.1214296 188.751788,43.9212088 186.236568,43.7656962 C183.235955,43.5879674 181.184065,41.8995446 181.073749,38.8559404 C180.919305,34.1461294 181.073749,28.8809162 181.073749,24.0155927 Z" id="Shape" fill="#A1998B"></path>
                        <path d="M115.898672,41.3441424 C119.958325,41.1886298 123.819408,41.0331172 127.74668,40.8998206 C127.87906,41.8328964 127.81287,42.6548917 127.459857,43.5657513 C122.539734,43.5213192 117.575485,43.5657513 112.522983,43.8767766 C112.522983,34.3682903 112.522983,25.0153167 112.522983,15.5734787 C113.626149,15.3291017 114.685189,15.39575 115.898672,15.4179661 C115.898672,24.0378087 115.898672,32.6132193 115.898672,41.3441424 Z" id="Shape" fill="#A2998B"></path>
                        <path d="M8.29581205,50.1639299 C7.08232891,49.2530702 5.78059244,48.5865876 4.25822268,48.3199945 C3.26537283,48.1422658 2.31664964,47.7423762 1.52236977,47.0758935 C0.573646578,46.2761143 0,45.2763902 0,44.0322892 C0.0220633299,40.3666345 0.0882533197,36.7009797 0.13237998,33.0575411 C0.13237998,32.8575962 0.154443309,32.6576514 0.353013279,32.4577066 C1.85331971,33.5018628 3.55219612,34.035049 5.33932584,34.4349386 C7.5897855,34.9459087 8.8473953,36.6121154 8.82533197,38.9448047 C8.82533197,42.6771078 8.73707865,46.4316269 8.69295199,50.1639299 C8.56057201,50.2972264 8.42819203,50.2750103 8.29581205,50.1639299 Z" id="Shape" fill="#005581"></path>
                        <path d="M10.1932584,48.1644819 C10.2153218,45.3430385 10.2153218,42.5438112 10.2373851,39.7223679 C10.2815117,36.3233062 12.0907048,34.7237478 14.7824311,34.4571547 C15.5325843,34.3682903 16.2606742,34.0572651 16.988764,33.8351042 C17.7168539,33.5907272 18.3346272,33.1464054 19.0406537,32.8353802 C19.3495403,33.1464054 19.195097,33.4796468 19.2171604,33.790672 C19.3054137,37.0786532 18.9744637,40.3888506 19.0185904,43.6768318 C19.0627171,46.5649234 17.385904,47.8978888 15.2898876,48.3644267 C13.6792646,48.7198841 12.0686415,49.4974472 10.5903984,50.1417138 C10.4580184,50.2083621 10.2815117,50.1194977 10.2594484,49.9639851 C10.1711951,49.3863668 10.1711951,48.7198841 10.1932584,48.1644819 Z" id="Shape" fill="#A1988A"></path>
                        <path d="M90.614096,43.5435353 C89.5329928,43.8545605 88.4960163,43.7434801 87.3928498,43.8323444 C87.3928498,33.5685111 87.3928498,23.4379743 87.3928498,13.2407893 C88.4960163,12.907548 89.6212462,12.9741962 90.9009193,12.9519801 C90.481716,23.1935974 90.680286,33.3685663 90.614096,43.5435353 Z" id="Shape" fill="#015581"></path>
                        <path d="M10.2153218,28.9031323 C9.35485189,27.8145439 8.31787538,26.9703326 7.10439224,26.2594177 C5.22900919,25.1708293 4.67742594,23.5490548 5.33932584,21.4829585 C6.19979571,18.7948116 7.06026558,16.1066648 7.9648621,13.2185732 C9.09009193,14.6181868 10.4800817,15.4179661 11.8259448,16.2843935 C13.237998,17.2174693 13.6130746,18.7948116 13.0614913,20.616531 C12.2010215,23.3713261 11.3184883,26.1039051 10.4580184,28.8364841 C10.3697651,28.9919967 10.3035751,28.9919967 10.2153218,28.9031323 Z" id="Shape" fill="#005581"></path>
                        <path d="M11.4729316,29.1252932 C12.3554648,26.3927142 13.1938713,23.6379191 14.0984678,20.9053401 C14.7824311,18.8170277 16.3048008,17.9728163 18.5111338,18.2838416 C19.459857,18.4171381 20.4527068,18.4615703 21.40143,18.1949772 C21.66619,18.128329 21.9309499,18.0172485 22.2177732,18.1727611 C22.4384065,18.4615703 22.2398366,18.7059473 22.1515832,18.9725404 C21.40143,21.3274458 20.5850868,23.6601352 19.9011236,26.0372568 C19.1730337,28.5921071 17.2093973,29.3918863 14.9589377,28.9697806 C13.7895812,28.7476197 12.7305414,29.1475093 11.6273749,29.325238 C11.5611849,29.2808059 11.4949949,29.2141576 11.4729316,29.1252932 Z" id="Shape" fill="#A1988B"></path>
                        <path d="M64.0719101,24.2821857 C64.0719101,30.7692838 64.0719101,37.1008693 64.0719101,43.4991031 C63.0569969,43.8989927 62.0200204,43.6990479 60.9168539,43.8323444 C60.9168539,37.3674624 60.9168539,30.9914447 60.9168539,24.5265627 C61.9097038,24.3932662 62.924617,24.2821857 64.0719101,24.2821857 Z" id="Shape" fill="#025681"></path>
                        <path d="M17.4962206,12.9964123 C18.7538304,11.1969091 20.0114402,9.41962191 21.2690501,7.62011867 C22.0633299,6.5093142 22.4384065,6.2871533 23.9166496,5.90947978 C24.7329928,5.99834414 25.4610827,6.35380157 26.211236,6.64261074 C26.9393258,6.9314199 27.6674157,7.08693252 28.6161389,7.10914861 C27.0717058,9.28632538 25.681716,11.3968539 24.0931563,13.3740858 C23.2106231,14.4848903 21.8426966,14.418242 20.6292135,13.8628398 C19.6143003,13.3963019 18.5773238,13.1519249 17.4741573,13.1297088 C17.4962206,13.1074928 17.4962206,13.0408445 17.4962206,12.9964123 Z" id="Shape" fill="#A1988B"></path>
                        <path d="M63.8292135,19.5057265 C62.858427,19.616807 62.0200204,19.8611839 61.0492339,19.8167518 C60.7403473,18.3060577 60.8286006,16.7953636 60.7624106,15.1958052 C61.8876404,14.8403477 63.0569969,14.8625638 64.3146067,14.5737547 C64.1381001,16.2843935 63.9836568,17.8395198 63.8292135,19.5057265 Z" id="Shape" fill="#025681"></path>
                        <path d="M54.8715015,29.7917759 C54.5846782,29.8362081 51.9150153,29.1697254 51.628192,28.9919967 C51.7385087,28.6587553 51.9812053,28.6143232 52.2680286,28.6587553 C52.3562819,28.814268 54.8053115,29.6584794 54.8715015,29.7917759 Z" id="Shape" fill="#005581"></path>
                        <path d="M11.5040506,29.1252932 C11.6013596,29.2236471 11.6662323,29.3220011 11.7635413,29.420355 C11.6337959,29.420355 11.5364869,29.4531396 11.4067416,29.4531396 L11.4391779,29.4859243 C11.4716143,29.3547857 11.5040506,29.2236471 11.5040506,29.1252932 Z" id="Shape" fill="#A1988A"></path>
                        <path d="M205.652298,40.2111218 C203.269459,38.5893473 202.960572,35.8789844 202.872319,33.035325 C207.373238,33.3907824 211.675587,33.1908376 216,33.2797019 C216,32.4577066 216,31.6357113 215.977937,30.813716 C215.580797,29.9250724 215.492543,28.9475645 215.095403,28.0589209 C213.639224,24.8598041 210.991624,23.4601904 208.035138,23.7934318 C204.593258,24.1933214 202.055975,26.081689 200.489479,29.2141576 C199.253933,31.6801435 199.033299,34.3238581 199.540756,37.0342211 C199.849642,38.5671312 200.489479,39.9667449 201.548519,41.1441976 C203.578345,43.4102387 206.115628,44.232234 209.072114,44.0545053 C211.741777,43.8989927 213.81573,42.6771078 215.53667,40.6776597 C215.293973,40.2111218 215.13953,39.744584 214.764454,39.3669104 C211.852094,41.6107355 208.763228,42.3438664 205.652298,40.2111218 Z M207.329111,26.1927694 C208.939734,25.6817994 210.285598,26.1483372 211.300511,27.4590865 C212.072727,28.4588105 212.558121,29.5918311 212.602247,30.8803643 C211.432891,31.0803091 204.284372,31.1469574 203.159142,30.9692286 C203.821042,28.6143232 205.034525,26.9036843 207.329111,26.1927694 Z" id="Shape" fill="#A1988B"></path>
                        <path d="M58.4898876,34.1683455 C57.9824311,31.2358217 56.040858,29.8362081 53.3270684,29.2363737 C53.0402451,29.1697254 52.7754852,29.1252932 52.4886619,29.080861 C52.4004086,28.9475645 51.959142,29.0142128 52.2239019,28.6809714 C52.5989785,28.5476749 52.9961185,28.4365945 53.3491318,28.2588657 C56.1291113,26.9036843 57.1881512,24.5709949 57.0557712,21.5718228 C56.9675179,19.0614047 55.5554648,17.150821 53.0181818,16.1733131 C51.892952,15.7289913 50.7015322,15.5068304 49.488049,15.39575 C47.1052094,15.1958052 44.7223698,15.4179661 42.3395301,15.4401821 C41.7438202,15.4401821 41.1481103,15.3291017 40.5303371,15.5512626 C40.5303371,24.9708845 40.5303371,34.3460742 40.5303371,43.7879122 C43.8177732,43.8101283 46.9948927,43.6990479 50.1720123,43.476887 C51.9812053,43.3435905 53.7462717,42.8326204 55.3127681,41.8106803 C57.8721144,40.1666897 59.0414709,37.3230302 58.4898876,34.1683455 Z M50.0616956,18.0838968 C53.3270684,19.1058369 54.6729316,23.615703 52.4886619,26.2594177 C51.826762,27.081413 50.9001021,27.4813026 49.9072523,27.7256796 C47.9215526,28.2366496 45.9137896,28.1255692 43.9060266,28.1255692 C43.8839632,24.6154271 43.8839632,21.1941493 43.8839632,17.5951428 C46.0682329,17.639575 48.0980592,17.4840624 50.0616956,18.0838968 Z M54.3861083,38.8559404 C53.9448417,39.6779357 53.2608784,40.2111218 52.4224719,40.5887954 C51.760572,40.8998206 51.0545455,41.0553332 50.3264556,41.1664137 C48.2745659,41.5218711 46.1785495,41.2774941 43.8839632,41.499655 C43.8839632,37.6784877 43.8839632,34.0794812 43.8839632,30.3471781 C46.3771195,30.3471781 48.9144025,30.1250172 51.3634321,30.9247965 C54.4743616,31.9467366 55.9526047,35.9456327 54.3861083,38.8559404 Z" id="Shape" fill="#005581"></path>
                        <path d="M177.300919,40.8109563 C177.234729,40.7665241 177.146476,40.7220919 177.080286,40.6998758 C175.05046,39.9667449 172.93238,39.6779357 170.8143,39.3891265 C169.75526,39.2336139 168.652094,39.25583 167.593054,38.767076 C167.747497,37.9006485 167.924004,37.1230854 168.453524,36.4788188 C169.313994,36.4788188 170.174464,36.5010349 171.01287,36.4788188 C172.777937,36.4566027 174.344433,35.8789844 175.756486,34.8570443 C178.889479,32.6132193 178.955669,28.1033531 175.866803,25.7928798 C175.668233,25.6373672 175.31522,25.592935 175.11665,25.081965 C176.374259,23.8156479 177.653933,22.5493308 178.977732,21.2163654 C177.874566,21.0830689 176.815526,20.9275562 175.690296,20.7720436 C175.028396,21.9717124 174.38856,23.1491652 173.748723,24.2821857 C173.26333,24.2155375 172.844127,24.1488892 172.40286,24.0822409 C169.909704,23.6601352 167.593054,24.0822409 165.474974,25.5040706 C161.856588,27.9478405 161.922778,32.7687319 165.541164,35.1902856 C165.938304,35.4568787 166.445761,35.5457431 166.688458,36.0122809 C164.901328,38.011729 163.864351,39.4335587 165.585291,41.4107907 C163.687845,42.6548917 162.981818,43.2991583 162.231665,44.4988271 C160.929928,46.6093556 161.216752,48.8753967 162.937692,50.4749552 C163.864351,51.3191666 164.945455,51.8523527 166.136874,52.0967297 C169.225741,52.7187802 172.248417,52.3411067 175.18284,51.2747344 C176.881716,50.6526839 178.404086,49.7640403 179.441062,48.208914 C181.272319,45.476335 181.272319,42.1661377 177.300919,40.8109563 Z M166.181001,29.9028564 C166.092748,27.570167 167.769561,25.9261763 170.328907,25.9928246 C172.93238,26.0594729 174.763636,27.5923831 174.807763,30.569339 C174.85189,32.9686767 173.39571,34.546019 170.703984,34.5682351 C167.747497,34.5904512 166.070684,32.2577618 166.181001,29.9028564 Z M177.499489,46.9870291 C177.256793,47.6090796 176.903779,48.1866979 176.352196,48.5199393 C173.307457,50.3638747 170.064147,50.7859804 166.732584,49.4085829 C164.835138,48.6310197 164.327681,47.1647578 164.967518,45.209742 C165.364658,43.8989927 166.092748,42.9214848 167.350358,41.9661929 C169.865577,42.1661377 172.33667,42.4993791 174.741573,43.2769422 C175.469663,43.5213192 176.175689,43.8101283 176.793463,44.2988823 C177.742186,45.0542293 177.940756,45.8540086 177.499489,46.9870291 Z" id="Shape" fill="#A1988A"></path>
                        <path d="M84.392237,28.4143784 C83.1787538,25.4596385 80.8179775,24.0155927 77.6187947,23.9933766 C75.566905,23.9711605 73.7135853,24.5487788 71.9485189,25.5485028 C71.6175689,25.7262315 71.3307457,26.1039051 70.8012257,26.0150407 C70.9997957,21.7051194 70.9336057,17.395198 71.0439224,12.9741962 C69.7863126,12.9741962 68.7272727,13.1074928 67.6682329,13.2852215 C67.6682329,23.1269491 67.6682329,32.9020284 67.6682329,42.6993239 C70.7570991,43.6768318 73.8459653,44.2100179 77.0230848,43.7879122 C79.781001,43.4102387 82.0755873,42.0772734 83.5758938,39.6335035 C85.8042901,36.0567131 85.9587334,32.2355457 84.392237,28.4143784 Z M81.5460674,37.3008141 C80.9282942,39.4335587 79.5603677,40.7887402 77.4202247,41.3663585 C75.2580184,41.9439768 73.0958121,41.7884642 70.8894791,41.3219263 C70.8894791,36.9675728 70.8894791,32.6576514 70.8894791,28.2366496 C72.8751788,26.9703326 74.9270684,26.1705533 77.3099081,27.0147647 C80.0016343,27.9700566 81.4136874,29.9472885 81.8108274,32.7020836 C82.0314607,34.2349938 81.987334,35.79012 81.5460674,37.3008141 Z" id="Shape" fill="#005581"></path>
                        <path d="M144.205924,33.2352698 C144.514811,32.2355457 144.227988,31.3691183 144.029418,30.4804747 C143.632278,28.4143784 142.882125,26.5037947 141.139122,25.1486132 C138.094382,22.7714917 133.990603,23.6379191 131.32094,25.8817442 C128.14382,28.5476749 127.173034,32.1244653 127.6143,36.0789292 C128.033504,39.8112322 130.019203,42.4993791 133.703779,43.6768318 C135.049642,44.0989375 136.417569,44.1433697 137.785495,43.987857 C140.212462,43.721264 142.176098,42.5660273 143.742594,40.6998758 C143.499898,40.1889058 143.411645,39.7001518 142.926251,39.3891265 C140.124208,41.5663033 137.101532,42.2772182 133.968539,40.255554 C131.85046,38.8781565 130.72523,35.3902304 131.409193,33.035325 C135.645352,33.3463502 139.903575,33.2130537 144.205924,33.2352698 Z M136.527886,25.9928246 C137.653115,25.9483924 138.668029,26.3038499 139.418182,27.2369256 C140.278652,28.3032979 140.697855,29.5473989 140.896425,30.9914447 C137.719305,30.9914447 134.630439,30.9914447 131.51951,30.9914447 C131.828396,28.3921623 134.078856,26.1039051 136.527886,25.9928246 Z" id="Shape" fill="#A1988B"></path>
                        <path d="M108.242697,39.3891265 C105.462717,41.5440872 102.528294,42.2550021 99.4173647,40.4110666 C97.299285,39.1447496 96.0858018,35.8789844 96.5932584,33.1241893 C100.873544,33.301918 105.197957,33.2130537 109.58856,33.2352698 C109.52237,30.9692286 109.169356,28.9031323 108.044127,27.081413 C106.720327,24.8820201 104.734627,23.7712157 102.197344,23.7934318 C99.9248212,23.8156479 97.9391216,24.6820753 96.2623085,26.2149855 C93.5485189,28.7031875 92.6439224,31.8800883 92.820429,35.4790948 C93.018999,39.4113426 95.291522,42.5215951 98.8216547,43.6768318 C102.572421,44.8987167 106.587947,43.7434801 108.99285,40.6998758 C108.79428,40.255554 108.6619,39.744584 108.242697,39.3891265 Z M101.248621,26.1039051 C102.837181,25.837312 104.094791,26.3704981 104.999387,27.7256796 C105.61716,28.6365393 105.88192,29.6806955 106.168744,30.9914447 C102.925434,30.9914447 99.8365679,30.9914447 96.7477017,30.9914447 C97.0786517,28.5254588 98.9540347,26.4815786 101.248621,26.1039051 Z" id="Shape" fill="#005581"></path>
                        <path d="M160.179775,42.743756 C160.157712,39.8112322 160.135649,36.8787084 160.113585,33.9461846 C160.113585,32.1688975 160.201839,30.3693942 159.915015,28.5921071 C159.473749,25.7484476 157.686619,23.9045122 154.796323,23.9265298 C153.693156,23.9265298 152.612053,24.0378087 151.553013,24.2821857 C150.229213,24.5709949 148.88335,24.8820201 147.691931,25.7484476 C147.736057,26.3704981 147.647804,26.9703326 147.824311,27.5479509 C148.15526,27.6812474 148.42002,27.570167 148.68478,27.5035187 C149.699694,27.2369256 150.714607,26.9703326 151.72952,26.7481717 C154.200613,26.2149855 155.877426,27.3035739 156.517263,29.7917759 C156.782022,30.8803643 156.759959,31.9689527 156.693769,33.1908376 C155.480286,33.2352698 154.399183,33.3241341 153.31808,33.4796468 C151.354443,33.790672 149.434934,34.1905616 147.780184,35.4124465 C146.015117,36.7009797 145.242901,38.7448599 145.838611,40.744308 C146.368131,42.477163 148.177324,43.6990479 150.251277,43.7879122 C152.45761,43.8767766 154.37712,43.1658617 156.164249,41.9439768 C156.517263,41.7218159 156.826149,41.3663585 157.289479,41.3663585 C157.708682,42.1661377 157.818999,43.0325652 158.348519,43.7656962 C158.944229,43.721264 159.562002,43.8767766 160.047395,43.4991031 C160.223902,43.23251 160.179775,42.988133 160.179775,42.743756 Z M156.406946,39.7890161 C154.950766,40.4777149 153.58284,41.5218711 151.773647,41.3663585 C150.030644,41.1886298 149.037794,40.4110666 148.530337,38.7226439 C148.706844,37.6784877 149.324617,37.0564371 150.14096,36.6121154 C152.06047,35.5457431 154.156486,35.0792052 156.406946,34.7459638 C156.406946,36.4343866 156.406946,38.0561612 156.406946,39.7890161 Z" id="Shape" fill="#A1988B"></path>
                    </g>
                    <polygon id="Rectangle-path" fill="#A1998B" fill-rule="nonzero" points="194.649967 23.8696012 197.653031 23.8696012 197.653031 26.8782945 194.649967 26.8782945"></polygon>
                    <polygon id="Shape" fill="#A1998B" fill-rule="nonzero" points="209.665289 23.8696012 206.662225 25.1004303 206.662225 27.5620884 209.450784 28.3826411"></polygon>
                    <g id="Group" transform="translate(53.5059, 51.0647)">
                        <polygon id="Rectangle-path" points="0 0.117567095 136.639428 0.117567095 136.639428 17.935283 0 17.935283"></polygon>
                        <polygon id="Shape" fill="#005581" fill-rule="nonzero" points="0.659032611 5.74421422 0.659032611 0.117567095 1.4718395 0.117567095 1.4718395 5.74421422"></polygon>
                        <polygon id="Shape" fill="#005581" fill-rule="nonzero" points="11.0497801 5.74421422 7.53493952 1.17256343 7.53493952 5.74421422 6.72213263 5.74421422 6.72213263 0.117567095 7.7326493 0.117567095 11.2035544 4.66577352 11.2035544 0.117567095 12.0163613 0.117567095 12.0163613 5.74421422"></polygon>
                        <polygon id="Shape" fill="#005581" fill-rule="nonzero" points="18.6945584 5.74421422 18.6945584 0.891231074 16.6735251 0.891231074 16.6735251 0.117567095 21.5283986 0.117567095 21.5283986 0.891231074 19.4853975 0.891231074 19.4853975 5.74421422"></polygon>
                        <polygon id="Shape" fill="#005581" fill-rule="nonzero" points="26.2075302 5.74421422 26.2075302 0.117567095 30.5351776 0.117567095 30.5351776 0.891231074 27.020337 0.891231074 27.020337 2.4620034 30.3155001 2.4620034 30.3155001 3.23566737 27.020337 3.23566737 27.020337 4.92366151 30.6010809 4.92366151 30.6010809 5.69732549 26.2075302 5.69732549"></polygon>
                        <path d="M36.4005679,5.74421422 L35.587761,5.74421422 L35.587761,0.117567095 L38.4875045,0.117567095 C39.6517954,0.117567095 40.2449248,0.656787444 40.2449248,1.68833942 C40.2449248,2.29789285 40.047215,2.6495583 39.4980211,3.00122374 C40.047215,3.2825561 40.135086,3.54044409 40.1790215,4.8064397 C40.222957,5.4394375 40.2668925,5.55665931 40.5085378,5.53321495 L40.5085378,5.72076985 L39.4980211,5.72076985 C39.4101501,5.39254877 39.4101501,5.32221568 39.3662146,4.59544043 C39.3003114,3.65766591 39.0586661,3.35288919 38.3337302,3.35288919 L36.3786001,3.35288919 L36.3786001,5.74421422 L36.4005679,5.74421422 Z M38.4216012,2.6495583 C38.7511175,2.6495583 38.9488273,2.60266957 39.1026016,2.50889212 C39.3222791,2.36822594 39.4321179,2.08689359 39.4321179,1.75867251 C39.4321179,1.40700706 39.3003114,1.1256747 39.1026016,1.00845289 C38.9488273,0.914675437 38.7511175,0.867786711 38.4216012,0.867786711 L36.4005679,0.867786711 L36.4005679,2.6495583 L38.4216012,2.6495583 L38.4216012,2.6495583 Z" id="Shape" fill="#005581" fill-rule="nonzero"></path>
                        <polygon id="Shape" fill="#005581" fill-rule="nonzero" points="49.8008976 5.74421422 46.286057 1.17256343 46.286057 5.74421422 45.4732502 5.74421422 45.4732502 0.117567095 46.4837668 0.117567095 49.9546719 4.66577352 49.9546719 0.117567095 50.7674788 0.117567095 50.7674788 5.74421422"></polygon>
                        <path d="M57.0502563,4.12655317 L56.369256,5.74421422 L55.4466103,5.74421422 L57.9069987,0.117567095 L58.8296444,0.117567095 L61.2900328,5.74421422 L60.3014839,5.74421422 L59.6204835,4.12655317 L57.0502563,4.12655317 Z M58.3243861,1.07878598 L57.3578049,3.37633355 L59.312935,3.37633355 L58.3243861,1.07878598 Z" id="Shape" fill="#005581" fill-rule="nonzero"></path>
                        <polygon id="Shape" fill="#005581" fill-rule="nonzero" points="67.3531328 5.74421422 67.3531328 0.891231074 65.3320995 0.891231074 65.3320995 0.117567095 70.1869731 0.117567095 70.1869731 0.891231074 68.143972 0.891231074 68.143972 5.74421422"></polygon>
                        <polygon id="Shape" fill="#005581" fill-rule="nonzero" points="74.8441368 5.74421422 74.8441368 0.117567095 75.6569437 0.117567095 75.6569437 5.74421422"></polygon>
                        <path d="M86.6408206,2.97777938 C86.6408206,3.77488772 86.3552398,4.5485517 85.8499814,5.06432769 C85.3227554,5.60354804 84.5758517,5.90832476 83.6751738,5.90832476 C81.8957858,5.90832476 80.7095271,4.73610661 80.7095271,2.95433502 C80.7095271,1.17256343 81.8957858,0.000345279856 83.6751738,0.000345279856 C85.4765296,-0.0230990831 86.6408206,1.14911907 86.6408206,2.97777938 Z M81.522334,2.93089066 C81.522334,4.26721935 82.3790764,5.15810514 83.6751738,5.15810514 C84.9712713,5.15810514 85.8280137,4.26721935 85.8280137,2.95433502 C85.8280137,1.5711176 84.9712713,0.70367617 83.6751738,0.70367617 C82.3790764,0.70367617 81.522334,1.59456196 81.522334,2.93089066 Z" id="Shape" fill="#005581" fill-rule="nonzero"></path>
                        <polygon id="Shape" fill="#005581" fill-rule="nonzero" points="95.9990837 5.74421422 92.4842431 1.17256343 92.4842431 5.74421422 91.6714362 5.74421422 91.6714362 0.117567095 92.6819528 0.117567095 96.1528579 4.66577352 96.1528579 0.117567095 96.9656648 0.117567095 96.9656648 5.74421422"></polygon>
                        <path d="M103.248442,4.12655317 L102.567442,5.74421422 L101.644796,5.74421422 L104.105185,0.117567095 L105.02783,0.117567095 L107.488219,5.74421422 L106.49967,5.74421422 L105.81867,4.12655317 L103.248442,4.12655317 Z M104.522572,1.07878598 L103.555991,3.37633355 L105.511121,3.37633355 L104.522572,1.07878598 Z" id="Shape" fill="#005581" fill-rule="nonzero"></path>
                        <polygon id="Shape" fill="#005581" fill-rule="nonzero" points="112.123415 5.74421422 112.123415 0.117567095 112.936222 0.117567095 112.936222 4.97055024 116.231385 4.97055024 116.231385 5.74421422"></polygon>
                    </g>
                </g>
            </g>
        </g>
    </g>
</svg>