<?xml version="1.0" encoding="UTF-8"?>
<svg width="135px" height="150px" viewBox="0 0 135 150" version="1.1" xmlns="http://www.w3.org/2000/svg" xmlns:xlink="http://www.w3.org/1999/xlink">
    <title>bwl_logo_black</title>
    <defs>
        <linearGradient x1="0%" y1="50%" x2="100%" y2="50%" id="linearGradient-1">
            <stop stop-color="#ECA203" offset="0%"></stop>
            <stop stop-color="#BF1D1B" offset="100%"></stop>
        </linearGradient>
        <linearGradient x1="0%" y1="50%" x2="100%" y2="50%" id="linearGradient-2">
            <stop stop-color="#ECA203" offset="0%"></stop>
            <stop stop-color="#BF1D1B" offset="100%"></stop>
        </linearGradient>
    </defs>
    <g id="Page-1" stroke="none" stroke-width="1" fill="none" fill-rule="evenodd">
        <g id="Color-Palette" transform="translate(-1321, -1537)">
            <g id="bwl_logo_black" transform="translate(1322, 1537.484)">
                <g id="Group" transform="translate(0.572, 0)" fill-rule="nonzero">
                    <ellipse id="Oval" fill="#D1D1D1" cx="66.360308" cy="67" rx="66.360308" ry="67"></ellipse>
                    <g transform="translate(1.4395, 5.1607)" fill="#A02D05" id="Path">
                        <path d="M76.3251914,122.294199 C75.833062,121.886486 75.3400752,121.479638 74.7922168,121.026046 C75.3692257,120.438282 75.328072,119.992481 74.8865273,119.473101 C74.2212095,118.690568 73.5224544,117.898514 73.0500444,116.998256 C72.6273618,116.192351 72.3289977,115.242752 72.2732687,114.338165 C72.2201119,113.465607 71.9517556,112.796473 71.4227593,112.168889 C71.1295394,111.82177 70.9014794,111.39761 70.5551026,111.121473 C69.6702985,110.415982 69.7131669,109.559871 70.1187021,108.676059 C70.5276668,107.784457 70.9254857,106.884199 71.782854,106.271331 C72.5759197,105.705207 72.5604871,105.36155 72.1360898,104.496783 C71.9894798,104.198139 72.0657856,103.786098 72.0520677,103.425129 C72.0486382,103.322984 72.1395193,103.183617 72.0983656,103.121292 C71.4424788,102.135336 71.3190178,100.835155 70.2918905,100.064742 C69.5048264,99.4743798 68.7434833,98.8485271 67.9872845,98.2183463 C67.7695129,98.0374289 67.6100424,97.7855297 67.6589124,97.5924935 C67.909264,96.9562532 68.1596155,96.3200129 68.4108244,95.6837726 C68.5848702,95.2431654 68.8798049,94.8094832 68.9003817,94.3619509 C68.9175291,93.9871318 68.7160476,93.4790052 68.4356881,93.2374935 C67.7377903,92.6358786 66.8864236,92.4679457 65.9673247,92.7146512 C65.55836,92.8245866 65.1279611,92.8522868 64.7069933,92.9128811 C63.979945,93.0167571 63.4217982,92.8254522 63.0548445,92.108708 C62.5352793,91.0959173 61.5775989,90.9020155 60.5521864,90.8448837 C58.4816419,90.7288889 56.4976916,91.2387468 54.5103119,91.6940698 C53.7841209,91.8602713 53.1196604,91.8568088 52.4106168,91.6118346 C50.7996218,91.0552326 49.1586188,90.9098062 47.4610295,91.2525969 C46.966328,91.3521447 46.2898644,91.2482687 45.8851866,90.9652067 C44.0529905,89.6840698 42.2816675,88.3120413 40.504343,86.9512662 C40.2359867,86.7461111 39.9444815,86.4630491 39.8484562,86.156615 C39.36833,84.6149225 38.1680143,83.6462791 37.1400297,82.5365375 C36.6016024,81.9556977 36.0477425,81.3869767 35.5418952,80.7784367 C35.3455578,80.5421189 35.2323852,80.2201034 35.1312157,79.9205943 C34.8885805,79.199522 34.673381,78.4689277 34.45218,77.7400646 C34.4153132,77.6180103 34.3681579,77.4812403 34.38702,77.3609173 C34.5224842,76.4710465 34.72911,75.5881008 34.8019863,74.6939018 C34.8577152,74.011783 34.77798,73.3123514 34.7068184,72.62677 C34.6339421,71.9169509 34.5190548,71.2097287 34.3818758,70.5094315 C34.32186,70.2029974 34.2258348,69.8576098 34.0303548,69.6342765 C33.4019038,68.9175323 33.5287943,68.1549096 33.7937212,67.3671835 C34.377589,65.6281266 34.9537405,63.8856072 35.5693309,62.156938 C35.7262293,61.7154651 36.0125904,61.3207364 36.2500814,60.9095607 C36.3289593,60.7719251 36.4952887,60.6645866 36.5252966,60.5226227 C36.7996545,59.2336951 37.7641938,58.6043798 38.7175874,57.834832 C40.0250741,56.780491 40.9175945,55.4352972 40.953604,53.5196512 C40.986184,51.7676098 41.877847,50.1791731 43.3748121,49.1984109 C44.5948472,48.3994315 45.4444993,47.3857752 46.0429423,46.0942507 C46.1775492,45.8042636 46.2898644,45.4554134 46.5204965,45.2744961 C46.6902554,45.1420543 47.1472327,45.1221447 47.2835543,45.2545866 C47.7713969,45.7280879 48.2892473,45.7497287 48.9039804,45.6423902 C49.5230003,45.5341861 50.1591676,45.5324548 50.7867613,45.4701292 C51.1511428,45.4337726 51.5592501,45.4640698 51.8670453,45.3047933 C52.9679063,44.736938 54.0353298,44.1015633 55.1147565,43.491292 C55.2073523,43.439354 55.2879449,43.3571189 55.3856849,43.3242248 C57.6808599,42.5598708 59.9837512,41.8370672 62.4546867,42.1201292 C62.6638846,42.1443669 62.8928019,42.2300646 63.0797082,42.1737985 C64.4112012,41.7756072 65.7512679,41.7989793 67.1110541,41.9755685 C67.4934403,42.0249096 67.9289834,41.979031 68.2873634,41.8387985 C69.1207254,41.5124548 69.8537753,41.4302196 70.5645336,42.1400388 C70.7360073,42.3114341 71.1569752,42.2266021 71.4784883,42.2612274 C71.4879193,42.2837339 71.535932,42.3590439 71.5239288,42.3694315 C70.851752,43.0056718 70.8491799,43.5977649 71.5487925,44.2443928 C71.9817635,44.6443152 71.8780219,45.1134884 71.4673425,45.5090827 C71.275292,45.6943282 71.0746678,45.8709173 70.8800452,46.0535659 C70.5053752,46.4058786 70.4702231,46.7382817 70.9589231,47.0126873 C71.9791914,47.5866021 73.000317,48.1605168 74.0300164,48.7179845 C74.2126358,48.8166667 74.436409,48.8945736 74.6396053,48.8893798 C75.8047688,48.8590827 76.8336108,49.2823773 77.7870044,49.8839923 C78.1848233,50.1350258 78.6135074,50.4942636 78.7926974,50.9080362 C79.1279284,51.6793152 79.6526378,52.123385 80.4242693,52.2930491 C81.4951224,52.5285013 82.3807838,53.0677907 83.2055722,53.7828036 C83.4773579,54.0182558 84.1040942,54.2415892 84.2747104,54.1030879 C84.6116562,53.8295478 84.7565514,53.3049742 84.9486019,52.8695607 C84.9923277,52.7700129 84.9151646,52.6090052 84.8791551,52.4800258 C84.6725293,51.7355814 84.5867925,51.0474031 85.4621656,50.637093 C86.3718334,50.2103359 87.3055075,50.4172222 87.9322437,51.0958786 C88.3069137,51.5018605 88.8230494,51.7754005 89.2800267,52.1008786 C89.5981103,52.3276744 89.9264824,52.5406202 90.2471382,52.7648191 C90.374886,52.8539793 90.479485,52.9898837 90.6175213,53.0496124 C91.5331906,53.4452067 92.4668647,53.8027132 93.3713883,54.2216796 C93.8969551,54.4649225 94.3410719,54.546292 94.8443471,54.1515633 C95.4342165,53.6884496 96.0146549,53.6927778 96.6362469,54.2312016 C97.5287673,55.0033463 98.5764714,54.657093 98.7530893,53.5006072 C99.0265898,51.7148062 99.5993118,49.9359302 99.0668861,48.0929974 C98.9897229,47.8263824 99.0565976,47.5164858 99.0565976,47.2368863 C98.3878504,47.1113695 97.7885499,46.8715892 97.1969658,47.4706072 C97.0572147,47.6125711 96.3858953,47.3312403 96.033517,47.1200258 C95.5542481,46.8326357 95.1461407,46.4240569 94.6805897,46.0449096 C94.1627393,47.0698191 93.9089583,47.0957881 93.2282078,46.4067442 C92.9924315,46.1686951 92.6486268,46.0397158 92.4094211,45.8042636 C91.9721632,45.3740439 91.5589117,44.916124 91.1688091,44.4408915 C90.873017,44.0807881 90.6303818,43.6774031 90.3294455,43.2437209 C90.5832265,42.700969 90.3971776,42.0604005 89.8587503,41.5730491 C89.6838472,41.4146382 89.590394,41.0856977 89.5843925,40.8312016 C89.5595288,39.8859302 87.9811137,38.912093 87.1648991,39.3968475 C86.999427,39.4946641 86.9625601,39.8123514 86.8433859,40.079832 C86.5407349,39.9395995 86.1703518,39.7673385 85.6482145,39.5249612 C85.7270924,39.848708 85.7176613,40.079832 85.8265471,40.2105426 C86.3838365,40.8805426 86.6367602,41.7704134 87.4564043,42.2664212 C88.0042626,42.5979587 87.95625,42.7373256 87.6776053,43.3172997 C87.4461159,43.234199 87.2094822,43.1493669 86.9642749,43.0610724 C86.9239786,43.6202713 86.8862544,44.1396512 86.836527,44.8356202 C86.4404228,44.6209432 85.9165708,44.4980233 85.6730782,44.1664858 C85.3086966,43.6696124 85.1406525,43.0255814 84.8911583,42.4430103 C84.8319999,42.3053747 84.8088509,42.1374419 84.7162551,42.0301034 C83.8657458,41.0415504 82.9697959,40.089354 82.1672991,39.0635788 C81.9323802,38.7632041 81.9915386,38.2438243 81.8449286,37.8525581 C81.6854581,37.4266667 81.5474218,36.8813178 81.2190498,36.6510594 C79.9630052,35.769845 78.6177943,35.0193411 77.3411728,34.1658269 C76.7770245,33.7892765 76.275464,33.3062532 75.7884788,32.8266925 C75.4532478,32.4968863 75.1917505,32.09177 74.8702374,31.6857881 C74.2846548,32.221615 73.9957217,32.1350517 73.6321975,31.4702455 C73.4838728,31.200168 72.7036676,31.2824031 72.1875319,31.2010336 C72.0717872,32.3964729 72.5073303,32.9972222 73.342407,33.4482171 C73.7908106,33.6897287 74.1226122,34.1528424 74.5049984,34.5172739 C74.9071042,34.8998837 75.246622,35.486783 75.7198894,35.6313437 C77.2562934,36.1031137 78.2782764,37.3885788 79.7006505,38.0230879 C80.1473394,38.2221835 80.5005751,38.6350904 80.8966793,38.9493152 C80.8435224,39.0246253 80.7903656,39.0990698 80.7372088,39.1743798 C80.1824915,38.8523643 79.6277742,38.5303488 79.0644832,38.2031395 C78.5895011,38.7060724 78.3734443,39.1233075 79.0807732,39.5128424 C79.469161,39.7266538 79.5428947,40.0105814 79.2273832,40.3525065 C78.8064153,40.8086951 78.6469448,41.6215246 77.727846,41.4241602 C77.6429665,41.4059819 77.3917576,41.8838114 77.3257402,42.1573514 C77.2700113,42.3893411 77.3720381,42.6602842 77.4037607,42.9130491 C77.3394581,42.9857623 77.2760129,43.0576098 77.2117102,43.130323 C76.0199683,42.5131266 74.8273689,41.8950646 73.635627,41.2778682 C73.6467728,41.1696641 73.6587759,41.0623256 73.6699217,40.9541215 C74.0188706,40.9246899 74.3686769,40.8597674 74.7159111,40.8736176 C75.6873094,40.9108398 76.6612798,41.0441473 77.6258191,40.9939406 C77.8641675,40.9818217 78.3297185,40.2832558 78.2499833,40.1231137 C77.9541912,39.5258269 77.525507,38.9700904 77.0496676,38.4974548 C76.6046935,38.0551163 76.0611219,37.6993411 75.5209799,37.3729974 C74.2546469,36.6086434 72.9162949,35.9550904 71.7005467,35.1180233 C70.9366315,34.592584 70.2927479,33.8585271 69.683159,33.1409173 C69.1533054,32.5167959 67.7686556,32.1800646 67.0261746,32.5254522 C65.4177516,33.2742248 63.8161876,34.0723385 61.938551,33.3677132 C61.5484484,33.2214212 61.0100211,33.3789664 60.567619,33.4992894 C60.0454817,33.6412532 59.7676944,34.0281912 59.9280223,34.6081654 C60.076347,35.1457235 59.8139923,35.4054134 59.3578723,35.5768088 C58.9840598,35.7161757 58.6333961,35.9447028 58.2501525,36.0260724 C56.8474979,36.326447 56.0072769,37.399832 55.0787471,38.3407752 C54.8935555,38.5286176 54.7520897,38.9891344 54.8532592,39.1899612 C55.0941797,39.6677907 54.9338518,39.936137 54.6046224,40.2269897 C53.6786646,41.0450129 52.7775705,41.8924677 51.8233195,42.675 C51.5806843,42.87323 51.1802933,42.899199 50.8450623,42.9528682 C49.4998514,43.1675452 48.1597847,43.3588501 47.1137954,44.3984755 C47.0143406,44.4971576 46.386747,44.3197028 46.3344476,44.1604264 C46.0086476,43.1675452 45.3956293,43.1493669 44.5785572,43.4635917 C44.2407541,43.5934367 43.8575105,43.602093 43.3670958,43.6877907 C43.4236821,43.2419897 43.4776963,42.8844832 43.5102763,42.5252455 C43.5291384,42.3192248 43.5985853,42.0058656 43.4957011,41.9184367 C42.8792532,41.3912662 43.2059106,40.9168992 43.5231368,40.4382041 C44.4293752,39.0722351 44.7843256,37.5859432 44.5768425,35.9472997 C44.5536936,35.7646512 44.7817535,35.4227261 44.9618009,35.3621318 C45.9289124,35.0357881 46.901168,34.6618346 47.9017169,34.5190052 C49.4509814,34.2982687 51.0233949,34.2376744 52.5880921,34.1355297 C53.5903557,34.0697416 53.9504503,33.8221705 54.2719635,32.8526615 C54.4065703,32.4466796 54.5394624,32.0381008 54.6492055,31.6243282 C54.8112481,31.0131912 54.685215,30.6807881 54.1536466,30.1276486 C53.321142,29.2611499 52.4800637,29.0386822 51.4255006,28.9910724 C51.2660301,28.9841473 51.1202775,28.6742507 50.9685233,28.5045866 C50.9942444,28.4076357 51.0191081,28.3115504 51.0448291,28.2145995 C52.2237106,28.0847545 53.402592,27.9557752 54.6260566,27.8216021 L54.6260566,26.79323 C54.8566887,26.8313178 55.0504539,26.8486305 55.2365028,26.8962403 C55.8478064,27.0529199 56.4222432,27.1334238 56.9340921,26.5967313 C57.1004216,26.4218734 57.4159331,26.3993669 57.6534241,26.285969 C57.937213,26.1500646 58.3993346,26.0409948 58.4533488,25.8323773 C58.6754072,24.9762662 59.4144587,25.05677 59.9846086,24.7780362 C60.9131385,24.3235788 61.7799378,23.742739 62.6724583,23.2147028 C62.6373062,23.1584367 62.6021541,23.1013049 62.567002,23.0450388 C62.7899177,23.1307364 63.0119761,23.2164341 63.2348919,23.3012662 C63.2769029,23.0874548 63.318914,22.8736434 63.3900755,22.5109432 C64.3520428,22.4174548 65.3594506,22.2893411 66.3702878,22.2322093 C67.0356056,22.1941215 67.2911014,21.9153876 67.0793314,21.2557752 C66.9747325,20.9311628 66.847842,20.5875065 66.6386441,20.3278165 C66.0093358,19.5461499 66.2322515,18.8250775 67.1839304,18.6086693 C67.641765,18.5039277 68.0833097,18.3221447 68.5017055,18.1853747 C68.628596,18.6311757 68.7477702,19.0475452 68.8849491,19.5305685 C68.8455102,19.5582687 68.6440286,19.6534884 68.5042776,19.8049742 C68.2796471,20.0482171 67.8741119,20.4386176 67.9392719,20.574522 C68.1047439,20.9225065 68.465696,21.1969121 68.7897812,21.4444832 C69.8975011,22.2902067 71.0506615,21.6089535 72.1746714,21.4972868 C72.6522255,22.3611886 73.4444338,22.275491 74.198918,22.1889277 C75.01599,22.0945736 75.8210588,21.8712403 76.6389882,21.8063178 C77.017945,21.7760207 77.4594897,21.9110594 77.7955781,22.1075581 C78.2576996,22.3776357 78.6160795,22.4616021 79.1090663,22.1499742 C79.4280073,21.9482817 79.8772683,21.9578036 80.3831156,21.8478682 C80.3145262,21.6141473 80.1816341,21.3319509 80.1593425,21.0419638 C80.1250478,20.5849096 80.0401683,20.0681266 80.2064978,19.6759948 C80.4114088,19.1947028 80.898394,19.0259044 81.3990971,19.4059173 C81.6117244,19.5669251 81.7883423,19.8188243 82.0232612,19.8941344 C82.3362007,19.9945478 82.6911512,19.963385 83.0272395,19.989354 C82.9157817,19.5894315 82.8772001,19.1436305 82.6714317,18.8017054 C82.4708075,18.4693023 82.0987097,18.2425065 81.8020602,17.969832 C81.8552171,17.8798062 81.9083739,17.7889147 81.9623881,17.6988889 C82.770029,17.6988889 83.6402579,17.5049871 84.3715931,17.7447674 C85.456164,18.099677 86.4387081,17.7897804 87.5061316,17.6824419 C86.4001265,16.7709302 85.1552277,16.6116538 83.82202,16.776124 C82.4330833,16.948385 80.972985,17.0600517 79.9244236,15.9780103 C79.4125747,15.4491085 79.2582484,14.5220155 79.0799158,13.7429457 C79.0396195,13.5672222 79.5480389,13.2192377 79.8472604,13.0166796 C80.5931709,12.5111499 81.3819497,12.069677 82.1081407,11.5390439 C82.2427475,11.4412274 82.2804717,10.9408915 82.1621549,10.8049871 C81.6365881,10.2033721 79.5626142,10.1349871 79.00361,10.6716796 C78.8432821,10.8257623 78.6323695,11.1451809 78.6906706,11.2776227 C79.0344753,12.0566925 78.3828754,12.1397933 77.9833417,12.3440827 C77.3017339,12.6912016 76.5935477,12.9863824 75.8862188,13.2789664 C75.2106126,13.5585659 75.2431926,14.2147158 75.2886331,14.7107235 C75.3203557,15.0509173 75.7653299,15.386783 76.0816988,15.6559948 C76.3980677,15.9252067 76.7855982,16.1095866 77.3891855,16.4844057 C76.7675934,16.8531654 76.3509124,17.2020155 75.8733583,17.3569638 C75.3820862,17.5162403 75.1565984,17.731783 75.1814621,18.2537597 C75.1968947,18.571447 75.1668868,18.9003876 75.0957252,19.2102842 C74.9774084,19.7305297 74.7116242,20.067261 74.0883174,19.9815633 C73.6150501,19.9166408 73.1837939,19.9400129 72.8639955,20.480168 C72.6376502,20.8619121 71.7356988,20.5762532 71.2761494,20.0032041 C71.0266552,20.3459948 70.786592,20.6749354 70.4985163,21.0705297 C70.1589984,20.8021835 69.8580622,20.565 69.4671022,20.255969 C70.1641426,20.0083979 70.7488678,19.800646 71.3515978,19.585969 C70.4445021,18.4069767 69.6265727,17.3431137 68.807786,16.278385 C67.052753,16.9345349 65.44433,18.4744961 63.449234,16.8929845 C63.5435445,16.7579457 63.6524303,16.6021318 63.8196171,16.3640827 C63.5272545,16.3493669 63.3360613,16.3389793 63.1380093,16.3285917 C63.0539872,15.5486563 62.9382424,14.7912274 62.9099493,14.0312016 C62.9013756,13.7974806 63.0694198,13.4365116 63.2597556,13.3378295 C63.9319323,12.9881137 64.6452628,12.7163049 65.3500195,12.4349742 C66.619782,11.9268475 67.8938313,11.5208656 69.0255575,10.6171447 C69.5502669,10.1981783 70.0321079,9.69351421 70.5602468,9.269354 C71.2692904,8.7014987 71.8334388,7.95186046 72.4901829,7.31215762 C72.6419371,7.16413436 72.9205818,7.15374676 73.1357812,7.06718346 C73.309827,6.99620154 73.4752991,6.90531007 73.6227664,6.72612403 C73.0671918,6.65687338 72.4121624,7.04381136 72.1626682,6.19808785 C72.6119292,5.98947028 73.023466,5.87347545 73.4744417,6.27080103 C73.8636869,6.61359173 74.2949432,6.54087855 74.7167684,6.09074935 C74.5444374,5.97302325 74.4003995,5.87434108 74.2563616,5.77565891 L74.273509,5.61291989 L75.4781115,5.61291989 C75.4275268,5.5687726 75.3777994,5.52549095 75.3272147,5.48134366 C75.5321257,5.25108527 75.7378941,5.0216925 75.9385183,4.7966279 C76.8156061,5.45450904 77.5546576,5.41468992 78.3931638,4.87280361 C78.8552853,4.5741602 79.4905952,4.54386304 80.0504567,4.40449612 C80.6454704,4.25647286 81.2439134,4.12229974 81.952957,3.95609819 C81.7257544,4.37160206 81.5679987,4.66072351 81.4102429,4.94984496 C81.4471097,4.98620154 81.4831192,5.02255813 81.519986,5.05891472 C81.8440713,4.81999999 82.1681565,4.58108527 82.5153907,4.32485788 C82.6645727,4.49538759 82.7914633,4.64254521 82.9226406,4.79229974 C83.7457142,3.93532299 83.8914668,3.93532299 84.2301273,4.75421188 C85.0952119,4.27811369 85.6747929,4.97494831 86.3752628,5.17664082 C86.3726907,5.25281653 86.3701186,5.32985788 86.3675465,5.40603359 C85.996306,5.44412144 85.6259229,5.4822093 85.0171914,5.54453488 C85.8514108,6.05698966 86.5930344,6.19808785 87.3500906,6.1418217 C87.7736306,6.11065891 88.0719947,5.9219509 88.2417537,6.56338501 C88.3043416,6.7988372 88.9773757,6.88193798 89.3786241,7.01178294 C90.2282761,7.28618862 91.1165096,7.46797157 91.9258653,7.83067183 C92.9907168,8.30850129 94.0349914,8.86250645 95.0081044,9.50653746 C95.4436475,9.79479328 95.6862828,10.3808269 96.017227,10.8318217 C95.5602496,11.100168 95.1307081,11.4758527 94.6377213,11.604832 C94.2073224,11.7173643 93.6766114,11.640323 93.2393536,11.4957623 C91.6600812,10.9737855 90.1013855,10.3886176 88.470671,9.87270025 C89.0005246,10.2527132 89.5595288,10.5981008 90.0473713,11.0265892 C90.3080113,11.2551163 90.4992044,11.604832 90.6269523,11.9363695 C90.8721597,12.576938 90.9759012,13.2746382 91.7818275,13.5222093 C92.1239174,13.6269509 92.3965605,13.9506977 92.7369358,14.079677 C93.0730241,14.2077907 93.4536957,14.216447 93.8155051,14.2770413 C93.845513,14.1948062 93.8755209,14.1125711 93.9055288,14.0303359 C93.445122,13.6875452 92.9847152,13.3438889 92.3485479,12.869522 C93.6971883,12.5423127 94.4568166,14.0216796 95.6725649,13.5100904 C95.4830865,13.1776873 95.3219012,12.8928941 95.1632881,12.6132946 C96.6834021,11.4654651 97.1412368,11.4135271 98.4924493,12.2402067 C98.7899561,11.7649742 99.0137292,11.3330233 98.4735872,10.8456718 C98.3364083,10.7218863 98.3003988,10.4518088 98.2746777,10.24146 C98.2206635,9.80258397 98.2052309,9.35937984 98.1743656,8.93521963 C99.6010265,9.00100775 99.7081976,9.0468863 100.366657,9.99908268 C100.111161,10.0536176 99.8882449,10.0804522 99.6807618,10.1514341 C99.4921408,10.215491 99.3189524,10.3271576 99.0746024,10.4500775 C99.5444402,11.0456331 99.9456886,11.6169509 100.698458,11.5416408 C100.991678,11.5122093 101.268608,11.2170284 101.530105,11.0136047 C101.725585,10.8621189 101.853333,10.592907 102.065961,10.4959561 C104.620061,9.33600775 104.642352,9.31869508 106.751479,11.1581654 C119.341932,22.1387209 127.010235,35.9100775 129.624351,52.5077261 C130.945555,60.8983075 130.641189,69.2559948 128.825283,77.5522222 C128.736117,77.9582041 128.559499,78.357261 128.358018,78.7225581 C127.956769,79.4514212 127.51008,79.4514212 127.157702,78.6810078 C126.928785,78.1798062 126.888488,77.5946382 126.718729,77.0605426 C126.2266,75.5075969 125.599864,73.9875452 125.238912,72.4043023 C124.901966,70.9283979 124.824803,69.3893023 124.656759,67.8761757 C124.589884,67.2736951 124.587312,66.6642894 124.557304,66.0877778 C124.138908,66.5145349 123.660497,67.2754264 123.404143,67.2053101 C122.910299,67.0702713 122.541631,66.4660594 122.077795,66.014199 C122.445606,65.7449871 122.681382,65.5727261 122.997751,65.3416021 C121.494784,64.9079199 121.089249,63.6406331 120.453082,62.5334884 C119.590569,62.6226486 118.72034,62.8200129 117.862972,62.7732687 C116.89586,62.7204651 115.927034,62.4936693 114.988216,62.2357106 C114.776446,62.1777132 114.628121,61.6886305 114.549243,61.3735401 C114.338331,60.533876 114.14971,60.4118217 113.517829,60.946783 C112.903096,61.4678941 112.488987,61.1086563 112.077451,60.7217184 C111.196933,59.8933075 110.485318,58.9480362 110.225535,57.724031 C110.102931,57.1475194 109.729976,56.7155685 109.180403,56.9311111 C108.701991,57.1189535 108.38305,57.603708 108.693418,58.2563954 C109.104097,59.1202972 109.489056,60.0015116 109.810569,60.9026357 C110.02834,61.5146382 110.117507,62.173385 110.413299,62.8156848 L110.695373,61.9898708 C110.768249,61.994199 110.841125,61.9985271 110.914859,62.0028553 C110.914859,62.3759432 110.866846,62.7576873 110.928577,63.1212532 C110.98945,63.4813566 111.185787,64.1305814 111.276669,64.1227907 C111.832243,64.072584 112.524997,64.3997933 112.909955,63.6674677 C113.20489,63.1065375 113.54355,62.5689793 113.980808,61.8167442 C114.033108,62.4079716 114.06483,62.765478 114.09741,63.1221189 C114.152282,63.7306589 114.430927,64.1643411 114.995932,64.4396124 C115.917603,64.888876 116.285414,65.9025323 115.846442,66.8166408 C115.6321,67.2633075 115.312301,67.6571705 115.044802,68.0778682 C114.974498,68.1886693 114.869042,68.307261 114.863898,68.4267184 C114.811598,69.5771447 113.894214,70.1657752 113.345498,71.0045736 C112.918529,71.6581266 112.327802,71.8381783 111.822812,72.2476227 C111.472148,72.5315504 111.226941,72.9487855 110.942295,73.3132171 C110.82998,73.4569121 110.772536,73.6663954 110.633642,73.7633463 C109.264425,74.714677 107.879775,75.64177 106.508843,76.5896382 C106.115311,76.861447 105.764648,77.1947158 105.371116,77.4665246 C104.921855,77.7772868 104.584909,77.6682171 104.565189,77.0882429 C104.531752,76.1273902 104.551471,75.1639406 104.552329,74.2022222 C104.552329,73.9615762 104.638066,73.69323 104.560902,73.4837468 C104.002756,71.9723514 103.819279,70.3233204 102.817015,68.9686047 C102.51265,68.5565633 102.3789,67.9255168 102.378043,67.3940181 C102.374613,66.1232687 102.222859,64.9624548 101.342342,63.9436047 C101.044835,63.5990827 101.098849,62.9689018 100.904227,62.5075194 C100.39495,61.3016925 99.8308012,60.1192377 99.3043771,58.9203359 C99.1903471,58.6597804 99.1449066,58.368062 99.0360208,57.9733333 C98.9117024,58.3827778 98.8113903,58.7117184 98.7110782,59.0406589 C98.6382019,59.0770155 98.5653256,59.1133721 98.4924493,59.1505943 C98.0980599,58.3273773 97.7036704,57.5032946 97.3101384,56.6800775 L97.1472384,56.7372093 C97.3358594,57.285155 97.5279099,57.8322351 97.7113868,58.3819121 C98.3784193,60.387584 99.1757718,62.3629587 99.6456097,64.4153747 C99.8556649,65.3329457 100.127451,66.1527003 100.488403,67.0079457 C100.804772,67.757584 100.794483,68.6812145 100.789339,69.5278036 C100.784195,70.444509 100.933377,71.2209819 101.48295,72.008708 C101.826755,72.5012532 101.846474,73.2690698 101.885056,73.9208915 C101.927924,74.6419638 102.176561,75.1215246 102.727849,75.625323 C103.380306,76.2217442 103.823566,77.0570801 104.326841,77.8093152 C104.413435,77.9382946 104.428868,78.2395349 104.341416,78.3416796 C103.859575,78.9017442 104.304549,79.310323 104.581479,79.6764858 C104.710942,79.8478811 105.155059,79.9491602 105.364257,79.86 C106.486552,79.3839018 107.585698,78.8480749 108.681415,78.3096512 C109.026934,78.1399871 109.335587,77.8958786 109.868012,77.5530879 C109.726547,78.3157106 109.712829,78.9355039 109.4942,79.4704651 C108.095832,82.8966408 106.621159,86.2587597 103.775553,88.8167054 C102.535798,89.9307752 101.610698,91.3936951 100.438676,92.5943282 C99.3198097,93.7404264 98.5447488,95.0994703 97.7611141,96.4593798 C97.595642,96.74677 97.6865231,97.185646 97.6616594,97.5552713 C97.644512,97.8045736 97.6548004,98.0582041 97.6102173,98.3023127 C97.4704663,99.0606072 97.2569815,99.7998579 97.8297036,100.511408 C97.9651678,100.680207 97.8665704,101.066279 97.8297036,101.345878 C97.7251046,102.139664 97.5879257,102.929987 97.4790399,103.723773 C97.3152826,104.919212 96.4141885,105.515633 95.561107,106.145814 C94.3042051,107.075504 93.0232968,107.971434 91.7861143,108.927093 C91.5872048,109.081176 91.4997533,109.462054 91.4774617,109.746847 C91.4560275,110.029044 91.5974933,110.319897 91.6412191,110.611615 C91.8392711,111.911796 91.4088722,112.684806 90.2214171,113.206783 C89.8810419,113.356537 89.5286635,113.495904 89.2234404,113.703656 C89.0485373,113.823114 88.8376246,114.075878 88.8487704,114.25593 C88.9130731,115.343165 88.2889089,116.046925 87.6055864,116.740297 C86.8013749,117.557455 86.0400318,118.419625 85.2075272,119.20562 C83.6359711,120.690181 81.7797686,121.422506 79.5969089,121.499548 C78.6040764,121.534173 77.6266765,122.011137 76.6424177,122.287274 L76.3234767,122.287274 L76.3251914,122.294199 Z"></path>
                        <path d="M0.00085737,76.9705168 C1.02884199,78.2542507 1.9676603,76.8553876 2.85160704,77.1557623 C3.16454647,77.404199 3.44404854,77.7366021 3.79814166,77.8820284 C4.4085879,78.133062 4.41630422,78.5303876 4.13765951,79.0740052 C5.25823991,79.1103618 5.79495248,79.7353488 6.28450979,80.5871318 C6.69861869,81.3064729 7.29877651,81.9167442 8.31218586,81.9150129 C9.64882307,81.912416 11.1963729,83.2342377 11.7022202,84.5932817 C11.9311375,85.2087468 12.3075222,85.7688114 12.5210069,86.387739 C12.6136027,86.6552196 12.5390117,87.0430233 12.4104064,87.3139664 C12.1326191,87.8982687 11.7708097,88.4410207 11.4424376,89.0010853 C11.4964518,89.0504264 11.5513234,89.0997674 11.6053376,89.1482429 C11.8076765,89.0737985 12.0100154,88.9984884 12.2037807,88.9266408 C12.9428322,90.0311886 13.2514848,90.0450388 14.2666088,89.110155 C14.3943567,88.9924289 14.7038667,88.9093282 14.8281851,88.982907 C15.7138466,89.5109432 16.7907012,89.8372868 17.0924948,90.9323127 C18.8972551,91.5131525 20.7200202,91.8741215 22.0352232,93.4201421 C22.4904858,93.9551034 23.256973,94.2113308 23.8459851,94.6432817 C24.1083398,94.8354522 24.3398292,95.1193798 24.488154,95.4128295 C25.1954828,96.8142894 25.5435744,98.190646 24.1049103,99.4042636 C23.8974272,99.5799871 23.8091182,99.9037339 23.6770835,100.165155 C23.5810583,100.355594 23.5544799,100.668088 23.410442,100.734742 C22.4287552,101.189199 22.8788736,101.929315 23.0126231,102.597584 C23.3444246,104.254406 23.2664041,105.863617 22.51192,107.403579 C22.2538521,107.931615 22.3310153,108.643165 21.6725564,108.953928 C21.499368,109.035297 21.3081749,109.25084 21.1744254,109.216214 C19.7897756,108.856111 18.7669352,109.82562 17.4500174,110.179664 C8.54796215,100.865452 2.695566,89.8390181 -7.10542736e-15,76.9713824 L0.00085737,76.9705168 Z"></path>
                        <path d="M14.6661425,18.606938 C15.4240561,17.7664083 16.205976,16.8583592 17.0299069,15.9909948 C22.9328878,9.78180878 29.7506807,4.86934108 37.5064345,1.29081395 C38.0199981,1.05363049 39.2631822,1.22502583 39.5366827,1.69160206 C39.6970106,1.96427648 39.5658332,2.41094315 39.5658332,2.7788372 L39.3086227,2.94071059 C38.6004365,2.50616279 37.8913929,2.07161498 37.1471972,1.61456072 C37.3083824,3.09998707 38.6570228,2.95196382 39.5178206,3.54838501 C39.4663785,3.64533591 39.404648,3.76392764 39.3420601,3.88165374 C39.4157938,3.86434108 39.4895274,3.84789405 39.5641185,3.83058139 C39.6764337,4.26599483 39.788749,4.70140826 39.9070658,5.16019379 C39.3352011,5.26666666 38.9022301,5.40516795 38.4701165,5.40516795 C38.2283386,5.40516795 37.8493818,5.23290697 37.7713613,5.0398708 C37.5184377,4.41488372 37.0494572,4.2339664 36.3061189,4.13788113 C36.3567036,4.52395348 36.399572,4.85116279 36.4587304,5.29696382 C36.1903741,5.43200258 35.8345663,5.61032299 35.4787584,5.78864341 C35.4821879,5.84058139 35.4856174,5.89338501 35.4899042,5.94532299 L38.8559323,5.94532299 C36.2658226,7.86356589 33.5994071,9.03996123 30.403138,9.43209302 C29.0030555,10.8621189 27.7701599,12.8851034 25.2872212,13.3560078 C25.3901054,13.1093023 25.4878454,12.876447 25.5855854,12.6418605 C24.6399081,13.3118605 23.6933735,13.9818605 22.6936821,14.6899483 C22.7682731,14.8137339 22.8857326,15.0085013 23.0829273,15.3339793 C22.5779373,16.0723643 22.0292216,16.863553 21.4950811,17.6642636 C21.3458991,17.8875969 21.2215807,18.1334367 21.1204112,18.382739 C20.8134733,19.1427649 20.6385702,19.9858915 20.2021697,20.6576227 C19.2847856,22.0694703 19.2376304,22.0227261 17.8632689,20.942416 C17.6729332,20.7926615 17.2991206,20.6723385 17.113929,20.7597674 C16.173396,21.2072997 15.8484534,20.4464083 15.4334871,19.9252972 C15.1428393,19.5608656 14.955933,19.1124677 14.6687146,18.606938 L14.6661425,18.606938 Z"></path>
                        <path d="M58.3199078,22.9662662 C58.9217804,23.0528295 59.3976198,23.1212145 59.8726019,23.1895995 C59.9051819,23.2770284 59.9377619,23.3644574 59.9703419,23.4527519 C59.5759524,23.8076615 59.1824204,24.1617054 58.7425904,24.5581654 C58.8857709,24.6282817 59.0280941,24.6983979 59.2287183,24.7970801 C59.1026851,24.894031 59.0135188,25.0186822 58.9054904,25.0385917 C57.5808564,25.2827003 56.2527928,25.5025711 54.9290161,25.7501421 C54.4746109,25.8349742 54.0330662,25.9829974 53.5846626,26.0989923 C52.9544969,26.2617313 52.3234738,26.4210078 51.4763939,26.6365504 C51.9985312,26.2106589 52.3457654,25.8349742 52.7718774,25.6055814 C53.2125648,25.3683979 53.7295579,25.2740439 54.2053973,24.9797287 C53.5280763,24.9243282 52.8516127,24.8697933 52.0902696,24.8074677 C52.5446748,24.2993411 53.8187242,24.3807106 53.0848169,23.2571189 C53.6241016,22.806124 54.7138167,23.400814 54.7669735,22.3542636 C54.3931609,21.2791473 53.6283884,21.3440698 52.6955717,21.647907 C52.8301785,21.3345478 52.9459232,21.1640181 52.9699295,20.9822351 C52.9965079,20.7814083 52.9382069,20.5701938 52.9159153,20.3633075 C52.784738,20.5044057 52.6569901,20.6489664 52.5206685,20.7840052 C52.4700838,20.8342119 52.3972075,20.8610465 52.2128733,20.9727132 C52.2908938,20.5753876 52.3474801,20.2854005 52.416927,19.9296253 C52.2334501,19.9391473 52.065406,19.9478036 51.8056234,19.9607881 C51.9745249,19.7452455 52.107417,19.5747158 52.2840349,19.3496512 C52.0568323,19.2293282 51.8424902,19.1150646 51.7576107,19.0691861 C52.0791238,18.8285401 52.4889459,18.6052067 52.7898822,18.2797287 C53.3874679,17.6331008 53.3686058,17.6079974 55.2762503,17.4400646 C55.0070367,17.6504134 54.8655709,17.7594832 54.7266772,17.8711499 C54.5732083,17.9940698 54.4223115,18.1204522 54.116231,18.3714858 L56.5074312,18.3714858 C55.9595729,18.9895478 55.5308887,19.4725711 54.9324456,20.1477649 C56.1336186,19.9183721 56.3402444,20.9701163 56.9686954,21.3120413 C57.7386121,21.7318734 58.1098526,22.2737597 58.3216226,22.9662662 L58.3199078,22.9662662 Z"></path>
                        <path d="M105.778674,100.629134 C106.266517,101.408204 106.474857,102.48332 106.011021,103.15332 C105.161369,104.382519 104.929879,105.821201 104.269706,107.097145 C103.582096,108.425026 103.022235,109.821292 102.400643,111.183798 C102.019971,112.019134 100.734776,112.580065 100.028305,112.21823 C99.868834,112.13686 99.624484,111.999225 99.6176251,111.876305 C99.5653256,110.947481 99.0551915,109.96845 99.7753808,109.103682 C100.431268,108.315956 100.839375,107.518708 100.687621,106.408101 C100.572734,105.568437 101.071722,104.860349 101.86393,104.484664 C102.939928,103.97394 103.868457,103.335103 104.476332,102.24354 C104.799559,101.663566 105.314838,101.192661 105.778674,100.629134 L105.778674,100.629134 Z"></path>
                        <path d="M38.0448618,13.7039923 C38.6167265,13.2278941 38.6012939,13.1621059 37.7404961,12.6834109 C37.9779871,12.4860465 38.2249092,12.2791602 38.4726886,12.0731395 L38.3963828,11.8524031 C37.9016813,11.9121318 37.4061224,11.9718605 36.9114209,12.0315892 C36.8771262,11.9675323 36.8419741,11.9034755 36.8076793,11.8394186 C37.1540561,11.6550388 37.4995756,11.4689277 37.8485245,11.2897416 C37.8913929,11.2681008 37.9625545,11.3027261 38.0045655,11.2802196 C38.9193775,10.7885401 38.987967,10.814509 39.267469,11.8021964 C39.414079,11.7372739 39.5829806,11.7043798 39.6944385,11.6056977 C40.5192268,10.8794315 41.5403525,10.7894057 42.5563339,10.6344574 C42.9481512,10.5747287 43.3091033,10.3219638 43.6889175,10.1713437 C43.8458159,10.1090181 44.0507269,10.000814 44.1750453,10.0544832 C44.7606279,10.3055168 45.3376367,10.5851163 45.8854951,10.9105943 C45.9626583,10.9564729 45.9292209,11.3607235 45.8237646,11.5122093 C45.6788693,11.7199612 45.4370915,11.8913566 45.2013152,11.9960982 C43.7557922,12.6383979 42.3068397,13.2755039 40.8407399,13.8693282 C40.5698115,13.9792636 40.2165758,13.9022222 39.9036363,13.8788501 C39.2820443,13.8329716 38.6613096,13.7637209 38.0457192,13.7048579 L38.0448618,13.7039923 Z"></path>
                        <path d="M4.24140108,35.0851292 C5.1502115,33.304522 6.05044824,31.5187209 6.9849797,29.7519638 C7.06042812,29.6091344 7.37079545,29.5918217 7.572277,29.5165116 C7.61943226,29.67146 7.63229279,29.8497804 7.71974435,29.9761628 C7.91350959,30.2592248 8.11670589,30.5474806 8.36877217,30.7742765 C8.5899732,30.9725065 9.09839261,31.0789793 9.10610893,31.242584 C9.12925787,31.775814 9.17384102,32.5609432 8.86347369,32.8111111 C7.77032909,33.6931912 6.54343502,34.4125323 5.3396899,35.1465892 C5.0961973,35.2946124 4.73095839,35.2383463 4.42144843,35.2764341 C4.36143265,35.2123773 4.30227423,35.1483204 4.24225845,35.0842636 L4.24140108,35.0851292 Z"></path>
                        <path d="M46.5559571,25.4489018 C46.9657792,25.0065633 47.3756012,24.5642248 47.6542459,24.2638501 C47.5556486,23.8145866 47.3413065,23.4224548 47.4561939,23.2121059 C47.5882286,22.9697287 48.0246291,22.9117313 48.301559,22.7299483 C48.5501958,22.5672093 48.84856,22.3914858 48.9720211,22.1430491 C49.3029652,21.4765116 51.2517634,21.0151292 51.739606,21.5769251 C51.8596376,21.7154264 51.8039086,22.2486563 51.6675871,22.3317571 C51.2603371,22.5801938 51.176315,22.8641215 51.2028934,23.313385 C51.2397603,23.9340439 50.9285356,24.353876 50.3206614,24.5832687 C49.5293105,24.8827778 48.773969,25.2818346 47.9774738,25.564031 C47.5650796,25.710323 47.0978139,25.6964729 46.6545545,25.7553359 C46.6211171,25.6531912 46.5876798,25.5510465 46.5542424,25.4489018 L46.5559571,25.4489018 Z"></path>
                        <path d="M10.1761046,35.7256977 C10.2566972,36.1844832 10.3252867,36.44677 10.342434,36.7125194 C10.3578667,36.9453747 10.316713,37.1825581 10.2969935,37.4621576 C11.0291861,37.7599354 10.7582577,38.2663308 10.4710393,38.775323 C10.3793009,38.8047545 10.2875625,38.8333204 10.1958241,38.8627519 C10.0783646,38.5234238 9.9617625,38.1840956 9.7997199,37.7149225 C9.51764572,38.1122481 9.22185365,38.5294832 8.92606158,38.9458527 L8.68599845,38.7355039 C8.82832159,38.5234238 8.97064473,38.3113437 9.17384102,38.0083721 C8.1407122,38.0802196 7.18560389,38.1460078 6.01186666,38.2273773 C7.06814443,36.5497804 7.46853544,34.6618346 8.84546896,33.3529974 C8.92777632,33.3971447 9.01008368,33.441292 9.0932484,33.4854393 C8.8334658,34.0541602 8.5736832,34.6228811 8.3139006,35.1916021 C8.90462737,35.5170801 9.33759837,36.2926873 10.1761046,35.7265633 L10.1761046,35.7256977 Z"></path>
                        <path d="M68.290244,36.7038631 C68.4642898,36.6363437 68.6846335,36.5454522 68.9084066,36.465814 C69.7820649,36.156783 70.3522148,36.5904651 70.2553322,37.5417959 C70.191887,38.1685142 70.2553322,38.8999742 69.3173713,39.0211628 C68.7935192,39.0886822 68.5860361,38.9389277 68.5431677,38.4152196 C68.4985845,37.8707364 68.3862693,37.3323127 68.290244,36.7038631 L68.290244,36.7038631 Z"></path>
                        <path d="M4.92472363,39.041938 C5.14592466,39.5898837 5.26852833,39.891124 5.4588641,40.3611628 C4.21139319,41.0666538 2.91848176,41.7981137 1.4832472,42.6092119 C1.75674769,41.7894574 1.98052082,41.1168605 2.23773132,40.3447158 C3.65067431,41.1939018 4.43430895,40.5342894 4.92472363,39.041938 Z"></path>
                        <path d="M41.2497046,0.134328164 C40.7987289,0.877906974 39.7133006,1.16270025 38.6801717,0.779224804 C39.5735495,0.448552974 40.2182905,-0.175568476 41.2497046,0.134328164 Z"></path>
                        <path d="M69.9372486,34.8643928 C69.6577465,35.2452713 69.4682681,35.5040956 69.2787897,35.7620543 C69.065305,35.493708 68.7403624,35.2470026 68.6837761,34.9483592 C68.6529108,34.7856202 69.0473003,34.4679328 69.3079402,34.3554005 C69.4099671,34.3112532 69.6688923,34.6375969 69.9372486,34.8643928 L69.9372486,34.8643928 Z"></path>
                        <path d="M104.207118,8.64609819 C103.787007,8.67726098 103.36604,8.70842377 102.945929,8.73958656 C102.953645,8.4712403 102.85762,8.05054263 102.987083,7.95965116 C103.55809,7.56059431 103.85131,8.09468992 104.205403,8.38813953 C104.205403,8.4738372 104.205403,8.56040051 104.206261,8.64609819 L104.207118,8.64609819 Z"></path>
                        <path d="M98.6136468,48.5604393 C98.5999289,49.3689406 98.2192573,49.4979199 97.7751406,49.4555039 C97.6619679,49.4451163 97.5745164,49.1637855 97.4750616,49.0071059 C97.8214384,48.8712016 98.1669579,48.7361628 98.6136468,48.5604393 Z"></path>
                        <path d="M91.1956961,47.9016925 C90.5432388,47.6307494 89.8907815,47.3606718 89.2391816,47.0897287 C89.2760484,46.9962403 89.3120579,46.9027519 89.3489247,46.8092636 C90.0056688,47.0680879 90.6632703,47.3269121 91.3200145,47.5848708 C91.2788608,47.690478 91.2377071,47.7960853 91.1956961,47.9016925 Z"></path>
                    </g>
                    <g transform="translate(0.0995, 0.0866)" id="Shape">
                        <path d="M66.4460447,11.7726098 C36.2358146,11.7726098 11.7459459,36.498553 11.7459459,67 C11.7459459,97.501447 36.2358146,122.22739 66.4460447,122.22739 C96.6562749,122.22739 121.146143,97.501447 121.146143,67 C121.146143,36.498553 96.6562749,11.7726098 66.4460447,11.7726098 L66.4460447,11.7726098 Z M66.4460447,110.887597 C42.4388744,110.887597 22.9774709,91.2385917 22.9774709,67 C22.9774709,42.7614083 42.4388744,23.1124031 66.4460447,23.1124031 C90.4532151,23.1124031 109.914618,42.7614083 109.914618,67 C109.914618,91.2385917 90.4532151,110.887597 66.4460447,110.887597 Z" fill="url(#linearGradient-1)" opacity="0.8"></path>
                        <path d="M66.3174395,0 C29.6915222,0 0,29.977739 0,66.9567184 C0,103.935698 29.6915222,133.913437 66.3174395,133.913437 C102.943356,133.913437 132.634879,103.935698 132.634879,66.9567184 C132.634879,29.977739 102.943356,0 66.3174395,0 L66.3174395,0 Z M66.4460447,122.313954 C36.1415041,122.313954 11.5744723,97.5101034 11.5744723,66.9134367 C11.5744723,36.31677 36.1415041,11.5129199 66.4460447,11.5129199 C96.7505854,11.5129199 121.317617,36.31677 121.317617,66.9134367 C121.317617,97.5101034 96.7505854,122.313954 66.4460447,122.313954 Z" fill="url(#linearGradient-2)" opacity="0.6"></path>
                    </g>
                </g>
                <circle id="Oval" stroke="#D1D1D1" cx="66.5" cy="67" r="66.5"></circle>
                <g id="Group" transform="translate(0.016, 0.516)" stroke="#FFFFFF" stroke-width="2">
                    <circle id="Oval" opacity="0.56" cx="66.4839538" cy="66.4839538" r="55.044929"></circle>
                    <circle id="Oval" opacity="0.72" cx="66.4839538" cy="66.4839538" r="43.77792"></circle>
                    <circle id="Oval" opacity="0.859422" cx="66.6129658" cy="66.5269578" r="10.922978"></circle>
                    <line x1="66.5769577" y1="55.5609756" x2="66.9839538" y2="-7.77156117e-14" id="Path" opacity="0.854608"></line>
                    <line x1="66.5769577" y1="78.406932" x2="66.5769577" y2="133.053915" id="Path" opacity="0.854608"></line>
                    <line x1="77.5789474" y1="66.4909499" x2="133.053915" y2="66.4909499" id="Path" opacity="0.854608"></line>
                    <line x1="55.6469833" y1="66.4909499" x2="0" y2="66.4909499" id="Path" opacity="0.854608"></line>
                </g>
                <path d="M66.5,128 C50.0767511,116.391506 24.9232489,116.391506 8.5,128 L23.5402385,101.215805 C39.024769,94.369902 49.1250671,94.153734 66.5,101.215805 L66.5,128 Z" id="Path" fill="#FFFFFF" fill-rule="nonzero"></path>
                <path d="M66.5,128 C82.9232489,116.391506 108.076751,116.391506 124.5,128 L109.459762,101.215805 C93.975231,94.369902 83.8749329,94.153734 66.5,101.215805 L66.5,128 Z" id="Path" fill="#FFFFFF" fill-rule="nonzero"></path>
                <path d="M66.5,128 C50.0767511,116.391506 24.9232489,116.391506 8.5,128 L23.5402385,101.215805 C39.024769,94.369902 49.1250671,94.153734 66.5,101.215805 L66.5,101.389773" id="Path" stroke="#333333"></path>
                <path d="M66.5,128 C82.9232489,116.391506 108.076751,116.391506 124.5,128 L109.459762,101.215805 C93.975231,94.369902 83.8749329,94.153734 66.5,101.215805 L66.5,101.389773" id="Path" stroke="#333333"></path>
                <line x1="66.5" y1="101" x2="66.5" y2="128" id="Path" stroke="#231F20" stroke-linecap="round"></line>
                <g id="Group" transform="translate(12.5397, 139.0531)" fill="#000000" fill-rule="nonzero">
                    <path d="M3.86619589,4.10096229 C4.44925169,4.10096229 4.90273272,4.02391885 5.22665265,3.86982868 C5.73566965,3.62768852 5.99017432,3.1918418 5.99017432,2.56227541 C5.99017432,1.92830737 5.71947385,1.50126557 5.1780649,1.2811377 C4.87265468,1.15786639 4.41917366,1.09623114 3.81760814,1.09623114 L1.35351561,1.09623114 L1.35351561,4.10096229 L3.86619589,4.10096229 Z M4.33124996,8.57834098 C5.17806912,8.57834098 5.78193926,8.34500901 6.14287865,7.8783377 C6.36962256,7.58336639 6.48299275,7.22676475 6.48299275,6.80852131 C6.48299275,6.10411229 6.15213674,5.62424098 5.49041464,5.36889262 C5.13873024,5.23241311 4.67368074,5.16417459 4.09525243,5.16417459 L1.35351561,5.16417459 L1.35351561,8.57834098 L4.33124996,8.57834098 Z M0,1.77635684e-15 L4.37983771,1.77635684e-15 C5.57371386,1.77635684e-15 6.42283402,0.3389918 6.92722352,1.01698606 C7.22337892,1.41761885 7.37145429,1.87988032 7.37145429,2.40378442 C7.37145429,3.01574016 7.18867374,3.51762377 6.82310694,3.90945164 C6.63338248,4.11637213 6.36036835,4.3056795 6.00405646,4.47737868 C6.52695577,4.66668852 6.9179675,4.88020983 7.17710336,5.11794754 C7.6352186,5.54059344 7.86427281,6.12392377 7.86427281,6.86795573 C7.86427281,7.49311885 7.65835539,8.05883934 7.24651441,8.5651336 C6.63106666,9.32237377 5.65238051,9.7009877 4.31042666,9.7009877 L0,9.7009877 L0,1.77635684e-15 Z M9.49178772,1.46984672 L10.6755617,1.46984672 L10.6755617,9.7009877 L9.49178772,9.7009877 L9.49178772,1.46984672 Z M15.6995762,4.94945082 C16.1942902,4.94945082 16.5790619,4.88408032 16.8539031,4.7533377 C17.2857962,4.54788524 17.5017396,4.17807623 17.5017396,3.64389918 C17.5017396,3.10598606 17.2720544,2.74364754 16.8126771,2.55687295 C16.5535412,2.45227868 16.1687694,2.39998196 15.6583502,2.39998196 L13.567605,2.39998196 L13.567605,4.94945082 L15.6995762,4.94945082 Z M16.0941675,8.74843934 C16.8126807,8.74843934 17.3250554,8.55046065 17.6313069,8.15449672 C17.8236957,7.90421803 17.9198886,7.60164672 17.9198886,7.24677377 C17.9198886,6.64909344 17.6391623,6.2419295 17.0777012,6.02527049 C16.7793022,5.90946967 16.3847149,5.85157049 15.8939271,5.85157049 L13.567605,5.85157049 L13.567605,8.74843934 L16.0941675,8.74843934 Z M12.4191675,1.46984672 L16.1353935,1.46984672 C17.1483793,1.46984672 17.8688449,1.75747623 18.2968117,2.33274344 C18.5480951,2.67267459 18.6737348,3.06489672 18.6737348,3.50942131 C18.6737348,4.02865655 18.5186482,4.45449754 18.2084704,4.78695737 C18.047492,4.96252623 17.8158437,5.12315 17.5135185,5.26883442 C17.9571906,5.42946147 18.2889581,5.61063032 18.508831,5.81234754 C18.8975348,6.17095655 19.0918838,6.66590327 19.0918838,7.29720327 C19.0918838,7.82764426 18.9171661,8.30765 18.5677252,8.73723278 C18.045527,9.37973934 17.2151267,9.7009877 16.0764992,9.7009877 L12.4191675,9.7009877 L12.4191675,1.46984672 Z M20.3643358,1.46984672 L21.536331,1.46984672 L21.536331,8.72042295 L25.9180617,8.72042295 L25.9180617,9.7009877 L20.3643358,9.7009877 L20.3643358,1.46984672 Z M27.055057,1.46984672 L33.362629,1.46984672 L33.362629,2.47842786 L28.197605,2.47842786 L28.197605,4.97746721 L32.9739271,4.97746721 L32.9739271,5.93001557 L28.197605,5.93001557 L28.197605,8.72042295 L33.4509704,8.72042295 L33.4509704,9.7009877 L27.055057,9.7009877 L27.055057,1.46984672 Z M39.7653995,0 L41.6880858,7.89154508 L43.9925329,0 L45.4918117,0 L47.7962588,7.89154508 L49.7189452,0 L51.2321062,0 L48.5528394,9.7009877 L47.1021483,9.7009877 L44.7491134,1.65755491 L42.3821963,9.7009877 L40.9315053,9.7009877 L38.2661207,0 L39.7653995,0 Z M55.711443,6.32784508 L54.3981017,2.69135 L53.0023085,6.32784508 L55.711443,6.32784508 Z M53.7856017,1.46984672 L55.1107219,1.46984672 L58.2497844,9.7009877 L56.9658902,9.7009877 L56.0883661,7.23556803 L52.6666113,7.23556803 L51.7301931,9.7009877 L50.5287507,9.7009877 L53.7856017,1.46984672 Z M64.3087219,1.46984672 L64.3087219,2.45041147 L61.3934575,2.45041147 L61.3934575,9.7009877 L60.203794,9.7009877 L60.203794,2.45041147 L57.2885296,2.45041147 L57.2885296,1.46984672 L64.3087219,1.46984672 Z M68.9399959,1.24571721 C70.0354342,1.24571721 70.8854656,1.52027295 71.4901162,2.0693918 C72.0947666,2.61851065 72.4304603,3.24233032 72.4972075,3.94086967 L71.3546594,3.94086967 C71.2250914,3.41042868 70.966941,2.99019016 70.5802003,2.68014344 C70.1934595,2.37009672 69.6506565,2.21507623 68.9517748,2.21507623 C68.0997674,2.21507623 67.4116933,2.49990409 66.887532,3.06956803 C66.3633707,3.63923196 66.101294,4.51239344 66.101294,5.68907704 C66.101294,6.65283688 66.3378501,7.4344795 66.8109695,8.03402786 C67.2840888,8.63357623 67.989831,8.9333459 68.9282171,8.9333459 C69.7920034,8.9333459 70.4496491,8.6177 70.9011738,7.9864 C71.1406782,7.65394016 71.3193223,7.21689262 71.4371113,6.67524508 L72.5796594,6.67524508 C72.4775755,7.54188196 72.1399187,8.26842623 71.5666786,8.8549 C70.8795758,9.56091065 69.9529825,9.91391065 68.7868709,9.91391065 C67.7817377,9.91391065 66.9375955,9.62441311 66.254419,9.04540983 C65.3552959,8.27963196 64.9057411,7.09736229 64.9057411,5.49856721 C64.9057411,4.28452868 65.243398,3.28903196 65.9187219,2.51204672 C66.649014,1.66782295 67.6560953,1.24571721 68.9399959,1.24571721 L68.9399959,1.24571721 Z M73.9481927,1.46984672 L75.1319672,1.46984672 L75.1319672,4.87100573 L79.6314862,4.87100573 L79.6314862,1.46984672 L80.8152607,1.46984672 L80.8152607,9.7009877 L79.6314862,9.7009877 L79.6314862,5.85157049 L75.1319672,5.85157049 L75.1319672,9.7009877 L73.9481927,9.7009877 L73.9481927,1.46984672 Z M86.7762824,1.77635684e-15 L88.157562,1.77635684e-15 L88.157562,8.54532213 L93.321745,8.54532213 L93.321745,9.7009877 L86.7762824,9.7009877 L86.7762824,1.77635684e-15 Z M94.6995432,1.46984672 L95.8833168,1.46984672 L95.8833168,9.7009877 L94.6995432,9.7009877 L94.6995432,1.46984672 Z M98.4650719,7.04505819 C98.4925559,7.5119959 98.6083802,7.89114344 98.8125476,8.18251311 C99.2012514,8.72789672 99.8863812,9.00058442 100.867957,9.00058442 C101.307702,9.00058442 101.708179,8.94081721 102.069399,8.82128114 C102.76828,8.5896795 103.117716,8.17504508 103.117716,7.57736475 C103.117716,7.12910409 102.970482,6.80972295 102.676009,6.61921229 C102.37761,6.4324377 101.910387,6.26994508 101.274326,6.13173196 L100.102331,5.87958688 C99.3367024,5.71522459 98.7948809,5.53405491 98.4768509,5.33607377 C97.9271687,4.99240737 97.6523319,4.47878278 97.6523319,3.79518606 C97.6523319,3.05555655 97.9212792,2.4485459 98.4591824,1.97413688 C98.9970857,1.49972786 99.758777,1.26252704 100.744278,1.26252704 C101.651254,1.26252704 102.421779,1.47077868 103.055877,1.88728688 C103.689975,2.3037959 104.007018,2.96963934 104.007018,3.8848377 L102.905697,3.8848377 C102.846802,3.44404836 102.721162,3.10599016 102.528774,2.87065327 C102.17148,2.44107049 101.564876,2.22628196 100.708942,2.22628196 C100.017913,2.22628196 99.5212431,2.36449344 99.2189181,2.64092131 C98.916593,2.91734836 98.7654327,3.23859672 98.7654327,3.60467623 C98.7654327,4.00811065 98.9421135,4.30321065 99.2954804,4.48998606 C99.5271326,4.60952213 100.051285,4.75894016 100.867957,4.93824426 L102.081178,5.2015959 C102.666197,5.32860327 103.117714,5.50230164 103.435744,5.7226959 C103.985427,6.10745327 104.260264,6.66590245 104.260264,7.39806147 C104.260264,8.30952377 103.91181,8.96135983 103.214892,9.3535877 C102.517972,9.74581557 101.708185,9.94192623 100.785504,9.94192623 C99.7096978,9.94192623 98.8675189,9.68044508 98.258942,9.15747459 C97.650365,8.63823934 97.3519711,7.93410737 97.3637501,7.04505819 L98.4650719,7.04505819 Z M111.954038,1.46984672 L111.954038,2.45041147 L109.038774,2.45041147 L109.038774,9.7009877 L107.84911,9.7009877 L107.84911,2.45041147 L104.933845,2.45041147 L104.933845,1.46984672 L111.954038,1.46984672 Z" id="Shape"></path>
                </g>
            </g>
        </g>
    </g>
</svg>