<svg xmlns="http://www.w3.org/2000/svg" width="344" height="33"><g fill="#F1F1F1" fill-rule="nonzero"><path d="M4.618 2.978c0-.126.042-.21.126-.252.294-.126 1.26-.168 2.646-.168 4.242 0 6.426 2.394 6.426 5.964 0 1.848-.84 3.864-2.562 4.998-.504.336-.798.378-1.596.378-.63 0-4.074-.084-4.872-.084-.126-.042-.168-.084-.168-.21V2.978ZM16.252 23.39c0 4.536-3.402 6.636-6.972 6.636-2.394 0-3.99-.378-4.452-.84-.126-.126-.21-1.974-.21-9.24v-3.612c0-.084.042-.126.168-.168.378 0 2.352-.084 3.696.042 1.806.126 3.528.378 4.998 1.554 2.352 1.806 2.772 3.738 2.772 5.628ZM1.09 19.946c0 5.46-.168 10.458-.294 12.138.63-.042 1.806-.084 2.436-.042.966.042 2.982.294 5.88.294 7.434 0 10.92-4.62 10.92-9.45 0-4.788-3.36-7.434-6.888-8.442 1.806-1.008 4.032-3.234 4.032-6.762 0-3.108-1.722-7.35-8.904-7.35C6.13.332 4.114.5 2.56.5 1.93.5 1.216.458.67.416c.336 1.512.42 6.132.42 12.138v7.392ZM25.927 21.752c0 4.578-.168 9.156-.294 10.374A27.164 27.164 0 0 1 27.985 32c.63 0 1.428.042 1.764.084-.21-1.008-.336-5.88-.336-10.332v-6.3c0-5.04.126-8.988.252-10.332-.294.042-1.218.126-2.394.126-.546 0-1.344 0-1.722-.042.252.966.378 5.166.378 10.248v6.3ZM42.237 7.556c0-.126.042-.168.126-.168.21-.126.966-.21 2.268-.21 3.696 0 5.544 1.89 5.544 4.914 0 1.512-.672 3.15-2.142 4.116-.462.294-.798.336-1.47.336-.588 0-3.444-.084-4.158-.084-.126-.042-.168-.084-.168-.168V7.556ZM52.275 24.65c0 3.78-2.94 5.502-5.964 5.502-2.142 0-3.528-.42-3.906-.756-.084-.084-.168-1.848-.168-7.644v-2.94c0-.042.042-.126.126-.168.378 0 2.142-.084 3.15.042 1.722.126 3.234.378 4.41 1.344 1.89 1.47 2.352 3.066 2.352 4.62Zm-13.44-2.898c0 4.62-.168 8.862-.294 10.332.63-.042 1.68-.084 2.31-.042.84.042 2.73.252 5.292.252 6.552 0 9.786-3.906 9.786-8.064 0-3.99-2.856-6.258-6.048-7.182 1.68-.882 3.528-2.688 3.528-5.712 0-2.646-1.554-6.216-7.938-6.216-2.352 0-3.822.126-5.292.126-.63 0-1.302-.042-1.806-.084.294 1.302.462 5.208.462 10.29v6.3ZM61.614 21.752c0 5.082-.126 9.03-.252 10.332.462-.126 1.092-.084 2.058-.084 1.89 0 4.41.21 9.828.21 1.68 0 2.058-.042 2.268-.084.126-.588.546-2.268.882-2.94-.924.462-2.52.714-6.51.714-1.638 0-2.898 0-3.612-.126-.462-.042-.756-.084-.882-.21-.252-.126-.294-.798-.294-8.106v-6.09c0-5.04.21-8.904.336-10.248-.462.126-1.47.126-2.436.126-.63 0-1.428.042-1.764-.084.21 1.008.378 5.25.378 10.29v6.3ZM80.986 21.752c0 5.082-.21 9.03-.336 10.332A31.629 31.629 0 0 1 83.17 32c1.554 0 4.368.21 9.45.21 1.386 0 1.806-.042 1.932-.084.126-.798.462-2.142.756-2.94-1.134.462-2.772.714-6.174.714-1.638 0-2.772-.042-3.654-.168-.378-.042-.672-.126-.798-.21-.21-.084-.252-1.176-.252-8.064v-2.394c0-.126.042-.168.126-.168.714 0 4.956 0 6.216.126 1.47.126 2.058.252 2.562.546 0-.798.126-2.352.336-3.192-.462.126-1.26.168-3.234.294-1.092 0-5.292.042-5.88.042-.084 0-.126-.084-.126-.21V7.598c0-.084.042-.126.126-.126 3.024 0 5.208.084 6.384.126 1.806.168 2.562.336 3.066.63 0-1.302.126-2.562.252-3.192-.672.168-2.184.21-2.982.21H82.96c-.84 0-1.89.042-2.394-.084.294 1.008.42 4.452.42 10.29v6.3ZM108.013.416c.966 1.554 2.226 4.914 3.234 8.022l7.098 22.176c.546 1.638.672 2.1.966 2.1.294 0 .504-.63 1.134-1.932 1.89-4.956 6.804-17.682 8.988-23.058l8.232 23.436c.378.882.63 1.554.924 1.554.21 0 .462-.462.966-1.764 3.024-8.274 6.804-19.194 7.686-21.546 1.848-5.334 2.982-7.812 3.612-9.03-.546.042-1.386.126-2.52.126-.462 0-1.092.042-1.554-.084-.21 1.638-.84 4.074-2.184 8.274-1.554 5.04-4.284 12.348-5.628 16.38l-8.148-23.058c-.336-.798-.63-1.428-.798-1.428-.168 0-.294.294-.756 1.26l-9.03 23.268-5.502-17.85c-.84-2.898-1.47-5.502-1.764-6.888-.462.042-1.554.126-2.688.126-.966 0-1.806-.042-2.268-.084ZM165.984 22.97c.084 0 .126.042.168.084 1.134 2.856 3.15 7.392 3.696 9.072.504-.126 1.68-.126 2.646-.126.462 0 1.134.042 1.848.084-.966-1.428-3.066-6.006-4.746-9.828-3.36-7.182-6.972-15.288-7.392-16.128-.546-1.218-.756-1.512-.924-1.512-.21 0-.42.378-.924 1.512l-7.224 17.388c-1.554 3.57-2.898 6.72-3.864 8.61A20.01 20.01 0 0 1 151.41 32c.84 0 1.134-.042 1.596.084.42-1.638 2.058-5.964 3.192-9.03 0-.042.042-.084.168-.084h9.618Zm-8.82-2.268c-.126 0-.126-.042-.084-.126l3.864-10.038 4.284 10.038c0 .084-.042.126-.126.126h-7.938ZM171.244 8.144c1.05-.336 2.352-.462 4.998-.588 2.394-.126 3.36-.084 5.082-.084v14.28c0 4.578-.168 9.156-.294 10.374.462-.126 1.47-.126 2.436-.126.63 0 1.26-.042 1.638.084-.126-1.344-.294-6.006-.294-10.5V7.472c2.688 0 4.284.042 5.838.168 2.394.126 3.402.252 4.032.714.042-1.008.21-2.52.42-3.402-.588.21-3.486.294-5.586.294h-12.096c-3.192 0-4.662-.126-5.544-.336-.126.84-.42 2.604-.63 3.234ZM213.087 32.588c3.192 0 6.3-.588 7.77-1.218.126-.84.378-2.436.672-3.276-1.89 1.344-4.83 1.932-8.064 1.932-9.282 0-12.936-6.468-12.936-12.18 0-3.024.798-5.922 3.192-8.232 1.428-1.302 3.78-2.73 8.148-2.73 4.662 0 7.812 1.47 9.282 2.94.042-1.302.252-2.898.546-3.612-1.512-.42-4.536-1.596-9.576-1.596-5.544 0-9.114 1.68-11.466 3.906-3.402 3.15-4.032 7.014-4.032 9.702 0 3.15 1.008 7.434 4.536 10.542 3.066 2.688 6.93 3.822 11.928 3.822ZM227.419 21.752c0 4.62-.168 8.904-.294 10.374.504-.126 1.47-.126 2.436-.126.63 0 1.26.042 1.638.084-.21-1.47-.336-5.88-.336-10.332v-3.15c0-.084.042-.126.126-.126h15.456c.042 0 .084.042.084.126v3.15c0 4.62-.168 8.946-.294 10.374.21-.042 1.512-.126 2.31-.126.546 0 1.302-.042 1.764.084-.21-1.47-.336-5.88-.336-10.332v-6.3c0-5.082.168-9.03.336-10.332-.63.126-1.512.126-2.31.126-.714 0-1.302.042-1.764-.084.168 1.302.294 4.872.294 9.954v.63c0 .126-.042.168-.126.168h-15.414c-.084 0-.126-.042-.126-.168v-.63c0-5.25.126-8.694.252-9.996-.504.042-1.428.126-2.31.126-.63 0-1.344.042-1.806-.084.294 1.344.42 5.208.42 10.29v6.3ZM271.162 19.946c0 5.964-.168 10.668-.294 12.138.504-.126 1.134-.084 2.1-.084 2.016 0 4.956.252 11.13.252 1.89 0 2.31-.042 2.52-.084.126-.63.63-2.478.966-3.234-1.008.462-2.688.84-7.392.84-1.806 0-3.276 0-4.116-.126-.462-.042-.798-.168-1.008-.294-.252-.126-.294-1.218-.294-9.702v-7.224c0-5.922.168-10.5.336-12.054-.378.126-1.554.126-2.52.126-.504 0-1.512.042-1.848-.084.21 1.26.42 6.09.42 12.138v7.392ZM292.25 21.752c0 4.578-.167 9.156-.293 10.374a27.164 27.164 0 0 1 2.352-.126c.63 0 1.428.042 1.764.084-.21-1.008-.336-5.88-.336-10.332v-6.3c0-5.04.126-8.988.252-10.332-.294.042-1.218.126-2.394.126-.546 0-1.344 0-1.722-.042.252.966.378 5.166.378 10.248v6.3ZM301.873 31.118c1.302.84 3.738 1.47 6.132 1.47 1.848 0 4.074-.336 5.754-1.47 2.562-1.806 3.36-4.578 3.36-6.174 0-2.772-.882-4.956-5.334-7.728l-1.806-1.134c-3.234-2.142-3.738-3.444-3.738-5.292 0-2.352 1.848-3.906 4.578-3.906 2.982 0 4.746 1.218 5.418 2.058 0-1.344.21-3.318.336-3.696l-1.932-.294a19.174 19.174 0 0 0-3.612-.336c-5.166 0-8.148 3.108-8.148 6.93 0 2.478 1.008 4.914 4.914 7.392l1.848 1.176c3.15 2.016 3.906 3.36 3.906 5.544 0 2.52-1.722 4.578-5.124 4.578-2.856 0-5.208-1.512-6.258-2.898 0 1.134-.168 3.192-.294 3.78ZM319.44 8.144c1.05-.336 2.352-.462 4.998-.588 2.394-.126 3.36-.084 5.082-.084v14.28c0 4.578-.168 9.156-.294 10.374.462-.126 1.47-.126 2.436-.126.63 0 1.26-.042 1.638.084-.126-1.344-.294-6.006-.294-10.5V7.472c2.688 0 4.284.042 5.838.168 2.394.126 3.402.252 4.032.714.042-1.008.21-2.52.42-3.402-.588.21-3.486.294-5.586.294h-12.096c-3.192 0-4.662-.126-5.544-.336-.126.84-.42 2.604-.63 3.234Z"/></g></svg>