<?xml version="1.0" encoding="UTF-8"?>
<svg width="344px" height="33px" viewBox="0 0 344 33" version="1.1" xmlns="http://www.w3.org/2000/svg" xmlns:xlink="http://www.w3.org/1999/xlink">
    <title>bwl_text_black</title>
    <g id="Page-1" stroke="none" stroke-width="1" fill="none" fill-rule="evenodd">
        <g id="BWL---Style-Guide-and-CDN-Images" transform="translate(-132, -1043)" fill="#000000" fill-rule="nonzero">
            <g id="bwl_text_black" transform="translate(132.67, 1043.332)">
                <path d="M3.948,2.646 C3.948,2.52 3.99,2.436 4.074,2.394 C4.368,2.268 5.334,2.226 6.72,2.226 C10.962,2.226 13.146,4.62 13.146,8.19 C13.146,10.038 12.306,12.054 10.584,13.188 C10.08,13.524 9.786,13.566 8.988,13.566 C8.358,13.566 4.914,13.482 4.116,13.482 C3.99,13.44 3.948,13.398 3.948,13.272 L3.948,2.646 Z M15.582,23.058 C15.582,27.594 12.18,29.694 8.61,29.694 C6.216,29.694 4.62,29.316 4.158,28.854 C4.032,28.728 3.948,26.88 3.948,19.614 L3.948,16.002 C3.948,15.918 3.99,15.876 4.116,15.834 C4.494,15.834 6.468,15.75 7.812,15.876 C9.618,16.002 11.34,16.254 12.81,17.43 C15.162,19.236 15.582,21.168 15.582,23.058 Z M0.42,19.614 C0.42,25.074 0.252,30.072 0.126,31.752 C0.756,31.71 1.932,31.668 2.562,31.71 C3.528,31.752 5.544,32.004 8.442,32.004 C15.876,32.004 19.362,27.384 19.362,22.554 C19.362,17.766 16.002,15.12 12.474,14.112 C14.28,13.104 16.506,10.878 16.506,7.35 C16.506,4.242 14.784,0 7.602,0 C5.46,0 3.444,0.168 1.89,0.168 C1.26,0.168 0.546,0.126 0,0.084 C0.336,1.596 0.42,6.216 0.42,12.222 L0.42,19.614 Z" id="Shape"></path>
                <path d="M25.2565,21.42 C25.2565,25.998 25.0885,30.576 24.9625,31.794 C25.3405,31.752 26.4745,31.668 27.3145,31.668 C27.9445,31.668 28.7425,31.71 29.0785,31.752 C28.8685,30.744 28.7425,25.872 28.7425,21.42 L28.7425,15.12 C28.7425,10.08 28.8685,6.132 28.9945,4.788 C28.7005,4.83 27.7765,4.914 26.6005,4.914 C26.0545,4.914 25.2565,4.914 24.8785,4.872 C25.1305,5.838 25.2565,10.038 25.2565,15.12 L25.2565,21.42 Z" id="Path"></path>
                <path d="M41.567,7.224 C41.567,7.098 41.609,7.056 41.693,7.056 C41.903,6.93 42.659,6.846 43.961,6.846 C47.657,6.846 49.505,8.736 49.505,11.76 C49.505,13.272 48.833,14.91 47.363,15.876 C46.901,16.17 46.565,16.212 45.893,16.212 C45.305,16.212 42.449,16.128 41.735,16.128 C41.609,16.086 41.567,16.044 41.567,15.96 L41.567,7.224 Z M51.605,24.318 C51.605,28.098 48.665,29.82 45.641,29.82 C43.499,29.82 42.113,29.4 41.735,29.064 C41.651,28.98 41.567,27.216 41.567,21.42 L41.567,18.48 C41.567,18.438 41.609,18.354 41.693,18.312 C42.071,18.312 43.835,18.228 44.843,18.354 C46.565,18.48 48.077,18.732 49.253,19.698 C51.143,21.168 51.605,22.764 51.605,24.318 Z M38.165,21.42 C38.165,26.04 37.997,30.282 37.871,31.752 C38.501,31.71 39.551,31.668 40.181,31.71 C41.021,31.752 42.911,31.962 45.473,31.962 C52.025,31.962 55.259,28.056 55.259,23.898 C55.259,19.908 52.403,17.64 49.211,16.716 C50.891,15.834 52.739,14.028 52.739,11.004 C52.739,8.358 51.185,4.788 44.801,4.788 C42.449,4.788 40.979,4.914 39.509,4.914 C38.879,4.914 38.207,4.872 37.703,4.83 C37.997,6.132 38.165,10.038 38.165,15.12 L38.165,21.42 Z" id="Shape"></path>
                <path d="M60.9435,21.42 C60.9435,26.502 60.8175,30.45 60.6915,31.752 C61.1535,31.626 61.7835,31.668 62.7495,31.668 C64.6395,31.668 67.1595,31.878 72.5775,31.878 C74.2575,31.878 74.6355,31.836 74.8455,31.794 C74.9715,31.206 75.3915,29.526 75.7275,28.854 C74.8035,29.316 73.2075,29.568 69.2175,29.568 C67.5795,29.568 66.3195,29.568 65.6055,29.442 C65.1435,29.4 64.8495,29.358 64.7235,29.232 C64.4715,29.106 64.4295,28.434 64.4295,21.126 L64.4295,15.036 C64.4295,9.996 64.6395,6.132 64.7655,4.788 C64.3035,4.914 63.2955,4.914 62.3295,4.914 C61.6995,4.914 60.9015,4.956 60.5655,4.83 C60.7755,5.838 60.9435,10.08 60.9435,15.12 L60.9435,21.42 Z" id="Path"></path>
                <path d="M80.316,21.42 C80.316,26.502 80.106,30.45 79.98,31.752 C80.442,31.71 81.366,31.668 82.5,31.668 C84.054,31.668 86.868,31.878 91.95,31.878 C93.336,31.878 93.756,31.836 93.882,31.794 C94.008,30.996 94.344,29.652 94.638,28.854 C93.504,29.316 91.866,29.568 88.464,29.568 C86.826,29.568 85.692,29.526 84.81,29.4 C84.432,29.358 84.138,29.274 84.012,29.19 C83.802,29.106 83.76,28.014 83.76,21.126 L83.76,18.732 C83.76,18.606 83.802,18.564 83.886,18.564 C84.6,18.564 88.842,18.564 90.102,18.69 C91.572,18.816 92.16,18.942 92.664,19.236 C92.664,18.438 92.79,16.884 93,16.044 C92.538,16.17 91.74,16.212 89.766,16.338 C88.674,16.338 84.474,16.38 83.886,16.38 C83.802,16.38 83.76,16.296 83.76,16.17 L83.76,7.266 C83.76,7.182 83.802,7.14 83.886,7.14 C86.91,7.14 89.094,7.224 90.27,7.266 C92.076,7.434 92.832,7.602 93.336,7.896 C93.336,6.594 93.462,5.334 93.588,4.704 C92.916,4.872 91.404,4.914 90.606,4.914 L82.29,4.914 C81.45,4.914 80.4,4.956 79.896,4.83 C80.19,5.838 80.316,9.282 80.316,15.12 L80.316,21.42 Z" id="Path"></path>
                <path d="M107.343,0.084 C108.309,1.638 109.569,4.998 110.577,8.106 L117.675,30.282 C118.221,31.92 118.347,32.382 118.641,32.382 C118.935,32.382 119.145,31.752 119.775,30.45 C121.665,25.494 126.579,12.768 128.763,7.392 L136.995,30.828 C137.373,31.71 137.625,32.382 137.919,32.382 C138.129,32.382 138.381,31.92 138.885,30.618 C141.909,22.344 145.689,11.424 146.571,9.072 C148.419,3.738 149.553,1.26 150.183,0.042 C149.637,0.084 148.797,0.168 147.663,0.168 C147.201,0.168 146.571,0.21 146.109,0.084 C145.899,1.722 145.269,4.158 143.925,8.358 C142.371,13.398 139.641,20.706 138.297,24.738 L130.149,1.68 C129.813,0.882 129.519,0.252 129.351,0.252 C129.183,0.252 129.057,0.546 128.595,1.512 L119.565,24.78 L114.063,6.93 C113.223,4.032 112.593,1.428 112.299,0.042 C111.837,0.084 110.745,0.168 109.611,0.168 C108.645,0.168 107.805,0.126 107.343,0.084 Z" id="Path"></path>
                <path d="M165.3135,22.638 C165.3975,22.638 165.4395,22.68 165.4815,22.722 C166.6155,25.578 168.6315,30.114 169.1775,31.794 C169.6815,31.668 170.8575,31.668 171.8235,31.668 C172.2855,31.668 172.9575,31.71 173.6715,31.752 C172.7055,30.324 170.6055,25.746 168.9255,21.924 C165.5655,14.742 161.9535,6.636 161.5335,5.796 C160.9875,4.578 160.7775,4.284 160.6095,4.284 C160.3995,4.284 160.1895,4.662 159.6855,5.796 L152.4615,23.184 C150.9075,26.754 149.5635,29.904 148.5975,31.794 C148.9335,31.752 149.8575,31.668 150.7395,31.668 C151.5795,31.668 151.8735,31.626 152.3355,31.752 C152.7555,30.114 154.3935,25.788 155.5275,22.722 C155.5275,22.68 155.5695,22.638 155.6955,22.638 L165.3135,22.638 Z M156.4935,20.37 C156.3675,20.37 156.3675,20.328 156.4095,20.244 L160.2735,10.206 L164.5575,20.244 C164.5575,20.328 164.5155,20.37 164.4315,20.37 L156.4935,20.37 Z" id="Shape"></path>
                <path d="M170.574,7.812 C171.624,7.476 172.926,7.35 175.572,7.224 C177.966,7.098 178.932,7.14 180.654,7.14 L180.654,21.42 C180.654,25.998 180.486,30.576 180.36,31.794 C180.822,31.668 181.83,31.668 182.796,31.668 C183.426,31.668 184.056,31.626 184.434,31.752 C184.308,30.408 184.14,25.746 184.14,21.252 L184.14,7.14 C186.828,7.14 188.424,7.182 189.978,7.308 C192.372,7.434 193.38,7.56 194.01,8.022 C194.052,7.014 194.22,5.502 194.43,4.62 C193.842,4.83 190.944,4.914 188.844,4.914 L176.748,4.914 C173.556,4.914 172.086,4.788 171.204,4.578 C171.078,5.418 170.784,7.182 170.574,7.812 Z" id="Path"></path>
                <path d="M212.4165,32.256 C215.6085,32.256 218.7165,31.668 220.1865,31.038 C220.3125,30.198 220.5645,28.602 220.8585,27.762 C218.9685,29.106 216.0285,29.694 212.7945,29.694 C203.5125,29.694 199.8585,23.226 199.8585,17.514 C199.8585,14.49 200.6565,11.592 203.0505,9.282 C204.4785,7.98 206.8305,6.552 211.1985,6.552 C215.8605,6.552 219.0105,8.022 220.4805,9.492 C220.5225,8.19 220.7325,6.594 221.0265,5.88 C219.5145,5.46 216.4905,4.284 211.4505,4.284 C205.9065,4.284 202.3365,5.964 199.9845,8.19 C196.5825,11.34 195.9525,15.204 195.9525,17.892 C195.9525,21.042 196.9605,25.326 200.4885,28.434 C203.5545,31.122 207.4185,32.256 212.4165,32.256 Z" id="Path"></path>
                <path d="M226.749,21.42 C226.749,26.04 226.581,30.324 226.455,31.794 C226.959,31.668 227.925,31.668 228.891,31.668 C229.521,31.668 230.151,31.71 230.529,31.752 C230.319,30.282 230.193,25.872 230.193,21.42 L230.193,18.27 C230.193,18.186 230.235,18.144 230.319,18.144 L245.775,18.144 C245.817,18.144 245.859,18.186 245.859,18.27 L245.859,21.42 C245.859,26.04 245.691,30.366 245.565,31.794 C245.775,31.752 247.077,31.668 247.875,31.668 C248.421,31.668 249.177,31.626 249.639,31.752 C249.429,30.282 249.303,25.872 249.303,21.42 L249.303,15.12 C249.303,10.038 249.471,6.09 249.639,4.788 C249.009,4.914 248.127,4.914 247.329,4.914 C246.615,4.914 246.027,4.956 245.565,4.83 C245.733,6.132 245.859,9.702 245.859,14.784 L245.859,15.414 C245.859,15.54 245.817,15.582 245.733,15.582 L230.319,15.582 C230.235,15.582 230.193,15.54 230.193,15.414 L230.193,14.784 C230.193,9.534 230.319,6.09 230.445,4.788 C229.941,4.83 229.017,4.914 228.135,4.914 C227.505,4.914 226.791,4.956 226.329,4.83 C226.623,6.174 226.749,10.038 226.749,15.12 L226.749,21.42 Z" id="Path"></path>
                <path d="M270.492,19.614 C270.492,25.578 270.324,30.282 270.198,31.752 C270.702,31.626 271.332,31.668 272.298,31.668 C274.314,31.668 277.254,31.92 283.428,31.92 C285.318,31.92 285.738,31.878 285.948,31.836 C286.074,31.206 286.578,29.358 286.914,28.602 C285.906,29.064 284.226,29.442 279.522,29.442 C277.716,29.442 276.246,29.442 275.406,29.316 C274.944,29.274 274.608,29.148 274.398,29.022 C274.146,28.896 274.104,27.804 274.104,19.32 L274.104,12.096 C274.104,6.174 274.272,1.596 274.44,0.042 C274.062,0.168 272.886,0.168 271.92,0.168 C271.416,0.168 270.408,0.21 270.072,0.084 C270.282,1.344 270.492,6.174 270.492,12.222 L270.492,19.614 Z" id="Path"></path>
                <path d="M291.5805,21.42 C291.5805,25.998 291.4125,30.576 291.2865,31.794 C291.6645,31.752 292.7985,31.668 293.6385,31.668 C294.2685,31.668 295.0665,31.71 295.4025,31.752 C295.1925,30.744 295.0665,25.872 295.0665,21.42 L295.0665,15.12 C295.0665,10.08 295.1925,6.132 295.3185,4.788 C295.0245,4.83 294.1005,4.914 292.9245,4.914 C292.3785,4.914 291.5805,4.914 291.2025,4.872 C291.4545,5.838 291.5805,10.038 291.5805,15.12 L291.5805,21.42 Z" id="Path"></path>
                <path d="M301.203,30.786 C302.505,31.626 304.941,32.256 307.335,32.256 C309.183,32.256 311.409,31.92 313.089,30.786 C315.651,28.98 316.449,26.208 316.449,24.612 C316.449,21.84 315.567,19.656 311.115,16.884 L309.309,15.75 C306.075,13.608 305.571,12.306 305.571,10.458 C305.571,8.106 307.419,6.552 310.149,6.552 C313.131,6.552 314.895,7.77 315.567,8.61 C315.567,7.266 315.777,5.292 315.903,4.914 L313.971,4.62 C313.131,4.452 311.829,4.284 310.359,4.284 C305.193,4.284 302.211,7.392 302.211,11.214 C302.211,13.692 303.219,16.128 307.125,18.606 L308.973,19.782 C312.123,21.798 312.879,23.142 312.879,25.326 C312.879,27.846 311.157,29.904 307.755,29.904 C304.899,29.904 302.547,28.392 301.497,27.006 C301.497,28.14 301.329,30.198 301.203,30.786 Z" id="Path"></path>
                <path d="M318.7695,7.812 C319.8195,7.476 321.1215,7.35 323.7675,7.224 C326.1615,7.098 327.1275,7.14 328.8495,7.14 L328.8495,21.42 C328.8495,25.998 328.6815,30.576 328.5555,31.794 C329.0175,31.668 330.0255,31.668 330.9915,31.668 C331.6215,31.668 332.2515,31.626 332.6295,31.752 C332.5035,30.408 332.3355,25.746 332.3355,21.252 L332.3355,7.14 C335.0235,7.14 336.6195,7.182 338.1735,7.308 C340.5675,7.434 341.5755,7.56 342.2055,8.022 C342.2475,7.014 342.4155,5.502 342.6255,4.62 C342.0375,4.83 339.1395,4.914 337.0395,4.914 L324.9435,4.914 C321.7515,4.914 320.2815,4.788 319.3995,4.578 C319.2735,5.418 318.9795,7.182 318.7695,7.812 Z" id="Path"></path>
            </g>
        </g>
    </g>
</svg>