<?xml version="1.0" encoding="UTF-8"?>
<svg width="116px" height="116px" viewBox="0 0 116 116" version="1.1" xmlns="http://www.w3.org/2000/svg" xmlns:xlink="http://www.w3.org/1999/xlink">
    <title>ctbg</title>
    <g id="Page-1" stroke="none" stroke-width="1" fill="none" fill-rule="evenodd">
        <g id="BWL---Style-Guide-and-CDN-Images" transform="translate(-1756, -1103)" fill-rule="nonzero">
            <g id="ctbg" transform="translate(1756, 1103)">
                <g id="Group" transform="translate(25.42, 39.26)">
                    <g transform="translate(0, -0)" fill="#000000">
                        <path d="M0.91,3.53 C1.52,2.43 2.36,1.58 3.45,0.96 C4.54,0.35 5.77,0.04 7.14,0.04 C8.83,0.04 10.27,0.48 11.47,1.37 C12.67,2.26 13.47,3.47 13.88,5.01 L10.08,5.01 C9.8,4.42 9.4,3.97 8.88,3.66 C8.36,3.35 7.77,3.19 7.11,3.19 C6.04,3.19 5.18,3.56 4.52,4.3 C3.86,5.04 3.53,6.03 3.53,7.27 C3.53,8.51 3.86,9.5 4.52,10.24 C5.18,10.98 6.04,11.35 7.11,11.35 C7.77,11.35 8.36,11.2 8.88,10.88 C9.4,10.57 9.8,10.12 10.08,9.53 L13.88,9.53 C13.48,11.07 12.67,12.28 11.47,13.16 C10.27,14.04 8.83,14.48 7.14,14.48 C5.76,14.48 4.53,14.17 3.45,13.56 C2.36,12.95 1.52,12.09 0.91,11 C0.3,9.91 0,8.66 0,7.26 C0,5.86 0.3,4.61 0.91,3.51 L0.91,3.53 Z" id="Path"></path>
                        <polygon id="Path" points="19.86 11.73 24.39 11.73 24.39 14.4 16.4 14.4 16.4 0.2 19.86 0.2 19.86 11.73"></polygon>
                        <path d="M29.5,13.61 C28.39,12.99 27.5,12.12 26.85,11.01 C26.2,9.9 25.87,8.65 25.87,7.26 C25.87,5.87 26.2,4.62 26.85,3.52 C27.5,2.42 28.39,1.55 29.5,0.93 C30.61,0.31 31.84,0 33.17,0 C34.5,0 35.73,0.31 36.84,0.93 C37.95,1.55 38.83,2.41 39.47,3.52 C40.11,4.63 40.43,5.87 40.43,7.26 C40.43,8.65 40.11,9.9 39.46,11.01 C38.81,12.12 37.94,12.99 36.83,13.61 C35.72,14.23 34.5,14.54 33.17,14.54 C31.84,14.54 30.61,14.23 29.5,13.61 L29.5,13.61 Z M35.89,10.25 C36.57,9.49 36.91,8.5 36.91,7.26 C36.91,6.02 36.57,5 35.89,4.26 C35.21,3.51 34.3,3.14 33.17,3.14 C32.04,3.14 31.11,3.51 30.43,4.25 C29.75,4.99 29.41,6 29.41,7.26 C29.41,8.52 29.75,9.51 30.43,10.26 C31.11,11.01 32.02,11.38 33.17,11.38 C34.32,11.38 35.21,11 35.89,10.25 L35.89,10.25 Z" id="Shape"></path>
                        <path d="M45.1,14.04 C44.28,13.7 43.62,13.2 43.13,12.54 C42.64,11.88 42.38,11.08 42.35,10.15 L46.03,10.15 C46.08,10.68 46.27,11.08 46.58,11.35 C46.89,11.63 47.29,11.76 47.79,11.76 C48.29,11.76 48.71,11.64 49,11.41 C49.3,11.17 49.44,10.85 49.44,10.43 C49.44,10.08 49.32,9.79 49.09,9.56 C48.86,9.33 48.56,9.14 48.22,8.99 C47.88,8.84 47.39,8.67 46.75,8.48 C45.83,8.2 45.08,7.91 44.51,7.63 C43.93,7.35 43.43,6.93 43.01,6.38 C42.59,5.83 42.38,5.11 42.38,4.22 C42.38,2.9 42.86,1.86 43.82,1.12 C44.78,0.37 46.02,7.10542736e-15 47.56,7.10542736e-15 C49.1,7.10542736e-15 50.38,0.37 51.34,1.12 C52.3,1.87 52.81,2.91 52.88,4.24 L49.14,4.24 C49.11,3.78 48.94,3.42 48.63,3.16 C48.32,2.9 47.92,2.77 47.44,2.77 C47.02,2.77 46.68,2.88 46.43,3.1 C46.17,3.32 46.05,3.64 46.05,4.06 C46.05,4.52 46.27,4.88 46.7,5.13 C47.13,5.39 47.81,5.66 48.72,5.96 C49.64,6.27 50.38,6.57 50.95,6.85 C51.52,7.13 52.02,7.54 52.44,8.08 C52.86,8.62 53.07,9.31 53.07,10.16 C53.07,11.01 52.86,11.7 52.45,12.36 C52.04,13.02 51.44,13.55 50.66,13.94 C49.88,14.33 48.95,14.53 47.89,14.53 C46.83,14.53 45.92,14.36 45.1,14.02 L45.1,14.04 Z" id="Path"></path>
                        <polygon id="Path" points="59.06 2.98 59.06 5.85 63.69 5.85 63.69 8.52 59.06 8.52 59.06 11.63 64.3 11.63 64.3 14.4 55.6 14.4 55.6 0.2 64.3 0.2 64.3 2.97 59.06 2.97"></polygon>
                    </g>
                    <g transform="translate(11.33, 28.85)" fill="#040404">
                        <path d="M10.03,4.65 C9.77,4.18 9.41,3.82 8.93,3.57 C8.45,3.32 7.89,3.2 7.24,3.2 C6.12,3.2 5.22,3.57 4.55,4.3 C3.88,5.03 3.54,6.02 3.54,7.24 C3.54,8.55 3.89,9.57 4.6,10.3 C5.31,11.04 6.28,11.4 7.52,11.4 C8.37,11.4 9.09,11.18 9.67,10.75 C10.26,10.32 10.68,9.7 10.95,8.89 L6.56,8.89 L6.56,6.34 L14.08,6.34 L14.08,9.56 C13.82,10.42 13.39,11.23 12.78,11.97 C12.17,12.71 11.39,13.31 10.44,13.77 C9.5,14.23 8.43,14.46 7.24,14.46 C5.84,14.46 4.59,14.15 3.49,13.54 C2.39,12.93 1.54,12.07 0.92,10.98 C0.31,9.89 7.10542736e-15,8.64 7.10542736e-15,7.24 C7.10542736e-15,5.84 0.31,4.59 0.92,3.49 C1.53,2.39 2.39,1.54 3.48,0.92 C4.57,0.31 5.82,0 7.22,0 C8.92,0 10.35,0.41 11.52,1.23 C12.69,2.05 13.46,3.19 13.84,4.65 L10.02,4.65 L10.03,4.65 Z" id="Path"></path>
                        <path d="M24.22,0.16 L20.22,0.16 L15.08,14.36 L18.7,14.36 L19.55,11.85 L21.23,11.85 C21.23,11.85 21.23,9.22 21.24,9.18 L20.46,9.18 L22.2,3.98 L23.96,9.18 L23.18,9.18 C23.18,9.18 23.19,11.85 23.19,11.85 L24.84,11.85 L25.69,14.36 L29.35,14.36 L24.21,0.16 L24.22,0.16 Z" id="Path"></path>
                        <path d="M41.17,6.99 C40.79,7.67 40.21,8.22 39.43,8.64 C38.65,9.06 37.68,9.27 36.52,9.27 L34.38,9.27 L34.38,14.37 L30.92,14.37 L30.92,0.17 L36.52,0.17 C37.65,0.17 38.61,0.37 39.39,0.76 C40.17,1.15 40.76,1.69 41.15,2.38 C41.54,3.07 41.74,3.86 41.74,4.75 C41.74,5.57 41.55,6.32 41.17,7.01 L41.17,6.99 Z M37.73,6.05 C38.05,5.74 38.22,5.3 38.22,4.74 C38.22,4.18 38.06,3.74 37.73,3.43 C37.41,3.12 36.91,2.97 36.25,2.97 L34.37,2.97 L34.37,6.53 L36.25,6.53 C36.91,6.53 37.4,6.38 37.73,6.07 L37.73,6.05 Z" id="Shape"></path>
                    </g>
                    <g transform="translate(0.09, 16.78)" fill="#000000">
                        <polygon id="Path" points="7.62 0.01 7.62 1.94 5.01 1.94 5.01 9.88 2.61 9.88 2.61 1.94 0 1.94 0 0.01 7.63 0.01"></polygon>
                        <polygon id="Path" points="17.09 0.01 17.09 9.87 14.69 9.87 14.69 5.81 10.95 5.81 10.95 9.87 8.55 9.87 8.55 0.01 10.95 0.01 10.95 3.87 14.69 3.87 14.69 0.01"></polygon>
                        <polygon id="Path" points="20.94 1.93 20.94 3.93 24.16 3.93 24.16 5.78 20.94 5.78 20.94 7.94 24.58 7.94 24.58 9.87 18.54 9.87 18.54 0.01 24.58 0.01 24.58 1.94 20.94 1.94"></polygon>
                        <path d="M36.18,5.66 C36.53,6.1 36.7,6.61 36.7,7.18 C36.7,8 36.41,8.66 35.84,9.14 C35.26,9.62 34.46,9.86 33.43,9.86 L28.84,9.86 L28.84,1.42108547e-14 L33.28,1.42108547e-14 C34.28,1.42108547e-14 35.07,0.23 35.63,0.69 C36.2,1.15 36.48,1.77 36.48,2.56 C36.48,3.14 36.33,3.62 36.02,4.01 C35.72,4.39 35.31,4.66 34.8,4.81 C35.37,4.93 35.83,5.22 36.18,5.66 Z M31.23,3.99 L32.8,3.99 C33.19,3.99 33.5,3.9 33.71,3.73 C33.92,3.56 34.03,3.3 34.03,2.96 C34.03,2.62 33.92,2.37 33.71,2.19 C33.5,2.01 33.2,1.92 32.8,1.92 L31.23,1.92 L31.23,3.99 L31.23,3.99 Z M33.93,7.65 C34.15,7.47 34.26,7.2 34.26,6.86 C34.26,6.52 34.15,6.24 33.92,6.04 C33.69,5.84 33.37,5.75 32.97,5.75 L31.23,5.75 L31.23,7.93 L33,7.93 C33.4,7.93 33.71,7.84 33.93,7.66 L33.93,7.65 Z" id="Shape"></path>
                        <polygon id="Path" points="40.5 0.01 40.5 9.87 38.1 9.87 38.1 0.01"></polygon>
                        <path d="M49.59,5.66 C49.94,6.1 50.11,6.61 50.11,7.18 C50.11,8 49.82,8.66 49.25,9.14 C48.67,9.62 47.87,9.86 46.84,9.86 L42.25,9.86 L42.25,1.42108547e-14 L46.69,1.42108547e-14 C47.69,1.42108547e-14 48.48,0.23 49.04,0.69 C49.61,1.15 49.89,1.77 49.89,2.56 C49.89,3.14 49.74,3.62 49.43,4.01 C49.13,4.39 48.72,4.66 48.21,4.81 C48.78,4.93 49.24,5.22 49.59,5.66 L49.59,5.66 Z M44.64,3.99 L46.21,3.99 C46.6,3.99 46.91,3.9 47.12,3.73 C47.33,3.56 47.44,3.3 47.44,2.96 C47.44,2.62 47.33,2.37 47.12,2.19 C46.91,2.01 46.61,1.92 46.21,1.92 L44.64,1.92 L44.64,3.99 L44.64,3.99 Z M47.34,7.65 C47.56,7.47 47.67,7.2 47.67,6.86 C47.67,6.52 47.56,6.24 47.33,6.04 C47.1,5.84 46.78,5.75 46.38,5.75 L44.64,5.75 L44.64,7.93 L46.41,7.93 C46.81,7.93 47.12,7.84 47.34,7.66 L47.34,7.65 Z" id="Shape"></path>
                        <polygon id="Path" points="53.9 8.01 57.05 8.01 57.05 9.86 51.5 9.86 51.5 0 53.9 0 53.9 8.01"></polygon>
                        <polygon id="Path" points="60.61 1.93 60.61 3.93 63.83 3.93 63.83 5.78 60.61 5.78 60.61 7.94 64.25 7.94 64.25 9.87 58.21 9.87 58.21 0.01 64.25 0.01 64.25 1.94 60.61 1.94"></polygon>
                    </g>
                </g>
                <g id="Group" fill="#090808">
                    <path d="M115.18,115.18 L0,115.18 L0,0 L115.18,0 L115.18,115.18 Z M0.97,114.21 L114.21,114.21 L114.21,0.97 L0.97,0.97 L0.97,114.21 Z" id="Shape"></path>
                    <path d="M45.87,114.35 C36.48,114.35 34.01,114.16 33.29,114 L33.29,114 C33.29,114 2.79,112.39 2.79,112.39 L1.17,81.87 L1.17,81.87 C1.01,81.15 0.82,78.68 0.82,69.3 C0.82,59.92 1.01,57.44 1.17,56.73 L1.17,56.73 L4.37,1.45 L4.5,1.32 C4.66,1.16 5.03,0.8 32.81,0.83 C53.22,0.84 57.47,1.03 58.45,1.2 L58.45,1.18 C58.45,1.18 113.73,4.37 113.73,4.37 L113.86,4.5 C114.03,4.67 114.35,4.99 114.35,31.63 C114.35,52.94 114.15,57.41 113.98,58.43 L114.01,58.43 C114.01,58.43 112.4,112.39 112.4,112.39 L58.44,113.99 L58.44,113.99 C57.71,114.15 55.21,114.34 45.87,114.34 L45.87,114.35 Z M33.59,113.1 C35.38,113.47 56.37,113.47 58.16,113.1 L58.22,113.04 L58.41,113.04 C58.41,113.04 111.46,111.46 111.46,111.46 L113.04,58.22 L113.08,58.18 C113.46,55.38 113.47,9.76 113.1,5.31 L58.21,2.14 L58.17,2.1 C55.37,1.72 9.75,1.71 5.3,2.08 L2.13,56.97 L2.08,57.02 C1.71,58.81 1.71,79.79 2.08,81.58 L2.14,81.64 L2.14,81.83 C2.14,81.83 3.72,111.47 3.72,111.47 L33.54,113.05 L33.6,113.11 L33.59,113.1 Z" id="Shape"></path>
                    <path d="M47.04,113.52 C42.94,113.52 36.15,113.43 34.7,112.82 L5.58,109.61 L2.36,80.47 C1.75,79.02 1.66,72.23 1.66,68.13 C1.66,64.03 1.75,57.23 2.36,55.79 L8.74,2.61 L8.86,2.49 C10,1.34 55.13,1.3 59.32,2.37 L59.32,2.35 C59.32,2.35 112.58,8.73 112.58,8.73 L112.7,8.85 C113.84,9.99 113.88,54.94 112.83,59.28 L112.85,59.28 C112.85,59.28 109.64,109.61 109.64,109.61 L59.39,112.81 C57.92,113.41 51.15,113.51 47.06,113.51 L47.04,113.52 Z M6.46,108.72 L35.05,111.88 L35.17,112 C36.57,112.75 57.51,112.75 58.96,111.96 L59.09,111.83 L59.23,111.86 L108.71,108.7 L111.88,59.04 L111.96,58.96 C112.76,56.44 112.77,13.47 112,9.64 L59.03,3.3 L58.97,3.23 C56.45,2.43 13.48,2.42 9.65,3.19 L3.3,56.15 L3.18,56.27 C2.43,57.67 2.43,78.6 3.22,80.05 L3.34,80.17 L3.32,80.29 L6.46,108.73 L6.46,108.72 Z" id="Shape"></path>
                    <path d="M48.21,112.69 C45.71,112.69 37.7,112.61 36.14,111.63 L8.36,106.82 L3.54,79.03 C2.56,77.47 2.48,69.46 2.48,66.96 C2.48,64.46 2.56,56.44 3.55,54.89 L13.11,3.77 L13.22,3.66 C14.31,2.57 31.57,2.48 36.83,2.48 C42.09,2.48 58.01,2.56 60.24,3.53 L111.41,13.09 L111.52,13.2 C112.61,14.29 112.7,31.55 112.7,36.81 C112.7,42.07 112.62,57.9 111.65,60.2 L106.84,106.82 L60.27,111.62 C58.67,112.59 50.7,112.67 48.22,112.67 L48.21,112.69 Z M9.2,105.98 L36.57,110.72 L36.68,110.83 C38.08,112.03 58.35,112.03 59.75,110.83 L59.86,110.73 L60.04,110.69 L105.95,105.96 L110.7,59.88 L110.82,59.76 C112.03,57.68 112.05,17.31 110.85,14 L59.85,4.46 L59.77,4.38 C57.49,3.15 17.29,3.14 13.99,4.33 L4.46,55.32 L4.35,55.43 C3.15,56.83 3.15,77.09 4.35,78.49 L4.44,78.59 L4.49,78.75 L9.21,105.98 L9.2,105.98 Z" id="Shape"></path>
                    <path d="M49.39,111.84 C44.14,111.84 38.88,111.37 37.63,110.44 L11.16,104.04 L4.75,77.55 C2.89,75.04 2.89,56.53 4.75,54.03 L17.48,4.93 L17.57,4.84 C19.58,2.83 57.84,2.8 61.13,4.73 L110.25,17.47 L110.34,17.56 C111.79,19.01 111.86,36.02 111.86,39.41 C111.86,42.8 111.79,58.85 110.46,61.1 L104.06,104.05 L61.13,110.45 C59.84,111.37 54.61,111.83 49.39,111.83 L49.39,111.84 Z M11.96,103.24 L38.1,109.56 L38.2,109.66 C39.87,111.33 58.92,111.33 60.59,109.66 L60.7,109.55 L103.21,103.21 L109.55,60.7 L109.66,60.59 C111.28,58.64 111.3,21.16 109.72,18.35 L60.68,5.62 L60.59,5.53 C58.62,3.91 21.16,3.89 18.34,5.47 L5.62,54.5 L5.53,54.59 C3.86,56.26 3.86,75.3 5.53,76.97 L5.63,77.07 L11.96,103.23 L11.96,103.24 Z" id="Shape"></path>
                    <path d="M50.56,111.03 C48.97,111.03 41.06,110.94 39.11,109.25 L13.94,101.26 L5.93,76.07 C3.56,73.29 3.57,55.94 5.93,53.17 L21.85,6.1 L21.93,6.02 C23.71,4.24 38.98,4.15 42.02,4.15 C45.06,4.15 59.83,4.24 62.01,5.93 L109.09,21.85 L109.17,21.93 C111.57,24.33 111.61,58.6 109.28,61.97 L101.28,101.28 L61.99,109.27 C60,110.95 52.14,111.03 50.56,111.03 Z M14.71,100.48 L39.62,108.39 L39.7,108.47 C41.83,110.6 59.29,110.6 61.42,108.47 L61.52,108.37 L61.66,108.34 L100.45,100.45 L108.37,61.52 L108.47,61.42 C110.62,59.27 110.65,25.48 108.53,22.69 L61.5,6.78 L61.42,6.7 C59.27,4.55 25.48,4.52 22.69,6.64 L6.78,53.68 L6.7,53.76 C4.57,55.89 4.57,73.34 6.7,75.47 L6.78,75.55 L14.7,100.48 L14.71,100.48 Z" id="Shape"></path>
                    <path d="M51.73,110.2 C47.45,110.2 42.31,109.64 40.6,108.06 L16.72,98.48 L7.12,74.58 C4.28,71.48 4.29,55.41 7.12,52.32 L26.22,7.26 L26.29,7.19 C27.92,5.55 37.18,4.97 44.62,4.97 C52.06,4.97 61.04,5.53 62.87,7.11 L107.93,26.21 L108,26.28 C109.64,27.92 110.22,37.17 110.22,44.61 C110.22,52.05 109.66,60.94 108.1,62.83 L98.51,98.49 L62.85,108.08 C61.11,109.64 56,110.2 51.74,110.2 L51.73,110.2 Z M17.46,97.73 L41.14,107.23 L41.21,107.3 C42.37,108.45 46.59,109.23 51.73,109.23 C56.87,109.23 61.1,108.45 62.25,107.3 L62.34,107.21 L97.7,97.7 L107.21,62.34 L107.3,62.25 C108.42,61.13 109.23,53.71 109.23,44.61 C109.23,35.51 108.44,28.34 107.35,27.03 L62.32,7.94 L62.25,7.87 C61.13,6.75 53.71,5.94 44.61,5.94 C35.51,5.94 28.34,6.72 27.03,7.81 L7.94,52.86 L7.87,52.93 C5.31,55.49 5.31,71.41 7.87,73.97 L7.98,74.13 L17.46,97.74 L17.46,97.73 Z" id="Shape"></path>
                    <path d="M52.9,109.37 C48.93,109.37 44.02,108.71 42.09,106.87 L19.49,95.7 L8.3,73.08 C4.92,69.54 4.92,54.99 8.3,51.46 L30.59,8.42 L30.64,8.37 C34.03,4.98 60.08,4.96 63.71,8.31 L106.76,30.59 L106.81,30.64 C110.19,34.02 110.22,59.95 106.89,63.69 L95.71,95.72 L63.69,106.9 C61.74,108.73 56.86,109.38 52.9,109.38 L52.9,109.37 Z M20.22,94.97 L42.72,106.12 C45.77,109.17 60.04,109.17 63.09,106.12 L63.27,106 L94.95,94.94 L106.05,63.15 L106.13,63.07 C109.08,60.12 109.1,34.56 106.18,31.36 L63.14,9.11 L63.09,9.06 C60.14,6.11 34.58,6.09 31.38,9.01 L9.1,52.04 L9.05,52.09 C6,55.14 6,69.41 9.05,72.45 L9.14,72.58 L20.21,94.97 L20.22,94.97 Z" id="Shape"></path>
                    <path d="M54.07,108.52 C49.8,108.52 45.52,107.57 43.58,105.68 L22.26,92.93 L9.49,71.59 C5.71,67.71 5.71,54.49 9.49,50.61 L35,9.54 C38.86,5.68 60.58,5.67 64.57,9.5 L105.64,35 C107.79,37.15 108.55,44.32 108.55,49.8 C108.55,55.28 107.8,62.31 105.71,64.54 L92.94,92.93 L92.77,93.01 L64.55,105.7 C62.6,107.58 58.34,108.51 54.08,108.51 L54.07,108.52 Z M22.97,92.22 L44.22,104.95 C47.72,108.45 60.42,108.45 63.91,104.95 L64.05,104.85 L92.18,92.2 L104.87,63.98 L104.93,63.92 C106.5,62.35 107.55,56.68 107.55,49.8 C107.55,42.92 106.51,37.34 104.96,35.72 L63.92,10.23 C60.37,6.68 39.4,6.67 35.72,10.19 L10.23,51.26 C6.73,54.76 6.73,67.45 10.23,70.95 L10.3,71.04 L22.98,92.22 L22.97,92.22 Z" id="Shape"></path>
                    <path d="M55.25,107.72 C50.9,107.72 47.09,106.5 45.05,104.47 L24.99,90.1 L10.66,70.07 C6.33,65.75 6.33,54.12 10.71,49.74 L39.31,10.77 C41.76,8.32 47.67,7.46 52.4,7.46 C57.13,7.46 63,8.31 65.42,10.69 L104.41,39.31 C108.84,43.73 108.85,60.94 104.51,65.4 L90.16,90.16 L65.4,104.51 C63.35,106.52 59.57,107.72 55.25,107.72 Z M25.74,89.47 L45.68,103.73 C47.57,105.61 51.21,106.75 55.25,106.75 C59.29,106.75 62.93,105.61 64.76,103.78 L64.86,103.7 L89.45,89.45 L103.78,64.76 C107.71,60.83 107.71,43.97 103.78,40.05 L64.76,11.41 C62.96,9.61 58.11,8.44 52.4,8.44 C46.69,8.44 41.85,9.61 40.04,11.41 L11.45,50.37 C7.4,54.42 7.4,65.44 11.4,69.44 L25.74,89.46 L25.74,89.47 Z" id="Shape"></path>
                    <path d="M56.44,106.89 C52.71,106.89 48.96,105.69 46.56,103.29 L27.84,87.42 L11.86,68.59 C9.6,66.33 8.29,62.74 8.29,58.76 C8.29,54.78 9.6,51.19 11.89,48.9 L43.69,11.92 C48.56,7.05 61.4,7.04 66.27,11.88 L103.27,43.69 C108.04,48.46 108.04,61.53 103.3,66.28 L87.34,87.43 L66.24,103.34 C63.88,105.71 60.17,106.89 56.45,106.89 L56.44,106.89 Z M55,9.24 C50.82,9.24 46.63,10.35 44.41,12.58 L12.6,49.56 C10.5,51.66 9.26,55.09 9.26,58.76 C9.26,62.43 10.5,65.86 12.57,67.93 L28.52,86.73 L47.21,102.57 C51.7,107.05 61.12,107.06 65.58,102.6 L86.68,86.69 L102.55,65.64 C107.05,61.13 107.05,48.85 102.59,44.4 L65.58,12.58 C63.35,10.35 59.17,9.24 54.98,9.24 L55,9.24 Z" id="Shape"></path>
                    <path d="M57.59,106.05 C54.14,106.05 50.69,104.74 48.07,102.11 L13.06,67.11 C7.81,61.86 7.81,53.32 13.06,48.07 L48.07,13.06 C53.32,7.81 61.86,7.81 67.11,13.06 L102.12,48.06 C107.37,53.31 107.37,61.85 102.12,67.1 L67.11,102.1 L66.77,101.76 L67.11,102.1 C64.49,104.72 61.04,106.04 57.59,106.04 L57.59,106.05 Z M57.59,10.1 C54.39,10.1 51.19,11.32 48.76,13.75 L13.75,48.76 C8.88,53.63 8.88,61.56 13.75,66.43 L48.76,101.43 C53.63,106.3 61.56,106.3 66.43,101.43 L101.44,66.43 C106.31,61.56 106.31,53.63 101.44,48.76 L66.42,13.75 C63.98,11.31 60.79,10.1 57.59,10.1 Z" id="Shape"></path>
                </g>
            </g>
        </g>
    </g>
</svg>