<?xml version="1.0" encoding="UTF-8"?>
<svg width="412px" height="50px" viewBox="0 0 412 50" version="1.1" xmlns="http://www.w3.org/2000/svg" xmlns:xlink="http://www.w3.org/1999/xlink">
    <title>dbs_banner</title>
    <g id="Page-1" stroke="none" stroke-width="1" fill="none" fill-rule="evenodd">
        <g id="Color-Palette" transform="translate(-1252, -582)">
            <g id="SPONSERS" transform="translate(1245, 580)">
                <g id="dbs_banner" transform="translate(7, 2)">
                    <g id="Group" transform="translate(116, 19)">
                        <path d="M0,21.3556486 L0,0.552301256 L4.29515283,0.552301256 C7.35659154,0.552301256 9.54986104,0.782426775 11.0120408,1.28870293 C13.0225378,2.0251046 14.5761037,3.26778243 15.6270454,4.9707113 C16.7693733,6.71966528 17.3176907,8.83682009 17.3176907,11.2301255 C17.3176907,13.3472803 16.9064526,15.1422594 15.9468972,16.7531381 C15.078728,18.3640168 13.890707,19.5146444 12.5199135,20.251046 C11.103427,20.9874477 9.09292993,21.4016736 6.5798086,21.4016736 L0,21.4016736 L0,21.3556486 L0,21.3556486 L0,21.3556486 Z M1.91911083,19.376569 L4.24945971,19.376569 C7.08243288,19.376569 9.04723682,19.2384937 10.1895647,18.8702929 C11.7431306,18.3640168 12.9768447,17.3974896 13.8450139,16.1087866 C14.7131831,14.8200837 15.2158073,13.1171548 15.2158073,11.2301255 C15.2158073,9.20502092 14.7131831,7.54811716 13.7993208,6.07531381 C12.8854585,4.60251046 11.5146651,3.68200837 9.82401977,3.17573222 C8.54461254,2.80753138 6.39703609,2.57740586 3.47267675,2.57740586 L2.05619018,2.57740586 L1.91911083,19.376569 L1.91911083,19.376569 L1.91911083,19.376569 L1.91911083,19.376569 Z" id="Shape" fill="#595959"></path>
                        <polygon id="Shape" fill="#595959" points="20.9731398 0.552301256 23.0293301 0.552301256 23.0293301 21.3556486 20.9731398 21.3556486"></polygon>
                        <path d="M47.4751466,4.0041841 L45.9215808,5.52301255 C44.7792529,4.37238494 43.4998456,3.49790795 42.1290522,2.89958159 C40.7582587,2.30125523 39.4331584,2.0251046 38.1537511,2.0251046 C36.508799,2.0251046 35.0009262,2.43933054 33.5844396,3.26778243 C32.1679531,4.05020921 31.0256252,5.15481172 30.2488422,6.53556483 C29.4720593,7.91631799 29.0151281,9.34309625 29.0151281,10.9079498 C29.0151281,12.5188284 29.4263662,13.9456067 30.2488422,15.41841 C31.1170114,16.7991632 32.2593393,17.9497908 33.6758258,18.7782427 C35.0923125,19.5606695 36.7372646,20.0209205 38.473603,20.0209205 C40.6211794,20.0209205 42.4032109,19.4225941 43.8196974,18.2259414 C45.236184,16.9832636 46.1500463,15.4644351 46.3785119,13.5313808 L39.7987033,13.5313808 L39.7987033,11.5062762 L48.6174745,11.5062762 C48.6174745,14.6820084 47.7036122,17.3054393 45.7845014,19.1924686 C43.9110836,21.0794979 41.4436555,22 38.2908305,22 C34.498302,22 31.5282495,20.7112971 29.2892868,18.0878661 C27.5986416,16.0627615 26.7304723,13.7154811 26.7304723,11.0460251 C26.7304723,9.06694558 27.2330966,7.17991633 28.2383452,5.52301255 C29.2435937,3.86610879 30.5230009,2.48535565 32.2136462,1.51882845 C33.9042915,0.598326362 35.8690954,0.0460251045 37.9709787,0.0460251045 C39.661624,0.0460251045 41.3065761,0.322175732 42.9058351,0.966527196 C44.4137079,1.61087866 45.9672739,2.62343096 47.4751466,4.0041841 L47.4751466,4.0041841 L47.4751466,4.0041841 Z" id="Shape" fill="#595959"></path>
                        <polygon id="Shape" fill="#595959" points="52.1815375 0.552301256 54.2377277 0.552301256 54.2377277 21.3556486 52.1815375 21.3556486"></polygon>
                        <polygon id="Shape" fill="#595959" points="56.9793146 2.57740586 56.9793146 0.552301256 68.1741281 0.552301256 68.1741281 2.57740586 63.6048163 2.57740586 63.6048163 21.3556486 61.5486261 21.3556486 61.5486261 2.57740586"></polygon>
                        <path d="M77.1299787,0.552301256 L86.6798395,21.3556486 L84.48657,21.3556486 L81.2880517,14.4518829 L72.4692809,14.4518829 L69.2707625,21.3556486 L67.0318,21.3556486 L76.7187406,0.552301256 L77.1299787,0.552301256 L77.1299787,0.552301256 L77.1299787,0.552301256 Z M76.9472058,4.9707113 L73.4288361,12.5188284 L80.4198825,12.5188284 L76.9472058,4.9707113 L76.9472058,4.9707113 L76.9472058,4.9707113 Z" id="Shape" fill="#595959"></path>
                        <polygon id="Shape" fill="#595959" points="89.9697439 0.552301256 92.0259336 0.552301256 92.0259336 19.4225941 99.9765359 19.4225941 99.9765359 21.4476987 90.06113 21.4476987 90.06113 0.552301256"></polygon>
                        <path d="M110.988577,0.552301256 L115.055264,0.552301256 C116.700216,0.552301256 117.888237,0.782426775 118.847792,1.15062762 C119.761655,1.51882845 120.401358,2.16317992 120.903983,2.9456067 C121.406607,3.72803347 121.680766,4.69456067 121.680766,5.61506276 C121.680766,6.53556483 121.4523,7.36401671 121.041062,8.14644355 C120.629824,8.92887031 119.99012,9.52719663 119.121951,9.94142257 C120.172893,10.3096234 120.995369,10.7238493 121.543686,11.2301255 C122.092004,11.7364017 122.548935,12.3347281 122.91448,13.0251046 C123.280025,13.7615063 123.417104,14.497908 123.417104,15.3263599 C123.417104,16.9832636 122.868787,18.4560669 121.635073,19.5146444 C120.401358,20.5732217 118.847792,21.2635983 116.791603,21.2635983 L111.171349,21.2635983 L111.171349,0.552301256 L110.988577,0.552301256 L110.988577,0.552301256 L110.988577,0.552301256 L110.988577,0.552301256 Z M113.09046,2.57740586 L113.09046,9.25104603 L114.232788,9.25104603 C115.649275,9.25104603 116.745909,9.11297069 117.385613,8.83682009 C118.025316,8.56066948 118.619327,8.10041843 118.939179,7.54811716 C119.304723,6.94979077 119.487496,6.30543933 119.487496,5.56903766 C119.487496,4.64853557 119.121951,3.91213389 118.482248,3.31380753 C117.842544,2.71548117 116.791603,2.53138075 115.329423,2.53138075 L113.044767,2.53138075 L113.09046,2.57740586 L113.09046,2.57740586 L113.09046,2.57740586 L113.09046,2.57740586 Z M113.09046,11.3682008 L113.09046,19.3305439 L115.649275,19.3305439 C117.157147,19.3305439 118.208089,19.1924686 118.939179,18.916318 C119.670268,18.6401674 120.218586,18.1338912 120.629824,17.5355648 C121.041062,16.8912134 121.269528,16.246862 121.269528,15.5104602 C121.269528,14.5899581 120.995369,13.7615063 120.355665,13.1171548 C119.807348,12.3807532 118.939179,11.9665272 117.93393,11.6443514 C117.202841,11.5062762 116.01482,11.3682008 114.278481,11.3682008 L113.09046,11.3682008 L113.09046,11.3682008 L113.09046,11.3682008 L113.09046,11.3682008 Z" id="Shape" fill="#2852AA"></path>
                        <polygon id="Shape" fill="#2852AA" points="127.02686 0.552301256 129.08305 0.552301256 129.08305 21.3556486 127.02686 21.3556486"></polygon>
                        <path d="M133.835135,0.552301256 L137.901821,0.552301256 C139.546774,0.552301256 140.734795,0.782426775 141.69435,1.15062762 C142.608212,1.51882845 143.247916,2.16317992 143.75054,2.9456067 C144.253165,3.72803347 144.527323,4.69456067 144.527323,5.61506276 C144.527323,6.53556483 144.298858,7.36401671 143.88762,8.14644355 C143.476381,8.92887031 142.836678,9.52719663 141.968509,9.94142257 C143.01945,10.3096234 143.841926,10.7238493 144.390244,11.2301255 C144.938562,11.7364017 145.395493,12.3347281 145.761038,13.0251046 C146.126582,13.7615063 146.263662,14.497908 146.263662,15.3263599 C146.263662,16.9832636 145.715344,18.4560669 144.48163,19.5146444 C143.247916,20.6192468 141.69435,21.2635983 139.63816,21.2635983 L133.972214,21.2635983 L133.972214,0.552301256 L133.835135,0.552301256 L133.835135,0.552301256 L133.835135,0.552301256 L133.835135,0.552301256 Z M135.891324,2.57740586 L135.891324,9.25104603 L137.033652,9.25104603 C138.450139,9.25104603 139.546774,9.11297069 140.186477,8.83682009 C140.826181,8.56066948 141.420191,8.10041843 141.740043,7.54811716 C142.105588,6.94979077 142.28836,6.30543933 142.28836,5.56903766 C142.28836,4.64853557 141.922816,3.91213389 141.283112,3.31380753 C140.643409,2.71548117 139.592467,2.53138075 138.130287,2.53138075 L135.891324,2.57740586 L135.891324,2.57740586 L135.891324,2.57740586 L135.891324,2.57740586 L135.891324,2.57740586 Z M135.891324,11.3682008 L135.891324,19.3305439 L138.450139,19.3305439 C139.958012,19.3305439 141.008953,19.1924686 141.740043,18.916318 C142.471133,18.6401674 143.01945,18.1338912 143.430688,17.5355648 C143.841926,16.8912134 144.070392,16.246862 144.070392,15.5104602 C144.070392,14.5899581 143.796233,13.7615063 143.156529,13.1171548 C142.608212,12.3807532 141.740043,11.9665272 140.734795,11.6443514 C140.003705,11.5062762 138.815684,11.3682008 137.079345,11.3682008 L135.891324,11.3682008 L135.891324,11.3682008 L135.891324,11.3682008 L135.891324,11.3682008 Z" id="Shape" fill="#2852AA"></path>
                        <polygon id="Shape" fill="#2852AA" points="150.238963 0.552301256 152.295153 0.552301256 152.295153 19.4225941 160.154368 19.4225941 160.154368 21.4476987 150.238963 21.4476987 150.238963 0.552301256"></polygon>
                        <path d="M163.39858,0.552301256 L175.096017,0.552301256 L175.096017,2.57740586 L165.409077,2.57740586 L165.409077,9.11297069 L175.050324,9.11297069 L175.050324,11.1380753 L165.409077,11.1380753 L165.409077,19.3305439 L175.050324,19.3305439 L175.050324,21.3556486 L163.444273,21.3556486 C163.39858,21.3556486 163.39858,0.552301256 163.39858,0.552301256 L163.39858,0.552301256 L163.39858,0.552301256 Z" id="Shape" fill="#2852AA"></path>
                        <path d="M184.463106,17.4895398 L186.153751,16.3849372 C187.387465,18.6861925 188.803951,19.790795 190.448904,19.790795 C191.179994,19.790795 191.819698,19.6527197 192.368015,19.2845188 C192.916332,18.916318 193.418956,18.502092 193.738808,17.9958159 C194.012967,17.4895398 194.241432,16.8451883 194.241432,16.246862 C194.241432,15.5104602 194.012967,14.8661088 193.510343,14.2217573 C192.870639,13.3012552 191.728311,12.1966527 190.037666,10.8619247 C188.34702,9.57322174 187.250386,8.60669453 186.839148,8.05439332 C186.108058,7.04184099 185.788206,6.0292887 185.788206,4.87866109 C185.788206,4.0041841 186.016672,3.12970711 186.42791,2.39330544 C186.839148,1.65690377 187.433158,1.10460251 188.209941,0.644351467 C188.986724,0.230125523 189.854893,0 190.723063,0 C191.728311,0 192.59648,0.230125523 193.418956,0.73640167 C194.241432,1.24267783 195.109602,2.11715481 196.069157,3.40585774 L194.424205,4.69456067 C193.647422,3.68200837 193.007718,2.9456067 192.413708,2.66945607 C191.865391,2.39330544 191.27138,2.16317992 190.631677,2.16317992 C189.763507,2.16317992 189.123803,2.43933054 188.621179,2.9456067 C188.118555,3.45188285 187.844396,4.09623431 187.844396,4.83263598 C187.844396,5.24686193 187.935782,5.70711297 188.118555,6.12133891 C188.34702,6.53556483 188.621179,6.99581588 189.123803,7.50209205 C189.397962,7.77824265 190.266132,8.42259415 191.774004,9.61924686 C193.556036,10.9079498 194.78975,12.1506276 195.429453,13.1631799 C196.069157,14.1757322 196.434702,15.2803347 196.434702,16.292887 C196.434702,17.8117155 195.886385,19.1004184 194.744056,20.2050209 C193.601729,21.3096235 192.230936,21.8619247 190.631677,21.8619247 C189.397962,21.8619247 188.301327,21.4937238 187.296079,20.8493724 C186.153751,20.251046 185.285582,19.1004184 184.463106,17.4895398 L184.463106,17.4895398 L184.463106,17.4895398 Z" id="Shape" fill="#595959"></path>
                        <path d="M210.462488,0.0460251045 C213.615314,0.0460251045 216.174128,1.15062762 218.230318,3.22175732 C220.286508,5.29288703 221.383143,7.87029287 221.383143,11 C221.383143,14.0376569 220.332201,16.6610879 218.230318,18.7782427 C216.174128,20.8953975 213.615314,21.9539749 210.599568,21.9539749 C207.538129,21.9539749 204.979314,20.8493724 202.877432,18.7782427 C200.821241,16.6610879 199.724606,14.1297071 199.724606,11.0920502 C199.724606,9.06694558 200.22723,7.22594144 201.141093,5.52301255 C202.054955,3.77405858 203.425749,2.48535565 205.070701,1.51882845 C206.761346,0.552301256 208.543378,0.0460251045 210.462488,0.0460251045 L210.462488,0.0460251045 L210.462488,0.0460251045 Z M210.599568,2.07112971 C209.091695,2.07112971 207.675209,2.48535565 206.304415,3.31380753 C204.933621,4.09623431 203.88268,5.20083682 203.105897,6.58158994 C202.329114,7.9623431 201.963569,9.48117152 201.963569,11.1380753 C201.963569,13.623431 202.831738,15.6945607 204.522383,17.3974896 C206.213028,19.1464435 208.223526,19.9288703 210.645261,19.9288703 C212.198827,19.9288703 213.7067,19.5606695 215.077493,18.7782427 C216.448286,17.9958159 217.499228,16.8912134 218.230318,15.6025105 C219.007101,14.2217573 219.372646,12.7029289 219.372646,11.0460251 C219.372646,9.38912136 219.007101,7.91631799 218.230318,6.53556483 C217.453535,5.24686193 216.3569,4.14225941 215.0318,3.35983264 C213.523927,2.43933054 212.10744,2.07112971 210.599568,2.07112971 L210.599568,2.07112971 L210.599568,2.07112971 Z" id="Shape" fill="#595959"></path>
                        <path d="M244.549552,4.37238494 L242.9046,5.61506276 C242.036431,4.46443515 240.894103,3.49790795 239.706082,2.9456067 C238.472368,2.34728034 237.055882,2.0251046 235.593702,2.0251046 C233.948749,2.0251046 232.440877,2.39330544 231.024391,3.26778243 C229.607904,4.14225941 228.511269,5.15481172 227.825872,6.44351464 C227.094782,7.73221761 226.683544,9.25104603 226.683544,11 C226.683544,13.5313808 227.551713,15.6485356 229.242358,17.3974896 C230.933004,19.1464435 233.08058,19.9288703 235.730781,19.9288703 C238.563754,19.9288703 240.985489,18.7782427 242.950293,16.5230126 L244.595245,17.7656904 C243.589997,19.0543933 242.31059,20.0669456 240.757024,20.8033473 C239.203458,21.5397489 237.558506,21.9079498 235.639395,21.9079498 C232.075332,21.9079498 229.242358,20.665272 227.140475,18.2719665 C225.44983,16.246862 224.490275,13.7615063 224.490275,10.8619247 C224.490275,7.82426776 225.541217,5.29288703 227.6431,3.17573222 C229.744983,1.05857741 232.48657,0.0460251045 235.685088,0.0460251045 C237.604199,0.0460251045 239.340537,0.414225941 240.894103,1.19665272 C242.447669,1.9790795 243.63569,2.9916318 244.549552,4.37238494 L244.549552,4.37238494 L244.549552,4.37238494 Z" id="Shape" fill="#595959"></path>
                        <polygon id="Shape" fill="#595959" points="248.47916 0.552301256 250.53535 0.552301256 250.53535 21.3556486 248.47916 21.3556486"></polygon>
                        <polygon id="Shape" fill="#595959" points="255.241741 0.552301256 266.984872 0.552301256 266.984872 2.57740586 257.160852 2.57740586 257.160852 9.11297069 266.802099 9.11297069 266.802099 11.1380753 257.160852 11.1380753 257.160852 19.3305439 266.802099 19.3305439 266.802099 21.3556486 255.241741 21.3556486"></polygon>
                        <polygon id="Shape" fill="#595959" points="268.447051 2.57740586 268.447051 0.552301256 279.641865 0.552301256 279.641865 2.57740586 275.072553 2.57740586 275.072553 21.3556486 273.016363 21.3556486 273.016363 2.57740586"></polygon>
                        <polygon id="Shape" fill="#595959" points="280.921272 0.552301256 283.251621 0.552301256 288.506329 9.11297069 293.669651 0.552301256 296 0.552301256 289.511578 11.414226 289.511578 21.3556486 287.501081 21.3556486 287.501081 11.414226"></polygon>
                    </g>
                    <g id="Logo">
                        <g id="pr" transform="translate(52.6398, 0)">
                            <path d="M29.1284428,15.8474851 C24.4208156,9.11627908 16.5569385,3.81611682 5.5635593,0 C15.8882415,15.2644673 14.0158898,29.7604111 0,43.4613304 C13.5076801,38.9826933 23.1904131,29.7604111 29.1284428,15.8474851" id="Shape" fill="#D1EAF1"></path>
                            <path d="M40.6032837,23.2412115 C36.1096398,14.2574365 29.9308792,7.3142239 22.09375,2.3585722 C22.09375,22.1281774 14.7380826,35.8290968 0.0267478813,43.4613304 C17.5466102,42.3482963 31.0542902,35.6170903 40.6032837,23.2412115" id="Shape" fill="#A5CBE2" opacity="0.75"></path>
                            <path d="M46.3273303,27.2958356 C44.5352223,21.0151433 41.1649895,14.4959438 36.2166313,7.73823687 C32.4184321,28.8593835 20.3551377,40.7582477 0.0267478813,43.4613304 C23.3776483,42.5603029 38.8111757,37.1806382 46.3273303,27.2958356" id="Shape" fill="#3F87C1" opacity="0.85"></path>
                            <path d="M48.3601696,40.0957273 C48.3601696,37.4986479 48.0124469,35.1665766 47.370498,33.0200108 C37.5005296,39.751217 21.7192796,43.2493241 0.0534957629,43.4613304 C13.5076801,43.6998378 29.6099046,42.5603029 48.3601696,40.0957273" id="Shape" fill="#2468B9"></path>
                        </g>
                        <g id="pl" transform="translate(0, 17.1725)">
                            <path d="M0,23.585722 C0,21.3331531 0.347722458,18.6565711 0.989671609,15.5029746 C9.52224574,22.4726879 23.9661017,26.0502975 44.4282309,26.2888048 C33.1941207,26.7393186 18.4025423,25.838291 0,23.585722" id="Shape" fill="#7AA4D6"></path>
                            <path d="M2.03283898,10.1233099 C2.03283898,9.22228234 2.94226694,5.85667928 4.7076271,0 C12.3575212,15.7149811 25.5977224,24.4867496 44.4282309,26.262304 C24.2335805,25.838291 10.0839513,20.4586263 2.03283898,10.1233099" id="Shape" fill="#9BC0DD"></path>
                        </g>
                        <g id="Bible" transform="translate(0, 44.1239)">
                            <rect id="Rectangle-path" fill="#6C6C6C" x="0" y="0" width="46.4610698" height="2.19956733"></rect>
                            <polygon id="Rectangle-path" fill="#6C6C6C" points="54.512182 0 100.973252 0 100.973252 2.19956733 54.512182 2.19956733"></polygon>
                            <polygon id="Rectangle-path" fill="#6C6C6C" points="8.74655719 1.69605192 92.9221396 1.69605192 92.9221396 4.87614927 8.74655719 4.87614927"></polygon>
                            <ellipse id="Oval" fill="#6C6C6C" cx="94.5805084" cy="2.04056247" rx="6.39274363" ry="2.01406166"></ellipse>
                            <ellipse id="Oval" fill="#6C6C6C" cx="6.39274364" cy="2.04056247" rx="6.39274363" ry="2.01406166"></ellipse>
                            <path d="M46.434322,0 L46.434322,0 C48.6543962,0 50.473252,1.06003245 50.473252,2.3585722 L50.473252,2.3585722 C50.473252,3.65711195 48.681144,4.7171444 46.434322,4.7171444 L46.434322,4.7171444 C44.2142478,4.7171444 42.395392,3.65711195 42.395392,2.3585722 L42.395392,2.3585722 C42.4221398,1.08653326 44.2142478,0 46.434322,0 L46.434322,0 L46.434322,0 Z" id="Shape" fill="#6C6C6C"></path>
                            <path d="M54.512182,0 L54.512182,0 C56.7322562,0 58.5511124,1.06003245 58.5511124,2.3585722 L58.5511124,2.3585722 C58.5511124,3.65711195 56.759004,4.7171444 54.512182,4.7171444 L54.512182,4.7171444 C52.2921078,4.7171444 50.473252,3.65711195 50.473252,2.3585722 L50.473252,2.3585722 C50.4999998,1.08653326 52.2921078,0 54.512182,0 L54.512182,0 L54.512182,0 Z" id="Shape" fill="#6C6C6C"></path>
                            <ellipse id="Oval" fill="#A1A1A1" cx="90.7020654" cy="2.38507301" rx="1" ry="1.00703083"></ellipse>
                            <rect id="Rectangle-path" fill="#A1A1A1" x="74.5730932" y="1.85505679" width="13.1332097" height="1.35154137"></rect>
                            <line x1="92.4139299" y1="4.39913469" x2="95.7841631" y2="1.03353164" id="lineAB" stroke="#6C6C6C" stroke-width="2" fill="#000000"></line>
                            <line x1="5.88453387" y1="1.00703083" x2="9.25476692" y2="4.37263387" id="lineBC" stroke="#6C6C6C" stroke-width="2" fill="#000000"></line>
                        </g>
                    </g>
                </g>
            </g>
        </g>
    </g>
</svg>