<?xml version="1.0" encoding="UTF-8"?>
<svg width="217px" height="58px" viewBox="0 0 217 58" version="1.1" xmlns="http://www.w3.org/2000/svg" xmlns:xlink="http://www.w3.org/1999/xlink">
    <title>odi_red</title>
    <g id="Page-1" stroke="none" stroke-width="1" fill="none" fill-rule="evenodd">
        <g id="Color-Palette" transform="translate(-1262, -714)" fill="#9B1C25">
            <g id="SPONSERS" transform="translate(1245, 580)">
                <g id="odi_red" transform="translate(17, 134)">
                    <path d="M0,34.5654943 C0,34.1391385 0,33.6861354 0,33.2597796 C0.160716115,33.1265434 0.401790287,33.0199544 0.482148344,32.8334237 C1.36608698,30.9148225 2.59824386,29.2360463 3.69647064,27.424034 C4.25897704,26.4647334 4.76791141,25.425491 5.65185004,24.75931 C6.991151,23.7467149 7.71437351,22.5475891 7.71437351,20.8421658 C7.71437351,20.1226903 7.76794555,19.3232731 8.46438205,18.8169755 C10.9019098,17.1381994 13.2322935,15.2728926 16.0716115,14.2869447 C17.6519866,13.7273527 19.2055757,13.0611717 20.8127369,12.7147576 C21.9109637,12.4749324 22.6609722,11.9952821 23.3574087,11.1692177 C23.8663431,10.5563312 24.3484914,9.94344463 25.125286,9.54373603 C25.8217224,9.17067467 26.652089,9.35720535 27.2145954,8.79761332 C29.4914071,6.55924516 32.196795,4.98705801 34.982541,3.46816533 C38.2236493,1.7094475 41.4379716,0.163907581 45.3487304,1.0432665 C46.6344593,1.33638614 48.0541183,1.12320822 49.2862752,0.29714378 C49.9023537,-0.129212058 50.5720041,-0.129212058 51.3487987,0.5103217 C52.3666674,1.3097389 53.4113222,2.16245057 54.589907,2.80198433 C55.9024219,3.52145981 57.0810068,4.48076045 58.2328056,5.44006109 C59.7060367,6.66583412 61.1792677,7.94490164 63.1078611,8.47784644 C65.1971706,9.06408571 67.3400521,9.27726363 69.5097197,9.43714707 C70.3668723,9.51708879 71.438313,9.30391087 72.0543915,10.2632115 C73.1258322,11.9419876 74.116915,13.6740582 74.8401375,15.539365 C75.4830019,17.1914939 75.590146,19.0301534 76.7687309,20.4691044 C77.0633771,20.8155185 77.3312373,21.2418744 77.5187394,21.7215247 C78.2687479,23.6134787 78.0544598,25.6120217 78.4562501,27.530623 C79.0187565,30.195347 79.4741188,32.8867182 79.4205467,35.6313839 C79.4205467,36.2442704 79.3937607,36.7772152 78.5901802,37.0170404 C77.9473157,37.2035711 77.4115953,37.7365159 77.036591,38.3227551 C75.6972901,40.3212981 74.3847751,42.3464884 73.2597623,44.5049148 C72.724042,45.5175099 72.4293958,46.636694 71.4650991,47.4627584 C70.1525841,48.6085898 68.518637,48.7151787 66.9918339,49.1148873 C65.1971706,49.5945376 63.3757213,49.9409518 61.607844,50.527191 C60.0274689,51.0601358 58.4738798,51.6996696 56.8935047,52.2326144 C55.3131295,52.7389119 53.6256103,53.0853261 52.1523793,53.8847433 C49.6077074,55.2703997 46.8219615,56.0165225 44.0897875,56.8958814 C42.4826264,57.4021789 40.7683211,57.4821207 39.134374,57.8285348 C37.3129247,58.2282434 35.6789775,57.961771 34.2593185,56.6827035 C33.64324,56.1231114 32.9200175,55.5901666 32.0360789,55.4569304 C28.8217566,54.9506329 25.5806483,54.4976298 22.5806141,53.191915 C21.7502475,52.8455009 20.4377326,52.8188537 20.1966584,51.7796113 C19.8484402,50.4206021 18.9377155,50.3939548 17.9466328,50.4206021 C16.3126857,50.4738966 14.6787385,50.1807769 13.0447913,50.1807769 C12.3215688,50.1807769 11.7590624,49.8077156 11.3037001,49.2481235 C9.66975291,47.196286 7.66080147,45.4908627 5.62506402,43.8387338 C4.15183297,42.639608 2.62502988,41.5470712 1.9553794,39.6284699 C1.58037513,38.5359331 1.09822678,37.4700435 0.857152612,36.3242122 C0.642864459,35.8179146 0.669650478,35.0451446 0,34.5654943 L0,34.5654943 Z M35.5718334,37.8164576 C37.741501,38.1628717 40.1522427,37.523338 42.5094124,36.9104514 C44.2505036,36.4574484 45.9380228,35.8179146 47.652328,35.2316753 C49.6077074,34.5654943 51.3755847,33.6594882 53.0363179,32.4870096 C54.6970511,31.2878838 56.2238542,29.9022273 57.7774433,28.5698653 C60.6971194,26.0383775 63.1078611,23.0805339 65.6257469,20.202632 C65.8668211,19.9361596 65.8936071,19.6696872 65.5989609,19.4565093 C65.1703846,19.1367424 64.7418083,18.7903283 64.2596599,18.5505031 C63.8042976,18.310678 63.4292933,18.310678 63.027503,18.8436228 C61.8489182,20.3625154 60.6167613,21.8814081 59.2506743,23.2670646 C55.8756359,26.6779113 52.0988072,29.5558132 47.7862581,31.6609452 C46.7951754,32.1405955 45.8576648,32.7001875 44.81301,32.9933072 C42.7772726,33.5795464 40.6879631,33.8726661 38.5986536,34.1657857 C36.375414,34.4855526 34.1521744,34.4855526 31.9557208,34.2457274 C29.4646211,33.979255 27.0003073,33.313074 24.7234957,32.1672427 C22.9824044,31.2878838 21.1877411,30.5417611 19.553794,29.4492243 C18.7234274,28.8896322 16.8751921,29.0228684 16.3394717,29.7689911 C16.1251835,30.0621108 16.0716115,30.5417611 16.3662577,30.7815863 C17.2501963,31.527709 18.0002049,32.4603624 19.0448596,33.0466016 C21.053811,34.1657857 23.0895485,35.2050281 25.3127881,35.9245036 C28.5538964,37.0436876 31.7682187,38.0296355 35.5718334,37.8164576 L35.5718334,37.8164576 Z M33.6700261,18.2573835 C32.6789433,18.2573835 31.6075026,18.0708528 30.6432059,18.2840307 C28.5271104,18.763681 26.4110149,19.1633896 24.3752774,19.9095124 C21.8573916,20.8421658 19.553794,22.094586 17.3573404,23.5601842 C17.0359082,23.7733622 16.82162,24.0664818 16.9287641,24.4661904 C17.1698383,25.2656076 18.7502134,25.9317886 19.4734359,25.4787855 C20.9198809,24.6260738 22.419898,23.9865401 23.9467011,23.3203591 C25.3931461,22.6808253 26.8663772,22.2544695 28.3931803,21.9080554 C30.9914241,21.3218161 33.589668,21.0819909 36.2414839,21.3218161 C37.7147149,21.4550523 39.16116,21.5616412 40.554033,22.0679388 C41.0897534,22.2811167 42.6701285,21.1086382 42.6969145,20.4424572 C42.7504865,19.8295706 42.027264,19.64304 41.6522598,19.5630982 C39.0540159,19.0035062 36.5093441,17.8310276 33.6700261,18.2573835 L33.6700261,18.2573835 Z M40.3665308,27.5839175 C41.8933339,27.7704481 42.5361984,26.4913806 43.2862069,25.7452579 C45.2148003,23.8000094 46.9291055,21.641583 48.7237688,19.5897455 C49.5541354,18.6304448 50.1969999,17.6977914 49.3934193,16.3920767 C49.2594892,16.1788988 49.3666333,15.8058374 48.9112709,15.8324847 C48.5362667,15.8324847 48.2684065,15.9124264 48.0273323,16.2854877 C45.6433766,19.9628068 43.0987048,23.5068898 39.9647406,26.6246168 C39.7236664,26.864442 39.2683041,27.0776199 39.5093782,27.5039757 C39.7236664,27.7704481 40.1254567,27.530623 40.3665308,27.5839175 L40.3665308,27.5839175 Z M60.4828312,29.7423439 C59.4649625,29.7423439 59.1435303,30.5151139 58.6078099,30.9681169 C58.1524475,31.3944728 58.2060196,31.8208286 58.795312,32.1672427 C60.5364033,33.1798378 62.2774945,34.2190802 63.9917997,35.2849698 C65.840035,36.4308011 65.840035,36.4574484 67.5275542,35.2050281 C68.2507768,34.6720833 68.2507768,34.2457274 67.5007682,33.7927244 C66.0275372,32.9133654 64.6078782,31.980712 63.1078611,31.1812949 C62.1971364,30.7016445 61.3935559,29.9555218 60.4828312,29.7423439 L60.4828312,29.7423439 Z M55.5006317,23.5068898 C55.5542037,23.2937118 55.3667016,23.0805339 55.1791994,23.0805339 C54.6702651,23.0272394 54.0809726,22.8140615 53.6256103,23.2670646 C52.4202395,24.4395432 51.2416546,25.6653162 49.9827117,26.8111475 C49.4737773,27.2641506 49.3398473,27.6905064 49.8219956,28.1435095 C50.2505719,28.5432181 50.7327202,28.3300402 51.1345105,27.9303316 C52.3934534,26.7045585 53.5720383,25.3721965 54.9916973,24.2796597 C55.2059854,24.093129 55.4738456,23.9065984 55.5006317,23.5068898 L55.5006317,23.5068898 Z M47.3308958,26.2782027 C47.545184,26.2782027 47.7326861,26.2515555 47.9201882,26.0650248 C49.018415,24.8126045 50.1434278,23.5868315 51.2684406,22.3344112 C51.723803,21.8281136 51.5095148,21.2152271 50.8130783,21.0819909 C50.33093,20.975402 49.9827117,21.1619326 49.6880655,21.534994 C48.6969828,22.760767 47.7059001,23.9865401 46.6880314,25.1856659 C46.4737432,25.4521383 46.4469572,25.7186107 46.5808873,25.9850831 C46.7148174,26.2782027 47.0094636,26.3048499 47.3308958,26.2782027 L47.3308958,26.2782027 Z" id="Shape"></path>
                    <g id="Group" transform="translate(86.5163, 14.1463)">
                        <path d="M17.3603722,13.4059113 C17.3603722,22.6357749 13.6154537,27.3704023 8.53306428,27.3704023 C3.18318072,27.3704023 0,21.6516107 0,13.8048968 C0,5.71879153 3.50417373,0 8.82730788,0 C14.337688,0 17.3603722,5.90498474 17.3603722,13.4059113 L17.3603722,13.4059113 Z M3.79841733,13.7516987 C3.79841733,19.284297 5.53712949,23.5401419 8.72031021,23.5401419 C11.9034909,23.5401419 13.5619548,19.0449058 13.5619548,13.5655055 C13.5619548,8.64468487 12.037238,3.83014224 8.72031021,3.83014224 C5.45688124,3.80366134 3.79841733,8.27229845 3.79841733,13.7516987 L3.79841733,13.7516987 Z" id="Shape"></path>
                        <path d="M18.6175948,14.017689 C18.6175948,11.4907811 18.564096,9.49585385 18.4838477,7.74031784 L21.6670284,7.74031784 L21.8542744,10.533216 L21.9077732,10.533216 C22.8975017,8.48509069 24.4489679,7.36793142 26.4284248,7.36793142 C29.7453526,7.36793142 32.1795496,11.2247908 32.1795496,17.1563746 C32.1795496,24.0987215 29.1033666,27.3172042 26.0004341,27.3172042 C24.2884714,27.3172042 22.9242511,26.279842 22.282265,24.9232915 L22.2287662,24.9232915 L22.2287662,34.6585366 L18.6175948,34.6585366 L18.6175948,14.017689 L18.6175948,14.017689 Z M22.2287662,19.231099 C22.2287662,19.7364805 22.2555156,20.2152631 22.3625133,20.6408476 C22.7370051,22.5825768 23.8872301,23.673137 25.1979516,23.673137 C27.3646544,23.673137 28.5416288,20.986635 28.5416288,17.3159688 C28.5416288,13.8048968 27.4449027,11.1183947 25.2514504,11.1183947 C23.9407289,11.1183947 22.7102557,12.5015443 22.3625133,14.3634764 C22.3090145,14.7624619 22.2287662,15.1880463 22.2287662,15.6136308 L22.2287662,19.231099 L22.2287662,19.231099 Z" id="Shape"></path>
                        <path d="M36.1117141,18.6459203 C36.1652129,22.3431855 38.1179204,23.7795332 40.3113727,23.7795332 C41.8895883,23.7795332 43.0130639,23.4337458 44.0295417,22.9549632 L44.5645301,26.2000449 C43.3875557,26.8650207 41.7023424,27.3438032 39.7763843,27.3438032 C35.2289833,27.3438032 32.6342897,23.5667409 32.6342897,17.6883552 C32.6342897,12.1025588 35.0952362,7.39453045 39.4286419,7.39453045 C43.7620476,7.39453045 45.3402632,12.0759598 45.3402632,16.5711959 C45.3402632,17.528761 45.2867644,18.2203358 45.2065161,18.6725193 L36.1117141,18.6725193 L36.1117141,18.6459203 Z M41.8895883,15.3742396 C41.9163377,13.1931191 41.2476023,10.6396122 39.1343983,10.6396122 C37.1014425,10.6396122 36.2187117,13.3261142 36.0849646,15.3742396 L41.8895883,15.3742396 L41.8895883,15.3742396 Z" id="Shape"></path>
                        <path d="M46.4637388,13.4059113 C46.4637388,11.1981918 46.4102399,9.46925482 46.3299917,7.76691687 L49.486423,7.76691687 L49.6736689,10.480018 L49.7271677,10.480018 C50.3959032,8.99047227 51.9473694,7.39453045 54.1408217,7.39453045 C56.6820164,7.39453045 58.9824663,9.628849 58.9824663,15.2412444 L58.9824663,26.9448178 L55.3712949,26.9448178 L55.3712949,15.746626 C55.3712949,13.2197181 54.7293089,11.2247908 52.8568496,11.2247908 C51.5461281,11.2247908 50.5831491,12.3951482 50.2354067,13.9112929 C50.1016596,14.3102783 50.0481607,14.9486551 50.0481607,15.5338337 L50.0481607,26.9714168 L46.4369893,26.9714168 L46.4369893,13.4059113 L46.4637388,13.4059113 Z" id="Shape"></path>
                        <path d="M65.8035678,0.744772851 C67.4887812,0.398985456 69.334491,0.186193213 71.2604491,0.186193213 C74.5773769,0.186193213 77.1720704,1.25015443 78.8305343,3.35147783 C80.2482535,5.00061771 81.1844831,7.5275256 81.1844831,11.1981918 C81.1844831,16.1988095 79.579518,20.7738427 76.9848245,23.5401419 C74.6041263,26.0670498 71.5546927,27.15761 67.3282847,27.15761 C65.1615818,27.15761 63.1286261,26.9714168 61.9516517,26.7320255 L65.8035678,0.744772851 L65.8035678,0.744772851 Z M66.0978114,23.2475526 C66.7932963,23.3539487 67.5690294,23.4071467 68.371512,23.4071467 C71.1534514,23.4071467 73.4004025,22.2633884 74.8983699,20.0822679 C76.5300844,17.8745484 77.3593163,14.7092638 77.3593163,11.2513899 C77.3593163,6.83595081 75.5403559,3.88345844 71.2336997,3.88345844 C70.4044677,3.88345844 69.5217369,3.96325553 68.9332497,4.12284971 L66.0978114,23.2475526 L66.0978114,23.2475526 Z" id="Shape"></path>
                        <path d="M95.6559181,15.2412444 C95.6559181,21.7846059 92.124995,27.3970013 87.0426056,27.3970013 C83.2709377,27.3970013 80.9437383,24.0455235 80.9437383,19.4704902 C80.9437383,12.9537278 84.4746615,7.31473335 89.5570509,7.31473335 C93.5694635,7.31473335 95.6559181,11.0385976 95.6559181,15.2412444 L95.6559181,15.2412444 Z M84.6084086,19.3374951 C84.6084086,21.9707991 85.6783853,23.8327312 87.5240951,23.8327312 C90.1990369,23.8327312 91.9644985,19.0981038 91.9644985,15.2678434 C91.9644985,13.2995152 91.2690136,10.8524044 89.1023108,10.8524044 C86.2668725,10.8790034 84.6084086,15.773225 84.6084086,19.3374951 L84.6084086,19.3374951 Z" id="Shape"></path>
                        <path d="M110.662342,15.2412444 C110.662342,21.7846059 107.131418,27.3970013 102.049029,27.3970013 C98.2773611,27.3970013 95.9501617,24.0455235 95.9501617,19.4704902 C95.9501617,12.9537278 99.4810849,7.31473335 104.563474,7.31473335 C108.575887,7.31473335 110.662342,11.0385976 110.662342,15.2412444 L110.662342,15.2412444 Z M99.614832,19.3374951 C99.614832,21.9707991 100.684809,23.8327312 102.530519,23.8327312 C105.20546,23.8327312 106.970922,19.0981038 106.970922,15.2678434 C106.970922,13.2995152 106.275437,10.8524044 104.108734,10.8524044 C101.273296,10.8790034 99.614832,15.773225 99.614832,19.3374951 L99.614832,19.3374951 Z" id="Shape"></path>
                        <path d="M110.582093,26.9714168 L112.320805,15.1348483 C112.722047,12.4217472 112.936042,9.46925482 113.096539,7.76691687 L116.199471,7.76691687 C116.119223,9.07026936 116.012225,10.4002209 115.851729,11.7833705 L115.931977,11.7833705 C116.948455,9.22986354 118.580169,7.31473335 120.586376,7.31473335 C120.85387,7.31473335 121.148113,7.34133238 121.388858,7.34133238 L120.693373,11.8365685 C120.506127,11.8099695 120.265383,11.8099695 120.024638,11.8099695 C117.483443,11.8099695 115.851729,15.1348483 115.263241,19.231099 L114.139766,26.9714168 L110.582093,26.9714168 L110.582093,26.9714168 Z" id="Shape"></path>
                        <path d="M119.94439,22.6889729 C120.720123,23.2475526 122.191341,23.9391273 123.528811,23.9391273 C124.97328,23.9391273 125.829261,22.8751661 125.829261,21.5718136 C125.829261,20.4014563 125.347772,19.6034854 123.876554,18.6193213 C122.164591,17.4489639 120.934118,15.8264231 120.934118,13.6187036 C120.934118,9.92143833 123.448563,7.31473335 126.979486,7.31473335 C128.557702,7.31473335 129.841674,7.7935159 130.48366,8.29889748 L129.600929,11.6237763 C129.012442,11.2247908 128.022714,10.7460083 126.81899,10.7460083 C125.481519,10.7460083 124.545289,11.6503753 124.545289,12.9537278 C124.545289,14.0708871 125.187275,14.8156599 126.471247,15.6402299 C128.129711,16.7839882 129.57418,18.353331 129.57418,20.8004418 C129.57418,25.0562866 126.81899,27.4236003 123.234568,27.3970013 C121.495856,27.3704023 119.864141,26.7320255 119.061659,25.9872527 L119.94439,22.6889729 L119.94439,22.6889729 Z" id="Shape"></path>
                    </g>
                </g>
            </g>
        </g>
    </g>
</svg>