<?xml version="1.0" encoding="UTF-8"?>
<svg width="180px" height="69px" viewBox="0 0 180 69" version="1.1" xmlns="http://www.w3.org/2000/svg" xmlns:xlink="http://www.w3.org/1999/xlink">
    <title>onehope</title>
    <defs>
        <linearGradient x1="0%" y1="49.1916667%" x2="100%" y2="49.1916667%" id="linearGradient-1">
            <stop stop-color="#5D92CB" offset="0%"></stop>
            <stop stop-color="#4168A4" offset="100%"></stop>
        </linearGradient>
        <linearGradient x1="1.16859792e-06%" y1="49.9673864%" x2="99.9987617%" y2="49.9673864%" id="linearGradient-2">
            <stop stop-color="#5D92CB" offset="0%"></stop>
            <stop stop-color="#4168A4" offset="100%"></stop>
        </linearGradient>
        <linearGradient x1="0%" y1="49.9980387%" x2="100%" y2="49.9980387%" id="linearGradient-3">
            <stop stop-color="#5D92CB" offset="0%"></stop>
            <stop stop-color="#4168A4" offset="100%"></stop>
        </linearGradient>
        <linearGradient x1="0%" y1="49.9995234%" x2="100%" y2="49.9995234%" id="linearGradient-4">
            <stop stop-color="#5D92CB" offset="0%"></stop>
            <stop stop-color="#4168A4" offset="100%"></stop>
        </linearGradient>
        <linearGradient x1="0%" y1="49.9976327%" x2="100%" y2="49.9976327%" id="linearGradient-5">
            <stop stop-color="#5D92CB" offset="0%"></stop>
            <stop stop-color="#4168A4" offset="100%"></stop>
        </linearGradient>
    </defs>
    <g id="Page-1" stroke="none" stroke-width="1" fill="none" fill-rule="evenodd">
        <g id="Color-Palette" transform="translate(-1265, -1264)" fill-rule="nonzero">
            <g id="SPONSERS" transform="translate(1245, 580)">
                <g id="onehope" transform="translate(20, 684)">
                    <g id="Layer_1">
                        <g id="Layer_1_1_" transform="translate(16.4383, 63.134)">
                            <path d="M38.901961,4.49917085 L40.1386148,0.748182599 C40.1866401,0.639981015 40.2226592,0.53177943 40.2466719,0.411555448 C40.2706846,0.231219474 40.4267671,0.0869506951 40.6188686,0.110995492 C40.6188686,0.110995492 40.6188686,0.110995492 40.6188686,0.110995492 C40.8349829,0.110995492 40.9190273,0.219197076 40.9910654,0.423577846 C41.3752685,1.62581767 41.7834843,2.8160351 42.1796937,4.00625252 L42.3597889,4.52321565 C42.5759032,4.33085728 42.5879095,4.07838691 42.6719539,3.86198375 C43.056157,2.7679455 43.4283538,1.67390726 43.8005505,0.579869023 C43.8245632,0.459645041 43.8725886,0.351443457 43.9326204,0.243241872 C44.0766965,0.0508835003 44.3048171,0.0869506951 44.4849123,0.147062686 C44.6650075,0.207174678 44.5689567,0.375488253 44.5209314,0.507734634 L42.7800111,5.41287312 C42.707973,5.61725389 42.6239286,5.74950027 42.3597889,5.74950027 C42.0956493,5.74950027 42.0596303,5.5330971 41.9875922,5.35276113 C41.5793764,4.1625437 41.1711606,2.97232628 40.7629448,1.78210885 C40.7269258,1.67390726 40.7389321,1.49357129 40.5948559,1.50559369 C40.4507798,1.51761609 40.4747925,1.68592966 40.4387734,1.79413125 C40.042564,2.92423668 39.6703672,4.06636452 39.2741578,5.19646995 C39.2021197,5.41287312 39.2261324,5.73747787 38.8419293,5.74950027 C38.4577262,5.76152267 38.4577262,5.44894031 38.3856881,5.23253715 C37.8454025,3.70569257 37.3051169,2.17884799 36.7648313,0.664025811 C36.7047996,0.495712236 36.512698,0.291331465 36.7768376,0.147062686 C37.0409773,0.00279390733 37.2931106,0.183129881 37.4011677,0.483689837 C37.7973771,1.63784007 38.1815802,2.7919903 38.589796,3.93411814 C38.6618341,4.10243171 38.6498278,4.35490207 38.901961,4.49917085 Z" id="Shape" fill="#5E8BC2"></path>
                            <path d="M59.4688332,5.5811867 C58.9525603,5.71343308 58.6163825,5.60523149 58.3522429,5.17242516 C58.0881033,4.73961882 57.7399192,4.37894687 57.4757796,3.95816293 C57.21164,3.53737899 57.0195384,3.5133342 56.6353353,3.52535659 C55.6147958,3.54940139 55.6147958,3.52535659 55.6147958,4.52321565 C55.6147958,4.76366361 55.6027895,5.00411158 55.6147958,5.24455954 C55.6268022,5.48500751 55.5187451,5.62927629 55.2425991,5.62927629 C54.9664531,5.62927629 54.9184277,5.48500751 54.9184277,5.25658194 C54.9184277,3.65760298 54.9184277,2.05862401 54.9184277,0.459645041 C54.9184277,0.267286669 54.9184277,0.0869506951 55.1825673,0.0989730933 C56.0950497,0.135040288 57.0195384,-0.00922849092 57.9320208,0.183129881 C58.8445031,0.375488253 59.2407126,0.856384183 59.324757,1.61379527 C59.4088014,2.37120636 59.0245983,2.98434867 58.2321794,3.27288623 C57.871989,3.40513261 57.8960017,3.4892894 58.1001096,3.74175976 C58.5563508,4.33085728 58.9885793,4.93197719 59.4688332,5.5811867 Z" id="Shape" fill="#5F86BA"></path>
                            <path d="M97.0486988,2.85210229 C97.0486988,2.07064641 97.0607051,1.28919052 97.0486988,0.519757032 C97.0366924,0.219197076 97.1327432,0.0869506951 97.4569146,0.110995492 C98.3093652,0.159085085 99.1738222,0.0148163056 100.026273,0.195152279 C100.878723,0.375488253 101.394996,0.868406581 101.455028,1.64986247 C101.51506,2.43131835 101.286939,2.97232628 100.362451,3.29693103 C100.038279,3.41715501 100.050285,3.5133342 100.230381,3.74175976 L101.455028,5.36478353 C101.587098,5.5330971 101.623117,5.62927629 101.346971,5.64129869 C101.070825,5.65332109 100.782673,5.60523149 100.578565,5.30467154 C100.2664,4.82377561 99.8821966,4.37894687 99.5580253,3.89805094 C99.4019428,3.64558058 99.1137904,3.5013118 98.8136318,3.52535659 C97.7570732,3.53737899 97.7570732,3.52535659 97.7570732,4.60737244 C97.7570732,4.82377561 97.7450669,5.05220117 97.7570732,5.26860434 C97.7690796,5.48500751 97.6370098,5.64129869 97.3608638,5.64129869 C97.0847178,5.64129869 97.0727115,5.44894031 97.0727115,5.24455954 C97.0486988,4.45108126 97.0486988,3.64558058 97.0486988,2.85210229 Z" id="Shape" fill="#5172A8"></path>
                            <path d="M63.3829022,5.62927629 L62.3623628,5.62927629 C62.1222358,5.64129869 62.0021724,5.5691643 62.0021724,5.29264914 C62.0141787,3.66962537 62.0021724,2.05862401 62.0021724,0.435600244 C62.0021724,0.231219474 62.0381914,0.0749282968 62.2903247,0.0869506951 C63.1067563,0.12301789 63.9231878,0.00279390733 64.7396194,0.183129881 C66.2284064,0.459645041 67.2009205,1.90233283 66.9127682,3.39311021 C66.6726413,4.69152923 65.5320383,5.62927629 64.2233465,5.61725389 L63.3829022,5.62927629 Z" id="Shape" fill="#5E83B7"></path>
                            <path d="M139.323046,2.84007989 C139.323046,2.0826688 139.335052,1.31323532 139.323046,0.555824227 C139.31104,0.231219474 139.383078,0.0749282968 139.743268,0.0989730933 C140.523681,0.147062686 141.304093,0.0268387038 142.072499,0.207174678 C143.537274,0.555824227 144.293674,1.78210885 144.209629,3.06850546 C144.137591,4.45108126 143.033007,5.5571419 141.652277,5.62927629 C141.015941,5.66534348 140.367598,5.62927629 139.731262,5.64129869 C139.431103,5.65332109 139.31104,5.5571419 139.31104,5.23253715 C139.335052,4.43905886 139.323046,3.63355818 139.323046,2.84007989 Z" id="Shape" fill="#3E68A5"></path>
                            <path d="M15.8978005,2.88816949 C15.8978005,2.1067136 15.9098068,1.32525771 15.8978005,0.543801829 C15.8857941,0.219197076 15.9698386,0.0629058986 16.330029,0.0869506951 C17.0864288,0.147062686 17.8428287,0.0268387038 18.5992285,0.195152279 C20.2200854,0.555824227 20.8804344,1.92637763 20.79639,3.06850546 C20.6763265,4.58332764 19.5237172,5.61725389 17.9989112,5.62927629 C17.4586256,5.62927629 16.91834,5.60523149 16.3780544,5.64129869 C15.8377688,5.67736588 15.8857941,5.5571419 15.8978005,5.17242516 C15.9098068,4.41501407 15.8978005,3.64558058 15.8978005,2.88816949 Z" id="Shape" fill="#5C96D1"></path>
                            <path d="M3.87944731,2.63569912 C5.0560693,2.63569912 5.0560693,2.63569912 5.0560693,3.80187175 C5.0560693,4.96804438 4.8519614,5.41287312 3.5192569,5.67736588 C1.86238104,6.01399303 0.469644804,5.30467154 0.109454399,3.75378216 C-0.334780434,1.84222084 0.589708272,0.243241872 2.58276185,0.0148163056 C3.30314266,-0.0573180839 4.02352347,0.135040288 4.61183446,0.567846625 C4.80393601,0.700093006 4.83995505,0.820316988 4.68387254,0.988630564 C4.52779004,1.15694414 4.47976465,1.33728011 4.21562502,1.12087694 C3.95148539,0.904473776 3.30314266,0.664025811 2.76285705,0.664025811 C1.826362,0.664025811 1.21403831,1.13289934 0.86585425,1.95042242 C0.337574989,3.17670705 0.913879637,4.72759642 2.1865524,5.06422357 C2.88292052,5.24455954 3.5192569,5.11231316 4.14358694,4.77568601 C4.41973291,4.61939484 4.35970118,4.37894687 4.35970118,4.13849891 C4.34769483,3.15266225 4.47976465,3.32097582 3.54326959,3.29693103 L3.18307919,3.29693103 C2.93094591,3.29693103 2.69081897,3.30895343 2.69081897,2.94828148 C2.69081897,2.58760953 2.97897129,2.63569912 3.20709188,2.62367673 L3.87944731,2.63569912 Z" id="Shape" fill="#5F9EDB"></path>
                            <path d="M7.58940848,2.90019189 C7.5173704,1.61379527 8.41784641,0.00279390733 10.4229063,0.00279390733 C12.1878393,0.00279390733 13.2203851,1.36132491 13.2323915,2.88816949 C13.2443978,4.41501407 12.0077441,5.66534348 10.3988936,5.74950027 C8.97013837,5.82163466 7.48135136,4.51119325 7.58940848,2.90019189 Z" id="Shape" fill="#5C99D6"></path>
                            <path d="M49.3955082,5.73747787 C48.1228354,5.85770186 46.586023,4.70355162 46.5980294,2.86412469 C46.6100357,1.48154889 47.5825498,0.00279390733 49.4435336,0.0148163056 C51.3045173,0.0268387038 52.2530187,1.36132491 52.2410124,2.91221428 C52.229006,4.46310366 51.1004094,5.80961226 49.3955082,5.73747787 Z" id="Shape" fill="#5F89BD"></path>
                            <path d="M126.428229,2.96030388 C126.428229,3.71771497 126.416223,4.48714845 126.428229,5.24455954 C126.428229,5.50905231 126.380204,5.65332109 126.068039,5.64129869 C125.755874,5.62927629 125.755874,5.48500751 125.755874,5.25658194 C125.76788,4.69152923 125.743868,4.13849891 125.76788,3.57344619 C125.779887,3.29693103 125.695842,3.17670705 125.395684,3.18872944 C124.591258,3.20075184 123.79884,3.20075184 122.994414,3.18872944 C122.706262,3.17670705 122.610211,3.27288623 122.622218,3.56142379 C122.64623,4.07838691 122.634224,4.60737244 122.622218,5.12433556 C122.622218,5.36478353 122.706262,5.65332109 122.274033,5.64129869 C121.841805,5.62927629 121.949862,5.37680593 121.949862,5.14838036 C121.949862,3.82591655 121.949862,2.50345274 121.949862,1.18098894 C121.949862,0.964585767 121.949862,0.736160201 121.949862,0.519757032 C121.949862,0.303353864 121.973875,0.0989730933 122.298046,0.0869506951 C122.622218,0.0749282968 122.64623,0.255264271 122.634224,0.495712236 C122.622218,1.06076495 122.64623,1.61379527 122.622218,2.17884799 C122.622218,2.43131835 122.706262,2.52749754 122.970402,2.52749754 L125.431703,2.52749754 C125.707849,2.52749754 125.76788,2.41929596 125.76788,2.16682559 C125.755874,1.60177287 125.76788,1.04874256 125.76788,0.483689837 C125.76788,0.267286669 125.755874,0.0869506951 126.068039,0.0869506951 C126.380204,0.0869506951 126.440236,0.219197076 126.440236,0.483689837 C126.416223,1.31323532 126.428229,2.1427808 126.428229,2.96030388 Z" id="Shape" fill="#426AA5"></path>
                            <path d="M90.3611636,2.85210229 C90.3611636,2.0946912 90.3731699,1.33728011 90.3611636,0.567846625 C90.3611636,0.255264271 90.4211953,0.0869506951 90.7813857,0.0869506951 C91.8619569,0.110995492 92.9425282,0.0989730933 94.0230994,0.0869506951 C94.3112517,0.0869506951 94.4193088,0.171107483 94.3952961,0.471667439 C94.3712834,0.772227395 94.1671755,0.700093006 93.9990867,0.700093006 C93.1826551,0.700093006 92.3662235,0.724137802 91.5377856,0.700093006 C91.1655888,0.688070608 90.9734873,0.772227395 91.0215127,1.19301133 C91.0695381,1.61379527 90.8294111,2.17884799 91.1415761,2.45536315 C91.4537412,2.73187831 91.9460014,2.51547514 92.3662235,2.52749754 L93.6869217,2.52749754 C93.8910296,2.52749754 94.0351057,2.57558713 94.0351057,2.8280575 C94.0351057,3.08052786 93.9270486,3.18872944 93.6749153,3.17670705 C92.9545345,3.17670705 92.2341537,3.20075184 91.5137729,3.16468465 C91.1055571,3.15266225 90.9854936,3.29693103 91.0215127,3.68164777 C91.0575317,4.06636452 91.0215127,4.24670049 91.0215127,4.52321565 C91.0215127,5.02815638 91.033519,5.02815638 91.5617983,5.02815638 L94.0230994,5.02815638 C94.2392136,5.02815638 94.4073025,5.02815638 94.4073025,5.32871633 C94.4073025,5.62927629 94.2392136,5.62927629 94.0230994,5.62927629 L90.7333603,5.62927629 C90.445208,5.62927629 90.3491572,5.5210747 90.3611636,5.24455954 C90.3731699,4.45108126 90.3611636,3.64558058 90.3611636,2.85210229 Z" id="Shape" fill="#5777AC"></path>
                            <path d="M76.3977822,2.85210229 C76.3977822,2.07064641 76.4097886,1.28919052 76.3977822,0.507734634 C76.3857759,0.195152279 76.4818266,0.0869506951 76.805998,0.0989730933 C77.8625565,0.110995492 78.9191151,0.110995492 79.9876799,0.0989730933 C80.1917878,0.0989730933 80.3838894,0.0749282968 80.3958957,0.387510651 C80.4079021,0.700093006 80.1797815,0.700093006 79.9636672,0.700093006 C79.1232229,0.700093006 78.2827787,0.712115404 77.4423344,0.700093006 C77.1421757,0.700093006 76.9980996,0.784249794 77.0221122,1.10885455 C77.0461249,1.4454817 77.0461249,1.79413125 77.0221122,2.1307584 C76.9980996,2.45536315 77.1421757,2.53951994 77.4423344,2.53951994 C78.1627152,2.52749754 78.883096,2.53951994 79.6034768,2.53951994 C79.8315974,2.53951994 80.0357053,2.52749754 80.0357053,2.86412469 C80.0357053,3.20075184 79.8315974,3.18872944 79.6034768,3.18872944 C78.883096,3.18872944 78.1627152,3.20075184 77.4423344,3.18872944 C77.1421757,3.17670705 76.9980996,3.27288623 77.0221122,3.59749098 C77.0461249,3.92209574 76.842017,4.61939484 77.1061567,4.93197719 C77.3702963,5.24455954 77.9345946,5.01613398 78.3668231,5.04017877 C78.7990516,5.06422357 79.4834134,5.05220117 80.0477117,5.04017877 C80.2638259,5.04017877 80.4439211,5.06422357 80.4559274,5.34073873 C80.4679338,5.61725389 80.2758322,5.64129869 80.0717243,5.64129869 C78.9671404,5.64129869 77.8745629,5.62927629 76.769979,5.64129869 C76.4698203,5.64129869 76.3977822,5.5210747 76.4097886,5.25658194 C76.4097886,4.45108126 76.3977822,3.64558058 76.3977822,2.85210229 Z" id="Shape" fill="#5C7DB1"></path>
                            <path d="M28.5885091,0.0508835003 C29.1287947,0.0268387038 29.6690803,0.183129881 30.1253215,0.483689837 C30.2934104,0.591891422 30.4735056,0.688070608 30.281404,0.940540971 C30.0893025,1.19301133 30.005258,1.19301133 29.7891438,1.03672016 C29.344909,0.724137802 28.792617,0.579869023 28.2523314,0.652003413 C27.7240521,0.700093006 27.3638617,0.988630564 27.30383,1.4094145 C27.2437983,1.83019844 27.4839252,2.15480319 28.0001981,2.33513917 C28.516471,2.51547514 29.0327439,2.61165433 29.5490168,2.7919903 C30.0652898,2.97232628 30.3654484,3.20075184 30.5215309,3.69367017 C30.7976769,4.59535004 30.3054167,5.43691792 29.2848772,5.66534348 C28.2643377,5.89376905 27.4599125,5.66534348 26.6915063,5.06422357 C26.5594365,4.96804438 26.3673349,4.8838876 26.5714428,4.64343963 C26.7755507,4.40299167 26.8716015,4.35490207 27.0997221,4.54726045 C27.5919823,4.96804438 28.2283187,5.17242516 28.8766614,5.12433556 C29.1648137,5.11231316 29.4289534,5.00411158 29.6450676,4.82377561 C30.0652898,4.45108126 30.0172644,3.86198375 29.5490168,3.54940139 C29.0807693,3.23681904 28.7325853,3.24884144 28.3123631,3.12861745 C28.0602298,3.06850546 27.8201029,2.98434867 27.579976,2.88816949 C26.8235761,2.52749754 26.5474301,2.03457921 26.6915063,1.25312333 C26.7875571,0.676048209 27.3998808,0.159085085 28.0602298,0.0749282968 L28.5885091,0.0508835003 Z" id="Shape" fill="#5C90C9"></path>
                            <path d="M117.315412,5.73747787 C115.64653,5.73747787 114.373857,4.37894687 114.505927,2.75592311 C114.637997,1.13289934 116.066752,-0.201586863 117.771653,0.0508835003 C118.27592,0.110995492 118.744168,0.303353864 119.140377,0.615936218 C119.272447,0.724137802 119.536586,0.820316988 119.332479,1.08480975 C119.128371,1.34930251 118.996301,1.38536971 118.744168,1.15694414 C118.383977,0.832339387 117.903723,0.652003413 117.423469,0.652003413 C116.474968,0.627958616 115.706562,1.10885455 115.358378,1.98648962 C114.974175,2.92423668 115.226308,4.00625252 115.994714,4.66748443 C116.703089,5.24455954 117.687609,5.30467154 118.456015,4.82377561 C118.612098,4.72759642 118.756174,4.61939484 118.888244,4.49917085 C119.116364,4.28276768 119.236428,4.48714845 119.380504,4.61939484 C119.52458,4.75164122 119.404517,4.89591 119.284453,5.00411158 C118.720155,5.50905231 118.119837,5.73747787 117.315412,5.73747787 Z" id="Shape" fill="#456AA4"></path>
                            <path d="M85.2584662,4.81175321 L86.843304,1.01267536 L87.1074436,0.351443457 C87.1674753,0.219197076 87.2395134,0.0989730933 87.4076023,0.110995492 C87.5756911,0.12301789 87.7197673,0.0869506951 87.8158181,0.159085085 C87.9118688,0.231219474 87.8038117,0.411555448 87.7557863,0.53177943 L85.7147074,5.31669393 C85.6186566,5.5330971 85.5466185,5.74950027 85.2224471,5.74950027 C84.8982758,5.74950027 84.8742631,5.5330971 84.7902187,5.32871633 C84.1058569,3.72973737 83.4335015,2.1427808 82.7491397,0.543801829 C82.7011143,0.423577846 82.5090128,0.231219474 82.7371333,0.147062686 C82.9652539,0.0629058986 83.1813682,0.0268387038 83.3374507,0.243241872 C83.3974824,0.351443457 83.4455078,0.459645041 83.4815268,0.567846625 L85.2584662,4.81175321 Z" id="Shape" fill="#5879AD"></path>
                            <path d="M105.681262,4.36692447 C105.825338,3.77782696 105.52518,3.20075184 105.092951,2.62367673 C104.660723,2.04660161 104.072412,1.14492174 103.556139,0.39953305 C103.412063,0.195152279 103.400056,0.0989730933 103.700215,0.0869506951 C103.976361,0.0508835003 104.252507,0.183129881 104.396583,0.435600244 C104.852824,1.14492174 105.345084,1.83019844 105.789319,2.53951994 C105.969414,2.84007989 106.053459,2.7799679 106.221548,2.52749754 C106.689795,1.80615364 107.182056,1.10885455 107.674316,0.387510651 C107.770367,0.243241872 107.854411,0.0629058986 108.082532,0.0869506951 C108.310652,0.110995492 108.430716,0.00279390733 108.526766,0.159085085 C108.622817,0.315376262 108.430716,0.39953305 108.358677,0.507734634 C107.782373,1.34930251 107.218075,2.20289279 106.617757,3.03243827 C106.389637,3.32097582 106.281579,3.66962537 106.305592,4.03029732 C106.329605,4.39096927 106.317599,4.75164122 106.305592,5.11231316 C106.293586,5.47298511 106.425656,5.61725389 106.005434,5.61725389 C105.585211,5.61725389 105.693269,5.30467154 105.669256,5.07624597 C105.645243,4.8478204 105.681262,4.70355162 105.681262,4.36692447 Z" id="Shape" fill="#4C6FA6"></path>
                            <path d="M133.067739,2.86412469 C133.067739,2.0826688 133.067739,1.30121292 133.067739,0.519757032 C133.067739,0.291331465 133.03172,0.0869506951 133.391911,0.0869506951 C133.752101,0.0869506951 133.692069,0.32739866 133.692069,0.543801829 C133.692069,1.86626564 133.692069,3.18872944 133.692069,4.51119325 C133.692069,5.01613398 133.692069,5.02815638 134.220349,5.02815638 L136.441523,5.02815638 C136.693656,5.02815638 136.801713,5.10029077 136.789707,5.36478353 C136.7777,5.62927629 136.633624,5.64129869 136.441523,5.64129869 C135.444996,5.64129869 134.436463,5.62927629 133.439936,5.65332109 C133.091752,5.66534348 133.055733,5.49702991 133.055733,5.22051475 C133.079746,4.42703646 133.067739,3.64558058 133.067739,2.86412469 Z" id="Shape" fill="#3D66A4"></path>
                            <path d="M130.066153,2.88816949 C130.066153,3.68164777 130.054146,4.48714845 130.066153,5.28062674 C130.066153,5.5210747 130.006121,5.64129869 129.729975,5.64129869 C129.453829,5.64129869 129.369784,5.5691643 129.369784,5.30467154 C129.381791,3.68164777 129.381791,2.07064641 129.369784,0.459645041 C129.369784,0.159085085 129.513861,0.0989730933 129.778,0.0989730933 C130.04214,0.0989730933 130.054146,0.303353864 130.054146,0.507734634 C130.066153,1.30121292 130.066153,2.0946912 130.066153,2.88816949 Z" id="Shape" fill="#426AA6"></path>
                            <path d="M24.05011,0.736160201 C24.1221481,1.24110093 23.9540592,1.60177287 23.5098244,1.84222084 C23.3777546,1.91435523 23.2216721,1.95042242 23.1376276,1.80615364 C23.0535832,1.66188487 23.1736467,1.60177287 23.2817038,1.52963849 C23.3897609,1.4575041 23.6779132,1.24110093 23.3897609,0.952563369 C23.1016086,0.664025811 23.3177228,0.495712236 23.3417355,0.267286669 C23.3657482,0.0388611021 23.5458434,0.110995492 23.6659069,0.110995492 C23.7859704,0.110995492 24.014091,0.0508835003 24.0381036,0.291331465 C24.05011,0.435600244 24.05011,0.591891422 24.05011,0.736160201 Z" id="Shape" fill="#5F94CE"></path>
                            <path d="M69.8783359,5.26860434 C69.9383676,5.61725389 69.7222534,5.62927629 69.4581137,5.64129869 C69.1939741,5.65332109 69.0979233,5.46096271 69.085917,5.19646995 C69.0739106,4.93197719 69.1579551,4.77568601 69.4821264,4.77568601 C69.8062978,4.77568601 69.9023486,4.96804438 69.8783359,5.26860434 Z" id="Shape" fill="#5C7FB3"></path>
                            <path d="M147.127171,5.28062674 C147.19921,5.60523149 146.983095,5.62927629 146.718956,5.64129869 C146.454816,5.65332109 146.418797,5.38882832 146.394784,5.17242516 C146.370772,4.95602199 146.526854,4.78770841 146.815006,4.78770841 C147.103159,4.78770841 147.139178,5.02815638 147.127171,5.28062674 Z" id="Shape" fill="#416AA7"></path>
                            <path d="M55.6147958,1.83019844 C55.6147958,0.700093006 55.6147958,0.700093006 56.7313861,0.700093006 C57.1155892,0.676048209 57.4877859,0.712115404 57.8599827,0.80829459 C58.3762556,0.964585767 58.6403952,1.28919052 58.6403952,1.80615364 C58.6524016,2.31109437 58.3042175,2.74390071 57.8119573,2.84007989 C57.1876273,2.98434867 56.5392845,2.94828148 55.9029482,2.94828148 C55.6988403,2.94828148 55.6147958,2.86412469 55.6147958,2.65974392 C55.6147958,2.45536315 55.6147958,2.118736 55.6147958,1.83019844 Z" id="Shape" fill="#FDFDFE"></path>
                            <path d="M97.7330605,1.80615364 C97.7330605,0.700093006 97.7330605,0.700093006 98.8256381,0.700093006 C99.1978349,0.700093006 99.582038,0.676048209 99.9542347,0.796272192 C100.518533,0.976608166 100.794679,1.31323532 100.782673,1.83019844 C100.75866,2.32311677 100.410476,2.74390071 99.9182157,2.85210229 C99.2938856,3.00839347 98.6455429,2.96030388 98.0092065,2.96030388 C97.8050986,2.96030388 97.7330605,2.84007989 97.7330605,2.65974392 C97.7330605,2.47940795 97.7330605,2.0946912 97.7330605,1.80615364 Z" id="Shape" fill="#FCFCFD"></path>
                            <path d="M62.6985405,2.87614709 C62.6985405,2.29907197 62.7105468,1.70997446 62.6865341,1.13289934 C62.6745278,0.784249794 62.8065976,0.688070608 63.1427753,0.700093006 C63.8631561,0.712115404 64.5835369,0.664025811 65.2318797,1.07278735 C66.0002859,1.57772808 66.384489,2.51547514 66.1683747,3.41715501 C65.9522605,4.30681248 65.1958606,4.95602199 64.2833783,5.01613398 C63.8631561,5.04017877 63.442934,5.01613398 63.0227118,5.02815638 C62.6024897,5.04017877 62.6865341,4.91995479 62.6865341,4.66748443 C62.7105468,4.07838691 62.6985405,3.477267 62.6985405,2.87614709 Z" id="Shape" fill="#FEFEFE"></path>
                            <path d="M139.995401,2.88816949 C139.995401,2.28704957 140.007408,1.68592966 139.995401,1.08480975 C139.983395,0.796272192 140.103459,0.700093006 140.379605,0.712115404 C140.871865,0.724137802 141.376131,0.700093006 141.868392,0.80829459 C142.912944,1.03672016 143.573293,1.93840003 143.513261,3.06850546 C143.465236,4.11445411 142.636798,4.95602199 141.592246,5.02815638 C141.172023,5.05220117 140.751801,5.02815638 140.331579,5.04017877 C139.911357,5.05220117 139.983395,4.94399959 139.983395,4.69152923 C140.007408,4.07838691 139.995401,3.477267 139.995401,2.88816949 Z" id="Shape" fill="#FEFEFE"></path>
                            <path d="M16.5821623,2.84007989 C16.5821623,2.26300478 16.5941686,1.68592966 16.5821623,1.10885455 C16.5701559,0.796272192 16.7022257,0.688070608 17.0023844,0.700093006 C17.3025431,0.712115404 17.8668414,0.700093006 18.3110762,0.784249794 C19.4876982,1.01267536 20.1840663,1.89031043 20.1000219,3.09255026 C20.0159775,4.29479008 19.1155014,5.00411158 17.9748985,5.02815638 C17.6507271,5.02815638 17.3385621,5.00411158 17.0143907,5.02815638 C16.6902194,5.05220117 16.5701559,4.89591 16.5821623,4.57130524 C16.5941686,4.00625252 16.5821623,3.41715501 16.5821623,2.84007989 Z" id="Shape" fill="#FEFEFE"></path>
                            <path d="M12.524017,2.93625908 C12.5120107,4.2106333 11.5635093,5.17242516 10.3268556,5.12433556 C9.09020183,5.07624597 8.22574486,4.1986109 8.24975756,2.86412469 C8.2857766,1.33728011 9.29430973,0.652003413 10.4109,0.639981015 C11.5274902,0.627958616 12.5840488,1.85424324 12.524017,2.93625908 Z" id="Shape" fill="#FEFEFE"></path>
                            <path d="M47.3064038,2.86412469 C47.3064038,1.55368328 48.1588544,0.664025811 49.3955082,0.664025811 C50.6321619,0.664025811 51.568657,1.62581767 51.5446443,2.96030388 C51.568657,4.1505213 50.6081492,5.13635796 49.4195209,5.16040276 C49.4195209,5.16040276 49.4075145,5.16040276 49.4075145,5.16040276 C48.3989814,5.17242516 47.210353,4.1865885 47.3064038,2.86412469 Z" id="Shape" fill="#FEFEFE"></path>
                        </g>
                        <g id="Layer_1_copy" transform="translate(0, 22.2591)">
                            <path d="M77.0837643,15.1979289 C77.0837643,10.5332384 77.0957706,5.86854785 77.0717579,1.19183494 C77.0717579,0.650827014 77.2158341,0.530603032 77.7441133,0.530603032 C79.5090463,0.566670226 81.261973,0.554647828 83.0269059,0.530603032 C83.4831471,0.518580633 83.5912043,0.662849412 83.5912043,1.10767815 C83.5791979,4.57012884 83.5912043,8.03257954 83.5671916,11.5070526 C83.5671916,11.9639038 83.651236,12.1201949 84.1555026,12.1201949 C87.6973749,12.0961501 91.2392472,12.0961501 94.7811195,12.1201949 C95.3093988,12.1201949 95.3934432,11.9518814 95.3934432,11.4709854 C95.3694305,8.02055714 95.3934432,4.58215124 95.3694305,1.13172294 C95.3694305,0.662849412 95.489494,0.518580633 95.9697478,0.530603032 C97.7466872,0.554647828 99.5356329,0.554647828 101.312572,0.530603032 C101.708782,0.530603032 101.864864,0.602737421 101.864864,1.04756616 C101.852858,10.4851488 101.852858,19.910709 101.864864,29.3482916 C101.864864,29.7450308 101.756807,29.8652548 101.360598,29.8532324 C99.5836582,29.84121 97.7947126,29.8291876 96.0177732,29.8532324 C95.525513,29.8652548 95.3694305,29.7330084 95.3694305,29.2160453 C95.3934432,25.7295498 95.3694305,22.2430543 95.3934432,18.7565588 C95.3934432,18.2035285 95.2613734,18.0592597 94.7090814,18.0592597 C91.2152345,18.0833045 87.7093812,18.0833045 84.2035279,18.0592597 C83.6992614,18.0592597 83.5671916,18.1915061 83.5791979,18.6844244 C83.6032106,22.1949647 83.5791979,25.6934826 83.6032106,29.2040229 C83.6032106,29.7089636 83.4471281,29.84121 82.9548679,29.84121 C81.1899349,29.8171652 79.4370082,29.8171652 77.6720753,29.84121 C77.1678087,29.8532324 77.0837643,29.6728964 77.0837643,29.2160453 C77.0957706,24.5633771 77.0837643,19.8746418 77.0837643,15.1979289 Z" id="Shape" fill="#E09C3C"></path>
                            <path d="M138.100019,10.4971712 C138.568266,9.99223045 138.940463,9.52335692 139.384698,9.13864018 C142.278228,6.60191415 145.531948,6.39753338 148.953756,7.76808678 C151.150918,8.62167705 152.927857,10.2927904 153.900371,12.4447997 C155.869412,16.7127511 155.893425,21.0408144 153.684257,25.2125866 C151.307,29.6969412 145.652011,31.5243457 141.173644,29.420426 C140.165111,28.9515525 139.31266,28.2542534 138.55626,27.4487527 C138.436197,27.2924615 138.280114,27.1722376 138.100019,27.1001032 L138.100019,27.6651559 C138.100019,30.8150242 138.088013,33.9528702 138.112025,37.1027385 C138.112025,37.6437464 137.955943,37.7639704 137.43967,37.751948 C135.722762,37.7158808 133.993848,37.7279032 132.276941,37.751948 C131.892738,37.751948 131.712642,37.691836 131.712642,37.2470073 C131.724649,27.4727975 131.724649,17.6985877 131.712642,7.92437796 C131.712642,7.55168361 131.796687,7.40741483 132.204903,7.40741483 C134.005855,7.43145963 135.806807,7.43145963 137.607759,7.40741483 C138.027981,7.40741483 138.100019,7.56370601 138.088013,7.93640035 C138.088013,8.75392344 138.100019,9.58346891 138.100019,10.4971712 Z" id="Shape" fill="#E09C3C"></path>
                            <path d="M128.855132,18.3598196 C128.819113,24.4551756 124.664917,29.2521125 118.913877,30.1537923 C114.7957,30.7909794 111.085739,29.9133444 108.060139,26.9919016 C101.696775,20.8604785 104.398203,9.99223045 112.886691,7.56370601 C117.929356,6.12101822 122.443743,7.13089967 126.069659,11.0742463 C128.014688,13.1901884 128.831119,15.7990488 128.855132,18.3598196 Z" id="Shape" fill="#E09C3C"></path>
                            <path d="M172.162025,20.8725009 C169.736743,20.8725009 167.323467,20.8845233 164.898185,20.8604785 C164.45395,20.8604785 164.357899,20.9446353 164.489969,21.389464 C165.402452,24.3830412 167.899772,25.4530346 170.709257,25.164497 C172.318107,24.9961835 173.686831,24.286862 174.863453,23.2048461 C175.151605,22.9403534 175.319694,22.9643982 175.59584,23.2168685 C176.568354,24.106526 177.552875,24.9961835 178.561408,25.8377513 C178.897585,26.1142665 178.801535,26.2825801 178.573414,26.5470728 C177.132652,28.182119 175.379726,29.3242468 173.278615,29.8892996 C170.493143,30.6467106 167.731683,30.5505315 165.042261,29.5045828 C161.860579,28.2542534 159.663418,26.0060649 158.630872,22.7239502 C157.442244,18.91285 157.766415,15.2099513 159.999596,11.8436798 C162.424878,8.18887072 165.954744,6.67404854 170.301041,7.02269809 C175.511796,7.44348203 178.813541,11.1103135 179.750036,16.1476984 C180.014176,17.5302742 180.014176,18.9368948 179.990163,20.331493 C179.978157,20.7402545 179.846087,20.8725009 179.425865,20.8725009 C177.000583,20.8604785 174.587307,20.8725009 172.162025,20.8725009 Z" id="Shape" fill="#E09C3C"></path>
                            <path d="M17.9284934,30.0335683 C16.703846,30.3341283 15.4431796,30.4423299 14.1945195,30.3581731 C11.5291105,30.2139043 9.03179038,29.54065 6.78660352,28.061895 C2.90855349,25.5131466 0.735404714,21.8703599 0.147093719,17.2898262 C-0.393191889,13.057942 0.543303165,9.16268498 3.14868043,5.74832387 C5.53794345,2.61047793 8.73163171,0.783073395 12.6216881,0.205998279 C14.1104751,-0.0224272878 15.5872558,-0.106584076 17.0760428,0.193975881 C17.5923157,0.458468642 17.7724109,0.915319776 17.6883665,1.4443053 C17.604322,1.97329082 17.5923157,2.8268811 17.1360745,3.40395621 C16.9439729,3.488113 16.7398651,3.42800101 16.5477635,3.40395621 C13.0779293,2.92306028 9.99229813,3.81271775 7.38692086,6.14506301 C5.48991806,7.85224357 4.34931511,10.0643648 3.89307393,12.5650237 C3.2687439,16.015452 3.74899777,19.2855443 5.75405769,22.2069871 C7.61504145,24.9240491 10.1843997,26.523028 13.4621324,26.9798792 C14.5667163,27.1361704 15.6953129,27.1121256 16.7998968,26.9317896 C17.0520301,26.8837 17.3161697,26.8115656 17.5562966,26.9678568 C18.0005315,27.6651559 17.7844172,28.422567 17.7964236,29.1679557 C17.8084299,29.4685156 17.7243855,29.7690756 17.9284934,30.0335683 Z" id="Shape" fill="#5F9FDE"></path>
                            <path d="M36.5023119,13.3104124 C35.5177915,14.9214137 35.3016773,16.6887063 35.32569,18.552178 C35.3737153,22.1108079 35.32569,25.6814602 35.3497027,29.2400901 C35.3497027,29.7330084 35.2296392,29.9133444 34.7133663,29.8772772 C33.9929855,29.8291876 33.2726046,29.8532324 32.5522238,29.8772772 C32.2040398,29.8892996 32.0599636,29.7931204 32.0599636,29.4084036 C32.07197,22.4835022 32.07197,15.5586008 32.0599636,8.62167705 C32.0599636,8.26100511 32.1560144,8.12875873 32.5282111,8.14078112 C33.3086237,8.16482592 34.0890362,8.16482592 34.8694488,8.14078112 C35.2536519,8.12875873 35.3376963,8.2850499 35.3376963,8.63369945 C35.32569,9.63155851 35.32569,10.6294176 35.32569,11.6873886 C35.637855,11.579187 35.6618677,11.2425599 35.8779819,11.1343583 C36.0940962,11.0261567 36.262185,11.0021119 36.2741914,11.2545823 C36.2982041,11.8557022 36.5863564,12.4688445 36.2861977,13.057942 C36.1421215,13.4065916 36.4782993,13.2022108 36.5023119,13.3104124 Z" id="Shape" fill="#5B95D1"></path>
                            <path d="M45.7832181,8.22493791 C49.0489444,9.33099855 50.5737504,11.7835678 50.9219345,15.0536601 C51.2220932,17.8669013 50.9939726,20.6921649 51.041998,23.5174285 C51.0660107,25.3929226 51.0179853,27.2804391 51.0660107,29.1679557 C51.078017,29.7690756 50.8859155,29.9253668 50.3216172,29.8892996 C49.6612681,29.84121 49.000919,29.84121 48.3405699,29.8892996 C47.8603161,29.9133444 47.7282462,29.7570532 47.7282462,29.2761572 C47.7402526,25.1885418 47.7282462,21.1129488 47.7402526,17.0253334 C47.7402526,15.65478 47.4641066,14.3683834 46.7677385,13.178166 C46.5276116,12.7814268 46.1794275,12.4808669 45.9032815,12.1201949 C45.3269769,11.0502015 45.4590467,9.90807367 45.6151292,8.77796823 C45.6271355,8.57358746 45.6031229,8.36920669 45.7832181,8.22493791 Z" id="Shape" fill="#5C8EC6"></path>
                            <path d="M63.2524527,20.3194706 C61.5235388,20.4396945 59.7826185,20.3435153 58.0537045,20.3675601 C57.273292,20.3795825 57.273292,20.3675601 57.4053618,21.1369936 C57.5974633,22.3151887 58.0657109,23.3851821 58.7020473,24.3830412 C58.7740853,24.6595563 58.7380663,24.9480939 58.5939901,25.1885418 C58.4739267,25.3809002 58.3658695,25.585281 58.0897236,25.5131466 C57.8375903,25.465057 57.6695014,25.2366314 57.6815078,24.9841611 C57.6695014,24.7076459 57.6935141,24.4311308 57.7655522,24.1546156 C57.8015712,24.0343916 57.897622,23.8540556 57.6935141,23.805966 C57.4894062,23.7578765 57.4653935,23.9502348 57.4653935,24.0704588 C57.5254253,24.9000043 57.2012539,25.7776394 57.8856157,26.523028 C58.137749,26.7995432 58.1977807,27.2323495 58.4619203,27.5449319 C58.7260599,27.8575143 58.6300092,28.0258278 58.3658695,28.2181862 C56.372816,26.7995432 55.0881369,24.8759595 54.4758132,22.5436142 C53.3712293,18.3598196 54.019572,14.4886074 56.8410635,11.0982911 C57.7655522,9.98020806 58.9421742,9.11459538 60.286885,8.56156506 C60.6350691,9.24684176 60.6230627,9.98020806 60.527012,10.7135744 C60.4909929,11.0141343 60.4309612,11.3026719 60.5750374,11.5912094 C60.7191135,11.879747 60.3108977,12.0240158 60.1187962,12.1923293 C58.8221107,13.4065916 57.9456474,14.9935481 57.6094697,16.7367959 C57.4533872,17.5302742 57.4773999,17.5663414 58.2698188,17.5663414 L61.739653,17.5663414 C61.9917863,17.5663414 62.2679323,17.5302742 62.4840465,17.7106101 C62.7121671,18.1434165 62.6641417,18.61229 62.5921036,19.0450963 C62.4840465,19.7063282 62.60411,20.1150898 63.2524527,20.3194706 Z" id="Shape" fill="#5D8BC2"></path>
                            <path d="M26.0808029,4.8947336 C27.8457359,6.80629492 28.9503198,9.06650579 29.478599,11.5912094 C30.4871322,16.3641015 29.6226752,20.7402545 26.6811202,24.6715787 C26.4529996,24.9480939 26.2128727,25.2005642 25.9607394,25.4530346 C25.6605808,25.4289898 25.7206125,25.1885418 25.7086061,25.0082059 C25.6605808,23.7939436 25.5885427,22.5917038 25.7566315,21.3774416 C25.7926506,21.0648592 25.7446252,20.7402545 25.600549,20.4517169 C25.4924919,20.1992466 25.56453,19.9467762 25.5525236,19.6822834 C25.7806442,18.5642004 26.0808029,17.4701622 26.18886,16.3280343 C26.3569489,14.596809 26.0928092,12.9497404 25.6485744,11.3026719 C25.56453,11.0141343 25.4444665,10.7376191 25.4684792,10.4250368 C25.8646886,9.03043859 25.5885427,7.5997732 25.6605808,6.19315261 C25.6485744,5.92865985 25.6605808,5.67618948 25.6845934,5.41169672 C25.7326188,5.18327115 25.7566315,4.91877839 26.0808029,4.8947336 Z" id="Shape" fill="#5B98D4"></path>
                            <path d="M67.9829534,8.38122909 C70.1200831,9.09055059 71.6328828,10.5332384 72.7494731,12.4327773 C74.1061902,14.7410778 74.514406,17.2778038 74.4543743,19.910709 C74.442368,20.1872242 74.3823362,20.3795825 74.0461585,20.3675601 C73.0136127,20.331493 71.9690605,20.4276721 70.9365147,20.3194706 C70.3482037,20.331493 69.9640006,20.0429554 69.8919625,19.4538579 C69.8199244,18.8647604 69.7839054,18.3477972 69.9399879,17.8067893 C70.012026,17.7106101 70.1200831,17.6384757 70.2401466,17.6264533 C70.9845401,17.4701622 70.9845401,17.4581398 70.8284576,16.7007287 C70.4922798,15.0656825 69.8799562,13.5628827 68.6673151,12.3606429 C68.523239,12.2163741 68.3791628,12.0721054 68.3791628,11.8557022 C68.5832707,11.4830078 68.7033342,11.0862687 69.0875373,10.7977311 C69.4717404,10.5091936 69.2796388,10.0042529 69.1955944,9.61953611 C69.11155,9.23481937 68.7873786,9.23481937 68.4752136,9.21077457 C67.8748962,9.15066258 67.7188137,8.88616982 67.9829534,8.38122909 Z" id="Shape" fill="#5E86BA"></path>
                            <path d="M64.1409224,27.5088647 C65.9418744,27.5689767 67.6827947,27.3044839 69.2676325,26.3787593 C70.048045,25.9219081 70.7564195,25.3688778 71.3927559,24.7316907 C71.5608447,24.5633771 71.6929145,24.4431532 71.9330415,24.6715787 C72.4253017,25.1404523 72.9295683,25.5973034 73.4458412,26.0421321 C73.6739618,26.2344905 73.6379427,26.3667369 73.4458412,26.5711176 C71.4888066,28.6990821 69.1235563,30.0215459 66.2180204,30.2860387 C65.4015888,30.3581731 64.5971636,30.4904195 63.780732,30.2740163 C63.4805733,29.2881796 63.4565606,28.3504326 64.1409224,27.5088647 Z" id="Shape" fill="#5E87BC"></path>
                            <path d="M67.9829534,8.38122909 C67.934928,8.81403543 67.9109153,9.18672977 68.5832707,9.0184162 C69.0154992,8.91021461 69.4117086,9.33099855 69.423715,9.77582729 C69.4357213,10.220656 69.4357213,10.3288576 69.423715,10.6173952 C69.4117086,10.9059327 69.3756896,10.9419999 69.3516769,10.9419999 C68.7393532,10.9660447 68.8474103,11.6513214 68.4632072,11.8917694 C68.0790041,12.1322173 68.0069661,11.7835678 67.8028582,11.6633438 C65.7017475,10.3529024 63.540605,10.4130144 61.3314372,11.3507615 C61.0793039,11.458963 60.8631897,11.6753662 60.563031,11.639299 C60.2628723,11.6032318 60.1908343,11.5671646 60.2748787,11.3146943 C60.5510247,10.4130144 60.3589231,9.51133452 60.286885,8.59763226 C62.5921036,7.55168361 64.9693603,7.47954922 67.382636,8.15280352 C67.5867439,8.21291551 67.7908518,8.2970723 67.9829534,8.38122909 Z" id="Shape" fill="#5E89BE"></path>
                            <path d="M64.1409224,27.5088647 C64.1529287,27.5689767 64.2129605,27.6531335 64.1889478,27.6771783 C63.5285987,28.4586342 63.85277,29.3963812 63.780732,30.2619939 C61.8116911,30.1658147 59.9146883,29.4685156 58.3658695,28.242231 C58.485933,27.9176262 58.4979394,27.6290887 58.137749,27.4247079 C57.9816664,27.3285287 57.8856157,27.1602152 57.8856157,26.9678568 C57.8736093,26.8356104 57.861603,26.6552744 57.7655522,26.5711176 C56.8410635,25.7535946 57.4173681,24.6956235 57.3213174,23.7458541 C57.2852983,23.4212493 57.621476,23.5414733 57.8255839,23.6015853 C58.0296918,23.6616973 58.2578124,23.7338317 58.0056791,23.9983244 C57.7535459,24.2628172 57.9336411,24.6836011 57.8015712,25.0202283 C57.6695014,25.3568554 57.9336411,25.3568554 58.1137363,25.404945 C58.2938315,25.4530346 58.3298505,25.2366314 58.4259013,25.1404523 C58.5219521,25.0442731 58.5579711,24.5994443 58.7020473,24.3710188 C60.0587644,26.2344905 61.9077419,27.2083047 64.1409224,27.5088647 Z" id="Shape" fill="#5D8AC0"></path>
                            <path d="M70.0240323,17.7586997 C70.0240323,18.2636405 70.012026,18.7565588 70.0240323,19.2614995 C70.0360387,19.790485 70.4202418,20.2353138 70.9365147,20.3194706 C69.8799562,20.4276721 68.835404,20.3675601 67.7788455,20.3675601 C66.2660458,20.3675601 64.7532461,20.4396945 63.2404464,20.3194706 C63.1203829,20.2954258 63.0123258,20.2954258 62.8922623,20.2954258 C62.4480275,20.3435153 62.2319132,20.1752018 62.3519767,19.730373 C62.5320719,19.0811635 62.4120084,18.431954 62.4480275,17.7827445 C62.6641417,17.554319 62.9643004,17.5903861 63.2404464,17.5903861 L69.2316134,17.5903861 C69.5077594,17.5663414 69.8079181,17.5302742 70.0240323,17.7586997 Z" id="Shape" fill="#5E87BC"></path>
                            <path d="M26.0808029,4.8947336 C25.876695,5.06304717 25.840676,5.29147274 25.840676,5.5439431 C25.8646886,6.75820533 25.7926506,7.96044515 25.8887013,9.17470737 C25.9247204,9.63155851 25.6965998,10.04032 25.5765363,10.4731264 C25.3003903,10.400992 25.2403586,10.1485216 25.1443078,9.94414086 C24.5079715,8.50145307 23.5714764,7.20303406 22.3948544,6.14506301 C22.2627846,6.02483903 22.1547275,5.86854785 22.1187084,5.68821188 C21.9266069,4.59417364 22.0586767,3.4760906 21.8665752,2.38205236 C21.8185498,2.129582 21.9266069,1.86508924 22.2867973,1.87711164 C23.7275589,2.64654512 25.0362507,3.60833698 26.0808029,4.8947336 Z" id="Shape" fill="#5C9AD7"></path>
                            <path d="M25.7086061,19.6582386 C25.7206125,20.0068882 25.6485744,20.3555377 25.8887013,20.6681201 C26.1288283,20.9807025 25.9847521,21.1369936 25.9487331,21.3654192 C25.6965998,22.6758606 25.9247204,23.9983244 25.8646886,25.3207882 C25.8646886,25.3688778 25.9367267,25.4169674 25.9727458,25.4530346 C25.1443078,26.5590952 24.075743,27.4006631 22.899121,28.0979622 C22.6830067,28.2302086 22.4548861,28.3384102 22.2507782,28.4706566 C22.070683,28.3143654 22.0826894,28.1099846 22.1187084,27.9176262 C22.2988036,26.9077448 22.2387719,25.8617961 21.9506196,24.8759595 C22.1547275,24.5513547 22.4068608,24.2628172 22.6950131,24.0223692 C23.8716351,22.9523758 24.664054,21.629912 25.3003903,20.1872242 C25.3844348,19.970821 25.4084475,19.6943058 25.7086061,19.6582386 Z" id="Shape" fill="#5C9AD7"></path>
                            <path d="M45.7832181,8.22493791 C45.7712117,9.19875217 45.5190784,10.1725664 45.6991736,11.1463807 C45.7231863,11.2545823 45.6271355,11.4469406 45.7712117,11.4709854 C46.3955417,11.5912094 45.9393006,11.879747 45.8912752,12.1081725 C44.222393,10.7135744 42.3133838,10.4490816 40.2482922,10.8578431 L39.7800446,10.9419999 C39.5879431,10.6895296 39.7680383,10.4971712 39.9601398,10.4130144 C40.5364445,10.1845888 40.5004254,9.72773769 40.4283874,9.27088656 C40.380362,8.87414742 40.2843112,8.47740828 40.1282287,8.10471393 C42.0132251,7.51561642 43.8982216,7.57572841 45.7832181,8.22493791 Z" id="Shape" fill="#5C90CA"></path>
                            <path d="M22.2747909,1.86508924 C22.034664,2.06947001 21.9746323,2.24980598 22.0586767,2.61047793 C22.2147592,3.29575463 22.1187084,4.02912092 22.1787402,4.75046482 C22.2027529,5.07506957 22.2988036,5.41169672 22.2267656,5.74832387 C21.9746323,5.80843586 21.8065434,5.64012229 21.6384546,5.51989831 C20.4858453,4.63024084 19.1891598,4.05316572 17.7964236,3.65642658 C17.568303,3.59631459 17.3161697,3.57226979 17.1840999,3.33182182 C17.3521887,2.93508268 17.2321253,2.50227634 17.4242268,2.08149241 C17.7243855,1.4202605 17.5803093,0.759028598 17.0640364,0.205998279 C18.9010075,0.362289456 20.6899532,0.927342174 22.2747909,1.86508924 Z" id="Shape" fill="#5D9DDB"></path>
                            <path d="M21.998645,24.8759595 C22.3948544,25.2005642 22.31081,25.6694378 22.3588354,26.1022441 C22.4068608,26.5350504 22.1427211,27.2684167 22.7910639,27.7012231 C21.9025942,27.5689767 22.346829,28.182119 22.2507782,28.4706566 C20.9300801,29.2761572 19.4653058,29.8051428 17.9404997,30.0335683 C17.7483982,29.9854787 17.5322839,30.1297475 17.604322,29.660874 C17.7363918,28.7952613 17.7844172,27.8935815 17.5562966,27.0159464 C17.6403411,26.7995432 17.8324426,26.7394312 18.0245442,26.6913416 C19.2972169,26.3787593 20.4378199,25.765617 21.5183911,25.0322507 C21.6624673,24.9360715 21.7945371,24.7557355 21.998645,24.8759595 Z" id="Shape" fill="#5D9CDA"></path>
                            <path d="M40.1162223,8.10471393 C40.5484508,8.40527389 40.7885778,10.04032 40.4524001,10.4250368 C40.3443429,10.5572832 40.2362858,10.4250368 40.1282287,10.4490816 C39.9121144,10.4971712 39.7560319,10.701552 39.7800446,10.9299775 C38.4833592,11.4349182 37.3307499,12.1322173 36.5023119,13.29839 L35.9980454,13.4907483 C36.4542866,12.7333373 36.1541279,11.999971 36.1901469,11.2906495 C36.2021533,11.0381791 35.9980454,11.1704255 35.8899883,11.1223359 C36.9585531,9.64358091 38.3152703,8.57358746 40.1162223,8.10471393 Z" id="Shape" fill="#5B93CD"></path>
                            <path d="M143.478862,12.4207549 C145.42389,12.4327773 146.924684,13.3104124 147.897198,14.9454585 C149.277928,17.2778038 149.289934,19.7183506 148.017261,22.0867631 C147.056754,23.8781004 145.45991,24.8158475 143.406824,24.8158475 C141.353739,24.8158475 139.864952,23.805966 138.868425,22.0627183 C137.379638,19.4538579 137.859892,15.8110712 139.93699,13.7913083 C140.873485,12.8896284 142.062113,12.4327773 143.478862,12.4207549 Z" id="Shape" fill="#FEFEFE"></path>
                            <path d="M122.527787,18.732514 C122.503774,21.7381135 120.870911,23.986302 118.229515,24.6475339 C114.723662,25.5371914 111.313859,23.1086669 110.941662,19.5019475 C110.725548,17.3980278 111.157777,15.4984889 112.718602,14.0077115 C114.279427,12.5169341 116.308499,12.1201949 118.40961,12.7573821 C120.510721,13.3945692 121.807406,14.9815257 122.359698,17.133535 C122.479762,17.6625205 122.539793,18.1915061 122.527787,18.732514 Z" id="Shape" fill="#FEFEFE"></path>
                            <path d="M169.016362,16.8329751 C167.611619,16.8329751 166.218883,16.8209527 164.814141,16.8449975 C164.405925,16.8570199 164.249842,16.7969079 164.369906,16.3280343 C164.898185,14.356361 165.858693,12.7573821 167.983816,12.2524413 C170.661232,11.6152542 172.96645,13.1541212 173.626799,15.9312952 C173.842913,16.8449975 173.842913,16.8449975 172.918425,16.8449975 L169.016362,16.8329751 Z" id="Shape" fill="#FEFEFE"></path>
                            <path d="M21.998645,24.8759595 C20.6659405,25.8738185 19.1651471,26.5951624 17.5562966,27.0159464 C16.7278587,27.0760584 15.8994208,27.2685245 15.0589765,27.2685245 C9.47602521,27.2924615 4.69749917,23.2890029 3.73699142,17.7827445 C3.07664235,14.1640026 3.61692796,10.7616639 5.79007673,7.74404198 C7.73510492,5.02697998 10.4125203,3.54822499 13.7382783,3.18755305 C14.902894,3.05530666 16.0434969,3.19957544 17.1961062,3.31979943 C19.0450836,3.72856097 20.7619912,4.57012884 22.2387719,5.74832387 C23.7155526,7.05876528 24.7961238,8.66976665 25.5765363,10.4731264 C26.1048156,12.0841278 26.4529996,13.7311963 26.4169806,15.4383769 C26.3929679,16.8810647 26.1048156,18.2756628 25.7086061,19.6582386 C24.9281936,21.6058672 23.8236097,23.3250701 22.2267656,24.7076459 L21.998645,24.8759595 Z" id="Shape" fill="#FEFEFE"></path>
                            <path d="M46.583044,10.7977311 C45.8331516,10.3529024 46.2393433,9.88402887 46.3643253,9.42717774 C46.9892357,9.87200647 46.6142895,10.34088 46.583044,10.7977311 Z" id="Shape" fill="#5C90CA"></path>
                            <path d="M70.0240323,17.7586997 L62.4600338,17.7586997 C60.8992087,17.7466773 59.35039,17.7346549 57.7895649,17.7466773 C57.3453301,17.7466773 57.273292,17.6384757 57.3453301,17.193647 C57.7175268,14.9334361 58.7500726,13.057942 60.5510247,11.6272766 C62.3519767,10.1966112 65.6777348,10.100432 67.7548328,11.4228958 L68.4512009,11.879747 C69.8799562,13.2022108 70.6723751,14.8613017 71.0085528,16.7728631 C71.1766416,17.7226325 71.188648,17.7226325 70.2521529,17.7346549 L70.0240323,17.7586997 Z" id="Shape" fill="#FEFEFE"></path>
                        </g>
                        <g id="Group" transform="translate(14.0745, 0)">
                            <path d="M0,22.73969 L1.68088856,22.73969 C1.14060295,22.0208508 0.540285608,22.0208508 0,22.73969 Z" id="Shape" fill="url(#linearGradient-1)"></path>
                            <path d="M124.974064,15.3958832 C124.325722,14.9270097 123.761423,14.4340913 123.605341,13.5564563 C123.485277,12.9072468 123.221138,12.3061268 122.836935,11.7651189 C122.836935,11.7651189 122.824928,11.7530965 122.824928,11.7530965 C122.692858,11.3683798 122.48875,11.0077078 122.212604,10.6951255 C122.212604,10.6951255 122.224611,10.6831031 122.224611,10.6831031 C121.816395,9.925692 121.300122,9.2283929 120.675792,8.62727298 C120.675792,8.62727298 120.675792,8.62727298 120.675792,8.62727298 C120.675792,8.62727298 120.663786,8.62727298 120.663786,8.62727298 C120.471684,8.35075782 120.231557,8.11030986 119.967418,7.90592909 C119.967418,7.90592909 119.967418,7.90592909 119.955411,7.90592909 C119.955411,7.90592909 119.955411,7.89390669 119.967418,7.89390669 C119.907386,7.79772751 119.739297,7.62941393 119.715284,7.70154832 L119.583215,7.56930194 C119.583215,7.56930194 119.583215,7.55727954 119.583215,7.55727954 C119.439138,7.26874198 119.187005,7.08840601 118.922865,6.93211483 C118.910859,6.92009243 118.886846,6.92009243 118.87484,6.90807003 C118.550669,6.58346528 118.202485,6.29492772 117.806275,6.06650216 C117.806275,6.06650216 117.806275,6.06650216 117.806275,6.06650216 C117.806275,6.06650216 117.806275,6.06650216 117.806275,6.06650216 L117.686212,5.99436777 C117.686212,5.99436777 117.686212,5.99436777 117.686212,5.98234537 C117.253983,5.59762863 116.761723,5.28504627 116.24545,5.03257591 C116.149399,4.91235193 116.01733,4.84021754 115.873253,4.80415034 L115.861247,4.80415034 C115.861247,4.80415034 115.861247,4.80415034 115.849241,4.80415034 C115.861247,4.80415034 115.861247,4.79212794 115.873253,4.79212794 C115.75319,4.65988156 115.597107,4.57572477 115.417012,4.53965758 C115.417012,4.53965758 115.417012,4.53965758 115.417012,4.53965758 C115.417012,4.53965758 115.417012,4.52763518 115.417012,4.52763518 C114.744657,4.08280645 114.01227,3.7221345 113.243863,3.45764174 C113.231857,3.45764174 113.219851,3.44561934 113.207844,3.44561934 C113.039755,3.32539536 112.847654,3.24123857 112.643546,3.21719377 C112.643546,3.21719377 112.643546,3.21719377 112.643546,3.21719377 C112.439438,3.07292499 112.211318,2.97674581 111.959184,2.96472341 C111.959184,2.96472341 111.947178,2.96472341 111.947178,2.96472341 C111.947178,2.96472341 111.947178,2.96472341 111.947178,2.96472341 C111.550968,2.80843223 111.238803,2.59202906 110.722531,2.73629784 C110.722531,2.73629784 110.722531,2.73629784 110.722531,2.73629784 C110.722531,2.73629784 110.722531,2.72427544 110.722531,2.72427544 C110.062181,2.44776028 109.37782,2.24337951 108.669445,2.09911073 C108.669445,2.09911073 108.669445,2.09911073 108.657439,2.09911073 C107.961071,1.84664037 107.24069,1.6663044 106.520309,1.55810281 C106.520309,1.55810281 106.520309,1.57012521 106.508303,1.57012521 C106.508303,1.55810281 106.508303,1.54608042 106.508303,1.53405802 C106.1241,1.38978924 105.72789,1.29361005 105.319674,1.28158765 C105.307668,1.28158765 105.307668,1.28158765 105.295662,1.28158765 C104.443211,1.04113969 103.566748,0.872826113 102.690285,0.812714122 C102.174012,0.656422944 101.645732,0.572266157 101.105447,0.572266157 C101.09344,0.572266157 101.09344,0.572266157 101.081434,0.572266157 C100.817294,0.440019776 100.541148,0.464064572 100.277009,0.464064572 C100.277009,0.464064572 100.265002,0.476086971 100.265002,0.476086971 C100.265002,0.476086971 100.265002,0.476086971 100.265002,0.476086971 C99.4725836,0.319795793 98.6681583,0.235639006 97.8637331,0.235639006 C97.8637331,0.235639006 97.8637331,0.223616607 97.8637331,0.223616607 C97.3474602,0.0913702267 96.8311873,0.0913702267 96.302908,0.103392625 C96.302908,0.103392625 96.302908,0.115415023 96.2909016,0.115415023 C95.5345018,0.0192358372 94.7781019,-0.0168313576 94.0217021,0.00721343895 L91.2602423,0.00721343895 L91.6564518,0.223616607 C91.6564518,0.235639006 91.6564518,0.247661404 91.6564518,0.2717062 C91.6564518,0.259683802 91.6564518,0.247661404 91.6444454,0.223616607 C91.0921535,0.464064572 90.5038425,0.259683802 89.9395442,0.355862988 C89.9395442,0.355862988 89.9395442,0.367885386 89.9395442,0.367885386 L88.6068397,0.367885386 C87.7303764,0.331818192 86.853913,0.367885386 85.9774497,0.464064572 L85.2690753,0.488109369 C84.8248404,0.452042174 84.3685992,0.488109369 83.9363708,0.584288555 C83.2039836,0.536198962 82.4956091,0.656422944 81.7752283,0.728557334 C81.6071395,0.704512537 81.451057,0.716534936 81.2949744,0.764624529 C81.2469491,0.776646927 81.1869173,0.788669325 81.1388919,0.812714122 L80.6946571,0.836758918 C80.6946571,0.836758918 80.6826508,0.848781316 80.6826508,0.848781316 C80.274435,0.812714122 79.8902319,0.896870909 79.4940224,0.969005299 L79.4940224,0.969005299 C78.8937051,0.981027697 78.2813814,1.05316209 77.6930704,1.18540847 L77.6930704,1.18540847 L77.6930704,1.18540847 C77.0087086,1.20945326 76.3243469,1.29361005 75.6519914,1.43787883 C74.8115472,1.51001322 73.9831092,1.6422596 73.1546713,1.81057318 C73.1666776,1.82259557 73.1666776,1.83461797 73.178684,1.84664037 C73.1666776,1.83461797 73.1426649,1.82259557 73.1306586,1.82259557 L69.7688815,2.41169309 L69.1685641,2.54393947 C69.1685641,2.54393947 69.1685641,2.53191707 69.1685641,2.53191707 C68.8804118,2.60405146 69.1565578,2.01495395 68.7243293,2.18326752 C68.2921008,2.3515811 67.8238533,2.39967069 67.3676121,2.50787228 C66.7913075,2.56798427 66.2270092,2.72427544 65.6987299,2.95270101 C65.6987299,2.95270101 65.6987299,2.95270101 65.6987299,2.95270101 C65.3985712,2.96472341 65.1704506,3.16910418 64.8943047,3.24123857 C64.8822983,3.24123857 64.870292,3.25326097 64.870292,3.25326097 L64.870292,3.24123857 C64.4980952,2.89258902 64.1138921,3.18112658 63.7416954,3.22921617 C63.7416954,3.24123857 63.729689,3.24123857 63.729689,3.25326097 C63.3935113,3.36146255 63.0093082,3.34944015 62.7211559,3.58988812 C62.7091495,3.58988812 62.7091495,3.58988812 62.6971432,3.58988812 C62.3129401,3.66202251 62.0367941,3.98662726 61.8446926,4.20303043 C61.8446926,4.20303043 61.8326862,4.21505283 61.8326862,4.21505283 C61.8326862,4.21505283 61.8326862,4.21505283 61.8326862,4.21505283 C61.028261,4.4074112 60.2118294,4.57572477 59.4314169,4.88830713 C59.4314169,4.88830713 59.4314169,4.88830713 59.4314169,4.88830713 C58.9391566,4.97246392 58.4589028,5.1047103 58.0026616,5.28504627 C57.0661665,5.51347184 56.1416778,5.8020094 55.2291955,6.13863655 C55.2291955,6.13863655 55.2291955,6.13863655 55.2291955,6.13863655 C55.0130812,6.16268134 54.8089733,6.22279333 54.6288781,6.34301732 L54.6408845,6.36706211 C54.6408845,6.37908451 54.6288781,6.37908451 54.6288781,6.39110691 C54.6288781,6.37908451 54.6288781,6.36706211 54.6408845,6.36706211 L54.6408845,6.34301732 L54.2927004,6.41515171 L54.1846433,6.27088293 C54.1846433,6.27088293 54.1726369,6.25886053 54.1726369,6.25886053 C54.2566814,6.17470374 54.4247702,6.17470374 54.4727956,5.98234537 L53.7043894,6.13863655 L53.7644211,6.16268134 C53.7404085,6.16268134 53.7163958,6.15065895 53.7043894,6.13863655 L52.719869,6.35503972 C52.7318753,6.35503972 52.7438817,6.36706211 52.755888,6.36706211 C52.7438817,6.36706211 52.7318753,6.36706211 52.719869,6.36706211 L52.5998055,6.36706211 C52.5998055,6.36706211 52.5877992,6.37908451 52.5877992,6.37908451 C52.5877992,6.36706211 52.5877992,6.36706211 52.5877992,6.35503972 C52.3716849,6.39110691 52.1795834,6.4752637 52.0114945,6.61953248 L52.0235009,6.63155488 C52.0235009,6.63155488 52.0235009,6.63155488 52.0114945,6.63155488 L51.5192343,6.94413723 L50.954936,7.148518 C50.9309233,7.148518 50.9069106,7.148518 50.8828979,7.1725628 C49.8743648,7.44907796 48.8898443,7.8217723 47.9533493,8.26660104 C47.9413429,8.26660104 47.9413429,8.26660104 47.9293366,8.26660104 C47.9293366,8.26660104 47.9293366,8.27862344 47.9293366,8.27862344 C47.5091144,8.38682502 47.0888923,8.48300421 46.6686702,8.60322819 C46.4765686,8.65131778 46.1403909,8.57918339 46.2004226,8.93985534 C46.2604544,9.30052729 46.5486067,9.06007932 46.7166956,9.12019131 C46.7287019,9.12019131 46.7407082,9.10816891 46.7527146,9.10816891 C46.7407082,9.12019131 46.7407082,9.12019131 46.7287019,9.13221371 L46.7166956,9.2163705 C46.7166956,9.2163705 46.7046892,9.2283929 46.7046892,9.2283929 L46.3925242,9.37266168 C46.3925242,9.37266168 46.3925242,9.37266168 46.3805178,9.37266168 L44.0993119,10.3464759 L43.7151088,10.5268119 C43.7151088,10.5268119 43.7271152,10.5388343 43.7271152,10.5388343 L43.1388042,10.8273719 C43.1388042,10.8393943 43.1267978,10.8514167 43.1267978,10.8634391 C43.1267978,10.8514167 43.1267978,10.8393943 43.1267978,10.8153495 L42.2743472,11.0557974 C42.2743472,11.0557974 42.2743472,11.0557974 42.2743472,11.0557974 L41.8060997,11.1760214 C41.5899855,11.2000662 41.3138395,11.0918646 41.2057824,11.404447 C41.193776,11.404447 41.193776,11.404447 41.1817697,11.404447 L41.0737125,11.4405142 C41.0496998,11.4284918 41.0136808,11.4164694 40.9896681,11.4284918 L40.9896681,11.4164694 C40.7615475,11.3202902 40.5574396,11.3804022 40.1852429,11.5126486 L40.7375348,11.5126486 L40.5814523,11.7651189 C40.329319,11.6328725 40.2452746,11.7651189 40.2212619,11.9694997 C40.2212619,11.9694997 40.2212619,11.9694997 40.2212619,11.9694997 C40.0891921,12.1017461 39.9090969,12.0897237 39.741008,12.1017461 C39.741008,12.1137685 39.7290017,12.1257909 39.7290017,12.1378133 C39.7290017,12.1378133 39.7290017,12.1257909 39.7290017,12.1257909 C39.66897,11.9334325 39.5609128,12.0536565 39.4528557,12.0656789 C38.7684939,12.1498357 38.492348,12.82309 37.940056,13.0875827 C37.7479545,12.9914035 37.6038783,13.0996051 37.4598021,13.2078067 C36.9195165,13.2799411 36.3432119,13.2438739 36.0070342,13.7969042 L35.5027676,14.001285 C35.4667486,14.001285 35.4307295,14.0133074 35.3947105,14.0253298 C34.9024503,14.0974642 34.4942345,14.3739793 34.098025,14.6504945 C34.0860187,14.6504945 34.0860187,14.6625169 34.0740123,14.6865617 C33.9059235,14.7947633 33.5697458,14.7106065 33.6057648,15.0712784 C33.78586,14.9991441 34.0019742,14.9871217 34.098025,14.7827409 L35.4067168,14.2778002 C35.4067168,14.2778002 35.4187232,14.2778002 35.4307295,14.2778002 L35.5267803,14.4701585 L35.586812,14.4461137 C35.5748057,14.4581361 35.5627993,14.4701585 35.550793,14.4821809 L34.8424185,14.8909425 L34.8184058,14.9149873 L34.8184058,14.8909425 C33.6417838,15.3838608 32.5251936,15.9729583 31.4566287,16.6702574 C31.4566287,16.6822798 31.4566287,16.6822798 31.4446224,16.6943022 L31.4446224,16.6822798 L31.0244002,16.9708174 C30.9763748,17.018907 30.8803241,17.0910414 30.9403558,17.1391309 C31.0003875,17.1872205 31.120451,17.1631757 31.2165018,17.1751981 L29.631664,18.2932812 C29.5836386,18.2812588 29.5236069,18.2692364 29.4755815,18.257214 C29.079372,18.076878 28.6111245,18.1129452 28.2389278,18.3293484 C27.9867945,18.4856396 27.7226549,18.5938411 27.4345025,18.6539531 C27.8187056,18.3053036 28.2629405,18.0528332 28.6831626,17.7642957 C28.8392451,17.6681165 29.0553594,17.7041837 29.1754228,17.5358701 C29.7037021,17.4517133 30.219975,17.3314893 30.5201337,16.8265486 C30.6642098,16.8025038 30.7962796,16.718347 30.8563114,16.5861006 C31.1084447,16.4418318 31.4926478,16.4899214 31.5646858,16.0931823 C31.2645272,16.0931823 31.0604193,16.2614959 30.844305,16.4418318 C30.844305,16.4418318 30.844305,16.4538542 30.8322987,16.4538542 L30.3760575,16.6822798 C29.9678417,16.9227278 29.5236069,17.0910414 29.1754228,17.4156461 L28.5751055,17.6440717 C27.7946929,17.8244076 26.9782613,17.9446316 26.6660963,18.8583339 C26.5340265,18.8823787 26.341925,18.8944011 26.3179123,19.0386699 C26.2938996,19.1829386 26.4259694,19.2069834 26.5340265,19.2310282 L26.6420836,19.1108043 C26.65409,19.1348491 26.690109,19.1709163 26.7381344,19.1829386 C26.7741535,19.194961 26.8101725,19.194961 26.8461915,19.194961 C26.7861598,19.2791178 26.7261281,19.375297 26.6781027,19.4714762 C26.7501408,19.9764169 27.0142804,20.3491113 27.3744708,20.6857384 C27.9147564,20.854052 28.2869532,20.4693353 28.7071753,20.2529321 C28.7431943,20.2168649 28.7912197,20.1687753 28.8152324,20.1327081 L29.5836386,19.9042825 C29.595645,19.9163049 29.595645,19.9283273 29.6076513,19.9403497 C29.667683,20.0725961 29.5716323,20.1807977 29.5596259,20.3130441 L28.4670484,20.8179848 L27.5065406,21.0584328 C27.5065406,21.1906792 27.5305533,21.3109031 27.7106485,21.2507911 L28.5991182,20.9622536 C28.6231309,20.9622536 28.6351372,20.9502312 28.6591499,20.9382088 L28.7191816,20.914164 L28.7191816,20.914164 C29.1273974,20.8660744 29.5356132,20.7698952 29.9198163,20.613604 C29.9558354,20.6015816 30.0038608,20.5895592 30.0518861,20.5655144 L30.0999115,20.5655144 L30.1479369,20.5414697 C30.1479369,20.5414697 30.1599433,20.5294473 30.1599433,20.5294473 C30.3640512,20.5174249 30.5561527,20.4452905 30.7242416,20.3250665 C30.7362479,20.3250665 30.7482543,20.3250665 30.7482543,20.3130441 C30.7482543,20.3130441 30.7602606,20.3010217 30.7602606,20.3010217 L31.2044954,20.1807977 C31.2165018,20.1807977 31.2165018,20.1687753 31.2285081,20.1687753 C31.3725843,20.1086633 31.6487303,20.1086633 31.3725843,19.8321482 C31.3725843,19.8321482 31.3725843,19.8321482 31.3725843,19.8321482 L31.4806414,19.7119242 C31.6007049,19.6999018 31.7327747,19.6999018 31.8288255,19.5917002 C31.8288255,19.5917002 31.8168191,19.5796778 31.8168191,19.5796778 C31.8288255,19.5796778 31.8288255,19.5917002 31.8408318,19.5917002 C32.9934411,19.2791178 34.1340441,18.8823787 35.2266216,18.3894604 C35.2266216,18.3894604 35.2266216,18.3894604 35.2266216,18.3894604 C36.1030849,18.2331692 36.8114594,17.6440717 37.6999291,17.5238477 C37.6999291,17.5238477 37.6999291,17.5118253 37.6999291,17.5118253 C37.6999291,17.5118253 37.7119354,17.5118253 37.7119354,17.5238477 C38.6364241,17.3555341 39.5969319,17.2954221 40.4854015,16.9467726 C40.4854015,16.9467726 40.4854015,16.9467726 40.4854015,16.9467726 C40.8215793,16.9347502 41.157757,16.8505934 41.4579156,16.7063246 C41.4459093,16.7063246 41.4218966,16.7063246 41.4098902,16.7063246 C41.4218966,16.7063246 41.4339029,16.7063246 41.4459093,16.6943022 C42.094252,16.598123 42.7305884,16.4418318 43.3429121,16.2134063 C43.2828804,16.1653167 43.234855,16.1172271 43.1988359,16.0571151 C43.2468613,16.1172271 43.306893,16.1653167 43.3789311,16.2013839 C44.4595023,15.9849807 45.5400736,15.7084656 46.5846257,15.3718384 C46.5966321,15.3718384 46.5966321,15.3718384 46.6086384,15.3718384 L46.6686702,15.3838608 L46.7166956,15.359816 C46.7046892,15.3477936 46.6926829,15.3357712 46.6806765,15.3237488 C46.6926829,15.3357712 46.7046892,15.3357712 46.7166956,15.3477936 C46.8127463,15.3718384 46.9208034,15.3357712 46.9928415,15.2636368 C48.0013747,15.0833008 48.9858951,14.8428529 49.9704155,14.5543153 L51.8674183,14.1455538 C51.8674183,14.1335314 51.8674183,14.1335314 51.8674183,14.121509 C51.8674183,14.1335314 51.8674183,14.1455538 51.8794247,14.1575762 C51.9994882,14.1575762 52.1195516,14.1455538 52.2396151,14.1335314 C53.3562054,13.8930834 54.484802,13.7488146 55.6133986,13.6887026 C55.733462,13.6887026 56.045627,13.5324115 55.973589,13.9171282 C56.0576334,13.9291506 56.1536842,13.8930834 56.2017096,13.820949 C56.2017096,13.820949 56.2017096,13.8089266 56.2017096,13.8089266 C56.7540015,13.7247698 57.2462617,13.5083667 57.7265156,13.2558963 C57.7505283,13.2438739 57.774541,13.2438739 57.7865473,13.2318515 C58.711036,12.9312916 59.575493,12.5345524 60.2718611,11.8372533 C60.6920833,11.4164694 60.6200452,11.043775 60.163804,10.8153495 C60.1517977,10.8153495 60.1397913,10.8153495 60.127785,10.8273719 C60.1397913,10.8153495 60.1397913,10.8153495 60.1517977,10.8033271 L60.0437405,10.7071479 L61.9527497,10.3344535 C62.204883,10.3224311 62.4690226,10.3584983 62.7091495,10.2142296 C62.7091495,10.2142296 62.7091495,10.2142296 62.7091495,10.2142296 C63.6216319,10.1420952 64.5341143,10.0098488 65.4345903,9.82951281 C65.4345903,9.82951281 65.4345903,9.82951281 65.4345903,9.82951281 L67.3435994,9.58906484 C67.3435994,9.58906484 67.3435994,9.57704245 67.3315931,9.57704245 C67.3435994,9.57704245 67.3435994,9.58906484 67.3556058,9.58906484 C67.9559231,9.52895285 68.5682468,9.51693046 69.1565578,9.36063928 C69.4807292,9.34861688 69.8169069,9.39670647 70.1170655,9.25243769 C70.1050592,9.25243769 70.0930528,9.25243769 70.0810465,9.2404153 C70.0930528,9.2404153 70.1050592,9.2404153 70.1170655,9.2404153 L72.2541953,9.09614652 C72.3022207,9.07210172 72.3382397,9.06007932 72.3862651,9.06007932 C72.3502461,9.07210172 72.3022207,9.08412412 72.2662016,9.09614652 C72.4583032,9.16828091 72.6864238,9.03603453 72.866519,9.2043481 L71.9420303,9.36063928 C71.9540366,9.37266168 71.9540366,9.38468407 71.966043,9.40872887 C71.9540366,9.39670647 71.9420303,9.38468407 71.9300239,9.37266168 C71.4977954,9.38468407 71.0775733,9.44479607 70.6933702,9.72131123 L72.1221255,9.52895285 C72.2181762,9.55299765 72.3262334,9.51693046 72.4342905,9.49288566 L72.5303413,9.48086326 C72.5183349,9.48086326 72.5183349,9.48086326 72.5063286,9.48086326 C72.5183349,9.48086326 72.5303413,9.48086326 72.5423476,9.46884086 L73.5989061,9.46884086 C73.6589379,9.44479607 73.7309759,9.43277367 73.7910077,9.43277367 C73.7189696,9.44479607 73.6469315,9.46884086 73.5868998,9.48086326 C73.7910077,9.51693046 73.9951156,9.42075127 74.1752108,9.58906484 L74.07916,9.62513204 C73.8630458,9.61310964 73.6469315,9.58906484 73.4668363,9.72131123 C73.4668363,9.72131123 73.4788427,9.72131123 73.4788427,9.72131123 C73.4668363,9.72131123 73.4668363,9.73333362 73.45483,9.73333362 L72.9985888,9.75737842 C72.9985888,9.75737842 72.9985888,9.74535602 72.9985888,9.74535602 C72.7824745,9.73333362 72.5783666,9.70928883 72.3982714,9.84153521 C72.3982714,9.84153521 72.4102778,9.84153521 72.4102778,9.82951281 C72.3982714,9.82951281 72.3982714,9.84153521 72.3862651,9.85355761 C71.2936875,9.86558 70.237129,10.0940056 69.1565578,10.226252 L69.1565578,10.2142296 L69.0364943,10.2142296 L69.0364943,10.2382744 C69.0364943,10.2382744 69.0364943,10.2382744 69.0364943,10.2382744 C68.8804118,10.2382744 68.748342,10.2142296 68.6763039,10.4426551 C68.6763039,10.4426551 68.6763039,10.4426551 68.6763039,10.4306327 C66.5271678,11.3082678 64.2339556,11.5006262 61.9887687,11.7651189 C61.9887687,11.7891637 62.0007751,11.8011861 62.0127814,11.8252309 C62.0007751,11.8132085 61.9887687,11.8011861 61.964756,11.7771413 C61.7006164,11.7530965 61.4244704,11.7290517 61.1363181,11.9935445 C61.616572,11.9935445 62.0367941,12.0777013 62.4330036,11.9093877 C62.4330036,11.9093877 62.4209972,11.9093877 62.4209972,11.8973653 C62.4330036,11.8973653 62.4450099,11.8973653 62.4570163,11.8973653 L63.1773971,11.8492757 C63.1894034,11.8492757 63.1894034,11.8492757 63.2014098,11.8492757 C63.1894034,11.8492757 63.1773971,11.8612981 63.1653907,11.8612981 C63.5255811,11.8612981 63.8977779,11.9214101 64.2579683,11.7771413 C64.2459619,11.7771413 64.2339556,11.7771413 64.2219492,11.7771413 C64.2339556,11.7771413 64.2579683,11.7651189 64.2699746,11.7651189 L65.218476,11.7290517 C65.2304824,11.7290517 65.2304824,11.7290517 65.2424887,11.7290517 C65.2304824,11.7410741 65.218476,11.7410741 65.2064697,11.7410741 C65.494622,11.7530965 65.7827743,11.7891637 66.0709267,11.6569173 C66.0589203,11.6569173 66.046914,11.6569173 66.046914,11.6569173 C66.0589203,11.6569173 66.0709267,11.6448949 66.082933,11.6448949 C67.0314344,11.6448949 67.9799358,11.584783 68.9284372,11.4765814 C69.0485007,11.5006262 69.1805705,11.5006262 69.3126403,11.464559 L69.4206974,11.4164694 C70.7293892,11.404447 72.0500874,11.2601782 73.3587792,11.1519766 C73.3707855,11.1519766 73.3707855,11.1399542 73.3827919,11.1399542 C73.6469315,11.1399542 73.8990648,11.163999 74.1632044,11.103887 C74.2232362,11.103887 74.2832679,11.0798422 74.355306,11.0557974 C74.7515154,11.103887 75.1597312,11.0557974 75.531928,10.9115287 C75.531928,10.9115287 75.531928,10.9115287 75.531928,10.9115287 C75.531928,10.9115287 75.531928,10.9115287 75.531928,10.9115287 C75.6399851,10.8874839 75.8200803,10.8514167 75.6279787,10.7432151 C75.4358772,10.6470359 75.1957503,10.6710807 75.0276614,10.8033271 L75.0276614,10.8033271 C74.6434583,10.6951255 74.1992235,11.0918646 73.8150204,10.7071479 C74.4993821,10.4306327 74.4993821,10.4306327 75.1837439,10.5508567 C75.2077566,10.5388343 75.2437756,10.5268119 75.2797947,10.5268119 C75.603966,10.5027671 75.8560993,10.2863639 76.156258,10.2022072 L76.156258,10.2022072 C76.3723722,10.2022072 76.5884865,10.1901848 76.8046007,10.1420952 C77.7170831,9.96175919 78.7616353,9.64917684 79.5420478,9.68524403 C80.3224604,9.72131123 81.1268856,9.75737842 81.9072981,9.60108724 L81.8472664,9.60108724 C81.8712791,9.60108724 81.8952918,9.58906484 81.9072981,9.58906484 L83.7922946,9.56502005 C83.8043009,9.57704245 83.8163073,9.57704245 83.8163073,9.58906484 C84.5727071,9.58906484 85.3411133,9.63715444 86.0975132,9.49288566 L86.0855068,9.48086326 L86.0975132,9.48086326 L87.6583383,9.45681846 C87.6583383,9.45681846 87.6583383,9.46884086 87.6583383,9.46884086 L89.9515505,9.46884086 C89.9635569,9.46884086 89.9755632,9.45681846 89.9875696,9.45681846 L91.8245406,9.46884086 C91.836547,9.46884086 91.8485533,9.48086326 91.8605597,9.48086326 C92.6169595,9.54097525 93.361353,9.63715444 94.1297592,9.60108724 C94.3938988,9.69726643 94.6820512,9.73333362 94.9702035,9.70928883 C94.9702035,9.70928883 94.9822098,9.69726643 94.9822098,9.69726643 C94.9822098,9.69726643 94.9822098,9.69726643 94.9822098,9.69726643 L96.7831619,9.94973679 C97.4915363,10.1901848 98.2479362,10.2623191 98.9923297,10.1420952 C99.3165011,10.0819832 99.6646851,10.1180504 100.000863,10.1180504 C100.012869,10.106028 100.024876,10.0940056 100.036882,10.0819832 C100.036882,10.0940056 100.036882,10.0940056 100.024876,10.106028 C100.060895,10.2142296 100.156945,10.2983863 100.265002,10.3344535 C100.529142,10.4546775 100.793282,10.6470359 101.105447,10.4546775 C101.105447,10.4546775 101.105447,10.4426551 101.09344,10.4426551 L102.378119,10.5628791 C102.390126,10.5628791 102.414139,10.5749015 102.438151,10.5749015 C103.806875,10.9716406 105.259643,10.9235511 106.640373,11.2722006 C106.640373,11.2722006 106.640373,11.2601782 106.652379,11.2601782 L108.057122,11.5126486 C108.057122,11.5126486 108.057122,11.5126486 108.057122,11.5126486 C108.417312,11.6448949 108.669445,11.6929845 109.11368,11.8973653 C109.557915,12.1017461 110.00215,12.1738805 110.470397,12.0175893 L111.538962,12.342194 C111.550968,12.342194 111.550968,12.3301716 111.562975,12.3301716 C111.562975,12.3301716 111.562975,12.342194 111.550968,12.342194 C111.899153,12.5105076 112.259343,12.642754 112.63154,12.7148884 L112.63154,12.7148884 L113.592047,13.0635379 L113.592047,13.0635379 L115.032809,13.5805011 C115.032809,13.5684787 115.044815,13.5684787 115.044815,13.5564563 L115.044815,13.5805011 C115.092841,13.6526355 115.176885,13.6887026 115.26093,13.6766802 C115.26093,13.6766802 115.272936,13.6887026 115.272936,13.6887026 L118.274523,14.9871217 C118.274523,14.9871217 118.274523,14.9750993 118.286529,14.9750993 L118.394586,15.0111665 L120.159519,16.0090255 L120.171526,15.9970031 L120.171526,16.0090255 C120.651779,16.4538542 121.516236,16.6221678 121.180059,17.6200269 C121.528243,17.5839597 121.792382,17.2713773 122.056522,17.6200269 C122.104547,17.6921613 122.3927,17.7162061 122.48875,17.5599149 C122.48875,17.5599149 122.48875,17.5599149 122.48875,17.5478925 C122.632827,17.8604748 122.956998,17.9686764 123.24515,18.076878 C123.725404,18.257214 124.349734,17.7522733 124.313715,17.2593549 C124.301709,17.0429518 124.193652,16.778459 124.517823,16.658235 C124.517823,16.658235 124.517823,16.658235 124.517823,16.6462126 C124.793969,16.5139662 124.829988,16.2494735 124.878013,15.9849807 C124.878013,15.9849807 124.89002,15.9729583 124.89002,15.9729583 C125.322248,15.8527343 125.334255,15.660376 124.974064,15.3958832 Z M28.0228135,19.375297 C27.9267627,19.6277674 27.5785787,19.6518122 27.518547,20.0004617 C27.4104898,19.8922601 27.3024327,19.8321482 27.3024327,19.796081 C27.3744708,19.495521 27.6266041,19.3873194 27.866731,19.2670954 C28.106858,19.1468715 28.0588326,19.315185 28.0228135,19.375297 Z M55.2291955,11.163999 L55.2431038,11.163999 C55.2431038,11.177926 55.2431038,11.1918529 55.2431038,11.2057799 C55.2431038,11.1918529 55.2291955,11.177926 55.2291955,11.163999 Z M51.0269741,7.34278093 L51.0269741,7.32885397 L51.0269741,7.34278093 L51.0269741,7.34278093 Z M51.8687261,12.2219701 C51.8687261,12.235897 51.8826344,12.235897 51.8826344,12.249824 L51.7713676,12.3194587 C51.7852759,12.2916048 51.8130926,12.2637509 51.8687261,12.2219701 Z M51.8472097,7.04031642 C51.8472097,7.05424337 51.8472097,7.05424337 51.8472097,7.06817032 L51.819393,7.06817032 C51.819393,7.06817032 51.8333013,7.05424337 51.8472097,7.04031642 L51.8472097,7.04031642 Z M39.6449573,15.600264 C39.6449573,15.600264 39.6588656,15.6141909 39.6588656,15.6141909 L39.6449573,15.6141909 C39.6449573,15.6141909 39.6449573,15.600264 39.6449573,15.600264 Z M36.0910786,16.7481055 L35.9710151,16.7759594 C36.0070342,16.7341785 36.0670659,16.7063246 36.139104,16.7063246 C36.1270976,16.7202516 36.1150913,16.7481055 36.0910786,16.7481055 Z M34.1340441,15.5319387 C34.1479524,15.5319387 34.1618608,15.5180117 34.1896775,15.5040848 C34.1896775,15.5180117 34.1757691,15.5319387 34.1757691,15.5597926 C34.1479524,15.5458656 34.1340441,15.5319387 34.1340441,15.5319387 Z M31.708762,17.7358467 C31.708762,17.7219197 31.7226704,17.6940658 31.7365787,17.6801389 C31.7365787,17.7079928 31.7226704,17.7219197 31.708762,17.7358467 Z M31.4447052,18.8823787 C31.4936137,18.8703563 31.5425222,18.8703563 31.5792036,18.8583339 C31.5425222,18.9184459 31.5058408,18.9785579 31.4813865,19.0266475 C31.4447052,18.9424907 31.432478,18.8823787 31.4447052,18.8823787 Z M40.4748217,16.9385593 C40.4609133,16.9385593 40.4609133,16.9246323 40.4748217,16.9385593 C40.4748217,16.9246323 40.4887301,16.9107054 40.4887301,16.9107054 C40.4748217,16.9107054 40.4748217,16.9246323 40.4748217,16.9385593 Z M44.5315404,14.1455538 C44.5454488,14.1455538 44.5732655,14.1455538 44.5871739,14.1594807 L44.5454488,14.1734077 C44.5454488,14.1594807 44.5454488,14.1594807 44.5315404,14.1455538 Z M51.9874818,12.5239584 C51.9874818,12.5100315 51.9874818,12.5100315 51.9874818,12.5239584 C51.9874818,12.5100315 51.9874818,12.5100315 51.9874818,12.5239584 C51.9874818,12.5100315 51.9874818,12.5100315 51.9874818,12.5239584 C51.9874818,12.5100315 51.9874818,12.5100315 51.9874818,12.5239584 Z M69.1333904,11.0197302 C69.1333904,11.0336572 69.1333904,11.0336572 69.1333904,11.0475841 C69.1333904,11.0336572 69.1194821,11.0336572 69.1333904,11.0197302 L69.1333904,11.0197302 Z M81.1629046,1.27718347 C81.1629046,1.27718347 81.1629046,1.27718347 81.1629046,1.27718347 C81.1989237,1.31896433 81.2469491,1.31896433 81.2829681,1.29111042 C81.2949744,1.27718347 81.3069808,1.26325652 81.3069808,1.24932957 C81.3069808,1.26325652 81.3069808,1.26325652 81.3189871,1.27718347 L81.3069808,1.29111042 C81.2949744,1.30503737 81.2949744,1.31896433 81.2949744,1.33289128 C81.2949744,1.33289128 81.2949744,1.31896433 81.2829681,1.31896433 L81.174911,1.31896433 C81.1629046,1.30503737 81.1508983,1.27718347 81.1268856,1.26325652 C81.1148792,1.26325652 81.1028729,1.26325652 81.1028729,1.26325652 C81.0908666,1.24932957 81.0788602,1.23540261 81.0548475,1.22147566 C81.0908666,1.23540261 81.1268856,1.24932957 81.1629046,1.27718347 Z M80.1432105,9.25243769 C80.1432105,9.26636465 80.1432105,9.26636465 80.1571188,9.2802916 C80.1432105,9.26636465 80.1432105,9.26636465 80.1432105,9.25243769 C80.1293021,9.26636465 80.1432105,9.25243769 80.1432105,9.25243769 Z M99.9054497,9.28850489 C99.9433815,9.31635879 99.9813134,9.3442127 100.031889,9.3720666 C100.019245,9.38599355 99.9939574,9.41384745 99.9813134,9.42777441 C99.9560255,9.38599355 99.9307376,9.35813965 99.8928057,9.33028574 C99.9054497,9.31635879 99.9054497,9.30243184 99.9054497,9.28850489 Z M100.613187,10.3224311 C100.613187,10.3224311 100.627095,10.3363581 100.627095,10.3363581 C100.627095,10.3363581 100.613187,10.3363581 100.613187,10.3224311 C100.613187,10.3363581 100.613187,10.3363581 100.613187,10.3224311 Z M108.021103,11.4063515 C108.035011,11.4063515 108.035011,11.4063515 108.048919,11.3924246 C108.048919,11.4202785 108.048919,11.4481324 108.048919,11.4620593 L108.021103,11.4063515 Z M120.169029,9.21958453 L120.099487,9.17780367 C120.113396,9.14994977 120.127304,9.13602282 120.141213,9.10816891 L120.169029,9.21958453 Z" id="Shape" fill="url(#linearGradient-2)"></path>
                            <path d="M36.1631167,18.7757892 C36.5233071,18.9645966 36.763434,18.6499175 36.9795483,18.2932812 C36.7154086,18.4401314 36.4032436,18.2723026 36.1631167,18.7757892 Z" id="Shape" fill="url(#linearGradient-3)"></path>
                            <path d="M58.8310995,4.7323382 C58.9991884,4.71815744 59.1792836,4.80324202 59.3113534,4.59053056 L59.3113534,4.5763498 C59.5034549,4.5763498 59.7195692,4.67561514 59.851639,4.33527681 L59.3113534,4.47708445 L58.8431059,4.61889209 L58.3508456,4.80324202 C58.5309408,4.85996507 58.711036,4.95923042 58.8310995,4.7323382 Z" id="Shape" fill="url(#linearGradient-4)"></path>
                            <path d="M55.7261033,13.9652178 L55.145151,14.2865721 C55.3492694,14.5757909 55.5690892,14.6721972 55.7261033,13.9652178 Z" id="Shape" fill="url(#linearGradient-5)"></path>
                        </g>
                    </g>
                    <g id="Group" transform="translate(40.3775, 2.5401)">
                        <path d="M26.2607392,3.86304987 L26.3808027,3.86304987 C26.8010248,3.88709467 27.1972343,3.75484829 27.60545,3.7067587 C27.7015008,3.6827139 27.7855453,3.6706915 27.845577,3.76687069 L27.9656405,3.92316186 C27.9536341,4.12754263 27.7735389,4.11552024 27.6534754,4.19967702 C27.4133485,4.30787861 27.1732216,4.3920354 26.9210883,4.46416978 C26.668955,4.50023698 26.4408344,4.58439377 26.2127138,4.69259535 C26.0686377,4.78877454 25.8885425,4.82484173 25.7204536,4.77675214 C25.6484155,4.72866255 25.5883838,4.66855056 25.528352,4.59641617 C25.5043394,4.42810259 25.6003901,4.3319234 25.7204536,4.24776662 C25.8405171,4.16360983 26.0926503,4.01934105 26.2607392,3.86304987 Z" id="Shape" fill="#E8EEF5"></path>
                        <path d="M38.3991559,0.965651894 C37.8828829,1.02576389 37.4026291,1.37441343 36.8383308,1.20609986 C36.8983625,0.881495106 37.2705593,0.941607097 37.4146354,0.725203929 C37.7868322,0.677114336 38.1710353,0.388576778 38.543232,0.737226327 L38.3991559,0.965651894 Z" id="Shape" fill="#F0F4F8"></path>
                        <path d="M47.2718462,7.12631459 C47.8241381,6.75057622 48.4004428,6.88476849 48.9647411,6.85793004 C48.9887538,6.91160695 49.0007601,6.96528386 48.9887538,7.01896077 L48.9527347,7.09947614 L48.8326713,7.39469915 L47.8721635,7.39469915 C47.6920683,6.96528386 47.4759541,7.20682996 47.2718462,7.12631459 Z" id="Shape" fill="#F7F8FA"></path>
                        <path d="M98.1787568,14.1542228 C97.9746489,14.0580436 97.7465283,13.9738868 97.8545854,13.6733268 C97.9626425,13.3727669 98.1907631,13.3487221 98.4549027,13.4689461 L98.5509535,13.4689461 C98.5029281,13.7454612 98.4669091,14.0219764 98.1787568,14.1542228 Z" id="Shape" fill="#5C80B2"></path>
                        <path d="M47.6440429,6.76206252 L46.5634717,6.96741028 C46.3833765,6.62516401 46.1432496,6.87614461 45.951148,6.7392461 C46.3713702,6.39699984 46.815605,6.55671476 47.2598398,6.48826551 C47.3919096,6.51108193 47.5840112,6.2144685 47.6440429,6.76206252 Z" id="Shape" fill="#E1E7F1"></path>
                        <path d="M35.6497024,9.28902639 C35.7697659,9.65008451 35.9738738,9.39218585 36.11795,9.57271491 C35.7217405,9.93377303 35.3015184,9.75324397 34.8212645,9.75324397 C35.1094168,9.18586692 35.3855628,9.23744666 35.6497024,9.28902639 Z" id="Shape" fill="#ADC3DC"></path>
                        <path d="M9.84806307,16.2717769 C10.08819,15.7682903 10.400355,15.9361192 10.6644947,15.7892689 C10.4483804,16.1459053 10.2082535,16.4605844 9.84806307,16.2717769 Z" id="Shape" fill="#96BADB"></path>
                        <path d="M0.481215008,16.683785 L0.310801605,16.8912611 C0.157429542,16.8566818 -0.030025201,16.8221024 0.00405747966,16.6146263 C0.0381401603,16.4071502 0.310801605,16.3898605 0.498256349,16.3552811 C0.685711092,16.3207018 0.498256349,16.5800469 0.481215008,16.683785 Z" id="Shape" fill="#BFD8EC"></path>
                        <path d="M73.9379425,7.8304413 L74.2981329,7.8304413 C74.4542154,7.95889897 74.6583233,7.60564036 74.7783868,8.15158549 C74.4662218,8.6654162 74.2020821,8.15158549 73.9379425,7.8304413 Z" id="Shape" fill="#B0C1D9"></path>
                        <path d="M2.86036921,14.9116339 L2.86036921,15.0975406 C2.74030575,15.3578099 2.5241915,15.3020379 2.36810899,15.4507633 L2.26005187,15.2648566 L2.86036921,14.9116339 Z" id="Shape" fill="#ADCCE7"></path>
                        <path d="M33.3684965,8.19111324 L33.7166806,8.19111324 L33.8367441,8.43122807 C33.6806616,8.72470176 33.5005663,8.83141946 33.3084648,8.61798405 C33.1163632,8.40454865 33.3564902,8.32451037 33.3684965,8.19111324 Z" id="Shape" fill="#D6E1EE"></path>
                        <path d="M32.5594673,2.31108142 C32.4285485,2.7898192 32.2321703,2.58037142 32.035792,2.46068698 L32.5725592,2.07171253 C32.6118348,2.13155476 32.6249267,2.19139698 32.6118348,2.2512392 L32.5594673,2.31108142 Z" id="Shape" fill="#C3D4E6"></path>
                        <path d="M32.9962998,2.1316129 L33.5365854,1.83126457 C33.4045156,2.55210057 33.1884013,2.34185674 32.9962998,2.34185674 C32.8041982,2.34185674 32.9482744,2.2217174 32.9602807,2.19168257 L32.9962998,2.1316129 Z" id="Shape" fill="#97B3D3"></path>
                        <path d="M28.8300974,11.7825598 L29.4110497,11.4612056 C29.2540356,12.1681849 29.0342158,12.0717786 28.8300974,11.7825598 Z" id="Shape" fill="#97B3D5"></path>
                        <path d="M33.022729,1.95148855 L33.022729,2.18626912 C32.8843646,2.6264827 32.6956858,2.45039727 32.5195857,2.47974484 C32.3434855,2.50909241 32.5195857,2.30365941 32.5321642,2.24496427 L33.022729,1.95148855 Z" id="Shape" fill="#A0B9D8"></path>
                        <path d="M47.6440429,6.91591758 C47.5479921,6.5638082 47.3799033,6.68117799 47.2478335,6.59315065 C47.2718462,6.53446575 47.2838525,6.47578085 47.2958589,6.3877535 L48.028246,6.3877535 C48.0882778,6.5638082 48.2203476,6.41709595 48.268373,6.68117799 C48.0642651,7.00394493 47.8481508,6.91591758 47.6440429,6.91591758 Z" id="Shape" fill="#CEDAE9"></path>
                        <path d="M80.5414333,8.07088926 L81.0336935,8.40751641 C80.637484,8.63594198 80.4213698,8.34740442 80.1812429,8.40751641 C79.7490144,8.22718044 79.2807668,8.19111324 78.8245257,8.17909084 C78.6084114,8.16706845 78.4163099,8.13100125 78.3082528,7.98673247 C78.2001956,7.84246369 78.4403226,7.87853089 78.488348,7.8063965 C78.5363733,7.73426211 78.6204178,7.62606052 78.7524876,7.68617252 L80.0731857,7.91459808 C80.2652873,7.8184189 80.4333761,7.8304413 80.5414333,8.07088926 Z" id="Shape" fill="#F6F8FA"></path>
                        <path d="M78.7524876,7.83510663 L78.488348,8.10808355 C78.3922972,7.67132048 78.1161512,8.08078586 78.0321068,7.5894274 C78.2722337,7.64402279 78.5363733,7.39834356 78.7524876,7.83510663 Z" id="Shape" fill="#A1B5D2"></path>
                        <path d="M62.8200653,5.92900823 C62.6279638,6.44299223 62.4598749,6.58576556 62.1957353,6.24310956 C62.3758305,5.72912557 62.5919447,5.92900823 62.8200653,5.92900823 Z" id="Shape" fill="#7B97BF"></path>
                        <path d="M51.1258835,6.40332308 C50.8257248,6.85597641 50.4895471,6.55420752 50.1773821,6.62964974 C50.3694837,5.7746379 50.7296741,6.27758604 51.0178264,6.17699642 C51.0658518,6.22729123 51.1018708,6.30273345 51.1258835,6.40332308 Z" id="Shape" fill="#9DB4D1"></path>
                        <path d="M49.5770648,6.49767879 C49.3129251,6.80852434 49.0007601,6.60129398 48.7246141,6.74635523 L48.7246141,6.66346309 C48.6885951,6.62201701 48.6765888,6.53912487 48.6885951,6.47695576 C48.7246141,6.37334057 48.7966522,6.35261754 48.856684,6.29044843 C48.9167157,6.22827932 49.3729569,6.06249502 49.5770648,6.49767879 Z" id="Shape" fill="#D4DDEC"></path>
                        <path d="M51.1267549,6.63936513 L51.0178264,6.24327004 L51.1267549,6.11123835 L51.5987787,6.19925948 C51.4777469,6.94743908 51.2840962,6.50733343 51.1267549,6.63936513 Z" id="Shape" fill="#CEDAEA"></path>
                        <path d="M30.8351573,8.64796438 L30.9672272,8.68623745 C31.2913985,8.87760281 31.6035635,8.57141823 31.9157286,8.66710091 C32.0237857,8.80105667 32.0838174,8.97328549 31.8917159,9.01155857 C31.6996143,9.04983164 31.5075128,9.04983164 31.3154112,9.04983164 C30.85917,8.8201932 30.4029289,9.4516989 29.9346813,9.04983164 C30.1628019,8.74364706 30.4869733,8.97328549 30.7150939,8.66710091 L30.8351573,8.64796438 Z" id="Shape" fill="#D2DFEC"></path>
                        <path d="M31.9157286,8.7922601 C31.6275762,9.1661668 31.2673858,9.1661668 30.9672272,8.81718722 L31.4354747,8.54298897 C31.5915572,8.61777031 31.7956651,8.36849918 31.9157286,8.7922601 Z" id="Shape" fill="#E2E9F2"></path>
                        <path d="M48.3644237,6.35168631 L48.7246141,6.4346293 C48.7246141,6.55904378 48.7246141,6.64198677 48.7246141,6.76640125 L48.2563666,6.89081573 L48.0162397,6.47610079 L48.3644237,6.35168631 Z" id="Shape" fill="#FEFEFE"></path>
                        <path d="M82.9427026,9.05846173 C82.8466519,8.90320587 82.7385947,8.82557794 82.714582,8.54094218 C82.9427026,8.51506621 83.1348042,8.72207403 83.3389121,8.90320587 C83.2188486,9.18784162 83.0747724,9.03258575 82.9427026,9.05846173 Z" id="Shape" fill="#9AB0CE"></path>
                        <path d="M21.9504607,6.14730554 L21.1220228,6.36370871 C21.1340291,6.05112635 21.5062259,6.02708156 21.5902703,5.7625888 C21.9024353,5.82270079 22.238613,5.67843201 22.5267653,5.88281278 C22.2986447,5.90685757 22.1305559,6.03910396 21.9504607,6.14730554 Z" id="Shape" fill="#E7EEF6"></path>
                        <path d="M23.2711588,5.60413149 C23.4392477,5.31450244 23.6313492,5.13626918 23.8714762,5.31450244 C23.8114444,5.6486898 23.5833239,5.51501486 23.5112858,5.78236475 L23.2711588,5.78236475 L23.2351398,5.69324812 L23.2711588,5.60413149 Z" id="Shape" fill="#DCE6F1"></path>
                        <path d="M23.3718572,5.43798404 C23.3718572,5.47649329 23.3718572,5.53425715 23.3718572,5.5727664 C23.241143,5.86158573 22.9797145,5.82307649 22.790905,5.97711346 C22.8344764,5.49574791 23.1104287,5.47649329 23.3718572,5.43798404 Z" id="Shape" fill="#CADAEB"></path>
                        <path d="M20.4016419,11.2811983 C20.5545241,10.7757645 20.7838474,11.0116336 20.9825942,10.9442424 C20.8450003,11.3822851 20.6003888,11.2475027 20.4169302,11.4833719 C20.4169302,11.4159807 20.4016419,11.3485895 20.4016419,11.2811983 Z" id="Shape" fill="#AAC3DF"></path>
                        <path d="M25.5523647,9.74200262 C26.5248788,9.59773384 27.4853866,9.39335307 28.433888,9.12886031 C28.5659578,9.02065872 28.7220403,8.98459153 28.8901292,9.00863632 C29.0101926,9.04470352 29.1542688,9.05672592 29.1422624,9.24908429 L29.1422624,9.28515148 C27.9896531,9.54964424 26.8610565,9.99447298 25.6484155,10.0064954 L25.1921743,9.94638339 L25.5523647,9.74200262 Z" id="Shape" fill="#F6F8FB"></path>
                        <path d="M24.2436729,5.32790396 C24.2436729,4.85833962 24.5798506,4.9974698 24.7119205,4.78877454 L24.7119205,4.85833962 C24.7719522,4.91051344 24.8559966,4.91051344 24.868003,5.04964361 C24.6759014,5.2409476 24.4597872,5.32790396 24.2436729,5.32790396 Z" id="Shape" fill="#D9E5EF"></path>
                        <path d="M25.6724282,4.77749068 L25.5523647,4.86434736 L25.216187,5.05977489 C25.0841172,5.16834575 25.0721109,5.03806072 25.0841172,4.86434736 L25.2041807,4.62549148 L25.528352,4.56034897 L25.6724282,4.77749068 Z" id="Shape" fill="#FDFEFE"></path>
                        <path d="M25.1407186,4.71664015 L25.2928727,4.95924839 C25.1822152,5.14794369 25.0438932,5.25576957 24.9055712,5.25576957 L24.7119205,4.98620486 L25.1407186,4.71664015 Z" id="Shape" fill="#EBF1F6"></path>
                        <path d="M41.1606156,0.600120309 L40.5122729,0.600120309 C40.6563491,0.309508953 40.8844697,0.294213618 41.0405522,0.141260273 C41.1966347,-0.011693073 41.3527172,0.0647835998 41.4007426,0.278918283 C41.448768,0.493052967 41.1606156,0.385985625 41.1606156,0.600120309 Z" id="Shape" fill="#D8E2EE"></path>
                        <path d="M42.3899106,0.0923135386 C42.1602318,0.453665731 42.0116161,0.731628957 41.8089584,0.370276764 C41.9170425,-0.157853364 42.1197003,0.008924571 42.3899106,0.0923135386 Z" id="Shape" fill="#A4BBD7"></path>
                        <path d="M53.8873433,6.4761911 C53.6472163,6.37371734 53.3950831,6.93732304 53.1909752,6.01505916 L53.8873433,6.01505916 C53.8873433,6.16876981 53.8873433,6.32248045 53.8873433,6.4761911 Z" id="Shape" fill="#A8BCD7"></path>
                        <path d="M28.9261482,9.08592805 C29.0942371,9.06680151 29.2863386,9.16243422 29.4304148,8.91378916 C29.5864973,8.89466262 29.7425798,8.95204225 29.8746496,9.08592805 C29.6585354,9.35369965 29.3943957,9.35369965 29.1422624,9.44933236 L28.8781228,9.23894039 C28.8541101,9.2006873 28.8661165,9.14330768 28.8901292,9.10505459 C28.8901292,9.08592805 28.9141419,9.08592805 28.9261482,9.08592805 Z" id="Shape" fill="#E9EFF5"></path>
                        <path d="M48.9527347,7.2430322 C48.9527347,7.15859401 48.9527347,7.07415582 48.9647411,6.98971763 C48.9647411,6.90527944 48.9767474,6.82084125 48.9887538,6.73640305 L49.7811727,6.73640305 C49.4930203,7.35561646 49.2288807,7.29932433 48.9527347,7.2430322 Z" id="Shape" fill="#CFDAE8"></path>
                        <path d="M50.9226625,6.86574125 C50.8433874,6.97660354 50.7442935,7.05975025 50.6451996,7.1151814 C50.5461058,7.19832811 50.4271931,7.14289697 50.3677368,7.03203468 C50.3479181,7.00431911 50.3479181,6.97660354 50.3479181,6.9211724 C50.3082805,6.67173226 50.4668307,6.64401668 50.5857433,6.64401668 C50.704656,6.56086997 50.8632061,6.67173226 50.9226625,6.86574125 C50.9028437,6.83802568 50.9226625,6.86574125 50.9226625,6.86574125 Z" id="Shape" fill="#819DC4"></path>
                        <path d="M9.68021954,11.8606985 L9.23339331,12.1701854 L9.10366957,11.8413556 C9.16132457,11.6479263 9.29104831,11.7059551 9.39194456,11.6479263 L9.53608205,11.6479263 C9.68021954,11.5898975 9.69463329,11.6866121 9.68021954,11.8606985 Z" id="Shape" fill="#FEFDFE"></path>
                        <g transform="translate(3.9409, 11.906)" fill="#D6E3F1" id="Shape">
                            <path d="M8.52450626,1.46963152 C8.52450626,1.46963152 8.52450626,1.46963152 8.52450626,1.46963152 C8.24836028,1.51843754 7.94820161,1.46963152 7.81613179,1.81127366 C8.08027142,1.79907215 8.33240471,1.75026613 8.52450626,1.55504205 C8.77663954,1.56724356 9.02877282,1.49403453 9.23288072,1.33541496 C8.96874109,1.1889969 8.7406205,1.32321346 8.52450626,1.46963152 Z"></path>
                            <path d="M12.6066642,0.120223983 L12.4866007,0.240447965 L12.1384167,0.252470363 C12.0423659,0.396739142 11.7181945,0.288537558 11.7662199,0.601119913 L12.4866007,0.348649549 L12.4866007,0.348649549 L13.2069815,0.156291177 L13.3510577,0 L12.6066642,0.120223983 Z"></path>
                            <path d="M10.3254583,0.875242457 C10.0853313,1.01711862 9.74915363,0.917805306 9.59307112,1.27249571 L10.1933885,1.15899478 L10.2894392,1.05968147 C10.3014456,1.05968147 10.3134519,1.05968147 10.3254583,1.05968147 C10.5295662,1.01711862 10.7456804,1.03130624 10.8057122,0.733366293 L10.5655852,0.733366293 L10.3254583,0.875242457 Z"></path>
                            <path d="M0,4.73507536 C0.240126937,4.75264989 0.49226022,4.80537349 0.612323689,4.38358471 L0.480253874,4.20783939 C0.348184058,4.43630831 0.072038081,4.36601018 0,4.73507536 Z"></path>
                            <path d="M1.88499645,3.83996652 L2.04107896,4.03764731 C2.14913608,3.7680826 2.52133284,4.00170535 2.49732014,3.49851789 C2.26919955,3.53445985 2.06509166,3.66025672 1.88499645,3.83996652 Z"></path>
                            <path d="M3.67394213,3.37410433 C3.91160442,3.65001548 4.09645287,3.46607471 4.2548944,3.03687959 C4.04363903,2.9449092 3.8191802,2.85293882 3.67394213,3.37410433 Z"></path>
                            <path d="M7.2038081,2.23260424 L7.43192869,1.80335974 C7.16778906,1.80335974 6.90364943,1.93993753 6.68753519,2.19358201 C6.85562405,2.52527095 7.03571925,2.19358201 7.2038081,2.23260424 Z"></path>
                            <path d="M5.52291955,2.41650205 L5.16272914,2.53672603 C4.98263394,2.69301721 4.61043719,2.51268123 4.5624118,2.88537558 C4.82655143,2.88537558 5.09069106,2.80121879 5.3068053,2.65695001 C5.43887512,2.66897241 5.57094493,2.62088282 5.66699571,2.53672603 L5.66699571,2.53672603 C5.82307822,2.52470363 5.97916073,2.53672603 5.95514803,2.30830046 L5.52291955,2.41650205 Z"></path>
                        </g>
                        <path d="M9.58392344,11.9304548 L9.45185363,11.7609839 L9.70398691,11.4728833 L9.9321075,11.422042 C10.0641773,11.3373065 10.08819,11.4389891 10.0641773,11.5915129 L9.58392344,11.9304548 Z" id="Shape" fill="#EAF1F7"></path>
                    </g>
                </g>
            </g>
        </g>
    </g>
</svg>