<svg xmlns="http://www.w3.org/2000/svg" viewBox="0 0 2932.08 1607.98"><title>aleut</title><g id="Layer_2" data-name="Layer 2"><path id="path2431" d="M1953.3,228.24c-2.91.42-2.63,3.94.44,5.5,3.26,1.64,4,1.61,4.66-.25C1959.21,231.38,1955.81,227.88,1953.3,228.24Zm11.48,12.33a4.27,4.27,0,0,0-2.66-1.54c-2,0-1.7,2.72.37,3.9C1964.84,244.24,1966.45,242.59,1964.78,240.57Zm6.9,4.91c-1.73-1.56-2.2-1.64-2.94-.44a2.32,2.32,0,0,0,.18,2.71c1.19,1.43,4.82,1.76,4.82.44A6.43,6.43,0,0,0,1971.68,245.48ZM2123.83,298c-2.31,0-3.15,1.86-1.91,4.25,1.48,2.9,3.82,2.14,3.82-1.25C2125.74,298.74,2125.29,298,2123.83,298Zm19,1.46c-2,.65-2.86,3.46-1.45,4.87,1.08,1.09,6.16.77,6.9-.43C2149.44,302.11,2145.29,298.72,2142.86,299.49Zm-7,4.24c-1.28-1.28-2.59-.29-1.64,1.25a1.24,1.24,0,0,0,1.69.45C2136.58,305,2136.57,304.45,2135.85,303.73Zm-356-.7c-2,0-1.11,1.93,1.65,3.43,3.1,1.68,6.25,2,6.25.7C1787.74,306.2,1781.67,303,1779.84,303Zm401.65,5.19c-1.72-.33-2.43,1.79-1.06,3.17a1.7,1.7,0,0,0,2.81-1.43A2.06,2.06,0,0,0,2181.49,308.22ZM2163,306c-1.95,0-2.73,2.77-1.28,4.51,1.26,1.53,5.12,2,6.33.82C2169,310.46,2164.78,306,2163,306Zm42.22,14.5c-2.09,0-3.09.55-3.34,1.82-.29,1.51.21,1.77,3,1.5C2209.27,323.43,2209.58,320.53,2205.26,320.53Zm19.89,2.66c-1.56-2.22-6.41-3-6.41-1.07,0,.6,1,1.94,2.25,3C2225,328.39,2227.86,327.07,2225.15,323.19Zm15.41,4.09c-.36-1.86-4.75-2.87-7.65-1.75-1.5.58-1.48.78.28,2.07C2236.06,329.72,2241,329.5,2240.56,327.28Zm73.25-.25c-2.21,0-4.49,2.51-3.59,4s1.69,1.31,4.32-.53C2317,328.74,2316.64,327,2313.81,327ZM1665.4,629.25c-1.38-1.37-1.8-1.36-4.1.16-1.4.91-2.56,2.56-2.56,3.64,0,2.65,3,2.57,5.91-.13C1666.69,631,1666.77,630.63,1665.4,629.25Zm-160,30.23c-2.59,2.4-3.31,4.55-2,5.88s4.08.55,6.78-2.27C1515.2,657.86,1510.75,654.52,1505.39,659.48ZM1413,864.17c-9.07-3.07-12-4.58-18.75-9.65-3.3-2.48-9-6.54-12.64-9a63.18,63.18,0,0,1-7.9-6c-.69-.84-2.1-6.55-3.13-12.7s-2.29-11.61-2.79-12.12c-1.43-1.43-13,1.28-17.08,4a22.11,22.11,0,0,1-9.64,3c-5.79.6-6.18.5-7.8-2-.94-1.44-4.2-3.82-7.24-5.31q-9.27-4.53-9.27-12.13c0-6.82-5.3-4.34-12.33,5.78-2.92,4.2-3.13,5.09-3.15,13.34s.15,9,2.47,10.88,3.36,2,19.18,1.43l16.68-.61,4,5a35.42,35.42,0,0,1,5.18,8.73,25.51,25.51,0,0,0,4.9,7.69c4.52,4.84,11.75,15.92,15.52,23.75,1.81,3.78,3.36,5.75,4.52,5.75,1,0,3.42-2,5.45-4.5l3.69-4.5h7.81c5.72,0,8.14.4,9,1.5s3,1.5,6.15,1.5c4.75,0,5-.14,7.88-4.69C1417.69,867.16,1417.56,865.71,1413,864.17ZM1181.25,1059l-3-1.5.35-8.13c.39-9.1-.29-10.26-4.91-8.34-3.35,1.38-3.4,1.65-1.56,8.54,1.88,7.05,8.45,17,14.25,21.51,4.76,3.73,8.65,4.9,9.85,3C1197,1072.84,1185.21,1061,1181.25,1059Zm1093.46,92c-2.7-1.93-3.33-2-4.55-.83s-1.19,1.73.18,3.69a4.09,4.09,0,0,0,4.17,2C2278.23,1155.39,2278.31,1153.57,2274.71,1151Zm-33.2,17.2c-2.29.33-3.38,2.78-2.38,5.38.68,1.77,5.22,1.92,5.88.19C2246,1171.24,2243.86,1167.88,2241.51,1168.21Zm22.32,1.32c-3.95,0-4.52.3-5.35,2.81-.74,2.19-.56,3.23.8,4.73,1.71,1.89,1.81,1.86,5.35-1.25C2269.66,1171.41,2269.42,1169.53,2263.83,1169.53Zm-790.09-20c-1.37-.41-4.3-2.76-6.5-5.23l-4-4.49-9.73,2c-5.35,1.12-11.25,3-13.11,4.12q-6.26,3.86-11.5.28a31.76,31.76,0,0,0-7.16-3.18,22.87,22.87,0,0,1-6.14-2.75c-1-.87-3.42-1.26-6.5-1.07l-4.86.31.34,6c.32,5.76.55,6.21,5.66,11.25,2.93,2.89,6.22,5.25,7.31,5.25s4.44,2.77,8.19,7c3.51,4,7,7,8.08,7s4,2.69,7.1,6.53c5.56,6.93,8.36,8,8.28,3.16,0-2.53.2-2.7,2.87-2.12a9.53,9.53,0,0,0,5-.32c5.53-2.51,9.85-3.44,10.93-2.35,1.68,1.67,4.2,1.32,6.18-.87,1.56-1.72,1.63-2.54.62-6.57-1.47-5.82-.58-10.66,2.5-13.55C1481.5,1156,1479.87,1151.34,1473.74,1149.53Zm847.81,43.68c-.27-2.4-.77-2.71-4.74-3a16.77,16.77,0,0,1-7.25-2.31c-1.54-1.1-3.28-1.7-3.87-1.33s-1.91-.1-2.93-1c-3.89-3.52-7.23-.29-8.61,8.34-.61,3.82-.45,4.33,1.48,4.83s2.07,1,1.53,3.94c-.59,3.14-.45,3.38,2,3.38,1.59,0,4.16-1.4,6.58-3.59,2.82-2.54,5.23-3.75,8.26-4.14C2320.22,1197.51,2321.92,1196.37,2321.55,1193.21ZM2403.2,1222c-3.3,0-9.3,9.37-8.06,12.6.81,2.1,2.62.69,6.69-5.22C2405.06,1224.72,2405.55,1222,2403.2,1222Zm-119.85-18c-.81,0-1.61-1-1.79-2.22-.37-2.62-4.8-5.38-7.16-4.48-1.17.45-1.66,1.84-1.66,4.71,0,4.51-2.14,9.26-8.59,19-4.76,7.2-5.55,8.12-10.78,12.61-2.68,2.3-3.63,3.9-3.63,6.14a5,5,0,0,1-2.5,4.66c-3.06,2-3.1,2.86-.29,6.66,1.26,1.7,2.8,2.76,3.58,2.46a8.18,8.18,0,0,1,2.29-.53c.51,0,2.64-1.56,4.75-3.46a27.5,27.5,0,0,1,6.5-4.47c2.69-1,3.68-4.33,1.67-5.57-1.85-1.14-1-3.38,1.75-4.7,2.41-1.15,2.79-2,3.06-6.54.28-5,.58-5.48,5.82-10C2284.71,1211.1,2288.17,1204,2283.35,1204Zm580.11,83c-4.15,0-5.79,2-3.7,4.51,1.43,1.74,14,2.16,14,.48C2873.74,1290.16,2867.3,1287,2863.46,1287Zm-857.75.94c-1.26-2.36-3.24-2.46-6.5-.32-2.68,1.75-3.35,6.09-1.27,8.18,1.64,1.63,3.92,1.51,6.58-.36C2006.92,1293.79,2007.36,1291,2005.71,1288Zm119.46,7.13c-2.43,2.28-3,4.39-1.82,7.35,1.48,3.84,6.39-.45,6.39-5.58C2129.74,1293.08,2128,1292.42,2125.17,1295.1ZM2068.81,1326c-1.36,0-3.3,3.81-2.55,5,.86,1.39,2,1.22,3.47-.51S2070.46,1326,2068.81,1326Zm-12,3c-2.23,0-5.52,3.51-4.63,4.94s3,1.29,5.58-.78S2059.75,1329,2056.84,1329Zm-364.14-3.4c-2.93-3.34-6.21-4.62-7.3-2.85a17.3,17.3,0,0,0-.8,4.25c-.31,3.29-.17,3.49,2.47,3.3,2.31-.16,3,.35,3.86,2.8,1.39,4,4.2,3.52,4.62-.76C1695.78,1330,1695.08,1328.34,1692.7,1325.63Zm-18.14-6.91c-.4-2.79-2.49-2.66-10.32.63-5.56,2.33-6.12,2.87-7.7,7.35a31.18,31.18,0,0,0-1.75,7.52c0,2.29.43,2.74,3.2,3.09,1.79.22,4,.47,4.91.56,2.25.22,5.84-6.16,5.84-10.37,0-2.8.56-3.7,3.07-5C1674,1321.34,1674.78,1320.32,1674.56,1318.72ZM2849,1330.82c-3.73-1-4.35-2.79-.95-2.79s4.7-1.86,4.7-6.4c0-3.15-.68-4.71-3.19-7.3-3.1-3.2-3.44-3.3-11.33-3.3-9,0-10.14.65-14.38,8.28-4,7.16-1.63,16,3.78,14.26,1.32-.42,3.86.41,7.32,2.4,6.21,3.56,7.83,3.69,13.63,1C2853.73,1334.68,2853.9,1332.09,2849,1330.82Zm-807.58,28.54c-1.07-1.06-4.1,1-4.51,3.12-.23,1.2.2,1.63,1.4,1.39C2040.38,1363.46,2042.48,1360.43,2041.41,1359.36Zm-834.06,2.08c-5.48,1-6.18,2.77-3,7.52,1.48,2.24,3.32,4.07,4.09,4.07,4.74,0,11.33-5.47,11.33-9.4C1219.74,1361.82,1212.31,1360.51,1207.35,1361.44ZM2868.79,1368c-1.45,0-1.31,3.33.2,4.84s5.94,1.14,6.49-.53C2875.86,1371.19,2871,1368,2868.79,1368Zm-4.89-18.68c-2.17-2.75-4.11-5.84-4.31-6.86-.24-1.25-1.63-2.14-4.19-2.67-3.11-.65-4.38-.41-6.73,1.26-2.16,1.54-4.1,2-7.65,1.76-4.06-.26-4.95-.71-6.07-3.06s-1.94-2.75-5.31-2.75a18.3,18.3,0,0,1-7.08-1.6c-2.53-1.3-3.5-1.37-5.38-.36-3.1,1.65-5.44.58-5.44-2.51,0-2.11.47-2.53,2.84-2.53,3.65,0,4.53-.94,2.74-2.92a11.24,11.24,0,0,1-2-4.08c-.49-2-.06-2.81,2.43-4.2,2.74-1.55,3-2.18,3-6.73s-.27-5.16-2.95-6.54a13.78,13.78,0,0,0-5-1.53,8.74,8.74,0,0,1-3.9-1.14c-1.53-1-2.73-.49-7.29,2.89-3,2.21-6.33,4.2-7.4,4.4a4.62,4.62,0,0,0-2.89,2.52,3.18,3.18,0,0,1-3.5,2c-2.17-.13-2.53.24-2.38,2.47a3.3,3.3,0,0,1-2.25,3.72c-3.56,1.63-3,4.66,1.31,7.61,2.05,1.4,4.25,2.54,4.89,2.54,2.28,0,2.19,2.86-.19,6.1-3.67,5-3.21,8,1.81,12.1a33.5,33.5,0,0,0,6,4.09c1.19.44,1.75,1.72,1.75,4,0,3.86,1.5,5.73,4.58,5.73a5,5,0,0,1,3.42,1.5c.72.87,2.9,1.5,5.15,1.5,3.13,0,4.07.45,4.76,2.25,1.27,3.33,1.23,4.25-.16,4.25-2.42,0-1.2,2.43,2.75,5.45,3,2.27,4.9,3,7.5,2.8,3.26-.23,3.53-.51,3.81-3.92.17-2,1-4.22,1.75-4.88a3.52,3.52,0,0,0-.56-6,4.15,4.15,0,0,1-2-3.5,4,4,0,0,0-2.25-3.59c-2.76-1.42-7.75-6-7.75-7.1,0-1.3,3.38-.93,5.58.6,1.11.78,4.13,1.38,6.72,1.35s5.46.54,6.45,1.34c3.75,3,8.22,4.9,11.75,4.9a12.69,12.69,0,0,1,6.7,2.14l3,2.14,3.65-2.08C2868.89,1359.22,2869,1355.76,2863.9,1349.35Zm-72.49-28a5.89,5.89,0,0,1-.67-3.15c0-2.43.06-2.44,2-.68a5.9,5.9,0,0,1,2,3.16C2794.74,1322.08,2792.57,1322.53,2791.41,1321.36ZM2910.35,1355c-2.88,0-9.5-4-9.56-5.7,0-.86,1.39-1,4.95-.61,2.75.32,5,.27,5-.12,0-3.17-10.31-15.57-12.95-15.57-.48,0-1.82-1.52-3-3.37s-4.52-4.9-7.5-6.75c-4-2.48-5.57-4.14-6-6.25-1-4.77-.66-9.63.6-9.63,1.6,0,4.82,3,4.82,4.55,0,.68,2,3.47,4.48,6.21s4.89,6.08,5.4,7.42c.74,1.93,9.55,7.82,11.72,7.82,1.53,0-.11-5.37-2.6-8.5-1.65-2.08-3-4.34-3-5,0-1.45-6.66-9.75-8.31-10.36-.6-.22-4.36-3.71-8.37-7.75-7.45-7.53-9.52-8.59-11.14-5.7-.75,1.34-2.37,1.61-8.7,1.44l-7.77-.2-5-5c-2.78-2.71-5.89-4.94-6.91-4.94-1.66,0-1.79.54-1.18,4.75.85,5.9,1.75,7,5.76,7.44,3.15.31,3.18.37,3.7,6.81.55,6.78,2.81,12.34,5.44,13.35.86.33,1.53,1.78,1.53,3.29a7.66,7.66,0,0,0,1.57,4.44c1.59,1.75,4.33,11.53,4.4,15.67,0,2.38,5.37,10.59,10.4,16,2.36,2.53,3.84,3.25,6.71,3.25,2.08,0,4.23.66,4.94,1.53,1.93,2.32.34,3-3.64,1.56-2.51-.91-3.89-1-4.63-.23-1.41,1.4.83,4.14,3.38,4.14s2.38,1.66-.25,3.07c-1.93,1-2.08,1.75-1.62,7.78a29.13,29.13,0,0,0,3.27,11.9c1.52,2.89,3.12,5.25,3.57,5.25,2,0,8.24-10.81,10.58-18.24.39-1.23,1.21-1.57,2.8-1.18s2.42.05,2.86-1.25a15.5,15.5,0,0,1,1.86-3.55c1.08-1.48.72-2.28-2.56-5.64-4.11-4.21-3.51-6.59.94-3.68,2.91,1.91,3.89,1.48,6-2.61C2914.27,1357.12,2913.56,1355,2910.35,1355ZM307.14,1386c-5.24,0-5.6-2.89-1.15-9.32,1.08-1.57.85-2.14-1.75-4.24a10.52,10.52,0,0,0-6.77-2.43c-3.05,0-4-.46-4.68-2.38-.49-1.31-3.07-3.62-5.72-5.14-3.92-2.25-6.13-2.79-11.8-2.88-8.72-.14-9.45,1.4-3.73,7.9,3.68,4.18,5.2,7.91,5.2,12.73,0,1.1,1.86,3.79,4.12,6,3.75,3.64,4.45,3.94,8,3.37s4.13-.32,8,3.89c3.69,4,4.62,4.5,8.28,4.41a33.88,33.88,0,0,0,6.62-.79C317.64,1395.51,313.72,1386,307.14,1386Zm2693.43,18.36a3.84,3.84,0,0,0-5.78-2.62c-1.23.77-2.18.86-2.56.24-.86-1.4-9.52-1.18-12.48.31-4.93,2.5-3,7.66,2.94,7.75a12.6,12.6,0,0,1,5,1.46c4.67,2.67,6,2,6-3,0-3.25.4-4.5,1.45-4.5a2.63,2.63,0,0,1,2,1C2998.27,1406.69,3000.92,1406.18,3000.57,1404.39Zm-934.21-16.46c-3.36,3.15-4.62,2.64-4.62-1.9,0-4.35-.49-4.7-3.44-2.47-3.27,2.48-4.89,1.89-4.21-1.53.78-3.87-1.38-4-4.29-.35-1.14,1.46-2.22,2.48-2.39,2.25a41.25,41.25,0,0,1-1.4-5.37c-1-4.46-.89-5.1.81-6.29,2.77-1.94,7.23-10,6.53-11.82-.9-2.35-5.82-1.4-7.21,1.4a12,12,0,0,1-3.27,3.81c-2.5,1.74-2.72,3.64-.63,5.37,2.67,2.22,1.65,3.14-2.75,2.49-3.8-.57-4.54-.33-7,2.29-1.54,1.61-2.73,3.33-2.64,3.83.46,2.43-.3,3.39-2.68,3.39-2.13,0-2.52.38-2.1,2s0,2-3.41,2c-5.65,0-6,2.21-1.26,7.2l3.88,4-3-.72c-8.72-2.09-14,.09-10.2,4.24,2.61,2.89,2,3.54-1.37,1.54l-3.08-1.81-2.42,2.81c-3,3.44-3.21,6.69-.48,6.69a3.32,3.32,0,0,0,2.55-1c1-1.63,4.29-1.14,5.7.86a19.26,19.26,0,0,0,4.75,4c4.08,2.48,6.84,1.41,4.8-1.86-1.79-2.87-.2-3.42,3.1-1.07a11.21,11.21,0,0,0,4.56,2.11c2,0,9.59-6.78,9.59-8.58a3.64,3.64,0,0,1,2-2.43c1.56-.83,2.68-.69,4.89.62,3.8,2.24,5.84,1.29,6.67-3.14.79-4.23,2.76-5.38,5.29-3.09a9.54,9.54,0,0,0,5.44,1.62c3.25,0,3.88-.44,5.67-4C2072.19,1388.27,2070.72,1383.83,2066.36,1387.93ZM328.63,1410.6c-1,.65-1.19,4.8-.2,5.79s2.78.14,3.15-1.74S329.91,1409.81,328.63,1410.6ZM2995.24,1417a1.5,1.5,0,1,0,1.5,1.5A1.51,1.51,0,0,0,2995.24,1417Zm-12.79-5c-1.69,0-4.71,3.17-4.71,5a4.83,4.83,0,0,0,1.25,2.9c1.15,1.16,6.83.83,9-.51C2989,1418.78,2983.87,1412,2982.45,1412Zm-949,5.16c-1.87-1.55-5.26.92-4.39,3.2s2,2.08,4.07-.22C2034.52,1418.63,2034.57,1418.13,2033.44,1417.19Zm12.17-.58c-1,.63-1.16,4.79-.2,5.75a2.49,2.49,0,0,0,4-.87C2050.06,1419.77,2047,1415.78,2045.61,1416.61Zm-1709,3.42c-1.3,0-1.88.72-1.88,2.33a5.47,5.47,0,0,0,.67,3c1.23,1.23,4.39.69,5-.84C341.14,1422.56,339,1420,336.62,1420Zm2664.68,3c-2.63,0-4.05,1.39-3.06,3,.84,1.35,2.84,1.26,4.3-.2C3004.4,1424,3004,1423,3001.3,1423Zm-997.84-5.41c-3.88-2.95-5.93-3.24-7.71-1.09-1.59,1.91.26,6.87,3.38,9.07a7.68,7.68,0,0,0,4.61,1.21c2-.22,2.57-.91,2.81-3.44S2006.25,1419.76,2003.46,1417.62Zm-768.9,7.22c-.6-3.94-15.11-7.82-16.42-4.39-.53,1.38,1.41,5.22,4.52,8.91C1225.45,1432.68,1235.18,1429,1234.56,1424.84Zm1736.85-23.23a69.72,69.72,0,0,1-2.08-6.79c-.84-3.78-6-11.18-9.32-13.36-3.67-2.41-7.74-2.25-13.55.53-3.88,1.86-5.71,2.17-9.78,1.63a70,70,0,0,0-12.49,0c-7.27.66-7.53.78-9.09,4.07s-1.49,3.52.17,5.36a5.8,5.8,0,0,0,3.05,2c.69,0,3.58,1.17,6.42,2.59,3.74,1.88,5,3,4.55,4.14-.73,1.91,2.13,5.27,4.49,5.27,2.67,0,4.22,2.57,3.51,5.8-.45,2.07-.15,3.28,1.07,4.29,2.44,2,4.38,7.23,4.38,11.74a11,11,0,0,0,2.08,6.54c2.81,3.57,4.45,3.33,9.63-1.45,4.26-3.92,4.63-4.06,9.26-3.42,2.72.37,5.07.25,5.4-.28a31.87,31.87,0,0,0,1.25-6.58c.6-5.14.49-5.64-1.28-5.64-2.27,0-7.09-4.88-10.17-10.31-3.89-6.85-2.28-6.92,4.44-.2,3.63,3.64,7.12,6.44,7.75,6.23C2972.87,1413.17,2973.05,1406.15,2971.41,1401.61Zm15.83,22.42c-4.95-.35-5.28-.17-8.45,4.43-4.21,6.12-4,9,.7,11.5a19,19,0,0,0,7,2c2.81,0,3.44-.45,4.8-3.71a37.45,37.45,0,0,0,2.14-7.9C2994.06,1425.74,2992.76,1424.4,2987.24,1424Zm-2673.7,6.56c-.26-1.82-1.11-2.09-7.27-2.36-5.64-.24-7.61-.79-10.3-2.84-4-3.05-5.73-2.61-6.58,1.68-1,5-.89,5.41,3.44,10.32,3.74,4.25,4.47,4.64,8.67,4.64,4.57,0,8.24-2,8.24-4.5,0-.65.92-2,2.05-3A5.22,5.22,0,0,0,313.54,1430.59ZM2982.12,1444c-1.69,0-1.8,2.18-.18,3.8s2.49,1.52,3.33.16S2984,1444,2982.12,1444Zm8.12,8c-.48-.78-1-.84-1.72-.17a1.87,1.87,0,0,0-.28,2.17c.49.78,1.06.84,1.73.18A1.86,1.86,0,0,0,2990.24,1452Zm-3.35,6c-2.19,0-3.51,1.31-2.42,2.4s3.55.28,4-1.15C2988.74,1458.56,2988.06,1458,2986.89,1458Zm-82.92,5.63c-.17-3.91-.93-6.81-2.25-8.66a11.14,11.14,0,0,1-2-5.22,16.16,16.16,0,0,0-1.66-5.78,18.82,18.82,0,0,1-1.46-8.44c.18-4.3-.18-5.47-2.3-7.46a16,16,0,0,1-3.62-6,57.75,57.75,0,0,0-2-5.6c-2.46-5.45-5-12.79-5-14.57,0-1.09-2.49-4.93-5.53-8.52s-5.81-7.87-6.13-9.51c-.44-2.17-1.52-3.37-4-4.39-3.12-1.31-3.37-1.74-3.37-6,0-2.5-.33-4.58-.75-4.63a18.38,18.38,0,0,1-2.25-.5c-4.73-1.36-8.16-1.53-9.42-.48s-1.63.79-2.44-.63-1.34-1.62-3.07-.56c-2.89,1.77-3.36,1.57-2.68-1.13.78-3.14-1.35-4.84-5.57-4.44-4,.38-4.93,3.48-2.3,7.48,1.72,2.63,1.55,6.16-.64,13.09-1.1,3.48-2.67,4-5.95,2-1.74-1.06-2.26-1-3.49.69a8.34,8.34,0,0,0-1.44,4.19c0,3.26,3.91,9.38,6.65,10.43s3,3.52.82,6.38c-1.86,2.47-1.9,7.46-.06,8.16s7.28-2.14,8.57-4.54c1.61-3,1.28-12.6-.48-14.06-2-1.69-1.89-4.94.25-5.58a34.85,34.85,0,0,0,4.59-2c4.82-2.47,6-2,5.28,2.3-2.12,13.29-2.2,12.4,1.41,15.42,3.29,2.74,3.31,2.8,1.45,4.86-1.64,1.81-1.71,2.37-.55,4.23a22.62,22.62,0,0,1,2,7.19c.56,4.59.87,5.08,3.36,5.37,2.15.24,3-.22,3.68-2.12a4.91,4.91,0,0,1,3.75-3c3.73-.73,5.14.73,3,3.1s-2.24,7.19-.13,7.19c.85,0,2.31-1.35,3.25-3,2.41-4.23,3.52-3.73,2.78,1.24-1.48,10-1.42,10.28,2.17,10,3.17-.25,3.25-.16,3.25,3.76a15.83,15.83,0,0,0,.93,5.75,24.73,24.73,0,0,1,1.47,3.49,3,3,0,0,0,3,1.75c2,0,2.89.92,4.56,4.71a25.08,25.08,0,0,0,5.3,7.48c2.22,1.93,4.14,2.71,6.21,2.55l3-.24ZM3019.13,1438a4.13,4.13,0,0,1,3.65,2.06,3.08,3.08,0,0,0,3.28,1.75c2-.28,2.18-.88,2.18-7.31v-7l-7-3.69c-3.85-2-8.12-3.61-9.5-3.5-2.25.17-2.5.64-2.59,4.69-.26,11.47-.07,10.93-3.66,10.37-2.62-.41-3.87.08-6.5,2.51-3,2.75-3.25,3.52-3.25,9s.28,6.21,2.62,7.75,2.9,1.62,7.39,0A54.21,54.21,0,0,1,3011,1453c.26,0,.74,1.58,1.05,3.52a16,16,0,0,0,2.63,6.13,9.66,9.66,0,0,1,2.06,4.82,5.23,5.23,0,0,0,.64,2.84c.93.93,2.36-.2,2.36-1.86,0-.78,1.8-2.56,4-4,4.58-2.89,4.82-4,1.91-8.93a9.47,9.47,0,0,1-1.46-7.3c.59-3.57.42-3.88-3.09-5.77C3016.51,1440.07,3015.62,1438,3019.13,1438Zm-79.94,14c2.68,0,2.79-2.15.24-4.83a11.42,11.42,0,0,1-2.86-6.17c-.28-3-.73-3.55-3.08-3.82-3.08-.35-3.47-1.34-1.25-3.18a5.93,5.93,0,0,0,1.5-4c0-2.33.48-2.87,2.75-3.13,1.63-.19,2.87-1,3.06-2,.38-2-4.69-8.78-6.52-8.78-.67,0-1.7-.9-2.29-2a4,4,0,0,0-3.1-2c-4,0-5.9-1.86-5.9-5.71,0-4.63-2.38-7.29-6.54-7.29a5,5,0,0,0-4.85,2.49,8.38,8.38,0,0,1-4.18,3.12c-2.33.58-2.5,1-1.93,4.34.46,2.72.21,4-.94,5a4.36,4.36,0,0,0-1.56,2.72c0,2.52,3,7.33,4.58,7.33,1.25,0,7,2.47,8.24,3.53.18.15-.23,1.16-.9,2.24-1.68,2.69-.79,4.45,3.42,6.71,3.43,1.85,3.64,1.86,5.55.12,2.47-2.23,4.56-1.3,3.12,1.4a5.29,5.29,0,0,0,0,4.5c1.51,4,1.32,4.24-2.75,4.12-3.72-.12-3.75-.09-4.06,4.21-.26,3.67,0,4.41,1.75,4.87,2.22.57,2.68,1.8,1.06,2.8-2,1.27-1,5.69,2,8.31,2.29,2,3,3.49,3,6.21,0,2,.54,4.12,1.2,4.78,1.46,1.46,1.46,1.46,3.87.17,2.58-1.39,2.53-6.39-.09-9.73-1.47-1.86-1.73-2.88-.94-3.66s1.34-.65,2,.42c3.63,6.27,6,6.25,6-.07a13.83,13.83,0,0,1,1.21-5.89c1-1.57.89-2.27-.5-3.81C2937.37,1453,2937.29,1452,2939.19,1452Zm-8.34,8c-1.1,0-2.18-2.59-1.4-3.37s2.29.32,2.29,1.93C2931.74,1459.38,2931.34,1460,2930.85,1460Zm41,19.44c-1.8,1.11-1.27,3.48,1.35,6.11,2.85,2.84,4.36,3.09,5.22.86C2979.16,1484.5,2973.48,1478.46,2971.85,1479.47Zm-28.26,3.56c-2.69,0-2.47,5.7.33,8.69q4.82,5.12,4.82-1.36C2948.74,1486.31,2946.44,1483,2943.59,1483Zm-15.11,8.32c-5.11.18-5.23.25-5,3.05a9.21,9.21,0,0,0,1.9,4.75c2.21,2.44,3.07,2.37,4.48-.37a14,14,0,0,1,3.18-3.86C2936.05,1492.5,2934.34,1491.15,2928.48,1491.35Zm47.08,1c-.27-1.41-1.53-1.83-6.28-2.08-11.55-.59-13.82,1.76-7.65,7.93,4.07,4.07,7.11,4.41,7.11.79,0-1.21,1.28-2.41,3.58-3.38C2974.82,1494.52,2975.8,1493.54,2975.56,1492.3Zm5.68,16.73c-1.6,0-3.07,4.27-2,5.94a2.48,2.48,0,0,0,4.07,0C2984.32,1513.3,2982.85,1509,2981.24,1509Zm-6,7c-1.82,0-2.85,1.71-2.15,3.55.57,1.46,3.75,2,4.92.82C2979,1519.43,2976.85,1516,2975.27,1516Zm-6.47-.14-2-2.36-4.19,4.16c-2.77,2.74-4,4.7-3.59,5.75.77,2,3.4,2,8,.08C2971.27,1521.78,2971.77,1519.5,2968.8,1515.89ZM2058,1451c.23-2-.32-2.47-3.72-3.2-4.1-.88-8.41-4.89-8.48-7.88a5.49,5.49,0,0,1,1.87-3.32c1.57-1.42,2.25-1.51,3.87-.5,2.49,1.56,5.49.46,5-1.84-.25-1.24-1.24-1.71-3.4-1.62-2.46.1-3.24-.4-4.09-2.66-1-2.54-7.91-8-10.2-8-1.87,0-7.23,5.34-9.16,9.13-2,4-4.93,5.23-4.94,2.12a29.54,29.54,0,0,1,1.7-6.5c1.64-4.58,1.63-4.79-.25-6.21a10.52,10.52,0,0,0-5.29-1.51,11.21,11.21,0,0,1-5.88-2c-2.8-2.2-5.79-2.6-6.83-.91-.37.6,1,2.76,2.94,4.79,4,4.15,4.82,9,2.06,12.9-1.93,2.75-3.59,2.82-5.21.22a4.17,4.17,0,0,0-2.87-2c-1.26,0-1.48.66-1,3,.64,3.21-.82,5-2.63,3.15-1.65-1.64-2.72-1.35-2.72.74a6.06,6.06,0,0,1-2,3.65c-2,1.78-2,1.74-2.17-2.59-.26-6.9-.39-8.16-1.24-12.12-1.68-7.87-7.19-7.58-13.59.71-5.62,7.29-5.33,10.25,1.22,12.5a24.7,24.7,0,0,1,6.71,3.43,4.57,4.57,0,0,0,4.53,1.17c2.74-.69,2.86-.58,1.94,1.82-.77,2-4.76,2-6.4.08-1.47-1.77-7.56-2-8.6-.33-.42.67.4,2,1.94,3.28,3.19,2.54,3.31,3.91.66,7.28-2.44,3.1-2.61,8.93-.33,11.45,2.71,3,.85,3.12-2.65.18-3.93-3.31-6.07-2.44-7.35,3-1.15,4.86-2.67,4.64-2.67-.38a13.89,13.89,0,0,0-1.55-6.41c-1.7-2.6-.23-4.74,1.84-2.67,1.61,1.61,7.67,1.39,8.32-.3.3-.77-.19-2.81-1.07-4.53s-1.34-3.56-1-4.11c1-1.7-1.56-7.83-4.24-9.93-2.85-2.25-8.24-2.65-11.61-.86a53.1,53.1,0,0,0-6.29,4.5c-2.25,1.84-4.8,3.34-5.66,3.34-1.41,0-10.11,9.87-13.7,15.53-1.26,2-1.26,2.68-.06,4.93a15.42,15.42,0,0,0,4.74,4.67c5.15,3.19,6.63,7,5.85,14.91l-.66,6.7,4.46,6.51c2.46,3.59,5.19,7.92,6.08,9.64s2,3.11,2.57,3.11c2,0,6-8,6-11.83a25.93,25.93,0,0,1,1.13-7.1c1.63-4.67-.1-8.07-4.1-8.07-1.67,0-3-.45-3-1,0-1.52,5.73-1.19,9,.53s3.47,2,1.4,7c-.86,2-1.35,3.94-1.09,4.2s2.28-1.33,4.49-3.53a38.4,38.4,0,0,1,6.08-5.12c3.4-1.82,2.57,1.09-1.43,5-1.92,1.87-3.5,4-3.5,4.64,0,2.2,2.07,2.61,4.07.8,3.54-3.21,2,0-3.32,6.79-6.59,8.45-9.9,13.71-9.28,14.72,1,1.58,9,.86,11-1a31.14,31.14,0,0,1,6.87-3.9c4.26-1.83,4.77-2.36,4.14-4.32-1.45-4.52-1.1-7.17,1-7.56,2.4-.46,5.51-3,5.5-4.58a13.47,13.47,0,0,0-1.5-4c-1.9-3.65-2-3.45,1.25-3.82,2.09-.24,2.83-.93,3-2.82.54-4.48,1-5.19,2.91-4.15,1.29.73,2.43.37,4.59-1.44,4.51-3.8,6.94-3,2.62.88-3.31,3-3.57,3.62-3.5,8.71.08,5.33.17,5.5,2.76,5.32,1.64-.11,4.24-1.74,6.68-4.17,2.26-2.27,5.18-4.14,6.72-4.33,5.89-.7,5.9-6.82,0-6.82-1.91,0-3.76-.45-4.1-1s.62-1,2.32-1c4,0,5.81-2.23,3.65-4.39a5.37,5.37,0,0,0-3-1.61c-2,0-2.82-1.89-1.45-3.54,1.74-2.09,6.35-1.8,8.46.54,2.3,2.54,6.1,2.54,10.25,0,4.45-2.71,4.52-7,.16-10.07-2.66-1.9-3.91-2.12-9-1.59-3.25.34-5.91.23-5.91-.24,0-1.93,3.14-3.23,8.24-3.41,4.38-.16,6.16.31,9.44,2.47a25.69,25.69,0,0,0,8.62,3.35c3.66.55,4.66,1.13,4.9,2.83.37,2.62,2.69,3.18,5.29,1.29,1.65-1.21,1.74-1.66.6-3a4.77,4.77,0,0,0-3.21-1.61c-2.85,0-2.26-2.69,1.61-7.41C2056.14,1455.28,2057.83,1452.31,2058,1451Zm-93.47,76.85a2.68,2.68,0,0,0-.4,2.66c.91,2.37,5.13,1.56,5.13-1C1969.24,1527.34,1966.14,1526.24,1964.51,1527.87Zm-141.24,2.36c-8.9-.38-11.53.27-11.53,2.86,0,1.9.55,2,9.25,1.73,8.49-.27,9.25-.45,9.25-2.29S1829.48,1530.5,1823.27,1530.23Zm1273.95-1.63c-3.36-2.2-4.09-2-8,1.9s-4.36,5.53-1.12,5.53a6.51,6.51,0,0,1,4.15,2c2.29,2.52,4.7,2.55,6.94.07S3100.48,1530.74,3097.22,1528.6Zm-108.91,1.73c-1.81-2.09-2.72-2.51-3.57-1.67-1.42,1.39-3.25,9.16-2.46,10.44s6.5,1.19,8.35,0S2991.42,1533.92,2988.31,1530.33Zm-12.63-1.84c-3-1.83-7.33,7.16-4.9,10.08,1.66,2,2.59,1.84,4.41-.76S2977.27,1529.47,2975.68,1528.49Zm-1013,8c-4-.58-5-.34-7.75,2-3.53,3-4.09,5.87-1.43,7.42,2.18,1.27,6.29,1.34,8.17.16a3.1,3.1,0,0,1,3.26.26c1.48.93,2.6.76,5.59-.84,2-1.1,3.73-2.68,3.73-3.5C1974.24,1540.09,1968.5,1537.35,1962.67,1536.52ZM3118.74,1553c-.55,0-1,.7-1,1.56s.45,1.28,1,.94a2.14,2.14,0,0,0,1-1.56A1,1,0,0,0,3118.74,1553Zm-1171.55-18.79c-2.93-.42-6.67,1.78-13,7.62-5.1,4.74-5.5,5.44-5.5,9.64,0,5.32.87,5.57,5.86,1.71,2-1.55,5.33-3.84,7.39-5.08s3.75-2.66,3.75-3.14.94-1.75,2.08-2.82C1950.54,1539.64,1950.15,1534.66,1947.19,1534.24Zm-322.67,23.62c-.79.78-.73,1.52.22,2.66,1.56,1.88,3.38,1.49,3.83-.82C1629,1557.67,1626,1556.34,1624.52,1557.86Zm1505.4-7.83c-3.74,0-8.29,7.66-6.81,11.5.82,2.15,3.63,1.85,6.32-.67C3132.47,1558,3132.83,1550,3129.92,1550Zm-65.7,7c-1.36-1.13-1.35-1.46.1-3.06,1.74-1.92,1.19-3.92-1.08-3.92-2.06,0-2.83-1.89-1.44-3.56,1-1.18.89-1.84-.42-3.29a6.33,6.33,0,0,1-1.64-3.42c0-2.27-1.81-3.12-3.56-1.67-2.12,1.75-2.37,1-1.43-4.06s.26-18-1-19.36-2.73.13-3.44,3.92c-.52,2.77-1.39,3.89-3.81,4.91-6,2.53-7.5,0-2.63-4.57,3-2.8,3-3,1.5-5.37a9.69,9.69,0,0,1-1.62-4c0-3-6.23-4.15-11-2.12-1.22.52-1.52-.15-1.52-3.39,0-3,.35-3.9,1.37-3.51,4.26,1.63,6.18,1.65,6.79.08.95-2.47-2.35-5.42-6.45-5.77-3.3-.27-4.08-1-8.95-8.3-6.48-9.71-8.23-11.62-14.69-16-2.76-1.89-6.87-4.83-9.13-6.52-4-3-4.18-3-7.75-1.56-2.84,1.18-3.65,2.08-3.65,4.07,0,1.4-.45,2.55-1,2.55a1.1,1.1,0,0,1-1-1.17c0-1.87-3.14-4.83-5.13-4.83-1.64,0-1.77-.62-1.23-5.78.48-4.62.28-6-1-7.12a4.31,4.31,0,0,1-1.62-2.41c0-3.57-8-7.34-10.43-4.94-.42.41-4.66.75-9.41.75h-8.66l-.29,6.19c-.27,5.58-.07,6.31,2,7.44,1.26.69,4.88,1.19,8,1.11s5.75.23,5.75.68-2.13,1.4-4.75,2.1c-6,1.62-7.28,2.72-5,4.41s2.22,3.57-.22,3.57c-3.2,0-5.18,4.12-4.83,10.06.54,9.26,5.18,8.79,10.55-1.06,1.45-2.66,2.65-3.57,5-3.81,5.79-.57,6.08-2.79,1.74-13.44-1.2-2.94,1.44-2,2.77,1a49.87,49.87,0,0,0,3.48,6.14,13.53,13.53,0,0,1,2.25,5.95c0,1.54,1.3,3.9,3.23,5.89,2.78,2.88,3.06,3.59,2,5.28-2.09,3.35-5.22,12.37-5.22,15,0,5.9,7.19,6.89,13.34,1.82,2.8-2.31,4.09-2.84,4.91-2s.53,2.17-1.13,5.13c-3.23,5.75-2.58,9.19,2,10.48s6.89,3.23,6.89,5.65c0,1.51-.74,1.88-3.77,1.88s-4.36-.66-6.46-3.06c-2.27-2.58-3-2.89-4.72-2-3.09,1.65-2.48,4.21,2,8.31,2.72,2.5,5,3.71,6.93,3.71,4.49,0,8,1.71,8,3.87,0,3.32,3,3.39,6,.14,3.31-3.55,4.1-3.67,6.5-1a6.21,6.21,0,0,0,3.8,2c1.81,0,1.93-.47,1.34-5.44-.38-3.27-.24-5.69.36-6.06s1,.25,1,1.31a9.21,9.21,0,0,0,2,4.46,9.44,9.44,0,0,1,2,4.66,3.34,3.34,0,0,0,2.37,3c3,1.16,3.86,3.37,2.1,5.7s-1.87,6.55-.27,8.15c1.76,1.76,8.74,1.54,9.44-.3.92-2.38,1.68-1.84,5.27,3.75,1.86,2.89,4.46,6.71,5.79,8.5,2.13,2.87,3,3.25,7.16,3.25,2.61,0,5.28-.54,5.94-1.2C3066.23,1563.14,3066,1558.52,3064.22,1557Zm-40.75-55c-4.34,3.41-5.73,2.69-5.73-3,0-5.21,1.48-6.54,4-3.56a7.42,7.42,0,0,0,4.29,1.75c3.4.34,5.14,2.81,2,2.81A9.3,9.3,0,0,0,3023.47,1502Zm5.22,8c-.59,0-.79-.45-.45-1s.82-1,1.06-1,.44.45.44,1A1,1,0,0,1,3028.69,1510Zm10.72,35.33a3.45,3.45,0,0,1-.67-2.12c0-1.18.29-1.22,1.5-.21a4,4,0,0,1,1.5,2.12C3041.74,1546.19,3040.36,1546.31,3039.41,1545.36Zm14.15-4.27a3.11,3.11,0,0,1-1.75,1.75c-.75.25-1.13-.12-.88-.87a3.13,3.13,0,0,1,1.75-1.75C3053.43,1540,3053.81,1540.34,3053.56,1541.09Zm-17.77,21.48a7,7,0,0,1-2.06-4.44,9.24,9.24,0,0,0-1-4.1c-.83-1.31-1.44-1.25-4.73.5-5.25,2.78-5.58,5.92-.8,7.49a13.8,13.8,0,0,1,5.76,4.12c1.19,1.61,2.64,2.77,3.22,2.58C3038.11,1568.09,3037.87,1564.45,3035.79,1562.57Zm-1200.7-1.35c-1.69-.24-2.3.35-2.82,2.69a8.74,8.74,0,0,0,.44,5.06c.61,1.13,1.48,2.06,2,2.06C1838.33,1571,1838.74,1561.74,1835.09,1561.22ZM1638,1566.85c-1.67-1.66-4.77,1.31-3.86,3.69.74,1.93,2.55,1.58,4-.79C1638.91,1568.55,1638.85,1567.74,1638,1566.85Zm-1161.69-9.2c-3.5-2.3-4.15-2.08-6.2,2.13-1.77,3.63-2,3.77-8,4.25-3.41.28-6.76,1.06-7.45,1.75a5,5,0,0,1-3.08,1.25c-2.25,0-3.19,2.19-2.35,5.5.76,3,3.57,3.28,6.08.5,2.38-2.62,3.66-2.52,6.5.5,4.56,4.85,14.53,2.39,13.39-3.31a4.33,4.33,0,0,1,1.54-4.62C479.47,1563.06,479.3,1559.63,476.28,1557.65Zm2548.46,6.26c-8.18-8.14-9.46-10.07-6.07-9.19,4,1,6.65-9,3.51-13.47-1.7-2.44-6.44-5.22-8.89-5.22-1.91,0-2,2.8-.18,4.92,1.63,1.88,2.82,9.85,1.58,10.61s-9-6.52-9-8.61c0-2.48-5.75-8.92-8-8.92-1.36,0-1.89,1.08-2.3,4.72-.45,4-.15,5.17,1.87,7.58,1.32,1.57,2.4,3.59,2.4,4.49,0,1.8,6.8,9.21,8.46,9.21.57,0,2.3,1.58,3.84,3.5s3.62,3.5,4.63,3.5,3.11,1.67,4.67,3.72,3.64,4.51,4.62,5.5c3,3,6.78,1.88,6.78-1.91C3032.74,1572.58,3030.45,1569.58,3024.74,1563.91ZM500.94,1576c-2.35,0-4.63,2.48-3.69,4,1.19,1.93,5,.67,5.31-1.76C502.8,1576.61,502.38,1576,500.94,1576Zm1338.64-.34c-2.46-1.54-4.84.89-4.84,5,0,3.78,1.31,4.26,4.84,1.78C1842.16,1580.62,1842.16,1577.31,1839.58,1575.69Zm-1335.24,6.64c-1.62.54-1.94,3.58-.56,5.25,1.63,2,4.88,1.84,5.66-.2C510.14,1585.56,506.24,1581.7,504.34,1582.33Zm1009.59,11.93c-.65-.22-1.19.32-1.19,1.19a1.59,1.59,0,0,0,1.59,1.58C1516.09,1597,1515.79,1594.88,1513.93,1594.26ZM521.24,1591c-2.78-3.08-5.2-3.34-9-1s-3.88,2.38-2.45,5.06c1.14,2.14,3.09,2.45,5.73.93a34.06,34.06,0,0,1,4.62-2C522.91,1593,523,1592.91,521.24,1591Zm1187.86-4.12c-1.42-1.17-1.8-1.1-2.75.51a48.64,48.64,0,0,1-3.46,4.76c-1.29,1.58-2.09,3.55-1.78,4.37.9,2.34,2.63,1.76,6.27-2.09C1711.15,1590.46,1711.5,1588.9,1709.1,1586.91ZM1535,1599.86c-1.54-1.54-6.23.47-6.23,2.67,0,1.17.66,1.38,2.75.89C1535.22,1602.54,1536.42,1601.31,1535,1599.86Zm-1033.27-1.2c-1.43-3.23-2.64-4.63-4-4.63-1.59,0-2,.7-2,3.78a12.46,12.46,0,0,0,1.56,6c1.72,2.45,6.44,3.08,6.44.85A26,26,0,0,0,501.7,1598.66Zm1388.79-3.44c-1.1-.21-2.08.55-2.65,2.06a10.33,10.33,0,0,1-3.5,4.1c-3.16,2.07-3.25,3.33-.42,6.34s5.82,3.06,5.82.21a16.57,16.57,0,0,1,1.59-5.44C1893.21,1598.52,1892.88,1595.68,1890.49,1595.22Zm-226,20c-1.72-1.72-8.31-1.49-9.83.34-1.67,2-.44,3.18,4.55,4.26a14.81,14.81,0,0,0,5.23.43C1666.08,1619.7,1666.11,1616.8,1664.54,1615.23Zm1,8.64a2.68,2.68,0,0,0-.4,2.66c.91,2.37,5.13,1.56,5.13-1C1670.24,1623.34,1667.14,1622.24,1665.51,1623.87Zm-78.84-.84c-2.89,0-5.49,2.28-4.48,3.92.89,1.43,9.55,1.11,9.55-.35C1591.74,1624.62,1589.48,1623,1586.67,1623ZM575.1,1612.65c-4.07-3.39-8-3.37-11.55.07-4,3.88-3.88,8.72.44,12.52,2.84,2.49,3.85,2.79,8,2.37,6.49-.66,8.78-2.06,8.74-5.36C580.66,1618.74,579,1615.92,575.1,1612.65Zm1076.55,10.58c-2.92-.34-5.42,2-4.55,4.29.63,1.64,4.33,2,6.49.63S1654.53,1623.57,1651.65,1623.23Zm-50.36,4.23c-2.26-1.67-3.48-1.47-4.92.8a2.42,2.42,0,0,0,.34,3.23c1.65,2,3.94,1.66,5.43-.77C1603,1629.27,1602.85,1628.62,1601.29,1627.46Zm-21.1,4.67c-7-4.1-11-1.38-5.89,4,3.21,3.35,5,3.65,7.62,1.29S1584.26,1634.53,1580.19,1632.13Zm-11.15,4.79c-1.22-1.21-3.76,1.55-2.82,3.07a2.22,2.22,0,0,0,1.62,1C1569.28,1641,1570.16,1638,1569,1636.92Zm73.84-14.07c1.34-2.61,1-5.82-.58-5.82a2.77,2.77,0,0,0-2.14,1.14c-.47.76-1.23.44-2.31-1-1.5-2-1.86-2-5.56-.74-4.87,1.68-6.36,5.11-6.47,14.91l-.08,6.83,2.77-.61c2-.45,3.67.06,6.2,1.92,6.94,5.13,9.29,3,8.13-7.52C1642.39,1627.87,1642.4,1623.78,1642.88,1622.85Zm-54,15.18c-2.39,0-3.53,1.51-2.72,3.62s4,1.23,4.41-1.38C1590.8,1638.59,1590.38,1638,1588.87,1638Zm1554-165.79c-1.72-2.91-3.13-5.71-3.13-6.22a17.07,17.07,0,0,0-1.92-4.36c-8.44-15-9.34-18.66-7.71-31.16.75-5.81.65-6.23-2.62-11-4.94-7.2-13.15-10.46-18.78-7.45-1.45.78-3.13.42-7.12-1.5a37.61,37.61,0,0,0-6-2.52,69.71,69.71,0,0,1-8.31-3.52,55.46,55.46,0,0,0-12.05-4.14c-2.49-.34-4.77-1-5.06-1.48s-2.52-.86-4.94-.86a30.88,30.88,0,0,1-9.37-2c-2.82-1.11-9-2.26-14.28-2.66-12.09-.91-16.42-2.87-21.82-9.87-2.46-3.19-5-5.51-6.11-5.51s-3-1.65-4.38-3.75c-6.12-9.13-9.58-14-12.29-17.25a73.11,73.11,0,0,1-5.67-8.25c-1.51-2.61-3.18-4.75-3.71-4.75s-2.85-2.08-5.15-4.61-5.19-5-6.41-5.47-3.33-2.61-4.69-4.77-5.54-6.52-9.29-9.68a71.43,71.43,0,0,1-8.31-7.94c-3.76-5.48-9.37-11.53-10.68-11.53-3,0-8.12-5.18-10.64-10.77-1.42-3.15-3.52-6.3-4.66-7s-3.67-3.76-5.61-6.8-5-6.4-6.72-7.46a7.67,7.67,0,0,1-3.69-4.65c-.56-3.07-7.19-8.22-10.65-8.28-1.35,0-4-2.19-7.2-5.86-4.52-5.22-5.65-6-10.85-7.1-3.19-.71-6.92-1.66-8.3-2.13s-4.52-1.36-7-2c-5.66-1.43-9.61-5.11-10.49-9.77-1.07-5.7-3.25-9-7.28-11.07a24,24,0,0,1-5.73-4.12c-2.78-3.09-9.92-6.53-16.87-8.14-7.24-1.68-10.63-5.13-10.63-10.84,0-4.31-4.52-13.93-6.94-14.78a13.48,13.48,0,0,1-3.57-2.34c-4.88-4.38-11.93-7.17-19.33-7.68l-7.34-.49-9.35,9.83c-5.14,5.41-9.62,10.93-10,12.27a19.8,19.8,0,0,1-3.06,5.65c-2.33,3.06-2.45,3.88-2.45,17.46,0,12.81-.21,14.55-2.06,17.16-1.58,2.21-2.87,2.9-5.42,2.9-2.76,0-4.07.84-7.42,4.75-20.32,23.75-20.23,23.68-24,18.35a11.49,11.49,0,0,1-2.07-5.34c0-6.51-2.3-14.32-4.86-16.5-1.45-1.24-3.12-2.25-3.71-2.25s-2.13-1.13-3.43-2.51-3.17-2.5-4.19-2.5c-2.26,0-9-4.15-13.94-8.54a22.09,22.09,0,0,0-6-4c-5.16-1.57-17.6-12.38-25.21-21.92-1.57-2-3.65-3.57-4.63-3.57a4.44,4.44,0,0,1-3-1.43,8.67,8.67,0,0,0-4.11-2.08c-3.17-.7-14-12.08-14-14.73a18.66,18.66,0,0,1,1.39-4.89,46.16,46.16,0,0,0,2.06-6.53c.62-2.9.43-3.21-2.32-3.81a8.9,8.9,0,0,1-4.18-2.09c-1.55-1.88-5.37-1.84-7,.06-.69.84-2.87,1.5-4.91,1.5a20.19,20.19,0,0,0-7.59,2,18.2,18.2,0,0,1-5.72,2c-2.36,0-5.41,1.75-10,5.75-3.17,2.74-4.54,3.25-8.8,3.25-3.5,0-7.66,1.08-13.51,3.5-10.62,4.4-17.21,4.7-22.59,1-4.19-2.85-3.52,0-9.86-41.54-2.23-14.57-5.82-37.52-8-51s-6.4-40-9.41-59-6.17-38.77-7-44-5.61-35.06-10.58-66.3-9.45-58.7-10-61-1.69-9.6-2.61-16.2-3.22-21-5.1-32-4.12-24.27-5-29.5-6-37.4-11.53-71.5-20.09-125.18-32.41-202.41c-17-106.3-22.81-140.86-24.07-142.25a7.16,7.16,0,0,0-5-1.84c-2.71,0-3.35.4-3.35,2.07s-.53,2-2.67,1.75c-3.17-.38-4.44-2.82-1.47-2.82s3.64-1.8,1.74-3.89a6,6,0,0,1-1.6-2.92c0-1.49-7.75-5.46-9.07-4.64-.55.35-.73,1.48-.4,2.54.74,2.31-1.17,2.5-4,.38a8,8,0,0,0-4.07-1.47c-1.18,0-3.18-1.1-4.46-2.47s-4.72-3.17-7.65-4c-3.14-.92-5.76-2.36-6.38-3.53-1.37-2.54-8.1-6-11.73-6-3.87,0-7.07-2.48-7.45-5.76-.23-2-.95-2.83-2.62-3.06-2-.28-2.25.05-2,2.5.29,2.66.06,2.84-4,3.13s-5.58-.87-3.25-2.31c1.54-.95,1.19-4.21-.52-4.86s-5.48,2.64-5.48,4.89c0,.86,1,1.9,2.22,2.36l2.21.81-2.15,1.15a11.61,11.61,0,0,1-4.61,1.15c-1.53,0-3.55,1.24-5.35,3.29-2.9,3.31-8.85,6.51-10,5.37-.34-.34-4.17,1.24-8.52,3.5-7,3.62-8.21,4-10.46,2.95a11.52,11.52,0,0,0-5.85-.54c-2.74.51-4.28,0-9-3.23-9.83-6.58-12.72-8.17-14-7.68a1.79,1.79,0,0,1-2-.77c-.44-.73-.27-1.44.4-1.66,1.83-.6,1.39-3.05-.76-4.19-4.19-2.25-9.88-.46-7.18,2.25,2,2,1.18,3-1.91,2.36a17.57,17.57,0,0,0-7.64,1c-3.43,1.16-6.39,1.39-11.48.88-3.77-.38-6.87-.31-6.88.16a10.08,10.08,0,0,1-1.91,3.31l-1.88,2.45-3-3.2c-1.65-1.77-3.93-3.21-5.06-3.21a3.86,3.86,0,0,1-3.06-1.85,9.11,9.11,0,0,0-4-3.13c-2.57-1.07-3.42-1-5.55.39-2.44,1.6-2.55,1.57-3.48-.88-1.21-3.17-2.06-3.17-5,0-3.2,3.42-4.38,3.15-2.46-.57,1.81-3.5.69-5.93-2.75-5.93-1.08,0-3.81-1.57-6.06-3.5-6.54-5.6-12.73-4.42-12.73,2.44,0,1.13-.45,2.06-1,2.06s-1-1.84-1-4.1c0-3.25-.61-4.67-2.94-6.85-2.11-2-2.79-3.36-2.38-4.9.46-1.79.13-2.15-2-2.15a4.28,4.28,0,0,0-3.46,1.6c-.6,1.08-3.51,2-8.95,2.75-4.55.65-8.85,1.86-9.9,2.79s-4.36,2.34-7.43,3.22-6.4,2.52-7.4,3.62c-1.77,1.95-4.53,2.76-4.53,1.32,0-.39,1.41-2.15,3.14-3.94,4.33-4.46,3.38-5.94-4.3-6.65-6.12-.56-6.46-.47-9.84,2.68-5.75,5.33-11.56,7.05-14,4.11-.68-.82-2.79-1.5-4.68-1.5a14.19,14.19,0,0,1-5.47-1.08c-2-1.08-2-1.11.28-3.54,1.81-1.94,2.08-2.83,1.23-4.17a3.94,3.94,0,0,0-6.18-.93c-3.52,3.05-10.18,3.13-10.18.12,0-1,1.33-1.4,4.5-1.4,3.73,0,4.5-.32,4.5-1.86s-1-2-6-2.56c-4.64-.52-6.24-1.15-7.11-2.78-1.59-3,.42-9.12,3.67-11.25,5.82-3.81.25-9.66-9.8-10.32a35.1,35.1,0,0,1-10.33-2.32c-4.44-2.08-9.94-2.51-11-.86-.41.66-3.8.85-9.29.52l-8.64-.53-3.53,3.45c-4.66,4.55-8.56,4.86-13.52,1.08-4-3.06-4-2.69-1.94-13.65.63-3.48.48-3.7-5.07-7.5-3.14-2.16-6.32-4.35-7.06-4.89-.94-.67-2-.33-3.63,1.15a10.85,10.85,0,0,1-4.3,2.48c-1.31.24-2.1,1.29-2.31,3.07s-1.94,4.16-4.75,6.62c-4.72,4.15-5.11,5.1-3.28,8a4.36,4.36,0,0,1,.58,3.35c-1.32,3.46-10.74,2.74-10.74-.82,0-.9-1.12-3-2.5-4.6-4-4.69-3-6.58,2.38-4.56,4,1.5,5.57.58,8.73-5.06,4.07-7.23,3-11.53-3.61-15.05a12.68,12.68,0,0,1-4.66-4.15c-1.51-3-6.77-6.27-10.17-6.4s-3.48-2.68.08-4.39c4.9-2.35,2.33-7-3.24-5.86-5.25,1.05-8,3.75-12,11.8S1916.21,254,1914.66,254c-.46,0-3.73,2.7-7.26,6-6.89,6.45-11.66,9-16.87,9-1.81,0-5.76,1.16-8.78,2.57-5.91,2.75-10.71,2.69-13.07-.16a12.51,12.51,0,0,0-3.11-2.51c-1.51-.81-2-.51-2.83,1.61-1.06,2.79-3,2.52-3-.42,0-2.07,2.28-4.19,6.38-5.94,1.59-.68,2.6-1.51,2.25-1.87-1.08-1.08-12.95-.21-16.13,1.18-1.65.72-3.77,1.57-4.71,1.88s-2.43,2.25-3.29,4.32c-2.19,5.25-4.35,7.33-7.59,7.33-1.53,0-3.12.55-3.54,1.21-1.17,1.9-.43,8.06,1.18,9.84a6.27,6.27,0,0,1,1.45,3.59,5,5,0,0,0,1.1,3.05c.79.79.61,1.83-.64,3.75l-1.74,2.64-2.43-2.28c-1.89-1.78-2.31-2.94-1.85-5.21.66-3.3-1.6-6.59-4.53-6.59-1,0-3.28,1.85-5.1,4.11-8.89,11-7.91,10.4-15.73,10.31-7.56-.08-8.68.82-5.1,4.06,2.43,2.2,1.7,3.73-1.41,2.95-1.27-.32-4.7.13-7.62,1-7.76,2.31-11.8,2.1-12.86-.67-1.45-3.81-4.62-6.07-6.85-4.87-1.33.71-2.25.7-3,0-1.41-1.4-3.78,0-8.64,5-3,3.09-3.91,4.84-4,7.72-.07,2.06.36,3.9,1,4.11s3-2.33,5.31-5.65,4.88-6,5.67-6c2,0,1.81,1-1.37,6.06a51.37,51.37,0,0,0-3.47,6.19c-.65,1.72-4.3,2.38-10.85,2-2.1-.14-4.91,2-13.86,10.74-6.2,6-11,11.51-10.79,12.24.81,2.43,3.55,2,7.21-1.26,4.76-4.17,5.65-3.07,1.62,2-3.79,4.79-4.64,7.46-5.59,17.62-.71,7.56-.83,7.83-6.52,14.44-7.07,8.21-33.18,30.35-38.55,32.69-4.06,1.76-25.43,3.55-44.54,3.73-9.45.09-9.74,0-13.7-3.16-2.22-1.79-4.46-3.25-5-3.25a4,4,0,0,1-2.19-1.5c-3.74-4.51-7,2-7,14,0,7.41-.23,8.43-2.44,10.5a9.42,9.42,0,0,0-2.75,5.94c-.28,3.34-.6,3.67-4.31,4.41-18.93,3.79-20,5.88-6.59,12.78a59.68,59.68,0,0,1,9.75,6.07c2.92,2.75,7.91,11.24,8.87,15.09.65,2.61,7.52,8.9,17.69,16.17a22.81,22.81,0,0,1,5.67,5.84c.89,1.61,4.2,5.44,7.36,8.51,3.53,3.42,5.75,6.43,5.75,7.76a6.55,6.55,0,0,0,2.09,4.06c3.86,3.5,9.41,11.85,9.56,14.4.42,7.13,1.82,14.76,3.07,16.69.82,1.26,1.62,6,1.93,11.5.32,5.75,1.16,10.62,2.19,12.68,1.67,3.35,10.6,10.15,13.33,10.15.8,0,2.78,1.4,4.4,3.1l2.93,3.11,9.71-.45c6.28-.29,10.09-.06,10.8.65s5.17,1.16,10.29,1.25,10.44.63,12,1.23c4.13,1.6,3.66,5.24-1.28,10-9.57,9.29-7,27.17,4.85,34.16,3.4,2,4.14,4.92,1.24,4.92a9,9,0,0,0-4,1.2c-1.69,1-2.43.65-6-3.25-2.22-2.45-4.48-6-5-7.81a15.84,15.84,0,0,0-2.65-5.22,4.59,4.59,0,0,1-1-4.63c1.82-7.4,1.78-7.88-1.1-11.31-2.29-2.74-2.84-4.35-2.84-8.44v-5l-5.64-.3c-5.27-.27-5.79-.09-7.75,2.66a11.23,11.23,0,0,0-2.11,4.36c0,2.57,5,11.74,7,13,7.38,4.53,15.12,21.69,12.86,28.53-1.5,4.56-.56,6.62,2.64,5.81a9.9,9.9,0,0,1,6,1,11.64,11.64,0,0,0,7.28,1c3.63-.62,4.11-.38,8,3.88s5.36,7.58,3.32,7.58a17.68,17.68,0,0,1-4.54-2.5,13.61,13.61,0,0,0-8-2.5c-5,0-6.75,1.55-8.61,7.5a20.72,20.72,0,0,1-3.51,6.5,15.62,15.62,0,0,0-3,4.75c-.88,2.91-1.87,2.84-5.06-.35-2.08-2.08-3.24-2.49-5.79-2a6.71,6.71,0,0,1-5.14-.91c-2.53-1.92-8-1.87-11,.09-2.23,1.46-2.43,1.42-3-.47-1.41-4.44-5.5-6-15.21-5.79-6.41.14-9.48-.19-10.66-1.16a5.63,5.63,0,0,0-4.74-.76c-4,.79-6.6-.68-7.37-4.19a16.77,16.77,0,0,0-3.59-6.06,25.64,25.64,0,0,1-3-3.62c0-.2,1-.51,2.25-.69a2.85,2.85,0,0,0,2.59-2.65c.22-1.57,1.47-2.82,3.81-3.78,3.07-1.3,3.44-1.84,3.17-4.68-.24-2.41-.75-3.14-2.07-2.92q-3.27.55-.11-5.29a27.8,27.8,0,0,0,2.28-6c.46-2.07,1.34-3.1,2.87-3.32,2.87-.41,2.76-1.24-.51-3.62-2.3-1.67-4.33-1.92-15.26-1.9-8.87,0-13.36.45-15.17,1.44l-7.46,4a31.75,31.75,0,0,0-6.79,4.75c-2.23,2.46-3.89,2.66-5.55.66-1-1.2-.49-1.63,2.94-2.56,3.06-.82,4-1.55,3.8-2.8s-1.25-1.63-4.82-1.37c-2.45.18-4.89.75-5.42,1.25s-4.27.92-8.34.92c-8.22,0-12.8,2.15-13.39,6.27-.22,1.58-1.18,2.38-3.29,2.73a4.52,4.52,0,0,0-4,3.31c-1.19,3.36,0,5.62,3.77,7.49,3.46,1.7,5.33,5,3.28,5.79-3,1.15-6,0-6.61-2.59-.45-1.93-1.32-2.57-3.79-2.81-1.92-.19-3.63-1.09-4.25-2.25-.76-1.43-2.1-1.94-5.08-1.94-4.61,0-5.06-2.28-.56-2.82,3.56-.42,3.56-3.18,0-3.18a30.25,30.25,0,0,0-11.33,3.15,19.41,19.41,0,0,1-3.29,1.51c-1,.33-5,2.15-9,4-10.16,4.86-13.58,8.29-8.28,8.29a10.29,10.29,0,0,0,5.25-2.35c3.85-3.22,13.28-7.6,15-7,2.13.82,1.67,1.73-2.58,5.14-2.78,2.24-5,3.17-7.52,3.17-2.84,0-3.77.49-4.47,2.34-1,2.71-6.58,7.66-8.58,7.66a2.49,2.49,0,0,1-1.91-.86c-.29-.49-1.92-1.16-3.61-1.49-4.13-.83-7.54,1.52-10,6.9-2.22,4.88-3.34,5.52-7.17,4.08-2.23-.85-3.46-.63-6.76,1.23-4.52,2.54-6.65,2.14-5-.92a3.53,3.53,0,0,1,2.44-1.94c2.35,0,2.82-2,1-4.06-2.32-2.55-3.62-2.45-6.44.55-1.68,1.79-2.47,4-2.79,7.94l-.45,5.45,5.43,3.47c4.31,2.76,5.68,4.3,6.62,7.43,1.39,4.65,9.57,12.8,13.85,13.81a34.86,34.86,0,0,1,7.83,3.84c6.88,4.36,10,5.57,14.3,5.58a10.65,10.65,0,0,1,6.68,2.39l3,2.37-3.23,3c-1.77,1.66-3.23,3.72-3.23,4.59,0,3.3-7.86,4.9-11.4,2.32-1.89-1.39-2.42-5.05-1.15-8,1-2.32-2.09-2.37-4.62-.09-3.11,2.82-2.14,6.24,3.88,13.67a10.25,10.25,0,0,1,2.29,5.08,5.29,5.29,0,0,0,.65,2.9,42.23,42.23,0,0,1,2.9,6.21l2.26,5.56-2.4,2.85c-3.15,3.74-3.24,10.32-.22,16,2.46,4.61,11.48,12,16.89,13.88,3.61,1.24,10.39,4.86,19.24,10.29,7.82,4.79,21,6.68,23.71,3.4,1-1.21,2.5-1.4,7.08-.88,3.19.36,6.61.33,7.6-.07s6.27-.9,11.75-1.1c9.25-.35,10.27-.19,14.5,2.23,5.35,3.07,11,8.22,11,10,0,.69,1.1,2.51,2.43,4.06l2.42,2.8,3.08-2.94c3.84-3.66,3.84-4.92,0-9.28-2.29-2.6-3-4.27-2.75-6.63.37-3.83,2.18-3.78,2.63.07a11.48,11.48,0,0,0,2.56,5.28c2.78,3.11,4.61,7.32,4.61,10.6,0,3.85,2.76,8.4,5.09,8.4,1.26,0,5.13-3.27,10.15-8.57,8.22-8.68,15.37-13.14,23.94-14.93,4.67-1,7.82-3.2,7.82-5.52s2.2-2.55,5.5-.39c3.62,2.37,8.32,1,12.33-3.72,1.83-2.13,4.14-3.87,5.13-3.87,2.61,0,9.68,7.24,10.38,10.62,2,9.9,2.15,9.16-1.67,11.42a16.11,16.11,0,0,0-5.7,6.53c-2.31,4.77-4.32,5.51-8.25,3a19.86,19.86,0,0,0-5.4-2.07c-2.69-.56-3.44-.27-4.85,1.88a13.76,13.76,0,0,0-1.82,5.82c-.13,3,.11,3.3,3.25,3.6,4.77.45,7.76,2.71,8.51,6.42a14,14,0,0,0,3.21,5.87c2.79,2.91,2.73,1.45.79,19.35-.49,4.55-.24,6,1.5,8.4,2.53,3.55,2.63,6.6.43,13.44-1.9,5.91-4.07,8.88-13.58,18.58-8.92,9.11-8.76,9.09-32.55,5.5-2.19-.33-3.58-1.23-4.14-2.69-1.1-2.85-5-6.4-7.56-6.86-1.28-.23-2.17-1.39-2.5-3.24-.28-1.59-1.18-3.2-2-3.59s-2.5-1.22-3.73-1.85c-3.07-1.59-4-1.47-6.27.84-1.9,1.91-2.84,7.94-1.25,8.06,9,.64,13.82,1.17,14.19,1.54s-2.22,3.11-5.49,6.34-7.92,8.17-10.34,11-5.24,5.09-6.27,5.09-3.79,2-6.11,4.39a45.25,45.25,0,0,1-9.54,7.19c-4.84,2.56-5.52,2.68-7.66,1.36-5.86-3.61-14.68-11.21-15.5-13.37-1.34-3.52-9.33-9.2-14-10-3.19-.51-5.08-.12-9,1.85-5.11,2.59-8.07,5.76-8.07,8.65,0,.93,2.84,4,6.31,6.8,6.09,4.94,9.68,10.67,8.2,13.08-1.19,1.92-2.66,1-10-6.5-9.16-9.33-10.73-9.56-16.45-2.37-4.39,5.51-5.32,8.13-7.17,20.1-.93,6-.92,8.06,0,9.18s.81,1.66-.82,2.53c-1.15.62-2.3,2.58-2.67,4.57-.69,3.68-1.84,4.5-2.8,2-.4-1-2-1.5-5.27-1.5-5.1,0-3.52-1.19-23.14,17.5-14.27,13.6-16.14,17.06-15.66,29l.35,8.65-9.71-.33-9.71-.32-.3,2.64c-.22,1.92-.77,2.53-2,2.21-2.18-.55-4.73,5.61-6.19,15l-1.06,6.82,3.9,4.43c2.15,2.44,4.19,5.86,4.54,7.59.82,4.14,2.34,5.85,5.18,5.85s4,1.6,2.62,3.29c-.54.67-1.15,4.13-1.34,7.7-.29,5.54-.09,6.53,1.4,6.82s1.75-.47,1.75-5.24c0-3.06.45-5.57,1-5.57s1,3.32,1,8c0,6.85.28,8.11,1.94,9,3.07,1.64,5.69,1.21,7.42-1.22l1.6-2.25,3.27,3.75c1.8,2.06,4,3.75,5,3.75,2.35,0,3.22,1.8,1.73,3.59-.85,1-2.16,1.3-4.13.87-3.66-.81-5.8.92-5.8,4.69s4,5.61,8.46,4c4-1.46,4.84-.26,3.21,4.43-.94,2.73-2.08,4.09-3.75,4.48-2,.47-2.52,1.4-3.09,5.37-.75,5.22-3.25,8.83-5.81,8.4-.89-.15-3.85.81-6.57,2.13s-5.59,2.69-6.39,3.06c-2.28,1-2.27,2.48.06,5.44,2,2.5,2.59,2.7,6.53,2.11s4.35-.49,4.35,1.58a6.9,6.9,0,0,1-1.59,4c-2.25,2.5-1.22,4.66,5.34,11.14l5.75,5.68,4.29-4.21a79.72,79.72,0,0,0,8.56-10.71c2.69-4.09,5.55-7.13,7.71-8.2,5.45-2.69,6.74-2.08,2.67,1.27-2,1.69-3.73,3.85-3.73,4.79s-2.38,4.62-5.3,8.17-5.89,8.31-6.6,10.56c-1.22,3.8-1.12,4.49,1.38,9.76,3.24,6.86,8.47,12.65,11.42,12.65s3.77,2.61,1.73,4.87a7.09,7.09,0,0,0-1.63,4.12c0,3,5.75,12,7.63,12,.78,0,3.12,1.08,5.21,2.4,3.35,2.11,5,2.41,14.08,2.47,9.35.07,10.6-.15,13.91-2.4a13.82,13.82,0,0,1,8.66-2.48c4.45,0,5.57-.48,10-4.25,4-3.45,5.7-4.24,8.94-4.24,3.43,0,4.31-.48,6.36-3.5s2.28-4.28,1.77-8c-.34-2.47-.86-7-1.15-10.1l-.55-5.6,4.76-2.49c4.09-2.14,5.34-3.6,8.89-10.34,4.13-7.85,8.35-12.31,10.42-11,2.36,1.46,1,5.09-3.66,9.51-5,4.83-9.47,10.41-10.54,13.3a3,3,0,0,1-2.61,1.75c-2.65,0-3.42,1.51-3.34,6.55.08,5.47,1.71,8.45,4.61,8.45,3.31,0,3.75.88,2.07,4.12-1.16,2.25-1.33,4.95-.81,12.62.61,9,1,10.28,4.55,16.25a52.43,52.43,0,0,1,4.92,10.5c.56,2.21,1.72,6,2.58,8.51,2.85,8.22,2.81,8.72-1,12.91a42.74,42.74,0,0,0-4.77,6.25,25.22,25.22,0,0,1-4.8,5.45c-3.1,2.71-3.56,3.68-3.5,7.5.06,4.53,2,12.71,3.46,14.29.47.52,2,.41,3.61-.25,3-1.22,8.41-.32,9,1.48.46,1.4-4.13,3.37-7.84,3.37h-3l.68,9.75c.63,9.19.54,10-1.69,13.23-3.4,5-7,6.81-10.1,5.14-3.75-2-7.17-1.11-7.53,2-.42,3.68,2,5.2,8.36,5.2,5.19,0,5.68.21,8.56,3.85,1.68,2.13,3.67,3.86,4.42,3.86s3-1.14,5.1-2.52a23.51,23.51,0,0,1,6.29-3.09c4.69-1,5.07-1.31,5.07-3.86,0-3.3,3-6.17,7.7-7.45a30.1,30.1,0,0,0,7.5-3.56c4.25-2.9,6-3.13,7.8-1,2,2.43,4.89,1.74,8.31-2s13.32-10.53,15.16-10.5c2.61,0,3.73,1.8,3.08,4.8a8.59,8.59,0,0,0,.49,5.25c.91,1.69.88,2.73-.14,4.62s-1,2.9-.24,4.13c1.57,2.48,4.78,2.13,5.16-.57.34-2.35,1.18-2.62,4.93-1.62a2.74,2.74,0,0,1,2.25,2.66,6.15,6.15,0,0,0,5.58,5.71c2.23,0,8.42-6.53,8.42-8.89,0-.61.68-1.11,1.5-1.11a1.41,1.41,0,0,1,1.5,1.29c0,.72,2.3,4,5.1,7.25,5.65,6.6,8.11,11.49,10.43,20.76,2.36,9.43,3.33,11.31,8.06,15.68s7.66,5,12.46,2.5c2.58-1.33,3-2.07,2.92-5.75a16.63,16.63,0,0,0-1.47-6.73c-.78-1.37-1.44-5.07-1.46-8.21,0-4.6.33-5.92,1.85-6.73,1.22-.65,2.12-2.63,2.58-5.66,1-6.61,1.44-7.4,4.22-7.4,2.18,0,2.4.33,1.88,2.75s0,3.2,4,6.25c3.17,2.39,5.07,4.76,6,7.44,3.65,10.92,8.43,12,22.76,5.11,7.31-3.5,10.62-4.55,14.43-4.55a12.82,12.82,0,0,0,9-2.93,28.58,28.58,0,0,0,4.71-4A3.61,3.61,0,0,1,1834,1331c1.15,0,3.63-1.17,5.51-2.6,3.81-2.91,5.23-2.55,3.4.87-1.23,2.3-1.51,4.68-.94,8.16.24,1.45-1.36,2.92-6.54,6-4.88,2.9-7.4,5.14-8.76,7.8a19.91,19.91,0,0,1-4.76,5.84c-3.58,2.65-6.71,8.22-7.57,13.47-.61,3.71.52,11.87,1.82,13.17.3.3,3.15.6,6.33.67,5.69.12,5.79.17,5.79,3,0,4.12-3,5.82-5.29,3-1.5-1.87-4-2.88-9.15-3.65-1.65-.25-1.88.37-6.08,16.78-1.69,6.6-4,15-5.15,18.66-2.12,6.8-2.07,9.87.27,15.55,1.47,3.59.73,5.22-1.53,3.34-3.68-3-14.72,5.43-19.1,14.68-1.59,3.33-4.12,4.21-6.19,2.15-.83-.83-2.18-.24-5.18,2.25-2.23,1.85-4.07,3.89-4.08,4.53s-2.25,3-5,5.3c-4.06,3.41-16,18.68-16,20.46a13.13,13.13,0,0,0,2.5,3c2.55,2.55,3.27,6.84,1.59,9.49-1.31,2.07-7.35.77-11.65-2.52l-3.6-2.74-3.65,1.93c-2,1.06-6.25,4.57-9.44,7.79l-5.79,5.87-5.41-.68c-5.19-.65-5.55-.54-9.34,2.89-2.17,2-4.48,3.56-5.14,3.56-2.71,0-12,4.67-17.57,8.87a118.08,118.08,0,0,0-21,20.6,48.14,48.14,0,0,1-5.13,6c-1.21.91-5.41,11.51-5.41,13.67,0,.46,1.47,1.47,3.25,2.25,4,1.75,11.75,8.87,11.75,10.8a7.3,7.3,0,0,1-1.41,3.37l-.32.43c-1.11,1.47-1.33,1.31-3.43-.59a15.54,15.54,0,0,0-4-2.69c-1-.36-1.81-1.91-2-3.9-.31-3.24-.43-3.32-6.32-4.06-3.3-.42-6.56-.54-7.25-.28-2.37.89-1.36,5.63,1.84,8.61s3.44,5.19.68,5.73c-2.54.49-8.48-5.43-9.09-9.07-2-11.61-2-11.74,0-11.74a4.22,4.22,0,0,0,4.28-4.2c0-1.22.76-1.8,2.34-1.8a5.57,5.57,0,0,0,3-.66c1.24-1.23-1.57-3.34-4.45-3.34-2.36,0-2.88.43-2.88,2.37s-.76,2.57-4.25,3.5a36.7,36.7,0,0,1-9.25.9,27.5,27.5,0,0,0-6.37.25,1.41,1.41,0,0,1-1.82-.73c-.25-.67,1.18-1.88,3.2-2.73s3.35-2,3-2.54c-1.1-1.78-8.52-1.15-11.51,1a35,35,0,0,1-9.15,3.59c-3.5.88-6.78,2-7.31,2.51a4.38,4.38,0,0,1-2.61.9c-.91,0-3.28,1.29-5.27,2.87a31.28,31.28,0,0,1-6.88,4.08c-9.87,3.66-13.29,6.07-21.39,15-3.72,4.13-7.06,7.73-7.42,8s-.94,2.26-1.28,4.41c-.83,5.24-2,6.29-5.19,4.6-2.3-1.24-2.78-1.13-5.27,1.2a31.26,31.26,0,0,1-6.24,4.3,30.29,30.29,0,0,0-5.27,3.29c-1.28,1.12-3.62,1.51-8.37,1.38-6.7-.19-10.21,1.21-17.65,7l-2.21,1.73,4.25,3.61c4.74,4,5.43,7.05,2.25,9.93-1.33,1.21-2,3.08-2,5.66s.46,3.84,1.32,3.84c2.81,0,9.36-4,10.44-6.36,1-2.16.74-3-1.81-6.56-4.22-5.82-3.57-10.08,1.53-10.08s9.14,7.11,6.64,11.79c-.81,1.52-.73,2.28.33,3.17s1.86.55,3.67-1.9c1.24-1.68,2.87-3.06,3.6-3.06,1.9,0,2.73,2.76,1.35,4.42-.71.86-.79,1.63-.2,2,1.2.74,4.13-.34,4.13-1.53,0-.49,1.34-.89,3-.89,4,0,5.26-2.66,4.65-9.78-.58-6.8-.21-5.88-2.62-6.51-2.64-.69-2.7-5.26-.09-6.66,3.07-1.64,6.19,1.61,6.81,7.11.32,2.83.09,4.84-.6,5.27-2.19,1.35-1.26,5.57,1.45,6.6,4.48,1.7,6.37,1.08,11-3.59,5.37-5.36,7.77-5.5,7.84-.45,0,2.52.55,3.57,1.85,3.83,3.33.65,4.84-1.72,4.13-6.46-.53-3.58-.34-4.45,1.1-5a4.85,4.85,0,0,1,3.7.56c1.62,1,2.3.93,3.87-.5a5.52,5.52,0,0,0,1.9-3c0-.67,1.51-2.37,3.35-3.78,2.81-2.14,3.63-3.74,5.07-9.86.95-4,1.94-8.07,2.19-9s2-2.85,3.92-4.29c3.43-2.61,3.49-2.62,8.66-1.09,5.67,1.69,10.81,5.84,10.81,8.73,0,2.36-2.15,2.3-6.22-.19-4.51-2.74-5.39-2.55-8.17,1.75-3,4.66-4.27,11.45-2.4,13,.72.61,4.69,1.21,8.8,1.35,9,.31,14.94-2.19,18.16-7.65,2.5-4.24,4.31-4.37,6.33-.46a7.38,7.38,0,0,0,8.18,3.82c1.4-.28,1.82-1.28,1.82-4.33,0-4.7,1-6.48,3.46-6.48,2.17,0,3.12,2,2.36,4.9-.81,3.1,0,2.64,5.77-3.08,5.07-5.07,5.28-5.17,10.59-4.92,4.55.21,5.44.08,7.88-2.46.3-.31.63-.67,1-1.06,2.19-2.38,3.45-4.78,3.45-6.52,0-3.46.83-3.94,7.91-4.58,8.42-.77,9.93.35,9.33,6.93-.26,2.91-.87,5.72-1.35,6.24a5.57,5.57,0,0,0-.89,3.2c0,1.46-1,2.7-2.75,3.56-1.63.78-2.75,2.12-2.75,3.3,0,2.92,8.28,2.91,9.9,0a46.76,46.76,0,0,1,3.91-5.34c2.63-3.15,2.76-3.74,2.19-10-.52-5.64-.3-7.15,1.43-9.91,2.43-3.87,5.93-4.29,9.86-1.21,2.27,1.8,3.45,2,9.65,1.38,6-.56,7.41-1.08,9.28-3.29,1.22-1.45,2.23-3.17,2.25-3.83s2.06-1.31,5.27-1.5l5.23-.3.82-4.92c1-5.79,4-10.58,6.81-10.58,3,0,3.14,2,.41,7.42-2.88,5.67-3.16,8.39-.94,9.24,2.65,1,6.11-1.27,6.75-4.47.43-2.18,1.61-3.48,4.39-4.83,5.06-2.48,5.33-5.12,1-9.73-2.52-2.67-4.25-3.63-6.55-3.63-2.7,0-3.14-.36-3.14-2.57,0-2.89,9.62-15.39,11.86-15.42.75,0,2.69,1.12,4.33,2.49,3.64,3.07,3.66,3.07,7.73.07,2.54-1.88,3.82-2.24,5.6-1.56,6.67,2.53,12.07-4.6,5.55-7.34l-3.06-1.29,4.53-3.19a38.59,38.59,0,0,1,5-3.19c.24,0,1.13,1.32,2,2.93,1.85,3.58,4.37,4.47,10.19,3.6,5.55-.83,6.71-3.06,3-5.76-3-2.19-3.36-4-1.17-5.77.83-.68,1.5-2.78,1.5-4.65,0-5,2.39-5.35,6.87-1,2,2,4.37,3.63,5.18,3.63s2.8-1.35,4.45-3c6.92-6.91,12.2-10.84,15-11.16,2.42-.28,3.07-.9,3.49-3.34.45-2.65.94-3,4.21-3.2,4.21-.24,9.71-2.91,14.74-7.16,3.26-2.76,3.39-3.1,2.38-6.39-.7-2.29-.73-4.07-.09-5.22s.41-2.5-1.23-4.72l-2.2-3,2.27-2.42c1.24-1.32,2.71-2.41,3.24-2.41s2.46-1.12,4.26-2.5a12.19,12.19,0,0,1,6.44-2.5,10.79,10.79,0,0,0,5.7-2,9.46,9.46,0,0,1,4.69-2,6.37,6.37,0,0,0,6.58-6.52c0-2.52.59-3.72,2.25-4.59,3-1.56,3.72-2.81,3.74-6.14s1.2-3.4,6.41-1.23l3.65,1.53,1.94-3.28a19.12,19.12,0,0,1,5.06-5.27,20.42,20.42,0,0,0,5.53-6.71c2.75-5.35,4.36-6.47,10.55-7.33a31.32,31.32,0,0,0,6.37-1.51,22.64,22.64,0,0,1,6-1.17c3.25-.23,4.06-.69,4.31-2.46.54-3.77,2.9-4.93,6.14-3,2.68,1.58,3,1.56,5.46-.41,3.35-2.64,6.59-9.31,6.59-13.57,0-2.69-.46-3.41-2.52-3.93-3.55-.88-1.44-3.22,3.64-4,4.78-.77,5.19-1.27,7.93-9.76,3.76-11.65,5.19-13.57,10.22-13.59,1.53,0,4.68-1.24,7-2.74s5.58-3.45,7.23-4.35a12.24,12.24,0,0,0,4.42-4.54c.77-1.59,1.79-3.67,2.25-4.63a19.49,19.49,0,0,0,.83-6.21c0-4-.35-4.72-3.73-7-2-1.4-4.36-2.54-5.13-2.54s-3-1.69-4.94-3.75l-3.54-3.75h-11c-10.46,0-11-.1-11.8-2.25-.46-1.24-1.3-2.25-1.86-2.25-1.94,0-1-2.26,2.46-6.13,1.93-2.13,3.5-4.67,3.5-5.65a8,8,0,0,1,1.36-3.75,17.05,17.05,0,0,0,2-4.67c.5-2,1.56-3,4.27-3.71a15.18,15.18,0,0,0,5.25-2.55c.89-.86,2.74-2.41,4.1-3.44,2.28-1.73,2.37-2.09,1.1-4.46-1.7-3.17-.13-5.64,3.58-5.64,2.81,0,4.09-2.4,2.38-4.45a6.65,6.65,0,0,1-.86-4.24c.25-2.13.93-2.89,2.82-3.14a7.64,7.64,0,0,0,3.45-1.25c2.14-2.06,3.55-.87,3.55,3,0,3.61.23,3.92,3.25,4.38,3.94.6,6.1-.4,11-5.09s5.06-8.29.75-10.84c-1.66-1-2.87-2.22-2.69-2.76s3.36-1.55,7.07-2.23c8.23-1.52,13.85-5.92,19.94-15.6,1.56-2.47,1.58-3,.23-5-.88-1.35-3.35-2.79-6-3.5s-4.53-1.78-4.53-2.72c0-1.18,1.37-1.5,6.4-1.5h6.39l5.11-7.54c4.57-6.73,5.05-7.94,4.51-11.32-.59-3.68-.4-4,6-9.59,4.61-4,6.6-6.5,6.6-8.14,0-2.71,2.62-4.41,6.82-4.41,4,0,5.42-2.07,5.12-7.72-.15-2.63-.19-5.76-.1-7,.24-3.23,5.05-7.49,13.32-11.84a48.87,48.87,0,0,0,13.23-10.17c3.24-3.48,6.68-6.32,7.63-6.32a4.44,4.44,0,0,0,3-1.5,4.12,4.12,0,0,1,2.49-1.5c1.8,0,6.52-9.65,6.51-13.34,0-12,3.31-23.83,6.15-22.07,1.14.7,1.09,4.77-.06,6-.51.52-1.17,3.88-1.48,7.45s-.83,9-1.16,12c-.76,7,1,8.86,8.7,9.65,7.06.73,14.33-2.53,17.08-7.67a25.85,25.85,0,0,1,4.82-6.07c1.63-1.42,2.95-3,2.95-3.55,0-2.1,7.76-8.27,12.29-9.78,5.25-1.76,11.71-2.13,11.71-.68,0,.51-1.46,1.21-3.25,1.56a34.05,34.05,0,0,0-5.25,1.47,62,62,0,0,1-6,1.91c-3.52,1-4.32,1.78-6.77,6.86a37.7,37.7,0,0,0-2.75,6.78c0,1.45-6.07,6.1-10.34,7.88-2,.84-3.94,2.26-4.28,3.15-.45,1.16-1.34,1.44-3.12,1-4.58-1.15-9.93,6.51-5.68,8.14.9.34,2.61-.4,4.07-1.78,2.33-2.19,2.6-2.23,3.5-.62a3.3,3.3,0,0,0,2.17,1.76,9.66,9.66,0,0,1,3.7,2,9.19,9.19,0,0,0,4.08,2c.87,0,2.63,1.15,3.92,2.52s3.06,2.5,3.93,2.5c2,0,8.49,3.92,7.73,4.68-.32.32-2.82-.16-5.55-1-6.77-2.21-9.2-2.06-13.51.87a22.79,22.79,0,0,1-4.25,2.5c-.86,0-8.65-6.26-10.39-8.35-1.3-1.57-2.1-1.7-5.13-.87-3.41,1-18.83,11.71-18.83,13.15,0,.37-1.52,2.34-3.38,4.38-2.8,3.05-4.06,3.69-7.31,3.69-5.71,0-13.14,6-13.27,10.76,0,.69,1.09,3.58,2.46,6.43,2.86,5.91,3.07,9.6.89,15.31-.84,2.2-2.58,8-3.87,12.82-2.38,9-5.18,14.07-10.53,19.2-1.64,1.57-3,3.56-3,4.42s-1.13,3.52-2.5,5.91a19.48,19.48,0,0,0-2.49,7.79c0,5.3,4.17,12.45,9.11,15.61,5.35,3.43,8.84,3.5,11.89.25,1.3-1.37,2.74-2.5,3.22-2.5s3.6-2.27,6.94-5,6.29-4.84,6.56-4.57-1.06,2.88-2.94,5.8-4.19,6.56-5.12,8.07-2.56,2.75-3.61,2.75c-2.19,0-6.05,4.45-6.05,7,0,3.38-3.52,5.32-8.37,4.59-2.74-.41-4.7-.26-5.1.38a3.78,3.78,0,0,1-2.88,1c-2.71,0-4.65,1.75-4.65,4.2a1.65,1.65,0,0,1-1.42,1.8c-4.5,0-6.1,7.33-2.33,10.59,4.43,3.82,8.7,6.41,10.59,6.41a4.68,4.68,0,0,1,3.16,1.5c1.88,2.26,3.27,1.85,7.06-2.06,3.34-3.46,3.64-3.56,9.92-3.25,5.51.26,6.52,0,6.82-1.44.24-1.22-.28-1.75-1.72-1.75-1.14,0-2.08-.65-2.08-1.44,0-1.08.92-1.31,3.75-.91,5.62.78,6.07,1,6.43,3.54.49,3.48,2.85,2.77,4.25-1.28,1.57-4.58,6.37-10.91,8.27-10.91.8,0,2.82-1.36,4.49-3,2.76-2.76,3-3.43,2.36-7.5-.43-2.91-.3-4.47.39-4.47s1.06,1.07,1.06,2.38c0,2.69,2.65,5.43,3.9,4a23.37,23.37,0,0,0,2.09-5.66c.8-3,1.83-4.75,2.77-4.75,1.2,0,1.37.83.84,4.11-.72,4.52.48,6.89,3.49,6.89,2.09,0,6.91-7.5,6.91-10.77a2.25,2.25,0,0,1,2.25-2.41c1.66-.23,2.61-1.43,3.58-4.51.92-2.92,1.76-4,2.75-3.64a2.75,2.75,0,0,1,1.42,2.47c0,1.9,2.55,3.65,3.67,2.53.32-.32.56-4.23.55-8.68,0-5.72.3-8,1.12-7.71.65.21,1.3,2.89,1.47,6.1.21,4,.76,5.9,1.82,6.31,2.67,1,4.19-2,5.17-10.19,1-8.4,3.72-14.77,6.54-15.32,1.35-.27,1.66.51,1.66,4.19,0,2.48.48,4.81,1.07,5.17,2.08,1.28,4.83-2.63,5.13-7.32.35-5.19,2.31-6.65,3.77-2.8,1,2.63,3.63,3.28,11.25,2.76,2-.13,3.32.63,4.94,2.81,2.12,2.87,2.28,2.92,4.14,1.25a12.8,12.8,0,0,0,2.84-4.1c.75-2,1.15-2.15,2.41-1.11,1.81,1.51,2.36,1,4.95-4.36,3.15-6.56,6.42-4.92,4.11,2.07-.59,1.82-.23,2.47,1.88,3.44s3.13.89,5.58-.56c1.63-1,3.76-1.49,4.75-1.18,1.2.38,2.88-.56,5.12-2.87,3.74-3.86,3.59-6.57-.38-6.57-2.23,0-2.44-.32-1.93-2.89,1.15-5.73-4.76-8.28-16.6-7.19-2.43.22-2.44.2-.59-1.85a6.08,6.08,0,0,1,3.24-2.07c.76,0,1.81-1.15,2.34-2.55,1.15-3,6.95-10.45,8.15-10.45.46,0,.83,2.22.83,4.94s.45,5.22,1,5.56a3.82,3.82,0,0,1,1,2.86,4.3,4.3,0,0,0,4.58,4.64c2.91,0,4-1.62,4.94-7a19.76,19.76,0,0,1,2.11-6.47c1.77-2.54,1.77-7,0-8.43-.92-.76-1.23-2.53-.92-5.37s0-4.87-1.1-6.23c-1.52-2-1.64-1.91-5,2-2,2.33-3.51,5.1-3.53,6.63a5.76,5.76,0,0,1-1.54,3.87c-1.29,1.08-1.5.6-1.5-3.57,0-3.87-.53-5.37-2.68-7.62-2.88-3-5.19-3.53-7.1-1.63-2.51,2.51-2.33-.26.21-3.28,2-2.41,2.61-4,2.38-6.79-.28-3.32-.59-3.64-3.76-3.94-2.42-.23-3.84.2-4.74,1.43-1.71,2.34-2.08,1.77-2.42-3.82-.22-3.74.17-5.21,1.92-7.07,1.21-1.28,2.19-2.84,2.19-3.45s1.19-2.51,2.63-4.22c2.1-2.5,2.51-3.81,2.06-6.58-.48-3-.27-3.46,1.38-3.46s1.93-.72,1.93-5c0-4,.71-6.08,3.57-10.56,4-6.18,6.7-7,7.26-2.08.24,2.06-.48,3.74-2.56,6-3.54,3.83-5.27,7.72-5.27,11.85,0,2-1.33,5.08-3.56,8.31-3.09,4.48-3.52,5.82-3.25,10.07s.57,4.93,2.85,5.2c1.68.19,3.33-.56,4.92-2.25a7.41,7.41,0,0,1,5.72-2.55c2.53,0,3.32-.43,3.32-1.8a4.73,4.73,0,0,0-1.09-2.9c-.8-.8-.32-1.47,1.75-2.46,2.5-1.19,2.88-2,3.11-6.35.35-6.67,1-9.49,2.37-9.49.7,0,.86,1.24.43,3.51-.59,3.12-.38,3.61,1.89,4.47a3.44,3.44,0,0,1,2.54,3,2.61,2.61,0,0,0,4.4,2.08,8.07,8.07,0,0,0,1.93-3.95c.53-2.66.85-2.82,5.55-2.72,2.74.06,5.31.44,5.72.84,1.71,1.71,4.43.45,9.21-4.26,2.79-2.75,5.36-4.54,5.7-4s0,1.25-.78,1.54c-2,.76-2,9,0,10.61a10,10,0,0,1,2.38,3.55c.7,1.82,1.65,2.3,4.65,2.32l3.77,0-4.26,3.72c-6.3,5.5-5.18,9.66,2.43,9,3-.25,4.22-1,5.82-3.53,1.11-1.77,2.35-3.23,2.76-3.25,1.62-.08,4.62,4,4.93,6.63.45,3.86,3.34,4.17,6.91.75,1.59-1.53,3-2.58,3.17-2.35,1.05,1.59,2.59,7.38,2.15,8.08-.29.47-1.64.85-3,.85a7.93,7.93,0,0,0-4.81,2.5c-1.27,1.38-3.29,2.5-4.48,2.5-2.63,0-3.78,2.48-2.09,4.51,1.94,2.35,4.74,1.77,9.69-2,5.82-4.44,7.38-4.5,7.05-.25l-.26,3.25,6.22-.29c6.07-.28,6.3-.19,10.25,3.75,3.46,3.46,4.65,4,8.31,4,5.8,0,7.56-1.48,13.2-11.18,5-8.58,7.33-11.82,8.52-11.82.38,0,1.25,1.91,2,4.25,2.13,7.16,2.95,8.75,4.53,8.75,2.7,0,1.62,1.82-1.48,2.5-3.29.72-5,3-5,6.78,0,1.72,1.75,3.89,6.1,7.56,3.36,2.84,6.49,4.92,7,4.62s2.22.15,3.86,1c4.38,2.27,7.76,2,9.63-.9,2.23-3.41,1.53-6.84-1.56-7.56-3.29-.77-3.9-4.45-1-6,1.69-.91,2.65-.8,4.69.54,2.43,1.59,2.53,2,2.07,8.54s-.34,7,1.93,8.46c2.87,1.88,2.58,3.69-.7,4.46s-3.59,2.77-.51,4.18c3.77,1.71,20.7-.5,27.15-3.55,2.68-1.27,9.36-3.11,14.86-4.11s10.45-2.15,11-2.57c2.86-2.17,13.09-4.15,17.92-3.47,2.8.4,6.46.83,8.15,1a12.36,12.36,0,0,1,4.3,1c.69.42,5.1.23,9.8-.44,8.17-1.16,8.66-1.12,11.19.92,5.34,4.3,6.67,4.56,10.69,2.08a14.65,14.65,0,0,0,5.05-5.56c1.69-4,5.18-5.44,7.08-2.85,2,2.74,1.62,4.78-1.65,8.9-2.33,2.93-2.76,4.15-2,5.58,1.34,2.5,2.93,3.41,6.47,3.69,9.33.75,14.17,1.6,15.5,2.71,3.84,3.2,17.14,5.76,18.5,3.55.34-.55,3.31-1,6.58-1,6.83,0,10.53-1.9,17.92-9.17,6.06-6,8.43-10.24,9.94-17.9a45,45,0,0,1,2.2-8.18c1.66-3.1,5-2,10,3.26,2.95,3.13,5.86,5.23,7.82,5.62,4.39.88,4.72,2.09,1.51,5.45s-4.43,3.67-4.43,1.11c0-1-1.46-3.2-3.25-4.88a45.56,45.56,0,0,1-4.91-5.43c-2.51-3.6-3.88-1.34-4.55,7.5-.48,6.39-.29,8,1.16,9.56,1.78,2,1.78,5,0,18.32-.59,4.41-.41,5,2.48,7.66,2,1.85,6.28,3.92,11.85,5.68,4.8,1.53,9.48,3.4,10.39,4.16s3.52,1.51,5.81,1.67,4.67.81,5.3,1.44a5.66,5.66,0,0,0,3.45,1.13c2.71,0,5.28,1.34,10.78,5.6a18.28,18.28,0,0,0,9.39,3.8c6.95.91,13.19,4.16,20.36,10.6,4.36,3.9,5.75,5.83,5.75,7.91,0,3.51,3.29,6.54,8.86,8.18a29.81,29.81,0,0,1,9.18,5.63,28.34,28.34,0,0,0,9.74,5.81c2.69.8,5.72,2.36,6.72,3.46a6.32,6.32,0,0,0,4,2,8,8,0,0,1,4.09,1.47c1.09.82,4.15,1.48,6.94,1.5,6.23,0,13.77,3.69,17.82,8.6,3.14,3.81,6.15,4.26,8.05,1.22.86-1.37.53-2.29-1.62-4.54l-2.71-2.82,5.93,0c8,0,9.56-1.55,5.07-5.3-2-1.68-3.08-3.29-2.64-4,1.07-1.74,2.11-1.47,5.55,1.42s6,2.77,10.39-.65c3.82-3,3.33-5.37-2.34-11.36-2.75-2.9-5-6.17-5-7.25s-1.32-3.23-2.93-4.78c-3.51-3.36-7.48-2.95-9.26,1-.62,1.36-1.73,2.47-2.47,2.47-2,0-1.61-1.78.66-3,4.36-2.33,1.56-5.79-5.76-7.13-3.16-.57-5.23-1.61-6.24-3.11-3.68-5.53-6-6.76-12.62-6.76-5.93,0-6.38.16-7,2.5-.35,1.38-1.26,2.5-2,2.5-2.11,0-1.67-3.81.6-5.23a4.73,4.73,0,0,0,2-4c0-1.52.26-2.76.58-2.76a32.7,32.7,0,0,1,5,2.6c5.86,3.44,7.81,2.71,6.91-2.6-.77-4.57,1-5.59,2.5-1.5a3.45,3.45,0,0,0,3,2.5c1.11,0,2,.53,2,1.19,0,2.31,4.34,5.81,7.2,5.81,2.12,0,3.1.64,3.8,2.5,1.42,3.72,6.05,3.42,9.45-.61,3.13-3.73,2.75-5.88-1.94-10.89a16.13,16.13,0,0,1-3.95-7.35c-.85-4.79.92-4.62,3.58.35,2.93,5.45,4.54,6.68,6.87,5.23,2.07-1.29,6.24-1.65,7.27-.63.33.34-1.17,2.45-3.34,4.71-5.42,5.64-5.17,7.71,2,16.1,4.61,5.43,6,7.8,6.34,11.06a26.93,26.93,0,0,0,1.87,7.09c1.17,2.45,2.15,3,5.85,3.44s4.55.9,5,3c.43,1.83,1.24,2.5,3,2.5s2.67-.72,3.41-3.25c.79-2.68,1.46-3.25,3.8-3.25s3.12.66,4.31,3.5c.8,1.93,2.08,3.5,2.83,3.5a4.23,4.23,0,0,1,2.64,1.55c.94,1.13,2.78,1.46,6.87,1.25,5.28-.28,5.58-.44,5.42-2.8-.32-4.49-1.59-8.45-3.47-10.88a9.22,9.22,0,0,1-1.86-4.63,5.11,5.11,0,0,0-1.5-3.49,4,4,0,0,1-1.5-2.4A9.55,9.55,0,0,0,2832,1275a7.85,7.85,0,0,1-1.44-4.61c.18-1.37-1.36-4.09-4.26-7.51a72.39,72.39,0,0,1-7.19-10.36,52.62,52.62,0,0,0-5.52-8.28c-1.57-1.81-2.87-4.31-2.87-5.57s-1.35-3.57-3-5.15-3-3.41-3-4.06a3.87,3.87,0,0,0-1.44-2.39c-2-1.67-5.76-13.38-5.38-16.76.5-4.32,4-3.81,4.95.71.52,2.62,2.49,5.14,7.8,10,6.66,6.1,7.1,6.76,7.09,10.73,0,3.8,2.95,15.42,4.92,19.27a4.85,4.85,0,0,0,3.42,1.82c2.1.25,2.86-.24,3.68-2.42,1.53-4,2.88-1.84,3.42,5.5l.46,6.3,10,9.81,9.94,9.81,6.85.65a38.94,38.94,0,0,1,18.59,6.75c5.07,3.52,6.1.26,2.66-8.43-1.6-4.06-1.93-6.44-1.44-10.22.7-5.27,3.76-10.57,6.1-10.57,1.63,0,2,2.57.43,3.5-.59.37-1,6.86-1,16.1v15.49l4.64,5c3.67,3.92,5.3,5,7.8,5,3.77,0,5.56-1.54,5.56-4.77,0-1.88.46-2.3,2.25-2s2.25,1,2.25,3.28-.52,3.07-2.5,3.54-2.57,1.31-2.81,3.85.48,4.26,3.4,7.83c3.49,4.24,4,4.51,7.57,4,4.61-.62,5.8.69,2.83,3.1-1.87,1.52-2.08,2.38-1.5,6.23a18.32,18.32,0,0,0,3,7.32c2,2.47,2.57,2.7,4.44,1.7,2.41-1.29,4.1-.67,4.1,1.53,0,.8,1.37,2.92,3,4.69a33.17,33.17,0,0,1,4.75,6.72c1.34,2.71,2.42,3.57,4.81,3.8,1.88.19,3.59-.3,4.37-1.25,1.38-1.66,3-2.06,3-.73,0,1-6.5,4.18-8.53,4.18s-5.47,3.69-5.47,6.1c0,5.87,12.73,12.27,16.9,8.5,2.3-2.08,3.81-2,5,.2.53,1,3.24,2.42,6,3.18,4.37,1.19,5.07,1.73,5.07,3.87,0,2.73,2.56,6.15,4.6,6.15.71,0,3.36,1.8,5.9,4,5.18,4.48,8.52,5,13.38,2.26,2.45-1.41,3.28-1.5,4.31-.48s1,1.66,0,3.29c-1.91,3-.56,4.11,4.28,3.38,5.28-.79,5.91.07,4.34,5.94-1.07,4-1,4.75.65,6.57,2,2.19,7.08,5,9,5,1.68,0,12.52,5.93,15.85,8.67,2.26,1.86,4,2.33,8.77,2.33,3.26,0,6.81-.54,7.87-1.21,3.22-2,3.41-.15.38,3.66-2.67,3.36-3.11,3.55-7.07,3s-4.32-.41-5.41,2c-.93,2-.92,3.67,0,7.36a41.84,41.84,0,0,1,1,10.24c-.31,7.18-.24,8.72.59,13.51.58,3.33.34,4.32-1.41,5.9-4.62,4.19-.91,17,5.53,19.09a17.62,17.62,0,0,1,4.71,2.36,3.7,3.7,0,0,0,3.26.74c1.31-.5,1.5-1.48,1-4.93s-.25-4.82,1.42-6.93c2-2.55,2-2.82.46-9.43a53.48,53.48,0,0,0-3-9.42c-1.33-2.47-1.17-2.9,2.85-8,6.53-8.26,10.31-11.89,12.4-11.89,1.05,0,3.43-1.57,5.29-3.5,4-4.09,6-4.46,6-1.1,0,1.69,1,3,3.34,4.25,3.54,2,15.66,14.6,15.66,16.33,0,2.18-2.57.83-7.1-3.73-6.2-6.24-13.36-12.25-14.6-12.25-2.31,0-9.38,6.26-10.73,9.5-1,2.44-2.11,3.5-3.58,3.5-3,0-6,1.8-6,3.58,0,.84,1.18,2.61,2.62,3.94s2.38,3,2,4a6.15,6.15,0,0,0,.29,3.77c2.41,6.16,3.26,13.3,2.09,17.63s-1.07,4.47,1.9,7.54c1.69,1.74,3.07,3.45,3.07,3.81s-1.91.55-4.25.45c-3.87-.17-4.27,0-4.54,2.36q-.3,2.57,2.49,5.5a59.37,59.37,0,0,1,5.52,7.2c1.65,2.55,3.5,4.25,4.65,4.25,1.64,0,2-1,2.6-7.51.56-5.92,1.11-7.73,2.62-8.54,2.17-1.16,2.71-7.75.8-9.66a2,2,0,0,1-.39-2.28c.5-.81,1.41-.5,3,1,3.1,2.91,4.46,1.79,4.46-3.66,0-3.77.29-4.46,1.75-4.16s1.74,1.34,1.7,5-.68,5.32-3.25,8.25c-3.36,3.82-3.75,5.14-2.25,7.51a1.71,1.71,0,0,1-.43,2.5c-.93.73-1.45,4.3-1.68,11.56l-.34,10.5,2.69.31c2,.23,3.13-.36,4.33-2.19a6.73,6.73,0,0,1,4.31-2.81c2.44-.28,2.7-.73,3-5.2s0-5.22-3.43-8.73c-3.66-3.75-3.7-3.87-1.91-5.85,2.31-2.56,3.71-2.56,5.29,0a4,4,0,0,0,7.26-.56c1.29-3.41,1.27-27.14,0-27.94-.55-.34-1-2.23-1-4.19a31.27,31.27,0,0,0-1.16-7.45c-1.28-4.29-.94-5.22,1.56-4.26,3.19,1.22,5.92,8.38,5.71,14.94-.16,4.86.25,6.7,2.13,9.5,2.84,4.21,6.13,4.91,9.26,2,1.7-1.6,2.49-1.84,3.06-.92s-.66,2.46-3.15,4.61l-7.07,6.11c-4.06,3.53-5.4,9.36-2.8,12.23,1.91,2.11,5,2.59,6,.94,1.36-2.21,2.26.25,1.32,3.65-1.31,4.74-.5,7.72,3.9,14.37,4.67,7.06,8.27,11,10,11,1.61,0,9.06-7.41,13.19-13.12a22.83,22.83,0,0,0,3.49-8.44c.38-2.52,1.52-5.42,2.55-6.44,1.58-1.59,1.95-4.2,2.55-18.18l.7-16.32ZM1600.74,631c-2.2,0-4-.45-4-1s1.8-1,4-1,4,.45,4,1S1602.94,631,1600.74,631Zm-87.49,447a6.18,6.18,0,0,1-2.73,2c-1.48,0-.43-3.19,1.43-4.36C1514.46,1074.09,1515.35,1075.7,1513.25,1078Zm64.49,59c-.82.43-3.45,1.73-5.84,2.9-6.83,3.34-7.44,2.89-6.61-4.82.54-5,.35-5.82-2-8.27-2-2.14-3.06-2.54-4.82-1.89a4.28,4.28,0,0,0-2.59,3.21c-.47,3.31-3,5.89-5.81,5.89-2.11,0-2.35-.45-2.35-4.47s-.31-4.64-3.25-6.14c-5.12-2.63-10.2-7.49-10.75-10.31a3.18,3.18,0,0,0-3-2.92c-2.76-.39-5-1.89-5-3.36,0-1.26,5.82,0,8.74,2a4.94,4.94,0,0,1,2.26,4.31c0,3.6,1.4,4.43,5,3,2.39-1,3.46-.85,6.9.9a21.31,21.31,0,0,0,8.7,2.08c3.92,0,5.1-.49,7.58-3.15,2.7-2.89,3.14-3,5.4-1.83,3.2,1.71,3.18,4,0,4-3.4,0-3.1,1.19.78,3C1576.23,1123.57,1581.16,1135.27,1577.74,1137Zm164-798.87c0-.53,2.24-3.36,5-6.29,5.57-6,7.28-4.44,1.9,1.68C1745.2,337.42,1741.74,339.73,1741.74,338.14ZM1784,1310a14.31,14.31,0,0,0-5.81,3.15c-2.17,2.41-5.42,4.34-5.42,3.23a7.73,7.73,0,0,1,1.93-2.78c1.07-1.12,3.1-3.31,4.52-4.85,1.84-2,3.36-2.73,5.25-2.5C1788.59,1306.71,1788.33,1308.8,1784,1310Zm10-656.36c-2.06-.35-6.79-.9-10.5-1.22-6.21-.54-7-.37-10.19,2-1.88,1.43-4.69,2.58-6.24,2.56-3,0-8.53-4.21-9.63-7.23a4.56,4.56,0,0,0-2.41-2.42,21,21,0,0,1-4.39-2.73,48.56,48.56,0,0,0-4.36-3.1c-1.62-1-1.59-1.26.47-4.75s2.37-3.73,7.85-3.69c3.11,0,6.78.68,8.15,1.46,2.89,1.65,9.23,1.94,11.77.55,2.34-1.29,12.69-3.22,18.23-3.4,4.18-.14,4.5,0,4.5,2.35,0,1.83-.6,2.59-2.25,2.82a5.12,5.12,0,0,0-3.34,2.36c-.94,1.76-.59,2.47,2.5,5,2.89,2.39,3.59,3.66,3.59,6.5C1797.74,654.25,1797.74,654.25,1794,653.61ZM1834.24,303c-.34.55-.81,1-1,1s-.45-.45-.45-1a1,1,0,0,1,1.06-1C1834.39,302,1834.58,302.48,1834.24,303Zm-53.5,1224c-2,1.27-3.28,1.27-2.5,0a2.93,2.93,0,0,1,2.31-1C1782,1526.06,1782,1526.2,1780.74,1527Zm25.06-79a2.16,2.16,0,0,1-1.56-1c-.34-.55.09-1,1-1s1.55.45,1.55,1A1,1,0,0,1,1805.8,1448Zm76.1-20.48c-1.31,4.9-3.49,4.42-4.35-1-.31-1.92-8.11-5.46-16.81-7.61-8.13-2-15-7.38-15-11.72,0-3.88,12-4.57,19.88-1.13A27,27,0,0,0,1871,1408a5.28,5.28,0,0,1,2.62,1.5c.87.82,3,2.6,4.69,4C1881.78,1416.22,1883.31,1422.28,1881.9,1427.55Zm84.71-166c-5.87,1-15.87,6.29-15.87,8.4a6,6,0,0,1-2,3.58,6.1,6.1,0,0,0-2,3.68c0,2.53-3,3.49-14.14,4.59-7.82.76-10.18,1.42-13.82,3.83-4,2.62-5.34,2.93-14.21,3.24l-9.83.35v-3.54c0-1.94.45-3.81,1-4.15a3.13,3.13,0,0,0,1-2.42c0-2.29,9.06-10.84,12.17-11.49,1.28-.26,6.83-.66,12.33-.88,11.5-.45,14.59-1.66,19.81-7.75,3.27-3.82,3.94-4.14,9.85-4.65,12-1,21.71-.85,23,.43C1975.77,1256.66,1971.38,1260.75,1966.61,1261.55Zm42.59-957.61c-1.53-2.95-1.4-5.94.26-5.88.75,0,4.28,6.88,4.28,8.3C2013.74,308.3,2010.58,306.62,2009.2,303.94Zm27.89.41a4.55,4.55,0,0,1-2.61.68,16.39,16.39,0,0,0-5.08,1.42,27.92,27.92,0,0,1-6.5,1.84c-2.94.38-3.61,0-5.63-3.17-3.08-4.82-4-11.08-1.71-11.1a18.44,18.44,0,0,0,3.77-.58c1.38-.37,3.13.32,5.14,2,1.69,1.41,4.15,2.57,5.48,2.57C2032.48,298,2038.28,303.17,2037.09,304.35Zm68.73,23.9c-2.88,7.32-4,9.27-4,7.05a23.73,23.73,0,0,0-1.66-6.29c-1.82-4.56-.95-6.67,1.34-3.25,1.19,1.77,1.89,2,3.38,1.22C2106.51,326.09,2106.62,326.23,2105.82,328.25Zm3-5.11c-1.54,1.85-2,2-2,.77,0-1.72,2.66-4.52,3.51-3.66C2110.57,320.52,2109.9,321.82,2108.8,323.14Zm70.94,9.89c.59-1.1,1.53-2,2.08-2s.61.71-.08,2c-.58,1.1-1.52,2-2.07,2S2179.06,334.32,2179.74,333Zm1.25,12.49c-5.91,4.65-7.25,5.28-7.25,3.46,0-2.38,3.18-7,4.84-7a7.47,7.47,0,0,0,3.72-1.47,7.61,7.61,0,0,1,3.19-1.5C2188.07,339,2186.57,341.14,2181,345.52ZM2116.24,1254a2.18,2.18,0,0,1-1.61,1c-.55,0-.73-.45-.39-1a2.19,2.19,0,0,1,1.62-1C2116.41,1253,2116.58,1253.48,2116.24,1254Zm108.45-34c-.59,0-.79-.45-.45-1s.82-1,1.06-1,.44.45.44,1A1,1,0,0,1,2224.69,1220Zm5.85-29.19c-.24,1.24-1.4,1.7-4.35,1.73a22.05,22.05,0,0,0-8.27,2.25c-5.13,2.67-5.18,2.68-5.18.37,0-3.64,3.6-5.51,11.1-5.78C2230,1189.19,2230.83,1189.37,2230.54,1190.84Zm-2.16-45.43c-1.35.34-3.17.89-4,1.22s-1.6.19-1.6-.34c0-1.67,3.79-4.45,5.6-4.1C2231.06,1142.72,2231.09,1144.73,2228.38,1145.41ZM2307,1157c-2.14,0-2.41-.23-1.25-1,2-1.26,4-1.26,4,0C2309.74,1156.58,2308.51,1157,2307,1157Zm31.89,18.94c-2.63,1.41-2.35,1.5-5.63-1.92-3-3.18-2.71-5.24.53-3.22a7.9,7.9,0,0,0,3.33,1.21,4,4,0,0,1,2.58,1.43C2340.63,1174.6,2340.47,1175.11,2338.88,1176ZM2622.74,1218c-.55,0-1-1.57-1-3.5s.45-3.5,1-3.5,1,1.58,1,3.5S2623.29,1218,2622.74,1218Zm302.2,107.8c-1.87-1.87-1.42-2.8,1.37-2.8,3,0,6.43,1.63,6.43,3S2926.37,1327.26,2924.94,1325.83ZM1570.27,1644c-1.21,1-1.29,1.6-.37,2.7s1.39,1.2,2.72-.12C1574.76,1644.44,1572.61,1642.07,1570.27,1644Zm-33.68,4c-1.57,0-2.12,3-.83,4.51,1.57,1.91,2.89,1.9,3.63,0C1540,1651,1538.17,1648,1536.59,1648Zm154.47-11c-2,0-3,1.45-5.77,8.37-1.63,4.08-2,7.85-.88,9s3,.68,5.18-1.67c1.62-1.72,2.36-4.1,2.82-9C1693,1637.52,1692.89,1637,1691.06,1637Zm-123.15,17.83c-.27,1.94.07,2.28,2,2,1.56-.22,2.33-1,2.33-2.33C1572.24,1651.55,1568.34,1651.85,1567.91,1654.86Zm-20.82-12.37c-4.13.78-5.23,2.91-2.85,5.54a4.53,4.53,0,0,1,1.09,4.51,6.28,6.28,0,0,0-.06,3.54c2.31,3.73,8.38-3.12,8.77-9.89C1554.27,1642.12,1552.92,1641.4,1547.09,1642.49Zm153.71,10.1c-2.25-2.4-2.52-2.45-4.23-.9s-2.53,7.3-1.12,8.72,4.77,0,6.24-2.58S1703,1655,1700.8,1652.59ZM1676.93,1641a12.43,12.43,0,0,1-1.19-5.42c0-4.22-2-4.68-4.4-1-.9,1.38-2.47,2.5-3.49,2.5s-3.76,2.07-6.08,4.59c-3.6,3.91-4.15,5.05-3.64,7.6s0,3.74-2.89,7.09c-3.45,4-4.14,5.75-2.83,7,1,1.05,1.88.82,4.48-1.23a12.26,12.26,0,0,1,4.83-2.25c1.76-.26,2.63-1.23,3.25-3.64a5.81,5.81,0,0,1,3.24-4.19,4.41,4.41,0,0,0,2.71-3.22,2.84,2.84,0,0,1,2.5-2.61C1676.76,1645.75,1678.39,1643.3,1676.93,1641ZM543.67,1660.2c-1.81-.57-10.56-9.62-14.18-14.66a12.77,12.77,0,0,1-2.75-8.29c0-4.17-.45-4.92-7-11.59-5.92-6.06-7.23-7-8.75-6-3,1.84-2.79,6,.4,9.17a42.3,42.3,0,0,0,5.1,4.24c1.65,1.08,2.5,2.94,3.1,6.75.45,2.89,1.49,6,2.3,7a21.47,21.47,0,0,1,2.76,5,13.53,13.53,0,0,0,2.66,4.37,4.49,4.49,0,0,1,1.39,3.06,2.7,2.7,0,0,0,1.75,2.45,19.44,19.44,0,0,1,3.25,1.41,16.26,16.26,0,0,0,5.79.93c3.13,0,4.45-.39,4.93-1.63C544.85,1661.3,544.55,1660.48,543.67,1660.2Zm1158.62,5.18a4,4,0,0,0-2.18,5.15c1,2.63,4.35,1.78,4.94-1.25C1705.68,1666.09,1704.56,1664.51,1702.29,1665.38Zm-1056.26,0c-1.27-3.8-5.11-3.91-7.19-.21-1.32,2.36-1.3,2.9.24,5.25C642.56,1675.73,648.13,1671.69,646,1665.38ZM1677.44,1670c-1.79,0-3.93,2.43-3,3.38a2.84,2.84,0,0,0,2.23.39C1678.69,1673.42,1679.36,1670,1677.44,1670Zm-178.26-17.11c-1.88.68-3.82,1-4.3.69-1.69-1-2.13-6.89-1-13.12,1-5.35.92-6.78-.45-9.67-2-4.21-4.12-6-9.06-7.68-5.48-1.87-14.09-.62-19.26,2.77-6.34,4.18-11.87,5.73-14.8,4.17-1.32-.71-2.85-1-3.41-.66s-2.14.2-3.52-.33c-3.22-1.22-7.22,1.67-8.14,5.89-1,4.45-7.74,11.48-13,13.48-2.52,1-4.56,2.39-4.56,3.19a9.06,9.06,0,0,1-1.38,3.67c-.76,1.21-1.63,4.55-1.94,7.42-.82,7.52,1,9.39,9.91,10.34,11.83,1.26,15.35.46,19.64-4.51,5.09-5.88,13-9.92,18.74-9.64,2.46.12,4.93.58,5.5,1,1.23,1,13.92,3.67,21.13,4.51,4.25.49,5.55.23,7.8-1.54,2.56-2,2.8-2,4.59-.41,2.67,2.41,4,1.09,4-3.93C1505.74,1652.84,1503.87,1651.22,1499.18,1652.92Zm189,20.63c-1.5-1.49-1.77-1.48-3.5.09s-2.53,5.41-1.22,6.72c1.06,1.07,3.83.78,5.13-.53C1690.22,1678.16,1690,1675.47,1688.13,1673.55Zm-306.32,6c-2.17-1.5-4.09-3.7-4.26-4.89-.23-1.62-1.11-2.23-3.56-2.46-3.92-.38-5.16,1.74-3.18,5.44,1.08,2,1.1,2.88.08,4.51s-1,2.35-.1,3.42,1.68,1.12,3,.42a15.63,15.63,0,0,1,5.78-1C1385.69,1685,1386.58,1682.88,1381.81,1679.57ZM716.28,1683c-1.9,0-3.85,2.74-3.18,4.49.79,2,3.37,1.91,4.47-.24S718,1683,716.28,1683Zm696.22-.82c-2.3.33-3.48,3.5-2.37,6.39.86,2.24,3.55,1.68,4.77-1C1416.41,1684.28,1415.31,1681.81,1412.5,1682.21Zm-50.84-2.65c-4.61-5-7.63-6.29-10.8-4.59-4.61,2.47-4.8,7.31-.54,13.81,1.39,2.13,2.14,2.31,8.23,2l6.69-.3.31-3.21C1365.81,1684.72,1365.07,1683.26,1361.66,1679.56ZM651,1689c-.31-2.81-2.92-5.2-5.22-4.77-2,.37-2.54,4.43-.93,6.38a4.8,4.8,0,0,0,3.83,1.19C650.76,1691.59,651.19,1691.06,651,1689Zm-17.92-5.82c-3.39.39-4.13,2.92-1.87,6.37,2.64,4,7.55,2.65,7.55-2.13C638.74,1684.52,636.47,1682.82,633.06,1683.21Zm894.65,3c-4.27-5.77-13.18-7.12-13.77-2.08-.22,2,.68,3.47,3.76,6.25,5,4.47,9.48,5,11.18,1.27C1529.78,1689.66,1529.58,1688.72,1527.71,1686.2Zm-139.26,6.46c-.46-1.39-6.68-1.51-6.76-.13,0,.55,1,1.26,2.25,1.58C1386.81,1694.84,1389,1694.15,1388.45,1692.66Zm14.11,3.12c-.25-1.82-1-2.31-4.15-2.56-3.25-.27-3.78,0-3.49,1.49.21,1.06,1.58,2.07,3.34,2.44s3.35.7,3.8.76S1402.74,1697,1402.56,1695.78Zm-705.07-11.57c-3.08-.35-5.14-3.46-6.26-9.43-.82-4.37-1.59-5.1-7.49-7.16s-5.65-2.14-7.62,2.16c-.94,2.06-1.87,4.06-2.07,4.44s.52,1.51,1.59,2.5a10.85,10.85,0,0,1,2.62,4.52,8.69,8.69,0,0,0,2.08,3.87c2.29,1.9,1.63,2.78-2.34,3.11-2.78.23-3.83.81-4.11,2.27-.34,1.77,1.82,7.09,4.18,10.29,1.41,1.91,3.54,1.5,6-1.15a9.58,9.58,0,0,1,4.62-2.75,6.46,6.46,0,0,0,4.06-3.35,6.5,6.5,0,0,1,4.58-3.51c2.3-.4,2.91-1,2.91-3S699.67,1684.47,697.49,1684.21Zm127.94,17.08c-1.14-1.14-1.91-1.21-3.57-.32-2.09,1.12-2.74,3.1-1.45,4.39s3.12.74,4.83-1C826.68,1703,826.71,1702.56,825.43,1701.29ZM659.81,1700c-2.14,0-4.55,3.41-3.55,5s4.08,1.18,5.47-.51C663.38,1702.56,662.3,1700,659.81,1700Zm-35.25-1.64c-.36-4.39-3.25-5.85-5.5-2.78-1.37,1.87-1.81,8.59-.65,9.75C621,1708,625,1703.49,624.56,1698.39Zm109.53-9.53c-3.09-3.41-7.65-2-8.49,2.67-.8,4.43-15.79,7.7-18.77,4.1-1.6-1.93-6.15-2.94-7.43-1.65a4.38,4.38,0,0,1-2.7,1c-2.12,0-5.29,3.49-4.72,5.19.31.94,2.83,1.31,9,1.31,7.73,0,8.89.26,12.41,2.78,3.09,2.21,4.79,2.72,8.33,2.5,4-.25,4.51-.57,5.23-3.35.45-1.76,2.49-4.43,4.81-6.29C736.09,1693.66,736.65,1691.69,734.09,1688.86Zm-122,11.94c-2.31-1.06-2.84-.92-4.5,1.13-1.9,2.35-2.44,5.21-1.22,6.43s3,.73,5.7-1.4C615.45,1704.33,615.46,1702.31,612.13,1700.8Zm181.54-2.13c-1.71-2.19-2.88-2.64-6.8-2.64-5.45,0-7.13,1.24-7.13,5.27s1.68,6.73,4,6.73a3.27,3.27,0,0,1,2.52,1c.89,1.43,3.27,1.23,4.21-.35a8.89,8.89,0,0,1,3-2.54C796.3,1704.67,796.36,1702.09,793.67,1698.67Zm7.19,15.07c-1.38-1.38-3.7.54-2.67,2.2a2.24,2.24,0,0,0,1.55,1.09C801.29,1717,802,1714.9,800.86,1713.74Zm-16.64.34a3.24,3.24,0,0,0-.1,2.5c1.11,2.88,6.62,1,6.62-2.25C790.74,1712.77,785.16,1712.55,784.22,1714.08Zm39.61-.36c-1.52-1.53-4.58,1.59-3.73,3.81a2.19,2.19,0,0,0,2.38,1.31C824.55,1718.44,825.39,1715.27,823.83,1713.72Zm-9.58,1.32c-.48-.78-2-1-4.37-.52-4.41.81-5.61,1.84-4.75,4.07.5,1.3,1.37,1.54,3.87,1C812.8,1718.87,815.28,1716.7,814.25,1715Zm-43-4.65c-3-1.14-7.57,6.42-6.14,10.14.73,1.92,4,1.94,5.6,0a13.75,13.75,0,0,0,1.75-5.48C772.9,1711.86,772.66,1710.93,771.25,1710.39Zm-10.45-1.32c-3.32-2.36-3.92-5.08-1.56-7a4.63,4.63,0,0,0,1.5-3.14c0-2.05-5.37-5.85-8.29-5.86-2.48,0-6.52,4.6-6.9,7.83-.26,2.28-.72,2.63-3.14,2.37-3.51-.37-5.67,1.3-5.67,4.41,0,1.65-1.21,3.17-4,5-3.24,2.15-4,3.2-3.75,5.27s.9,2.64,3.65,2.9a7,7,0,0,0,5.08-1.25c2-1.78,3.07-1.16,3.07,1.71,0,1.52.5,1.83,2.25,1.41,9.14-2.23,11.41-3,12.74-4.16a9.6,9.6,0,0,1,4.51-1.7c2.4-.26,3.07-.86,3.31-3S763.11,1710.72,760.8,1709.07Zm21.54,8.47c-1.48-1.38-3.26-2.51-4-2.51-3.22,0-4.9,5.35-2.45,7.8,1.82,1.82,5.28,1.44,7.3-.79C785,1720.1,785,1720,782.34,1717.54Zm123.87-3c-.82-7.59-3.61-11.07-8.61-10.68-3.47.26-11.86,5.61-11.86,7.55,0,.71,1.13,2.34,2.5,3.63s2.5,3.19,2.5,4.21c0,1.64-.57,1.79-4.75,1.27a34.28,34.28,0,0,0-9.75.51c-6.61,1.46-5,1.56-32.29-2-8.61-1.13-14.21.44-14.21,4,0,1.74.65,2.06,4.25,2.08,2.34,0,5.15.71,6.25,1.55,1.35,1,3.9,1.44,7.77,1.3,4.37-.16,6.07.19,7,1.44s2.68,1.63,5.73,1.6c11.06-.11,12.76.08,14,1.55,1.6,1.93,3.47,1.94,6.4,0,2.12-1.39,2.57-1.32,5.71.92a14,14,0,0,0,5.61,2.51c2.36.09,5.3-3.29,5.3-6.09,0-1,1.5-2.45,3.54-3.41C906.15,1724.14,907,1722.05,906.21,1714.53Zm237,10.72c-3.63-5.17-7.42-1.19-6.93,7.28.18,3.3.37,6.11.41,6.25.21.73,1.73,0,4.73-2.3A7.79,7.79,0,0,0,1143.19,1725.25Zm195.75-19.42c-1.77-1.77-7.24,1.08-8.69,4.53l-1.26,3-1.74-2.65a5.17,5.17,0,0,0-4.87-2.69c-3,0-3-.11-1.19-1.5,1.06-.81,4-1.47,6.42-1.47,5.34,0,8.13-2.12,8.13-6.15,0-6.17-8-9.07-13.84-5a19.42,19.42,0,0,1-5.91,2.58c-2.79.6-3.25.43-3.25-1.24a9.69,9.69,0,0,1,2.1-4.61c3.26-4.15,2-5.34-6.5-6.13-9.55-.9-11.22-.45-16.93,4.58-6.37,5.61-6.41,8.75-.17,13.15,2.48,1.75,4.5,3.54,4.5,4s-1.37.81-3,.81c-2.08,0-3.92.92-5.75,2.88a23.12,23.12,0,0,1-4.83,4c-1.18.61-3,2.8-4.1,4.88s-2.82,3.93-3.86,4.12a28.62,28.62,0,0,0-4.91,1.66c-1.65.72-7.36,1.54-12.7,1.82-9.5.49-9.77.58-13.25,4.06l-3.56,3.56,3.52,3.63c3.86,4,3.6,4,16.84,1.46,5.87-1.1,13-4.13,14.15-6,.92-1.49,11.37-1.16,16,.51,5.48,2,5.7,1.92,8.26-2,1.87-2.88,2.87-3.49,5.72-3.49,2.41,0,4.49-.9,6.87-3,1.88-1.65,3.74-3,4.13-3a11.05,11.05,0,0,0,3.25-2,11.12,11.12,0,0,1,6-2c2.62,0,3.59-.49,4-2,.58-2.22,1.11-2.4,3.23-1s4.71-.42,6.66-4.52C1339.56,1707.91,1339.72,1706.61,1338.94,1705.83Zm-41,5a4,4,0,0,1-1.2-2c0-1.19,2.78-1,3.56.29C1301.33,1710.78,1299.34,1712.23,1297.94,1710.83Zm-178.07,26.93c-1.41-1.41-4.74,1.47-3.68,3.17a2.39,2.39,0,0,0,4.22-.47A2.74,2.74,0,0,0,1119.87,1737.76ZM983,1740.31a9.17,9.17,0,0,1-3.6,1.87c-2.42.45-4.1,3.11-3.3,5.22.49,1.26,2,1.63,6.6,1.63,6.74,0,10.86-1.24,11.74-3.52C995.92,1741.54,986.43,1737.23,983,1740.31Zm75.39,6.72c-1.89,0-2.93,1.68-2.22,3.55.64,1.66,1.53,1.8,3.52.54C1061.34,1750,1060.38,1747,1058.34,1747Zm70.24-4.13c-7.16,1.26-8.8,2.38-7.21,4.91.71,1.13,2.66,1.82,5.72,2,3.43.22,4.92.83,5.72,2.31,1.91,3.57,4.4,1.88,4.73-3.22C1138,1742.48,1136.52,1741.5,1128.58,1742.9Zm-15.85,2.13a5,5,0,0,0-5,4.87,6.79,6.79,0,0,0,.67,3.46c1,1,7.14.8,7.81-.29C1117,1751.76,1114.11,1745,1112.73,1745Zm-164,5.64c-11.17-2.62-14-3.51-17.16-5.49a20,20,0,0,1-5.28-4.7c-1.44-2.2-2.29-2.45-8.44-2.45-5.33,0-7.41-.44-9.39-2-2.66-2.09-7.19-2.67-8.19-1s8.28,10.06,11.5,10.71a10.86,10.86,0,0,1,5.42,3.87c2.41,3.15,2.86,3.32,11.28,4a85.17,85.17,0,0,1,13.26,2c6.13,1.8,10.67,1.85,11.33.13C953.8,1753.72,951.77,1751.39,948.74,1750.67Zm283.2-43.21c-4-.53-5-.3-6.61,1.47a7,7,0,0,1-4.49,2.1,17.12,17.12,0,0,0-6.1,1.75c-3.36,1.68-3.52,2-4,8.25l-.5,6.5-7.6-.27L1195,1727l-4.64,5.63c-2.56,3.1-4.65,6.49-4.65,7.53,0,2.42-10.11,12.65-13.16,13.3-1.29.28-3.24.64-4.34.8a2.89,2.89,0,0,0-2.31,2.54c-.26,1.77.16,2.24,2,2.23,3.32,0,10.7-2.75,13.6-5s5.51-2.44,10.13-.83c3.14,1.1,3.35,1,8.23-4.5,2.76-3.09,5.83-5.62,6.82-5.62s3-1.52,4.38-3.38c4.32-5.67,10.47-8.62,18-8.62,8,0,11.7-2.34,11.7-7.42a7.06,7.06,0,0,1,2-5.08,6,6,0,0,0,2-3.48C1244.74,1712.58,1237.32,1708.18,1231.94,1707.46Zm-151.8,40.77c-4.76-.27-5.31,0-8.25,3.29s-3.81,5.52-2.54,6.78c.65.65,9.24-.15,13.39-1.25,2.14-.57,2.5-1.24,2.5-4.59v-3.93Zm-34.34,4.27c-1.16.71-1.45,5.8-.39,6.86,1.21,1.21,6.07.7,7.28-.77C1055.13,1755.66,1049.19,1750.4,1045.8,1752.5Z" transform="translate(-213.91 -223.22)" style="fill:#b7b7b7"/><path d="M311.74,1397.14a33.88,33.88,0,0,1-6.62.79c-3.66.09-4.59-.4-8.28-4.41-3.88-4.21-4.4-4.46-8-3.89s-4.22.27-8-3.37c-2.26-2.2-4.12-4.89-4.12-6,0-4.82-1.52-8.55-5.2-12.73-5.72-6.5-5-8,3.73-7.9,5.67.09,7.88.63,11.8,2.88,2.65,1.52,5.23,3.83,5.72,5.14.73,1.92,1.63,2.37,4.68,2.38a10.52,10.52,0,0,1,6.77,2.43c2.6,2.1,2.83,2.67,1.75,4.24-4.45,6.43-4.09,9.32,1.15,9.32C313.72,1386,317.64,1395.51,311.74,1397.14Z" transform="translate(-213.91 -223.22)" style="fill:#565656"/><path d="M313.54,1430.59a5.22,5.22,0,0,1-1.75,3.9c-1.13,1-2.05,2.39-2.05,3,0,2.5-3.67,4.5-8.24,4.5-4.2,0-4.93-.39-8.67-4.64-4.33-4.91-4.45-5.28-3.44-10.32.85-4.29,2.58-4.73,6.58-1.68,2.69,2,4.66,2.6,10.3,2.84C312.43,1428.5,313.28,1428.77,313.54,1430.59Z" transform="translate(-213.91 -223.22)" style="fill:#565656"/><path d="M331.58,1414.65c-.37,1.88-2.07,2.82-3.15,1.74s-.84-5.14.2-5.79C329.91,1409.81,332,1412.63,331.58,1414.65Z" transform="translate(-213.91 -223.22)" style="fill:#565656"/><path d="M340.39,1424.52c-.59,1.53-3.75,2.07-5,.84a5.47,5.47,0,0,1-.67-3c0-1.61.58-2.33,1.88-2.33C339,1420,341.14,1422.56,340.39,1424.52Z" transform="translate(-213.91 -223.22)" style="fill:#565656"/><path d="M476.67,1565.6a4.33,4.33,0,0,0-1.54,4.62c1.14,5.7-8.83,8.16-13.39,3.31-2.84-3-4.12-3.12-6.5-.5-2.51,2.78-5.32,2.55-6.08-.5-.84-3.31.1-5.5,2.35-5.5a5,5,0,0,0,3.08-1.25c.69-.69,4-1.47,7.45-1.75,6-.48,6.27-.62,8-4.25,2.05-4.21,2.7-4.43,6.2-2.13C479.3,1559.63,479.47,1563.06,476.67,1565.6Z" transform="translate(-213.91 -223.22)" style="fill:#565656"/><path d="M497.25,1580c-.94-1.53,1.34-4,3.69-4,1.44,0,1.86.58,1.62,2.25C502.22,1580.71,498.44,1582,497.25,1580Z" transform="translate(-213.91 -223.22)" style="fill:#565656"/><path d="M501.7,1598.66a26,26,0,0,1,2,6c0,2.23-4.72,1.6-6.44-.85a12.46,12.46,0,0,1-1.56-6c0-3.08.37-3.78,2-3.78C499.06,1594,500.27,1595.43,501.7,1598.66Z" transform="translate(-213.91 -223.22)" style="fill:#565656"/><path d="M503.78,1587.58c-1.38-1.67-1.06-4.71.56-5.25,1.9-.63,5.8,3.23,5.1,5.05C508.66,1589.42,505.41,1589.54,503.78,1587.58Z" transform="translate(-213.91 -223.22)" style="fill:#565656"/><path d="M509.78,1595.1c-1.43-2.68-1.45-2.65,2.45-5.06s6.23-2.09,9,1c1.71,1.88,1.67,2-1.11,3a34.06,34.06,0,0,0-4.62,2C512.87,1597.55,510.92,1597.24,509.78,1595.1Z" transform="translate(-213.91 -223.22)" style="fill:#565656"/><path d="M544.46,1662.34c-.48,1.24-1.8,1.68-4.93,1.63a16.26,16.26,0,0,1-5.79-.93,19.44,19.44,0,0,0-3.25-1.41,2.7,2.7,0,0,1-1.75-2.45,4.49,4.49,0,0,0-1.39-3.06,13.53,13.53,0,0,1-2.66-4.37,21.47,21.47,0,0,0-2.76-5c-.81-1-1.85-4.11-2.3-7-.6-3.81-1.45-5.67-3.1-6.75a42.3,42.3,0,0,1-5.1-4.24c-3.19-3.12-3.38-7.33-.4-9.17,1.52-.93,2.83,0,8.75,6,6.51,6.67,7,7.42,7,11.59a12.77,12.77,0,0,0,2.75,8.29c3.62,5,12.37,14.09,14.18,14.66C544.55,1660.48,544.85,1661.3,544.46,1662.34Z" transform="translate(-213.91 -223.22)" style="fill:#565656"/><path d="M580.71,1622.25c0,3.3-2.25,4.7-8.74,5.36-4.13.42-5.14.12-8-2.37-4.32-3.8-4.49-8.64-.44-12.52,3.59-3.44,7.48-3.46,11.55-.07C579,1615.92,580.66,1618.74,580.71,1622.25Z" transform="translate(-213.91 -223.22)" style="fill:#565656"/><path d="M612.11,1707c-2.71,2.13-4.53,2.58-5.7,1.4s-.68-4.08,1.22-6.43c1.66-2,2.19-2.19,4.5-1.13C615.46,1702.31,615.45,1704.33,612.11,1707Z" transform="translate(-213.91 -223.22)" style="fill:#565656"/><path d="M624.56,1698.39c.42,5.1-3.53,9.59-6.15,7-1.16-1.16-.72-7.88.65-9.75C621.31,1692.54,624.2,1694,624.56,1698.39Z" transform="translate(-213.91 -223.22)" style="fill:#565656"/><path d="M638.74,1687.45c0,4.78-4.91,6.16-7.55,2.13-2.26-3.45-1.52-6,1.87-6.37S638.74,1684.52,638.74,1687.45Z" transform="translate(-213.91 -223.22)" style="fill:#565656"/><path d="M639.08,1670.42c-1.54-2.35-1.56-2.89-.24-5.25,2.08-3.7,5.92-3.59,7.19.21C648.13,1671.69,642.56,1675.73,639.08,1670.42Z" transform="translate(-213.91 -223.22)" style="fill:#565656"/><path d="M651,1689c.21,2-.22,2.56-2.32,2.8a4.8,4.8,0,0,1-3.83-1.19c-1.61-2-1-6,.93-6.38C648.06,1683.83,650.67,1686.22,651,1689Z" transform="translate(-213.91 -223.22)" style="fill:#565656"/><path d="M661.73,1704.54c-1.39,1.69-4.56,2-5.47.51s1.41-5,3.55-5C662.3,1700,663.38,1702.56,661.73,1704.54Z" transform="translate(-213.91 -223.22)" style="fill:#565656"/><path d="M692.75,1693.53a6.46,6.46,0,0,1-4.06,3.35,9.58,9.58,0,0,0-4.62,2.75c-2.46,2.65-4.59,3.06-6,1.15-2.36-3.2-4.52-8.52-4.18-10.29.28-1.46,1.33-2,4.11-2.27,4-.33,4.63-1.21,2.34-3.11a8.69,8.69,0,0,1-2.08-3.87,10.85,10.85,0,0,0-2.62-4.52c-1.07-1-1.78-2.12-1.59-2.5s1.13-2.38,2.07-4.44c2-4.3,1.69-4.22,7.62-2.16s6.67,2.79,7.49,7.16c1.12,6,3.18,9.08,6.26,9.43,2.18.26,2.75.84,2.75,2.81s-.61,2.6-2.91,3A6.5,6.5,0,0,0,692.75,1693.53Z" transform="translate(-213.91 -223.22)" style="fill:#565656"/><path d="M713.1,1687.52c-.67-1.75,1.28-4.49,3.18-4.49s2.39,2.11,1.29,4.25S713.89,1689.57,713.1,1687.52Z" transform="translate(-213.91 -223.22)" style="fill:#565656"/><path d="M726.92,1703.46c-.72,2.78-1.21,3.1-5.23,3.35-3.54.22-5.24-.29-8.33-2.5-3.52-2.52-4.68-2.78-12.41-2.78-6.14,0-8.66-.37-9-1.31-.57-1.7,2.6-5.19,4.72-5.19a4.38,4.38,0,0,0,2.7-1c1.28-1.29,5.83-.28,7.43,1.65,3,3.6,18,.33,18.77-4.1.84-4.64,5.4-6.08,8.49-2.67,2.56,2.83,2,4.8-2.36,8.31C729.41,1699,727.37,1701.7,726.92,1703.46Z" transform="translate(-213.91 -223.22)" style="fill:#565656"/><path d="M763.55,1713.89c-.24,2.11-.91,2.71-3.31,3a9.6,9.6,0,0,0-4.51,1.7c-1.33,1.19-3.6,1.93-12.74,4.16-1.75.42-2.25.11-2.25-1.41,0-2.87-1.11-3.49-3.07-1.71a7,7,0,0,1-5.08,1.25c-2.75-.26-3.4-.78-3.65-2.9s.51-3.12,3.75-5.27c2.84-1.87,4-3.39,4-5,0-3.11,2.16-4.78,5.67-4.41,2.42.26,2.88-.09,3.14-2.37.38-3.23,4.42-7.83,6.9-7.83,2.92,0,8.29,3.81,8.29,5.86a4.63,4.63,0,0,1-1.5,3.14c-2.36,2-1.76,4.68,1.56,7C763.11,1710.72,763.78,1711.89,763.55,1713.89Z" transform="translate(-213.91 -223.22)" style="fill:#565656"/><path d="M772.46,1715.09a13.75,13.75,0,0,1-1.75,5.48c-1.58,1.9-4.87,1.88-5.6,0-1.43-3.72,3.15-11.28,6.14-10.14C772.66,1710.93,772.9,1711.86,772.46,1715.09Z" transform="translate(-213.91 -223.22)" style="fill:#565656"/><path d="M783.24,1722c-2,2.23-5.48,2.61-7.3.79-2.45-2.45-.77-7.8,2.45-7.8.69,0,2.47,1.13,4,2.51C785,1720,785,1720.1,783.24,1722Z" transform="translate(-213.91 -223.22)" style="fill:#565656"/><path d="M790.74,1714.33c0,3.26-5.51,5.13-6.62,2.25a3.24,3.24,0,0,1,.1-2.5C785.16,1712.55,790.74,1712.77,790.74,1714.33Z" transform="translate(-213.91 -223.22)" style="fill:#565656"/><path d="M793.67,1698.67c2.69,3.42,2.63,6-.18,7.47a8.89,8.89,0,0,0-3,2.54c-.94,1.58-3.32,1.78-4.21.35a3.27,3.27,0,0,0-2.52-1c-2.3,0-4-2.84-4-6.73s1.68-5.27,7.13-5.27C790.79,1696,792,1696.48,793.67,1698.67Z" transform="translate(-213.91 -223.22)" style="fill:#565656"/><path d="M800.86,1713.74c1.15,1.16.43,3.29-1.12,3.29a2.24,2.24,0,0,1-1.55-1.09C797.16,1714.28,799.48,1712.36,800.86,1713.74Z" transform="translate(-213.91 -223.22)" style="fill:#565656"/><path d="M814.25,1715c1,1.66-1.45,3.83-5.25,4.59-2.5.5-3.37.26-3.87-1-.86-2.23.34-3.26,4.75-4.07C812.26,1714.08,813.77,1714.26,814.25,1715Z" transform="translate(-213.91 -223.22)" style="fill:#565656"/><path d="M823.83,1713.72c1.56,1.55.72,4.72-1.35,5.12a2.19,2.19,0,0,1-2.38-1.31C819.25,1715.31,822.31,1712.19,823.83,1713.72Z" transform="translate(-213.91 -223.22)" style="fill:#565656"/><path d="M825.43,1701.29c1.28,1.27,1.25,1.66-.19,3.1-1.71,1.71-3.69,2.11-4.83,1s-.64-3.27,1.45-4.39C823.52,1700.08,824.29,1700.15,825.43,1701.29Z" transform="translate(-213.91 -223.22)" style="fill:#565656"/><path d="M901.28,1726.45c-2,1-3.54,2.41-3.54,3.41,0,2.8-2.94,6.18-5.3,6.09a14,14,0,0,1-5.61-2.51c-3.14-2.24-3.59-2.31-5.71-.92-2.93,1.92-4.8,1.91-6.4,0-1.22-1.47-2.92-1.66-14-1.55-3,0-4.89-.48-5.73-1.6s-2.63-1.6-7-1.44c-3.87.14-6.42-.29-7.77-1.3-1.1-.84-3.91-1.53-6.25-1.55-3.6,0-4.25-.34-4.25-2.08,0-3.54,5.6-5.11,14.21-4,27.33,3.58,25.68,3.48,32.29,2a34.28,34.28,0,0,1,9.75-.51c4.18.52,4.75.37,4.75-1.27,0-1-1.12-2.92-2.5-4.21s-2.5-2.92-2.5-3.63c0-1.94,8.39-7.29,11.86-7.55,5-.39,7.79,3.09,8.61,10.68S906.15,1724.14,901.28,1726.45Z" transform="translate(-213.91 -223.22)" style="fill:#565656"/><path d="M953.07,1755.63c-.66,1.72-5.2,1.67-11.33-.13a85.17,85.17,0,0,0-13.26-2c-8.42-.64-8.87-.81-11.28-4a10.86,10.86,0,0,0-5.42-3.87c-3.22-.65-12.43-9.22-11.5-10.71s5.53-1,8.19,1c2,1.56,4.06,2,9.39,2,6.15,0,7,.25,8.44,2.45a20,20,0,0,0,5.28,4.7c3.21,2,6,2.87,17.16,5.49C951.77,1751.39,953.8,1753.72,953.07,1755.63Z" transform="translate(-213.91 -223.22)" style="fill:#565656"/><path d="M994.39,1745.51c-.88,2.28-5,3.52-11.74,3.52-4.6,0-6.11-.37-6.6-1.63-.8-2.11.88-4.77,3.3-5.22a9.17,9.17,0,0,0,3.6-1.87C986.43,1737.23,995.92,1741.54,994.39,1745.51Z" transform="translate(-213.91 -223.22)" style="fill:#565656"/><path d="M1052.69,1758.59c-1.21,1.47-6.07,2-7.28.77-1.06-1.06-.77-6.15.39-6.86C1049.19,1750.4,1055.13,1755.66,1052.69,1758.59Z" transform="translate(-213.91 -223.22)" style="fill:#565656"/><path d="M1059.64,1751.12c-2,1.26-2.88,1.12-3.52-.54-.71-1.87.33-3.55,2.22-3.55C1060.38,1747,1061.34,1750,1059.64,1751.12Z" transform="translate(-213.91 -223.22)" style="fill:#565656"/><path d="M1080.14,1748.23l5.1.3v3.93c0,3.35-.36,4-2.5,4.59-4.15,1.1-12.74,1.9-13.39,1.25-1.27-1.26-.5-3.32,2.54-6.78S1075.38,1748,1080.14,1748.23Z" transform="translate(-213.91 -223.22)" style="fill:#565656"/><path d="M1116.22,1753.07c-.67,1.09-6.79,1.31-7.81.29a6.79,6.79,0,0,1-.67-3.46,5,5,0,0,1,5-4.87C1114.11,1745,1117,1751.76,1116.22,1753.07Z" transform="translate(-213.91 -223.22)" style="fill:#565656"/><path d="M1119.87,1737.76a2.74,2.74,0,0,1,.54,2.7,2.39,2.39,0,0,1-4.22.47C1115.13,1739.23,1118.46,1736.35,1119.87,1737.76Z" transform="translate(-213.91 -223.22)" style="fill:#565656"/><path d="M1137.54,1748.93c-.33,5.1-2.82,6.79-4.73,3.22-.8-1.48-2.29-2.09-5.72-2.31-3.06-.21-5-.9-5.72-2-1.59-2.53.05-3.65,7.21-4.91C1136.52,1741.5,1138,1742.48,1137.54,1748.93Z" transform="translate(-213.91 -223.22)" style="fill:#565656"/><path d="M1143.19,1725.25a7.79,7.79,0,0,1-1.79,11.23c-3,2.29-4.52,3-4.73,2.3,0-.14-.23-3-.41-6.25C1135.77,1724.06,1139.56,1720.08,1143.19,1725.25Z" transform="translate(-213.91 -223.22)" style="fill:#565656"/><path d="M1204.32,1369c-3.15-4.75-2.45-6.49,3-7.52,5-.93,12.39.38,12.39,2.19,0,3.93-6.59,9.4-11.33,9.4C1207.64,1373,1205.8,1371.2,1204.32,1369Z" transform="translate(-213.91 -223.22)" style="fill:#565656"/><path d="M1234.56,1424.84c.62,4.15-9.11,7.84-11.9,4.52-3.11-3.69-5.05-7.53-4.52-8.91C1219.45,1417,1234,1420.9,1234.56,1424.84Z" transform="translate(-213.91 -223.22)" style="fill:#565656"/><path d="M1240.74,1723.61c0,5.08-3.69,7.42-11.7,7.42-7.48,0-13.63,3-18,8.62-1.42,1.86-3.39,3.38-4.38,3.38s-4.06,2.53-6.82,5.62c-4.88,5.49-5.09,5.6-8.23,4.5-4.62-1.61-7.3-1.39-10.13.83s-10.28,5-13.6,5c-1.84,0-2.26-.46-2-2.23a2.89,2.89,0,0,1,2.31-2.54c1.1-.16,3-.52,4.34-.8,3.05-.65,13.16-10.88,13.16-13.3,0-1,2.09-4.43,4.65-7.53L1195,1727l7.61.27,7.6.27.5-6.5c.48-6.24.64-6.57,4-8.25a17.12,17.12,0,0,1,6.1-1.75,7,7,0,0,0,4.49-2.1c1.61-1.77,2.62-2,6.61-1.47,5.38.72,12.8,5.12,12.8,7.59a6,6,0,0,1-2,3.48A7.06,7.06,0,0,0,1240.74,1723.61Z" transform="translate(-213.91 -223.22)" style="fill:#565656"/><path d="M1338.94,1705.83c.78.78.62,2.08-.59,4.63-1.95,4.1-4.54,5.86-6.66,4.52s-2.65-1.17-3.23,1c-.4,1.51-1.37,2-4,2a11.12,11.12,0,0,0-6,2,11.05,11.05,0,0,1-3.25,2c-.39,0-2.25,1.35-4.13,3-2.38,2.1-4.46,3-6.87,3-2.85,0-3.85.61-5.72,3.49-2.56,4-2.78,4-8.26,2-4.63-1.67-15.08-2-16-.51-1.18,1.89-8.28,4.92-14.15,6-13.24,2.49-13,2.51-16.84-1.46l-3.52-3.63,3.56-3.56c3.48-3.48,3.75-3.57,13.25-4.06,5.34-.28,11-1.1,12.7-1.82a28.62,28.62,0,0,1,4.91-1.66c1-.19,2.78-2.05,3.86-4.12s2.92-4.27,4.1-4.88a23.12,23.12,0,0,0,4.83-4c1.83-2,3.67-2.88,5.75-2.88,1.68,0,3-.36,3-.81s-2-2.23-4.5-4c-6.24-4.4-6.2-7.54.17-13.15,5.71-5,7.38-5.48,16.93-4.58,8.5.79,9.76,2,6.5,6.13a9.69,9.69,0,0,0-2.1,4.61c0,1.67.46,1.84,3.25,1.24a19.42,19.42,0,0,0,5.91-2.58c5.79-4.1,13.84-1.2,13.84,5,0,4-2.79,6.15-8.13,6.15-2.47,0-5.36.66-6.42,1.47-1.84,1.39-1.78,1.47,1.19,1.5a5.17,5.17,0,0,1,4.87,2.69l1.74,2.65,1.26-3C1331.7,1706.91,1337.17,1704.06,1338.94,1705.83Z" transform="translate(-213.91 -223.22)" style="fill:#565656"/><path d="M1361.66,1679.56c3.41,3.7,4.15,5.16,3.89,7.76l-.31,3.21-6.69.3c-6.09.26-6.84.08-8.23-2-4.26-6.5-4.07-11.34.54-13.81C1354,1673.27,1357.05,1674.56,1361.66,1679.56Z" transform="translate(-213.91 -223.22)" style="fill:#565656"/><path d="M1379.56,1685a15.63,15.63,0,0,0-5.78,1c-1.31.7-2.15.58-3-.42s-.86-1.88.1-3.42,1-2.49-.08-4.51c-2-3.7-.74-5.82,3.18-5.44,2.45.23,3.33.84,3.56,2.46.17,1.19,2.09,3.39,4.26,4.89C1386.58,1682.88,1385.69,1685,1379.56,1685Z" transform="translate(-213.91 -223.22)" style="fill:#565656"/><path d="M1388.45,1692.66c.5,1.49-1.64,2.18-4.51,1.45-1.27-.32-2.29-1-2.25-1.58C1381.77,1691.15,1388,1691.27,1388.45,1692.66Z" transform="translate(-213.91 -223.22)" style="fill:#565656"/><path d="M1402.56,1695.78c.18,1.24,0,2.2-.5,2.13s-2.16-.4-3.8-.76-3.13-1.38-3.34-2.44c-.29-1.53.24-1.76,3.49-1.49C1401.51,1693.47,1402.31,1694,1402.56,1695.78Z" transform="translate(-213.91 -223.22)" style="fill:#565656"/><path d="M1414.9,1687.59c-1.22,2.69-3.91,3.25-4.77,1-1.11-2.89.07-6.06,2.37-6.39C1415.31,1681.81,1416.41,1684.28,1414.9,1687.59Z" transform="translate(-213.91 -223.22)" style="fill:#565656"/><path d="M1505.74,1658.59c0,5-1.34,6.34-4,3.93-1.79-1.62-2-1.6-4.59.41-2.25,1.77-3.55,2-7.8,1.54-7.21-.84-19.9-3.54-21.13-4.51-.57-.45-3-.91-5.5-1-5.79-.28-13.65,3.76-18.74,9.64-4.29,5-7.81,5.77-19.64,4.51-8.94-.95-10.73-2.82-9.91-10.34.31-2.87,1.18-6.21,1.94-7.42a9.06,9.06,0,0,0,1.38-3.67c0-.8,2-2.23,4.56-3.19,5.22-2,12-9,13-13.48.92-4.22,4.92-7.11,8.14-5.89,1.38.53,3,.67,3.52.33s2.09-.05,3.41.66c2.93,1.56,8.46,0,14.8-4.17,5.17-3.39,13.78-4.64,19.26-2.77,4.94,1.68,7.06,3.47,9.06,7.68,1.37,2.89,1.44,4.32.45,9.67-1.15,6.23-.71,12.08,1,13.12.48.3,2.42,0,4.3-.69C1503.87,1651.22,1505.74,1652.84,1505.74,1658.59Z" transform="translate(-213.91 -223.22)" style="fill:#565656"/><path d="M1512.74,1595.45c0-.87.54-1.41,1.19-1.19,1.86.62,2.16,2.77.4,2.77A1.59,1.59,0,0,1,1512.74,1595.45Z" transform="translate(-213.91 -223.22)" style="fill:#565656"/><path d="M1527.71,1686.2c1.87,2.52,2.07,3.46,1.17,5.44-1.7,3.72-6.23,3.2-11.18-1.27-3.08-2.78-4-4.29-3.76-6.25C1514.53,1679.08,1523.44,1680.43,1527.71,1686.2Z" transform="translate(-213.91 -223.22)" style="fill:#565656"/><path d="M1528.74,1602.53c0-2.2,4.69-4.21,6.23-2.67s.25,2.68-3.48,3.56C1529.4,1603.91,1528.74,1603.7,1528.74,1602.53Z" transform="translate(-213.91 -223.22)" style="fill:#565656"/><path d="M1539.39,1652.52c-.74,1.92-2.06,1.93-3.63,0-1.29-1.55-.74-4.51.83-4.51S1540,1651,1539.39,1652.52Z" transform="translate(-213.91 -223.22)" style="fill:#565656"/><path d="M1554,1646.19c-.39,6.77-6.46,13.62-8.77,9.89a6.28,6.28,0,0,1,.06-3.54,4.53,4.53,0,0,0-1.09-4.51c-2.38-2.63-1.28-4.76,2.85-5.54C1552.92,1641.4,1554.27,1642.12,1554,1646.19Z" transform="translate(-213.91 -223.22)" style="fill:#565656"/><path d="M1567.84,1641a2.22,2.22,0,0,1-1.62-1c-.94-1.52,1.6-4.28,2.82-3.07S1569.28,1641,1567.84,1641Z" transform="translate(-213.91 -223.22)" style="fill:#565656"/><path d="M1572.24,1654.53c0,1.33-.77,2.11-2.33,2.33-1.93.28-2.27-.06-2-2C1568.34,1651.85,1572.24,1651.55,1572.24,1654.53Z" transform="translate(-213.91 -223.22)" style="fill:#565656"/><path d="M1572.62,1646.59c-1.33,1.32-1.71,1.34-2.72.12s-.84-1.7.37-2.7C1572.61,1642.07,1574.76,1644.44,1572.62,1646.59Z" transform="translate(-213.91 -223.22)" style="fill:#565656"/><path d="M1581.92,1637.38c-2.62,2.36-4.41,2.06-7.62-1.29-5.12-5.34-1.07-8.06,5.89-4C1584.26,1634.53,1584.44,1635.09,1581.92,1637.38Z" transform="translate(-213.91 -223.22)" style="fill:#565656"/><path d="M1591.74,1626.6c0,1.46-8.66,1.78-9.55.35-1-1.64,1.59-3.92,4.48-3.92S1591.74,1624.62,1591.74,1626.6Z" transform="translate(-213.91 -223.22)" style="fill:#565656"/><path d="M1590.56,1640.27c-.37,2.61-3.55,3.61-4.41,1.38s.33-3.62,2.72-3.62C1590.38,1638,1590.8,1638.59,1590.56,1640.27Z" transform="translate(-213.91 -223.22)" style="fill:#565656"/><path d="M1602.14,1630.72c-1.49,2.43-3.78,2.76-5.43.77a2.42,2.42,0,0,1-.34-3.23c1.44-2.27,2.66-2.47,4.92-.8C1602.85,1628.62,1603,1629.27,1602.14,1630.72Z" transform="translate(-213.91 -223.22)" style="fill:#565656"/><path d="M1624.74,1560.52c-1-1.14-1-1.88-.22-2.66,1.52-1.52,4.44-.19,4,1.84C1628.12,1562,1626.3,1562.4,1624.74,1560.52Z" transform="translate(-213.91 -223.22)" style="fill:#565656"/><path d="M1638,1566.85c.88.89.94,1.7.18,2.9-1.49,2.37-3.3,2.72-4,.79C1633.2,1568.16,1636.3,1565.19,1638,1566.85Z" transform="translate(-213.91 -223.22)" style="fill:#565656"/><path d="M1642.88,1622.85c-.48.93-.49,5,0,9.13,1.16,10.48-1.19,12.65-8.13,7.52-2.53-1.86-4.16-2.37-6.2-1.92l-2.77.61.08-6.83c.11-9.8,1.6-13.23,6.47-14.91,3.7-1.28,4.06-1.23,5.56.74,1.08,1.42,1.84,1.74,2.31,1a2.77,2.77,0,0,1,2.14-1.14C1643.9,1617,1644.22,1620.24,1642.88,1622.85Z" transform="translate(-213.91 -223.22)" style="fill:#565656"/><path d="M1653.59,1628.15c-2.16,1.37-5.86,1-6.49-.63-.87-2.27,1.63-4.63,4.55-4.29S1655.79,1626.76,1653.59,1628.15Z" transform="translate(-213.91 -223.22)" style="fill:#565656"/><path d="M1664.49,1620.26a14.81,14.81,0,0,1-5.23-.43c-5-1.08-6.22-2.24-4.55-4.26,1.52-1.83,8.11-2.06,9.83-.34C1666.11,1616.8,1666.08,1619.7,1664.49,1620.26Z" transform="translate(-213.91 -223.22)" style="fill:#565656"/><path d="M1670.24,1625.54c0,2.55-4.22,3.36-5.13,1a2.68,2.68,0,0,1,.4-2.66C1667.14,1622.24,1670.24,1623.34,1670.24,1625.54Z" transform="translate(-213.91 -223.22)" style="fill:#565656"/><path d="M1649.83,1602.85c-5.72,5.72-6.58,6.18-5.77,3.08.76-2.91-.19-4.9-2.36-4.9-2.51,0-3.46,1.78-3.46,6.48,0,3-.42,4-1.82,4.33a7.38,7.38,0,0,1-8.18-3.82c-2-3.91-3.83-3.78-6.33.46-3.22,5.46-9.15,8-18.16,7.65-4.11-.14-8.08-.74-8.8-1.35-1.87-1.55-.62-8.34,2.4-13,2.78-4.3,3.66-4.49,8.17-1.75,4.07,2.49,6.22,2.55,6.22.19,0-2.89-5.14-7-10.81-8.73-5.17-1.53-5.23-1.52-8.66,1.09-1.89,1.44-3.66,3.38-3.92,4.29s-1.24,5-2.19,9c-1.44,6.12-2.26,7.72-5.07,9.86-1.84,1.41-3.35,3.11-3.35,3.78a5.52,5.52,0,0,1-1.9,3c-1.57,1.43-2.25,1.51-3.87.5a4.85,4.85,0,0,0-3.7-.56c-1.44.56-1.63,1.43-1.1,5,.71,4.74-.8,7.11-4.13,6.46-1.3-.26-1.81-1.31-1.85-3.83-.07-5-2.47-4.91-7.84.45-4.67,4.67-6.56,5.29-11,3.59-2.71-1-3.64-5.25-1.45-6.6.69-.43.92-2.44.6-5.27-.62-5.5-3.74-8.75-6.81-7.11-2.61,1.4-2.55,6,.09,6.66,2.41.63,2-.29,2.62,6.51.61,7.12-.66,9.78-4.65,9.78-1.63,0-3,.4-3,.89,0,1.19-2.93,2.27-4.13,1.53-.59-.37-.51-1.14.2-2,1.38-1.66.55-4.42-1.35-4.42-.73,0-2.36,1.38-3.6,3.06-1.81,2.45-2.55,2.83-3.67,1.9s-1.14-1.65-.33-3.17c2.5-4.68-1.49-11.79-6.64-11.79s-5.75,4.26-1.53,10.08c2.55,3.53,2.79,4.4,1.81,6.56-1.08,2.37-7.63,6.36-10.44,6.36-.86,0-1.32-1.34-1.32-3.84s.67-4.45,2-5.66c3.18-2.88,2.49-5.92-2.25-9.93l-4.25-3.61,2.21-1.73c7.44-5.84,11-7.24,17.65-7,4.75.13,7.09-.26,8.37-1.38a30.29,30.29,0,0,1,5.27-3.29,31.26,31.26,0,0,0,6.24-4.3c2.49-2.33,3-2.44,5.27-1.2,3.17,1.69,4.36.64,5.19-4.6.34-2.15.91-4.13,1.28-4.41s3.7-3.87,7.42-8c8.1-9,11.52-11.39,21.39-15a31.28,31.28,0,0,0,6.88-4.08c2-1.58,4.36-2.87,5.27-2.87a4.38,4.38,0,0,0,2.61-.9c.53-.5,3.81-1.63,7.31-2.51a35,35,0,0,0,9.15-3.59c3-2.13,10.41-2.76,11.51-1,.34.56-1,1.71-3,2.54s-3.45,2.06-3.2,2.73a1.41,1.41,0,0,0,1.82.73,27.5,27.5,0,0,1,6.37-.25,36.7,36.7,0,0,0,9.25-.9c3.49-.93,4.25-1.55,4.25-3.5s.52-2.37,2.88-2.37c2.88,0,5.69,2.11,4.45,3.34a5.57,5.57,0,0,1-3,.66c-1.58,0-2.34.58-2.34,1.8a4.22,4.22,0,0,1-4.28,4.2c-2,0-2,.13,0,11.74.61,3.64,6.55,9.56,9.09,9.07,2.76-.54,2.5-2.76-.68-5.73s-4.21-7.72-1.84-8.61c.69-.26,4-.14,7.25.28,5.89.74,6,.82,6.32,4.06.19,2,1,3.54,2,3.9a15.54,15.54,0,0,1,4,2.69c2.1,1.9,2.32,2.06,3.43.59l8.29,10.45c-2.44,2.54-3.33,2.67-7.88,2.46C1655.11,1597.68,1654.9,1597.78,1649.83,1602.85Z" transform="translate(-213.91 -223.22)" style="fill:#565656"/><path d="M1673.42,1646.22a2.84,2.84,0,0,0-2.5,2.61,4.41,4.41,0,0,1-2.71,3.22,5.81,5.81,0,0,0-3.24,4.19c-.62,2.41-1.49,3.38-3.25,3.64a12.26,12.26,0,0,0-4.83,2.25c-2.6,2-3.44,2.28-4.48,1.23-1.31-1.3-.62-3,2.83-7,2.86-3.35,3.39-4.63,2.89-7.09s0-3.69,3.64-7.6c2.32-2.52,5.06-4.59,6.08-4.59s2.59-1.12,3.49-2.5c2.4-3.67,4.4-3.21,4.4,1a12.43,12.43,0,0,0,1.19,5.42C1678.39,1643.3,1676.76,1645.75,1673.42,1646.22Z" transform="translate(-213.91 -223.22)" style="fill:#565656"/><path d="M1676.68,1673.8a2.84,2.84,0,0,1-2.23-.39c-.94-1,1.2-3.38,3-3.38S1678.69,1673.42,1676.68,1673.8Z" transform="translate(-213.91 -223.22)" style="fill:#565656"/><path d="M1688.13,1673.55c1.91,1.92,2.09,4.61.41,6.28-1.3,1.31-4.07,1.6-5.13.53-1.31-1.31-.63-5,1.22-6.72S1686.63,1672.06,1688.13,1673.55Z" transform="translate(-213.91 -223.22)" style="fill:#565656"/><path d="M1692.41,1643.69c-.46,4.9-1.2,7.28-2.82,9-2.2,2.35-3.94,2.91-5.18,1.67s-.75-4.88.88-9c2.76-6.92,3.76-8.37,5.77-8.37C1692.89,1637,1693,1637.52,1692.41,1643.69Z" transform="translate(-213.91 -223.22)" style="fill:#565656"/><path d="M1695.45,1660.41c-1.41-1.42-.68-7.09,1.12-8.72s2-1.5,4.23.9,2.3,2.72.89,5.24S1696.88,1661.84,1695.45,1660.41Z" transform="translate(-213.91 -223.22)" style="fill:#565656"/><path d="M1705.05,1669.28c-.59,3-3.94,3.88-4.94,1.25a4,4,0,0,1,2.18-5.15C1704.56,1664.51,1705.68,1666.09,1705.05,1669.28Z" transform="translate(-213.91 -223.22)" style="fill:#565656"/></g><g id="Labels"><text transform="translate(1142.87 1511.74) rotate(-9.51)" style="font-size:20px;fill:#5e5e5e;font-family:OpenSans-LightItalic, Open Sans;font-style:italic">Qigiigun</text><text transform="matrix(0.65, 0.76, -0.76, 0.65, 3.89, 1139.59)" style="font-size:20px;fill:#5e5e5e;font-family:OpenSans-LightItalic, Open Sans;font-style:italic">Sasignan</text><text transform="translate(231.84 1393.83) rotate(46.3)" style="font-size:20px;fill:#5e5e5e;font-family:OpenSans-LightItalic, Open Sans;font-style:italic">Qaxun</text><text transform="translate(356.8 1507.08) rotate(6.52)" style="font-size:20px;fill:#5e5e5e;font-family:OpenSans-LightItalic, Open Sans;font-style:italic">Naahmigus</text><text transform="translate(573.45 1550.31) rotate(3.3)" style="font-size:20px;fill:#5e5e5e;font-family:OpenSans-LightItalic, Open Sans;font-style:italic">Niigugis</text><text transform="translate(573.45 1550.31) rotate(3.3)" style="font-size:20px;fill:#5e5e5e;font-family:OpenSans-LightItalic, Open Sans;font-style:italic">Niigugis</text><text transform="translate(841.13 1569.04) rotate(-5.36)" style="font-size:20px;fill:#5e5e5e;font-family:OpenSans-LightItalic, Open Sans;font-style:italic">Akuugun</text><text transform="translate(841.13 1569.04) rotate(-5.36)" style="font-size:20px;fill:#5e5e5e;font-family:OpenSans-LightItalic, Open Sans;font-style:italic">Akuugun</text><text transform="matrix(0.97, -0.22, 0.22, 0.97, 991.99, 1557.16)" style="font-size:20px;fill:#5e5e5e;font-family:OpenSans-LightItalic, Open Sans;font-style:italic">Qawalangin</text><text transform="matrix(0.97, -0.22, 0.22, 0.97, 991.99, 1557.16)" style="font-size:20px;fill:#5e5e5e;font-family:OpenSans-LightItalic, Open Sans;font-style:italic">Qawalangin</text><text transform="matrix(0.95, 0.31, -0.31, 0.95, 458.47, 1354.73)" style="font-size:40px;font-family:OpenSans-Regular, Open Sans">CENTRAL</text><text transform="matrix(0.59, 0.8, -0.8, 0.59, 107.65, 1074.81)" style="font-size:40px;font-family:OpenSans-Regular, Open Sans">ATTU</text><text transform="matrix(0.95, -0.3, 0.3, 0.95, 1334.62, 1464.66)" style="font-size:20px;fill:#5e5e5e;font-family:OpenSans-LightItalic, Open Sans;font-style:italic">Qagaan<tspan x="-15.18" y="24">Tayagungin</tspan></text><text transform="matrix(0.96, -0.29, 0.29, 0.96, 1083.82, 1390.9)" style="font-size:40px;font-family:OpenSans-Regular, Open Sans">EASTERN</text></g><g id="borders"><line x1="1164.38" y1="1412.33" x2="1231.71" y2="1486.06" style="fill:none;stroke:#000;stroke-miterlimit:10;stroke-width:0.1944109946489334px"/><line x1="133.85" y1="1343.1" x2="261.94" y2="1224" style="fill:#5e5e5e;stroke:#000;stroke-miterlimit:10;stroke-width:0.75px"/><polyline points="481.26 1515.92 468.57 1480.6 498.04 1458.56 514.67 1427.03" style="fill:none;stroke:#000;stroke-miterlimit:10;stroke-width:0.25px"/><line x1="925.95" y1="1395.15" x2="948.82" y2="1607.94" style="fill:#5e5e5e;stroke:#000;stroke-miterlimit:10;stroke-width:0.75px"/><line x1="389.44" y1="1399.53" x2="337.11" y2="1472.12" style="fill:none;stroke:#000;stroke-miterlimit:10;stroke-width:0.1944109946489334px"/><line x1="801.02" y1="1480.06" x2="799.81" y2="1574.42" style="fill:none;stroke:#000;stroke-miterlimit:10;stroke-width:0.1944109946489334px"/><line x1="1084.61" y1="1438.95" x2="1131.1" y2="1545.54" style="fill:none;stroke:#000;stroke-miterlimit:10;stroke-width:0.1944109946489334px"/></g></svg>