<?xml version="1.0" encoding="UTF-8" standalone="no"?>
<svg
   xmlns:dc="http://purl.org/dc/elements/1.1/"
   xmlns:cc="http://creativecommons.org/ns#"
   xmlns:rdf="http://www.w3.org/1999/02/22-rdf-syntax-ns#"
   xmlns:svg="http://www.w3.org/2000/svg"
   xmlns="http://www.w3.org/2000/svg"
   xmlns:sodipodi="http://sodipodi.sourceforge.net/DTD/sodipodi-0.dtd"
   xmlns:inkscape="http://www.inkscape.org/namespaces/inkscape"
   width="1022"
   height="993"
   id="svg3564"
   version="1.1"
   inkscape:version="0.48.4 r9939"
   sodipodi:docname="Anishinaabe-Anishinini Map.svg">
  <sodipodi:namedview
     pagecolor="#ffffff"
     bordercolor="#666666"
     borderopacity="1"
     objecttolerance="10"
     gridtolerance="10"
     guidetolerance="10"
     inkscape:pageopacity="0"
     inkscape:pageshadow="2"
     inkscape:window-width="1920"
     inkscape:window-height="1005"
     id="namedview3799"
     showgrid="false"
     inkscape:zoom="0.71515152"
     inkscape:cx="418.7953"
     inkscape:cy="510.82805"
     inkscape:window-x="-9"
     inkscape:window-y="-9"
     inkscape:window-maximized="1"
     inkscape:current-layer="g3598"
     fit-margin-top="0"
     fit-margin-left="100"
     fit-margin-right="100"
     fit-margin-bottom="0"
     inkscape:showpageshadow="false" />
  <title
     id="title3566">Anishinaabe-Anishinini Map</title>
  <metadata
     id="metadata7">image/svg+xmlSTyx2007-02-04CanadaCarte_administrative_du_Canada.pngCarte du Canada<rdf:RDF>
  <cc:Work
     rdf:about="">
    <dc:format>image/svg+xml</dc:format>
    <dc:type
       rdf:resource="http://purl.org/dc/dcmitype/StillImage" />
    <dc:title>Anishinaabe-Anishinini Map</dc:title>
  </cc:Work>
</rdf:RDF>
</metadata>
  <defs
     id="defs3569">
    <filter
       id="svg_3_blur"
       x="-0.5"
       y="-0.5"
       width="2"
       height="2"
       color-interpolation-filters="sRGB">
      <feGaussianBlur
         stdDeviation="4.3"
         id="feGaussianBlur3572" />
    </filter>
    <filter
       id="svg_5_blur"
       x="-0.5"
       y="-0.5"
       width="2"
       height="2"
       color-interpolation-filters="sRGB">
      <feGaussianBlur
         stdDeviation="3.6"
         id="feGaussianBlur3575" />
    </filter>
    <filter
       id="svg_6_blur"
       x="-0.5"
       y="-0.5"
       width="2"
       height="2"
       color-interpolation-filters="sRGB">
      <feGaussianBlur
         stdDeviation="4"
         id="feGaussianBlur3578" />
    </filter>
    <filter
       id="svg_8_blur"
       color-interpolation-filters="sRGB">
      <feGaussianBlur
         stdDeviation="2.8"
         id="feGaussianBlur3581" />
    </filter>
    <filter
       id="svg_14_blur"
       x="-0.5"
       y="-0.5"
       width="2"
       height="2"
       color-interpolation-filters="sRGB">
      <feGaussianBlur
         stdDeviation="3.2"
         id="feGaussianBlur3584" />
    </filter>
    <filter
       id="svg_17_blur"
       x="-0.5"
       y="-0.5"
       width="2"
       height="2"
       color-interpolation-filters="sRGB">
      <feGaussianBlur
         stdDeviation="6.1"
         id="feGaussianBlur3587" />
    </filter>
    <filter
       id="Distribution_Chippewa_Ojibwa_blur"
       x="-0.5"
       y="-0.5"
       width="2"
       height="2"
       color-interpolation-filters="sRGB">
      <feGaussianBlur
         stdDeviation="4.4"
         id="feGaussianBlur3590" />
    </filter>
    <filter
       id="Distribution_Oji-Cree_blur"
       x="-0.5"
       y="-0.5"
       width="2"
       height="2"
       color-interpolation-filters="sRGB">
      <feGaussianBlur
         stdDeviation="5.1"
         id="feGaussianBlur3593" />
    </filter>
    <filter
       id="svg_20_blur"
       x="-0.5"
       y="-0.5"
       width="2"
       height="2"
       color-interpolation-filters="sRGB">
      <feGaussianBlur
         stdDeviation="10"
         id="feGaussianBlur3596" />
    </filter>
  </defs>
  <g
     id="g3598"
     transform="matrix(3,0,0,3,153.98564,-19.33061)">
    <title
       id="title3600">Layer 1</title>
    <g
       id="layer2"
       display="inline"
       style="display:inline"
       transform="translate(-50.66667,7.3333333)">
      <rect
         id="rect3342"
         width="340.00278"
         height="330.00143"
         x="-0.00077300001"
         y="-0.000478"
         stroke-miterlimit="4"
         style="fill:#f7dca2;fill-rule:nonzero;stroke-width:2;stroke-miterlimit:4" />
    </g>
    <path
       stroke-linejoin="null"
       stroke-linecap="null"
       d="m 80.707384,291.0738 c 0,0 -15.64885,2.67175 -15.64885,3.05343 0,0.38169 -20.229007,8.77863 -20.305347,8.62595 -0.07634,-0.15268 -9.08396,18.4733 -9.465651,18.4733 -0.381683,0 -7.633583,13.35876 -7.709923,13.20608 -0.07634,-0.15268 113.816807,-0.229 113.816807,-0.229 0,0 -4.19849,-14.12213 -4.27483,-14.27481 -0.0763,-0.15268 -17.09922,-14.73282 -17.17556,-14.8855 -0.0763,-0.15268 -12.90076,-9.771 -12.9771,-9.92368 -0.0763,-0.15268 -6.03053,-2.13739 -6.03053,-2.13739 0,0 -1.526726,5.34351 -1.603066,5.19083 -0.0763,-0.15268 0.458023,8.16794 0.381683,8.01526 -0.0763,-0.15268 3.511453,9.31299 3.435113,9.16031 -0.0763,-0.15268 3.89314,7.78628 3.8168,7.6336 -0.0763,-0.15267 1.22137,6.64124 1.22137,6.64124 0,0 -2.29007,4.96182 -2.3664,4.80914 -0.0763,-0.15268 -24.351166,0.53436 -24.351166,0.53436 0,0 0.38169,-6.10687 0.30535,-6.25955 -0.0763,-0.15268 -1.0687,-4.80917 -1.14504,-4.96185 -0.0763,-0.15268 -3.74045,-7.09921 -3.81679,-7.25189 -0.0763,-0.15268 2.7481,-10.91602 2.7481,-10.91602 0,0 -1.52672,-6.48855 -1.60306,-6.64123 -0.0763,-0.15268 2.74809,-7.86258 2.74809,-7.86258 z"
       id="Distribution_Potawatomi"
       inkscape:connector-curvature="0"
       style="opacity:0.75;fill:#ffff00;stroke:#ffff00;stroke-width:0;stroke-dasharray:none;filter:url(#svg_8_blur)" />
    <g
       id="layer8"
       display="inline"
       style="display:inline"
       transform="translate(-50.66667,7.3333333)">
      <path
         id="path7723"
         d="m 0.00146,0.00705 -0.04715,185.06587 c 0,0 6.85776,-0.43291 6.97575,-0.47773 L 7.68787,97.530068 30.03492,74.353959 85.239647,0.001861 0.00146,0.007051 z m 333.38324,215.93071 -6.68615,7.06653 13.30188,-4.56792 0.002,-218.436421 -171.71769,-0.00104 2.79191,22.39532 6.9775,55.086681 5.83943,2.793198 34.64605,19.754972 23.68343,88.0016 3.60967,8.32377 8.39852,8.4199 9.35022,5.44425 16.70701,-0.40177 7.26205,5.16928 6.55936,-1.06775 2.8489,5.51294 6.27372,1.09378 4.52462,-1.27397 15.91883,-11.37892 7.54306,0.48117 0.2796,4.67745 1.88656,2.90693 0,2e-5 z"
         inkscape:connector-curvature="0"
         style="fill:#fbf0c2;fill-rule:evenodd;stroke-width:1px" />
    </g>
    <g
       id="layer9"
       display="none"
       style="display:none">
      <path
         d="m 83.826523,3.66085 -52.975372,71.948693 -22.61258,23.275703 -0.22104,78.083224 4.67079,0.22104 2.40186,12.69143 3.256419,2.32286 7.160751,-0.39728 2.475538,2.35705 2.93206,0.62363 5.039202,-2.99054 7.696278,1.23282 7.736542,7.38104 2.99511,-2.50895 7.396999,5.91806 4.651043,0.44207 6.218109,-5.10756 1.900505,0.0441 2.853836,3.5063 8.855438,0.0448 9.562607,1.65973 11.895362,-8.42322 58.40804,23.99277 2.81926,7.83872 7.33776,0.15722 13.83081,5.18657 -1.72885,5.61878 15.77578,17.28851 17.28853,26.36502 -1.72887,29.6066 -7.13151,6.48318 2.37718,6.91541 19.23348,1.29666 38.03477,-31.33545 6.05097,-5.61877 1.08053,-3.02552 -6.9154,-7.34762 32.8482,-17.93683 5.83487,-13.61473 4.53824,-2.89295 3.02551,-5.5352 0.57465,-3.65899 7.63739,-11.16881 7.07266,-6.9401 -1.57654,-2.94688 -0.30954,-5.54015 -7.18548,-0.20623 -17.45069,12.0921 -3.67383,1.08053 -5.83486,-1.94496 -2.81431,-5.31418 -6.69439,1.48806 -7.5246,-5.46154 -16.67932,0.6434 -9.43501,-5.42242 -8.36892,-8.31497 -3.29589,-8.04532 -21.47319,-80.43572 -15.55967,-12.101985 -25.06837,-17.072403 -2.59328,-3.025497 3.88993,-7.347618 -3.88993,-45.814598 -94.615567,-20.30909 z"
         id="path8702"
         inkscape:connector-curvature="0"
         style="fill:#fdf9d2;fill-rule:evenodd;stroke-width:1px" />
    </g>
    <g
       id="layer10"
       display="inline"
       style="display:inline"
       transform="translate(-50.66667,7.3333333)">
      <path
         d="m 231.27663,305.36572 -10.48168,3.11603 0.35288,4.75244 4.32734,7.19919 6.56499,-5.31238 1.82971,-0.96713 2.58982,-4.40921 -5.18306,-4.37894 z"
         id="path7297"
         stroke-miterlimit="4"
         inkscape:connector-curvature="0"
         style="fill:#fdf9d2;fill-rule:evenodd;stroke-width:0.75;stroke-miterlimit:4;stroke-dashoffset:0" />
      <path
         d="m 220.55637,308.6228 1.30734,-7.89914 -0.56757,-4.09045 8.41903,-7.03815 1.66326,15.71631 -10.82206,3.31143 z"
         id="path7303"
         stroke-miterlimit="4"
         inkscape:connector-curvature="0"
         style="fill:#fdf9d2;fill-rule:evenodd;stroke-width:0.75;stroke-miterlimit:4;stroke-dashoffset:0" />
      <path
         d="m 220.93047,313.02371 -7.26651,3.76245 -0.71425,0.84107 -0.29757,0.88809 2.54152,4.95294 8.99865,-0.0509 1.23539,-3.2247 -4.49724,-7.16892 z"
         id="path7311"
         stroke-miterlimit="4"
         inkscape:connector-curvature="0"
         style="fill:#fdf9d2;fill-rule:evenodd;stroke-width:0.75;stroke-miterlimit:4;stroke-dashoffset:0" />
      <path
         d="m 227.52914,274.29282 2.34218,16.86367 2.49832,0.62458 2.18604,-2.34217 2.34218,0.31229 0,-2.65448 -2.0299,-0.31229 4.37207,-7.02652 -0.3123,-3.59134 0.93688,-0.15615 -0.31229,-3.90363 -5.93352,3.59134 -6.08966,-1.4053 z"
         id="path7313"
         stroke-miterlimit="4"
         inkscape:connector-curvature="0"
         style="fill:#fdf9d2;fill-rule:evenodd;stroke-width:0.75;stroke-miterlimit:4;stroke-dashoffset:0" />
      <path
         d="m 248.95561,297.73599 3.07489,-1.70825 -0.0683,-3.41653 2.66489,-0.40998 0.34166,-0.8883 1.57159,0 0.0683,2.39157 1.43497,1.98156 -1.29831,0.61499 0.13666,1.63993 3.48489,1.16165 -2.92218,2.33789 -7.32744,0.3765 0.0683,-2.71439 -1.22997,-1.36664 z"
         id="path7315"
         stroke-miterlimit="4"
         inkscape:connector-curvature="0"
         style="fill:#fdf9d2;fill-rule:evenodd;stroke-width:0.75;stroke-miterlimit:4;stroke-dashoffset:0" />
      <path
         d="m 270.06979,290.76627 -1.3666,-1.70826 -5.19315,-0.81997 -3.41653,0.0683 -1.02494,3.14321 -2.52826,-0.41 0.0683,2.73325 1.63996,2.04992 11.82119,-5.05648 z"
         id="path7317"
         stroke-miterlimit="4"
         inkscape:connector-curvature="0"
         style="fill:#fdf9d2;fill-rule:evenodd;stroke-width:0.75;stroke-miterlimit:4;stroke-dashoffset:0" />
      <path
         d="m 265.14999,283.52322 -0.0683,1.91327 -1.16162,0.81995 0.13666,1.84494 4.50983,1.02496 1.43494,1.84491 4.16818,-1.63992 3.83847,-0.11923 -0.14313,-2.99896 -0.0179,-2.00196 -3.34745,-3.67462 -2.58493,1.48337 -6.76474,1.50329 z"
         id="path7319"
         stroke-miterlimit="4"
         inkscape:connector-curvature="0"
         style="fill:#fdf9d2;fill-rule:evenodd;stroke-width:0.75;stroke-miterlimit:4;stroke-dashoffset:0" />
      <path
         d="m 260.09351,288.30637 -0.54664,-0.88831 -2.25491,0.27332 -0.20499,-0.95661 -1.70828,-0.0683 -0.27331,-1.57162 -2.18659,0 -1.22995,1.50329 0.34166,1.91324 -1.77659,0.47833 0.20498,3.07489 1.57161,0.54664 2.66489,-0.34165 0.27333,-0.8883 1.50327,0.13665 0.0683,-0.61499 2.45993,0.61499 1.09327,-3.21154 z"
         id="path7321"
         stroke-miterlimit="4"
         inkscape:connector-curvature="0"
         style="fill:#fdf9d2;fill-rule:evenodd;stroke-width:0.75;stroke-miterlimit:4;stroke-dashoffset:0" />
      <path
         d="m 265.01334,283.52322 -0.95664,0 -2.73325,-1.77661 -0.9566,1.29828 -2.80157,-2.11825 -2.25492,1.77661 -0.20498,2.66491 0.40998,1.22995 1.50328,0 0.27332,1.09327 2.04993,-0.40998 0.75161,1.02497 3.75821,0.0683 0.0683,-1.91327 1.09329,-1.02494 0,-1.91327 z"
         id="path7323"
         stroke-miterlimit="4"
         inkscape:connector-curvature="0"
         style="fill:#fdf9d2;fill-rule:evenodd;stroke-width:0.75;stroke-miterlimit:4;stroke-dashoffset:0" />
      <path
         d="m 246.97401,298.21432 1.9816,-0.41 3.14322,-1.84491 -0.0683,-3.55319 -1.50328,-0.47833 -0.13666,-2.80155 1.7766,-0.61499 -0.40999,-1.57159 -1.02496,-1.43494 -2.32324,0 -0.0683,0.88828 -3.14321,0 -5.12481,3.96319 2.39158,2.18659 0.88829,1.91323 1.84494,0.0684 1.77658,3.68985 z"
         id="path7325"
         stroke-miterlimit="4"
         inkscape:connector-curvature="0"
         style="fill:#fdf9d2;fill-rule:evenodd;stroke-width:0.75;stroke-miterlimit:4;stroke-dashoffset:0" />
      <path
         d="m 238.911,276.07517 4.16818,-0.47831 -0.13668,2.93824 1.63994,0.61496 0,4.16818 2.32324,2.9382 -1.70825,0.0683 -5.05647,4.16818 -3.14322,-0.75165 0,-2.52823 -1.9816,-0.34164 4.16818,-6.96973 -0.27333,-3.82654 z"
         id="path7327"
         stroke-miterlimit="4"
         inkscape:connector-curvature="0"
         style="fill:#fdf9d2;fill-rule:evenodd;stroke-width:0.75;stroke-miterlimit:4;stroke-dashoffset:0" />
      <path
         d="m 255.17371,282.70325 -2.18657,-0.54666 -1.84494,-2.93821 -3.55319,-1.29827 -0.68332,1.70825 -1.84491,-0.27332 -0.40999,3.9632 2.18657,3.00653 1.50328,0.20502 0.0683,-1.02497 2.04992,-0.0683 1.29828,1.29828 1.50328,-1.63995 1.7766,0 0.13666,-2.39157 z"
         id="path7329"
         stroke-miterlimit="4"
         inkscape:connector-curvature="0"
         style="fill:#fdf9d2;fill-rule:evenodd;stroke-width:0.75;stroke-miterlimit:4;stroke-dashoffset:0" />
      <path
         d="m 239.7993,271.83868 5.19313,-0.34167 0.81996,-0.88828 2.73323,-0.13668 1.16162,3.07489 2.25493,0.81997 1.43494,-1.63995 3.55321,1.63995 -1.02497,1.09329 -0.13667,1.5716 -0.75163,0.41 -0.0683,1.98157 1.70825,0.47833 0.41001,1.02494 -1.57161,1.63995 -2.52823,-0.41 -1.63996,-2.80155 -3.62152,-1.36661 -0.6833,1.63993 -4.09986,-1.16162 0.13668,-2.86988 -3.07489,0.40998 -0.20499,-4.16816 z"
         id="path7331"
         stroke-miterlimit="4"
         inkscape:connector-curvature="0"
         style="fill:#fdf9d2;fill-rule:evenodd;stroke-width:0.75;stroke-miterlimit:4;stroke-dashoffset:0" />
      <path
         d="m 263.44171,278.33008 -2.86987,4.8515 -4.03153,-3.27988 -1.57159,-0.61499 0,-1.70825 0.6833,-0.54666 0.20499,-1.50327 1.09331,-1.09329 6.49139,3.89484 z"
         id="path7333"
         stroke-miterlimit="4"
         inkscape:connector-curvature="0"
         style="fill:#fdf9d2;fill-rule:evenodd;stroke-width:0.75;stroke-miterlimit:4;stroke-dashoffset:0" />
      <path
         d="m 253.53377,272.38531 0.34166,-1.98159 4.4415,-2.32325 6.90139,7.65305 -1.57162,2.32324 -10.11293,-5.67145 z"
         id="path7335"
         stroke-miterlimit="4"
         inkscape:connector-curvature="0"
         style="fill:#fdf9d2;fill-rule:evenodd;stroke-width:0.75;stroke-miterlimit:4;stroke-dashoffset:0" />
      <path
         d="m 270.13812,269.2421 -1.50326,-1.5716 -5.94477,5.05646 2.53132,2.73789 c 1.63891,-2.65775 3.2778,-4.19693 4.91671,-6.22275 z"
         id="path7337"
         stroke-miterlimit="4"
         inkscape:connector-curvature="0"
         style="fill:#fdf9d2;fill-rule:evenodd;stroke-width:0.75;stroke-miterlimit:4;stroke-dashoffset:0" />
      <path
         d="m 258.52191,268.08047 2.11826,-0.8883 0,-1.50327 0.81997,-0.0683 -0.34167,-8.74633 2.52823,-1.16161 2.8699,3.27986 -1.70825,2.80158 3.68985,5.60312 -5.87643,5.46643 -4.09986,-4.78315 z"
         id="path7339"
         stroke-miterlimit="4"
         inkscape:connector-curvature="0"
         style="fill:#fdf9d2;fill-rule:evenodd;stroke-width:0.75;stroke-miterlimit:4;stroke-dashoffset:0" />
      <path
         d="m 239.59431,271.97534 c -0.0683,-0.27334 -6.08143,-14.00781 -6.08143,-14.00781 l 3.00654,-3.62152 -2.59655,-3.89485 -5.60312,-5.26146 -5.60312,1.57161 7.37971,8.40467 1.0933,6.35477 -4.57816,5.80808 1.02496,6.83307 5.73978,1.63995 6.21809,-3.82651 z"
         id="path7341"
         stroke-miterlimit="4"
         inkscape:connector-curvature="0"
         style="fill:#fdf9d2;fill-rule:evenodd;stroke-width:0.75;stroke-miterlimit:4;stroke-dashoffset:0" />
      <path
         d="m 239.59431,271.97534 5.32979,-0.41 1.02497,-0.88828 2.4599,0 -0.27332,-6.14978 1.98158,-0.40997 -0.34166,-1.50327 -2.11824,-4.30484 -0.95663,-0.13668 -5.39812,-3.41652 -4.91981,-0.0683 -2.80156,3.1432 6.01311,14.14447 z"
         id="path7343"
         stroke-miterlimit="4"
         inkscape:connector-curvature="0"
         style="fill:#fdf9d2;fill-rule:evenodd;stroke-width:0.75;stroke-miterlimit:4;stroke-dashoffset:0" />
      <path
         d="m 250.0489,263.91232 2.86989,-1.57162 2.18659,4.50982 0.47831,2.59659 -1.63994,0.81995 -0.34165,1.9816 -1.43494,1.9816 -2.39159,-0.75165 -1.36661,-3.14322 -0.27331,-5.73978 1.91325,-0.68329 z"
         id="path7345"
         stroke-miterlimit="4"
         inkscape:connector-curvature="0"
         style="fill:#fdf9d2;fill-rule:evenodd;stroke-width:0.75;stroke-miterlimit:4;stroke-dashoffset:0" />
      <path
         d="m 263.57837,255.57597 3.48489,-1.22996 1.02494,0.61497 2.59658,5.46645 3.62152,-0.68329 0.81998,2.25491 3.27985,-1.09329 1.70828,2.18659 -8.54135,4.44149 -1.09329,1.5716 -1.84491,-1.5716 -3.68985,-5.60312 1.63992,-2.8699 -3.00656,-3.48485 z"
         id="path7347"
         stroke-miterlimit="4"
         inkscape:connector-curvature="0"
         style="fill:#fdf9d2;fill-rule:evenodd;stroke-width:0.75;stroke-miterlimit:4;stroke-dashoffset:0" />
      <path
         d="m 247.72566,258.17252 4.03151,-0.40998 2.39157,-7.5847 1.43495,-0.27331 0,-2.32326 4.78316,1.22996 3.48486,-0.40998 3.34821,5.53479 -6.21811,2.86987 0.54666,8.60968 -0.81998,0.13666 -0.0683,1.57159 -4.78316,2.11826 -0.81996,-2.25492 -2.18659,-4.50982 -2.59656,1.16162 -2.52824,-5.46646 z"
         id="path7349"
         stroke-miterlimit="4"
         inkscape:connector-curvature="0"
         style="fill:#fdf9d2;fill-rule:evenodd;stroke-width:0.75;stroke-miterlimit:4;stroke-dashoffset:0" />
      <path
         d="m 278.26947,260.83743 2.73325,-1.63995 7.44803,-9.56629 2.52825,3.00657 -1.70828,1.84491 2.66629,3.3991 -2.90613,1.14145 -8.77981,4.27411 -1.9816,-2.4599 z"
         id="path7351"
         stroke-miterlimit="4"
         inkscape:connector-curvature="0"
         style="fill:#fdf9d2;fill-rule:evenodd;stroke-width:0.75;stroke-miterlimit:4;stroke-dashoffset:0" />
      <path
         d="m 293.16834,257.69421 0.61221,-1.63992 1.77661,-1.77661 3.27985,0 1.09191,-1.79125 4.52588,2.13291 -3.34683,2.90196 -7.12244,1.19788 -0.8172,-1.02497 z"
         id="path7353"
         stroke-miterlimit="4"
         inkscape:connector-curvature="0"
         style="fill:#fdf9d2;fill-rule:evenodd;stroke-width:0.75;stroke-miterlimit:4;stroke-dashoffset:0" />
      <path
         d="m 292.14062,257.83087 1.29828,-0.13666 0.27332,-1.57159 2.11825,-1.9816 3.07489,0.13666 1.91324,-2.66489 -0.40997,-1.02496 -1.77661,-0.95663 -0.13666,-3.07489 -14.89609,-18.10762 -1.02496,-0.20501 -5.73978,4.23651 0.88831,2.18657 10.7279,14.96444 2.59659,3.00656 -1.57162,1.84491 2.66491,3.3482 z"
         id="path7355"
         stroke-miterlimit="4"
         inkscape:connector-curvature="0"
         style="fill:#fdf9d2;fill-rule:evenodd;stroke-width:0.75;stroke-miterlimit:4;stroke-dashoffset:0" />
      <path
         d="m 281.34436,240.33823 -1.22995,1.3666 -7.7897,3.89486 1.09329,2.80156 3.21155,3.62152 1.16162,1.77661 0,2.73321 -1.29828,0.75165 1.98157,3.55319 2.45993,-1.57162 7.31137,-9.56629 -6.9014,-9.36129 z"
         id="path7357"
         stroke-miterlimit="4"
         inkscape:connector-curvature="0"
         style="fill:#fdf9d2;fill-rule:evenodd;stroke-width:0.75;stroke-miterlimit:4;stroke-dashoffset:0" />
      <path
         d="m 263.78336,248.19624 1.16165,-1.57159 -0.81998,-2.04993 0.13666,-1.36661 2.8699,0 2.39157,3.82653 2.4599,-1.2983 1.29828,2.73323 4.4415,5.05648 0,2.86988 -1.22995,0.81998 1.77658,3.41654 -3.34817,1.3666 -0.61499,-2.18658 c 0,0 -3.55319,0.81998 -3.68985,0.54663 -0.13669,-0.27331 -2.4599,-5.19311 -2.4599,-5.19311 l -4.3732,-6.96975 z"
         id="path7359"
         stroke-miterlimit="4"
         inkscape:connector-curvature="0"
         style="fill:#fdf9d2;fill-rule:evenodd;stroke-width:0.75;stroke-miterlimit:4;stroke-dashoffset:0" />
      <path
         d="m 266.31162,243.20811 -1.22995,-3.27987 1.29827,-1.22995 -2.32324,-4.71482 4.37317,-3.89485 1.77658,-0.34166 0.88831,-1.84492 3.00656,0.20498 0.13666,1.57161 2.39157,2.86989 1.16162,2.32324 3.55319,5.05648 -1.16162,2.11825 -10.52292,4.98815 -2.59656,-3.82653 -0.75164,0 z"
         id="path7361"
         stroke-miterlimit="4"
         inkscape:connector-curvature="0"
         style="fill:#fdf9d2;fill-rule:evenodd;stroke-width:0.75;stroke-miterlimit:4;stroke-dashoffset:0" />
      <path
         d="m 331.77112,212.67583 -1.84363,-0.55819 -5.12482,8.06302 -3.14319,0.68331 -3.82653,4.6465 4.59973,3.96596 4.26999,-6.87844 6.99084,-5.92549 -1.14899,-2.17776 -0.7734,-1.81891 z"
         id="path7363"
         stroke-miterlimit="4"
         inkscape:connector-curvature="0"
         style="fill:#fdf9d2;fill-rule:evenodd;stroke-width:0.75;stroke-miterlimit:4;stroke-dashoffset:0" />
      <path
         d="m 331.79547,212.56351 0.53443,-3.57361 -7.85804,-0.79831 -7.10022,5.38576 3.46787,3.80175 -2.04993,2.66491 1.77661,1.63994 1.22995,-0.81998 3.07486,-0.54663 4.98816,-8.26802 1.93631,0.51419 z"
         id="path7365"
         stroke-miterlimit="4"
         inkscape:connector-curvature="0"
         style="fill:#fdf9d2;fill-rule:evenodd;stroke-width:0.75;stroke-miterlimit:4;stroke-dashoffset:0" />
      <path
         d="m 317.03772,213.57579 -5.33752,4.33887 -3.79377,2.16983 -3.52688,0.82151 -0.55438,1.52958 11.00122,7.17472 5.87646,-7.65303 -1.77661,-1.84494 1.84494,-2.73323 -3.73346,-3.80331 z"
         id="path7367"
         stroke-miterlimit="4"
         inkscape:connector-curvature="0"
         style="fill:#fdf9d2;fill-rule:evenodd;stroke-width:0.75;stroke-miterlimit:4;stroke-dashoffset:0" />
      <path
         d="m 317.90128,225.85213 -3.5532,4.57814 -0.13665,1.70826 -2.86988,0.27333 -1.22998,4.78315 -2.18658,-1.16162 -1.43494,0.47831 -1.09329,1.2983 4.4415,3.41652 1.50329,0.13665 1.77381,4.0448 3.05746,-2.5841 1.85324,-4.63599 0.23984,-3.79165 4.23374,-4.78177 -4.32502,-3.83068 -0.27334,0.0683 z"
         id="path7369"
         stroke-miterlimit="4"
         inkscape:connector-curvature="0"
         style="fill:#fdf9d2;fill-rule:evenodd;stroke-width:0.75;stroke-miterlimit:4;stroke-dashoffset:0" />
      <path
         d="m 301.07312,251.42384 2.57913,-0.0335 3.46607,-2.99189 -6.64136,-6.42031 -3.07489,-0.205 -2.73322,-2.86989 -0.47833,-2.73323 1.70828,-1.16162 -3.82653,-4.9198 -4.44147,2.86989 10.86456,13.46114 0.0683,3.21154 1.9816,0.88829 0.52783,0.90436 z"
         id="path7371"
         stroke-miterlimit="4"
         inkscape:connector-curvature="0"
         style="fill:#fdf9d2;fill-rule:evenodd;stroke-width:0.75;stroke-miterlimit:4;stroke-dashoffset:0" />
      <path
         d="m 294.19052,232.61685 2.59659,-3.75818 2.66488,-0.205 5.87644,9.01965 4.4415,3.62152 1.77661,0.13666 1.40008,3.65363 -3.46743,1.02496 -2.49479,2.23747 -6.50744,-6.30107 -3.00656,-0.13666 -2.73322,-2.80155 -0.61499,-2.86991 1.63996,-1.36661 -1.57163,-2.25491 z"
         id="path7373"
         stroke-miterlimit="4"
         inkscape:connector-curvature="0"
         style="fill:#fdf9d2;fill-rule:evenodd;stroke-width:0.75;stroke-miterlimit:4;stroke-dashoffset:0" />
      <path
         d="m 299.65698,228.927 3.9632,-6.28644 11.20621,7.1064 -0.54664,0.68331 0.0683,1.77659 -3.21154,0.34166 -0.88831,4.64649 -2.18658,-1.09329 -1.5716,0.40998 -0.8883,1.22995 -5.94477,-8.81465 z"
         id="path7375"
         stroke-miterlimit="4"
         inkscape:connector-curvature="0"
         style="fill:#fdf9d2;fill-rule:evenodd;stroke-width:0.75;stroke-miterlimit:4;stroke-dashoffset:0" />
      <path
         d="m 279.97775,229.74696 -0.0683,-3.55319 0.95664,-0.54664 -0.95664,-1.91327 0.34165,-1.70826 3.89486,-1.63993 -1.22995,-3.89486 -3.21154,-3.07489 -2.66492,0.27334 -0.81995,1.16162 -3.82653,-0.13668 0,-4.16816 8.678,-0.34165 7.78971,4.91982 6.21808,-1.02497 3.00656,5.32979 6.14975,1.43494 -0.27332,1.84492 -4.09985,5.7398 -3.00653,0.40998 -2.52826,3.68985 -2.32324,-2.4599 -4.30481,2.86989 -4.16819,-4.4415 -1.09329,-0.13665 -2.4599,1.3666 z"
         id="path7377"
         stroke-miterlimit="4"
         inkscape:connector-curvature="0"
         style="fill:#fdf9d2;fill-rule:evenodd;stroke-width:0.75;stroke-miterlimit:4;stroke-dashoffset:0" />
      <path
         d="m 234.12785,229.13199 1.98159,-0.13666 -0.0683,-3.48486 3.3482,-0.27333 5.39813,-5.46646 7.72136,-3.21154 5.60314,8.81465 3.07486,1.36663 2.4599,4.03151 -1.91324,0.6833 -7.99471,5.87643 1.02497,3.41655 -5.53478,3.82651 -2.6649,-2.93822 -0.20499,-1.84492 -4.71482,-2.45992 -7.51638,-8.19967 z"
         id="path7379"
         stroke-miterlimit="4"
         inkscape:connector-curvature="0"
         style="fill:#fdf9d2;fill-rule:evenodd;stroke-width:0.75;stroke-miterlimit:4;stroke-dashoffset:0" />
      <path
         d="m 249.22894,244.77972 4.78314,5.32979 1.36661,-0.20499 0.205,-2.39158 4.57818,1.36662 3.48483,-0.40999 1.16165,-1.77659 -0.61499,-1.84493 0.27332,-1.77659 1.84494,0 -1.0933,-3.00656 1.02497,-1.50328 -2.18659,-4.44149 1.50327,-1.36662 -1.50327,-1.98158 -2.39157,0.47831 -7.7897,6.01309 0.88829,3.41656 -5.53478,4.09983 z"
         id="path7381"
         stroke-miterlimit="4"
         inkscape:connector-curvature="0"
         style="fill:#fdf9d2;fill-rule:evenodd;stroke-width:0.75;stroke-miterlimit:4;stroke-dashoffset:0" />
      <path
         d="m 239.2366,172.67479 -34.11305,7.39714 0.71539,3.89346 12.16288,-1.98158 3.41653,16.67268 12.09453,-2.25489 0.54664,2.04991 2.06736,-0.40999 0.8172,-1.05843 7.36505,0.10179 -0.0683,2.11827 4.30482,-0.0683 -2.32322,-2.93822 -3.41655,-9.15631 -3.56925,-14.36549 z"
         id="path7385"
         stroke-miterlimit="4"
         inkscape:connector-curvature="0"
         style="fill:#fdf9d2;fill-rule:evenodd;stroke-width:0.75;stroke-miterlimit:4;stroke-dashoffset:0" />
      <path
         d="m 249.16061,199.13481 5.73976,5.87643 9.90798,5.7398 7.68372,-0.22243 -0.099,4.11726 3.84256,0.27472 0.87226,-1.16301 2.66491,-0.40999 3.00654,3.00657 1.29827,4.0315 -3.68985,1.63994 -0.40997,1.84493 0.75165,1.70826 -0.88831,0.54665 0.13666,3.82652 -3.3482,2.4599 -2.4599,-2.86988 -0.40998,-1.43496 -2.66491,-0.27331 -0.95664,1.91325 -1.77658,0.27333 -2.66492,2.59656 -1.43493,-1.70827 -0.81998,-0.27333 -2.11826,-3.89483 -3.34817,-1.43495 -5.60314,-8.81466 -7.72136,3.21154 -5.15827,5.14361 -2.76809,-13.82161 -1.63995,0.0684 -0.40997,-12.64119 1.50328,-0.34166 0.61497,-1.22995 7.44805,0.13666 0.20498,2.1866 4.71483,-0.0684 z"
         id="path7387"
         stroke-miterlimit="4"
         inkscape:connector-curvature="0"
         style="fill:#fdf9d2;fill-rule:evenodd;stroke-width:0.75;stroke-miterlimit:4;stroke-dashoffset:0" />
      <path
         d="m 13.56781,176.79411 2.8799,-1.31653 0.08228,1.81023 4.03186,-0.24686 3.291321,2.71534 -2.8799,2.96218 3.785009,1.23424 2.303921,-0.4114 0.411419,-2.3862 12.671572,-0.74054 0.493698,2.96217 28.881298,-1.64566 1.018776,17.10373 -4.975273,4.07091 -3.695808,-0.0279 -7.941662,-6.01431 -4.517159,2.3158 -6.003201,-6.91178 -8.588062,-1.52014 -3.817129,2.39806 -3.119099,0.062 -1.88904,-1.84926 -7.812681,-0.81097 -3.76129,-2.11563 -0.85075,-11.63747 z"
         id="path7389"
         stroke-miterlimit="4"
         inkscape:connector-curvature="0"
         style="fill:#fdf9d2;fill-rule:evenodd;stroke-width:0.75;stroke-miterlimit:4;stroke-dashoffset:0" />
      <path
         d="m 95.112808,202.40488 -7.490372,0.30835 -1.892509,-1.56337 -9.709389,0.0823 -2.718796,-3.63577 -2.700012,1.34791 -3.961441,-60.65856 1.234238,-2.05709 2.303925,0 1.151962,-1.48108 3.702736,0.16455 7.323174,-2.3039 1.234245,-1.4811 2.303925,0 5.019257,-5.18383 1.398811,-2.30392 1.892502,1.64566 2.386208,-2.46849 5.348388,0.9874 5.18382,-0.24685 6.7472,4.27871 8.14602,-4.19643 2.55076,-0.41141 1.39881,-2.71534 1.31653,-0.57598 4.36098,34.55883 17.44399,-2.46849 7.09586,46.80291 -7.67183,-0.47763 -9.38025,-10.1208 -0.57599,-2.96217 -5.84209,-3.04448 -13.94486,1.41414 -7.87197,-3.15049 -1.1401,0.66668 2.29553,3.92932 -4.88864,5.8224 -3.22946,3.12691 -4.579759,3.09283 0.363808,-3.28532 -2.151947,2.64146 -0.767731,3.26413 -1.685532,2.65804 z"
         id="path7391"
         stroke-miterlimit="4"
         inkscape:connector-curvature="0"
         style="fill:#fdf9d2;fill-rule:evenodd;stroke-width:0.75;stroke-miterlimit:4;stroke-dashoffset:0" />
      <path
         d="M 82.665939,5.95179 31.278761,74.571152 9.038941,97.269348 8.11677,176.15692 l 5.0388,-1.15152 0.28829,1.58563 3.02711,-1.08111 0.07208,1.58563 3.892,0 3.243328,2.30636 -2.73881,3.31542 3.603701,1.22526 2.45052,-0.43244 0.50452,-2.30638 12.612961,-0.79281 0.64867,2.88295 28.770172,-1.58563 -2.814957,-43.43542 1.000481,-2.04332 2.522606,0.0721 0.936958,-1.58563 3.891998,0.28828 7.42363,-2.23428 1.225258,-1.80187 2.018082,0.36039 5.333481,-5.26141 1.225258,-2.45052 1.873924,1.6577 2.378448,-2.52259 5.333481,1.22526 5.26141,-0.2883 6.55874,4.10823 8.50474,-4.10823 2.30637,-0.36037 1.44148,-2.81089 1.36941,-0.50452 1.58563,-4.90103 2.66673,-1.36941 2.59468,2.52259 4.03615,-0.0721 0.7928,-0.72074 1.87393,-0.0721 5.98217,4.03615 1.72976,2.81089 2.59467,0.86489 1.65771,1.22526 2.09015,0.2883 0.43244,0.57659 1.29733,-0.43245 1.65772,-3.3154 3.67578,-0.86489 4.90103,-3.81993 4.61273,-5.04519 0.86488,-3.45955 1.65772,-3.09919 4.03615,-2.52259 3.31539,-2.30637 1.29735,-2.522595 2.95503,-0.648666 2.2343,-3.315407 4.82897,-2.378456 -11.45978,-11.675995 -2.88297,0.07207 0.73786,-10.625053 -7.72904,-19.646065 -0.0721,-8.288521 2.16222,-1.009037 -3.74785,-8.432661 -2.07753,1.640589 -4.42175,-0.15271 -5.96953,-1.27166 -0.64867,0.64867 -24.00067,2.01807 -11.24356,-6.48667 -2.56899,0.118481 -7.99167,-4.02759 -6.44882,0.305408 -4.862752,-1.69599 -0.271179,-1.69149 -7.046593,-8.64889 -9.482819,-6.6707 z"
         id="path7393"
         stroke-miterlimit="4"
         inkscape:connector-curvature="0"
         style="fill:#fdf9d2;fill-rule:evenodd;stroke-width:0.75;stroke-miterlimit:4;stroke-dashoffset:0" />
      <path
         d="m 193.36175,91.23159 -5.29617,2.487717 -2.40124,3.396881 -2.98693,0.5271 -1.22989,2.811212 -7.26229,4.62679 -1.6399,2.75265 -0.87849,3.63115 -4.62679,5.32959 -4.86105,3.74828 -3.86542,0.8785 -1.52275,3.27975 -1.28846,0.46854 -0.58567,-0.70281 -1.99128,-0.1757 -1.63987,-1.11277 -2.69407,-0.8785 -1.63988,-2.69408 -6.2081,-4.45109 -1.69844,0.23427 -0.93707,0.8785 -3.86542,0 -2.69408,-2.51837 -2.57693,1.34704 -1.58132,5.15388 4.33396,34.20309 17.33581,-2.40124 0.8785,5.15389 11.53769,-1.34704 1.34703,5.97382 1.46418,-0.11713 0.23427,-0.93707 10.0735,-1.22992 1.52276,5.32959 13.52896,-2.57693 3.63115,16.63301 11.1277,-2.2841 0.5961,3.4401 34.36836,-7.30554 -17.5468,-64.1075 -5.51325,1.16614 -8.039,-4.4106 -9.02696,-9.390951 -2.12099,0.323486 -3.76145,-5.133636 z"
         id="path7395"
         stroke-miterlimit="4"
         inkscape:connector-curvature="0"
         style="fill:#fdf9d2;fill-rule:evenodd;stroke-width:0.75;stroke-miterlimit:4;stroke-dashoffset:0" />
      <path
         d="m 173.20155,182.56885 20.20078,-3.69342 -3.7688,-16.73348 -13.56767,2.56279 -1.50753,-5.20096 -10.02501,1.13065 -0.30149,1.05527 -1.28141,0 -1.5829,-5.87934 -11.30639,1.20603 6.08097,41.79254 5.77364,-1.53979 0.20555,5.65123 6.44811,7.287 -1.47915,5.87932 5.50831,2.13501 -0.45812,4.89944 -0.89865,2.86428 6.33157,0.006 9.31826,4.46774 4.34928,-2.03906 12.17127,0.88454 8.98491,-1.0578 0,-1.50753 -4.3718,-0.0754 -0.37687,-1.20601 1.47912,0 0.78604,-2.66458 1.37931,-0.1772 -0.12629,-1.7072 -0.929,-0.42975 -0.10179,-2.40811 2.26128,-0.37688 -0.3015,-2.93968 -1.13065,0 -0.15074,-5.05019 -10.10039,1.20603 -0.67839,-5.20096 -21.70828,3.69343 -5.12558,-26.83386 z"
         id="path7397"
         stroke-miterlimit="4"
         inkscape:connector-curvature="0"
         style="fill:#fdf9d2;fill-rule:evenodd;stroke-width:0.75;stroke-miterlimit:4;stroke-dashoffset:0" />
      <path
         id="path7383"
         d="m 231.59962,206.17288 -0.205,-2.86989 -1.77659,0.13666 -0.0683,1.91326 -3.34821,0.13665 -0.13666,2.93824 -2.6649,0.0683 -0.0683,4.16817 -4.09984,0.34166 0.40999,4.85147 -1.36662,0.27333 0,3.27987 0.88831,0.40998 -0.0684,1.57161 1.63996,0.13666 0.40997,1.57161 1.77659,0 -0.34164,-4.16817 1.16162,-1.22996 7.51637,-0.34165 0.20501,-1.16162 0.4783,0 0.0683,-1.43495 -0.68331,0 -0.34166,-4.57816 1.77661,-0.0683 -0.27333,-2.52822 -0.88829,0.0683 0,-3.48486 z m -20.73448,3.3927 0.0493,5.1243 1.18254,0.0986 0.39417,2.90704 -2.36507,0.44345 0.0493,2.41434 0.98546,0.49272 0.14781,1.57671 -1.47816,0.19708 -0.64053,2.6607 -1.57673,-0.14782 0.39418,1.33035 4.28669,0 0.0985,1.57671 5.91266,-0.44345 2.06942,1.9709 6.79956,0.0493 3.99103,-3.54761 2.75925,2.70998 2.22214,0.0985 0,-3.54596 3.49669,-0.34328 -2.86104,-13.99655 -1.77381,-0.19708 -0.24635,-12.71222 -0.83763,0.14782 -0.59126,-2.11871 -11.92386,2.3158 -3.30123,-16.65399 -12.21949,1.92161 -1.57671,-7.29227 -31.23854,5.91265 5.22285,26.90259 21.5812,-3.74468 0.88688,5.37067 10.1008,-1.47817 z"
         stroke-miterlimit="4"
         inkscape:connector-curvature="0"
         style="fill:#fdf9d2;fill-rule:evenodd;stroke-width:0.75;stroke-miterlimit:4;stroke-dashoffset:0" />
      <path
         d="m 231.62967,206.1683 -0.20499,-2.86988 -1.77659,0.13665 -0.0684,1.91327 -3.3482,0.13666 -0.13666,2.93822 -2.66489,0.0683 -0.0683,4.16816 -4.09985,0.34166 0.40999,4.85148 -1.36663,0.27333 0,3.27987 0.88831,0.40998 -0.0683,1.57161 1.63994,0.13667 0.40997,1.57161 1.77661,0 -0.34166,-4.16818 1.16162,-1.22995 7.51639,-0.34166 0.20499,-1.16163 0.4783,0 0.0683,-1.43493 -0.6833,0 -0.34166,-4.57816 1.7766,-0.0683 -0.27332,-2.52824 -0.8883,0.0683 0,-3.48487 z"
         id="path8383"
         stroke-miterlimit="4"
         inkscape:connector-curvature="0"
         style="fill:#fdf9d2;fill-rule:evenodd;stroke-width:0.75;stroke-miterlimit:4;stroke-dashoffset:0" />
      <path
         id="path9364"
         d="m 193.15645,234.83751 -2.15067,1.41629 0.68192,1.83594 2.15066,-0.26229 -0.68191,-2.98994 z m 3.72433,0 0.41964,2.83259 8.65513,0.15735 11.6451,3.04242 2.72767,-2.4654 -0.4721,-6.29464 -2.41294,0.99665 -2.04576,-1.94085 -2.57031,1.46875 -5.61273,0.36719 -1.94084,2.20313 -8.39286,-0.36719 z"
         stroke-miterlimit="4"
         inkscape:connector-curvature="0"
         style="fill:#fdf9d2;fill-rule:evenodd;stroke-width:0.75;stroke-miterlimit:4;stroke-dashoffset:0" />
      <path
         d="m 232.49797,306.38663 3.76434,3.30001 4.51584,-7.19415 9.34482,-0.67724 0,-2.71994 -0.78683,-1.10154 -2.20313,0.31473 -0.47211,-1.15402 -3.61941,0.20981 -5.7701,3.09488 -4.77342,5.92746 z"
         id="path9368"
         stroke-miterlimit="4"
         inkscape:connector-curvature="0"
         style="fill:#fdf9d2;fill-rule:evenodd;stroke-width:0.75;stroke-miterlimit:4;stroke-dashoffset:0" />
      <path
         d="m 232.49797,306.17679 4.66852,-5.71762 5.92746,-2.98996 3.09486,-0.15738 -1.0491,-2.78012 -1.83594,-0.20981 -0.83929,-1.83594 -2.15067,-1.94086 -5.45535,-1.20648 -2.46541,2.36051 -2.46541,-0.41965 1.41631,14.1105 1.15402,0.78681 z"
         id="path9370"
         stroke-miterlimit="4"
         inkscape:connector-curvature="0"
         style="fill:#fdf9d2;fill-rule:evenodd;stroke-width:0.75;stroke-miterlimit:4;stroke-dashoffset:0" />
    </g>
    <path
       stroke-linejoin="null"
       stroke-linecap="null"
       d="m 199.58062,209.39442 c 0,-2e-5 9.30771,12.52383 11.16925,19.41206 1.86158,6.88821 7.44611,13.07185 7.44611,16.59422 0,3.52237 -13.96153,18.3945 -14.03909,18.23795 -0.0776,-0.15656 -16.21086,21.68207 -16.21086,22.07346 0,0.39135 -15.12496,21.52548 -15.12496,21.52548 0,0 0,12.91528 -0.0776,12.75873 -0.0776,-0.15656 -8.06664,7.59265 -8.06664,7.98403 0,0.39139 1.93909,4.69651 2.32691,4.69651 0.38783,0 5.42947,-0.39142 5.35191,-0.54801 -0.0776,-0.15652 1.24101,-5.32263 1.16345,-5.47918 -0.0776,-0.15656 8.6096,-4.53992 8.53204,-4.69645 -0.0776,-0.15658 4.7314,-9.23642 4.65384,-9.39297 -0.0776,-0.15656 7.44614,-2.58304 7.83396,-2.58304 0.38784,0 13.18588,-0.78277 13.1083,-0.93933 -0.0775,-0.15652 0.0776,-6.10538 0.0776,-6.10538 0,0 20.16663,-5.08786 20.16663,-5.08786 0,0 -1.5513,-7.0447 -1.62885,-7.20129 -0.0775,-0.15656 -10.00577,0.93933 -10.08331,0.78278 -0.0775,-0.15656 -4.57627,-0.62619 -4.65387,-0.78278 -0.0776,-0.15656 8.99743,-15.10696 8.91989,-15.26352 -0.0776,-0.15659 21.79547,-10.41049 21.71786,-10.56705 -0.0776,-0.15658 3.18015,2.11341 3.10257,1.95685 -0.0776,-0.15658 10.16089,-4.14853 10.08332,-4.3051 -0.0776,-0.15654 -3.41278,-3.36578 -3.49039,-3.52235 -0.0776,-0.15654 11.32437,-6.10539 11.24676,-6.26196 -0.0776,-0.15654 7.44614,-8.06228 7.3686,-8.21882 -0.0775,-0.15657 8.60958,-14.71562 8.53204,-14.87217 -0.0776,-0.15656 6.28265,-5.71404 6.20511,-5.87058 -0.0775,-0.15657 -1.47373,-7.27952 -1.86154,-7.67091 -0.38782,-0.39137 -6.98075,-1.95686 -7.05832,-2.11344 -0.0775,-0.15654 -19.31342,12.6805 -19.31342,12.6805 0,0 -10.85895,0.78275 -10.93652,0.62619 -0.0776,-0.15657 -10.00574,-6.49676 -10.08332,-6.65334 -0.0776,-0.15655 -18.14993,-2.19168 -18.2275,-2.34825 -0.0776,-0.15654 -18.14997,-8.84498 -18.14997,-8.84498 z"
       id="Distribution_Mississaugas"
       inkscape:connector-curvature="0"
       style="opacity:0.75;fill:#0000ff;stroke:#0000ff;stroke-width:5;stroke-dasharray:none;filter:url(#svg_6_blur)" />
    <g
       id="Distribution_Odawa"
       style="filter:url(#svg_14_blur)"
       transform="translate(-50.66667,7.3333333)">
      <path
         stroke-linejoin="null"
         stroke-linecap="null"
         d="m 214.19849,200.15268 c 0,0 -14.50382,12.21374 -14.50382,12.21374 0,0 -7.25192,14.8855 -7.25192,14.8855 0,0 24.80916,-0.76336 24.73282,-0.91604 -0.0763,-0.15268 3.12979,3.20613 3.12979,3.20613 -2e-5,1e-5 5.3435,-0.76337 5.26716,-0.91605 -0.0763,-0.15269 4.27482,-2.90076 4.19848,-3.05343 -0.0763,-0.15268 11.52671,11.60305 11.52671,11.60305 0,0 4.58016,1.9084 4.58016,1.9084 0,0 7.2519,9.542 7.2519,9.542 0,1e-5 -2.67175,8.01525 -2.74809,7.86258 -0.0763,-0.15268 -4.12213,1.29769 -4.19847,1.14501 -0.0763,-0.15267 -6.03053,-3.66409 -6.10687,-3.81678 -0.0763,-0.1527 -3.35878,1.67939 -3.43512,1.52671 -0.0763,-0.15267 -9.08396,-10.15264 -9.08396,-10.15264 -1e-5,-2e-5 -5.34352,0.76335 -5.41986,0.61067 -0.0763,-0.15268 7.32825,9.31299 7.25191,9.16031 -0.0763,-0.15268 1.60306,6.25953 1.52672,6.10685 -0.0763,-0.15267 -4.12213,6.25956 -4.19847,6.10688 -0.0763,-0.15268 3.12977,22.2901 3.05343,22.13742 -0.0763,-0.15268 22.21375,-26.94657 22.21375,-26.94657 0,0 12.21374,-15.26716 12.21374,-15.26716 0,1e-5 2.29007,-14.12215 2.21372,-14.27483 -0.0764,-0.15268 -7.93891,-15.1145 -8.01526,-15.26718 -0.0764,-0.15268 -8.3206,-9.00763 -8.39694,-9.16031 -0.0763,-0.15268 -10.99236,6.64124 -10.99236,6.64124 0,0 -14.50381,-10.68702 -14.50381,-10.68702 -2e-5,-1e-5 -6.87024,-3.8168 -6.94658,-3.96948 -0.0763,-0.15268 -3.35877,-0.229 -3.35877,-0.229 z"
         id="svg_9"
         inkscape:connector-curvature="0"
         style="opacity:0.75;fill:#7fff00;stroke:#7fff00;stroke-width:0;stroke-dasharray:none" />
      <path
         stroke-linejoin="null"
         stroke-linecap="null"
         d="m 214.96184,231.45039 c 0,0 -3.43512,2.29007 -3.51146,2.13739 -0.0763,-0.15268 -4.88548,0.53437 -4.96182,0.38169 -0.0763,-0.15268 -9.84734,0.91603 -9.92368,0.76335 -0.0763,-0.15268 1.22139,2.44276 1.22139,2.44276 0,0 7.25191,0.38169 7.17557,0.22901 -0.0763,-0.1527 11.14503,3.20611 11.06869,3.05342 -0.0763,-0.1527 2.7481,-2.13739 2.67176,-2.29007 -0.0763,-0.15268 0.0763,-4.80915 0,-4.96184 -0.0763,-0.1527 -3.74045,-1.75571 -3.74045,-1.75571 z"
         id="svg_10"
         inkscape:connector-curvature="0"
         style="opacity:0.75;fill:#7fff00;stroke:#7fff00;stroke-width:0;stroke-dasharray:none" />
      <path
         stroke-linejoin="null"
         stroke-linecap="null"
         d="m 189.771,234.12215 c 0,0 -1.14504,3.81679 -1.22138,3.6641 -0.0763,-0.15267 3.51146,0.91605 3.4351,0.76337 -0.0764,-0.15268 1.22139,-3.28244 1.14505,-3.43512 -0.0763,-0.15268 -3.35878,-0.99235 -3.35878,-0.99235 z"
         id="svg_12"
         inkscape:connector-curvature="0"
         style="opacity:0.75;fill:#7fff00;stroke:#7fff00;stroke-width:0;stroke-dasharray:none" />
      <path
         stroke-linejoin="null"
         stroke-linecap="null"
         d="m 172.59543,244.42749 c 0,0 -4.19847,0 -4.27481,-0.15268 -0.0763,-0.15268 -3.35878,4.73283 -3.43512,4.58015 -0.0763,-0.15267 3.89312,4.35116 3.81678,4.19848 -0.0763,-0.15268 -4.50381,2.44274 -4.58015,2.29007 -0.0763,-0.15268 -1.06869,10.07635 -1.14503,9.92367 -0.0763,-0.15268 -2.9771,1.2977 -3.05344,1.14502 -0.0763,-0.15268 -1.0687,-6.33584 -1.14504,-6.48852 -0.0763,-0.15268 -5.26716,5.49618 -5.3435,5.3435 -0.0763,-0.15268 0.0763,3.20612 0,3.05344 -0.0763,-0.15268 -2.21375,4.35113 -2.29009,4.19845 -0.0763,-0.15267 0.83971,7.78629 0.76337,7.63361 -0.0763,-0.15268 -1.83206,5.49619 -1.9084,5.34351 -0.0763,-0.15268 9.23665,1.67938 9.16031,1.5267 -0.0763,-0.15268 7.32825,6.64123 7.25191,6.48856 -0.0763,-0.15268 12.67175,13.12979 12.59541,12.97711 -0.0763,-0.15268 11.52673,12.36642 11.52673,12.36642 0,0 -0.38168,9.16031 -0.38168,9.16031 0,0 16.79388,-0.38168 16.71754,-0.53436 -0.0763,-0.15268 5.41986,-3.66413 5.34352,-3.8168 -0.0763,-0.15268 -1.06869,-4.80915 -1.14505,-4.96183 -0.0763,-0.15268 3.89315,-10.91604 3.81681,-11.06872 -0.0763,-0.15268 3.89312,0.15268 3.81679,0 -0.0763,-0.15268 1.60307,-9.77097 1.60307,-9.77097 -2e-5,0 -2.67177,-2.67175 -2.74811,-2.82443 -0.0763,-0.15268 -3.74045,-5.95419 -3.81679,-6.10687 -0.0763,-0.15268 -0.68702,-4.80915 -0.76336,-4.96186 -0.0763,-0.15271 -3.35877,-1.7557 -3.35877,-2.13736 0,-0.38165 -3.05344,-5.34353 -3.12978,-5.49621 -0.0763,-0.15268 -5.64884,4.73285 -5.64884,4.73285 0,0 0.38166,3.43508 0.30532,3.28241 -0.0763,-0.15268 -4.12213,5.49621 -4.19847,5.34353 -0.0763,-0.15268 -4.50381,-4.80917 -4.58015,-4.96185 -0.0763,-0.15268 0.0763,-2.51907 0,-2.67175 -0.0763,-0.15268 6.56489,-7.86258 6.48855,-8.01526 -0.0763,-0.15268 -1.06869,-8.62595 -1.14503,-8.77863 -0.0763,-0.15268 -3.74046,-8.24426 -3.8168,-8.39694 -0.0763,-0.15268 2.74809,-1.75572 2.67175,-1.9084 -0.0763,-0.15268 -6.03052,-4.80916 -6.10687,-4.96184 -0.0764,-0.15268 -7.93892,-2.13739 -8.01526,-2.29007 -0.0763,-0.15269 -2.9771,-2.1374 -3.05344,-2.29008 -0.0763,-0.15268 -4.12213,0.91604 -4.19847,0.76336"
         id="svg_13"
         inkscape:connector-curvature="0"
         style="opacity:0.75;fill:#7fff00;stroke:#7fff00;stroke-width:0;stroke-dasharray:none" />
    </g>
    <path
       stroke-linejoin="null"
       stroke-linecap="null"
       d="m 187.75563,180.76845 c -9.65883,5.94674 -20.76648,18.75509 -20.86309,18.5721 -0.0966,-0.18298 0.57955,9.33184 1.06247,9.33184 0.48296,-2e-5 16.90296,9.14881 16.80637,8.96583 -0.0966,-0.183 13.13599,-0.27446 13.0394,-0.45746 -0.0966,-0.18298 0.0966,-7.5935 0,-7.77649 -0.0966,-0.18298 -6.66457,-18.57211 -6.66457,-18.57211 0,0 -3.38058,-10.0637 -3.38058,-10.0637 z"
       id="Distribution_Nipissing"
       inkscape:connector-curvature="0"
       style="opacity:0.75;fill:#7f007f;stroke:#7f007f;stroke-width:2;stroke-dasharray:none;filter:url(#svg_5_blur)" />
    <path
       d="m 279.16031,125.58629 c -19.31296,16.69613 -38.62595,49.29335 -38.62595,49.29335 0,0 6.68526,26.23678 6.68526,26.23678 0,0 13.37053,11.52829 13.37053,11.52829 0,0 17.82736,1.98763 17.82736,1.98763 0,0 15.97037,4.77032 15.97037,4.77032 0,0 8.54226,5.56537 8.46796,5.40636 -0.0743,-0.15901 14.55898,-8.9841 14.48474,-9.14313 -0.0743,-0.15901 12.70199,-8.98408 12.70199,-8.98408 0,0 7.0567,-40.54776 7.0567,-40.54776 0,0 -3e-5,-42.5354 -0.0743,-42.69442 -0.0743,-0.15901 -15.89608,-12.56184 -15.89608,-12.56184 0,0 -24.88401,-0.79506 -24.95832,-0.95408 -0.0743,-0.15902 -17.01025,15.66258 -17.01025,15.66258 z"
       id="Distribution_Algonquin"
       inkscape:connector-curvature="0"
       style="opacity:0.75;fill:#007f00;stroke:#007f00;stroke-width:2;filter:url(#svg_3_blur)"
       transform="matrix(1.1143853,0,0,0.99918521,-80.673403,7.469703)" />
    <path
       stroke-linejoin="null"
       stroke-linecap="null"
       d="m 44.06616,155.95928 c 0,0 -46.5648883,39.31299 -46.5648883,39.31299 0,0 -15.2671697,23.66412 -15.2671697,23.66412 0,0 -4.580158,41.98473 -4.198479,41.98473 0.38168,0 36.641224,3.8168 36.564884,3.66412 -0.07635,-0.15268 34.809167,0.15268 34.809167,0.15268 0,0 31.29771,-1.14505 31.22137,-1.29773 -0.0763,-0.15268 4.656503,-7.09923 4.580163,-7.2519 -0.0763,-0.15268 2.36641,-0.99236 2.29007,-1.14504 -0.0763,-0.15269 3.12977,3.20612 3.05343,3.05342 -0.0763,-0.15269 6.94657,-6.33586 6.87023,-6.48854 -0.0763,-0.15268 9.236653,-4.80916 9.160313,-4.96184 -0.0763,-0.15268 12.29008,2.06108 12.21374,1.9084 -0.0763,-0.15268 12.29009,-4.42747 12.21373,-4.58015 -0.0764,-0.15268 4.6565,-2.51907 4.58016,-2.67175 -0.0763,-0.15268 -4.12214,-3.28243 -4.12214,-3.28243 0,-1e-5 -11.45037,-1.14505 -11.52671,-1.29773 -0.0763,-0.15268 -5.26717,0.15268 -5.34351,0 -0.0763,-0.15268 -2.59541,-6.33586 -2.59541,-6.33586 0,0 -18.702303,3.43512 -18.320623,3.43512 0.38168,2e-5 -4.19847,6.10686 -4.27481,5.95418 -0.0763,-0.15268 -6.793903,1.29771 -6.870243,1.14503 -0.0763,-0.15267 -15.19083,-6.71754 -15.26717,-6.87022 -0.0763,-0.15268 -3.74045,-0.99235 -3.81679,-1.14503 -0.0763,-0.15268 -1.0687,2.44274 -1.14504,2.29007 -0.0763,-0.15268 -2.59542,-5.19083 -2.67176,-5.34351 -0.0763,-0.15268 8.47329,-9.3893 8.47329,-9.3893 0,-1e-5 -4.19848,-0.76336 -4.27481,-0.91604 -0.0763,-0.15268 -7.93893,8.16793 -8.01527,8.01526 -0.0763,-0.15268 -10.992358,9.69467 -10.992358,9.69467 0,0 -21.374053,5.72519 -21.450393,5.57251 -0.07634,-0.15268 -0.305336,-7.09923 -0.381676,-7.25191 -0.07634,-0.15268 -15.1908353,7.78627 -15.2671753,7.63359 -0.07634,-0.15269 -3.35878,-2.90075 -3.43512,-3.05343 -0.07634,-0.15268 5.419849,-3.28243 5.3435097,-3.43512 -0.07634,-0.15268 17.2519206,-18.54961 17.2519206,-18.54961 0,0 7.633583,-1.9084 7.557243,-2.06108 -0.07634,-0.15268 7.328247,-6.33586 7.251907,-6.48856 -0.07634,-0.15269 3.129783,-5.95418 3.053443,-6.10684 -0.07634,-0.15271 2.7481,-4.42749 2.671761,-4.58017 -0.07635,-0.15268 1.221367,5.1145 1.145027,4.96182 -0.07634,-0.15266 3.893141,-2.51907 3.816791,-2.67175 -0.0763,-0.15268 2.36642,-9.3893 2.29008,-9.54198 -0.0763,-0.15266 1.22138,5.49619 1.14504,5.34351 -0.0763,-0.15268 5.03817,-5.95419 4.96183,-6.10687 -0.0763,-0.15268 -1.83207,-3.28243 -1.9084,-3.43512 -0.0763,-0.1527 7.70993,1.67941 7.6336,1.52673 -0.0763,-0.15271 14.58016,0.15268 14.5038,0 -0.0764,-0.15271 6.946583,7.0229 6.870243,6.87022 -0.0763,-0.15268 9.23665,8.54963 9.16031,8.39695 -0.0763,-0.15268 7.709933,1.29772 7.709933,1.29772 0,-1e-5 5.3435,-2.29008 5.26716,-2.44276 -0.0763,-0.15268 1.60306,6.25955 1.52672,6.10687 -0.0763,-0.15266 7.32825,8.54963 7.32825,8.54963 0,0 -2.67175,4.96183 -2.67175,4.96183 0,0 4.96182,3.05344 4.88548,2.90076 -0.0763,-0.15269 -0.30533,6.64122 -0.38168,6.48854 -0.0764,-0.15268 5.80154,-0.229 5.7252,-0.38168 -0.0763,-0.15268 8.85496,5.11453 8.77863,4.96184 -0.0763,-0.15268 5.80152,-2.13739 5.72518,-2.29007 -0.0763,-0.1527 4.27482,-12.06107 4.19848,-12.21375 -0.0763,-0.15268 16.48855,-14.73282 16.48855,-14.73282 0,0 1.14504,-8.77862 1.0687,-8.9313 -0.0763,-0.15268 -28.16794,-7.09923 -28.24428,-7.25191 -0.0763,-0.15268 -22.44274,-11.2977 -22.44274,-11.2977 0,0 -26.717563,-12.21374 -26.717563,-12.21374 0,0 -25.954203,-9.92366 -25.954203,-9.92366 0,0 -2.67176,1.14503 -2.7481,0.99235 -0.0763,-0.15268 0.83971,5.49619 0.76336,5.34351 -0.0763,-0.15268 0.45803,6.64123 0.45803,6.64123 0,0 -0.38168,3.81679 -0.45803,3.66411 -0.0763,-0.15268 -4.12214,0.91605 -4.19848,0.76337 -0.0763,-0.15268 -4.503804,-1.37404 -4.580144,-1.52672 -0.07634,-0.15268 -3.358772,-2.51907 -3.435112,-2.67175 -0.07634,-0.15268 -1.832062,-2.90076 -1.908401,-3.05344 -0.07634,-0.15268 5.03817,-3.28244 5.03817,-3.28244 0,0 -1.908394,-4.19847 -1.984734,-4.35115 -0.07635,-0.15268 7.709921,-2.51907 7.633581,-2.67175 -0.0763,-0.15268 2.7481,-2.51908 2.7481,-2.51908 0,0 -12.595419,0.76335 -12.595419,0.76335 z"
       id="Distribution_Chippewa_Ojibwa"
       inkscape:connector-curvature="0"
       style="opacity:0.75;fill:#ff00ff;stroke:#ff00ff;stroke-width:0;stroke-dasharray:none;filter:url(#Distribution_Chippewa_Ojibwa_blur)" />
    <path
       stroke-linejoin="null"
       stroke-linecap="null"
       d="m 0.8397,136.79391 c 0,0 53.312831,5.50135 53.226851,5.31794 -0.086,-0.18341 28.462166,14.85362 28.376183,14.67024 -0.08601,-0.1834 -27.000374,33.64984 -27.086365,33.46646 -0.08599,-0.18339 -16.251808,23.56407 -16.337811,23.38069 -0.08599,-0.18341 -10.232618,37.31742 -10.318609,37.13402 C 28.61396,250.57988 1.26964,244.52843 1.18365,244.34503 1.09766,244.16164 0.8397,136.79392 0.8397,136.79392 z"
       id="Distribution_Chippewa_Salteaux"
       inkscape:connector-curvature="0"
       style="opacity:0.75;fill:#ff0000;stroke:#ff0000;stroke-width:0;stroke-dasharray:none;filter:url(#svg_17_blur)"
       transform="matrix(1.0378318,0,0,1,-54.33949,7.3333333)" />
    <path
       stroke-linejoin="null"
       stroke-linecap="null"
       d="m 1.98474,107.16589 c 0,0 26.297521,-0.88222 26.21783,-1.05867 -0.07969,-0.17647 35.939962,8.99862 35.860258,8.82215 -0.07969,-0.17646 41.518222,0.61757 41.438522,0.44112 -0.0797,-0.17645 35.14307,1.94088 35.54151,1.94088 0.39844,0 21.51616,13.67436 21.43646,13.49793 -0.0797,-0.17647 10.0409,15.17413 10.43935,15.61525 0.39844,0.44111 17.53166,22.49652 17.93012,23.37873 0.39845,0.88224 1.19534,12.79215 1.59379,12.79215 0.39845,0 -29.08665,-6.17551 -29.08665,-6.17551 0,0 -43.43078,-16.32103 -43.51047,-16.49748 -0.0797,-0.17645 -21.038019,-9.08682 -21.117708,-9.26326 -0.0797,-0.17647 -11.076843,9.88083 -11.156525,9.70438 -0.0797,-0.17646 -16.25666,-3.79354 -16.336349,-3.96999 -0.07969,-0.17645 -25.022488,-9.96904 -25.102177,-10.14549 -0.07969,-0.17646 -31.796102,-2.02909 -31.875792,-2.20552 -0.07969,-0.17647 -11.07683,-0.26468 -11.15653,-0.44112 -0.07969,-0.17647 -1.11565,-36.43555 -1.11565,-36.43555 l 1e-5,0 z"
       id="Distribution_Oji-Cree"
       inkscape:connector-curvature="0"
       style="opacity:0.75;fill:#ff7f00;stroke:#ff7f00;stroke-width:0;stroke-dasharray:none;filter:url(#Distribution_Oji-Cree_blur)"
       transform="matrix(1.026022,0,0,1,-55.99302,7.3333333)" />
    <g
       id="layer11"
       display="inline"
       style="display:inline"
       transform="translate(-50.66667,7.3333333)">
      <path
         d="m 13.6253,176.61204 2.76143,-1.029 0.25592,1.66502 4.346169,0 2.650101,2.16399 -2.5441,3.2165 3.485279,1.42197 L 27,183.56441 l 0.561069,-2.39418 12.402481,-0.74204 0.742031,2.84924 28.771027,-1.5151"
         id="path5345"
         inkscape:connector-curvature="0"
         style="fill:none;stroke:#d0c0a0;stroke-width:1px" />
      <path
         d="m 70.758682,199.05145 -1.274254,-17.4648"
         id="path5347"
         inkscape:connector-curvature="0"
         style="fill:none;stroke:#d0c0a0;stroke-width:1px" />
      <path
         d="m 69.484428,181.88649 -2.773392,-43.39966 1.124352,-2.32365 2.473549,0.22487 0.899483,-1.8739 3.298073,0.52468 7.795448,-2.09877 1.349213,-1.94886 1.94886,0.37478 5.396843,-5.02206 1.124352,-2.69843 2.098785,1.49913 2.39859,-2.24869 5.097026,1.04939 5.54676,-0.29983 6.59615,4.1226 8.17023,-3.97269 2.47355,-0.44973 1.49913,-2.99825 0.89947,-0.14991"
         id="path5351"
         inkscape:connector-curvature="0"
         style="fill:none;stroke:#d0c0a0;stroke-width:1px" />
      <path
         d="m 127.20073,120.27246 1.64903,-5.17198 2.62348,-1.49912 2.32363,2.54851 4.34746,0.075 0.74958,-0.74957 1.79895,-0.22487 6.22135,4.34747 1.87391,2.69842 2.5485,0.89947 1.34923,1.1993 1.94885,-0.14991 0.52469,0.89948 1.64904,-0.44974 1.49913,-3.22312 3.5979,-0.74956 5.17198,-4.04763 4.42242,-5.09703 0.97443,-3.5979 1.49913,-2.62347 7.34572,-4.94711 1.34919,-2.698427 3.14817,-0.674599 2.02382,-3.073212 4.34745,-2.173729"
         id="path5355"
         inkscape:connector-curvature="0"
         style="fill:none;stroke:#d0c0a0;stroke-width:1px" />
      <path
         d="m 149.91246,157.07597 -0.89947,-5.17198 c 0,0 -17.31488,2.77338 -17.31488,2.47356 0,-0.29984 -4.49739,-34.40491 -4.49739,-34.40491"
         id="path5357"
         inkscape:connector-curvature="0"
         style="fill:none;stroke:#d0c0a0;stroke-width:1px" />
      <path
         d="m 156.20879,198.22694 -6.29631,-41.15097"
         id="path5359"
         inkscape:connector-curvature="0"
         style="fill:none;stroke:#d0c0a0;stroke-width:1px" />
      <path
         d="m 193.31212,178.36356 -3.7478,-16.26552 -13.49213,2.62347 -1.57408,-5.24695 -9.89421,1.12435 -0.44976,1.19929 -1.04937,-0.1499 -1.724,-5.92154 -11.69316,1.34921"
         id="path5361"
         inkscape:connector-curvature="0"
         style="fill:none;stroke:#d0c0a0;stroke-width:1px" />
      <path
         d="m 205.08025,180.08754 -0.74956,-3.5979 -11.39334,2.24869"
         id="path5363"
         inkscape:connector-curvature="0"
         style="fill:none;stroke:#d0c0a0;stroke-width:1px" />
      <path
         d="m 238.43578,172.81677 -33.43049,7.27077"
         id="path5365"
         inkscape:connector-curvature="0"
         style="fill:none;stroke:#d0c0a0;stroke-width:1px" />
      <path
         d="m 205.15521,180.16249 0.67459,3.82277 12.36779,-2.09879 3.22312,16.71524 c 0,0 11.93091,-2.31077 11.91803,-2.24867 -0.0215,0.10379 0.74956,2.17372 0.74956,2.17372 l 0.74957,-0.15352 0.22117,12.79512 1.67669,-0.0357 2.71128,13.34225"
         id="path5367"
         inkscape:connector-curvature="0"
         style="fill:none;stroke:#d0c0a0;stroke-width:1px" />
      <path
         d="m 192.93735,178.73833 -19.86341,3.89772 5.17199,26.98423 21.66233,-3.82276 0.82453,5.24694 10.04414,-1.42418 0.075,5.17199 1.34922,-0.075 0.14991,2.92329 -2.24868,0.44974 -0.075,2.17372 1.04939,0.74957 0.14991,1.64903 -1.27427,0.075 -0.97441,2.84833 -1.34923,-0.1499 0.29984,1.27424 4.34746,-0.075 0.14992,1.57408"
         id="path5369"
         inkscape:connector-curvature="0"
         style="fill:none;stroke:#d0c0a0;stroke-width:1px" />
      <path
         d="m 219.09708,212.84341 0.52468,5.09702 -1.42417,0.29983 0.075,2.99825 0.89948,0.6746 -0.075,1.57407 1.79895,0.075 0.22486,1.57408 2.02381,0 -0.44972,-4.12259 1.12433,-1.27426 7.57058,-0.37477 0.22487,-1.0494 0.59966,-0.22487 -0.075,-1.34921 -0.82452,-0.14992 -0.29982,-4.42241 1.79895,-0.14991 -0.22487,-2.32364 -0.89948,-0.14992 0.14992,-3.14816 -0.44974,-3.0732 -1.64905,-0.075 -0.22486,2.24869 -3.14817,0 -0.37477,2.84835 -2.54851,0.22485 -0.075,4.04765 -4.27249,0.22487 z"
         id="path5371"
         inkscape:connector-curvature="0"
         style="fill:none;stroke:#d0c0a0;stroke-width:1px" />
      <path
         d="m 234.66663,198.3969 1.49832,-0.35674 0.57078,-1.24861 7.52732,0.2854 0.24974,1.99777 3.35338,0"
         id="path5373"
         inkscape:connector-curvature="0"
         style="fill:none;stroke:#d0c0a0;stroke-width:1px" />
      <path
         d="m 233.41801,229.29098 2.74694,-0.32105 0.10702,-3.49611 3.6388,-0.85619"
         id="path5377"
         inkscape:connector-curvature="0"
         style="fill:none;stroke:#d0c0a0;stroke-width:1px" />
      <path
         d="m 263.4559,230.75365 -2.14044,-4.0669 -3.3891,-1.46264 -5.52953,-8.70458 -7.70568,3.24637 -5.10144,5.0301"
         id="path5379"
         inkscape:connector-curvature="0"
         style="fill:none;stroke:#d0c0a0;stroke-width:1px" />
      <path
         d="m 248.86507,245.0591 5.92195,-4.31661 -0.99889,-3.35341 7.8127,-6.24302 2.1048,-0.35674"
         id="path5381"
         inkscape:connector-curvature="0"
         style="fill:none;stroke:#d0c0a0;stroke-width:1px" />
      <path
         d="m 265.73908,232.75142 -1.49833,-1.78372 -0.8562,-0.24973"
         id="path5383"
         inkscape:connector-curvature="0"
         style="fill:none;stroke:#d0c0a0;stroke-width:1px" />
      <path
         d="m 272.48154,211.06134 -0.0356,3.71014 3.78147,0.21405 0.74917,-1.21293 2.78263,-0.4281 3.10366,3.068 1.28427,3.99555 -3.74581,1.6767 -0.46375,1.78372 0.89185,1.67669 -0.8562,0.64216 0.0357,3.60311"
         id="path5385"
         inkscape:connector-curvature="0"
         style="fill:none;stroke:#d0c0a0;stroke-width:1px" />
      <path
         d="m 265.63205,232.68005 c 0.1427,-0.0357 2.961,-2.67556 2.961,-2.67556 l 1.534,-0.24973 0.92752,-1.8194 2.60424,0.10701 0.60648,1.71239 2.42584,2.78261"
         id="path5387"
         inkscape:connector-curvature="0"
         style="fill:none;stroke:#d0c0a0;stroke-width:1px" />
      <path
         d="m 276.40573,232.7514 3.85284,-2.96096"
         id="path5389"
         inkscape:connector-curvature="0"
         style="fill:none;stroke:#d0c0a0;stroke-width:1px" />
      <path
         d="m 265.73908,232.57304 -1.6157,1.45993 2.17298,4.6317 -1.0567,1.32866 1.24859,3.28204"
         id="path5391"
         inkscape:connector-curvature="0"
         style="fill:none;stroke:#d0c0a0;stroke-width:1px" />
      <path
         d="m 280.25857,229.93314 1.9621,-1.56969 1.21295,0.10702 4.20957,4.70903"
         id="path5393"
         inkscape:connector-curvature="0"
         style="fill:none;stroke:#d0c0a0;stroke-width:1px" />
      <path
         d="m 294.06461,232.35899 c -0.39243,-0.2854 -2.03345,-2.39019 -2.03345,-2.39019 l -4.74469,3.4961"
         id="path5395"
         inkscape:connector-curvature="0"
         style="fill:none;stroke:#d0c0a0;stroke-width:1px" />
      <path
         d="m 299.98657,228.5775 -3.21072,0.24972 -2.81827,4.03122"
         id="path5397"
         inkscape:connector-curvature="0"
         style="fill:none;stroke:#d0c0a0;stroke-width:1px" />
      <path
         d="m 304.12479,221.65665 -0.107,0.99888"
         id="path5399"
         inkscape:connector-curvature="0"
         style="fill:none;stroke:#d0c0a0;stroke-width:1px" />
      <path
         d="m 299.62982,228.75587 4.49497,-6.27871"
         id="path5401"
         inkscape:connector-curvature="0"
         style="fill:none;stroke:#d0c0a0;stroke-width:1px" />
      <path
         d="m 331.62982,212.52399 c -0.1427,0 -1.6767,-0.53511 -1.6767,-0.53511 l -5.17282,8.31215 -3.03231,0.67781 -0.99887,0.74916"
         id="path5403"
         inkscape:connector-curvature="0"
         style="fill:none;stroke:#d0c0a0;stroke-width:1px" />
      <path
         d="m 317.46704,213.84393 3.28208,3.53179 -1.71238,2.71125 1.6767,1.74807"
         id="path5405"
         inkscape:connector-curvature="0"
         style="fill:none;stroke:#d0c0a0;stroke-width:1px" />
      <path
         d="m 318.10919,225.36681 2.74695,-3.60312"
         id="path5407"
         inkscape:connector-curvature="0"
         style="fill:none;stroke:#d0c0a0;stroke-width:1px" />
      <path
         d="m 322.63986,229.50503 c -0.1427,-0.1427 -4.53067,-3.88851 -4.53067,-3.88851"
         id="path5409"
         inkscape:connector-curvature="0"
         style="fill:none;stroke:#d0c0a0;stroke-width:1px" />
      <path
         d="m 314.86282,229.71909 c 0.1427,-0.0713 3.42475,-4.56633 3.42475,-4.56633"
         id="path5411"
         inkscape:connector-curvature="0"
         style="fill:none;stroke:#d0c0a0;stroke-width:1px" />
      <path
         d="m 304.19614,222.83391 10.63101,6.88518"
         id="path5413"
         inkscape:connector-curvature="0"
         style="fill:none;stroke:#d0c0a0;stroke-width:1px" />
      <path
         d="m 305.69449,237.71016 0.85617,-1.21294 1.56967,-0.39241 c 0,0 1.99777,0.89186 2.03345,0.96321 0,0 1.07025,-4.56633 1.07025,-4.56633 l 3.21069,-0.24972 -0.24972,-1.74805 0.74917,-0.89186"
         id="path5415"
         inkscape:connector-curvature="0"
         style="fill:none;stroke:#d0c0a0;stroke-width:1px" />
      <path
         d="m 299.6655,228.75587 5.81494,8.95429"
         id="path5417"
         inkscape:connector-curvature="0"
         style="fill:none;stroke:#d0c0a0;stroke-width:1px" />
      <path
         d="m 305.37341,237.63881 4.42362,3.71014 1.85507,0.10703 1.03458,3.17503"
         id="path5421"
         inkscape:connector-curvature="0"
         style="fill:none;stroke:#d0c0a0;stroke-width:1px" />
      <path
         d="m 293.95758,232.35899 1.78372,2.53289 -1.53399,1.31994 0.64212,3.03234 2.6564,2.60383 3.01202,0.19673 5.85443,5.76133"
         id="path5424"
         inkscape:connector-curvature="0"
         style="fill:none;stroke:#d0c0a0;stroke-width:1px" />
      <path
         d="m 287.89291,233.50058 10.73801,12.9855 -0.10702,2.99666 1.89077,1.07022 0.8205,1.03456"
         id="path5426"
         inkscape:connector-curvature="0"
         style="fill:none;stroke:#d0c0a0;stroke-width:1px" />
      <path
         d="m 293.17273,258.00894 0.7135,-1.9621 1.89075,-1.85508 3.24636,0.1427 0.53513,-0.74916"
         id="path5428"
         inkscape:connector-curvature="0"
         style="fill:none;stroke:#d0c0a0;stroke-width:1px" />
      <path
         d="m 292.03116,257.83057 -2.63993,-3.28206 1.60538,-1.89075 -2.35452,-2.67558"
         id="path5430"
         inkscape:connector-curvature="0"
         style="fill:none;stroke:#d0c0a0;stroke-width:1px" />
      <path
         d="m 276.69113,232.57304 1.1416,2.42588 3.4961,4.88739"
         id="path5432"
         inkscape:connector-curvature="0"
         style="fill:none;stroke:#d0c0a0;stroke-width:1px" />
      <path
         d="m 288.67777,250.05353 -7.38462,-10.2029"
         id="path5434"
         inkscape:connector-curvature="0"
         style="fill:none;stroke:#d0c0a0;stroke-width:1px" />
      <path
         d="m 278.72458,260.54181 2.28317,-1.17725 7.24191,-9.56076"
         id="path5436"
         inkscape:connector-curvature="0"
         style="fill:none;stroke:#d0c0a0;stroke-width:1px" />
      <path
         d="m 281.18613,240.02901 -0.8562,2.0691 -7.70569,3.49611"
         id="path5438"
         inkscape:connector-curvature="0"
         style="fill:none;stroke:#d0c0a0;stroke-width:1px" />
      <path
         d="m 278.11813,260.43478 2.03342,2.6756"
         id="path5440"
         inkscape:connector-curvature="0"
         style="fill:none;stroke:#d0c0a0;stroke-width:1px" />
      <path
         d="m 272.12479,245.55855 1.1416,2.71126 3.60312,4.10257 0.89187,1.31994 -0.0357,2.74692 -1.07025,0.78485 1.60534,3.38907"
         id="path5442"
         inkscape:connector-curvature="0"
         style="fill:none;stroke:#d0c0a0;stroke-width:1px" />
      <path
         d="m 266.09582,243.09701 1.14158,0.24971 2.46154,3.81717 3.1037,-1.64102"
         id="path5444"
         inkscape:connector-curvature="0"
         style="fill:none;stroke:#d0c0a0;stroke-width:1px" />
      <path
         d="m 263.884,248.34116 c 0.0357,-0.1427 1.03458,-1.67672 1.03458,-1.67672 l -0.67783,-1.85505 0.24973,-1.74807 1.74805,0.10703"
         id="path5446"
         inkscape:connector-curvature="0"
         style="fill:none;stroke:#d0c0a0;stroke-width:1px" />
      <path
         d="m 253.60976,250.0892 1.85508,-0.24972 0.24971,-2.21183 4.35228,1.28429 3.95987,-0.64214"
         id="path5448"
         inkscape:connector-curvature="0"
         style="fill:none;stroke:#d0c0a0;stroke-width:1px" />
      <path
         d="m 278.01108,260.82721 c -0.0713,0 -3.03232,1.28427 -3.03232,1.28427 l -0.67779,-2.28314 -3.60315,0.57077 -3.10367,-5.92195"
         id="path5450"
         inkscape:connector-curvature="0"
         style="fill:none;stroke:#d0c0a0;stroke-width:1px" />
      <path
         d="m 263.95535,248.26981 3.71015,6.2787"
         id="path5452"
         inkscape:connector-curvature="0"
         style="fill:none;stroke:#d0c0a0;stroke-width:1px" />
      <path
         d="m 263.91968,255.58307 3.28204,-1.46265"
         id="path5458"
         inkscape:connector-curvature="0"
         style="fill:none;stroke:#d0c0a0;stroke-width:1px" />
      <path
         d="m 268.48602,267.39133 -3.60312,-5.56522 1.56964,-2.74695 -2.74691,-3.38907"
         id="path5460"
         inkscape:connector-curvature="0"
         style="fill:none;stroke:#d0c0a0;stroke-width:1px" />
      <path
         d="m 258.88959,268.03345 1.78372,-0.78482 0.0357,-1.60535 0.8205,-0.1427 -0.46374,-8.70459 2.85394,-1.2486"
         id="path5462"
         inkscape:connector-curvature="0"
         style="fill:none;stroke:#d0c0a0;stroke-width:1px" />
      <path
         d="m 268.34332,267.21295 1.28427,1.3913"
         id="path5464"
         inkscape:connector-curvature="0"
         style="fill:none;stroke:#d0c0a0;stroke-width:1px" />
      <path
         d="m 262.56406,272.81384 5.77926,-5.06579"
         id="path5466"
         inkscape:connector-curvature="0"
         style="fill:none;stroke:#d0c0a0;stroke-width:1px" />
      <path
         d="m 264.8472,275.13266 -2.46152,-2.71124"
         id="path5468"
         inkscape:connector-curvature="0"
         style="fill:none;stroke:#d0c0a0;stroke-width:1px" />
      <path
         d="m 258.31879,267.8551 4.31662,4.81604"
         id="path5470"
         inkscape:connector-curvature="0"
         style="fill:none;stroke:#d0c0a0;stroke-width:1px" />
      <path
         d="m 255.82158,269.28207 2.92531,-1.17727"
         id="path5472"
         inkscape:connector-curvature="0"
         style="fill:none;stroke:#d0c0a0;stroke-width:1px" />
      <path
         d="m 247.8305,258.40134 2.42586,5.42254"
         id="path5476"
         inkscape:connector-curvature="0"
         style="fill:none;stroke:#d0c0a0;stroke-width:1px" />
      <path
         d="m 255.75023,269.60312 -0.60648,-2.35449 -2.3545,-4.88742 -2.67559,1.49832"
         id="path5478"
         inkscape:connector-curvature="0"
         style="fill:none;stroke:#d0c0a0;stroke-width:1px" />
      <path
         d="m 257.14154,274.49054 c 0.0357,0.0357 6.27869,3.56744 6.27869,3.56744"
         id="path5480"
         inkscape:connector-curvature="0"
         style="fill:none;stroke:#d0c0a0;stroke-width:1px" />
      <path
         d="m 255.9286,269.31775 -2.14047,0.99887 -0.21403,2.17615"
         id="path5482"
         inkscape:connector-curvature="0"
         style="fill:none;stroke:#d0c0a0;stroke-width:1px" />
      <path
         d="m 257.17722,274.49054 -4.06691,-2.14047"
         id="path5484"
         inkscape:connector-curvature="0"
         style="fill:none;stroke:#d0c0a0;stroke-width:1px" />
      <path
         d="m 250.22069,263.82388 -2.1048,0.6778 0.32108,6.10034"
         id="path5486"
         inkscape:connector-curvature="0"
         style="fill:none;stroke:#d0c0a0;stroke-width:1px" />
      <path
         d="m 253.4314,272.59979 -1.28429,1.74805 -2.42587,-0.89185 -1.35562,-3.06802"
         id="path5488"
         inkscape:connector-curvature="0"
         style="fill:none;stroke:#d0c0a0;stroke-width:1px" />
      <path
         d="m 248.61534,270.63769 -2.42587,-0.0713 -1.35562,0.9632 -5.06578,0.39243"
         id="path5490"
         inkscape:connector-curvature="0"
         style="fill:none;stroke:#d0c0a0;stroke-width:1px" />
      <path
         d="m 235.98659,255.26199 -2.46155,2.71128 6.17168,14.12707"
         id="path5492"
         inkscape:connector-curvature="0"
         style="fill:none;stroke:#d0c0a0;stroke-width:1px" />
      <path
         d="m 239.94644,276.06021 -0.28538,-4.06689"
         id="path5494"
         inkscape:connector-curvature="0"
         style="fill:none;stroke:#d0c0a0;stroke-width:1px" />
      <path
         d="m 244.58412,278.9855 -1.64104,-0.64212 0.0357,-2.67559 -3.42475,0.24972"
         id="path5496"
         inkscape:connector-curvature="0"
         style="fill:none;stroke:#d0c0a0;stroke-width:1px" />
      <path
         d="m 256.71344,274.63324 -0.74916,0.92752 -0.32108,1.60535 -0.60646,0.32107 0,1.92643 1.78373,0.7135 0.74917,0.53512"
         id="path5498"
         inkscape:connector-curvature="0"
         style="fill:none;stroke:#d0c0a0;stroke-width:1px" />
      <path
         d="m 260.99439,283.26645 -3.60312,-2.74695"
         id="path5500"
         inkscape:connector-curvature="0"
         style="fill:none;stroke:#d0c0a0;stroke-width:1px" />
      <path
         d="m 244.44142,278.91418 2.67558,0.64212 0.67783,-1.46264 3.49609,1.28427 1.6767,2.71127 2.60423,0.64212"
         id="path5502"
         inkscape:connector-curvature="0"
         style="fill:none;stroke:#d0c0a0;stroke-width:1px" />
      <path
         d="m 257.28424,280.84058 -2.03346,1.99777"
         id="path5504"
         inkscape:connector-curvature="0"
         style="fill:none;stroke:#d0c0a0;stroke-width:1px" />
      <path
         d="m 255.00107,285.1572 0.21403,-2.2475"
         id="path5506"
         inkscape:connector-curvature="0"
         style="fill:none;stroke:#d0c0a0;stroke-width:1px" />
      <path
         d="m 264.1694,288.26089 c 0.49945,0.1427 4.495,0.85618 4.495,0.85618 l 1.03454,1.49832"
         id="path5508"
         inkscape:connector-curvature="0"
         style="fill:none;stroke:#d0c0a0;stroke-width:1px" />
      <path
         d="m 264.95425,284.01562 c 0.0357,0.17838 0.10703,1.49833 0.10703,1.49833 l -0.9989,0.96319 -0.0713,1.92646"
         id="path5510"
         inkscape:connector-curvature="0"
         style="fill:none;stroke:#d0c0a0;stroke-width:1px" />
      <path
         d="m 259.99548,288.40359 4.24527,-0.0713"
         id="path5512"
         inkscape:connector-curvature="0"
         style="fill:none;stroke:#d0c0a0;stroke-width:1px" />
      <path
         d="m 255.03674,284.97882 0.24971,1.71237 1.81941,0 0.21405,0.9989 2.17615,-0.39242 0.85617,1.35562"
         id="path5514"
         inkscape:connector-curvature="0"
         style="fill:none;stroke:#d0c0a0;stroke-width:1px" />
      <path
         d="m 254.82269,285.12152 -1.56967,0.0357 -1.60535,1.53399"
         id="path5516"
         inkscape:connector-curvature="0"
         style="fill:none;stroke:#d0c0a0;stroke-width:1px" />
      <path
         d="m 260.06683,288.54626 -1.17724,2.99668 -2.35453,-0.53513 -0.0357,0.5708"
         id="path5518"
         inkscape:connector-curvature="0"
         style="fill:none;stroke:#d0c0a0;stroke-width:1px" />
      <path
         d="m 258.17609,295.71683 c -0.1427,-0.0713 -1.534,-1.89075 -1.534,-1.89075 l -0.0713,-2.49719"
         id="path5520"
         inkscape:connector-curvature="0"
         style="fill:none;stroke:#d0c0a0;stroke-width:1px" />
      <path
         d="m 252.07576,292.57748 2.71126,-0.21405 0.28538,-0.89184 1.17726,0"
         id="path5522"
         inkscape:connector-curvature="0"
         style="fill:none;stroke:#d0c0a0;stroke-width:1px" />
      <path
         d="m 249.11478,297.7146 3.03233,-1.8194 -0.10703,-3.31772"
         id="path5524"
         inkscape:connector-curvature="0"
         style="fill:none;stroke:#d0c0a0;stroke-width:1px" />
      <path
         d="m 250.14934,301.53177 0.0713,-2.35452 -1.14159,-1.46265"
         id="path5526"
         inkscape:connector-curvature="0"
         style="fill:none;stroke:#d0c0a0;stroke-width:1px" />
      <path
         d="m 251.71901,286.79822 0.49945,1.60537 -1.8194,0.78483 0.1427,2.74694 1.56967,0.6778"
         id="path5528"
         inkscape:connector-curvature="0"
         style="fill:none;stroke:#d0c0a0;stroke-width:1px" />
      <path
         d="m 251.79036,286.72687 c -0.14269,-0.1427 -1.3913,-1.2486 -1.3913,-1.2486 l -1.92642,0.0713 -0.14271,0.99887 -1.49833,-0.21402 -2.24748,-3.03235 0.24973,-3.99554"
         id="path5530"
         inkscape:connector-curvature="0"
         style="fill:none;stroke:#d0c0a0;stroke-width:1px" />
      <path
         d="m 240.23184,290.54404 4.92307,-4.13822 1.49833,-0.0713"
         id="path5532"
         inkscape:connector-curvature="0"
         style="fill:none;stroke:#d0c0a0;stroke-width:1px" />
      <path
         d="m 236.94978,289.90192 -0.0612,-2.76273 -1.88283,-0.33325 4.08448,-6.64316 -0.17838,-4.10257 0.92754,-0.17837"
         id="path5534"
         inkscape:connector-curvature="0"
         style="fill:none;stroke:#d0c0a0;stroke-width:1px" />
      <path
         d="m 240.51723,290.65106 c -0.1427,-0.0713 -3.92418,-1.07022 -3.92418,-1.07022"
         id="path5536"
         inkscape:connector-curvature="0"
         style="fill:none;stroke:#d0c0a0;stroke-width:1px" />
      <path
         d="m 246.40352,297.35785 -1.24861,-2.88962 -1.89073,-0.1427 -0.64216,-1.64102 -2.10478,-1.9621"
         id="path5538"
         inkscape:connector-curvature="0"
         style="fill:none;stroke:#d0c0a0;stroke-width:1px" />
      <path
         d="m 249.18613,297.8573 -2.03344,0.46378 -0.53512,-1.10593 -0.67783,0.0714"
         id="path5540"
         inkscape:connector-curvature="0"
         style="fill:none;stroke:#d0c0a0;stroke-width:1px" />
      <path
         d="m 232.49048,306.31216 c 0.10702,-0.1427 4.70903,-5.85061 4.70903,-5.85061 l 5.88628,-2.961 3.13935,-0.2497"
         id="path5542"
         inkscape:connector-curvature="0"
         style="fill:none;stroke:#d0c0a0;stroke-width:1px" />
      <path
         d="m 235.30876,308.73801 c -0.21405,-0.107 -2.85396,-2.39017 -2.85396,-2.39017"
         id="path5544"
         inkscape:connector-curvature="0"
         style="fill:none;stroke:#d0c0a0;stroke-width:1px" />
      <path
         d="m 239.48267,272.10034 c -0.21404,0.10703 -6.24303,3.71015 -6.24303,3.71015 l -6.24303,-1.74805"
         id="path5546"
         inkscape:connector-curvature="0"
         style="fill:none;stroke:#d0c0a0;stroke-width:1px" />
      <path
         d="m 237.05681,289.68784 -2.46154,-0.32105 c 0,0 -2.17614,2.46152 -2.31884,2.42587 -0.1427,-0.0357 -2.46154,-0.67782 -2.46154,-0.67782 l -0.89186,-0.46378"
         id="path5548"
         inkscape:connector-curvature="0"
         style="fill:none;stroke:#d0c0a0;stroke-width:1px" />
      <path
         d="m 231.24187,305.31326 1.42698,1.21295"
         id="path5550"
         inkscape:connector-curvature="0"
         style="fill:none;stroke:#d0c0a0;stroke-width:1px" />
      <path
         d="m 229.92192,291.29321 1.46265,14.2341"
         id="path5552"
         inkscape:connector-curvature="0"
         style="fill:none;stroke:#d0c0a0;stroke-width:1px" />
      <path
         d="m 221.18167,308.45261 10.02454,-3.03232"
         id="path5554"
         inkscape:connector-curvature="0"
         style="fill:none;stroke:#d0c0a0;stroke-width:1px" />
      <path
         d="m 221.39572,313.6611 3.42475,5.49387"
         id="path5556"
         inkscape:connector-curvature="0"
         style="fill:none;stroke:#d0c0a0;stroke-width:1px" />
    </g>
    <g
       id="layer6"
       display="inline"
       style="display:inline"
       transform="translate(-50.66667,7.3333333)">
      <path
         d="M 7.69701,177.17319 8.17829,97.81681 30.47595,74.820213 81.086067,6.89684"
         id="path2843"
         stroke-miterlimit="4"
         inkscape:connector-curvature="0"
         style="fill:none;stroke:#a08070;stroke-width:1.5;stroke-miterlimit:4" />
      <path
         d="m 218.99081,100.9156 23.71811,87.81926 3.50363,8.20589 8.39798,8.61333 9.56696,5.41408 16.54987,-0.46143 7.35208,5.04494 6.55227,-1.13819 2.92237,5.53713 6.06009,1.29201 2.98388,-0.67676 3.56839,-2.06105 13.93512,-10.02837 7.56742,0.43067 0.12304,4.67581 1.78418,3.22999"
         id="path2845"
         stroke-miterlimit="4"
         inkscape:connector-curvature="0"
         style="fill:none;stroke:#a08070;stroke-width:1.5;stroke-miterlimit:4" />
    </g>
    <g
       id="layer1"
       display="inline"
       style="display:inline"
       transform="translate(-50.66667,7.3333333)">
      <path
         id="path3377"
         d="m 54.984379,233.42096 0.563801,1.66525 5.162251,-0.0119 8.992313,-6.1614 3.830055,-0.33306 0.166534,4.16312 0.499557,3.66353 7.327072,-0.99915 10.15799,-5.32876 3.996574,0 12.489324,-10.32451 1.66524,-3.66355 6.09718,-4.1631 3.22818,0 -0.1023,2.52403 -4.0608,2.30518 -0.33305,1.16567 -4.66269,5.4953 0.16652,3.497 1.93408,1.60103 1.89599,-2.60016 4.8292,0 14.07842,7.39128 6.73712,-0.0642 6.32791,-6.66098 10.33643,-0.16652 6.38023,-3.3947 4.07271,6.03293 5.29073,-0.99916 6.55867,2.52403 3.99658,-0.16652 4.70074,2.63823 -3.95851,3.4328 -0.24266,1.08951 -10.85023,0.37114 -1.56295,3.12587 -3.9062,-1.66524 -9.83685,-0.49957 -1.2822,2.49786 -4.3677,0.99917 -7.16056,4.50805 -1.39641,3.62548 -1.76754,0.3592 -0.96108,-3.99659 -2.20288,-1.9983 0.8707,4.17504 -2.66439,0.49957 -13.85959,28.46372 1.49872,0.33307 1.99829,-1.33219 4.49614,-7.16055 2.6644,-0.49957 1.66524,-5.25266 3.62546,-3.33047 -1.46065,8.08355 -2.8309,2.0625 -1.70333,6.95597 0.0381,8.30005 -2.62632,4.49615 1.12761,7.82666 -2.83092,11.65668 3.85622,6.22564 1.13951,9.76068 -1.08786,3.33548 24.26898,-8.2e-4 1.69521,-4.87143 0.73033,-0.12845 0.70418,-4.96957 -1.99829,-6.35409 -5.30263,-7.94086 -2.16481,-9.55609 -0.0262,-9.47998 1.62718,-4.62461 -0.29498,-8.36428 2.6644,-4.32962 0,-2.16483 5.71179,-6.22561 0.4496,1.39642 0.33305,4.16308 1.83176,0.49961 1.16568,-1.33222 0.93492,-8.44275 4.22733,-4.04657 -2.16481,-2.03636 -0.49958,-1.96022 2.83092,-4.1631 4.52231,-0.73033 2.97128,2.22905 2.99742,0 4.16312,1.99829 7.49359,1.66524 4.66266,3.36856 1.93408,2.53593 -2.5621,2.89513 3.42088,7.36514 0.20459,8.3143 -5.16226,8.99231 -0.49956,2.6644 4.27733,4.36771 3.19011,-4.34156 1.19183,-4.68884 5.32877,-4.34155 2.99742,4.00851 4.16313,2.99744 0.33304,5.32877 3.66353,6.66098 0.99913,-0.49958 1.66525,5.4953 -0.83261,7.16055 -3.83005,-0.0381 -2.16482,8.86386 -1.83176,2.49786 1.33217,4.66269 -5.26453,3.83005 1.4323,1.6709 29.36104,-0.006 0.35861,-0.85858 3.62547,-3.53507 9.12076,-7.42938 4.63651,-1.53677 14.79452,-13.52655 2.0625,-3.39472 2.10062,-1.0253 3.0878,-8.77346 -5.07187,0.088 -12.13755,5.26721 -5.01446,1.75296 0,1.97214 3.94427,0.96109 -3.57315,1.89599 -16.15286,0.99915 -3.83006,4.32962 -3.66353,7.49359 -1.99829,0.33307 -6.8275,5.32877 -0.0904,3.48507 -9.23499,0.17847 -2.69055,-5.4953 9.185,-4.47 -0.46149,-6.55869 0.12845,-8.62118 8.26199,-7.75052 -3.09976,-23.22299 4.66269,-5.16226 -1.12758,-6.89171 -7.69821,-8.42853 5.75221,-1.39642 5.73798,5.05996 2.99742,4.66268 4.1631,-0.16652 5.50721,3.36854 4.98381,-0.53762 2.66442,-7.32708 -7.32707,-8.49273 -0.49959,-2.16483 -4.66269,-2.49786 -10.65753,-10.9906 -3.66353,3.33049 -6.99404,0.33305 -2.22905,-2.08868 -15.00791,1.13136 -12.4805,-0.17027 -3.81813,1.53677 -9.42766,-4.73881 -6.16139,0.66609 0.99913,-2.49787 0.56381,-5.393 -5.72605,-2.10059 2.16481,-5.82835 -7.16053,-7.82663 0.16652,-5.99487 -6.35408,1.70332 -7.8005,-0.0381 -8.99231,-10.15797 -0.49955,-2.6644 -5.93065,-3.12587 -14.21881,0.79453 -7.92894,-3.29241 -0.99913,1.47257 2.84235,2.69485 -6.24898,7.82233 2.17672,-6.53252 -2.33133,-0.66609 -2.16481,8.65927 -4.150998,4.41373 -0.03829,-5.4771 -3.63736,3.80388 -0.192688,3.2282 -1.805611,3.52316 -1.717552,0 -6.442116,6.49445 -6.518051,2.32354 -13.744583,12.16745 -4.216457,5.3254 -5.89257,4.17501 8e-6,0 z m 50.623381,-34.48244 c -0.6661,0.33306 -7.493593,5.67375 -7.493593,5.67375 l 0.140373,2.31942 8.42851,-5.82836 -1.07529,-2.16481 z m 85.13197,36.21192 2.49786,0.21882 -0.56379,3.34241 -3.12589,-0.83263 1.19182,-2.7286 z m 5.53339,0.32112 0.48764,2.43364 7.99318,0 12.52739,3.08783 2.29326,-2.49787 -0.43535,-5.75221 -2.3694,0.75648 -1.85793,-1.92214 -2.71437,1.33218 -5.79028,0.57571 -1.65332,1.92215 -8.48082,0.0642 z m 117.22114,9.7988 -5.03378,0.90875 -5.76413,5.29069 -2.55017,-0.038 -1.13953,1.60099 4.77692,2.06254 -3.61124,2.17904 -6.82748,1.61295 -0.56381,-0.98724 -4.66269,1.16568 -17.57541,9.01846 -4.84113,5.95682 -5.30261,7.86468 3.30432,2.12674 7.32706,-1.49869 3.66354,-1.66525 -0.79455,-1.11337 4.22732,-3.08783 11.22135,-4.12503 9.82495,1.49875 4.32962,-1.9983 4.07272,0.0642 2.58826,-5.05996 5.99487,-4.32962 -1.30603,-5.16223 -1.19183,-1.16568 0.43536,-2.26712 2.97125,-0.16652 -0.37109,-1.96022 -3.86813,-1.40834 -1.49872,-2.60016 2.16479,-2.71669 z m -211.85476,-93.69523 -4.947216,3.89869 1.540123,1.67086 0.06538,1.36399 -3.546333,4.41868 2.915497,1.43785 -1.150856,3.2508 0.910248,0.42392 2.476929,-1.49237 0.06538,1.99481 1.503198,1.55151 2.19087,-1.94082 1.27304,1.21621 1.71632,-0.41771 1.50322,-1.73623 0.55695,-8.45661 -1.92092,-1.5032 0,-7.2404 -2.57167,1.46626 -2.58017,0.0938 1e-5,0 z m 139.4147,-118.139599 5.53259,0.03694 1.67087,2.784771 -2.36705,3.202488 -2.81319,4.651711 0.72461,1.474781 1.46627,-0.130711 5.49566,-2.793301 1.53162,-0.139229 1.29861,1.810101 -5.19729,2.924011 -8.49355,5.848007 -3.75091,0.176182 -0.95478,-2.793301 -0.86386,-1.560028 -2.64552,-0.556961 -0.66779,-0.843952 7.90819,-5.23708 -0.41771,-1.15937 5.04952,-5.634899 -2.50629,-2.060158 z m 81.1022,-32.488032 -5.67187,2.31022 -0.97467,2.08857 5.70877,1.94934 1.7533,2.85013 3.12008,-2.719409 1.07694,2.85013 4.00949,0.7587 1.39242,1.92092 0.83542,-0.852481 -1.31848,-2.51481 2.91544,-2.85013 4.29867,-0.28778 -0.0832,-1.96715 -9.64581,0.89096 1.11395,-2.53471 -0.4916,-1.38386 -3.68555,1.66234 0.0369,-2.87855 -4.39026,0.70757 z m -8.72796,243.923331 2.11447,-0.64415 3.28015,-5.1558 -0.1665,-3.49703 2.99743,-3.83005 5.16226,-7.99316 6.99402,-7.32707 5.79105,-4.79012 0.30173,-211.246161 -300.223709,0.48726 -1.448292,3.00404 6.917393,2.80895 8.04681,-5.3452 11.149597,0.17203 6.7901,4.97808 11.10022,0.55221 9.281624,5.84604 6.728905,8.709569 0.38356,1.899641 5.240962,1.53591 5.73197,-0.15542 8.81703,4.16963 2.18896,-0.532379 11.48379,6.351978 24.1745,-1.919487 0.18187,-0.600151 5.48892,1.616928 5.23436,0.08762 1.99385,-2.081499 3.381,8.648401 -1.91948,1.00354 0,7.80687 4.49481,11.074711 3.23767,9.8461 -0.81509,9.63871 3.09169,0 16.19235,17.075249 1.7988,-0.72084 9.26837,9.45024 7.83992,4.9169 6.55368,-1.64337 -1.74423,-7.82671 2.44522,-2.727962 4.56639,2.377452 1.46153,4.0886 2.8288,-1.54252 0,-3.448794 -4.10846,-4.115028 0.57205,-4.351479 2.96437,-6.10231 -2.27661,-5.43605 -2.26335,-0.565422 -2.22156,-7.434196 -3.06569,-5.633453 -4.14976,-5.933666 -2.90979,-8.91127 0.3571,-3.065212 -2.37247,-2.454308 -3.74968,-2.368362 -3.44218,-5.09877 -3.62401,-1.111 -0.73407,-2.350986 8.08957,-1.64999 4.28369,-5.455881 5.00453,-3.543011 10.37279,-18.37473 1.66736,-6.35066 109.3421,0.81991 0.24518,210.811018 -6.05219,5.28265 -7.60327,6.77816 -5.95648,9.28015 -1.99594,2.96539 -0.40488,3.30428 -2.97266,4.41984 -1.41415,1.52562 0,-1e-5 z M 179.1768,77.414549 c 0.3236,-0.242699 1.94156,-3.397728 1.94156,-3.397728 l 5.50107,-2.507851 8.17073,0 6.95726,9.465111 -2.58874,1.132568 -6.95725,-2.022453 -10.67857,-0.647186 -2.34606,-2.022461 z m 37.53679,14.966179 0.24271,2.750549 6.71455,-5.015701 -3.80223,-1.29438 -3.15503,3.559532 z m -15.93695,-61.07819 6.79546,-4.853899 1.53706,2.426949 -5.82467,4.125811 -2.50785,-1.69886 z m -4.4494,-30.09416 -2.42696,6.31006 3.80222,-2.91234 1.94156,2.18426 5.61887,-5.83032 -8.93569,0.24834 z"
         stroke-miterlimit="4"
         inkscape:connector-curvature="0"
         style="fill:#a0c6e9;fill-rule:evenodd;stroke:#6086c4;stroke-width:1.25;stroke-miterlimit:4" />
    </g>
    <rect
       stroke-linejoin="null"
       stroke-linecap="null"
       x="129.18068"
       y="12.161577"
       width="154.96184"
       height="72.519089"
       id="svg_38"
       style="opacity:0.67000002;fill:#ffffff;stroke:#007f00;stroke-dasharray:none" />
    <g
       id="layer4"
       display="inline"
       style="display:inline"
       transform="translate(-50.66667,7.3333333)">
      <path
         id="path5266"
         d="m 220.06102,296.95572 0.84241,3.68549 -1.57952,7.79223 m 55.07215,-28.43112 2.6325,5.05444 1.79013,0.94769 -0.73712,4.00141 M -0.0882,184.69928 c 0,0 6.16528,0.37361 8.17079,0.39731 l -0.13713,-8.79197 4.858609,-0.0953 2.000601,12.67048 3.048531,2.2864 7.144999,0.19053 2.47694,2.19113 2.858,0.38108 5.049139,-2.47695 7.71661,1.14321 6.763943,6.19233 -1.143192,2.47695 5.525459,-3.81069 6.763943,5.71602 5.239693,0.38106 5.90654,-4.95386 1.61953,0 1.905327,2.95327 9.530632,0.43512 1.996651,0.80334 6.287598,-0.2858 m 217.756207,44.01381 4.19394,-2.71067 2.88217,-4.98531 0.29493,-3.36057 2.38284,-3.27626 5.3703,-8.43309 14.15961,-5.60485"
         stroke-miterlimit="4"
         inkscape:connector-curvature="0"
         style="fill:none;stroke:#787878;stroke-width:2;stroke-miterlimit:4" />
    </g>
    <g
       id="layer3"
       display="inline"
       style="display:inline"
       transform="translate(-50.66667,7.3333333)">
      <rect
         id="rect2194"
         width="339.16031"
         height="329.16028"
         x="0.233126"
         y="0.233925"
         stroke-miterlimit="4"
         stroke-linecap="null"
         stroke-linejoin="null"
         style="fill:#000000;fill-opacity:0;fill-rule:evenodd;stroke:#000000;stroke-miterlimit:4;stroke-dasharray:none" />
    </g>
    <path
       stroke-linejoin="null"
       stroke-linecap="null"
       d="m 130.32571,94.890598 c 0,0 -40.076343,21.374032 -40.076343,21.374032 0,-1e-5 -26.335883,0.76335 -26.412223,0.61067 -0.0763,-0.15267 -3.74044,11.98475 -3.81679,11.83206 -0.0764,-0.15267 55.801546,19.61833 55.725206,19.46565 -0.0763,-0.15268 17.63359,-36.48853 17.63359,-36.48853 0,0 8.77862,-6.87023 8.70228,-7.02291 -0.0763,-0.15268 -11.75572,-9.770973 -11.75572,-9.770973 z"
       id="svg_20"
       inkscape:connector-curvature="0"
       style="opacity:0.51999996;fill:#ff7f00;stroke:#ff7f00;stroke-width:0;stroke-dasharray:none;filter:url(#svg_20_blur)" />
    <rect
       stroke-linejoin="null"
       stroke-linecap="null"
       x="-44.865154"
       y="12.161577"
       width="154.96184"
       height="72.519089"
       id="svg_39"
       style="opacity:0.67000002;fill:#ffffff;stroke:#007f00;stroke-dasharray:none" />
    <text
       stroke-linejoin="null"
       stroke-linecap="null"
       x="7.8065"
       y="27.86552"
       id="text_Algonquin"
       font-size="14"
       xml:space="preserve"
       font-weight="normal"
       style="font-size:14px;font-weight:normal;text-anchor:middle;fill:#000000;stroke:#007f00;stroke-width:0;stroke-dasharray:none;font-family:Sans-serif">Algonquin</text>
    <text
       stroke-linejoin="null"
       stroke-linecap="null"
       x="4.3738751"
       y="44.473961"
       font-size="14"
       xml:space="preserve"
       font-weight="normal"
       id="text_Nipissing"
       style="font-size:14px;font-weight:normal;text-anchor:middle;fill:#000000;stroke:#007f00;stroke-width:0;stroke-dasharray:none;font-family:Sans-serif">Nipissing</text>
    <text
       stroke-linejoin="null"
       stroke-linecap="null"
       x="17.733236"
       y="61.86166"
       font-size="14"
       xml:space="preserve"
       font-weight="normal"
       id="text_Mississaugas"
       style="font-size:14px;font-weight:normal;text-anchor:middle;fill:#000000;stroke:#007f00;stroke-width:0;stroke-dasharray:none;font-family:Sans-serif">Mississaugas</text>
    <text
       stroke-linejoin="null"
       stroke-linecap="null"
       x="12.95979"
       y="79.051743"
       font-size="14"
       xml:space="preserve"
       font-weight="normal"
       id="text_Potawatomi"
       style="font-size:14px;font-weight:normal;text-anchor:middle;fill:#000000;stroke:#007f00;stroke-width:0;stroke-dasharray:none;font-family:Sans-serif">Potawatomi</text>
    <text
       stroke-linejoin="null"
       stroke-linecap="null"
       x="238.53668"
       y="27.866703"
       font-size="14"
       xml:space="preserve"
       font-weight="normal"
       id="text_Odawa"
       style="font-size:14px;font-weight:normal;text-anchor:middle;fill:#000000;stroke:#007f00;stroke-width:0;stroke-dasharray:none;font-family:Sans-serif">Odawa</text>
    <text
       stroke-linejoin="null"
       stroke-linecap="null"
       x="201.52147"
       y="44.461903"
       font-size="14"
       xml:space="preserve"
       font-weight="normal"
       id="text_Chippewa_Ojibwa"
       style="font-size:14px;font-weight:normal;text-anchor:middle;fill:#000000;stroke:#007f00;stroke-width:0;stroke-dasharray:none;font-family:Sans-serif">Chippewa (Ojibwa)</text>
    <text
       stroke-linejoin="null"
       stroke-linecap="null"
       x="196.36485"
       y="79.038193"
       font-size="14"
       xml:space="preserve"
       font-weight="normal"
       id="text_Chippewa_Saulteaux"
       style="font-size:14px;font-weight:normal;text-anchor:middle;fill:#000000;stroke:#007f00;stroke-width:0;stroke-dasharray:none;font-family:Sans-serif">Chippewa (Salteaux)</text>
    <text
       stroke-linejoin="null"
       stroke-linecap="null"
       x="234.91983"
       y="61.871132"
       font-size="14"
       xml:space="preserve"
       font-weight="normal"
       id="text_Oji-Cree"
       style="font-size:14px;font-weight:normal;text-anchor:middle;fill:#000000;stroke:#007f00;stroke-width:0;stroke-dasharray:none;font-family:Sans-serif">Oji-Cree</text>
    <rect
       stroke-linejoin="null"
       stroke-linecap="null"
       x="266.68063"
       y="16.605936"
       width="12.59542"
       height="12.59542"
       id="svg_30"
       style="fill:#7fff00;stroke:#000000;stroke-dasharray:none" />
    <rect
       stroke-linejoin="null"
       stroke-linecap="null"
       x="-40.857517"
       y="16.605936"
       width="12.59542"
       height="12.59542"
       id="svg_31"
       style="fill:#007f00;stroke:#000000;stroke-dasharray:none" />
    <rect
       stroke-linejoin="null"
       stroke-linecap="null"
       x="-40.857517"
       y="33.207497"
       width="12.59542"
       height="12.59542"
       id="svg_32"
       style="fill:#7f007f;stroke:#000000;stroke-dasharray:none" />
    <rect
       stroke-linejoin="null"
       stroke-linecap="null"
       x="-40.857517"
       y="50.60593"
       width="12.59542"
       height="12.59542"
       id="svg_33"
       style="fill:#0000ff;stroke:#000000;stroke-dasharray:none" />
    <rect
       stroke-linejoin="null"
       stroke-linecap="null"
       x="-40.857517"
       y="67.785629"
       width="12.59542"
       height="12.59542"
       id="svg_34"
       style="fill:#ffff00;stroke:#000000;stroke-dasharray:none" />
    <rect
       stroke-linejoin="null"
       stroke-linecap="null"
       x="266.68063"
       y="33.207497"
       width="12.59542"
       height="12.59542"
       id="svg_35"
       style="fill:#ff00ff;stroke:#000000;stroke-dasharray:none" />
    <rect
       stroke-linejoin="null"
       stroke-linecap="null"
       x="266.68066"
       y="50.605934"
       width="12.59542"
       height="12.59542"
       id="svg_36"
       style="fill:#ff7f00;stroke:#000000;stroke-dasharray:none" />
    <rect
       stroke-linejoin="null"
       stroke-linecap="null"
       x="266.68063"
       y="67.785629"
       width="12.59542"
       height="12.59542"
       id="svg_37"
       style="fill:#ff0000;stroke:#000000;stroke-dasharray:none" />
  </g>
</svg>
