<svg id="Layer_1" data-name="Layer 1" xmlns="http://www.w3.org/2000/svg" xmlns:xlink="http://www.w3.org/1999/xlink" width="3721.01" height="3410.99" viewBox="0 0 3721.01 3410.99"><defs><style>.cls-1,.cls-7,.cls-8,.cls-9{fill:none;}.cls-2{clip-path:url(#clip-path);}.cls-3{fill:#b6b6b6;}.cls-4{fill:#88c4ff;}.cls-4,.cls-5,.cls-6{fill-rule:evenodd;}.cls-5{fill:#0080ff;}.cls-6{fill:#fcfcfc;}.cls-7,.cls-8,.cls-9{stroke:#fff;}.cls-7{stroke-width:14.58px;}.cls-8,.cls-9{stroke-width:9.72px;}.cls-9{stroke-dasharray:38.89 19.44;}</style><clipPath id="clip-path"><rect class="cls-1" x="0.01" width="3721" height="3414"/></clipPath></defs><title>Map_of_the_Azerbaijani_language</title><g id="main"><g class="cls-2"><path class="cls-3" d="M4078.23,2188.08c-30.36-387.91-54.92-1004.71-41.52-1541.08,5.25-210,19.36-566.6-216-803-296-297.35-803.45-217.1-1115-180-522.83,62.26-1132,87.73-1653,12-422.77-61.45-784.32-178-1157,24-266.86,144.62-549.94,461.09-569,834-20.53,401.64,293.33,564.62,335,959,41.08,388.74-213.36,739.64-281,1097-94.9,501.35-9.62,831.11,102,947,234.73,243.72,651.55,169.17,970,138,349.76-34.23,916,5.61,1492.38,107.67,784.88,139,1316.29,398.1,1719.62,96.33,101.51-75.95,245.4-274.42,336-570C4136.71,2865.3,4099.44,2459.19,4078.23,2188.08Z"/><path id="Russia" class="cls-4" d="M2012.33,1013.12c-1.53-1.56-1.46-4.08-1.32-9.12.17-5.9,1.62-10.49,4-19,2.11-7.53,4.12-14,7-19a43.27,43.27,0,0,1,11-13c7.66-5.6,16.54-6.68,20-7,10.78-1,11.41-.17,22-2,12.45-2.15,18.73-2.88,19.39-3.22,8.84-4.52,4.42-19.28,9.61-34.78,5.91-17.6,22.77-31.86,39.23-36.28,25-6.71,52.5,8.28,65.67,27,24.38,34.59,4.66,88.95-23.48,118.47-43,45.06-119.85,47.14-134.81,24.51-7-10.57-1.39-27.9-10.5-31.84S2017.25,1018.14,2012.33,1013.12Z"/><path id="Russia-2" class="cls-4" d="M2475.47,1653.46c-.57-20.75,25.42-38,29.62-40.85,20.23-13.47,40.93-12.78,52.08-12.25,28.74,1.36,79.53,15.37,83.74,47,3.2,24-21.7,48.67-44.93,58.21C2545.6,1726.25,2476.39,1686.76,2475.47,1653.46Z"/><path id="Kakheti_Georgia_" data-name="Kakheti Georgia " class="cls-4" d="M1600,1027c-.62-3.59-.93-5.81,0-8,1.43-3.35,4.74-5.19,7-6,4.89-1.76,8,.33,14,1,6.34.7,10.39-1.21,17,0a18.51,18.51,0,0,1,9.58,4.3c2.15,1.93,5.61,6.08,5.42,11.7a12.64,12.64,0,0,1-3,8c-2.75,3-6.41,3.59-9,4-4.23.67-8,1.66-12,2-8,.67-13.65,1-18-1a18.74,18.74,0,0,1-9-8C1601.13,1033.34,1600.58,1030.26,1600,1027Z"/><path id="Tbilisi_Georgia_" data-name="Tbilisi Georgia " class="cls-4" d="M1295,1196c-1.42-4-.65-8,0-14,.28-2.56.51-4.68,2-7a20.5,20.5,0,0,1,6-5,17.75,17.75,0,0,1,5-2c3.92-.45,7,1.61,9,3a112.87,112.87,0,0,1,9,7c3.88,3.39,7,5.53,9,9a24.51,24.51,0,0,1,3,11c.26,5-1.09,8.88-2,10-2,2.49-4.83,3.23-9,4-5.67,1-10.9,1.57-14,1a22,22,0,0,1-11-5c-1.85-1.77-3.21-4.68-5-8A31.1,31.1,0,0,1,1295,1196Z"/><path id="Borchali_Georgia_" data-name="Borchali Georgia " class="cls-4" d="M1326,1236c-3.7-1.4-6.52-.63-11,0-6,.84-12.61-.32-20,2-5.89,1.85-9.48,4.25-12,7-4.34,4.74-5.51,10.57-6,13-.62,3.12-3.33,10.92-5,17-2,7.2-4.68,12.91-7,20-2.08,6.36-5.39,13.74-6,17-.45,2.41-1,6.18-4,9-4.1,3.81-8.9,2.19-13,6a20,20,0,0,0-4,9c-1.26,6.61.09,11.93,1,16,1,4.61,1.89,11.76,3,18,.85,4.77,1,4.45,2,9,3.23,15.48,2,17.5,4,19,3,2.28,8.4-.27,37.86-18.68,14.79-9.25,20.69-13.16,27.33-17.89,9.77-7,15.8-11.9,18.81-14.43,11.44-9.6,17.17-14.4,19-18.79,4.32-10.16-3.17-14.19-7-38.21-2.72-16.9-.87-25.84-7-41C1334.41,1242.57,1331,1237.9,1326,1236Z"/><path id="Turkey" class="cls-4" d="M1170,1436c-1.9,3.42-3.13,6.56-5,10-3.8,7-7.94,10.67-11,18-2.92,7-4.21,14.28-4,17,.34,4.31,1.64,7.37,0,11-2.54,5.62-9.57,7-16,9a83.08,83.08,0,0,0-20,9,56.77,56.77,0,0,0-16,15c-4.55,6.5-6.1,11.69-12,17a39,39,0,0,1-11,7,44.28,44.28,0,0,1-15,3c-8.43.18-17,.26-24,1a73.85,73.85,0,0,0-15,3,65.51,65.51,0,0,0-18,10c-6.73,5.32-12.83,10.52-19,16-7.46,6.62-14.56,11.37-22,18a184.3,184.3,0,0,0-17,17,165.69,165.69,0,0,0-14,19,162.18,162.18,0,0,0-14,27c-8.91,22.48-11,40.87-10,56,.83,13.24,3.56,23.86,7,32,5.36,12.68,12.36,22.14,20,29,13.15,11.81,30.64,16.72,36,18,17.34,4.13,36.57,9.55,50,15,16.78,6.81,26,12.93,44,15a92.13,92.13,0,0,0,30-1c13.44-2.85,23.43-9.57,34-13,9.63-3.12,19.65-4,32-5q28.92-2.37,57-4c14-.8,24.75-1.32,36,1,8,1.64,18,5.94,29,7,15.55,1.5,29.68-2.7,37-5,.24-.08,26.77-6.52,41-10,21.09-5.15,42.75-6.88,61-10a192.13,192.13,0,0,1,38-3c12.57.26,18.85.6,26,3,22.33,7.49,26.14,24.61,41.52,23.5A26.44,26.44,0,0,0,1542,1805c5.85-5.42,4.58-10.32,9.51-13.1,6-3.41,10.84,2.24,21.49,2.1,1.11,0,16.15-.43,24-11,8.06-10.76,4.83-26.86-1-36-3.26-5.08-4.92-4.26-12-13-4.66-5.76-9.3-11.48-12-19-3.31-9.21-5.42-25.85,2-31,8-5.57,19.6,7.57,30.32,1.89,8-4.24,12.65-17.43,8.52-23.38-6.64-9.58-29.35,9.37-56.87-1.54-6.69-2.66-14.37-7.36-29-11.08-9.44-2.4-14-2.43-18.32-.79-6.56,2.5-7.65,7.06-14.64,12.9-7.8,6.51-15.9,8.74-20.69,10-11.08,3-14.08.13-42.31,0-10.22-.07-10.55.31-18,0-4-.17-9.61-.52-28-3-23.43-3.17-28.38-4.5-34-7-6.85-3-12.43-5.63-14.77-11.34-2.72-6.62,1.84-10.29-.85-17.93-2.62-7.43-9.6-11.52-13.38-13.73-8.63-5-11.83-2.45-16.87-6.26-6.33-4.8-7-13.27-8.13-29.74-.18-2.75-.3-5.38.35-35,.18-8.15-.14-16.3-.1-24.45.06-13,.26-16.13-2.25-19.58-5.2-7.15-13.79-4.28-17-11-1.27-2.66-.08-3.44.81-16.42.79-11.46,0-13.18-.79-14.35-1.84-2.66-4.19-2.87-14-6.23-2.19-.75-8.52-2.92-12.58-4.64a69.82,69.82,0,0,1-22.32-15.44c-1.52-1.55-.82-1-12.1-14.92-8.91-11-9.88-12-12-13-8.53-3.94-21.12-.69-25.38,6.31-2.1,3.44-.49,5-3.62,11.69C1174.23,1429.79,1173,1430.56,1170,1436Z"/><path id="Iraq-right" class="cls-4" d="M1947,2770c.78-9.4.83-18.36,0-25-1.64-13.12-5.54-23.6,0-29,1.83-1.79,5.21-2.26,10-3,6.12-.95,11.6-1.89,17-2,9.53-.19,16.45,1.74,19,4,1.62,1.43,4.41,5.55,6,11,1.07,3.68.81,6.35,2,10a34.49,34.49,0,0,0,8,12c4.85,4.86,11.52,7.55,15,10,6,4.25,8.47,10.06,16,13,1.12.44,9.28,1.5,13,5,3.13,2.93,4.92,8.57,5,18,.07,7.38-1.64,12.63-2,20-.17,3.54-.2,7.72-3,12-1.74,2.65-5,5.78-11,8-6.36,2.36-11,1.59-19,1-12-.89-19.09-.24-22-5-1.71-2.8-.56-6.51-3-9-3-3-8.5-1.79-13-1-9.42,1.65-17.77,1.33-22,0a24.46,24.46,0,0,1-13-9c-3.26-4.67-3.76-9.35-4-13a122,122,0,0,1,0-16C1946.14,2780.75,1947,2770.48,1947,2770Z"/><path id="Iraq-left" class="cls-4" d="M1834,2621a15,15,0,0,0-2,7c0,1.46,1,4.6,0,6-2.14,3.07-9.77-.15-15,3a17.69,17.69,0,0,0-5,6c-3.94,7.32-3.94,15.1-4,19-.09,5.7-.43,11.46-1,17-.84,8.27-2,13.6,1,20,1.66,3.57,4.61,7.41,10,11,7.78,5.18,15.53,5.67,21,6,12.58.76,23.73,1.57,33,0,12.88-2.18,21-7,24-11,2.16-2.89,4.73-8.81,5-17,.28-8.43-3.13-13.86-4-21-1.17-9.57.65-15.2-4-21a19.77,19.77,0,0,0-8-6c-.7-.27-6.54-.88-8-3-1.82-2.64.88-9.3,1-12,.2-4.53-1.11-7.94-2-9-2-2.33-7.43-3.36-16-3a74.61,74.61,0,0,0-10,1C1841.18,2615.62,1835.45,2618.66,1834,2621Z"/><path id="Zagatala_Azerbaijan_" data-name="Zagatala Azerbaijan " class="cls-4" d="M1713,1031c-12.5-7.11-23.33-21.32-20-28,2.21-4.43,8.58-1.46,22-9,9.93-5.57,12.87-10.8,13-14a13.06,13.06,0,0,1,.3-3.12c.88-3.66,3.45-5.3,3.93-11.72.62-8.36-3.29-11.15-1.54-14.71,2.43-4.94,12-3.69,27.74-3.71,7.25,0,20.69-.9,47.59-2.66,21.09-1.39,24.73-2.34,27.86.95,6.64,7,1.18,22.59-4.88,40-4.37,12.53-6.6,18.74-12,24-10.15,9.89-26.8,9.54-35,13-20,8.46-19.88,11.74-33,14C1743.45,1037,1727.86,1039.45,1713,1031Z"/><path id="mainland_Azerbaijan" data-name="mainland Azerbaijan" class="cls-5" d="M2007.11,1562.49c5.11,9.67,2.34,21.11-.16,31.42-2.3,9.49-5.27,14.12-2.85,16.83,2.59,2.9,7.82-.38,18.37-.45,6.36,0,16.41-.1,23.11,5.94,8.74,7.88,10.07,24.63,3.37,31.68-5.1,5.37-12.9,3.08-14.21,7.25-.53,1.69-.11,4.79,11.75,15.21,12.77,11.22,16,10.87,21.34,16.87,6.43,7.19,8.17,14.78,11.12,27.67,4.91,21.44,2,35.07,6,36,1,.24,2.16-.46,13-15,6.12-8.21,9.21-12.37,11.09-15.64a97.46,97.46,0,0,0,8.42-19.92c6-18.45,2.67-20,7.46-28.46,2.93-5.17,4.23-4.64,19-19,10.89-10.55,16.33-15.82,18-19,5-9.46,1.28-12.78,5.18-37.07,1.82-11.3,2.79-17.07,6.25-22.87,5.13-8.63,12.71-14.13,17.61-17.62,11.54-8.21,15-6.29,18-11.44,5.33-9.36-5.23-17.38-.71-30.14,2.29-6.45,5.31-5.32,14.92-17.4,7.76-9.73,7-11.91,14.64-22.7,4.85-6.81,10.28-12.46,21.15-23.76,14.51-15.09,11.27-9.72,23-22,7.46-7.82,9.92-11.21,14-11,6.68.3,6.94,9.44,16.81,14.09,4.41,2.08,5.61.84,23,2,16.73,1.1,18.68,2.45,19.22,3.92,1.26,3.44-5.59,6.18-9.3,15.72-2.16,5.56-2,10.16-1.7,17.28.29,7.32,1.86,13.45,5,25.41a217.64,217.64,0,0,0,7,22.59c3.4,9,5.16,13.48,8,16,8.1,7.19,18.2,3.53,20,8.47.92,2.51-1.23,4.74-7.91,14.42-5,7.31-8.37,12.14-11.1,17.11a66.8,66.8,0,0,0-8.54,24.33c-.93,7.16-1.81,14,1.54,20.67,3,6,8.23,9.6,21,15.27a243.86,243.86,0,0,0,35.07,12.6c50.87,12.88,61.66,23,70.91,15.61,6.9-5.55,2.36-12.39,14-28.48,3.72-5.14,8.4-11.46,17-16,5.34-2.82,12.67-5.14,23-5a58.4,58.4,0,0,1,22,5c6.75,2.84,14,8.39,17,10,30.18,16,107.13-41.3,157-120,44.25-69.84,47.16-133,62-232,18.27-121.88,10.17-230.43-8-270-29.26-63.71-76.26-101.86-156-160-117-85.27-213-117.9-344-179.9-26.36-12.48-69.51-30.82-100-12-25,15.4-37.37,53.39-39,80-.74,12.16,1.38,11.92,2,50.84.46,27.67.68,41.5,0,46.16-2.26,14.94-6,23.68-.65,30.12,5.46,6.66,14,3,20.65,10.88,2.1,2.5,3.86,5.39,5,20,.83,10.6,1,20.53,2,31,1.46,15.68,4.12,25-2,34-3.76,5.5-8.65,6.74-13,11-7.08,6.93-7.12,12.87-14,20-7.39,7.66-10.6,4.63-24,14-12.59,8.81-12.66,13.44-18.37,13.72-10.84.55-12.71-16-27-20.32-10.66-3.2-14.38,4.52-40.54,11.44-16.18,4.28-29.16,5-38.52,5.49A149.54,149.54,0,0,1,1970,1012c-9.89-1.52-14.94-2.35-20.29-5.82-10-6.47-8.33-13.78-16.18-23.09-5-5.9-8.18-6-48-20.18-9.91-3.54-19.9-6.86-29.79-10.45-23.28-8.45-26.21-10.22-30.9-8.37C1812.78,948.9,1804.25,972,1810,987c1.7,4.43,4.72,8.64,3,13-2,5.12-9.63,6.53-12,7-2.82.56-21.94,7.73-28,10-12.38,4.64-19.36,11.22-30,11-11.88-.25-19.19-7.53-26-3-.46.31-3.92,2.67-4,6-.09,3.6,3.78,6.86,16,13,14.88,7.47,22.32,11.21,33.15,13.31,4.08.79,12,1.09,27.85,1.69,20.54.77,24.28.35,32.54,2.29,9.93,2.33,17.88,4.2,23.16,11.18,5.17,6.82,4.9,14.7,4.57,24.26a76.39,76.39,0,0,1-8.7,31.94c-4.85,9.41-9.24,17.9-18.57,23.33-7.52,4.38-16.46,4.34-34.33,4.28-20.71-.08-22.62-2.75-36-.7-2.45.38-1.51.34-22.31,4.76-11.76,2.5-17.68,3.75-19.51,4-7.92,1.15-19.72,2.87-32.42.14-13.19-2.84-11.7-7.11-26-11.32-8.9-2.64-10.2-1.19-36.4-3.07-21.62-1.55-21.8-2.61-31.18-2.18-10.43.48-20.87,1.07-32.52,7a61.32,61.32,0,0,0-19.15,15.24c-6.74,8.2-3.7,9.23-13.18,25.73-6.26,10.91-10.46,15.47-9.06,22.07.5,2.34,2.06,4.6,5.2,9.11,5,7.13,7.9,11.31,12.64,14.36,6.91,4.45,10,1.06,22.16,5.53,5.86,2.16,12.16,4.47,14,9,2.65,6.52-6,12.44-3.57,17,1.86,3.49,8.36,2.93,19.91,2.59,8.85-.27,23.53-.93,35.25.24,8.54.85,18.21,1.89,29.86,6.36,12.35,4.75,21.25,8.16,24.55,16.77,3.39,8.84-.42,19.74-6,26.24-7.49,8.74-16.11,7.13-18,13.76-1.38,4.85,2.33,10,9.8,20a116.64,116.64,0,0,0,17.2,19c7.53,6.67,16.32,14.45,30,19,8.53,2.84,14.65,4.87,21.35,2.49,9.47-3.36,8.93-11.54,18.65-15.49s22.37-.92,25,5c1.67,3.76-1.64,6.73.23,14.35.49,2,1.35,5.53,3.63,7.71,5.11,4.87,14.72.5,24.53-1.3,21.14-3.87,45.53,3.73,48.61,14.24.43,1.45-.72,6-3,15-2.21,8.75-3.36,13.18-5.37,16.23-5,7.57-9.93,6.42-11.63,11.77-2.44,7.69,7,12.61,5,20s-13.18,10.35-21.23,12.54-10.14,1.25-27.81,3.69c-15.19,2.1-18.47,3.46-19.72,6.3-1.73,4,.76,10.1,4.76,12.47,2.19,1.3,3.82.86,19-1,5.74-.7,6.81-.8,8.25-.87a73.7,73.7,0,0,1,13.93.63c13.41,1.63,14.59-1.37,25.89.13s20,5.9,25.24,8.59c6.1,3.16,6.15,4.08,16.14,10.33,8,5,9.59,5.43,23.83,13.37,23.61,13.16,24.37,14.84,28.92,14.37,8-.82,7.45-6.18,23.8-12.55,6.26-2.44,10.55-4.11,16.83-4.89,3.12-.39,5.13-.54,8.12-.92,2-.25,3.38-.48,4.37-.66a14.49,14.49,0,0,1,2.84-.52h.84C1986,1547.94,2000.82,1550.58,2007.11,1562.49Z"/><path id="Nakhchivan" class="cls-5" d="M2001,1778.65c1.16-8.06-13.53-10.5-20.68-28-2.88-7-2.28-11-6.35-13.61-5.18-3.34-9.81.67-20.49.7-3.34,0-18.38.06-25.51-8.7-4.39-5.4-.79-8-6-23.41a102,102,0,0,0-7.62-16.92c-4.29-7.86-6.43-11.8-9.37-13.67-7.9-5-13.7,1.68-23.08-2.44-6.09-2.67-9.3-8-15.73-18.8-2.2-3.69-1.77-3.54-8.19-15.76-6.82-13-8.25-14.94-11-16-5.61-2.16-11.79,1.31-16.75,4.1A40.53,40.53,0,0,0,1816,1640c-4,6.54-2.74,8.47-6.17,14.19-5.35,8.93-13.93,13.21-17.19,14.63-9.59,4.17-25.63,6.28-33.64-1.82-5.46-5.53-2.45-11-8-15-4.38-3.14-8.45-1.26-24.82.07-20,1.62-22.87-.45-24.18-2.07-3.66-4.52,1.26-10.14-3-16-2.9-4-7.84-5-13.92-6.3-5.66-1.19-10.85-2.28-15.08.3s-4.06,6.71-7,14c-2.3,5.7-8,19.74-18,23-9,2.92-14.33-5.19-24-1-1,.45-6.64,3-9,8.86-2.94,7.17.93,14.36,2.51,17.3,4.93,9.17,13.72,13.17,17.53,14.84,8.17,3.58,9.74,1.22,17,5s11.76,9.35,14.63,13c6,7.68,4.76,10,9.06,15.52,5.6,7.14,12.83,9.68,25.08,14,17.6,6.18,24.66,4.17,30.23,11.47,3.25,4.25,1.6,5.91,5.92,12.57,1.75,2.71,6.94,10.7,15.2,14.13,5.24,2.18,8.26,1.09,31.38-2.5,16.94-2.63,19.35-2.67,22.5-1.2,4.1,1.91,4.69,4.15,15,18,7.3,9.81,11,14.75,14.09,16.41,8.58,4.61,18.33,2.26,26.84.21,12.31-3,13-6.37,25.47-10.66,3.79-1.3,6.43-1.92,34.8-5.42,24.53-3,26.45-3,33.8-4.54a130,130,0,0,0,31-10C1994.92,1785.82,2000.38,1783.23,2001,1778.65Z"/><path id="South_Azerbaijan_Iran_" data-name="South Azerbaijan Iran " class="cls-5" d="M2642.2,1658.32A66.72,66.72,0,0,0,2609,1666c-19.23,10.15-18.17,21.84-31,24-9.61,1.62-13.31-4.41-32.86-12.09-7.64-3-18.42-5.35-40-10.05-37.55-8.18-35-5.76-55.8-11.19-26.29-6.86-31-10.91-46.14-13.67a78.5,78.5,0,0,1-19.21-6,83.74,83.74,0,0,1-9.89-5.49c-9.83-6.35-16.36-10.57-19.15-17.62-3.42-8.62.34-17.5,3-23.89,4.69-11.1,14.07-21.8,16-24,4.86-5.55,8.43-8.54,8-13-.35-3.66-3.2-6.42-7-10-4.88-4.61-8.31-6-11-8-3.24-2.35-5.42-5.45-11.68-27.74a264.73,264.73,0,0,1-7.29-31.83c-2.16-13.73-1.59-18,.67-21.71,3.65-6,9.63-7.08,9.26-10.64-.44-4.19-9.16-6.6-13-7.66-3.65-1-5.5-1-15.69-1.82-15.86-1.23-17.34-1.62-19.25-2.6-6.73-3.45-6.72-8-11.79-8.6-2.19-.28-4.44.29-13.26,6.62-8.59,6.18-12.89,9.26-18.14,14.83-5.46,5.78-4.46,6.22-12.26,16.08A294,294,0,0,1,2232,1482c-6.63,6.91-8.22,8-12.52,13.24-5.77,7-8.92,10.87-10.48,16.76s.21,7.54,0,17c-.23,10.45-.4,17.85-4.69,23.09-7.12,8.7-18,2.08-27.83,11.26-5.12,4.76-6.6,10.62-8.95,19.92-3.53,14,0,16.41-2.53,30.62-1.11,6.21-3.61,19.38-13,31.11-5.7,7.12-7.46,5.63-16,15a117.59,117.59,0,0,0-16,23c-4,7.36-3.79,8.89-11.72,30-9.22,24.54-11.48,27.92-15.28,31-4.42,3.57-4.75,1.73-22,9-13.44,5.66-20.15,8.49-25,13-9.3,8.65-7.42,14.8-15,18-6.9,2.91-9.85-1.6-22.06-.7-2.78.2-6.32.71-22,6.59-17.83,6.68-18.66,8-26.42,10.58s-10.62,2.39-34.53,5c-24.62,2.74-36.93,4.11-41.59,5.44-22.65,6.48-24.84,15-37.4,13-15-2.28-27-16.6-29-19-7.67-9.14-7.74-14.92-15-18-6-2.54-8.38.32-22.5,1.2-10,.62-20.11,1.25-30.5-3.2-5.6-2.4-9.73-5.93-18-13-12.17-10.4-10.78-12.25-17.24-16.11-12-7.16-17-1-29.76-7.89-2.15-1.16-13-7-19-19-4.48-9-2.79-14.48-8-18-5.5-3.71-9.29,1.13-18-1-10.48-2.56-10.12-10.83-25.53-19.84A63.64,63.64,0,0,0,1600,1684c-6.91-2-20.52-5.89-26,0-2.76,3-.83,5.58-1.75,19.46-1,14.62-3.38,15.65-1.48,19.54,4.57,9.35,19.11,4.58,25.89,15,1.87,2.88,2,8.6,2.34,20,.39,14.14.58,21.21-2,25-5.74,8.67-19.35,11.44-28.67,10.61-8.38-.75-11.89-4.27-16.87-1.73s-3.45,7.3-9.51,13.1c-6.85,6.55-13.52,4.92-15.11,9.74-.36,1.07-1,4.19,5.11,12.26,6.41,8.43,13,12.77,18.43,16.67A252.32,252.32,0,0,1,1575,1864.5c11.35,10.89,17,16.33,19.51,23.81,4.59,13.76-3.7,18.92,1.47,29.67,5.32,11.07,20.18,18.25,32,17,6.32-.67,7.33-3.28,16-4,3.44-.29,12-1,20,3s10.88,9.85,16,16c3.24,3.89,14.28,11.37,24,18,10.91,7.44,19.54,12.74,24,20,6.94,11.28,5,20.24,11,32a62.17,62.17,0,0,0,13,17c1.86,1.77,11.53,8,16,15,3.32,5.18,5.51,15.78,6,29,.36,9.7.1,15.8,4,23,2.54,4.68,7.77,11.59,16,15,8.67,3.6,14.51-.3,22,4,8.41,4.82,12.29,19.92,15,24,5.62,8.46,13,11.87,23,19,6.77,4.85,16.82,14.31,26,22,6.4,5.36,14.5,12.13,19,16,5.64,4.85,11.3,10.44,16,14,7.27,5.51,12.39,8.24,17,15,4,5.93,4.45,11.88,10,18,5.12,5.65,9.65,5.57,15,11,7.08,7.18,6.89,14.35,12,21,7.88,10.27,20.19,13.69,33,16,27.56,5,56,8,75,8,13.41,0,25.59,1,39,1,15.28,0,28.9,0,44,1,5.16.35,14.54,1.28,22,2,10.1,1,22.76,2.19,30,3,11.23,1.26,21.75,2.89,33,4,12.61,1.25,24.39,1.72,37,3,10.75,1.09,23.64,2.65,30,4,23.67,5,34.56,16,58,22,13.59,3.46,46.42-.05,68,15,7.47,5.21,11.66,10.61,19,16,6.21,4.56,11.87,7.34,18,12,9.55,7.25,14.6,14.56,24,22,6,4.71,16.67,10.89,28,16a166.31,166.31,0,0,0,33,11c15.72,3.4,29.55,2.36,47,3,10.81.39,29.32.87,46-1,9.78-1.1,18.1-3.38,23-6,8.34-4.47,12.38-10.76,22-15,5.66-2.49,11-3.48,18-4,17.76-1.31,34.73.46,52,1,14.29.44,27.52-.72,36-3,6.82-1.83,18.3-6.88,29-13,10.46-6,18.41-12.24,29-18,12.4-6.74,24.84-11.11,32-12,14.45-1.79,23.25,1.72,37,4,13.52,2.24,23.33.13,37,1,14.1.9,26.68-.17,41,0,4.62.05,16.31.1,27-7,10-6.61,15.66-17,18-26,2.2-8.45.93-14.87,0-25q-.9-9.87-1-20c-.13-13.5,1-21.65-4-30-5.78-9.64-16.63-14.76-25-17-16.52-4.43-31,4.94-46-3-7.22-3.82-8.13-8.57-15-13-13.4-8.64-27.95-6.67-41-6-11.91.61-20.1-1.85-32-1-7.61.54-17.48,1.8-29-3-5.82-2.43-14.86-8.64-23-19-6.26-8-11.56-19.93-14-24-5.15-8.61-12.6-16.16-17-22-7.62-10.1-12.73-19.65-20-30-6.15-8.76-12.57-16.33-19-25-4.79-6.46-9.25-12.67-14-18s-11.83-12.68-18-19-11-11.45-14-20c-4-11.55-1.67-21.1,0-32,1.19-7.79.9-14.2,2-22,1.06-7.52,2.52-16.8,0-28-.91-4.06-3-13.06-10-21-6.08-6.92-11.45-8-18-12-11.08-6.76-27.16-22.81-26-41,1.27-19.45,22-37,39-36,15.84.94,20.93,17.59,30,15,9.37-2.68,10.58-23.12,13-64,1.53-25.87,0-32.9-5-38-7.65-7.79-19-6.51-24-17-2.28-4.76-.32-5.79-3-14a55.72,55.72,0,0,0-11-19c-7-7.85-11.12-7.35-18-13-17.06-14-8.37-33-25-42C2656.5,1658.84,2647.45,1658.51,2642.2,1658.32Z"/><path id="Russia-2-2" class="cls-5" d="M2133.35,729.72a38.79,38.79,0,0,1,3.57,8.17,44.19,44.19,0,0,1,1.54,16.34A54.75,54.75,0,0,1,2137,764c-1,4.1-1.84,7.3-4,11a24.89,24.89,0,0,1-9,9,25.56,25.56,0,0,1-13,3c-6.6-.08-13-.53-19-1a106.71,106.71,0,0,1-13-1c-4.77-.9-11.9-3.6-19-7-7.6-3.64-14.79-8-18-11a68.27,68.27,0,0,1-10-13,42.7,42.7,0,0,1-5-11c-1-3.84-.93-7.37-1-12-.09-5.9-.31-8.85,0-12a53.27,53.27,0,0,1,3-13"/><path id="Georgia" class="cls-5" d="M1528,1156c-9.84-2.34-17.78-2.48-22-2s-28,1.21-43,2c-6.81.36-18.41,1.21-30,7-9.52,4.76-14.88,10.78-17,15-1.81,3.6-3.62,13.53-2,25,.93,6.58,2.52,12.29,0,14-2.69,1.83-8.33-3.06-14-3-5.18.06-8.43,2.71-14.5,6.75-3.82,2.54-8.21,5.32-10.5,6.25-7.89,3.21-14.59,2-25,2-9.48,0-16,1.16-21,4a27,27,0,0,0-11,11c-3.45,6.88-1.76,13.76-3,19-1.46,6.14-6.29,11.45-12,19-2.65,3.51-8.48,13.92-13,22-1.88,3.37-5.78,10.5-3,17,2.44,5.7,8.92,8.17,12,9,7.63,2.06,12.58-1.14,20,0,5.55.85,8.37,2.94,11,4,11.68,4.69,26.59-6.28,59-29,28-19.64,34.19-23.57,41.72-28,13-7.58,19.52-11.37,27.3-14.72,19.69-8.5,29-8.19,38-18.32,2.62-3,5.07-7.69,10-17.17,7-13.61,7.48-17.59,11.71-26.28,11.86-24.3,27.15-31.87,23.72-38.88C1540,1158.86,1536,1157.91,1528,1156Z"/><path id="Kars_Turkey_" data-name="Kars Turkey " class="cls-5" d="M1152,1408c-3.56,3.92,0,15.49,7,22s14,4.71,16,10c2.34,6-6,12.1-4,19,.58,2,4.35,6,11,9,1.49.68,6.42,1.69,9,4,4.83,4.33,4,11.17,7,16,1.24,2,6.78,6.41,13,10,6.07,3.5,10.62,4.94,13,9,3.36,5.73.86,11.14,1,20,.2,12.6,4,19.29,8,22,5.06,3.38,12.39,3.37,18,1,8.08-3.41,9.73-11.69,18-14,2.14-.6,5.46,0,12,1,9.65,1.41,11,2.86,13.13,1.59,4-2.4,3.55-10.25,2.87-21.59-.41-6.87-.62-10.31-2-13-4.82-9.41-14.69-7.21-18.18-14.37-4.68-9.64,9.83-20.55,5.18-28.63-2.44-4.25-7.43-3-21.6-7.2-10-3-16.69-5-23.4-9.8s-12.41-12.37-24.09-27.73c-3.87-5.09-5-6.84-7.91-8.27-7.86-3.87-13.65,2-26.52,2.8C1162.83,1411.77,1155.59,1404.06,1152,1408Z"/><path id="Ighdir_Turkey_" data-name="Ighdir Turkey " class="cls-5" d="M1612.85,1662.51c4.53,5.41,3,17.28-3,21.49-9.06,6.38-23.73-7.93-32.59-1.26-3.76,2.83-4.26,7.76-5.23,17.26-1.91,18.66,3.59,28.75,0,31-4,2.5-10.57-10.14-27-15-7.68-2.27-16.34-3.1-33,0-8.82,1.64-16.15,1.54-25,3a108.6,108.6,0,0,1-24.5,1.18,95.59,95.59,0,0,1-16-3c-9.68-2.58-21.31-5.68-26.5-6.18-7.64-.74-20.48.07-32-2-5.7-1-12-2.75-17-8-4.59-4.83-6.65-15-8-18,0,0-1.61-3.47-4-10-2.26-6.19-2.11-6.84-1.87-7.27,1.93-3.4,13.39.57,27.87,3.27,7.52,1.4,14.35,1.93,28,3,19.78,1.54,32.46,1,54,0,11-.5,13.23-.88,16-2,13.61-5.47,13.6-17.23,25.64-20.9,7.24-2.21,14.23-.08,22.15,2.32,9.77,3,10.85,6,19.21,8.58,5.37,1.66,9,1.66,26,.9C1605.31,1659.59,1609.84,1658.91,1612.85,1662.51Z"/><path id="Iraq-right-2" class="cls-5" d="M2095,2847a30.79,30.79,0,0,0-7,7c-4.22,6.76-3.32,14.2-3,17,1.06,9.16,2.24,20,2,25-.38,8-2.4,13.12-1,21,1.36,7.63,4.64,12.75,7,15,3,2.83,10.53,6.48,22,6a41.92,41.92,0,0,0,23-8c6.61-4.87,10.12-12.77,16-23,5.06-8.79,8.33-13.93,9-22a35.53,35.53,0,0,0-4-20c-2.51-4.54-9.35-11.85-21-17-4-1.78-6.79-2.28-10-5-4.71-4-6.87-12.53-11-13-1.34-.15-4.49,1.9-8,6-1.53,1.79-2.31,3.36-4,5C2101.72,2844.2,2097.63,2845,2095,2847Z"/><path id="Iraq-left-2" class="cls-5" d="M1473,2657c.73-7.92,1.73-15,3-23,.86-5.41,1.31-8.95,4-13,3.09-4.66,7.08-6.86,13-10,3.24-1.72,7-3.62,9-5,5.39-3.64,7.56-7.43,13-11,3.24-2.13,9.93-4.23,17-6,8.74-2.19,16.56-3.53,22-3a49.08,49.08,0,0,1,15,4c5.42,2.38,11.3,7.42,18,13,5.8,4.84,9.59,8.11,12,14a32.72,32.72,0,0,1,2,13c-.46,8.4-.86,19.88-1,26-.17,7.57-.87,14.42-1,22,0,2.68-.13,9.82-5,15-5.34,5.68-13.47,5.86-17,6-9.36.36-16.66,2.29-26,3-9.76.74-20.45.83-30,1.33-3.9.21-12.34.7-20-4.33-4.85-3.18-6.9-7.35-11-13-3.16-4.35-6.88-9.1-9-11s-5.26-4.37-7-9A20.52,20.52,0,0,1,1473,2657Z"/><path id="Caspian_Sea" data-name="Caspian Sea" class="cls-6" d="M1526-4c-5.66,16.21,3,29,0,50-1.59,11-5.24,23.12-12,37-4.75,9.75-13,21.06-16,26-1.19,1.94-8.13,15.89-14,23-6.64,8.05-18.47,14.28-23,25-8.25,19.54,5.2,44.77,17,61s26.57,26.67,33,29c29.75,10.78,52.17-12.42,84-6,10.35,2.09,31.47,12.61,51,32,8.49,8.43,14.47,16.9,20,25,10,14.7,20.46,25.67,31,40a747.24,747.24,0,0,1,49,75c13,23.07,26.44,49.27,30,62,5.68,20.33,6.83,35.62,18,55,6.66,11.56,19.23,26.76,37,41,14.21,11.39,26.09,17.13,42,26,7.6,4.24,26.84,17,41,26,15.38,9.77,32.29,21.34,45,29a265.41,265.41,0,0,1,28,19c11.11,8.72,21.81,19.78,30,27,11.11,9.79,22.48,18.83,32,25,14,9.1,28.91,13.56,41,20,3.47,1.85,10.7,5.85,20,5,5.36-.49,11.16-2.68,17-7,4.89-3.62,7.45-7.28,13-8a17.21,17.21,0,0,1,10,2c7.06,3.52,9,9.69,15,18,3.14,4.37,7,8.54,9,10,6.95,5.1,14.18,5.24,20,8s8.33,6.12,14,9c5.37,2.72,9.65,3.24,15,6,7.58,3.91,11.31,8.71,18,14,5.72,4.52,11.4,7.13,18,11s14.52,8.94,22,14c7.29,4.92,13.79,10,21,15,5.25,3.67,14,9.94,21,15a133.35,133.35,0,0,1,19,17,92.62,92.62,0,0,1,10,13c2.77,4.72,4.67,9.86,8,15a59.17,59.17,0,0,0,7,9c5.44,5.39,15.12,9.77,17,11,3.92,2.57,7.77,6.4,13,9s9.43,3.29,15,5c8.84,2.71,13.85,7.27,22,11,6.7,3.07,13.81,5,21,9a93,93,0,0,1,15,10c5.06,4.36,8.39,8.37,14,12,4.08,2.64,7.71,3.72,12,6,1.18.63,9.2,5.88,15,8a98.33,98.33,0,0,0,13,3c6.53,1.22,11.36,1.93,16,1a34.77,34.77,0,0,0,13-6c4.83-3.52,10.36-7.08,14-10a46.24,46.24,0,0,1,11-7,42.53,42.53,0,0,1,11-3,47.06,47.06,0,0,1,18,1l11,3c4,1.06,8.19,2.1,12,3,7.34,1.73,13.81,2.73,21,5,9,2.86,15.81,6.13,22,11a54.73,54.73,0,0,1,9,9c5.84,7.31,9.22,15.08,8,16s-5.94-5-13-7a42.31,42.31,0,0,0-7-1,61.45,61.45,0,0,0-9,0c-2.79.19-5.25.68-8,1-3.92.45-7.1,1.41-11,2-1.3.2-4.39.64-6,3-1.25,1.82-.87,3.72-1,6a39.66,39.66,0,0,1-2,7c-1,2.81-2.24,5.34-3,6-3.47,3-7.94,1.19-14,2-3.39.45-7.33,3-12,5s-7.64,3.09-11,6a41.3,41.3,0,0,0-7,9,84.09,84.09,0,0,0-5,9c-1.41,3.39-2,5.93-4,9a32,32,0,0,1-8,8c-4.29,3.15-7,6.49-11,10-1.56,1.36-5.87,5.83-9,9a31.16,31.16,0,0,0-7,11,22.4,22.4,0,0,0-1,12c1.06,4.84,3.51,6.85,6,11,3,5,3,10.23,5,16,1.49,4.32,2.95,7.26,3,11,.09,6.56-2.93,9.39-3,16,0,3.83,1,6.17,2,10,1.61,6.49,1,11.39,2,18,.93,6.29,2.92,10.74,4,17,1.13,6.57,1.59,11.9,6,16,1.39,1.29,6.36,3.72,12,5,5.15,1.16,8.45,1.22,9,3,.6,2-2.53,4.49-7,8-4,3.15-7.42,5.86-10,9a37.45,37.45,0,0,0-7,14,36.25,36.25,0,0,0-1,17c1.43,6.54,4.81,11.52,10,17a126.19,126.19,0,0,0,15,13c5.21,3.54,11,8.55,17,13,6.41,4.79,10.59,9.66,17,14a68,68,0,0,1,7,7c1.49,1.65,3.58,4.19,3,7a4.34,4.34,0,0,1-2,3c-2.75,1.4-6-2.49-12-5-2.26-.94-8.86-1.69-15-2-4.21-.21-7.24-.06-9,2-2,2.3-1.53,6,0,11a80.17,80.17,0,0,0,5,12,122.06,122.06,0,0,1,6,12,76.91,76.91,0,0,1,4,11c1.31,5.34,1.08,9.58,2,15,.6,3.55,1.51,6.44,2,10a48.37,48.37,0,0,1,0,15,41.11,41.11,0,0,1-4,11,43.67,43.67,0,0,1-7,10c-6.19,6.6-10.46,9.09-13,8-3.63-1.56-5.12-9.67-2-14,2.38-3.31,6.58-2.9,10-6,2.43-2.21,5-6.06,4-9s-5.24-3.64-12-5c-8.8-1.77-14.05-3.41-19-1-2.55,1.24-6.21,4.26-9,10-3.32,6.81-3,12.76-3,18,0,7.12-1,12.88-1,20a145.28,145.28,0,0,0,1,19,167.77,167.77,0,0,0,4,17c1.94,7.41,3.48,14.27,6,20s5.38,9.48,8,15c2.82,5.93,4.14,11.09,7,17,1.64,3.38,5.07,9.13,8,14,2,3.39,4.8,7.86,6,10,2.56,4.55,5.32,10.39,8,16s5.72,12,8,16c2.59,4.56,5.47,8.77,8,13,3.14,5.25,6,10.94,9,17,4.37,8.91,9.81,20.07,13,26,4,7.4,8.13,13.54,12,21,4.18,8,7.22,15.29,12,23,3.58,5.76,7.8,11.12,12,17,3.85,5.4,7.83,11.13,11,16a175.28,175.28,0,0,0,12,17c2.83,3.43,7,7.91,11,12,4.65,4.75,8.18,8.28,12,14a66.58,66.58,0,0,1,6,11,60.36,60.36,0,0,1,4,13c1.34,7.38.14,12.55,1,20a57.72,57.72,0,0,0,4,16c2.46,5.67,5.93,10.16,11,16,4.43,5.11,9.44,10.63,13,14,3.29,3.12,8.41,7.24,13,11a149.57,149.57,0,0,0,13,10c6.24,4,11.59,5.31,18,9,5.89,3.39,9.48,6,16,8a57.88,57.88,0,0,0,10,2c7.73.92,14.23,2.45,22,3a188.61,188.61,0,0,0,21,0c11.77-.38,21.23,1.2,33,1,4.61-.08,17,.65,26,1a56,56,0,0,1,12,2,42.34,42.34,0,0,1,14,7c4.27,3.33,6.34,6.82,10,11a109.19,109.19,0,0,0,9,9,55.75,55.75,0,0,0,11,8c4.92,2.43,12.52,3.71,22,4,6.3.19,11.15-.21,17,1,6.4,1.32,10.76,3.56,16,6a126.16,126.16,0,0,0,19,7,124.48,124.48,0,0,0,22,4c8.69.9,19.26,1.82,25,2,11.88.38,27.93,1,35,1,30,.08,62.81-.14,88-1,8.12-.28,29.9-1.32,45-2,14.23-.64,44.08-2.71,66-4,7.44-.44,28.74-3.08,44-5,13.28-1.67,21.74-6.16,35-8,2.37-.33,11.9-1.87,19-8a21.78,21.78,0,0,0,7-10c.6-1.93,1-6.83,0-12-1.25-6.38-3.7-10-2-14,.87-2,3-4,7-6a50,50,0,0,1,14-4,107.27,107.27,0,0,1,15,0c13.38,1.81,30,2.13,46,4,10.94,1.28,21.78,2.26,33,3a240,240,0,0,0,27,3c5.68.31,17,.11,26,0,5.49-.06,15.87-1.38,25-3a33.85,33.85,0,0,0,13-5,31.6,31.6,0,0,0,10-11c3.08-5.62,3.61-10.52,4-15,.52-6,1-13,1-17a132.36,132.36,0,0,0-1-17c-.88-6.47-2.5-11.65-4-18-2.16-9.14-2-16.11-5-25a85.05,85.05,0,0,1-4-14c-.77-4.54-.67-8.4-1-13a137.78,137.78,0,0,0-2-15,60.89,60.89,0,0,0-4-14c-3.92-8.81-9.31-14.48-13-17-2.58-1.76-9.17-4.37-16-6-3.56-.85-7-1.51-11-4a29.5,29.5,0,0,1-9-9c-4.52-6.84-5.64-15-6-18-1-8.51-3.58-14.55-5-23-2.19-13-5-29.24-6-38-1.11-9.46-1.62-18.58-3-28-1.28-8.68-3.37-18.43-5-28-1.1-6.43-2.15-13-3-19-1.21-8.54-2.23-17-3-25-.89-9.38-1.52-21-2-32-.37-8.52-.7-17.28-1-26-.36-10.58-.58-24.77-1-31-.54-8-.87-18.34-1-28,0-3,.49-10.33,1-16,.79-8.76,1.91-14.73,5-20,1.65-2.81,4.74-7,7-11,2.41-4.26,3.94-7.86,3-12-.85-3.75-3.49-6.83-7-9a29.78,29.78,0,0,0-6-3c-6-2.21-11.47-1.7-17-3-3.87-.91-7.18-2.21-10-5a20.21,20.21,0,0,1-3-4,32.27,32.27,0,0,1-4-11c-.73-4.45-.17-7.49,0-12a53.51,53.51,0,0,0-1-13,47.41,47.41,0,0,0-7-17c-3.35-5-6.86-7.74-12-12-5.89-4.89-10.94-9.62-17-14a103.29,103.29,0,0,0-11-7,72.63,72.63,0,0,0-11-5,70.83,70.83,0,0,0-16-3,96.52,96.52,0,0,0-17,0c-5.72.52-10.26,1.71-16,2-4.19.21-6.87-.74-11,0-2.11.38-4.4,1-7,0-3.28-1.27-4.76-4.28-7-9a82.32,82.32,0,0,1-5-12c-1.13-3.91-1.52-6.8-1-10,.69-4.26,2.29-7.57,5-9,3.09-1.64,6.65-.43,8,0,5.81,1.83,11.07.77,18,2,8.89,1.58,19.89,3.54,24,5,3,1,11,4.12,19,1a17.65,17.65,0,0,0,8-6c3.19-4.45,3.08-9.21,3-14-.13-7.9.45-14.43-1-21-.59-2.69-2.81-8.21-5-13-1.64-3.59-3.52-7-7-8-3.27-.93-6.25.79-10,3-3.57,2.11-7.71,4.31-10,6-3.38,2.5-7.86,5.82-9,7-2.11,2.2-5.05,5.77-10,7a8.86,8.86,0,0,1-5,0c-3.7-1.28-4.93-5.25-7-10-1.65-3.77-3.58-6.14-5-10-1.85-5-2.13-8.73-3-14-.49-3-2-9.88-3-15a52.51,52.51,0,0,1-1-12,62.64,62.64,0,0,1,3-14c.93-3,2.69-9.82,4-15a21.85,21.85,0,0,0,0-12,21.53,21.53,0,0,0-7-10c-6-5.14-12.72-6.3-18-7-11.24-1.49-19.66-1.22-31-1a39.41,39.41,0,0,0-15,3,29.61,29.61,0,0,0-9,6c-3.06,3-6.19,7.63-8,15a35.1,35.1,0,0,0-1,10c.44,9,4.35,15.37,8,21,4.15,6.4,8.88,14.16,11,16,.68.59,6.95,6.37,10,12,1,1.94,1.89,4.16,1,6-1.25,2.57-5.35,3-7,3-2.86.06-6.17-.9-10-4a30.9,30.9,0,0,1-6-7c-2.83-4.53-5.93-6.64-9-11-3.83-5.43-5.94-10.1-9-16-3.17-6.12-6.64-11-10-17-2.17-3.88-6.62-12.55-10-19s-7.08-13.52-10-18c-3.6-5.52-7.48-10.17-11-16-3.1-5.13-5-9.82-8-15-4.59-7.91-9.65-13.58-15-21-2.81-3.9-7.88-11.86-12-18a105.63,105.63,0,0,1-9-16,131,131,0,0,1-6-18,144.77,144.77,0,0,1-4-20c-.49-4.19-.45-7.82-1-12-.85-6.46-2.43-11.51-3-18-.44-5,.18-9,0-14-.34-9.69-1.71-16.78,1-18,1.68-.75,5.58,2.23,8,3,4.6,1.46,7.63,1,9,0,3-2.28,2.48-7.58,2-11a150.21,150.21,0,0,0-3-16c-1.32-4.53-1.77-8.45-3-13-1.63-6-3.61-10.94-5-17-1.62-7.08-1.61-12.88-3-20-.83-4.26-2.55-11.17-4-17-2-7.85-3.39-13.34-2-14,.94-.45,3.63,2.55,8,8a72.91,72.91,0,0,1,7,10c2.73,5.26,3.34,9.31,5,15,1.15,3.93,2.66,7.12,4,11a157,157,0,0,0,6,16,64.28,64.28,0,0,0,8,13,39.31,39.31,0,0,0,7,7c5.09,3.89,10.15,5.67,13,6,6.12.7,10-1.76,16-4,6.52-2.43,10.63-1.21,17-4,6.84-3,10.12-6.44,16-6,6.94.52,11.5,5.94,16,11a153.9,153.9,0,0,0,15,15,78.64,78.64,0,0,0,21,12,103.64,103.64,0,0,0,26,6c9.3,1,18.31.9,24,0,8.68-1.37,14.32-3.92,22-7,9.83-3.94,18.12-5.2,28-9,9.19-3.53,16.79-7.53,26-11,7.67-2.89,16.1-5.58,25-8,9.33-2.54,16.21-4,25-8,9.64-4.43,14.65-10,24-15,5.4-2.89,13.81-7.32,21-13a33.14,33.14,0,0,0,11-14,30.15,30.15,0,0,0,2-15c-1-7.59-4.79-12.32-10-19-5.34-6.84-9.12-13.06-15-19-4.55-4.6-9.09-7.79-14-12-3.61-3.1-9.35-8.88-15-13-6.66-4.86-14.26-8.66-23-13-4.05-2-9.29-4.6-12-6-6.93-3.58-13.11-7.34-20-11-8.16-4.33-15.85-7.65-24-12-5.64-3-10.28-6.14-16-9s-9.24-6.16-15-9a13.79,13.79,0,0,1-6-5c-3-4.77-.76-9.43-1-17a36.16,36.16,0,0,0-2-11,41.55,41.55,0,0,0-7-12c-2.93-3.7-5.15-7.25-8-11s-5.22-7.29-8-11a37.33,37.33,0,0,1-8-27c.4-5.22.77-13.4,1-20a66.17,66.17,0,0,0-1-15c-1.48-7.92-4.53-13.54-7-16-5.82-5.81-13.4-6.47-19-7-6.49-.61-12.25-2-18-2-4.5,0-19.43-.7-26-1-5.18-.24-15.78-1.26-24-2-6.58-.6-19.16-1.38-29-2-3.85-.24-10.34-.2-16,0-7.76.27-13.49.93-20,3a71.12,71.12,0,0,0-15,7c-6.14,3.69-10.33,7.62-16,12-5.5,4.25-10.2,7.12-15,12-4.5,4.57-7.07,9.15-11,14s-7.16,8.58-10,15a50,50,0,0,0-3,9,55.53,55.53,0,0,0-1,15,83.73,83.73,0,0,0,2,14c1.5,6.35,3.1,12,5,18,2.14,6.75,4.17,13.49,6,20a170.54,170.54,0,0,0,6,17c2.5,6,5,10.63,8,14s7.61,7.15,12,11c1.69,1.48,4.92,4.34,6,9,.79,3.4-.48,6.84-2,12-1.3,4.42-3.16,8.09-4,12-.35,1.62-.7,3.52-2,4-2.4.88-6.62-3.62-9-8a29.28,29.28,0,0,1-3-11c-.56-5.51-2.69-9.34-4-15a44.33,44.33,0,0,0-4-11c-2.45-4.48-5.63-7.66-10-12a81.31,81.31,0,0,1-9-10,50,50,0,0,1-6-11,58.55,58.55,0,0,1-3-16,125.74,125.74,0,0,1,0-14,49.57,49.57,0,0,0-1-11c-1.38-5.86-3.77-9.31-6-11-2.42-1.83-4.67-2-8-3-6.66-2-10.34-5-11-7-1-3,.85-5.88,3-11,2.64-6.29,3.26-10.54,2-13-1.67-3.25-5.43-4.68-8-5-4.19-.52-6.73,1.61-11,3-1.72.56-6.7.79-11,1s-7.67.17-10-1c-4.5-2.27-6.22-6.64-9-14-1.41-3.73-2.91-7.77-4-11-1.68-4.94-2.76-8.52-3-13a40.65,40.65,0,0,1,1-11,103,103,0,0,1,4-14c1.73-4.38,3.25-8.63,5-13,3.16-7.9,5-15.05,8-23a131,131,0,0,0,5-14c1.64-6.16,2.79-15.34,3-25a170.12,170.12,0,0,0-1-22,184.89,184.89,0,0,0-3-19,61,61,0,0,0-3-19,105.44,105.44,0,0,0-6-13c-3.77-7.35-6.48-12.08-11-15-5.76-3.73-11.58-3.88-15-4-6.33-.22-11.67-1-18-1-6.87.05-14.31.23-20,0a117.65,117.65,0,0,1-12-1c-9-1.41-16-4.28-23-7a146.32,146.32,0,0,0-23-7,104,104,0,0,1-15-4c-4.81-1.76-8.29-4-13-6-8.46-3.58-16.19-3.91-25-9-4.87-2.82-7.24-6-12-9s-8.12-4.61-12-9a37.61,37.61,0,0,1-7-12c-2.49-6.82-1.37-11.24-4-18a30.47,30.47,0,0,0-9-13c-2.31-1.89-7.14-4.44-13-6a58.85,58.85,0,0,0-15-2c-6.81-.06-12.77,1.07-20,2-3.49.45-7.16.86-10,1a71.24,71.24,0,0,1-17-1c-6.11-1.17-11.81-3.53-14-5-5.71-3.83-8.31-8.48-11-13-2.28-3.84-4.65-7.2-7-11-2.74-4.45-6.29-9.93-8-13-1.89-3.38-5.3-9.48-6-11-1.93-4.19-3.53-8.35-8-12-3-2.43-8.55-5.69-15-5-4.9.52-7.7,3.13-13,7-4.41,3.22-8.46,5-13,8-1.74,1.16-6.15,4.13-12,4-6.2-.14-10.43-3.65-15-7-3.09-2.26-5.93-3.72-9-6a215.32,215.32,0,0,0-19-12c-2.8-1.61-8.56-4.64-13-7-3.94-2.09-9.65-4.72-15-7a46,46,0,0,0-15-4c-4.33-.35-10.35.44-17,2-8.44,2-17.21,4.91-21,7-4.14,2.28-6.83,4.77-11,7-6.18,3.3-13.56,4.64-22,7-5.22,1.46-8.83,2.48-13,1-5.23-1.85-7.75-6.36-12-14-1.73-3.12-4.07-7.06-5-9a136.44,136.44,0,0,1-7-19,165.89,165.89,0,0,0-8-21c-3.1-6.84-6.63-12.29-10-19a82.26,82.26,0,0,0-9-15,79.16,79.16,0,0,0-12-12c-4.73-3.78-10.61-8.47-14-11-7.11-5.32-12.9-10.67-20-16-5.82-4.37-12.23-9-17-12-4.13-2.63-10.65-6.45-16-10-3.53-2.34-7.22-4.89-10-7a161.17,161.17,0,0,1-15-13c-20.52-20.34-23.63-49.74-35-65-34.25-46-133.61-15.88-231-9-32.36,2.29-135.28-9.15-215-18-42.72-4.75-167.1,11.55-279,40C1580-50.64,1537.49-36.9,1526-4Z"/><path id="Black_Sea" data-name="Black Sea" class="cls-6" d="M-4,930c4.12,1.24,13.84,4.48,21,7,14.08,5,31.52,12,48,19,11.59,4.93,22.85,9.89,34,15,12.24,5.61,23.77,11.39,36,17,16.69,7.66,33.23,14.78,49,21,10.13,4,25,9.37,38,14,14.93,5.32,31.12,10.93,44,15,13.13,4.15,27.87,8.56,38,11,17.32,4.17,39.36,7.5,52,10,11.28,2.23,21.7,4.86,33,7,15.63,3,30.38,5,46,8,8.47,1.65,21.13,4.51,32,7,17.36,4,36.36,9,51,12,11.87,2.48,23.16,4.36,35,7a448.94,448.94,0,0,1,44,12c5,1.66,17.08,6.55,26,10,8.32,3.21,16.16,6.47,25,13a124.35,124.35,0,0,1,17,16,114.17,114.17,0,0,1,9,11c6.35,9.39,8.64,18,12,27,1.85,5,8.72,16.58,14,26,5.41,9.67,10.74,18.74,16,25,6.54,7.79,13.08,12.54,20,20,6.17,6.65,10.16,13.06,16,20,5.34,6.34,10.29,11.18,15,18a123.79,123.79,0,0,1,14,27,140.89,140.89,0,0,1,6,22c1.46,7.4,2.06,14.93,3,23,1.15,9.85,2.73,18.45,3,28a206.79,206.79,0,0,1-1,24c-1,10.51-2.93,19.5-4,30-.82,8.07-1,14.27-3,22-2,7.57-7.11,18.24-13,29-4.38,8-9.18,16.2-13,21-5.75,7.22-11.32,11.64-18,18s-11.56,12.51-18,19-13.53,13.29-19,18c-7.42,6.39-14.59,11.6-22,18-6.27,5.42-12.4,11.11-17,16a208.21,208.21,0,0,0-15,18c-4.85,6.5-9.22,13.67-14,21-4.55,7-9.76,14.58-15,22-4,5.66-8,11.07-12,16-5.26,6.51-10.57,11.63-16,18-3.79,4.44-7,8.28-13,12-6.81,4.23-13.31,5.83-21,7a162.19,162.19,0,0,1-25,2,195,195,0,0,1-26-2c-10.2-1.47-18.92-3.83-29-6-7.33-1.58-19.51-3.5-30-5-8.29-1.18-15.78-1.18-23-3a52.83,52.83,0,0,0-15-2c-3.92.15-11.58,1.82-19,5a88,88,0,0,0-16,9,115.13,115.13,0,0,0-14,12q-5.79,5.71-11,12c-4.73,5.7-8.38,11.21-13,17a95.47,95.47,0,0,1-11,12,92.06,92.06,0,0,1-14,10c-6.42,3.92-11.64,8-18,12-7.46,4.69-14.54,8.31-22,13-8.59,5.39-15.25,10.88-24,16-6.77,4-18.91,9.41-30,14-7.28,3-15.61,6.11-24,9a145.43,145.43,0,0,1-22,6,132.92,132.92,0,0,1-17,2c-11.23.59-19.53-.48-31-2-9-1.2-17-1.53-26-3-5.35-.88-14-2.06-23-1-5.4.64-16.16,3.92-26,8-4.4,1.83-8.69,3.8-13,6a117.43,117.43,0,0,0-18,11,68.2,68.2,0,0,0-8,7c-2.18,2.68-3.26,4.87-6,6-3.91,1.61-9,.07-15-4-9-6.14-380.13-268.18-372-500C-372,1102.41-88.61,904.5-4,930Z"/><path id="_Mediterranean_Sea" data-name=" Mediterranean Sea" class="cls-6" d="M-2,3213a59.18,59.18,0,0,0,7-8c3.67-5.07,5.21-9.39,8-15,2.33-4.68,4.82-8.25,7-13,1.93-4.22,3.39-8.34,5-13s3.26-9.29,5-14c1.49-3.71,2.81-7.33,4-11,1.72-5.3,2.74-9.1,6-14a59.18,59.18,0,0,1,7-8c3-2.89,7-5.86,11-9,4.24-3.36,6.84-5.4,11-6,3.43-.49,6.55.19,11,2a62.2,62.2,0,0,1,13,7,67.48,67.48,0,0,1,12,12,141.33,141.33,0,0,1,8,12c2.73,4.45,5,8.55,6,12a40,40,0,0,1,1,18,70.65,70.65,0,0,1-3,13,64.46,64.46,0,0,1-7,15,84.47,84.47,0,0,1-8,10c-2.89,3.34-5.18,6.6-8,10-3.29,4-7.33,9.51-11,15a33.52,33.52,0,0,0-6,19,65.09,65.09,0,0,0,1,13,107.37,107.37,0,0,0,3,13c2,6.54,4.4,11.68,7,18,2.4,5.83,4.51,11.64,7,17a107,107,0,0,0,7,13c2.57,4,5.47,7.44,8,11,2.18,3.08,3.77,6,6,9,2.73,3.73,4.58,5.91,6,10s.78,6.83,2,11c.76,2.61,2.53,5.41,3,9a25.24,25.24,0,0,1-1,10c-.12.45-1.3,6.54-2,10a103.86,103.86,0,0,0-2,13c-.11,3.37.42,6.38,0,10-1,8.38-6.61,16.2-8,18-17,22.07-90,33.76-137-4-54.35-43.69-53.83-137.59-18-178C-31.18,3238.94-6.82,3217.65-2,3213Z"/><path id="Lake_Van" data-name="Lake Van" class="cls-6" d="M1266,2149c-1.13-3.63-4-5.39-8-9a21.24,21.24,0,0,1-5-6,16.07,16.07,0,0,1,0-12,18.65,18.65,0,0,1,5-7,99.09,99.09,0,0,1,12-9c4.19-2.53,6.94-5.27,11-8,7.81-5.24,14.68-8.62,23-13,4.87-2.57,13.84-7.81,21-12,7-4.09,13.48-8,20-11,5.52-2.54,14.47-6.85,15-7a19.73,19.73,0,0,0,9-5,36,36,0,0,0,4-6c1.25-1.88,3.16-3.91,4-5,1.84-2.38,3.15-4.62,5-7,1.72-2.21,3-3.55,4-6,1-2.29.75-3.84,2-6,.41-.7,3.23-3.39,3-5-.18-1.23-2-2.4-5-4a15.25,15.25,0,0,1-4-3,7.27,7.27,0,0,1-2-4c-.07-2.28,1.66-4.16,4-6a46.61,46.61,0,0,1,8-5c.7-.26,7.35-3.26,9-4s5.26-2.62,8-4a55,55,0,0,0,7-4,49.49,49.49,0,0,0,7-6c3.19-3.18,7.21-6.84,9-9,2.28-2.76,4.38-5.34,7-8a44.12,44.12,0,0,1,8-6,17.06,17.06,0,0,1,5-2,16.27,16.27,0,0,1,10,1,17.81,17.81,0,0,1,10,14c.38,4.33-1.15,7.79-3,11a75.72,75.72,0,0,1-8,11c-1.49,1.54-5.28,5.86-8,9-3.58,4.13-6.26,8-10,12-3,3.22-6,5.77-9,9-2.56,2.73-4.38,5.32-7,8a44,44,0,0,0-6,7,39.88,39.88,0,0,0-4,8,46.17,46.17,0,0,0-2,7c-.41,2-.75,5.13-1,8a33.11,33.11,0,0,1-1,7,36.28,36.28,0,0,1-4,8c-1.22,1.9-2.67,4.08-4,6-2.41,3.48-3.7,5.53-3,7,.86,1.79,3.88,1.64,9,2,3.7.26,6.29,1.14,10,1a41.12,41.12,0,0,1,8,0,29.81,29.81,0,0,1,7,2c3.68,1.4,7.31,2.64,9,4s4.91,5.59,7,11a36.32,36.32,0,0,1,2,7c1,6.15-.19,11.35-1,15-.6,2.69-1.27,7.85-2,12-1,5.44-2,10.56-3,16a72.14,72.14,0,0,1-3,11,46,46,0,0,1-4,8,24.22,24.22,0,0,1-5,6,21.53,21.53,0,0,1-9,4,48.33,48.33,0,0,1-12,1,72.7,72.7,0,0,1-14-2c-2.87-.69-5.63-1.57-8-4s-3.66-5.72-4-10c-.27-3.41.47-5.47-1-8a10.11,10.11,0,0,0-5-4c-2-.92-5.13-3.28-8-5-5.15-3.08-8.09-5.08-10-4-1.45.82-1.75,3.05-2,7-.31,5-.34,8.58-2,12a22.19,22.19,0,0,1-6,7,25.88,25.88,0,0,1-7,4c-3.64,1.41-6.28,1.49-10,2-3.26.45-5.77,1.37-9,2-4.46.87-8.53,1.24-13,2-3.85.65-7.12,1.55-11,2-4.35.51-7.7.15-12,1-1,.2-6.28,1.81-10,2s-6.31-.72-10-1c-2.29-.18-4.66-.29-7-2a11.37,11.37,0,0,1-4-6c-.69-2.29-.47-4.63,0-8a52.88,52.88,0,0,1,1-6c.82-2.67,2.34-4.83,3-8A15.61,15.61,0,0,0,1266,2149Z"/><path id="Lake_Urmia" data-name="Lake Urmia" class="cls-6" d="M1855,2042a48.57,48.57,0,0,1,0-8c.08-2.78-.17-5.23,0-8,.22-2.35.55-4.69,1-7,.5-2.71,1.1-5,3-7a11.37,11.37,0,0,1,5-3,17,17,0,0,1,9,0c4.83,1,8.12.23,13,1a10.31,10.31,0,0,0,7-1c1.83-1.11,2.52-2.68,4-5,2.15-3.38,4.37-5.41,6-6a9.08,9.08,0,0,1,6,0,11.66,11.66,0,0,1,5,4c2,2.29,3.87,2.83,6,5,1.6,1.64,3.25,3.59,6,4,2.3.34,4.07-.6,7-2,2.46-1.18,4.59-2,6-2a10.92,10.92,0,0,1,9,6c1.21,2.4,1.08,4.53,1,7-.07,2.1.1,3.9,0,6-.21,4.26.24,7.74,0,12-.22,3.9-.89,7.09-1,11-.09,3.15.16,5.85,0,9a73.52,73.52,0,0,1-1,9c-.36,2.09-.79,3.89-1,6a56.34,56.34,0,0,0,0,9c.16,2.32.53,5.19,1,8,.67,4,1.47,6.85,3,9,2.18,3.05,4.77,4.25,8,6a57.92,57.92,0,0,1,8,5c3.28,2.77,4.51,5.43,8,8a26.46,26.46,0,0,0,8,4c3.64,1.1,6.21.69,10,1,6.55.53,10.58,2,12,0,1.12-1.61-.62-4.15,0-7a9.13,9.13,0,0,1,3-5,9.25,9.25,0,0,1,5-2,48.32,48.32,0,0,1,9,0c2.9.3,5.09-.12,8,0,4.3.18,7.7.95,12,1a75.07,75.07,0,0,1,9,0c4.25.49,6.82,2.07,11,3,1.68.38,4.18.86,6,3a11.55,11.55,0,0,1,2,5,15,15,0,0,1,0,5,26,26,0,0,1-7,12,36.57,36.57,0,0,1-5,3c-1.11.64-1.91,1.33-3,2a6.6,6.6,0,0,0-3,3c-.53,1.34-.11,2.29,0,4s-.68,3.33,0,5c.74,1.84,2.51,3,5,4,3.9,1.5,6.93,1.28,11,2,2.67.48,4.34,1.48,7,2,3.61.71,6.37.41,10,1a38.34,38.34,0,0,1,10,3c3.3,1.53,4.71,3.46,8,5,2.5,1.17,4.58,1.77,6,4,1.31,2.05.9,4.39,1,8,.06,2.27.38,3.94,0,6-.5,2.72-1.55,4.32-3,7-1.11,2.05-1.88,3.95-3,6-.79,1.44-1.91,3.29-3,5a34.2,34.2,0,0,1-3,4,14.32,14.32,0,0,1-5,4,16.41,16.41,0,0,1-5,1c-3.91.24-6.41-.52-9,1a9.87,9.87,0,0,0-3,3,13.37,13.37,0,0,0-2,6,27.83,27.83,0,0,0,0,5c.27,3.82-.82,6.18-1,10-.15,3.23.24,5.78,0,9a50.21,50.21,0,0,1-1,7,46.17,46.17,0,0,1-2,7,33.51,33.51,0,0,1-5,9,29.57,29.57,0,0,1-5,5,21.49,21.49,0,0,1-5,3,17.21,17.21,0,0,1-10,0,31.1,31.1,0,0,1-10-5c-2.71-1.95-5.85-4-9-6a58.46,58.46,0,0,1-6-4,82.57,82.57,0,0,1-7-7,69.37,69.37,0,0,1-5-5,37,37,0,0,1-5-8c-1.42-3.11-2-6.24-3-9-.91-2.52-2-4.52-3-7-1.11-2.79-1.77-5.26-3-8-1.49-3.31-3.22-5.84-5-9q-2.16-3.86-4-8c-1.51-3.41-2.53-6.57-4-10a86.36,86.36,0,0,0-5-10c-1.37-2.3-2.81-3.6-4-6-1.52-3.07-2.35-6.14-5-7a7.22,7.22,0,0,0-3,0c-2.13.42-3,1.52-5,2a10.76,10.76,0,0,1-4,0,9.77,9.77,0,0,1-6-3c-1.65-2-1.49-4-2-7-.45-2.67-1.44-4.35-2-7-.51-2.43-.62-4.65-1-7-.57-3.5-1.88-5.46-2-9-.06-1.84.1-3.72-1-6-.86-1.78-2-2.31-3-4a12.56,12.56,0,0,0-2-3,6.34,6.34,0,0,0-4-2c-2-.1-3.06,1.1-5,2a25.35,25.35,0,0,1-6,1,35.36,35.36,0,0,1-6,0,21.32,21.32,0,0,1-5-1,14.51,14.51,0,0,1-5-3c-1.72-1.9-1.83-4.47-4-6-1.11-.78-3.16-1-6-1-3.71.05-5.93.36-8-1-1-.64-1.9-2.16-3-4a19.18,19.18,0,0,1-2-4c-.64-2.21-.24-4.14,0-7,.2-2.46.17-4.17,1-6a12,12,0,0,1,3-4,43.06,43.06,0,0,1,7-5,53.77,53.77,0,0,1,5-3c2.49-1.07,4.2-1.25,6-3a12.21,12.21,0,0,0,3-6,18.73,18.73,0,0,0,0-7c-.63-3.13-1.42-6.78-2-9-.63-2.39-1.35-4.61-2-7a20,20,0,0,0-2-5c-1.23-2.13-2.64-3-4-5s-1.81-3.84-3-4c-1.46-.2-2.83,1.76-5,5a25,25,0,0,1-4,5c-2.22,2-4.13,2.71-7,4-1.06.48-3.94,2-6,3l-4,2a9.32,9.32,0,0,1-2.34,1.17,6.8,6.8,0,0,1-3.66-.17,5.65,5.65,0,0,1-3-2c-1.2-1.66-.61-3.38-1-6-.2-1.36-.65-2.54-1-4C1855.59,2045.23,1855.15,2043.18,1855,2042Z"/><path id="Lake_Tharthar" data-name="Lake Tharthar" class="cls-6" d="M1827,3192c-2.29.71-4.15,3.53-6,9-2.19,6.5-2.58,12.64-2,15a22,22,0,0,0,5,9,122.9,122.9,0,0,1,8,11c2.44,3.69,5.41,10.06,7,13a47.66,47.66,0,0,1,4,9,54,54,0,0,1,2,10c.39,3.43.42,5.85,2,9a22,22,0,0,0,6,7,37.92,37.92,0,0,0,7,4c3.2,1.44,5.42,2,7,4,2.07,2.65,1.67,5.38,2,10a36.7,36.7,0,0,0,2,10,82.61,82.61,0,0,0,9,14c2.72,2.66,5.18,3.45,8,6a23.71,23.71,0,0,1,6,8c1.89,4.82.61,9,1,15,.23,3.51.53,6.2,2,9a15.9,15.9,0,0,0,7,7c3.51,1.66,6.53,1.23,10,1,4.44-.3,7.57.49,12,0,4.81-.54,8.26-2,13-3a43.38,43.38,0,0,0,7-2,31.15,31.15,0,0,0,6-3c2.42-1.71,3.4-3.49,6-5,3.66-2.12,7-1.92,11-2s7-.83,11-1c4.92-.21,9.08.23,14,0,3.29-.15,9.65-1.11,15-2a38.25,38.25,0,0,0,12-4,22.47,22.47,0,0,0,8-7,20.76,20.76,0,0,0,3-9,82,82,0,0,0,1-13c0-2.43-.59-7.13-1-11-.38-3.57-.77-6.71-3-10a20.15,20.15,0,0,0-7-6,25.79,25.79,0,0,0-10-3,83,83,0,0,0-13,0c-2.58.25-9.66,0-15,0a72.07,72.07,0,0,1-12-1,75.83,75.83,0,0,1-14-4c-5.91-2.26-8.91-5.27-15-7a30.67,30.67,0,0,1-11-5c-2.73-2-4.46-4.4-7-7-3.29-3.38-6.33-5.81-9-7a30.51,30.51,0,0,0-9-2c-4.86-.38-8.16.58-13,0a29.53,29.53,0,0,1-8-2,28.84,28.84,0,0,1-9-6c-3.41-3.31-4.63-6-7-10s-4.78-6.08-7-10c-3-5.27-4-9.72-7-15-1.66-2.95-3.42-5-5-8a33.78,33.78,0,0,0-3-5,22.47,22.47,0,0,0-8-7c-2.35-1.17-5.22-1.47-7-2C1830.34,3192.2,1828.71,3191.47,1827,3192Z"/><path id="Russia_border" data-name="Russia border" class="cls-7" d="M279,1045q0-10.51,1-21c.79-7.91,2.76-14.15,4-22,.61-3.88,1.45-9.69,6-15a27,27,0,0,1,13-8,38.73,38.73,0,0,1,15-1c14.18,2.07,33.06,3.44,39,5,6.76,1.77,16.13,4.64,21,0s1-13.55,6-19c5.24-5.7,15.88-3.74,20-3,10.16,1.81,18,1.39,28,4,16.58,4.34,27.75,9,40,7,9.66-1.58,17.21-6.7,24-9a105.76,105.76,0,0,1,26-5c10.92-.85,20.53,0,32,2,12.74,2.21,27.29,6,42,10,6.66,1.8,12.1,1.74,18,4,4.46,1.71,10.08,4.42,15,2,2.5-1.23,4.61-4.64,7-10s3.56-8.73,7-11c3.87-2.55,7.89-2,12-2a49.87,49.87,0,0,0,14-2,164.1,164.1,0,0,1,18-1h12c6.82.52,13.09,1.81,17-2a10.51,10.51,0,0,0,3-7c.11-3.61-1.91-4.85-2-8-.16-5.8,5.83-10.51,8-12,5.49-3.77,11.86-4,14-4,8.94-.16,15.06-2.28,24-2,9.51.3,19.3.64,29,1,11,.41,19.07-1.35,30,0,5.4.67,12.75,2,20-2s9-10.62,16-16c5.58-4.29,11-5.86,14-6,7.19-.34,12.62,3.38,15,5,5.21,3.55,10.71,6.71,15,10s8.54,5.78,13,9c5,3.62,10.28,7.36,18,10,8.19,2.8,18,3.07,21,3,7.83-.18,18.87.82,29,1,14,.25,25,2.54,39,2,10.82-.42,28.63-.78,30-1,2.69-.43,11.63-1.73,20,2a27,27,0,0,1,12,10c2.59,4.09,3.65,9.82,4,18s.1,13.73,4,18c2,2.24,5.28,4.16,11,5,14.26,2.1,27.6-5.62,30-7,10.89-6.28,20.52-10.06,31-17,10.74-7.11,23.8-15.69,31-21,8.21-6,14.7-12.08,23-18,8.66-6.17,14.73-10.13,22-18,6-6.49,11.71-13.72,14-18,1.72-3.23,4.52-9.15,11-13a22.9,22.9,0,0,1,16-3,24.55,24.55,0,0,1,12,7c4.22,4.22,6.32,9.24,10,15,3,4.73,5.21,7.18,7,7,3.31-.34,4.55-7,8-16a103.62,103.62,0,0,1,5-11,32.75,32.75,0,0,1,10-11,33.73,33.73,0,0,1,12-5c10-2.28,22.65-1.33,25-1,7.93,1.1,17.76,3.15,23,4a197.41,197.41,0,0,0,20,2,204.43,204.43,0,0,0,24,0,235.86,235.86,0,0,0,24-3c6.88-1.17,18.27-1.91,28-3,5-.56,16-1.8,23,5,5.07,4.92,5.83,11.89,6,19,.21,8.9-.12,18.29-1,24-1.41,9.13-3.11,15.42,0,23a29.86,29.86,0,0,0,11,13c9.19,6.25,19,6,25,6,9.48,0,17.52,1,27,1,7.09,0,14.74.1,21,0,8.39-.14,17.8-.51,27-1,7.53-.4,26.22-1.78,36-2,7.52-.17,13.57.71,21,0,7-.66,13.23-1.87,21,1,4.85,1.79,7.1,4.34,12,6,9,3.06,17.64.82,21,0s27.18-3,38-4c14.23-1.3,32.51-.76,41-1a85.66,85.66,0,0,1,21,2c7.89,1.92,13.5,4.91,20,8s19.16,6.46,30,10c9.48,3.09,16.48,7,26,10,6.73,2.1,15.93,4.61,22,13,3.75,5.19,3.6,9.83,8,15,6.25,7.34,15.75,9.1,25,10,13.89,1.36,29.83,1.78,37,1,14.51-1.59,31.24-4.76,48-8,13.26-2.57,25.07-5.06,32-15,6.64-9.52,4.33-19.55,5-34,.41-8.72,3.28-17.82,5-28a83.87,83.87,0,0,1,7-22c3.59-7.06,9.27-12.62,15-20,6.19-8,9.66-12.94,16-15,2.54-.82,10.6-.48,14-4,3.78-3.92,2.51-10.34,2-16-.09-1,.69-12.06,1-19,.47-10.46,2.36-18.53,2-29-.43-12.53-3.45-21.47-4-34-.25-5.78.06-11.14,0-17-.08-7.68-.41-15.25-1-23"/><path id="Georgia_border" data-name="Georgia border" class="cls-7" d="M1730.7,950.45A48.07,48.07,0,0,1,1732,968c-.43,3.84-1,8.78-4,14-2.38,4.09-6.3,8.36-13,12-7.19,3.9-20,4-22,9-1.26,3.17,1.18,7.13,6,13a154,154,0,0,0,14,15c5.63,5,11.16,9.88,16,13a94.59,94.59,0,0,0,13,7,97.07,97.07,0,0,0,24,7c5.93.94,15,1.25,24,1,7.21-.2,12.82-.73,20,0,4.13.42,13.37,2.51,16,3,5.3,1,9.46,1.79,14,5a26.23,26.23,0,0,1,9,11,31.31,31.31,0,0,1,2,13,49.56,49.56,0,0,1-2,11c-2.37,7.74-2.1,13.44-5,21a69.48,69.48,0,0,1-10,18,81.67,81.67,0,0,1-11,11,24.45,24.45,0,0,1-6,4c-7.56,3.47-14.89,1.75-19,1-7.22-1.22-12.71-.39-20-1s-13-1.48-20-1c-7.64.52-13.37,2.27-21,4-5.13,1.16-9.87,1.85-15,3s-9.73,2.22-15,3a86.77,86.77,0,0,1-18,1,63.69,63.69,0,0,1-16-3c-7.31-2.49-10.78-6.26-18-9-7.8-3-16.18-2.42-27-3-4.81-.26-9.19-.79-14-1-7.46-.33-14.75-.33-22,0-7.71.35-14.29,1.54-22,2-7.16.43-12.89.61-20,4a48.1,48.1,0,0,0-15,12,66.85,66.85,0,0,0-10,16c-4.21,9.21-9.28,20.61-11,26a71.26,71.26,0,0,1-3,8c-2.61,5.77-6.77,11.13-9,15-1.34,2.32-4,7.26-6,11-1.26,2.33-4.65,8.33-11,12-2.82,1.63-4.88,2-8,3-5.37,1.64-8.72,4.09-14,6a130.68,130.68,0,0,1-14,4c-4.51,1.06-8.91,2-14,5-3.57,2.09-5.76,4.44-9,7-4.21,3.32-8.26,5.18-13,8-3.06,1.82-7.26,4.53-11,7-4.61,3-10.15,6.79-13,9-6.56,5.08-11.31,10.09-18,15-2.87,2.11-9,6-14,9s-9.48,5.68-14,9c-3.19,2.35-7.22,5.82-11,9s-8.15,6.86-11,9c-4.76,3.58-9.63,6.64-15,10-4.83,3-10.65,6.69-14,9-5.49,3.78-10.61,7.64-16,11a99.76,99.76,0,0,1-13,7c-5.15,2.24-9.65,3.3-15,5-13.61,4.33-11.7,4.36-18,6-3.67,1-10.83,2-25,4-8,1.13-12,1.7-15,2a193.53,193.53,0,0,1-20,1,173.4,173.4,0,0,1-21-1,104.93,104.93,0,0,1-25-6c-5.74-2.29-10.94-5.36-17-9-5.11-3.07-12.26-7.21-15-9a135.29,135.29,0,0,0-13-8c-5.88-3-11-4.23-17-7-7.29-3.36-11.45-7.27-19-10-7.12-2.57-12.07-2-19-5-4-1.73-7.65-3.55-12-5-7.09-2.37-11.43-2.64-13-1-2.36,2.47.37,7.3,2,15,1.55,7.32-.33,11.64,1,19a17.25,17.25,0,0,1-5,16,30.13,30.13,0,0,1-12,8c-6,2.29-11.68,2.65-16,3-7.46.61-12.6,2.85-20,4a167.65,167.65,0,0,1-20,2c-5.88.13-11.93.16-19,2a68.24,68.24,0,0,0-15,6,118.59,118.59,0,0,0-12,8c-4.37,3.14-9.07,6.3-12,9-4,3.72-6.92,7.32-11,11-1.89,1.7-4,3.26-6,5-2.45,2.08-11.67,9.89-14,12a32.15,32.15,0,0,1-10,6,37.6,37.6,0,0,1-27-3c-1-.49-1-.7-3.93-3.77-1.67-1.76-3.39-3.48-5.07-5.23-2-2.09-5.16-5.28-10-10"/><path id="Armenia_border" data-name="Armenia border" class="cls-7" d="M1511,1221c3.71,4.35,7.79,9.15,11,13,4.92,5.9,8.61,10.3,15,12,5.23,1.39,8.49-.1,14,1,4.27.85,12.39,3.31,14,9,.56,2-.32,4.33-2,9-2.79,7.72-5.13,9.94-4.16,11.55,1.32,2.2,7.14.5,13.16-.55,7.73-1.35,5.81,1.3,32,0,8.08-.4,17.68.06,27,0a89.3,89.3,0,0,1,21,4c6.91,2.38,11.64,5.33,15,10a25.67,25.67,0,0,1,4,9,31.42,31.42,0,0,1-1,17c-1.87,5.93-5.48,9.23-8,14-1.34,2.54-2.75,5.46-6,7s-7.5.09-9,2c-1.93,2.46,1.59,8.4,4,12a127.13,127.13,0,0,0,10,13c3.63,3.84,7.73,9.55,13,14,5,4.21,9.76,6.35,15,10,5.48,3.82,8.83,6.53,15,9a40.09,40.09,0,0,0,14,3c8.38.23,14.22-2.17,16-4,3.55-3.65,2.21-5.87,6-9,4.45-3.68,10.36-3.3,15-3,5.08.33,10.86.73,14,5,2,2.73,2.28,6.33,2,9-.45,4.24-4.27,8.59-3,11s6.71,2.1,8,2c5.62-.45,10.55-.29,16-1,8.21-1.08,12.74,1.49,21,1,3.79-.22,9.79,0,15,0a19.41,19.41,0,0,1,11,3,17.07,17.07,0,0,1,7,10c1.13,4.77-.69,8.44-3,15-1.41,4-2.83,8.23-4,12-1.45,4.68-2.23,7.5-5,10-2.1,1.9-6.88,3-8,6-1,2.63,1,5.24,3,10,1.87,4.43,2.43,8.33,2,10-.71,2.79-3.16,6-9,9-6.49,3.28-13.17,3.7-17,4-6.21.48-9.78,2.63-16,3-7.83.47-15.15-.48-23,4-4.87,2.78-7.16,5.45-7,8,.24,3.76,5.72,6.18,8,7,7.35,2.66,13.92.25,19-1,8.53-2.1,19.56.24,32,0,3.76-.07,7.24.08,11,0,6.29-.13,10.62-.41,16,1,8.3,2.18,12.69,6.41,19,11,3.29,2.39,11,6.44,17,10,4.73,2.8,9.53,5.56,14,8,6.3,3.43,11.84,5.33,18,9,7.7,4.59,13.83,9.31,19,7,4.26-1.91,4.75-7.52,9-11,2.52-2.07,5.35-3.12,10-4a149.4,149.4,0,0,1,21-2,112.18,112.18,0,0,1,17,0c6.15.57,11.4,1.83,15,6,2.83,3.28,3.35,7.27,4,12,.36,2.62.25,5.78,0,12a123.65,123.65,0,0,1-1,14,63.49,63.49,0,0,1-3,12c-1.86,4.61-4.07,7.93-3,9,1.23,1.24,8-2.94,12-4,5.37-1.42,8.53,0,14-1,4.26-.77,6.65-2,10-1,5.64,1.6,9.21,7.56,11,12,1.3,3.22,1.54,7.22,2,12,.64,6.67,1.07,10.52-1,15-1.84,4-4.13,6-6,7-5,2.53-11.21-.46-12,1-.91,1.67,6,7.15,11,11,4,3,9,6.94,11,8,3.87,2.06,7.35,3.33,11,7,2.6,2.61,3.86,5.43,6,9,.48.79,4.39,6.15,6,10a56.33,56.33,0,0,1,3,14c.42,4.18.14,8.37,1,13,.46,2.46,1.28,6,2,9,1.26,5.27,2.09,9.1,0,12-2.29,3.17-6.59,3.14-11,4-5.88,1.14-8.35,4-14,6-6.64,2.33-9.4,4.78-11,7-4,5.49-.87,9.83-5,14-2.18,2.2-4.76,3.34-10,4-3,.38-6.35,1.24-11,1a36.25,36.25,0,0,1-19-6.35c-3.78-2.67-6.26-6-11.22-12.5A67.25,67.25,0,0,1,1982,1754c-2.14-4.45-4-9-4-9-1-3.2-1.41-6.23-4-8-3.44-2.35-8.14-.77-11,0-6.55,1.75-10.31-.09-17,1a17.47,17.47,0,0,1-10-1c-1.91-.88-5.29-3.57-8-8a26.76,26.76,0,0,1-3-7,40,40,0,0,1-1-9c-.19-3.59-3-10.23-6-17-1.85-4.23-4-7.8-6-12-1.53-3.18-3.17-6.63-7-9-3.19-2-8.08-2.26-15-2-3.88.15-7.89.36-12-2a17.24,17.24,0,0,1-6-6c-3.42-5.42-5.5-10.76-8-16-2.08-4.35-4.52-6.41-6-11-1.08-3.35-1.59-6.49-4-10a16,16,0,0,0-7-6c-8-3.08-17.32,4.29-22,8a31.81,31.81,0,0,0-9,10,61.81,61.81,0,0,0-4,9c-1.81,4.66-3.08,7.76-6,11a37,37,0,0,1-8,6,52.72,52.72,0,0,1-11,5,40.92,40.92,0,0,1-17,0,42.42,42.42,0,0,1-11-4c-3.19-1.67-5.16-3.41-6-5-1.92-3.64.1-7.5-2-10-2.49-3-8-.94-16,0a156.75,156.75,0,0,1-18,1c-12-.08-14.08-1.93-15-3-2.88-3.35-3-9.51-3-10,.12-2.66.91-4.21,0-6-1.33-2.61-4.45-2.52-9-4-2.77-.9-6.29-3.73-11-4-4.19-.24-7,.66-9,2-4.38,3-4.48,7.69-7,14-2.1,5.25-5.17,6.65-7,12a17.82,17.82,0,0,1-4,7,17.15,17.15,0,0,1-7,4,33.62,33.62,0,0,1-16,1,59.6,59.6,0,0,1-8-2c-7.47-2.24-14.71-1.6-24-2-5.21-.22-9.79-.85-15-1-6.45-.18-14.51-.1-18,0a65.44,65.44,0,0,1-10.19-.26c-7.79-1.13-9.19-3.87-19.81-7.74-4.63-1.69-9.52-3.47-16-4a51.09,51.09,0,0,0-15,1,52.5,52.5,0,0,1-9,12,40.75,40.75,0,0,1-11,8c-6,2.51-10.78,2.1-16,2-6.53-.12-11.47,1-18,1-6.26,0-12.09-.76-18-1-6.24-.25-11.75.15-18,0a199.38,199.38,0,0,1-28-3c-8.93-1.52-15.45-4.38-24-5a59.83,59.83,0,0,1-10-2c-6-1.89-10.18-4.87-12-7a22.33,22.33,0,0,1-5-13c-.35-5.56,3.21-11.36,1-16-1-2.1-5.39-5.36-13-7-3-.64-7.2-.31-11-2-3.63-1.62-7.61-5-11-12-4.31-9-3.38-17.9-3-22,1-11-.73-19,0-30,.49-7.37,1.14-13.61,1-21-.11-5.53-1.28-9.47-1-15,.22-4.29.86-8.9-2-13-1-1.44-4.57-4-9-6-3.84-1.71-6.3-2.4-8-5-1.09-1.67-1.89-5.11-1-10,1.06-5.83,3.62-10.13,5-16,.67-2.83.74-4.59,0-6-2.25-4.28-9.64-3.43-18-5-2.93-.55-10.06-3.68-16-6a46.26,46.26,0,0,1-11-6,49.37,49.37,0,0,1-10-11c-7.15-10.76-8.47-9.85-10-12-2-2.8-5.53-6.41-7.83-13.27"/><path id="Azerbaijan_southern_border" data-name="Azerbaijan southern border" class="cls-7" d="M2628,1662c-6.57,1.48-14.33,3.25-19,4a17.43,17.43,0,0,0-8,3c-3.7,2.75-5.8,8.36-7,10a30,30,0,0,1-9,8,25.84,25.84,0,0,1-7,3,24.86,24.86,0,0,1-14-1c-5.65-1.93-8.53-4.93-13-8-2.85-2-9.47-4.85-16-7-8.69-2.86-23.79-4.76-25-5-5.69-1.14-10.32-2.82-16-4-9.4-2-17.68-2.35-27-4-6.73-1.2-15.63-3.86-24-6-8.15-2.08-19.22-4.94-24-6a158.11,158.11,0,0,1-21-6c-5.13-1.9-8.83-4.21-14-6s-10.79-3.54-16.67-7.33c-4.3-2.78-7.34-5.68-9.33-9.67-1.72-3.45-2.23-7.79-2-14s1-12.67,2-16c1.7-5.88,5.23-11,7-15,2.12-4.72,3.08-8.32,6-12,3.22-4.07,6.87-6.35,11-10,4.82-4.26,7.79-7.54,7-9-1-1.83-8.11.78-14-1-2.34-.71-7-3.36-11-8-5-5.78-7.08-12.66-8-16-1.53-5.56-3.37-10.47-5-16-1.88-6.36-3.9-12.14-5-18-1-5.31-.27-8.92-2-14-1.25-3.67-3-6.86-2-11,.77-3.27,3.11-6.34,7-9,3.47-2.37,10.33-3.29,11-6s-3.2-5.72-5-7a20.35,20.35,0,0,0-7-3c-6.26-1.16-13-.84-18-1-5.5-.18-8.5-2.07-14-2-3.71,0-6.08.5-9-1-6.1-3.14-6.38-12-11-13-3.6-.76-7.1,3.74-11,8s-7.87,6.76-12,11-9.24,9.32-14,14c-5,4.92-10,9.2-14,14-5,6-7.62,11.34-13,17-3,3.2-6.73,6.18-10,10-2.06,2.41-5.24,7-8,11-2.34,3.36-4,5.88-5,9-1.66,5.26-1.16,9.81,0,17,1.13,7,1.84,11.19,0,16a23.87,23.87,0,0,1-8,10,36.8,36.8,0,0,1-13,6c-7.24,1.91-12.25,1.19-16,5-3.53,3.58-3.84,8.49-4,11-.36,5.68-1.12,12.91-1,16a137.75,137.75,0,0,1,0,17c-.4,4.29-1.39,7.74-2,12-.7,5-1,8.12-3,12-2.38,4.63-5.56,6.89-10,11-2.91,2.69-5.08,5.32-8,8-1.73,1.59-6.44,5.63-8,7a67.14,67.14,0,0,0-9,9c-3.64,4.86-5.23,9-7,14-1.68,4.68-3.77,10.51-5,14q-2.49,6-5,12c-2,4.76-4.08,9.25-6,14-1.26,3.11-4.42,9.57-6,13a81.66,81.66,0,0,1-5,8c-2.14,3.12-4.28,5.76-8,7a14.79,14.79,0,0,1-11-1"/><path id="Iran_border" data-name="Iran border" class="cls-7" d="M2009,1783.3c-2.72.87-6.85,2.17-11.94,3.7-9.49,2.86-10.18,2.7-13,4-5.14,2.38-8.86,6-15,8-5.74,1.92-10,1.25-16,2-6.49.81-10.53,3.06-17,4-8.17,1.19-13.83-.17-22,1-6.49.93-10.49,3.2-17,4-3,.37-11.56.25-18,2a49.3,49.3,0,0,0-12,5c-3.91,2.3-6.93,4.66-12,6a48.88,48.88,0,0,1-8,1c-5.19.3-10.12-.2-12-1-5-2.11-7.55-5.94-9-8-2.61-3.69-5.3-6.38-8-10-2.84-3.8-5.61-6-8-10-1.75-3-3.27-6.28-7-8s-7-.74-11,0-7.36.52-11.5,1.2c-3.73.61-8.93,1.72-13.5,2.8a37,37,0,0,1-11,1,27.82,27.82,0,0,1-11-3,25.46,25.46,0,0,1-8-7,46.75,46.75,0,0,1-5-10c-1.13-3-1.8-5.29-4-8a21.55,21.55,0,0,0-6-5c-4.8-2.83-8.5-3.39-14-5-2.14-.63-3.85-1.41-6-2-4.56-1.24-10.94-1.37-17-4-2.79-1.21-4.22-2.75-7-4-4.06-1.82-6.75-2.22-9-5-2.41-3-2.16-5.93-3-10s-2.84-5.93-4-10c-.93-3.29-1.41-6.19-4-8-2-1.43-4.65-1.4-9-1-3.66.34-6.35.7-9,0-3.73-1-5.83-3.14-8-5-3.16-2.71-5.84-3.28-9-6s-7-8.79-13-12a41.94,41.94,0,0,0-10-3c-5.68-1-13.32-.82-16-1-5-.34-7.83-.82-10,1-3.67,3.07-2.53,9.5-2,16a78.31,78.31,0,0,1,0,15c-.87,7.61-3,12.64,0,16,1.23,1.4,5.69,2.89,12,3,2.28,0,4-.09,6,1,3.47,1.92,4.2,5.71,6,12,1.15,4,2.48,7,3,11s0,7,0,11c0,4.15.06,6.93-1,11a18,18,0,0,1-4,8,19.28,19.28,0,0,1-9,5,39.69,39.69,0,0,1-12,1c-4.58-.53-8.43-.39-13-1-6.77-.91-12.93-2.16-14,0-.62,1.26,1.07,3,1,5-.1,3.29-3.1,5.89-5,7-5.22,3-11-.83-14,2-3.54,3.38-.15,13.33,4,20a40.86,40.86,0,0,0,9,10c4.32,3.6,8.42,5.94,13,9,3.72,2.48,9,7.57,14,12s9.1,8.65,14,13a62.73,62.73,0,0,1,8,9,36.38,36.38,0,0,1,6,13,46.35,46.35,0,0,1,0,12c-.7,5.89-1.88,9.21,0,13,2.13,4.3,6.56,6.07,9,7,9.16,3.5,17,5.57,23,10,2.16,1.6,6.49,6.68,10,12a73.24,73.24,0,0,1,6,11,91.47,91.47,0,0,1,6,18,31.45,31.45,0,0,0,4,10,36.83,36.83,0,0,0,7,7c1.61,1.27,6.19,4,9,7a30.19,30.19,0,0,1,6,10c1.16,3.08,2,8.81,2,15v14c-.26,1.88-.88,5.6,1,7s4.82-.47,10-2c3.73-1.1,6.49-1.42,9-1a16.21,16.21,0,0,1,7,3c3,2.25,5.24,5.66,7,12a63.05,63.05,0,0,1,2,14c-.17,5.6-.57,11.93-1,16-.88,8.28.24,14.68,0,23-.19,6.82-.63,12.21,0,19,.59,6.36,2.46,10.64,3,17,.45,5.29.33,9.26,3,14,3.79,6.74,10.18,9.71,13,11,6.67,3,15.56,6.85,19,8,7,2.34,11.84,5.26,19,7,6.51,1.58,11.67,2.32,18,5,7,3,11.58,6.27,15,10a43,43,0,0,1,7,11,111.22,111.22,0,0,1,5,12c.57,1.68,2.89,14,7,21a48,48,0,0,0,8,10,53.91,53.91,0,0,0,9,7,73.72,73.72,0,0,0,16,7,198.71,198.71,0,0,1,26,9,111.37,111.37,0,0,1,20,12c5.47,4.05,9,7.46,12,12,3.39,5.17,5.38,11.86,7,21,2.06,11.57,2.45,18.6,8,25,2.64,3,6.62,5,11,8a114.5,114.5,0,0,1,13,10,62.38,62.38,0,0,1,9,10,50.9,50.9,0,0,1,8,21,55.12,55.12,0,0,0,4,12c1,2,2.48,4.4,5,5,2.82.67,5.19-1.43,8-3,1.72-1,6.36-2.34,11-3,5.39-.77,9.32-.2,12,1,1.5.67,5.07,3.48,8,7a32.09,32.09,0,0,1,5,8c1.34,3.86,1,6.78,1,10,0,4.11,1,6.89,1,11,.07,5.79-1,10.21-1,16,0,6.68.84,11.32,2.75,15.31,2.53,5.29,5.58,8.14,8.25,9.69,5.54,3.21,11.25,2.31,15,2,9.14-.75,13.85,2.54,23,3,4.18.21,10.56.6,17,3a50.57,50.57,0,0,1,15,9,140.71,140.71,0,0,1,17,17c3.28,3.79,5.59,7.33,9,11a41.88,41.88,0,0,1,8,11,36.08,36.08,0,0,1,3,10,53.21,53.21,0,0,1,0,11c-.28,3.13-.68,7.51-1,9-.59,2.7-1.41,5.43,0,7,2,2.27,7.34.54,9,0,6.64-2.14,12.35-2.9,19-5,6.27-2,10.85-1.69,17-4,4.5-1.69,7.85-3.33,13-4a43,43,0,0,1,15,1c5.64,1.31,12.87,3,16,4,4.37,1.4,14.93,4.81,18,6a31.11,31.11,0,0,0,12,2c5.94-.39,10.83-2.8,18-8,4.69-3.4,8.18-6.78,13-10,4.34-2.9,11.39-6.13,13-7,4.62-2.5,8.2-5,13-7a85.28,85.28,0,0,1,21-5c3.86-.48,9.8-.68,15-1,3.7-.22,11.75,0,18,0,2.4,0,10.37.06,17,5,3.48,2.59,4.76,5.11,5,7,.47,3.74-2.2,6.72-4,9-3.83,4.87-4.44,8.93-8,14-2.84,4.05-6.4,7.8-10,12s-7.07,8.5-9,12c-3.19,5.78-3.88,10.64-6,17-1.94,5.84-4,9.93-5,16-1.28,7.86-.5,13.88,1,18,1.35,3.7,3.82,7.61,8,12a83.77,83.77,0,0,0,12,10c2.76,1.87,11.14,8.47,17,13,3.81,2.94,7.44,5.77,11,8,4.87,3.05,9.22,4.82,14,8,3.53,2.35,9,7.49,14,12,5.19,4.69,8.79,8.14,11,14s1.82,10.38,1,13c-.58,1.86-3.28,6.39-8,10a36.47,36.47,0,0,1-12,6,87.81,87.81,0,0,1-19,3c-3.68.25-9.79.54-14,5a13.67,13.67,0,0,0-3,5c-2,6,1.45,11.35,4,18,1.52,4,1.55,7,3,11,1.56,4.31,3.25,7.77,3,13a23.85,23.85,0,0,1-4,12,30.59,30.59,0,0,1-7,7c-4.09,3.07-8.54,4.26-12,8-2.37,2.57-4.46,8.49-6,16q-1.32,6.45-2,13c-.33,3.26-.06,8.35,0,13a14.85,14.85,0,0,0,2,8c1.56,2.49,3.89,4.23,8,6,3.81,1.65,8.5,2.28,13,5s6.59,6.14,7,8a10.94,10.94,0,0,1-1,7,15.27,15.27,0,0,1-6.94,6.75c-4,2.14-6.65,4.4-10.75,6.25-6.63,3-11.58,3.66-16.31,8a28.33,28.33,0,0,0-6,8,30.52,30.52,0,0,0-3,10,117.22,117.22,0,0,0-1,16c0,4.94.17,12,0,14-.55,6.73-1.82,12.84,2,17a10.91,10.91,0,0,0,5,3c5.12,1.47,8.77-1.48,15-3s10.86-1,14,0c5,1.62,10.29,5.51,15,14,2.63,4.75,3.57,10.11,5,17,1.21,5.79,1.89,11.19,3,17a40.14,40.14,0,0,1,0,14c-1.08,5.1-3.18,8.35-5,10s-5.48,3.58-11,4c-3.75.29-6.18-.56-8,1-2.56,2.19-1.89,6.82-1,12,.65,3.79,1.55,7.77,2,11,.81,5.78.47,9.3,3,11,2.21,1.49,5.17.73,10-1,2.57-.92,7.27-2.84,11-4a42,42,0,0,1,11-2,32,32,0,0,1,13,2,31,31,0,0,1,8,5,50,50,0,0,1,8,9c1.41,2,5.1,6.55,8,10,2.73,3.25,5.38,5.66,8,9a87.31,87.31,0,0,0,7,8,21.59,21.59,0,0,0,19,7c6.31-.66,12.24-2,18-3,4.66-.81,8.3-.43,13-1,4.19-.51,7.88-1.07,13,0a33.12,33.12,0,0,1,10,4c5,2.76,10.62,6.05,13,8,5,4.08,10.9,11.82,12,13,2.8,3,8.33,7.05,13,11,4.33,3.66,7.23,6.06,12,8,5.4,2.19,9.24,2.07,15,3,2.77.45,9,2.5,14,4,2.84.85,10.2,3.36,16,8,3.66,2.93,5.8,5.78,7,9a20.52,20.52,0,0,1,1,9c-.54,5.53-1.34,12.49-2,15-1.62,6.17-2.22,12.22-4,17-.86,2.31-3.17,8.11-1,14,.85,2.31,2.71,5.6,6,7,2.91,1.24,5.59.51,8,0,2.85-.6,5.13-.5,8-1,6.79-1.19,12.2-.85,19-2,4.19-.71,7.76-1.62,12-2,5-.45,9,.19,14,0,5.29-.2,8.52-.64,13,1a37.47,37.47,0,0,1,10,7,43.14,43.14,0,0,1,8,10c2.58,4.85,3,8.52,4,14a100.12,100.12,0,0,0,4,16,80,80,0,0,0,6,12,72.3,72.3,0,0,0,7,10c3.21,3.65,7.65,6.83,10,9,4.16,3.84,6.6,7.44,11,11,2.76,2.23,5.3,3.69,8,6a66.06,66.06,0,0,1,10,11c3.25,4.39,5,8.44,8,13a93,93,0,0,1,5,8,64,64,0,0,1,4,9"/><path id="Turkey-Azerbaijan_border" data-name="Turkey-Azerbaijan border" class="cls-8" d="M1615,1657l-5.18,27"/><path id="Turkey_border" data-name="Turkey border" class="cls-7" d="M1920.9,2329.21c-5.42-1.4-19.47-4.72-32.43-3.8A34.36,34.36,0,0,0,1877,2328c-2.45,1.05-7,2.89-10,7-3.69,5.1-2.78,9.95-4,16-1.38,6.86-5.77,11.42-11,19-5.89,8.54-12.5,18.79-15,24-2,4.1-5.62,12.35-14,16-3.66,1.59-8.47,2.51-13,1-2.21-.73-8-5.15-12-13a45.53,45.53,0,0,1-5-16c-.83-9.79,2.67-17,3-27,.2-5.92-.48-9.86-3-13-4.18-5.23-11.39-5.73-19-6a201.73,201.73,0,0,0-30,1c-8.25.84-15,1.71-20,7-3.88,4.12-4.61,8.69-6,14s-3.61,8.67-5,14c-1.06,4.08-2,8.79-6,13-4.63,4.86-10.29,5.81-15,7-7.09,1.79-11,5-18,7-7.29,2.1-18.88,3.7-31,4-9.37.23-17.46-.7-27,0-7.5.55-13.53,2.17-21,3-7.63.85-20,.55-31,3-6.4,1.42-17.52,5.84-21,7-8.11,2.69-15.24,4.61-20,8-5.88,4.19-8.34,8.17-15,10s-11.19-.32-18-1c-7.4-.74-14.93,2.78-23,4-5,.76-10.66,1.47-15,6a20.41,20.41,0,0,0-5,11c-.93,6-2.32,11-3,17-1.1,9.74-4.82,15.44-7,25-1.56,6.84-3.38,13.18-5,20a98.28,98.28,0,0,1-5,12c-2.22,4.61-4.33,8-8,9-5.88,1.62-11.93-3.84-14-6-5.29-5.52-5.72-11.94-9-21-2.91-8-6-12.5-10-15-3.52-2.2-7.41-3-13-3-7.77,0-13.15,1.32-20,3-10.87,2.66-17.19,3.84-20,9-.76,1.4-1.46,6-1,11,.44,4.82,1.75,8.17,2,13a33.69,33.69,0,0,1-2,14,35.06,35.06,0,0,1-9,13,52.53,52.53,0,0,1-8,6c-7.55,4.45-12.61,9.28-20,14-4.84,3.09-13.7,7.92-21,12-5.87,3.29-11.93,6.66-17,9-6.22,2.87-13,5.55-20,8-4.23,1.47-14.76,6.7-23,11-3.12,1.63-6.83,3.74-9,8-2.29,4.5-.9,7.65-3,12-1.26,2.6-4.84,6.12-11,9a71.12,71.12,0,0,1-18,5c-8.27.59-14.73,2.38-23,3-9.37.7-17.64,2.18-27,3a250,250,0,0,0-25,3,163.74,163.74,0,0,0-29,8,174,174,0,0,0-21,10c-4.52,2.5-7.61,5.28-12,8-2.5,1.55-6.63,4-9,9-1.53,3.21-1.32,5.65-2,9s-3.81,8.5-8,14a128.06,128.06,0,0,1-12,14c-4.64,4.36-9.65,7.39-14,11-5.77,4.78-14.11,14.12-15,15-4.41,4.41-9,8.62-13,12-5.17,4.31-9.57,7-14,12-5.28,5.93-7.55,11.22-13,17a78.55,78.55,0,0,1-9,8c-6.24,5-11.83,10-18,15-5.11,4.17-11.23,9.21-15,12-5.66,4.19-13.59,9.28-21,14-6.9,4.39-15,9.5-20,13-5.2,3.66-9.8,7.34-15,11-5.54,3.89-13.58,9.55-16,11-3.86,2.32-10,6.11-15,12-2.25,2.65-4.54,6.44-7,10-2,2.85-4,5.18-6,8s-4,5.68-8,8a25,25,0,0,1-12,3c-5.87.26-10.14,1.65-16,2a238.43,238.43,0,0,1-27,0c-7.28-.49-27.4,0-42,0H649c-12.81,0-31.6.12-38,0-13.6-.25-30.83.7-38,0a74.7,74.7,0,0,0-19,1,62.17,62.17,0,0,0-12,4,112.28,112.28,0,0,0-22,13c-5.46,4.12-11.87,9.53-18,15-4.51,4-9.15,8.27-13,12-4.9,4.74-9,9.35-14,14-7.88,7.33-15.52,12.37-24,19-5.39,4.21-15.13,12.84-23,20-6.15,5.59-12.25,11.32-18,16-6.82,5.55-16.24,11.82-25,18s-17.27,11.1-25,17a74.15,74.15,0,0,1-12,7c-7.23,3.14-14,4.14-18,4-7.83-.27-13.17-2.28-17-5-6.33-4.5-7.65-10.54-13-16a39,39,0,0,0-9-7,38.22,38.22,0,0,0-11-4c-8.81-1.83-19.2-1.25-23-1-7.76.51-14.23-.22-22,0-8.41.24-14.59,2-23,2-2.19,0-8.47.17-14,3-4.76,2.43-7.45,5.28-9,8-3.16,5.53-1.77,10.42-1,19,.55,6.07-.18,10.85,1,17,1,5.09,2.94,10,4,14,1.31,4.91,2.33,12.5,3,16a110.1,110.1,0,0,0,4,16c1.71,4.74,3.88,8.43,6,13,2.48,5.35,4,9.95,7,15,3.78,6.28,8.59,12.12,11,14,3.71,2.88,11.71,5.58,17,12,4.45,5.41,5.32,10.16,5,13s-2.1,6.83-7,11c-5.56,4.73-10.87,6.22-19,9-5.13,1.75-10,3.69-15,8-4.22,3.67-6.24,7.23-7,10-1.79,6.52,1.16,12,3,17,1.36,3.68,2.59,12.57,3,21,.23,4.72-2.44,18.8,1,27,1.3,3.1,3.34,6.5,2,10-1.62,4.23-7.59,7-13,7-3.29,0-8.08-2.16-9-1-1.23,1.53,4.26,7,5,13a19.07,19.07,0,0,1-5,15c-3.3,3.53-7.07,4.51-13,6-6.12,1.54-12.13,3.44-17,4-5.39.62-7.71.23-17,0-4.77-.12-11.62-.2-20,0"/><path id="Syria-Iraq_border" data-name="Syria-Iraq border" class="cls-7" d="M1419,2528a77.84,77.84,0,0,1,0,20,68.71,68.71,0,0,1-5,19c-2.86,6.56-6.36,11-10,16a116.08,116.08,0,0,0-12,21c-6.25,14.2-6.72,24.84-10,40-2.16,10-5.4,18.09-8,28-2.94,11.19-7.2,27.42-8,32-.53,3-3.06,11.58-5,18a45,45,0,0,1-9,17c-5.24,5.93-10.48,7.64-18,12-6.53,3.78-12.65,9.33-21,13a84.92,84.92,0,0,1-15,5c-10.41,2.41-17.39,1.75-23,7-6.59,6.17-6.71,15.5-7,23-.47,12-2.93,21-3,33-.07,10.73.88,20.27,1,31,.21,18-.48,29,6,43a93.42,93.42,0,0,0,11,17c6.6,8.29,14.68,15.48,20,20,7.82,6.64,13.29,13.23,21,20,2.17,1.9,15.46,14.86,23,26a64.51,64.51,0,0,1,9,19c2.38,8.33,2.63,16.61,2,20-1.68,9.11-6.61,12.92-9,21-2.27,7.68-.91,13.36-1,22a114.82,114.82,0,0,1-2,20c.57,9,1.26,18.58,2,28,.82,10.37,1.67,18.19,5,28,3.69,10.87,8.52,17.78,14,27,4.65,7.84,8.94,19.36,14,30,3.79,8,6.77,14.57,9,24a103.81,103.81,0,0,1,2,36,155.17,155.17,0,0,0,1,27c1,8.14,4,22,5,34,.66,7.53.76,14.11-1,22s-5.65,16.8-13,27a149.38,149.38,0,0,1-16,18c-10.34,9.37-25.54,25.4-38,39"/><path id="Turkmenistan-Iran_border" data-name="Turkmenistan-Iran border" class="cls-7" d="M3651,1793a26.38,26.38,0,0,0,14-3c2.57-1.41,6.49-5,10-10,4-5.6,5.52-10.23,10-13,6.09-3.77,12.87-2.55,17-2a110.84,110.84,0,0,0,26,0"/><path id="Turkmenistan-Kazakhstan_border" data-name="Turkmenistan-Kazakhstan border" class="cls-7" d="M3088,564a171.58,171.58,0,0,1,13-20,213.66,213.66,0,0,1,22-24c9.72-9.28,20.38-17.54,27-21a102.6,102.6,0,0,1,21-8,122.16,122.16,0,0,1,32-4,228.84,228.84,0,0,1,35,2c8.55,1.3,15.52,2.61,25,2a98.58,98.58,0,0,0,29-7c10.07-4,17.28-10.05,29-13,9.85-2.48,18.72-1.61,31-1,9.35.47,17.68.19,27,1a313.91,313.91,0,0,1,33,5c11.28,2.22,21.7,4.85,33,7,16.75,3.18,35.73,6.1,45,6,12.15-.13,34.33-.8,49-2,4.6-.38,17.41-1.49,29,6,5.81,3.75,10.26,9,15,18,6.36,12.08,9.66,26.63,13,35,4.43,11.12,10.86,20.53,14,23,10.95,8.61,26.63,7.16,37,11,11.76,4.36,21.22,11,28,19,3.41,4,8.24,12.66,12,22,5.17,12.85,9.06,26.76,9,32-.12,10.64-3.31,22.84-4,35a26.39,26.39,0,0,0,3,15c4,7,10.52,9.9,15,12,6.24,2.92,13.87,7,21,11"/><path id="South_Ossetia_border" data-name="South Ossetia border" class="cls-9" d="M1072,933c-8.3,9.7-21.19,28.1-19,49a96.23,96.23,0,0,0,6,23c4.15,10.63,9.07,22.92,12,27,6.94,9.67,14.2,14.74,18,27a48.39,48.39,0,0,1,2,17c-.73,12.75-11.43,27-7,34,1.52,2.39,6.44,4.8,15,5s13.78-2.53,23-6c10.44-3.92,17.82-5.1,23-11,4.35-5,4.67-9,9-14,3.36-3.85,8.73-6.34,15-10,5.88-3.43,9.74-6,14-6,7.79,0,13.08,5.75,18,10,4,3.43,13,8.73,22,13,14.62,6.92,25.2,7.58,30,5,4.2-2.26,8.77-11.13,12-25a201.6,201.6,0,0,0,4-27c1-10.14,1.41-17-1-24-2.69-7.84-8.25-15.48-17-22-8.13-6.06-14.59-6.34-23-12-6.7-4.51-8.32-7.88-19-20-4.78-5.42-11.79-13.14-20.79-22.19"/><path id="Abkhazia_border" data-name="Abkhazia border" class="cls-9" d="M712.75,964.1c-.33,2.38-3.58,26.86,2.26,39.9,1.54,3.44,3.63,7,3.63,7a88.79,88.79,0,0,0,9.37,13c4.61,5.54,9.39,17.42,15,28,6.06,11.44,10.15,19.22,12,30a79.88,79.88,0,0,1,0,26c-1.26,8-4.8,16.92-9,27-2.67,6.42-5.61,13.48-8,18-1.4,2.65-2.78,5-4.14,7.26A157.81,157.81,0,0,1,722,1177c-4.48,5.53-11.82,15.32-24.24,34"/></g></g></svg>