<svg xmlns="http://www.w3.org/2000/svg" width="1920" height="1080" viewBox="0 0 1920 1080" version="1.1"><path d="M 484.544 107.686 C 485.617 117.174, 481.854 122.614, 473.380 123.827 C 469.061 124.444, 468.477 124.840, 467.657 127.701 C 467.154 129.454, 467.002 131.562, 467.318 132.386 C 467.634 133.210, 471.446 135.934, 475.788 138.438 C 485.297 143.923, 486.892 145.568, 488.146 151.178 C 489.374 156.671, 491.276 159.574, 494.864 161.430 L 497.709 162.901 502.452 156.307 L 507.195 149.714 510.932 153.803 L 514.670 157.892 524.085 157.309 C 529.263 156.988, 533.694 156.556, 533.930 156.349 C 534.167 156.143, 533.035 154.087, 531.415 151.782 C 529.301 148.776, 526.213 146.393, 520.485 143.348 C 511.045 138.330, 509.840 136.939, 512.447 134.059 C 513.945 132.403, 515.521 132, 520.500 132 C 525.511 132, 527.051 131.602, 528.584 129.907 C 532.298 125.803, 533.643 125.731, 535.875 129.513 C 537.772 132.728, 538.306 132.999, 542.716 132.985 C 545.347 132.977, 548.625 132.320, 550 131.524 C 551.375 130.729, 553.082 129.780, 553.794 129.415 C 554.541 129.033, 558.917 131.344, 564.137 134.876 C 571.188 139.649, 574.003 141, 576.895 141 C 579.476 141, 581.897 141.949, 584.845 144.117 C 588.956 147.141, 589.143 147.180, 591.074 145.433 C 592.169 144.442, 593.989 142.136, 595.119 140.307 C 597.145 137.029, 597.147 136.937, 595.289 133.755 C 592.573 129.105, 587.452 125.889, 570.314 118.069 C 543.442 105.807, 543.097 105.722, 513.500 104.008 C 504.150 103.467, 493.658 102.726, 490.183 102.363 L 483.867 101.701 484.544 107.686 M 0 144.212 L 0 173.374 2.805 170.687 C 6.328 167.312, 6.985 167.331, 10.413 170.910 C 15.159 175.863, 16.786 175.644, 22.685 169.254 L 27.925 163.579 40.366 162.381 C 52.201 161.241, 53.138 160.983, 59.591 157.091 C 64.409 154.185, 67.489 153, 70.226 153 L 74.078 153 70.789 146.922 L 67.500 140.843 51 132.567 C 26.467 120.260, 23.979 119.383, 2.750 115.547 L -0 115.050 0 144.212 M 601.056 146.657 C 599.060 149.193, 599.058 149.273, 600.923 151.866 C 604.534 156.887, 608.526 159.825, 613.858 161.387 C 619.107 162.924, 619.253 162.911, 621.079 160.728 C 622.947 158.496, 624.482 155.082, 623.841 154.583 C 622.584 153.605, 607.992 145.945, 605.791 145.109 C 603.431 144.213, 602.821 144.412, 601.056 146.657 M 93.362 156.500 C 92.561 158.586, 93.744 161.251, 95.251 160.756 C 97.215 160.111, 97.468 155, 95.535 155 C 94.656 155, 93.678 155.675, 93.362 156.500 M 550 157.417 C 550 159.300, 555.629 162.356, 557.660 161.577 C 558.517 161.248, 559.005 160.059, 558.820 158.754 C 558.554 156.879, 557.786 156.448, 554.250 156.193 C 550.966 155.955, 550 156.233, 550 157.417 M 580.962 163.925 C 577.569 166.792, 577.540 166.881, 579.500 168.394 C 582.605 170.789, 583.820 170.311, 584.947 166.250 C 586.726 159.847, 586.172 159.524, 580.962 163.925 M 13.080 187.415 L 10.989 189.641 13.244 191.635 C 16.932 194.894, 31.410 198.846, 42.249 199.552 L 51.997 200.186 50.156 195.843 L 48.314 191.500 37.217 190.850 C 28.437 190.337, 24.975 189.678, 20.645 187.695 L 15.171 185.189 13.080 187.415 M 143.779 186.591 C 140.196 187.693, 138.216 189.147, 135.563 192.621 L 132.067 197.199 134.652 202.300 C 141.237 215.294, 142.733 216.488, 159.294 221.959 C 172.228 226.231, 176.372 225.227, 172.811 218.684 C 172.158 217.483, 169.730 211.775, 167.416 206 C 163.543 196.332, 162.725 195.084, 157.094 190.250 C 153.730 187.363, 150.421 185.031, 149.739 185.070 C 149.058 185.108, 146.376 185.793, 143.779 186.591 M 711.693 208.798 C 709.926 210.643, 709 212.700, 709 214.782 C 709 218.291, 707.085 219.958, 700.740 221.969 C 697.283 223.066, 696.741 222.960, 694.002 220.655 C 692.364 219.277, 688.431 217.400, 685.262 216.485 C 678.988 214.673, 676.249 212.751, 674.895 209.210 C 673.794 206.332, 672.216 207.084, 666.031 213.434 L 661.561 218.023 664.531 220.944 C 666.164 222.551, 672.900 226.235, 679.500 229.130 C 690.734 234.058, 692.011 234.392, 699.500 234.372 C 709.095 234.346, 711.606 233.197, 712.920 228.233 C 714.525 222.168, 716.061 207.661, 715.191 206.791 C 714.749 206.349, 713.175 207.252, 711.693 208.798 M 239 212.944 C 239 214.014, 240.023 216.078, 241.273 217.532 C 243.294 219.881, 243.933 220.074, 247.023 219.274 C 251.813 218.033, 251.800 214.958, 247 213.735 C 245.075 213.245, 243.072 212.429, 242.550 211.922 C 240.930 210.350, 239 210.906, 239 212.944 M 0.667 228.667 C 0.300 229.033, -0 230.546, -0 232.028 C -0 234.367, 0.332 234.659, 2.515 234.242 C 5.583 233.655, 6.325 232.598, 5.497 229.991 C 4.888 228.072, 2.042 227.291, 0.667 228.667 M 42.500 385.569 C 40.850 386.426, 38.375 388.157, 37 389.416 C 35.625 390.675, 32.250 393.189, 29.500 395.003 C 26.750 396.817, 20.865 402.058, 16.423 406.650 C 8.837 414.492, 8.093 415, 4.173 415 L 0 415 0 429.500 C 0 437.475, 0.185 444, 0.412 444 C 0.639 444, 3.945 442.201, 7.760 440.001 L 14.695 436.003 20.504 438.001 C 28.067 440.603, 28.667 440.550, 31.653 437 C 34.147 434.037, 34.299 434, 44.134 434 C 56.048 434, 56.542 434.336, 62.712 446.665 C 66.551 454.335, 66.803 455.398, 67.491 466.858 C 68.105 477.065, 68.650 479.867, 70.982 484.799 C 72.503 488.014, 74.509 494.437, 75.441 499.072 C 77.238 508.011, 79.344 512.466, 81.400 511.677 C 82.088 511.413, 85.542 510.895, 89.076 510.528 C 94.152 509.999, 96.864 510.290, 102 511.916 C 111.011 514.769, 112.753 514.626, 114.797 510.863 C 118.699 503.677, 123.950 496.576, 131.270 488.585 L 139.040 480.103 142.791 481.426 C 144.855 482.154, 148.295 483.939, 150.436 485.392 C 153.935 487.766, 171.824 494.019, 179.502 495.552 C 182.143 496.079, 182.638 495.798, 183.610 493.221 C 184.243 491.544, 186.808 488.887, 189.608 487.006 C 192.299 485.200, 195.025 483.075, 195.667 482.284 C 197.400 480.147, 198.397 465.186, 197.121 460.450 C 196.528 458.248, 194.926 454.933, 193.561 453.083 C 191.020 449.638, 171.327 436.376, 167.216 435.341 C 165.960 435.025, 161.381 435.319, 157.040 435.994 L 149.149 437.221 141.995 433.361 C 138.060 431.237, 130.995 426.615, 126.294 423.089 L 117.748 416.677 112.050 419.809 L 106.353 422.941 89.927 420.972 C 80.892 419.889, 72.524 418.778, 71.331 418.503 C 69.770 418.143, 67.246 414.445, 62.331 405.318 C 56.139 393.819, 48.801 383.990, 46.421 384.006 C 45.915 384.010, 44.150 384.713, 42.500 385.569 M 36 438.704 C 35.175 439.004, 33.255 440.410, 31.733 441.828 C 29.057 444.322, 28.812 444.362, 24.233 443.065 C 15.264 440.523, 14.536 440.591, 7.086 444.648 L 0.013 448.500 0.007 488.267 L 0 528.034 10.250 534.778 C 15.888 538.487, 23.169 542.417, 26.431 543.511 C 34.156 546.102, 41.959 553.130, 45.636 560.810 C 47.134 563.939, 48.499 566.683, 48.670 566.906 C 48.840 567.130, 50.672 566.602, 52.740 565.733 C 54.808 564.865, 61 562.908, 66.500 561.385 C 74.985 559.035, 78.645 558.587, 90.658 558.424 C 98.444 558.318, 105.278 557.946, 105.843 557.597 C 106.408 557.248, 107.967 554.568, 109.306 551.642 C 110.942 548.070, 112.916 545.597, 115.318 544.113 C 118.837 541.938, 118.885 541.819, 118.319 536.701 C 117.548 529.724, 114.334 522.374, 111.024 520.017 C 109.536 518.958, 105.308 517.102, 101.627 515.894 C 95.474 513.874, 94.281 513.790, 86.796 514.849 C 79.649 515.859, 78.439 515.803, 76.870 514.382 C 74.701 512.419, 72.400 505.626, 71.110 497.377 C 70.583 494.009, 68.934 488.924, 67.445 486.077 C 65.512 482.379, 64.478 478.415, 63.829 472.200 C 61.929 454.038, 61.241 451.089, 57.354 444.443 L 53.584 438 45.542 438.079 C 41.119 438.122, 36.825 438.404, 36 438.704 M 138.817 485.343 C 134.871 488.343, 122.232 504.349, 119.126 510.280 L 115.752 516.723 118.462 523.496 C 119.952 527.222, 121.669 532.946, 122.278 536.217 L 123.384 542.164 118.181 546.832 C 114.856 549.815, 112.498 552.944, 111.647 555.500 C 109.787 561.090, 106.057 562.255, 89 562.574 C 77.881 562.781, 73.912 563.289, 66.500 565.453 C 49.833 570.317, 44.519 573.495, 32.119 586.014 C 21.398 596.837, 21 597.394, 21 601.573 C 21 607.502, 19.509 610.295, 14.376 613.982 C 10.653 616.656, 10 617.642, 10 620.594 C 10 622.503, 9.312 625.711, 8.471 627.724 C 7.630 629.737, 7.040 633.047, 7.160 635.079 C 7.285 637.202, 6.659 639.871, 5.689 641.352 C 2.333 646.474, 4.057 652.681, 11.567 662.520 L 15.247 667.341 7.624 674.794 L 0 682.247 0 705.123 C -0 730.647, -0.019 730.589, 6.437 724.921 L 9.943 721.843 15.222 724.672 L 20.500 727.501 20.143 734.806 L 19.787 742.111 25.643 738.330 C 36.141 731.553, 43.047 733.465, 44.563 743.569 C 44.979 746.348, 45.990 748.580, 47.224 749.444 C 49.005 750.692, 50.014 750.415, 56.857 746.804 C 64.084 742.990, 64.844 742.802, 70.816 743.354 C 74.289 743.675, 82.614 745.697, 89.316 747.847 C 96.017 749.998, 103.187 752.008, 105.249 752.316 C 109.485 752.946, 110.267 752.101, 111.437 745.627 C 111.822 743.497, 112.541 741.022, 113.034 740.127 C 113.528 739.232, 114.369 732.799, 114.904 725.831 C 115.709 715.330, 116.268 712.562, 118.172 709.658 C 121.994 703.828, 124.984 702.653, 134.001 703.440 C 143.630 704.280, 157.057 707.475, 158.109 709.176 C 159.090 710.764, 159.616 709.321, 160.359 703 C 160.761 699.579, 160.168 696.462, 157.887 690 C 156.237 685.325, 154.413 680.123, 153.834 678.440 C 152.972 675.936, 153.519 671.938, 156.842 656.440 C 159.076 646.023, 161.331 634.024, 161.852 629.775 C 162.571 623.914, 163.669 620.496, 166.400 615.612 C 170.217 608.787, 170.626 606.018, 168.964 598.267 C 168.021 593.870, 168.189 592.854, 170.834 586.968 C 173.050 582.037, 173.762 578.908, 173.833 573.798 C 173.913 567.922, 174.483 566, 178.456 558.193 C 184.864 545.600, 186.127 541.502, 186.066 533.500 C 185.995 524.212, 183.476 502.062, 182.373 501.027 C 181.893 500.577, 176.183 498.561, 169.684 496.549 C 163.185 494.536, 153.981 490.890, 149.230 488.445 C 144.478 486, 140.571 484.014, 140.546 484.032 C 140.521 484.049, 139.743 484.639, 138.817 485.343 M 0.032 588.250 C 0.061 638.195, 0.211 643.308, 1.603 641.500 C 2.609 640.193, 2.959 638.328, 2.613 636.118 C 2.318 634.237, 2.708 631.242, 3.492 629.365 C 4.267 627.511, 5.434 623.284, 6.085 619.972 C 7.148 614.572, 7.695 613.666, 11.385 611.189 C 16.611 607.682, 18.468 604.122, 16.884 600.645 C 15.317 597.206, 16.074 595.779, 21.906 591.169 C 24.668 588.985, 29.520 584.117, 32.688 580.350 C 35.856 576.582, 39.135 572.974, 39.974 572.331 C 40.813 571.688, 42.353 570.521, 43.397 569.738 C 45.243 568.350, 45.224 568.166, 42.680 562.789 C 39.283 555.607, 34.746 551.748, 23.597 546.556 C 18.594 544.225, 11.512 540.222, 7.861 537.659 C 4.209 535.097, 0.946 533, 0.611 533 C 0.275 533, 0.014 557.862, 0.032 588.250 M 1433.500 561.895 C 1423.839 565.418, 1420.439 567.109, 1413.620 571.784 L 1406.741 576.500 1398.877 576.211 C 1385.656 575.726, 1383.681 578.811, 1392.250 586.566 C 1397.906 591.684, 1414.490 602.995, 1416.359 603.009 C 1416.987 603.013, 1422.629 603.471, 1428.898 604.026 L 1440.296 605.035 1451.398 616.424 C 1459.585 624.824, 1464.075 628.597, 1468.500 630.798 C 1475.126 634.093, 1476.435 635.349, 1480.301 642.127 C 1483.642 647.984, 1498.271 659.093, 1507.176 662.535 C 1511.044 664.030, 1514.563 666.225, 1516.237 668.186 C 1518.158 670.437, 1520.544 671.790, 1524.237 672.724 C 1527.132 673.456, 1531.949 675.731, 1534.943 677.778 L 1540.385 681.500 1551.943 681.475 C 1561.592 681.453, 1564.128 681.115, 1567.302 679.426 C 1571.029 677.443, 1571.111 677.275, 1571.450 670.951 C 1571.640 667.403, 1572.115 663.712, 1572.505 662.750 C 1573.086 661.316, 1572.675 661, 1570.229 661 C 1568.588 661, 1566.685 660.325, 1566 659.500 C 1565.315 658.675, 1564.353 658, 1563.862 658 C 1562.612 658, 1552.055 651.105, 1548.801 648.164 C 1547.249 646.760, 1544.952 642.571, 1543.396 638.303 C 1540.973 631.662, 1540.259 630.664, 1536.595 628.810 C 1534.343 627.671, 1531.209 625.829, 1529.631 624.717 C 1525.689 621.938, 1521.001 614.250, 1520.995 610.554 C 1520.992 608.874, 1519.881 605.700, 1518.526 603.500 C 1516.367 599.994, 1516.059 598.319, 1516.031 589.940 L 1516 580.380 1506.250 574.352 C 1500.888 571.037, 1495.812 568.079, 1494.972 567.779 C 1494.132 567.479, 1490.778 567.651, 1487.519 568.162 C 1482.471 568.954, 1480.601 568.766, 1474.898 566.897 C 1468.496 564.798, 1468.022 564.774, 1464.081 566.351 C 1461.779 567.272, 1457.209 567.996, 1453.730 567.990 L 1447.500 567.980 1445.824 563.990 C 1443.858 559.309, 1441.631 558.930, 1433.500 561.895 M 1832.310 579.077 C 1822.958 583.703, 1820.131 589.366, 1820.044 603.639 C 1819.991 612.227, 1821.354 614.386, 1828.558 617.122 C 1837.955 620.690, 1843.752 619.185, 1852.511 610.902 C 1857.903 605.801, 1858 605.611, 1857.976 600.105 C 1857.914 585.516, 1853.055 578.952, 1841.378 577.682 C 1837.477 577.257, 1835.314 577.590, 1832.310 579.077 M 1375.886 585.174 L 1369.273 588.145 1367.459 594.323 C 1366.462 597.720, 1364.383 603.060, 1362.840 606.188 L 1360.034 611.876 1365.965 615.478 C 1369.935 617.890, 1374.998 622.625, 1381.284 629.804 C 1386.448 635.702, 1394.009 643.491, 1398.086 647.113 C 1411.358 658.903, 1440.843 679.640, 1448.258 682.401 C 1450.875 683.375, 1454.855 685.708, 1457.103 687.586 C 1461.836 691.541, 1461.091 691.406, 1467.489 689.465 C 1470.233 688.633, 1477.073 687.671, 1482.688 687.327 C 1494.676 686.594, 1495.944 687.121, 1500.950 694.922 C 1504.085 699.807, 1506.191 701.118, 1507.500 699 C 1508.632 697.168, 1509.877 697.961, 1513.003 702.505 C 1514.857 705.198, 1518.997 708.917, 1523.301 711.755 C 1529.054 715.547, 1531.002 717.509, 1533 721.523 L 1535.500 726.545 1537.908 724.273 C 1539.233 723.023, 1541.529 722, 1543.011 722 C 1546.488 722, 1551.830 725.625, 1554.759 729.971 C 1556.028 731.853, 1558.712 734.318, 1560.724 735.447 C 1563.607 737.066, 1564.873 738.769, 1566.707 743.500 C 1568.721 748.697, 1568.866 749.901, 1567.794 752.493 C 1566.168 756.425, 1560.409 762.737, 1556.696 764.657 C 1553.953 766.075, 1553.599 766.044, 1551.773 764.218 C 1549.816 762.260, 1549.781 762.263, 1545.343 764.744 C 1541.649 766.808, 1539.926 767.159, 1535.335 766.778 L 1529.790 766.318 1530.372 769.906 C 1531.252 775.328, 1533.216 776.285, 1541.921 775.529 C 1546.002 775.175, 1551.834 774.236, 1554.881 773.443 C 1557.927 772.649, 1564.239 772, 1568.905 772 C 1576.762 772, 1577.599 772.200, 1580.210 774.701 C 1582.961 777.336, 1583.063 777.355, 1584.399 775.451 C 1588.950 768.967, 1589.478 768.622, 1592.984 769.845 C 1597.843 771.539, 1599.498 771.293, 1602.980 768.364 L 1606.113 765.727 1603.565 763.068 C 1600.694 760.071, 1597.505 751.733, 1598.369 749.482 C 1598.801 748.355, 1600.734 748, 1606.443 748 C 1613.690 748, 1614 748.098, 1615.428 750.861 C 1616.242 752.435, 1617.665 756.735, 1618.589 760.416 L 1620.270 767.108 1617.631 769.863 C 1614.998 772.611, 1614.996 772.631, 1616.598 777.334 C 1617.482 779.927, 1617.945 783.082, 1617.628 784.346 C 1616.599 788.445, 1609.616 798.058, 1607.233 798.656 C 1603.929 799.486, 1603.234 801.452, 1602.444 812.214 L 1601.738 821.842 1607.119 827.564 C 1613.219 834.050, 1622.363 838.998, 1628.250 838.999 L 1632 839 1632.003 831.750 C 1632.005 825.284, 1632.372 823.892, 1635.394 818.881 C 1639.676 811.779, 1640.337 809.651, 1640.126 803.643 C 1639.885 796.785, 1643.457 784.888, 1648.605 775.399 C 1654.014 765.428, 1654.302 761.553, 1650 756.653 C 1647.590 753.908, 1647 752.325, 1647 748.605 C 1647 746.058, 1646.062 740.718, 1644.915 736.737 C 1643.768 732.757, 1642.406 727.700, 1641.888 725.500 C 1640.271 718.631, 1640.158 718.525, 1637.760 721.633 C 1634.209 726.234, 1632.739 727.078, 1629.161 726.570 C 1624.805 725.953, 1623.126 724.460, 1620.872 719.202 C 1619.852 716.823, 1616.488 710.636, 1613.396 705.455 C 1606.760 694.335, 1606.773 692.423, 1613.480 693.342 C 1620.147 694.256, 1633.478 698.917, 1638.459 702.076 C 1641.890 704.252, 1642.972 705.603, 1643.354 708.185 C 1644.006 712.583, 1643.132 695.778, 1642.409 690 C 1641.867 685.665, 1642.030 685.309, 1646.875 680.277 C 1649.758 677.282, 1652.398 673.403, 1653.063 671.184 C 1654.118 667.663, 1653.988 666.941, 1651.626 663.200 C 1650.198 660.938, 1645.685 656.296, 1641.598 652.885 C 1635.351 647.672, 1633.729 645.657, 1631.433 640.254 C 1629.930 636.718, 1627.254 632.291, 1625.486 630.417 C 1622.494 627.244, 1622.053 627.086, 1619.090 628.119 C 1616.060 629.175, 1615.982 629.331, 1617.461 631.364 C 1622.299 638.018, 1622.497 638.515, 1622.314 643.571 C 1621.819 657.237, 1615.026 672.753, 1605.085 682.920 C 1599.329 688.807, 1597.611 689.937, 1591.435 691.893 C 1584.711 694.024, 1584.175 694.054, 1580.323 692.513 C 1577.152 691.244, 1575.760 689.853, 1573.888 686.081 L 1571.500 681.268 1566.514 683.770 C 1561.812 686.130, 1560.869 686.242, 1549.919 685.738 L 1538.308 685.203 1532.993 681.179 C 1530.069 678.967, 1525.765 676.675, 1523.427 676.086 C 1520.745 675.411, 1517.946 673.698, 1515.839 671.442 C 1514.002 669.477, 1509.264 666.364, 1505.308 664.526 C 1492.579 658.610, 1482.095 650.118, 1476.641 641.305 C 1475.072 638.771, 1472.155 636.045, 1469.272 634.419 C 1455.763 626.799, 1453.558 625.134, 1447.858 618.247 C 1444.557 614.257, 1440.995 610.532, 1439.942 609.969 C 1438.890 609.406, 1432.671 608.319, 1426.123 607.554 C 1419.529 606.784, 1412.718 605.400, 1410.858 604.452 C 1405.094 601.514, 1395.954 594.753, 1389.091 588.351 L 1382.500 582.203 1375.886 585.174 M 1301.924 585.843 C 1293.652 589.352, 1288.630 593.154, 1286.590 597.451 C 1284.687 601.461, 1284.646 602.380, 1286.181 606.624 C 1287.043 609.009, 1287.080 611.123, 1286.317 614.458 L 1285.271 619.026 1289.636 620.957 C 1292.036 622.019, 1294 623.540, 1294 624.338 C 1294 627.854, 1289.758 638.967, 1286.495 644 C 1281.162 652.227, 1281.738 654.409, 1290.500 659.167 C 1294.350 661.258, 1298.092 662.976, 1298.815 662.984 C 1302.229 663.025, 1312.096 648.223, 1315.532 637.903 C 1317.223 632.827, 1319.484 628.351, 1321.488 626.111 C 1323.265 624.125, 1325.022 620.841, 1325.393 618.812 C 1326.155 614.643, 1330.482 610.338, 1344.454 599.844 C 1349.100 596.355, 1352.907 592.825, 1352.914 592 C 1352.922 591.175, 1351.932 589.305, 1350.714 587.844 C 1348.537 585.233, 1348.240 585.179, 1333 584.611 C 1324.475 584.294, 1315.475 583.814, 1313 583.544 C 1309.545 583.168, 1306.974 583.702, 1301.924 585.843 M 877 601.962 C 869.491 604.401, 868.766 604.909, 870.430 606.573 C 872.232 608.375, 872.281 608.865, 872.060 623 C 871.969 628.775, 872.327 635.723, 872.854 638.440 C 874.438 646.601, 873.351 649.968, 867.590 654.750 C 866.762 655.438, 865.609 656, 865.029 656 C 864.448 656, 863.191 656.412, 862.236 656.915 C 860.403 657.881, 851.513 660.110, 841.500 662.115 C 838.200 662.776, 835.072 663.695, 834.550 664.158 C 832.732 665.769, 824.141 665.041, 820.099 662.935 C 814.707 660.124, 814.043 659.101, 813.752 653.157 C 813.529 648.608, 813.247 648.014, 811.306 648.007 C 810.099 648.003, 807.910 649.033, 806.442 650.296 L 803.772 652.593 807.386 655.766 C 810.982 658.923, 811 658.980, 811 667.075 C 811 674.295, 811.282 675.546, 813.500 678.183 C 816.546 681.802, 817.744 685.922, 816.054 686.967 C 815.325 687.417, 816.412 687.970, 818.768 688.347 C 820.930 688.693, 823.889 689.911, 825.343 691.055 L 827.988 693.135 830.066 689.612 C 832.369 685.709, 832.674 685.566, 842.170 683.955 C 847.226 683.097, 851.909 681.150, 861.521 675.911 C 868.530 672.091, 875.438 669, 876.965 669 C 882.993 669, 890.699 671.151, 894.703 673.952 L 898.906 676.893 901.912 672.805 C 904.298 669.561, 904.709 668.325, 903.904 666.821 C 902.411 664.030, 903.371 662.050, 911.156 651.866 C 915.032 646.795, 918.597 641.713, 919.076 640.573 C 919.556 639.433, 920.858 633.550, 921.971 627.500 C 923.198 620.827, 924.763 615.459, 925.950 613.853 L 927.907 611.206 923.204 609.197 C 916.642 606.393, 912.221 605.362, 899 603.553 C 882.060 601.235, 879.750 601.068, 877 601.962 M 928.960 616.056 C 927.595 617.973, 925.946 623.326, 924.537 630.416 C 921.961 643.379, 922.779 641.574, 913.710 654.309 C 907.343 663.251, 906.835 664.323, 907.961 666.427 C 909.054 668.469, 908.783 669.357, 905.618 674.124 C 903.640 677.104, 901.616 681.744, 901.090 684.506 C 899.888 690.812, 899.188 692.660, 896.356 697 C 894.711 699.521, 893.798 703.019, 893.094 709.500 C 891.241 726.564, 890.754 738.900, 891.477 750.470 L 892.202 762.073 898.351 765.163 C 907.771 769.897, 909.616 771.544, 912.932 778.179 C 917.342 787.005, 917.060 789.809, 911.099 796.391 C 906.055 801.960, 905.633 802.793, 904.523 809.349 C 904.064 812.065, 902.705 814.276, 899.905 816.861 C 896.133 820.345, 895.994 820.683, 897.067 823.762 C 898.510 827.902, 899.571 827.842, 902.148 823.474 C 903.292 821.535, 905.051 819.508, 906.057 818.970 C 908.565 817.627, 925 819.944, 925 821.640 C 925 821.875, 923.854 824.327, 922.454 827.091 C 921.054 829.854, 919.065 835.487, 918.035 839.609 C 917.005 843.731, 915.456 848.181, 914.592 849.499 C 913.539 851.108, 913.372 852.112, 914.087 852.554 C 916.819 854.242, 939.851 849.625, 951.925 844.969 L 960.232 841.765 959.698 837.787 C 959.341 835.120, 957.867 832.273, 955.230 829.154 C 950.920 824.056, 947.415 822.962, 941.735 824.943 C 938.216 826.169, 937.041 825.200, 937.015 821.050 C 936.997 818.097, 935.326 819.430, 934.835 822.790 C 934.286 826.545, 932.563 825.430, 931.609 820.702 C 930.900 817.185, 931.160 814.833, 932.888 809.143 C 934.081 805.214, 935.495 802, 936.029 802 C 936.563 802, 937.010 803.913, 937.022 806.250 L 937.044 810.500 938.900 806.413 C 940.082 803.811, 942.857 800.724, 946.541 797.913 C 951.331 794.260, 952.636 792.584, 954.127 788.178 C 955.117 785.251, 957.979 779.980, 960.487 776.465 C 969.319 764.089, 975.086 754.896, 978.510 747.735 C 980.413 743.756, 984.673 737.125, 987.978 733 C 993.864 725.652, 995.104 722.291, 993.096 719.122 C 992.616 718.364, 991.770 718.024, 991.217 718.366 C 988.708 719.917, 988.338 713.197, 990.663 708.297 C 992.084 705.304, 992.141 704.278, 991.054 701.274 C 989.840 697.916, 989.924 697.614, 992.891 694.647 L 996 691.538 996 694.914 L 996 698.290 1001.750 692.919 C 1008.658 686.467, 1009.918 684.517, 1009.965 680.210 C 1009.984 678.401, 1010.954 675.049, 1012.121 672.763 C 1013.825 669.423, 1014.146 667.408, 1013.754 662.523 C 1013.199 655.609, 1010.063 648.620, 1006.747 646.905 C 1005.511 646.266, 1000.900 642.276, 996.500 638.039 L 988.500 630.335 977.233 627.622 C 971.036 626.130, 962.261 623.320, 957.733 621.377 C 951.648 618.765, 933.568 613.034, 931.318 613.003 C 931.218 613.001, 930.157 614.375, 928.960 616.056 M 840.816 619.881 C 836.792 623.116, 831.025 628.394, 828 631.610 C 821.758 638.246, 823.468 636.997, 837 625.036 C 849.919 613.617, 849.509 614, 848.780 614 C 848.423 614, 844.839 616.647, 840.816 619.881 M 1634.500 617.684 C 1630.227 618.599, 1626.880 620.356, 1625.892 622.201 C 1624.766 624.306, 1624.826 624.416, 1631.211 631.864 C 1633.268 634.263, 1635.242 637.772, 1635.596 639.660 C 1636.079 642.236, 1637.763 644.394, 1642.336 648.297 C 1651.949 656.503, 1654.690 659.622, 1656.536 664.454 C 1658.793 670.364, 1657.592 673.413, 1649.779 681.607 L 1643.957 687.715 1645.464 694.107 C 1646.292 697.623, 1646.977 702.905, 1646.985 705.844 C 1646.997 710.238, 1646.666 711.274, 1645.122 711.678 C 1642.763 712.295, 1640.581 716.786, 1641.875 718.362 C 1643.275 720.068, 1648.939 740.167, 1649.575 745.684 C 1650.468 753.447, 1650.953 755, 1652.484 755 C 1654.637 755, 1656 758.291, 1656 763.492 C 1656 767.962, 1655.171 769.966, 1649.140 780.077 C 1646.337 784.777, 1643 797.998, 1642.999 804.410 C 1642.999 808.062, 1642.114 811.336, 1639.866 816 C 1637.463 820.987, 1636.619 824.304, 1636.239 830.250 C 1635.750 837.884, 1635.778 838, 1638.122 837.994 C 1642.505 837.984, 1647.824 835.972, 1652.682 832.486 C 1660.072 827.183, 1662.894 825.840, 1670.803 823.863 C 1675.027 822.807, 1680.296 820.583, 1683.303 818.588 C 1689.968 814.165, 1692.089 813.398, 1700 812.553 C 1703.575 812.171, 1709.089 810.990, 1712.254 809.929 C 1715.582 808.813, 1720.743 808, 1724.495 808 C 1730.370 808, 1731.416 808.331, 1735.569 811.501 C 1738.141 813.464, 1741.890 815.279, 1744.107 815.633 C 1746.280 815.981, 1749.664 817.541, 1751.626 819.100 C 1754.725 821.563, 1755.772 821.856, 1759.599 821.331 C 1762.531 820.929, 1765.879 821.317, 1769.610 822.491 C 1775.977 824.493, 1785.378 824.033, 1791.968 821.396 C 1795.977 819.792, 1796.962 818, 1796.986 812.269 C 1796.998 809.555, 1796.560 808.940, 1794.250 808.426 C 1792.737 808.090, 1790.745 807.611, 1789.823 807.363 C 1788.900 807.114, 1787.199 805.308, 1786.043 803.348 L 1783.940 799.784 1776.220 800.438 C 1771.974 800.797, 1765.587 801.338, 1762.026 801.641 C 1758.465 801.943, 1751.472 801.677, 1746.487 801.049 C 1740.730 800.325, 1736.523 800.247, 1734.961 800.835 C 1733.113 801.531, 1730.902 801.164, 1726.079 799.361 C 1719.114 796.758, 1717.428 795.669, 1715.880 792.777 C 1715.024 791.177, 1716.139 789.587, 1723.185 782.355 C 1733.773 771.488, 1734.456 771.115, 1737.852 774.321 C 1740.369 776.698, 1740.790 776.771, 1746.361 775.792 L 1752.222 774.763 1758.095 778.905 C 1764.376 783.334, 1766.361 783.519, 1770.884 780.094 C 1772.345 778.988, 1773.508 776.811, 1773.889 774.467 C 1774.442 771.066, 1775.019 770.436, 1779.124 768.751 L 1783.739 766.858 1788.619 769.889 C 1791.304 771.556, 1796.596 776.601, 1800.380 781.100 L 1807.259 789.279 1815.880 788.686 C 1820.621 788.360, 1825.863 787.561, 1827.528 786.911 C 1830.104 785.906, 1831.945 786.129, 1839.871 788.409 C 1849.931 791.303, 1849.428 791.378, 1855.250 786.113 C 1857.997 783.628, 1858 783.612, 1858 769.813 C 1858 759.429, 1857.690 756, 1856.750 756.001 C 1856.063 756.001, 1853.110 756.909, 1850.190 758.019 C 1845.516 759.796, 1844.132 759.907, 1838.639 758.951 C 1835.206 758.353, 1831.790 757.488, 1831.047 757.029 C 1830.304 756.570, 1829.325 753.486, 1828.873 750.176 C 1828.353 746.378, 1826.750 741.795, 1824.525 737.747 C 1821.425 732.108, 1821 730.478, 1821 724.238 C 1821 716.384, 1821.649 715.240, 1827.921 712.040 C 1834.876 708.492, 1835.052 707.389, 1830.792 694 C 1828.121 685.604, 1826.070 681.561, 1818.659 670.083 C 1812.581 660.670, 1812.579 660.664, 1812.758 653.583 C 1812.856 649.688, 1813.063 644.973, 1813.218 643.107 C 1813.491 639.826, 1813.322 639.654, 1808.081 637.861 C 1796.585 633.928, 1782.664 632, 1765.765 632 C 1746.626 632, 1745.327 632.435, 1734.224 642.568 C 1724.591 651.361, 1724.312 651.970, 1727.461 657.344 C 1728.929 659.848, 1730 663.221, 1730 665.338 C 1730 668.537, 1730.304 669, 1732.400 669 C 1733.719 669, 1737.139 670.575, 1740 672.500 C 1746.042 676.566, 1746.157 676.589, 1748.367 674.147 C 1749.996 672.346, 1750.329 672.361, 1760.272 674.664 C 1769.111 676.711, 1770.879 677.472, 1773.290 680.267 C 1777.550 685.203, 1782 694.821, 1782 699.092 C 1782 703.405, 1781.857 703.485, 1771.640 704.918 C 1764.752 705.884, 1764.220 706.153, 1752.660 714.485 C 1747.166 718.445, 1745.158 718.139, 1742.465 712.933 L 1740.910 709.926 1738.239 712.027 C 1735.989 713.797, 1734.774 714.021, 1730.534 713.449 C 1724.914 712.691, 1722.537 711.694, 1719.283 708.731 L 1717.065 706.713 1713.283 709.512 C 1711.202 711.052, 1708.289 713.425, 1706.810 714.786 C 1703.601 717.736, 1701.761 717.267, 1698.959 712.784 C 1696.190 708.352, 1697.019 703.213, 1701.748 695.504 C 1705.073 690.085, 1705.493 688.593, 1706.115 680.004 C 1706.493 674.777, 1707.122 668.243, 1707.513 665.485 C 1708.109 661.275, 1707.787 659.428, 1705.506 653.985 C 1702.441 646.673, 1694.984 635.663, 1691.686 633.584 C 1686.539 630.338, 1656.863 623.198, 1647.827 623.031 C 1646.906 623.014, 1644.881 621.937, 1643.327 620.637 C 1640.129 617.964, 1637.421 617.058, 1634.500 617.684 M 0.042 664.937 L 0 678.374 3.091 675.437 C 4.792 673.822, 7.068 671.269, 8.149 669.764 L 10.116 667.029 6.808 662.317 C 4.989 659.726, 2.731 656.232, 1.792 654.553 C 0.113 651.552, 0.083 651.731, 0.042 664.937 M 1720.824 657.684 C 1717.680 661.240, 1715 667.529, 1715 671.350 C 1715 674.492, 1715.653 675.828, 1718.428 678.370 L 1721.855 681.509 1719.840 687.478 C 1718.333 691.943, 1717.988 694.745, 1718.470 698.602 C 1719.275 705.049, 1721.750 707.539, 1728.873 709.066 C 1733.517 710.062, 1734.631 709.975, 1737.583 708.385 L 1740.968 706.563 1744.899 710.401 L 1748.830 714.240 1753.665 709.751 C 1759.658 704.188, 1763.128 702.384, 1769.513 701.513 C 1778.168 700.331, 1778.270 700.263, 1777.519 696.153 C 1776.761 692.008, 1773.163 685.363, 1770.249 682.725 C 1768.281 680.945, 1755.741 677, 1752.048 677 C 1750.960 677, 1749.589 677.900, 1749 679 C 1747.495 681.812, 1745.967 681.519, 1740.545 677.379 C 1737.100 674.748, 1734.393 673.579, 1730.651 673.106 C 1726.285 672.553, 1725.537 672.153, 1725.745 670.477 C 1726.167 667.076, 1724.888 659.230, 1723.632 657.511 C 1722.524 655.997, 1722.304 656.010, 1720.824 657.684 M 1166.441 658.468 C 1165.199 659.407, 1162.106 659.948, 1157.855 659.968 L 1151.209 660 1149.153 664.156 C 1147.603 667.289, 1147.348 668.782, 1148.118 670.220 C 1149.419 672.651, 1147.947 674.561, 1144.194 675.311 C 1140.631 676.024, 1130.754 682.678, 1124.996 688.244 C 1121.836 691.299, 1119.971 694.225, 1118.745 698.049 C 1116.056 706.443, 1115.755 706.722, 1111.736 704.557 C 1106.876 701.940, 1100.281 703.045, 1096.400 707.128 C 1092.058 711.696, 1088.694 713.051, 1079.296 714.021 C 1071.425 714.833, 1069.013 715.444, 1070.083 716.355 C 1081.283 725.885, 1099.178 738.922, 1104.611 741.509 C 1108.522 743.371, 1113.193 746.133, 1114.991 747.646 C 1117.887 750.083, 1118.186 750.162, 1117.608 748.340 C 1116.853 745.961, 1118.284 744.469, 1122.281 743.466 C 1124.088 743.012, 1125.904 741.313, 1127.509 738.575 C 1130.998 732.621, 1133.544 730.706, 1141.500 728.052 C 1151.267 724.793, 1153.895 723.003, 1162.483 713.758 C 1167.780 708.057, 1170.336 704.438, 1171.091 701.574 C 1172.438 696.464, 1176.802 683.477, 1178.510 679.500 C 1179.218 677.850, 1180.297 674.475, 1180.907 672 L 1182.017 667.500 1176.347 662.250 C 1170.208 656.567, 1169.376 656.249, 1166.441 658.468 M 870.647 679.988 C 865.413 687.859, 865.096 690.027, 868.144 697.113 C 870.013 701.459, 870.137 702.598, 869.112 706.021 C 868.465 708.180, 865.447 712.996, 862.404 716.723 C 859.362 720.450, 855.438 725.387, 853.686 727.694 C 851.934 730, 849.375 732.372, 848 732.965 L 845.500 734.042 845.488 749.771 C 845.477 763.491, 845.174 766.458, 843.116 773 C 841.819 777.125, 840.362 780.928, 839.879 781.450 C 839.395 781.973, 839 783.015, 839 783.767 C 839 784.518, 837.875 786.608, 836.500 788.411 C 835.125 790.214, 833.993 792.996, 833.985 794.594 C 833.953 800.593, 833.373 800.843, 818 801.464 C 805.113 801.985, 803.028 801.530, 802.890 798.171 C 802.807 796.137, 802.584 796.455, 801.958 799.500 C 801.505 801.700, 798.222 808.845, 794.664 815.378 C 788.896 825.965, 788.302 827.568, 789.195 830.129 C 789.746 831.710, 790.523 833.205, 790.921 833.451 C 791.320 833.698, 794.752 833.459, 798.547 832.922 C 807.256 831.689, 809.370 833.014, 813.188 842.102 L 815.875 848.500 821.188 848.256 C 834.529 847.645, 866.179 848.086, 870.718 848.946 C 873.486 849.471, 877.944 850.936, 880.625 852.200 C 884.603 854.077, 885.933 855.408, 887.856 859.435 L 890.212 864.371 892.180 861.935 C 893.505 860.295, 894.314 859.908, 894.657 860.750 C 895.848 863.671, 897.950 861.619, 899.877 855.653 C 903.682 843.875, 903.629 842.167, 899.275 836.435 C 897.160 833.649, 894.579 828.564, 893.541 825.135 L 891.653 818.900 896.181 814.700 C 899.685 811.450, 900.854 809.560, 901.351 806.344 C 901.765 803.667, 903.427 800.374, 906.023 797.090 C 911.425 790.256, 912.348 787.609, 910.901 783.106 C 908.648 776.097, 906.660 773.932, 898.264 769.349 C 893.733 766.876, 889.683 764.323, 889.264 763.676 C 886.965 760.136, 887.493 713.688, 889.956 702.697 C 890.540 700.091, 892.364 696.100, 894.009 693.829 C 898.052 688.247, 898.189 682.007, 894.347 678.445 C 891.431 675.744, 883.430 673, 878.465 673 C 875.649 673, 874.773 673.783, 870.647 679.988 M 857 682.120 C 848.998 686.253, 843.887 688.247, 840.196 688.676 C 835.268 689.248, 834.751 689.568, 832.899 693.198 C 830.660 697.587, 830.188 697.594, 821.789 693.374 L 817.078 691.006 815.845 695.124 C 814.734 698.832, 814.799 699.380, 816.497 700.621 C 817.534 701.380, 819.148 702, 820.084 702 C 821.020 702, 822.013 702.591, 822.290 703.313 C 822.635 704.213, 824.763 704.605, 829.076 704.560 L 835.359 704.494 839.538 709.819 C 845.242 717.087, 848.326 723.509, 847.700 726.817 C 847.249 729.201, 847.687 728.942, 851.624 724.500 C 858.750 716.460, 864.971 707.965, 865.616 705.392 C 865.986 703.921, 865.202 700.474, 863.572 696.403 C 860.558 688.875, 860.734 687.586, 865.712 680.750 C 867.614 678.138, 869.020 676.040, 868.835 676.090 C 868.651 676.139, 863.325 678.853, 857 682.120 M 1318.676 686.553 C 1317.744 688.508, 1316.595 689.868, 1316.124 689.576 C 1314.915 688.830, 1313.969 696.845, 1314.582 702.640 C 1315.429 710.654, 1315.231 710.725, 1299.322 708.128 C 1283.610 705.564, 1273.083 703.163, 1271.243 701.726 C 1269.881 700.662, 1269.045 699.282, 1264.542 690.662 C 1262.915 687.548, 1261.340 685.003, 1261.042 685.007 C 1260.744 685.011, 1259.487 686.502, 1258.248 688.322 C 1257.009 690.141, 1254.663 692.907, 1253.034 694.467 C 1250.613 696.787, 1249.803 697.081, 1248.596 696.080 C 1247.784 695.406, 1246.981 693.875, 1246.810 692.677 C 1246.595 691.170, 1244.808 689.664, 1241 687.782 C 1237.975 686.287, 1235.018 685.050, 1234.429 685.032 C 1233.763 685.012, 1233.355 687.785, 1233.350 692.378 C 1233.344 697.957, 1232.852 700.585, 1231.335 703.158 C 1230.231 705.029, 1229.031 707.741, 1228.668 709.185 C 1228.306 710.630, 1226.423 714.216, 1224.485 717.156 C 1222.546 720.095, 1219.594 726.037, 1217.925 730.361 C 1214.488 739.263, 1214.581 741.043, 1218.985 750.523 C 1220.524 753.835, 1223.592 761.778, 1225.803 768.173 C 1228.014 774.568, 1230.264 780.633, 1230.803 781.650 C 1233.166 786.113, 1238.230 802.845, 1242.074 818.894 C 1246.955 839.272, 1247.141 847.916, 1242.875 856 C 1241.569 858.475, 1240.215 860.725, 1239.866 861 C 1239.517 861.275, 1239.061 862.399, 1238.853 863.497 C 1238.644 864.595, 1237.107 866.170, 1235.437 866.997 C 1233.767 867.824, 1227.923 872.875, 1222.450 878.222 C 1216.815 883.729, 1211.416 888.147, 1210 888.410 C 1208.625 888.666, 1204.800 889.204, 1201.500 889.607 C 1198.200 890.009, 1196.400 890.534, 1197.500 890.774 C 1198.600 891.014, 1206.831 893.413, 1215.790 896.105 L 1232.080 901 1234.962 898.870 L 1237.843 896.740 1241.296 898.874 C 1244.195 900.666, 1244.933 900.786, 1245.897 899.624 C 1246.528 898.864, 1248.491 897.952, 1250.259 897.598 C 1252.026 897.245, 1257.906 895.138, 1263.325 892.915 C 1268.744 890.693, 1276.690 888.258, 1280.984 887.503 C 1285.554 886.699, 1291.634 884.709, 1295.646 882.704 C 1299.416 880.819, 1304.862 878.720, 1307.749 878.039 C 1310.636 877.358, 1315.623 875.104, 1318.832 873.030 C 1322.041 870.956, 1329.179 866.941, 1334.693 864.109 C 1340.208 861.276, 1346.811 857.573, 1349.367 855.881 C 1352.802 853.605, 1356.313 852.415, 1362.835 851.315 L 1371.657 849.828 1375.468 852.414 C 1380.879 856.086, 1384.189 855.781, 1389.272 851.142 C 1397.823 843.339, 1401.512 842.976, 1406 849.500 C 1408.374 852.950, 1409.726 854.002, 1411.798 854.010 C 1413.284 854.015, 1416.844 855.111, 1419.709 856.445 L 1424.917 858.870 1426.973 855.543 C 1428.455 853.145, 1430.021 852.031, 1432.585 851.550 C 1434.541 851.183, 1437.526 849.559, 1439.219 847.941 C 1441.883 845.396, 1443.057 845, 1447.954 845 C 1454.497 845, 1458.594 842.594, 1462.763 836.304 C 1467.912 828.537, 1468.785 827.972, 1475.432 828.109 C 1479.904 828.201, 1482.730 827.634, 1486.176 825.953 L 1490.852 823.673 1500.472 829.828 L 1510.091 835.983 1515.795 833.129 C 1518.933 831.559, 1523.300 829.708, 1525.500 829.016 C 1532.189 826.911, 1535.824 824.107, 1539.217 818.435 C 1541.242 815.048, 1544.371 811.699, 1547.564 809.500 C 1550.373 807.566, 1553.263 804.877, 1553.987 803.524 C 1554.755 802.088, 1556.978 800.507, 1559.331 799.723 C 1562.899 798.534, 1563.482 797.884, 1564.430 794.036 C 1565.613 789.232, 1566.002 788.911, 1574.250 785.933 C 1578.955 784.234, 1580 783.443, 1580 781.583 C 1580 780.333, 1579.054 778.453, 1577.897 777.405 C 1575.121 774.891, 1562.928 774.810, 1554.573 777.251 C 1545.932 779.776, 1533.495 780.655, 1531.365 778.892 C 1528.814 776.781, 1526.047 769.961, 1526.022 765.725 C 1526.003 762.543, 1525.568 761.783, 1523.250 760.881 C 1521.627 760.249, 1518.042 760.079, 1514.500 760.466 C 1511.200 760.827, 1504.675 761.481, 1500 761.921 C 1487.618 763.085, 1480.588 766.071, 1476.653 771.837 C 1472.089 778.526, 1468.260 782.197, 1466.253 781.807 C 1465.122 781.588, 1463.161 783.159, 1460.727 786.234 C 1458.651 788.855, 1456.176 790.985, 1455.227 790.966 C 1454.277 790.947, 1449.900 790.076, 1445.500 789.030 L 1437.500 787.128 1434.949 789.560 L 1432.398 791.992 1428.660 788.164 C 1425.267 784.689, 1425.020 784.077, 1425.989 781.529 C 1427.191 778.368, 1427.232 778.473, 1424.465 777.625 C 1423.089 777.204, 1420.692 778.121, 1417.067 780.457 C 1412.714 783.261, 1411.334 783.714, 1409.738 782.860 C 1408.246 782.061, 1406.985 782.231, 1404.507 783.566 C 1401.575 785.145, 1400.611 785.191, 1395.068 784.014 C 1386.920 782.285, 1384.004 779.960, 1383.986 775.177 C 1383.977 772.820, 1382.588 768.962, 1380.116 764.427 L 1376.260 757.355 1376.766 747.677 L 1377.273 738 1373.195 738 C 1368.251 738, 1367.450 736.965, 1369.429 733.137 L 1370.940 730.216 1359.720 730.350 C 1350.085 730.466, 1347.511 730.132, 1341.500 727.992 L 1334.500 725.500 1334.223 717 C 1334.070 712.325, 1333.976 704.900, 1334.013 700.500 C 1334.108 689.320, 1333.744 688.411, 1328.016 685.508 C 1325.294 684.129, 1322.460 683, 1321.718 683 C 1320.977 683, 1319.608 684.599, 1318.676 686.553 M 1345.681 691.734 C 1344.567 693.598, 1341.851 708.168, 1342.366 709.511 C 1342.741 710.490, 1344.322 711, 1346.977 711 L 1351.017 711 1350.409 705.250 C 1349.354 695.281, 1347.214 689.165, 1345.681 691.734 M 1365.770 702.967 C 1363.153 705.025, 1363.134 705.127, 1364.587 709.247 C 1366.632 715.044, 1370.257 720.964, 1373.858 724.386 L 1376.894 727.272 1377.555 724.638 C 1378.329 721.552, 1378.122 721.041, 1373.505 714.641 C 1371.577 711.968, 1369.968 708.593, 1369.930 707.141 C 1369.891 705.688, 1369.538 703.684, 1369.145 702.687 C 1368.467 700.969, 1368.291 700.984, 1365.770 702.967 M 173.239 708.631 C 171.092 712.741, 171.091 712.772, 173.055 714.550 C 174.142 715.533, 175.433 717.724, 175.925 719.419 C 176.690 722.055, 176.816 721.633, 176.791 716.500 C 176.776 713.200, 176.456 709.150, 176.080 707.500 L 175.397 704.500 173.239 708.631 M 1563 710 C 1560.589 712.411, 1560.530 714.430, 1562.568 724.643 C 1564.429 733.966, 1566.516 736.388, 1573.520 737.348 C 1579.938 738.227, 1585.624 736.596, 1587.302 733.393 C 1588.371 731.352, 1588.401 729.737, 1587.452 725.133 C 1585.573 716.016, 1584.578 715.034, 1571.716 709.599 C 1566.794 707.519, 1565.418 707.582, 1563 710 M 1072.014 723.178 C 1073.656 725.445, 1075 728.556, 1075 730.091 C 1075 731.626, 1075.442 733.155, 1075.983 733.489 C 1076.949 734.086, 1082 749.459, 1082 751.802 C 1082 755.663, 1065.399 749.243, 1064.276 744.946 C 1064.005 743.912, 1063.045 742.818, 1062.142 742.514 C 1060.614 742, 1055.650 735.298, 1053.124 730.338 L 1052.024 728.176 1049.122 730.886 C 1047.526 732.377, 1044.479 734.382, 1042.352 735.341 C 1038.685 736.995, 1038.226 737.741, 1033.534 749.666 L 1028.585 762.246 1030.669 763.933 C 1033.310 766.071, 1035.593 770.473, 1036.980 776.099 C 1037.816 779.488, 1037.753 781.535, 1036.707 785 C 1035.355 789.480, 1035.366 789.525, 1039.207 795.243 C 1044.474 803.084, 1047 809.336, 1047 814.533 C 1047 819.704, 1045.215 821.209, 1040.638 819.896 C 1038.439 819.265, 1036.981 819.437, 1035.325 820.523 C 1031.033 823.335, 1029.012 829.170, 1026.501 846 C 1025.167 854.939, 1024.403 857.303, 1021.356 861.902 C 1018.408 866.352, 1017.865 867.957, 1018.275 871.010 C 1019.124 877.344, 1021.966 881.791, 1028.363 886.799 C 1036.574 893.228, 1036.553 893.218, 1041.863 893.535 C 1044.413 893.688, 1053.242 896.116, 1061.482 898.930 L 1076.464 904.047 1081.339 901.949 C 1085.655 900.093, 1086.772 899.986, 1091.070 901.017 C 1094.116 901.748, 1097.522 903.584, 1100.212 905.948 C 1102.571 908.020, 1106.525 910.730, 1109 911.972 C 1111.475 913.213, 1114.927 915.298, 1116.671 916.605 C 1119.112 918.434, 1120.574 918.835, 1123.021 918.346 C 1125.881 917.774, 1126.657 916.747, 1130.756 908.105 L 1135.313 898.500 1135.749 881 L 1136.185 863.500 1139.564 859.987 L 1142.944 856.473 1141.628 851.487 C 1140.186 846.024, 1137.585 840.480, 1136.007 839.504 C 1134.171 838.369, 1134.970 834.558, 1138 830 C 1139.645 827.525, 1140.993 824.892, 1140.996 824.150 C 1140.998 823.407, 1138.038 819.490, 1134.418 815.445 C 1130.555 811.128, 1127.973 807.386, 1128.168 806.384 C 1128.351 805.445, 1129.914 804.187, 1131.643 803.589 L 1134.785 802.500 1132.393 799.028 C 1130.314 796.012, 1129.994 794.371, 1129.952 786.528 C 1129.904 777.439, 1129.205 775.045, 1124.801 768.879 C 1123.867 767.570, 1122.363 764.700, 1121.459 762.500 L 1119.815 758.500 1124.158 762.488 C 1126.546 764.681, 1124.701 762.559, 1120.057 757.773 C 1113.012 750.512, 1110.116 748.330, 1102.557 744.592 C 1095.887 741.293, 1090.276 737.338, 1081.264 729.585 C 1071.672 721.331, 1069.674 719.947, 1072.014 723.178 M 254.607 764.582 C 253.652 767.071, 253.884 768, 255.461 768 C 256.265 768, 257.727 768.833, 258.711 769.852 C 259.695 770.870, 261.554 771.964, 262.842 772.282 C 265.145 772.851, 265.154 772.824, 263.371 770.680 C 259.354 765.850, 256.589 763, 255.920 763 C 255.532 763, 254.941 763.712, 254.607 764.582 M 695.809 788.750 C 691.690 793.166, 690.824 795.618, 691.555 800.788 C 692.323 806.217, 695.032 812.990, 697.087 814.620 C 697.864 815.236, 701.425 816.055, 705 816.442 C 714.217 817.438, 724.675 820.522, 729.430 823.648 C 731.668 825.119, 737.100 829.099, 741.500 832.493 C 751.308 840.058, 758.545 845, 759.814 845 C 760.338 845, 760.987 844.157, 761.257 843.127 C 761.628 841.708, 761.310 841.368, 759.949 841.724 C 758.098 842.208, 755 837.736, 755 834.580 C 755 831.506, 750.561 824.674, 747.322 822.763 C 745.351 821.600, 743.745 819.711, 743.396 818.147 C 743.072 816.691, 742.413 813.955, 741.933 812.066 C 740.875 807.907, 742.391 796.078, 744.505 791.991 C 745.327 790.401, 746 788.836, 746 788.514 C 746 787.198, 741.189 790.532, 736.458 795.125 C 730.761 800.657, 726.451 802.408, 722.895 800.635 C 721.615 799.997, 718.399 796.780, 715.749 793.487 C 713.099 790.194, 710.465 787.339, 709.894 787.143 C 709.324 786.946, 707.772 787.805, 706.446 789.050 L 704.036 791.315 701.945 788.658 C 699.344 785.351, 698.974 785.357, 695.809 788.750 M 1431.319 798.119 C 1430.689 798.878, 1428.536 803.100, 1426.534 807.500 C 1424.532 811.900, 1421.612 816.850, 1420.046 818.500 C 1416.177 822.575, 1411 830.985, 1411 833.196 C 1411 834.188, 1411.129 835, 1411.288 835 C 1411.446 835, 1415.303 833.451, 1419.859 831.559 C 1429.298 827.637, 1437.536 822.652, 1438.431 820.319 C 1439.324 817.991, 1437.211 807.571, 1434.670 801.773 C 1432.897 797.728, 1432.238 797.009, 1431.319 798.119 M 798.134 799.338 C 797.524 800.074, 795.267 801.203, 793.119 801.846 C 783.942 804.596, 776.256 816.999, 775.295 830.609 L 774.709 838.912 768.605 839.263 C 762.598 839.609, 762.620 839.617, 770 839.781 C 775.360 839.900, 778.641 839.435, 781.500 838.150 L 785.500 836.352 785.512 829.926 C 785.524 823.117, 784.976 824.368, 797.649 802.250 C 800.062 798.039, 800.275 796.758, 798.134 799.338 M 1135.172 806.165 L 1131.844 808.295 1139.172 815.675 C 1147.431 823.992, 1147.207 821.845, 1140.946 832.686 L 1138.529 836.872 1140.721 839.836 C 1142.993 842.909, 1147 853.237, 1147 856.019 C 1147 856.893, 1145.469 859.091, 1143.599 860.904 L 1140.198 864.201 1139.804 880.850 C 1139.412 897.426, 1139.394 897.539, 1135.705 906.262 C 1133.667 911.081, 1132 915.693, 1132 916.512 C 1132 918.643, 1135.328 918.393, 1146.661 915.411 C 1156.790 912.746, 1161 910.807, 1161 908.807 C 1161 908.177, 1163.362 905.374, 1166.250 902.580 C 1169.138 899.786, 1172.741 895.832, 1174.258 893.794 C 1176.229 891.144, 1178.056 889.893, 1180.666 889.403 L 1184.317 888.718 1178.554 886.935 C 1172.850 885.170, 1168 881.744, 1168 879.481 C 1168 878.837, 1167.096 877.492, 1165.991 876.492 C 1163.042 873.823, 1162.127 869.541, 1160.062 848.754 C 1157.844 826.415, 1156.893 823.900, 1149.153 819.901 C 1143.803 817.136, 1141.447 814.771, 1138.693 809.399 C 1137.495 807.064, 1137.386 806.014, 1138.251 805.149 C 1139.973 803.427, 1138.889 803.784, 1135.172 806.165 M 1855.295 1030.105 C 1854.687 1030.713, 1849.306 1031.773, 1843.337 1032.461 C 1831.827 1033.788, 1822.236 1037.270, 1825.099 1039.082 C 1825.869 1039.570, 1833.588 1039.976, 1842.250 1039.985 L 1858 1040 1858 1034.500 C 1858 1029.013, 1857.385 1028.015, 1855.295 1030.105" stroke="none" fill="#d0d0d0" fill-rule="evenodd"/><path d="M 522.552 570.661 C 523.558 571.398, 524.746 572, 525.191 572 C 525.636 572, 526 572.697, 526 573.550 C 526 574.402, 526.708 576.469, 527.574 578.143 C 529.337 581.552, 528.832 582.936, 526.524 581.020 C 525.686 580.324, 525 580.011, 525 580.324 C 525 581.344, 535.433 587.833, 538 588.408 C 539.375 588.717, 542.075 588.572, 544 588.087 C 546.031 587.575, 546.661 587.149, 545.500 587.073 C 543.295 586.928, 535.693 577.242, 536.380 575.453 C 536.619 574.830, 533.348 573.281, 528.760 571.843 C 524.338 570.457, 521.545 569.925, 522.552 570.661 M 547.914 582.618 C 549.046 584.057, 549.707 585.665, 549.382 586.191 C 549.057 586.717, 549.738 586.556, 550.895 585.833 C 552.053 585.110, 553 583.968, 553 583.295 C 553 581.873, 549.870 580, 547.493 580 C 546.083 580, 546.141 580.364, 547.914 582.618 M 522.174 581.351 C 522.544 581.807, 522.194 584.033, 521.396 586.296 C 520.597 588.559, 520.208 591.101, 520.532 591.944 C 521.556 594.613, 543.279 627, 544.045 627 C 544.448 627, 545.064 625.471, 545.415 623.601 C 545.766 621.732, 547.019 618.975, 548.199 617.474 C 550.279 614.830, 550.282 614.778, 548.314 615.832 C 546.458 616.825, 545.361 615.584, 535.598 601.434 C 529.722 592.917, 525.147 585.571, 525.433 585.108 C 525.719 584.646, 524.951 583.424, 523.726 582.394 C 522.502 581.364, 521.803 580.895, 522.174 581.351 M 302.114 586.603 C 304.102 588.746, 307.657 593.425, 310.014 597 C 312.371 600.575, 315.790 605.355, 317.612 607.622 C 319.433 609.888, 320.718 611.949, 320.466 612.201 C 320.215 612.452, 321.019 612.622, 322.254 612.579 C 324.137 612.513, 324.644 613.228, 325.392 617 C 326.015 620.145, 327.197 622.244, 329.318 623.972 C 331.350 625.628, 332.487 626.040, 332.759 625.222 C 332.983 624.550, 333.954 624, 334.917 624 C 337.999 624, 338.016 622.808, 334.988 618.985 C 333.361 616.931, 330.336 612.559, 328.265 609.270 C 326.194 605.981, 322.147 600.018, 319.270 596.017 C 316.394 592.017, 314.283 588.351, 314.579 587.872 C 314.876 587.392, 313.854 586.980, 312.309 586.956 C 309.809 586.917, 307.630 586.277, 300.500 583.488 C 299.103 582.941, 299.589 583.880, 302.114 586.603 M 485.437 586.250 L 482.500 589.500 485.508 586.794 C 488.191 584.382, 489.438 584.052, 497.008 583.748 L 505.500 583.407 496.937 583.204 C 488.441 583.002, 488.351 583.025, 485.437 586.250 M 554.750 586.080 C 552.604 587.330, 552.501 589.341, 554.500 591 C 556.629 592.767, 556.357 595.991, 553.854 598.656 C 551.732 600.915, 551.727 601.003, 553.460 606.511 C 554.423 609.575, 554.973 612.996, 554.681 614.112 C 554.318 615.501, 555.910 618.729, 559.718 624.321 C 569.547 638.759, 569.081 638.374, 572.945 635.245 L 575.113 633.490 563.957 617.117 L 552.802 600.743 555.209 598.336 L 557.616 595.929 565.859 607.856 C 570.393 614.415, 575.042 620.619, 576.192 621.641 L 578.283 623.500 577.564 619.500 C 576.397 613.011, 572.556 604.463, 567.009 596.014 C 564.153 591.664, 562.081 587.679, 562.403 587.157 C 563.636 585.161, 557.750 584.333, 554.750 586.080 M 321.755 590.541 C 322.964 591.388, 328.255 598.138, 333.511 605.541 C 338.767 612.943, 343.637 619, 344.334 619 C 345.030 619, 346.121 618.479, 346.758 617.842 C 348.537 616.063, 350.644 618.371, 351.367 622.894 C 351.706 625.014, 353.450 628.926, 355.242 631.586 C 358.374 636.235, 368.043 645, 370.039 645 C 371.373 645, 368.200 639.314, 363.877 633.959 C 360.833 630.186, 346.583 610.203, 338.235 598 L 335.840 594.500 338.670 593.868 C 340.610 593.435, 339.543 593.199, 335.274 593.118 C 330.977 593.037, 328.034 592.382, 325.774 591.004 C 321.847 588.609, 318.436 588.216, 321.755 590.541 M 361 590 C 358.525 590.385, 356.996 590.767, 357.602 590.850 C 358.208 590.932, 362.234 596.063, 366.548 602.250 C 370.862 608.438, 376.568 616.399, 379.229 619.943 C 381.889 623.486, 383.883 626.861, 383.660 627.443 C 383.436 628.028, 384.649 628.574, 386.377 628.666 C 388.095 628.757, 390.973 629.147, 392.773 629.533 L 396.045 630.234 388.273 619.221 C 383.998 613.164, 379.714 606.924, 378.753 605.354 C 377.792 603.784, 375.013 599.800, 372.578 596.500 L 368.150 590.500 372.325 589.900 C 376.268 589.334, 376.194 589.300, 371 589.300 C 367.975 589.300, 363.475 589.615, 361 590 M 537.072 593.174 C 539.036 595.003, 543.012 600.024, 545.907 604.331 C 551.294 612.346, 553.095 613.581, 551.116 607.902 C 550.502 606.142, 550 602.926, 550 600.755 C 550 598.335, 549.158 595.589, 547.824 593.654 C 546.627 591.919, 545.575 590.385, 545.486 590.245 C 545.397 590.106, 543.866 590.499, 542.084 591.120 C 539.635 591.974, 538.192 591.957, 536.172 591.049 C 533.781 589.975, 533.876 590.199, 537.072 593.174 M 351.679 592.609 C 350.128 593.450, 347.566 594.175, 345.986 594.219 L 343.114 594.301 347.770 600.901 C 350.331 604.530, 355.342 611.550, 358.906 616.500 C 362.469 621.450, 366.856 627.657, 368.654 630.294 C 370.452 632.930, 372.820 636.227, 373.916 637.621 L 375.909 640.154 377.454 636.455 C 378.304 634.420, 379 632.392, 379 631.947 C 379 631.502, 373.670 623.569, 367.155 614.319 C 352.517 593.535, 352.452 593.418, 354.743 592.084 C 357.550 590.449, 354.791 590.922, 351.679 592.609 M 297.625 595.357 C 297.147 597.262, 298.134 598.845, 302.767 603.607 C 305.920 606.848, 309.460 610.850, 310.634 612.500 C 311.807 614.150, 313.082 615.200, 313.467 614.834 C 314.170 614.164, 300.057 593.107, 298.858 593.037 C 298.506 593.017, 297.951 594.061, 297.625 595.357 M 381.019 596.784 C 381.080 599.094, 404.237 631, 405.853 631 C 406.837 631, 406.950 630.634, 406.238 629.750 C 405.684 629.063, 404.906 626.925, 404.508 625 C 403.373 619.504, 398.180 610.498, 393.124 605.253 C 388.714 600.680, 380.979 595.268, 381.019 596.784 M 299.789 608.250 C 314.319 628.041, 317 631.805, 317 632.407 C 317 632.779, 317.907 634.058, 319.016 635.248 L 321.032 637.412 323.034 635.410 C 325.106 633.338, 326.493 629, 325.084 629 C 324.644 629, 322.640 626.525, 320.631 623.500 C 317.560 618.874, 316.504 618, 313.990 618 C 310.804 618, 310.160 617.469, 302.692 608.666 C 296.645 601.538, 294.652 601.252, 299.789 608.250 M 858.366 608.980 C 849.115 613.660, 824.212 635.137, 820.243 641.858 C 818.898 644.136, 817.425 646, 816.970 646 C 816.515 646, 815.416 646.727, 814.527 647.615 C 813.278 648.865, 813.064 650.280, 813.582 653.865 C 814.388 659.436, 814.986 660.270, 820.099 662.935 C 824.141 665.041, 832.732 665.769, 834.550 664.158 C 835.072 663.695, 838.200 662.776, 841.500 662.115 C 851.513 660.110, 860.403 657.881, 862.236 656.915 C 863.191 656.412, 864.448 656, 865.029 656 C 865.609 656, 866.762 655.438, 867.590 654.750 C 873.351 649.968, 874.438 646.601, 872.854 638.440 C 872.327 635.723, 871.969 628.775, 872.060 623 C 872.281 608.864, 872.233 608.375, 870.429 606.571 C 868.185 604.328, 867.151 604.535, 858.366 608.980 M 523 610.423 C 523 611.570, 531.759 623.733, 533.247 624.653 C 533.917 625.067, 532.267 622.277, 529.580 618.453 C 523.968 610.464, 523 609.282, 523 610.423 M 295 613.616 C 295 621.251, 300.130 634.138, 305.939 641.096 C 308.515 644.181, 308.941 644.348, 311.395 643.230 C 315.329 641.437, 315.585 639.430, 312.348 635.743 C 310.773 633.949, 306.602 628.436, 303.079 623.491 C 295.552 612.925, 295 612.250, 295 613.616 M 242.667 622.667 C 241.248 624.085, 242.221 626.106, 248.590 634.976 C 252.214 640.023, 254.994 644.339, 254.767 644.566 C 254.540 644.793, 252.966 645.257, 251.269 645.596 C 248.711 646.108, 247.970 645.811, 246.929 643.857 C 245.490 641.156, 238.562 631.585, 235.638 628.259 L 233.668 626.017 231.834 629.033 C 229.341 633.133, 229.483 634.033, 233.345 638.570 C 238.676 644.833, 240.552 649.923, 238.090 651.444 C 236.341 652.525, 234.232 650.842, 229.976 644.967 C 226.125 639.652, 225.557 639.223, 224.417 640.773 C 223.305 642.285, 224.175 643.560, 231.390 651 C 235.924 655.675, 240.357 660.564, 241.241 661.864 C 244.566 666.755, 258.054 668.061, 279.234 665.542 C 291.628 664.068, 299.426 664.574, 309.654 667.517 C 316.068 669.363, 317.507 669.359, 313.250 667.509 C 310.562 666.341, 310 665.547, 310 662.920 C 310 660.196, 304.953 649.491, 302.966 648 C 302.599 647.725, 301.091 645.571, 299.614 643.213 C 295.165 636.111, 290.125 631.213, 285.414 629.414 C 282.962 628.478, 280.684 627.982, 280.353 628.314 C 279.708 628.958, 290.117 644.909, 298.731 656.476 C 301.608 660.339, 303.970 663.873, 303.981 664.329 C 304.005 665.379, 297.937 664.121, 296.195 662.717 C 295.477 662.138, 289.748 654.377, 283.464 645.470 C 277.179 636.563, 271.322 628.682, 270.447 627.956 C 268.609 626.431, 258 621.974, 258 622.727 C 258 623.345, 265.252 634.071, 271.994 643.424 C 274.739 647.233, 276.793 650.540, 276.559 650.774 C 276.325 651.008, 274.551 650.677, 272.617 650.039 C 269.358 648.963, 263 643.036, 263 641.074 C 263 640.603, 261.270 638.124, 259.156 635.565 C 257.041 633.007, 254.310 628.908, 253.085 626.457 C 251.042 622.365, 250.552 622, 247.097 622 C 245.027 622, 243.033 622.300, 242.667 622.667 M 548.588 623.250 C 546.253 631.619, 546.254 631.513, 548.465 633.181 C 550.780 634.928, 558.089 637.244, 558.858 636.475 C 559.311 636.022, 550.057 622, 549.305 622 C 549.103 622, 548.780 622.563, 548.588 623.250 M 1609.921 633.794 C 1605.375 636.976, 1604.490 638.092, 1604.439 640.714 C 1604.353 645.088, 1603.208 646.093, 1594.416 649.500 C 1589.911 651.246, 1585.280 653.873, 1583.337 655.783 C 1580.313 658.759, 1580 659.612, 1580 664.883 C 1580 669.897, 1579.551 671.293, 1576.750 674.999 C 1574.963 677.364, 1573.056 679.900, 1572.514 680.636 C 1570.737 683.045, 1575.814 690.708, 1580.402 692.544 C 1584.156 694.046, 1584.751 694.011, 1591.435 691.885 C 1597.453 689.971, 1599.401 688.726, 1604.585 683.479 C 1614.147 673.800, 1619.589 662.595, 1621.972 647.678 C 1622.836 642.267, 1622.761 640.409, 1621.572 637.760 C 1620.194 634.690, 1616.682 630, 1615.761 630 C 1615.530 630, 1612.902 631.707, 1609.921 633.794 M 391.716 638.113 C 396.084 644.013, 397.558 644.775, 400.480 642.638 C 402.157 641.412, 402.258 640.861, 401.223 638.589 C 399.960 635.818, 397.626 634.583, 391.470 633.428 L 387.727 632.726 391.716 638.113 M 381.568 637.083 C 378.831 644.887, 378.437 646.682, 379.424 646.849 C 385.668 647.908, 388.866 648.027, 389.365 647.219 C 389.694 646.686, 388.564 644.281, 386.854 641.875 C 382.549 635.819, 382.141 635.449, 381.568 637.083 M 801 654 C 800.175 654.533, 797.608 654.976, 795.295 654.985 C 790.797 655.001, 790.933 654.786, 789.683 663.827 C 789.583 664.556, 785.912 666.356, 781.526 667.827 L 773.551 670.500 770.227 676.932 C 768.342 680.578, 767.032 684.476, 767.201 685.932 C 767.496 688.462, 767.608 688.495, 774.779 688.169 C 778.782 687.987, 786.112 688.365, 791.067 689.009 C 798.932 690.031, 800.385 689.978, 802.503 688.590 C 804.044 687.580, 807.133 687, 810.965 687 C 815.749 687, 817 686.679, 817 685.450 C 817 683.381, 814.512 678.670, 812.566 677.055 C 811.372 676.064, 811 673.760, 811 667.363 C 811 659.169, 810.924 658.902, 807.750 656.015 C 804.222 652.805, 803.282 652.525, 801 654 M 1572.590 662.625 C 1572.230 663.565, 1571.660 666.959, 1571.325 670.167 C 1570.617 676.937, 1571.772 677.723, 1574.927 672.618 C 1576.600 669.912, 1576.860 668.476, 1576.229 665.441 C 1575.367 661.288, 1573.622 659.938, 1572.590 662.625 M 1181.650 668.758 C 1181.392 669.174, 1180.857 671.312, 1180.460 673.508 C 1180.064 675.703, 1179.410 677.950, 1179.007 678.500 C 1178.135 679.689, 1172.617 695.775, 1171.090 701.574 C 1170.336 704.440, 1167.782 708.055, 1162.483 713.758 C 1153.895 723.003, 1151.267 724.793, 1141.500 728.052 C 1133.534 730.710, 1130.999 732.620, 1127.489 738.609 C 1125.755 741.567, 1124.128 743.033, 1122.074 743.484 C 1115.224 744.988, 1116.013 749.173, 1124.805 757.965 C 1128.660 761.820, 1131.744 763.996, 1134.046 764.484 C 1138.236 765.372, 1141.367 768.100, 1144.700 773.767 C 1146.917 777.536, 1147.168 778.938, 1146.849 785.767 C 1146.505 793.128, 1146.264 793.813, 1141.835 800 C 1137.255 806.398, 1137.206 806.547, 1138.737 809.500 C 1141.485 814.802, 1143.844 817.157, 1149.153 819.901 C 1156.893 823.900, 1157.844 826.415, 1160.062 848.754 C 1162.127 869.541, 1163.042 873.823, 1165.991 876.492 C 1167.096 877.492, 1168 878.837, 1168 879.481 C 1168 881.788, 1172.889 885.177, 1179.139 887.202 C 1184.073 888.800, 1188.081 889.259, 1197 889.247 C 1203.325 889.239, 1209.487 888.842, 1210.694 888.365 C 1211.901 887.888, 1217.284 883.223, 1222.656 877.999 C 1228.028 872.774, 1233.785 867.824, 1235.449 866.997 C 1237.113 866.170, 1238.644 864.595, 1238.853 863.497 C 1239.061 862.399, 1239.517 861.275, 1239.866 861 C 1240.215 860.725, 1241.569 858.475, 1242.875 856 C 1247.141 847.916, 1246.955 839.272, 1242.074 818.894 C 1238.230 802.845, 1233.166 786.113, 1230.803 781.650 C 1230.264 780.633, 1228.014 774.568, 1225.803 768.173 C 1223.592 761.778, 1220.524 753.835, 1218.985 750.523 C 1214.581 741.043, 1214.488 739.263, 1217.925 730.361 C 1219.594 726.037, 1222.546 720.095, 1224.485 717.156 C 1226.423 714.216, 1228.306 710.630, 1228.668 709.185 C 1229.031 707.741, 1230.211 705.062, 1231.291 703.232 C 1233.338 699.762, 1234.285 689.410, 1232.916 685.460 C 1232.420 684.029, 1229.271 682.270, 1222.355 679.563 C 1216.935 677.442, 1209.125 674.003, 1205 671.921 C 1197.865 668.319, 1197.245 668.183, 1192.264 669.110 C 1188.722 669.770, 1186.398 669.748, 1185.080 669.043 C 1182.757 667.800, 1182.267 667.759, 1181.650 668.758 M 609 669.453 C 609 670.846, 621.253 686.998, 622.299 686.985 C 622.960 686.976, 624.119 686.577, 624.876 686.098 C 627.594 684.376, 618.710 673.939, 611.250 670.090 C 610.013 669.452, 609 669.165, 609 669.453 M 1265.584 678.454 L 1260.924 683.907 1264.212 690.090 C 1269.378 699.806, 1269.908 700.683, 1271.243 701.726 C 1274.178 704.019, 1312.261 711.072, 1313.738 709.595 C 1314.157 709.176, 1314.553 704.371, 1314.618 698.917 C 1314.724 690.070, 1314.547 689, 1312.975 689 C 1310.537 689, 1310.032 687.094, 1310.715 680.471 L 1311.303 674.775 1308.402 675.330 C 1306.806 675.636, 1299.875 676.173, 1293 676.523 C 1281.716 677.097, 1280.030 676.957, 1275.667 675.080 C 1273.009 673.936, 1270.701 673, 1270.539 673 C 1270.376 673, 1268.146 675.454, 1265.584 678.454 M 605.300 683.617 C 605.813 688.588, 610.140 699.350, 612.116 700.572 C 612.516 700.819, 614.209 698.998, 615.878 696.525 C 617.547 694.052, 618.405 692.135, 617.784 692.265 C 617.163 692.394, 614.370 689.263, 611.578 685.306 C 608.785 681.349, 606.100 678.087, 605.610 678.056 C 605.121 678.025, 604.981 680.527, 605.300 683.617 M 804 691.416 C 801.979 692.603, 798.784 692.770, 787.308 692.289 C 775.051 691.775, 772.768 691.922, 770.558 693.370 C 767.494 695.378, 767.306 697.632, 769.966 700.464 C 771.048 701.615, 773.310 705.019, 774.993 708.029 C 777.131 711.852, 777.850 712.625, 777.379 710.595 C 776.707 707.697, 776.714 707.692, 780.603 708.345 C 792.758 710.384, 794.442 710.330, 795.500 707.860 C 796.382 705.800, 797.208 705.514, 802.500 705.435 C 805.800 705.386, 810.339 704.997, 812.586 704.571 C 816.547 703.821, 816.775 703.928, 820.086 708.094 C 826.110 715.677, 832.867 725.379, 835.162 729.746 C 837.367 733.939, 837.370 734.010, 835.447 735.555 C 834.376 736.414, 836.262 735.641, 839.637 733.837 C 844.228 731.382, 845.456 730.297, 844.510 729.528 C 843.100 728.382, 831.228 710.759, 830.384 708.557 C 829.775 706.972, 833.896 704.303, 834.877 705.647 C 835.220 706.116, 836.400 707.161, 837.500 707.970 C 839.244 709.251, 839.219 709.123, 837.309 706.968 C 835.411 704.827, 834.296 704.506, 828.956 704.561 C 824.743 704.605, 822.634 704.210, 822.290 703.313 C 822.013 702.591, 821.020 702, 820.084 702 C 819.148 702, 817.530 701.377, 816.488 700.615 C 814.808 699.386, 814.726 698.799, 815.764 695.416 C 816.408 693.318, 816.786 691.452, 816.603 691.270 C 815.367 690.033, 806.174 690.140, 804 691.416 M 1608.406 694.383 C 1608.007 695.424, 1609.849 699.512, 1613.396 705.455 C 1616.488 710.636, 1619.852 716.823, 1620.872 719.202 C 1623.117 724.438, 1624.785 725.932, 1629.161 726.627 C 1633.070 727.248, 1635.581 725.307, 1640.114 718.159 C 1642.149 714.950, 1643 712.333, 1643 709.282 C 1643 705.248, 1642.698 704.764, 1638.527 702.120 C 1633.488 698.924, 1620.182 694.261, 1613.480 693.342 C 1609.907 692.852, 1608.916 693.056, 1608.406 694.383 M 122.971 704.557 C 117.562 708.061, 115.953 712.228, 114.833 725.643 C 114.260 732.508, 113.980 738.314, 114.212 738.545 C 114.443 738.776, 116.050 738.559, 117.782 738.063 C 122.008 736.850, 138.781 742.083, 149.323 747.902 C 157.707 752.530, 164.894 760.118, 167.033 766.600 C 168.793 771.934, 167.839 782.031, 165.423 783.635 C 159.405 787.633, 159.415 787.617, 162.036 789.019 C 163.354 789.725, 171.329 790.900, 179.759 791.631 C 191.265 792.629, 196.880 793.608, 202.292 795.561 C 216.242 800.595, 218.558 801.180, 225.009 801.296 C 236.850 801.508, 244.877 795.724, 247.012 785.443 L 248.170 779.867 242.335 770.997 L 236.500 762.128 228.093 760.567 C 219.698 759.008, 215.605 757.095, 207.233 750.817 L 202.965 747.617 200.233 750.826 C 197.659 753.848, 197.287 753.974, 193.840 752.995 C 188.260 751.410, 182.402 741.078, 177.029 723.342 C 175.837 719.405, 174.020 715.423, 172.992 714.493 C 171.271 712.936, 170.941 712.928, 168.839 714.400 C 164.788 717.237, 159.010 716.207, 158.985 712.643 C 158.958 708.947, 157.550 707.964, 149.459 705.990 C 137.740 703.131, 126.140 702.504, 122.971 704.557 M 1563 710 C 1560.589 712.411, 1560.530 714.430, 1562.568 724.643 C 1564.429 733.966, 1566.516 736.388, 1573.520 737.348 C 1579.938 738.227, 1585.624 736.596, 1587.302 733.393 C 1588.371 731.352, 1588.401 729.737, 1587.452 725.133 C 1585.573 716.016, 1584.578 715.034, 1571.716 709.599 C 1566.794 707.519, 1565.418 707.582, 1563 710 M 1062.500 716.213 C 1058.484 717.626, 1057.173 718.765, 1054.266 723.371 C 1052.147 726.728, 1051.966 727.637, 1052.974 729.886 C 1055.039 734.495, 1060.447 741.945, 1062.142 742.514 C 1063.045 742.818, 1064.005 743.912, 1064.276 744.946 C 1065.399 749.243, 1082 755.663, 1082 751.802 C 1082 749.459, 1076.949 734.086, 1075.983 733.489 C 1075.442 733.155, 1075 731.638, 1075 730.117 C 1075 728.561, 1073.469 725.199, 1071.500 722.429 C 1069.575 719.722, 1068 716.942, 1068 716.253 C 1068 714.778, 1066.608 714.768, 1062.500 716.213 M 802 725 C 803.194 725.772, 802.990 725.985, 801 726.048 L 798.500 726.127 801 727.115 C 802.375 727.659, 805.405 729.966, 807.732 732.243 C 811.830 736.250, 811.910 736.447, 810.232 738.441 C 808.505 740.494, 808.507 740.494, 810.746 738.599 L 812.991 736.698 808.444 731.837 C 805.943 729.163, 804.143 726.578, 804.443 726.093 C 804.743 725.607, 804.279 724.937, 803.412 724.605 C 801.046 723.697, 800.305 723.904, 802 725 M 842.202 735.854 C 841.184 736.500, 841.448 737.736, 843.427 741.589 L 845.949 746.500 845.974 740.750 C 846 734.966, 845.213 733.944, 842.202 735.854 M 836.939 748.129 C 837.370 749.983, 838.270 753.300, 838.938 755.500 C 840.060 759.190, 839.942 759.878, 837.417 764.383 C 834.058 770.376, 812.892 791.738, 809.460 792.599 C 808.089 792.943, 806.075 792.991, 804.984 792.706 C 803.231 792.248, 803 792.691, 803 796.514 C 803 800.446, 803.251 800.887, 805.750 801.345 C 808.319 801.815, 824.683 801.438, 829.788 800.790 C 832.598 800.434, 833.965 798.416, 833.985 794.594 C 833.993 792.996, 835.125 790.214, 836.500 788.411 C 837.875 786.608, 839 784.518, 839 783.767 C 839 783.015, 839.395 781.973, 839.879 781.450 C 841.311 779.901, 844.919 766.933, 845.568 761 L 846.169 755.500 841.163 750.129 L 836.156 744.759 836.939 748.129 M 1121.443 762.523 C 1122.356 764.710, 1123.867 767.570, 1124.801 768.879 C 1129.189 775.023, 1129.904 777.451, 1129.952 786.382 C 1129.991 793.579, 1130.395 795.903, 1132.082 798.632 C 1133.226 800.484, 1134.759 802, 1135.487 802 C 1136.216 802, 1138.204 799.898, 1139.906 797.329 C 1142.683 793.136, 1143 791.879, 1143 785.063 C 1143 779.618, 1142.483 776.505, 1141.173 774.062 C 1139.318 770.602, 1133.997 767, 1130.743 767 C 1129.760 767, 1126.892 765.098, 1124.369 762.773 L 1119.783 758.545 1121.443 762.523 M 254 782.500 L 254 797 258.411 797 C 262.075 797, 263.246 796.497, 265.322 794.029 C 266.697 792.395, 268.313 788.766, 268.914 785.964 C 269.961 781.086, 269.878 780.683, 266.955 776.435 C 265.277 773.996, 263.126 772, 262.174 772 C 261.223 772, 259.674 771.100, 258.732 770 C 257.790 768.900, 256.340 768, 255.510 768 C 254.233 768, 254 770.236, 254 782.500 M 744.673 791.559 C 742.367 796.394, 740.845 807.787, 741.933 812.066 C 742.413 813.955, 743.072 816.691, 743.396 818.147 C 743.745 819.711, 745.351 821.600, 747.322 822.763 C 750.561 824.674, 755 831.506, 755 834.580 C 755 837.047, 757.940 842, 759.403 842 C 760.147 842, 761.315 841.325, 762 840.500 C 762.841 839.486, 765.101 839, 768.974 839 L 774.703 839 775.292 830.653 C 776.254 817.018, 783.929 804.599, 793.091 801.855 C 797.654 800.488, 799.569 798.608, 800.588 794.500 C 801.243 791.857, 801.146 791.653, 799.768 792.787 C 798.669 793.693, 795.280 793.990, 788.352 793.787 C 778.827 793.510, 778.503 793.424, 778.582 791.226 C 778.668 788.854, 778.582 788.934, 770.839 798.455 C 769.184 800.491, 769.173 800.489, 767.017 797.749 C 765.241 795.490, 764.065 795, 760.430 795 C 756.778 795, 755.329 794.389, 752.132 791.500 C 750.001 789.575, 747.833 788, 747.314 788 C 746.795 788, 745.607 789.602, 744.673 791.559 M 1431.319 798.119 C 1430.689 798.878, 1428.536 803.100, 1426.534 807.500 C 1424.532 811.900, 1421.612 816.850, 1420.046 818.500 C 1416.177 822.575, 1411 830.985, 1411 833.196 C 1411 834.188, 1411.129 835, 1411.288 835 C 1411.446 835, 1415.303 833.451, 1419.859 831.559 C 1429.298 827.637, 1437.536 822.652, 1438.431 820.319 C 1439.324 817.991, 1437.211 807.571, 1434.670 801.773 C 1432.897 797.728, 1432.238 797.009, 1431.319 798.119 M 429.671 814.094 C 426.313 816.318, 425 817.849, 425 819.538 C 425 821.991, 428.344 825.028, 430.973 824.961 C 431.813 824.939, 431.038 824.286, 429.250 823.509 C 423.955 821.208, 425.399 817.504, 433.616 812.309 C 434.652 811.654, 435.240 811.091, 434.921 811.059 C 434.603 811.026, 432.241 812.392, 429.671 814.094" stroke="none" fill="#8bc8ff" fill-rule="evenodd"/><path d="M 448.500 547.882 C 436.260 552.314, 428.111 557.850, 414.500 570.978 C 409.572 575.732, 403.236 580.547, 398 583.520 C 393.325 586.173, 388.869 588.829, 388.099 589.420 C 387.245 590.076, 383.003 590.359, 377.241 590.145 L 367.786 589.794 372.143 595.951 C 374.539 599.337, 377.400 603.446, 378.500 605.081 C 379.600 606.716, 383.875 612.879, 388 618.777 C 395.059 628.869, 395.721 629.518, 399.250 629.810 C 401.313 629.981, 403 629.818, 403 629.449 C 403 629.079, 399.288 623.612, 394.750 617.300 C 385.250 604.085, 381.046 597.803, 381.019 596.784 C 381.008 596.390, 382.688 597.055, 384.750 598.263 C 393.196 603.206, 402.889 616.421, 404.520 625.214 C 404.899 627.257, 405.790 629.411, 406.500 630 C 408.768 631.882, 419.242 633.078, 427.671 632.417 L 435.842 631.777 438.171 625.231 L 440.500 618.685 449 614.315 C 455.709 610.865, 459.291 609.707, 466 608.817 C 470.675 608.198, 474.626 607.597, 474.779 607.483 C 474.933 607.369, 475.765 603.530, 476.628 598.951 C 478.426 589.421, 479.598 587.243, 484.920 583.556 C 487.838 581.533, 490.432 580.764, 495.868 580.308 C 502.206 579.777, 503.372 579.341, 506.446 576.355 C 508.486 574.374, 510.919 573, 512.387 573 C 513.755 573, 517.873 575.054, 521.540 577.564 C 525.206 580.074, 528.418 581.916, 528.677 581.657 C 528.936 581.398, 528.439 579.816, 527.574 578.143 C 526.708 576.469, 525.975 574.514, 525.944 573.800 C 525.875 572.169, 515.132 565.185, 510.770 563.934 C 508.979 563.420, 506.124 563, 504.426 563 C 502.728 563, 499.125 561.851, 496.419 560.446 C 491.773 558.035, 456.646 545.959, 454.501 546.036 C 453.950 546.056, 451.250 546.887, 448.500 547.882 M 192.219 560.419 C 191.549 561.890, 191 564.406, 191 566.010 C 191 569.649, 194.587 579.413, 196.511 581.009 C 197.301 581.665, 198.240 583.763, 198.598 585.673 C 199.322 589.532, 201.788 591, 207.545 591 C 209.423 591, 212.785 591.730, 215.015 592.623 C 218.810 594.141, 219.196 594.132, 221.013 592.488 C 222.486 591.155, 223.977 590.868, 227.186 591.298 C 230.827 591.786, 232.218 591.371, 237.170 588.314 C 242.065 585.293, 243.488 584.860, 246.712 585.413 C 253.728 586.617, 257.847 589.008, 259.018 592.555 C 260.330 596.529, 262.408 597.972, 271.596 601.286 L 278.664 603.836 281.321 598.418 C 284.428 592.082, 286.039 591.674, 292.099 595.684 C 295.471 597.915, 296.308 598.126, 297.062 596.934 C 297.561 596.145, 297.976 594.938, 297.985 594.250 C 298.017 591.601, 299.737 593.405, 306.467 603.145 C 310.299 608.692, 313.934 613.421, 314.545 613.655 C 315.155 613.890, 316.888 613.613, 318.394 613.040 L 321.133 611.999 317.712 607.749 C 315.831 605.412, 312.025 600.125, 309.254 596 C 306.484 591.875, 302.931 587.291, 301.358 585.813 C 297.209 581.913, 284.353 577.114, 274.871 575.925 C 270.379 575.361, 263.983 573.756, 260.659 572.357 C 254.898 569.932, 254.460 569.887, 251.274 571.406 C 247.698 573.112, 245.020 573.470, 244.968 572.250 C 244.951 571.837, 244.372 570.758, 243.682 569.852 C 242.528 568.334, 241.877 568.391, 235.464 570.576 C 223.861 574.529, 220.464 573.747, 215.092 565.887 C 210.839 559.666, 209.814 559.128, 200.769 558.363 C 193.539 557.752, 193.421 557.780, 192.219 560.419 M 536.362 576.501 C 536.679 577.326, 538.414 580.009, 540.219 582.462 C 542.665 585.787, 544.185 586.932, 546.191 586.961 C 547.671 586.982, 549.119 586.617, 549.408 586.149 C 550.399 584.546, 545.076 578.714, 540.928 576.857 C 535.917 574.613, 535.629 574.590, 536.362 576.501 M 507.619 580 L 504.005 584 496.081 584 L 488.156 584 484.683 588.057 C 481.074 592.273, 480.200 594.850, 479.324 603.849 C 478.854 608.677, 479.111 609.626, 481.953 613.584 C 484.843 617.608, 485.016 618.280, 484.057 621.735 C 482.639 626.839, 482.732 631.533, 484.275 632.813 C 484.976 633.395, 487.942 634.189, 490.866 634.577 C 494.201 635.019, 497.226 636.160, 498.985 637.641 C 500.817 639.182, 503.061 640, 505.460 640 C 511.094 640, 512.697 641.365, 513.964 647.240 C 515.569 654.678, 514.380 669.382, 511.762 674.500 C 507.429 682.968, 511.747 709, 517.485 709 C 518.467 709, 519.006 708.032, 519.016 706.250 C 519.025 704.737, 520.713 700.125, 522.766 696 C 526.325 688.851, 526.734 688.423, 531.500 686.854 L 536.500 685.209 538.430 677.957 L 540.361 670.705 537.671 663.103 C 533.994 652.711, 534.194 650.169, 539.500 639.895 C 541.975 635.103, 544 630.467, 544 629.593 C 544 628.719, 538.600 619.847, 532 609.877 C 525.400 599.906, 520 591.412, 520 591 C 520 590.588, 520.658 588.385, 521.463 586.105 L 522.926 581.958 518.213 578.998 C 515.621 577.370, 512.990 576.029, 512.366 576.019 C 511.743 576.009, 509.607 577.800, 507.619 580 M 524.544 585.124 C 524.994 585.881, 530.068 593.342, 535.819 601.704 L 546.275 616.909 549.201 615.396 C 550.811 614.564, 551.986 613.557, 551.814 613.158 C 551.641 612.760, 548.679 608.345, 545.231 603.348 C 540.665 596.731, 537.286 593.072, 532.797 589.881 C 524.453 583.951, 523.531 583.419, 524.544 585.124 M 190.521 588.750 C 190.925 589.712, 192.137 592.750, 193.214 595.500 C 196.889 604.886, 205.552 617.940, 215.521 629.112 C 218.534 632.489, 221.037 635.533, 221.083 635.876 C 221.129 636.219, 221.279 637.512, 221.416 638.750 C 221.773 641.967, 222.965 642.768, 224.425 640.772 C 225.556 639.225, 226.131 639.660, 229.976 644.967 C 234.232 650.842, 236.341 652.525, 238.090 651.444 C 240.552 649.923, 238.676 644.833, 233.345 638.570 C 229.483 634.033, 229.341 633.133, 231.834 629.033 L 233.668 626.017 235.638 628.259 C 238.562 631.585, 245.490 641.156, 246.929 643.857 C 247.970 645.811, 248.711 646.108, 251.269 645.596 C 252.966 645.257, 254.540 644.793, 254.767 644.566 C 254.994 644.339, 252.195 639.997, 248.547 634.917 C 244.900 629.836, 242.051 624.964, 242.216 624.090 C 242.422 623.004, 243.831 622.404, 246.662 622.197 C 250.676 621.904, 250.878 622.037, 253.059 626.404 C 254.298 628.884, 257.041 633.007, 259.156 635.565 C 261.270 638.124, 263 640.603, 263 641.074 C 263 643.036, 269.358 648.963, 272.617 650.039 C 274.551 650.677, 276.325 651.008, 276.559 650.774 C 276.793 650.540, 274.739 647.233, 271.994 643.424 C 265.252 634.071, 258 623.345, 258 622.727 C 258 621.974, 268.609 626.431, 270.447 627.956 C 271.322 628.682, 277.179 636.563, 283.464 645.470 C 289.748 654.377, 295.477 662.138, 296.195 662.717 C 297.937 664.121, 304.005 665.379, 303.981 664.329 C 303.970 663.873, 301.608 660.339, 298.731 656.476 C 290.117 644.909, 279.708 628.958, 280.353 628.314 C 280.684 627.982, 282.962 628.478, 285.414 629.414 C 290.125 631.213, 295.165 636.111, 299.614 643.213 C 301.091 645.571, 302.599 647.725, 302.966 648 C 304.948 649.487, 310 660.193, 310 662.907 C 310 665.697, 310.524 666.296, 314.427 667.969 C 316.862 669.012, 321.180 671.466, 324.022 673.422 C 326.865 675.377, 331.060 677.484, 333.345 678.103 C 335.630 678.723, 342.809 681.047, 349.297 683.268 C 357.342 686.021, 361.420 686.980, 362.118 686.282 C 363.305 685.095, 365.543 664.858, 364.724 662.722 C 364.420 661.931, 362.796 661.009, 361.114 660.673 C 359.060 660.262, 357.054 658.677, 355 655.841 C 353.318 653.519, 350.493 650.598, 348.721 649.348 C 345.339 646.963, 335.464 644, 330.897 644 C 327.988 644, 327 642.479, 327 638 C 327 632.644, 326.076 631.802, 323.484 634.797 L 321.145 637.500 319.072 635.292 C 317.933 634.077, 317 632.779, 317 632.407 C 317 632.034, 314.155 627.853, 310.677 623.115 C 307.200 618.377, 302.363 611.717, 299.927 608.315 C 295.737 602.462, 290.031 598, 286.735 598 C 285.914 598, 284.697 599.317, 284.030 600.928 C 283.363 602.538, 281.971 604.621, 280.938 605.557 C 279.172 607.154, 278.651 607.156, 272.381 605.581 C 261.365 602.813, 259.511 601.709, 256.455 596.095 C 254.134 591.830, 253.023 590.814, 249.704 589.920 C 244.935 588.636, 242.106 589.240, 236.973 592.636 C 233.779 594.751, 232.416 595.077, 229.118 594.520 C 225.910 593.978, 224.557 594.268, 222.215 595.999 C 219.393 598.085, 219.180 598.100, 215.401 596.467 C 213.255 595.540, 208.185 594.435, 204.134 594.012 C 196.566 593.222, 194.579 591.998, 195.590 588.750 C 196.030 587.336, 195.524 587, 192.960 587 C 190.324 587, 189.911 587.297, 190.521 588.750 M 562.288 588.308 C 562.564 589.028, 565.062 593.097, 567.839 597.351 C 573.062 605.352, 576.322 612.804, 577.565 619.582 C 578.282 623.499, 578.282 623.499, 576.192 621.641 C 575.042 620.619, 570.393 614.415, 565.859 607.856 L 557.616 595.929 555.209 598.336 L 552.802 600.743 563.957 617.117 L 575.113 633.490 572.945 635.245 C 571.754 636.210, 570.266 636.993, 569.639 636.983 C 568.513 636.967, 556.631 620.808, 555.415 617.639 C 554.502 615.259, 552.473 615.629, 550.577 618.522 C 548.960 620.991, 549.035 621.202, 554.139 628.512 C 557.007 632.620, 559.136 636.197, 558.870 636.463 C 558.101 637.232, 550.657 634.941, 548.921 633.401 C 546.861 631.573, 546 631.630, 546 633.596 C 546 634.474, 543.979 638.899, 541.509 643.430 L 537.019 651.669 540.009 659.863 C 543.402 669.160, 543.730 674.136, 541.340 680.107 C 539.911 683.679, 539.840 685.278, 540.827 691.628 C 542.191 700.401, 544.267 705.781, 546.638 706.691 C 547.673 707.088, 550.377 706.282, 553.381 704.680 L 558.397 702.006 561.126 704.620 C 563.871 707.250, 565.328 710.166, 566.438 715.250 C 567.093 718.253, 568.531 718.626, 572.493 716.821 C 574.644 715.841, 574.978 715.176, 574.474 712.880 C 573.604 708.920, 575.383 706.346, 580.934 703.533 L 585.797 701.069 593.384 703.620 C 600.812 706.117, 601.074 706.136, 605.973 704.509 C 608.725 703.595, 611.217 702.458, 611.511 701.982 C 611.805 701.506, 610.662 698.477, 608.970 695.250 C 605.954 689.495, 603.714 677.998, 605.610 678.002 C 606.100 678.003, 607.715 679.915, 609.199 682.252 C 610.684 684.588, 613.210 688.060, 614.812 689.966 L 617.725 693.433 619.398 690.197 L 621.071 686.962 614.971 678.379 C 611.616 673.658, 609.045 669.622, 609.257 669.409 C 610.320 668.347, 619.392 675.541, 622.572 679.968 L 626.197 685.013 631.875 681.986 C 636.125 679.721, 638.746 677.314, 642.299 672.415 L 647.046 665.870 645.042 659.140 L 643.038 652.410 635.769 648.838 C 631.771 646.873, 627.241 644.868, 625.701 644.383 C 623.781 643.777, 618.737 638.322, 609.629 627 C 596.181 610.282, 592.824 607.111, 582.338 601.221 C 579.127 599.417, 573.596 595.480, 570.046 592.471 C 563.639 587.039, 561.325 585.797, 562.288 588.308 M 314.971 589.946 C 315.563 591.051, 318.289 594.918, 321.029 598.538 C 323.769 602.158, 326.637 606.331, 327.402 607.810 C 328.167 609.290, 330.832 613.270, 333.325 616.655 C 337.885 622.849, 338.134 624, 334.917 624 C 333.954 624, 332.966 624.563, 332.721 625.250 C 332.415 626.105, 331.390 625.710, 329.477 624 C 327.017 621.802, 326.768 621.741, 327.410 623.500 C 327.811 624.600, 328.405 626.814, 328.729 628.421 C 329.053 630.027, 330.055 633.402, 330.956 635.921 C 332.593 640.497, 332.598 640.500, 338.425 641.230 C 345.452 642.110, 350.820 645.125, 357.462 651.922 C 360.192 654.715, 363.199 657, 364.145 657 C 365.985 657, 367.543 653.688, 366.498 651.997 C 366.143 651.422, 367.236 650.703, 369.001 650.350 C 372.287 649.693, 374.353 647.271, 375.365 642.890 C 375.799 641.013, 375.265 639.330, 373.462 636.890 C 369.457 631.471, 357.939 615.366, 350.120 604.250 C 343.284 594.532, 342.726 594, 339.363 594 L 335.816 594 337.658 596.990 C 340.725 601.969, 359.227 628.118, 363.500 633.514 C 368.434 639.744, 371.451 645, 370.094 645 C 368.052 645, 358.415 636.297, 355.242 631.586 C 353.450 628.926, 351.706 625.014, 351.367 622.894 C 350.644 618.371, 348.537 616.063, 346.758 617.842 C 346.121 618.479, 345.030 619, 344.334 619 C 343.637 619, 338.747 612.916, 333.467 605.480 C 323.741 591.781, 321.731 589.756, 316.698 588.587 C 314.130 587.990, 313.985 588.104, 314.971 589.946 M 546.005 590.750 C 546.017 592.518, 550.752 597.272, 551.834 596.602 C 553.667 595.470, 553.204 593.256, 550.777 591.557 C 548.424 589.908, 545.997 589.498, 546.005 590.750 M 354.743 592.084 C 353.284 592.934, 353.184 593.478, 354.155 595.303 C 355.879 598.544, 377.947 629.849, 378.941 630.464 C 379.409 630.753, 380.849 630.133, 382.141 629.087 L 384.491 627.184 381.278 622.842 C 379.512 620.454, 373.712 612.313, 368.391 604.750 C 363.069 597.188, 358.217 591.014, 357.608 591.030 C 356.998 591.047, 355.710 591.521, 354.743 592.084 M 523 610.423 C 523 611.570, 531.759 623.733, 533.247 624.653 C 533.917 625.067, 532.267 622.277, 529.580 618.453 C 523.968 610.464, 523 609.282, 523 610.423 M 462.750 613.080 C 460.055 614.650, 460.640 618.221, 464.924 626.356 C 469.878 635.761, 470.895 641.690, 468.475 647.055 C 466.754 650.873, 466.765 651.189, 468.866 658.266 C 470.055 662.272, 471.308 669.188, 471.651 673.635 L 472.275 681.720 465.887 684.163 L 459.500 686.605 459.488 696.052 C 459.477 703.999, 459.037 706.604, 456.718 712.450 C 455.202 716.273, 453.096 720.868, 452.038 722.661 C 450.807 724.747, 449.948 728.515, 449.653 733.127 L 449.191 740.334 442.846 742.623 C 438.901 744.045, 435.405 746.130, 433.606 748.133 L 430.712 751.354 434.106 754.304 C 445.749 764.424, 447.453 766.646, 452.606 778.424 C 454.316 782.333, 454.562 783.982, 453.800 786.424 C 453.271 788.116, 452.537 793.100, 452.169 797.500 L 451.500 805.500 443.800 808.194 C 435.848 810.977, 432.127 812.930, 428.250 816.359 C 422.688 821.278, 427.370 824.483, 442.745 826.283 C 451.067 827.256, 452.739 827.170, 457.803 825.507 C 467.218 822.416, 470.853 820.193, 473.594 815.851 C 476.165 811.778, 476.173 811.709, 474.442 807.871 C 472.674 803.951, 471.622 803.185, 470.500 805 C 469.155 807.177, 465.612 805.772, 460.749 801.133 L 455.646 796.265 457.442 792.480 C 459.212 788.751, 459.198 788.538, 456.495 777.801 C 454.119 768.366, 453.859 765.940, 454.560 759.703 C 455.005 755.741, 455.404 751.067, 455.447 749.317 C 455.544 745.409, 458.449 742.162, 465.073 738.557 C 468.726 736.569, 470.819 736.021, 472.964 736.492 C 480.208 738.083, 481.895 732.624, 477.500 721.808 C 474.471 714.353, 474.351 709.201, 477.025 701.428 L 479.050 695.543 476.775 690.521 C 474.703 685.949, 474.505 684.070, 474.552 669.500 C 474.602 654.149, 474.730 653.155, 477.715 645 C 480.264 638.033, 480.687 635.747, 480.060 632.323 C 479.639 630.025, 479.624 625.981, 480.025 623.335 C 481.342 614.659, 479.114 611.988, 470.595 612.030 C 467.243 612.047, 463.712 612.519, 462.750 613.080 M 295 613.616 C 295 621.251, 300.130 634.138, 305.939 641.096 C 308.515 644.181, 308.941 644.348, 311.395 643.230 C 315.329 641.437, 315.585 639.430, 312.348 635.743 C 310.773 633.949, 306.602 628.436, 303.079 623.491 C 295.552 612.925, 295 612.250, 295 613.616 M 451 616.992 C 444.315 620.384, 442.954 621.899, 440.089 629.139 C 438.196 633.924, 437.395 634.871, 434.804 635.389 C 429.292 636.492, 414.608 636.005, 409.093 634.537 C 402.965 632.906, 399.320 633.882, 400.536 636.827 C 402.324 641.155, 402.192 641.955, 399.492 643.186 C 396.517 644.541, 396.680 644.667, 389.707 635.623 C 386.581 631.567, 385.827 631.316, 383.569 633.574 C 382.138 635.005, 382.355 635.649, 385.975 640.705 C 388.164 643.762, 389.714 646.654, 389.419 647.132 C 388.690 648.311, 383.300 648.231, 381.013 647.007 C 379.449 646.170, 378.871 646.598, 377.329 649.733 C 376.161 652.108, 374.596 653.657, 373 654.018 C 370.600 654.560, 370.436 655.100, 368.892 667.541 C 368.008 674.669, 366.948 682.462, 366.536 684.860 C 365.794 689.178, 365.837 689.265, 370.987 693.860 C 373.847 696.412, 381.002 703, 386.886 708.500 C 392.771 714, 401.453 721.095, 406.179 724.266 C 413.063 728.885, 415.769 731.472, 419.777 737.266 C 422.529 741.245, 425.739 745.365, 426.910 746.423 C 429.030 748.337, 429.056 748.330, 432.321 744.766 C 434.460 742.430, 437.148 740.788, 440.050 740.043 C 447.238 738.199, 447.209 738.218, 446.368 735.755 C 445.171 732.248, 445.523 730.036, 448.478 722.500 C 455.892 703.588, 456.046 702.975, 455.388 694.901 C 455.017 690.354, 455.181 686.530, 455.797 685.380 C 456.362 684.323, 459.227 682.617, 462.163 681.589 C 465.098 680.562, 467.831 679.430, 468.236 679.074 C 469.224 678.207, 466.351 660.777, 464.485 656.309 C 462.902 652.521, 462.506 648, 463.756 648 C 464.172 648, 465.097 646.679, 465.812 645.064 C 467.468 641.322, 466.216 636.216, 461.261 626.500 C 459.297 622.650, 457.423 618.308, 457.095 616.851 L 456.500 614.202 451 616.992 M 318.153 616.884 C 317.096 617.554, 317.615 618.957, 320.554 623.384 C 322.616 626.489, 324.457 628.876, 324.645 628.689 C 325.188 628.145, 320.888 615.998, 320.158 616.015 C 319.796 616.024, 318.894 616.415, 318.153 616.884 M 483.189 640.483 C 482.567 641.849, 480.920 646.892, 479.529 651.690 C 475.842 664.407, 476.172 674.082, 480.929 692.756 C 481.843 696.345, 481.694 697.914, 479.977 702.756 C 477.639 709.351, 477.936 713.028, 481.594 722.808 C 483.654 728.314, 483.821 729.735, 482.909 733.989 C 482.104 737.744, 482.166 739.397, 483.182 741.194 C 485.622 745.513, 491.495 753.964, 492.068 753.982 C 492.521 753.996, 508.407 741.108, 521.767 729.888 C 524.230 727.819, 524.186 726.973, 521.119 717.500 C 519.682 713.063, 519.177 712.495, 516.634 712.452 C 514.997 712.424, 513.161 711.573, 512.352 710.466 C 509.903 707.117, 507.145 696.505, 506.429 687.672 C 505.821 680.181, 505.992 678.648, 507.869 674.770 C 510.761 668.798, 512.336 659.621, 511.582 653.145 C 510.680 645.406, 509.673 644, 505.030 644 C 499.755 644, 496.384 642.578, 495.730 640.077 C 495.265 638.296, 494.413 638, 489.754 638 C 484.939 638, 484.192 638.282, 483.189 640.483 M 531.285 690.504 C 529.147 691.415, 527.834 692.817, 527.366 694.687 C 526.979 696.234, 525.681 699.750, 524.481 702.500 L 522.298 707.500 524.899 717.500 L 527.500 727.500 537.156 727.785 C 546.588 728.064, 547.014 727.977, 555.518 724.048 C 562.257 720.934, 564.086 719.666, 563.612 718.431 C 563.275 717.554, 563 715.783, 563 714.495 C 563 713.207, 561.828 710.761, 560.396 709.059 L 557.793 705.965 554.528 707.982 C 550.179 710.670, 545.623 710.585, 542.997 707.766 C 541.852 706.537, 539.978 702.375, 538.833 698.516 C 536.159 689.507, 535.433 688.736, 531.285 690.504 M 809 705.095 C 807.075 705.584, 803.475 705.875, 801 705.742 C 797.111 705.533, 796.364 705.819, 795.500 707.848 C 794.442 710.332, 792.775 710.387, 780.592 708.343 C 776.827 707.711, 776.710 707.775, 777.381 710.094 C 777.764 711.417, 778.340 714.075, 778.660 716 C 779.464 720.830, 781.385 722, 788.510 722 C 798.549 722, 804.526 724.337, 810.726 730.688 C 813.683 733.716, 815.938 736.686, 815.737 737.288 C 814.977 739.569, 808.210 744.077, 802.577 746.058 C 799.355 747.190, 793.242 748.623, 788.990 749.243 L 781.261 750.369 780.726 757.435 C 780.431 761.321, 779.145 768.485, 777.867 773.356 L 775.543 782.212 777.890 784.112 C 780.004 785.824, 780.117 786.304, 779.022 788.946 C 778.354 790.559, 778.102 792.356, 778.463 792.940 C 779.401 794.458, 798.266 794.334, 799.800 792.800 C 800.460 792.140, 801 790.597, 801 789.371 C 801 785.927, 803.752 783.825, 807.806 784.175 C 809.750 784.342, 811.439 784.034, 811.560 783.490 C 811.680 782.945, 812.326 779.846, 812.994 776.603 C 813.936 772.030, 814.974 770.005, 817.617 767.584 L 821.025 764.462 819.036 756.981 C 815.898 745.180, 815.607 745.804, 827 739.951 C 832.500 737.126, 836.993 734.294, 836.984 733.657 C 836.954 731.608, 827.345 717.057, 820.205 708.250 C 816.597 703.800, 815.408 703.465, 809 705.095 M 831.482 706.390 C 829.673 707.712, 829.938 708.319, 836.927 718.890 C 840.967 725, 844.851 730, 845.557 730 C 848.370 730, 848.250 724.231, 845.325 718.824 C 842.808 714.172, 835.223 705, 833.892 705 C 833.612 705, 832.527 705.625, 831.482 706.390 M 780.460 734.183 C 781.441 746.723, 781.192 746.350, 788.067 745.572 C 796.876 744.575, 806.844 741.496, 809.580 738.925 L 812.039 736.615 807.824 732.321 C 802.816 727.218, 800.339 726.355, 788.624 725.629 L 779.748 725.080 780.460 734.183 M 830.945 741.467 C 826.239 743.864, 821.888 746.431, 821.274 747.170 C 820.438 748.177, 820.773 750.634, 822.615 756.991 L 825.070 765.468 821.206 769.036 C 818.071 771.930, 817.014 773.910, 815.601 779.536 C 813.681 787.181, 813.001 787.962, 808.250 787.985 C 806.462 787.993, 805 788.413, 805 788.918 C 805 789.423, 804.727 790.548, 804.393 791.418 C 803.182 794.573, 809.479 793.275, 814.155 789.405 C 821.530 783.304, 834.943 768.795, 837.615 764.029 C 839.936 759.890, 840.049 759.156, 838.938 755.500 C 838.270 753.300, 837.365 749.925, 836.928 748 L 836.133 744.500 840.170 749.250 C 842.391 751.862, 844.611 754, 845.104 754 C 847.957 754, 843.548 738.229, 840.455 737.372 C 839.930 737.226, 835.650 739.069, 830.945 741.467 M 466.023 741.676 C 458.629 745.360, 458.548 745.561, 458.523 760.376 C 458.504 771.244, 458.887 774.730, 460.751 780.659 L 463.002 787.817 468.984 789.837 L 474.967 791.858 476.983 789.294 C 478.093 787.884, 479 785.397, 479 783.766 C 479 781.763, 479.972 779.895, 482 778 C 484.685 775.492, 485 774.571, 485 769.234 C 485 764.784, 485.508 762.624, 487 760.727 C 488.100 759.329, 489 757.638, 489 756.969 C 489 755.510, 481.009 744.169, 478.369 741.881 C 475.180 739.117, 471.287 739.052, 466.023 741.676 M 563.505 774.995 C 559.377 779.147, 556 783.062, 556 783.695 C 556 784.328, 560.163 788.092, 565.250 792.058 C 570.337 796.024, 576.750 801.407, 579.500 804.020 C 582.757 807.115, 585.720 808.985, 588 809.385 C 589.925 809.723, 594.317 811.333, 597.761 812.962 L 604.021 815.925 606.699 811.713 C 608.171 809.396, 611.135 805.639, 613.284 803.364 C 617.792 798.593, 617.754 798.391, 610.549 789 C 608.228 785.975, 604.887 780.800, 603.124 777.500 C 597.509 766.987, 598.738 767.627, 584.004 767.531 L 571.010 767.446 563.505 774.995" stroke="none" fill="#078dfb" fill-rule="evenodd"/></svg>