<?xml version="1.0" encoding="UTF-8" standalone="no"?>
<!-- Created with Inkscape (http://www.inkscape.org/) -->

<svg
   xmlns:dc="http://purl.org/dc/elements/1.1/"
   xmlns:cc="http://creativecommons.org/ns#"
   xmlns:rdf="http://www.w3.org/1999/02/22-rdf-syntax-ns#"
   xmlns:svg="http://www.w3.org/2000/svg"
   xmlns="http://www.w3.org/2000/svg"
   xmlns:sodipodi="http://sodipodi.sourceforge.net/DTD/sodipodi-0.dtd"
   xmlns:inkscape="http://www.inkscape.org/namespaces/inkscape"
   id="svg2"
   version="1.1"
   inkscape:version="0.48.1 "
   width="780"
   height="425"
   sodipodi:docname="Berbers in western Algeria.svg">
  <title
     id="title4137">Reda Kerbouche</title>
  <metadata
     id="metadata8">
    <rdf:RDF>
      <cc:Work
         rdf:about="">
        <dc:format>image/svg+xml</dc:format>
        <dc:type
           rdf:resource="http://purl.org/dc/dcmitype/StillImage" />
        <dc:title>Reda Kerbouche</dc:title>
      </cc:Work>
    </rdf:RDF>
  </metadata>
  <defs
     id="defs6" />
  <sodipodi:namedview
     pagecolor="#ffffff"
     bordercolor="#666666"
     borderopacity="1"
     objecttolerance="10"
     gridtolerance="10"
     guidetolerance="10"
     inkscape:pageopacity="0"
     inkscape:pageshadow="2"
     inkscape:window-width="1280"
     inkscape:window-height="750"
     id="namedview4"
     showgrid="false"
     inkscape:zoom="1.9886478"
     inkscape:cx="632.06631"
     inkscape:cy="367.79831"
     inkscape:window-x="-8"
     inkscape:window-y="-8"
     inkscape:window-maximized="1"
     inkscape:current-layer="svg2" />
  <path
     style="fill:#e2e095;fill-opacity:1;stroke:#000000;stroke-width:1px;stroke-linecap:butt;stroke-linejoin:miter;stroke-opacity:1"
     d="m 841.78426,22.204474 -27.14042,-1.017765 c 0,0 -13.11786,-0.113085 -16.6235,1.35702 -3.50564,1.470106 -22.16467,3.505637 -23.86095,4.184148 -1.69627,0.67851 -13.5702,-0.339256 -19.56371,3.392551 -5.99351,3.731807 -15.94499,2.714042 -15.94499,2.714042 l -4.74958,1.696275 c 0,0 -2.82712,1.696276 -3.95797,1.017766 -1.13085,-0.67851 -13.68329,-7.915954 -13.68329,-7.915954 0,0 -3.16639,-0.90468 -5.99351,-0.90468 -2.82713,0 -7.35053,-2.261702 -7.35053,-2.261702 l -4.97574,0 c 0,0 -10.96925,0.113085 -11.64776,0.113085 -0.67851,0 -4.29724,-0.565425 -4.29724,0.452341 0,1.017765 -3.7318,7.011273 -3.95797,7.689784 -0.22617,0.67851 -8.14213,9.612229 -10.17766,10.51691 -2.03553,0.90468 -13.11787,5.993508 -14.92723,5.993508 -1.80936,0 -30.75913,-0.22617 -30.75913,-0.22617 0,0 -0.90468,0.67851 -1.69628,-1.017766 -0.79159,-1.696276 -5.76733,-6.445848 -6.55893,-7.011273 -0.7916,-0.565426 -2.37479,-1.243936 -2.94021,-1.243936 -0.56543,0 -8.25521,0.45234 -10.29074,1.017766 -2.03553,0.565425 -11.76085,2.148616 -15.60574,3.844891 -3.84489,1.696276 -28.61052,6.558934 -30.53296,6.445849 -1.92245,-0.113085 -16.17117,2.487871 -17.52819,2.487871 -1.35702,0 -31.7769,-1.357021 -32.22924,-1.357021 -0.45234,0 -17.98052,0.45234 -19.90297,0.45234 -1.92245,0 -11.53468,2.261702 -12.43936,2.261702 -0.90468,0 -7.46361,0.339255 -7.46361,0.339255 0,0 -0.33925,0 -4.5234,-1.583191 -4.18415,-1.583191 -5.99351,-2.035531 -7.12436,-2.035531 -1.13085,0 -11.08234,0.22617 -13.57021,0.339255 -2.48787,0.113085 -8.14212,0.113085 -9.95148,1.583191 -1.80936,1.470106 -3.73181,0.339255 -2.60096,2.035531 1.13085,1.696276 0.90468,4.410317 -1.01776,4.184147 -1.92245,-0.22617 -10.51691,4.410317 -11.19542,4.523402 -0.67851,0.113085 -5.65426,3.731807 -9.15989,4.636488 -3.50564,0.90468 -17.4151,9.159889 -17.4151,9.159889 l -17.30202,7.802869 -10.85616,3.053296 -42.63307,25.557223 c 0,0 -13.34403,9.72531 -13.90946,10.85616 -0.56542,1.13086 -5.65425,6.33277 -6.7851,6.55894 -1.13085,0.22617 -13.57021,5.20191 -13.57021,5.20191 0,0 -8.02904,4.29723 -9.8384,4.86266 -1.80936,0.56542 -7.23744,2.37478 -9.72531,2.37478 -2.48788,0 -6.21968,0.90468 -7.23745,-0.79159 -1.01776,-1.69628 -2.2617,-2.03553 -4.18415,-4.41032 -1.92244,-2.37478 -3.61872,-3.50564 -5.42808,-7.35053 -1.80936,-3.84489 -2.37478,-6.44585 -4.07106,-7.68978 -1.69628,-1.24394 -2.71404,-2.94021 -4.74957,-2.03553 -2.03553,0.90468 -2.2617,0.33925 -2.71404,1.92244 -0.45234,1.58319 -2.48787,4.18415 -3.16639,5.65426 -0.67851,1.4701 -1.4701,3.39255 -2.60095,4.5234 -1.13085,1.13085 -5.08883,2.94021 -6.33276,3.27947 -1.24394,0.33925 -2.71405,0.79159 -3.8449,3.27946 -1.13085,2.48787 -2.2617,5.65426 -3.7318,6.33277 -1.47011,0.67851 -5.42809,-1.24394 -8.93372,2.03553 -3.50564,3.27946 -5.76734,7.01127 -5.76734,7.01127 0,0 0.79159,-0.22617 -3.95798,-0.90468 -4.74957,-0.67851 -13.34403,-4.29723 -14.3618,-4.86266 -1.01777,-0.56542 -4.63649,-2.37478 -6.67202,-2.37478 -2.03553,0 -9.95148,-0.7916 -11.19542,-0.33926 -1.24393,0.45234 -3.0533,-1.47011 -5.76734,0.90468 -2.71404,2.37479 -8.48138,6.33276 -9.72531,8.59447 -1.24394,2.2617 -6.67202,7.91595 -8.25521,8.59446 -1.58319,0.67851 -8.82063,7.5767 -11.08234,10.06457 -2.2617,2.48787 -15.94499,16.05808 -16.73658,16.96276 -0.7916,0.90468 -5.315,6.55893 -6.33277,7.23744 -1.01776,0.67851 -7.802861,5.315 -7.802861,5.315 l -6.106597,6.55893 c 0,0 -3.844892,4.63649 -9.951485,5.54117 -6.106593,0.90468 -12.891697,3.84489 -19.111375,3.84489 -6.219678,0 -9.272975,1.92245 -13.117866,1.92245 -3.844892,0 -8.029039,-1.58319 -10.290741,0.45234 -2.261701,2.03553 -1.696275,4.74957 -7.124358,4.74957 -5.428083,0 -16.058078,1.35702 -17.302014,1.35702 -1.243935,0 -4.749572,1.13085 -8.0290387,2.71404 -3.2794667,1.58319 -3.3925517,12.77861 -3.3925517,12.77861 0,0 -0.4523403,6.1066 -0.4523403,9.27298 0,3.16638 11.0823357,17.4151 14.4748877,21.25999 3.392551,3.84489 9.272974,10.40382 7.463613,15.1534 -1.809361,4.74957 -2.940211,18.09361 -2.940211,20.12914 0,2.03553 7.011273,18.31978 7.011273,18.31978 0,0 3.618722,7.23744 3.618722,9.72531 0,2.48787 2.487871,15.1534 3.166382,17.4151 0.67851,2.2617 2.261701,6.33276 2.261701,8.82063 0,2.48788 0,30.3068 0,30.3068 l -4.523402,13.57021 0,48.85274 34.830197,-0.16963 771.975135,0.0566 z"
     id="path2987"
     inkscape:connector-curvature="0" />
  <path
     style="fill:#ff0000;fill-opacity:1;stroke:#000000;stroke-width:0;stroke-linecap:butt;stroke-linejoin:miter;stroke-miterlimit:4;stroke-opacity:1;stroke-dasharray:none"
     d="m 688.55401,68.569347 -20.58148,0.113085 -7.5767,-2.261701 -3.39255,0.565426 -5.315,5.428082 -2.37479,6.445848 0.11309,12.552442 7.01127,0.113085 1.24394,5.201916 1.58319,2.2617 3.16638,3.27946 2.94021,4.07107 0.45234,4.41031 9.61223,8.14213 2.94021,3.50563 0.7916,4.74958 c 0,0 1.4701,-0.33926 1.92244,-0.33926 0.45234,0 2.82713,-1.01777 3.0533,-2.03553 0.22617,-1.01777 0.45234,-6.10659 0.45234,-6.10659 l 3.39255,-11.08234 8.25521,-7.5767 7.23744,-9.951482 -0.45234,-6.785103 z"
     id="path2991"
     inkscape:connector-curvature="0" />
  <path
     style="fill:#ac939d;fill-opacity:1;stroke:#000000;stroke-width:0;stroke-linecap:butt;stroke-linejoin:miter;stroke-miterlimit:4;stroke-opacity:1;stroke-dasharray:none"
     d="m 682.78667,50.475738 -7.35053,0.791596 -4.5234,1.922446 0.11308,2.827126 3.39255,3.392552 2.48788,0.67851 4.74957,-3.053296 4.5234,-3.166382 z"
     id="path2993"
     inkscape:connector-curvature="0" />
  <path
     sodipodi:type="arc"
     style="fill:#000000;fill-opacity:1;stroke:#000000;stroke-width:6.94399977;stroke-linecap:round;stroke-linejoin:miter;stroke-miterlimit:4;stroke-opacity:1;stroke-dasharray:none;stroke-dashoffset:0"
     id="path2995"
     sodipodi:cx="666.07098"
     sodipodi:cy="84.56086"
     sodipodi:rx="4.4103174"
     sodipodi:ry="4.9191999"
     d="m 670.4813,84.56086 a 4.4103174,4.9191999 0 1 1 -8.82063,0 4.4103174,4.9191999 0 1 1 8.82063,0 z"
     transform="matrix(0.75410749,0,0,0.69908487,165.79649,20.875722)" />
  <path
     transform="matrix(0.75410749,0,0,0.69908487,165.79649,20.875722)"
     d="m 670.4813,84.56086 a 4.4103174,4.9191999 0 1 1 -8.82063,0 4.4103174,4.9191999 0 1 1 8.82063,0 z"
     sodipodi:ry="4.9191999"
     sodipodi:rx="4.4103174"
     sodipodi:cy="84.56086"
     sodipodi:cx="666.07098"
     id="path3775"
     style="fill:#000000;fill-opacity:1;stroke:#000000;stroke-width:6.94399977;stroke-linecap:round;stroke-linejoin:miter;stroke-miterlimit:4;stroke-opacity:1;stroke-dasharray:none;stroke-dashoffset:0"
     sodipodi:type="arc" />
  <path
     style="fill:#ff7f2a;fill-opacity:1;stroke:#000000;stroke-width:0;stroke-linecap:butt;stroke-linejoin:miter;stroke-miterlimit:4;stroke-opacity:1;stroke-dasharray:none"
     d="m 539.63473,53.833973 -1.19945,6.71691 0.47978,4.397977 4.95772,2.079043 c 0,0 5.99724,1.919117 7.8364,2.878676 1.83915,0.959558 6.63694,2.398896 8.71599,2.398896 2.07904,0 8.4761,0.159926 11.03492,0 2.55882,-0.159927 5.11764,-0.879595 5.99724,-0.319853 0.87959,0.559742 9.59558,7.676468 9.59558,7.676468 0,0 1.99908,1.599264 2.31894,1.599264 0.31985,0 7.67647,-0.959558 8.07628,-1.199448 0.39982,-0.239889 9.9954,-2.878675 10.47518,-2.878675 0.47978,0 2.23897,-0.639706 0.95956,-1.679228 -1.27941,-1.039521 -3.75827,-3.838234 -3.43842,-5.597424 0.31986,-1.759191 0.39982,-3.038602 2.31894,-3.918198 1.91911,-0.879595 8.63602,-4.158087 9.27573,-4.797792 0.6397,-0.639706 2.07904,-2.23897 2.07904,-3.678308 0,-1.439338 1.11949,-10.155328 1.11949,-10.155328 l -5.75435,-5.956291 -2.94022,-1.583191 -1.21566,0 -3.10984,0.05654 -3.50564,0.424069 -2.51614,0.282712 -2.31824,0.593697 -7.9725,1.639733 -2.17689,0.508883 -2.28997,0.650239 -1.44183,0.678511 -2.82713,0.763324 -8.00077,1.922446 -7.66151,1.639733 -8.00077,1.526648 -3.47736,0.593697 -1.89418,0.02827 -3.67526,0.508883 -9.81013,1.554919 z"
     id="path3777"
     inkscape:connector-curvature="0" />
  <path
     style="fill:#008080;fill-opacity:1;stroke:#000000;stroke-width:0;stroke-linecap:butt;stroke-linejoin:miter;stroke-miterlimit:4;stroke-opacity:1;stroke-dasharray:none"
     d="m 539.63473,53.194267 -0.47978,3.358455 -0.75965,3.918198 0.47978,4.278031 4.5579,2.119025 5.67739,1.919117 3.55836,1.519301 6.27712,1.959099 2.87867,0.199908 4.07813,0 2.87867,0.03998 3.43842,-0.23989 2.51884,-0.319853 1.75919,-0.199908 c 0,0 0.67969,0.03998 0.95956,0.07996 0.27987,0.03998 8.15625,6.71691 8.15625,6.71691 0,0 2.159,2.718749 3.4784,2.718749 1.31939,0 7.67647,-0.959558 7.67647,-0.959558 0,0 1.79917,-0.559743 1.99908,-0.639706 0.1999,-0.07996 2.39889,-0.759651 2.67876,-0.759651 0.27987,0 3.59835,-0.99954 3.59835,-0.99954 l 4.23805,-0.879595 c 0,0 1.11948,1.279412 1.11948,2.079044 0,0.799632 -2.07904,11.674629 -3.0386,14.233451 -0.95956,2.558816 -15.83272,13.433816 -19.19117,15.193006 -3.35846,1.75919 -18.39154,4.79779 -18.39154,4.79779 l -8.15625,0.31985 -6.0772,-0.95955 -7.03676,-6.23714 c 0,0 -0.79963,-0.47977 -2.71875,0 -1.91912,0.47979 -10.39522,3.51839 -11.19485,3.67831 -0.79963,0.15993 -3.83824,2.07905 -5.27757,0.95956 -1.43934,-1.11948 -4.95772,-3.67831 -5.4375,-3.0386 -0.47978,0.6397 -23.50919,2.3989 -23.50919,2.3989 l -12.79411,-10.39521 c 0,0 0.31985,-2.71875 -0.47978,-5.277573 -0.79963,-2.558823 -2.55882,-2.558823 -2.55882,-5.757351 0,-3.198528 -0.95956,-8.316174 -0.95956,-8.316174 l -1.11948,-7.356615 1.11948,-7.036763 -0.15993,-8.156247 -0.15992,-5.117646 0.23989,-0.199908 1.83915,-0.07996 18.95128,-0.599724 3.9182,0.07996 4.51792,0.399816 21.47012,0.719669 3.03861,0.279871 z"
     id="path3779"
     inkscape:connector-curvature="0" />
  <path
     sodipodi:type="arc"
     style="fill:#000000;fill-opacity:1;stroke:#000000;stroke-width:6.94399977;stroke-linecap:round;stroke-linejoin:miter;stroke-miterlimit:4;stroke-opacity:1;stroke-dasharray:none;stroke-dashoffset:0"
     id="path3781"
     sodipodi:cx="666.07098"
     sodipodi:cy="84.56086"
     sodipodi:rx="4.4103174"
     sodipodi:ry="4.9191999"
     d="m 670.4813,84.56086 a 4.4103174,4.9191999 0 1 1 -8.82063,0 4.4103174,4.9191999 0 1 1 8.82063,0 z"
     transform="matrix(0.75410749,0,0,0.69908487,8.4288936,8.081607)" />
  <path
     transform="matrix(0.75410749,0,0,0.69908487,-68.437744,9.469159)"
     d="m 670.4813,84.56086 a 4.4103174,4.9191999 0 1 1 -8.82063,0 4.4103174,4.9191999 0 1 1 8.82063,0 z"
     sodipodi:ry="4.9191999"
     sodipodi:rx="4.4103174"
     sodipodi:cy="84.56086"
     sodipodi:cx="666.07098"
     id="path3783"
     style="fill:#000000;fill-opacity:1;stroke:#000000;stroke-width:6.94399977;stroke-linecap:round;stroke-linejoin:miter;stroke-miterlimit:4;stroke-opacity:1;stroke-dasharray:none;stroke-dashoffset:0"
     sodipodi:type="arc" />
  <path
     style="fill:#ff00ff;fill-opacity:1;stroke:#000000;stroke-width:0;stroke-linecap:butt;stroke-linejoin:miter;stroke-miterlimit:4;stroke-opacity:1;stroke-dasharray:none"
     d="m 483.02078,52.794451 -5.99724,1.199449 -3.27849,0.75965 -4.47794,0.199908 -4.358,0.279871 -10.03538,-3.438418 c 0,0 -0.63971,-0.03998 -0.83962,-0.03998 -0.1999,0 -2.07904,-0.07996 -2.07904,-0.07996 l -1.83915,-0.07996 -11.23483,0.279871 -3.83824,0.159927 c 0,0 -1.83915,0.319853 -2.5988,0.519761 -0.75965,0.199908 -2.07905,0.199908 -2.35892,0.75965 -0.27987,0.559743 -1.03952,1.799172 -0.67968,2.718749 0.35983,0.919577 3.0109,4.507347 3.0109,4.507347 0,0 0.56543,1.583191 0.56543,2.035531 0,0.452341 0.33925,4.184147 -0.33926,5.767338 -0.67851,1.583191 -5.54116,5.767338 -5.54116,5.767338 0,0 -2.14862,2.148616 -2.37479,2.827127 -0.22617,0.67851 -0.22617,2.374786 -0.22617,2.940211 0,0.565425 0.45234,3.844892 1.13085,4.975742 0.67851,1.130851 1.47011,4.410318 2.71404,4.749573 1.24394,0.339255 4.74957,1.35702 4.74957,1.35702 0,0 2.14862,0.113086 2.82713,-0.339255 0.67851,-0.45234 4.18415,-2.940211 5.76734,-3.618721 1.58319,-0.678511 1.92244,-2.487872 5.08883,-2.487872 3.16638,0 5.31499,-1.13085 5.88042,1.470106 0.56542,2.600956 -0.56543,7.124359 -0.56543,8.029039 0,0.904678 -2.60095,1.922447 -2.60095,4.297237 0,2.37478 1.01776,9.72531 1.01776,11.08233 0,1.35702 2.94021,5.08883 3.50564,5.54117 0.56543,0.45234 3.73181,3.0533 6.21968,3.0533 2.48787,0 4.5234,-1.01777 5.315,-1.69628 0.79159,-0.67851 6.89818,-6.7851 6.89818,-6.7851 l 4.18415,-5.20192 4.41032,-1.69627 3.73181,-0.67851 2.94388,-1.77678 -0.15993,-1.65924 c 0,0 0.13994,-1.27941 0.13994,-1.67922 0,-0.39982 -0.4398,-1.63925 -0.79964,-2.3989 -0.35983,-0.75965 -1.19944,-1.879135 -1.43933,-2.478859 -0.23989,-0.599724 -0.63971,-1.039522 -0.83962,-1.799172 -0.19991,-0.759651 -0.15992,-3.598345 -0.15992,-3.598345 l -2.03907,-13.233911 1.19945,-7.076744 -0.19991,-13.43382 z"
     id="path3785"
     inkscape:connector-curvature="0" />
  <path
     sodipodi:type="arc"
     style="fill:#000000;fill-opacity:1;stroke:#000000;stroke-width:6.94399977;stroke-linecap:round;stroke-linejoin:miter;stroke-miterlimit:4;stroke-opacity:1;stroke-dasharray:none;stroke-dashoffset:0"
     id="path3787"
     sodipodi:cx="666.07098"
     sodipodi:cy="84.56086"
     sodipodi:rx="4.4103174"
     sodipodi:ry="4.9191999"
     d="m 670.4813,84.56086 a 4.4103174,4.9191999 0 1 1 -8.82063,0 4.4103174,4.9191999 0 1 1 8.82063,0 z"
     transform="matrix(0.75410749,0,0,0.69908487,-68.437744,9.469159)" />
  <path
     style="fill:#00ff66;fill-opacity:1;stroke:#000000;stroke-width:0;stroke-linecap:butt;stroke-linejoin:miter;stroke-miterlimit:4;stroke-opacity:1;stroke-dasharray:none"
     d="m 560.71135,123.13289 c 0,0 3.78835,-3.50564 4.01452,-4.63649 0.22617,-1.13085 0.56543,-3.73181 0.56543,-3.73181 l -0.45234,-1.30048 -3.33601,0.16963 -5.88043,-0.73505 -6.95473,-6.33276 -0.79159,-0.33926 -1.13085,0 -2.2617,0.67851 -10.34729,3.39255 -2.94021,1.13085 -2.48787,7.52016 c 0,0 -3.61872,3.95798 -4.01452,5.03228 -0.3958,1.07431 -1.30048,10.79963 -1.13085,11.53468 0.16963,0.73505 2.82713,5.03228 3.90143,5.37154 1.07431,0.33925 5.88043,2.20516 7.80287,0.96122 1.92245,-1.24393 4.9192,-4.24069 5.14537,-5.03228 0.22617,-0.7916 0.56543,-3.39255 1.63974,-4.29723 1.0743,-0.90468 4.63648,-3.39256 5.76733,-3.73181 1.13086,-0.33926 2.03554,-0.84814 4.29724,-1.30048 2.2617,-0.45234 4.5234,-1.07431 5.14537,-1.47011 0.62196,-0.39579 3.44909,-2.88366 3.44909,-2.88366 z"
     id="path3789"
     inkscape:connector-curvature="0" />
  <path
     sodipodi:type="arc"
     style="fill:#000000;fill-opacity:1;stroke:#000000;stroke-width:6.94399977;stroke-linecap:round;stroke-linejoin:miter;stroke-miterlimit:4;stroke-opacity:1;stroke-dasharray:none;stroke-dashoffset:0"
     id="path3787-3"
     sodipodi:cx="666.07098"
     sodipodi:cy="84.56086"
     sodipodi:rx="4.4103174"
     sodipodi:ry="4.9191999"
     d="m 670.4813,84.56086 a 4.4103174,4.9191999 0 1 1 -8.82063,0 4.4103174,4.9191999 0 1 1 8.82063,0 z"
     transform="matrix(0.75410749,0,0,0.69908487,55.497263,83.957699)" />
  <path
     style="fill:#2affd5;fill-opacity:1;stroke:#000000;stroke-width:0;stroke-linecap:butt;stroke-linejoin:miter;stroke-miterlimit:4;stroke-opacity:1;stroke-dasharray:none"
     d="m 599.0474,160.66482 c 0,0 -8.15625,-7.99632 -8.95588,-7.99632 -0.79964,0 -10.71507,-4.95772 -11.99449,-4.95772 -1.27941,0 -3.0386,-1.91912 -8.15624,-0.15993 -5.11765,1.7592 -14.87316,4.15809 -16.79228,4.63787 -1.91911,0.47978 -4.31801,0.31985 -3.51838,2.07904 0.79963,1.7592 4.95772,5.27758 4.95772,5.27758 l 0.95956,10.87499 0.31985,5.75735 c 0,0 4.63787,1.91912 6.55699,2.87868 1.91911,0.95956 5.43749,1.27941 7.67646,7.83639 2.23897,6.55699 2.07905,11.35478 2.07905,11.35478 l 9.59558,0.15993 c 0,0 10.07537,-7.19669 10.07537,-7.8364 0,-0.6397 5.4375,-2.55882 6.71691,-3.99816 1.27941,-1.43934 6.55698,-3.83823 6.55698,-5.27757 0,-1.43934 1.59926,-5.11765 1.75919,-6.87684 0.15993,-1.75919 0.47978,-6.39705 -1.27941,-7.35661 -1.75919,-0.95956 -3.19853,-2.55882 -3.99816,-2.87868 -0.79963,-0.31985 -2.55882,-3.51838 -2.55882,-3.51838 z"
     id="path3809"
     inkscape:connector-curvature="0" />
  <path
     style="fill:#ac939d;fill-opacity:1;stroke:#000000;stroke-width:0;stroke-linecap:butt;stroke-linejoin:miter;stroke-miterlimit:4;stroke-opacity:1;stroke-dasharray:none"
     d="m 486.13934,142.11336 -10.07536,-1.91912 c 0,0 -4.63787,3.35845 -5.27757,4.95772 -0.63971,1.59926 -3.67831,5.11764 -3.99816,8.31617 -0.31986,3.19853 -2.07905,9.91544 -2.07905,13.59375 0,3.67831 -2.23897,8.63602 1.91912,11.83455 4.15809,3.19853 7.03676,6.87684 8.95588,6.87684 1.91912,0 7.99632,0.95956 7.99632,0.95956 l 2.87868,6.55698 7.67646,13.43382 11.51471,-0.63971 c 0,0 0.31985,-10.07536 0.31985,-11.19484 0,-1.11949 1.11948,-9.91544 1.75919,-11.99449 0.63971,-2.07904 8.63603,-15.35293 8.63603,-15.35293 0,0 5.27757,-5.59743 4.31801,-5.75735 -0.95956,-0.15993 -5.91728,-3.51839 -7.99632,-4.47794 -2.07904,-0.95956 -13.11397,-6.87684 -13.11397,-6.87684 l -9.43566,-5.91728 z"
     id="path3811"
     inkscape:connector-curvature="0" />
  <path
     style="fill:#ac939d;fill-opacity:1;stroke:#000000;stroke-width:0;stroke-linecap:butt;stroke-linejoin:miter;stroke-miterlimit:4;stroke-opacity:1;stroke-dasharray:none"
     d="m 373.23129,85.179552 -8.63603,2.638786 -4.39797,0.879595 -22.30974,13.673707 -19.27113,11.59467 -1.75919,1.11948 -6.23713,6.79687 c 0,0 -1.75919,4.15809 -1.35938,5.19761 0.39982,1.03952 12.79412,2.87868 14.71323,2.55883 1.91912,-0.31986 18.39154,-0.55975 20.47059,-0.55975 2.07904,0 5.59742,-0.6397 6.31709,-2.95864 0.71967,-2.31893 5.75735,-5.27757 6.71691,-6.0772 0.95956,-0.79963 6.55698,-3.99816 6.55698,-3.99816 0,0 1.91912,-1.43934 2.79871,-3.27849 0.8796,-1.83916 6.39706,-8.15625 6.39706,-9.67555 0,-1.5193 1.03952,-9.195768 1.03952,-9.755511 0,-0.559742 -0.6397,-7.996321 -0.6397,-7.996321 z"
     id="path3813"
     inkscape:connector-curvature="0" />
  <path
     style="fill:#ac939d;fill-opacity:1;stroke:#000000;stroke-width:0;stroke-linecap:butt;stroke-linejoin:miter;stroke-miterlimit:4;stroke-opacity:1;stroke-dasharray:none"
     d="m 248.65314,135.17644 c -0.90468,-0.33925 -2.71404,-0.45234 -3.73181,-0.45234 -1.01776,0 -4.41032,1.35702 -4.97574,1.80937 -0.56543,0.45234 -5.315,4.63648 -5.315,4.63648 0,0 -3.27947,-0.90468 -3.61872,0.7916 -0.33926,1.69627 -0.11309,9.72531 0.22617,11.19542 0.33925,1.4701 5.315,3.27947 5.99351,3.39255 0.67851,0.11309 5.08882,1.13085 5.99351,1.01777 0.90468,-0.11309 7.35052,-3.61873 7.46361,-4.41032 0.11308,-0.7916 4.41032,-5.08883 4.41032,-6.55893 0,-1.47011 -1.13085,-5.54117 -1.58319,-5.76734 -0.45234,-0.22617 -4.86266,-5.65426 -4.86266,-5.65426 z"
     id="path3815"
     inkscape:connector-curvature="0" />
  <path
     style="fill:#ac939d;fill-opacity:1;stroke:#000000;stroke-width:0;stroke-linecap:butt;stroke-linejoin:miter;stroke-miterlimit:4;stroke-opacity:1;stroke-dasharray:none"
     d="m 398.81952,335.62432 c -4.31802,1.27942 -6.71691,2.23897 -11.03493,4.7978 -4.31801,2.55882 -7.83639,2.23897 -7.83639,4.79779 0,2.55882 -0.95956,11.99448 -0.95956,11.99448 0,0 1.27941,5.75735 4.79779,7.03676 3.51839,1.27942 13.2739,2.3989 14.39338,2.3989 1.11949,0 9.11581,-0.47978 9.75551,0.31985 0.63971,0.79964 4.95772,8.4761 5.4375,10.23529 0.47978,1.75919 3.83824,5.27758 3.83824,5.27758 0,0 3.99816,-0.95956 4.31801,-1.75919 0.31985,-0.79964 0.95956,-6.23713 0.95956,-6.23713 l 0,-10.71508 c 0,0 -1.59927,-7.03676 -1.91912,-7.67646 -0.31985,-0.63971 -2.07904,-7.35662 -2.23897,-7.99632 -0.15993,-0.63971 -2.87867,-3.99816 -4.79779,-4.95772 -1.91912,-0.95956 -6.87684,-4.15809 -6.87684,-4.15809 z"
     id="path3817"
     inkscape:connector-curvature="0" />
  <path
     style="fill:#ac939d;fill-opacity:1;stroke:#000000;stroke-width:0;stroke-linecap:butt;stroke-linejoin:miter;stroke-miterlimit:4;stroke-opacity:1;stroke-dasharray:none"
     d="m 9.238759,238.06921 c 0,0 18.551465,14.39338 19.830876,15.03308 1.279412,0.63971 1.599264,6.39706 0.319853,7.35662 -1.279411,0.95956 -4.158087,8.95588 -6.077204,10.23529 -1.919117,1.27941 -7.036762,0.6397 -7.036762,0.6397 0,0 -11.5147026,-14.07352 -11.1948498,-15.99264 0.3198529,-1.91911 4.1580868,-17.27205 4.1580868,-17.27205 z"
     id="path3819"
     inkscape:connector-curvature="0" />
  <path
     style="fill:#ac939d;fill-opacity:1;stroke:#000000;stroke-width:0;stroke-linecap:butt;stroke-linejoin:miter;stroke-miterlimit:4;stroke-opacity:1;stroke-dasharray:none"
     d="m 39.944632,264.93685 -15.992642,8.63602 5.117645,10.23529 c 0,0 1.279412,1.91912 1.599264,9.59559 0.319853,7.67647 -3.198528,14.07353 -3.198528,14.07353 l -1.279411,4.15808 c 0,0 1.919117,2.55882 6.077204,2.55882 4.158087,0 18.871317,1.59927 18.871317,1.59927 0,0 3.198529,-0.31985 8.95588,0.6397 5.757351,0.95956 19.830876,0.95956 23.349257,0.95956 3.518381,0 18.231612,-3.83823 19.830872,-4.47794 1.59927,-0.6397 5.4375,-4.15808 5.75735,-7.03676 0.31986,-2.87867 -0.6397,-7.35661 0.63971,-9.27573 1.27941,-1.91912 7.35662,-2.55882 7.99632,-6.07721 0.63971,-3.51838 -2.87867,-7.99632 -2.87867,-7.99632 0,0 -8.95588,-7.67646 -10.55515,-9.59558 -1.59926,-1.91912 -5.117641,-4.79779 -5.117641,-4.79779 0,0 -15.992644,-0.63971 -17.272055,-0.63971 -1.279411,0 -10.874997,-1.59926 -12.474261,-1.59926 -1.599264,0 -18.231612,-1.59927 -18.231612,-1.59927 z"
     id="path3821"
     inkscape:connector-curvature="0" />
  <path
     transform="matrix(0.75410749,0,0,0.69908487,-143.07388,183.62015)"
     d="m 670.4813,84.56086 a 4.4103174,4.9191999 0 1 1 -8.82063,0 4.4103174,4.9191999 0 1 1 8.82063,0 z"
     sodipodi:ry="4.9191999"
     sodipodi:rx="4.4103174"
     sodipodi:cy="84.56086"
     sodipodi:cx="666.07098"
     id="path3823"
     style="fill:#000000;fill-opacity:1;stroke:#000000;stroke-width:6.94399977;stroke-linecap:round;stroke-linejoin:miter;stroke-miterlimit:4;stroke-opacity:1;stroke-dasharray:none;stroke-dashoffset:0"
     sodipodi:type="arc" />
  <path
     sodipodi:type="arc"
     style="fill:#000000;fill-opacity:1;stroke:#000000;stroke-width:6.94399977;stroke-linecap:round;stroke-linejoin:miter;stroke-miterlimit:4;stroke-opacity:1;stroke-dasharray:none;stroke-dashoffset:0"
     id="path3825"
     sodipodi:cx="666.07098"
     sodipodi:cy="84.56086"
     sodipodi:rx="4.4103174"
     sodipodi:ry="4.9191999"
     d="m 670.4813,84.56086 a 4.4103174,4.9191999 0 1 1 -8.82063,0 4.4103174,4.9191999 0 1 1 8.82063,0 z"
     transform="matrix(0.75410749,0,0,0.69908487,-393.67036,199.45206)" />
  <path
     transform="matrix(0.75410749,0,0,0.69908487,49.170721,193.57164)"
     d="m 670.4813,84.56086 a 4.4103174,4.9191999 0 1 1 -8.82063,0 4.4103174,4.9191999 0 1 1 8.82063,0 z"
     sodipodi:ry="4.9191999"
     sodipodi:rx="4.4103174"
     sodipodi:cy="84.56086"
     sodipodi:cx="666.07098"
     id="path3827"
     style="fill:#000000;fill-opacity:1;stroke:#000000;stroke-width:6.94399977;stroke-linecap:round;stroke-linejoin:miter;stroke-miterlimit:4;stroke-opacity:1;stroke-dasharray:none;stroke-dashoffset:0"
     sodipodi:type="arc" />
  <path
     sodipodi:type="arc"
     style="fill:#000000;fill-opacity:1;stroke:#000000;stroke-width:6.94399977;stroke-linecap:round;stroke-linejoin:miter;stroke-miterlimit:4;stroke-opacity:1;stroke-dasharray:none;stroke-dashoffset:0"
     id="path3829"
     sodipodi:cx="666.07098"
     sodipodi:cy="84.56086"
     sodipodi:rx="4.4103174"
     sodipodi:ry="4.9191999"
     d="m 670.4813,84.56086 a 4.4103174,4.9191999 0 1 1 -8.82063,0 4.4103174,4.9191999 0 1 1 8.82063,0 z"
     transform="matrix(0.75410749,0,0,0.69908487,55.503484,85.009987)" />
  <path
     transform="matrix(0.75410749,0,0,0.69908487,165.42216,90.89041)"
     d="m 670.4813,84.56086 a 4.4103174,4.9191999 0 1 1 -8.82063,0 4.4103174,4.9191999 0 1 1 8.82063,0 z"
     sodipodi:ry="4.9191999"
     sodipodi:rx="4.4103174"
     sodipodi:cy="84.56086"
     sodipodi:cx="666.07098"
     id="path3831"
     style="fill:#000000;fill-opacity:1;stroke:#000000;stroke-width:6.94399977;stroke-linecap:round;stroke-linejoin:miter;stroke-miterlimit:4;stroke-opacity:1;stroke-dasharray:none;stroke-dashoffset:0"
     sodipodi:type="arc" />
  <path
     sodipodi:type="arc"
     style="fill:#000000;fill-opacity:1;stroke:#000000;stroke-width:6.94399977;stroke-linecap:round;stroke-linejoin:miter;stroke-miterlimit:4;stroke-opacity:1;stroke-dasharray:none;stroke-dashoffset:0"
     id="path3833"
     sodipodi:cx="666.07098"
     sodipodi:cy="84.56086"
     sodipodi:rx="4.4103174"
     sodipodi:ry="4.9191999"
     d="m 670.4813,84.56086 a 4.4103174,4.9191999 0 1 1 -8.82063,0 4.4103174,4.9191999 0 1 1 8.82063,0 z"
     transform="matrix(0.75410749,0,0,0.69908487,23.839668,280.42096)" />
  <path
     transform="matrix(0.75410749,0,0,0.69908487,-49.891789,322.4886)"
     d="m 670.4813,84.56086 a 4.4103174,4.9191999 0 1 1 -8.82063,0 4.4103174,4.9191999 0 1 1 8.82063,0 z"
     sodipodi:ry="4.9191999"
     sodipodi:rx="4.4103174"
     sodipodi:cy="84.56086"
     sodipodi:cx="666.07098"
     id="path3835"
     style="fill:#000000;fill-opacity:1;stroke:#000000;stroke-width:6.94399977;stroke-linecap:round;stroke-linejoin:miter;stroke-miterlimit:4;stroke-opacity:1;stroke-dasharray:none;stroke-dashoffset:0"
     sodipodi:type="arc" />
  <path
     sodipodi:type="arc"
     style="fill:#000000;fill-opacity:1;stroke:#000000;stroke-width:6.94399977;stroke-linecap:round;stroke-linejoin:miter;stroke-miterlimit:4;stroke-opacity:1;stroke-dasharray:none;stroke-dashoffset:0"
     id="path3837"
     sodipodi:cx="666.07098"
     sodipodi:cy="84.56086"
     sodipodi:rx="4.4103174"
     sodipodi:ry="4.9191999"
     d="m 670.4813,84.56086 a 4.4103174,4.9191999 0 1 1 -8.82063,0 4.4103174,4.9191999 0 1 1 8.82063,0 z"
     transform="matrix(0.75410749,0,0,0.69908487,-221.78108,267.30309)" />
  <path
     transform="matrix(1.5107029,0,0,1.2854578,-817.5524,53.97173)"
     d="m 670.4813,84.56086 a 4.4103174,4.9191999 0 1 1 -8.82063,0 4.4103174,4.9191999 0 1 1 8.82063,0 z"
     sodipodi:ry="4.9191999"
     sodipodi:rx="4.4103174"
     sodipodi:cy="84.56086"
     sodipodi:cx="666.07098"
     id="path3839"
     style="fill:#000000;fill-opacity:1;stroke:#000000;stroke-width:6.94399977;stroke-linecap:round;stroke-linejoin:miter;stroke-miterlimit:4;stroke-opacity:1;stroke-dasharray:none;stroke-dashoffset:0"
     sodipodi:type="arc" />
  <path
     sodipodi:type="arc"
     style="fill:#000000;fill-opacity:1;stroke:#000000;stroke-width:6.94399977;stroke-linecap:round;stroke-linejoin:miter;stroke-miterlimit:4;stroke-opacity:1;stroke-dasharray:none;stroke-dashoffset:0"
     id="path3841"
     sodipodi:cx="666.07098"
     sodipodi:cy="84.56086"
     sodipodi:rx="4.4103174"
     sodipodi:ry="4.9191999"
     d="m 670.4813,84.56086 a 4.4103174,4.9191999 0 1 1 -8.82063,0 4.4103174,4.9191999 0 1 1 8.82063,0 z"
     transform="matrix(1.5107029,0,0,1.2854578,-288.31434,-56.399285)" />
  <text
     xml:space="preserve"
     style="font-size:36px;font-style:normal;font-variant:normal;font-weight:normal;font-stretch:normal;text-align:start;line-height:125%;letter-spacing:0px;word-spacing:0px;writing-mode:lr-tb;text-anchor:start;fill:#000000;fill-opacity:1;stroke:none;font-family:Times New Roman;-inkscape-font-specification:'Times New Roman,'"
     x="686.04736"
     y="29.205303"
     id="text3843"
     sodipodi:linespacing="125%"><tspan
       sodipodi:role="line"
       id="tspan3845"
       x="686.04736"
       y="29.205303">Alger</tspan></text>
  <text
     xml:space="preserve"
     style="font-size:40px;font-style:normal;font-variant:normal;font-weight:normal;font-stretch:normal;text-align:start;line-height:125%;letter-spacing:0px;word-spacing:0px;writing-mode:lr-tb;text-anchor:start;fill:#000000;fill-opacity:1;stroke:none;font-family:Times New Roman;-inkscape-font-specification:'Times New Roman,'"
     x="671.97388"
     y="178.89644"
     id="text3847"
     sodipodi:linespacing="125%"><tspan
       sodipodi:role="line"
       id="tspan3849"
       x="671.97388"
       y="178.89644"
       style="font-size:28px">Médéa</tspan></text>
  <text
     xml:space="preserve"
     style="font-size:28px;font-style:normal;font-variant:normal;font-weight:normal;font-stretch:normal;text-align:start;line-height:125%;letter-spacing:0px;word-spacing:0px;writing-mode:lr-tb;text-anchor:start;fill:#000000;fill-opacity:1;stroke:none;font-family:Times New Roman;-inkscape-font-specification:'Times New Roman,'"
     x="572.17975"
     y="152.02881"
     id="text3851"
     sodipodi:linespacing="125%"><tspan
       sodipodi:role="line"
       id="tspan3853"
       x="572.17975"
       y="152.02881">Miliana</tspan></text>
  <text
     xml:space="preserve"
     style="font-size:28px;font-style:normal;font-variant:normal;font-weight:normal;font-stretch:normal;text-align:start;line-height:125%;letter-spacing:0px;word-spacing:0px;writing-mode:lr-tb;text-anchor:start;fill:#000000;fill-opacity:1;stroke:none;font-family:Times New Roman;-inkscape-font-specification:'Times New Roman,'"
     x="601.60626"
     y="112.36704"
     id="text3855"
     sodipodi:linespacing="125%"><tspan
       sodipodi:role="line"
       id="tspan3857"
       x="601.60626"
       y="112.36704">Blida</tspan></text>
  <text
     xml:space="preserve"
     style="font-size:28px;font-style:normal;font-variant:normal;font-weight:normal;font-stretch:normal;text-align:start;line-height:125%;letter-spacing:0px;word-spacing:0px;writing-mode:lr-tb;text-anchor:start;fill:#000000;fill-opacity:1;stroke:none;font-family:Times New Roman;-inkscape-font-specification:'Times New Roman,'"
     x="413.53275"
     y="137.95528"
     id="text3859"
     sodipodi:linespacing="125%"><tspan
       sodipodi:role="line"
       id="tspan3861"
       x="413.53275"
       y="137.95528">Cherchel</tspan></text>
  <text
     xml:space="preserve"
     style="font-size:28px;font-style:normal;font-variant:normal;font-weight:normal;font-stretch:normal;text-align:start;line-height:125%;letter-spacing:0px;word-spacing:0px;writing-mode:lr-tb;text-anchor:start;fill:#000000;fill-opacity:1;stroke:none;font-family:Times New Roman;-inkscape-font-specification:'Times New Roman,'"
     x="355.9592"
     y="76.543526"
     id="text3863"
     sodipodi:linespacing="125%"><tspan
       sodipodi:role="line"
       id="tspan3865"
       x="355.9592"
       y="76.543526">Tenés</tspan></text>
  <text
     xml:space="preserve"
     style="font-size:28px;font-style:normal;font-variant:normal;font-weight:normal;font-stretch:normal;text-align:start;line-height:125%;letter-spacing:0px;word-spacing:0px;writing-mode:lr-tb;text-anchor:start;fill:#000000;fill-opacity:1;stroke:none;font-family:Times New Roman;-inkscape-font-specification:'Times New Roman,'"
     x="480.06213"
     y="281.24933"
     id="text3867"
     sodipodi:linespacing="125%"><tspan
       sodipodi:role="line"
       id="tspan3869"
       x="480.06213"
       y="281.24933">Teniet El-Had</tspan></text>
  <text
     xml:space="preserve"
     style="font-size:28px;font-style:normal;font-variant:normal;font-weight:normal;font-stretch:normal;text-align:start;line-height:125%;letter-spacing:0px;word-spacing:0px;writing-mode:lr-tb;text-anchor:start;fill:#000000;fill-opacity:1;stroke:none;font-family:Times New Roman;-inkscape-font-specification:'Times New Roman,'"
     x="538.9151"
     y="359.29343"
     id="text3871"
     sodipodi:linespacing="125%"><tspan
       sodipodi:role="line"
       id="tspan3873"
       x="538.9151"
       y="359.29343">Tiaret</tspan></text>
  <text
     xml:space="preserve"
     style="font-size:28px;font-style:normal;font-variant:normal;font-weight:normal;font-stretch:normal;text-align:start;line-height:125%;letter-spacing:0px;word-spacing:0px;writing-mode:lr-tb;text-anchor:start;fill:#000000;fill-opacity:1;stroke:none;font-family:Times New Roman;-inkscape-font-specification:'Times New Roman,'"
     x="458.31213"
     y="411.74927"
     id="text3875"
     sodipodi:linespacing="125%"><tspan
       sodipodi:role="line"
       id="tspan3877"
       x="458.31213"
       y="411.74927">Frenda</tspan></text>
  <text
     xml:space="preserve"
     style="font-size:28px;font-style:normal;font-variant:normal;font-weight:normal;font-stretch:normal;text-align:start;line-height:125%;letter-spacing:0px;word-spacing:0px;writing-mode:lr-tb;text-anchor:start;fill:#000000;fill-opacity:1;stroke:none;font-family:Times New Roman;-inkscape-font-specification:'Times New Roman,'"
     x="291.98868"
     y="276.13171"
     id="text3879"
     sodipodi:linespacing="125%"><tspan
       sodipodi:role="line"
       id="tspan3881"
       x="291.98868"
       y="276.13171">Relizane</tspan></text>
  <text
     xml:space="preserve"
     style="font-size:40px;font-style:normal;font-variant:normal;font-weight:normal;font-stretch:normal;text-align:start;line-height:125%;letter-spacing:0px;word-spacing:0px;writing-mode:lr-tb;text-anchor:start;fill:#000000;fill-opacity:1;stroke:none;font-family:Times New Roman;-inkscape-font-specification:'Times New Roman,'"
     x="235.4117"
     y="344.39709"
     id="text3883"
     sodipodi:linespacing="125%"><tspan
       sodipodi:role="line"
       id="tspan3885"
       x="235.4117"
       y="344.39709" /></text>
  <text
     xml:space="preserve"
     style="font-size:28px;font-style:normal;font-variant:normal;font-weight:normal;font-stretch:normal;text-align:start;line-height:125%;letter-spacing:0px;word-spacing:0px;writing-mode:lr-tb;text-anchor:start;fill:#000000;fill-opacity:1;stroke:none;font-family:Times New Roman;-inkscape-font-specification:'Times New Roman,'"
     x="211.38574"
     y="358.01401"
     id="text3887"
     sodipodi:linespacing="125%"><tspan
       sodipodi:role="line"
       id="tspan3889"
       x="211.38574"
       y="358.01401">Mascara</tspan></text>
  <text
     xml:space="preserve"
     style="font-size:28px;font-style:normal;font-variant:normal;font-weight:normal;font-stretch:normal;text-align:start;line-height:125%;letter-spacing:0px;word-spacing:0px;writing-mode:lr-tb;text-anchor:start;fill:#000000;fill-opacity:1;stroke:none;font-family:Times New Roman;-inkscape-font-specification:'Times New Roman,'"
     x="117.98872"
     y="265.89639"
     id="text3891"
     sodipodi:linespacing="125%"><tspan
       sodipodi:role="line"
       id="tspan3893"
       x="117.98872"
       y="265.89639">Tlemcen</tspan></text>
  <text
     xml:space="preserve"
     style="font-size:36px;font-style:normal;font-variant:normal;font-weight:normal;font-stretch:normal;text-align:start;line-height:125%;letter-spacing:0px;word-spacing:0px;writing-mode:lr-tb;text-anchor:start;fill:#000000;fill-opacity:1;stroke:none;font-family:Times New Roman;-inkscape-font-specification:'Times New Roman,'"
     x="141.01813"
     y="141.79352"
     id="text3895"
     sodipodi:linespacing="125%"><tspan
       sodipodi:role="line"
       id="tspan3897"
       x="141.01813"
       y="141.79352">Oran</tspan></text>
  <text
     xml:space="preserve"
     style="font-size:40px;font-style:normal;font-variant:normal;font-weight:normal;font-stretch:normal;text-align:start;line-height:125%;letter-spacing:0px;word-spacing:0px;writing-mode:lr-tb;text-anchor:start;fill:#000000;fill-opacity:1;stroke:none;font-family:Times New Roman;-inkscape-font-specification:'Times New Roman,'"
     x="70.367622"
     y="64.206001"
     id="text3899"
     sodipodi:linespacing="125%"><tspan
       sodipodi:role="line"
       id="tspan3901"
       x="70.367622"
       y="64.206001" /></text>
  <text
     xml:space="preserve"
     style="font-size:24px;font-style:normal;font-variant:normal;font-weight:normal;font-stretch:normal;text-align:start;line-height:125%;letter-spacing:0px;word-spacing:0px;writing-mode:lr-tb;text-anchor:start;fill:#800000;fill-opacity:1;stroke:none;font-family:Times New Roman;-inkscape-font-specification:'Times New Roman,'"
     x="32.268166"
     y="245.42586"
     id="text3903"
     sodipodi:linespacing="125%"><tspan
       sodipodi:role="line"
       id="tspan3905"
       x="32.268166"
       y="245.42586"
       style="font-size:22px">Marsa Ben Mhidi</tspan></text>
  <text
     xml:space="preserve"
     style="font-size:24px;font-style:normal;font-variant:normal;font-weight:normal;font-stretch:normal;text-align:start;line-height:125%;letter-spacing:0px;word-spacing:0px;writing-mode:lr-tb;text-anchor:start;fill:#800000;fill-opacity:1;stroke:none;font-family:Times New Roman;-inkscape-font-specification:'Times New Roman,'"
     x="42.503452"
     y="337.54343"
     id="text3907"
     sodipodi:linespacing="125%"><tspan
       sodipodi:role="line"
       id="tspan3909"
       x="42.503452"
       y="337.54343">At Snus</tspan><tspan
       sodipodi:role="line"
       x="42.503452"
       y="367.54343"
       id="tspan3911" /></text>
  <text
     xml:space="preserve"
     style="font-size:24px;font-style:normal;font-variant:normal;font-weight:normal;font-stretch:normal;text-align:start;line-height:125%;letter-spacing:0px;word-spacing:0px;writing-mode:lr-tb;text-anchor:start;fill:#800000;fill-opacity:1;stroke:none;font-family:Times New Roman;-inkscape-font-specification:'Times New Roman,'"
     x="43.782867"
     y="358.01401"
     id="text3913"
     sodipodi:linespacing="125%"><tspan
       sodipodi:role="line"
       id="tspan3915"
       x="43.782867"
       y="358.01401">At Bu Said</tspan></text>
  <text
     xml:space="preserve"
     style="font-size:24px;font-style:normal;font-variant:normal;font-weight:normal;font-stretch:normal;text-align:start;line-height:125%;letter-spacing:0px;word-spacing:0px;writing-mode:lr-tb;text-anchor:start;fill:#800000;fill-opacity:1;stroke:none;font-family:Times New Roman;-inkscape-font-specification:'Times New Roman,'"
     x="210.10634"
     y="180.17586"
     id="text3917"
     sodipodi:linespacing="125%"><tspan
       sodipodi:role="line"
       id="tspan3919"
       x="210.10634"
       y="180.17586">Bettioua</tspan></text>
  <text
     xml:space="preserve"
     style="font-size:24px;font-style:normal;font-variant:normal;font-weight:normal;font-stretch:normal;text-align:start;line-height:125%;letter-spacing:0px;word-spacing:0px;writing-mode:lr-tb;text-anchor:start;fill:#800000;fill-opacity:1;stroke:none;font-family:Times New Roman;-inkscape-font-specification:'Times New Roman,'"
     x="303.50336"
     y="150.74939"
     id="text3921"
     sodipodi:linespacing="125%"><tspan
       sodipodi:role="line"
       id="tspan3923"
       x="303.50336"
       y="150.74939">Achaacha</tspan></text>
  <text
     xml:space="preserve"
     style="font-size:40px;font-style:normal;font-variant:normal;font-weight:normal;font-stretch:normal;text-align:start;line-height:125%;letter-spacing:0px;word-spacing:0px;writing-mode:lr-tb;text-anchor:start;fill:#000000;fill-opacity:1;stroke:none;font-family:Times New Roman;-inkscape-font-specification:'Times New Roman,'"
     x="343.1651"
     y="327.30814"
     id="text3925"
     sodipodi:linespacing="125%"><tspan
       sodipodi:role="line"
       id="tspan3927"
       x="343.1651"
       y="327.30814"
       style="font-size:24px;fill:#800000">At Hlima</tspan></text>
  <text
     xml:space="preserve"
     style="font-size:24px;font-style:normal;font-variant:normal;font-weight:normal;font-stretch:normal;text-align:start;line-height:125%;letter-spacing:0px;word-spacing:0px;writing-mode:lr-tb;text-anchor:start;fill:#800000;fill-opacity:1;stroke:none;font-family:Times New Roman;-inkscape-font-specification:'Times New Roman,'"
     x="587.53271"
     y="214.71997"
     id="text3929"
     sodipodi:linespacing="125%"><tspan
       sodipodi:role="line"
       x="587.53271"
       y="214.71997"
       id="tspan3933">Haraoua,</tspan></text>
  <text
     xml:space="preserve"
     style="font-size:24px;font-style:normal;font-variant:normal;font-weight:normal;font-stretch:normal;text-align:start;line-height:125%;letter-spacing:0px;word-spacing:0px;writing-mode:lr-tb;text-anchor:start;fill:#800000;fill-opacity:1;stroke:none;font-family:Times New Roman;-inkscape-font-specification:'Times New Roman,'"
     x="586.2533"
     y="232.63171"
     id="text3937"
     sodipodi:linespacing="125%"><tspan
       sodipodi:role="line"
       id="tspan3939"
       x="586.2533"
       y="232.63171">Matmata</tspan></text>
  <text
     xml:space="preserve"
     style="font-size:40px;font-style:normal;font-variant:normal;font-weight:normal;font-stretch:normal;text-align:start;line-height:125%;letter-spacing:0px;word-spacing:0px;writing-mode:lr-tb;text-anchor:start;fill:#000000;fill-opacity:1;stroke:none;font-family:Times New Roman;-inkscape-font-specification:'Times New Roman,'"
     x="612.83801"
     y="198.54419"
     id="text3941"
     sodipodi:linespacing="125%"><tspan
       sodipodi:role="line"
       id="tspan3943"
       x="612.83801"
       y="198.54419" /></text>
  <text
     xml:space="preserve"
     style="font-size:24px;font-style:normal;font-variant:normal;font-weight:normal;font-stretch:normal;text-align:start;line-height:125%;letter-spacing:0px;word-spacing:0px;writing-mode:lr-tb;text-anchor:start;fill:#800000;fill-opacity:1;stroke:none;font-family:Times New Roman;-inkscape-font-specification:'Times New Roman,'"
     x="531.23859"
     y="128.99939"
     id="text3945"
     sodipodi:linespacing="125%"><tspan
       sodipodi:role="line"
       id="tspan3947"
       x="531.23859"
       y="128.99939">At Frah</tspan></text>
  <text
     xml:space="preserve"
     style="font-size:24px;font-style:normal;font-variant:normal;font-weight:normal;font-stretch:normal;text-align:start;line-height:125%;letter-spacing:0px;word-spacing:0px;writing-mode:lr-tb;text-anchor:start;fill:#800000;fill-opacity:1;stroke:none;font-family:Times New Roman;-inkscape-font-specification:'Times New Roman,'"
     x="486.4592"
     y="94.455284"
     id="text3949"
     sodipodi:linespacing="125%"><tspan
       sodipodi:role="line"
       id="tspan3951"
       x="486.4592"
       y="94.455284">At Menaser</tspan></text>
  <text
     xml:space="preserve"
     style="font-size:24px;font-style:normal;font-variant:normal;font-weight:normal;font-stretch:normal;text-align:start;line-height:125%;letter-spacing:0px;word-spacing:0px;writing-mode:lr-tb;text-anchor:start;fill:#800000;fill-opacity:1;stroke:none;font-family:Times New Roman;-inkscape-font-specification:'Times New Roman,'"
     x="422.48862"
     y="107.24941"
     id="text3953"
     sodipodi:linespacing="125%"><tspan
       sodipodi:role="line"
       id="tspan3955"
       x="422.48862"
       y="107.24941">Bissa</tspan></text>
  <path
     style="fill:#ffd5d5;stroke:#000000;stroke-width:1px;stroke-linecap:butt;stroke-linejoin:miter;stroke-opacity:1"
     d="m 5.4071829,236.83991 -3.957977,0.22617 0.1130851,220.85512 33.360092,0.22617 -0.226171,-27.02733 0,-22.16467 4.749573,-13.45713 0,-29.74137 -0.339255,-2.2617 -1.809361,-6.55893 -1.357021,-5.65425 c 0,0 -1.13085,-5.42809 -1.13085,-5.88043 0,-0.45234 -1.017766,-4.86265 -1.017766,-5.76733 0,-0.90468 -1.017765,-4.41032 -1.357021,-5.08883 -0.339255,-0.67851 -3.731806,-8.70755 -3.731806,-8.70755 l -2.148617,-5.76734 -3.279466,-8.70755 0.22617,-2.71404 0.45234,-4.5234 0.565425,-4.5234 0.678511,-4.86266 c 0,0 0,-1.92245 0.791595,-2.71404 0.791596,-0.7916 0.565425,-3.39255 0.565425,-3.39255 0,0 -0.565425,-3.16639 -1.017765,-3.61873 -0.45234,-0.45234 -3.392552,-5.08882 -3.392552,-5.08882 0,0 -6.106593,-6.89819 -6.332763,-7.46362 -0.22617,-0.56542 -7.6897837,-10.74308 -7.6897837,-10.74308 0,0 -3.5056368,-5.42808 -3.5056368,-5.88042 0,-0.45234 -0.9046804,-2.14862 -0.5654253,-2.71404 0.3392552,-0.56543 0.7915954,-7.68979 0.7915954,-7.68979 z"
     id="path3965"
     inkscape:connector-curvature="0" />
  <text
     xml:space="preserve"
     style="font-size:40px;font-style:normal;font-variant:normal;font-weight:normal;font-stretch:normal;text-align:start;line-height:125%;letter-spacing:0px;word-spacing:0px;writing-mode:lr-tb;text-anchor:start;fill:#000000;fill-opacity:1;stroke:none;font-family:Times New Roman;-inkscape-font-specification:'Times New Roman,'"
     x="-421.29266"
     y="20.608488"
     id="text3967"
     sodipodi:linespacing="125%"
     transform="matrix(-0.01526106,-0.99988354,0.99988354,-0.01526106,0,0)"><tspan
       sodipodi:role="line"
       id="tspan3969"
       x="-421.29266"
       y="20.608488"
       style="font-size:28px">Maroc</tspan></text>
  <rect
     style="fill:#aaeeff;fill-opacity:1;stroke:#000000;stroke-width:0;stroke-linecap:round;stroke-linejoin:miter;stroke-miterlimit:4;stroke-opacity:1;stroke-dasharray:none;stroke-dashoffset:0"
     id="rect3971"
     width="846.97034"
     height="465.70569"
     x="-1.2574968"
     y="0.6606639"
     rx="10"
     ry="10" />
  <path
     inkscape:connector-curvature="0"
     id="path3973"
     d="m 841.78426,22.204474 -27.14042,-1.017765 c 0,0 -13.11786,-0.113085 -16.6235,1.35702 -3.50564,1.470106 -22.16467,3.505637 -23.86095,4.184148 -1.69627,0.67851 -13.5702,-0.339256 -19.56371,3.392551 -5.99351,3.731807 -15.94499,2.714042 -15.94499,2.714042 l -4.74958,1.696275 c 0,0 -2.82712,1.696276 -3.95797,1.017766 -1.13085,-0.67851 -13.68329,-7.915954 -13.68329,-7.915954 0,0 -3.16639,-0.90468 -5.99351,-0.90468 -2.82713,0 -7.35053,-2.261702 -7.35053,-2.261702 l -4.97574,0 c 0,0 -10.96925,0.113085 -11.64776,0.113085 -0.67851,0 -4.29724,-0.565425 -4.29724,0.452341 0,1.017765 -3.7318,7.011273 -3.95797,7.689784 -0.22617,0.67851 -8.14213,9.612229 -10.17766,10.51691 -2.03553,0.90468 -13.11787,5.993508 -14.92723,5.993508 -1.80936,0 -30.75913,-0.22617 -30.75913,-0.22617 0,0 -0.90468,0.67851 -1.69628,-1.017766 -0.79159,-1.696276 -5.76733,-6.445848 -6.55893,-7.011273 -0.7916,-0.565426 -2.37479,-1.243936 -2.94021,-1.243936 -0.56543,0 -8.25521,0.45234 -10.29074,1.017766 -2.03553,0.565425 -11.76085,2.148616 -15.60574,3.844891 -3.84489,1.696276 -28.61052,6.558934 -30.53296,6.445849 -1.92245,-0.113085 -16.17117,2.487871 -17.52819,2.487871 -1.35702,0 -31.7769,-1.357021 -32.22924,-1.357021 -0.45234,0 -17.98052,0.45234 -19.90297,0.45234 -1.92245,0 -11.53468,2.261702 -12.43936,2.261702 -0.90468,0 -7.46361,0.339255 -7.46361,0.339255 0,0 -0.33925,0 -4.5234,-1.583191 -4.18415,-1.583191 -5.99351,-2.035531 -7.12436,-2.035531 -1.13085,0 -11.08234,0.22617 -13.57021,0.339255 -2.48787,0.113085 -8.14212,0.113085 -9.95148,1.583191 -1.80936,1.470106 -3.73181,0.339255 -2.60096,2.035531 1.13085,1.696276 0.90468,4.410317 -1.01776,4.184147 -1.92245,-0.22617 -10.51691,4.410317 -11.19542,4.523402 -0.67851,0.113085 -5.65426,3.731807 -9.15989,4.636488 -3.50564,0.90468 -17.4151,9.159889 -17.4151,9.159889 l -17.30202,7.802869 -10.85616,3.053296 -42.63307,25.557223 c 0,0 -13.34403,9.72531 -13.90946,10.85616 -0.56542,1.13086 -5.65425,6.33277 -6.7851,6.55894 -1.13085,0.22617 -13.57021,5.20191 -13.57021,5.20191 0,0 -8.02904,4.29723 -9.8384,4.86266 -1.80936,0.56542 -7.23744,2.37478 -9.72531,2.37478 -2.48788,0 -6.21968,0.90468 -7.23745,-0.79159 -1.01776,-1.69628 -2.2617,-2.03553 -4.18415,-4.41032 -1.92244,-2.37478 -3.61872,-3.50564 -5.42808,-7.35053 -1.80936,-3.84489 -2.37478,-6.44585 -4.07106,-7.68978 -1.69628,-1.24394 -2.71404,-2.94021 -4.74957,-2.03553 -2.03553,0.90468 -2.2617,0.33925 -2.71404,1.92244 -0.45234,1.58319 -2.48787,4.18415 -3.16639,5.65426 -0.67851,1.4701 -1.4701,3.39255 -2.60095,4.5234 -1.13085,1.13085 -5.08883,2.94021 -6.33276,3.27947 -1.24394,0.33925 -2.71405,0.79159 -3.8449,3.27946 -1.13085,2.48787 -2.2617,5.65426 -3.7318,6.33277 -1.47011,0.67851 -5.42809,-1.24394 -8.93372,2.03553 -3.50564,3.27946 -5.76734,7.01127 -5.76734,7.01127 0,0 0.79159,-0.22617 -3.95798,-0.90468 -4.74957,-0.67851 -13.34403,-4.29723 -14.3618,-4.86266 -1.01777,-0.56542 -4.63649,-2.37478 -6.67202,-2.37478 -2.03553,0 -9.95148,-0.7916 -11.19542,-0.33926 -1.24393,0.45234 -3.0533,-1.47011 -5.76734,0.90468 -2.71404,2.37479 -8.48138,6.33276 -9.72531,8.59447 -1.24394,2.2617 -6.67202,7.91595 -8.25521,8.59446 -1.58319,0.67851 -8.82063,7.5767 -11.08234,10.06457 -2.2617,2.48787 -15.94499,16.05808 -16.73658,16.96276 -0.7916,0.90468 -5.315,6.55893 -6.33277,7.23744 -1.01776,0.67851 -7.802861,5.315 -7.802861,5.315 l -6.106597,6.55893 c 0,0 -3.844892,4.63649 -9.951485,5.54117 -6.106593,0.90468 -12.891697,3.84489 -19.111375,3.84489 -6.219678,0 -9.272975,1.92245 -13.117866,1.92245 -3.844892,0 -8.029039,-1.58319 -10.290741,0.45234 -2.261701,2.03553 -1.696275,4.74957 -7.124358,4.74957 -5.428083,0 -16.058078,1.35702 -17.302014,1.35702 -1.243935,0 -4.749572,1.13085 -8.0290387,2.71404 -3.2794667,1.58319 -3.3925517,12.77861 -3.3925517,12.77861 0,0 -0.4523403,6.1066 -0.4523403,9.27298 0,3.16638 11.0823357,17.4151 14.4748877,21.25999 3.392551,3.84489 9.272974,10.40382 7.463613,15.1534 -1.809361,4.74957 -2.940211,18.09361 -2.940211,20.12914 0,2.03553 7.011273,18.31978 7.011273,18.31978 0,0 3.618722,7.23744 3.618722,9.72531 0,2.48787 2.487871,15.1534 3.166382,17.4151 0.67851,2.2617 2.261701,6.33276 2.261701,8.82063 0,2.48788 0,30.3068 0,30.3068 l -4.523402,13.57021 0,48.85274 34.830197,-0.16963 771.975135,0.0566 z"
     style="fill:#e2e095;fill-opacity:1;stroke:#000000;stroke-width:1px;stroke-linecap:butt;stroke-linejoin:miter;stroke-opacity:1" />
  <path
     inkscape:connector-curvature="0"
     id="path3975"
     d="m 688.55401,68.569347 -20.58148,0.113085 -7.5767,-2.261701 -3.39255,0.565426 -5.315,5.428082 -2.37479,6.445848 0.11309,12.552442 7.01127,0.113085 1.24394,5.201916 1.58319,2.2617 3.16638,3.27946 2.94021,4.07107 0.45234,4.41031 9.61223,8.14213 2.94021,3.50563 0.7916,4.74958 c 0,0 1.4701,-0.33926 1.92244,-0.33926 0.45234,0 2.82713,-1.01777 3.0533,-2.03553 0.22617,-1.01777 0.45234,-6.10659 0.45234,-6.10659 l 3.39255,-11.08234 8.25521,-7.5767 7.23744,-9.951482 -0.45234,-6.785103 z"
     style="fill:#ff0000;fill-opacity:1;stroke:#000000;stroke-width:0;stroke-linecap:butt;stroke-linejoin:miter;stroke-miterlimit:4;stroke-opacity:1;stroke-dasharray:none" />
  <path
     inkscape:connector-curvature="0"
     id="path3977"
     d="m 682.78667,50.475738 -7.35053,0.791596 -4.5234,1.922446 0.11308,2.827126 3.39255,3.392552 2.48788,0.67851 4.74957,-3.053296 4.5234,-3.166382 z"
     style="fill:#ac939d;fill-opacity:1;stroke:#000000;stroke-width:0;stroke-linecap:butt;stroke-linejoin:miter;stroke-miterlimit:4;stroke-opacity:1;stroke-dasharray:none" />
  <path
     transform="matrix(0.75410749,0,0,0.69908487,165.79649,20.875722)"
     d="m 670.4813,84.56086 a 4.4103174,4.9191999 0 1 1 -8.82063,0 4.4103174,4.9191999 0 1 1 8.82063,0 z"
     sodipodi:ry="4.9191999"
     sodipodi:rx="4.4103174"
     sodipodi:cy="84.56086"
     sodipodi:cx="666.07098"
     id="path3979"
     style="fill:#000000;fill-opacity:1;stroke:#000000;stroke-width:6.94399977;stroke-linecap:round;stroke-linejoin:miter;stroke-miterlimit:4;stroke-opacity:1;stroke-dasharray:none;stroke-dashoffset:0"
     sodipodi:type="arc" />
  <path
     sodipodi:type="arc"
     style="fill:#000000;fill-opacity:1;stroke:#000000;stroke-width:6.94399977;stroke-linecap:round;stroke-linejoin:miter;stroke-miterlimit:4;stroke-opacity:1;stroke-dasharray:none;stroke-dashoffset:0"
     id="path3981"
     sodipodi:cx="666.07098"
     sodipodi:cy="84.56086"
     sodipodi:rx="4.4103174"
     sodipodi:ry="4.9191999"
     d="m 670.4813,84.56086 a 4.4103174,4.9191999 0 1 1 -8.82063,0 4.4103174,4.9191999 0 1 1 8.82063,0 z"
     transform="matrix(0.75410749,0,0,0.69908487,165.79649,20.875722)" />
  <path
     inkscape:connector-curvature="0"
     id="path3983"
     d="m 539.63473,53.833973 -1.19945,6.71691 0.47978,4.397977 4.95772,2.079043 c 0,0 5.99724,1.919117 7.8364,2.878676 1.83915,0.959558 6.63694,2.398896 8.71599,2.398896 2.07904,0 8.4761,0.159926 11.03492,0 2.55882,-0.159927 5.11764,-0.879595 5.99724,-0.319853 0.87959,0.559742 9.59558,7.676468 9.59558,7.676468 0,0 1.99908,1.599264 2.31894,1.599264 0.31985,0 7.67647,-0.959558 8.07628,-1.199448 0.39982,-0.239889 9.9954,-2.878675 10.47518,-2.878675 0.47978,0 2.23897,-0.639706 0.95956,-1.679228 -1.27941,-1.039521 -3.75827,-3.838234 -3.43842,-5.597424 0.31986,-1.759191 0.39982,-3.038602 2.31894,-3.918198 1.91911,-0.879595 8.63602,-4.158087 9.27573,-4.797792 0.6397,-0.639706 2.07904,-2.23897 2.07904,-3.678308 0,-1.439338 1.11949,-10.155328 1.11949,-10.155328 l -5.75435,-5.956291 -2.94022,-1.583191 -1.21566,0 -3.10984,0.05654 -3.50564,0.424069 -2.51614,0.282712 -2.31824,0.593697 -7.9725,1.639733 -2.17689,0.508883 -2.28997,0.650239 -1.44183,0.678511 -2.82713,0.763324 -8.00077,1.922446 -7.66151,1.639733 -8.00077,1.526648 -3.47736,0.593697 -1.89418,0.02827 -3.67526,0.508883 -9.81013,1.554919 z"
     style="fill:#ff7f2a;fill-opacity:1;stroke:#000000;stroke-width:0;stroke-linecap:butt;stroke-linejoin:miter;stroke-miterlimit:4;stroke-opacity:1;stroke-dasharray:none" />
  <path
     inkscape:connector-curvature="0"
     id="path3985"
     d="m 539.63473,53.194267 -0.47978,3.358455 -0.75965,3.918198 0.47978,4.278031 4.5579,2.119025 5.67739,1.919117 3.55836,1.519301 6.27712,1.959099 2.87867,0.199908 4.07813,0 2.87867,0.03998 3.43842,-0.23989 2.51884,-0.319853 1.75919,-0.199908 c 0,0 0.67969,0.03998 0.95956,0.07996 0.27987,0.03998 8.15625,6.71691 8.15625,6.71691 0,0 2.159,2.718749 3.4784,2.718749 1.31939,0 7.67647,-0.959558 7.67647,-0.959558 0,0 1.79917,-0.559743 1.99908,-0.639706 0.1999,-0.07996 2.39889,-0.759651 2.67876,-0.759651 0.27987,0 3.59835,-0.99954 3.59835,-0.99954 l 4.23805,-0.879595 c 0,0 1.11948,1.279412 1.11948,2.079044 0,0.799632 -2.07904,11.674629 -3.0386,14.233451 -0.95956,2.558816 -15.83272,13.433816 -19.19117,15.193006 -3.35846,1.75919 -18.39154,4.79779 -18.39154,4.79779 l -8.15625,0.31985 -6.0772,-0.95955 -7.03676,-6.23714 c 0,0 -0.79963,-0.47977 -2.71875,0 -1.91912,0.47979 -10.39522,3.51839 -11.19485,3.67831 -0.79963,0.15993 -3.83824,2.07905 -5.27757,0.95956 -1.43934,-1.11948 -4.95772,-3.67831 -5.4375,-3.0386 -0.47978,0.6397 -23.50919,2.3989 -23.50919,2.3989 l -12.79411,-10.39521 c 0,0 0.31985,-2.71875 -0.47978,-5.277573 -0.79963,-2.558823 -2.55882,-2.558823 -2.55882,-5.757351 0,-3.198528 -0.95956,-8.316174 -0.95956,-8.316174 l -1.11948,-7.356615 1.11948,-7.036763 -0.15993,-8.156247 -0.15992,-5.117646 0.23989,-0.199908 1.83915,-0.07996 18.95128,-0.599724 3.9182,0.07996 4.51792,0.399816 21.47012,0.719669 3.03861,0.279871 z"
     style="fill:#008080;fill-opacity:1;stroke:#000000;stroke-width:0;stroke-linecap:butt;stroke-linejoin:miter;stroke-miterlimit:4;stroke-opacity:1;stroke-dasharray:none" />
  <path
     transform="matrix(0.75410749,0,0,0.69908487,8.4288936,8.081607)"
     d="m 670.4813,84.56086 a 4.4103174,4.9191999 0 1 1 -8.82063,0 4.4103174,4.9191999 0 1 1 8.82063,0 z"
     sodipodi:ry="4.9191999"
     sodipodi:rx="4.4103174"
     sodipodi:cy="84.56086"
     sodipodi:cx="666.07098"
     id="path3987"
     style="fill:#000000;fill-opacity:1;stroke:#000000;stroke-width:6.94399977;stroke-linecap:round;stroke-linejoin:miter;stroke-miterlimit:4;stroke-opacity:1;stroke-dasharray:none;stroke-dashoffset:0"
     sodipodi:type="arc" />
  <path
     sodipodi:type="arc"
     style="fill:#000000;fill-opacity:1;stroke:#000000;stroke-width:6.94399977;stroke-linecap:round;stroke-linejoin:miter;stroke-miterlimit:4;stroke-opacity:1;stroke-dasharray:none;stroke-dashoffset:0"
     id="path3989"
     sodipodi:cx="666.07098"
     sodipodi:cy="84.56086"
     sodipodi:rx="4.4103174"
     sodipodi:ry="4.9191999"
     d="m 670.4813,84.56086 a 4.4103174,4.9191999 0 1 1 -8.82063,0 4.4103174,4.9191999 0 1 1 8.82063,0 z"
     transform="matrix(0.75410749,0,0,0.69908487,-68.437744,9.469159)" />
  <path
     inkscape:connector-curvature="0"
     id="path3991"
     d="m 483.02078,52.794451 -5.99724,1.199449 -3.27849,0.75965 -4.47794,0.199908 -4.358,0.279871 -10.03538,-3.438418 c 0,0 -0.63971,-0.03998 -0.83962,-0.03998 -0.1999,0 -2.07904,-0.07996 -2.07904,-0.07996 l -1.83915,-0.07996 -11.23483,0.279871 -3.83824,0.159927 c 0,0 -1.83915,0.319853 -2.5988,0.519761 -0.75965,0.199908 -2.07905,0.199908 -2.35892,0.75965 -0.27987,0.559743 -1.03952,1.799172 -0.67968,2.718749 0.35983,0.919577 3.0109,4.507347 3.0109,4.507347 0,0 0.56543,1.583191 0.56543,2.035531 0,0.452341 0.33925,4.184147 -0.33926,5.767338 -0.67851,1.583191 -5.54116,5.767338 -5.54116,5.767338 0,0 -2.14862,2.148616 -2.37479,2.827127 -0.22617,0.67851 -0.22617,2.374786 -0.22617,2.940211 0,0.565425 0.45234,3.844892 1.13085,4.975742 0.67851,1.130851 1.47011,4.410318 2.71404,4.749573 1.24394,0.339255 4.74957,1.35702 4.74957,1.35702 0,0 2.14862,0.113086 2.82713,-0.339255 0.67851,-0.45234 4.18415,-2.940211 5.76734,-3.618721 1.58319,-0.678511 1.92244,-2.487872 5.08883,-2.487872 3.16638,0 5.31499,-1.13085 5.88042,1.470106 0.56542,2.600956 -0.56543,7.124359 -0.56543,8.029039 0,0.904678 -2.60095,1.922447 -2.60095,4.297237 0,2.37478 1.01776,9.72531 1.01776,11.08233 0,1.35702 2.94021,5.08883 3.50564,5.54117 0.56543,0.45234 3.73181,3.0533 6.21968,3.0533 2.48787,0 4.5234,-1.01777 5.315,-1.69628 0.79159,-0.67851 6.89818,-6.7851 6.89818,-6.7851 l 4.18415,-5.20192 4.41032,-1.69627 3.73181,-0.67851 2.94388,-1.77678 -0.15993,-1.65924 c 0,0 0.13994,-1.27941 0.13994,-1.67922 0,-0.39982 -0.4398,-1.63925 -0.79964,-2.3989 -0.35983,-0.75965 -1.19944,-1.879135 -1.43933,-2.478859 -0.23989,-0.599724 -0.63971,-1.039522 -0.83962,-1.799172 -0.19991,-0.759651 -0.15992,-3.598345 -0.15992,-3.598345 l -2.03907,-13.233911 1.19945,-7.076744 -0.19991,-13.43382 z"
     style="fill:#ff00ff;fill-opacity:1;stroke:#000000;stroke-width:0;stroke-linecap:butt;stroke-linejoin:miter;stroke-miterlimit:4;stroke-opacity:1;stroke-dasharray:none" />
  <path
     transform="matrix(0.75410749,0,0,0.69908487,-68.437744,9.469159)"
     d="m 670.4813,84.56086 a 4.4103174,4.9191999 0 1 1 -8.82063,0 4.4103174,4.9191999 0 1 1 8.82063,0 z"
     sodipodi:ry="4.9191999"
     sodipodi:rx="4.4103174"
     sodipodi:cy="84.56086"
     sodipodi:cx="666.07098"
     id="path3993"
     style="fill:#000000;fill-opacity:1;stroke:#000000;stroke-width:6.94399977;stroke-linecap:round;stroke-linejoin:miter;stroke-miterlimit:4;stroke-opacity:1;stroke-dasharray:none;stroke-dashoffset:0"
     sodipodi:type="arc" />
  <path
     inkscape:connector-curvature="0"
     id="path3995"
     d="m 560.71135,123.13289 c 0,0 3.78835,-3.50564 4.01452,-4.63649 0.22617,-1.13085 0.56543,-3.73181 0.56543,-3.73181 l -0.45234,-1.30048 -3.33601,0.16963 -5.88043,-0.73505 -6.95473,-6.33276 -0.79159,-0.33926 -1.13085,0 -2.2617,0.67851 -10.34729,3.39255 -2.94021,1.13085 -2.48787,7.52016 c 0,0 -3.61872,3.95798 -4.01452,5.03228 -0.3958,1.07431 -1.30048,10.79963 -1.13085,11.53468 0.16963,0.73505 2.82713,5.03228 3.90143,5.37154 1.07431,0.33925 5.88043,2.20516 7.80287,0.96122 1.92245,-1.24393 4.9192,-4.24069 5.14537,-5.03228 0.22617,-0.7916 0.56543,-3.39255 1.63974,-4.29723 1.0743,-0.90468 4.63648,-3.39256 5.76733,-3.73181 1.13086,-0.33926 2.03554,-0.84814 4.29724,-1.30048 2.2617,-0.45234 4.5234,-1.07431 5.14537,-1.47011 0.62196,-0.39579 3.44909,-2.88366 3.44909,-2.88366 z"
     style="fill:#00ff66;fill-opacity:1;stroke:#000000;stroke-width:0;stroke-linecap:butt;stroke-linejoin:miter;stroke-miterlimit:4;stroke-opacity:1;stroke-dasharray:none" />
  <path
     transform="matrix(0.75410749,0,0,0.69908487,55.497263,83.957699)"
     d="m 670.4813,84.56086 a 4.4103174,4.9191999 0 1 1 -8.82063,0 4.4103174,4.9191999 0 1 1 8.82063,0 z"
     sodipodi:ry="4.9191999"
     sodipodi:rx="4.4103174"
     sodipodi:cy="84.56086"
     sodipodi:cx="666.07098"
     id="path3997"
     style="fill:#000000;fill-opacity:1;stroke:#000000;stroke-width:6.94399977;stroke-linecap:round;stroke-linejoin:miter;stroke-miterlimit:4;stroke-opacity:1;stroke-dasharray:none;stroke-dashoffset:0"
     sodipodi:type="arc" />
  <path
     inkscape:connector-curvature="0"
     id="path3999"
     d="m 599.0474,160.66482 c 0,0 -8.15625,-7.99632 -8.95588,-7.99632 -0.79964,0 -10.71507,-4.95772 -11.99449,-4.95772 -1.27941,0 -3.0386,-1.91912 -8.15624,-0.15993 -5.11765,1.7592 -14.87316,4.15809 -16.79228,4.63787 -1.91911,0.47978 -4.31801,0.31985 -3.51838,2.07904 0.79963,1.7592 4.95772,5.27758 4.95772,5.27758 l 0.95956,10.87499 0.31985,5.75735 c 0,0 4.63787,1.91912 6.55699,2.87868 1.91911,0.95956 5.43749,1.27941 7.67646,7.83639 2.23897,6.55699 2.07905,11.35478 2.07905,11.35478 l 9.59558,0.15993 c 0,0 10.07537,-7.19669 10.07537,-7.8364 0,-0.6397 5.4375,-2.55882 6.71691,-3.99816 1.27941,-1.43934 6.55698,-3.83823 6.55698,-5.27757 0,-1.43934 1.59926,-5.11765 1.75919,-6.87684 0.15993,-1.75919 0.47978,-6.39705 -1.27941,-7.35661 -1.75919,-0.95956 -3.19853,-2.55882 -3.99816,-2.87868 -0.79963,-0.31985 -2.55882,-3.51838 -2.55882,-3.51838 z"
     style="fill:#2affd5;fill-opacity:1;stroke:#000000;stroke-width:0;stroke-linecap:butt;stroke-linejoin:miter;stroke-miterlimit:4;stroke-opacity:1;stroke-dasharray:none" />
  <path
     inkscape:connector-curvature="0"
     id="path4001"
     d="m 486.13934,142.11336 -10.07536,-1.91912 c 0,0 -4.63787,3.35845 -5.27757,4.95772 -0.63971,1.59926 -3.67831,5.11764 -3.99816,8.31617 -0.31986,3.19853 -2.07905,9.91544 -2.07905,13.59375 0,3.67831 -2.23897,8.63602 1.91912,11.83455 4.15809,3.19853 7.03676,6.87684 8.95588,6.87684 1.91912,0 7.99632,0.95956 7.99632,0.95956 l 2.87868,6.55698 7.67646,13.43382 11.51471,-0.63971 c 0,0 0.31985,-10.07536 0.31985,-11.19484 0,-1.11949 1.11948,-9.91544 1.75919,-11.99449 0.63971,-2.07904 8.63603,-15.35293 8.63603,-15.35293 0,0 5.27757,-5.59743 4.31801,-5.75735 -0.95956,-0.15993 -5.91728,-3.51839 -7.99632,-4.47794 -2.07904,-0.95956 -13.11397,-6.87684 -13.11397,-6.87684 l -9.43566,-5.91728 z"
     style="fill:#ac939d;fill-opacity:1;stroke:#000000;stroke-width:0;stroke-linecap:butt;stroke-linejoin:miter;stroke-miterlimit:4;stroke-opacity:1;stroke-dasharray:none" />
  <path
     inkscape:connector-curvature="0"
     id="path4003"
     d="m 373.23129,85.179552 -8.63603,2.638786 -4.39797,0.879595 -22.30974,13.673707 -19.27113,11.59467 -1.75919,1.11948 -6.23713,6.79687 c 0,0 -1.75919,4.15809 -1.35938,5.19761 0.39982,1.03952 12.79412,2.87868 14.71323,2.55883 1.91912,-0.31986 18.39154,-0.55975 20.47059,-0.55975 2.07904,0 5.59742,-0.6397 6.31709,-2.95864 0.71967,-2.31893 5.75735,-5.27757 6.71691,-6.0772 0.95956,-0.79963 6.55698,-3.99816 6.55698,-3.99816 0,0 1.91912,-1.43934 2.79871,-3.27849 0.8796,-1.83916 6.39706,-8.15625 6.39706,-9.67555 0,-1.5193 1.03952,-9.195768 1.03952,-9.755511 0,-0.559742 -0.6397,-7.996321 -0.6397,-7.996321 z"
     style="fill:#ac939d;fill-opacity:1;stroke:#000000;stroke-width:0;stroke-linecap:butt;stroke-linejoin:miter;stroke-miterlimit:4;stroke-opacity:1;stroke-dasharray:none" />
  <path
     inkscape:connector-curvature="0"
     id="path4005"
     d="m 248.65314,135.17644 c -0.90468,-0.33925 -2.71404,-0.45234 -3.73181,-0.45234 -1.01776,0 -4.41032,1.35702 -4.97574,1.80937 -0.56543,0.45234 -5.315,4.63648 -5.315,4.63648 0,0 -3.27947,-0.90468 -3.61872,0.7916 -0.33926,1.69627 -0.11309,9.72531 0.22617,11.19542 0.33925,1.4701 5.315,3.27947 5.99351,3.39255 0.67851,0.11309 5.08882,1.13085 5.99351,1.01777 0.90468,-0.11309 7.35052,-3.61873 7.46361,-4.41032 0.11308,-0.7916 4.41032,-5.08883 4.41032,-6.55893 0,-1.47011 -1.13085,-5.54117 -1.58319,-5.76734 -0.45234,-0.22617 -4.86266,-5.65426 -4.86266,-5.65426 z"
     style="fill:#ac939d;fill-opacity:1;stroke:#000000;stroke-width:0;stroke-linecap:butt;stroke-linejoin:miter;stroke-miterlimit:4;stroke-opacity:1;stroke-dasharray:none" />
  <path
     inkscape:connector-curvature="0"
     id="path4007"
     d="m 398.81952,335.62432 c -4.31802,1.27942 -6.71691,2.23897 -11.03493,4.7978 -4.31801,2.55882 -7.83639,2.23897 -7.83639,4.79779 0,2.55882 -0.95956,11.99448 -0.95956,11.99448 0,0 1.27941,5.75735 4.79779,7.03676 3.51839,1.27942 13.2739,2.3989 14.39338,2.3989 1.11949,0 9.11581,-0.47978 9.75551,0.31985 0.63971,0.79964 4.95772,8.4761 5.4375,10.23529 0.47978,1.75919 3.83824,5.27758 3.83824,5.27758 0,0 3.99816,-0.95956 4.31801,-1.75919 0.31985,-0.79964 0.95956,-6.23713 0.95956,-6.23713 l 0,-10.71508 c 0,0 -1.59927,-7.03676 -1.91912,-7.67646 -0.31985,-0.63971 -2.07904,-7.35662 -2.23897,-7.99632 -0.15993,-0.63971 -2.87867,-3.99816 -4.79779,-4.95772 -1.91912,-0.95956 -6.87684,-4.15809 -6.87684,-4.15809 z"
     style="fill:#ac939d;fill-opacity:1;stroke:#000000;stroke-width:0;stroke-linecap:butt;stroke-linejoin:miter;stroke-miterlimit:4;stroke-opacity:1;stroke-dasharray:none" />
  <path
     inkscape:connector-curvature="0"
     id="path4009"
     d="m 9.238759,238.06921 c 0,0 18.551465,14.39338 19.830876,15.03308 1.279412,0.63971 1.599264,6.39706 0.319853,7.35662 -1.279411,0.95956 -4.158087,8.95588 -6.077204,10.23529 -1.919117,1.27941 -7.036762,0.6397 -7.036762,0.6397 0,0 -11.5147026,-14.07352 -11.1948498,-15.99264 0.3198529,-1.91911 4.1580868,-17.27205 4.1580868,-17.27205 z"
     style="fill:#ac939d;fill-opacity:1;stroke:#000000;stroke-width:0;stroke-linecap:butt;stroke-linejoin:miter;stroke-miterlimit:4;stroke-opacity:1;stroke-dasharray:none" />
  <path
     inkscape:connector-curvature="0"
     id="path4011"
     d="m 39.944632,264.93685 -15.992642,8.63602 5.117645,10.23529 c 0,0 1.279412,1.91912 1.599264,9.59559 0.319853,7.67647 -3.198528,14.07353 -3.198528,14.07353 l -1.279411,4.15808 c 0,0 1.919117,2.55882 6.077204,2.55882 4.158087,0 18.871317,1.59927 18.871317,1.59927 0,0 3.198529,-0.31985 8.95588,0.6397 5.757351,0.95956 19.830876,0.95956 23.349257,0.95956 3.518381,0 18.231612,-3.83823 19.830872,-4.47794 1.59927,-0.6397 5.4375,-4.15808 5.75735,-7.03676 0.31986,-2.87867 -0.6397,-7.35661 0.63971,-9.27573 1.27941,-1.91912 7.35662,-2.55882 7.99632,-6.07721 0.63971,-3.51838 -2.87867,-7.99632 -2.87867,-7.99632 0,0 -8.95588,-7.67646 -10.55515,-9.59558 -1.59926,-1.91912 -5.117641,-4.79779 -5.117641,-4.79779 0,0 -15.992644,-0.63971 -17.272055,-0.63971 -1.279411,0 -10.874997,-1.59926 -12.474261,-1.59926 -1.599264,0 -18.231612,-1.59927 -18.231612,-1.59927 z"
     style="fill:#ac939d;fill-opacity:1;stroke:#000000;stroke-width:0;stroke-linecap:butt;stroke-linejoin:miter;stroke-miterlimit:4;stroke-opacity:1;stroke-dasharray:none" />
  <path
     sodipodi:type="arc"
     style="fill:#000000;fill-opacity:1;stroke:#000000;stroke-width:6.94399977;stroke-linecap:round;stroke-linejoin:miter;stroke-miterlimit:4;stroke-opacity:1;stroke-dasharray:none;stroke-dashoffset:0"
     id="path4013"
     sodipodi:cx="666.07098"
     sodipodi:cy="84.56086"
     sodipodi:rx="4.4103174"
     sodipodi:ry="4.9191999"
     d="m 670.4813,84.56086 a 4.4103174,4.9191999 0 1 1 -8.82063,0 4.4103174,4.9191999 0 1 1 8.82063,0 z"
     transform="matrix(0.75410749,0,0,0.69908487,-143.07388,183.62015)" />
  <path
     transform="matrix(0.75410749,0,0,0.69908487,-393.67036,199.45206)"
     d="m 670.4813,84.56086 a 4.4103174,4.9191999 0 1 1 -8.82063,0 4.4103174,4.9191999 0 1 1 8.82063,0 z"
     sodipodi:ry="4.9191999"
     sodipodi:rx="4.4103174"
     sodipodi:cy="84.56086"
     sodipodi:cx="666.07098"
     id="path4015"
     style="fill:#000000;fill-opacity:1;stroke:#000000;stroke-width:6.94399977;stroke-linecap:round;stroke-linejoin:miter;stroke-miterlimit:4;stroke-opacity:1;stroke-dasharray:none;stroke-dashoffset:0"
     sodipodi:type="arc" />
  <path
     sodipodi:type="arc"
     style="fill:#000000;fill-opacity:1;stroke:#000000;stroke-width:6.94399977;stroke-linecap:round;stroke-linejoin:miter;stroke-miterlimit:4;stroke-opacity:1;stroke-dasharray:none;stroke-dashoffset:0"
     id="path4017"
     sodipodi:cx="666.07098"
     sodipodi:cy="84.56086"
     sodipodi:rx="4.4103174"
     sodipodi:ry="4.9191999"
     d="m 670.4813,84.56086 a 4.4103174,4.9191999 0 1 1 -8.82063,0 4.4103174,4.9191999 0 1 1 8.82063,0 z"
     transform="matrix(0.75410749,0,0,0.69908487,49.170721,193.57164)" />
  <path
     transform="matrix(0.75410749,0,0,0.69908487,55.503484,85.009987)"
     d="m 670.4813,84.56086 a 4.4103174,4.9191999 0 1 1 -8.82063,0 4.4103174,4.9191999 0 1 1 8.82063,0 z"
     sodipodi:ry="4.9191999"
     sodipodi:rx="4.4103174"
     sodipodi:cy="84.56086"
     sodipodi:cx="666.07098"
     id="path4019"
     style="fill:#000000;fill-opacity:1;stroke:#000000;stroke-width:6.94399977;stroke-linecap:round;stroke-linejoin:miter;stroke-miterlimit:4;stroke-opacity:1;stroke-dasharray:none;stroke-dashoffset:0"
     sodipodi:type="arc" />
  <path
     sodipodi:type="arc"
     style="fill:#000000;fill-opacity:1;stroke:#000000;stroke-width:6.94399977;stroke-linecap:round;stroke-linejoin:miter;stroke-miterlimit:4;stroke-opacity:1;stroke-dasharray:none;stroke-dashoffset:0"
     id="path4021"
     sodipodi:cx="666.07098"
     sodipodi:cy="84.56086"
     sodipodi:rx="4.4103174"
     sodipodi:ry="4.9191999"
     d="m 670.4813,84.56086 a 4.4103174,4.9191999 0 1 1 -8.82063,0 4.4103174,4.9191999 0 1 1 8.82063,0 z"
     transform="matrix(0.75410749,0,0,0.69908487,165.42216,90.89041)" />
  <path
     transform="matrix(0.75410749,0,0,0.69908487,23.839668,280.42096)"
     d="m 670.4813,84.56086 a 4.4103174,4.9191999 0 1 1 -8.82063,0 4.4103174,4.9191999 0 1 1 8.82063,0 z"
     sodipodi:ry="4.9191999"
     sodipodi:rx="4.4103174"
     sodipodi:cy="84.56086"
     sodipodi:cx="666.07098"
     id="path4023"
     style="fill:#000000;fill-opacity:1;stroke:#000000;stroke-width:6.94399977;stroke-linecap:round;stroke-linejoin:miter;stroke-miterlimit:4;stroke-opacity:1;stroke-dasharray:none;stroke-dashoffset:0"
     sodipodi:type="arc" />
  <path
     sodipodi:type="arc"
     style="fill:#000000;fill-opacity:1;stroke:#000000;stroke-width:6.94399977;stroke-linecap:round;stroke-linejoin:miter;stroke-miterlimit:4;stroke-opacity:1;stroke-dasharray:none;stroke-dashoffset:0"
     id="path4025"
     sodipodi:cx="666.07098"
     sodipodi:cy="84.56086"
     sodipodi:rx="4.4103174"
     sodipodi:ry="4.9191999"
     d="m 670.4813,84.56086 a 4.4103174,4.9191999 0 1 1 -8.82063,0 4.4103174,4.9191999 0 1 1 8.82063,0 z"
     transform="matrix(0.75410749,0,0,0.69908487,-49.891789,322.4886)" />
  <path
     transform="matrix(0.75410749,0,0,0.69908487,-221.78108,267.30309)"
     d="m 670.4813,84.56086 a 4.4103174,4.9191999 0 1 1 -8.82063,0 4.4103174,4.9191999 0 1 1 8.82063,0 z"
     sodipodi:ry="4.9191999"
     sodipodi:rx="4.4103174"
     sodipodi:cy="84.56086"
     sodipodi:cx="666.07098"
     id="path4027"
     style="fill:#000000;fill-opacity:1;stroke:#000000;stroke-width:6.94399977;stroke-linecap:round;stroke-linejoin:miter;stroke-miterlimit:4;stroke-opacity:1;stroke-dasharray:none;stroke-dashoffset:0"
     sodipodi:type="arc" />
  <path
     sodipodi:type="arc"
     style="fill:#000000;fill-opacity:1;stroke:#000000;stroke-width:6.94399977;stroke-linecap:round;stroke-linejoin:miter;stroke-miterlimit:4;stroke-opacity:1;stroke-dasharray:none;stroke-dashoffset:0"
     id="path4029"
     sodipodi:cx="666.07098"
     sodipodi:cy="84.56086"
     sodipodi:rx="4.4103174"
     sodipodi:ry="4.9191999"
     d="m 670.4813,84.56086 a 4.4103174,4.9191999 0 1 1 -8.82063,0 4.4103174,4.9191999 0 1 1 8.82063,0 z"
     transform="matrix(1.5107029,0,0,1.2854578,-817.5524,53.97173)" />
  <path
     transform="matrix(1.5107029,0,0,1.2854578,-288.31434,-56.399285)"
     d="m 670.4813,84.56086 a 4.4103174,4.9191999 0 1 1 -8.82063,0 4.4103174,4.9191999 0 1 1 8.82063,0 z"
     sodipodi:ry="4.9191999"
     sodipodi:rx="4.4103174"
     sodipodi:cy="84.56086"
     sodipodi:cx="666.07098"
     id="path4031"
     style="fill:#000000;fill-opacity:1;stroke:#000000;stroke-width:6.94399977;stroke-linecap:round;stroke-linejoin:miter;stroke-miterlimit:4;stroke-opacity:1;stroke-dasharray:none;stroke-dashoffset:0"
     sodipodi:type="arc" />
  <text
     sodipodi:linespacing="125%"
     id="text4033"
     y="26.873133"
     x="660.54047"
     style="font-size:36px;font-style:normal;font-variant:normal;font-weight:normal;font-stretch:normal;text-align:start;line-height:125%;letter-spacing:0px;word-spacing:0px;writing-mode:lr-tb;text-anchor:start;fill:#000000;fill-opacity:1;stroke:none;font-family:Times New Roman;-inkscape-font-specification:'Times New Roman,'"
     xml:space="preserve"><tspan
       y="26.873133"
       x="660.54047"
       id="tspan4035"
       sodipodi:role="line">Algiers</tspan></text>
  <text
     sodipodi:linespacing="125%"
     id="text4037"
     y="178.89644"
     x="671.97388"
     style="font-size:40px;font-style:normal;font-variant:normal;font-weight:normal;font-stretch:normal;text-align:start;line-height:125%;letter-spacing:0px;word-spacing:0px;writing-mode:lr-tb;text-anchor:start;fill:#000000;fill-opacity:1;stroke:none;font-family:Times New Roman;-inkscape-font-specification:'Times New Roman,'"
     xml:space="preserve"><tspan
       style="font-size:28px"
       y="178.89644"
       x="671.97388"
       id="tspan4039"
       sodipodi:role="line">Médéa</tspan></text>
  <text
     sodipodi:linespacing="125%"
     id="text4041"
     y="152.02881"
     x="572.17975"
     style="font-size:28px;font-style:normal;font-variant:normal;font-weight:normal;font-stretch:normal;text-align:start;line-height:125%;letter-spacing:0px;word-spacing:0px;writing-mode:lr-tb;text-anchor:start;fill:#000000;fill-opacity:1;stroke:none;font-family:Times New Roman;-inkscape-font-specification:'Times New Roman,'"
     xml:space="preserve"><tspan
       y="152.02881"
       x="572.17975"
       id="tspan4043"
       sodipodi:role="line">Miliana</tspan></text>
  <text
     sodipodi:linespacing="125%"
     id="text4045"
     y="112.36704"
     x="601.60626"
     style="font-size:28px;font-style:normal;font-variant:normal;font-weight:normal;font-stretch:normal;text-align:start;line-height:125%;letter-spacing:0px;word-spacing:0px;writing-mode:lr-tb;text-anchor:start;fill:#000000;fill-opacity:1;stroke:none;font-family:Times New Roman;-inkscape-font-specification:'Times New Roman,'"
     xml:space="preserve"><tspan
       y="112.36704"
       x="601.60626"
       id="tspan4047"
       sodipodi:role="line">Blida</tspan></text>
  <text
     sodipodi:linespacing="125%"
     id="text4049"
     y="45.711216"
     x="466.24362"
     style="font-size:28px;font-style:normal;font-variant:normal;font-weight:normal;font-stretch:normal;text-align:start;line-height:125%;letter-spacing:0px;word-spacing:0px;writing-mode:lr-tb;text-anchor:start;fill:#000000;fill-opacity:1;stroke:none;font-family:Times New Roman;-inkscape-font-specification:'Times New Roman,'"
     xml:space="preserve"><tspan
       y="45.711216"
       x="466.24362"
       id="tspan4051"
       sodipodi:role="line">Cherchel</tspan></text>
  <text
     sodipodi:linespacing="125%"
     id="text4053"
     y="49.364471"
     x="371.60776"
     style="font-size:28px;font-style:normal;font-variant:normal;font-weight:normal;font-stretch:normal;text-align:start;line-height:125%;letter-spacing:0px;word-spacing:0px;writing-mode:lr-tb;text-anchor:start;fill:#000000;fill-opacity:1;stroke:none;font-family:Times New Roman;-inkscape-font-specification:'Times New Roman,'"
     xml:space="preserve"><tspan
       y="49.364471"
       x="371.60776"
       id="tspan4055"
       sodipodi:role="line">Tenes</tspan></text>
  <text
     sodipodi:linespacing="125%"
     id="text4057"
     y="281.24933"
     x="480.06213"
     style="font-size:28px;font-style:normal;font-variant:normal;font-weight:normal;font-stretch:normal;text-align:start;line-height:125%;letter-spacing:0px;word-spacing:0px;writing-mode:lr-tb;text-anchor:start;fill:#000000;fill-opacity:1;stroke:none;font-family:Times New Roman;-inkscape-font-specification:'Times New Roman,'"
     xml:space="preserve"><tspan
       y="281.24933"
       x="480.06213"
       id="tspan4059"
       sodipodi:role="line">Teniet El-Had</tspan></text>
  <text
     sodipodi:linespacing="125%"
     id="text4061"
     y="359.29343"
     x="538.9151"
     style="font-size:28px;font-style:normal;font-variant:normal;font-weight:normal;font-stretch:normal;text-align:start;line-height:125%;letter-spacing:0px;word-spacing:0px;writing-mode:lr-tb;text-anchor:start;fill:#000000;fill-opacity:1;stroke:none;font-family:Times New Roman;-inkscape-font-specification:'Times New Roman,'"
     xml:space="preserve"><tspan
       y="359.29343"
       x="538.9151"
       id="tspan4063"
       sodipodi:role="line">Tiaret</tspan></text>
  <text
     sodipodi:linespacing="125%"
     id="text4065"
     y="411.74927"
     x="458.31213"
     style="font-size:28px;font-style:normal;font-variant:normal;font-weight:normal;font-stretch:normal;text-align:start;line-height:125%;letter-spacing:0px;word-spacing:0px;writing-mode:lr-tb;text-anchor:start;fill:#000000;fill-opacity:1;stroke:none;font-family:Times New Roman;-inkscape-font-specification:'Times New Roman,'"
     xml:space="preserve"><tspan
       y="411.74927"
       x="458.31213"
       id="tspan4067"
       sodipodi:role="line">Frenda</tspan></text>
  <text
     sodipodi:linespacing="125%"
     id="text4069"
     y="276.13171"
     x="291.98868"
     style="font-size:28px;font-style:normal;font-variant:normal;font-weight:normal;font-stretch:normal;text-align:start;line-height:125%;letter-spacing:0px;word-spacing:0px;writing-mode:lr-tb;text-anchor:start;fill:#000000;fill-opacity:1;stroke:none;font-family:Times New Roman;-inkscape-font-specification:'Times New Roman,'"
     xml:space="preserve"><tspan
       y="276.13171"
       x="291.98868"
       id="tspan4071"
       sodipodi:role="line">Relizane</tspan></text>
  <text
     sodipodi:linespacing="125%"
     id="text4073"
     y="358.01401"
     x="211.38574"
     style="font-size:28px;font-style:normal;font-variant:normal;font-weight:normal;font-stretch:normal;text-align:start;line-height:125%;letter-spacing:0px;word-spacing:0px;writing-mode:lr-tb;text-anchor:start;fill:#000000;fill-opacity:1;stroke:none;font-family:Times New Roman;-inkscape-font-specification:'Times New Roman,'"
     xml:space="preserve"><tspan
       y="358.01401"
       x="211.38574"
       id="tspan4075"
       sodipodi:role="line">Mascara</tspan></text>
  <text
     sodipodi:linespacing="125%"
     id="text4077"
     y="279.89774"
     x="119.63594"
     style="font-size:28px;font-style:normal;font-variant:normal;font-weight:normal;font-stretch:normal;text-align:start;line-height:125%;letter-spacing:0px;word-spacing:0px;writing-mode:lr-tb;text-anchor:start;fill:#000000;fill-opacity:1;stroke:none;font-family:Times New Roman;-inkscape-font-specification:'Times New Roman,'"
     xml:space="preserve"><tspan
       y="279.89774"
       x="119.63594"
       id="tspan4079"
       sodipodi:role="line">Tlemcen</tspan></text>
  <text
     sodipodi:linespacing="125%"
     id="text4081"
     y="141.79352"
     x="141.01813"
     style="font-size:36px;font-style:normal;font-variant:normal;font-weight:normal;font-stretch:normal;text-align:start;line-height:125%;letter-spacing:0px;word-spacing:0px;writing-mode:lr-tb;text-anchor:start;fill:#000000;fill-opacity:1;stroke:none;font-family:Times New Roman;-inkscape-font-specification:'Times New Roman,'"
     xml:space="preserve"><tspan
       y="141.79352"
       x="141.01813"
       id="tspan4083"
       sodipodi:role="line">Oran</tspan></text>
  <text
     sodipodi:linespacing="125%"
     id="text4085"
     y="245.42586"
     x="32.268166"
     style="font-size:24px;font-style:normal;font-variant:normal;font-weight:normal;font-stretch:normal;text-align:start;line-height:125%;letter-spacing:0px;word-spacing:0px;writing-mode:lr-tb;text-anchor:start;fill:#800000;fill-opacity:1;stroke:none;font-family:Times New Roman;-inkscape-font-specification:'Times New Roman,'"
     xml:space="preserve"><tspan
       style="font-size:22px"
       y="245.42586"
       x="32.268166"
       id="tspan4087"
       sodipodi:role="line">Marsa Ben Mhidi</tspan></text>
  <text
     sodipodi:linespacing="125%"
     id="text4089"
     y="337.54343"
     x="42.503452"
     style="font-size:24px;font-style:normal;font-variant:normal;font-weight:normal;font-stretch:normal;text-align:start;line-height:125%;letter-spacing:0px;word-spacing:0px;writing-mode:lr-tb;text-anchor:start;fill:#800000;fill-opacity:1;stroke:none;font-family:Times New Roman;-inkscape-font-specification:'Times New Roman,'"
     xml:space="preserve"><tspan
       y="337.54343"
       x="42.503452"
       id="tspan4091"
       sodipodi:role="line">At Snus</tspan><tspan
       id="tspan4093"
       y="367.54343"
       x="42.503452"
       sodipodi:role="line" /></text>
  <text
     sodipodi:linespacing="125%"
     id="text4095"
     y="358.01401"
     x="43.782867"
     style="font-size:24px;font-style:normal;font-variant:normal;font-weight:normal;font-stretch:normal;text-align:start;line-height:125%;letter-spacing:0px;word-spacing:0px;writing-mode:lr-tb;text-anchor:start;fill:#800000;fill-opacity:1;stroke:none;font-family:Times New Roman;-inkscape-font-specification:'Times New Roman,'"
     xml:space="preserve"><tspan
       y="358.01401"
       x="43.782867"
       id="tspan4097"
       sodipodi:role="line">At Bu Said</tspan></text>
  <text
     sodipodi:linespacing="125%"
     id="text4099"
     y="180.17586"
     x="210.10634"
     style="font-size:24px;font-style:normal;font-variant:normal;font-weight:normal;font-stretch:normal;text-align:start;line-height:125%;letter-spacing:0px;word-spacing:0px;writing-mode:lr-tb;text-anchor:start;fill:#800000;fill-opacity:1;stroke:none;font-family:Times New Roman;-inkscape-font-specification:'Times New Roman,'"
     xml:space="preserve"><tspan
       y="180.17586"
       x="210.10634"
       id="tspan4101"
       sodipodi:role="line">Bettioua</tspan></text>
  <text
     sodipodi:linespacing="125%"
     id="text4103"
     y="150.74939"
     x="303.50336"
     style="font-size:24px;font-style:normal;font-variant:normal;font-weight:normal;font-stretch:normal;text-align:start;line-height:125%;letter-spacing:0px;word-spacing:0px;writing-mode:lr-tb;text-anchor:start;fill:#800000;fill-opacity:1;stroke:none;font-family:Times New Roman;-inkscape-font-specification:'Times New Roman,'"
     xml:space="preserve"><tspan
       y="150.74939"
       x="303.50336"
       id="tspan4105"
       sodipodi:role="line">Achaacha</tspan></text>
  <text
     sodipodi:linespacing="125%"
     id="text4107"
     y="327.30814"
     x="343.1651"
     style="font-size:40px;font-style:normal;font-variant:normal;font-weight:normal;font-stretch:normal;text-align:start;line-height:125%;letter-spacing:0px;word-spacing:0px;writing-mode:lr-tb;text-anchor:start;fill:#000000;fill-opacity:1;stroke:none;font-family:Times New Roman;-inkscape-font-specification:'Times New Roman,'"
     xml:space="preserve"><tspan
       style="font-size:24px;fill:#800000"
       y="327.30814"
       x="343.1651"
       id="tspan4109"
       sodipodi:role="line">At Hlima</tspan></text>
  <text
     sodipodi:linespacing="125%"
     id="text4111"
     y="214.71997"
     x="587.53271"
     style="font-size:24px;font-style:normal;font-variant:normal;font-weight:normal;font-stretch:normal;text-align:start;line-height:125%;letter-spacing:0px;word-spacing:0px;writing-mode:lr-tb;text-anchor:start;fill:#800000;fill-opacity:1;stroke:none;font-family:Times New Roman;-inkscape-font-specification:'Times New Roman,'"
     xml:space="preserve"><tspan
       id="tspan4113"
       y="214.71997"
       x="587.53271"
       sodipodi:role="line">Haraoua,</tspan></text>
  <text
     sodipodi:linespacing="125%"
     id="text4115"
     y="232.63171"
     x="586.2533"
     style="font-size:24px;font-style:normal;font-variant:normal;font-weight:normal;font-stretch:normal;text-align:start;line-height:125%;letter-spacing:0px;word-spacing:0px;writing-mode:lr-tb;text-anchor:start;fill:#800000;fill-opacity:1;stroke:none;font-family:Times New Roman;-inkscape-font-specification:'Times New Roman,'"
     xml:space="preserve"><tspan
       y="232.63171"
       x="586.2533"
       id="tspan4117"
       sodipodi:role="line">Matmata</tspan></text>
  <text
     sodipodi:linespacing="125%"
     id="text4119"
     y="128.99939"
     x="531.23859"
     style="font-size:24px;font-style:normal;font-variant:normal;font-weight:normal;font-stretch:normal;text-align:start;line-height:125%;letter-spacing:0px;word-spacing:0px;writing-mode:lr-tb;text-anchor:start;fill:#800000;fill-opacity:1;stroke:none;font-family:Times New Roman;-inkscape-font-specification:'Times New Roman,'"
     xml:space="preserve"><tspan
       y="128.99939"
       x="531.23859"
       id="tspan4121"
       sodipodi:role="line">At Frah</tspan></text>
  <text
     sodipodi:linespacing="125%"
     id="text4123"
     y="94.455284"
     x="486.4592"
     style="font-size:24px;font-style:normal;font-variant:normal;font-weight:normal;font-stretch:normal;text-align:start;line-height:125%;letter-spacing:0px;word-spacing:0px;writing-mode:lr-tb;text-anchor:start;fill:#800000;fill-opacity:1;stroke:none;font-family:Times New Roman;-inkscape-font-specification:'Times New Roman,'"
     xml:space="preserve"><tspan
       y="94.455284"
       x="486.4592"
       id="tspan4125"
       sodipodi:role="line">At Menaser</tspan></text>
  <text
     sodipodi:linespacing="125%"
     id="text4127"
     y="107.24941"
     x="422.48862"
     style="font-size:24px;font-style:normal;font-variant:normal;font-weight:normal;font-stretch:normal;text-align:start;line-height:125%;letter-spacing:0px;word-spacing:0px;writing-mode:lr-tb;text-anchor:start;fill:#800000;fill-opacity:1;stroke:none;font-family:Times New Roman;-inkscape-font-specification:'Times New Roman,'"
     xml:space="preserve"><tspan
       y="107.24941"
       x="422.48862"
       id="tspan4129"
       sodipodi:role="line">Bissa</tspan></text>
  <path
     inkscape:connector-curvature="0"
     id="path4131"
     d="m 5.4071829,236.83991 -3.957977,0.22617 0.1130851,220.85512 33.360092,0.22617 -0.226171,-27.02733 0,-22.16467 4.749573,-13.45713 0,-29.74137 -0.339255,-2.2617 -1.809361,-6.55893 -1.357021,-5.65425 c 0,0 -1.13085,-5.42809 -1.13085,-5.88043 0,-0.45234 -1.017766,-4.86265 -1.017766,-5.76733 0,-0.90468 -1.017765,-4.41032 -1.357021,-5.08883 -0.339255,-0.67851 -3.731806,-8.70755 -3.731806,-8.70755 l -2.148617,-5.76734 -3.279466,-8.70755 0.22617,-2.71404 0.45234,-4.5234 0.565425,-4.5234 0.678511,-4.86266 c 0,0 0,-1.92245 0.791595,-2.71404 0.791596,-0.7916 0.565425,-3.39255 0.565425,-3.39255 0,0 -0.565425,-3.16639 -1.017765,-3.61873 -0.45234,-0.45234 -3.392552,-5.08882 -3.392552,-5.08882 0,0 -6.106593,-6.89819 -6.332763,-7.46362 -0.22617,-0.56542 -7.6897837,-10.74308 -7.6897837,-10.74308 0,0 -3.5056368,-5.42808 -3.5056368,-5.88042 0,-0.45234 -0.9046804,-2.14862 -0.5654253,-2.71404 0.3392552,-0.56543 0.7915954,-7.68979 0.7915954,-7.68979 z"
     style="fill:#ffd5d5;stroke:#000000;stroke-width:1px;stroke-linecap:butt;stroke-linejoin:miter;stroke-opacity:1" />
  <text
     transform="matrix(-0.01526106,-0.99988354,0.99988354,-0.01526106,0,0)"
     sodipodi:linespacing="125%"
     id="text4133"
     y="17.295851"
     x="-425.57187"
     style="font-size:40px;font-style:normal;font-variant:normal;font-weight:normal;font-stretch:normal;text-align:start;line-height:125%;letter-spacing:0px;word-spacing:0px;writing-mode:lr-tb;text-anchor:start;fill:#000000;fill-opacity:1;stroke:none;font-family:Times New Roman;-inkscape-font-specification:'Times New Roman,'"
     xml:space="preserve"><tspan
       style="font-size:28px"
       y="17.295851"
       x="-425.57187"
       id="tspan4135"
       sodipodi:role="line">Morocco</tspan></text>
  <text
     xml:space="preserve"
     style="font-size:40px;font-style:normal;font-variant:normal;font-weight:normal;font-stretch:normal;text-align:start;line-height:125%;letter-spacing:0px;word-spacing:0px;writing-mode:lr-tb;text-anchor:start;fill:#000000;fill-opacity:1;stroke:none;font-family:Times New Roman;-inkscape-font-specification:'Times New Roman,'"
     x="543.66589"
     y="68.604851"
     id="text3153"
     sodipodi:linespacing="125%"><tspan
       sodipodi:role="line"
       id="tspan3155"
       x="543.66589"
       y="68.604851"
       style="font-size:24px;fill:#800000">Chenoua</tspan></text>
  <text
     xml:space="preserve"
     style="font-size:24px;font-style:normal;font-variant:normal;font-weight:normal;font-stretch:normal;text-align:start;line-height:125%;letter-spacing:0px;word-spacing:0px;writing-mode:lr-tb;text-anchor:start;fill:#800000;fill-opacity:1;stroke:none;font-family:Times New Roman;-inkscape-font-specification:'Times New Roman,'"
     x="694.64392"
     y="109.25278"
     id="text3157"
     sodipodi:linespacing="125%"><tspan
       sodipodi:role="line"
       id="tspan3159"
       x="694.64392"
       y="109.25278">At Salah</tspan></text>
  <text
     xml:space="preserve"
     style="font-size:24px;font-style:normal;font-variant:normal;font-weight:normal;font-stretch:normal;text-align:start;line-height:125%;letter-spacing:0px;word-spacing:0px;writing-mode:lr-tb;text-anchor:start;fill:#800000;fill-opacity:1;stroke:none;font-family:Times New Roman;-inkscape-font-specification:'Times New Roman,'"
     x="686.65948"
     y="128.85088"
     id="text3161"
     sodipodi:linespacing="125%"><tspan
       sodipodi:role="line"
       id="tspan3163"
       x="686.65948"
       y="128.85088">At Misra</tspan></text>
  <text
     xml:space="preserve"
     style="font-size:24px;font-style:normal;font-variant:normal;font-weight:normal;font-stretch:normal;text-align:start;line-height:125%;letter-spacing:0px;word-spacing:0px;writing-mode:lr-tb;text-anchor:start;fill:#aa0000;fill-opacity:1;stroke:none;font-family:Times New Roman;-inkscape-font-specification:'Times New Roman,'"
     x="625.91681"
     y="48.303284"
     id="text3159"
     sodipodi:linespacing="125%"><tspan
       sodipodi:role="line"
       id="tspan3161"
       x="625.91681"
       y="48.303284">Tixerain</tspan></text>
  <text
     xml:space="preserve"
     style="font-size:40px;font-style:normal;font-variant:normal;font-weight:normal;font-stretch:normal;text-align:start;line-height:125%;letter-spacing:0px;word-spacing:0px;writing-mode:lr-tb;text-anchor:start;fill:#000000;fill-opacity:1;stroke:none;font-family:Times New Roman;-inkscape-font-specification:'Times New Roman,'"
     x="362.50836"
     y="198.94394"
     id="text3162"
     sodipodi:linespacing="125%"><tspan
       sodipodi:role="line"
       id="tspan3164"
       x="362.50836"
       y="198.94394"><tspan
         style="font-size:24px"
         id="tspan3166"><tspan
           style="fill:#800000"
           id="tspan3172">Dialects of   </tspan></tspan></tspan></text>
  <text
     xml:space="preserve"
     style="font-size:24.86770248px;font-style:normal;font-variant:normal;font-weight:normal;font-stretch:normal;text-align:start;line-height:125%;letter-spacing:0px;word-spacing:0px;writing-mode:lr-tb;text-anchor:start;fill:#000000;fill-opacity:1;stroke:none;font-family:Times New Roman;-inkscape-font-specification:'Times New Roman,'"
     x="379.59836"
     y="213.56177"
     id="text3168"
     sodipodi:linespacing="125%"
     transform="scale(0.96510723,1.0361543)"><tspan
       sodipodi:role="line"
       id="tspan3170"
       x="379.59836"
       y="213.56177"
       style="fill:#800000">Ouarsenis</tspan></text>
  <text
     xml:space="preserve"
     style="font-size:40px;font-style:normal;font-variant:normal;font-weight:normal;font-stretch:normal;text-align:start;line-height:125%;letter-spacing:0px;word-spacing:0px;writing-mode:lr-tb;text-anchor:start;fill:#000000;fill-opacity:1;stroke:none;font-family:Times New Roman;-inkscape-font-specification:'Times New Roman,'"
     x="299.74103"
     y="167.42857"
     id="text3167-7"
     sodipodi:linespacing="125%"><tspan
       sodipodi:role="line"
       id="tspan3169-7"
       x="299.74103"
       y="167.42857"
       style="font-size:20px;fill:#0000ff">extinguished ?</tspan></text>
  <text
     xml:space="preserve"
     style="font-size:40px;font-style:normal;font-variant:normal;font-weight:normal;font-stretch:normal;text-align:start;line-height:125%;letter-spacing:0px;word-spacing:0px;writing-mode:lr-tb;text-anchor:start;fill:#000000;fill-opacity:1;stroke:none;font-family:Times New Roman;-inkscape-font-specification:'Times New Roman,'"
     x="196.48297"
     y="196.74753"
     id="text3167-7-1"
     sodipodi:linespacing="125%"><tspan
       sodipodi:role="line"
       id="tspan3169-7-7"
       x="196.48297"
       y="196.74753"
       style="font-size:20px;fill:#0000ff">extinguished ?</tspan></text>
  <text
     xml:space="preserve"
     style="font-size:40px;font-style:normal;font-variant:normal;font-weight:normal;font-stretch:normal;text-align:start;line-height:125%;letter-spacing:0px;word-spacing:0px;writing-mode:lr-tb;text-anchor:start;fill:#000000;fill-opacity:1;stroke:none;font-family:Times New Roman;-inkscape-font-specification:'Times New Roman,'"
     x="42.27253"
     y="261.03378"
     id="text3167-7-4"
     sodipodi:linespacing="125%"><tspan
       sodipodi:role="line"
       id="tspan3169-7-0"
       x="42.27253"
       y="261.03378"
       style="font-size:20px;fill:#0000ff">extinguished ?</tspan></text>
</svg>
