<?xml version="1.0" encoding="UTF-8" standalone="no"?>
<svg
   xmlns:dc="http://purl.org/dc/elements/1.1/"
   xmlns:cc="http://creativecommons.org/ns#"
   xmlns:rdf="http://www.w3.org/1999/02/22-rdf-syntax-ns#"
   xmlns:svg="http://www.w3.org/2000/svg"
   xmlns="http://www.w3.org/2000/svg"
   xmlns:xlink="http://www.w3.org/1999/xlink"
   xmlns:sodipodi="http://sodipodi.sourceforge.net/DTD/sodipodi-0.dtd"
   xmlns:inkscape="http://www.inkscape.org/namespaces/inkscape"
   width="800"
   height="652"
   version="1.1"
   id="svg2"
   inkscape:version="0.48.0 r9654"
   sodipodi:docname="Okinawa Language.svg">
  <metadata
     id="metadata317">
    <rdf:RDF>
      <cc:Work
         rdf:about="">
        <dc:format>image/svg+xml</dc:format>
        <dc:type
           rdf:resource="http://purl.org/dc/dcmitype/StillImage" />
        <dc:title>Okinawa Language</dc:title>
      </cc:Work>
    </rdf:RDF>
  </metadata>
  <defs
     id="defs315">
    <defs
       id="defs10">
      <path
         id="47201"
         d="M501 479l-1-4 2-6-17 1-8-4h-1l-1-1h-2l-1-1h-3l2 3-2 5 5-5 2 9-10 3 6 6-11-6-7 10 4 11 12-2 6-4v-5l6 2 6 2z" />
      <path
         id="47205"
         d="M520 450l5-7-4-5-10 1-9 5 1 2-5-1-2 5 2 3 1 7 5-2 5 3 8-1z" />
      <path
         id="47208"
         d="M509 461l-5-3-5 2-1-7-2-3h-9l-7 10-4-1v3l1 4 8 4 17-1zM472 464l2-2-5 2z" />
      <path
         id="47209"
         d="M634 237l-10 2-3 8 5 4 3 1 2-4 9 6v-6zM681 303h8v-7l6-1-6-8-5-5-5 1-10-9 1-4-6-7-2-8-13 5h-9l-4 4-9-2-2-5-6-3-5 5-2-2-2 3-3-2h-2l-6 5-12-2-10 10 1 4-1 1 7 2 5-4 19 10h7l2 7-4 9-6 10-5-3-5 6-4-4-2 6 6 11 7-1 4-6h4v-4l6 6 5 5 4 2 2-5 7 2 4-3 9-2-7-13-2-4 4-1 1 4 10-3 4 3 10 7-1-4 4 1 1-3z" />
      <path
         id="47210"
         d="M499 542l-6-4-5-12 3-9h-6l-3-3 5-7-1-3-16 9-10 4 2 10v-5l8 1-3 2 2 5h-3l-2 19 7 3 4 2 7-6 13-2 4-4z" />
      <path
         id="47211"
         d="M529 425l5-3 2 11 9 1v-5l6-1 2-2-6-4 4-4-10-13 7-11-5-7-3 3-4-6-3 4-8-15v-1l-1 3v4v11l-3 11 3 10-4 2-2 2 4 10-1 2h3l3 1zM557 422l-6-4-3 2z" />
      <path
         id="47212"
         d="M490 499h1l-3-6-6-2-6-2v5l-6 4-12 2-2 1h6l-2 2 10 10 16-9z" />
      <path
         id="47213"
         d="M565 390l-9-6-4-3 3-1-6-2-6-7 2-4 5 2 1-2-1-2-3-7h-1l-7 2-14 12v1l8 15 3-4 4 6 3-3 5 7-7 11 10 13 7-5h3l19 23 2-1-1 3 1-3 6 4 1-4-2-8-7-7 5-1h-7l-6-4-7-10 1-7v-2h3zM626 385v-1l-4-1-3 7 5 3zM612 407l9-2 2-5-5-3 1-6-7 5-2 7zM610 407l-1-5-5 4h-5l-1-3 2 11-6 5h-9l21-3 7-6zM557 422l1-4 6 2-4-7-9 5zM602 424l1 5 3 2 4-8-6-2zM586 425l6 4-3-5zM597 466l3-3-1-8-4 1-1 7z" />
      <path
         id="47215"
         d="M525 524l20-18 1-5-5-2v-6l-9 2-7 9-4-1v-8l-1-1-5 2-2-5-7-2-3 1-5 15 1 8 4 1 11 13 6-5 4 2zM583 503l-13 8 1 1z" />
      <path
         id="47301"
         d="M767 210l6-3v-4l4-3-3-5 2-14-4-4 1-11-6-8-1-6-2-3-5 2-4-4-9-8 1-4-4-1-5 8 4 5-1 7-9 17v3l-12 15-10 11-16 4 4 4-2 9 22 14 10-9 9 2 1 7 10 12 5-3 3-12 7-8-2-4 5-1z" />
      <path
         id="47302"
         d="M718 231l-22-14-5 5-13 3-7 12 2 4 7 1 3 5h-7v-4l-14 12 2 8 6 7 17-17 11 3z" />
      <path
         id="47303"
         d="M669 274l10 9 5-1v-1l-2-4 13 2 1-6-4-6 2-4 18 2 16-2 7-1 4-5 5-9 4-1v-4l-10-12-1-7-9-2-10 9-20 25-11-3-17 17z" />
      <path
         id="47306"
         d="M637 222l-5-3-4 3 5 7zM605 247v11h2l3 2 2-3 2 2 5-5-3-3 4 1 1-11 7-7-14-7-4 3-2-2 2-3-8-3-16 3-1 10 9 7h10z" />
      <path
         id="47308"
         d="M605 258v-11l-1-5h-10l-9-7 1-10h-12l-6-4-3 12 3 4 7 10-8 3v7l10 19 1-1-1-4 10-10 12 2zM559 264l6-11-4-2-5 3zM535 254l6 1-2-3z" />
      <path
         id="47311"
         d="M516 361l-12 11 4 4 6-4 10 3 1-3 14-12 7-2h1l3-7 15-9 9 1v-4l5-4 5 5 3-9h4l6-5-6-11-3 1-2 7-5-2-8 4-1 4h-4l-3-4-3 1-2 3-2-3-2 4-4-1-3 4 3 7-15 10-5 8-3 7h-6l-6-6z" />
      <path
         id="47313"
         d="M620 343l6-5-4-6-2-3 3-3-5-5-6-6v4h-4l-4 6-7 1-6 5-1 2 10 17 1-1 2-4 6 3z" />
      <path
         id="47314"
         d="M576 357l9 2 4 4 11 1-2-5 2-4v-5l-10-17 1-2h-4l-3 9-5-5-5 4v4l-9-1-15 9-3 7 3 7 1-1 4-7 8-4h8z" />
      <path
         id="47315"
         d="M530 222l3 2 11-3 1-6-9-8-18 1h-9l-2 7 4 7z" />
      <path
         id="47324"
         d="M495 388l8 15 14-4-1-3 8-17v-4l-10-3-6 4-4-4-4-1-4-8h-7l3 2-2 14z" />
      <path
         id="47325"
         d="M520 413l4-2-3-10 3-11v-11l-8 17 1 3-14 4-1 2 3 9 7 1z" />
      <path
         id="47326"
         d="M524 428v-1h-3l1-2-4-10 2-2-8 2-7-1-1 6 3 5h3l1 14 10-1-1-6z" />
      <path
         id="47327"
         d="M545 434l-9-1-2-11-5 3-2 3-3-1v1l-4 4 1 6 4 5 7 1 6-3-2-4 3-4z" />
      <path
         id="47328"
         d="M515 466l10 6 5-18 7-4 1-9-6 3-7-1-5 7-3 10z" />
      <path
         id="47329"
         d="M504 481l9 2 11-8 4 3-3-6-10-6 2-6-8 1-7 8-2 6 1 4z" />
      <path
         id="47348"
         d="M513 483l-9-2 2 5v3l7 2 2 5 5-2-4-6-6-1z" />
      <path
         id="47350"
         d="M491 499l7 6 5-15 3-1v-3l-2-5-3-2-13 14z" />
      <path
         id="47353"
         d="M327 472l2 4 1-3-2-4zM326 497l4-3 1-5h-3l3-2-1-4-1-5-6-3-2 2-4 11 2 8-5 1 1 7 4 2-2 6 2 5 1-5 4-1v-13zM364 488l6-10-3-3-6 13z" />
      <path
         id="47354"
         d="M310 471l1-4-8-2-2-4-1 6-3 2-3-3-1 4-6 2 7 4 3-2 3 5 3-6-2-4 3-2 2 6 5 1zM267 480l2 4 4-7h-5zM300 483l2 7 2-4-4-7zM292 492l-5-11-7 8 1 1 4 1v4zM288 498l2 3 4-1-3-5zM269 508l1-7-3-3-3 9zM293 508l1-6-4 4z" />
      <path
         id="47355"
         d="M269 291l2-8-4-5-7 3-7 10h7z" />
      <path
         id="47356"
         d="M224 408v3l4-4 3-4h-2h-3l-2-10-3 3-1 6z" />
      <path
         id="47359"
         d="M592 71l2 1 4-13 8-1 2-8 11-4 5-16 10-9-10 2-14 11-9 12-9 12 2 10zM583 72l4 3 5-5-5-2z" />
      <path
         id="47360"
         d="M600 107l3-9-8-6-10 6-3 4 5 1-1 8 9 5 6-1zM586 121l1 4h6l-4-2 2-2z" />
      <path
         id="47361"
         d="M46 419l8 14 11 6 1 1-2-12 1-8 9-9-6-4-2-7-8-5-5-7-5-1-9 4-12 5-6 1-2 5 4-5-5 8 4 4 3 2-5-4 1-4 7 8 15 2-2 2 5 4zM95 412h8l5-3zM79 415l3 1-1-3zM71 416h7l-3-3z" />
      <path
         id="47362"
         d="M514 527l-11-13-4-1-1-8-7-6h-1l-4 5 1 3-5 7 3 3h6l-3 9 5 12 6 4 5-7z" />
    </defs>
    <defs
       id="defs192">
      <path
         id="47357"
         d="M18 84l13 6 7-2 5-6 3-13-3-6-13-4-9 3-1 8z" />
      <path
         id="47358"
         d="M74 17l-22-5-1 3 7 13h11z" />
    </defs>
    <defs
       id="defs242">
      <path
         id="47207a"
         d="M260 94l-13-3-3 3-3 4-3-3 4-2v-4l-2-8-10-4-2 2 6 4-3 3v10h-6l-3-4h-10l-5 11 8 8 4-6 7-3h7l5 9 5 2 1 9-1 4-1-3-14 13 6 6 10 3 2 4-2 3 10 4 12-2 5-6-2-4 5-1 11 6 6-3 3-5 4-28-4-10 3-6-3-7 3-9 12-7v-10l5-4 7-7-1-4v-6l8-7 6-6 2-10v-8l-10-3-3 6-5 11-8 9 4 11-3 2-4 15-1 2-8-8-2 2-7 9h-6l2 5-4 8v9l-8-1-8 1zM244 89l2 3 1-1-2-4z" />
      <path
         id="47381a"
         d="M86 81l5 3-1-4zM56 181l12 4h5l9 3 13-1 7 3 7 5h8l2-7-2-5h3l7 3v-16l5-11 8 5v-14l5-8 1-4-9-1-7-9h-9l-3-8-6-3-3 5-4-4h-4l-6-2-8 9-4-6 4 1-3-1 1-5-6-3-8-11-8 1v4l4 2-1 3-5 2-5 6 1 6-5-1 5 10-5 3 5 5-3 10 2 14-4-4-2 3-1-8-4 1v-7l-4 2-2 5-5-10-3 1 6 15-4 2v-2l-1-5-7-3-2 5 3 7-9-2-4 2 7 11 2 3 10 1 8 1 2-10 5 1zM42 133l3-1-2-2-6 3 3 5zM43 139l2 4 6 5 1-4-5-6zM170 149l-9-6-4 3 3 5-9 4 16 1 4 4 5-3zM211 159l4 7 8-5-7-10zM182 213l6-5 1-5-3-5-4 2-7-4-5 4 3 7 6 7zM151 207l2-3-3-2-6 9zM137 215l3 4 4-1-1-5z" />
    </defs>
    <defs
       id="defs277">
      <path
         id="47382"
         d="M43 35l7 2 5-5 9-10-16-5-14 3-8-2-3 3-7 5v4h-3l6 3 13 4 5-4z" />
    </defs>
    <defs
       id="defs292">
      <path
         id="47207b"
         d="M34 24l2-2-7-3-9 6 2 2 4-1zM57 29l2 3v-4zM61 33v1l4-1z" />
    </defs>
    <defs
       id="defs212">
      <path
         id="47214"
         d="M70 32l-1-3 5 1-4-6-2-2-6 2 1 4zM97 34l3 1-2-3zM164 134l2-1 2-2 7 6-11-13-6-9-9-1-10-5-5-7-6-3-7 2-9-5-3-7 2-6-10-7-4-11-3-11-7-2-6-13-3-5 3 6-4 1-4-4 4 5 5 10 3 6 7 11 1 7-5-4-3 2v17l-7 4-3-1-1 7 10 8 2 9v3h-8l-2-10-4 7 4 11 10 5 6 4 1-8v8l6 3 8-4 11-1 8-3 5 1 20-1zM33 85l3 4 10 3 10-2v-10l-4-10-10-4-13-4-3 3 2 9-2 2h1zM31 94l5-5-4-4-6-8 2 4-5-3-5-5-2 9 5 9 8 3 2-1zM73 140l1-5-5-4h-3l-1 5 4 4z" />
    </defs>
    <defs
       id="defs227">
      <path
         id="47375"
         d="M16 15l12 5-6-8zM36 61l-13-5-7 3-5 6v5l4 6 14 1 7-4z" />
    </defs>
    <defs
       id="defs262">
      <path
         id="47381b"
         d="M39 24l-10-6-17 5v4l6 4 12 1h1l6-2z" />
    </defs>
  </defs>
  <sodipodi:namedview
     pagecolor="#ffffff"
     bordercolor="#666666"
     borderopacity="1"
     objecttolerance="10"
     gridtolerance="10"
     guidetolerance="10"
     inkscape:pageopacity="0"
     inkscape:pageshadow="2"
     inkscape:window-width="1280"
     inkscape:window-height="750"
     id="namedview313"
     showgrid="false"
     inkscape:zoom="2.8284271"
     inkscape:cx="493.78434"
     inkscape:cy="190.4911"
     inkscape:window-x="-8"
     inkscape:window-y="-8"
     inkscape:window-maximized="1"
     inkscape:current-layer="svg2" />
  <title
     id="title4">Okinawa Language</title>
  <desc
     id="desc6">Author: Lincun</desc>
  <rect
     style="fill:#ffffff"
     id="rect46"
     height="600"
     width="820"
     y="-10"
     x="-10" />
  <rect
     style="fill:#c0dcf7"
     id="rect48"
     height="580"
     width="800"
     y="0"
     x="0" />
  <a
     style="stroke:#000000;stroke-width:0.50000000000000000;stroke-linejoin:round;fill:#ff0000"
     xlink:href="http://en.wikipedia.org/wiki/Naha,_Okinawa"
     id="a52">
    <use
       xlink:href="#47201"
       id="use54"
       style="fill:#ff0000"
       x="0"
       y="0"
       width="800"
       height="652" />
  </a>
  <a
     style="stroke:#000000;stroke-width:0.50000000000000000;stroke-linejoin:round;fill:#ff5555"
     xlink:href="http://en.wikipedia.org/wiki/Ginowan,_Okinawa"
     id="a56">
    <use
       xlink:href="#47205"
       id="use58"
       style="fill:#ff5555"
       x="0"
       y="0"
       width="800"
       height="652" />
  </a>
  <a
     style="stroke:#000000;stroke-width:0.50000000000000000;stroke-linejoin:round;fill:#ff5555"
     xlink:href="http://en.wikipedia.org/wiki/Urasoe,_Okinawa"
     id="a60">
    <use
       xlink:href="#47208"
       id="use62"
       style="fill:#ff5555"
       x="0"
       y="0"
       width="800"
       height="652" />
  </a>
  <a
     style="stroke:#000000;stroke-width:0.50000000000000000;stroke-linejoin:round;fill:#0000ff"
     xlink:href="http://en.wikipedia.org/wiki/Nago,_Okinawa"
     id="a64">
    <use
       xlink:href="#47209"
       id="use66"
       style="fill:#0000ff"
       x="0"
       y="0"
       width="800"
       height="652" />
  </a>
  <a
     style="stroke:#000000;stroke-width:0.50000000000000000;stroke-linejoin:round;fill:#ff5555"
     xlink:href="http://en.wikipedia.org/wiki/Itoman,_Okinawa"
     id="a68">
    <use
       xlink:href="#47210"
       id="use70"
       style="fill:#ff5555"
       x="0"
       y="0"
       width="800"
       height="652" />
  </a>
  <a
     style="stroke:#000000;stroke-width:0.50000000000000000;stroke-linejoin:round;fill:#ff5555"
     xlink:href="http://en.wikipedia.org/wiki/Okinawa,_Okinawa"
     id="a72">
    <use
       xlink:href="#47211"
       id="use74"
       style="fill:#ff5555"
       x="0"
       y="0"
       width="800"
       height="652" />
  </a>
  <a
     style="stroke:#000000;stroke-width:0.50000000000000000;stroke-linejoin:round;fill:#ff5555"
     xlink:href="http://en.wikipedia.org/wiki/Tomigusuku,_Okinawa"
     id="a76">
    <use
       xlink:href="#47212"
       id="use78"
       style="fill:#ff5555"
       x="0"
       y="0"
       width="800"
       height="652" />
  </a>
  <a
     style="stroke:#000000;stroke-width:0.50000000000000000;stroke-linejoin:round;fill:#ff5555"
     xlink:href="http://en.wikipedia.org/wiki/Uruma,_Okinawa"
     id="a80">
    <use
       xlink:href="#47213"
       id="use82"
       style="fill:#ff5555"
       x="0"
       y="0"
       width="800"
       height="652" />
  </a>
  <a
     style="stroke:#000000;stroke-width:0.50000000000000000;stroke-linejoin:round;fill:#ff0000"
     xlink:href="http://en.wikipedia.org/wiki/Nanj%C5%8D,_Okinawa"
     id="a84">
    <use
       xlink:href="#47215"
       id="use86"
       style="fill:#ff0000"
       x="0"
       y="0"
       width="800"
       height="652" />
  </a>
  <a
     style="stroke:#000000;stroke-width:0.50000000000000000;stroke-linejoin:round;fill:#8080ff"
     xlink:href="http://en.wikipedia.org/wiki/Kunigami,_Okinawa"
     id="a88">
    <use
       xlink:href="#47301"
       id="use90"
       style="fill:#8080ff"
       x="0"
       y="0"
       width="800"
       height="652" />
  </a>
  <a
     style="stroke:#000000;stroke-width:0.50000000000000000;stroke-linejoin:round;fill:#8080ff"
     xlink:href="http://en.wikipedia.org/wiki/%C5%8Cgimi,_Okinawa"
     id="a92">
    <use
       xlink:href="#47302"
       id="use94"
       style="fill:#8080ff"
       x="0"
       y="0"
       width="800"
       height="652" />
  </a>
  <a
     style="stroke:#000000;stroke-width:0.50000000000000000;stroke-linejoin:round;fill:#8080ff"
     xlink:href="http://en.wikipedia.org/wiki/Higashi,_Okinawa"
     id="a96">
    <use
       xlink:href="#47303"
       id="use98"
       style="fill:#8080ff"
       x="0"
       y="0"
       width="800"
       height="652" />
  </a>
  <a
     style="stroke:#000000;stroke-width:0.50000000000000000;stroke-linejoin:round;fill:#0000ff"
     xlink:href="http://en.wikipedia.org/wiki/Nakijin,_Okinawa"
     id="a100">
    <use
       xlink:href="#47306"
       id="use102"
       style="fill:#0000ff"
       x="0"
       y="0"
       width="800"
       height="652" />
  </a>
  <a
     style="stroke:#000000;stroke-width:0.50000000000000000;stroke-linejoin:round;fill:#0000ff"
     xlink:href="http://en.wikipedia.org/wiki/Motobu,_Okinawa"
     id="a104">
    <use
       xlink:href="#47308"
       id="use106"
       style="fill:#0000ff"
       x="0"
       y="0"
       width="800"
       height="652" />
  </a>
  <a
     style="stroke:#000000;stroke-width:0.50000000000000000;stroke-linejoin:round;fill:#8080ff"
     xlink:href="http://en.wikipedia.org/wiki/Onna,_Okinawa"
     id="a108">
    <use
       xlink:href="#47311"
       id="use110"
       style="fill:#8080ff"
       x="0"
       y="0"
       width="800"
       height="652" />
  </a>
  <a
     style="stroke:#000000;stroke-width:0.50000000000000000;stroke-linejoin:round;fill:#8080ff"
     xlink:href="http://en.wikipedia.org/wiki/Ginoza,_Okinawa"
     id="a112">
    <use
       xlink:href="#47313"
       id="use114"
       style="fill:#8080ff"
       x="0"
       y="0"
       width="800"
       height="652" />
  </a>
  <a
     style="stroke:#000000;stroke-width:0.50000000000000000;stroke-linejoin:round;fill:#8080ff"
     xlink:href="http://en.wikipedia.org/wiki/Kin,_Okinawa"
     id="a116">
    <use
       xlink:href="#47314"
       id="use118"
       style="fill:#8080ff"
       x="0"
       y="0"
       width="800"
       height="652" />
  </a>
  <a
     style="stroke:#000000;stroke-width:0.50000000000000000;stroke-linejoin:round;fill:#0000ff"
     xlink:href="http://en.wikipedia.org/wiki/Iejima"
     id="a120">
    <use
       xlink:href="#47315"
       id="use122"
       style="fill:#0000ff"
       x="0"
       y="0"
       width="800"
       height="652" />
  </a>
  <a
     style="stroke:#000000;stroke-width:0.50000000000000000;stroke-linejoin:round;fill:#ff5555"
     xlink:href="http://en.wikipedia.org/wiki/Yomitan,_Okinawa"
     id="a124">
    <use
       xlink:href="#47324"
       id="use126"
       style="fill:#ff5555"
       x="0"
       y="0"
       width="800"
       height="652" />
  </a>
  <a
     style="stroke:#000000;stroke-width:0.50000000000000000;stroke-linejoin:round;fill:#ff5555"
     xlink:href="http://en.wikipedia.org/wiki/Kadena,_Okinawa"
     id="a128">
    <use
       xlink:href="#47325"
       id="use130"
       style="fill:#ff5555"
       x="0"
       y="0"
       width="800"
       height="652" />
  </a>
  <a
     style="stroke:#000000;stroke-width:0.50000000000000000;stroke-linejoin:round;fill:#ff5555"
     xlink:href="http://en.wikipedia.org/wiki/Chatan,_Okinawa"
     id="a132">
    <use
       xlink:href="#47326"
       id="use134"
       style="fill:#ff5555"
       x="0"
       y="0"
       width="800"
       height="652" />
  </a>
  <a
     style="stroke:#000000;stroke-width:0.50000000000000000;stroke-linejoin:round;fill:#ff5555"
     xlink:href="http://en.wikipedia.org/wiki/Kitanakagusuku,_Okinawa"
     id="a136">
    <use
       xlink:href="#47327"
       id="use138"
       style="fill:#ff5555"
       x="0"
       y="0"
       width="800"
       height="652" />
  </a>
  <a
     style="stroke:#000000;stroke-width:0.50000000000000000;stroke-linejoin:round;fill:#ff5555"
     xlink:href="http://en.wikipedia.org/wiki/Nakagusuku,_Okinawa"
     id="a140">
    <use
       xlink:href="#47328"
       id="use142"
       style="fill:#ff5555"
       x="0"
       y="0"
       width="800"
       height="652" />
  </a>
  <a
     style="stroke:#000000;stroke-width:0.50000000000000000;stroke-linejoin:round;fill:#ff5555"
     xlink:href="http://en.wikipedia.org/wiki/Nishihara,_Okinawa"
     id="a144">
    <use
       xlink:href="#47329"
       id="use146"
       style="fill:#ff5555"
       x="0"
       y="0"
       width="800"
       height="652" />
  </a>
  <a
     style="stroke:#000000;stroke-width:0.50000000000000000;stroke-linejoin:round;fill:#ff5555"
     xlink:href="http://en.wikipedia.org/wiki/Yonabaru,_Okinawa"
     id="a148">
    <use
       xlink:href="#47348"
       id="use150"
       style="fill:#ff5555"
       x="0"
       y="0"
       width="800"
       height="652" />
  </a>
  <a
     style="stroke:#000000;stroke-width:0.50000000000000000;stroke-linejoin:round;fill:#ff5555"
     xlink:href="http://en.wikipedia.org/wiki/Haebaru,_Okinawa"
     id="a152">
    <use
       xlink:href="#47350"
       id="use154"
       style="fill:#ff5555"
       x="0"
       y="0"
       width="800"
       height="652" />
  </a>
  <a
     style="stroke:#000000;stroke-width:0.50000000000000000;stroke-linejoin:round;fill:#ff0000"
     xlink:href="http://en.wikipedia.org/wiki/Tokashiki,_Okinawa"
     id="a156">
    <use
       xlink:href="#47353"
       id="use158"
       style="fill:#ff0000"
       x="0"
       y="0"
       width="800"
       height="652" />
  </a>
  <a
     style="stroke:#000000;stroke-width:0.50000000000000000;stroke-linejoin:round;fill:#ff0000"
     xlink:href="http://en.wikipedia.org/wiki/Zamami,_Okinawa"
     id="a160">
    <use
       xlink:href="#47354"
       id="use162"
       style="fill:#ff0000"
       x="0"
       y="0"
       width="800"
       height="652" />
  </a>
  <a
     style="stroke:#000000;stroke-width:0.50000000000000000;stroke-linejoin:round;fill:#ff0000"
     xlink:href="http://en.wikipedia.org/wiki/Aguni,_Okinawa"
     id="a164">
    <use
       xlink:href="#47355"
       id="use166"
       style="fill:#ff0000"
       x="0"
       y="0"
       width="800"
       height="652" />
  </a>
  <a
     style="stroke:#000000;stroke-width:0.50000000000000000;stroke-linejoin:round;fill:#ff0000"
     xlink:href="http://en.wikipedia.org/wiki/Tonaki,_Okinawa"
     id="a168">
    <use
       xlink:href="#47356"
       id="use170"
       style="fill:#ff0000"
       x="0"
       y="0"
       width="800"
       height="652" />
  </a>
  <a
     style="stroke:#000000;stroke-width:0.50000000000000000;stroke-linejoin:round;fill:#0000ff"
     xlink:href="http://en.wikipedia.org/wiki/Iheya,_Okinawa"
     id="a172">
    <use
       xlink:href="#47359"
       id="use174"
       style="fill:#0000ff"
       x="0"
       y="0"
       width="800"
       height="652" />
  </a>
  <a
     style="stroke:#000000;stroke-width:0.50000000000000000;stroke-linejoin:round;fill:#0000ff"
     xlink:href="http://en.wikipedia.org/wiki/Izena,_Okinawa"
     id="a176">
    <use
       xlink:href="#47360"
       id="use178"
       style="fill:#0000ff"
       x="0"
       y="0"
       width="800"
       height="652" />
  </a>
  <a
     style="stroke:#000000;stroke-width:0.50000000000000000;stroke-linejoin:round;fill:#ff0000"
     xlink:href="http://en.wikipedia.org/wiki/Kumejima,_Okinawa"
     id="a180">
    <use
       xlink:href="#47361"
       id="use182"
       style="fill:#ff0000"
       x="0"
       y="0"
       width="800"
       height="652" />
  </a>
  <a
     style="stroke:#000000;stroke-width:0.50000000000000000;stroke-linejoin:round;fill:#ff5555"
     xlink:href="http://en.wikipedia.org/wiki/Yaese,_Okinawa"
     id="a184">
    <use
       xlink:href="#47362"
       id="use186"
       style="fill:#ff5555"
       x="0"
       y="0"
       width="800"
       height="652" />
  </a>
  <path
     style="fill:#c0dcf7;stroke:#000000;stroke-width:0.5;stroke-linejoin:round"
     inkscape:connector-curvature="0"
     id="path188"
     d="m 472,484 10,7 -4,3 z m 276,-266 -6,-3 v -4 l 1,4 7,5 -6,1 z m -1,-40 7,2 h -7 l -1,4 -2,-4 z m -17,69 -5,7 6,2 2,-6 2,8 -15,-5 -11,2 -4,-2 h 7 l 3,-6 -2,6 h 3 l 1,-4 1,3 6,-5 -4,4 6,2 z m -131,87 4,4 -2,2 z" />
  <rect
     style="fill:#c0dcf7"
     id="rect297"
     height="50"
     width="80"
     y="0"
     x="90" />
  <rect
     style="fill:#c0dcf7;fill-opacity:1"
     id="rect307"
     height="82"
     width="800"
     y="570"
     x="0" />
  <rect
     style="fill:#000000"
     id="rect309"
     height="16"
     width="235"
     y="628"
     x="557" />
  <text
     style="font-size:40px;text-anchor:middle;fill:#000000;font-family:Helvetica"
     id="text311"
     font-size="40"
     y="618"
     x="674">50km</text>
</svg>
