<?xml version="1.0" encoding="UTF-8" standalone="no"?>
<svg
   xmlns:dc="http://purl.org/dc/elements/1.1/"
   xmlns:cc="http://creativecommons.org/ns#"
   xmlns:rdf="http://www.w3.org/1999/02/22-rdf-syntax-ns#"
   xmlns:svg="http://www.w3.org/2000/svg"
   xmlns="http://www.w3.org/2000/svg"
   xmlns:sodipodi="http://sodipodi.sourceforge.net/DTD/sodipodi-0.dtd"
   xmlns:inkscape="http://www.inkscape.org/namespaces/inkscape"
   inkscape:version="1.1-dev (ddb55ca, 2020-02-02)"
   sodipodi:docname="california-athabaskan-with-original.svg"
   viewBox="0 0 733.03028 957.14294"
   height="957.14294"
   width="733.03027"
   id="svg833"
   version="1.1">
  <metadata
     id="metadata839">
    <rdf:RDF>
      <cc:Work
         rdf:about="">
        <dc:format>image/svg+xml</dc:format>
        <dc:type
           rdf:resource="http://purl.org/dc/dcmitype/StillImage" />
        <dc:title></dc:title>
      </cc:Work>
    </rdf:RDF>
  </metadata>
  <defs
     id="defs837" />
  <sodipodi:namedview
     inkscape:current-layer="layer1"
     inkscape:window-maximized="0"
     inkscape:window-y="23"
     inkscape:window-x="11"
     inkscape:cy="597.86402"
     inkscape:cx="182.7197"
     inkscape:zoom="0.76296833"
     fit-margin-bottom="0"
     fit-margin-right="0"
     fit-margin-left="0"
     fit-margin-top="0"
     showgrid="false"
     id="namedview835"
     inkscape:window-height="1075"
     inkscape:window-width="1744"
     inkscape:pageshadow="2"
     inkscape:pageopacity="0"
     guidetolerance="10"
     gridtolerance="10"
     objecttolerance="10"
     borderopacity="1"
     bordercolor="#666666"
     pagecolor="#ffffff" />
  <g
     transform="translate(-13.195935,-36.247076)"
     style="display:none"
     inkscape:label="background"
     id="layer3"
     inkscape:groupmode="layer" />
  <g
     transform="translate(-13.195935,-36.247076)"
     style="display:inline"
     inkscape:label="coast"
     id="layer2"
     inkscape:groupmode="layer">
    <path
       inkscape:connector-curvature="0"
       id="path1476"
       d="m 190.88122,38.493687 c 11.88192,0.108583 12.26109,0.404385 11.95594,1.161964 -0.2758,0.684657 -0.79641,3.943763 -1.1575,7.240984 -0.36108,3.29722 -1.12892,7.939932 -1.70749,10.318719 -0.57857,2.378787 -1.32849,6.422924 -1.6656,8.98698 -0.33712,2.564054 -1.01409,6.679374 -1.50475,9.144519 -0.79791,4.008621 -0.77665,4.61254 0.21015,5.720612 1.42877,1.604353 1.38947,2.136169 -0.15954,2.123793 -0.69114,-0.0055 -1.71788,0.682859 -2.28183,1.528693 -1.18754,1.781217 -4.26448,13.709986 -4.92818,19.103819 -0.36077,2.93205 -0.7551,3.81266 -1.92908,4.31675 -1.94478,0.83508 -4.29207,6.70543 -5.94116,14.85926 -2.35675,11.65288 -6.52227,19.27018 -10.55493,19.30106 -2.86926,0.022 -3.25499,1.50546 -3.44593,13.2639 -0.13647,8.4061 0.0402,11.41979 0.73376,12.54728 0.61862,1.00571 0.89502,3.61011 0.85928,8.0833 -0.044,5.50993 0.15846,6.87079 1.22127,8.24439 0.97731,1.26312 1.18028,2.29196 0.87678,4.42511 -0.45314,3.1851 0.47346,4.79886 2.7663,4.81718 0.94658,0.008 1.64235,-0.48351 1.86801,-1.3191 0.19763,-0.73177 0.80101,-1.32762 1.34266,-1.3233 1.44914,0.0116 5.67136,5.04133 7.36374,8.77201 0.80945,1.78434 1.77529,3.6347 2.14496,4.11102 0.36968,0.47632 0.86543,1.70892 1.10314,2.73936 0.34319,1.48764 0.0567,2.26576 -1.39547,3.77999 -1.48691,1.55038 -1.87039,2.6316 -2.05016,5.78068 -0.31385,5.49807 -1.70538,16.77195 -2.40997,19.52433 -0.32785,1.28076 -0.93303,5.41691 -1.34497,9.19268 -0.41193,3.77577 -1.10989,7.52096 -1.55091,8.32185 -0.44103,0.8009 -1.18746,2.9522 -1.65936,4.78183 -0.47188,1.82962 -1.36544,5.27389 -1.98502,7.65234 -0.61959,2.37847 -1.71665,5.40906 -2.43672,6.73661 -0.72008,1.32755 -1.31194,2.85922 -1.31629,3.40366 -0.008,0.99074 -4.9458,12.43659 -7.52236,17.43655 -0.75272,1.4607 -2.72144,4.73889 -4.37474,7.28364 -1.65332,2.54475 -3.96063,6.87581 -5.12785,9.62536 -3.42273,8.06278 -8.59961,17.91934 -11.49358,21.88543 -5.95613,8.16271 -6.76783,9.74458 -6.57306,12.78578 0.17404,2.71748 0.30145,2.88228 2.41084,3.10139 2.51499,0.26126 4.33638,-1.01692 5.93972,-4.16556 0.55833,-1.09645 2.0243,-2.92725 3.25723,-4.06981 1.60242,-1.48496 2.66525,-3.4335 3.72657,-6.82982 0.81659,-2.6132 1.93672,-5.19817 2.49128,-5.74395 0.55457,-0.54577 1.44369,-2.39408 1.97429,-4.10741 0.5306,-1.71334 1.8317,-4.01584 2.89253,-5.11768 2.22237,-2.30826 4.10724,-5.71413 4.12414,-7.45361 0.006,-0.65984 0.63673,-2.20557 1.40054,-3.43619 0.76381,-1.23064 2.02282,-3.92067 2.7959,-5.97786 0.77308,-2.0572 1.6698,-4.02321 1.99395,-4.36897 0.32417,-0.34576 0.59947,-1.09488 0.60901,-1.66315 0.0105,-0.56827 0.30762,-1.48079 0.66271,-2.02797 0.54808,-0.84455 0.80454,-0.76694 1.69126,0.51353 0.57452,0.82961 1.7405,1.51395 2.59146,1.52075 0.85095,0.007 1.92912,0.48064 2.39596,1.05237 0.46683,0.57175 2.41765,1.82275 4.33535,2.78082 l 3.48618,1.74276 3.77693,-1.15541 c 3.67455,-1.12365 3.81122,-1.1186 5.04788,0.13803 1.81252,1.84171 2.34521,6.93645 1.00165,9.57666 -0.79293,1.55818 -0.90204,2.53886 -0.42701,3.81898 0.47994,1.29336 0.37799,2.11218 -0.40716,3.28982 -0.57511,0.86261 -1.3666,1.56725 -1.75864,1.56412 -0.39204,-0.003 -1.48066,0.58689 -2.41877,1.31276 -1.00954,0.78113 -2.71456,1.31233 -4.17849,1.30064 -1.56453,-0.0125 -2.88953,0.43291 -3.6055,1.21146 -0.92588,1.00677 -2.4405,1.28191 -8.3229,1.51363 -10.01447,0.39451 -13.00027,1.8269 -17.65022,8.46473 -1.88043,2.6843 -4.12625,5.71369 -4.9895,6.73184 -1.74885,2.06264 -2.64998,4.90146 -3.37811,10.64327 -0.47641,3.75688 -1.83652,6.17774 -3.04533,5.41724 -0.68104,-0.42845 -3.39077,0.8328 -4.13269,1.92407 -0.27286,0.40129 -0.33148,2.09519 -0.12967,3.76277 0.2801,2.31448 0.11333,3.23869 -0.70703,3.90853 -1.34566,1.09877 -1.38852,3.38646 -0.12026,6.49144 1.41992,3.47617 1.19748,6.08784 -0.70708,8.31493 -0.91061,1.06482 -1.84873,3.05081 -2.08611,4.41316 -0.91034,5.22449 -1.72813,5.38194 -6.17962,1.18895 -1.71312,-1.61365 -4.23738,-3.30751 -5.60878,-3.76368 -1.3714,-0.45618 -2.49235,-0.96724 -2.49099,-1.13713 10e-4,-0.16989 0.64164,-2.23684 1.42345,-4.59229 0.94744,-2.85449 2.37781,-5.33508 4.29004,-7.43862 1.57794,-1.73582 3.67894,-4.42414 4.66897,-5.97461 0.99003,-1.55047 2.0848,-2.81741 2.43273,-2.81463 0.88977,0.007 2.21265,-5.11295 1.7273,-6.68563 -0.61219,-1.98363 -2.71242,-1.57804 -4.62838,0.89273 -0.9451,1.21877 -1.72016,2.3695 -1.72165,2.55664 -10e-4,0.18716 -2.47891,4.3383 -5.50553,9.22584 -3.02662,4.88754 -7.32482,11.87285 -9.55206,15.52183 -2.22721,3.64899 -5.03948,7.67665 -6.24943,8.95036 -1.20996,1.27371 -3.65631,5.10307 -5.43537,8.51153 -2.55924,4.90312 -3.08571,6.43095 -2.5214,7.31408 0.39229,0.61392 1.36041,1.04837 2.15057,0.96448 1.2755,-0.13549 1.39188,0.0898 1.03477,2.00833 -0.61474,3.30252 1.58106,6.50894 4.47334,6.53204 1.71103,0.0137 2.70354,0.57247 4.32445,2.43306 2.31144,2.65322 2.60947,3.62254 1.10791,3.61054 -1.61777,-0.0129 -6.51567,-2.17905 -8.71362,-3.8549 -1.12778,-0.85989 -2.39783,-1.56609 -2.82154,-1.56947 -0.42372,-0.003 -0.76224,-0.91609 -0.75336,-2.02757 0.0394,-4.93184 -4.957186,-1.84355 -7.41968,4.5854 -0.779316,2.03459 -1.983945,4.74394 -2.67515,6.02179 -0.691198,1.27785 -1.693672,3.36926 -2.228615,4.64836 -3.034581,7.25593 -8.250685,18.80253 -10.05312,22.25437 -1.144035,2.19093 -4.775839,9.21149 -8.072175,15.60203 l -5.993423,11.62045 -0.139604,3.04977 -0.208791,-0.0251 -1.60781,13.48758 0.546374,0.0649 c -0.147008,0.52862 -0.306151,1.00901 -0.485876,1.40826 -0.657856,1.46147 -1.434048,4.0047 -1.724902,5.65242 -0.585666,3.31787 -4.433932,13.55516 -5.865073,15.60208 -1.77485,2.53851 -1.194673,5.20405 3.828574,17.56044 1.070461,2.63317 2.212509,4.0714 4.524898,5.70236 5.930806,4.18306 8.447189,12.47652 8.767486,28.89324 0.104489,5.35549 0.527462,8.50842 1.566882,11.68085 2.055112,6.27248 2.013157,14.77318 -0.08989,18.09557 -3.597846,5.68385 -4.447764,12.34215 -2.25034,17.63492 2.45981,5.92475 3.340786,7.25433 6.380254,9.63527 5.631231,4.41115 7.970534,6.75818 9.050773,9.08236 0.593261,1.27644 2.183941,3.1585 3.53507,4.18072 1.351129,1.02224 4.397879,3.88483 6.769702,6.36094 2.943796,3.0732 5.571296,5.08304 8.281706,6.33394 2.1838,1.00787 5.37948,3.07374 7.10027,4.59008 6.16895,5.43601 8.49174,7.30646 11.60152,9.34103 4.40341,2.88087 8.00769,6.44075 9.49375,9.37694 0.69416,1.37158 2.57874,3.9991 4.18784,5.84028 1.60911,1.84118 3.50783,4.69149 4.21906,6.33469 1.39802,3.22994 4.87173,6.01425 8.46755,6.78466 1.1457,0.2455 3.83669,1.3831 5.97999,2.52833 2.59919,1.38887 4.75871,2.05963 6.488,2.01675 1.94834,-0.0485 3.00353,0.35247 4.24505,1.61403 0.90867,0.92329 2.01311,1.68216 2.45341,1.68568 0.44029,0.004 2.46909,1.22135 4.50782,2.70602 2.76234,2.01167 4.13047,3.61435 5.36985,6.2892 0.91471,1.97423 2.92284,5.20984 4.46416,7.19215 3.99111,5.13292 5.15367,9.25568 5.8177,20.64089 0.55032,9.43563 0.6122,9.72074 2.5142,11.67866 1.69155,1.74124 2.1245,1.89844 3.27573,1.19222 3.566,-2.18758 7.81146,0.075 14.94857,7.96343 3.17462,3.50882 6.05579,7.00687 6.40294,7.77407 0.34716,0.76719 1.50193,1.91784 2.56558,2.55768 1.0637,0.63985 1.93197,1.43334 1.92933,1.76353 -0.004,0.52504 6.42268,9.59858 11.95541,16.87534 2.23033,2.93338 5.17498,8.43371 5.16527,9.64901 -0.0146,1.82414 2.7138,5.42104 6.06521,7.99597 8.49387,6.52594 10.65572,9.77417 13.76092,20.68873 0.74436,2.61637 2.17037,5.81427 3.16991,7.10562 0.99952,1.29137 2.13383,2.94984 2.5214,3.68629 0.93782,1.78202 4.86028,5.57001 9.87527,9.54014 2.24935,1.78063 5.39632,4.2854 6.99288,5.56386 3.5784,2.86548 7.40708,10.36108 8.73474,17.10158 0.50636,2.57079 1.19994,8.70212 1.54159,13.62408 0.77401,11.151 2.28806,21.30871 3.44624,23.12202 0.48471,0.75884 0.72101,2.18243 0.52553,3.1625 -0.8742,4.38283 0.30037,6.53049 6.46445,11.80983 1.35181,1.15784 2.56342,2.90857 2.77468,4.01059 0.20624,1.07574 1.08537,2.66094 1.9524,3.52156 3.27771,3.25336 4.26981,5.47046 4.59201,10.25773 0.17272,2.56619 0.66896,7.36964 1.10227,10.6732 0.43332,3.30357 0.80715,8.55608 0.83059,11.67303 0.0235,3.11695 0.26379,6.27784 0.53375,7.02402 0.34118,0.94309 0.0683,1.83607 -0.89452,2.92849 -0.76186,0.86441 -1.41963,2.20033 -1.46127,2.96889 -0.21941,4.04704 0.2917,7.07359 1.71199,10.14291 2.83266,6.1215 5.08663,5.63387 -25.27313,5.48381 -14.75823,-0.0729 -55.33236,-0.26301 -90.16553,-0.42157 -34.83319,-0.1585 -87.48301,-0.39125 -116.999609,-0.51681 -29.516608,-0.12532 -56.740769,-0.33903 -60.498149,-0.47336 l -6.832252,-0.24405 -0.01004,-10.47698 c -0.0056,-5.76237 -0.02094,-17.07662 -0.03545,-25.14366 -0.120432,-66.94203 -0.217264,-116.36731 -0.329419,-169.00803 -0.07227,-33.91832 0.02791,-105.91982 0.221703,-160.00333 0.193791,-54.08351 0.202191,-106.28511 0.0186,-116.00356 -0.183591,-9.71844 0.02175,-68.96999 0.458222,-131.6685 0.43647,-62.69851 0.727286,-123.14682 0.645518,-134.33117 -0.08174,-11.1846 -0.120297,-45.68731 -0.08468,-76.67134 0.03562,-30.98405 -0.02543,-59.6348 -0.135855,-63.66914 -0.110423,-4.034342 -0.292626,-19.829201 -0.40513,-35.100061 L 15.004633,39.211601 18.232166,38.85847 c 1.775351,-0.194722 22.27887,-0.362737 45.563023,-0.372316 23.284154,-0.0096 64.206271,-0.02903 90.938811,-0.04494 17.74791,-0.01056 29.01806,-0.01268 36.14722,0.05247 z"
       style="display:inline;fill:#ffffff;fill-opacity:1;stroke:#000000;stroke-width:0.666667;stroke-opacity:1" />
  </g>
  <g
     style="display:inline"
     inkscape:label="all-languages"
     id="layer5"
     inkscape:groupmode="layer">
    <path
       sodipodi:nodetypes="ccccccccccccccccccccccccccccccccccccccccccccccccccccccccccccccccccccc"
       inkscape:connector-curvature="0"
       d="m 236.64062,55.496094 c -7.45163,2.002802 -13.4289,7.62838 -19.90831,11.341796 -10.77916,12.125077 -0.16558,29.056075 6.79199,40.17015 4.81068,9.33021 11.82535,20.59124 10.40065,30.32904 -6.58742,3.41608 4.01083,2.53951 0.68247,6.832 -2.67102,23.4305 -12.49907,48.23748 -3.77909,71.51382 -1.42019,9.78177 0.4911,20.79416 0.96411,41.12096 -7.28304,10.18616 -3.70527,23.87622 4.15929,32.56079 8.44645,13.60449 16.32253,31.19471 8.23616,46.44414 2.74619,5.10349 -3.66841,1.51192 -5.89243,4.90035 -5.98955,4.83692 -7.25421,15.78609 -15.07711,16.49567 -3.64884,2.98854 1.49247,7.64706 -3.56682,10.23444 -14.53791,19.52646 -33.63466,35.41937 -52.12271,51.17663 -7.95666,4.56475 -18.8498,11.92757 -16.76021,21.71736 1.01655,-5.11926 -5.32896,-6.52112 -6.35006,-1.30333 -9.89717,5.98906 -5.25094,11.03277 -14.10141,21.89405 -18.19095,7.81492 -56.686179,-6.00166 -78.023657,-8.68771 -1.708913,8.54294 -5.512774,23.67752 -6.964957,25.04232 -6.138137,12.2154 3.848767,24.73604 12.187466,32.83636 6.371941,7.51297 -2.123221,9.49284 3.238494,16.28165 -1.431566,14.04843 8.229196,28.4195 -0.726217,41.35364 -5.182161,12.8026 6.735326,23.47576 15.584,30.64673 8.275808,13.18719 23.327747,19.37366 34.550851,29.47307 2.73361,2.19267 7.35222,-0.7805 6.29319,3.75943 9.05524,9.8211 13.57998,25.37617 27.87527,28.88839 5.98472,2.00028 12.27536,2.05492 16.67615,7.39501 8.69315,5.47123 13.35811,16.21935 16.77684,25.45509 1.84111,6.85027 -1.82179,18.71549 5.83196,21.78851 12.84982,-0.84466 17.93302,14.03123 26.57415,21.01336 6.58755,8.26562 13.48735,17.11797 17.37297,26.68835 -3.12622,3.73299 0.47825,11.77048 5.09937,7.30417 15.47541,7.5129 12.51151,29.01516 26.29768,38.34872 6.32683,4.57986 12.78949,11.05005 18.21771,15.20444 8.4321,-1.03589 18.73944,-6.91716 24.83056,-7.6374 -0.19046,10.45947 5.75584,20.06446 7.94756,30.17993 -0.076,10.38193 12.01375,21.84139 11.67215,25.07397 9.38901,36.51023 49.98906,71.84021 84.1953,69.72737 11.42636,-2.61729 23.5419,-8.12944 30.77941,-17.49999 7.96382,-13.12151 -1.51819,-29.19324 -0.87365,-31.17917 -10.06162,-29.9212 -11.11839,-52.09481 -29.20285,-75.22143 -5.11168,-7.77168 -11.65826,-17.57625 -15.4245,-24.83876 10.68821,-10.73369 27.66002,-12.33017 42.39486,-12.54778 3.81898,0.0727 5.67833,-4.98454 8.58797,-1.00587 19.0248,0.87789 45.72291,10.28617 61.33693,9.01646 -1.04345,-3.65056 5.41863,3.37575 9.15025,1.89361 18.35341,1.5747 37.74256,-2.67925 53.53561,-12.0611 12.84607,-8.96002 16.46858,-25.41243 14.18256,-40.0953 -1.42589,-21.60837 -5.5858,-43.71799 -13.3827,-63.67309 -2.93754,-1.73221 4.15533,-3.46251 4.19547,-7.08963 5.20522,-14.01536 15.6793,-30.85788 5.5497,-45.22627 -10.72899,-26.9586 -39.09777,-40.12579 -60.60514,-57.19121 -12.54024,-7.09343 -23.54618,-18.80778 -35.26839,-25.57074 -1.89067,0.38648 -1.95746,-6.33399 -5.1446,-8.10114 -11.3077,-16.1263 -18.0403,-31.96524 -23.52163,-40.93044 -7.62041,-10.61227 -9.59187,-17.59863 -14.51943,-25.8592 -13.03612,-31.54115 -25.48027,-63.54473 -35.93948,-96.13897 7.56588,0.55767 -3.57007,-4.7266 -2.82811,-9.1682 -1.09765,-5.47473 -2.90595,-14.23615 -3.02135,-17.68238 6.59252,-5.21949 12.0442,-13.45392 16.43973,-21.162 4.21049,-12.59598 -0.23836,-26.34695 -0.52518,-39.28206 -0.50712,-11.47078 -5.09383,-22.14243 -6.82184,-33.16398 2.50511,-16.99212 26.0628,-12.22281 33.09249,-26.12738 13.99997,-17.08958 27.20363,-39.31011 20.4706,-62.16028 -8.01878,-24.41969 -22.76645,-47.90559 -44.01865,-62.844719 -19.39448,-12.114661 -43.6635,-6.272594 -63.40078,1.519461 -14.03537,5.056998 -30.20762,6.229878 -43.33266,-2.359329 -2.40025,5.959727 -2.14894,2.030914 -1.93793,-1.281204 C 296.91938,82.47007 282.64614,77.140473 272.61402,66.868793 262.24023,59.368508 249.39716,55.482587 236.64062,55.496094 Z"
       style="display:inline;fill:#000000;stroke-width:0.666667"
       id="path1838" />
  </g>
  <g
     transform="translate(-13.195935,-36.247076)"
     style="display:inline"
     inkscape:label="languages"
     id="layer1"
     inkscape:groupmode="layer">
    <path
       inkscape:connector-curvature="0"
       id="hupa"
       d="m 410.86923,373.41105 c 0.61803,-1.18677 3.29,-4.84054 5.93774,-8.11949 8.19182,-10.14473 8.16454,-10.06719 8.06985,-22.93626 -0.0446,-6.05055 -0.36945,-12.65335 -0.72206,-14.67291 -0.35261,-2.01954 -0.91903,-5.92419 -1.25872,-8.67699 -2.38705,-19.3447 -2.87167,-22.15537 -4.43174,-25.7029 -5.07193,-11.53338 -2.63928,-17.85324 9.16354,-23.80624 3.31346,-1.6712 7.5884,-3.35582 9.49986,-3.74357 3.93129,-0.79749 7.34082,-3.18206 11.10712,-7.76814 1.39653,-1.70049 3.15143,-3.80208 3.89978,-4.67019 0.74836,-0.86811 1.84932,-2.50936 2.4466,-3.64723 0.59728,-1.13787 2.07047,-3.26103 3.27377,-4.71813 2.31061,-2.79795 11.12321,-19.1378 11.13526,-20.6464 0.004,-0.48693 0.46621,-2.203 1.02737,-3.81349 0.67887,-1.94827 1.06461,-5.80149 1.1527,-11.51446 0.12562,-8.15005 0.0156,-8.9429 -2.1687,-15.6049 -1.97249,-6.01628 -4.18462,-10.87146 -10.29463,-22.59461 -1.93165,-3.70621 -9.85075,-15.42238 -11.75803,-17.39579 -0.99309,-1.02752 -2.97258,-3.35018 -4.39887,-5.16148 -2.36971,-3.00938 -9.42511,-9.33857 -15.6879,-14.07315 -2.7773,-2.0996 -11.00183,-5.2016 -13.8517,-5.22437 -1.01188,-0.008 -2.66167,-0.33472 -3.66621,-0.72586 -3.54695,-1.38108 -15.35836,-0.90684 -22.2626,0.89385 -3.49072,0.91041 -7.33225,1.89951 -8.53674,2.19799 -1.20448,0.29848 -2.55876,0.82876 -3.00951,1.17839 -2.39509,1.8578 -27.84877,7.95314 -32.87838,7.87333 -5.45104,-0.0865 -17.2151,-3.42566 -19.20994,-5.45263 -1.39522,-1.41769 -2.25007,-0.60194 -2.6972,2.57382 -0.69716,4.95168 -0.75072,30.50298 -0.0735,35.05814 1.38909,9.34315 2.05716,14.32876 2.59354,19.35467 0.31333,2.93593 1.12775,10.59268 1.80981,17.015 0.68207,6.42232 1.22981,13.78589 1.21718,16.36349 -0.029,5.92102 1.53955,19.63552 2.7462,24.01155 0.50534,1.83262 1.10164,4.53353 1.32511,6.00203 0.22348,1.46849 0.81479,4.0233 1.31405,5.67734 0.49925,1.65404 1.54827,5.71255 2.33115,9.01891 2.8931,12.21848 6.72648,23.26651 12.06228,34.76415 1.1956,2.57631 3.67824,8.25722 5.51697,12.62426 3.42628,8.13754 9.4033,20.30027 12.8263,26.10046 2.24277,3.80033 4.47909,7.4131 9.17995,14.83022 1.86862,2.94836 4.25857,6.79106 5.31097,8.53932 1.05242,1.74827 2.51247,3.30865 3.24455,3.46751 0.73209,0.15888 3.42847,0.62257 5.99196,1.03043 5.287,0.84121 13.51025,2.51881 16.97288,3.46261 3.894,1.06138 4.56823,0.90093 5.74993,-1.36828 z"
       style="fill:#f9f9f9;stroke-width:0.666667" />
    <path
       inkscape:connector-curvature="0"
       id="whilkut"
       d="m 350.42187,420.13358 c 4.04423,-1.34831 8.10627,-2.83937 9.02676,-3.31344 4.10247,-2.1129 9.40902,-9.43572 9.43768,-13.0236 0.008,-0.98987 0.34351,-2.64168 0.74576,-3.6707 0.40227,-1.02903 1.04888,-4.56851 1.43693,-7.86551 0.76282,-6.4812 2.47324,-12.66004 4.67718,-16.89617 1.73848,-3.3415 1.74773,-4.39341 0.058,-6.62797 -3.15745,-4.17613 -13.14717,-20.47561 -17.10541,-27.90966 -6.00042,-11.26949 -9.03323,-17.58233 -11.57488,-24.09325 -1.57945,-4.04608 -3.76539,-9.13125 -4.85765,-11.30038 -1.09226,-2.16914 -2.87388,-6.2335 -3.95914,-9.03192 -1.08526,-2.79843 -2.2359,-5.41062 -2.55697,-5.80487 -0.32106,-0.39426 -0.8957,-2.34891 -1.27696,-4.34367 -0.38126,-1.99477 -1.0893,-4.68006 -1.57341,-5.9673 -1.37535,-3.65706 -3.60172,-12.211 -3.58683,-13.78101 0.007,-0.78019 -0.44049,-2.52982 -0.9953,-3.88807 -0.55481,-1.35824 -1.41195,-4.62684 -1.90474,-7.26353 -0.49281,-2.63669 -1.34799,-6.74766 -1.90041,-9.13548 -0.94145,-4.06933 -1.29295,-7.84742 -2.76216,-29.68969 -0.66054,-9.82012 -2.6362,-27.98574 -3.71073,-34.1191 -2.15163,-12.28328 -2.56774,-29.78377 -1.09155,-45.92182 l 0.54845,-5.99581 -2.03195,-1.94348 c -1.11762,-1.06891 -3.07628,-2.66361 -4.35262,-3.54376 -1.27634,-0.88016 -3.95991,-2.94728 -5.96349,-4.5936 -2.00358,-1.64631 -3.92973,-3.00775 -4.28034,-3.02541 -1.2514,-0.0631 -8.71884,-5.69342 -12.62001,-9.51538 -3.93362,-3.85375 -11.19678,-8.330402 -16.93194,-10.436027 -3.21519,-1.180426 -12.58689,-2.944542 -18.85133,-3.548551 -3.75764,-0.3623 -4.04889,-0.271031 -8.49898,2.663376 -2.5344,1.671192 -4.78306,3.316762 -4.99701,3.656842 -0.21394,0.34006 -1.59026,0.93151 -3.05847,1.3143 -2.13897,0.55768 -3.28208,1.51269 -5.7521,4.80564 l -3.08261,4.10967 0.39818,6.15332 c 0.4395,6.79186 1.37169,8.99738 10.8316,25.62705 5.92532,10.41618 7.68228,13.99936 8.19339,16.70969 0.24238,1.2853 0.68212,2.63886 0.97718,3.0079 0.75488,0.94413 2.01729,6.01736 2.57557,10.35055 0.54545,4.23338 -1.28696,19.10514 -3.44931,27.99463 -4.31439,17.73665 -5.08074,28.93662 -2.89387,42.29396 1.86049,11.36381 2.32213,16.78011 2.90906,34.13146 0.55378,16.37157 0.53353,16.84428 -0.83444,19.47363 -3.00514,5.77608 -3.77748,11.17273 -2.15575,15.06311 0.30673,0.73582 0.90473,2.50252 1.32889,3.92602 0.42416,1.4235 1.80578,3.68461 3.07025,5.02469 1.29584,1.37332 4.15169,6.37863 6.54481,11.47072 2.33516,4.96882 4.63909,9.78738 5.11983,10.70791 3.93731,7.53924 4.12405,22.82834 0.3459,28.31868 -1.172,1.70311 -1.14131,2.1077 0.26856,3.54028 0.64727,0.6577 2.20604,2.69522 3.46394,4.52782 1.2579,1.83261 2.73142,3.61554 3.2745,3.96207 4.04925,2.58382 9.68121,11.20359 11.85208,18.13979 1.91951,6.13305 3.06018,7.56189 8.10584,10.15359 2.63885,1.35544 5.74382,3.19795 6.89995,4.09446 2.81643,2.18401 11.4305,5.53266 17.17236,6.67561 3.16922,0.63085 9.03061,0.90771 18.32701,0.86568 l 13.66759,-0.0618 z"
       style="fill:#f9f9f9;stroke-width:0.666667" />
    <path
       inkscape:connector-curvature="0"
       id="bear-river"
       d="m 197.75673,571.85258 c 6.12551,-4.73959 7.19048,-13.82387 2.26107,-19.28706 -0.83313,-0.92335 -4.78479,-5.22708 -8.78147,-9.56385 -9.79876,-10.6326 -11.66103,-13.62852 -13.73159,-22.09085 -3.50618,-14.32962 -2.08177,-21.90246 5.06693,-26.93808 1.96757,-1.38599 3.4872,-2.8207 3.37696,-3.18826 -0.11026,-0.36756 -3.37984,-1.50635 -7.26573,-2.53063 -9.46998,-2.49622 -13.26056,-4.51819 -15.38175,-8.20495 -0.92076,-1.60031 -1.66608,-3.93326 -1.6563,-5.18435 0.0176,-2.24827 -0.0138,-2.22462 -2.70474,2.03704 -1.49739,2.37144 -4.06131,7.00111 -5.6976,10.28814 -3.85515,7.74437 -6.78699,11.03822 -12.11141,13.60677 -4.12496,1.98993 -4.46266,2.04157 -10.15141,1.55237 -3.23648,-0.27831 -7.98125,-0.92236 -10.54392,-1.43121 -2.56269,-0.50885 -7.3578,-1.13999 -10.65581,-1.40253 -6.8851,-0.5481 -17.743987,-2.64053 -21.043665,-4.05497 -2.9004,-1.24328 -13.336926,-3.81002 -17.775661,-4.37172 l -3.444547,-0.4359 -0.01989,2.48987 c -0.01094,1.36943 -0.591343,3.28164 -1.289783,4.24936 -0.69844,0.96771 -1.430369,3.10825 -1.626509,4.75674 -0.384801,3.23411 -2.740376,9.84151 -5.299181,14.86423 l -1.593849,3.12858 1.858385,5.62266 c 2.640829,7.98999 4.790393,11.69269 8.095727,13.94515 1.785668,1.21685 3.431144,3.1323 4.446112,5.17557 0.886215,1.78407 1.840916,3.38163 2.121544,3.55014 0.280637,0.1685 2.312212,0.0678 4.514614,-0.22398 4.852857,-0.64273 33.728553,-0.80876 34.690913,-0.19948 0.37662,0.23845 5.62226,0.8049 11.65698,1.25877 17.62952,1.32593 25.06261,2.62885 35.92929,6.29791 3.10837,1.04953 7.44731,2.45226 9.64207,3.1172 2.19476,0.66493 5.52726,1.89574 7.40557,2.73511 3.58393,1.60158 14.74441,9.03968 16.15418,10.76623 1.07315,1.31428 1.47272,1.27673 3.55447,-0.33402 z"
       style="fill:#f9f9f9;stroke-width:0.666667" />
    <path
       inkscape:connector-curvature="0"
       id="nongatl"
       d="m 344.00055,639.72824 c 2.20265,-0.32209 7.00758,-0.92073 10.67764,-1.33031 3.67005,-0.40959 8.72541,-1.42209 11.23413,-2.25 4.90485,-1.61864 16.6785,-4.49292 20.49149,-5.00252 6.09286,-0.81433 14.29131,-3.09973 18.4585,-5.14551 6.41979,-3.15166 10.84879,-5.04155 11.80834,-5.03871 0.44852,0.002 1.56857,-0.37818 2.48898,-0.84335 0.92042,-0.46516 3.779,-1.52833 6.35242,-2.36258 2.57341,-0.83426 6.78676,-2.48901 9.36301,-3.67723 4.89638,-2.2583 6.81554,-2.99852 16.71872,-6.44837 11.78265,-4.10458 15.56963,-6.62253 23.50723,-15.62991 3.30351,-3.74872 7.26115,-8.1645 8.79478,-9.81281 1.53363,-1.64832 3.90962,-4.25767 5.27999,-5.79856 l 2.49157,-2.80161 -3.58997,-4.20739 c -3.85665,-4.51991 -13.69704,-18.24859 -13.69303,-19.10364 0.002,-0.28504 -1.07808,-2.32695 -2.39868,-4.53757 -5.63115,-9.42621 -11.36253,-20.3342 -17.76457,-33.80968 -7.9993,-16.83749 -7.64938,-16.06628 -9.34545,-20.59692 -0.72728,-1.94276 -1.71944,-4.20076 -2.20481,-5.01778 -0.48536,-0.81702 -1.41387,-3.2898 -2.06336,-5.49506 -0.64949,-2.20526 -2.11779,-6.41713 -3.26291,-9.3597 -1.14511,-2.94257 -2.91675,-7.60687 -3.93697,-10.36511 -1.02022,-2.75824 -2.10402,-5.35779 -2.40847,-5.77679 -0.30444,-0.41899 -1.83163,-4.33131 -3.39374,-8.69405 -3.17911,-8.87869 -6.77343,-18.61051 -7.62223,-20.63754 -0.76998,-1.83882 -7.59896,-23.06967 -9.1373,-28.40725 -1.56182,-5.41909 -3.13223,-13.70003 -3.11079,-16.40347 0.0158,-1.98986 -0.11318,-2.07607 -4.80792,-3.21373 -2.65329,-0.64297 -5.48453,-1.17045 -6.29165,-1.1722 -0.80712,-10e-4 -3.19151,-0.46697 -5.29865,-1.03382 -4.05713,-1.09144 -9.42477,-1.38305 -10.57027,-0.57427 -2.37056,1.67377 -5.06166,9.99828 -6.17703,19.10772 -0.82365,6.72693 -2.86168,14.80285 -4.31625,17.10371 -1.71641,2.71502 -5.74487,6.49365 -8.8703,8.3202 -1.30188,0.76083 -5.59635,2.41267 -9.54328,3.67077 -18.72157,5.96754 -44.95905,4.06904 -58.04555,-4.20005 -1.85328,-1.17106 -5.60917,-3.35393 -8.34641,-4.85082 -2.73722,-1.4969 -5.47916,-3.34218 -6.09318,-4.10063 -0.61402,-0.75845 -2.04141,-3.76105 -3.17196,-6.67246 -3.35936,-8.65099 -5.30382,-11.84872 -10.21881,-16.80532 -2.56553,-2.58725 -5.21687,-5.66002 -5.89185,-6.82839 -1.55967,-2.69971 -3.84787,-4.04523 -5.10249,-3.00037 -0.49396,0.41138 -1.70351,1.3409 -2.68791,2.0656 -0.98438,0.72469 -2.9279,3.33098 -4.31894,5.79175 -1.39104,2.46077 -4.14806,6.53762 -6.12671,9.05966 -1.97865,2.52204 -3.59921,4.79444 -3.60125,5.04978 -0.006,0.78488 -5.72996,8.90783 -9.63877,13.67915 -3.7259,4.54803 -9.12078,9.89834 -20.29898,20.13122 -3.32442,3.04329 -8.91725,8.38141 -12.42851,11.86248 -3.51125,3.48108 -7.63708,7.20071 -9.1685,8.26584 -3.19059,2.21912 -8.96237,6.38876 -15.49619,11.19477 l -4.51827,3.32346 -0.44674,4.28875 c -0.24571,2.35882 -0.18877,5.04825 0.12654,5.97651 0.55914,1.64618 5.51807,5.39121 7.15601,5.4043 1.36865,0.0109 10.74019,2.82441 15.33625,4.60417 8.17003,3.16373 22.9928,10.54103 29.12732,14.49667 2.42106,1.56114 5.44669,3.49756 6.72363,4.30316 1.27694,0.80559 3.5157,2.22122 4.97502,3.14582 1.45933,0.92461 5.49203,3.10593 8.96156,4.84739 3.46954,1.74146 8.39861,4.38039 10.9535,5.86428 2.55489,1.4839 5.68042,3.22551 6.94562,3.87025 2.78082,1.41708 17.21542,15.89148 20.97666,21.03447 4.09245,5.59589 18.41707,19.45395 30.40321,29.41299 7.51266,6.24211 9.53675,8.8247 11.44194,14.59915 0.72603,2.20051 1.5872,4.60308 1.91371,5.33905 1.08844,2.45333 2.6087,14.88214 2.588,21.15789 -0.0319,9.66861 0.88968,19.25757 2.15978,22.47219 l 1.15901,2.93344 6.39465,-0.39276 c 3.51704,-0.21602 8.1968,-0.65627 10.39944,-0.97835 z"
       style="fill:#f9f9f9;stroke-width:0.666667" />
    <path
       inkscape:connector-curvature="0"
       id="mattole"
       d="m 130.81592,661.98565 c 2.02259,-0.73359 5.3341,-2.16107 7.35892,-3.17219 2.0248,-1.01111 4.73468,-2.23696 6.02195,-2.7241 1.28726,-0.48714 5.26241,-2.41503 8.83367,-4.28417 3.57125,-1.86914 7.2303,-3.57721 8.13124,-3.79569 0.90093,-0.21848 4.26629,-1.95226 7.47858,-3.85282 6.02926,-3.56727 8.87576,-6.46154 17.90093,-18.20133 4.1533,-5.40255 9.10138,-14.75064 10.03462,-18.95779 0.33993,-1.53246 0.93759,-3.98378 1.32811,-5.44737 0.85473,-3.20328 -1.24767,-20.42642 -2.78639,-22.82635 -3.17821,-4.95711 -20.68263,-16.05457 -27.49597,-17.43191 -1.2813,-0.25902 -4.87278,-1.33977 -7.98107,-2.40167 -5.87676,-2.0077 -14.06884,-3.76073 -22.62869,-4.84231 -13.10372,-1.65573 -27.82476,-2.9358 -33.75683,-2.93533 -14.888308,10e-4 -24.664187,0.28233 -26.394378,0.75912 -1.678549,0.46256 -1.83966,0.78457 -1.863144,3.7239 -0.01414,1.76966 0.262659,3.99465 0.615102,4.94443 0.35245,0.94977 0.654649,4.64684 0.671563,8.21569 0.01984,4.19173 0.495022,8.26263 1.342215,11.49947 2.602981,9.94504 2.381074,15.95377 -0.752232,20.36878 -1.509003,2.12626 -2.959496,7.05865 -2.984176,10.14766 -0.0086,1.07514 0.995301,4.22095 2.230872,6.99067 2.044857,4.58384 2.726202,5.4071 7.59095,9.17209 2.939445,2.27492 5.826913,5.10256 6.416582,6.28362 2.270716,4.54803 17.076536,17.94242 19.857656,17.96464 0.42396,0.003 2.36775,1.34344 4.31956,2.97788 1.95179,1.63446 5.18785,4.33903 7.19123,6.01017 2.00338,1.67114 4.09233,3.06325 4.6421,3.09356 0.54978,0.0303 2.65444,-0.54507 4.67703,-1.27865 z"
       style="fill:#f9f9f9;stroke-width:0.666667" />
    <path
       inkscape:connector-curvature="0"
       d="m 191.14856,492.49273 c -0.22771,-0.002 -2.62277,1.77348 -5.32269,3.94394 -5.4257,4.36166 -6.4008,6.13603 -6.44558,11.73988 -0.035,4.37811 2.27405,15.84222 3.7442,18.58715 1.69673,3.16799 5.11232,7.35614 11.25919,13.8072 8.74429,9.177 10.59199,11.59789 12.0037,15.71945 2.12772,6.21198 0.86251,11.15619 -4.25597,16.62082 l -2.64175,2.81883 0.58908,4.25484 c 0.3238,2.33965 0.91852,6.43523 1.32186,9.1007 2.47853,16.37968 -3.02061,29.86338 -20.38838,49.99691 -2.04192,2.36709 -4.15661,4.60027 -4.698,4.96262 -2.27141,1.52027 -8.65011,5.09895 -12.07403,6.7729 -2.02465,0.98985 -4.02977,2.01475 -4.45388,2.27698 -1.10126,0.68094 12.18717,14.48184 16.12065,16.74261 7.30478,4.19837 8.49379,4.77636 11.73219,5.69939 1.86787,0.53234 5.79176,1.43036 8.72067,1.99552 2.92892,0.56514 6.82404,1.35287 8.65425,1.75083 1.8302,0.39797 7.82258,1.21498 13.31796,1.81545 5.49537,0.60052 11.1908,1.35679 12.65493,1.68123 4.56992,1.01281 21.16276,0.34994 26.39404,-1.05478 2.56182,-0.68795 6.68353,-2.26409 9.15912,-3.50115 2.47561,-1.23712 7.38688,-3.64112 10.91413,-5.34266 4.23437,-2.0427 7.44892,-4.14064 9.46175,-6.17656 5.34088,-5.4021 11.94699,-13.52241 15.17492,-18.65474 4.71371,-7.49468 8.5097,-11.58398 13.64525,-14.702 l 4.63984,-2.81849 -0.27946,-10.00256 c -0.39282,-14.0285 -1.23209,-21.17602 -3.17302,-27.00473 -1.77704,-5.33655 -2.43405,-6.69683 -3.50531,-6.19421 l -1.67637,-2.62286 c 0.0484,-0.0929 0.0989,-0.17777 0.14295,-0.28988 0.4724,-1.20226 -2.10629,-3.8619 -10.02704,-10.34607 -9.00873,-7.37482 -24.62053,-22.86909 -28.70106,-28.48607 -3.1517,-4.33838 -12.51453,-14.15662 -15.93925,-16.71381 -2.68858,-2.00755 -20.11488,-11.77851 -22.1748,-12.43342 -1.63684,-0.5204 -6.53009,-3.13496 -9.35489,-4.99873 -1.09426,-0.722 -3.03336,-1.93258 -4.31068,-2.69078 -1.27731,-0.75821 -4.65956,-2.89384 -7.51505,-4.74574 -2.8555,-1.8519 -5.33025,-3.36886 -5.50059,-3.37022 -0.17035,-10e-4 -4.02115,-1.83219 -8.55566,-4.06849 -4.5345,-2.2363 -8.42952,-4.06748 -8.65722,-4.0693 z"
       style="fill:#f9f9f9;stroke-width:0.666667"
       id="lolangkok-sinkyone" />
    <path
       inkscape:connector-curvature="0"
       id="lassik"
       d="m 371.02208,720.58606 c 5.68615,-0.33051 16.13217,-0.82707 23.21339,-1.10343 12.89419,-0.50334 13.27568,-0.56535 25.74031,-4.18468 1.78797,-0.51913 3.76386,-0.93983 4.39084,-0.93482 3.18375,0.0254 18.30619,-6.44068 22.11647,-9.45661 2.43941,-1.9309 6.16703,-3.58157 9.469,-4.19308 5.29898,-0.98142 15.16327,-1.33002 18.52358,-0.6547 3.62049,0.72769 7.89227,-0.25295 14.81209,-3.40016 14.21492,-6.46517 11.96278,-5.90115 21.61994,-5.41418 4.8338,0.24376 10.3051,0.92244 12.34143,1.53085 4.80776,1.43646 11.2711,3.42889 16.62625,5.12533 2.37739,0.75309 7.31743,2.01953 10.97787,2.8142 3.66044,0.79474 8.60191,1.88152 10.98105,2.41508 2.37915,0.53355 6.12412,1.17776 8.32216,1.4316 2.19804,0.25383 5.00469,0.89028 6.23698,1.41441 3.08645,1.31263 3.30317,1.25356 4.39214,-1.19668 0.52775,-1.18749 2.65403,-5.77818 4.72508,-10.20151 4.26662,-9.11274 6.51872,-17.18467 6.57659,-23.57167 0.0326,-3.57691 -0.31074,-5.01989 -1.90612,-8.01549 -1.0701,-2.00929 -3.1346,-6.1625 -4.58775,-9.22934 -1.45316,-3.06685 -3.25418,-6.38135 -4.00226,-7.36555 -0.74808,-0.9842 -2.16054,-2.85964 -3.13879,-4.16764 -2.86127,-3.82574 -12.32746,-12.33426 -18.54763,-16.6712 -3.16369,-2.20586 -6.32711,-4.65831 -7.02983,-5.44989 -0.7027,-0.79159 -2.79024,-2.35971 -4.63896,-3.48472 -1.84873,-1.125 -4.55413,-2.95111 -6.01199,-4.05803 -1.45788,-1.10691 -3.42264,-2.52979 -4.36614,-3.16197 -0.94352,-0.63218 -2.73257,-2.00979 -3.97567,-3.06135 -2.6766,-2.26417 -11.17781,-7.86241 -11.94883,-7.86857 -1.04784,-0.008 -4.9499,-3.08598 -8.21261,-6.4774 -1.81828,-1.89003 -4.74746,-4.08079 -6.50928,-4.86838 -1.76192,-0.78763 -5.21487,-3.40527 -7.67381,-5.81742 -2.45878,-2.41201 -4.78534,-4.38798 -5.17014,-4.39105 -0.3848,-0.003 -1.82997,1.35159 -3.21151,3.01036 -1.38153,1.65876 -3.7638,4.29403 -5.29393,5.85614 -1.53013,1.5621 -5.32318,5.72827 -8.42901,9.25813 -7.18385,8.16463 -13.17478,12.10713 -24.53427,16.14544 -13.53657,4.81228 -24.47828,9.0943 -25.38016,9.93248 -0.35095,0.32617 -1.19747,0.58856 -1.88113,0.58309 -1.73243,-0.0138 -7.12267,2.10818 -17.93322,7.05991 -6.01433,2.75485 -7.60477,3.24643 -16.32152,5.04474 -8.83181,1.82206 -20.51929,4.65512 -23.59699,5.71994 -4.00403,1.38531 -12.69295,2.75106 -24.49549,3.85025 -9.85784,0.91808 -13.75613,1.42798 -14.1913,1.85625 -0.12227,0.12033 0.49734,1.98209 1.37689,4.13727 0.87957,2.15515 1.80132,5.27014 2.04834,6.92216 0.24701,1.65203 0.88522,4.40741 1.41823,6.12307 0.76312,2.45636 0.81672,3.87386 0.25213,6.66889 -0.39434,1.95224 -0.92248,5.49793 -1.17363,7.87933 -0.25115,2.38141 -1.05102,7.77519 -1.77749,11.98618 -1.18085,6.84479 -2.83047,24.26696 -2.87957,30.41204 l -0.0186,2.32792 16.16921,-0.25235 c 8.89305,-0.13875 20.8215,-0.52274 26.50766,-0.85319 z"
       style="fill:#f9f9f9;stroke-width:0.666667" />
    <path
       inkscape:connector-curvature="0"
       d="m 477.17431,778.63471 c -4.05013,-0.12116 -7.29956,0.0396 -8.2842,0.58032 -0.84831,0.4659 -1.12974,1.78023 -1.25811,5.89833 -0.15586,4.99979 -0.30873,5.49503 -2.72214,8.72658 -1.40708,1.88402 -3.52545,4.01247 -4.70591,4.73014 -1.18047,0.71766 -3.05275,2.23825 -4.1619,3.37896 -1.82189,1.87384 -2.02002,2.49699 -2.05161,6.45062 l -0.035,4.37681 2.99269,0.92628 c 1.64598,0.50996 5.43611,0.95198 8.42212,0.98138 2.986,0.0308 8.48462,0.3911 12.22052,0.8047 1.11892,0.12385 2.01555,0.20735 2.84554,0.27664 l 12.50684,2.86173 c 3.27825,0.98922 7.4512,1.83412 12.07666,2.43056 3.40869,0.43949 6.32249,0.92044 6.47409,1.06933 0.15159,0.14888 0.96774,0.27727 1.81419,0.28403 1.32407,0.0106 1.45954,-0.19781 0.96899,-1.49231 -0.31361,-0.82753 -1.19765,-3.16097 -1.96451,-5.18382 -0.76686,-2.02286 -1.79637,-4.58052 -2.28669,-5.68447 -3.26092,-7.34209 -5.44749,-13.81554 -5.87304,-17.38146 -0.219,-1.83514 -0.70608,-4.84175 -1.0814,-6.68268 l -0.68227,-3.34736 -5.0838,-1.50941 c -4.40825,-1.30885 -13.38088,-2.29303 -20.1311,-2.4949 z"
       style="fill:#f9f9f9;fill-opacity:1;stroke-width:0.666667"
       id="north-fork-wailaki" />
    <path
       inkscape:connector-curvature="0"
       id="pitch-wailaki"
       d="m 541.87069,823.66088 c 9.61149,-1.18779 15.96388,-2.55154 21.5244,-4.62092 2.48974,-0.92654 5.49386,-1.9527 6.67581,-2.28027 1.18195,-0.32757 2.53718,-0.97583 3.0116,-1.44058 0.47444,-0.4647 2.28547,-1.6624 4.02452,-2.66146 5.27677,-3.03154 9.34964,-8.02463 12.00805,-14.72114 l 2.34322,-5.9026 0.0932,-11.66629 c 0.0919,-11.50483 -0.11342,-13.51068 -3.14189,-30.69275 -1.99733,-11.33179 -6.52916,-31.03889 -8.21197,-35.71055 -1.41289,-3.92229 -4.0108,-4.88273 -22.05155,-8.15251 -12.56793,-2.27789 -12.71323,-2.31558 -27.94303,-7.24268 -8.9025,-2.88015 -24.01788,-5.03425 -26.09608,-3.71901 -1.87078,1.18403 -2.24623,4.67034 -2.40598,22.34103 -0.19396,21.46086 1.14832,45.64963 3.28257,59.15137 2.61393,16.53635 3.37268,20.61287 4.06621,21.84598 0.36891,0.65591 1.07737,2.39589 1.57436,3.86658 1.29355,3.82778 4.80305,12.72525 6.79281,17.22149 1.51756,3.42923 1.92441,3.85602 3.74596,3.92985 1.12391,0.0457 2.79154,0.32891 3.70584,0.62983 2.64609,0.87077 9.07287,0.80451 17.00194,-0.17537 z"
       style="fill:#f9f9f9;stroke-width:0.666667" />
    <path
       inkscape:connector-curvature="0"
       id="eel-river-wailaki"
       d="m 355.10617,835.1618 c 1.83627,-0.35987 7.09358,-1.2545 11.68292,-1.98799 19.61003,-3.13416 24.75818,-4.18193 31.67026,-6.44538 5.00418,-1.63873 11.89875,-4.68775 14.28037,-6.31531 4.87594,-3.33215 14.41093,-5.16736 37.04427,-7.12972 0.2752,-0.0238 0.51798,-2.24834 0.53951,-4.94325 0.0347,-4.3372 0.26131,-5.20135 1.97394,-7.52627 1.06413,-1.44455 3.40612,-3.56197 5.20443,-4.70531 1.7983,-1.14333 4.0285,-3.18558 4.956,-4.53828 1.49075,-2.17416 1.69198,-3.16038 1.73466,-8.50228 l 0.0483,-6.04281 2.42918,-0.77555 c 1.33605,-0.42661 4.03924,-0.81522 6.00709,-0.86363 6.82122,-0.16778 20.91762,0.98182 23.84774,1.94479 4.71967,1.55109 4.8748,1.46439 4.50643,-2.51995 -0.17811,-1.92648 -0.60773,-7.40509 -0.9547,-12.17467 -0.34696,-4.7696 -0.93601,-11.82453 -1.30899,-15.67763 -0.37296,-3.8531 -0.56266,-16.7041 -0.42153,-28.55768 l 0.2566,-21.55211 -1.41183,0.43574 c -0.7765,0.23967 -3.7963,1.58959 -6.71068,2.99988 -2.91438,1.41036 -5.63165,2.56156 -6.03835,2.55831 -0.40671,-0.003 -1.77502,0.47536 -3.04068,1.06367 -1.99754,0.92841 -2.84686,0.95628 -6.43598,0.21152 -2.27412,-0.47192 -7.13436,-0.92089 -10.80054,-0.99772 -5.98929,-0.12555 -7.07033,0.0448 -10.65229,1.67855 -2.19259,1.00004 -4.90466,2.50095 -6.02684,3.33549 -5.0056,3.72225 -12.32471,6.81848 -21.72164,9.18887 -5.30151,1.33729 -10.32874,2.68737 -11.17159,3.00012 -3.37474,1.25234 -13.7562,2.51164 -22.6005,2.74159 -14.7314,0.38297 -27.28962,0.93906 -27.78208,1.2302 -0.24827,0.14676 -8.34269,0.35769 -17.9876,0.46871 -9.64491,0.11101 -17.80316,0.46458 -18.12944,0.78565 -0.87009,0.85633 -0.29438,24.91764 0.84891,35.47904 0.65213,6.02421 1.5577,10.65199 2.67862,13.68851 0.93137,2.52312 2.29303,6.54233 3.02591,8.93159 0.73289,2.38926 3.24032,9.75953 5.5721,16.37837 5.35395,15.1974 6.56675,19.91284 7.04482,27.3905 0.49183,7.69311 1.03832,9.28552 3.01331,8.78029 0.82018,-0.20979 2.99362,-0.67591 4.82989,-1.03585 z"
       style="fill:#f9f9f9;stroke-width:0.666667" />
    <path
       sodipodi:nodetypes="ccssssssssscssssssssssssssssssssssccsssssssscssssssssssssssssscc"
       inkscape:connector-curvature="0"
       d="m 321.06619,634.84189 -3.31642,1.70012 c -3.91183,2.00581 -5.73472,3.69817 -8.64445,8.02299 -9.28358,13.7984 -10.64324,15.53592 -18.83951,24.08463 -3.39907,3.54521 -5.45461,4.98382 -10.72831,7.51022 -3.58757,1.71874 -8.4798,4.10255 -10.87276,5.29807 -2.39296,1.19558 -6.92322,2.93126 -10.06628,3.85525 -5.24422,1.54161 -6.7107,1.67104 -17.81399,1.58233 -8.60426,-0.0687 -13.20454,-0.39438 -15.929,-1.1273 -2.10713,-0.56685 -5.35932,-1.04285 -7.22615,-1.05776 -1.86683,-0.0149 -7.57257,-0.82869 -12.67932,-1.80839 -5.10674,-0.9797 -10.48289,-1.95529 -11.94791,-2.1678 -10.65421,-1.54584 -18.5093,-5.98986 -29.00653,-16.41 -4.25835,-4.22712 -8.19829,-7.94442 -8.75459,-8.26162 -0.68483,-0.39046 -2.90697,0.30122 -6.88063,2.14432 -10.10013,4.68474 -15.19178,6.9733 -16.4659,7.39993 -1.07287,0.35924 -0.83752,0.85528 1.84208,3.88398 1.68951,1.90963 3.4526,4.39798 3.91883,5.52954 0.46625,1.13156 2.19447,3.57462 3.84151,5.4293 1.64706,1.85462 3.61892,4.72112 4.3809,6.36919 1.30952,2.83222 4.29675,5.35286 6.36356,5.36937 0.49039,0.004 3.07526,1.07622 5.74482,2.38192 3.78242,1.84994 5.34694,2.2842 7.08408,1.97267 1.80212,-0.32322 2.56984,-0.0771 4.0055,1.28204 0.97673,0.9247 3.26785,2.5072 5.09318,3.51541 4.14111,2.28743 8.71006,6.72453 9.26047,8.9942 0.22927,0.94539 1.89069,3.77867 3.69198,6.29727 1.80131,2.51868 3.5211,5.24459 3.82087,6.05807 1.88824,5.12419 2.58457,9.11929 2.87064,16.44728 0.37034,9.48646 0.97679,10.85756 4.55452,10.30626 4.43299,-0.68306 7.52303,0.89769 13.10309,6.70646 2.87526,2.99314 6.42412,7.02127 7.88773,8.95002 1.4636,1.92883 3.22424,3.65791 3.91277,3.84389 0.68853,0.1859 1.86314,1.55787 2.60854,3.04828 0.7454,1.4904 2.08595,3.51259 2.97983,4.4927 3.6236,2.66339 4.31404,5.53694 6.26457,8.71244 0.92898,1.48012 2.51091,3.77742 3.51403,5.1044 1.00311,1.32706 2.58402,4.33537 3.51311,6.68453 1.98707,5.0243 2.37081,5.55609 5.85911,8.12324 6.03059,4.43807 9.19713,8.2575 11.62662,14.02303 1.29861,3.08181 2.70465,7.08343 3.12437,8.89244 1.23752,5.3338 7.2042,12.77995 14.9375,18.63947 8.09677,6.13494 10.35452,8.13931 10.93837,9.7127 0.54854,1.47823 0.88782,1.62901 2.79096,1.23913 1.19181,-0.24408 3.21937,-0.81348 4.50635,-1.26481 14.88455,-5.22025 21.6448,-7.89003 24.60184,-9.71587 2.53236,-1.56355 8.08697,-3.74979 13.51951,-5.31989 1.65387,-0.47801 4.65868,-1.48028 6.67621,-2.22799 2.01753,-0.74764 3.78063,-1.3585 3.91722,-1.35741 0.13659,10e-4 0.0631,-0.75767 -0.16231,-1.6869 -0.22534,-0.92917 -0.67747,-4.75686 -1.00435,-8.50439 -0.60183,-6.89976 -1.60247,-11.44915 -3.85042,-17.5157 -4.12114,-11.12181 -5.62245,-15.45124 -7.53952,-21.72889 -1.17864,-3.85954 -3.00578,-9.42302 -4.05956,-12.36487 -1.28987,-3.60095 -2.14096,-7.74831 -2.60768,-12.6892 -0.38129,-4.03651 -0.9803,-9.59018 -1.32916,-12.34305 -1.3029,-10.281 1.06472,-53.22241 3.50166,-63.5092 1.03935,-4.38738 1.63338,-9.02545 2.18954,-17.11587 0.18896,-2.74857 0.37513,-5.29652 0.4144,-5.66289 0.244,-2.27661 -2.28171,-11.60645 -4.54761,-16.79467 -1.46807,-3.36146 -2.66628,-6.57807 -2.66172,-7.14846 0.005,-0.57039 -0.2512,-1.19923 -0.56892,-1.39912 -0.31772,-0.19989 -0.75311,-1.27762 -0.96723,-2.39452 z"
       style="fill:#f9f9f9;stroke-width:0.666667"
       id="shelter-cove-sinkyone" />
    <path
       sodipodi:nodetypes="csssssssssssssssssssssssssssssssscc"
       inkscape:connector-curvature="0"
       id="kato"
       d="m 419.65754,975.01666 c 11.58065,-2.97177 25.99334,-11.11628 28.37576,-16.035 1.41361,-2.91854 1.56233,-20.83012 0.20111,-24.16991 -0.4685,-1.14911 -1.16377,-4.15476 -1.54506,-6.67921 -0.38128,-2.52447 -1.6695,-7.47738 -2.86272,-11.00637 -1.19323,-3.52904 -2.37389,-7.73861 -2.6237,-9.35459 -0.558,-3.60957 -2.53115,-9.94321 -4.35206,-13.96968 -0.74891,-1.65604 -1.88526,-4.51521 -2.52522,-6.35371 -1.50707,-4.32958 -7.78292,-18.09469 -9.65835,-21.18417 -0.8,-1.31784 -1.45284,-2.60829 -1.45077,-2.86775 0.002,-0.2594 -1.22698,-2.63389 -2.73121,-5.27659 -2.39652,-4.21035 -3.83357,-6.34096 -6.5273,-9.67739 -2.01894,-2.50061 -7.89191,-11.93883 -9.44517,-15.17889 -1.93375,-4.03378 -2.46511,-4.27083 -6.1758,-2.75509 -2.71584,1.10934 -8.99739,2.5046 -17.55694,3.89966 -3.12084,0.50861 -8.22777,1.35544 -11.34873,1.88172 -3.12097,0.52628 -7.47694,1.25543 -9.67992,1.62038 -9.68416,1.60414 -30.53907,8.13107 -38.51254,12.05329 -4.74057,2.33186 -4.75577,2.34808 -4.39649,4.67976 0.31197,2.02462 5.013,18.06362 7.0116,23.92218 2.05109,6.01245 3.6781,10.25098 4.62063,12.0373 0.58289,1.10469 1.68827,3.3636 2.45642,5.01979 0.76815,1.65619 2.1431,4.11112 3.05546,5.45545 0.91235,1.34433 2.38648,4.65622 3.27585,7.35974 0.88938,2.70352 1.87678,5.51764 2.19423,6.25353 0.31745,0.73589 0.92895,2.54083 1.35888,4.01098 1.10595,3.78176 7.52228,14.51843 9.80812,16.41222 0.22344,0.18513 2.51157,2.9035 5.08471,6.04081 4.48399,5.46714 13.3439,14.34374 18.33357,18.36807 2.75233,2.21986 6.96003,5.16811 7.38064,5.17147 0.15992,10e-4 1.86356,1.01312 3.78588,2.24845 1.92231,1.23539 4.69133,2.72477 6.15337,3.30973 2.24144,0.8968 12.7334,3.85939 17.29487,4.88354 2.46148,0.55268 8.64324,0.4854 11.0013,-0.11971 z"
       style="fill:#f9f9f9;stroke-width:0.666667" />
  </g>
  <g
     transform="translate(-13.195935,-36.247076)"
     style="display:inline"
     inkscape:label="language-names"
     id="layer4"
     inkscape:groupmode="layer">
    <text
       transform="rotate(0.45776607)"
       id="text1391"
       y="227.94984"
       x="361.10065"
       style="font-style:normal;font-variant:normal;font-weight:normal;font-stretch:normal;font-size:16px;line-height:1.25;font-family:sans-serif;-inkscape-font-specification:sans-serif;display:inline"
       xml:space="preserve"><tspan
         y="227.94984"
         x="361.10065"
         id="tspan1389"
         sodipodi:role="line">Hupa</tspan></text>
    <text
       transform="rotate(0.45776607)"
       xml:space="preserve"
       style="font-style:normal;font-variant:normal;font-weight:normal;font-stretch:normal;font-size:16px;line-height:1.25;font-family:sans-serif;-inkscape-font-specification:sans-serif;display:inline"
       x="264.10065"
       y="305.31351"
       id="text1395"><tspan
         sodipodi:role="line"
         id="tspan1393"
         x="264.10065"
         y="305.31351">Whilkut</tspan></text>
    <text
       transform="rotate(0.45776607)"
       id="text1399"
       y="492.67715"
       x="320.10065"
       style="font-style:normal;font-variant:normal;font-weight:normal;font-stretch:normal;font-size:16px;line-height:1.25;font-family:sans-serif;-inkscape-font-specification:sans-serif;display:inline"
       xml:space="preserve"><tspan
         y="492.67715"
         x="320.10065"
         id="tspan1397"
         sodipodi:role="line">Nongatl</tspan></text>
    <text
       transform="rotate(0.45776607)"
       xml:space="preserve"
       style="font-style:normal;font-variant:normal;font-weight:normal;font-stretch:normal;font-size:16px;line-height:1.25;font-family:sans-serif;-inkscape-font-specification:sans-serif;display:inline"
       x="88.100639"
       y="529.04077"
       id="text1403"><tspan
         sodipodi:role="line"
         id="tspan1401"
         x="88.100639"
         y="529.04077">Bear River</tspan></text>
    <text
       transform="rotate(0.45776607)"
       id="text1407"
       y="613.40442"
       x="95.100639"
       style="font-style:normal;font-variant:normal;font-weight:normal;font-stretch:normal;font-size:16px;line-height:1.25;font-family:sans-serif;-inkscape-font-specification:sans-serif;display:inline"
       xml:space="preserve"><tspan
         y="613.40442"
         x="95.100639"
         id="tspan1405"
         sodipodi:role="line">Mattole</tspan></text>
    <text
       transform="rotate(0.45776607)"
       xml:space="preserve"
       style="font-style:normal;font-variant:normal;font-weight:normal;font-stretch:normal;font-size:16px;line-height:1.25;font-family:sans-serif;-inkscape-font-specification:sans-serif;display:inline"
       x="226.10063"
       y="602.76807"
       id="text1411"><tspan
         sodipodi:role="line"
         id="tspan1409"
         x="226.10063"
         y="602.76807">Lolangkok</tspan><tspan
         id="tspan1437"
         sodipodi:role="line"
         x="226.10063"
         y="622.76807">Sinkyone</tspan></text>
    <text
       transform="rotate(0.45776607)"
       id="text1415"
       y="722.13165"
       x="239.10063"
       style="font-style:normal;font-variant:normal;font-weight:normal;font-stretch:normal;font-size:16px;line-height:1.25;font-family:sans-serif;-inkscape-font-specification:sans-serif;display:inline"
       xml:space="preserve"><tspan
         y="722.13165"
         x="239.10063"
         id="tspan1413"
         sodipodi:role="line">Shelter </tspan><tspan
         id="tspan1439"
         y="742.13165"
         x="239.10063"
         sodipodi:role="line">Cove </tspan><tspan
         id="tspan1441"
         y="762.13165"
         x="239.10063"
         sodipodi:role="line">Sinkyone</tspan></text>
    <text
       transform="rotate(0.45776607)"
       xml:space="preserve"
       style="font-style:normal;font-variant:normal;font-weight:normal;font-stretch:normal;font-size:16px;line-height:1.25;font-family:sans-serif;-inkscape-font-specification:sans-serif;display:inline"
       x="424.10065"
       y="667.4953"
       id="text1419"><tspan
         sodipodi:role="line"
         id="tspan1417"
         x="424.10065"
         y="667.4953">Lassik</tspan></text>
    <text
       transform="rotate(0.45776607)"
       id="text1423"
       y="750.85895"
       x="369.10065"
       style="font-style:normal;font-variant:normal;font-weight:normal;font-stretch:normal;font-size:16px;line-height:1.25;font-family:sans-serif;-inkscape-font-specification:sans-serif;display:inline"
       xml:space="preserve"><tspan
         y="750.85895"
         x="369.10065"
         id="tspan1421"
         sodipodi:role="line">Eel River </tspan><tspan
         id="tspan1443"
         y="770.85895"
         x="369.10065"
         sodipodi:role="line">Wailaki</tspan></text>
    <text
       transform="rotate(0.45776607)"
       xml:space="preserve"
       style="font-style:normal;font-variant:normal;font-weight:normal;font-stretch:normal;font-size:16px;line-height:1.25;font-family:sans-serif;-inkscape-font-specification:sans-serif;display:inline;fill:#000000"
       x="521.10065"
       y="752.2226"
       id="text1427"><tspan
         sodipodi:role="line"
         id="tspan1425"
         x="521.10065"
         y="752.2226">Pitch </tspan><tspan
         id="tspan1445"
         sodipodi:role="line"
         x="521.10065"
         y="772.2226">Wailaki</tspan></text>
    <text
       transform="rotate(0.45776607)"
       id="text1431"
       y="829.58624"
       x="466.10065"
       style="font-style:normal;font-variant:normal;font-weight:normal;font-stretch:normal;font-size:16px;line-height:1.25;font-family:sans-serif;-inkscape-font-specification:sans-serif;display:inline"
       xml:space="preserve"><tspan
         y="829.58624"
         x="466.10065"
         id="tspan1429"
         sodipodi:role="line">North </tspan><tspan
         id="tspan1676"
         y="849.58624"
         x="466.10065"
         sodipodi:role="line">Fork </tspan><tspan
         id="tspan1447"
         y="869.58624"
         x="466.10065"
         sodipodi:role="line">Wailaki</tspan></text>
    <text
       transform="rotate(0.45776607)"
       xml:space="preserve"
       style="font-style:normal;font-variant:normal;font-weight:normal;font-stretch:normal;font-size:16px;line-height:1.25;font-family:sans-serif;-inkscape-font-specification:sans-serif;display:inline"
       x="366.10065"
       y="897.94989"
       id="text1435"><tspan
         sodipodi:role="line"
         id="tspan1433"
         x="366.10065"
         y="897.94989">Kato</tspan></text>
  </g>
</svg>
