<?xml version="1.0" encoding="UTF-8" standalone="no"?>
<svg
   xmlns:dc="http://purl.org/dc/elements/1.1/"
   xmlns:cc="http://creativecommons.org/ns#"
   xmlns:rdf="http://www.w3.org/1999/02/22-rdf-syntax-ns#"
   xmlns:svg="http://www.w3.org/2000/svg"
   xmlns="http://www.w3.org/2000/svg"
   version="1.1"
   id="svg24699"
   height="354.77066"
   width="502.64471">
  <defs
     id="defs24701">
    <clipPath
       clipPathUnits="userSpaceOnUse"
       id="clipPath28808">
      <path
         d="m 49,13 514,0 0,767 -514,0 0,-767 z"
         id="path28810" />
    </clipPath>
    <clipPath
       clipPathUnits="userSpaceOnUse"
       id="clipPath28400">
      <path
         d="m 49,44 514,0 0,736 -514,0 0,-736 z"
         id="path28402" />
    </clipPath>
  </defs>
  <metadata
     id="metadata24704">
    <rdf:RDF>
      <cc:Work
         rdf:about="">
        <dc:format>image/svg+xml</dc:format>
        <dc:type
           rdf:resource="http://purl.org/dc/dcmitype/StillImage" />
        <dc:title></dc:title>
      </cc:Work>
    </rdf:RDF>
  </metadata>
  <g
     transform="translate(-9529.4323,-2546.3422)"
     id="layer1">
    <path
       id="rect33363"
       d="m 9529.692,2549.0596 504.007,-0.2725 c 0.144,-1e-4 0,0.097 0,0.2181 l 0,351.6145 c -142.3246,0.078 -344.6148,0.4061 -503.7335,0.4932 -0.1437,-0.01 -0.26,-0.097 -0.26,-0.218 l -0.2732,-351.617 c 10e-5,-0.1207 0.1157,-0.2182 0.2597,-0.2183 z"
       style="color:#000000;fill:#4c869a;fill-opacity:1;fill-rule:nonzero;stroke:none;stroke-width:1;marker:none;visibility:visible;display:inline;overflow:visible;enable-background:accumulate" />
    <path
       id="path31342"
       d="m 10033.927,2549.0189 c -67.9306,0 -462.1878,-1.4153 -480.4744,-1.4153 3.2177,3.7077 8.5581,15.0298 9.4185,16.5693 0.8603,1.5394 2.9166,3.3568 4.5875,4.0556 1.6709,0.6987 3.2581,1.8394 3.5132,2.5224 1.3711,-0.1319 1.2994,2.4292 1.9618,3.6367 0.2015,5.5744 10.3601,6.3047 9.5277,11.2826 -4.7685,-1.5526 -7.7352,4.8468 -6.2492,8.7118 -1.7764,3.5617 -2.3212,8.8978 2.2863,10.6559 4.4347,1.7987 6.2914,7.9668 11.5013,7.9079 3.8772,2.0846 8.7818,1.3208 12.6612,2.0017 2.5427,1.5124 5.7241,-0.83 7.8109,2.1485 3.1556,2.9352 6.8619,3.3955 10.6964,2.9038 -1.8447,1.4314 -1.1863,4.1254 -1.65,6.29 0.7408,3.9791 5.8123,6.2582 3.9137,10.8143 -3.0268,3.871 0.2544,8.643 -1.2813,12.8919 -0.086,3.867 -4.3973,8.4633 -0.4139,12.0001 3.0732,5.3364 2.9557,12.0067 6.7443,16.8621 2.5989,3.2275 -2.4734,5.9839 -0.094,9.3779 2.2546,3.3944 7.2904,5.4546 7.9377,9.7086 -1.3661,3.7385 1.0512,7.7824 -1.6131,11.3812 -1.9959,3.8854 -2.5882,8.558 1.1772,11.7048 4.0824,4.9023 12.0472,1.8187 16.4663,5.4827 2.7874,2.9491 6.9526,4.3403 9.3837,7.8661 0.6901,0.766 1.3608,1.1335 2.0328,1.2414 -1.7647,3.5072 2.313,8.2257 6.0277,5.5853 3.4234,-1.9689 7.1992,-2.7305 10.9005,-1.5436 12.3635,-1.3226 23.4813,-10.6334 36.2989,-7.9457 3.2914,0.5616 6.5339,-1.9817 9.3521,0.2037 3.5105,-0.079 7.1459,-1.9007 10.3687,0.6903 5.7109,2.7221 11.8041,0.9711 17.7095,0.5129 6.2962,1.3638 12.6423,-2.3428 18.3957,-2.914 3.9637,2.6197 8.5069,6.3299 13.4794,3.5641 1.8585,0.6816 4.0613,0.1529 4.9423,-1.6828 3.3181,2.7208 6.1594,-1.0372 5.8514,-4.4255 3.4789,1.2099 7.1528,-0.5614 10.4339,1.6675 7.8254,0.4367 14.7041,5.6257 21.687,8.7339 3.5243,1.4899 9.0041,7.9253 12.2546,2.7878 0.091,-0.6933 0.1321,-1.3924 0.1513,-2.0921 1.069,3.7636 2.5107,7.4372 6.5382,7.9302 3.4701,-1.7311 7.2262,0.7392 8.1277,4.3323 1.9587,2.9639 2.3297,6.6057 3.9107,9.9145 2.4749,-1.5366 2.544,4.2621 5.4063,4.817 6.2153,2.1823 12.4954,3.9926 18.5247,6.614 2.4634,0.8077 2.1243,-3.9215 3.9325,-0.9045 3.9464,2.9688 9.2779,2.4199 13.6469,4.3689 6.0121,1.3138 12.254,0.9477 18.2325,0.7508 4.2463,0.2745 10.0542,4.6754 13.6019,0.682 0.1447,-2.3929 4.9511,-2.4006 3.5698,-5.707 -6.2773,-17.2485 -5.0633,-5.7902 1.8103,0.2901 0.2105,-0.079 0.3312,-0.3734 0.3078,-0.7825 l 0.5882,0.9477 14.7768,-5.8972 -0.021,-0.059 c 3.5158,-1.1536 4.5126,-1.0238 5.7424,-0.08 1.0289,0.7894 2.4351,1.2241 3.1009,0.975 2.6031,-0.9742 12.2564,0.8915 16.0728,3.0938 2.3645,1.3639 5.3339,4.3349 7.2335,7.2029 1.7776,2.6833 4.6342,6.1832 6.3554,7.7985 1.721,1.615 3.1311,3.5667 3.1243,4.3362 -0.01,0.7692 1.3488,3.1753 3.003,5.3492 3.3358,4.3847 18.2088,14.8458 34.7168,14.8458 0,-78.8905 0,-186.6984 0,-260.5625 z m -343.6141,161.0533 c 0.5652,0.4011 1.2378,0.6418 2.0148,0.7474 -0.03,0.011 -0.062,0.012 -0.088,0.032 -0.8915,0.9717 -1.443,1.8228 -2.3241,2.4381 0.2002,-0.2372 0.4027,-0.4821 0.5966,-0.7238 -6e-4,-0.8436 -0.074,-1.6714 -0.1994,-2.4946 z m 120.1592,-41.5323 c 0.044,-0.01 0.085,-0.013 0.128,-0.015 -0.01,0.1027 -0.013,0.2044 -0.02,0.307 -0.037,-0.098 -0.074,-0.1954 -0.1096,-0.2925 z m 12.6119,37.6223 c 0.3523,0.5603 0.7247,1.1124 1.1181,1.6504 -0.3693,-0.1461 -0.7567,-0.3016 -1.1518,-0.4032 0.085,-0.043 0.1791,-0.057 0.2634,-0.099 -0.072,-0.386 -0.1522,-0.764 -0.2297,-1.1486 z"
       style="fill:#cccccc" />
    <path
       id="Purisimeño"
       d="m 9675.5749,2723.8466 c 6.0357,-5.422 11.6253,-10.3846 12.4212,-11.0277 1.3097,-1.0583 1.0053,-2.1975 -3.2078,-12.0004 -11.3968,-26.5186 -25.0529,-63.0321 -27.2448,-72.8476 -1.2104,-5.4195 -2.5426,-11.1672 -2.9603,-12.7726 l -0.7594,-2.919 -7.248,2.0308 c -25.8904,7.2546 -25.1444,6.992 -24.5298,8.6343 0.318,0.8498 0.1855,1.6921 -0.2945,1.8717 -0.9873,0.3695 0.5978,3.9887 2.3371,5.3361 1.7738,1.3741 2.1754,6.8137 0.6499,8.802 -0.7642,0.996 -0.9774,2.8384 -0.4817,4.1627 0.4891,1.3069 0.5837,3.5583 0.2103,5.0032 -0.3734,1.445 -0.4119,2.5272 -0.085,2.4051 0.3264,-0.1222 -0.2265,1.5789 -1.2289,3.78 -1.4006,3.0763 -1.4865,4.4055 -0.3707,5.7444 1.5981,1.918 2.9636,5.4799 4.2475,11.0786 0.4619,2.0141 1.1579,3.807 1.5465,3.984 0.389,0.177 1.3068,1.8074 2.0397,3.6228 0.9194,2.2771 0.9188,3.7716 0,4.818 -1.4345,1.6313 -0.8511,4.4696 1.1072,5.3865 0.6622,0.3101 2.5526,2.2056 4.2009,4.2124 2.6273,3.1987 2.8983,3.8978 2.1963,5.6686 -0.4405,1.111 -0.4717,2.8997 -0.069,3.9749 0.4024,1.0753 -0.2579,4.3461 -1.4673,7.2686 -1.2093,2.9225 -1.8784,5.7357 -1.4866,6.2515 0.3917,0.516 1.3576,1.9407 2.1466,3.1662 1.0862,1.6875 3.198,2.426 8.7019,3.0425 4.8909,0.548 7.4741,1.3658 7.8988,2.5008 0.3471,0.9275 1.3229,1.8118 2.1684,1.965 0.8456,0.1528 2.9875,1.7779 4.7599,3.6104 1.7724,1.8325 3.3593,3.2807 3.5263,3.2181 0.1671,-0.062 5.2421,-4.5499 11.2778,-9.972 z"
       style="fill:#ff7f00;fill-opacity:1" />
    <rect
       style="opacity:0.1;color:#000000;fill:#ffffff;fill-opacity:0;fill-rule:nonzero;stroke:none;stroke-width:7.14531565;marker:none;visibility:visible;display:inline;overflow:visible;enable-background:accumulate"
       id="rect6688"
       width="1116.4802"
       height="910.81281"
       x="8200.5303"
       y="-1122.0553" />
    <g
       transform="matrix(1.25,0,0,-1.25,4605.7018,4781.3652)"
       id="g28394" />
    <g
       transform="matrix(1.25,0,0,-1.25,4605.7018,4781.3652)"
       id="g28804">
      <g
         clip-path="url(#clipPath28808)"
         id="g28806">
        <g
           transform="matrix(1.023331,0,0,1.023331,49,44)"
           id="g28812" />
        <g
           transform="matrix(1.023331,0,0,1.023331,49,44)"
           id="g28814" />
        <g
           transform="matrix(1.023331,0,0,1.023331,49,44)"
           id="g28816" />
        <g
           transform="matrix(1.023331,0,0,1.023331,49,44)"
           id="g28818" />
        <g
           transform="matrix(1.023331,0,0,1.023331,49,44)"
           id="g28820" />
        <g
           transform="matrix(1.023331,0,0,1.023331,49,44)"
           id="g28822" />
        <g
           transform="matrix(1.023331,0,0,1.023331,49,44)"
           id="g28824" />
        <g
           transform="matrix(1.023331,0,0,1.023331,49,44)"
           id="g28826" />
        <g
           transform="matrix(1.023331,0,0,1.023331,49,44)"
           id="g28828" />
        <g
           transform="matrix(1.023331,0,0,1.023331,49,44)"
           id="g28830" />
        <g
           transform="matrix(1.023331,0,0,1.023331,49,44)"
           id="g28832" />
        <g
           transform="matrix(1.023331,0,0,1.023331,49,44)"
           id="g28834" />
        <g
           transform="matrix(1.023331,0,0,1.023331,49,44)"
           id="g28836" />
        <g
           transform="matrix(1.023331,0,0,1.023331,49,44)"
           id="g28838" />
        <g
           transform="matrix(1.023331,0,0,1.023331,49,44)"
           id="g28840" />
        <g
           transform="matrix(1.023331,0,0,1.023331,49,44)"
           id="g28842" />
        <g
           transform="matrix(1.023331,0,0,1.023331,49,44)"
           id="g28844" />
        <g
           transform="matrix(1.023331,0,0,1.023331,49,44)"
           id="g28846" />
        <g
           transform="matrix(1.023331,0,0,1.023331,49,44)"
           id="g28848" />
        <g
           transform="matrix(1.023331,0,0,1.023331,49,44)"
           id="g28850" />
        <path
           id="path28852"
           style="fill:#ffffff;fill-opacity:1;fill-rule:nonzero;stroke:none"
           d="m 49,12.79862 515.759,0 L 564.759,44 49,44 49,12.79862 z" />
        <g
           transform="matrix(1.023331,0,0,1.023331,49,44)"
           id="g28854">
          <path
             id="path28856"
             style="fill:none;stroke:#0000ff;stroke-width:0.45175999;stroke-linecap:butt;stroke-linejoin:miter;stroke-miterlimit:10;stroke-opacity:1;stroke-dasharray:none"
             d="m 235.53,-22.59 81.88,0" />
        </g>
        <g
           transform="matrix(1.023331,0,0,1.023331,49,44)"
           id="g28858">
          <text
             id="text28860"
             transform="matrix(1,0,0,-1,140.1,-13.55)">
            <tspan
               id="tspan28862"
               y="0"
               x="0 4.14258 7.5325799 9.4174204 12.05484 13.74984 16.76016 20.15016 23.540159 25.424999 28.43532 31.825319 33.710159 35.405159 38.795158 42.185162 47.080318 50.470322 52.35516 55.745159 58.755482 62.145481 65.1558 68.545799 70.240799 72.498543 74.756279 78.146278 83.42112 85.116119 88.506119 91.896118 95.286118 96.981117 100.37112 103.76112 107.15112 108.84612 112.23612 115.62612 119.01612 120.71112 124.10112 127.49112 129.18613 132.57613 135.96613 137.66112 141.4308 144.8208 148.2108 149.90581 151.6008 154.9908 158.3808 160.07581 163.84547 166.8558 170.2458 171.9408 175.3308 178.72079 182.11079 185.50079 187.1958 190.5858 193.9758 195.86064 199.25064 202.64064 204.52548 207.91548 211.30548 213.00047 217.89565"
               style="font-size:6.78000021px;font-variant:normal;font-weight:normal;writing-mode:lr-tb;fill:#000000;fill-opacity:1;fill-rule:nonzero;stroke:none;font-family:Times;-inkscape-font-specification:Times-Roman">This content downloaded from 128.111.121.42 on Sun, 29 Sep 2013 00:13:51 AM</tspan>
          </text>
        </g>
        <g
           transform="matrix(1.023331,0,0,1.023331,49,44)"
           id="g28864">
          <text
             id="text28866"
             transform="matrix(1,0,0,-1,186.59,-20.33)">
            <tspan
               id="tspan28868"
               y="0"
               x="0 4.8951602 6.7800002 8.6648397 10.35984 13.74984 16.38726 19.397579 21.092581 23.73 27.120001 30.51 32.39484 35.405159 38.415482 40.30032 41.995319 43.880161 47.270161"
               style="font-size:6.78000021px;font-variant:normal;font-weight:normal;writing-mode:lr-tb;fill:#000000;fill-opacity:1;fill-rule:nonzero;stroke:none;font-family:Times;-inkscape-font-specification:Times-Roman">All use subject to</tspan>
          </text>
        </g>
        <g
           transform="matrix(1.023331,0,0,1.023331,49,44)"
           id="g28870">
          <text
             id="text28872"
             transform="matrix(1,0,0,-1,235.5552,-20.33)">
            <tspan
               id="tspan28874"
               y="0"
               x="0 2.6374199 6.4071002 10.54968 15.44484 19.9671 21.6621 25.80468 28.815001 31.072741 36.34758 38.985001 40.68 43.690319 47.080318 50.470322 52.165321 56.68758 60.077579 63.467579 66.857582 68.742416 70.627258 72.5121 75.9021 79.292099"
               style="font-size:6.78000021px;font-variant:normal;font-weight:normal;writing-mode:lr-tb;fill:#0000ff;fill-opacity:1;fill-rule:nonzero;stroke:none;font-family:Times;-inkscape-font-specification:Times-Roman">JSTOR Terms and Conditions</tspan>
          </text>
        </g>
      </g>
    </g>
    <path
       id="path30892"
       d="m 9842.9612,2799.1102 c -1.4608,-0.2957 -1.476,-2.4414 -3.0028,-2.6224 -2.5592,0.049 -4.8257,1.4238 -7.3067,1.8682 -1.072,-1.0824 -0.01,-2.8451 -1.0199,-3.9552 -0.8911,-2.4096 1.4322,-5.117 3.9052,-4.9671 3.0491,-0.4568 6.3556,-0.067 9.1281,-1.6663 0.9747,-0.8718 3.042,-0.5982 3.2513,-2.2163 0.1919,-1.4077 0.089,-3.117 1.3253,-4.0919 1.2723,-0.7048 2.6087,0.3356 3.4255,1.2671 1.1641,1.3041 2.8863,-0.1152 4.2769,0.1631 1.3403,0.6683 0.2365,2.4338 1.0102,3.4577 1.0325,1.1354 0.8704,2.9401 -0.753,3.3848 -1.0651,0.5232 -1.9926,1.3535 -3.2208,1.4304 -1.1551,0.1821 -2.3501,0.7529 -2.7822,1.918 -0.6429,1.261 -1.384,2.6186 -2.7437,3.2116 -1.1107,0.946 -1.6358,2.7097 -3.2444,2.9627 -0.7521,0.1071 -1.5054,-0.044 -2.249,-0.1444 z"
       style="fill:#f781bf;fill-opacity:1" />
    <path
       id="path30890"
       d="m 9843.5245,2792.6116 c -0.5112,-0.3959 -1.3508,-0.5622 -1.8659,-0.3694 -0.5151,0.1928 -0.5184,0.6745 -0.01,1.0705 0.5111,0.396 1.3508,0.5622 1.8659,0.3694 0.5151,-0.1927 0.5184,-0.6744 0.01,-1.0705 z"
       style="fill:#f781bf;fill-opacity:1" />
    <path
       id="Ventureño"
       d="m 9799.0326,2600.3485 c -0.5887,0.1915 -0.8326,0.5748 -0.9739,1.2319 -0.7213,3.3581 5.9143,12.2814 9.6803,13.0273 0.7821,0.1549 2.9729,1.3698 4.8846,2.7098 1.912,1.3398 3.8131,2.5503 4.2118,2.6947 0.3989,0.1443 3.7509,2.1331 7.4585,4.4158 3.7077,2.2829 7.0531,4.0338 7.4588,3.882 0.4057,-0.1518 1.7226,-1.1184 2.8981,-2.1523 2.9577,-2.6016 9.4664,-2.9665 15.7902,-0.871 4.6288,1.5336 5.1512,2.002 6.2798,5.7244 0.6759,2.2285 1.6894,10.341 2.2779,18.0333 l 1.0916,13.9724 -6.5787,3.7301 c -6.4823,3.6621 -6.7189,3.7298 -16.1908,3.7236 -5.2866,0 -13.0036,-0.4384 -17.1422,-0.9587 -4.1386,-0.5201 -7.6948,-0.8907 -7.9107,-0.8099 -0.216,0.081 2.0862,7.7478 5.1384,17.0293 l 5.5484,16.8759 7.9558,9.9355 7.9158,9.917 3.091,10.4883 c 3.3158,11.2407 4.3613,12.7155 8.0756,11.3254 2.5038,-0.937 6.4955,1.6644 7.7689,5.0672 0.4227,1.1294 0.9123,1.7675 1.3959,1.9467 l 0.8468,2.6194 c -0.2325,0.7542 0.013,1.405 0.8211,2.4622 l 0.4239,1.3094 0.3659,-0.2704 c 1.2517,1.4758 2.6363,3.5672 3.0582,4.6948 0.5269,1.4078 2.5441,2.4971 6.3545,3.4274 3.0667,0.749 7.4846,2.2828 9.8256,3.43 4.3203,2.1171 5.0626,1.8468 2.078,-0.7776 -1.3817,-1.2151 -1.3365,-1.5685 0.2867,-2.1761 1.0645,-0.3983 2.4464,-0.075 3.0719,0.719 2.7814,3.5292 4.8897,4.8589 8.1967,5.1406 1.9518,0.1663 4.352,0.7734 5.3392,1.3385 2.1529,1.2326 15.259,2.2306 17.6212,1.3466 0.919,-0.3439 4.0229,0.1547 6.912,1.0835 5.3276,1.713 7.9439,1.7009 7.3077,0 -0.1928,-0.5151 0.6837,-1.3237 1.9616,-1.8019 2.5084,-0.9388 2.6331,-0.5291 -3.4519,-12.255 -1.186,-2.2855 -1.0161,-4.6081 0.8347,-11.8572 4.9307,-13.5066 2.7545,-6.6567 2.9349,-13.3773 0.4163,-0.1559 1.5785,-3.5939 2.5798,-7.6389 1.0016,-4.0451 2.6264,-8.8574 3.6061,-10.6922 l 1.7579,-3.3273 -6.8373,-3.3804 c -2.9955,-1.4817 -5.4037,-2.4692 -7.6825,-2.964 l -4.5497,-6.0051 c 0.031,-0.4852 0.074,-0.9826 0.1322,-1.5178 0.457,-4.0054 0.1264,-5.0483 -4.4417,-14.4539 -4.6525,-9.5789 -5.6274,-10.8716 -17.442,-23.3356 -13.4801,-14.2211 -12.8508,-13.1106 -12.3842,-22.3924 0.06,-1.1969 0.2485,-4.9138 0.4114,-8.262 l 0.2929,-6.0823 8.5488,-7.2033 8.5489,-7.2034 -2.8622,-2.8329 c -15.5413,-15.3721 -21.0498,-20.1271 -22.9597,-19.8024 -1.1337,0.1929 -7.3096,1.7594 -13.7072,3.4948 -11.2139,3.0419 -18.0822,4.5332 -26.6782,5.7468 -2.2311,0.3149 -6.7779,1.0043 -10.0995,1.5441 -5.3636,0.8712 -17.4104,0.975 -28.0754,0.2302 -1.5437,-0.1099 -2.4839,-0.1095 -3.0724,0.082 z"
       style="fill:#4daf4a;fill-opacity:1;stroke:#4daf4a;stroke-opacity:1" />
    <path
       id="Ineseño"
       d="m 9820.3905,2702.7705 c -0.3432,-1.7801 -3.1106,-10.0044 -6.1494,-18.2763 l -5.525,-15.0397 -13.3255,1.5517 c -7.3289,0.8534 -15.6698,1.4004 -18.535,1.2157 -2.8653,-0.1848 -7.4193,-0.4636 -10.12,-0.6182 -2.7008,-0.1555 -8.9288,-0.7481 -13.8399,-1.3176 -4.9111,-0.5694 -10.9226,-1.2259 -13.3588,-1.4589 -2.4361,-0.2326 -5.2478,-0.6843 -6.2481,-1.0032 -1.0002,-0.3189 -3.9894,-0.6029 -6.6426,-0.6313 -2.6532,-0.028 -5.6584,-0.3547 -6.6781,-0.7261 -1.0198,-0.3711 -3.0312,-0.5259 -4.4698,-0.3441 -1.4386,0.182 -3.9204,-0.1552 -5.5152,-0.7486 -1.595,-0.5937 -3.4091,-0.8887 -4.0317,-0.6557 -0.6227,0.2331 -4.528,0.1931 -8.6787,-0.089 -5.8518,-0.3974 -9.3548,0.038 -15.5977,1.9398 l -8.051,2.452 6.1679,14.1353 c 3.3922,7.7743 6.79,15.6983 7.5506,17.6087 -3.2639,-4.0301 2.3415,3.9292 3.063,6.5365 0.7219,1.9288 1.0614,1.9489 32.2693,1.9106 15.2308,-0.019 30.6573,0.185 34.2811,0.4529 36.2939,2.6827 47.0649,2.3869 58.2745,-1.6005 l 5.7845,-2.0577 -0.6243,-3.2365 z"
       style="fill:#a65628;fill-opacity:1" />
    <path
       id="Interior"
       d="m 9648.3809,2574.8472 c -0.032,0.024 -0.053,0.057 -0.066,0.092 -0.2221,0.5486 1.2684,8.2874 3.3352,17.2036 2.0667,8.9162 4.7319,20.7629 5.9114,26.3163 6.3836,12.2293 5.6984,24.8977 16.3949,47.0175 0.725,-0.024 4.1009,-0.9539 7.5102,-2.0433 7.531,-2.4067 13.9613,-2.2629 41.9588,0.8471 52.6495,5.8479 57.1973,6.0147 76.7038,3.1925 9.4745,-1.3709 19.0446,-1.5205 23.7194,-0.3684 2.2989,0.5666 5.0016,0.7271 6.0054,0.3552 1.0025,-0.3753 3.331,-0.4789 5.1828,-0.2379 1.8519,0.2408 4.6384,0.068 6.1962,-0.3838 1.5576,-0.4511 3.2032,-0.3603 3.6356,0.1739 0.4321,0.5346 1.0447,0.6092 1.3713,0.1879 0.3267,-0.4217 2.4011,-1.4855 4.6101,-2.3927 5.6274,-2.3113 6.3328,-3.4617 5.8472,-9.1619 -0.2351,-2.7585 -0.5993,-7.8305 -0.8448,-11.2621 -0.2455,-3.4317 -0.8246,-8.1315 -1.2806,-10.4651 -0.7633,-3.9058 -1.1519,-4.3892 -4.8533,-5.9248 -5.5633,-2.3079 -11.3557,-1.6664 -14.291,1.578 -1.2324,1.362 -2.4309,2.5447 -2.6534,2.628 -0.2224,0.083 -7.8508,-4.24 -16.972,-9.5976 l -16.5914,-9.74 -2.4646,-6.5852 c -1.355,-3.6207 -3.7383,-8.1632 -5.2821,-10.102 -6.7398,-8.4642 -23.8751,-30.6087 -29.0123,-37.4906 -3.0838,-4.1313 -6.4935,-8.3098 -7.5869,-9.3062 -2.4596,-2.2412 -18.695,-1.9978 -21.1533,-0.4071 -0.9848,0.6371 -4.914,3.2747 -12.4281,8.3035 -13.5822,9.0895 -13.7534,9.1571 -28.3954,13.9968 -8.1004,2.6776 -18.9517,5.64 -24.0967,6.5824 -9.0332,1.6545 -9.5351,1.6228 -14.7244,-1.096 -2.7708,-1.4519 -5.2068,-2.2659 -5.6862,-1.9094 z"
       style="fill:#e41a1c;fill-opacity:1" />
    <path
       id="Obispeño"
       d="m 9652.1631,2606.6363 c -0.7871,-4.1352 -6.9501,-31.5031 -7.3119,-32.4697 -0.1498,-0.4004 -1.031,-0.4441 -1.9583,-0.097 -0.9272,0.347 -2.2285,0.4005 -2.8918,0.1189 -0.6632,-0.2814 -3.3464,-0.4539 -5.9623,-0.3854 -10.0254,0.2716 -16.1991,0.107 -17.8779,-0.4767 -0.9591,-0.3335 -6.5902,-3.7793 -12.5136,-7.6574 -6.1863,-4.0503 -11.4175,-6.7949 -12.2915,-6.4488 -3.0283,1.1984 -16.6703,14.2935 -16.3997,15.7416 0.1511,0.8092 2.073,2.4251 4.2707,3.5908 2.6989,1.4315 4.3664,3.1096 5.1376,5.1702 1.2026,3.2133 -0.4896,6.1784 -2.3356,4.0926 -1.5965,-1.8037 -4.9533,2.1084 -3.9985,4.6598 0.4211,1.1252 0.2082,3.1241 -0.473,4.442 -1.5456,2.9898 -0.7442,5.2882 2.2589,6.4789 1.272,0.5043 3.4957,2.3892 4.9416,4.1886 1.4459,1.7993 2.9828,3.1391 3.4156,2.9772 0.4325,-0.1619 1.8059,0.1649 3.0518,0.7264 2.3707,1.0683 7.7969,1.7624 10.3372,1.3221 0.8174,-0.1416 1.8004,0.1315 2.1847,0.6067 0.3844,0.4755 1.4969,0.5658 2.4723,0.2009 0.9754,-0.365 2.9511,0.2169 4.3904,1.2932 5.6074,4.1929 6.7485,4.3567 15.1923,2.181 4.4546,-1.1478 11.3966,-2.9055 15.4267,-3.9057 12.0914,-3.001 11.6241,-2.7294 10.9345,-6.3523 z"
       style="fill:#377eb8;fill-opacity:1" />
    <path
       id="Barbareño"
       d="m 9838.628,2732.1032 c -1.7851,-6.7309 -2.658,-8.457 -7.4867,-14.8027 -3.0063,-3.9507 -6.3449,-7.4549 -7.4192,-7.7869 -1.0742,-0.3321 -4.0853,0.1937 -6.6914,1.1686 -7.2497,2.7132 -19.1248,4.2673 -26.4125,3.4592 -3.6089,-0.4001 -7.0402,-0.5483 -7.625,-0.3295 -0.5848,0.2188 -10.684,-0.2553 -22.4427,-1.0538 -23.7363,-1.6117 -27.0344,-1.6143 -32.2382,-0.026 -2.1891,0.6684 -3.771,0.6229 -4.0477,-0.1163 -0.2497,-0.6674 -1.1065,-0.9692 -1.9041,-0.6707 -0.7976,0.2985 -3.5101,0.3527 -6.028,0.1205 -2.518,-0.232 -5.3292,-0.1411 -6.2474,0.2026 -0.9183,0.3436 -4.2704,0.4533 -7.4493,0.2437 -9.5573,-0.6299 -10.5963,-0.4121 -9.6828,2.029 0.7197,1.9229 0.6306,2.0094 -0.9802,0.9511 -1.6349,-1.0743 -2.7566,-0.3237 -14.5166,9.7126 -11.5727,9.8766 -12.6682,11.0811 -11.9129,13.0992 0.7812,2.0877 1.127,2.0962 5.6977,0.1401 3.6468,-1.5609 5.5384,-1.8371 7.55,-1.1029 2.3106,0.8434 4.5202,0.3172 15.8806,-3.7829 12.2789,-4.4313 13.5936,-4.7145 18.9071,-4.0713 3.1409,0.3803 6.891,0.2497 8.3337,-0.2902 1.4676,-0.5493 3.0921,-0.4518 3.6879,0.2214 0.6311,0.7131 2.253,0.7584 3.982,0.1113 2.056,-0.7695 4.1323,-0.5221 7.0337,0.8379 4.1015,1.9225 9.9993,2.3973 13.5011,1.0866 1.0135,-0.3792 3.8115,-0.4654 6.2178,-0.1914 4.7939,0.5459 9.3962,-1.7046 14.3002,-2.8095 1.1833,-1.3457 3.899,0.2942 5.2057,1.1527 1.097,0.7207 4.4781,3.9761 7.42,2.942 2.46,-0.8651 4.63,-1.1528 4.8219,-0.6399 0.1919,0.5128 0.8163,0.1159 1.3874,-0.8813 0.8775,-1.5328 1.3104,-1.6349 2.7949,-0.6595 0.9663,0.6348 1.9027,0.8335 2.0813,0.4416 0.4123,-0.9057 0.4661,-6.5124 3.2613,-5.1157 1.1759,0.5876 2.9717,0.7564 3.9903,0.3751 1.0188,-0.3813 2.9306,-0.1357 4.2485,0.5456 1.3179,0.6813 2.9649,1.0258 3.66,0.7657 1.56,-0.5839 19.6069,7.7302 24.6717,11.3658 5.7313,4.1142 6.8571,2.4338 4.4499,-6.6422 z"
       style="fill:#984ea3;fill-opacity:1" />
    <path
       id="path32951"
       d="m 9799.2993,2805.5303 c 1.7036,-1.8659 8.1132,-4.2049 11.4755,-4.1874 1.8056,0.01 2.7855,-0.3862 2.9444,-1.1884 0.1309,-0.6615 1.3404,-1.3268 2.6877,-1.4786 1.3827,-0.1558 2.294,-0.6918 2.0923,-1.2304 -0.1965,-0.525 0.1706,-2.1128 0.8149,-3.5287 1.1721,-2.574 1.1721,-2.574 -0.701,-1.873 -1.2487,0.4673 -2.1067,0.077 -2.574,-1.1722 -0.5675,-1.5163 -1.3255,-1.6394 -3.979,-0.6463 -2.2545,0.8437 -3.1177,1.6551 -2.7646,2.5986 0.7782,2.0796 -2.2454,4.9125 -5.8222,5.455 -1.7423,0.2644 -4.4758,0.8369 -6.0744,1.2728 -2.5864,0.7048 -3.0802,0.4264 -4.4802,-2.5264 -1.042,-2.198 -2.0411,-3.1435 -2.9588,-2.8 -0.7621,0.2851 -3.3534,0.294 -5.7583,0.019 -2.405,-0.2745 -5.6538,-0.02 -7.2197,0.5665 -1.7569,0.6575 -3.027,0.5843 -3.3172,-0.1914 -0.7635,-2.0401 -11.1671,-0.9467 -12.2237,1.2847 -0.1308,0.276 1.4545,1.6791 3.5227,3.118 2.7302,1.8991 3.9301,3.4497 4.3788,5.6591 0.4513,2.2216 1.306,3.3157 3.1648,4.0528 1.4007,0.5552 2.8026,1.6937 3.1155,2.5297 1.2114,3.237 19.5387,-1.2017 23.6765,-5.7341 z"
       style="fill:#f781bf;fill-opacity:1" />
    <path
       id="path32947"
       d="m 9750.7815,2821.996 3.6724,-1.9656 -1.7198,-3.7372 c -1.2326,-2.6786 -2.21,-3.6527 -3.4502,-3.439 -1.8634,0.3213 -9.0966,-2.1248 -9.5042,-3.214 -0.1361,-0.3635 0.1469,-1.5279 0.6296,-2.5873 0.8979,-1.9715 0.3975,-1.8558 -12.7701,2.9573 -3.5045,1.2806 -8.1818,3.7956 -9.4838,5.0986 -0.7953,0.7962 -2.4744,1.0318 -4.3427,0.6104 -1.6754,-0.3781 -3.1931,-0.3647 -3.3726,0.029 -0.3093,0.6795 4.4652,4.3072 8.011,6.0868 0.9038,0.4536 1.916,1.5535 2.2494,2.4443 1.0233,2.7343 4.751,5.8156 6.3309,5.2331 0.8216,-0.3075 2.5704,0 3.883,0.6819 1.8663,0.9648 3.4763,0.7969 7.3879,-0.7708 2.7508,-1.1021 5.3689,-1.837 5.818,-1.6324 0.4491,0.2044 1.3052,-0.5739 1.9027,-1.7291 0.5974,-1.1555 2.7386,-2.9854 4.7585,-4.0664 z"
       style="fill:#f781bf;fill-opacity:1" />
    <path
       id="path32943"
       d="m 9701.0217,2814.4925 c -0.1687,-0.4506 -2.3339,-1.7425 -4.8115,-2.8707 -2.4776,-1.1282 -4.6627,-2.4734 -4.8558,-2.9895 -0.231,-0.617 -0.8454,-0.3762 -1.7949,0.7038 -0.7939,0.903 -2.2101,1.6355 -3.147,1.6276 -2.095,-0.017 -6.7163,4.1286 -5.5817,5.0076 0.4519,0.35 2.3982,0.046 4.3251,-0.6748 3.7875,-1.4175 6.2434,-0.838 7.1919,1.6964 0.4801,1.2829 1.4326,1.275 4.7899,-0.04 2.3051,-0.9022 4.0527,-2.0099 3.884,-2.4605 z"
       style="fill:#f781bf;fill-opacity:1" />
    <text
       transform="matrix(0.99978585,-0.02069432,0.02069432,0.99978585,0,0)"
       id="text35482"
       y="2809.126"
       x="9496.3369"
       style="font-size:12px;font-style:normal;font-variant:normal;font-weight:normal;font-stretch:normal;text-align:start;line-height:125%;letter-spacing:0px;word-spacing:0px;writing-mode:lr-tb;text-anchor:start;fill:#000000;fill-opacity:1;stroke:none;font-family:Serif;-inkscape-font-specification:Serif"
       xml:space="preserve"><tspan
         y="2809.126"
         x="9496.3369"
         id="tspan35484">Obispeño</tspan></text>
    <text
       transform="matrix(0.99998029,0.00627824,-0.00627824,0.99998029,0,0)"
       id="text35486"
       y="2560.2651"
       x="9700.1562"
       style="font-size:12px;font-style:normal;font-variant:normal;font-weight:normal;font-stretch:normal;text-align:start;line-height:125%;letter-spacing:0px;word-spacing:0px;writing-mode:lr-tb;text-anchor:start;fill:#000000;fill-opacity:1;stroke:none;font-family:Serif;-inkscape-font-specification:Serif"
       xml:space="preserve"><tspan
         style="font-style:normal;font-variant:normal;font-weight:normal;font-stretch:normal;font-family:Serif;-inkscape-font-specification:Serif"
         y="2560.2651"
         x="9700.1562"
         id="tspan35488">Interior Chumash</tspan></text>
    <text
       transform="matrix(0.99999965,-8.3951504e-4,8.3951504e-4,0.99999965,0,0)"
       xml:space="preserve"
       style="font-size:12px;font-style:normal;font-variant:normal;font-weight:normal;font-stretch:normal;text-align:start;line-height:125%;letter-spacing:0px;word-spacing:0px;writing-mode:lr-tb;text-anchor:start;fill:#000000;fill-opacity:1;stroke:none;font-family:Serif;-inkscape-font-specification:Serif"
       x="9600.0723"
       y="2695.2791"
       id="text35490"><tspan
         id="tspan35492"
         x="9600.0723"
         y="2695.2791"
         style="font-style:normal;font-variant:normal;font-weight:normal;font-stretch:normal;font-family:Serif;-inkscape-font-specification:Serif">Purisimeño</tspan></text>
    <text
       transform="matrix(0.99999979,-6.5239981e-4,6.5239981e-4,0.99999979,0,0)"
       id="text35514"
       y="2879.436"
       x="9611.9609"
       style="font-size:22.98458862px;font-style:normal;font-variant:normal;font-weight:normal;font-stretch:normal;text-align:start;line-height:125%;letter-spacing:0px;word-spacing:0px;writing-mode:lr-tb;text-anchor:start;fill:#000000;fill-opacity:1;stroke:none;font-family:Serif;-inkscape-font-specification:Serif"
       xml:space="preserve"><tspan
         style="font-style:normal;font-variant:normal;font-weight:normal;font-stretch:normal;font-family:Serif;-inkscape-font-specification:Serif"
         y="2879.436"
         x="9611.9609"
         id="tspan35516">CHUMASHAN LANGUAGES</tspan></text>
    <text
       transform="translate(9523,2542.875)"
       id="text35561"
       y="249.4873"
       x="229"
       style="font-size:12px;font-style:normal;font-variant:normal;font-weight:normal;font-stretch:normal;text-align:start;line-height:125%;letter-spacing:0px;word-spacing:0px;writing-mode:lr-tb;text-anchor:start;fill:#000000;fill-opacity:1;stroke:none;font-family:Serif;-inkscape-font-specification:Serif"
       xml:space="preserve"><tspan
         y="249.4873"
         x="229"
         id="tspan35563" /></text>
    <text
       transform="translate(9523,2542.875)"
       id="text35565"
       y="199.4873"
       x="174"
       style="font-size:12px;font-style:normal;font-variant:normal;font-weight:normal;font-stretch:normal;text-align:start;line-height:125%;letter-spacing:0px;word-spacing:0px;writing-mode:lr-tb;text-anchor:start;fill:#000000;fill-opacity:1;stroke:none;font-family:Serif;-inkscape-font-specification:Serif"
       xml:space="preserve"><tspan
         y="199.4873"
         x="174"
         id="tspan35567" /></text>
    <text
       id="text35569"
       y="2700.3623"
       x="9848"
       style="font-size:12px;font-style:normal;font-variant:normal;font-weight:normal;font-stretch:normal;text-align:start;line-height:125%;letter-spacing:0px;word-spacing:0px;writing-mode:lr-tb;text-anchor:start;fill:#000000;fill-opacity:1;stroke:none;font-family:Nanum Pen Script;-inkscape-font-specification:Nanum Pen Script"
       xml:space="preserve"><tspan
         style="font-style:normal;font-variant:normal;font-weight:normal;font-stretch:normal;font-family:Serif;-inkscape-font-specification:Serif"
         y="2700.3623"
         x="9848"
         id="tspan35571">Ventureño</tspan></text>
    <text
       xml:space="preserve"
       style="font-size:12px;font-style:normal;font-variant:normal;font-weight:normal;font-stretch:normal;text-align:start;line-height:125%;letter-spacing:0px;word-spacing:0px;writing-mode:lr-tb;text-anchor:start;fill:#000000;fill-opacity:1;stroke:none;font-family:Nanum Pen Script;-inkscape-font-specification:Nanum Pen Script"
       x="9705"
       y="2692.3623"
       id="text35597"><tspan
         id="tspan35599"
         x="9705"
         y="2692.3623"
         style="font-style:normal;font-variant:normal;font-weight:normal;font-stretch:normal;font-family:Serif;-inkscape-font-specification:Serif">Ineseño</tspan></text>
    <text
       xml:space="preserve"
       style="font-size:12px;font-style:normal;font-variant:normal;font-weight:normal;font-stretch:normal;text-align:start;line-height:125%;letter-spacing:0px;word-spacing:0px;writing-mode:lr-tb;text-anchor:start;fill:#000000;fill-opacity:1;stroke:none;font-family:Nanum Pen Script;-inkscape-font-specification:Nanum Pen Script"
       x="9704"
       y="2726.3623"
       id="text35609"><tspan
         id="tspan35611"
         x="9704"
         y="2726.3623"
         style="font-family:serif;-inkscape-font-specification:serif">Barbareño</tspan></text>
    <text
       id="text35625"
       y="2806.105"
       x="9704"
       style="font-size:12px;font-style:normal;font-variant:normal;font-weight:normal;font-stretch:normal;text-align:start;line-height:125%;letter-spacing:0px;word-spacing:0px;writing-mode:lr-tb;text-anchor:start;fill:#000000;fill-opacity:1;stroke:none;font-family:Nanum Pen Script;-inkscape-font-specification:Nanum Pen Script"
       xml:space="preserve"><tspan
         style="font-family:serif;-inkscape-font-specification:serif"
         y="2806.105"
         x="9704"
         id="tspan35627">Cruzeño</tspan></text>
  </g>
</svg>
