<svg xmlns="http://www.w3.org/2000/svg" viewBox="0 0 728.18 922.07"><title>Salishan map</title><g id="Layer_11" data-name="Layer 11"><rect width="728.18" height="922.07" fill="#eaeaea" stroke="#000" stroke-miterlimit="10" stroke-width="0.25"/></g><g id="Layer_8_copy" data-name="Layer 8 copy"><g opacity="0.8"><path d="M401.22,690.12c-4.79,7.77-.8,20.44,5.24,27.7a28.3,28.3,0,0,0,11.12,8.07c8.35,3.36,14.4,1,19.85,1.09,14.86.26,18.06,18.6,40.79,38.83,14.28,12.71,37.77,27.52,48.65,20.72,3.66-2.28,6.49-7.4,13.3-8.28,5.27-.69,6.42,2,9.82,1.09,8.42-2.28,4.85-19.81,15.92-28.58,7.58-6,12.65-.46,18.76-6.11,10.34-9.54.21-29.41,10.91-37.52,4.69-3.55,9.46-1.87,10.47-5,1.82-5.69-12.72-10.36-14.84-22.69-1.68-9.82,5.46-19.65,10-25.83,4.06-5.59,4.91-4.66,10.45-11.66,6.62-8.36,11.14-14.08,12.47-22.52,1.59-10.08-2.26-18.34-4-22.12-2.2-4.73-5.31-11.56-12.07-15.69-6.58-4-11.23-2.19-28.15-2-24.7.27-24.83-3.49-32.57-.4-14,5.58-16.24,18.91-25.74,18.5-6.39-.28-7.38-9.52-12.87-9.25-6.24.31-7.18,11.31-15.31,12.84-3.45.65-6.41-.88-12.34-3.94-4.77-2.46-10.56-5.27-15.77-11.3a51.44,51.44,0,0,1-10-19.44c-1.29-4.92-1.13-7.46-2.63-7.89-3-.85-10.34,7.43-9.72,15.51.52,6.72,6.4,11.48,12.35,16.28,8.71,7,13.23,6.74,14.19,10.78,1.36,5.75-7.36,8.4-12.61,19.17-5.73,11.75.59,16.91-3.68,31.53-.71,2.41-4.68,16-16.29,24.7C421.54,688.15,407.32,680.23,401.22,690.12Z" fill="#819a35" opacity="0.5"/><path d="M616.67,586.36c2.83-4.12-3.4-11.3,1.68-20.77a12.59,12.59,0,0,1,.79-1.33c7.05-10.8,18.28-9.41,19.85-17.23s-9-10.88-13.09-26.62c-1.26-4.88-3.13-12.16,0-19,4.69-10.25,15.48-8.1,25.3-18.54,6.6-7,13.12-20.12,9.16-28.58-3.62-7.75-13.79-6.8-59.11-10.69-31.84-2.73-42.22-4.52-48.21,2.62-6.65,7.93.61,16.75-7,28.14-8.21,12.32-27.06,17.52-33.16,12-4.28-3.89.81-10.28-3.92-16.15-6.92-8.56-25.93-5-34.9.44a11.86,11.86,0,0,0-3.57,3c-3.7,4.85-.42,9.6-1.71,18.43-.4,2.76-1.44,9.9-6.64,14.24-4.23,3.52-6.84,1.56-11,4.18-8.78,5.49-8.14,20.92-7.6,34.18.54,13,3.35,16,5.13,17.29,3.81,2.75,7.28.79,9.69,3.61,3.86,4.52-3.33,11.6-.19,19.18,1.72,4.15,4.48,3.51,15.76,11.39,10.72,7.49,11.39,10.28,15.2,10.07,8.35-.46,10.92-14.18,17.47-13.68,5.41.42,5.17,12.24,11,13.49,5.1,1.09,8.23-7,19.36-15.61,4.62-3.56,14.54-11,27-11.55,7.43-.32,8.11,2.19,24.48,6C602.11,588.15,613.58,590.86,616.67,586.36Z" fill="#258c89" opacity="0.5"/><path d="M390.15,668.37c-5.68-3.87-14.61-5.44-20.79-1.84-11.48,6.69-10.33,29.39-5.5,44,5,15.2,11.62,14.42,20.17,31.79,5.1,10.37,13.25,25.35,14.06,44,.57,12.94-2.63,19.35,2.46,24.72,2.51,2.64,7.22,5.24,11.18,3.93,7.31-2.43,3.91-15.1,12.74-28,6-8.71,17.93-18.15,29.21-16.71,10.6,1.36,13.7,11.44,21.82,9.74,6-1.25,11.17-8.21,10.16-13.21-.3-1.5-1.26-3.31-12.57-9.59-10.73-6-13-6.08-17.07-9.47-6.41-5.36-5.48-9.08-10-14.47-11.72-13.92-30.31-3.76-39.54-15.47-5.27-6.68.33-10.57-6.13-31.37C396.17,673.06,392.22,669.78,390.15,668.37Z" fill="#5c84c4" opacity="0.5"/><path d="M397.7,800c1.06,8.89,4.37,14.91,8.77,22.92,16,29.16,16.08,29.29,17.07,30.23s18.11,16.71,38,13.66c12-1.84,14.41-8.88,34.14-13.17,8.14-1.77,9.35-.92,14.14-2.93,11.81-4.93,23.88-18.21,21.46-26.82-4.59-16.31-58-13.51-58.52-23.41-.22-4.13,9.08-5.7,15.71-18.24,2.28-4.32,4.92-11.23,2.82-13s-6.81,4.05-15.12,5.46c-10.4,1.77-12.65-4.12-22.53-4.44-17.89-.56-24.83,18.32-40.38,15.08-5.9-1.24-8.85-4.77-12.19-2.93C395.93,785.29,397.34,797,397.7,800Z" fill="#d98a75" opacity="0.5"/><path d="M124.39,236.11c-4.4,8.4-14.28,7.7-14.75,13.65-.39,5,6.12,9.89,10.92,12,8.88,3.92,14.27-.69,18,2.73,5.73,5.21-5.68,17-1.64,31.13,4.28,15,21.69,17.79,20.75,28.95-.56,6.76-7.19,8.62-6,13.65,1.47,6.23,13.3,10.47,22.94,8.19,6.19-1.46,14-6.21,15.29-13.1,1.23-6.51-4.42-9.12-3.28-15.3,1.53-8.27,13.34-12.66,17.48-14.2,16-5.93,26.49-.25,29.49-5.46.64-1.11,1.29-3.31-8.19-20.75-8.73-16.06-12.65-20.4-11.47-27.31,1-6.11,4.74-6.38,4.37-11.47-.48-6.57-6.67-7.16-12.56-18-3.25-6-2.82-8.49-6-10.37-3.59-2.12-6.95-.62-13.65,0-5.7.52-9.81,0-18-1.1-17.35-2.27-19.9-7.69-29-5.46-1.73.43-8.9,2.2-12.56,8.19C121.49,220.4,129,227.36,124.39,236.11Z" fill="#aac634" opacity="0.5"/><path d="M192.1,346.86c7.77,5.77,13.25-1,26.44,4.17,10.9,4.28,18.52,13.39,29.8,26.86,7.15,8.54,9,12.44,14.86,14.22,8.88,2.7,17.57-2.09,22-4.52,2.71-1.5,20.82-11.49,20-23.27-1-14.43-29-12.26-44.6-37.49-8.47-13.68-6.29-24.08-14.87-27.15-8.87-3.18-14.25,6.88-31.67,7.76-14.3.71-18.8-5.66-24.56-1.94C179.84,311.73,180.07,337.94,192.1,346.86Z" fill="#936f60" opacity="0.5"/><path d="M312,97.17c12,11.21,6.43,29.38,13.89,32.17,5.49,2,11.12-6.82,15.35-4.39,3.83,2.2.64,10.27,2.93,23.4,2,11.46,5.58,11.89,5.84,17.54.89,19.13-39.85,21-67.25,57.75-7.82,10.5-10.65,18.6-21.93,24.86-10.56,5.85-20.21-1.75-35.28,5-2.7,1.21-7.62,3.73-9.2,2.1-1.16-1.2.22-3.87,1.54-8.55a47.49,47.49,0,0,0,1.08-4.7,86.57,86.57,0,0,0,1.11-8.88c.67-9.34,6.66-11.89,8.15-23.09.93-7-.67-11.4,1.66-12.56,2.92-1.46,7.94,4.25,10,2.66,1.61-1.23-.68-5.21,1.07-6.93,2-1.92,7.15.75,8.68,1.21,6.71,2,19.46-7.62,45.37-52.72,6.38-27-.8-47.17,6.47-49.75C305.37,91,310.31,95.56,312,97.17Z" fill="#5b4d89" opacity="0.5"/><path d="M196.29,217.2c-1.6-5.64,2.21-13.31,7.84-17,5.82-3.87,10.39-1.42,12.9-5.07,2.63-3.83-1.45-7.9-1.38-15.21.09-10.66,8.9-13.44,11-22.11,3.18-12.78-12.56-20.25-19.81-37.33-8.5-20-5.23-53.06,17.05-69.12,19.39-14,49.61-12.52,65.43,3.23,14.36,14.29,12.05,35.58,9.22,61.75-1.22,11.24-3.33,28.9-14.75,47.46-12.25,19.9-31.74,35.18-38.7,31.33-2-1.09-4-4.26-5.07-3.69-1.28.67.93,5.18-.92,6.92-2,1.88-6.18-2-9.22-.46-3.42,1.69-1.62,8.28-3.23,16.58-2.15,11.12-9.74,21.81-14.74,21.2-2.12-.26-2-2.35-7.83-9.22C198.64,219.92,197.12,220.08,196.29,217.2Z" fill="#2c8235" opacity="0.5"/><path d="M323.5,227.26c-3.49,12.24-7.49,26.31-9.36,44.35-.77,7.41-1.9,22.79-12.32,36.95-1.74,2.36-15.73,21.37-33.5,20.2-13.5-.9-10.62-18.63-36-48.29-8-9.35-15.16-15.82-13.08-20.2,2-4.23,10.12-1.33,23.1-4.25,17.67-4,29.53-15.42,36.39-22,11.06-10.68,8.42-13.26,19.39-25,13.79-14.72,34-27.75,38.77-23.64C340.65,188.6,331.43,199.4,323.5,227.26Z" fill="#e89213" opacity="0.5"/><path d="M355.33,176.31c7.8,12.23-19.24,34.22-11.91,49,3.35,6.77,9.58,3.35,16.11,11.21,12,14.47-1.76,35,9.11,44.83,6.61,6,14.22.71,21.71,8.4,4.44,4.56,7.53,12.33,5.6,18.92-3,10.12-15.11,8.27-25.21,18.21-16.57,16.3-4.37,41.41-16.81,48.33-3.37,1.87-7.6,1.89-35.91-11.6-43.22-20.59-44.69-26-44.78-28.78-.32-9.38,14.56-9.69,28.58-26.3,9.88-11.72,13.81-31.18,21.68-70.11,3-14.72,6-24.27,11.94-43.38,3.68-11.77,7.45-22.57,13.19-22.89C351.24,172,353.91,174.08,355.33,176.31Z" fill="#ce5134" opacity="0.5"/><path d="M266.12,398.69c1.9,21,.85,24.16,4.29,27.56,4.57,4.52,10.44,2.89,11.46,6.45,1.25,4.36-7.42,7.41-7.16,12.17.47,8.75,30.2,4.72,47.61,24,7.83,8.66,9.3,17.75,16.46,18.25,7.8.55,12.39-10,17.9-8.23,4.6,1.46,1.86,10.48,8.9,18.52,3.77,4.31,9.8,7.8,12,6.22,3.9-2.77-7.51-18.46-1.52-26,2.59-3.28,7.3-3.39,16-4.09,12.93-1,16,2.91,22.55.36,8.73-3.41,15.85-14.4,13.24-20.05-4-8.65-30.49-3.79-31.2-8.35-.39-2.52,7.72-3.91,9.84-10.43,1.29-4-.14-8.3-3-13.11-11.2-19-38-34.42-48.58-40.23-23.38-12.88-32.22-14.33-39.63-14.31-8.76,0-16.59-.25-19.67,3.58-3.68,4.55,2.54,10.73-.6,14.9-4.91,6.51-23.77-3.71-28.91,3C265.17,390.15,265.44,391.15,266.12,398.69Z" fill="#5c7a9e" opacity="0.5"/><path d="M371.81,388.64c1.95-.15,2.37-.56,13-5.64,11.11-5.31,10.75-4.91,11.76-5.66,7.45-5.62,9.85-14.83,11.3-20.85,2.42-10-.17-14.75,4.24-19.08,4.24-4.16,11.11-4.18,11.66-8.13.28-1.95-1.26-2.95-.7-3.88,1.68-2.86,16.27,6.84,21.55,2.47,2.81-2.33,1.82-7.65,0-17.28-1.39-7.48-2.33-12.53-6.13-14.38s-6.88,1-10.37-1.41c-2.55-1.73-2.95-4.63-3.67-6.86C421,277.23,409,278.41,401,267.46c-6.51-9-1.64-14.16-8-19.8s-18.79-7-25.79-.7c-6.34,5.72-5.43,15.16-5.08,18.85.29,3,1,10.46,6.5,15.57,7.41,6.9,15.53,2.1,21.71,8.4C395,294.5,396,302.86,394,308.94c-4.06,12.15-17.75,7.72-28.15,21.64-7.72,10.34-2.31,15.67-11,39.34a12.71,12.71,0,0,0-.71,8C356,384.39,364.45,389.21,371.81,388.64Z" fill="#1b5147" opacity="0.5"/><path d="M446.34,526.09s0,0-.24.65a18.31,18.31,0,0,0-.72,2.14c-.23.82-2.37,6.09,1.26,14.94h0c1.88,3.67,3.22,2.88,3.87,5.31,1.41,5.25-4.21,8.32-7.67,16.73-4,9.76.63,12.81-3.54,18.82-4.35,6.27-9.43,3.05-16.83,10.49-5.83,5.85-6.08,11.27-10.63,11.89-3.28.44-4-2.23-9.41-3-.4-.06-9.2-1.28-12.42,3.15-2.87,3.94,1.54,8.38-1,12.18-3.11,4.68-14.66,5.18-19.07.12-3.89-4.45,1.14-9.36-2.9-17.24-2.49-4.88-4.82-3.8-10-11.78a105.93,105.93,0,0,1-5.24-9.21c-.63-1.23-1.13-2.26-1.54-3.13-.87-1.82-1.49-3.2-1.62-3.5l0-.05c-2.22-4.95-21.86-6.56-21.86-6.56s-27.19-2.24-37.81-8.47c-.1,0-.26-.15-.48-.29-2.15-1.33-8.89-5.94-9.33-13.08-.53-8.74,7.53-16.3,14.58-19.46,7.75-3.47,15.84-1.25,31.84,2.82,15.08,3.82,24.36,8.28,29.58,3.67,2-1.75,1.51-3.16,4.66-6.27,3.67-3.61,10.28-7.57,13.28-5.56,3.48,2.35-.4,11.08,3.73,13.76a6,6,0,0,0,4.43.45c13-2.44,18.4,2.12,38.79-2.37C432.76,530.39,446,525.21,446.34,526.09Z" fill="#ac5a8f" opacity="0.5"/><path d="M318.36,523.91c.28-1.86,5.27-1.71,9.16-7a16,16,0,0,0,2-3.68c1.42-5.32-2.76-7.89-1.22-11,2-4.11,10,0,13.9-4.09s-1.38-10.83,2.48-16.28c3.54-5,13.17-6.67,16.77-3.22,4.34,4.16-2.17,13.75,3.68,22.52.94,1.41,1.88,3,3.67,3.91,3.57,1.81,9,.75,11.26-1.84,6.12-6.92-9.71-25.07-4.82-30.33,4.45-4.8,19.13,8.74,34.23,4.6,12.45-3.42,22.8-15.33,20.68-21.37-2.88-8.21-28.05-3.45-29.64-10.57-.78-3.49,4.28-9,9-9.42,3.42-.3,4.85,2.29,7.36,1.6,4-1.08,3.33-8.43,6.2-13.32,7.43-12.68,40.69-12.78,47.79-.69,2.86,4.86-.59,8.16,3.45,18.38,2.29,5.8,4.66,7.95,4.14,12.41-.55,4.65-3.5,5.35-4.37,10.11-1,5.39,2.36,6.84,3.45,13.33,1.8,10.77-5.12,20.63-8.05,24.81a43.24,43.24,0,0,1-7.81,8.5,33.81,33.81,0,0,1-3.07,2.28,60.47,60.47,0,0,1-5.89,3.47c-5.46,2.76-11.05,6.14-13.45,7.36-9.2,4.67-16.13,4-43.82,8.76-10.49,1.81-16.87,3.19-19.09,0-2.46-3.53,2.7-9.05,0-12.52s-11.13-2.79-16.27,1.25c-4.5,3.55-3.23,7.22-6.57,10.33C344.23,540.75,317.7,528.33,318.36,523.91Z" fill="#d31313" opacity="0.5"/><path d="M373.64,647.1c-1.28,4.23-1.17,10.18,2,13.63,3.76,4,8.43,1.07,14.31,4.43,8.13,4.64,5.23,13.74,11.93,18.06,9.92,6.39,27.89-6.1,29.27-7.08,11.3-8,15.81-20.43,18.42-27.33,1.08-2.84,1.27-4.94,3-10,1.53-4.44,3.07-8.15,7.28-17.48,6.21-13.75,6.59-14,6.53-15.56-.36-8.83-10.49-17.73-20.92-19.07A26.09,26.09,0,0,0,429.8,590c-5.47,3.09-6.59,6.45-14.22,13.22-6.1,5.42-7.56,8.09-10,7.7-3.79-.59-3.81-6.46-7.86-7.36s-10.22,3.82-11.05,9c-1,6.11,6,8.11,5.69,13.89C391.84,634.78,377.16,635.44,373.64,647.1Z" fill="#d27f29" opacity="0.5"/><path d="M278.21,628.84c-1.27,3.08-.33,6.16.09,7.56,5.69,19.19-1.26,11.67,9.35,43.82,8.78,26.61,11.32,25,11.53,34.6.3,13.28-4.49,22.28,0,25.69,3.25,2.46,10,1,14-2.74,9.32-8.63-3-23,2.21-44.45,4.83-20,22.94-38.22,38.8-40.89a86.22,86.22,0,0,0,11-2.1c5.54-1.49,13.93-3.84,21.5-10.48,4.2-3.7,9.7-8.52,8.6-13.55-1-4.57-7.09-7.66-12-8.23-6.68-.77-9.79,3.36-13.17,1.38C366,617,369,609.3,365.42,607.23c-4.89-2.86-12.54,10.61-25.05,10.47-8.27-.09-8.4-6-17.95-7.11-8-.9-8,3.2-28.42,9.73C285.82,622.93,280.16,624.09,278.21,628.84Z" fill="#446524" opacity="0.5"/><path d="M305.48,760.94c3.69,8.78,14.36,34.13,27.36,33.06,9.91-.81,9.37-16,24.1-21.85,12.91-5.12,22.26,3.92,28.37-2,5.71-5.51,3.66-19-1.28-27.83-6.51-11.6-16.4-12-18.91-22.26-1.25-5.15,1.16-5.87,2.73-16.39,3.47-23.21-5.06-33.62,2.73-43.41,1.49-1.86,5.35-4.55,5.16-8.5a7.4,7.4,0,0,0-2.1-4.68c-5.43-5.32-22.5,2.27-32.12,8.17-7.67,4.7-18.47,11.33-25,24.74-4.67,9.64-8.32,24.36-4.25,38.55,2.24,7.81,6.89,15.65,3.27,20.4-3,3.94-8.81,2-11.78,6.12C301.57,748.18,302.14,753,305.48,760.94Z" fill="#d64075" opacity="0.5"/><path d="M429.21,283.07c2-.9,3.34,1.47,7.94,2.93,9.18,2.91,14.57-3.12,19.21,0,4.33,2.91.51,8.77,5,14.2,5.78,7,16.67,2.79,19.63,8.77,2.21,4.46-2.74,9.07,0,12.94,1.63,2.32,4.72,2.54,9.6,2.93,21.93,1.71,24,2.17,25.06,3.75,2.69,4-5.13,8.67-6.68,20.05-1.94,14.26,8.71,18.92,5.43,31.32-1.67,6.31-4.41,5-9.61,16.71-4.51,10.12-3.55,13.55-7.1,15.45-6.8,3.65-16-5.94-21.71-1.67-2.8,2.08-1.76,5.2-4.6,6.68-3.93,2.05-8.38-2.67-14.61-5-13.41-5-32.61,1.87-37.55,12.73-2.44,5.37-.44,9.63-2.72,10.64-3.69,1.63-9.52-9.34-22.27-21-15-13.79-25.47-15.6-24.74-20.54,1.07-7.31,23.94-3.81,35.63-18.56,4.86-6.13.2-8.26,6.43-24.5,4-10.34,6.46-11.95,8.17-20.78.8-4.17.78-6.57,2.72-8.17,4.93-4.06,14.46,7.21,19.8,4.21,6.13-3.45,4.35-23.62-3.47-27-3.67-1.58-6.7,1.41-9.65-.75C424.85,295.27,425.52,284.75,429.21,283.07Z" fill="#ddbe3c" opacity="0.5"/><path d="M483.45,414.23c11,5.35,21.08,5.84,35.06,6.53,15.83.77,25.41-2.51,28.19,2.4,1.83,3.25-.6,7.79,1,8.6,2,1,5.11-6.52,11-7.22s13.52,5.86,14.78,13.4c.33,2,.79,4.74-.69,7.22-4.37,7.34-18.73,1-26.47,8.25-4,3.79-5.65,10.3-4.46,15.81,1,4.57,5.42,5.66,5.15,8.94-.32,3.91-6.25,6.38-8.25,7.22-12.15,5.06-29.14,2.19-31.28-4.82-1.29-4.22,3.2-8.72,1.47-10.32-1.24-1.14-4.06.67-8,2.07-.81.3-14.33,5.37-20.28.69-4.16-3.27-2.11-7.17-5.15-19.25-3.64-14.43-8.45-16.3-8.59-27.15,0-2.27-.18-13,5.15-15.47C475.41,409.61,479,412.07,483.45,414.23Z" fill="#894442" opacity="0.5"/><path d="M523.37,318c8.89-2.4,13.48,9.8,29.84,10.13,7.2.15,7.4-2.28,18.58-3.37,10.4-1,19.34-1.9,25.89,2.25,12.12,7.67,14.32,31.42,8.45,48.41-4.84,14-13.47,18.53-12.39,29.84.92,9.51,11.18,11,10.7,18.58-.48,7.39-9.82,15.39-18.17,15.25-8.57-.15-11.87-8.79-22.52-8.19-3.83.21-4.44,1.39-8.19,1-6.47-.64-8.79-4.57-14.32-6.82-4.3-1.75-5.15-.31-17.4,0-11.36.28-21.09.71-30.71-3.75-4.65-2.16-10.28-5.9-9.68-8.13.82-3,11.78.65,18.89-5.86,2.56-2.35,1.85-3.47,6.14-12.28,5.73-11.78,8-11.92,8.87-16.72,1.49-8.55-5.2-11.66-7.94-21.81C505.28,341.26,513,320.81,523.37,318Z" fill="#8157aa" opacity="0.5"/></g></g><g id="British_Columbia_copy" data-name="British Columbia copy"><path d="M500.92,577.61l-2.28,1.56v1.44l-2.13-1L494.71,578l-1.82-1.69,1.4.71-.45-1.94-1.44.12-2.52-2.5-.95-1.75-1.4-.91-.58-2-1.46-1.69.17-1.14v-1.07l-.53-1.61-.12-1.27.31-1.47,1.15-2.34-.29-1.88,1.15-1.3,1.47,0,1.05.14,1.58-.17-1.37-.42-2.59-.16L485.63,555l-.69-2.42-.79-1.87-1,.69.35-2.14-.8-1.22-.16-1,1.08-.94-.06-1.1,1.65-4.55-1.05-.54-.26-1.53-1.06-.3-1.19-.64-1.12.26-.26-1.56-1.1-.59-1-1-1.49-.51-1.13.19-1-.56-1.06-1.29-.41-3.6-1.43,1,.25-.93-.85,1.6-1.62,0-.39-1.84-.63-1.11-1-2.25-.62-1.55,0-1.16,1-2.28-.23-1.1-1.15,1-1.75.23-.14,1.77-1.78,1.2-1.45.4-.47,1.07-1.92.56-1.64-1-1.15.17-.93-1.51-.23-2.38,1.27-.2,1.08-1.91-.09-1.5L455.76,514l-.88-1.31-1,.47-.41.05-.56,1.46-1.18-.07.44-1.07.59-.23-.45.06,1.25-1.51.91-1.07,1.35.37,5.93-2.12.81,0-1.05,1,.16,1.17.37,1.18.84,1.14.23,1.37L464,517l1.48-.13-.58-2.25-.65-1.27,1.28-1,1.35-.19.09,1.14.7,1.54,2.15,2.63.62,1,1.62,3.38v1.77l.38,2,.08,2-.09.17.27-.44.31-1.36.34-5.5,1-2.5-.86-1.65,1.71.81,0-1-.29-2.21-.5-1.07-.42-3.12v-1.07l.41-1.17-.83-1.85-1.21-1.18.25-1.91-1.35-1.24-1.08-.1-1.1-.72-2.33-.34.75-1,1.14.68,3.91.65,0,1.35,2.14,1.18,1.28-.47.18-1.33,1.08-.2,1.66-2,1.06-2.44-1.68-2.29-.9-1.21-1.21-.34L475,491l-1.65-1.52-.2-1.1-1.11-.88-.13-1.37,1.12.27.61-1.87-.93-3-.61,1.17-1.05-.77-.53-2.35,1.06-1.4,1.91-2.94-.37-2.15-1.62-.74-1.14-.44L468,470l-2.17-.28-1.89-1.31-1.22.16-1.18.23.26,1.41.34,1.44-1.64,2.74-1.12,1.21L459,476.9l-2.23,1.36-.28-.35a3.21,3.21,0,0,1,.14,1.83l-.41.38a2.83,2.83,0,0,1-2.77-.85l.25-.61.08.09a10.61,10.61,0,0,1,1.82-1.95l-.38-.48,2.45-5.33.17-1.13-1.05-1-1.42-1.18-.57-1.11-1.32.17-1.22.23-.31,1.67-.3-1.1.21-4.53-.47-2.24-.64-1.14-2.1-1.32-1.15-.76-3-2.93-.74-1.67-.28-.44a2.24,2.24,0,0,1-1.21-.7,18.69,18.69,0,0,1-.61-4c.45-.77,1.22-1.16,1.74-1.83a3.46,3.46,0,0,0-.91-5.19c-.28-.21-1-.07-1.39.05a4.15,4.15,0,0,1-1.88,1.27c-1-.45-1-1.06-1.44-1.93,0-1.42,3.09-4.53,4.43-4.15,1.12.32,1.75,1.48,2.94,1.51l.42-.28.24-.52a30.48,30.48,0,0,0-2.81-6.06l-.39-.63a4.58,4.58,0,0,0-.87-1.09,7.92,7.92,0,0,0-1.33-.56c-1.16-.06-1.69,1.23-2.58,1.18-2-.13-8.6-4.79-5.54-7.92l0,.16c0-.76,1.87-2.11,1.18-3.84-.22-.53-1.45-1-1.93-1.11a9.32,9.32,0,0,0-3.7-.49c-1.68.29-10.33,5.77-11.36,7.21a6.47,6.47,0,0,0-.89,2.45c-.14,1.42.67,2.9,1.24,4.34h0c.1.24.18.47.26.71s.13.43.18.65h0a1.18,1.18,0,0,0-.07.2c-.11.36-.14.75-.23,1.12a2.3,2.3,0,0,1-.14.42,1.69,1.69,0,0,1-.38.54c-1,1-3,.24-4.31.92l-.27-.14h0a1.94,1.94,0,0,0,0-.24,8.61,8.61,0,0,0-.05-1.29,5.43,5.43,0,0,0-.06-.55c-.09-.73-.24-1.55-.43-2.4-.65-2.9-1.78-6.09-3-6.93a13.44,13.44,0,0,0-1.83-1.65,1.71,1.71,0,0,1,0-1.22,9.87,9.87,0,0,1,4-2.73c2.1-2.38,5.57-8.42,6.24-11.45l-.11.37a3.47,3.47,0,0,0-.68.59c-1.38,1.35-2.82,1.78-4.3,2.81a3.88,3.88,0,0,0-.73.61c-.5.59-.7,1.36-1.16,2l-.53.23a3.33,3.33,0,0,0-2.22.24c-1.88-.11-1.94-1.37-3.1-2-.85-.45-1.58-.22-2.44-.37a1.74,1.74,0,0,1-1.14-.85l0-.81c.42-.65,1.14-1.17,1.27-2-.64-2.66-1.48-1.4,0-4.53.05-1.26-1-2.06-.61-3.49a9,9,0,0,1,.81-1.13c.27-.29.79-.51.52-.28a4.71,4.71,0,0,1,3.8.8h.69a2.21,2.21,0,0,1,1.28,2.45l.25-.19a9.11,9.11,0,0,1-.17-1.88,4.26,4.26,0,0,0-.61-.85,5.57,5.57,0,0,1-1.25-.42c-.84-1.7-5.83-3.3-6.26-4.9a7.86,7.86,0,0,1-1.89-1.28c-.45-.58-1.91-4.74-1.35-5.37l.19.24c1,.19,1.82-.57,2.83-.57,1.73,0,3.35,1.08,5.1,1.27a1.84,1.84,0,0,0,1.83-.66c.16-1.3-2.41-3.77-1.47-5l.3,0c.07-.18.48-.36.64-.43,2.52.22,1.83,1.7,2.91,3.25,3.35.78,7.19-.48,10.67.1,3,.25,6,1.57,8.65-1a1.84,1.84,0,0,0-.5-.94c-.51-2.09,2.19-3.63,3.16-5.28,1.19-2,1.21-7.16,1.55-9.66.32-2.32,1.44-4.68,1.44-7.06a4.23,4.23,0,0,0-.75-1.84,9,9,0,0,0-1-1.56.83.83,0,0,0-.52.29c-.51,1.86.08,4.5-.09,6.5a31.28,31.28,0,0,1-1.35,5.37,30.44,30.44,0,0,1-5.8,11.45c-4.29,1.85-7.16,2.4-11.78,1.09-.94-.27-1.68-1.07-2.57-1.42-.57-.22-1.18-.21-1.75-.37-2.44-.7-8.39-4.32-10.67-3.92a11.41,11.41,0,0,0-2.66,1.28h-.45a8.46,8.46,0,0,1-.11-1.94,3.4,3.4,0,0,1,0-1.32,10.33,10.33,0,0,0-1.8-2.82l.11-1a4.74,4.74,0,0,1,2.77-1.13c1.2-.95,2.52-6.65,2.27-8.12a28.43,28.43,0,0,1-.85-5,29.82,29.82,0,0,0,.19-4.62c-.18-1.15-1.37-1.94-1.41-3.2a16.36,16.36,0,0,1,.39-1.92c.91-2.63,2-5.43,2.65-8.12.25-1,.1-2.65.39-3.44,1-2.71,2.82-4.68,1.17-7.63l.22-.66c1.29-1,3.74-3.8,4.71-4.48.36-1.34.45-3.27-.86-4.19h-.28l-.25.18c-.41.76-.24,1.73-.58,2.55-1.87,1.23-5.18,1.85-6.18,4-.28.59-.26,1.35-.58,1.93,0,.09.37,7.7.22,8.29a5.23,5.23,0,0,1-.8,1.37,8.32,8.32,0,0,1-3.66,1.46c-.11,0-1.4.4-1.39.09-2.54-.79-2.86,2.74-4.65,4-.78.09-1.44-.46-2.28-.42-1.55.92-3.14,2-4.65,2.92-.74.47-1.18,1.38-2,1.93s-2.17.89-3,1.56a6.2,6.2,0,0,0-1.11,1.55c-.34,1.55.11,1.82.75,3-.08.59-.11,1.52-.58,1.94a11.27,11.27,0,0,0-.11,1.27c.28,2.38,3,1.26,1.55,5.7a2.33,2.33,0,0,1,.11,1c.2,3.73-1.86,3.43-2.47,4.66a8.65,8.65,0,0,0-.39,1.37c-3,2.92-3.4.5-5.35-.76-4.33.56-3.43-1.32-5.43-3.06-.14-.12-1-.4-1-.56a78.21,78.21,0,0,1-8.43-3.11c-1.37-1.14-1.57-4.23-3.68-4.2l-1.47.62a13.31,13.31,0,0,1-4.77-1.32c-.64-.39-1-1.17-1.72-1.41l-.28.09a2.31,2.31,0,0,1-2,1.35c-4.95.26-2.38-3.71-4-6l-.24-.35c-1.21-.39-2.6,0-3.77-.33a2.7,2.7,0,0,1-1.06-.84c-.37-.62-.51-1.35-.83-2-1.44-2.85-3.57-5.78-4.57-8.82-.47-1.41-.24-3.1-.86-4.38-.81-1.64-3.61-3.5-3.83-4.85-.58-3.6,2.12-6,2.8-8.44.34-1.21.33-2.54.78-3.77.87-2.39,3.64-5,6.24-5.18a3.48,3.48,0,0,1,3,1.08c1.15,1.22.86,2.82,1.39,4.2s3.11,3.33,4,4.81.79,3.31,1.33,4.85,2.2,2.45,2.8,4.1c1.14,3.14.62,7,1.41,10.22.33,1.36,1.21,2.59,1.5,3.92.34,1.55-.13,6.81,3.08,5.6a4,4,0,0,0,1-2.35,19.26,19.26,0,0,0,.52-3c0-2.67-3.92-6.56-.16-10.61a18.85,18.85,0,0,1,2.88-.8c1.25-.94,1.88-2.84,3.3-3.67,2-1.21,4.91.14,7.09-1.18a14.87,14.87,0,0,0,2.33-2.36c1.79-1.81,6.19-4.5,5.52-7.54l-.11-.11s0,.08,0,.11a1.24,1.24,0,0,0-.83,0c-1.85,2-2.62,3.54-5.38,4.52-.92.33-2.34.23-3.16.71-1.6.93-1.33,2.51-4,3.15-2.24.56-4.41-.54-5.93,0-1.86.67-4.27,3-6.32,1.28-1.6-1.36-.68-2.78-.78-4.39-.18-3-3.52-5.61-5-8-.27-.43-.91-2.32-1.1-2.45l0-.33-.19.09c-1.67-1.1-5-4.25-5.57-6.17.3-2.69,4.31-6.13,5.21-8.76a16.31,16.31,0,0,0,.62-4.26,17.72,17.72,0,0,0-.51-7.21c-.38-1.52-.12-3.27-1.22-4.56a6.63,6.63,0,0,0-1.58-.51,2.35,2.35,0,0,1-2.49-.29c-1.92-1.75-3-7.7-1.08-9.75a10.85,10.85,0,0,1,1.21-.85c.74-.6,1.81-.8,2.61-1.41,2.05-1.58,2.61-3.07,5.18-4.29,1.73-.82,3.88-.48,5.41-1.74,1.15-1,.64-2.69,1.61-3.68,1.33-1.36,2.66-.53,3.27-3.16a14.57,14.57,0,0,0-.48-1.55,5.87,5.87,0,0,0-.83-.9,33.58,33.58,0,0,1-4.21-4.66c-.83-1.07-1.35-3.61-2.6-4.1l-.31-.15-.19-.17-.39-.35a7.17,7.17,0,0,0-.86-.47,13.54,13.54,0,0,1-1.32-.66,18,18,0,0,0-2.25-1,16.78,16.78,0,0,1-3.94-2.51c-.91-.77-4.59-4.44-5.74-4.29-.39.83.14,1.49.56,2,1.55,2,2.3,4.85,4.35,6.51,1.49,1.19,3.63.93,5.15,2,2.17,1.55,2.67,3.54,3.69,5.85.49,1.11,2.49,1.41,3.27,2.3-.45,2.07-3.06,6.15-4.9,7.26-.87.53-2,.68-2.86,1.18-1.05.58-1.94,1.53-3,2.17-1.43.86-3.11,1.54-4.6,2.26-.73.35-1.79.54-2.25,1.32-.78,1.32-.2,4.59-.08,6.17.47,6.43.39,8.82,5.26,13.53,1,1,2.23,1.75,2.78,3.1-.47,2.3-.77,4.81-1.44,7l-.53.33c-.76-.15-1.43-.51-2.19-.66l-.42.37c-.33,1.3-.67,3.91-2.49,3.68-3.17-1.41-1.6-3.36-2.47-6,.13-.85.66-1.41.69-2.35-.79-1.38-2-2-2.46-3.68.59-1.74,2.49-6.71-.67-7.21l-.42.19c-.58,1.4-.14,2.86-.8,4.24-.58,1.22-1.46,1.38-2,3.44a21.58,21.58,0,0,0,2.41,4.19c.26,1.37-.31,2-1.22,2.78a4.15,4.15,0,0,1-1.92,0,4.63,4.63,0,0,0-1,1.41,7.3,7.3,0,0,0,.83,2.88,2.48,2.48,0,0,1-.83,1.18c-3.31.35-5.54,3.77-9,3.67-1.18,0-1.65-1.05-2.85-1.08s-2.63,1-4,.61c-.64.24-.78.74-1.16,1.23,0,1.28.46,2.21.33,3.58l-.44.52a3.22,3.22,0,0,1-1.3-.43c-.46-.19-.94-.2-1.36-.37-.8-.33-1.13-2.88-4-3.87-3.28-1.11-4.27,1.81-6.74,1.32-2.8-.56-3.35-2.46-4.9-3.2-1-.49-2.16-.25-2.8-1.46-4.43-.34-1.81-6.27-3.66-8.48-.76-.92-3.53-4.73-4.16-5.19-1.23-.89-3.95-1.8-4.77-2.83-1-1.28-.74-2.66-2.35-3.95-1.22-1-3.09-.95-4.69-2.45a43.15,43.15,0,0,1-10.61-16.54c-.5-1.35-1.74-3.16-1.22-4.62l.63-.38a7.08,7.08,0,0,1,.78.28,8.09,8.09,0,0,1,1.62,2.34,4.18,4.18,0,0,0,.9.93c2,1.77,3.34,3.92,5.19,5.73.51.51,1.23.79,1.72,1.32.74.83,1.49,2.84,2,3.26l.52-.24c.86-3.14-1.88-4.82-1.71-7.44.13-2.16,4.2-4.39,3.4-7.36-.34-1.29-4.07-2.43-3-5.13l1.19-.9a6.63,6.63,0,0,0,2.36-.56c.27-.8-.62-2.13-.39-3.35,1.42-2.13,4-2.82,4.71-6.55a6.56,6.56,0,0,1,0-2.21c0-1.35-.34-3.38.3-4.62.41-.8,1.35-1.79,1.22-2.78s-1.2-1.65-1.66-2.59c-1.47-3-.26-3.59-3.25-6.58a14.46,14.46,0,0,0-1.1-1.25c-1.07-.83-4-1.8-4.6-2.92l-.12-.89c.71-1.45,2.73-1.67,3.44-2.92,1.11-2,.68-4.71,2-6.51.43-.59,1.25-.62,1.8-1a6.29,6.29,0,0,1,3.47-1.6c2-.06,3.7,1.62,5.43,1.31,2.18.23,3.48-2.67,4.94-3.67,1.74-1.2,3.74-1.3,5.48-2.31,2.75-1.59,4-4.25,5.85-6.6,1-1.22,2.23-2.33,2.55-4l-.22-.8-.72-.42c-3.94.46-3.44,4-5.1,5.61-2,1.85-4.1,1.61-6.1,2.87-1,.64-2,1.67-2.94,2.4-.37.29-4.89,2.43-5.48,2.64-3.34,1.2-8.19-2-10.26-.8s-2.33,4.72-3.08,6.6-2.1,2.51-2.71,3.77a8.09,8.09,0,0,1-.61,1.51c-1.29,1.67-3.32,1.54-4.47,2.73-1.54,1.61-1.2,3.65-4.1,4.1s-3.68-1.13-5.88-2.12c-1.68-.76-5.67.12-6.4-1.7s1.36-3.47,1.36-5.27c0-.35-2.38-8.31-2.6-8.72a4.26,4.26,0,0,0-2.06-1.6L231,201l-.16.85c.48,1.13,1.39,2.2,1.74,3.35s-.14,1.53-.39,2.64c-.34,1.54.16,3-.27,4.52a2.24,2.24,0,0,1-.81,1c-.94.56-2,.27-3,.42-1.66,1.58-.25,3.32-2.25,4.81-2.79.73-3.42-4.56-2.94-6.27.34-1.18,1.77-1.23,2.47-2.36l0-.59a3.87,3.87,0,0,0-.08-.9c-.33-2.18.09-3.08-.1-4.59a11.93,11.93,0,0,1-.33-2.59c.09-.84.43-1.76.58-2.59.28-1.52,0-3.28.19-4.85-.09-2.51,2.56-1.46,3.8-1.94.75-.29,1.47-1,2.22-1.36a20.36,20.36,0,0,0,2.22-.85c2.57-1.68,2-6.93,2.74-8,.59-.86,3.08-.3,4.24-.66,1.55-.49,1.69-2.53,2.41-3.68a7.17,7.17,0,0,0,1.28-2.54c-.59-.82-1.77-1-1.91-2.17.12-1.12,1.18-1.79,1.41-3s-.28-2.17-.28-3.3a3.38,3.38,0,0,1,.42-1.55c.74-2-.28-4.18.69-6.22.76-1.59,2.57-2.74,3-4.53a18,18,0,0,0-1.33-4.52,7.88,7.88,0,0,1-1.75,0c-.76-.69-.73-1.92-1.25-2.78-1.39-.92-3.41-.51-4-2.73-1.23-4.33,2.78-3.46,4.18-5.75s1.83-5,2.61-6.41c.92-1.68,5.54-3,5-5-.14-.5-.64-1-.86-1.42-.42-.86-.12-2.22-.58-3.25-.73-1.6-3.38-1.49-4.46-2.78H245c-1.46,2.27-.52,4.84-1.19,7.31-.5,1.82-1.94,2.22-2.91,3.53s-.53,3.06-1.42,4.29c-1.54,2.15-6.25,3.27-6.68,6l.28.76c.31.39,1.51.52,2,.51,2.31,1.75.49,4.42,1.05,6.08a4.44,4.44,0,0,0,3.1,1.18l.72.52c2.25,6.17-.38,3.67-.44,7.68,0,.9.48,1.6.17,2.54-.43,1.29-1.06,2.17-1.06,3.59,0,2.2,2.19,3.08,1.86,5.89a12.06,12.06,0,0,1-3.08,5l-.72.09a1.8,1.8,0,0,1-.74-1.18l-.48-.37c-2.12,2.21-1,6-5.43,6.31-.27.33-.73.62-1,.94-.92,1.26.26,2.74-1.36,4.81-2.14,2.72-5.63,3.06-7.12,6.41-1.36,3,1,5.58-.2,8.1-.84,1.84-2.06,1-3.38,1.79-.94.56-1.12,1.51-1.85,2.17-3.47,1.42-4.12-3.8-4.8-5.09A17,17,0,0,0,208,195.5c-.49-2.36,2.05-4.33.11-6.64l-.61-.05a25,25,0,0,0-2.94,4.48,12.21,12.21,0,0,1-1,2.59l-.53.23c-1.34,0-4.33-4.33-4.54-5.6-.5-2.93,2.65-5.36-1.58-7.73l-.92.05c-.87.4-.41,2.25-.5,3-.11.87-.9,2-1.16,4.29,1.21,1.11-2.05,4.4-2.94,4.95-3.48,2.14-9.57,1.15-13.75,1.46L177,196a5.33,5.33,0,0,1,.08-3.44,6.19,6.19,0,0,0,2.16-2c.58-1.25,2.19-7.26,2.11-8.48,0-.57-.23-1.21-.31-1.79-2.3-2.34-.65-4.42-.22-6.88.16-.9-.25-1.58-.25-2.4,0-1.23,1.77-6.67,2.66-7.45.64-.56,2.71-.56,3.77-1.22,2.07-1.3,1.67-3.15,2.72-4.76.49-.76,1.14-.92,1.25-2l-.7-.52a30.51,30.51,0,0,0-3.18.14c-1.18.85-1.26,2.39-2,3.49-.94,1.35-3.85,1.85-5.6,4.71-1.1,1.81-2.75,7.64-2.3,9.66.23,1,.81,1.94.75,3s-1,2-1.11,3.25c-.05.94.29,2.1.14,3-.42,2.63-4.39,3.22-4.74,6-.12,1,2.95,4.16.61,7.39-.58.81-1.27,1.55-1.85,2.41-.92.27-6.14,2.93-6.49,2.82-1.26-.37-1-1.4-1.39-2.35-.55-1.53-2.24-2-3-3.3-.63-1.07-.2-2-1.16-3.16-.73-.87-2.31-1.23-2.94-2.12.56-1.62,3.73-.84,5.21-1.79l.33-.57-.16-.89c-1-1.21-2.55-.46-3.83-1-.93-.39-2.64-1.77-3.46-1.88l-.84.28c-1.19,1.33-.75,3.41-2.07,4.76s-2.62,1.07-4.11,1.84c-1.72.89-6.34,6.24-9.06,2.3-1.24-.69-1.8.63-2.83.81-2.29-.7-2.38.25-4.49.19-1.45-.82-.83-3.1-2.13-3.68-1.71.1-2.47,1.58-4.08,1.79-.89.12-5.85-1.11-6.87-1.51s-1.81-1.19-2.77-1.51c-1.44-.46-2.73-.06-4.13-1a2.52,2.52,0,0,1-.2-2.77c2.06-.4,3.54-2.75,6.13-1.65,1.71.72,2.17,2.77,2.91,3l.53-.47c.24-1.41-1.08-3.47-1.08-5,0-.69.28-1.14,0-1.89.27-1.29,1.11-.66,1.6-1.88.61-.15,1.28-.06,1.86-.19,1.2-.27,1.48-1.92,2.66-2.31,1-.33,2.88.22,4,.1.73-.09,2.27-2.11,3.3-2.55,2.33-1,7.29.62,9.76-2.92a2.12,2.12,0,0,0-.39-2.26c-2.43-2.65-5.43,1.08-7.76,1.55-1.55.32-3.65,0-5.05.8-1.65,1-3,2.59-4.77,3.54a15.61,15.61,0,0,1-3.24.85c-3.11.86-4.95,1.94-7.95-.33l-.11-2a2.41,2.41,0,0,0-1.17-.94l-1-1.89,0-.7c1.31-.82,10-2.58,10.92-1.6,1.12.18,2.18-.33,3.3-.33a12.54,12.54,0,0,0,3.77-.1c1.89-.56,3.1-2.85,5-3.16a6.37,6.37,0,0,1,2.16.33,21.26,21.26,0,0,1,3.66.76c1.74.57,3,2,5,1.55,1.58-.33,2.38-1.62,3.8-2.21,1-.41,2.09-.24,2.94-1,.35-.33.57-.8,1-1.13s2.63.54,3.46.42c1.85-.25,4.09-2.14,5-2l.69.38a5.45,5.45,0,0,0,.61,1.89l.92.09a3.57,3.57,0,0,0,1.19-.8c2-1.93.95-2.68,1.5-4.81.19-.73.84-1.31,1-2,.23-.9.07-1.87.56-2.74,1.34-2.38,6.91.65,6.73-8.62-.21-.73-1-1.07-1.55-1.51a14.79,14.79,0,0,1-.5-2.12c-.53-1.63-2-2.39-1.91-4.43.27-4,4.55-5.8,7.15-2.4l1.33-.23c3.07-2.75,1.4-3.32,1.94-6.74.4-2.53,2.85-2.73,3-5.89s-1.36-4.63-2.27-7.31a22.85,22.85,0,0,0-.56-2.45,17.37,17.37,0,0,1-1.41-2.87c-.41-1.67.09-3.25-.11-4.86-3.14-4.51-2.64-5.5-7.79-8.81l-.3.1c-1.09,4,.67,5.77,2.07,9.09.61,1.45,0,2.72.48,4.15.53,1.72,1.9,3.66,2.38,5.42.39,1.41-.07,2.85.36,4.24a3.39,3.39,0,0,0,2.35.66c2.52,2,.56,5.8-1,7.82-1.25.73-2.74-.11-4.13.37s-2.27,1.81-3.43,2.64c-.65.47-1.42.58-1.94,1.23-1.92,2.37-1.31,6.72-1.25,9.52,1.24,2,4.44,1,3.52,5.09a2.63,2.63,0,0,1-1,1.79,10.41,10.41,0,0,1-2.67,0c-2.33,0-2.32,2.65-3.1,4.19-2.54,1.28-1,3.75-2.35,5.75-2.44,1.82-9-.51-12.7,1.27-2,1-3.41,3.72-5.93,3.39-2.17-.28-2.6-1.91-2.36-3.81l-.39-.43c-4-1.55-6.81,3.38-8.2,3.91-1.76.68-4.14.24-6,.76-.74.2-3,1.56-3.36,1.51a9,9,0,0,1-1.6-.57c-1.29.32-2.46,1.6-3.86,1.23-1.5-1.67-.61-2.21-1.13-4.15.59-1.05.62-2.48,1.77-3.2s2.83-.3,3.85-1c2-1.37,2.47-4.13,5.55-6.46,2.18-1.65,5.55-1.48,7.09-4.1a5.58,5.58,0,0,0,.34-.75,6.7,6.7,0,0,0,0-.9,2.94,2.94,0,0,0-1.11-.71c-.49.08-1.18,0-1.63.15a5.26,5.26,0,0,0-.64.37c-1.25.73-2.43.71-3.66,1.23-.83.34-1.55,1.34-2.24,1.88a3.18,3.18,0,0,1-3.3.47,7.31,7.31,0,0,1-2.8-1.5c-.74-.86-1-5-.56-6,.27-.59,1.19-1.31,1.36-1.93a13,13,0,0,0,.08-2.17c.12-1.22.77-2.28.39-3.53l-.3-.28c-1.91.11-2.31,4.67-5.21,4.1l-.61-.52c-.31-1.1.77-1.9-.17-3.07l-.8,0c-.38.18-1.79,1.09-1.92,1.13a8.76,8.76,0,0,1-.91.05c-2.09.1-5.7,1-6.93,1a7.3,7.3,0,0,1-2.25-.66c-.48.73-1.37.64-2,1.09s-1.66,2.32-2.27,3.06c-1.28,1.55-4.78,1.61-6.76,2.12-1.09-.18-1.17-.8-1.89-1.37-.89-.7-2.7-.92-3.74-1.6-1.13-1.53-.13-4.64-.44-6.74.12-.3,2.36-4,2.46-4,.4-.32,1.07-.31,1.47-.56,1-.61,1.18-2.45,3.08-2.22,1.5.18,1.4,1.46,2.38,1.93,2-.25,3.1.49,4.63.14a3.44,3.44,0,0,1,1.75-.14c1.21.25,2.38,1.22,3.66.94,1.7-.36,3-1.26,4.88-.94,2.37.41,4.52,1.8,7,1.37a3.75,3.75,0,0,0,2.33-1.65c1.56-1.82,3.6-3.06,2.77-6-.06-.22-.26-.79-.47-.9v.19l-.42,0c-2.11.52-2.62,4.17-6.1,4.43-1.36.11-2.32-.68-3.55-.75s-1.94.74-3.32.28-2-2-3.52-2a3.94,3.94,0,0,1-2.08.8,6.79,6.79,0,0,0-1.94-.89c-.45.11-.91.43-1.33.52-1.42.27-1.4-1.18-2.19-1.46s-1.84,0-2.66-.48c-1-.58-1.1-1.79-1.53-2.73-.59-1.29-1.76-2.63-2.1-4-.57-2.16.06-4.65-.2-6.88-.09-.81-.71-1.51-.72-2.31,0-1.26.51-2.76-.44-3.81a33.31,33.31,0,0,0-1.55,4.47,21.27,21.27,0,0,0-1.56,4.57,20.76,20.76,0,0,0,1,7.21c.56,1.59,2.17,3.3,1.33,5.14-.48,1-1.93,1.57-2.58,2.5-.44.64-.6,1.6-1,2.26-1.21,1.87-5.65,2.15-7.76,3.25-1.27.66-.72,2.26-1.58,3.16-.52.1-1,.18-1.56.23a2.51,2.51,0,0,0-.77-1.27c-5.55.81-4.1-2.82-7.1-4.52-1.59-.9-2.66.33-4.88-1.56-1.18-1-.86-1.61-1.52-2.73-.83-1.41-3.48-2.5-4.52-.75-.28,1.73-.13,3.89-1.55,5.13s-5.61-.7-7.48-.8c-1.61-.08-3.31.72-4.94.47s-2.13-1-3.21-2.16c-1.88-.53-4.79-.73-5.44-3-.37.18-.54.55-.86.75-1,.63-2.65.15-3.68-.19a5.1,5.1,0,0,0-1.17.52l-.33.57.19.89c.85.69,2.09.57,3,1.18.63.4,1.18,1,1.81,1.41a3.88,3.88,0,0,0,.69.38c.49.2,1,.26,1.52.47,1.33.58,2.5,1.7,3.86,2.17a24.61,24.61,0,0,0,2.85.33,16.68,16.68,0,0,0,4.3.8c1.15,0,2.27-.33,3.41-.42,1.37-.12,2.18-.74,3.16.66l-.14.75c-2,.78-1.85,1.8-3.19,3-2,1.69-2.9,1-4.57,3.77-.45.73-1.09,1.87-2,2-2.61.42-3.17-2.39-4.79-3.44-.86-.56-2-.83-2.86-1.42s-1.69-1.77-2.77-2.31a23.16,23.16,0,0,0-3.82-1.51c-1.77-.46-3.36-.09-4.91-1.41s-2.19-4.69-2.8-5.42c-1.49-.57-6.25,3.24-8,.57-.37-.57-.33-1.47-.63-2.12-.44-.17-2.2.54-2.83.66a18.52,18.52,0,0,1-6.1-4.53l-.08-.75a4,4,0,0,1,.86-1.09c.5-.06,1.5-.25,1.77-.7l.14-1c-.56-.93-1.16-2.19-2.41-2.31-.9.28-1.77,1.2-2.58,1.32-2.32.33-2.23-2.07-3.77-2.69A9.28,9.28,0,0,1-8.34,109a2.1,2.1,0,0,1-.27-1.27l1-1.13a10.88,10.88,0,0,1,.19-2.55c2.59-3.14.87-2.29,1.69-4.76.28-.83.67-1.55.91-2.44a8.48,8.48,0,0,1-.41-3.45c1.73-1.1,5.26,1.7,6.38,2.41l.55.42.52.38c.48.3.94.66,1.42.94A51.78,51.78,0,0,0,8,100.47c3.5,1.64,4.24.14,7.29.42,3.61.33,2.69,2.53,8.12,1.32a21.64,21.64,0,0,1,7.52-.38,13.22,13.22,0,0,0,2.19.24c2.89-.22,5.06-1.63,7.7-2.45s4.16.87,6.38.56c.4-.06.85-.33,1.27-.42a25.62,25.62,0,0,0,4-.81c4-1.59,4.89-.93,8.87.19a9.16,9.16,0,0,1,3.05.94c2.07,1.51,3.55,8.75,4,9.1l1-.19.22-.19c.42-1.88,1-4.12.47-6.08s-4.33-4.56-3.66-6.83c.78-2.65,3.44-2.9,4.88-4.52a9.79,9.79,0,0,0,1.11-2.59c.6-1.32,2-2.39,2.55-3.73s-.48-3.43-.31-4.8h-.19c.36-.77.48-1.14-.06-1.8l0-.28-.39-.38a3.54,3.54,0,0,0-1.58.38c-.68,1.27-.06,3.57-.64,5.19S69,88.22,67.53,89a7.59,7.59,0,0,0-2,1.42c-1,1-1.57,2.59-2.6,3.44v.23c-3,1.57-3.24-.22-6.24.33-1.67.3-5.19,1.86-7.51,2.36a34.58,34.58,0,0,1-6.9,0,6.5,6.5,0,0,0-1.55-.43c-1.53,0-2.78,1.48-4.11,2.08a1.61,1.61,0,0,1-.91-.43c-4.75-.36-3.9,1-6.77,1.46-.83.15-1.91-.08-2.8,0s-1.39.42-2.08.52c-3.28.5-4.71-.27-7.59-.66-1.66-.22-3.47.48-5.07.24A25.76,25.76,0,0,1-.36,94.76,28.42,28.42,0,0,0-3,92.88a5.69,5.69,0,0,0-2.09-2.74A8.26,8.26,0,0,0-8.2,91.79a1.61,1.61,0,0,1-.53.89,6.85,6.85,0,0,1-4.27,0c-2.14,1-4.42,2-6.57,1.47v45.39c3.22,1.75,10.31,5.13,10.93,5.07a18.87,18.87,0,0,1,2.94,1c3.4,2.27,1.16,4.19,1.49,7a10.75,10.75,0,0,0,.89,2.36c.24.74-.1,1.66.41,2.31l.7.37-.07-.22.58-.28.36-.57a10.79,10.79,0,0,1,.17-2.31c.33-.88,1.32-1.08,1.8-1.79.58-.86.05-2.05.91-2.82.45-.35,1.57-.06,2.05.14.65.8-1.69,3.69-1,5.75a5.54,5.54,0,0,0,.9,1.27,3,3,0,0,0,1.59,1.32c3.93-.69,1.22,2,4.38,3.3a3.7,3.7,0,0,1,2.33.28c1.76.76,3,2.69,4.77,3.63.82.43,1.86.81,2.72,1.2a6.07,6.07,0,0,1,1.52.91c.88.94,1.41,3.17,2.52,3.78,2.2,1.19,5.86-.64,8.07,0a7.07,7.07,0,0,1,1.91,1.27l.17.89a2,2,0,0,0-.25,1.56l.66.37c.75-.49,4.36-.8,5.27-.66a20.86,20.86,0,0,0,3.55.71c1,.59,1.34.48,1.88,1.6l-.13.57a3,3,0,0,0-1.25.8l0,.61c1.58,1.5,5.2.42,7.24.85,1.54.69,3.82.4,5.49.8l.58.57c.33,1.23-.95,2.14-1.36,3.25l.28.8.69.38.75-.33a5.63,5.63,0,0,0,.89-2.36c1.21-1.42,5.5-1.5,6.95-.38.7.54.94,1.2,1.89,1.46.59.17,1.32,0,1.91.19a6,6,0,0,1,1.06.5c1.26.69,2.35,1.8,3.74,2.28a11,11,0,0,1,2.91,1.13c1.82,1.21,2.54,4.39,4.49,4.95,2.23.64,2.67-1,3.16-2.69l.83-.33c4.45,1.57,8.44,3.83,13.42,3.07,1.39-1.42,5.82-1.24,7.59-.66,1.09.35,2.06,1.16,3.08,1.55.68.26,1.36.83,2,1,1.28.41,3.82-1,6.55-.33a11.94,11.94,0,0,1,2.07,1.13c4.4-.12,3.44,1.07,6.82,2.26,2.48.87,5.23,1.3,7.49,2.83,3.27,2.22,4.63,6.08,8.81,7.16,1.7.44,5.38-1.06,7.48-1.22a18.66,18.66,0,0,0,3,1.79,1.69,1.69,0,0,1,.65.37c.33-.24,1.61.16,2,.24,2.82.5,3.88,3.4,6.94,3.81,1.53.21,2.51-.82,3.82-1.17s2.44.47,3.74.47c2.24,0,4.2-2.43,7.68-1.18,1.94.69,2.41,2.6,4.21,3.39s5.35,1.52,6.6,3.11a9,9,0,0,1,1.72,2.07c.78,1.79.11,3.74.69,5.52.64,2,1.95,3.67,2.52,5.56.42,1.38.19,2.78.36,4.19a24.18,24.18,0,0,0,1.69,6.19c.52,1.25,2.43,4.26,2.42,5.36l-.45.61a1.5,1.5,0,0,0-1.3,1.51c-.31,2.74,4,2.59,5.88,3.53l.25.38.33.14c.87,1.37.69,3.29,1.72,4.52s2,.72,2.58,2.73c.33,1.19-.4,2.68,0,3.54.71.65,1.83,1.08,2.41,1.84,1.91,2.48.91,6.12,1.58,8.95.44,1.87,1.88,3.89,2.66,5.7a24.27,24.27,0,0,0,1.5,3.63c1.21,1.84,3.22,2.4,3.93,3.25a2.75,2.75,0,0,1,.46,1,14.33,14.33,0,0,0,2.23,4.84c.9,1.38,3.17,2.38,4.49,4v-.19c.47.56.91,1.28,1.39,1.79.79.84,2.1,1.5,2.8,2.41s.64,2.07,1.3,2.92c.34.43.87.56,1.25.89,1,.93,1.44,2.82,2.47,3.87a36.07,36.07,0,0,0,4.57,4c1.29.9,3.07,2.14,3.69,3.67s-.45,7.15-2.39,7.49c-1.77-.66-4-1-5.66-1.88a4.77,4.77,0,0,0-1.21-.57c-.2,0-.7,0-1.08,0a3.52,3.52,0,0,0,.5,3.3c.55.22.78.61,1.22.94a17.21,17.21,0,0,1,3,2.22c2.38,2.73,4.58,12,6.24,15.74a37.53,37.53,0,0,0,2.13,3.58c.37.62.27,1.42.81,1.93.78.16,1.55-.31,2.27.19.81,1.9.43,5.34,1.47,6.74l.66.37a2.48,2.48,0,0,1,1.5,0,4,4,0,0,0,1.58,1.56c.65-.35,1-1.2,1.44-1.74,2-1,3.18,2.33,5.07,3,2.39.26,1.93,3.18,3.5,4.76,1.88,1.9,9.25,6.5,11.78,7.11.05-.1.2-.11.3-.09.91.2,1.6-.13,2.41,0,1.16.19,1.73,1.65,3.58,1.74,1,.06,2.12-.35,3.07-.28a3.15,3.15,0,0,1,1.07.32c1.65.8,3.3.42,4.92,1.1s2.95,4.37,5.07,4.38a18.1,18.1,0,0,1,2.17-.66l.77.23c.46.78.8,2.16,1.61,2.59,1.12,0,2.28-.47,3.38-.14.5,1,.79,2,2,2.17l.61-.14c.15-.59.33-1.17.53-1.74l.61-.38.8.28c.55,3.4,4.07.42,5.63,5.89l-.44.62c-1.28.57-3.14-.33-4,.32a2,2,0,0,1-.95.81h-.19a3.58,3.58,0,0,0-.75.8l.25.56a5.06,5.06,0,0,0,2,.94c2.11-.62,2.75-1.48,5-.75a3.18,3.18,0,0,0,1.55,1.27c3.56,1.95,3,.3,5.85.85.76.15,3.86,1.71,4.41,1.27,1.37.79,4.25,2.17,2.85,4.38-.38.61-1.24.74-1.6,1.51-.25,1.2,1.26,2.08,1.74,3.06.92,1.88,1.59,10.13,5.63,8.53l.61-1.37c.45-.07,1.75,1,2.38,1.23a25.93,25.93,0,0,1,2.83.61c2.65,1.29,2,6.95,3.27,9.24.88,1.6,3.49,2,3.69,4.66.14,2-1.16,2-2,3.16.37,1.57,2.53,4.75.72,6.22a2,2,0,0,1-1.19-.33c-.91-1.92-2.31-5.5-5-4.24l-.44.61c1.42,5.05,5.54,6.39,8.56,9.66.81.88,1.22,2,2.06,2.83.5.51,2.59,2.24,2.76,2.5,2.47,2.49,3.67,5.67,6,8.2,1,1.09,4,2.68,4.33,4.05.55,2.41-2.73,5-1.7,6.64l.64.1a4.74,4.74,0,0,1,1.47-.9l.78.28c1.43,1.39.2,3.77.25,5.33,0,1,.57,1.59,0,2.64a1.87,1.87,0,0,1-.81.14c-1.78-.74-1.12-2.36-5.65-2.78l-.53.28a4.59,4.59,0,0,0-.61,1.42,5.62,5.62,0,0,0,.78,1.27,5.11,5.11,0,0,0,.89.5c1.73,1,3,2.59,4.6,3.5,1.08.6,1.76.45,2.66,1.46a9,9,0,0,1,1.66,3.49c1.79,6.26-1.05,4.58-.72,6.83.21,1.4,1.53,2.09,2,3.35.82,2.25,1.81,7.1.36,9.19-.54.77-1.4,1.31-2,2.21a16.59,16.59,0,0,0,.41,3.58l.56.48c.39-.82.51-1.77.89-2.55.94-1.94,4.11-2.66,4.4-4.95-1.16-4.2-.42-2.75.2-6.07.21-1.16-.7-2.13-.53-3.26.58-1.29,2.16-1.24,3.22-1.79l.33-.7-.25-.71c-1.47-1.41-4.64-3.21-1.69-5.52,1.21-.22,5.45,0,6,1.32.26.95-.2,1.83.08,2.78.22.74.83,1.37.89,2.17.17,2.4-1.3,4.67-.17,7.07.64,1.35,1.81,1.7,2.52,2.78-.15,2.11.8,4,1.08,6.08.22,1.58-.05,3.15.28,4.71a8.86,8.86,0,0,0,1.58,3.44c1,1.08,3,1,3.63,2.59-.14,2.49.66,2.17,1.22,4,.67,1.22-.18,2.42-.54,3.56s0,2.28-.51,3.28c-.88,1.78-4.82,3.14-6.65,2.59l-.56-.47a3.72,3.72,0,0,0,0-1.41l-.45-.62c-1.47-.65-3.88-.87-4.82-2.35-.35-.56-.5-1.86-.89-2.22l-.55-.51-.58.18c-1,3-2.12,6.94-4.3,9.38-.7.78-1.82,1-2.35,1.65-.84,1.71.48,3.83-.92,5.32-1.41.37-1.4.74-2.38,1.65l-.14.61c.27.79.42,1.62.69,2.41-.44,1.5-3.45,2.38-4.63,1.51-.66-1.5-1.05-1.69-.31-3.35-3.11-.73-3.81,2.35-5.68,2.54-.06-.16-.18,0-.17.08-1.26-.35-2.2-2.42-2.49-3.56a2,2,0,0,0-1.44-.43l-.64-.42a2.64,2.64,0,0,0-.91-2.08c-.9-.54-2.09-.5-3-1.08-.38-.23-1.13-1-1.5-1.08a5.29,5.29,0,0,0-.89,0c-1.57.13-3.58,1.79-4.9,1.41-4.8-1.39-1.08-3-8.73-1.84-.89-.22-1.09-.82-1.75-1.27-1.25-.86-2.71-.89-3.91-1.6-1.42-.84-2.51-2.54-4-3.25s-3.4-.86-4.71-1.51c-.67-.33-1.14-1.09-1.74-1.37-1.16-.52-2.44.13-3.5-.23s-2.76-2.61-4.07-3.35c-2.92-1.65-6.22-2.5-9.12-4.24-2.75-1.65-3.1-4.12-4.08-4.48s-1.58.17-2.43.14c-1.83-.05-2.41-1.64-3.55-2.63a12.31,12.31,0,0,1-1.22-.9c-.86-.35-2.13.3-3.05.42-1.12-.2-1.6-1.16-2.25-2l.09-.85c.44-.71,1.11-.9,1.66-1.42s.66-1.38,1.3-1.88c.53,0,1.49-.36,1.64-.95l-.25-.8-.36-.23c-1.47,0-2.76,1.91-4.55.23-1.82,1-2.18,3.45-4.07,3.77l-.19.19c-2.55-.06-4-1.39-6.35-2.07-1.64-.47-3.35-.8-5-1.27a32.84,32.84,0,0,1-3.44-1.65,29,29,0,0,0-3.19-.9c-1.34-.38-2.51-1.24-3.91-1.65-.73-1-1.17-2.4-2-3.15a6,6,0,0,0-1.58.09,69.31,69.31,0,0,1-4.85-5.46c-.41-.69-.54-1.52-1.16-2.08a10.87,10.87,0,0,0-2.55,0c-.81-.52-1.88-.69-2.75-1.17-1.62-.91-2.66-2.24-4.13-3.26s-3.52-1.3-5.07-2.12-3.27-1.72-5-2.5-5.47-1.36-6.93-2.49a6.78,6.78,0,0,1-2.08-3.11c.54-1.83-1.37-3.25-1-5L218,466a12.55,12.55,0,0,1-2.52-.62c-.52-.86-.54-2-1.75-2.21l0-.8c.61-1,1.3-1.25,2.16-1.89a7.32,7.32,0,0,0,1.34-1.93c.84-.54,2.08-.2,3.07-.75.52-.46.7-4.14,2.41-6,2.07-2.22,2.93-1.67,5.58-2.21,1.36-.28,2.58-2.36,2.49-3.68-.07-1-1-1.76-1.19-2.78.4-1.76,4-6.4,5.76-6.88,1.53-.42,3-.1,4.49-.89,1.26-.67,2.62-3.69,3.5-5,1-1.44,2.34-1,3.41-3.91.94-2.59,1.15-5.65,1.8-8.34.33-1.39.8-2.94,1.27-4.29,1-2.67,2.31-3.34,2.22-6.69-.06-2.24-1.24-4.33-1.58-6.5-.44-2.86.48-6.26-1.19-8.91-2.62.83-1,7.25-.8,9.19a25.19,25.19,0,0,1-2.8,14.23c-.73,1.32-1.84,2.74-2,4.29-.33,2.38-.12,4.44-.92,6.83a9.63,9.63,0,0,1-4.28,4.82c-.89.53-1.47,1.42-2.48,1.92-2.92,1.44-5.75-1.85-8.62-1.42-2.11.32-3.15,2.18-4.83,3.16-3.85,0-2.12-2.06-3.77-3.58a2.62,2.62,0,0,0-2.22-.14,5.3,5.3,0,0,0-1.85.94c-1.91,2.32-2,6.95-6.38,6-1.11.05-3.62-1.79-4.74-2.36-1.17-.14-2,.93-3.24.15l-.44-.62c.3-1.61,3.87-4.67,4.82-6.92.68-.38,1.6-.25,2.14-.85l-.17-.66-.67-.38c-1.45.08-3.56.59-4.82-.42-.65-.53-.84-1.09-1.72-1.46-.05.08-.41,0-.5,0-1,.57-1.57,6.38-2.1,7.78-.86,2.24-1.9,1.51-3.25,3-.7.78-.75,2.08-1.35,3-.8,1.17-2.42,1.77-3.58,2.5-.39.88-.07,2-.64,2.73-1.33.86-3-.15-4.27,0l0-.23c-.65,0-1-.91-1.41-1.32-1.06-1.06-2.61-1.59-3.5-2.78a23.89,23.89,0,0,0-1.66-2.4c-1.29-.46-3.14-.32-4-.71-1.28-.59-1.31-3.12-2-4.34-.11-.18-9.79-9.54-10.37-9.94-2.91-2-6.89-.39-7.48-.71-1.47-.8-1.86-2.2-3-3.39a23.17,23.17,0,0,0-2-1.6c.18-.81.91-1.14,1.27-1.84l.06-1.13.41-.61a1.39,1.39,0,0,1,.89.47l.78.14.72-.28a2.37,2.37,0,0,1,2.63-1.13,7.76,7.76,0,0,0,1.64,2.54,5.53,5.53,0,0,0,4.71-.9,3.44,3.44,0,0,0,.19-1.88c.54-1.43,3-.71,4.08-1.84.65-.69.88-2,1.44-2.78,1-1.37,2.46-1.55,3.41-2.73.56-.7.52-1.57.91-2.36.52-2.1,3.95-3.8,2-6.83l-.5.1c-.72,2.22-1.81,1.91-3.16,3-.55.44-.86,1.34-1.39,1.79-.73.65-1.89.87-2.57,1.61-1,1.07-1.6,2.65-2.75,3.58A17.62,17.62,0,0,1,160,406.7c-.9-1.4.16-3.23.25-4.62,0-.89-.67-1.6-.67-2.5a40.72,40.72,0,0,1,1.19-7.26,17.91,17.91,0,0,0,1-3.25l-.47-.61-.5.1c-1.24,1-2.65,3.9-4.74,3-1.22-1.58-.29-2.68-.16-4.27.17-2.25-.41-4.51.05-6.75.62-3,2.54-5.37,2.14-8.63l-.28-.33a9.34,9.34,0,0,0-1.47,1.61c-1.52,2.49-3.54,15.12-5.38,15.73a11.27,11.27,0,0,0-1.58-2.64l-.77-.28c-1.5.63-2.13.12-3.55,1.56-1.64,1.66-3.2,6.83-5.93,6.69a5.65,5.65,0,0,1-1.22-.85c-.61-.76-.71-2.08-1.25-3s-1.46-1.51-1.89-2.31a2,2,0,0,1-.11-1.56c-.51-.25.37-2.26.84-2.59.93-.66,2.11-.34,3.1-.61,1.17-.32,1-1.49,1.69-2.17a11.38,11.38,0,0,0,1.14-.94c1-1.3.49-3.13.83-4.66s1.16-2.48,1.6-3.77.24-3.61.81-4.72c.46-.9,1.45-1.56,1.74-2.64a7.31,7.31,0,0,0-.22-3.77l-.47-.33c-1.64,2-1,3.67-4,6.46-.41,1.3-.28,1.67-1.27,2.73a1.72,1.72,0,0,0-.39.8c-.24,1.53.69,3.09-.11,4.53a8.44,8.44,0,0,1-1.33.7c-2.64,4.86-1.45,2.88-4.91,2-.9-.15-2.88-2.31-3.1-3.15-.34-1.26.25-2.76.11-4.06a8.82,8.82,0,0,1-1.11-2.07c.29-2.2,1.51-2.71,2.13-4.48s.23-3.21.42-4.85l-.42-.24a5.71,5.71,0,0,1-1.63,1.47,11.94,11.94,0,0,0-2.8-.1c-1.06.79-1.28,2-2.5,2.73-2.54,1.44-3.78-.49-5.26,3a1.61,1.61,0,0,1-1.36-.1c-6.22-2.4-1.56-3.47-3.71-6.35a3.2,3.2,0,0,0-2.17-.57l-.41.61c.06,1.29,1,2.45.91,3.77a33.46,33.46,0,0,1-1.33,5.37c-.29.42-.76.64-1,1.18-.31.84-.09,1.77-.61,2.59a2.75,2.75,0,0,1-1.22.57l-.58-.47a4.39,4.39,0,0,0-.61-1.46,22.85,22.85,0,0,0-2.33-1.89c-1-.94-1.79-2.11-2.78-3.09a3.58,3.58,0,0,0-.82-.63c-.91-.51-2.12-.39-2.94-1-.17-1.64.48-1.76,1-3-.48-1-1.72-1-2.19-2-.67-1.49,1.11-3.48-.61-4.48a7.34,7.34,0,0,0-2.72,1.09c-.66,2.53-3,1.07-3,5,0,3.19,2.12,3.56,2.27,4.85a17.32,17.32,0,0,1-.22,3.11l-.44.38a8,8,0,0,1-1.77-.09c-1.18-.08-2.89.93-4,1.36a2,2,0,0,1-1.83-.89c-.16-1-.08-2.25-.69-3s-3.81-1.89-2-4.38a13.45,13.45,0,0,0,1.25-.8c2.08-2.15-.34-3.9-.69-5.14.11-1.65.81-3.49.72-5.14l.52-.56c.3-1.53-.1-2.85,0-4.38a11.52,11.52,0,0,0-1.35-1.61,10,10,0,0,0,0-1.22c0-1.2,1.1-4.44.14-5.61.17-.42.19-.89.36-1.32,1.21-.88,7.48-4.12,7.93-4.85.55-.91.62-2.31,1.1-3.35l.84-.19c.67.35,1.08,1.08,1.85,1.23l.67-.09A3.75,3.75,0,0,1,99.54,328c1.71.11,3.21,1.42,4.93,1.37a18.27,18.27,0,0,0,2-.66c1.05-.2,2.29,0,3.33-.24.47-.11.92-.4,1.41-.52a5.72,5.72,0,0,1,.81-.14,13.1,13.1,0,0,0,3.52-.33c1.64-.5,3.07-2.2,4.51-2.4a4.35,4.35,0,0,1,3.16,1c.89.08,2.63-1.12,3.78-1.27l.77.28.72-.28c.11-1.53-1.09-2.26-1.52-3.54-1.2-1-2.58.47-3.72.62a23,23,0,0,0-2.63.14c-3.58-1-7.5,1.91-10.67,3.16a27,27,0,0,1-3.67.92c-.29.07-1.28.07-1.76.11l-1.42-.56c-.44-.75-.89-1.53-1.8-1.75-1.72-.41-3.62.51-5.32.05-1.47-.39-1.74-1.66-2.8-2.5-.56-.44-1.29-.64-1.75-1.27-1.61-2.21.33-4.28,2.16-5.27.64-1.39,1.07-3.4,2-4.57.69-.88,2.06-1.73,2.52-2.69l0-1c-.66-1.71-3.54-1.54-4.49-2.92a2.91,2.91,0,0,0-1.24.19l-.31.52c0,1.66,1,2.9,1,4.24,0,2.67-1.43,3.73-2.66,5.6-.61.94-.65,2-1.83,2.55a14,14,0,0,1-7.15.94l-.5-.57a47.62,47.62,0,0,0-1.13-5.56c-.28-1-.92-2-1.19-3.06s-.38-2.37-.67-3.53c-.56-2.28-1.61-4.16-1.91-6.55-.19-1.45.3-2.73.27-4.15,0-2-.73-3.43-.55-5.65a4,4,0,0,0,0-1.75,2,2,0,0,0-1.19-.85l-.61.19a15.24,15.24,0,0,1-1.44,2.92c-3.67,2-6.14-1-7.48-4.14a22.67,22.67,0,0,0-.81-2.36c-.36-.66-1-1.14-1.33-1.83s-.52-1.53-.91-2.22c-.9-1.57-3.4-2.87-3.61-3.25a6.86,6.86,0,0,0-1.19-.28l-.41.42c.25,1.54,6.35,5.1,4,8.77a14.48,14.48,0,0,1-1.76,1.74c-2.7,2.9-.62,2-5,4-.66-.25-.83-1.1-1-1.69-1.52-4.62-.14-5.9-.86-8.62a39.29,39.29,0,0,0-1.77-4.53l-.39.1c-.43,1.2-.13,2.68-.25,3.95-.09,1-.48,1.82-.61,2.74-.42,3,.39,6.32-.55,9.23l-.53.52c-.82.25-1.67-.17-2.52,0s-1.82,1.13-2.66,1.23c-2.63.3-5.37-1-7.93-.8-1.34.1-2.63,1.53-3.85,1.18a2.3,2.3,0,0,1-1.28-.66,21.57,21.57,0,0,1-2.1-3.07,21.91,21.91,0,0,0-2-1.87,3.89,3.89,0,0,1-.56-.77c-.87-1.59-1.14-3.36-2.09-5-.48-.8-1.71-1.87-2-2.7s-.4-1.65-.69-2.45l-.61-.42-.28-.62c.17-1.5,1.33-2,2.22-3,.68-.74.94-1.88,1.6-2.68s1.67-.81,2.11-1.93c-.26-2.47-1-6.13.17-8.34a4.44,4.44,0,0,1,.41-.62c.57-.55,1.46-.61,2.08-1s1.11-1.64,1.89-2.13a10.2,10.2,0,0,1,1.47-.51c2.53-1.08,3.33-4.08,3.1-6.62-.1-1.08-.32-2.08-1.5-2.43l-.61.09a3,3,0,0,0-.74,1.18,5,5,0,0,1-.23,3.3c-.83.55-1.85.89-2.66,1.41s-1.06,1.43-1.89,2a3.62,3.62,0,0,1-.91.43,16.78,16.78,0,0,1-3.24-.57h.22c-2-.37-2.26-2.27-3.32-3.67-.47-.62-1.17-.95-1.58-1.61,0-1.17-1.52-2.72-2.61-3.06l-.83.19c-1.26,2,1.31,3.94,1.86,5.7a12.46,12.46,0,0,1,.22,1.89,21.15,21.15,0,0,0-.69,2.64c-.05,1.43.73,2.94,0,4.38a14.05,14.05,0,0,1-1.88,1.36c-1.52.91-2.8,2.11-4.52,2.64-1.08.34-2.36.3-3.46.57l-.52-.19c-.36-.13-.34-.18-.6-.44A9.52,9.52,0,0,0,2.22,263c-.59-.67-.38-1.55-.75-2.27-.24-.45-.71-.65-1-1-1.2-1.15-1.4-3-2.3-4,0,.2-.2,0-.23.1v-.19c-1.05-3.38.23-4.56,3.61-4.71a3.64,3.64,0,0,0,1-1.09l-.08-.66c-1.58-.45-5,.7-6.07,0l-.08-.75c1.19-2.14,2.26-1.67,3-4.57,1.42-.95,2-.59,2.83-2.4l-.39-.66c-5-.62-6.46,3-9.09,6.26a11.19,11.19,0,0,1-2.89,2.08c-1.67,1-2.59,2.31-4.85,2.07-.72-.86-1.94-1.16-2.46-2.31-1-2.15,1.44-5.92,2.19-8.11l-.39-.42a23.56,23.56,0,0,0-3.49,1.18,1.93,1.93,0,0,0-.31.33V973.69H327.2l.7-.82.51-3.34.11-2.75.36-1.14,1.05-1.21-.11,1.42-.61,4.3,1.72-3.22.48-1.25,0-2.53-1.28-1.3-1.38-2-.17-1.27-1.05-1.52,0-1.15.22-2.41,1.08-1.61,1.27-1.74-.77-1.27.06-2.71.47-1.76,1.48-1.48-.67-1.15L329.23,940l1.39-7.4.82-3.67-.36-1.54,0-7.2-.22-1.9L329,916l-.65-1.59v-1.28l-1.19,0-.09-1.38,1.12-1.34.27-1.11.2-2.68.47-5.63-.41-3.5-.46-2,.28-1.3-1.17-3.67-.15-1.51-1.17-.87-.1-1.14.39-1.21,1.44-.9,1.15-2.13,2.09-.92.61-1.82.51-1.52.94-1.87-.58-1.16-.53-7.39-.66-2.82-.41-3.09-1.08-3.77-2.8-7.23-1.81-3.08-.68-1.59-.46-2.08,1.43.48-.11,1.39,1.89,1.72,1.87-.1,1.21.9,1.48.75,1.15,1.28.83,1.19.53,1.42.3-1.41.85,2.12,2.78.33.37,1.22,1.82-1,1-.42.93-1.23-1.84.06-1.12-.74-1.2-1.52,1.44-.59,1.22-.55,1.7.12,1.23-.4,4.47-2,1.22-.61.07,1.28,1.15,2.25.35,1.52,1,1.07,1.23.36L356,853l1.48-.53,1.72.43,3-1.56,1.54-.17,1.55.74.47-1.22-.82-.28-2-1,.44-1.42,3.12,1,0,.12,1-.59-1.18-.17.54-.58-1.59-.4-1.58-.49,1.17-.68,1.26-.78,2,.1.33.77,1-.6,1.11-1.75,3.42-.47-1.9-1.21,1.17.16,1.34-.18-.15-2.47-.49-1.32-1.94,1-2.5,0-1.63.74-4,.14-2.19-.62-1.13-.31-2.65.05-1.06-1.49-.9-3.15-.22-1.1-1.12.13-1.05-.48-1.23,1.28L352,836.1l-2.08-.4-.38,1.72-1.68.92-1.29-1.1-1.32-.33-1.05.33-1.41,1.82-1.4.75-1.23.81L339,842.41l-1.5,1.1-2.49-.65-2-1.07-.73-1.35-2.66-2.76,0-1.15-1.25-1.4L328,834l-1.33-1.16-1.5-.41-1.48-.24-1.11,1.08-1,.22-1.19,1.29-.13,1.19,1.53,2-.4,1.08-1.48-1.49-1.25,1-1.67.69.16-2L318.3,836l-.7-1.35,1.21-1,.58-1.71.14-1.82.24-3-.06-6.9.2-2.34-.17-2,.23-2.31-.1-1.86-.22-4.28,0-6.83-.39-5.12.11-3-.45-6.09.36-1.58,1.32-1.06,1.22.53.77,1.45-1.6.34-.4-1.21-.26,1.57,1.34,3.52,1.13,1.85.39,1.05-.31,6.12-.31,4.88-.14,1.83.45,2.28-.12,3.61.91,3.56.22,3.79-.19,2.07.19,1.09,1,1.2,1.83-.37,1.45-.09,1.08,1.25,1.24-.31-.12-1.88-.41-1.41.24-1.1,1.06-.19.46-1.2.08-.12-.34.34-1.41.29-.2-.89-.56-1.23.47-1.49-.8-1.37-1.25-.1-1.13-1.48,1-1.23-.64-1.36L327,807l.42-1.24,1.05.13.66,1.63-.7,1.41,1.37.45,1.93.47.13,1.54-.72,1.17.72,1.25-.27,1.07.79,1.92.46-.71L331.81,815l.16-1.19.25-2,1.65,3.45,1.88.21,1.86,1.35,1.85.75,1.1,1.52-1-2.47-1.64-1-1.53-.81-2.24-1-.25-1.9-1.48-1.5-1.17-1.06-.19-2.75,1.17-1.18.79-2.26,1.93.81.88-1.52-.64-1.9.28-2.55-1.11-.78L332.85,794l-.29-1.24-.93-1.74-1.72-1-.66-2.53.55-2.4,1,2.33,1.32,1,1.32.19L334,790l.51-1.36-1-.55-1.69-1.53-.11-1.24-.25-1.09,1.28-2.33-.13-1.9.73-1.08,2.5-1.1,2.23-1.84,1.35-.72,1.23-.11,2.32,2.8.3,1.66,1,1.19,1.19-.61-1.73-.86.07-1.45-1.32-3-1.65-1.78-1-1.16-1.35-.59-1.41-.45-1.25-1.2-.14-1.34-1.15.34-.83,1.42-.51,1.79-2.51,0-1.58-1.3-1.35-.8.23,1.1-.37,1.14-1.08.36,1.47,1.12.06,1.51-2-.53-2.48-2.24-1.23-.6-1.27.39-.14,1.52-3.53-.76-1-1.42-.35-1,.15-5.5-.56-4.23-.69-5.15-1.69-7.16L312,745.66l1.26-.25.71-1.11,1.17-.48-.31,1.45,1.32.56.44,1.24-1.33,1.83.74,1.38,1.94,1.11.33,1.84.4,1,1.09-.35.17-1.45,1.36.59,1.86,2.22,1.12-1.11-2.35-3.32.66-1.14-2.18,1.71-1.13-.14,2-4.35,1.25-.71,1.79-.63,1.18-.44,1.61-2.3,1.35-.05,1.75-.18,2.86-1.19,5.14-1.39,1.89-1.37,2.69-.78.92-1.22.65-1.15-2.18,1.32-1.16.63-1.09-.88-1.53-.43-2.62,0-1.15-.5-4.15.57,1.34-.78,1.42-.68-3,0-1.31-.36-2.14.33-1-.18-2.29-1.48,1-2.39-.76-1.93-1.1-1.44-2.26-1-1.3-.56h-1.15l-1.56-.5-1.3.15-3.41,1.31-1.05,2,.33,1.18.82,2.69.53,4.19,1,1.09-1.36,1.32-2.09,1.28,1.55.19-2.89,1.21.39-3.16.19-5.19-.88-15.15-.38-3.24-.23-1.93-.68-3-.21-2-1.27-6.72L304,697l-.4-1.83-.74-3.32-1-2.4-1.77-2.13-1.17-.16-1.1,0-1.8-6.63-2.13-1.63-.53-2.24.08-2.06-1-3.51-.4-1.14,0-1.08-.39-2.08.28-2.08-.15-1.74-.61-3.84-.22-4-.67-3.09,1.54.52-1.45-1.81-1.07-5.32-1.25-4.6-.12-1.74-1.23-3.92-.91-2.88-1.36-2.94L283,623.72v-2.51l-1.21-.71-1-1.3-1.32-.62h-1l-.06-1.41-.59-4.38-1.43-2.12-1.94-.8-1.88-1.48-.6-1.15-1.14-.43-.13-1.77-1.28-.45-2.25-2.25-1.22.86-.73-1.38-1.6-1.37,0-1.14-1-2.19-.19-2L261,592.78l-1-1.72-.37-1.11-.1-1.37,0-1.89-.93-2.27.31-1.22-.38-1.9.18-1.07-.4-2.31-1.06-2.68-.27-1.44.19-1.64.29-2.82-.31-2.33-.93-2-1-1.55-.79-2.06-.6-1.42.81-1.06,1.5-1.48.84-1,.93-4.34-.87-2.35-1-.92,1.38-.88,1.49-3.22-.07-1.57-.09-2.07,1.39-.74.34-1.38.86-1.8-.51-1.7-.79-1.79-2.88.07-.13-1-1.26-.64,0-1.27-1.23-1-.51-1.36,1.11-1,2.35-.3,2-.15,1.36-.53,2.51,1,.27,1.37.94,1.51,1.85-.07,1.46-.61,1.6,1,1.11.11.84,1.19,1.93,1,1.22.14,1.56.74,1.16,1,.56,1,1.49.41,3.9,3.4,1.54,0,1.34,1.62.59,1,2,.57,1.39-.5,1.15.08,1.67,1.57,1.92.77,1.69.36.23,1.41,1.65.5h1.61l.68-1,2,.56,1.52.71,1.15.62,2.88,1.35,1.78.64,3,2.29,2.51.33.06,1.54-1.43-.27,1,1.31,1.11.49,1.29,1.08,2.84,1.66,2.95.86,2.28.26,1.32,1,1.08.35,2.54-.17,1.58.65,4.88,0,1.07.09,1.08.82h1.9l1.4-.42,1.48.35,3,.09,1.73-.69,2.11-.06,1.13-.78.88,1.19,1-.31,1.49-1.09,2.25.58,1.54.79,1.62.58-.06,1,2.32,1.08,1.47.29,2.17-.29,1.3-1,1.07,1.14-.15-1.54,1.3-.21,1.93,1.76,1,.56,2.8.24,3.6-1.5,2.84-.19,1.47.72-4.34.2-1.3.65.95,1.1,1.37.29,3.41.84,2.58.72,3.27-.76,1.2.5,1.27.06,1.54-.38,2.57.05,1.66-.34,2,0,2.14-1,2.72-2.86,3.46-4.2,1.47-.71,1.73-.48,1.77.06-1.7.58-1.37.64-.89,1.84.19-1.87-2,1.35-1.82,2.63,1.22-.72,1.27-.18.18-1.21.66,1,1.57.72,1.37-.59,2.88,3.14,2.18,1.6,1.4,1.53,1.05,2.88-.22,5.13,2.11,3.71,2.1.7-.47-3.18-.54-1.21,0-1.8h-1.64l.13-.28a.75.75,0,0,1,.07-.12,1.22,1.22,0,0,1,.12-.19,2.32,2.32,0,0,1,.21-.25,2.25,2.25,0,0,1,.39-.36l-1.18-1.35,1.44-.2,1.43-.81,2.9-.44,1.6-.64,1.84.37,1.87.47-.6,1.24-.4,2.71,1.07,1.37,1.74,1,2.36.47.74,1.41.43,1.2.47,2.21-.37,1.14-1.11,1L434.5,586l2.07-.05,1.67-.86,1.06-1.36.7-2V578l-1.34-.51-1-1-.5-1.38-.33-.18h-4.49a1.15,1.15,0,0,1,0-.19h-.07a8.07,8.07,0,0,1,3.23-6.29l2.55-2.38,1.77-.87,1-.56,2.74-.77,3.44-.1-.44,2.08,1,1.24-.14,1.13-1.8.87-1,.43a4.21,4.21,0,0,1-.08.89,13,13,0,0,1-1.62,1.13l-.19.56,1.11,1.38.29,1.14.8,1.17,1.27,1.14-.83,1.07,1.1,1.07,1,.67.23,1.24,1.23-.7.6,1.21v1l1.2,2.8.45,1,1.17,1.54,2.17,1L453.9,590l0,1.18,1.18-.75-.51,1.34-.26,1.5.41,1.11-1,1.41-1.28.9,1.37,0,1.32-.16.39-1.2,1.44-.91.64,1.07-.42,2.21.25,1.22,1.16,1.27,1.09.29,1.37-.37.36,1.29-.95,1.24-1.24-1-1,2.56-2.72-.32-1.66-.42-.49,1.21,1,4.23-.91,1.24-1.23.52-1.37,1.44-1.16.56-1.51.27.11,5.5-.91,1.64-.43,2-2.1,2.23-.39,1.14-.16,1.52.32,1.22.9,1-.28,1.16-2.79.57-1.15.62L439,629.35l1.14-2.27,1.07-1.41.64-1.67-.06-1.77.19-1.06.9-1.91.15-2.16.68-3.61-.86-2.66L442,609l.06-1,.43-1.07-.88-1-.85,2.55-.43,2.38.76,2.83-.12,1.12-.59,1.52-1.45.71-1.3-1.05.65-4.41-.74-1.46-1.35,1.64-.15,1.66.69,4.92,1.24,2.43-1.08,2.2-1.25.12.21,1.16-1.24.79-1,2.77,0,1.31-.31,1.7-1.22,3,.28,1.12.15,1.64-1.05.55-1.26-.82-.75,1.1-.11,1.18-2.5,2.3-1.12.45-1,.79-.48,1.64-.78,1.17L421,649.72l-1.62,1.4-.35,2L417.63,656l-.34,2.08-.52,1.11-2.27,2.39-1.36,2.22-1.07.79-.22,1.5-.58,1.12-.95,3.29-.87,1.68-.42,2.36-.13,2.22-.68,1.6L409,680l.25,1,1.15.49,1.26.47,1.31-1.48.9-1.31,1.6.69,1.39.43h2.84L421,680l3.44-3.21,2.12-.93,3.48-.73,1.87-1.15,1.12-1,.94-1.21,3.47-2.88-.09-1.64-1.41,1.48-1.63.32-1.21.76-1.76,1.71-1.3.77-1.92.55-1.33.77-1.81.63-1.31,1-2,1.33-.17,1.1-1.3,1.46-1.62-.48-.45-1.68-1.44.64-1.45-.76-1.9.14L412,677l.16-1-.62-1.57,1.35-2.79.59-1.43.3-2.27.53-1.45,1.48-1.39,1.15-1.87,2.76-3.57L420,657l1.35-2.83,2.18-3,.68-1.13,1.25-.59,1.78-3.76,1.33-.44,1.62-1,1.16-1.43-.27-1.56,1.3-1.3,2.76-1.25,1.12.26.85-1,.34-1.37,3-.55-1.51,1.22.65,1.13,1.68-1.6,3.21-1.64,2-1.29,1.49-.61.31-1.3-.61-4.42.79-3.92,1.91-2.19.4-1.91,1.31-1.77,1.86-1.07-.31-1,.59-1.58,1.45-1.25,2.54-3.3,2-2,.4-1.88,1.64-.48,1.94.17.43,1.35-.56,1.58,0,1,.82,1.86.91-1.44-.54-1.61.2-1.92-.34-2.55-.14-1.11-1.42-3.67-.27-2-2.36-1.72-.74-1.15.88-1.27,1.48.67,1.76,2.73,2.2-.45,1.07.46,1.16,1,1.55.2-.71,1.32,1.68,4.59L472,608l.34,1.95,1.56,2.41-.64,1.49-.67,1.42,1.34,1.55,1.31,3.68-1.19,1.69-1.45.2-2,.2-1.31-.68-1.13,0-.69-1.33-1.18-2.13,0,1.11.09,1.91.82,1.22.28,1.19-1.17,1.45-1,1.42-2.18,3.17-1.06-.8-.42-1.31-1.07-.73-1.07-.4-1-1.51-1.82-1.79-.16,1.52,1.2,1,.92,1.28.85,1.82.55-1.18,1.14,1-.48,1.34.67,3.88-.38,1.84,1.35,1.79,1.23.42-.56,5.55.48,1.21-.54,1.71-.65,1.19-1.37.43-1.6-2.14-1.41-.67-1.4-2.09-.58-2.64-1-.64.14-1.79-.73-1.74-1,.19-1.15,3.54-.14,1.29.88,1.75.95-1.21.34,1.08-.52,1.15.7,1-.09,1.52,1.25.29-.72-1.2.38-1.27.72,1.16V643.3l.4,1.55.3,1.52,1.21.12,1.22.45,1.09.93-.33,1.47-1.44.8-2.22.5-1.09,2-1.41,1.18,2-.38.77-1.3,1.65.76.75-1.16,1.6-.78,2-.44.55-1.25,3.11-4,1.63.63.32,1.22-.55,1.15,1.23-.46.42,1.45-.82,1.06,0,1.19.27,1.11.25,2.14,1.74.89,1.2,0,1.1,1.1-3.56,5.35-.09,2.83,0,1.41.21,1.77-1.93,4.77.59,3.89-.55,1.15-.9,3.22-1.45,2.05-1.45-.88,1.43,1.62.72,1.86,1.74,3.31-.67,2.33-3.17,2.88-.8-1.53.56-2.59-1.23-1L460.8,688l.18,1.13,1.57,1.33,0,1.24-1.41.64-1.57-1.23-2-.43-2.33-1.28-.54,1.21-1.59-.59.87-1.71.35,1.25.35-1.67-.54-2.08,1.8-1.67,1.39.1-.16-.93-1-.43.93.17-.16-.93-1.72-.52,1.27-1.23,2-1.76,1.44-1.27.17-1.33-.42-1.91-.5-1.71-.08,1.58.27,1.46-1,.78-1.8,1.27-2.62,1.32-1.26,1.3-1.55,1.56-1.65-.59.22,1.33.53,1.47-1.31,2-1.19,2.9-.31,2.11-.59,1,1.4.27-.72,1.53,2.11-.93-.17,2.23,1.53.2-.44,2.21.67,1.2-1.43,1.17-.72,1.13-1.17-.79-.29-1.36.11,2.52.12,1.27,1.09,0-.92,1.58-.64,2.1-1.66.79-.38-1.18-.49-1.41-1.12-.93-.88-1.82-1-1.24.16-1.49-1.18-.82-1-2.75,1.71-5.2,1.83-1.28.78-3-1.13-.12.24-2.63.49-1.52,1.84-.17-2.18-1L443.3,679l-1.1.28-.8-1.56-.25-1.66.38-1.23-.07-1.34-1.58-1,.53,3,.23,2.27-.43,2.38-.45,1.11-.08,1.18-.68,1.66-1,2-1.41.24-.65,1-1.14.75-1.52.38-2.87,2.37-.2,1.86L430,694l-.71,1.7.23,2.2-.42,2,.77,1.63-1.14-.29-1.34.14-2,.55-1,.18-1.65-.92-1.07-.25-3.59.47-1.38-.33-.21-1.1,1.92-1.29.27-1.29.26-1.33-1.46,2.09-1.62,1.33-.67,1.13-.52,1.08,1.2-.26,1.83.7,3.62-.64,1.09.15,1.87,1.17,1.56-.78,1.7.27,1.75.48-1.74,3.32-1.52.95-2.11-.07-1.92,1.69-3.73.38-2.44,3.11,2.51-2.58,1.64-.19,1.82.17-.55,1.45-.12,1.09-.65,1.49-1.3-.17-1.37.2-1.89,1.59-.17,1.33,1.89-1.66,1.55.45,1.5-.21,1.09-1.73,1.3-1.11.48-2.08,1.77-.1.27,1,1.07-1.59.72-1.53,1.5-2.37.34-1.62.63,1.75,1.58.36-.7,2.71-1.08,1-1.42.85-1.06,1.72-.2,1.77.93,1.14-1.35.89-1.67.61-.85,2.35-1.63.63-.4,1.34.33,1.86,1.19.92,1.12,1-.51-2.15-1.27-.78.51-1.41,1.45-1.49,1.68-.87.94-1.14,1,.16.09-1,.87-1.61-.57-2,.7-1.33,1-1.11-.12,2.22.31,2-.09,1-.66,1.39.23,2.81,1.51,1.77.6,1.86,0,3-.47,2.8.85,1-.23-1.75.5-3.67-.15-2,1.08.87-.55-1.48-.4-1.42-.12-1.81.67-1.69.06-2.76-.88-1.38.19-2.41,1.34-.6.62-1,1.56-.22.32-1.16,1.06-.31,1.1.62.18,1.2-.22,1.56.15,1.2-.05,1.08,1.47,4.06-.19-2.68-.18-1.6,0-1.54,0-3,.37-2.82,1.22,1,1,1.44.3,1.09.88,1.25.54,2.61.87,1.11,1.07-.21,1.09,1.44,1.89.7.87,1.12-.05,2.15.81-2,2.1-.55,1.34.27.95-2,1-1.28,1.27-1.74,1.14-.58,1.38-1.44,1.65-3.48,1.4-.74.83-2.24,0-2,.69-1.49.88-1.17.36-2.48,1.2-.69.06-1.15.51-1.28.9-1.3.74-1.73.15-1.22-.73-1.8-1-2,1.13.06,1.93,1.75,1,0,.51,1.14,2,1.68,1.29,1,2.17,1L479,692.8l1.07.3-.41-1.25,1.08.26-.5-1.1.39-1-.92-1.48-1.1-.1-1.27-1.25.86-1,1.44-1.68,1.74-.18,1.2-.78,1.22.38,1.12-1,4.43-2,.16-1.08-.06-2.55-.3-1.53-.18-2.87L487.13,671l-1.57-4.83-1.66-.57,1.3-.89.75-2.84-.26-1.39-1.76-2.1-1.7-2.17.43-1-1-1.37.25-2.17.26-1.06-.69-1-.41-1.11-.91-1.32,1.43-.9,2.08-1.74.79,1.42,1.16.62,1.29,3,1.81,3.38,1.26,1,1.61,2.41-.79-2L490,653l-1.86-2-.53-1-.1-1.07.67-1.49-.08-1-.6.64-.16-1.33.73.18-.18-2.33-1.3-1.76-1.44-1.43-1.25-1.08-1.11-.23-1.32-.41-1.31-1.26-.81-2.16-.77-1.09,2-.43,0-1.35.53-2.52,2.4-2.88.29-2.77-.41-1.15-.31-2.77-1-2.92-.23-4.58.33-1.1,1.5-2.48,1.67-2,1.59-1.21.74-1.9.75-6.43,1.32-2.3.1-2.66,1.64-1.83,1.1-.69,2.12-.24,3.05-1.44,1.88-1.33.77-1,.09-1.76.36-2,.09-1.31.28-2.17,2-.81ZM472,517.39l1.41.81-1.22,1.1-.61-1.15-.49-1.2ZM-11.06,136.6l-.55.52a31.55,31.55,0,0,1-3.13-1l-.47-.56a9.78,9.78,0,0,0-.14-3.11l.25-.61a1.74,1.74,0,0,1,.86.75C-13,133.14-10.79,135.42-11.06,136.6Zm.09-35.71c-.62.52-1.21,1.66-1.91,1.88h-.81c-.49-.83-1.67-2.55-1.77-3.44,1.47-1.66,4.65-3.61,6.9-3.11.54.31.7,1.18.82,1.73C-7,101.26-9.25,100.23-11,100.89Zm98.59,49.62c2.95,2.43,4.36-3,4.88-3.73.39-.51,6.81-6.17,7.4-6.55a2.34,2.34,0,0,1,1.56-.23,12.88,12.88,0,0,0,2.85.14c1.72-.35,3.71-3.58,6.38-3.41.92.06,2.34.73,2.24,1.33.46,1,1.59,1.57,2.11,2.64.83,1.71.62,3.57,1.6,5.19,1.27,2.06,2.65,1.42,3.39,4.38a8.11,8.11,0,0,1-.75,1.18c-2.89,1-6.47,2.25-6.46,5.89-1.23,1.16-.85,3.06-.5,4.43a14.46,14.46,0,0,0,.19,1.74,2.77,2.77,0,0,1-1.58,1.37c-2,.43-3.82.18-5.93.89a2.8,2.8,0,0,1-1.08.14c-1.34-.1-1.73-.83-2.69-1.55a3.46,3.46,0,0,0-1.86.09c-2.29-.58-1.6-2.3-5.46-1.36l-.41.42.08.33a2.35,2.35,0,0,1,1.25,1.51,1.71,1.71,0,0,1-.44.94c-3.34,1.8-5.92-2-7.59-1.61.07,0,.19.1,0,.15-.76.15-1.23.6-2,.75-1.62.34-4.86-.57-6-1.83-.2-.23-.23-.59-.47-.8v-.48c1.27-.87,3.78-.48,3.52-2.87-.08-.7-.65-1-.84-1.7.7-1,2.62-2.15,3.53-3.58s.4-3,2.41-3.62Zm14.94,20.78a26.17,26.17,0,0,1-2.19,2.73c-1.43,1.29-2.11.76-3.74,1.08a11.9,11.9,0,0,0-4,2.17c-1.53.3-1.73-.83-2.8-1.46-1.53-.91-6.34-.5-5.35-3.63,1.66-1.62,7.67-1.52,8.2-3.44,3.13,1.15,6.82-.55,9.57,1.51A1.53,1.53,0,0,1,102.56,171.29ZM51.64,132.41c1-.36,2.28-1.21,3.36-1.7a3.71,3.71,0,0,0,.61-.28,11.8,11.8,0,0,1,1.83-1.37c1.05-.44,3.88-.56,4.57.48a10.56,10.56,0,0,0,2.69.28,2.64,2.64,0,0,1,1.14,2.07l-.42.61c-.62,0-1.28-.09-1.89,0-1.37.1-2.53,1.15-3.93,1.22s-2.86-.33-4.22-.26c-1.05.05-2.37.48-3.38.17l-.61-.52Zm6.1,36.9c-.64.19-7.08,1.91-7.23,1.88a39.26,39.26,0,0,1-3.91-1.51c-1.77-.55-3.54-.5-5.29-1.13a4.37,4.37,0,0,1-.64-1.32l-.83-.28c-1.3.18-2,.89-3.11,1.23-2.21.67-5.59,1.17-7.79.42l-.39-.66c.09-2.27,3.13-5.74,5.52-5.75.7.29,1.24,1,2,1,1.22,0,1.6-1.21,3.19-.66,2.14,2.47,3.21.65,5.68,1.37,1.79.51,2,2.31,4.44,1.74,1.24-.85,1.88-2.32,3.22-3.06a2.44,2.44,0,0,1,1.58.61,7.34,7.34,0,0,1,.44,1.6,15.41,15.41,0,0,0,3.27,3.11l.28.8Zm12.81,11.21c-1,2.09-3.5.19-4.77-.33a18.59,18.59,0,0,1-3.13-1.13,2.19,2.19,0,0,1-.64-1.51c.63-1.38,2.84-.93,4.1-.89.84.64,1.75,1.92,2.69,2.26l.5-.1a2,2,0,0,1,1.31.85Zm-2.94-34.77L67,145.7c-1-.47-1-1.84-2.49-1.74-.69.53-1,1.47-1.61,1.88-1.87,1.25-3.42-.51-4.94-1.21-.85-.39-1.75-.43-2.43-1.1s-1.7-3.8-2.86-4c-.12-.57-1.49-1.72-1.52-2,.4-.64,2.46-1.31,3.21-1.27a3.9,3.9,0,0,0,.58,1.13c.44-.91,3.19-1.37,4.05-1.22,1.15,1,1.42,3,2.5,4.28h.19a2.65,2.65,0,0,0,.78-.75c-.11-.41.2-.8.33-1.18-.72-3.41.84-2.28,3.1-2.59,1.57-.21,3-.36,4.6-.47a4,4,0,0,0,2.25.8c1.56-.18,1.86-4.43,4.52-1.88.55.52.83,1.27,1.36,1.83a9.43,9.43,0,0,1,4.9,5l-.53.37a3.46,3.46,0,0,1-2.21-1c-3.8-.84-4.43,3.11-7.9,2.68a14.19,14.19,0,0,1-1.44-.47C70,143.58,69,145.16,67.61,145.75Zm3.88,2.73.45-.61c1.73-.3,3.72.09,5.43-.19.94-.15,1.08-1,1.72-1.46s6.26.36,7,.89l.06.8a34.14,34.14,0,0,1-6.82,5.7,6,6,0,0,0-1.74,0c-.72.56-.74,3.43-1.11,4.48l-.56.47-.8.1c-1.85-1.08-1.1-4.86-1.66-6.84A14.23,14.23,0,0,0,71.49,148.48Zm3.3,31.15-.47-.57a4.91,4.91,0,0,0,.27-1.74c-.25-.69-1-1-1.19-1.51a18.64,18.64,0,0,1,2.39-.42c2,0,9.49.78,10.39,2.87-.6.39-1.41.41-2.08.75-1.71.9-2.87,2.52-5.07,1.84-.39-.12-.68-.35-1.1-.44A15.68,15.68,0,0,1,74.79,179.63ZM105,185.94c-2.94.89-3.37-1.81-6.13-.33a1.81,1.81,0,0,1-1.22-.28l-.3.09a2.29,2.29,0,0,1-.58,1.37,41.43,41.43,0,0,1-5.71.42l-.23-.28c-1.85-.56-4-1.51-5.93-1.51-3.37,0-3.3,1.94-6.26-1.22a4.54,4.54,0,0,1-.81-.19c3.78-2.74,8.54-2,12.78-3.16,2.33-.62,4-2.27,6-2.88,4.79-1.45,3.93,1.37,6.93-3.72a2.62,2.62,0,0,1,1.44-.56c.9-.16,1.65-.13,2.58-.28a1.23,1.23,0,0,1,.72-.52c.3.18,1.73.83,1.8.89.22.2,2.72,2.84,2.83,3,.53.67.58,1.63,1.22,2.22l.5.14.33-.1.5.15.28.56c-.08.29-.15.57-.25.85a8.83,8.83,0,0,1-2.5,1.18l-.88-1h-.61C107.08,183.11,110.31,184.31,105,185.94ZM263.44,289.13c1.06.74,3.7,4.08,2.05,5.24-1.49.39-2.26,1.94-3.77,2.35l-.66-.52C260.88,295.29,263,289.61,263.44,289.13Zm-8.59-27.32-.91,0c-.67-1-.52-2.11-1.11-3.06-.47-.73-1.72-1.36-1.89-2.12l.75-.28c1,.28,1.92.21,2.88.56,1.49-1.38,3.17-.2,3.33,1.6C257.72,259.21,255.49,261.27,254.85,261.81Zm-2.63-36.62c1.44-1,2.36-3.13,3.52-4a3.09,3.09,0,0,1,.91,0l.59.52H257c.54,1,4.07,1,5.88,5,.87,1.89,1.17,8.53.22,10.41-1.09,2.17-3.2,4.77-3.16,7.36a2.43,2.43,0,0,1-1.16-.62c-.34-.72-.5-1.62-.86-2.31s-1.52-1.32-1.89-2.12a5.17,5.17,0,0,1-.16-2.15c.42-4.54,5.41-6.83,3.38-11.18-.41-.87-1.77-1.58-2.47-2.4l-.44.37a18.57,18.57,0,0,1,.27,5c-2.3,2.21-2,4.88-3.13,6.07l-.72.05c-.79-.77-1.82-1.09-2.19-2.21A45.6,45.6,0,0,0,252.22,225.19Zm-24.43-3.1.67-.38.5.19c1.32-1.18,1.13-2.7,3.24-3.26.05.21.34.29.47.43a7.32,7.32,0,0,1,1.33,1.84l-.08,1c-.56.61-1.79,1-2.13,1.61s-.22,1.74-1.06,2.21c-1.61.44-3.28-1.39-3.27-2.92Zm-10.55-18.2a2.27,2.27,0,0,1,.91-1.22l.78.09c.72.66.89,2.17,1.47,3s1.82,1.48,2,2.21a8.84,8.84,0,0,1,0,1,15,15,0,0,1-4.16,2.92,3.85,3.85,0,0,1-1-1A55.58,55.58,0,0,1,217.24,203.89ZM153,203.33c-.93-.12-1.72-.71-2.57-.8-1.17-.14-1.66.45-2.61.8h.11l-.11.14c-1.18.23-3.19.85-4.27.14-.61-.41-1.81-4.6-3.38-4.05l.22-.43c1.8-1.4,1.49.56,4.69-2.3a1.45,1.45,0,0,1,1.16-.43c1.48,1.21,6.56-1.63,8.68-1.79a2.87,2.87,0,0,1,.83,1.27c1.35.62,2.3,3.15,4.46,4.29a1.6,1.6,0,0,1,1,.24c.09.15.34.61.28.8C160.63,202.54,154.53,203.51,153,203.33Zm20.82,3.06a6.57,6.57,0,0,0-2,2.12c-1,.54-11.79-1.3-12.69-2.07l-.09-.52a6.41,6.41,0,0,1,.81-1.32c3.31-1.51,6-.25,8.78-.61,1.15-1.2,5.56-4.09,7.16-4,1.11.09,1.73.65,3,.58.93,0,1.9-.54,2.89-.63l.47.47A15.12,15.12,0,0,1,182,205C179.77,207.11,176.71,207.23,173.8,206.39ZM191,212.66c-1,.4-1.93.31-3,.94l-.91-.1c-1.93-2.74-.79-3.45-4.64-4.27a5.15,5.15,0,0,0-1.93-.39l.83-.38a8.6,8.6,0,0,1,4-3.39c.69-1.64.1-3.47,2-4.38.22.06.42-.12.61-.19a18.89,18.89,0,0,1,2.39-.38l.11-.19c1.59-1.06,4-3.62,4.82-4.1a1.62,1.62,0,0,1,.89.38l.08.33a2.71,2.71,0,0,1,.49.39c1.09,1.18,2.22,1.78,3.2,2.86.84,2.2-2.24,6.07-4.52,5.85l-.64.52c-.23,1.2.67,2.15.39,3.43S192,212.24,191,212.66Zm24.39,60.17c-.32.15-.49-.66-.56-.83a28,28,0,0,1-1.24-3.38c-.85-3.36-1.05-5.13-3.33-7.85.14-.59.08-1.24.19-1.84l.56-.42c.41-2.37-1.73-2.63-3-3.73a17.45,17.45,0,0,0-.7-1.65,17.74,17.74,0,0,0-2.07-1.08c-.84-.56-1.13-1.59-1.78-2.31s-1.66-1.13-2.22-1.84c-.75-1-3.35-18.71-2.88-20.17l.33-.33a5.73,5.73,0,0,0,.45-.84,5.34,5.34,0,0,0,2.77-2,17.06,17.06,0,0,1,2.47-.23,6.4,6.4,0,0,1,1.91-1.65h.19l.72-.05c.45.16.8.71,1.06,1.08a2.14,2.14,0,0,0-.17-.48c.54.72.56,2.89.89,3.74.54,1.4,2,1.92,3.08,2.82a10.51,10.51,0,0,0,.58,2.17c1.08,2,2.34,1.32,3.16,4.85a7,7,0,0,1,.36,2.36c-.28,2.12-2.25,3.49-2.63,5-.24.94.15,1.93.11,2.88-.71,1.29-2.57,1.78-3.88,2.26l-.45.61-.05.9c1,2.1,3.16,2.89,4.38,4.62s.78,3.22,1,5c.12.87.66,1.66.72,2.59a24.73,24.73,0,0,0,0,3.11c.21,1,1,1.72,1.36,2.64C216.87,269.2,215.61,272.45,215.35,272.83Zm7.51-34.77c-.24,1.29.21,2.77,0,4.14-.28,2.06-2.87,6.27-4.33,7.82a1.51,1.51,0,0,1-1,.14l-.58-.47-.31-1.36c.68-1.5.85-2.86,1.36-4.19.32-.86.92-1.64,1.2-2.47a6.59,6.59,0,0,0,.35-1.12c.14-1.15-.47-2.52-.47-3.72s.41-2-.25-3.06c-.47-.76-1.49-1.28-2.07-2a35.91,35.91,0,0,1-3.14-5.55c-.4-.8-.48-1.71-.94-2.5-.22-.36-.71-.72-.89-1.08-.49-1-.08-2.62-.78-3.72-.81-.52-1.5-.06-2.08.56l-.69.05c-1.18-.51-1.28-1.4-1.94-1.7-1.37-.27-1.46.58-2.58.8-.74.15-2.27-.14-2.85.24-1.67,1.09-.08,2.82-3.33,4.29a12.41,12.41,0,0,1-2.74,0l-.47-.33c-.91-1.49-.89-4.51-.86-6.26l.22-.33c-.22,0,.27-.77.36-.93.51-1.07,1.14-.92,1.83-1.57,2.1-.68,3,.43,4.58,1.55a1.56,1.56,0,0,0,1.13-.28,5.73,5.73,0,0,0,.34-.71c.56-2.58-.61-3.45-1-5.51a73.92,73.92,0,0,1,2.69-8.72l.61-.19,1,.29.17.33a14.11,14.11,0,0,1,1.94,1.93c2.91.16,4.7,5.06,5.49,5.33a4.33,4.33,0,0,0,1.63-.1c.74.3.81.45,1,1.15.55,1.6.51,3.56,1.23,5.21,1,2.35,4,7.66,4.57,9.62.18.69.12,1.5.36,2.21.49,1.46,1.77,2.06,2.55,3.25a21.37,21.37,0,0,1,2.08,4.24c.58,1.62.19,3.68.27,5.37a1.63,1.63,0,0,1-1,.9,14.18,14.18,0,0,1-2-2A1.25,1.25,0,0,0,222.86,238.06Zm10.2,29.26-.63.38-.81-.29c-3.42-4.5-.68-4-.3-7.73l-.23-.53a1.39,1.39,0,0,0-.24-.47c-.36-.57-.9-.89-1.28-1.44s-.6-1.52-1-2.08c-.85-1.2-3.08-.89-3.69-2.68a3.22,3.22,0,0,1,.42-1.75c.54-.68,1.57-1.23,2.16-1.93.83-1,1.39-2.21,2.14-3.25s1.78-2,2.56-3a6.82,6.82,0,0,0,.74-1.07c1.11-2.94-3.23-7-2-8.62l.64-.38a2.19,2.19,0,0,1,.86.61c1.41,1.72,1.7,4.34,3,6.27.68,1,1.77,1.73,2.33,2.92l.19.53c.22.66.15,1.4.37,2.06s.61,1.09.8,1.68l.17.54c.1,1.13-.54,2.24-.53,3.39a12.26,12.26,0,0,1,1.08,2c.33,1.15-.06,3.77.53,4.48a2.72,2.72,0,0,1,1,.94,2.57,2.57,0,0,1-.11,1.79c-1.56,1.5-2,.19-3.27.85C232.94,263.23,235,264,233.06,267.32Zm8,9.42c-1.53.07-2.33-2.46-3.11-3.44a18.16,18.16,0,0,0-1.61-1.55,3.31,3.31,0,0,1,.2-1.84c.81-1.12,2.5-1.21,3.68-.85.75,1.24,2.8,1.9,2.91,3.54C242.86,273.83,242.14,276.09,241.05,276.74Zm3.29-28.88c-.12-.61-1-3.76-.94-4l.31-.56c1.53-.73,2.72-.47,3.68-2.26a2.28,2.28,0,0,0-.93-2.39c-3.44-1.86-3.3.63-5.55,1a3.49,3.49,0,0,1-1.72-.24c-1.58-1.87-5.2-7.62-4.71-10.08a25.84,25.84,0,0,0,2.74-3.2c.66-1.47.46-3.35,1.72-4.53a2.37,2.37,0,0,1,1.5.24l.36.7c1.08.5,1.73,1.56,2.93,1.75,1.35.21,4.28-.06,5.3,1.18,1.7,2.07-3.71,7.42.33,13.28,2.4,1.47,4.55.37,5.18,3.76a3.39,3.39,0,0,1-.19,2.18,4.47,4.47,0,0,1-1.33.66c-.74,2-1.88,1.74-2.41,2.69-.64,1.12-.32,2.71-1.34,3.53l-.35.28a2.32,2.32,0,0,1-2-.47c-.46-.71-.5-1.6-1-2.3S244.83,248.32,244.34,247.86Zm16.22,105.36-.64.43-.58,0c-.69-.39-1-1-1.8-1.32-1-.35-2.27-.09-3.05-.85-1.34-1.29-2-3.37-3.38-4.81-.67-.7-1.68-1-2.3-1.69-1.74-1.88-3.27-5.84-2.67-8.39a11.62,11.62,0,0,0,.5-1.51,9.36,9.36,0,0,1,.48-2.73l.38.28c-.1,2.24,1.76,2.69,1.78,3.58.35.07.52.49.75.71,2.88,2.84,1.91,2.72,3.52,5.89.44.87,1.5,1.16,1.86,2.12.76,2.11.59,3.7,2,5.61.57.74,2.47,1.46,3.24,2.21Zm7.48-5.75-.8-.28a2.07,2.07,0,0,0-1.61-1.13l-.5.28c-.76,1.19.44,3-2,3.91l-.61-.05a7.94,7.94,0,0,1-.83-1.08c-1.26-1.52-3.52-3.07-2.35-5.28l.52-.23a3.41,3.41,0,0,1,3.13-1.75l.28.29c1.54,0,2.55,2.88,4,3.39a12.67,12.67,0,0,0,1.35-.47l.64.42C270.27,346.61,268.61,347.08,268,347.47ZM309.43,359a2.48,2.48,0,0,1-1.25.7c-1.52-.5-2.7-2.78-4.23-3.23-2.41-.71-4.17,1-6,1a11.69,11.69,0,0,1-1.86-.33c-1-.4-1.44-1.26-2.25-1.88s-3.44-1.31-3.24-2.69a1.94,1.94,0,0,1,1-1l-.06-.66c-.79-.8-2.57-1.95-1.55-3.34,1.26-1,1.9-.46,2.89.38,2.05,1.74,3.36-.45,4.76.37,1,1.15,1.6,2.83,3.3,3l.53-.42.14-.61.33-.33.69-.05c.46.27.61.64.95.94.56.51,1.25.58,1.8,1.18s.68,1.25,1.19,1.79c.68.17,1.61.32,2,.94C308.77,355.58,309.65,358.2,309.43,359Zm3.36-6.85c-2.11.69-1.91-1.18-2.81-2.34-.36-.47-.89-.5-1.33-.8a17.29,17.29,0,0,1-1.85-2.36c-.53-.11-1.11.05-1.58,0-1.66-.32-2-3.47-3.63-3.73a11.11,11.11,0,0,0-1.81.1c-1-.51-1.48-1.44-2.24-2.22-.53-.53-1.21-.83-1.72-1.36-.69-.73-1-1.73-1.72-2.45-1.23-1.3-5-3.15-6.73-3.91a14,14,0,0,0-2.4-.49,1.7,1.7,0,0,1-.85-.55c-.31-1.39.49-2.61-.19-4.1-.55-1.19-1.82-2.11-2.41-3.39-.32-.69-.48-1.41-.86-2.08l-.78-.05a16.15,16.15,0,0,1-1.8,1l-.67-.38c-.5-5.08-6.44-5.42-9.75-7.3a22.26,22.26,0,0,1-4.41-4.66c.1-1.51,1.11-2.19,1.25-3.44-.15-.57-.71-1.41-.67-1.94l.67-1.08a4.61,4.61,0,0,1-.83-2.26l.52-.52a11.54,11.54,0,0,0,1.36.8,14.82,14.82,0,0,0,1.61-.33c.46.42.93.85,1.44,1.23a11.27,11.27,0,0,0,1.88,3.34c1.52,5.3,2.47,2.27,4.82,3,1.21.36,2.39,2.15,3.66,2.73,1.65.76,3.24,0,4.58,1.61,1.08.18,2.3-.27,3.41,0,4.74,1.37,10,10.21,12.17,14.42.79,1.54,1.13,3.49,2.24,4.86.86,1.06,2.58,1.55,3.6,2.64s2.56,3.4,3.69,4.8c.82,1,1,2.15,2.05,3.06.87.74,1.69.78,2.28,2,0,.09,1.11,4.81,1.13,5.09A2.31,2.31,0,0,1,312.79,352.17Zm3.35-34.29c-.84,2.77-.26,5.3-2.06,7.78a3.73,3.73,0,0,1-1.52.23c-1.89-1.22-4.13-2.41-5.43-4.24-.22-1.56.52-2.37-.5-4,.1-1,2.36-1.83,3.19-2.64,1.61-1.57,1.06-4.55,2.9-5.46,1.31-.65,2.84,1.36,3.78,1.08l.22-.61c-.25-.71-.26-1.44-.44-2.17l.77-.8c1.12-.33,2.33.06,3.47-.47s1.92-1.53,3.18-1.13l.47.38a1.59,1.59,0,0,0-.22.61l-.64.42,0,.19c-.55.69-1.37,1.17-1.94,1.84A26.75,26.75,0,0,0,316.14,317.88ZM222.67,440.21a3.67,3.67,0,0,1,2.72-1c2.18,1-.49,5-1.09,6.41a44,44,0,0,1-4.87,2.16l-.59-.14-.14-.42C218.85,446.3,221.6,439.91,222.67,440.21ZM83.47,326.69a14.69,14.69,0,0,1,2.27-1.6c1-1.81-.38-2.94,2.19-4.34l.19.05c.5.53.2.66.67.66a7.65,7.65,0,0,1,1.57,1.74c1.62,3-1,3.12-2.15,4.86-.8,1.21-.63,3.09-1.7,4.19a1.53,1.53,0,0,1-1.58-.37c-.67-1.35-.12-2.49-1.55-3.63A3.29,3.29,0,0,1,83.47,326.69ZM17.08,273.35l-.5.33a7.28,7.28,0,0,1-2.41-.33c-.76-1.38.25-3.18-1.25-4.43-.42-1.27,1.16-3.3,2.44-3.44l0,0,.27-.2a4.62,4.62,0,0,1,2.71,1.19c2.27,1.92,1.54,2.61-.08,4.24C17.59,271.37,17.47,272.48,17.08,273.35ZM78.56,329c-.15,1.55-.1,4.76-1.67,5.61-.48.26-1,.3-1.52.51-.88.39-1.58,1.18-2.52,1.51-2.52.9-4.21-3.18-5.88-4.05-2.31-1.2-2.63.88-5.93-1.36a5.87,5.87,0,0,1-1.25-.85c-1.14-1.4-1.47-3.22-2.71-4.67-1.09-1.26-2.52-1.62-3.61-2.68-2.39-2.36-2.29-3.72-3.79-5.47-2.07-2.41-4.89-3.21-5.09-6.94a2.84,2.84,0,0,1,.71-2.3,1.51,1.51,0,0,1,1.11.38,10.43,10.43,0,0,0,2.18,3.11,1,1,0,0,0,.42-.23c.5-2.21.2-2,1.83-3.68,1.42-.4,2.79,0,4.24-.19a2.53,2.53,0,0,0,.53-2.87l-.61-.48c-1.27,0-2.43.78-3.66.71-1.46-.48-1.71-2.87-3.55-3.81-1-.53-4-.79-4.49-1.18,1.16-1.31,1.2-2.74,2.69-4.29,1.17.24,2.56,2.08,4,.61.63-.52,1.29-1.23,2-1.79a56.38,56.38,0,0,1,6.13-2.78c.77-.21,1.34,0,1.94-.71a2,2,0,0,1,1.17-1.46c.19.08,1.87-.8,2.94-.42.74.53,1.6,3.71,3.21,4.95,1.3.15,2.19-1.25,3.38-1.56,1.16,0,2.14,2,2,3-.81,4.4,2.92,8.65,3.93,12.76.86,3.52-.71,8.16-.22,12,.28,2.21,2.11,4,2.38,5.84A12.42,12.42,0,0,1,78.56,329Zm49.73,61.87a2.66,2.66,0,0,1-.87-.31c-1.1-.68-2.6-.94-3.6-1.52a4.93,4.93,0,0,1,.45-1l-.09-.67c-1.31-1-3.79-1.39-4.38.62l-.72.09c-.62-.39-.88-1.08-1.41-1.51-1.57-1.26-1.91-.9-3.55-2.73l0-.66a3,3,0,0,1,1.27-.05l.22-.33c.55-2.07-2.39-4.92-.38-8.38-.1-1.42-.8-2.67-.73-4.15a1.5,1.5,0,0,0,.53-.71l.75-.33a4.77,4.77,0,0,1,1.08.43c3.67,1.7,6.08-4.78,7.85-2h.19c1.4.81,5,7.09,5.16,8.81.12,1.32-.6,2.14-.78,3.39,0,.31.68,5.71.81,6a2.53,2.53,0,0,0,1.35.94C133.18,388.62,130.08,391,128.29,390.87Zm13.08,10.7c-2.06.91-1.41,3.48-1.75,5.27-.08.15-.66.32-.83.38a21.26,21.26,0,0,0-2-.66c-.56-.7-.45-1.64-.67-2.45-.35-1.36-1.61-3.62-1.74-4.85a3.83,3.83,0,0,1,.72-2.41,4.77,4.77,0,0,0,1.11-.23l-.22.09c0,.08.21.08.22,0a11.7,11.7,0,0,1,2.44.47C139.68,397.75,142.14,400.25,141.37,401.57Zm4.91,2.92-.73.05-.36-.76a2.28,2.28,0,0,0-1.52-3l-.17-.48c.79-1.16-.74-3.51-.44-5l.64-.85a10.61,10.61,0,0,1,2.83-.56c.62-.41.93-1.14,1.63-1.42l1.08.38.11-.15c1,.92,2.41.66,3.52,1.28s1.9,2.06,2.83,2.87c-.27,2.15.92,3.74,1,5.75,0,.23-.41,1.64-.47,2a10.16,10.16,0,0,1-.42,2.21c-.18.42-.64.81-.86,1.22-.34.67-.31,1.51-.83,2.08l-.39.14c-.72-.15-1.06-.86-1.52-1.37a12.26,12.26,0,0,1-2.25-.18,3.5,3.5,0,0,1-.77-.9c-.09-1.31.61-2.35.88-3.58a10.49,10.49,0,0,1-.77-2.4c0-1.52,1-3.46-.83-4.53l-.81,0C146.78,399.56,149,402.36,146.28,404.49ZM371.1,841.72l.8.79-1.84-.27Zm-3,2,.93-1,1.4.9L368.59,845l-1.4,0Zm-3.49,0-1.22.37-.2-.42Zm-4.1-1.31,1.35.26-2.22.63-.38-.68Zm-1.76,4.06.94,1.17-1.05.22Zm1.49,2,1-1.34,1.3.06-1.12,2.65-1.4,1.16-1.33-.49-.3-1.32Zm-4.59-7.63,1.44.52-2.45,1-.15-.6Zm-1.77,8.77-.11,2.24-1.14-.45.4-1.11-.64-1.56Zm-26.14-10,1.41.92-1.89-.91Zm-3.33-3.47.68,2.4.24,1.32L324,839l-.12-1.84Zm6.3-41.85.09,1-.65,1.23v-2.08ZM339,736.43l1.31,1.37-.3.19-1.21-.14Zm-22.67,2.13-.72.41-1.19-.1ZM417.92,476.11l.66.19-.11-.14.08.09a2.31,2.31,0,0,1,1,.48l-.12-.66c2,3-.75,5.63-3,7.21l-.42,0c.05-1.29.65-2.83-.85-3.54-.46-.21-.92-.17-1.36-.51l0-.52C415,477.89,416.6,476.53,417.92,476.11Zm-17.8-12.39c1-1.6,1.1-1.2,2.89-1.37.63.11,1.13-.12,1.74.1.86.3,4.47,1.68,5.1,1.74,1,.1,1.95-.65,2.84,0l.13.1a3.77,3.77,0,0,1,.41,1.83,7.11,7.11,0,0,0-2.32.95,2.92,2.92,0,0,0-.36,1.5c-.23.33-10.17,1.91-10.54-4.75Zm-6.9-8.43a14.88,14.88,0,0,0,.47-2.26l.72-.29a3.4,3.4,0,0,0,1,.1c1.78,2.07,4.92,1.51,1.8,5.46a13.47,13.47,0,0,0-.11,1.56l-.33.33a1.64,1.64,0,0,1-1-.14,17.05,17.05,0,0,0-4.52-2.55,2.23,2.23,0,0,1-1-.56l.16-1,.43-.22.21-.11s.16,0,.2,0l-.09-.1s.18,0,.09.1C391.88,455.51,392.69,455.8,393.22,455.29Zm-2.5,19.27a4,4,0,0,1,1.5,4.9l-.69-.19c-.4-1.56-3.77-2.51-1.86-4.71Zm0-109.27c-.24,1.48-1,2.79-1.36,4.28a19.41,19.41,0,0,0-.16,2.5c-.18,1.94-3.06,5.3-4.91,5.8-.36.09-.8,0-1.19.14-.36-.27-.6-.76-.91-1-.63-.45-1.34-.56-1.89-1.23-1.1-1.31,0-5,.14-6.73,0,.09.17,0,.19-.05,1.11-1.55,2.08-1.18,3.58-2,.71-.38,1.18-2.17,1.94-2.78.32-.26,3.29-.6,4.07-.94a1.85,1.85,0,0,1,.7,1Zm-1.05-23.05.69-.09.67.47c.1.35.4.55.53.85a9.46,9.46,0,0,1,.33,4.57,2,2,0,0,1-1.19.85C389.36,348.08,388.85,343.43,389.7,342.24ZM377,354a3,3,0,0,0,1.27-1.64c-.16-.62-.76-.89-.86-1.61.59-1.6.49-2.84,1.53-4.29.86-.39,1.94-.21,2.77-.7,1.13-.67,3.69-2.71,5-.85.37.9-.33,1.89,0,2.78a2.7,2.7,0,0,0,1.25.66c.37.8,1,1.45,1.33,2.26.64,1.65,1.41,6.33.56,7.78a3.64,3.64,0,0,1-1.94,1.52c-1.23.64-1.53,1.15-3.05.83l-.25-.8c.47-.77,1-1.54,1.57-2.26a1.87,1.87,0,0,0-.8-1.27c-.76.15-1.28.75-2.05.89l-.78-.42a4.85,4.85,0,0,0-.77-1.27l-.53.28c-.49,2.18-.34,3.34-2.77,4l-.53-.48c.08-.76.5-1.53.5-2.26a4.36,4.36,0,0,0-1.33-1.27A2,2,0,0,1,377,354Zm-2.36,13.29c.62-.23,1.58-1.51,2-1.51l.14-.28a2,2,0,0,1,1.89-.14l.27.33a2.3,2.3,0,0,1-.58,2.31,7.64,7.64,0,0,1-2.94.33,16.74,16.74,0,0,0-1.49,1C374.05,368.61,374.44,368,374.62,367.31Zm-23.53,44.2c-1.21.17-3.87-1.94-5.07-2.5-2-.95-5.38-.89-6.74-2.59A8,8,0,0,1,338,403a7.25,7.25,0,0,1-.12-1.46c0-.09.16,0,.07-.14,1.69-2.48,2-1.29,4.39-2a2.78,2.78,0,0,1,.78,1.41,10.87,10.87,0,0,0,1.33.8c.3.22.48.68.72.95,1,1.1,3.91,2.48,5.32,3,.91.34,2.52.51,3.22,1.13a2.39,2.39,0,0,1,0,3.4C353,410.71,351.84,410.91,351.09,411.51Zm8.7,30.68-.5,0c-2-2-1.88-4.68-3.32-6.83-.84-1.25-3-2.5-3.47-3.86,0-.86.32-2.4,1.31-2.64a11.61,11.61,0,0,1,1.74.37l.33.71h.23c1.68,1.19.82,3.13,3.24,5.09C359.91,436.18,360.38,441,359.79,442.19Zm23.56,28.6c-.88,0-1.34-.67-2.08-.94a11.32,11.32,0,0,0-2.41-.38,3,3,0,0,0-1.8-1.37l-.31.52c.65,1.59,4.76,5,2.61,6.55-.52.25-4.63,2.08-4.8,2.08a3.31,3.31,0,0,1-1.33-.62c-2.67-1.3-3-1.73-3.74-4.66a3.29,3.29,0,0,1-1.22-.9c-.69-1.22.35-2.27.56-3.39a9.74,9.74,0,0,0-.28-2.78,1.93,1.93,0,0,1,1.05-.94l.28-.71c-1.35-2.89-3.74-2.47-3.63-6.55a4.46,4.46,0,0,1,.25-1.84c.56-1.4,1.58-1.16,1.94-2-.05-.88-3.08-3.06-3.8-4.62-1.06-2.3-.73-6.76-.83-9.38l.27-.05c1.37,2.12,2.31,5.52,5.44,5.18.26.19,3.72,4.34,3.8,4.57.19.59.08,1.14.47,1.7s1.41.77,2.08,1.18a15.69,15.69,0,0,1,3.66,4.62c-3.61.81-3.15-3.5-5.71-2.69l-.53.52c-.6,2,4.55,5.86,5.82,7.3.57.65,1.05,2,1.69,2.41a22.14,22.14,0,0,1,2.19,1C385,466.11,386.52,469.57,383.35,470.79Zm1-17.43c-.76-.4-1.79-3.92-3.22-5.19-.53-.48-1.24-.82-1.8-1.27a56.59,56.59,0,0,0-4.82-4c-1.29-.82-3.36-1.54-4.44-2.54-3-2.77-6.4-8.61-8.81-12.06-1-1.43-2.59-2.24-3.69-3.58-.12-.9.23-1.65-.08-2.55-.75-2.17-4.93-6.43-3.71-8.71l.64-.43a2.28,2.28,0,0,1,1.44.71c1.51,4,1.93,4.4,4.15,7.91a17,17,0,0,1,.89,2.17,28,28,0,0,0,3.85,6.5c.87,1.07,2.45,1.81,3.44,2.88,2,2.19,3.42,4.82,5.9,6.64a22.74,22.74,0,0,0,6.35,3.3,13.44,13.44,0,0,1,3.08,1.09c.88.54,1.63,1.35,2.55,1.83,1.47.77,3.17.55,4.07,2.17,0,1.19,1.33,3.94-.47,4.48-.55,0-1.14-.27-1.66-.29C386.83,452.38,385.64,453.83,384.38,453.36Zm8.34,44c-.6-.17-2.78-4.21-3.05-4.95a24.23,24.23,0,0,0-.91-3.2c-.21-.37-.69-.66-.92-1.09,1.68-.05,1.52.87,2.11,1,.51.67.82,1.7,1.27,2.45,1.06,1.73,2.49,2.46,2.55,4.81A2.24,2.24,0,0,1,392.72,497.32Zm9.26-23.8a1.84,1.84,0,0,1-1.22.33c-.5-.32-1.3-.51-1.69-.94a16.55,16.55,0,0,1-2.33.38c-2.84-.34-6-7.53-5.85-10.09L391,463l-.08-.15,0,.24c0-.16,0-.6-.14-.71l0-.42a1.94,1.94,0,0,0,.47-.85c.56-.18,1.09.29,1.58.09.79.34,2.25,1.19,1.86,2.27a10.48,10.48,0,0,1,1.57,4.17,2,2,0,0,0,.48,1c1.36,1.48,5.46,1.27,5.62,3.72A2.66,2.66,0,0,1,402,473.52Zm21.7,45.19a23.25,23.25,0,0,0-2.33-.23,2.43,2.43,0,0,1-1.94,1,25.74,25.74,0,0,1-3.82-2.5c-.73-1-.49-2.57-1.77-3.35-.75,0-1.21.76-1.83,1.09h-.81c-5-2.8-4.89-3.82-6.4-9-.39-1.32-1.23-2.37-1.36-3.81-.1-1.07.56-1.69.53-2.64,0-1.12-.72-1.88-.64-3.21,0-.69.89-1,1.22-1.5.57-.89.51-2.24,1.52-2.83.83-.34,3.37.37,4.16.8.59,1.06.52,2.44,1.08,3.39.71,1.21,2.09,1.13,3,2.08s1.26,2.37,2.3,2.82a9.89,9.89,0,0,0,1.75.38c1.21,1.14.29,3.88,2.35,4.71a2.69,2.69,0,0,1,1.39-.33l.44.61c.46,2.43-2.16,2.72-3.88,3l-.36.75c.22,1.25,1.06,1.62,1.44,2.69.46,1.29.08,2.68,1.22,3.77.75.72,2,.74,2.85,1.41Zm-1.05-15.31c-.73-.31-1.09-1.28-1.42-1.94-.57-1.12-1.41-2-1.66-3.29a7.62,7.62,0,0,1,2.78-1.37c.31.22.7.14,1,.33,2.28,1.36,1.65,2.19,4.8,1.65l.66.42a18.45,18.45,0,0,0-2,1.42,7.63,7.63,0,0,0-1.17,2.07C425.22,503.51,423.38,503.72,422.63,503.4Zm9,63-2.07.54,2-1.34,1.17.8ZM437.51,524c-1.72.79-4-2.12-5.29.18l-.72.24-.53-.52a3.52,3.52,0,0,1,.69-2.45l-.11-.89c-1.56-1.54-3.81-1.28-5.1-2.31-.49-1.22-.44-6.75.36-7.83.46-.6,1.34-.67,1.72-1.36,0-1.65-1.2-2.9-.28-4.67l.7-.23.14-.14c1-.91,1.74-2.56,2.74-3.68l.56.33.35.66c-.36,1.79.95,2.9,1.06,4.57.12,1.93-1,3.43-1.14,5.28.48,1.32,1.34,2,1.36,3.58,0,.92-.43,1.91.06,2.78a8.31,8.31,0,0,0,1.11.75,3,3,0,0,0,.69-.23,8.74,8.74,0,0,1,1.61-2.5,6,6,0,0,1,.76,3C438.29,519.82,438.85,523.42,437.51,524Zm.23-10.46c-1-.82-2.09-3.36-1.64-4.62a2.68,2.68,0,0,1,3.47-.19c.1.51.16,1,.22,1.55C439.17,511.54,438,512.06,437.74,513.58Zm.55-8.58-.55-.28c-.86-1.12-2.17-6.08-.83-7.07l.8-.24a9.64,9.64,0,0,1,2.44,1.51L440,499C443.33,500.33,441.13,505.31,438.29,505Zm3.55-16.54a4,4,0,0,1-1.41-.71,13.92,13.92,0,0,0-1.33,5.19,5.14,5.14,0,0,1-1,1.08l-1-.09a11.53,11.53,0,0,1-2.19-3,18.88,18.88,0,0,1-2-3.2c-.78-2.21-.32-7.08-2.92-8.16h-.88l-.45.62c0,2,.42,3.93.45,6.22a5,5,0,0,0,.11.94c.54,2.6,4.45,5.19,3.71,8.1-.83,1.38-1.32,1.18-2.75,1.36-6,.72-4.46-3.85-5.06-5.27-.49-1.14-2-1.81-3.08-2.26l-.53.52a15.67,15.67,0,0,1,.31,4.52l-.44.57c-1.8.36-2.45-1.18-3-2.5-1.36-3.47,1.06-5.56,3.38-7.78.7-.67,1.24-1.55,1.94-2.21a5.62,5.62,0,0,0,1.08-1c.95-1.44.17-4.2,2.66-4.71a11.66,11.66,0,0,0,3.74.09c1.07.73,2.47.71,3.6,1.61,1.79,1.41,2.07,3,4.47,3.95a3,3,0,0,1,1.58,0,18.21,18.21,0,0,0,3,2.3C444.55,485.79,443.23,488.34,441.84,488.46Zm.72,192.48-.52,1.12-.59.51-.05-1.21Zm-1.71,2.55,1.1-.39.35.72L440.43,685ZM434.3,707l-1.67-2.66,0-1.28-1.09-.59.24-1.26-.84-2,1.35,0,.89,1.85.8,1.44-.42-1.54.47,1,.2.94.12.22,0,.18.32,1.51-.36-1.3-.19.94Zm3.35-14.6-1,3.1.25.66,1.16,1.09,1.37,3.13.22,1.22-.32,1.47-.89,2.32-2.67,2.35.4-1.34-.57-1.57L435,702l-.47-1-2.34-2.82-.66-1.84.64-2.33,1.06-3.84,2.1.75.27-1.43,1.25-.5,2.85-.78-1.24,1.61-1.26.86Zm18.19,18.46-1.49,1.35-1,1.51-.43-1.08-1.54-.73-2-3,1.43-1.14.09-1.59,1.14-1.38,1.19-.64,1.53.2,1.24,1.19.34,4ZM458.1,703l-2.89.54-1.48-1.34-.81.17,1.29,1.17-2.65-1.09.81-.17-1.18-1.08,1.45-1.48.91-2.05,1.08.4,1.76-.36.77.68.31,1.56,1.85.17.16,1.8Zm5.46-3.58-1.4-.27-3.55-4.94-1.34-3.42,1.07.26,1.44,1.71,1.1-.34.81,1.69,1.28.95.08,1.17,1.11.33.22,1.32ZM474.86,548l.85-2.07,1,.41,3.47,1.76,1.64,1.08-.05,3-1.91.22L478.5,551l-1.65,1.5,1.23,2-1.89,2.6-1.63-1.49.39,1.71-.88,1.64.27,1.07,1,1.62.91,2.14.74,1,.57,1.25,2.19,2.12,1.49,1.18,2.09,2.39,2.87,5.15-.54,1-1.16-.48-1.26-1-1.45-3.22-1.2-1.18L479,570.41l-1-.34-3.66-3.1L473,568l-1.66-1.78-.39-1.81-1.69-3.86-.43-1.65.34-1.1-.43-2.15.29-3.81-.13-1.17.88-1.81,1.74-.69,1.34.27Zm-22.17-32.44-.11,1.64-1.37-.7,0-.5ZM447.44,493l-.17-.42.28-.71a5.16,5.16,0,0,0,.47-.94,9,9,0,0,1,3.16.94,2,2,0,0,1,.19,2.26C451.25,494.11,447.73,493.09,447.44,493Zm12.69,10.61a18.91,18.91,0,0,1,0,2.26,1.39,1.39,0,0,1-.36.7l-.39.19a1.43,1.43,0,0,1-.63-.85,7.11,7.11,0,0,0-.75-.33,13.31,13.31,0,0,1-2.3,1.45c-.79.47-1.43.72-2.25.11-2.51-1.89.22-3.87.22-5.8a17.87,17.87,0,0,0-.66-2.4,2.75,2.75,0,0,1,.86-1.93,2.08,2.08,0,0,1,1,.52,21.1,21.1,0,0,0,1.28,3.34C457.08,502,459.75,502.63,460.13,503.59Zm-13.8-30.12a3.38,3.38,0,0,0,.64-.56,2.18,2.18,0,0,1,1.49,0,7.34,7.34,0,0,0,.42.71c2.06,2.84,1.74,5.39,3.55,7.72,1.4,1.82,4.22,2.19,4.43,5.28v.25a1.4,1.4,0,0,1-.23,1l-.42.28c-3.07.39-4.86-6.9-6.29-8.67-.83-1-2.38-1.27-3.05-2.45A8.53,8.53,0,0,1,446.33,473.47Zm.27,21.4.09-.1.3-.09c.43,0,2.59,3.29,3.1,3.75.22.2.15.09.23.32l.11.31c.14.71-.63,5-1.08,5.38-1,.28-1.88.93-2.75,1.17-.51-.76-.27-2-.49-2.92-.29-1.15-1.27-1.89-1.64-3C444.94,497.61,444.65,496.43,446.6,494.87Zm9.1,87.32-.48,1.78-2.06-.14-2.46-1.55-1.17-1.38-.9-2.44-.69-3.22,1.94-1.87.89,3.25.5,3.45.91,1.41.65,1.34.63-1.07L452.6,578l1.14.58-1.13-1.55-.3-1.57-2.17-3.23-1.3,1.24.51-1.29,1.53-.81,3-.3-.4.91,0,1.25.85,4.68-.07,1.23,1.46,2Zm16.36,65.43-1.77-1.22-1-1.42-2-.73-1.28.29-.71-1.26.24-4.25-.21-2.61-.27-3,1.66.39.55-1.72-.25-1.48L467,629l.21-1.93,1.68-1.13.36,1.32.34,1.66-.61,1.28,1.44-1.31.49-1.2,1.75.41.29,2.27-.32,2.71.63,2-1.5.94,1.84,2.19.35,1.32-.08,1.28-1.54-.7-1.59,1,1.14.26h1.5l-.13,1.12.18,1.19-.59,1.09,2.06.49v1.15l-1.85,1.13Zm3.15,4-.21,1.26-.42,1.31-1.33-.59-.3-2,1.42-.13Zm4.52,11.82-.76,1.46.62,1.55-.17,1.38,0,2.62.8,1.63,1.26.55,2.85.62,1.28,1.93-2.4.22-1.78,1.37L479.27,678l-2.22,3.51-1-1.24.83-2,.81-1.3,2-2.52-.05-1.28-1.42-.94L477.08,674l1.28.28-.54,1.31-2.1-.73-.75,1.13-.73,2.94-.27,2.44.49,1.48-1.43.77-1.88-1-.48-.77-.36-1.32.11-1.35.64-1.72.35-1.78-.67-1.23,0-1.31.55-2.09.67-1.42-.21-1.16.17-2.3.82-3.21.85-1.07,1.27-1.32.49-3.13.75-1.63,2.23,2.07-.95,1.64.88,1.38Zm7.17-71.3L486,594.9l-1.21,2.39-.32,2.21-1,.23-.84-1.59.46-1.13-1.47,0-.67,1.55-2.14-1.19-1.15-2.24.44-1.85-.69-2.4-1.76-2.3-1-1.54-1.46.23-1.79.76L469,590.16h-1.23l-.42-1.25.65-2.19-.59-1.29-3.26-.82-.49-1.07-1.8-2.39,1-2.64-.46-1.34-1.19-2.22.1-1.13.91-3,.18-2.61-.2-2.31L461,562.55l-1.2-.61-2.47-.24-1.77,1.1-1.1-.84-.47-2-.6-1-1.07-.9L449,556l-1.33-1.51-1.84-2,.86-2.32,1.09-2.9,2.41-4.22.21-1.6,3.36-5.39,1.32-2.71.64-1.67.34-2,0-3,1.52-.1,1.35-.3-.08,1.17,1.18-.36,1.55-1.91,1.24,1.08.93,2,.53,2.45-.81,1.91-1.55,1.1,1.35-.43,2,.91,4,3.26,1.67,1.45.8,1.21.12,1.61-1,1.2-2.26,1.46-2.28,1.07-.36-2-1.7-1.27-1.78-.25-1.68.47-.84,1.2.13,1.37-.67,1.41-1.21-.51-.43-1.24,1.17-.13-.46-1.48-2.42,2.41,1.27,1-.24,2.48-1.31,1.33-1.44.06-1.07.7-2.71.7-1.34.13.63,1.11.7,1.17,1.57,0,1.75-1,1.37-.37,1.07.1,1.91.28,1.37-.26,2.17,2.08.33,2,1.23.85.69,3,1.43,3.09.42,2.85.63,1.81-.77,1.13-.34,2.15.69,1,.6,1.61,1,1.31-.21,2.41,1.06,1.37.13,2.18-.34,2,1.09-.31.88-1.12.58-3.18-.16-1.44-.13-1.17.31-1.77-.22-3.28,2.27,0,1.2,2,1.62,1.51,1,2,.83,1.11,1.39,1.15,1,.07,1.9,1.08,2.3.45.36,1.08.58,3.42.23,1.05.93,1,.51,1.14.17,1.63Zm3.51-8.34,0-2,1,.64.92,1.69Z" fill="#fff" stroke="#000" stroke-miterlimit="10" stroke-width="0.25"/></g><g id="Layer_7" data-name="Layer 7"><rect x="398.53" y="494.37" width="47.33" height="22.84" fill="#fff" opacity="0.9"/><text transform="translate(525.67 523.73)" font-size="9" fill="#1d6b67" font-family="Helvetica-Bold, Helvetica" font-weight="700">NORTHERN <tspan x="-7.5" y="10.8">LUSHOOTSEED</tspan></text><text transform="translate(155.03 272.84)" font-size="9" fill="#4e5f16" font-family="Helvetica-Bold, Helvetica" font-weight="700">ISLAND<tspan x="-0.25" y="10.8">COMOX</tspan></text><text transform="translate(225.07 92.07)" font-size="9" fill="#185823" font-family="Helvetica-Bold, Helvetica" font-weight="700">HOMALCO</text><text transform="translate(271.94 187.24)" font-size="9" fill="#4c4a6a" font-family="Helvetica-Bold, Helvetica" font-weight="700">KLAHOOSE</text><text transform="translate(190.21 336.08)" font-size="9" fill="#584339" font-family="Helvetica-Bold, Helvetica" font-weight="700">PENTLATCH</text><text transform="translate(511.44 690.78)" font-size="9" fill="#5b6826" font-family="Helvetica-Bold, Helvetica" font-weight="700">SOUTHERN<tspan x="-9" y="10.8">LUSHOOTSEED</tspan></text><text transform="translate(411.92 752.79)" font-size="9" fill="#1f2f49" font-family="Helvetica-Bold, Helvetica" font-weight="700">UPPER<tspan x="-7.5" y="10.8">CHEHALIS</tspan></text><text transform="translate(437.28 826.08)" font-size="9" fill="#835549" font-family="Helvetica-Bold, Helvetica" font-weight="700">COWLITZ</text><text transform="translate(260.52 274.68)" font-size="9" fill="#85570c" font-family="Helvetica-Bold, Helvetica" font-weight="700">SLIAMMON</text><text transform="translate(339.39 305.35)" font-size="9" fill="#ce5134" font-family="Helvetica-Bold, Helvetica" font-weight="700">SECHELT</text><text transform="translate(304.4 434.93)" font-size="9" fill="#384d66" font-family="Helvetica-Bold, Helvetica" font-weight="700">ISLAND<tspan x="-18.25" y="10.8">HALKOMELEMT</tspan></text><text transform="translate(394.6 504)" font-size="9" fill="#a23422" font-family="Helvetica-Bold, Helvetica" font-weight="700">NORTHERN<tspan x="6.25" y="10.8">STRAITS</tspan></text><text transform="translate(369.06 588.04)" font-size="9" fill="#723c60" font-family="Helvetica-Bold, Helvetica" font-weight="700">KLALLAM</text><text transform="translate(382.6 651.43)" font-size="9" fill="#885419" font-family="Helvetica-Bold, Helvetica" font-weight="700">TWANA</text><text transform="translate(295.47 644.18)" font-size="9" fill="#294218" font-family="Helvetica-Bold, Helvetica" font-weight="700">QUINAULT</text><text transform="translate(265.27 578.77)" opacity="0.5" font-size="9" fill="#7f7f7f" font-family="Helvetica-Bold, Helvetica" font-weight="700">MAKAH</text><text transform="translate(163.82 388.69)" opacity="0.5" font-size="9" fill="#7f7f7f" font-family="Helvetica-Bold, Helvetica" font-weight="700">NUU-CHAH-NULTH</text><text transform="translate(245.31 474.92)" opacity="0.5" font-size="9" fill="#7f7f7f" font-family="Helvetica-Bold, Helvetica" font-weight="700">NITINAHT</text><text transform="translate(20.54 218.64)" opacity="0.5" font-size="9" fill="#7f7f7f" font-family="Helvetica-Bold, Helvetica" font-weight="700">KWAK&apos;WALA</text><text transform="translate(39.26 62.78)" opacity="0.5" font-size="9" fill="#7f7f7f" font-family="Helvetica-Bold, Helvetica" font-weight="700">KWAK&apos;WALA</text><text transform="translate(624.95 385.07)" opacity="0.5" font-size="9" fill="#7f7f7f" font-family="Helvetica-Bold, Helvetica" font-weight="700">NLAKA&apos;PAMUCTSIN<tspan x="14.24" y="10.8">(THOMPSON)</tspan></text><text transform="translate(634.32 664.51)" opacity="0.5" font-size="9" fill="#7f7f7f" font-family="Helvetica-Bold, Helvetica" font-weight="700">NXAMXCN<tspan x="-25.41" y="10.8">(COLUMBIA-WENATCHI)</tspan></text><text transform="translate(474.37 218.64)" opacity="0.5" font-size="9" fill="#7f7f7f" font-family="Helvetica-Bold, Helvetica" font-weight="700">STTIMCETS<tspan x="3.5" y="10.8">(LILLOOET)</tspan></text><text transform="translate(601.71 102.77)" opacity="0.5" font-size="9" fill="#7f7f7f" font-family="Helvetica-Bold, Helvetica" font-weight="700">SHUSWAP</text><text transform="translate(360.96 50.27)" opacity="0.5" font-size="9" fill="#7f7f7f" font-family="Helvetica-Bold, Helvetica" font-weight="700">TSILHQOT&apos;IN</text><g opacity="0.5"><text transform="translate(690.3 350.25)" font-size="6.01" fill="#7f7f7f" font-family="Helvetica-Bold, Helvetica" font-weight="700">NICOLA</text></g><text transform="translate(274.69 599.73)" opacity="0.5" font-size="9" fill="#7f7f7f" font-family="Helvetica-Bold, Helvetica" font-weight="700">QUILEUTE</text><text transform="translate(349.16 797.74)" opacity="0.5" font-size="6.01" fill="#7f7f7f" font-family="Helvetica-Bold, Helvetica" font-weight="700">KWALHIOQUA<tspan x="1.72" y="7.21">CLATSKANIE</tspan></text><text transform="translate(553.41 815.36)" opacity="0.5" font-size="9" fill="#7f7f7f" font-family="Helvetica-Bold, Helvetica" font-weight="700">NORTHWESTERN<tspan x="15.5" y="10.8">SAHAPTIN</tspan></text><g opacity="0.5"><text transform="translate(371.73 858.85)" font-size="9" fill="#7f7f7f" font-family="Helvetica-Bold, Helvetica" font-weight="700">CHINOOK</text></g><g opacity="0.5"><text transform="translate(335.85 907.46)" font-size="9" fill="#7f7f7f" font-family="Helvetica-Bold, Helvetica" font-weight="700">TILLAMOOK</text></g><text transform="translate(322.08 707.74)" font-size="9" fill="#9e2f58" font-family="Helvetica-Bold, Helvetica" font-weight="700">LOWER<tspan x="-6.25" y="10.8">CHEHALIS</tspan></text><text transform="translate(393.8 315.73)" font-size="9" fill="#0b3a3f" font-family="Helvetica-Bold, Helvetica" font-weight="700">SQUAMISH</text><text transform="translate(485.53 452.74)" font-size="9" fill="#894442" font-family="Helvetica-Bold, Helvetica" font-weight="700">NOOKSACK</text><text transform="translate(436.4 378)" font-size="9" fill="#958319" font-family="Helvetica-Bold, Helvetica" font-weight="700">DOWNRIVER<tspan x="-4.25" y="10.8">HALKOMELEM</tspan></text><text transform="translate(535.41 376.4)" font-size="9" fill="#715099" font-family="Helvetica-Bold, Helvetica" font-weight="700">UPRIVER<tspan x="-12.24" y="10.8">HALKOMELEM</tspan></text></g></svg>