<?xml version="1.0" encoding="utf-8"?>
<!-- Generator: Adobe Illustrator 22.1.0, SVG Export Plug-In . SVG Version: 6.00 Build 0)  -->
<svg version="1.1" id="Layer_1" xmlns="http://www.w3.org/2000/svg" xmlns:xlink="http://www.w3.org/1999/xlink" x="0px" y="0px"
	 viewBox="0 0 913.7 572.4" style="enable-background:new 0 0 913.7 572.4;" xml:space="preserve">
<style type="text/css">
	.st0{fill:#D3D3D3;}
	.st1{fill:#D3D3D3;stroke:#FFFFFF;stroke-width:1.5;}
	.st2{display:none;}
	.st3{display:inline;opacity:0.5;fill:#65ABCF;enable-background:new    ;}
	.st4{display:none;opacity:0.6;}
	.st5{display:inline;fill:#348FBA;}
	.st6{opacity:0.6;}
	.st7{fill:#E9AA3F;}
	.st8{fill:#C47A2A;}
	.st9{font-family:'NotoSans-Regular';}
	.st10{font-size:4px;}
	.st11{font-family:'NotoSans-Medium';}
	.st12{font-size:6px;}
</style>
<g id="Layer_3">
	<g id="Layer_1_1_">
		<g id="Layer_1-2">
			<g>
				<path id="AL" class="st0" d="M614.5,460l0.6,0.2l1.3-2.7l1.5-4.4l2.3,0.6l3.1,6v1l-2.7,1.9l2.7,0.3l5.2-2.5l-0.3-7.6l-2.5-1.8
					l-2-2l0.4-4l10.5-1.5l25.7-2.9l6.7-0.6l5.6,0.1l-0.5-2.2l-1.5-0.8l-0.9-1.1l1-2.6l-0.4-5.2l-1.6-4.5l0.8-5.1l1.7-4.8l-0.2-1.7
					l-1.8-0.7l-0.5-3.6l-2.7-3.4l-2-6.5l-1.4-6.7l-1.8-5l-3.8-16l-3.5-7.9l-0.8-5.6l0.1-2.2l-9,0.8l-23.4,2.2l-12.2,0.8l-0.2,6.4
					l0.2,16.7l-0.7,31l-0.3,14.1l2.8,18.8l1.6,14.7L614.5,460z"/>
				<path id="AR" class="st0" d="M573.3,339.7l-6.4-0.7l0.9-3.1l3.1-2.6l0.6-2.3l-1.8-2.9l-31.9,1.2l-23.3,0.7l-23.6,0.3l1.5,6.9
					l0.1,8.5l1.4,10.9l0.3,38.2l2.1,1.6l3-1.2l2.9,1.2l0.4,10.1l25.2-0.2l26.8-0.8l0.9-1.9l-0.3-3.8l-1.7-3.1l1.5-1.4l-1.4-2.2
					l0.7-2.4l1.1-5.9l2.7-2.3l-0.8-2.2l4-5.6l2.5-1.1l-0.1-1.7l-0.5-1.7l2.9-5.8l2.5-1.1l0.2-3.3l2.1-1.4l0.9-4.1l-1.4-4l4.2-2.4
					l0.3-2.1l1.2-4.2l0.9-3.1L573.3,339.7z"/>
				<path id="AZ" class="st0" d="M121.1,383.3l-0.3,1.5l0.5,1l18.9,10.7l12.1,7.6l14.7,8.6l16.8,10l12.3,2.4l25.4,2.7l6-39.6l7-53.1
					l4.4-31l-24.6-3.6l-60.7-11l-0.2,1.1l-2.6,16.5l-2.1,3.8l-2.8-0.2l-1.2-2.6l-2.6-0.4l-1.2-1.1l-1.1,0.1l-2.1,1.7l-0.3,6.8
					l-0.3,1.5l-0.5,12.5l-1.5,2.4l-0.4,3.3l2.8,5l1.1,5.5l0.7,1.1l1.1,0.9l-0.4,2.4l-1.7,1.2l-3.4,1.6l-1.6,1.8l-1.6,3.6l-0.5,4.9
					l-3,2.9l-1.9,0.9l-0.1,5.8l-0.6,1.6l0.5,0.8l3.9,0.4l-0.9,3l-1.7,2.4l-3.7,0.4L121.1,383.3z"/>
				<path id="CA" class="st0" d="M108.7,379.5L89,376.8l-10-1.5l-0.5-1.8v-9.4l-0.3-3.2l-2.6-4.2l-0.8-2.3l-3.9-4.2l-2.9-4.7
					l-2.7-0.2l-3.2-0.8l-0.3-1l1.5-0.6l-0.6-3.2l-1.5-2.1l-4.8-0.8l-3.9-2.1l-1.1-2.3l-2.6-4.8l-2.9-3.1H43l-3.9-2.1l-4.5-1.8
					l-4.2-0.5l-2.4-2.7l0.5-1.9l1.8-7.1l0.8-1.9v-2.4l-1.6-1l-0.5-2.9l-1.5-2.6l-3.4-5.8l-1.3-3.1l-1.5-4.7l-1.6-5.3l-3.2-4.4
					l-0.5-2.9l0.8-3.9h1.1l2.1-1.6l1.1-3.6l-1-2.7l-2.7-0.5l-1.9-2.6l-2.1-3.7l-0.2-8.2l0.6-1.9l0.6-2.3l0.5-2.4l-5.7-6.3v-2.1
					l0.3-0.5l0.3-3.2l-1.3-4l-2.3-4.8l-2.7-4.5l-1.8-3.9l1-3.7l0.6-5.8l1.8-3.1l0.3-6.5L4.3,186l-1.6-4.2L0,177.6l0.8-3.2l1.5-4.2
					l1.8-0.8l0.3-1.1l3.1-2.6l5.2-11.8l0.2-7.4l1.7-4.9l38.7,11.8l25.6,6.6l-8,31.3l-8.7,33.1l12.6,19.2l42.2,62.3l17.1,26.1
					l-0.4,3.1l2.8,5.2l1.1,5.4l1,1.5l0.7,0.6l-0.2,1.4l-1.4,1l-3.4,1.6l-1.9,2.1l-1.7,3.9l-0.5,4.7l-2.6,2.5l-2.3,1.1l-0.1,6.2
					l-0.6,1.9l1,1.7l3,0.3l-0.4,1.6l-1.4,2l-3.9,0.6L108.7,379.5z M34.8,330.6l1.3,1.5l-0.2,1.3l-3.2-0.1l-0.6-1.2l-0.6-1.5
					L34.8,330.6z M36.7,330.6l1.2-0.6l3.6,2.1l3.1,1.2l-0.9,0.6l-4.5-0.2l-1.6-1.6L36.7,330.6z M57.4,350.4l1.8,2.3l0.8,1l1.5,0.6
					l0.6-1.5l-1-1.8l-2.7-2l-1.1,0.2v1.2L57.4,350.4z M56,359.1l1.8,3.2l1.2,1.9l-1.5,0.2l-1.3-1.2c-0.3-0.6-0.5-1.2-0.7-1.9v-2.2
					H56z"/>
				<path id="CO" class="st0" d="M366.2,229.1l-36-3.5l-79.1-8.6l-2.2,22.1l-7,50.4l-1.9,13.7l34,3.9l37.5,4.4l34.7,3l14.3,0.6
					L366.2,229.1z"/>
				<path id="CT" class="st0" d="M838,184.5l3.6-3.2l1.9-2.1l0.8,0.6l2.7-1.5l5.2-1.1l7-3.5l-0.6-4.2l-0.8-4.4l-1.6-6l-4.3,1.1
					l-21.8,4.7l0.6,3.1l1.5,7.3v8.3l-0.9,2.1l1.7,2.2L838,184.5z"/>
				<path id="DE" class="st0" d="M820.4,240.8l-1,0.5l-3.6-2.4l-1.8-4.7l-1.9-3.6l-2.3-1l-2.1-3.6l0.5-2l0.5-2.3l0.1-1.1l-0.6,0.1
					l-1.7,1l-2,1.7l-0.2,0.3l1.4,4.1l2.3,5.6l3.7,16.1l5-0.3l6-1.1L820.4,240.8z"/>
				<path id="FL" class="st0" d="M736.2,438.8l-5.2-0.7l-0.7,0.8l1.5,4.4l-0.4,5.2l-4.1-1l-0.2-2.8H723l-5.3,0.7l-32.4,1.9l-8.2-0.3
					l-1.7-1.7l-2.5-4.2H667l-6.6,0.5l-35.4,4.2l-0.3,2.8l1.6,1.6l2.9,2l0.3,8.4l3.3-0.6l6-2.1l6-0.5l4.4-0.6l7.6,1.8l8.1,3.9
					l1.6,1.5l2.9,1.1l1.6,1.9l0.3,2.7l3.2-1.3h3.9l3.6-1.9l3.7-3.6l3.1,0.2l0.5-1.1l-0.8-1l0.2-1.9l4-0.8h2.6l2.9,1.5l4.2,1.5
					l2.4,3.7l2.7,1l1.1,3.4l3.4,1.6l1.6,2.6l1.9,0.6l5.2,1.3l1.3,3.1l3,3.7v9.5l-1.5,4.7l0.3,2.7l1.3,4.8l1.8,4l0.8-0.5l1.5-4.5
					l-2.6-1l-0.3-0.6l1.6-0.6l4.5,1l0.2,1.6l-3.2,5.5l-2.1,2.4l3.6,3.7l2.6,3.1l2.9,5.3l2.9,3.9l2.1,5l1.8,0.3l1.6-2.1l1.8,1.1
					l2.6,4l0.6,3.6l3.1,4.4l0.8-1.3l3.9,0.3l3.6,2.3l3.4,5.2l0.8,3.4l0.3,2.9l1.1,1l1.3,0.5l2.4-1l1.5-1.6l3.9-0.2l3.1-1.5l2.7-3.2
					l-0.5-1.9l-0.3-2.4l0.6-1.9l-0.3-1.9l2.4-1.3l0.3-3.4l-0.6-1.8l-0.5-12l-1.3-7.6L777,508l-3.6-5.8l-2.6-5.3l-2.9-2.9l-2.9-7.4
					l0.7-1.4l1.1-1.3l-1.6-2.9l-4-3.7l-4.8-5.5l-3.7-6.3l-5.3-9.4l-3.7-9.7l-2.3-7.3L736.2,438.8z M753.9,571.5l2.4-0.6l1.3-0.2
					l1.5-2.3l2.3-1.6l1.3,0.5l1.7,0.3l0.4,1.1l-3.5,1.2l-4.2,1.5l-2.3,1.2L753.9,571.5z M767.4,566.5l1.2,1.1l2.7-2.1l5.3-4.2
					l3.7-3.9l2.5-6.6l1-1.7l0.2-3.4l-0.7,0.5l-1,2.8l-1.5,4.6l-3.2,5.3l-4.4,4.2l-3.4,1.9L767.4,566.5z"/>
				<path id="GA" class="st0" d="M736.2,437.8l-5.6-0.7l-1.4,1.6l1.6,4.7l-0.3,3.9l-2.2-0.6l-0.2-3h-5.2l-5.3,0.7l-32.3,1.9
					l-7.7-0.3l-1.4-1.2l-2.5-4.3l-0.8-3.3l-1.6-0.9l-0.5-0.5l0.9-2.2l-0.4-5.5l-1.6-4.5l0.8-4.9l1.7-4.8l-0.2-2.5l-1.9-0.7l-0.4-3.2
					l-2.8-3.5l-1.9-6.2l-1.5-7l-1.7-4.8l-3.8-16l-3.5-8l-0.8-5.3l0.1-2.3l3.3-0.3l13.6-1.6l18.6-2l6.3-1.1l0.5,1.4l-2.2,0.9
					l-0.9,2.2l0.4,2l1.4,1.6l4.3,2.7l3.2-0.1l3.2,4.7l0.6,1.6l2.3,2.8l0.5,1.7l4.7,1.8l3,2.2l2.3,3l2.3,1.3l2,1.8l1.4,2.7l2.1,1.9
					l4.1,1.8l2.7,6l1.7,5.1l2.8,0.7l2.1,1.9l2,5.7l2.9,1.6l1.7-0.8l0.4,1.2l-3.3,6.2l0.5,2.6l-1.5,4.2l-2.3,10l0.8,6.3L736.2,437.8z
					"/>
				<path id="IA" class="st0" d="M542.8,177.2l2.1,2.1l0.3,0.7l-2,3l0.3,4l2.6,4.1l3.1,1.6l2.4,0.3l0.9,1.8l0.2,2.4l2.5,1l0.9,1.1
					l0.5,1.6l3.8,3.3l0.6,1.9l-0.7,3l-1.7,3.7l-0.6,2.4l-2.1,1.6l-1.6,0.5l-5.7,1.5l-1.6,4.8l0.8,1.8l1.7,1.5l-0.2,3.5l-1.9,1.4
					l-0.7,1.8v2.4l-1.4,0.4l-1.7,1.4l-0.5,1.7l0.4,1.7l-1.3,1l-2.3-2.7l-1.4-2.8l-8.3,0.8l-10,0.6l-49.2,1.2l-1.6-4.3l-0.4-6.7
					l-1.4-4.2l-0.7-5.2l-2.2-3.7l-1-4.6l-2.7-7.8l-1.1-5.6l-1.4-1.9l-1.3-2.9l1.7-3.8l1.2-6.1l-2.7-2.2l-0.3-2.4l0.7-2.4l1.8-0.3
					l61.1-0.6l21.2-0.7L542.8,177.2z"/>
				<path id="ID" class="st0" d="M161.3,21.2l-4.8,17.4L152,59.5l-3.4,16.2l-0.4,9.7l1.2,4.4l3.5,2.7l-0.2,3.9l-3.9,4.4l-4.5,6.6
					l-0.9,2.9l-1.2,1.1l-1.8,0.8l-4.3,5.3l-0.4,3.1l-0.4,1.1l0.6,1l2.6-0.1l1.1,2.3l-2.4,5.8l-1.2,4.2l-8.8,35.3l20.7,4.5l39.5,7.9
					l34.8,6.1l4.9-29.2l3.8-24.1l-2.7-2.4l-0.4-2.6l-0.8-1.1l-2.1,1l-0.7,2.6l-3.2,0.5l-3.9-1.6l-3.8,0.1l-2.5,0.7l-3.4-1.5
					l-2.4,0.2l-2.4,2l-2-1.1l-0.7-4l0.7-2.9l-2.5-2.9l-3.3-2.6l-2.7-13.1L192,102l-0.3-0.1l-0.2,0.4l-5.1,3.5l-1.7-0.2l-2.9-3.4
					l-0.2-3.1l7-17.1l-0.4-2l-3.4-1.2l-0.6-1.2l-2.6-3.5L177,64l-3.2-1.5l-2-5l1.3-4.6l-3.2-7.6l4.4-21.5L161.3,21.2z"/>
				<path id="IL" class="st0" d="M604.7,207.9l-0.8-2.6l-1.3-3.7l-1.6-1.8l-1.5-2.6l-0.4-5.5l-15.9,1.8l-17.4,1h-12.3l0.2,2.1
					l2.2,0.9l1.1,1.4l0.4,1.4l3.9,3.4l0.7,2.4l-0.7,3.3l-1.7,3.7l-0.8,2.7l-2.4,1.9l-1.9,0.6l-5.2,1.3l-1.3,4.1l0.6,1.1l1.9,1.8
					l-0.2,4.3l-2.1,1.6l-0.5,1.3v2.8l-1.8,0.6l-1.4,1.2l-0.4,1.2l0.4,2l-1.6,1.3l-0.9,2.8l0.3,3.9l2.3,7l7,7.6l5.7,3.7v4.4l0.7,1.2
					l6.6,0.6l2.7,1.4l-0.7,3.5l-2.2,6.2l-0.8,3l2,3.7l6.4,5.3l4.8,0.8l2.2,5.1l2,3.4l-0.9,2.8l1.5,3.8l1.7,2.1l1.6-0.3l1-2.2
					l2.4-1.7l2.8-1l6.1,2.5l0.5-0.2v-1.1l-1.2-2.7l0.4-2.8l2.4-1.6l3.4-1.2l-0.5-1.3l-0.8-2l1.2-1.3l1-2.7v-4l0.4-4.9l2.5-3l1.8-3.8
					l2.5-4l-0.5-5.3l-1.8-3.2l-0.3-3.3l0.8-5.3l-0.7-7.2l-1.1-15.8l-1.4-15.3l-0.9-11.7L604.7,207.9z"/>
				<path id="IN" class="st0" d="M608.9,209.7l1.5,1l1.1-0.3l2.1-1.9l2.5-1.8l14.3-1.1l18.4-1.8l1.6,15.5l4.9,42.6l-0.6,2.9l1.3,1.6
					l0.2,1.3l-2.3,1.6l-3.6,1.7l-3.2,0.4l-0.5,4.8l-4.7,3.6l-2.9,4l0.2,2.4l-0.5,1.4h-3.5l-1.4-1.7l-5.2,3l0.2,3.1l-0.9,0.2
					l-0.5-0.9l-2.4-1.7l-3.6,1.5L620,294l-1.2-0.6l-1.6-1.8l-4.4,0.5l-5.7,1l-2.5,1.3v-2.6l0.4-4.7l2.3-2.9l1.8-3.9l2.7-4.2
					l-0.5-5.8l-1.8-3.1l-0.3-3.2l0.8-5.3l-0.7-7.1l-0.9-12.6l-2.5-30.1L608.9,209.7z"/>
				<path id="KS" class="st0" d="M471.9,253.1l-43.8-0.6l-40.6-1.2l-21.7-0.9l-4.3,64.8l24.3,1l44.7,2.1l46.3,0.6l12.6-0.3l0.7-35
					l-1.2-11.1l-2.5-2l-2.4-3l-2.3-3.6l0.6-3l1.7-1.4v-2.1l-0.8-0.7l-2.6-0.2l-3.5-3.4H471.9z"/>
				<path id="KY" class="st0" d="M593.2,325.4l12.6-0.7l0.1-4.1h4.3l30.4-3.2l45.1-4.3l5.6-3.6l3.9-2.1l0.1-1.9l6-7.8l4.1-3.6
					l2.1-2.4l-3.3-2l-2.5-2.7l-3-3.8l-0.5-2.2l-2.6-1.4l-0.9-1.9l-0.2-6.1l-2.6-2l-1.9-1.1l-0.5-2.3l-1.3,0.2l-2,1.2l-2.5,2.7
					l-1.9-1.7l-2.5-0.5l-2.4,1.4h-2.3l-1.8-2l-5.6-0.1l-1.8-4.5l-2.9-1.5l-2.1,0.8l-4.2,0.2l-0.5,2.1l1.2,1.5l0.3,2.1l-2.8,2
					l-3.8,1.8l-2.6,0.4l-0.5,4.5l-4.9,3.6l-2.6,3.7l0.2,2.2l-0.9,2.3l-4.5-0.1l-1.3-1.3l-3.9,2.2l0.2,3.3l-2.4,0.6l-0.8-1.4
					l-1.7-1.2l-2.7,1.1l-1.8,3.5l-2.2-1l-1.4-1.6l-3.7,0.4l-5.6,1l-2.8,1.3l-1.2,3.4l-1,1l1.5,3.7l-4.2,1.4l-1.9,1.4l-0.4,2.2
					l1.2,2.4v2.2l-1.6,0.4L591,311l-2.3,0.9l-2,1.4l-0.8,1.8l1.7,2.4l-0.9,1.8l-0.1,3.3l-2.4,1.3l-2.1,1.7L593.2,325.4z"/>
				<path id="LA" class="st0" d="M512.9,479.5l8.1-0.3l10.3,3.6l6.5,1.1l3.7-1.5l3.2,1.1l3.2,1l0.8-2.1l-3.2-1.1l-2.6,0.5l-2.7-1.6
					l0.8-1.5l3.1-1l1.8,1.5l1.8-1l3.2,0.6l1.5,2.4l0.3,2.3l4.5,0.3l1.8,1.8l-0.8,1.6l-1.3,0.8l1.6,1.6l8.4,3.6l3.6-1.3l1-2.4
					l2.6-0.6l1.8-1.5l1.3,1l0.8,2.9l-2.3,0.8l0.6,0.6l3.4-1.3l2.3-3.4l0.8-0.5l-2.1-0.3l0.8-1.6l-0.2-1.5l2.1-0.5l1.1-1.3l0.6,0.8
					l0.6,3.1l4.2,0.6l4,1.9l1,1.5h2.9l1.1,1l2.3-3.1v-1.5h-1.3l-3.4-2.7l-5.8-0.8l-3.2-2.3l1.1-2.7l2.3,0.3l0.2-0.6l-1.8-1v-0.5h3.2
					l1.8-3.1l-1.3-1.9l-0.3-2.7l-1.5,0.2l-1.9,2.1l-0.6,2.6l-3.1-0.6l-1-1.8l1.8-1.9l1.9-1.7l-2.2-6.5l-3.4-3.4l1-7.3l-0.2-0.5
					l-1.3,0.2l-33.1,1.4l-0.8-2.4l0.8-8.5l8.6-14.8l-0.9-2.6l1.4-0.4l0.4-2l-2.2-2l0.1-1.9l-2-4.5l-0.4-5.1l0.1-0.7l-26.4,0.8
					l-25.2,0.1l0.4,9.7l0.7,9.5l0.5,3.7l2.6,4.5l0.9,4.4l4.3,6l0.3,3.1l0.6,0.8l-0.7,8.3l-2.8,4.6l1.2,2.4l-0.5,2.6l-0.8,7.3l-1.3,3
					l0.2,3.7L512.9,479.5z"/>
				<path id="MA" class="st0" d="M873.5,166.1l-0.5-2.3l0.8-1.5l2.9-1.5l0.8,3.1l-0.5,1.8l-2.4,1.5v1l1.9-1.5l3.9-4.5l3.9-1.9
					l4.2-1.5l-0.3-2.4l-1-2.9l-1.9-2.4l-1.8-0.8l-2.1,0.2l-0.5,0.5l1,1.3l1.5-0.8l2.1,1.6l0.8,2.7l-1.8,1.8l-2.3,1l-3.6-0.5l-3.9-6
					l-2.3-2.6h-1.8l-1.1,0.8l-1.9-2.6l0.3-1.5l2.4-5.2l-2.9-4.4l-3.7,1.8l-1.8,2.9l-18.3,4.7l-13.8,2.5l-0.6,10.6l0.7,4.9l22-4.8
					l11.2-2.8l2,1.6l3.4,4.3l2.9,4.7L873.5,166.1z M886,167.5l2.2-0.7l0.5-1.7l1,0.1l1,2.3l-1.3,0.5l-3.9,0.1L886,167.5z
					 M876.6,168.3l2.3-2.6h1.6l1.8,1.5l-2.4,1l-2.2,1L876.6,168.3z"/>
				<path id="MD" class="st0" d="M820.8,257.7l1.7-3.8l0.5-4.8l-6.3,1.1l-5.8,0.3l-3.8-16.8l-2.3-5.5l-1.5-4.6l-22.2,4.3l-37.6,7.6
					l2,10.4l4.8-4.9l2.5-0.7l1.4-1.5l1.8-2.7l1.6,0.7l2.6-0.2l2.6-2.1l2-1.5l2.1-0.6l1.5,1.1l2.7,1.4l1.9,1.8l1.3,1.4l4.8,1.6
					l-0.6,2.9l5.8,2.1l2.1-2.6l3.7,2.5l-2.1,3.3l-0.7,3.3l-1.8,2.6v2.1l0.3,0.8l2,1.3l3.4,1.1l4.3-0.1l3.1,1l2.1,0.3l1-2.1l-1.5-2.1
					v-1.8l-2.4-2.1l-2.1-5.5l1.3-5.3l-0.2-2.1l-1.3-1.3c0,0,1.5-1.6,1.5-2.3c0.1-0.7,0.3-1.4,0.5-2.1l1.9-1.3l1.9-1.6l0.5,1
					l-1.5,1.6L799,237l0.3,1.1l1.8,0.3l0.5,5.5l-2.1,1l0.3,3.6l0.5-0.2l1.1-1.9l1.6,1.8l-1.6,1.3l-0.3,3.4l2.6,3.4l3.9,0.5l1.6-0.8
					l3.2,4.2l1,0.4L820.8,257.7z M806.3,257.9l1.1,2.5l0.2,1.8l1.1,1.9c0,0,0.9-0.9,0.9-1.2s-0.7-3.1-0.7-3.1l-0.7-2.3L806.3,257.9z
					"/>
				<path id="ME" class="st0" d="M851.8,85.5l1.5,0.4v-2.6l0.8-5.5l2.6-4.7l1.5-4l-1.9-2.4v-6l0.8-1l0.8-2.7l-0.2-1.5l-0.2-4.8
					l1.8-4.8l2.9-8.9l2.1-4.2h1.3l1.3,0.2v1.1l1.3,2.3l2.7,0.6l0.8-0.8v-1l4-2.9l1.8-1.8l1.5,0.2l6,2.4l1.9,1L896,64h6l0.8,1.9
					l0.2,4.8l2.9,2.3h0.8l0.2-0.5l-0.5-1.1l2.8-0.5l1.9,2.1l2.3,3.7v1.9l-2.1,4.7l-1.9,0.6L906,87l-4.8,5.5h-1.3c-0.6,0-1-2.1-1-2.1
					l-1.8,0.2l-1,1.5l-2.4,1.5l-1,1.5l1.6,1.5l-0.5,0.6l-0.5,2.7l-1.9-0.2v-1.6l-0.3-1.3l-1.5,0.3l-1.8-3.2l-2.1,1.3l1.3,1.5
					l0.3,1.1l-0.8,1.3l0.3,3.1l0.2,1.6l-1.6,2.6l-2.9,0.5l-0.3,2.9l-5.3,3.1l-1.3,0.5l-1.6-1.5l-3.1,3.6l1,3.2l-1.5,1.3l-0.2,4.4
					l-1.1,6.3l-2.2-0.9l-0.5-3.1l-4-1.1l-0.2-2.5l-11.7-37.4L851.8,85.5z M888.3,101.1l1.5-1.5l1.4,1.1l0.6,2.4l-1.7,0.9
					L888.3,101.1z M895,95.2l1.8,1.9c0,0,1.3,0.1,1.3-0.2s0.2-2,0.2-2l0.9-0.8l-0.8-1.8l-2,0.7L895,95.2z"/>
				<path id="MI" class="st0" d="M630.5,204.6l19.1-1.9l0.2,1.1l9.9-1.5l12-1.7l0.1-0.6l0.2-1.5l2.1-3.7l2-1.7l-0.2-5.1l1.6-1.6
					l1.1-0.3l0.2-3.6l1.5-3l1.1,0.6l0.2,0.6l0.8,0.2l1.9-1l-0.4-9.1l-3.2-8.2l-2.3-9.1l-2.4-3.2l-2.6-1.8l-1.6,1.1l-3.9,1.8l-1.9,5
					l-2.7,3.7l-1.1,0.6l-1.5-0.6c0,0-2.6-1.5-2.4-2.1s0.5-5,0.5-5l3.4-1.3l0.8-3.4l0.6-2.6l2.4-1.6l-0.3-10l-1.6-2.3l-1.3-0.8
					l-0.8-2.1l0.8-0.8l1.6,0.3l0.2-1.6l-2.6-2.2l-1.3-2.6h-2.6l-4.5-1.5l-5.5-3.4h-2.7l-0.6,0.6l-1-0.5l-3.1-2.3l-2.9,1.8l-2.9,2.3
					l0.3,3.6l1,0.3l2.1,0.5l0.5,0.8l-2.6,0.8l-2.6,0.3l-1.5,1.8l-0.3,2.1l0.3,1.6l0.3,5.5l-3.6,2.1l-0.6-0.2V134l1.3-2.4l0.6-2.4
					l-0.8-0.8l-1.9,0.8l-1,4.2l-2.7,1.1l-1.8,1.9l-0.2,1l0.6,0.8l-0.6,2.6l-2.3,0.5v1.1l0.8,2.4l-1.1,6.1l-1.6,4l0.6,4.7l0.5,1.1
					l-0.8,2.4l-0.3,0.8l-0.3,2.7l3.6,6l2.9,6.5l1.5,4.8l-0.8,4.7l-1,6l-2.4,5.2l-0.3,2.7l-3.2,3.1L630.5,204.6z M597.2,132.2
					l-1.3-1.1l-1.8-10.4l-3.7-1.3l-1.7-2.3l-12.6-2.8l-2.8-1.1l-8.1-2.2l-7.8-1l-3.9-5.3l0.7-0.5l2.7-0.8l3.6-2.3v-1l0.6-0.6l6-1
					l2.4-1.9l4.4-2.1l0.2-1.3l1.9-2.9l1.8-0.8l1.3-1.8l2.3-2.3l4.4-2.4l4.7-0.5l1.1,1.1l-0.3,1l-3.7,1l-1.5,3.1l-2.3,0.8l-0.5,2.4
					l-2.4,3.2l-0.3,2.6l0.8,0.5l1-1.1l3.6-2.9l1.3,1.3h2.3l3.2,1l1.5,1.1l1.5,3.1l2.7,2.7l3.9-0.2l1.5-1l1.6,1.3l1.6,0.5l1.3-0.8
					h1.1l1.6-1l4-3.6l3.4-1.1l6.6-0.3l4.5-1.9l2.6-1.3l1.5,0.2v5.7l0.5,0.3l2.9,0.8l1.9-0.5l6.1-1.6l1.1-1.1l1.5,0.5v7l3.2,3.1
					l1.3,0.6l1.3,1l-1.3,0.3l-0.8-0.3l-3.7-0.5l-2.1,0.6l-2.3-0.2l-3.2,1.5h-1.8l-5.8-1.3l-5.2,0.2l-1.9,2.6l-7,0.6l-2.4,0.8
					l-1.1,3.1l-1.3,1.1l-0.5-0.2l-1.5-1.6l-4.5,2.4h-0.6l-1.1-1.6l-0.8,0.2l-1.9,4.4l-1,4l-3.2,6.9L597.2,132.2z M567.6,75.7
					l1.8-2.1l2.2-0.8l5.4-3.9l2.3-0.6l0.5,0.5l-5.1,5.1l-3.3,1.9l-2.1,0.9L567.6,75.7z M653.8,107.8l0.6,2.5l3.2,0.2l1.3-1.2
					c0,0-0.1-1.5-0.4-1.6c-0.6-0.6-1.1-1.2-1.6-1.9l-2.2,0.2l-1.6,0.2l-0.3,1.1L653.8,107.8z"/>
				<path id="MN" class="st0" d="M450.6,60.4l-0.6,3.9v10.3l1.6,5l1.9,3.3l0.5,9.9l1.8,13.4l1.8,7.3l0.4,6.4v5.3l-1.6,1.8l-1.8,1.3
					v1.5l0.9,1.7l4.1,3.5l0.7,3.2v35.9l60.3-0.6l21.2-0.7l-0.5-6l-1.8-2.1l-7.2-4.6l-3.6-5.3l-3.4-0.9l-2-2.8h-3.2l-3.5-3.8l-0.5-7
					l0.1-3.9l1.5-3l-0.7-2.7l-2.8-3.1l2.2-6.1l5.4-4l1.2-1.4l-0.2-8l0.2-3l2.6-3l3.8-2.9l1.3-0.2l4.5-5l1.8-0.8l2.3-3.9l2.4-3.6
					l3.1-2.6l4.8-2l9.2-4.1l3.9-1.8l0.6-2.3l-4.4,0.4l-0.7,1.1h-0.6l-1.8-3.1l-8.9,0.3l-1,0.8h-1l-0.5-1.3l-0.8-1.8l-2.6,0.5
					l-3.2,3.2l-1.6,0.8h-3.1l-2.6-1v-2.1l-1.3-0.2l-0.5,0.5l-2.6-1.3l-0.5-2.9l-1.5,0.5l-0.5,1l-2.4-0.5l-5.3-2.4l-3.9-2.6h-2.9
					l-1.3-1l-2.3,0.6l-1.1,1.1l-0.3,1.3h-4.8v-2.1l-6.3-0.3l-0.3-1.5h-4.8l-1.6-1.6l-1.5-6.1l-0.8-5.5l-1.9-0.8l-2.3-0.5l-0.6,0.2
					l-0.3,8.2h-30.1L450.6,60.4z"/>
				<path id="MO" class="st0" d="M579.1,332.3l0.5-5.9l4.2-3.4l1.9-1v-2.9l0.7-1.6l-1.1-1.6l-2.4,0.3l-2.1-2.5l-1.7-4.5l0.9-2.6
					l-2-3.2l-1.8-4.6l-4.6-0.7l-6.8-5.6l-2.2-4.2l0.8-3.3l2.2-6l0.6-3l-1.9-1l-6.9-0.6l-1.1-1.9v-4.1l-5.3-3.5l-7.2-7.8l-2.3-7.3
					l-0.5-4.2l0.7-2.4l-2.6-3.1l-1.2-2.4l-7.7,0.8l-10,0.6l-48.8,1.2l1.3,2.6l-0.1,2.2l2.3,3.6l3,3.9l3.1,3l2.6,0.2l1.4,1.1v2.9
					l-1.8,1.6l-0.5,2.3l2.1,3.2l2.4,3l2.6,2.1l1.3,11.6l-0.8,40l0.5,5.7l23.7-0.2l23.3-0.7l32.5-1.3l2.2,3.7l-0.8,3.1l-3.1,2.5
					l-0.5,1.8l5.2,0.5l4.1-1.1L579.1,332.3z"/>
				<path id="MS" class="st0" d="M590.3,466.1l2.6-4.2l1.8,0.8l6.8-1.9l2.1,0.3l1.5,0.8h5.2l0.4-1.6l-1.7-14.8l-2.8-19l1-45.1
					l-0.2-16.7l0.2-6.3l-4.8,0.3l-19.6,1.6l-13,0.4l-0.2,3.2l-2.8,1.3l-2.6,5.1l0.5,1.6l0.1,2.4l-2.9,1.1l-3.5,5.1l0.8,2.3l-3,2.5
					l-1,5.7l-0.6,1.9l1.6,2.5l-1.5,1.4l1.5,2.8l0.3,4.2l-1.2,2.5l-0.2,0.9l0.4,5l2,4.5l-0.1,1.7l2.3,2l-0.7,3.1l-0.9,0.3l0.6,1.9
					l-8.6,15l-0.8,8.2l0.5,1.5l24.2-0.7l8.2-0.7l1.9-0.3l0.6,1.4l-1,7.1l3.3,3.3l2.2,6.4L590.3,466.1z"/>
				<path id="MT" class="st0" d="M347.1,64.4l-5.3,57.1l-1.3,15.2l-59.1-6.6l-49-7.1l-1.4,11.2l-1.9-1.7l-0.4-2.5l-1.3-1.9l-3.3,1.5
					l-0.7,2.5l-2.3,0.3l-3.8-1.6l-4.1,0.1l-2.4,0.7l-3.2-1.5l-3,0.2l-2.1,1.9l-0.9-0.6l-0.7-3.4l0.7-3.2l-2.7-3.2l-3.3-2.5
					l-2.5-12.6l-0.1-5.3l-1.6-0.8l-0.6,1l-4.5,3.2l-1.2-0.1l-2.3-2.8l-0.2-2.8l7-17.2l-0.6-2.7l-3.5-1.1l-0.4-0.9l-2.7-3.5
					l-4.6-10.4l-3.2-1.6l-1.8-4.3l1.3-4.6l-3.2-7.6l4.4-21.3l32.7,6.9l18.4,3.4l32.3,5.3l29.3,4l29.2,3.5l30.8,3.1L347.1,64.4z"/>
				<path id="NC" class="st0" d="M772.7,351.3l-12.7-7.7l-3.1-0.8l-16.6,2.1l-1.6-3l-2.8-2.2l-16.7,0.5l-7.4,0.9l-9.2,4.5l-6.8,2.7
					l-6.5,1.2l-13.4,1.4l0.1-4.1l1.7-1.3l2.7-0.7l0.7-3.8l3.9-2.5l3.9-1.5l4.5-3.7l4.4-2.3l0.7-3.2l4.1-3.8l0.7,1l2.5,0.2l2.4-3.6
					l1.7-0.4l2.6,0.3l1.8-4l2.5-2.4l0.5-1.8l0.1-3.5l4.4,0.1l38.5-5.6l57.5-12.3l2,4.8l3.6,6.5l2.4,2.4l0.6,2.3l-2.4,0.2l0.8,0.6
					l-0.3,4.2l-2.6,1.3l-0.6,2.1l-1.3,2.9l-3.7,1.6l-2.4-0.3l-1.5-0.2l-1.6-1.3l0.3,1.3v1h1.9l0.8,1.3l-1.9,6.3h4.2l0.6,1.6l2.3-2.3
					l1.3-0.5l-1.9,3.6l-3.1,4.8H814l-1.1-0.5l-2.7,0.6l-5.2,2.4l-6.5,5.3l-3.4,4.7l-1.9,6.5l-0.5,2.4l-4.7,0.5l-5.1,1.5L772.7,351.3
					z M822,325.1l2.6-2.5l3.2-2.6l1.5-0.6l0.2-2l-0.6-6.1l-1.5-2.3l-0.6-1.9l0.7-0.2l2.7,5.5l0.4,4.4l-0.2,3.4l-3.4,1.5l-2.8,2.4
					l-1.1,1.2L822,325.1z"/>
				<path id="ND" class="st0" d="M457,120l-0.4-6.2l-1.8-7.3L453,92.9l-0.5-9.7l-1.9-3.2l-1.6-5.3V64.3l0.6-3.8l-1.8-5.5l-28.6-0.6
					l-18.6-0.6l-26.5-1.3l-25.2-2.2L348,64.7l-4.7,50.9l56.8,3.9l56.9,1.7L457,120z"/>
				<path id="NE" class="st0" d="M456.3,197.9l-1-2.3l-0.5-1.6l-2.9-1.6l-4.8-1.5l-2.2-1.2l-2.6,0.1l-3.7,0.4l-4.2,1.2l-6-4.1
					l-2.2-2l-10.7,0.6l-41.5-2.4l-35.6-2.2l-4.3,43.7l33.1,3.3l-1.4,21.1l21.7,1l40.6,1.2l43.8,0.6h4.5l-2.2-3l-2.6-3.9l0.1-2.3
					l-1.4-2.7l-1.9-5.2l-0.4-6.7l-1.4-4.1l-0.5-5l-2.3-3.7l-1-4.7L460,203l-1-5.3L456.3,197.9z"/>
				<path id="NH" class="st0" d="M867.7,134.9l1.1-3.2l-2.7-1.2l-0.5-3.1l-4.1-1.1l-0.3-3l-11.7-37.5l-0.7,0.1l-0.6,1.6l-0.6-0.5
					l-1-1l-1.5,1.9l-0.2,2.3l0.5,8.4l1.9,2.8v4.3l-3.9,4.8l-2.4,0.9v0.7l1.1,1.9v8.6l-0.8,9.2l-0.2,4.7l1,1.4l-0.2,4.7l-0.5,1.5
					l1,1.1l5.1-1.2l13.8-3.5l1.7-2.9l4-1.9L867.7,134.9z"/>
				<path id="NJ" class="st0" d="M809.7,221.9l0.1-1.5l2.7-1.3l1.7-2.8l1.7-2.4l3.3-3.2v-1.2l-6.1-4.1l-1-2.7l-2.7-0.3l-0.1-0.9
					l-0.7-2.2l2.2-1.1l0.2-2.9l-1.3-1.3l0.2-1.2l1.9-3.1v-3.1l2.5-3.1l5.6,2.5l6.4,1.9l2.5,1.2l0.1,1.8l-0.5,2.7l0.4,4.5l-2.1,1.9
					l-1.1,1l0.5,0.5l2.7-0.3l1.1-0.8l1.6,3.4l0.2,9.4l0.6,1.1l-1.1,5.5l-3.1,6.5l-2.7,4l-0.8,4.8l-2.1,2.4h-0.8l-0.3-2.7l0.8-1
					l-0.2-1.5l-4-0.6l-4.8-2.3l-3.2-2.9l-1-2L809.7,221.9z"/>
				<path id="NM" class="st0" d="M256.2,423l-16.7-2.6l-1.2,9.6l-15.8-2l6-39.7l7-53.2l4.4-30.9l34,3.9l37.4,4.4l32,2.8l-0.3,10.8
					l-1.4-0.1l-7.4,97.7l-28.4-1.8l-38.1-3.7l0.7,6.3L256.2,423z"/>
				<path id="NV" class="st0" d="M109.1,167.2l38.7,8.5l26,5.2L163.2,234l-5.4,29.8l-3.3,15.5l-2.1,11.1l-2.6,16.4l-1.7,3.1
					l-1.6-0.1l-1.2-2.6l-2.8-0.5l-1.3-1.1l-1.8,0.1l-0.9,0.8l-1.8,1.3l-0.3,7.3l-0.3,1.5l-0.5,12.4l-1.1,1.8l-16.7-25.5l-42.1-62.1
					l-12.4-19l8.6-32.6l8-31.3L109.1,167.2z"/>
				<path id="NY" class="st0" d="M829.4,193.6l0.5-2.7l-0.2-2.4l-3-1.5l-6.5-2l-6-2.6l-0.6-0.4l-2.7-0.3l-2-1.5l-2.1-5.9l-3.3-0.5
					l-2.4-2.4l-38.4,8.1l-31.6,6l-0.5-6.5l1.6-1.2l1.3-1.1l1-1.6l1.8-1.1l1.9-1.8l0.5-1.6l2.1-2.7l1.1-1l-0.2-1l-1.3-3.1l-1.8-0.2
					l-1.9-6.1l2.9-1.8l4.4-1.5l4-1.3l3.2-0.5l6.3-0.2l1.9,1.3l1.6,0.2l2.1-1.3l2.6-1.1l5.2-0.5l2.1-1.8l1.8-3.2l1.6-1.9h2.1l1.9-1.1
					l0.2-2.3l-1.5-2.1l-0.3-1.5l1.1-2.1v-1.5h-1.8l-1.8-0.8l-0.8-1.1l-0.2-2.6l5.8-5.5l0.6-0.8l1.5-2.9l2.9-4.5l2.7-3.7l2.1-2.4
					l2.4-1.8l3.1-1.2l5.5-1.3l3.2,0.2l4.5-1.5l7.4-2.2l0.7,4.9l2.4,6.5l0.8,5l-1,4.2l2.6,4.5l0.8,2l-0.9,3.2l3.7,1.7l2.7,10.2v5.8
					l-0.6,10.9l0.8,5.4l0.7,3.6l1.5,7.3v8.1l-1.1,2.3l2.1,2.7l0.5,0.9l-1.9,1.8l0.3,1.3l1.3-0.3l1.5-1.3l2.3-2.6l1.1-0.6l1.6,0.6
					l2.3,0.2l7.9-3.9l2.9-2.7l1.3-1.5l4.2,1.6l-3.4,3.6l-3.9,2.9l-7.1,5.3l-2.6,1l-5.8,1.9l-4,1.1l-1-0.4L829.4,193.6z"/>
				<path id="OH" class="st0" d="M649.8,204.8l1.7,15.5l4.8,41.1l3.9-0.2l2.3-0.8l3.6,1.8l1.7,4.2l5.4,0.1l1.8,2h1.7l2.4-1.4
					l3.1,0.5l1.5,1.3l1.8-2l2.3-1.4l2.4-0.4l0.6,2.7l1.6,1l2.6,2l0.8,0.2l2-0.1l1.2-0.6v-2.1l1.7-1.5l0.1-4.8l1.1-4.2l1.9-1.3l1,0.7
					l1,1.1l0.7,0.2l0.4-0.4l-0.9-2.7v-2.2l1.1-1.4l2.5-3.6l1.3-1.5l2.2,0.5l2.1-1.5l3-3.3l2.2-3.7l0.2-5.4l0.5-5v-4.6l-1.2-3.2
					l1.2-1.8l1.3-1.2l-0.6-2.8l-4.3-25.6l-6.2,3.7l-3.9,2.3l-3.4,3.7l-4,3.9l-3.2,0.8l-2.9,0.5l-5.5,2.6l-2.1,0.2l-3.4-3.1l-5.2,0.6
					l-2.6-1.5l-2.2-1.3L649.8,204.8z"/>
				<path id="OK" class="st0" d="M397.9,328.5l-1.8,24.3l-0.9,18l0.2,1.6l4,3.6l1.7,0.9h0.9l0.9-2.1l1.5,1.9l1.6,0.1l0.3-0.2
					l0.2-1.1l2.8,1.4l-0.4,3.5l3.8,0.5l2.5,1l4.2,0.6l2.3,1.6l2.5-1.7l3.5,0.7l2.2,3.1l1.2,0.1v2.3l2.1,0.7l2.5-2.1l1.8,0.6l2.7,0.1
					l0.7,2.3l4.4,1.8l1.7-0.3l1.9-4.2h1.3l1.1,2.1l4.2,0.8l3.4,1.3l3,0.8l1.6-0.7l0.7-2.7h4.5l1.9,0.9l2.7-1.9h1.4l0.6,1.4h3.6
					l2-1.8l2.3,0.6l1.7,2.2l3,1.7l3.4,0.9l1.9,1.2l-0.3-37.6l-1.4-10.9l-0.1-8.6l-1.5-6.6l-0.6-6.8l0.1-4.3l-12.6,0.3l-46.3-0.5
					l-44.7-2.1l-41.5-1.8l-0.4,10.7L397.9,328.5z"/>
				<path id="OR" class="st0" d="M53.4,152.5l28.2,7.2l27.5,6.5l17,3.7l8.8-35.1l1.2-4.4l2.4-5.5l-0.7-1.3l-2.5,0.1l-1.3-1.8
					l0.6-1.5l0.4-3.3l4.7-5.7l1.9-0.9l0.9-0.8l0.7-2.7l0.8-1.1l3.9-5.7l3.7-4l0.2-3.3l-3.4-2.5l-1.2-4.6L134.1,82l-15.3-3.5
					L104.1,79l-1.1-1.3l-5.1,1.8L93.4,79L91,77.4L89.7,78L85,77.7l-2-1.4l-4.8-1.8l-1.1-0.1l-4.4-1.3l-1.8,1.5l-6.3-0.2l-5.3-3.8
					l0.2-9.3l-2-3.5l-4.1-0.6l-0.7-2.5l-2.4-0.5l-5.8,2.1l-2.3,6.5l-3.2,10l-3.2,6.5l-5,14.1L24.3,107l-8.1,12.6l-1.9,2.9l-0.8,8.6
					l-1.3,6l2.7,3.5L53.4,152.5z"/>
				<path id="PA" class="st0" d="M722.6,185.8l1.3-0.5l5.7-5.5l0.7,6.9l33.5-6.5l36.9-7.8l2.3,2.3l3.1,0.4l2,5.6l2.4,1.9l2.8,0.4
					l0.1,0.1l-2.6,3.2v3.1l-1.9,3.1l-0.2,1.9l1.3,1.3l-0.2,1.9l-2.4,1.1l1,3.4l0.2,1.1l2.8,0.3l0.9,2.5l5.9,3.9v0.4l-3.1,3l-1.5,2.2
					l-1.7,2.8l-2.7,1.2l-1.4,0.3l-2.1,1.3l-1.6,1.4l-22.4,4.3l-38.7,7.8l-11.3,1.4l-3.9,0.7l-5.1-22.4l-4.3-25.9L722.6,185.8z"/>
				<path id="RI" class="st0" d="M859.6,169.3l-0.8-4.4l-1.6-6l5.7-1.5l1.5,1.3l3.4,4.3l2.8,4.4l-2.8,1.4l-1.3-0.2l-1.1,1.8
					l-2.4,1.9l-2.8,1.1L859.6,169.3z"/>
				<path id="SC" class="st0" d="M745,407.2l-2.1-1l-1.9-5.6l-2.5-2.3l-2.5-0.5l-1.5-4.6l-3-6.5l-4.2-1.8l-1.9-1.8l-1.2-2.6l-2.4-2
					l-2.3-1.3l-2.2-2.9l-3.2-2.4l-4.4-1.7l-0.4-1.4L707,366l-0.5-1.5l-3.8-5.4l-3.4,0.1l-3.9-2.5l-1.2-1.2l-0.2-1.4l0.6-1.6l2.7-1.3
					l-0.8-2l6.4-2.7l9.2-4.5l7.1-0.9l16.4-0.5l2.3,1.9l1.8,3.5l4.6-0.8l12.6-1.5l2.7,0.8l12.5,7.4l10.1,8.3l-5.3,5.4l-2.6,6.1
					l-0.5,6.3l-1.6,0.8l-1.1,2.7l-2.4,0.6l-2.1,3.6l-2.7,2.7l-2.3,3.4l-1.6,0.8l-3.6,3.4l-2.9,0.2l1,3.2l-5,5.3l-2.3,1.6L745,407.2z
					"/>
				<path id="SD" class="st0" d="M457,174.7l-0.9,3.2l0.4,3l2.6,2l-1.2,5.4l-1.8,4.1l1.5,3.3l0.7,1.1l-1.3,0.1l-0.7-1.6l-0.6-2
					l-3.3-1.8l-4.8-1.5l-2.5-1.3l-2.9,0.1l-3.9,0.4l-3.8,1.2l-5.3-3.8l-2.7-2.4l-10.9,0.8l-41.5-2.4l-35.6-2.2l1.5-24.8l2.8-34
					l0.4-5l56.9,3.9l56.9,1.7v2.7l-1.3,1.5l-2,1.5l-0.1,2.2l1.1,2.2l4.1,3.4l0.5,2.7v35.9L457,174.7z"/>
				<path id="TN" class="st0" d="M656.8,353.2l-13.1,1.2l-23.3,2.2l-37.6,2.7l-11.8,0.4l0.9-0.6l0.9-4.5l-1.2-3.6l3.9-2.3l0.4-2.5
					l1.2-4.3l3-9.5l0.5-5.6l0.3-0.2l12.3-0.2l13.6-0.8l0.1-3.9l3.5-0.1l30.4-3.3l54-5.2l10.3-1.5l7.6-0.2l2.4-1.9l1.3,0.3l-0.1,3.3
					l-0.4,1.6l-2.4,2.2l-1.6,3.6l-2-0.4l-2.4,0.9l-2.2,3.3l-1.4-0.2l-0.8-1.2l-1.1,0.4l-4.3,4l-0.8,3.1l-4.2,2.2l-4.3,3.6l-3.8,1.5
					l-4.4,2.8l-0.6,3.6l-2.5,0.5l-2,1.7l-0.2,4.8L656.8,353.2z"/>
				<path id="TX" class="st0" d="M268.8,419.2l37,3.6l29.3,1.9l7.4-97.7l54.4,2.4l-1.7,23.3l-1,18l0.2,2l4.4,4.1l2,1.1h1.8l0.5-1.2
					l0.7,0.9l2.4,0.2l1.1-0.6V377l1,0.5l-0.4,3.7l4.5,0.7l2.4,0.9l4.2,0.7l2.6,1.8l2.8-1.9l2.7,0.6l2.2,3.1l0.8,0.1v2.1l3.3,1.1
					l2.5-2.1l1.5,0.5l2.1,0.1l0.6,2.1l5.2,2l2.3-0.5l1.9-4h0.1l1.1,1.9l4.6,0.9l3.4,1.3l3.2,1l2.4-1.2l0.7-2.3h3.6l2.1,1l3-2h0.4
					l0.5,1.4h4.7l1.9-1.8l1.3,0.4l1.7,2.1l3.3,1.9l3.4,1l2.5,1.4l2.7,2l3.1-1.2l2.1,0.8l0.7,20l0.7,9.5l0.6,4.1l2.6,4.4l0.9,4.5
					l4.2,5.9l0.3,3.1l0.6,0.8l-0.7,7.7l-2.9,4.8l1.3,2.6l-0.5,2.4l-0.8,7.2l-1.3,3l0.3,4.2l-5.6,1.6l-9.9,4.5l-1,1.9l-2.6,1.9
					l-2.1,1.5l-1.3,0.8l-5.7,5.3l-2.7,2.1l-5.3,3.2l-5.7,2.4l-6.3,3.4l-1.8,1.5l-5.8,3.6l-3.4,0.6l-3.9,5.5l-4,0.3l-1,1.9l2.3,1.9
					l-1.5,5.5l-1.3,4.5l-1.1,3.9l-0.8,4.5l0.8,2.4l1.8,7l1,6.1l1.8,2.7l-1,1.5l-3.1,1.9l-5.7-3.9l-5.5-1.1l-1.3,0.5l-3.2-0.6
					l-4.2-3.1l-5.2-1.1l-7.6-3.4l-2.1-3.9l-1.3-6.5l-3.2-1.9l-0.6-2.3l0.6-0.6l0.3-3.4l-1.3-0.6l-0.6-1l1.3-4.4l-1.6-2.3l-3.2-1.3
					l-3.4-4.4l-3.6-6.6l-4.2-2.6l0.2-1.9l-5.3-12.3l-0.8-4.2l-1.8-1.9l-0.2-1.5l-6-5.3l-2.6-3.1v-1.1l-2.6-2.1l-6.8-1.1l-7.4-0.6
					l-3.1-2.3l-4.5,1.8l-3.6,1.5l-2.3,3.2l-1,3.7l-4.4,6.1l-2.4,2.4l-2.6-1l-1.8-1.1l-1.9-0.6l-3.9-2.3v-0.6l-1.8-1.9l-5.2-2.1
					l-7.4-7.8l-2.3-4.7v-8.1l-3.2-6.5l-0.5-2.7l-1.6-1l-1.1-2.1l-5-2.1l-1.3-1.6l-7.1-7.9l-1.3-3.2l-4.7-2.3l-1.5-4.4l-2.6-2.9
					l-1.7-0.5L268.8,419.2z M443.2,560.9l-0.6-7.1l-2.7-7.2l-0.6-7l1.5-8.2l3.3-6.9l3.5-5.4l3.2-3.6l0.6,0.2l-4.8,6.6l-4.4,6.5
					l-2,6.6l-0.3,5.2l0.9,6.1l2.6,7.2l0.5,5.2l0.2,1.5L443.2,560.9z"/>
				<path id="UT" class="st0" d="M214.4,299.5l24.6,3.6l1.9-13.7l7-50.5l2.3-22l-32.2-3.5l2.2-13.1l1.8-10.6l-34.7-6.1l-12.5-2.5
					L164.2,234l-5.4,30l-3.3,15.4l-1.7,9.2L214.4,299.5z"/>
				<path id="VA" class="st0" d="M820.7,258.8l-0.2,2.8l-2.9,3.8l-0.4,4.6l0.5,3.4l-1.8,5l-2.2,1.9l-1.5-4.6l0.4-5.4l1.6-4.2
					l0.7-3.3l-0.1-1.7L820.7,258.8z M760.4,303.4l-38.6,5.6l-4.8-0.1l-2.2-0.3l-2.5,1.9l-7.3,0.1l-10.3,1.6l-6.7,0.6l4.1-2.6
					l4.1-2.3v-2.1l5.7-7.3l4.1-3.7l2.2-2.5l3.6,4.3l3.8,0.9l2.7-1l2-1.5l2.4,1.2l4.6-1.3l1.7-4.4l2.4,0.7l3.2-2.3l1.6,0.4l2.8-3.2
					l0.2-2.7l-0.8-1.2l4.8-10.5l1.8-5.2l0.5-4.7l0.7-0.2l1.1,1.7l1.5,1.2l3.9-0.2l1.7-8.1l3-0.6l0.8-2.6l2.8-2.2l1.1-2.1l1.8-4.3
					l0.1-4.6l3.6,1.4l6.6,3.1l0.3-5.2l3.4,1.2l-0.6,2.9l8.6,3.1l1.4,1.8l-0.8,3.3l-1.3,1.3l-0.5,1.7l0.5,2.4l2,1.3l3.9,1.4l2.9,1
					l4.9,0.9l2.2,2.1l3.2,0.4l0.9,1.2l-0.4,4.7l1.4,1.1l-0.5,1.9l1.2,0.8l-0.2,1.4l-2.7-0.1l0.1,1.6l2.3,1.5l0.1,1.4l1.8,1.8
					l0.5,2.5l-2.6,1.4l1.6,1.5l5.8-1.7l3.7,6.2L760.4,303.4z"/>
				<path id="VT" class="st0" d="M818.7,104.9l2.4,6.5l0.8,5.3l-1,3.9l2.5,4.4l0.9,2.3l-0.7,2.6l3.3,1.5l2.9,10.8v5.3l11.5-2.1
					l-1-1.1l0.6-1.9l0.2-4.3l-1-1.4l0.2-4.7l0.8-9.3v-8.5l-1.1-1.8v-1.6l2.8-1.1l3.5-4.4v-3.6l-1.9-2.7l-0.3-5.8L818,100
					L818.7,104.9z"/>
				<path id="WA" class="st0" d="M60.5,61.3L58.2,57l-4.1-0.7l-0.4-2.4l-2.5-0.6l-2.9-0.5l-1.8,1l-2.3-2.9l0.3-2.9l2.7-0.3l1.6-4
					l-2.6-1.1l0.2-3.7l4.4-0.6l-2.7-2.7l-1.5-7.1l0.6-2.9v-7.9l-1.8-3.2l2.3-9.4l2.1,0.5l2.4,2.9l2.7,2.6l3.2,1.9l4.5,2.1l3.1,0.6
					l2.9,1.5l3.4,1l2.3-0.2v-2.4l1.3-1.1l2.1-1.3l0.3,1.1l0.3,1.8L76,16.6l-0.3,2.1l1.8,1.5l1.1,2.4l0.6,1.9l1.5-0.2l0.2-1.3l-1-1.3
					l-0.5-3.2l0.8-1.8l-0.6-1.5v-2.6L81.4,9l-1.1-2.6l-2.4-4.8l0.3-0.8L79.6,0L84,1.5l9.7,2.7l8.6,1.9l20,5.7l23,5.7l15,3.5
					l-4.8,17.6L151,59.4l-3.4,16.3l-0.4,9.2l-12.9-3.7L119,77.6l-14.5,0.3l-1.1-1.5l-5.7,2.1l-3.9-0.4l-2.6-1.8L89.5,77l-4.2-0.2
					l-1.7-1.3l-5.2-1.8l-1.2-0.2L72.5,72l-1.9,1.7l-5.7-0.2L60.3,70L60.5,61.3z M70.1,5.9l2-0.2l0.5,1.4l1.5-1.6h2.3L77.2,7
					l-1.5,1.7l0.6,0.8l-0.7,2l-1.4,0.4c0,0-0.9,0.1-0.9-0.2c0.4-0.9,0.9-1.8,1.5-2.6l-1.7-0.6L72.8,10l-0.7,0.6l-1.5-2.3L70.1,5.9z"
					/>
				<path id="WI" class="st0" d="M527.4,103.5l2.9,0.5l2.9-0.6l7.4-3.2l2.9-1.9l2.1-0.8l1.9,1.5l-1.1,1.1l-1.9,3.1l-0.6,1.9l1,0.6
					l1.8-1l1.1-0.2l2.7,0.8l0.6,1.1l1.1,0.2l0.6-1.1l4,5.3l8.2,1.2l8.2,2.2l2.6,1.1l12.3,2.6l1.6,2.3l3.6,1.2l1.7,10.2l1.6,1.4
					l1.5,0.9l-1.1,2.3l-1.8,1.6l-2.1,4.7l-1.3,2.4l0.2,1.8l1.5,0.3l1.1-1.9l1.5-0.8l0.8-2.3l1.9-1.8l2.7-4l4.2-6.3l0.8-0.5l0.3,1
					l-0.2,2.3l-2.9,6.8l-2.7,5.7l-0.5,3.2l-0.6,2.6l0.8,1.3l-0.2,2.7l-1.9,2.4l-0.5,1.8l0.6,3.6l0.6,3.4l-1.5,2.6l-0.8,2.9l-1,3.1
					l1.1,2.4l0.6,6.1l1.6,4.5l-0.2,3l-15.9,1.8l-17.5,1H553l-0.7-1.5l-2.9-0.4l-2.6-1.3l-2.3-3.7l-0.3-3.6l2-2.9l-0.5-1.4l-2.1-2.2
					l-0.8-3.3l-0.6-6.8l-2.1-2.5l-7-4.5l-3.8-5.4l-3.4-1l-2.2-2.8h-3.2l-2.9-3.3l-0.5-6.5l0.1-3.8l1.5-3.1l-0.8-3.2l-2.5-2.8
					l1.8-5.4l5.2-3.8l1.6-1.9l-0.2-8.1l0.2-2.8l2.4-2.8L527.4,103.5z"/>
				<path id="WV" class="st0" d="M744.9,247.9l5.8-6l2.6-0.8l1.6-1.5l1.5-2.2l1.1,0.3l3.1-0.2l4.6-3.6l1.5-0.5l1.3,1l2.6,1.2l3,3
					l-0.4,4.3l-5.4-2.6l-4.8-1.8l-0.1,5.9l-2.6,5.7l-2.9,2.4l-0.8,2.3l-3,0.5l-1.7,8.1l-2.8,0.2l-1.1-1l-1.2-2l-2.2,0.5l-0.5,5.1
					l-1.8,5.1l-5,11l0.9,1.4l-0.1,2l-2.2,2.5l-1.6-0.4l-3.1,2.3l-2.8-0.8l-1.8,4.9l-3.8,1l-2.5-1.3l-2.5,1.9l-2.3,0.7l-3.2-0.8
					l-3.8-4.5L705,289l-2.5-2.5l-2.9-3.7l-0.5-2.3l-2.8-1.7l-0.6-1.3l-0.2-5.6l0.3,0.1l2.4-0.2l1.8-1v-2.2l1.7-1.5l0.1-5.2l0.9-3.6
					l1.1-0.7l0.4,0.3l1,1.1l1.7,0.5l1.1-1.3l-1-3.1v-1.6l3.1-4.6l1.2-1.3l2,0.5l2.6-1.8l3.1-3.4l2.4-4.1l0.2-5.6l0.5-4.8v-4.9
					l-1.1-3l0.9-1.3l0.8-0.7l4.3,19.3l4.3-0.8l11.2-1.3L744.9,247.9z"/>
				<path id="WY" class="st0" d="M339,155.5l-1.5,25.4l-4.4,44l-2.7-0.3l-83.3-9.1l-27.9-3l2-12l6.9-41l3.8-24.2l1.3-11.2l48.2,7
					l59.1,6.5L339,155.5z"/>
				<g id="DC">
					<path id="DC1" class="st0" d="M787.8,247.4l-1.1-1.6l-1-0.8l1.1-1.6l2.2,1.5L787.8,247.4z"/>
					<circle id="DC2" class="st1" cx="787.3" cy="245.4" r="5"/>
				</g>
			</g>
		</g>
	</g>
</g>
<g id="Layer_5_1_" class="st2">
	<path class="st3" d="M74.2,286.8l-8.3-8.3c-1-1-1.5-2.2-1.6-3.6l-0.9-15.7c0-0.6,0-1.2,0.2-1.8l3.4-12.5c0.2-0.9,0.7-1.6,1.3-2.3
		l3.1-3.3c0.5-0.5,0.9-1.2,1.1-1.9l2.1-5.8c0.3-0.8,0.4-1.7,0.3-2.6l-1.2-9.3c-0.1-0.5-0.2-1.1-0.4-1.5l-4.9-11
		c-0.4-1-0.6-2.1-0.4-3.1l3.4-21.2l3.2-16.1c0.1-0.3,0.1-0.6,0.1-0.9l0.7-18.1c0-1.1-0.2-2.2-0.8-3.1l-2.8-4.5
		c-0.7-1.1-1-2.5-0.8-3.8l3.2-19.3c0.1-0.7,0.4-1.4,0.7-2l4.6-7.5c0.4-0.7,0.7-1.5,0.8-2.4l0.9-9.1c0.3-2.7,2.5-4.8,5.2-5l14.4-0.8
		l11.7-1.2c1.9-0.2,3.7,0.6,4.9,2.1l2.5,3.1c0.7,0.9,1.8,1.6,2.9,1.9l21.3,5.6c0.5,0.1,1,0.3,1.4,0.6l10.9,6.5
		c1.3,0.8,2.2,2,2.6,3.5l0.7,3c0.9,4.1,5.9,5.7,9.1,2.9l1.1-1c1-0.9,2.2-1.4,3.5-1.4l22-0.7c0.4,0,0.9,0,1.3,0.1l18.2,3.8
		c0.4,0.1,0.8,0.1,1.2,0.1l14.1-0.3c1.6,0,3.1,0.6,4.2,1.8l16.5,18.1c0.4,0.4,0.8,0.8,1.3,1l9.5,5.5c0.3,0.2,0.7,0.3,1,0.5l22.1,7.6
		c1.9,0.7,3.3,2.3,3.7,4.4l1.2,7.4c0.1,0.5,0.1,1,0,1.5l-2,18.8c-0.1,1-0.4,1.9-1,2.6l-4.8,6.8c-1,1.5-1.3,3.3-0.7,5l2.6,7.7
		c0.5,1.6,0.3,3.3-0.5,4.7l0,0c-1.9,3.1-0.3,7.2,3.2,8.2l7.1,2c0.1,0,0.3,0.1,0.4,0.1l9.4,3.5c0.9,0.3,1.7,0.9,2.3,1.6l10.1,12
		c0.5,0.5,0.8,1.2,1,1.8l6.2,18.7c0.3,0.8,0.3,1.7,0.2,2.5l-2.3,16.7c0,0.3-0.1,0.5-0.1,0.8v10.2c0,1.4-0.6,2.8-1.6,3.8l-6.7,7
		c-1,1.1-2.5,1.7-4,1.7h-14.6l-14.1,0.3c-1.3,0-2.6,0.5-3.6,1.4l-5.3,4.9c-1,0.9-2.4,1.4-3.7,1.4H259c-0.8,0-1.5-0.2-2.2-0.4
		l-15.4-6.6c-1.5-0.7-2.7-2-3.1-3.6l-1.7-5.9c-0.5-1.7-1.7-3-3.3-3.6l-7.3-2.9c-1.5-0.6-3.1-0.5-4.5,0.2l-2.8,1.4
		c-1.9,0.9-3.1,2.9-3.1,5v6.1c0,1.8-0.9,3.6-2.4,4.6l-9.4,6.4c-1.1,0.8-2.5,1.1-3.8,0.9l-11.3-1.4c-0.6-0.1-1.3-0.3-1.8-0.6
		l-9.9-5.1c-0.9-0.5-1.9-0.7-2.8-0.6l-12.1,0.7l-14.8,1.4c-1.2,0.1-2.3,0.6-3.2,1.4l-5.8,5.2c-1.1,1-1.8,2.4-1.9,3.8l-0.6,10.9
		c0,0.5-0.1,0.9-0.2,1.3l-0.5,1.5c-0.7,2.4-2.9,4-5.4,3.9l-8.8-0.2c-2.2-0.1-4.2-1.4-5-3.5l-0.5-1.3c-0.5-1.2-1.4-2.2-2.5-2.9
		l-2.6-1.4c-0.2-0.1-0.5-0.2-0.7-0.3l-6.8-2.5c-0.6-0.2-1.2-0.3-1.9-0.3h-7.5c-1.2,0-2.3-0.4-3.3-1.1l-6.2-4.6
		c-1.4-1-2.2-2.7-2.2-4.5v-3.2c0-1.4,0.5-2.7,1.4-3.7l3.4-3.8c0.9-1,1.4-2.3,1.4-3.7v-3.1c0-0.7-0.1-1.4-0.4-2l-1.6-4.1
		c-0.4-1-0.5-2.2-0.2-3.3l0,0l-1.3,0.2c-1,1.6-2.8,2.6-4.7,2.6h-1.2C76.7,288.4,75.3,287.8,74.2,286.8z"/>
	<path class="st3" d="M324.4,348.8l-4.8,11.5c-1.4,3.3-1.2,7,0.4,10.2l4.9,9.7c1.1,2.3,1.5,4.9,1.2,7.4l-1.6,10.2
		c-0.6,3.6,0.5,7.3,3,10l6.5,7.3c1.2,1.4,2.7,2.4,4.3,3.1l4.5,1.9c2.4,1,4.3,2.7,5.7,4.9l5,8.3c2.2,3.7,6.2,5.9,10.5,5.9h15.7
		c3.6,0,6.9,1.5,9.3,4.2l11.1,12.8c0.3,0.3,0.6,0.6,0.9,0.9l6.1,5.7c2.6,2.4,6.1,3.6,9.6,3.2l0,0c5.7-0.6,10.2-5,11-10.7l0.6-4.8
		c0.3-2,0-4-0.7-5.9l-1.4-3.6c-1.3-3.6-4.3-6.3-7.9-7.5l-4.8-1.5c-4.3-1.3-7.5-4.8-8.4-9.2l-4.2-19.3c-0.3-1.2-0.3-2.4-0.2-3.7
		l1-11.3c0.2-2.8-0.5-5.7-2.1-8.1L387,362.8c-0.1-0.2-0.3-0.4-0.4-0.7l-7.2-12c-1.1-1.9-1.8-4.1-1.8-6.3v-6.5
		c0-6.4-4.9-11.8-11.4-12.3l-3.9-0.3c-2.9-0.2-5.8,0.6-8.2,2.3l-2.8,2.1c-1.3,0.9-2.7,1.6-4.2,2l-7.7,2c-2.6,0.7-4.9,2.2-6.6,4.3
		L326,346C325.4,346.8,324.8,347.8,324.4,348.8z"/>
</g>
<g id="Layer_1_2_">
	<g class="st4">
		<path class="st5" d="M290.2,161.8c-1.9-4.3-5.6-6-8.2-7.2l-0.2-0.1c-2.5-1.2-5.1-2.2-7.6-3.2c-1.2-0.5-2.4-1-3.5-1.4
			c-0.8-0.3-1.6-0.7-2.4-1c-1.8-0.7-3.5-1.4-5-2.2c-6.3-3.4-10.9-6.5-14.8-9.8c-2.9-2.4-5.8-5.2-9.5-9.1c-2.1-2.2-4.5-4.7-7.7-6.7
			c-3-1.9-6.2-2.7-9.3-2.4c-1.6,0.2-3.1,0.5-4.6,0.8c-0.4,0.1-0.8,0.2-1.3,0.3c-1.8,0.4-3.3,0.4-4.6,0.1c-1.4-0.3-2.8-1.1-4.5-2.4
			c-4.3-3.2-9.3-4.8-15.4-4.8h-0.1c-4.6,0-9.1,0.3-13.3,0.8c-3.2,0.4-6.2,1.4-8.8,3c-1.7,1-3.3,2.1-4.9,3.3c-3,2.3-7.3,6.1-8.9,12.2
			c-0.6,2.2-1,4.6-1.1,7.1l-0.1,1.7c-0.2,4.1-0.3,8.3-0.7,12.3c-0.2,1.8-0.5,3.4-1.1,4.7c-1.2,2.8-3.4,5.2-5.7,7.5l-1.1,1.1
			c-1.8,1.7-3.6,3.5-5.2,5.6c-4,5-7,10.5-9.7,15.4c-3.2,5.8-5,11.9-6.7,17.8l-0.5,1.8c-1.4,4.7-2.8,8.5-5.2,11.6
			c-2.1,2.8-4.5,5.4-7,8.2c-0.8,0.9-1.7,1.8-2.5,2.7c-2.5,2.8-5.2,5.9-7.7,9.1c-2.3,2.9-4.5,6.2-5.4,10.3c-0.6,2.9-0.8,5.8-0.5,8.6
			c0.5,4.5,1.4,8.2,2.9,11.6c1.1,2.5,2.3,4.8,3.5,7c0.4,0.7,0.7,1.3,1.1,2l0.2,0.4c1.4,2.6,2.8,5.3,5,7.8c2.8,3.2,6.3,4.9,9.8,4.9
			c2.3,0,4.7-0.8,6.9-2.3c6.6-4.5,8.5-11.5,9.4-16.3c0.3-1.7,0.5-3.4,0.6-5.1c0.1-1.2,0.2-2.3,0.4-3.4c0.5-3.2,2-5.2,4.9-6.6
			c3.2-1.5,6.8-2.6,11-3.5c2.1-0.4,3.8-0.5,5.4-0.4c2.5,0.2,4.7-0.1,6.9-0.4c5.4-0.8,8.4-4.9,9.6-6.7c2.5-3.5,5.9-6.1,10.7-8.2
			c4.3-1.9,8.8-4.2,12.4-8.2c2.1-2.2,4.6-4.8,7.6-6.3c1.1-0.5,2.1-1.1,3.2-1.6c1.3-0.6,2.7-1.3,4.1-2.1c2.2-1.2,4.6-1.7,7.7-1.8
			c3.2-0.1,6.5,0.3,10,0.7c0.9,0.1,1.7,0.2,2.5,0.2c3.3,0.3,6.7,0.5,9.9,0.7c1.4,0.1,2.8,0.2,4.1,0.3c1.9,0.1,3.8,0.6,6.2,1.4
			l0.5,0.2c3.4,1.2,7.2,2.6,11.5,2.5c3.9,0,7.4-0.7,10.3-1.5c8.1-2.1,11.1-7.5,12.2-11.7c0.9-3.3,0.6-6.5,0.3-9.3
			c-0.1-0.6-0.1-1.2-0.1-1.8c-0.2-2.5-0.3-5.9,0.4-9c0.5-2.5,1.3-5,2.1-7.6c1.2-4,2.4-8.1,3-12.5
			C291.8,167.4,291.5,164.5,290.2,161.8z M213.3,176.2c-1.3,2.8-4.6,4.2-7.8,3.5c-1.3-0.3-2.5-0.7-3.8-1c-3.4-1-6.8-2-10.7-2.3
			c-0.9-0.1-1.9-0.3-3-0.5l-0.5-0.1c-3.3-0.7-5.1-2.4-5.4-5c-0.4-3,1.2-5.6,4-6.8c1.6-0.7,3.4-0.9,5.4-1.2c1.6-0.2,3.3-0.2,5.4-0.2
			h0.4h1.2c3.7-0.1,6.7,0.3,9.2,1.4c3.4,1.4,5.2,3.6,5.9,7.1C214.2,172.9,214.1,174.6,213.3,176.2z"/>
	</g>
	<g class="st6">
		<path class="st7" d="M325.6,276.5c-0.2,3.3-0.9,6.7-2,10.9c-1,3.6-2.4,7.2-4.3,11.6c-0.2,0.5-0.5,0.9-0.7,1.2
			c0,0.1-0.1,0.1-0.1,0.2v1l-0.8,1.1c-0.2,0.3-0.4,0.6-0.6,0.8c-0.8,1.1-1.7,2.4-3.1,3.4c-3.8,2.9-7.9,2.4-11,1.6
			c-1.8-0.5-3.5-1.1-5.1-1.8c-0.7-0.3-1.3-0.5-2-0.8c-1.1-0.4-2.6-0.9-4.1-1.1h-0.3c-4.3-0.8-8.5-0.8-12.7,0l-0.3,0.1H278
			c-1,0-2.2,0.4-3.4,0.9c-4.9,1.8-10,3.1-14.3,4.1c-6.6,1.6-12.7,0.1-18.4-4.5c-4.9-3.9-9.2-8.5-13.2-14c-1.4-2-2.8-3.3-4.3-4.1
			c-1.7-0.9-3-0.8-3.9-0.4l-0.3,0.6l-1.5,0.6c-0.2,0.2-0.5,0.9-0.7,1.2c-0.7,1.6-1,3.4-0.9,5.6c0.1,2.6-0.1,5.3-0.6,8.1
			c-0.6,3.5-2.5,6.6-5.5,9.2c-2.9,2.5-6.2,4.2-9.9,5c-4,0.9-7.7-0.2-11.2-3.3c-0.6-0.5-1.2-1.1-1.8-1.6c-1.1-1-2.1-2-3.1-2.8
			c-1.4-1-3.2-1.7-5.5-2.2c-2.3-0.4-4.8-0.4-7.4-0.4h-0.4c-2.5,0-5,0-7.4,0c-4.7,0-9.6,0-14.4,0c-2.5,0-4.5,0.4-6.3,1.3
			c-1.5,0.7-2.8,1.9-3.8,3.5c-1.8,2.8-2.5,6.2-3.3,9.9c-0.1,0.6-0.3,1.2-0.4,1.9c-0.3,1.5-0.5,3.1-0.7,4.7c-0.2,1.7-0.3,3.5-0.7,5.3
			c-0.6,2.8-2.3,5-4.8,6.1c-1.1,0.5-2.2,0.7-3.4,0.7c-1.5,0-3-0.4-4.4-1.2c-4-2.3-6.4-6-6.8-10.8c-0.5-4.8-1.1-9.1-1.9-13.2
			c-1-4.8-0.3-9.4,0.4-12.8c0.5-2.5,1.2-5.3,2.6-7.9c1.6-2.9,3.9-4.9,7.2-6.3c3.5-1.4,5.2-2.8,6.2-4.8l0.2-0.4
			c1.3-2.7,2.7-5.8,5.5-8.3c1.4-1.3,2.9-2.3,4.4-3.3l0.9-0.6c0.8-0.5,1.6-1.1,2.3-1.6c2.4-1.7,4.9-3.4,7.4-5l0.8-0.4
			c0.1,0,0.2-0.1,0.3-0.1l0.2-0.2l0.9-0.3c0.9-0.3,1.7-0.6,2.5-0.9c2-0.7,4-1.4,6-2.1c2.1-0.7,3.9-1.5,5.4-2.5
			c1.6-1,2.8-2.4,3.9-4.4c1.6-3,3.2-5.3,5-7.3c0.5-0.5,1-0.9,1.4-1.3c0.2-0.2,0.4-0.4,0.5-0.4l0.5-0.8l0.7-0.4l0.1-0.1
			c0.2-0.2,0.5-0.4,0.7-0.5l1.2-0.8c0.8-0.5,1.6-1,2.4-1.5c1.4-1,2.9-1.8,4.3-2.6c1.3-0.8,2.6-1.5,3.8-2.2c2.5-1.7,4.8-3.9,6.9-6.9
			c2.2-3.1,4.9-6.1,9.3-7.3c2.2-0.6,4.4-1,6.6-1.3c0.7-0.1,1.4-0.2,2.1-0.4c1.9-0.4,3.8-0.6,5.7-0.9c0.8-0.1,1.7-0.3,2.5-0.4
			c1.1-0.2,2.3-0.3,3.8-0.3c0.9,0,1.9-0.1,2.8-0.1c2.7-0.2,5.6-0.3,8.5-0.1l0.9,0.1c3.9,0.2,7.9,0.5,11.9,2.2c2.1,0.9,4.2,2,6.6,3.6
			c2,1.2,3.9,1.9,5.9,2c3,0.2,6-0.6,8.9-1.4c5.1-1.5,10.4-1.8,15.6-0.9c4.5,0.8,8.9,1.7,13.3,2.7c1.3,0.3,2.4,0.8,3.5,1.2
			c0.8,0.3,1.5,0.6,2.1,0.8l1.2,0.3l0.8,0.9c0.1,0.2,0.6,0.4,1,0.7c0.5,0.3,1.2,0.7,1.8,1.2c3.8,3.1,6.3,7.4,7.7,13
			c0.7,3.1,0.8,6.1,0.8,8.6c0,3.8,0.6,7.2,1.8,10.7C324.5,266.1,326,271,325.6,276.5z"/>
	</g>
</g>
<text transform="matrix(1 0 0 1 164.0401 278.82)" class="st8 st9 st10">SOUTHERN</text>
<text transform="matrix(1 0 0 1 167.8801 283.62)" class="st8 st9 st10">PAIUTE</text>
<text transform="matrix(1 0 0 1 275.61 266.35)" class="st8 st9 st10">UTE</text>
<text transform="matrix(1 0 0 1 110.8701 326.77)" class="st8 st9 st10">CHEMEHUEVI</text>
<text transform="matrix(0.9999 -1.570732e-02 1.570732e-02 0.9999 188.3701 265.54)" class="st8 st11 st12">COLORADO RIVER NUMIC</text>
</svg>
