<?xml version="1.0" encoding="UTF-8"?>
<svg width="600" height="735" viewBox="0 0 600 735" version="1.1" xmlns="http://www.w3.org/2000/svg">
    <style id="BStyle" type="text/css">
    path{stroke-linejoin:bevel}.sea{fill:#c6ecff;stroke:none}.map{fill:#e0e0e0;stroke:none}.om{fill:#fefee9;stroke:none}.dhofari{fill:#c12838}.borders{fill:none;stroke:#646464;stroke-width:1;stroke-linecap:round}.coastline{fill:none;stroke:#086d9b;stroke-width:.4}
    </style>
    <path d="M0 735.34V0h600v735.34H0z" class="sea"/>
    <g class="map">
        <path class="sa" d="m0 197.86 54.52 64.22 185.17 22.06 4.85-5.44.15.24 33 51.1-17.68 53.01-30.58 91.74L12.3 547.17l.05-.17-.24.08-.12.02-5.02 1.09L0 549.7V197.86z"/>
        <path class="ae" d="m44.03 177.46.74-.47.51.05.13.17-.25.77.11.49-.33.07-.53-.35-.06-.37-.32-.36zm61.09-.53-.48-.23-1.19.04-.33-.15-.16-.28.15-.6.51-.19.67-.05.4.32.29.42.27.64-.13.08zM86 175.02h-.2l-.56-.46-.22-.37v-.32l.29-.06.45.38.34.63-.1.2zm74.64-.43-1.32-.25-.35-.35.13-.16 1.56.34.2.21-.22.21zm-148.02-.78-.25-.27-.45-.02.45-2.66.33.06.18.33-.05.28.12.32-.22.51.09.08.41-.02-.23.34-.01.25.27.61-.17.19h-.47zm148.85-.4-.49-.01-.68-.74-.42-.17-.54.06-.65.07-.34-.25-.36-.52-.04-.37.37-.18.44-.43 1.09.16.09-.43.94.39.89.02.08.58.56 1.01-.11.27-.32.28-.51.26zm-74.63.68-.28-.14.1-.15 1.65-.29.12.11-.14.21-1.45.26zm-73.23-3.47-.18-.05-.2-.37-.19-.13-.1.17-.27.04-.07-.19.33-1-.07-.89.4-.65.65-.37.31.02.27.15.04.25.26.34-.16.38.11.68-.35.77-.47.33-.31.52zm152.94-1.92-1.17-.26-.26-.16-.84-1.06.1-.12.29.05.51.43.59.16.9.83-.12.13zm-3.81 3.49-.15-.18-.16-.71-.18-.27-.95-.78.15-.21 1.02.22 1.43.84.18.31-.15.32-.78.39-.41.07zm-47.58-1.03-.62-.22-1.36.07-.36-.08-.69-.7-.02-.33.15-.36 2.02-.08.39.84.52.67-.03.19zm7.97.63-.34-.29-.24-.55.11-.41.44.17.33.76-.05.25-.25.07zm42.09-.42-.48-.08-2.62-1.82-.3-.5.13-.31 1.62.08.55.59.85.43.75 1.04-.15.44-.35.13zm-.5-2.79-.59-.11-.43-.37.01-.35.34.09.65.41.16.21-.14.12zm-10.99 4.8.05 1-.22.47-.42.28-1.05.34-.84.32-.86.04-.75-.13-1.78-.57-1.6-.65-.28-.27.45-.47-.41-1.04-.29-.33-.37-.2-.47-.1-.16.14-.37 1.35.03.44-.27 1.54-.21.19-.58.19-.85.08-1.1-.04-.52.29-.37.08-.76-.29h-.7l-.44.01-.56-.19-.97-.13-.57-.24-1.49-.99-1.67-.83-.23.04-.47.34-1.96.36-.39-.2-.21-.18-.58-.49-.25-.29.07-.18 2.03-1.33 2.58-1.25 2.5-1.73.83-.58.53-.03 1.86.37h.6l2.15-1.27.34-.09h.36l.68.32.3-.17.37.06.23-.82.13-.12.83-.75.37-.11 1.27.37.33.15.14.26-.07.17h-.41l-.57-.2-.34.07-.16.14-.06.36.31.69.81 1.3.32.25 1.01.25.25.13.95.52 1.9-.06.52.15.42.27.87.79.84 1.1.03.2-.16.37-.47.53zm-99.05-13.32.3-.28.24-.02.47.15.33-.1.32-.35.39.21.2-.13.39-.01.26.17 1 .29.65.49.27.78-.02 1.41-.3 1.33-.59.41-.23.16-.39 1.3-.16.09-.2-.04.13-.53-.12-.22-.7.36-.13.41-.29.14-.05.3-.39.48-.25-.39-.57-.31-1.18-1.56-.32-.98-.17-.51.14-1.56.38-.9.59-.59zm38.17-.77-.24-.21-.16-.34.09-.35.23-.11.24.17.2.37-.36.47zm84.5-.25-.3-.12-.62-.57.1-.12.83.2.14.34-.15.27zm-3.56 7.5h-.44l-.5-.18-.56-.44-.57-1.08-.72-.87-.6-.44-1.17-.24-.3-.26-.05-.15-.21-.59.03-.43.19-.18 2.1-1.03.52-.42.6-.87.29.11 2.59 2.82.83.61.42.54 1.64 1.58.2.41-.13.29-.46.23-.72-.01-.62-.06-.82-.45-.42-.04-.21.09-.91 1.06zm-33.02-2.63-1.17-.1-.51-.18-.4-.39.06-.18.42-.35.48-.22.11.04.17.05 1.86-.02.91.2.23.24-.25.39-.43.08-.4-.1-.42.03-.66.51zm-41.45.73-.51-.08-.54-.29-.49-.48-.21-.5.04-.32.2-.23.34-.09 1.49 1.14.11.27-.06.23-.37.35zm11.09 1.64-.24-.16-.05-.23.79-.83.32-.16.84.13.1.16-.12.11-1.38.92-.26.06zm-2.08-.08-.73-.45-.4-.5-.18-1.32-.28-.22-.35-.02-.08.24.11.37-.2.31-.36.02-.92-.23-.92.09-.03.06-.31.7-.31.31-.76.27-.46-.08-1.34-.84-.09-.17.33-.04.1-.12-.69-.37.01-.13.18-.11.51-.01 1.34-.29 1.91-.62.31-.1 1.1-.12 1.41.26.75-.65.65.01.73.8-.12.19-.41-.27-.67 1.18-.16.6.33 1.25zm-17.1-3.74-1.41-.61-.18-.31v-.37l.21-.46.33-.19.45-.07.31.23.09.81.4.7-.02.22-.18.05zm36.45 1.47-.22-.09-.08-.55.08-.47.4-.4.74-.42.63.22.49.56.21.46-.05.18-2.2.51zm14.93-2.55-.26-.02-.19-.16.01-.23.71-.65.49.02.01.48-.3.31-.47.25zm50.39-7.34-.16-.21.1-.2.46-.33.45-.08.06.16-.12.22-.45.38-.34.06zm-82.25-2.48-.16-.03-.1-.14-.18-.61.08-.28.61.22.15.19-.4.65zm79.81.89-.35-.57-.03-.27.4-.09.04-.38.15-.08.3.23.12.31-.1.17-.32.12-.21.56zm4.91-.05-1.59-.64-.85-.57.06-.29.62.23 1 .04.57.21.55.46.15.3-.11.23-.4.03zm-11.57 3.41h-.27l-.36-.31-.03-.2.62.12.2.27-.16.12zm-1.69-.52-.38.01-.5-.18-.39-.42.04-.2.16-.1h.42l.57.31.25.39-.17.19zm-3.87 2.6-.43-.23-.21-.24.16-.82.18-.09 1.02.25.43.62.61.36.89.85.89.6.05.28-.35.28-.33.09-.7.61-.39 1.29-.16.19-.85.06-.35-.3-.39-.6.36-.07.59.41.37-.24.05-.09.22-.42-.35-1.51-.54-.78-.41-.32-.36-.18zm-4.04-2.43.8.04.21.28-.96.8-.22.47.12.28-.05.13 1.68 1.64v.4l-.12.18-.23.09-.57-.18-1.76-.96-.14.05-.26-.06-1.9-.48-.98-.38-.06-.13.19-.14 1.11-.07 1.27-.41.4-.28 1.14-1.22.33-.05zm-58.72 1.13-.38-.49-.33-.81-.02-.44.1-.12.75.05.64.24.03 1.01-.79.56zM75.7 101.84l.41-.09.51.29.02.95-.19.23-.63-.23-.25-.89.13-.26zm98.54-4.08-1.08-.46-1.21-.04-.22-.14-.25-.63.04-.5.18-.44.3-.29.25-.12.76-.1.44.16.57.46.21.52-.12.72.13.86zm112.78-36.17-.55.23-.11.1-.82.7-.15-.16.14-.3.31-.31.85-.86.29-.06.04.66zm1.44-.8 1.07-.31 2.46-1.01.39.04-.11.33-.38.26-2.24.94-1.95.22-.06-.14.18-.12.18-.06.46-.15zm-57.05-9.88-.29-.43-.25-.09-.07.01-.67.11-.14-.66-.49-.4.01-.23.21-.33.42.06.33-.14 1.22-.84.28.08.17.17.4.86.28.82.06.7-.12.2-.67-.2-.68.31zm67.65 2.6-.18-.03.29-.54.56-.51.18.07-.46.65-.39.36zM271.38 74.2l-.22-.23-.07-.38.27-.68.26-.06.14.38-.38.97zm1.92-1.24-.38-.13-.01-.28.17-.25.33.02.16.26-.27.38zm-2.38-.58-.21-.49.1-.32.4-.04.1.23-.39.62zm2.14-.96-.05-.17.3-.6.28-.19.17.16-.14.28-.29.44-.27.08zm1.73-.7-.76-.44.01-.23.46.07.26.29.03.31zm-.39-2.56 2.71-.63.94-.47.84-.67h.15l-.05.21-.44.6-.64.59-.2.11-1.01.07-.42.66-.52-.32-.17.2-.32.36.34.27-.25.46-.42-.02.15.31-.1.1-.61-.3.18-.55-.26-.06-.47.19-.78-.01-.1.41-.25.29-.43.26-.26.04-.13-.1.91-1.33.33-.29.24.19.36-.07.99-.21.06-.09-.37-.2zm-12.63 13.86-.23-.08 2.93-3.39.08.18-.31.65-1.03 1.47-.74.82-.7.35zm-17.08 196.92-.15-.24-4.85 5.44-185.17-22.06L0 197.86v-11.87l.46.33.98.26.23.06 1.19-.08.55.17.34.11h.26l1.44.02.8.22.57.47.06 1.06.01.15.06.03.29.15.43-.06.67-.28.18-.07.12-.45-.08-.76-.18-.25-.49.13-.63-1.09.33-.47 1.06-.08.38-.01.2.16.19.43.36.2 1.48-.08.66.27 1.8.05.19-.11-.01-.42.18.03.72 1.13 1.95 1 1.27.31.6.47.31.01.29-.35.27-.34.38-.25-.38-.61.93.12.91.35.32.12.87.19 1.05.03 4-.42 2.79-.78 1.53-.29 1.49-.66 1.85-.33.23-.13.29-.37.29-.08.68-.22.42-.4.13-.06.9-.4.25-.34 1.9-.87 1.13-.39.87-.08.77-.27.53-.42.85-.3 1.34-1.02.26-.98-.48-.63.45-.01.28.24.39.01.59-.43.96-.03 1.08-.28.07-.03.53-.28.71-.6 3.02-1.09.11-.08.54-.41-.2-.67-.27-.22.22-.81.12-1.06-.14-.4.04-.19.5-.14.8-.6.39-.19.84.06.37.02 1.64.93-.1.22-.04.09-.44-.06 1.05 1.24-.05-.23.35-.09.85.45.69 1.25.17.3-.02.36.11.11.13-.07.86-.41-.19-.36-.02-.03.03-.01.21-.06.73-.02.46-.17.97.22.11.21 1.3.15.23.12.74.07.17.19h.52l.13.47.5.13.26.07.42-.02 1.51-.45.58-.05.61-.26.54-.37.58-.1.22-.02.55-.04.8.49.66.39.71.18.95-.19 1.45-.6.38-.16.36.07.33-.22.39.55.44.33.83.02 1.07-.39 1.23-.61.41-.6.2-.05.92.66.2.09 1.32.26.61.29.67.33-.56.01-.01.2.45.18.86-.03 3.51-1.01h1.88l.13-.15.09-.09.16-.53.03-.38-.03-.12-.19-.62.08-.25.33-.25.51-.04 1.13.34 2.78 1.29.49.31.57.64.39.76.81 1.48.58.32.84.23 1.21.2.34-.05.64.18.73.61.48-.13 1.06-.55.45-.4.12-.5-.04-.8 1.24.63.96.38.66-.33.56-.29.59-.14 2.42-.02.63-.11.56-.27.94-.72.31-.01.97.22.44.23.21.61.29.34.53.14.23.06 3.71.99 1.73 1.1 1 .8.64.92.32.29.46.15.51.02.75.02 3.86-.13 1.61-.33 2.16-.95 1.21.38.7.21 2.69-.12 2.07.43 1.16-.04 1.26-.6.43.02.5.2.83-.05 2.3-.11.68-.21.89-.66.99-.07.66-.26.65.03.66-.61 2.37-.68.16-.04 1.33-.17.89-.38.09-.14.68-.11.92-.35 1.45-.36 1.41-.79 1.19-.02 1.36-.72 1.45-.75.64-.34 1.86-.56.36-.34-.63-.68.63-.65.67-.36.26-.26.56-.22.69-.27.11-.4-1.18-.77-.5-.83-.46-.1-.96-.43-.79-.84-.47-.78-.52-.35-1.22-.07-.5-.26-.06-.09-.09-.14-.89-.43-.1-.22.04-.43-.19-.2-.48-.51.03-.14.21-.26 1.34-.72 1.64-1.17.47-.26.53.04.1.15-.18.6.06.35.26.44.87.78.46.88 1.95 2.09 1.73 1.47 1.82 1.3.52.34.27-.5.19.59.15.06.15-.6.34-.27.8-.08 1.28-.14.22-.14.1-.15-.23-.36.05-.51.46.15.11.04.24.56.18-.02.37.23.74.04.48-.15.89.09 1.1-.11.21-.17-.1-.31-.82-.49-.02-.32.31-.13.3.22.79.18 1.28-1.15.1-.09 1.93-.91 1.26-1.01 1.19-2.11.17-.16.45-2.24.33-.51-.16-.32.27-1.04.5-.55.69-.39.45-.06.51.13.71.45.05.01.3.03.17-.2-.13-.58-.56-.44-.57-.17-.36-.37.11-1.32.95-.26.72-.02 1.01.35.23-.76.21-.12.18.02.33.51.36.27.14-.1.04-.02.04-.03.25-.31.24-.71 1.66-1.2 1.2-1.6.03-.18-.27-.54-1.76-.94-1.42-.58-1.29-.53-.26-.27.1-.17.56.01 1.16.33.31.19 2.02.1.61-.22.84-.79.59-1.68.96-.85.48-1.6.15-.49v-.35l-.1-.4-.37-.2-1.23.14-.26-.18-.12-.24.25-.51.29-.1.25-.1 2.18-.38.53-.37.38-.46-.19-.19-.68-.27-.36-.3.03-.08.02-.09.14-.12 1.35-.19 1.05-.3.44-.31.1-.22-.21-.33-1.27-.42-.23-.23.08-.2 1.22-.97.1-.18-.04-.23-.24-.08-.43.56-.24.03-.15-.3v-.73l-.19-1.22.13-.49.7-.6.03-.17-.34-.04-.72.26-.75.46-.04-.13 1.63-1.22 2.07-.82-.2-.19-.1-.01h-.14l-2.6 1.43-.56.53-.17-.09-.36.16-.18-.11.12-.2 1.93-1.2 1.56-1.51.25-.38.46-.72.18-1 .08-.12.11-.14.2.01.63.48 1.24.36.57.18.47.6.1.56-.28.5.28.04.12-.14.5-.17.16-.3-.49-.85.01-.25.76.08.32-.41.56-.1.11-.24-.38-.47.21-.34.41-.19.43-.06.06-.15-.24-.24-.21-.01-.7.33-.15-.08-.11-.14.17-.31.34-.13.26-.42-.08-.18-.72.24-.3-.07-.01-.25.48-.38.63-.22.14-.12 1.78-.49.49-.22.37-.17 1.05-.65 1.62-1.39 2.11-1.05 1.46-.89 1.34-1.29.91-.87 2.02-1.27.61-.27.87-.11 1.15-.33.39-.17.43-.18 1.4-.6.88-.49.69-.51.1-.07.35-.26-.52-1.11 1.35-.05.09.28 4.24-4.12.48-.52 2.97-3.2 3.17-4.02.11-.15 1.36-2.13 1.59-1.93.81-.99.18-.26.52-.74.32-.06.37.23.85.55.41.39 1.94 1.78.2.46-.26.55-.58.6-.52.38-.47.14-.15.29.09.18.41.17.51-.08 1.15-.99.32-.06.09-.39-.17-1.25-.16-.22-.81-.47-.89-1.34-.13-.11-.28-.23-.55-.24-.56-.24-.43-.29-.02-.18.86-.43.91-.64.76-.7.47-.67.96-1.39.19.14-.35 1.43v.03l.1.38.24.09.1-.25-.01-.06-.08-.57.06-.47.26-.27.26.03.07.13-.08.28.16.3.2.02.23-.2.15-.45-.09-.47-1.06-.68 1.48-2.12.42-.1.54-.67.19-.04.01.07.01.09-.07.12-.71 1.25-.09.38-.32 1.43.17.16.26.01.12-.14.02-.02.13-1.96.8-1.22.27-.6.77-.6.89-.93.68-.71.92-.71.47-.02h.02l.21.35-.19.21.13.28-.04.46.16.33.37.23.5.08h.02l.08-.13.11-.19-.3-.26-.27-.29.22-.62.3-.21.81-.05.96-.71-.02-.24-.76-.19-.28-.18-.06-.04.14-.25.16-.09 1.32-.73.2-.25.01-.01-.06-.21-.17-.11-.44.16-.18-.15 1-.5.24-.21.3-.26.15-.41-.03-.37-.15-.21-.31-.06-.72.5-.17-.15 1.62-2.08.12-.22 1.06-1.87.65-1.35.45-.94.69-.88.12-.07.54-.33.4-.11.3.06.09.15-.6.58-.07.43-.04.27-.45.86-1.61 1.86.14.17 1.2-.25.29.13.14.26-.07.22-.26.25-.55.18-.25.21.3.12.57-.03.44-.31.29-.69.24-.1 2.63-.17 1.12-.46.17.1-.36.37-.18.19.18.05.12.03.36-.16.48-.34.88-.63.49-.34-.19-.23h-.03l-.36-.05-.27.18-.25-.55.04-.52.5-.41.36-1.16.77-.66.8-.97.05-.04 1.51-1.03.24-.45 2.52-1.13.91-.67.44-.43.7-.71.77-1.23h.2l.02.08-.03.08-.29.64.13.08.03.02.16-.15.54-.52.54-.29.9-1 .01-.6 1.1.01 2.41-.47 1.52-.92.14-.09 4.61-4.2.71-.8.07.17.15.37-.07.44-.19.39-.34.13-.16.19.15.23.48.26.53-.12.28-.37.2-.78.36-.25.24-.17-.08-.21-.01.01-.5.28-.27-.02-.14-.25.35-.24-.16-.26.3-.33.95-1.03 1.05-1.7.11-.23 1.11-2.47.21.32-.19 1.02.18-.05.15-.24.28-.82.25-.04.47.24.27-.07.15-.62.74-.45.12-.33-.06-.32.42-.54.05-.06.08-.11.21-.46-.12-.1-.11.04-.05.01-.77.91-.13.66-.42.04-.64.78-.2-.08-.06-.33.95-2.02.31-.94.67-1.1.37-.6.13.28.03 1 .04.13.18-.09.11-.81.04-.37-.24-.81.21-.67.43-.88.47-.98.32-1.44.13-.58.19-.89.28-1.28.42-1.09.26-.32.08.01 1.63.31 1.44-.5 1.88.28.77.9.39 1.64-.31 1.57.01.04.02 1.47.31 1.29-.8 5.27-.45.94-.04.08.15.78-1.02 3-.17 1.17v.22l.01.48.01.61 1.05 2.45.07.16-.18.42-.37.88-.23 1.96.12 3.8.17.6.29.37.2.27.3.28 2.74 2.52 1.5.66.12.05.03.01.41.09.88-.41.45-.38.24-.2.96-.78.25.6.39.41.45.27 1.78-.02 1.22.41.77.26.44.15.47.35.3.5.07.56-.16.9.12.75.89 2.7.06.25-.44 2.24.08.88-.22 1.93-.03.25.25.97.19.73.01.12.01.43-.06 1.38-.15.75-.24.54-.51.36-.04.31.29.84.35.38.43.02.05-.07.26-.36.18.34.03.45.49.26-.06.48.14.53-.12.83-.02.13-.43 2.89-.69 2.98.06.45-.35 4.68.14 2.15.38 4.23.04.48.25 2.71-.37.75-.23.09-.19-.2-.18-.03.05.58.18.11.17.42.19.5.25.24.1-.24.06-.13-.14-.4.05-.32.14-.08.12.93.55 1.6-.24.01-.44.03-.3.03-.29.04h-.04l-.24.03-.77.27-.13.2-.02.02-.2.31-.13.49-.03.09.1.95.15 1.05.03.23v.01l.11.84.01.06.04.52-.05.56-.41.48-.57.28-.61.17-.45.1-.25.07-.27.07-.65.13-.17.32-.15.57-.08.12-.17.27-.21.29-.3.36-.15.16-.27.25-.53.13-.75.23-.94.41-.64.14-.57.11-.35-.03-.33-.02-.58-.05-.45.12-.39.25-.44.39-.01.01-.36.63-.16.67-.05.17v.13l-.01.67-.14.57-.11.35-.18.28-.74.14-.47.16-.39.13-.13.22-.13.4-.17.61-.13.62-.4.28-.58.19-.48.16-.74.18-.89-.1-.26-.03-.44-.05-.63.04-.45-.13-.45-.11h-.03l-.62-.14-.5-.38-.45-.39-.09-.61-.17-.11.2-.36-.06-.13-.04-.08-.45-.31-.47-.56-.3-.59-.3-.43-.13-.29-.1-.23-.13-.41.08-.34-.03-.55.03-.48-.16-.23-.19-.13-.32-.23-.53-.4-.48-.4-.43-.33-.02-.02-.19-.24-.18-.22-.02-.03-.42-.61-.2-.44-.1-.45.11-.32.3-.29.82-.31.51-.02.64.16.84.41.35.41.59.43.47.31.3.16.19.1.14-.19-.18-.31-.32-.53-.35-1v-.12l-.04-1.01-.05-.97-.17-.84-.14-.66-.35-.77-.43-.76-.73-.42-1.56-.64-1.36-.07-.94-.18-.42-.08-.74.16-.91.09-.69.28-.75.34-.8.35-.68.36h-.01l-.73.42-.42.25-.36.21-.53.38-.01.01-.27.31-.09.11-.19.2-.27.3-.04.05-.22.3-.03.06-.55.64-.02.02-.53.65-.23.27-.23.28-.16.2-.25.3-.04.04-.5.58-.03.04-.2.27-.08.11-.09.14-.22.66-.04.58-.08.9.11.82.17.79.03.12.2.69.1.72.14.71.13.66v.02l.27.6.16.61.01.51-.01.13-.03.44-.23.76-.12.53-.16.77.22.66.2.88.04.19.36.69.28.72.28.52.14.28.06.13.21.49.13.32-.09.42-.18.37-.41.44-.58.47-.43.29-.47.44-.05.38.01.53.11.78.12.46-.02.28-.1.3-.49.32-.64.28-.37.19-.44.3-.08.45-.08.62.33 1.09.03.83.46 1.08.06 1.47v1.23l.02 1.03-.11.52-.09.57.03.58.14.57.47.23.57.47.52.41.25.21.44.44.32.48.09.42.08.43.06.77.02.65.02.66.01.52-.06.44-.03.27-.02.65-.43.49-.26.47-.58.68-.27.36-.19.27-.22.33-.53.85-.71.95-.3.76-.21.8-.3.88-.02.4.26.3.41.22.6.14 1.07-.02 1.13-.15.54.26.56.22.34.19.14.07.1.06.5.28.51.03.52-.11.26-.16.19-.12.29-.18.88-.38.71-.32.18-.1.45-.23.8-.04 1.12-.05.77-.05.09.08.07.07.28.26.24.34-.07.51-.02.19.11.43.12.31.24.34.35.28.16.13.05.18.07.31.03.44.02.14.11.86.09.64.1.74.65.8.75.83.45.73.24.4.36.67.3.42.33.55.13.39.1.53-.4.28-.05.02-.68.24-1.75.45-1.1.28-4.08.92-.86.19-2.39 1.18-1.66.77-.3.14-.28.13-.22.08-.51.17-.71-.08-.62-.46-1.07-.68-.39-.56-.75-.08-.71.26-.81.37-.67.21-.86.14-.73-.04-1.08-.3-2.34-.11-1.36-.05-1.25-.01-.91.22-.88.41-.6.38-.6.42-.49.39-.41.24h.98l-1.38.55-1.34.6-.89.26-.56.38-.05.04-.23.05-.76.2-.85.07-1.04.11-.81.03-.87.22.14 1.38.22.84.02.09.58.47.67.38.87.56.9.51 1.09.32.63.48.71.34.34.62.24.74-.01.21-.05 1.02-.21 1.37-.03 1.08.17.73.04.65.08.51.13.58.11.61-.03.7-.25.75-.43.63-.55.75-.93 1.08-.02.02-.9.88-.71.87-.52.85-.51 1.14-.36.78-.37 1.24-.06 1.57-.14.88-.06.75-.12.65-.16.59-.44 1.2-.32 1.31-.37.65-.57.65-1.09.74-.99.8-.71.68-.63.72-.55.63-.41.69-.15 1.03-.17.78-.25 1.1-.29 1.7-.6 2.17-.41 1.51-.33 1.66-.62 1.48-.34.93-.37.98-.29.88-.29.57-.37.65-.5.57-.24.31-.26.34-.47.68-.27.83-.32.72-.74.83-.8 1.09-.47.84-.42.74-.72 1.18-.62.64-.39.7-.44.66-.18.55-.19.55-.03.78-.23.47-.03.89.13.63-.55.82-.53 1.1-.49 1.2-.15.75.01.99-.02.67.03.84.02.67.02.53-.11.78-.16.65-.06.86.05.6.14.71.09.73v.07l.03 1.06.08 1.32.06.75.07 1.21.03 1.48.11.59-.29 1.47-.15 1.14-.52 2.45-.24.81-.05.45.17.63.09.45.02.24zM34.16 146.62l.42-.16.35-.56.35-.02.96.87.23.54.44.33.08 1.24-.35.86-.59.83-.54 1.11-.18-.47-.37-.42-.32-.37-.39-.26-.51-.06-.4-.39-.09-.5-.47-.83.78-.89.43-.77.17-.08zm159.69 3.26-.9-1.11-.03-.43-.43-.74.15-.25.79.77.26.44.19.86-.03.46zm-2.41 5.96-.16.09-.33-.06-.84-.5-1.16-.46-.77.02-1.18.18-.33-.12-.8-.57-1.77-.47-.85-.53-.27-.16-.73-.63-.73-.36-1.62-.31.15-.28 1.27-.93.62-.78.79-.49 1.15-1.26.22-.62.07-.22.21-.15.5.21.3.32-.45.55-.13 1.07.22 1.05.61 1.21.02.37.16.29 1.05.7.85.26.55.03.48.01.63.07.02.01 1.48.49-.1.13-.42-.07-.02.14 1.1.35.36.32.15.53-.13.48-.17.09zm.13-8.82-.41-.27-.3-.41.06-.23.23-.12h.35l.46.18.71.55-.05.18-1.05.12zm2.98-.07-.46.02-.19-.36.13-.39.29-.04.44-.28.42.1.12.21-.24.39-.51.35zm3.27-2.1-.25-.01-.76-.32-1.48.15-.44-.14-.21-.16.01-.2-.65-.42.03-.2.71.07 1.1.35.72-.09.36.24.49.03.27.11.2.4-.1.19zm-8.09 3.74-1.45-.45-.3-.24-1.56-.58-.32-.24.03-.18.4-.3.68-.28 1.52-1.05.63-.77 1.03-1.25.42-.31.14.21-.12.27-.4.48-.11.32-.59.65-.27 1.5-.27.33-.44.05-.1.15.14.26.99.73.12.33-.04.28-.13.09zm1.57-4.44-.52-.01-.01-.17.88-.08.31.17-.12.12-.54-.03zM52.71 127.59l.4-.32.4-.03.43.25.4.84-.51.77-.31-.03-.81-1.28v-.2zm21.42-10.31.26-.09.51 1.03-.13.37-.29-.12-.13-.51-.42-.42.2-.26zm126.02 25.44-.7-.28-.45.05-.24-.14-.14-.17-.16-.62-.14-.55-.51-.94.12-.27.85-.08.2-.11.17-.57.16-.09.23.11.09.52.39.25.75.08-.54.21-.38.36-.18.51.12.36.42.45.23.47-.06.24-.23.21zm-3.37-1.22-.93-.26-.52.24-.08.01-.68.06-.78-.05-.59-.19-.34-.32.18-.12 1.08-.03.57-.34.78-.87.61-.22.31.04.16.26-.07.23-.7.61.04.15.89.38.15.21-.08.21zm2.63-4.36-1.46 1.25-.36.14-.15-.14 1.12-1.12.61-.1 1.22-.96.2.08.14.33-.1.17-1.22.35zm5.14-4.71-.49.57-.25.04.52-.65.22.04zm6.68-4.99-.68-.04-.18-.14-.25-.71.26-.79.04-.52.2-.37.48.22.58-.08.06.14-.2.37-.08.44-.35.33.1.59.57.35-.55.21zm-1.71-2.4-.25-.01.15-.34.57-.33.65-.15.15.19-.16.19-.49.1-.62.35zm-119.49-2.16-.43-.16-1.06-1.37-.07-.74-.04-.35.15-.28.29.04.87.11.62 1.07-.33 1.68z"/>
        <path d="m42.37 65.03-.14-.07-.01-.65.26-.29.4-.08.37.63-.42.33-.46.13z"/>
        <path class="om" d="m311.94 647.03.19.08v.15l-.08.18-.16.08-.15-.16.04-.14.16-.19zm-39.44 11.05.02-.09.14-.42-.11-.35.13-.33.23-.01.32-.08h.28l.1.38-.28.34-.25.15v.16l.03.16.02.07-.27.13-.26.11-.13-.09.03-.13zm18.03-1.35-.08.05-.09-.02-.41-.11-.29-.17-.23-.31.25-.22.4-.35.27-.33.32-.22.39-.02.54.25.56.42.52.21.17.06.3-.07.03.08.14.29.03.26-.27.26-.08.3-.04.13-.06.02-.53.01-.18.2h-.17l-.25-.24-.31-.16-.13-.26-.1-.17-.02-.03-.43-.01-.25.15zm35.05-1.24.05-.26.24-.29.54.15.43.01.04.06.23.31.15.27-.2.26-.16.14h-.23l-.16-.11-.23-.08-.23-.15-.19-.04-.31-.12.03-.15zm-23.76 1.47-.42-.22-.5-.12-.28-.04-.3-.12-.28.04-.31-.21-.3-.23-.25-.21v-.33l-.04-.19-.07-.21.08-.31.2-.22.31-.17.51-.22.53-.16.39-.18.23-.28.55-.05.31.06.31-.09.37-.16.3-.11.37-.09.33-.16.55-.24.53-.53.14-.3.37-.13.18.14.19.32.08.97.17.6.2.46.43.16.66.19.35.16.31-.11h.19l.3.04.09.14.04.14-.2.26-.08.15-.04.07-.37.13-.33.13-.37.12-.45.24-.3.32-.41.05-.2.16-.45.28-.35-.03-.15.08-.37-.03-.3.11-.23-.09-.27-.05-.31.15-.37.11-.26.03-.11-.09-.2-.19-.27.03-.42.04-.01-.01zm198.15-437.11-.45.23-.25-.13.01-.41.19-.05.7.13-.2.23zM326.53 16.45l-.2-.06-.2-.53.06-.5.6-1.28-.05-.55.14-.23.47.16.19.37-.21.49.03 1.15-.15.55-.31.29-.37.14zM308.23 35l.24-.27.43-1.11 1.4-1.63.42-.48.35-.67.16-.31.47-.47.89-.37.45-.43.38-.65.35-.97.17-.49.53-2.25.65-1.33.43-.52.56-.35.7-.79.26.19.16.58-.08 1.08.18.57.24.75-.04.62.13.18.31-.09.49-.59.27.06.31.52.42.23.08.05.26-.14.44-.92.19-.16.37.01.49.38.48-.58.26.09-.02 1.15.22-.02.32-.42.27 1.34.24.28.6.14.27-.06-.04-.15-.52-.35.35-.06.21.08.9.33.4-.16.28.05.32.54.28-.02.27-.22.42-.82.34-.38.18-.48.57.2.81-.13h.83l.73.5.48.13.07-.67.56.16.04.01.05-.11-.13-.27-.63-.55.02-.18.39-.01.12-.29-.18-.41-.31-.06-.73.22-.09-.77-.36-.04-.19.45-.18.09-.18-.66-.39 1.35-.26.14-.44-.99-.3-.05-.13.15-.88.94-.27.1-.26-.24-.5.89-.5.57-.45.28-.63-.01-.46-.29-.2-.46-.13-.68.09-1.11.38-.93.52.04.1-.16-.01-.06-.17-.65.19-.47-.06-.4.22-.67-.06-.43.12-.4.46.12.45.58.47.17.23.53.41.27.3.63.16.14.6.07.37.31.16-.05.4-.6-.12-.29-.31-.2-.51-.35.1-.13.3-.06-.04-.13-1.17-.27-1.81-1.72.64-1.02.2.01.3.26.3.03.49-.48.37.26.2-.07.28-.85-.08-.37-.05-.26.07-.35.44-.87-.06-.88.09-.73.46-.83.25.15.07.18-.42.89.04.2.15.04.18-.15.36-.56.52.41-.5.67.1.24.33-.18.25-.28.38-.44.24.21-.17.55.08.28.2-.04.44-.87.17-.08.22.11.1.18-.23.4.01.4-.25.54-.01.28.25.26.29-.07.74-.63.57.16.28-.13.15.12-.21.83.09.38.12.14.1.13.37.06.33-.09.55-.41.07.61.17.25.18.03.64-.21.85-.05.74.1.25-.09-.43-.47-.27-.6-.88-.43-.24-.28.1-.3.41.08 1.01.62.29-1.03.15.08.31-.04-.01 1.15.33.89-.28.46.04.16.96.13.07.15-.35.57-.18.12-.74.04-.44-.11.14-.34-.17-.11-1.48-.01h-.9l-.31.15-.23.46-.38.29-.23-.36-1.43.22-.07.2.27.63-.05.22-1.71.05-.51.12-.2.27.04.2.61.65.12.33-.09.26-.22.1-.25.12-.14.27.13.16.55.14-.14.35.45.23.44-.21.18.05.14.18-.05.53.18.33.5.09.72.45.5-.01.63-.69-.14-.63.12-.25.96.78.24.04.41-.1.37.39.57.04.06.11-.18.27-.37.09-.33.27-.13.42.02.38.66 1.46-.21.23-.72.26-.17-.58-.45-.34.29-.63-.04-.28-.37-.35-.39.03-.51.39-.52.41-.11.26.09.5-.11.19-.44-.03-.06.5.24 1.63.2.19.39.11.38-.49.16-.05.52.12.41.33.43 1 .24.1.4-.24.13.11v.7l-.01.45-.25.02-.31.27-.19.01-.15-.53-.21-.17-1.58-.05-1.47.41-.35-.14-.21-.23-.22-.71-.5-.44-.01-.28.29-.39-.15-.63.41-.8.04-.07-.16-.35-.17-.01-.5.49-.75.41-.26.32-.2.99-.34.37-.39.16-.14-.07-.06-.18.31-.92-.24-.76.15-.37.99-.37.32-.35-.26-.36-.51-.14-.59-.16-.47.13-1.17 1.22.21.47-.35.49-.33.23-1.14.08-.41.18-.16.33.25.4.16.79.26.08.49-.91.21.33-.13.32-.39.94.12.29-.41.56-.22.92.03.43.68-.01.24-.16.29-.92.4-.8.39.06.34-.14.53-.44.29.02.17.28-.03.29-.33.79-.47 1.13.08.32.35-.09.38.37.29-.04.16-.15.56-1.27.35.02.13.14.2.72.19-.02.41-.39.26.13.04 1.03.23.18.53-.28.93-.13.66-.09 1.78.49.04.17-.38.29-.92.32-.47.27-.34.45-.24 1.34-.25.35-.83-.2-.75.26-.27-.41-.29-.07-.29.08-.52.16-.21.22-.29 1.04V39l.19.19.56-.42.29-.06.49.24.39.06.58-.14.4.04-.13 1.1.3 1.26-.05.35-.3-.16-.25.07-.59.65-.04.04-.56.36-.18.27.27.26.92.26.45.26.11.32-.16.66.58.59.3.15.88-.6.35-.08.17.15-.69.58-.29.7-.72-.18-.54.21-.3.12-1.38-.71-.29.12-.2 1.67.21.43.67.23.06.2-.17.54-1.21 2.28-1.02-.08-.11.01-.27.01-.18.16.02.19.84.49.13.21-.08.22-.31.2-.76-.11-.19.22.52.47-.02 1.46-.54.24-.22.99-.2.2-.15-.03-.4-.84-.14.09-.06.6-.09.88-.73 1.64-.34.46-1.21.97-.31-.03.93-1.83-.22-.14-.29.2-.73 1.14-.19.22-1.86 2-.09.35.48.81-.19.53.2.7-.84 1.28-.16.55-.1.33-.06.47.21 1.07-.96.78-.24.2-.45.38-.88.41-.41-.09-.03-.01-.12-.05-1.5-.66-2.74-2.52-.3-.28-.2-.27-.29-.37-.17-.6-.12-3.8.23-1.96.37-.88.18-.42-.07-.16-1.05-2.45-.01-.61-.01-.48v-.22l.17-1.17 1.02-3-.15-.78.04-.08.45-.94.8-5.27-.31-1.29-.02-1.47-.01-.04.31-1.57-.39-1.64-.77-.9-1.88-.28-1.44.5-1.63-.31-.08-.01zm26.67-20.85-.87-.3-.14-.35.13-.22.67.26.4.02.06.13-.25.46zm4.64.46-.61-.04-.15-.16.05-.17.49-.36.47-1.28.33.11.21.89.4.53-.18.25-.31.14-.7.09zm152.52 445.22.33-.29-.57-.93-.09-.41.11-1.34-.24-.32.08-.48-.17-.55.46-.74-.01-.25-.22-.37.29-.33.44-1.57-.25-.19-.09-.35.1-.46-.19-.54.21-.76.34-.21.89-1.08-.08-.15.13-.28.82-.63.86-.72.56-.44.13-.93.23-.32.9-.64.28-.72.2-.16.26-.05.83.63.28.09.43-.12.86.22.69-.19.09-.11.13-.15.16-.22.55-.17.53-.63.02-.01.04-.16.2-.94.49-.69.07-.1-.01-.03-.27-.78-.05-.86.27-.2.2-1.14-.06-.47.19-.56.26-.43 1.01-1.67.4-.39.08-.07.13-.13.39-1.39.26-.14.68-.78.79-.91 1.43-.75.23-.53-.16-.68.06-.3.06-.13.44-1.01.02-.55.05-.14.23-.62-.04-.53-.05-.9.73-.47.17-.11.68.05 1.05.37.29.42.12.9-.18.2-.47 1.44-.41 2.18.29 1.83v.01l.02.02.1.13.36.44 1.66.9-.19 1.03.32.62-.12.36-.05.16.18.12.64 1.33.13.13.74.22.2.23.02.24-.8.76-.28.51-.71.4-1.09.41-1.08.45-.3.47-.9.36-1.16.46-.77.48-.38.23-1.08.84-.11.25.06.3-1.23.86-.58 1.15.22.59-.45 1.12-1.21 1.48-.06.07.09.05.14.08-.11.61.06.46-.24.63-.02.69-.73 1.08-.55.55-.07.14-.16.31.08.09v.01l.13.16.17.23-.08.41.31.34-.13.2-.82.4-.28.57-.53.03-.48.47-.94.41-.25.68-.43.32-.62 1.5-.51.28-.63.53-.12.05-2.45.9-.22.18-.04.19-.13.55-.62.79-.21.03-.56-.24-.48.3-.23-.15-.51-1.38.28-.67-.1-.87zm8.87-20.01-.12 1.4.27.3.03.21-.2.27-.75.42-.21.01.09-.94.89-1.67zm-41.82-5.65-.32-.16-.43-.39-.03-.07-.22-.43.06-.03.79-.33.04.54.29.6-.18.27zm37.83-9.92v-.65l.2-.36.36-.24.13.4-.13.47-.17.28-.39.1zm-31.47 11.18-.36.13-.25-.2.23-1.15.27-.43h.26l.2.2-.35 1.45zM92.43 716.93 71.1 671.25l-4.82-.64-.23-.54.02-.05.02.02.6-.14-.06-.11 2.29-3.18L12.3 547.17l217.13-72.38 30.58-91.74 17.68-53.01-33-51.1-.02-.24-.09-.45-.17-.63.05-.45.24-.81.52-2.45.15-1.14.29-1.47-.11-.59-.03-1.48-.07-1.21-.06-.75-.08-1.32-.03-1.06v-.07l-.09-.73-.14-.71-.05-.6.06-.86.16-.65.11-.78-.02-.53-.02-.67-.03-.84.02-.67-.01-.99.15-.75.49-1.2.53-1.1.55-.82-.13-.63.03-.89.23-.47.03-.78.19-.55.18-.55.44-.66.39-.7.62-.64.72-1.18.42-.74.47-.84.8-1.09.74-.83.32-.72.27-.83.47-.68.26-.34.24-.31.5-.57.37-.65.29-.57.29-.88.37-.98.34-.93.62-1.48.33-1.66.41-1.51.6-2.17.29-1.7.25-1.1.17-.78.15-1.03.41-.69.55-.63.63-.72.71-.68.99-.8 1.09-.74.57-.65.37-.65.32-1.31.44-1.2.16-.59.12-.65.06-.75.14-.88.06-1.57.37-1.24.36-.78.51-1.14.52-.85.71-.87.9-.88.02-.02.93-1.08.55-.75.43-.63.25-.75.03-.7-.11-.61-.13-.58-.08-.51-.04-.65-.17-.73.03-1.08.21-1.37.05-1.02.01-.21-.24-.74-.34-.62-.71-.34-.63-.48-1.09-.32-.9-.51-.87-.56-.67-.38-.58-.47-.02-.09-.22-.84-.14-1.38.87-.22.81-.03 1.04-.11.85-.07.76-.2.23-.05.05-.04.56-.38.89-.26 1.34-.6 1.38-.55h-.98l.41-.24.49-.39.6-.42.6-.38.88-.41.91-.22 1.25.01 1.36.05 2.34.11 1.08.3.73.04.86-.14.67-.21.81-.37.71-.26.75.08.39.56 1.07.68.62.46.71.08.51-.17.22-.08.28-.13.3-.14 1.66-.77 2.39-1.18.86-.19 4.08-.92 1.1-.28 1.75-.45.68-.24.05-.02.4-.28-.1-.53-.13-.39-.33-.55-.3-.42-.36-.67-.24-.4-.45-.73-.75-.83-.65-.8-.1-.74-.09-.64-.11-.86-.02-.14-.03-.44-.07-.31-.05-.18-.16-.13-.35-.28-.24-.34-.12-.31-.11-.43.02-.19.07-.51-.24-.34-.28-.26-.07-.07-.09-.08-.77.05-1.12.05-.8.04-.45.23-.18.1-.71.32-.88.38-.29.18-.19.12-.26.16-.52.11-.51-.03-.5-.28-.1-.06-.14-.07-.34-.19-.56-.22-.54-.26-1.13.15-1.07.02-.6-.14-.41-.22-.26-.3.02-.4.3-.88.21-.8.3-.76.71-.95.53-.85.22-.33.19-.27.27-.36.58-.68.26-.47.43-.49.02-.65.03-.27.06-.44-.01-.52-.02-.66-.02-.65-.06-.77-.08-.43-.09-.42-.32-.48-.44-.44-.25-.21-.52-.41-.57-.47-.47-.23-.14-.57-.03-.58.09-.57.11-.52-.02-1.03v-1.23l-.06-1.47-.46-1.08-.03-.83-.33-1.09.08-.62.08-.45.44-.3.37-.19.64-.28.49-.32.1-.3.02-.28-.12-.46-.11-.78-.01-.53.05-.38.47-.44.43-.29.58-.47.41-.44.18-.37.09-.42-.13-.32-.21-.49-.06-.13-.14-.28-.28-.52-.28-.72-.36-.69-.04-.19-.2-.88-.22-.66.16-.77.12-.53.23-.76.03-.44.01-.13-.01-.51-.16-.61-.27-.6v-.02l-.13-.66-.14-.71-.1-.72-.2-.69-.03-.12-.17-.79-.11-.82.08-.9.04-.58.22-.66.09-.14.08-.11.2-.27.03-.04.5-.58.04-.04.25-.3.16-.2.23-.28.23-.27.53-.65.02-.02.55-.64.03-.06.22-.3.04-.05.27-.3.19-.2.09-.11.27-.31.01-.01.53-.38.36-.21.42-.25.73-.42h.01l.68-.36.8-.35.75-.34.69-.28.91-.09.74-.16.42.08.94.18 1.36.07 1.56.64.73.42.43.76.35.77.14.66.17.84.05.97.04 1.01v.12l.35 1 .32.53.18.31-.14.19-.19-.1-.3-.16-.47-.31-.59-.43-.35-.41-.84-.41-.64-.16-.51.02-.82.31-.3.29-.11.32.1.45.2.44.42.61.02.03.18.22.19.24.02.02.43.33.48.4.53.4.32.23.19.13.16.23-.03.48.03.55-.08.34.13.41.1.23.13.29.3.43.3.59.47.56.45.31.04.08.06.13-.2.36.17.11.09.61.45.39.5.38.62.14h.03l.45.11.45.13.63-.04.44.05.26.03.89.1.74-.18.48-.16.58-.19.4-.28.13-.62.17-.61.13-.4.13-.22.39-.13.47-.16.74-.14.18-.28.11-.35.14-.57.01-.67v-.13l.05-.17.16-.67.36-.63.01-.01.44-.39.39-.25.45-.12.58.05.33.02.35.03.57-.11.64-.14.94-.41.75-.23.53-.13.27-.25.15-.16.3-.36.21-.29.17-.27.08-.12.15-.57.17-.32.65-.13.27-.07.25-.07.45-.1.61-.17.57-.28.41-.48.05-.56-.04-.52-.01-.06-.11-.84v-.01l-.03-.23-.15-1.05-.1-.95.03-.09.13-.49.2-.31.02-.02.13-.2.77-.27.24-.03h.04l.29-.04.3-.03.44-.03.24-.01.01.03.37 2.61.64 1.61.75 1.89.95 2.11.19.53.36 1.05 1.66 2.79.28.47 1.79 4.73.86 2.28.56 1.05 2.61 4.82.33.92 1.01 1.28.6 1.07 1.45 1.76 1.83 2.83 1.14 1.49 3.09 2.86 1.09 1 .84.62 1.28.72.89.75 2.64 3.48.8 1.05 4.68 5.9.34.45 1.91 2.62 1.2 1.19 1.29 2.41 1.2 1.25.68.71 1.42 1.94 2.46 2.07 2.37 1.72 3.73 2.72 2.79 1.99.42.46 1.25.89.46.67.81.75 1.16.84 1.18.51.66.56 1.09.48.18.17 1.1.27 2.56 1.04.43.21 1.28.33 1.7.71.87.25 4.22 1.19.08.02.71.26 1.05.28 1.42.36.93.23.7.41.77.06.41.15 1.12.4 1.52.33.81.41 1.39.55.65.08.98.59.95.26.93.39 1.9.81 2.49.63.38.34.27-.23 1.09.53.63.09.86.28 2.64.4.65-.02.4.1.18-.11 3.04.11 1.69-.72.29-.07.43.84-.81.86.35.11.4.37.19-.04-.16-.39.19-.39.42.34.16.28.37.21.77.74.51.17 1.45.97.8.22.52.38.16-.05 1.31.42.72.06 3.54.04.52.01 1.32-.22 3.05-.15 1.28-.16 3.26.05.47-.07.69.29 1.53.16h.04l.98.22 2.42.9.6.32 1.04.35 1.28.76.11.15.34.12 1.38 1.08.69.58.45.22.08.3.59.26.67.51 2.48 1.06.1.25v.02h.05l3.37.32.15-.17 2.87.17 1.15-.02 3.35-.56 2.03-.92.37-.58.35-.32.21-.45.25-.06.76-.03.39.18.39.51.12.15.42.28.43.05.44-.17.43-.03.34.19h.52l.96-.35.14.12.03.11.04.2-.24.38.08.22.06.03.14.06.18-.17.26.05.19.05.22-.13.34.15.36-.02.4.27.27.04.56.85-.49.39.61.63.03.27-.11.28.1.25.28.15.37.62 1.1.47.6-.12.24.2.23.44-.02.23.25.21.24.07.47-.57.64.92.08.42.82.15.45.19.36.02.52-.15.27.1.2.87.38-.84.77.06.28.34-.03.68-.13.23.75.55-.24-.65.07-.23.76.26.21-.48.61.11.13.54.52.26-.42.3 1.26 1.21.42.75-.05.52.31 1.55-.02.15-.03.6-.02.39.3 1.02.67.61.37.97.81.68.09.07.87.43.79.6.66.3.33.55.6.48 1.59.91.35.52.55.46.57.15.94.53-.12.52.41.58-.06 1.32.02.34.03.12.07.25.19.14.07.2.09.8.82.98 1.68 1.11.44.18.77.8.76.46.23.14.2.67.21.17.02.76-.1.4-.01.06-.12.82.21.88 1.48 2.64.57.91 1.53 1.1.65.47.1.26.26.8.49 1.57 2.04 2.06 1.57 1.06.84.83 1.06.49.34.11.76.61.78.3.94.19.58.46.53.5.05.14.11.34.86 1.37.57 1.67.51.86-.06 1.01.1.35.61.51.22.53.15 1.01.73.89.87 1.2.32.43.46 1.51.75.98.19.83.53.85 1.36.69.61-.18.36.24.8.08.37.28.51 1.71.55.72.55.39 1.06.4.17.27.17 1 .26.35.61.58.46.18.66.53 1.24.55 1.35 1.61 1.71 1.53.81.37.28.34.3.13.4.12 2.36 1.45.47.69-.33.41-.49.01-.1-.48.12-.21-.11-.17-.46.48-.47.99.56.43.36-.28h.61l.15-.16.54-.24.07-.33.02-.07.17-.59.24-.13 1.92.43 1.93.08 1.38.27 2.2.06 1.63.42 1.41.62 2.52.61.34.3-.26.55.05.44-.12.18-.73.64-.04.26.12.22.4.15.56.44.37.16.38.44.43.06.61-.1.69-.31.11-.23-.28-.29-.82-.07-.34-.34-.31-.78-.62-.66.02-.45.02-.01.25-.1.12-.31 1.19.2.13.37.24.15.34.46.81.02.34-.12.08-.03.12-.26-.11-.22-.57-.07-.47.14-.44-.11.13-.28.2-.15 1.32-.25.62-.03.3.14.08.37.16.73.3 1.34.41.39.38.38.83 1.58.35 1.1.49 1.55.04.35-.59.94-.78 1.25.03 1.35.01.3.39.46.05.27-.47.8-.16.63.07.5.4.82-.05.7.29 1.05-.12.41-1.18 4.18.02.42-.14.43-1.26 1.09-.33.3-.86.6-.17.5.04.33-.02.06-.23.65-.2.11-.57.73-1.06.69-.57 1.04-1.42 1.82-.31.86-1.19.88-.23.32-1.2 1.64-.05 1.73.09.09-.14 1.24-.85 1.47-.23.8-.55.91-.18.49-.09.22-.12.5.36.51.08.4-.46 1.05-.79.76-.89.54-1.15.96-.73.76-1.01 1.45-.58.84-.12.16-.15.5.32.79.04.1-.11.24-.24.23-2.61 2.4-1.72 1.88-.9.98-.79 1.35-.27.67-.12.55.31 1.1-.05.48-.66 1.37-.76.93-.54.98-.05.42.11.76-.21.56-.52.78-.43.65-.14.17-1.24 1.49-.63 1.58-.09.16-.32.55-.86 1.27-.04.06-.92.94-.35.69.07.5-.28.44-.72.82-.06.07-.57.64-.72 1.03-.44 1.12.12.34.52.36.04.27-.19.32-.18.28-.67.57-1.12.62-1.54.72-1.81.57-.79.48-.97.39-.29.03-1.36.48-.37.05-1.79.74-1.19.74-4.4 3.22-1.3.96-4.06 2.75-2.21 2.03-.6.55-1.33 1.54-.87 1.36-.78.95-.89.76-1.78 1.24-.3.27-.84.76-1.67 2.14-2.85 2.89-.86 1.21-.32.44-1.2 2.04-1.32 1.64-.15 1.26.3 1.02.28.13.1.04-.24.3-.37.95-.08.09-.25.26-.24.25-1.52 1.59-.71.74-.32.57-.52.96-.64 1.71-.35.26-.39.28-.55.02-.31.27-.63.56-1.76 1.26-.15.18.22.77-.7.2-.19.2-.6 1.09.12.3.38-.11.49.07-.01.27-.43.31-.1.54.13.46-.06.07-.43.5-.36 1.32.06.47.62-.05.19.71.74.12-1.56 1.12-1.31.69-1.13.88-1.13.89-.42.5-1.56 1.89-.05.13-.21.54.05.82-.09 1.04-.29.2-.18.12-.24.6-.03.87-.05.07-.68.85-.01.38-.19.44-.54.58-.61.92-.25.76-.23.95-.1.41.21 1.24-.49 1.14-.07.69-.14 1.49-.32.68-.43.72-.52.26-.56.72-.84.18-.71.47-.35.08-.18.18-.09.51-.58.31-.48.84-.27.17-.37.25-.42.61-.65.1-2.24-.12-.29-.41-.78-.55-.3.1-.56-.13-1.42-.63-.22-.35-1.2-.04-1.29-.05-1.19.39-.77.4-.8.2-.56-.14-.23-.19.1-.08 1.2-.07.82-.28.1-.13-.1-.03-.23-.07-1.32.32-.46-.08-.43-.07-.69-.41-.23-.01-.01.13.6.64-.01.17-.56-.01-.65-1.02-.55-.24-1.84-.33-.45-.21-.5-.54-.3-.54.05-.73.04-.53.68-1 .97-1.45.61.28-.05-.9.46-1.05.01-.35.18-.4.32-.24.03-.49.27-.89.15-.01v-.31l-.01-.38.2-.48h.23l.05.1-.06.61-.17.44.45-.04.68-1.69.75-1.04.19-1.16-.29.09-.54-.41-.12-.18.15-.45-.04-.27-.28-.1-1.77-.95-.79-.06-.49-.3-.62-.04-.77.14-.39-.39-.26-.07-.8.33-.44.03-.68.34-.62.75-.26.16-.62.16-.41.11-.29.31-.39-.07-.2.39-.88.2-.35.36-.88.21-.72.3-.71.49-.23.36-.01.02-.11.56-.1.48.12.26v.01l.17.41-.26.65-.01.45-.2.31-.24.37-.04.39.01.06.05.71-.16.7.01.86.1.22-.24.23-.37.14-.23.21-.54.49-3.69 1.08-.77.48-.33.07-.52.43-1.48 1.21-.09.08-.46.71-.29.69-.13.32.16.8.41.96.53.56.58.12.07-.15.2-.03.29.16.12.27-.59.88-.39 1.06-.27.3-3.06 1.54-.48.1-1.61 1.12-1.25.87-.64.68-.5.38-.09.31.08.59-.17.46-.14.28-1.22.91-.52 1.05-.1.57-.26 1.83.14 1.56.65.48.33.22.06.75-.25 1.95-.37 1.2-.05.19-.22.96.08.6-.14.31.1.17-.33.84-.46 2.03.03.4.05.61.01.15-.12.5-.53.61-.59 1.09-.34.76-.26 1.47-1.17 2.03-.16.83.26.42-.18.48-1.04 2.28-.03.44-.97 1.23-.15.51.1.44-.45.79-.48.52-1.77 1.91-.61.72-.25.11-.04.32-.37.43.01.13-.21.2-.06.58-.38 1.23.02 1.06.26 1.5.34.44.23-.25.32.09.57.44.35-.01.12.17.42.37.3.06.4-.12.02.13.03.12-.11 1.1-.62 1.46.13 1 .04.33-.07.19-.13.31.01.36-.36.74-.57 1.94-.2 1.2.01.68.25.95.27.44.47.32.22.47.39.34-.03.13.2.34.1.32.34 1.07.36.27.66 1.14.33.19.15.55-.06.4.62.87.37 1.99.07.76-.23 1.7-.99 2.36-.34 1.59.08.49-.12.63.09 1.25-.01.12-.06.66.14.98.24 1.3.47.48.2 1.56.5 1.36.33.55.49.46.39.1.79-.12.28.06.63.71.04.52v.04l-.43 1.96-.08 1.4-.05.88.22 1.56.23.26.76.29.15.67.06 1.45.5 1.15.65.71.56.16.53-.16-.11.35-.99.78-.37.1-.59.65-.44-.07-.22.76-.95.2h-.03l-.94-.01-.34-.01-1.19.15-.69.1-.67.1-.39.18-.76.77-.81.33-.5.36-.89.04-.33.01-.46.21-3.23-.09-.64-.01-.34.09-4.54-.06-1.22-.01h-.82l-3.95-.06-.64.16-2.66.03-2.15.19-.16-.09-.3.13-3.52.34-.8.11-3.09.39-2.26.46-2.39.72-.66.07-.23.2-1.23.13-3.2.91-2.87.7-2.7.61-2.23.64-.29-.02-.39.01-.31.01-.3.22-3.04 1.26-3.91 1.66-.31.12-2.26.75-1.72.7-.37.08-2.38 1.27-1.43 1.13-.21.17-.51.43-.79.44-1.55 1.42-1.5 1.71-.23.13-.84.83-.15.44-2.5 2.74-.86.71-.2.62-1.92 2.07-1.48 1.35.22.39-.64 1.66-.71 1.17-.06 1.18.44 5.24-.22.75-.8 1.69-.42.76-.01.4-.19.55-.29 2.51.15 1.41-.29.78-.44 2.4-.63.84-.13.61-.6 1.04-1.02 1.58-.14.08-.39.76-.65 2.26-.11.76-.23.41-.01.13-.05.74.34 1.02.2 1.45-.06.48-.18.23-1.5.54-.42.34-.77 1.09-.39.38-.31.12-.61-.01-1.8 1.21-1.88 1.26-.48.41-.47.78.08 1.06-.11.47-.51.54-.61.38-.63.65-.8.46-.49.5-.26.27-.74.19-.85.57-.42.52-.06.28-.18.8.09.44.2.33-.07.88-.33.25-.98.01-.34.11-1.24-.11-.7-.2-1.86-.54-.17-.17-.07-.09-1.61-.14-.31-.05-2.66-.22-.4-.13-.41.14-1.08-.12-1.33.07-.32.02-.54.45-.19.16-.61.3-.4.06-.73-.17-.24.12-1.06.09-.37.3-1.19-.04-1.54-.29-.61-.11-.79.07-1.05-.26-.39-.01-.67-.01-1.03.13-.51-.09-1.58.06-.34.23-.45.03-.22.17-.91.26-.31.26-.21.02-.65.66-.83.33-.6.37-.42-.17-.37.24-1.2.11-.73-.03-2.13-.43-.4.07-2.12-.08-.27-.15-1.19-.02-.15.07-4.27.01-2.76.36-.4.06-4.16.53-1.97.41-.25.06-2.4.49-1.95.55-.77.13-.83.39-1.35.64-1.47.53-.84.48-.91.35-.94.57-.8.27-.26.18-.07.13-.4.78.02.6-.39 1.13.22.52.04.38-.21.5-.54.5-.85.41-.47.45-.5.98-.11.85.07.63.31.42-.24.46-.19.65-.33.63-1.27.51-.86.65-1.22.5-.76.45-.49.61-.59.52-.21.48-.6.33-.59.5-.42.23-.95.55-.4.47-.07.84-1.28 1.58-.63 1.13-.47 1.33-.17 1.1.05.58.28.77.17.41-.05 1.18.21.72.55.81.85.55.19-.13.57.08.6-.08.18.1.34.61.06.13.77 1.67.35.52.2.61.45.27-.48.48.14.58-.4.85v.43l.01.32-.41.48-.43.21-.18.79v.64l-.93.99-.33 1.37-.12.14-.47.1-.38.33-.24.45-.33 1.09.48.6.38.47.1.36.49.37.1.35-.92 1.41-.76.48-.31.48-.41.34-.16.13-.74.25-.16.05-.5.77-.17.27-.14.57-.54.53-.24.93.1.7-.17.23-1.46.16-.11.01-1.48.43-.47.37-.04.07-.67 1.21-.4.38-.31.66-.19.12-.14.3-1.31 1.48-.08.25-.26.25-.4.05-.28.18-.1.65-.22.2-.49.1-.27.43-.78.28-1.16.92-.2-.04-.45.4-.43.15-.23.47-.31.23-.29-.66-.31-.24-.86-.26H229.1l-.26.18-.47 1.07.04.21-.5.53-.52.07-.27.33-.42.07-.19.13-1.02-.31v.51l-.1.22-.28.2-.68.13h-.05l-.27-.38-.31-.15-.51-.51-.1.18.03.67-.09.2-.4.31-.1.42-.6.15-.24-.2-.56.23-.24-.21-.45-.07-.07.4-.31.13-.7-.3-1.9.36-.5-.08-.17.21-.45.03-.14.17.07.37-.29.25-.55.06-.54.34-.21-.3-.39-.1-.18-.21-.12-.13-.13-.16-.32-.11-.06-.15-.87.56-.31-.46-.6-.36-.35.08-.67.5-.15-.13-.43-.05-.25-.45h-.43l-.19-.36-1.14-.22-.43.12-.17-.55-.35.02-.36-.2-.09-.2.36-.8.04-.35-.07-.21-.19-.55-.61-.6-1.69-.58-2.21-.34-.49-.02-2.36-.09-2.26-.27-.74.05-1.59-.1-.59-.06-4.36.25-.44.09-.34.25-.21-.1-.54.03-.56-.23-1.04-.06-.38-.13-1.81-.03-.79.04-2.94.13-3.5.31-2 .3-5.48.91-5.91.98-1.21.14-.29-.1-.56.2-1.24.23-.84.27-.23-.08-1.77.87-.49.46-.72.68.26.33.05.33-.24.6.38.31.44.06.1.01.12.18-.24.32-.65-.1-.52.06-.74.46-.19.37-.66.56-.68-.18-.53.1-.21.2-.2.57-2.45.21-.65.18h-.33l-.45-.3-2.01.4-.35.3-.92.16h-.85l-.54-.14-.55.03-2.87.52-1.82.58-.19.67-1.06.77-.58.74-.48.22-.67.47-.17.32-.29.05-.96.7-.66.14-.7.92-.23.59.08.35.1.41-.22.23-.66.04-1.32.68-1.27.24-.5.37-.7.04-1.44.51-.4.52-.65-.26-1.33-.05-.62-.32-1.02.01-.47-.17-1.33-.19-2.82.31-1.72.3-.48.45-.45-.05-.82.21-1.46.18-1.34.37-3.08.24-1.9.89-1.71.13-.46.22-.61.15-.49.11-1.13.5-3.21.88-.73.04-.68.19-2.64 1.28-.43.32-1.02.28-2.09.91zM499.07 419.9l.06-.11.32-.68-.14-.95-.21-.34.1-.41.33-.34.08-.64.3.19-.02.79-.17.34.26.34.06 1.82.02.68-.37.31-.53.11-1.07.22-.48.28-1.23 1.18-.43.08-.16-.59.09-.38.09-.14.96-1.53.27-.18.33.21.35-.06.17-.15.3-.81-.14-.19.19-.19.49-.11.16 1.08.02.17zm1.17-5.91-.04 1.38-.38.36-.91.34-.13-.25.87-1.68.59-.15z"/>
        <path class="ye" d="m0 549.7 6.97-1.51 5.02-1.09.12-.02.24-.08-.05.17 56.62 119.44-2.29 3.18.06.11-.6.14-.02-.02-.02.05.23.54 4.82.64 21.33 45.68-.83.36-.7.08-.55.19-.46.15-1.01.24-.76.18-.58.14-1.13.23-5.21 1.08-.42.18-.09.04-.07.06-.68.62-.46.22-.3.02-.87.18-.81.39-.65.11-2.33.82-1.53.77-.48.41-.77.37-.75.24-1.02.17-2.05.81-1.49.45-3.24 1.49-.8.29-4.99 1.55-1.53.47-.75.3-.33.12-5.12 2-4.25 2.01-.41.07-2.04 1.6H0V549.7z"/>
        <path class="ir" d="m536.15 78.91-.7.08-.18-.1.27-.29.54-.02.14-.01.18.2-.11.12-.14.02zm-79.66-6.25-.13-.13.11-.17.53.1.95-.15.04.11-.36.19-1.14.05zm4.19-.59-.06-.13.33-.18 1.41-.33.73-.28.44-.09.09.15-.93.45-1.13.38-.88.03zm-1.65.28-.56-.03.03-.18 1.15-.16.11.15-.73.22zm5.26-1.36-.02-.18 1.74-.54.79-.04.64.1.13.18-3.28.48zm-32.6-6.89-.35-.15-.2-.35.14-.33.57-.19.24-.7.19-.2.31.05.15.27-.45.65-.11.68-.14.2-.35.07zM196.32 48.21l-1.47-.35-.16-.01-1.58-.05-.31-.19-.17-.3-.06-.41.25-.31 1.19-.18.5-.32.66-.04 1.18-.39.22.64.2 1.21-.04.54-.14.13-.27.03zm-8.02-16.07v-.5l.23-.3.3.14.21.26-.24.37-.5.03zm51.32-8.73-.32-.19-.29-.54.05-.15.2-.11.35.07.36.29.14.31-.17.29-.32.03zm-45.7-1.15-.34-.13-.49-.9-.88-1.16-.58-1.14.04-.11.11-.36.44-.46.63-.44.54-.2h.54l.58.15.59.52.51.84.13.54-.03.65-.57 1.47-.35.47-.35.21-.52.05zm184.65-7.9.51 1.01.66 1.65.02.34-.16.03-.29-.68-.56-1.47-.18-.88zM252.09 22.4l-1.12.03-.41-.1-.7-.75-.08-.48.17-.48.32-.33.52-.15.48-.31.42-.01.27.24.38 1.59-.05.47-.2.28zm228.63 48.06-.25-.05-.17-.27.05-.23.22-.15.35.12.99-.29.15.32-1.34.55zm-11.71.06-.62-.03.03-.33.28-.24.95-.33.95-.07.07.2-.09.18-.36.3-.42.18-.79.14zm2.51-.67-.19-.12.42-.25 1.23-.34.84-.08.16.19-1.75.49-.71.11zm11.14-.01-.2-.18.05-.2.29-.06 1.36-.71 1.73-.11.06.17-.36.66-.72-.04-2.21.47zM156.71 4.49l-4.29-.88-1.47-.56-.57-.46-.53-.65-.06-.08-.48-1.26.61-.6h8.47l-.02.72.44.86.43.54.77.4.17.31-.21.86-.43.49-.46.15-1.48-.13-.89.29zM252.22 0l-.03.09.04.74-.22.04-.81-.47-.51-.06-.42.21-.16.39.02.09.05.22-.31.01-.4-.32-.51-.8-.04-.14h3.3zM600 87.74l-.7-.31-.47-.45.05-.25.28-.09.17-.27-.2-.48-.27-.27-1.15-.35-.12-.04-1.13-.15-4.41.07-.74.1-3.15.41-.44.09-.59.12-2.34.72-1.01.44-.29-.11.35-.36 1.17-.44.57-.47.52-.23 2.34-.43.09-.02.26-.2-.51-.12-1.19.08-1.72.33-1.28.42-.52.38-.26.4-.15.7.25.71.24.21-.74-.01.04-.37-.14-.33-.11-.08-.27-.19-.66-.15-.63-.51-.66-.18-.65-.64-.05-.28.35-.42-.27-.7-.4-.26-.56-.17-3.75-.22-.49-.03.73-.44-.18-.31-.88.77-1.48.02-2.96.37-.77-.04-.23-.29-.19.04-.53.41-.55.11-1.7.36-1.3.16-2.21.04-2.39-.57-1.11-.48-.89-.56-.33-.21-1.09-.97-.62-1.07-2-1.6-1.82-.56-1.08-.12-1.13.07-.74.04-1.62.45-.39-.37-.67-.04-.17-.1-.91-1v-.46l-.89.15.36.75-.05.11-.48-.03-.15.13.17.33.49.37.57-.01H546.07l.38.16.06.12-.53.15-2.55.17-3.01.47-.65.01-.25.01-1.64.76-.36.16-.21.1-.57-.86.41-.22.4-.06.44-.3 1.5-.08.29-.18-.27-.27-1.14-.15-1.26.34-.15-.16.35-.45-.38-.53.31-.4.02-.08.15-.58.31-.34-.2-.2-.49.04-.55.61-.26.12-.35-.12-.21-.43-.04-.09-.27-.03-.19.12-.29.19-.07-.36.19-.59.16-.47-.08-.1-.14.01-.11.21-.22.44-.1 1.04.2.26-.24.8-.11.36-.53.44-1.99 1.1-1.69.36-.12-.08-.06-.27.22-.42.62-.64.15-.07.4.1.35-.25.57-.99.37-.25.24-.03-.06 1.23.33-.05.58-1.05.35-.3.09-.33-.21-1.13.44-.55-.35-.16-1.25.66-.23.06-.05-.01-.34-.09-.43.1-.94.7-.03.04-.1.14.72.25.14.25-.18.17-.7.05-.42.39-.7 1.3-.25-.1-.31-.73.27-.67-.45-.43-.3-.03-.2.29.33.4-.33.47.4.4.09.33-.1.22-.5 1.08.67.15-.38.56-.44.23-.79-.03-.95-.6-.34-.55.05-.15.43-.15.31-.6-.06-.18-.16.02-.88.61-.13.43.11.48.25.19 1.06.81.3.35.12.4.2.12.46.03 1.08-.38.82-.51.73-.62 1.54-.06.99-.3.9-.74.04-.07.41-.64.26-.05.51.78.77.53-.06.13-.27.15-1.19.12-3.86.95-1.22.5-2.95 1.21-.99-.07-.62.16-.43-.71-.42-.02-1.41.35-1.01.01-1.02-.16-.34-.12-.28-.1-1.37-.75-.88-.81-3.78-4.42-.53-.47-.79-.71-1.42-.85-1.41-.5-2.89-.61-.28-.18.21-.33-.88-.7-.81-.23-.44-.12-.05-.4-.44-.28-.92-.35-.49-.1-.7.02-.51.08-3.37.56-1.33.21-.66-.11.38-.26.33-.22.22-.29-.13-.21-.12.16-.64.14-.3.46-.22.12-.69-.08-3.81-1.26-2.47-.46-.86-.16-1.41-.26-.35-.18.24-.24.42-.03.36-.58.22-.78-.06-.19-.16-.06-.18.13-.02.41-.2.45-.24-.06-.07-.27.2-.71.38-.59-.08-.18-.27.1-.18.22-.16.35-.37.76-.21-.04-.15-.04-.48.27-1.21.04-1.4.76-.35.05-.11-.33.21-.98-.05-.4-.13-.13-.2.25-.13 1.1-.16.4-.4-.35-.26.1-.05.42-.2.26-.35.15-.44-.11-.15-.23v-.5l-.6-.25v.42l.29.53-.09.55-.09.19-.44.09-2.74-.62-.94-.03-.75-.03h-.13l-.03-.17.36-.13 1.32-.06.38-.33-.09-.18-.31-.15-.9.04-.47-.09-.34-.18-.44-.66-.33-.18-.46-.02-.56.21-.62.43-.64.23-.68.06-.51-.22-.05.14-.13.41-.5.12-.27-.03-.55-.35-.31-.01-.11.38-.4.05-.31.25-.22-.08-.28-.73-.38.57-.4.17-2.35.21-.76.3-1.21.74-.42-.17-.23.09.35.59-.09.1-.08.09-.29-.02-.77-.31-.53-.34-.57-.1-.48-.4-.11.19.04.25.28.24.95.31.13.25-.64.3-.79.06-.49-.35-.48.04-.11-.1-.08-.57-.14.06-.18.43-.68.17-.18.28.11.42-.14.06-1.49-.85-.27.35.39.38-.24.1-.45-.09-.19-.04-.09.18.43.13 1.03.31.26.27v.23l-.18.02-2.03-.7-.47-.24-1.09-.55-2.71-1.6-.04-.18 1.01.05.22-.21.12-.63.2-.2.95-.14.2-.2-.07-.16-1.1.07-.33.15-.06.12-.48.87-.33-.02.1-1.2-.13-.15-.51-.04-.63-.26-.27.25.63.54.07.28-.07.27-.33.04-1.11-1.31-1.04-1.45-.47-.67.12-.19.64.74.14.03.12-.17-.33-.43.22-.38-.06-.23-.58-.01-.15-.3-.5.23-.43-1.07-.4-.57-.69-.52-1.52-.71-.11-.02-.87-.19-1.13.1-1.55.34-1.7.58-.9.42-2.94 1.87-.04.01-2.01.74-1.07.65-.71.23-.12-.39.91-.85.27-.55.1-.62-.27-1.47.09-.2.18-.07.28.23h.2v.09l-.03.72.17.45.32.25.49.14.46-.07.33-.18.81-1.29-.43-.68-.59-.44-.13-.05-.27-.1-.07.57-.22.07-.74-.26-.5-.45-.47-.72-.28-.42-.05-.07-.68-.67-.61-.33-.87-.47-.82-.21-1.25-.01-1.96.19-.22-.07.27-.35-.49.04-.66.47-.51.11H421.43l-.48-.43-.92.01-.38.37-.89-.04-.35-.11-.36-.6-.24-.11-.19.66-.17.15-1.72-.19.33-.4-.1-.1-.66.41-.16.09-.98.16-.21.04-2.08.02-.91-.08-1.61-.13-3.51-.66-.15-.16.08-.14 1.04.04.23.05 3 .6.34.01 2.54.07.24-.11-.13-.24-1.44-.89-.45-.63h-2.13l-1.05.47-.97-.04-.48-.02-.07.34-.22.1-.57-.11-.65-.48-.19.42-.35.26-.33-.02-.19-.43-.35-.24-.7-.21-1.32-.17-.95-.12-2.96.02-.9-.19-.88-.64.61.2.8.27.97.05.17-.2-.9-.94-.83-.5-.34-.71-.09.33.21.71-.03.28-.51-.15-.21-.32-.94-5.16-.38-2.08-.42-1.38-.51-1.06-1.3-1.74.05-.45-.13-.45-.51-.39-.34-.77-.13-.29-.32-.29-.53-.21-.68.06-.45-.38-.9-.3-.08-.15.36-.69-.01-.48-.49-1.01-.34-.04-.24-.37.14-.78-.2-.88.28-.53v-.2l-.07-.11-.29-.45.06-.29.08-.41 2.42-3.64.23-.58-.31-1.28-.22-.18-.67-.04-.26-.18-.33-.48-.06-.1-.01-.46-.5-.36-.29-.53-.7-.34-2.56-2.03-.79-1.18-.33-1.03-.18-1.14-.19-1.23.08-.67-.63-.75.01-.19.55-.02.22-.19-.39-.47.23-.55-.63-.3-.77-.58-.3-.07-.08.49-.15.07-.61-.55.73-.61.17-.15.04-.16-.32-.6-.44.19v.34l-.11.16-.22.02-.67-1.45.03-.48-.43-1.28-.16-2.17-.24-.13-.15-.28.45-.37.1-.22.02-.05-.06-.4-.48-.31-.3.02-.18.1-.25.49-.15.05-.07-.11.94-2.33.27-.28.15.18-.42 1.1.05.18h.17l1.5-1 .14-.25-.37-.05-.64.56-.13-.12.38-1.51.25-1.67.19-.02.1-.41-.08-.05-.14-.08-.08-.34.07-1.28H600v87.74zM220.96 0l-.27.24-.18.26-.22.34-1.32.78-.41.45-.35.71-.17.14-.34.02-.95-.3h-.66l-.51.15-.28.14-1.31 1.47-.46.03-2.51-.95-1.27-.3-3.17.02-.39.05-.49.06-2.27.64-.86.07-.93-.02-.44-.13-.37-.26-.45-.65-1.21-2.72-.14-.24h21.93z"/>
    </g>
    <g class="dhofari">
        <path d="m247.51 670.97-.24.45-.33 1.09.48.6.38.47.1.36.49.37.1.35-.92 1.41-.76.48-.31.48-.41.34-.16.13-.74.25-.16.05-.5.77-.17.27-.14.57-.54.53-.24.93.1.7-.17.23-1.46.16-.11.01-1.48.43-.47.37-.04.07-.67 1.21-.4.38-.31.66-.19.12-.14.3-1.31 1.48-.08.25-.26.25-.4.05-.28.18-.1.65-.22.2-.49.1-.27.43-.78.28-1.16.92-.2-.04-.29.26-.16.14-.43.15-.23.47-.31.23-.29-.66-.31-.24-.86-.26H229.1l-.26.18-.47 1.07.04.21-.5.53-.52.07-.28.33-.41.07-.19.13-1.02-.31v.51l-.1.22-.28.2-.71.13-.29-.38-.31-.15-.51-.51-.1.18.03.67-.09.2-.4.31-.1.42-.6.15-.24-.2-.56.23-.24-.21-.45-.07-.07.4-.31.13-.7-.3-1.9.36-.5-.08-.17.21-.45.03-.14.17.07.37-.29.25-.55.06-.54.34-.21-.3-.39-.1-.18-.21-.12-.13-.13-.16-.32-.11-.06-.15-.87.56-.31-.46-.6-.36-.35.08-.67.5-.15-.13-.43-.05-.25-.45h-.43l-.19-.36-1.14-.22-.43.12-.17-.55-.35.02-.36-.2-.09-.2.36-.8.03-.36-.06-.2-.19-.55-.61-.6-1.69-.58-2.21-.34-.49-.02-2.36-.09-2.26-.27-.74.05-1.59-.1-.59-.06-4.36.25-.44.09-.34.25-.21-.1-.54.03-.56-.23-1.04-.06-.38-.13-1.81-.03-.79.04-2.94.13-3.5.31-2 .3-5.48.91-5.91.98-1.21.14-.29-.1-.56.2-1.24.23-.84.27-.23-.08-1.77.87-.49.46-.72.68.26.33.05.33-.24.6.38.31.44.06.1.01.12.18-.24.32-.65-.1-.52.06-.74.47-.19.36-.66.56-.68-.18-.53.1-.21.2-.2.57-2.45.21-.65.18h-.33l-.45-.3-2.01.4-.35.3-.92.16h-.85l-.54-.14-.55.03-2.87.52-1.82.58-.19.67-1.06.77-.58.74-.48.22-.67.47 1.36-7.26 7.13-7.2 6.88-4.07 4.91-2.64 5.42-1.41 7.47-.15 8 .84 12.28.48 10.32.96 13.76 1.92 9.1-1.68 6.9-8.28 5.51-5.19 5.51.11 5.58.58.92.07z"/>
    </g>
    <g class="borders">
        <path d="m0 197.86 54.52 64.22 185.17 22.06 4.85-5.44.15.24"/>
        <path d="m244.69 278.94 33 51.1-17.68 53.01-30.58 91.74L12.3 547.17M12.3 547.17l.05-.17-.24.08-.12.02-5.02 1.09L0 549.7M308.23 35l.08.01 1.63.31 1.44-.5 1.88.28.77.9.39 1.64-.31 1.57.01.04.02 1.47.31 1.29-.8 5.27-.45.94-.04.08.15.78-1.02 3-.17 1.17v.22l.01.48.01.61 1.05 2.45.07.16-.18.42-.37.88-.23 1.96.12 3.8.17.6.29.37.2.27.3.28 2.74 2.52 1.5.66.12.05.03.01.41.09.88-.41.45-.38.24-.2.96-.78m8.07 47.2-.24.01-.44.03-.3.03-.29.04h-.04l-.24.03-.77.27-.13.2-.02.02-.2.31-.13.49-.03.09.1.95.15 1.05.03.23v.01l.11.84.01.06.04.52-.05.56-.41.48-.57.28-.61.17-.45.1-.25.07-.27.07-.65.13-.17.32-.15.57-.08.12-.17.27-.21.29-.3.36-.15.16-.27.25-.53.13-.75.23-.94.41-.64.14-.57.11-.35-.03-.33-.02-.58-.05-.45.12-.39.25-.44.39-.01.01-.36.63-.16.67-.05.17v.13l-.01.67-.14.57-.11.35-.18.28-.74.14-.47.16-.39.13-.13.22-.13.4-.17.61-.13.62-.4.28-.58.19-.48.16-.74.18-.89-.1-.26-.03-.44-.05-.63.04-.45-.13-.45-.11h-.03l-.62-.14-.5-.38-.45-.39-.09-.61-.17-.11.2-.36-.06-.13-.04-.08-.45-.31-.47-.56-.3-.59-.3-.43-.13-.29-.1-.23-.13-.41.08-.34-.03-.55.03-.48-.16-.23-.19-.13-.32-.23-.53-.4-.48-.4-.43-.33-.02-.02-.19-.24-.18-.22-.02-.03-.42-.61-.2-.44-.1-.45.11-.32.3-.29.82-.31.51-.02.64.16.84.41.35.41.59.43.47.31.3.16.19.1.14-.19-.18-.31-.32-.53-.35-1v-.12l-.04-1.01-.05-.97-.17-.84-.14-.66-.35-.77-.43-.76-.73-.42-1.56-.64-1.36-.07-.94-.18-.42-.08-.74.16-.91.09-.69.28-.75.34-.8.35-.68.36h-.01l-.73.42-.42.25-.36.21-.53.38-.01.01-.27.31-.09.11-.19.2-.27.3-.04.05-.22.3-.03.06-.55.64-.02.02-.53.65-.23.27-.23.28-.16.2-.25.3-.04.04-.5.58-.03.04-.2.27-.08.11-.09.14-.22.66-.04.58-.08.9.11.82.17.79.03.12.2.69.1.72.14.71.13.66v.02l.27.6.16.61.01.51-.01.13-.03.44-.23.76-.12.53-.16.77.22.66.2.88.04.19.36.69.28.72.28.52.14.28.06.13.21.49.13.32-.09.42-.18.37-.41.44-.58.47-.43.29-.47.44-.05.38.01.53.11.78.12.46-.02.28-.1.3-.49.32-.64.28-.37.19-.44.3-.08.45-.08.62.33 1.09.03.83.46 1.08.06 1.47v1.23l.02 1.03-.11.52-.09.57.03.58.14.57.47.23.57.47.52.41.25.21.44.44.32.48.09.42.08.43.06.77.02.65.02.66.01.52-.06.44-.03.27-.02.65-.43.49-.26.47-.58.68-.27.36-.19.27-.22.33-.53.85-.71.95-.3.76-.21.8-.3.88-.02.4.26.3.41.22.6.14 1.07-.02 1.13-.15.54.26.56.22.34.19.14.07.1.06.5.28.51.03.52-.11.26-.16.19-.12.29-.18.88-.38.71-.32.18-.1.45-.23.8-.04 1.12-.05.77-.05.09.08.07.07.28.26.24.34-.07.51-.02.19.11.43.12.31.24.34.35.28.16.13.05.18.07.31.03.44.02.14.11.86.09.64.1.74.65.8.75.83.45.73.24.4.36.67.3.42.33.55.13.39.1.53-.4.28-.05.02-.68.24-1.75.45-1.1.28-4.08.92-.86.19-2.39 1.18-1.66.77-.3.14-.28.13-.22.08-.51.17-.71-.08-.62-.46-1.07-.68-.39-.56-.75-.08-.71.26-.81.37-.67.21-.86.14-.73-.04-1.08-.3-2.34-.11-1.36-.05-1.25-.01-.91.22-.88.41-.6.38-.6.42-.49.39-.41.24h.98l-1.38.55-1.34.6-.89.26-.56.38-.05.04-.23.05-.76.2-.85.07-1.04.11-.81.03-.87.22.14 1.38.22.84.02.09.58.47.67.38.87.56.9.51 1.09.32.63.48.71.34.34.62.24.74-.01.21-.05 1.02-.21 1.37-.03 1.08.17.73.04.65.08.51.13.58.11.61-.03.7-.25.75-.43.63-.55.75-.93 1.08-.02.02-.9.88-.71.87-.52.85-.51 1.14-.36.78-.37 1.24-.06 1.57-.14.88-.06.75-.12.65-.16.59-.44 1.2-.32 1.31-.37.65-.57.65-1.09.74-.99.8-.71.68-.63.72-.55.63-.41.69-.15 1.03-.17.78-.25 1.1-.29 1.7-.6 2.17-.41 1.51-.33 1.66-.62 1.48-.34.93-.37.98-.29.88-.29.57-.37.65-.5.57-.24.31-.26.34-.47.68-.27.83-.32.72-.74.83-.8 1.09-.47.84-.42.74-.72 1.18-.62.64-.39.7-.44.66-.18.55-.19.55-.03.78-.23.47-.03.89.13.63-.55.82-.53 1.1-.49 1.2-.15.75.01.99-.02.67.03.84.02.67.02.53-.11.78-.16.65-.06.86.05.6.14.71.09.73v.07l.03 1.06.08 1.32.06.75.07 1.21.03 1.48.11.59-.29 1.47-.15 1.14-.52 2.45-.24.81-.05.45.17.63.09.45.02.24M92.43 716.93 71.1 671.25l-4.82-.64-.23-.54.02-.05.02.02.6-.14-.06-.11 2.29-3.18L12.3 547.17"/>
    </g>
    <g class="coastline">
        <path d="m44.03 177.46.74-.47.51.05.13.17-.25.77.11.49-.33.07-.53-.35-.06-.37-.32-.36M105.12 176.93l-.48-.23-1.19.04-.33-.15-.16-.28.15-.6.51-.19.67-.05.4.32.29.42.27.64-.13.08M86 175.02h-.2l-.56-.46-.22-.37v-.32l.29-.06.45.38.34.63-.1.2M160.64 174.59l-1.32-.25-.35-.35.13-.16 1.56.34.2.21-.22.21M12.62 173.81l-.25-.27-.45-.02.45-2.66.33.06.18.33-.05.28.12.32-.22.51.09.08.41-.02-.23.34-.01.25.27.61-.17.19h-.47M161.47 173.41l-.49-.01-.68-.74-.42-.17-.54.06-.65.07-.34-.25-.36-.52-.04-.37.37-.18.44-.43 1.09.16.09-.43.94.39.89.02.08.58.56 1.01-.11.27-.32.28-.51.26M86.84 174.09l-.28-.14.1-.15 1.65-.29.12.11-.14.21-1.45.26M13.61 170.62l-.18-.05-.2-.37-.19-.13-.1.17-.27.04-.07-.19.33-1-.07-.89.4-.65.65-.37.31.02.27.15.04.25.26.34-.16.38.11.68-.35.77-.47.33-.31.52M166.55 168.7l-1.17-.26-.26-.16-.84-1.06.1-.12.29.05.51.43.59.16.9.83-.12.13M162.74 172.19l-.15-.18-.16-.71-.18-.27-.95-.78.15-.21 1.02.22 1.43.84.18.31-.15.32-.78.39-.41.07M115.16 171.16l-.62-.22-1.36.07-.36-.08-.69-.7-.02-.33.15-.36 2.02-.08.39.84.52.67-.03.19M123.13 171.79l-.34-.29-.24-.55.11-.41.44.17.33.76-.05.25-.25.07M165.22 171.37l-.48-.08-2.62-1.82-.3-.5.13-.31 1.62.08.55.59.85.43.75 1.04-.15.44-.35.13M164.72 168.58l-.59-.11-.43-.37.01-.35.34.09.65.41.16.21-.14.12M153.73 173.38l.05 1-.22.47-.42.28-1.05.34-.84.32-.86.04-.75-.13-1.78-.57-1.6-.65-.28-.27.45-.47-.41-1.04-.29-.33-.37-.2-.47-.1-.16.14-.37 1.35.03.44-.27 1.54-.21.19-.58.19-.85.08-1.1-.04-.52.29-.37.08-.76-.29h-.7l-.44.01-.56-.19-.97-.13-.57-.24-1.49-.99-1.67-.83-.23.04-.47.34-1.96.36-.39-.2-.21-.18-.58-.49-.25-.29.07-.18 2.03-1.33 2.58-1.25 2.5-1.73.83-.58.53-.03 1.86.37h.6l2.15-1.27.34-.09h.36l.68.32.3-.17.37.06.23-.82.13-.12.83-.75.37-.11 1.27.37.33.15.14.26-.07.17h-.41l-.57-.2-.34.07-.16.14-.06.36.31.69.81 1.3.32.25 1.01.25.25.13.95.52 1.9-.06.52.15.42.27.87.79.84 1.1.03.2-.16.37-.47.53M54.68 160.06l.3-.28.24-.02.47.15.33-.1.32-.35.39.21.2-.13.39-.01.26.17 1 .29.65.49.27.78-.02 1.41-.3 1.33-.59.41-.23.16-.39 1.3-.16.09-.2-.04.13-.53-.12-.22-.7.36-.13.41-.29.14-.05.3-.39.48-.25-.39-.57-.31-1.18-1.56-.32-.98-.17-.51.14-1.56.38-.9.59-.59M92.85 159.29l-.24-.21-.16-.34.09-.35.23-.11.24.17.2.37-.36.47M177.35 159.04l-.3-.12-.62-.57.1-.12.83.2.14.34-.15.27M173.79 166.54h-.44l-.5-.18-.56-.44-.57-1.08-.72-.87-.6-.44-1.17-.24-.3-.26-.05-.15-.21-.59.03-.43.19-.18 2.1-1.03.52-.42.6-.87.29.11 2.59 2.82.83.61.42.54 1.64 1.58.2.41-.13.29-.46.23-.72-.01-.62-.06-.82-.45-.42-.04-.21.09-.91 1.06M140.77 163.91l-1.17-.1-.51-.18-.4-.39.06-.18.42-.35.48-.22.11.04.17.05 1.86-.02.91.2.23.24-.25.39-.43.08-.4-.1-.42.03-.66.51M99.32 164.64l-.51-.08-.54-.29-.49-.48-.21-.5.04-.32.2-.23.34-.09 1.49 1.14.11.27-.06.23-.37.35M110.41 166.28l-.24-.16-.05-.23.79-.83.32-.16.84.13.1.16-.12.11-1.38.92-.26.06M108.33 166.2l-.73-.45-.4-.5-.18-1.32-.28-.22-.35-.02-.08.24.11.37-.2.31-.36.02-.92-.23-.92.09-.03.06-.31.7-.31.31-.76.27-.46-.08-1.34-.84-.09-.17.33-.04.1-.12-.69-.37.01-.13.18-.11.51-.01 1.34-.29 1.91-.62.31-.1 1.1-.12 1.41.26.75-.65.65.01.73.8-.12.19-.41-.27-.67 1.18-.16.6.33 1.25M91.23 162.46l-1.41-.61-.18-.31v-.37l.21-.46.33-.19.45-.07.31.23.09.81.4.7-.02.22-.18.05M127.68 163.93l-.22-.09-.08-.55.08-.47.4-.4.74-.42.63.22.49.56.21.46-.05.18-2.2.51M142.61 161.38l-.26-.02-.19-.16.01-.23.71-.65.49.02.01.48-.3.31-.47.25M193 154.04l-.16-.21.1-.2.46-.33.45-.08.06.16-.12.22-.45.38-.34.06M110.75 151.56l-.16-.03-.1-.14-.18-.61.08-.28.61.22.15.19-.4.65M190.56 152.45l-.35-.57-.03-.27.4-.09.04-.38.15-.08.3.23.12.31-.1.17-.32.12-.21.56M195.47 152.4l-1.59-.64-.85-.57.06-.29.62.23 1 .04.57.21.55.46.15.3-.11.23-.4.03M183.9 155.81h-.27l-.36-.31-.03-.2.62.12.2.27-.16.12M182.21 155.29l-.38.01-.5-.18-.39-.42.04-.2.16-.1h.42l.57.31.25.39-.17.19M178.34 157.89l-.43-.23-.21-.24.16-.82.18-.09 1.02.25.43.62.61.36.89.85.89.6.05.28-.35.28-.33.09-.7.61-.39 1.29-.16.19-.85.06-.35-.3-.39-.6.36-.07.59.41.37-.24.05-.09.22-.42-.35-1.51-.54-.78-.41-.32-.36-.18M174.3 155.46l.8.04.21.28-.96.8-.22.47.12.28-.05.13 1.68 1.64v.4l-.12.18-.23.09-.57-.18-1.76-.96-.14.05-.26-.06-1.9-.48-.98-.38-.06-.13.19-.14 1.11-.07 1.27-.41.4-.28 1.14-1.22.33-.05M115.58 156.59l-.38-.49-.33-.81-.02-.44.1-.12.75.05.64.24.03 1.01-.79.56M75.7 101.84l.41-.09.51.29.02.95-.19.23-.63-.23-.25-.89.13-.26M174.24 97.76l-1.08-.46-1.21-.04-.22-.14-.25-.63.04-.5.18-.44.3-.29.25-.12.76-.1.44.16.57.46.21.52-.12.72.13.86M287.02 61.59l-.55.23-.11.1-.82.7-.15-.16.14-.3.31-.31.85-.86.29-.06.04.66M288.46 60.79l1.07-.31 2.46-1.01.39.04-.11.33-.38.26-2.24.94-1.95.22-.06-.14.18-.12.18-.06.46-.15M231.41 50.91l-.29-.43-.25-.09-.07.01-.67.11-.14-.66-.49-.4.01-.23.21-.33.42.06.33-.14 1.22-.84.28.08.17.17.4.86.28.82.06.7-.12.2-.67-.2-.68.31M299.06 53.51l-.18-.03.29-.54.56-.51.18.07-.46.65-.39.36M271.38 74.2l-.22-.23-.07-.38.27-.68.26-.06.14.38-.38.97M273.3 72.96l-.38-.13-.01-.28.17-.25.33.02.16.26-.27.38M270.92 72.38l-.21-.49.1-.32.4-.04.1.23-.39.62M273.06 71.42l-.05-.17.3-.6.28-.19.17.16-.14.28-.29.44-.27.08M274.79 70.72l-.76-.44.01-.23.46.07.26.29.03.31"/>
        <path d="m274.4 68.16 2.71-.63.94-.47.84-.67h.15l-.05.21-.44.6-.64.59-.2.11-1.01.07-.42.66-.52-.32-.17.2-.32.36.34.27-.25.46-.42-.02.15.31-.1.1-.61-.3.18-.55-.26-.06-.47.19-.78-.01-.1.41-.25.29-.43.26-.26.04-.13-.1.91-1.33.33-.29.24.19.36-.07.99-.21.06-.09-.37-.2M261.77 82.02l-.23-.08 2.93-3.39.08.18-.31.65-1.03 1.47-.74.82-.7.35M34.16 146.62l.42-.16.35-.56.35-.02.96.87.23.54.44.33.08 1.24-.35.86-.59.83-.54 1.11-.18-.47-.37-.42-.32-.37-.39-.26-.51-.06-.4-.39-.09-.5-.47-.83.78-.89.43-.77.17-.08M193.85 149.88l-.9-1.11-.03-.43-.43-.74.15-.25.79.77.26.44.19.86-.03.46M191.44 155.84l-.16.09-.33-.06-.84-.5-1.16-.46-.77.02-1.18.18-.33-.12-.8-.57-1.77-.47-.85-.53-.27-.16-.73-.63-.73-.36-1.62-.31.15-.28 1.27-.93.62-.78.79-.49 1.15-1.26.22-.62.07-.22.21-.15.5.21.3.32-.45.55-.13 1.07.22 1.05.61 1.21.02.37.16.29 1.05.7.85.26.55.03.48.01.63.07.02.01 1.48.49-.1.13-.42-.07-.02.14 1.1.35.36.32.15.53-.13.48-.17.09M191.57 147.02l-.41-.27-.3-.41.06-.23.23-.12h.35l.46.18.71.55-.05.18-1.05.12M194.55 146.95l-.46.02-.19-.36.13-.39.29-.04.44-.28.42.1.12.21-.24.39-.51.35M197.82 144.85l-.25-.01-.76-.32-1.48.15-.44-.14-.21-.16.01-.2-.65-.42.03-.2.71.07 1.1.35.72-.09.36.24.49.03.27.11.2.4-.1.19M189.73 148.59l-1.45-.45-.3-.24-1.56-.58-.32-.24.03-.18.4-.3.68-.28 1.52-1.05.63-.77 1.03-1.25.42-.31.14.21-.12.27-.4.48-.11.32-.59.65-.27 1.5-.27.33-.44.05-.1.15.14.26.99.73.12.33-.04.28-.13.09"/>
        <path d="m191.3 144.15-.52-.01-.01-.17.88-.08.31.17-.12.12-.54-.03M52.71 127.59l.4-.32.4-.03.43.25.4.84-.51.77-.31-.03-.81-1.28v-.2M74.13 117.28l.26-.09.51 1.03-.13.37-.29-.12-.13-.51-.42-.42.2-.26M200.15 142.72l-.7-.28-.45.05-.24-.14-.14-.17-.16-.62-.14-.55-.51-.94.12-.27.85-.08.2-.11.17-.57.16-.09.23.11.09.52.39.25.75.08-.54.21-.38.36-.18.51.12.36.42.45.23.47-.06.24-.23.21M196.78 141.5l-.93-.26-.52.24-.08.01-.68.06-.78-.05-.59-.19-.34-.32.18-.12 1.08-.03.57-.34.78-.87.61-.22.31.04.16.26-.07.23-.7.61.04.15.89.38.15.21-.08.21M199.41 137.14l-1.46 1.25-.36.14-.15-.14 1.12-1.12.61-.1 1.22-.96.2.08.14.33-.1.17-1.22.35M204.55 132.43l-.49.57-.25.04.52-.65.22.04M211.23 127.44l-.68-.04-.18-.14-.25-.71.26-.79.04-.52.2-.37.48.22.58-.08.06.14-.2.37-.08.44-.35.33.1.59.57.35-.55.21M209.52 125.04l-.25-.01.15-.34.57-.33.65-.15.15.19-.16.19-.49.1-.62.35M90.03 122.88l-.43-.16-1.06-1.37-.07-.74-.04-.35.15-.28.29.04.87.11.62 1.07-.33 1.68M42.37 65.03l-.14-.07-.01-.65.26-.29.4-.08.37.63-.42.33-.46.13M311.94 647.03l.19.08v.15l-.08.18-.16.08-.15-.16.04-.14.16-.19M272.5 658.08l.02-.09.14-.42-.11-.35.13-.33.23-.01.32-.08h.28l.1.38-.28.34-.25.15v.16l.03.16.02.07-.27.13-.26.11-.13-.09.03-.13M290.53 656.73l-.08.05-.09-.02-.41-.11-.29-.17-.23-.31.25-.22.4-.35.27-.33.32-.22.39-.02.54.25.56.42.52.21.17.06.3-.07.03.08.14.29.03.26-.27.26-.08.3-.04.13-.06.02-.53.01-.18.2h-.17l-.25-.24-.31-.16-.13-.26-.1-.17-.02-.03-.43-.01-.25.15M325.58 655.49l.05-.26.24-.29.54.15.43.01.04.06.23.31.15.27-.2.26-.16.14h-.23l-.16-.11-.23-.08-.23-.15-.19-.04-.31-.12.03-.15M301.82 656.96l-.42-.22-.5-.12-.28-.04-.3-.12-.28.04-.31-.21-.3-.23-.25-.21v-.33l-.04-.19-.07-.21.08-.31.2-.22.31-.17.51-.22.53-.16.39-.18.23-.28.55-.05.31.06.31-.09.37-.16.3-.11.37-.09.33-.16.55-.24.53-.53.14-.3.37-.13.18.14.19.32.08.97.17.6.2.46.43.16.66.19.35.16.31-.11h.19l.3.04.09.14.04.14-.2.26-.08.15-.04.07-.37.13-.33.13-.37.12-.45.24-.3.32-.41.05-.2.16-.45.28-.35-.03-.15.08-.37-.03-.3.11-.23-.09-.27-.05-.31.15-.37.11-.26.03-.11-.09-.2-.19-.27.03-.42.04-.01-.01M499.97 219.85l-.45.23-.25-.13.01-.41.19-.05.7.13-.2.23M326.53 16.45l-.2-.06-.2-.53.06-.5.6-1.28-.05-.55.14-.23.47.16.19.37-.21.49.03 1.15-.15.55-.31.29-.37.14M334.9 14.15l-.87-.3-.14-.35.13-.22.67.26.4.02.06.13-.25.46M339.54 14.61l-.61-.04-.15-.16.05-.17.49-.36.47-1.28.33.11.21.89.4.53-.18.25-.31.14-.7.09M492.06 459.83l.33-.29-.57-.93-.09-.41.11-1.34-.24-.32.08-.48-.17-.55.46-.74-.01-.25-.22-.37.29-.33.44-1.57-.25-.19-.09-.35.1-.46-.19-.54.21-.76.34-.21.89-1.08-.08-.15.13-.28.82-.63.86-.72.56-.44.13-.93.23-.32.9-.64.28-.72.2-.16.26-.05.83.63.28.09.43-.12.86.22.69-.19.09-.11.13-.15.16-.22.55-.17.53-.63.02-.01.04-.16.2-.94.49-.69.07-.1-.01-.03-.27-.78-.05-.86.27-.2.2-1.14-.06-.47.19-.56.26-.43 1.01-1.67.4-.39.08-.07.13-.13.39-1.39.26-.14.68-.78.79-.91 1.43-.75.23-.53-.16-.68.06-.3.06-.13.44-1.01.02-.55.05-.14.23-.62-.04-.53-.05-.9.73-.47.17-.11.68.05 1.05.37.29.42.12.9-.18.2-.47 1.44-.41 2.18.29 1.83v.01l.02.02.1.13.36.44 1.66.9-.19 1.03.32.62-.12.36-.05.16.18.12.64 1.33.13.13.74.22.2.23.02.24-.8.76-.28.51-.71.4-1.09.41-1.08.45-.3.47-.9.36-1.16.46-.77.48-.38.23-1.08.84-.11.25.06.3-1.23.86-.58 1.15.22.59-.45 1.12-1.21 1.48-.06.07.09.05.14.08-.11.61.06.46-.24.63-.02.69-.73 1.08-.55.55-.07.14-.16.31.08.09v.01l.13.16.17.23-.08.41.31.34-.13.2-.82.4-.28.57-.53.03-.48.47-.94.41-.25.68-.43.32-.62 1.5-.51.28-.63.53-.12.05-2.45.9-.22.18-.04.19-.13.55-.62.79-.21.03-.56-.24-.48.3-.23-.15-.51-1.38.28-.67-.1-.87"/>
        <path d="m500.93 439.82-.12 1.4.27.3.03.21-.2.27-.75.42-.21.01.09-.94.89-1.67M459.11 434.17l-.32-.16-.43-.39-.03-.07-.22-.43.06-.03.79-.33.04.54.29.6-.18.27M496.94 424.25v-.65l.2-.36.36-.24.13.4-.13.47-.17.28-.39.1M465.47 435.43l-.36.13-.25-.2.23-1.15.27-.43h.26l.2.2-.35 1.45M499.07 419.9l.06-.11.32-.68-.14-.95-.21-.34.1-.41.33-.34.08-.64.3.19-.02.79-.17.34.26.34.06 1.82.02.68-.37.31-.53.11-1.07.22-.48.28-1.23 1.18-.43.08-.16-.59.09-.38.09-.14.96-1.53.27-.18.33.21.35-.06.17-.15.3-.81-.14-.19.19-.19.49-.11.16 1.08.02.17M500.24 413.99l-.04 1.38-.38.36-.91.34-.13-.25.87-1.68.59-.15M536.15 78.91l-.7.08-.18-.1.27-.29.54-.02.14-.01.18.2-.11.12-.14.02M456.49 72.66l-.13-.13.11-.17.53.1.95-.15.04.11-.36.19-1.14.05M460.68 72.07l-.06-.13.33-.18 1.41-.33.73-.28.44-.09.09.15-.93.45-1.13.38-.88.03M459.03 72.35l-.56-.03.03-.18 1.15-.16.11.15-.73.22M464.29 70.99l-.02-.18 1.74-.54.79-.04.64.1.13.18-3.28.48M431.69 64.1l-.35-.15-.2-.35.14-.33.57-.19.24-.7.19-.2.31.05.15.27-.45.65-.11.68-.14.2-.35.07M196.32 48.21l-1.47-.35-.16-.01-1.58-.05-.31-.19-.17-.3-.06-.41.25-.31 1.19-.18.5-.32.66-.04 1.18-.39.22.64.2 1.21-.04.54-.14.13-.27.03M188.3 32.14v-.5l.23-.3.3.14.21.26-.24.37-.5.03M239.62 23.41l-.32-.19-.29-.54.05-.15.2-.11.35.07.36.29.14.31-.17.29-.32.03M193.92 22.26l-.34-.13-.49-.9-.88-1.16-.58-1.14.04-.11.11-.36.44-.46.63-.44.54-.2h.54l.58.15.59.52.51.84.13.54-.03.65-.57 1.47-.35.47-.35.21-.52.05M378.57 14.36l.51 1.01.66 1.65.02.34-.16.03-.29-.68-.56-1.47-.18-.88M252.09 22.4l-1.12.03-.41-.1-.7-.75-.08-.48.17-.48.32-.33.52-.15.48-.31.42-.01.27.24.38 1.59-.05.47-.2.28M480.72 70.46l-.25-.05-.17-.27.05-.23.22-.15.35.12.99-.29.15.32-1.34.55M469.01 70.52l-.62-.03.03-.33.28-.24.95-.33.95-.07.07.2-.09.18-.36.3-.42.18-.79.14M471.52 69.85l-.19-.12.42-.25 1.23-.34.84-.08.16.19-1.75.49-.71.11M482.66 69.84l-.2-.18.05-.2.29-.06 1.36-.71 1.73-.11.06.17-.36.66-.72-.04-2.21.47M156.71 4.49l-4.29-.88-1.47-.56-.57-.46-.53-.65-.06-.08-.48-1.26.61-.6M252.22 0l-.03.09.04.74-.22.04-.81-.47-.51-.06-.42.21-.16.39.02.09.05.22-.31.01-.4-.32-.51-.8-.04-.14"/>
        <path d="m600 87.74-.7-.31-.47-.45.05-.25.28-.09.17-.27-.2-.48-.27-.27-1.15-.35-.12-.04-1.13-.15-4.41.07-.74.1-3.15.41-.44.09-.59.12-2.34.72-1.01.44-.29-.11.35-.36 1.17-.44.57-.47.52-.23 2.34-.43.09-.02.26-.2-.51-.12-1.19.08-1.72.33-1.28.42-.52.38-.26.4-.15.7.25.71.24.21-.74-.01.04-.37-.14-.33-.11-.08-.27-.19-.66-.15-.63-.51-.66-.18-.65-.64-.05-.28.35-.42-.27-.7-.4-.26-.56-.17-3.75-.22-.49-.03.73-.44-.18-.31-.88.77-1.48.02-2.96.37-.77-.04-.23-.29-.19.04-.53.41-.55.11-1.7.36-1.3.16-2.21.04-2.39-.57-1.11-.48-.89-.56-.33-.21-1.09-.97-.62-1.07-2-1.6-1.82-.56-1.08-.12-1.13.07-.74.04-1.62.45-.39-.37-.67-.04-.17-.1-.91-1v-.46l-.89.15.36.75-.05.11-.48-.03-.15.13.17.33.49.37.57-.01H546.07l.38.16.06.12-.53.15-2.55.17-3.01.47-.65.01-.25.01-1.64.76-.36.16-.21.1-.57-.86.41-.22.4-.06.44-.3 1.5-.08.29-.18-.27-.27-1.14-.15-1.26.34-.15-.16.35-.45-.38-.53.31-.4.02-.08.15-.58.31-.34-.2-.2-.49.04-.55.61-.26.12-.35-.12-.21-.43-.04-.09-.27-.03-.19.12-.29.19-.07-.36.19-.59.16-.47-.08-.1-.14.01-.11.21-.22.44-.1 1.04.2.26-.24.8-.11.36-.53.44-1.99 1.1-1.69.36-.12-.08-.06-.27.22-.42.62-.64.15-.07.4.1.35-.25.57-.99.37-.25.24-.03-.06 1.23.33-.05.58-1.05.35-.3.09-.33-.21-1.13.44-.55-.35-.16-1.25.66-.23.06-.05-.01-.34-.09-.43.1-.94.7-.03.04-.1.14.72.25.14.25-.18.17-.7.05-.42.39-.7 1.3-.25-.1-.31-.73.27-.67-.45-.43-.3-.03-.2.29.33.4-.33.47.4.4.09.33-.1.22-.5 1.08.67.15-.38.56-.44.23-.79-.03-.95-.6-.34-.55.05-.15.43-.15.31-.6-.06-.18-.16.02-.88.61-.13.43.11.48.25.19 1.06.81.3.35.12.4.2.12.46.03 1.08-.38.82-.51.73-.62 1.54-.06.99-.3.9-.74.04-.07.41-.64.26-.05.51.78.77.53-.06.13-.27.15-1.19.12-3.86.95-1.22.5-2.95 1.21-.99-.07-.62.16-.43-.71-.42-.02-1.41.35-1.01.01-1.02-.16-.34-.12-.28-.1-1.37-.75-.88-.81-3.78-4.42-.53-.47-.79-.71-1.42-.85-1.41-.5-2.89-.61-.28-.18.21-.33-.88-.7-.81-.23-.44-.12-.05-.4-.44-.28-.92-.35-.49-.1-.7.02-.51.08-3.37.56-1.33.21-.66-.11.38-.26.33-.22.22-.29-.13-.21-.12.16-.64.14-.3.46-.22.12-.69-.08-3.81-1.26-2.47-.46-.86-.16-1.41-.26-.35-.18.24-.24.42-.03.36-.58.22-.78-.06-.19-.16-.06-.18.13-.02.41-.2.45-.24-.06-.07-.27.2-.71.38-.59-.08-.18-.27.1-.18.22-.16.35-.37.76-.21-.04-.15-.04-.48.27-1.21.04-1.4.76-.35.05-.11-.33.21-.98-.05-.4-.13-.13-.2.25-.13 1.1-.16.4-.4-.35-.26.1-.05.42-.2.26-.35.15-.44-.11-.15-.23v-.5l-.6-.25v.42l.29.53-.09.55-.09.19-.44.09-2.74-.62-.94-.03-.75-.03h-.13l-.03-.17.36-.13 1.32-.06.38-.33-.09-.18-.31-.15-.9.04-.47-.09-.34-.18-.44-.66-.33-.18-.46-.02-.56.21-.62.43-.64.23-.68.06-.51-.22-.05.14-.13.41-.5.12-.27-.03-.55-.35-.31-.01-.11.38-.4.05-.31.25-.22-.08-.28-.73-.38.57-.4.17-2.35.21-.76.3-1.21.74-.42-.17-.23.09.35.59-.09.1-.08.09-.29-.02-.77-.31-.53-.34-.57-.1-.48-.4-.11.19.04.25.28.24.95.31.13.25-.64.3-.79.06-.49-.35-.48.04-.11-.1-.08-.57-.14.06-.18.43-.68.17-.18.28.11.42-.14.06-1.49-.85-.27.35.39.38-.24.1-.45-.09-.19-.04-.09.18.43.13 1.03.31.26.27v.23l-.18.02-2.03-.7-.47-.24-1.09-.55-2.71-1.6-.04-.18 1.01.05.22-.21.12-.63.2-.2.95-.14.2-.2-.07-.16-1.1.07-.33.15-.06.12-.48.87-.33-.02.1-1.2-.13-.15-.51-.04-.63-.26-.27.25.63.54.07.28-.07.27-.33.04-1.11-1.31-1.04-1.45-.47-.67.12-.19.64.74.14.03.12-.17-.33-.43.22-.38-.06-.23-.58-.01-.15-.3-.5.23-.43-1.07-.4-.57-.69-.52-1.52-.71-.11-.02-.87-.19-1.13.1-1.55.34-1.7.58-.9.42-2.94 1.87-.04.01-2.01.74-1.07.65-.71.23-.12-.39.91-.85.27-.55.1-.62-.27-1.47.09-.2.18-.07.28.23h.2v.09l-.03.72.17.45.32.25.49.14.46-.07.33-.18.81-1.29-.43-.68-.59-.44-.13-.05-.27-.1-.07.57-.22.07-.74-.26-.5-.45-.47-.72-.28-.42-.05-.07-.68-.67-.61-.33-.87-.47-.82-.21-1.25-.01-1.96.19-.22-.07.27-.35-.49.04-.66.47-.51.11H421.43l-.48-.43-.92.01-.38.37-.89-.04-.35-.11-.36-.6-.24-.11-.19.66-.17.15-1.72-.19.33-.4-.1-.1-.66.41-.16.09-.98.16-.21.04-2.08.02-.91-.08-1.61-.13-3.51-.66-.15-.16.08-.14 1.04.04.23.05 3 .6.34.01 2.54.07.24-.11-.13-.24-1.44-.89-.45-.63h-2.13l-1.05.47-.97-.04-.48-.02-.07.34-.22.1-.57-.11-.65-.48-.19.42-.35.26-.33-.02-.19-.43-.35-.24-.7-.21-1.32-.17-.95-.12-2.96.02-.9-.19-.88-.64.61.2.8.27.97.05.17-.2-.9-.94-.83-.5-.34-.71-.09.33.21.71-.03.28-.51-.15-.21-.32-.94-5.16-.38-2.08-.42-1.38-.51-1.06-1.3-1.74.05-.45-.13-.45-.51-.39-.34-.77-.13-.29-.32-.29-.53-.21-.68.06-.45-.38-.9-.3-.08-.15.36-.69-.01-.48-.49-1.01-.34-.04-.24-.37.14-.78-.2-.88.28-.53v-.2l-.07-.11-.29-.45.06-.29.08-.41 2.42-3.64.23-.58-.31-1.28-.22-.18-.67-.04-.26-.18-.33-.48-.06-.1-.01-.46-.5-.36-.29-.53-.7-.34-2.56-2.03-.79-1.18-.33-1.03-.18-1.14-.19-1.23.08-.67-.63-.75.01-.19.55-.02.22-.19-.39-.47.23-.55-.63-.3-.77-.58-.3-.07-.08.49-.15.07-.61-.55.73-.61.17-.15.04-.16-.32-.6-.44.19v.34l-.11.16-.22.02-.67-1.45.03-.48-.43-1.28-.16-2.17-.24-.13-.15-.28.45-.37.1-.22.02-.05-.06-.4-.48-.31-.3.02-.18.1-.25.49-.15.05-.07-.11.94-2.33.27-.28.15.18-.42 1.1.05.18h.17l1.5-1 .14-.25-.37-.05-.64.56-.13-.12.38-1.51.25-1.67.19-.02.1-.41-.08-.05-.14-.08-.08-.34.07-1.28M220.96 0l-.27.24-.18.26-.22.34-1.32.78-.41.45-.35.71-.17.14-.34.02-.95-.3h-.66l-.51.15-.28.14-1.31 1.47-.46.03-2.51-.95-1.27-.3-3.17.02-.39.05-.49.06-2.27.64-.86.07-.93-.02-.44-.13-.37-.26-.45-.65-1.21-2.72-.14-.24M0 185.99l.46.33.98.26.23.06 1.19-.08.55.17.34.11h.26l1.44.02.8.22.57.47.06 1.06.01.15.06.03.29.15.43-.06.67-.28.18-.07.12-.45-.08-.76-.18-.25-.49.13-.63-1.09.33-.47 1.06-.08.38-.01.2.16.19.43.36.2 1.48-.08.66.27 1.8.05.19-.11-.01-.42.18.03.72 1.13 1.95 1 1.27.31.6.47.31.01.29-.35.27-.34.38-.25-.38-.61.93.12.91.35.32.12.87.19 1.05.03 4-.42 2.79-.78 1.53-.29 1.49-.66 1.85-.33.23-.13.29-.37.29-.08.68-.22.42-.4.13-.06.9-.4.25-.34 1.9-.87 1.13-.39.87-.08.77-.27.53-.42.85-.3 1.34-1.02.26-.98-.48-.63.45-.01.28.24.39.01.59-.43.96-.03 1.08-.28.07-.03.53-.28.71-.6 3.02-1.09.11-.08.54-.41-.2-.67-.27-.22.22-.81.12-1.06-.14-.4.04-.19.5-.14.8-.6.39-.19.84.06.37.02 1.64.93-.1.22-.04.09-.44-.06 1.05 1.24-.05-.23.35-.09.85.45.69 1.25.17.3-.02.36.11.11.13-.07.86-.41-.19-.36-.02-.03.03-.01.21-.06.73-.02.46-.17.97.22.11.21 1.3.15.23.12.74.07.17.19h.52l.13.47.5.13.26.07.42-.02 1.51-.45.58-.05.61-.26.54-.37.58-.1.22-.02.55-.04.8.49.66.39.71.18.95-.19 1.45-.6.38-.16.36.07.33-.22.39.55.44.33.83.02 1.07-.39 1.23-.61.41-.6.2-.05.92.66.2.09 1.32.26.61.29.67.33-.56.01-.01.2.45.18.86-.03 3.51-1.01h1.88l.13-.15.09-.09.16-.53.03-.38-.03-.12-.19-.62.08-.25.33-.25.51-.04 1.13.34 2.78 1.29.49.31.57.64.39.76.81 1.48.58.32.84.23 1.21.2.34-.05.64.18.73.61.48-.13 1.06-.55.45-.4.12-.5-.04-.8 1.24.63.96.38.66-.33.56-.29.59-.14 2.42-.02.63-.11.56-.27.94-.72.31-.01.97.22.44.23.21.61.29.34.53.14.23.06 3.71.99 1.73 1.1 1 .8.64.92.32.29.46.15.51.02.75.02 3.86-.13 1.61-.33 2.16-.95 1.21.38.7.21 2.69-.12 2.07.43 1.16-.04 1.26-.6.43.02.5.2.83-.05 2.3-.11.68-.21.89-.66.99-.07.66-.26.65.03.66-.61 2.37-.68.16-.04 1.33-.17.89-.38.09-.14.68-.11.92-.35 1.45-.36 1.41-.79 1.19-.02 1.36-.72 1.45-.75.64-.34 1.86-.56.36-.34-.63-.68.63-.65.67-.36.26-.26.56-.22.69-.27.11-.4-1.18-.77-.5-.83-.46-.1-.96-.43-.79-.84-.47-.78-.52-.35-1.22-.07-.5-.26-.06-.09-.09-.14-.89-.43-.1-.22.04-.43-.19-.2-.48-.51.03-.14.21-.26 1.34-.72 1.64-1.17.47-.26.53.04.1.15-.18.6.06.35.26.44.87.78.46.88 1.95 2.09 1.73 1.47 1.82 1.3.52.34.27-.5.19.59.15.06.15-.6.34-.27.8-.08 1.28-.14.22-.14.1-.15-.23-.36.05-.51.46.15.11.04.24.56.18-.02.37.23.74.04.48-.15.89.09 1.1-.11.21-.17-.1-.31-.82-.49-.02-.32.31-.13.3.22.79.18 1.28-1.15.1-.09 1.93-.91 1.26-1.01 1.19-2.11.17-.16.45-2.24.33-.51-.16-.32.27-1.04.5-.55.69-.39.45-.06.51.13.71.45.05.01.3.03.17-.2-.13-.58-.56-.44-.57-.17-.36-.37.11-1.32.95-.26.72-.02 1.01.35.23-.76.21-.12.18.02.33.51.36.27.14-.1.04-.02.04-.03.25-.31.24-.71 1.66-1.2 1.2-1.6.03-.18-.27-.54-1.76-.94-1.42-.58-1.29-.53-.26-.27.1-.17.56.01 1.16.33.31.19 2.02.1.61-.22.84-.79.59-1.68.96-.85.48-1.6.15-.49v-.35l-.1-.4-.37-.2-1.23.14-.26-.18-.12-.24.25-.51.29-.1.25-.1 2.18-.38.53-.37.38-.46-.19-.19-.68-.27-.36-.3.03-.08.02-.09.14-.12 1.35-.19 1.05-.3.44-.31.1-.22-.21-.33-1.27-.42-.23-.23.08-.2 1.22-.97.1-.18-.04-.23-.24-.08-.43.56-.24.03-.15-.3v-.73l-.19-1.22.13-.49.7-.6.03-.17-.34-.04-.72.26-.75.46-.04-.13 1.63-1.22 2.07-.82-.2-.19-.1-.01h-.14l-2.6 1.43-.56.53-.17-.09-.36.16-.18-.11.12-.2 1.93-1.2 1.56-1.51.25-.38.46-.72.18-1 .08-.12.11-.14.2.01.63.48 1.24.36.57.18.47.6.1.56-.28.5.28.04.12-.14.5-.17.16-.3-.49-.85.01-.25.76.08.32-.41.56-.1.11-.24-.38-.47.21-.34.41-.19.43-.06.06-.15-.24-.24-.21-.01-.7.33-.15-.08-.11-.14.17-.31.34-.13.26-.42-.08-.18-.72.24-.3-.07-.01-.25.48-.38.63-.22.14-.12 1.78-.49.49-.22.37-.17 1.05-.65 1.62-1.39 2.11-1.05 1.46-.89 1.34-1.29.91-.87 2.02-1.27.61-.27.87-.11 1.15-.33.39-.17.43-.18 1.4-.6.88-.49.69-.51.1-.07.35-.26-.52-1.11 1.35-.05.09.28 4.24-4.12.48-.52 2.97-3.2 3.17-4.02.11-.15 1.36-2.13 1.59-1.93.81-.99.18-.26.52-.74.32-.06.37.23.85.55.41.39 1.94 1.78.2.46-.26.55-.58.6-.52.38-.47.14-.15.29.09.18.41.17.51-.08 1.15-.99.32-.06.09-.39-.17-1.25-.16-.22-.81-.47-.89-1.34-.13-.11-.28-.23-.55-.24-.56-.24-.43-.29-.02-.18.86-.43.91-.64.76-.7.47-.67.96-1.39.19.14-.35 1.43v.03l.1.38.24.09.1-.25-.01-.06-.08-.57.06-.47.26-.27.26.03.07.13-.08.28.16.3.2.02.23-.2.15-.45-.09-.47-1.06-.68 1.48-2.12.42-.1.54-.67.19-.04.01.07.01.09-.07.12-.71 1.25-.09.38-.32 1.43.17.16.26.01.12-.14.02-.02.13-1.96.8-1.22.27-.6.77-.6.89-.93.68-.71.92-.71.47-.02h.02l.21.35-.19.21.13.28-.04.46.16.33.37.23.5.08h.02l.08-.13.11-.19-.3-.26-.27-.29.22-.62.3-.21.81-.05.96-.71-.02-.24-.76-.19-.28-.18-.06-.04.14-.25.16-.09 1.32-.73.2-.25.01-.01-.06-.21-.17-.11-.44.16-.18-.15 1-.5.24-.21.3-.26.15-.41-.03-.37-.15-.21-.31-.06-.72.5-.17-.15 1.62-2.08.12-.22 1.06-1.87.65-1.35.45-.94.69-.88.12-.07.54-.33.4-.11.3.06.09.15-.6.58-.07.43-.04.27-.45.86-1.61 1.86.14.17 1.2-.25.29.13.14.26-.07.22-.26.25-.55.18-.25.21.3.12.57-.03.44-.31.29-.69.24-.1 2.63-.17 1.12-.46.17.1-.36.37-.18.19.18.05.12.03.36-.16.48-.34.88-.63.49-.34-.19-.23h-.03l-.36-.05-.27.18-.25-.55.04-.52.5-.41.36-1.16.77-.66.8-.97.05-.04 1.51-1.03.24-.45 2.52-1.13.91-.67.44-.43.7-.71.77-1.23h.2l.02.08-.03.08-.29.64.13.08.03.02.16-.15.54-.52.54-.29.9-1 .01-.6 1.1.01 2.41-.47 1.52-.92.14-.09 4.61-4.2.71-.8.07.17.15.37-.07.44-.19.39-.34.13-.16.19.15.23.48.26.53-.12.28-.37.2-.78.36-.25.24-.17-.08-.21-.01.01-.5.28-.27-.02-.14-.25.35-.24-.16-.26.3-.33.95-1.03 1.05-1.7.11-.23 1.11-2.47.21.32-.19 1.02.18-.05.15-.24.28-.82.25-.04.47.24.27-.07.15-.62.74-.45.12-.33-.06-.32.42-.54.05-.06.08-.11.21-.46-.12-.1-.11.04-.05.01-.77.91-.13.66-.42.04-.64.78-.2-.08-.06-.33.95-2.02.31-.94.67-1.1.37-.6.13.28.03 1 .04.13.18-.09.11-.81.04-.37-.24-.81.21-.67.43-.88.47-.98.32-1.44.13-.58.19-.89.28-1.28.42-1.09.26-.32.24-.27.43-1.11 1.4-1.63.42-.48.35-.67.16-.31.47-.47.89-.37.45-.43.38-.65.35-.97.17-.49.53-2.25.65-1.33.43-.52.56-.35.7-.79.26.19.16.58-.08 1.08.18.57.24.75-.04.62.13.18.31-.09.49-.59.27.06.31.52.42.23.08.05.26-.14.44-.92.19-.16.37.01.49.38.48-.58.26.09-.02 1.15.22-.02.32-.42.27 1.34.24.28.6.14.27-.06-.04-.15-.52-.35.35-.06.21.08.9.33.4-.16.28.05.32.54.28-.02.27-.22.42-.82.34-.38.18-.48.57.2.81-.13h.83l.73.5.48.13.07-.67.56.16.04.01.05-.11-.13-.27-.63-.55.02-.18.39-.01.12-.29-.18-.41-.31-.06-.73.22-.09-.77-.36-.04-.19.45-.18.09-.18-.66-.39 1.35-.26.14-.44-.99-.3-.05-.13.15-.88.94-.27.1-.26-.24-.5.89-.5.57-.45.28-.63-.01-.46-.29-.2-.46-.13-.68.09-1.11.38-.93.52.04.1-.16-.01-.06-.17-.65.19-.47-.06-.4.22-.67-.06-.43.12-.4.46.12.45.58.47.17.23.53.41.27.3.63.16.14.6.07.37.31.16-.05.4-.6-.12-.29-.31-.2-.51-.35.1-.13.3-.06-.04-.13-1.17-.27-1.81-1.72.64-1.02.2.01.3.26.3.03.49-.48.37.26.2-.07.28-.85-.08-.37-.05-.26.07-.35.44-.87-.06-.88.09-.73.46-.83.25.15.07.18-.42.89.04.2.15.04.18-.15.36-.56.52.41-.5.67.1.24.33-.18.25-.28.38-.44.24.21-.17.55.08.28.2-.04.44-.87.17-.08.22.11.1.18-.23.4.01.4-.25.54-.01.28.25.26.29-.07.74-.63.57.16.28-.13.15.12-.21.83.09.38.12.14.1.13.37.06.33-.09.55-.41.07.61.17.25.18.03.64-.21.85-.05.74.1.25-.09-.43-.47-.27-.6-.88-.43-.24-.28.1-.3.41.08 1.01.62.29-1.03.15.08.31-.04-.01 1.15.33.89-.28.46.04.16.96.13.07.15-.35.57-.18.12-.74.04-.44-.11.14-.34-.17-.11-1.48-.01h-.9l-.31.15-.23.46-.38.29-.23-.36-1.43.22-.07.2.27.63-.05.22-1.71.05-.51.12-.2.27.04.2.61.65.12.33-.09.26-.22.1-.25.12-.14.27.13.16.55.14-.14.35.45.23.44-.21.18.05.14.18-.05.53.18.33.5.09.72.45.5-.01.63-.69-.14-.63.12-.25.96.78.24.04.41-.1.37.39.57.04.06.11-.18.27-.37.09-.33.27-.13.42.02.38.66 1.46-.21.23-.72.26-.17-.58-.45-.34.29-.63-.04-.28-.37-.35-.39.03-.51.39-.52.41-.11.26.09.5-.11.19-.44-.03-.06.5.24 1.63.2.19.39.11.38-.49.16-.05.52.12.41.33.43 1 .24.1.4-.24.13.11v.7l-.01.45-.25.02-.31.27-.19.01-.15-.53-.21-.17-1.58-.05-1.47.41-.35-.14-.21-.23-.22-.71-.5-.44-.01-.28.29-.39-.15-.63.41-.8.04-.07-.16-.35-.17-.01-.5.49-.75.41-.26.32-.2.99-.34.37-.39.16-.14-.07-.06-.18.31-.92-.24-.76.15-.37.99-.37.32-.35-.26-.36-.51-.14-.59-.16-.47.13-1.17 1.22.21.47-.35.49-.33.23-1.14.08-.41.18-.16.33.25.4.16.79.26.08.49-.91.21.33-.13.32-.39.94.12.29-.41.56-.22.92.03.43.68-.01.24-.16.29-.92.4-.8.39.06.34-.14.53-.44.29.02.17.28-.03.29-.33.79-.47 1.13.08.32.35-.09.38.37.29-.04.16-.15.56-1.27.35.02.13.14.2.72.19-.02.41-.39.26.13.04 1.03.23.18.53-.28.93-.13.66-.09 1.78.49.04.17-.38.29-.92.32-.47.27-.34.45-.24 1.34-.25.35-.83-.2-.75.26-.27-.41-.29-.07-.29.08-.52.16-.21.22-.29 1.04V39l.19.19.56-.42.29-.06.49.24.39.06.58-.14.4.04-.13 1.1.3 1.26-.05.35-.3-.16-.25.07-.59.65-.04.04-.56.36-.18.27.27.26.92.26.45.26.11.32-.16.66.58.59.3.15.88-.6.35-.08.17.15-.69.58-.29.7-.72-.18-.54.21-.3.12-1.38-.71-.29.12-.2 1.67.21.43.67.23.06.2-.17.54-1.21 2.28-1.02-.08-.11.01-.27.01-.18.16.02.19.84.49.13.21-.08.22-.31.2-.76-.11-.19.22.52.47-.02 1.46-.54.24-.22.99-.2.2-.15-.03-.4-.84-.14.09-.06.6-.09.88-.73 1.64-.34.46-1.21.97-.31-.03.93-1.83-.22-.14-.29.2-.73 1.14-.19.22-1.86 2-.09.35.48.81-.19.53.2.7-.84 1.28-.16.55-.1.33-.06.47.21 1.07.25.6.39.41.45.27 1.78-.02 1.22.41.77.26.44.15.47.35.3.5.07.56-.16.9.12.75.89 2.7.06.25-.44 2.24.08.88-.22 1.93-.03.25.25.97.19.73.01.12.01.43-.06 1.38-.15.75-.24.54-.51.36-.04.31.29.84.35.38.43.02.05-.07.26-.36.18.34.03.45.49.26-.06.48.14.53-.12.83-.02.13-.43 2.89-.69 2.98.06.45-.35 4.68.14 2.15.38 4.23.04.48.25 2.71-.37.75-.23.09-.19-.2-.18-.03.05.58.18.11.17.42.19.5.25.24.1-.24.06-.13-.14-.4.05-.32.14-.08.12.93.55 1.6.01.03.37 2.61.64 1.61.75 1.89.95 2.11.19.53.36 1.05 1.66 2.79.28.47 1.79 4.73.86 2.28.56 1.05 2.61 4.82.33.92 1.01 1.28.6 1.07 1.45 1.76 1.83 2.83 1.14 1.49 3.09 2.86 1.09 1 .84.62 1.28.72.89.75 2.64 3.48.8 1.05 4.68 5.9.34.45 1.91 2.62 1.2 1.19 1.29 2.41 1.2 1.25.68.71 1.42 1.94 2.46 2.07 2.37 1.72 3.73 2.72 2.79 1.99.42.46 1.25.89.46.67.81.75 1.16.84 1.18.51.66.56 1.09.48.18.17 1.1.27 2.56 1.04.43.21 1.28.33 1.7.71.87.25 4.22 1.19.08.02.71.26 1.05.28 1.42.36.93.23.7.41.77.06.41.15 1.12.4 1.52.33.81.41 1.39.55.65.08.98.59.95.26.93.39 1.9.81 2.49.63.38.34.27-.23 1.09.53.63.09.86.28 2.64.4.65-.02.4.1.18-.11 3.04.11 1.69-.72.29-.07.43.84-.81.86.35.11.4.37.19-.04-.16-.39.19-.39.42.34.16.28.37.21.77.74.51.17 1.45.97.8.22.52.38.16-.05 1.31.42.72.06 3.54.04.52.01 1.32-.22 3.05-.15 1.28-.16 3.26.05.47-.07.69.29 1.53.16h.04l.98.22 2.42.9.6.32 1.04.35 1.28.76.11.15.34.12 1.38 1.08.69.58.45.22.08.3.59.26.67.51 2.48 1.06.1.25v.02h.05l3.37.32.15-.17 2.87.17 1.15-.02 3.35-.56 2.03-.92.37-.58.35-.32.21-.45.25-.06.76-.03.39.18.39.51.12.15.42.28.43.05.44-.17.43-.03.34.19h.52l.96-.35.14.12.03.11.04.2-.24.38.08.22.06.03.14.06.18-.17.26.05.19.05.22-.13.34.15.36-.02.4.27.27.04.56.85-.49.39.61.63.03.27-.11.28.1.25.28.15.37.62 1.1.47.6-.12.24.2.23.44-.02.23.25.21.24.07.47-.57.64.92.08.42.82.15.45.19.36.02.52-.15.27.1.2.87.38-.84.77.06.28.34-.03.68-.13.23.75.55-.24-.65.07-.23.76.26.21-.48.61.11.13.54.52.26-.42.3 1.26 1.21.42.75-.05.52.31 1.55-.02.15-.03.6-.02.39.3 1.02.67.61.37.97.81.68.09.07.87.43.79.6.66.3.33.55.6.48 1.59.91.35.52.55.46.57.15.94.53-.12.52.41.58-.06 1.32.02.34.03.12.07.25.19.14.07.2.09.8.82.98 1.68 1.11.44.18.77.8.76.46.23.14.2.67.21.17.02.76-.1.4-.01.06-.12.82.21.88 1.48 2.64.57.91 1.53 1.1.65.47.1.26.26.8.49 1.57 2.04 2.06 1.57 1.06.84.83 1.06.49.34.11.76.61.78.3.94.19.58.46.53.5.05.14.11.34.86 1.37.57 1.67.51.86-.06 1.01.1.35.61.51.22.53.15 1.01.73.89.87 1.2.32.43.46 1.51.75.98.19.83.53.85 1.36.69.61-.18.36.24.8.08.37.28.51 1.71.55.72.55.39 1.06.4.17.27.17 1 .26.35.61.58.46.18.66.53 1.24.55 1.35 1.61 1.71 1.53.81.37.28.34.3.13.4.12 2.36 1.45.47.69-.33.41-.49.01-.1-.48.12-.21-.11-.17-.46.48-.47.99.56.43.36-.28h.61l.15-.16.54-.24.07-.33.02-.07.17-.59.24-.13 1.92.43 1.93.08 1.38.27 2.2.06 1.63.42 1.41.62 2.52.61.34.3-.26.55.05.44-.12.18-.73.64-.04.26.12.22.4.15.56.44.37.16.38.44.43.06.61-.1.69-.31.11-.23-.28-.29-.82-.07-.34-.34-.31-.78-.62-.66.02-.45.02-.01.25-.1.12-.31 1.19.2.13.37.24.15.34.46.81.02.34-.12.08-.03.12-.26-.11-.22-.57-.07-.47.14-.44-.11.13-.28.2-.15 1.32-.25.62-.03.3.14.08.37.16.73.3 1.34.41.39.38.38.83 1.58.35 1.1.49 1.55.04.35-.59.94-.78 1.25.03 1.35.01.3.39.46.05.27-.47.8-.16.63.07.5.4.82-.05.7.29 1.05-.12.41-1.18 4.18.02.42-.14.43-1.26 1.09-.33.3-.86.6-.17.5.04.33-.02.06-.23.65-.2.11-.57.73-1.06.69-.57 1.04-1.42 1.82-.31.86-1.19.88-.23.32-1.2 1.64-.05 1.73.09.09-.14 1.24-.85 1.47-.23.8-.55.91-.18.49-.09.22-.12.5.36.51.08.4-.46 1.05-.79.76-.89.54-1.15.96-.73.76-1.01 1.45-.58.84-.12.16-.15.5.32.79.04.1-.11.24-.24.23-2.61 2.4-1.72 1.88-.9.98-.79 1.35-.27.67-.12.55.31 1.1-.05.48-.66 1.37-.76.93-.54.98-.05.42.11.76-.21.56-.52.78-.43.65-.14.17-1.24 1.49-.63 1.58-.09.16-.32.55-.86 1.27-.04.06-.92.94-.35.69.07.5-.28.44-.72.82-.06.07-.57.64-.72 1.03-.44 1.12.12.34.52.36.04.27-.19.32-.18.28-.67.57-1.12.62-1.54.72-1.81.57-.79.48-.97.39-.29.03-1.36.48-.37.05-1.79.74-1.19.74-4.4 3.22-1.3.96-4.06 2.75-2.21 2.03-.6.55-1.33 1.54-.87 1.36-.78.95-.89.76-1.78 1.24-.3.27-.84.76-1.67 2.14-2.85 2.89-.86 1.21-.32.44-1.2 2.04-1.32 1.64-.15 1.26.3 1.02.28.13.1.04-.24.3-.37.95-.08.09-.25.26-.24.25-1.52 1.59-.71.74-.32.57-.52.96-.64 1.71-.35.26-.39.28-.55.02-.31.27-.63.56-1.76 1.26-.15.18.22.77-.7.2-.19.2-.6 1.09.12.3.38-.11.49.07-.01.27-.43.31-.1.54.13.46-.06.07-.43.5-.36 1.32.06.47.62-.05.19.71.74.12-1.56 1.12-1.31.69-1.13.88-1.13.89-.42.5-1.56 1.89-.05.13-.21.54.05.82-.09 1.04-.29.2-.18.12-.24.6-.03.87-.05.07-.68.85-.01.38-.19.44-.54.58-.61.92-.25.76-.23.95-.1.41.21 1.24-.49 1.14-.07.69-.14 1.49-.32.68-.43.72-.52.26-.56.72-.84.18-.71.47-.35.08-.18.18-.09.51-.58.31-.48.84-.27.17-.37.25-.42.61-.65.1-2.24-.12-.29-.41-.78-.55-.3.1-.56-.13-1.42-.63-.22-.35-1.2-.04-1.29-.05-1.19.39-.77.4-.8.2-.56-.14-.23-.19.1-.08 1.2-.07.82-.28.1-.13-.1-.03-.23-.07-1.32.32-.46-.08-.43-.07-.69-.41-.23-.01-.01.13.6.64-.01.17-.56-.01-.65-1.02-.55-.24-1.84-.33-.45-.21-.5-.54-.3-.54.05-.73.04-.53.68-1 .97-1.45.61.28-.05-.9.46-1.05.01-.35.18-.4.32-.24.03-.49.27-.89.15-.01v-.31l-.01-.38.2-.48h.23l.05.1-.06.61-.17.44.45-.04.68-1.69.75-1.04.19-1.16-.29.09-.54-.41-.12-.18.15-.45-.04-.27-.28-.1-1.77-.95-.79-.06-.49-.3-.62-.04-.77.14-.39-.39-.26-.07-.8.33-.44.03-.68.34-.62.75-.26.16-.62.16-.41.11-.29.31-.39-.07-.2.39-.88.2-.35.36-.88.21-.72.3-.71.49-.23.36-.01.02-.11.56-.1.48.12.26v.01l.17.41-.26.65-.01.45-.2.31-.24.37-.04.39.01.06.05.71-.16.7.01.86.1.22-.24.23-.37.14-.23.21-.54.49-3.69 1.08-.77.48-.33.07-.52.43-1.48 1.21-.09.08-.46.71-.29.69-.13.32.16.8.41.96.53.56.58.12.07-.15.2-.03.29.16.12.27-.59.88-.39 1.06-.27.3-3.06 1.54-.48.1-1.61 1.12-1.25.87-.64.68-.5.38-.09.31.08.59-.17.46-.14.28-1.22.91-.52 1.05-.1.57-.26 1.83.14 1.56.65.48.33.22.06.75-.25 1.95-.37 1.2-.05.19-.22.96.08.6-.14.31.1.17-.33.84-.46 2.03.03.4.05.61.01.15-.12.5-.53.61-.59 1.09-.34.76-.26 1.47-1.17 2.03-.16.83.26.42-.18.48-1.04 2.28-.03.44-.97 1.23-.15.51.1.44-.45.79-.48.52-1.77 1.91-.61.72-.25.11-.04.32-.37.43.01.13-.21.2-.06.58-.38 1.23.02 1.06.26 1.5.34.44.23-.25.32.09.57.44.35-.01.12.17.42.37.3.06.4-.12.02.13.03.12-.11 1.1-.62 1.46.13 1 .04.33-.07.19-.13.31.01.36-.36.74-.57 1.94-.2 1.2.01.68.25.95.27.44.47.32.22.47.39.34-.03.13.2.34.1.32.34 1.07.36.27.66 1.14.33.19.15.55-.06.4.62.87.37 1.99.07.76-.23 1.7-.99 2.36-.34 1.59.08.49-.12.63.09 1.25-.01.12-.06.66.14.98.24 1.3.47.48.2 1.56.5 1.36.33.55.49.46.39.1.79-.12.28.06.63.71.04.52v.04l-.43 1.96-.08 1.4-.05.88.22 1.56.23.26.76.29.15.67.06 1.45.5 1.15.65.71.56.16.53-.16-.11.35-.99.78-.37.1-.59.65-.44-.07-.22.76-.95.2h-.03l-.94-.01-.34-.01-1.19.15-.69.1-.67.1-.39.18-.76.77-.81.33-.5.36-.89.04-.33.01-.46.21-3.23-.09-.64-.01-.34.09-4.54-.06-1.22-.01h-.82l-3.95-.06-.64.16-2.66.03-2.15.19-.16-.09-.3.13-3.52.34-.8.11-3.09.39-2.26.46-2.39.72-.66.07-.23.2-1.23.13-3.2.91-2.87.7-2.7.61-2.23.64-.29-.02-.39.01-.31.01-.3.22-3.04 1.26-3.91 1.66-.31.12-2.26.75-1.72.7-.37.08-2.38 1.27-1.43 1.13-.21.17-.51.43-.79.44-1.55 1.42-1.5 1.71-.23.13-.84.83-.15.44-2.5 2.74-.86.71-.2.62-1.92 2.07-1.48 1.35.22.39-.64 1.66-.71 1.17-.06 1.18.44 5.24-.22.75-.8 1.69-.42.76-.01.4-.19.55-.29 2.51.15 1.41-.29.78-.44 2.4-.63.84-.13.61-.6 1.04-1.02 1.58-.14.08-.39.76-.65 2.26-.11.76-.23.41-.01.13-.05.74.34 1.02.2 1.45-.06.48-.18.23-1.5.54-.42.34-.77 1.09-.39.38-.31.12-.61-.01-1.8 1.21-1.88 1.26-.48.41-.47.78.08 1.06-.11.47-.51.54-.61.38-.63.65-.8.46-.49.5-.26.27-.74.19-.85.57-.42.52-.06.28-.18.8.09.44.2.33-.07.88-.33.25-.98.01-.34.11-1.24-.11-.7-.2-1.86-.54-.17-.17-.07-.09-1.61-.14-.31-.05-2.66-.22-.4-.13-.41.14-1.08-.12-1.33.07-.32.02-.54.45-.19.16-.61.3-.4.06-.73-.17-.24.12-1.06.09-.37.3-1.19-.04-1.54-.29-.61-.11-.79.07-1.05-.26-.39-.01-.67-.01-1.03.13-.51-.09-1.58.06-.34.23-.45.03-.22.17-.91.26-.31.26-.21.02-.65.66-.83.33-.6.37-.42-.17-.37.24-1.2.11-.73-.03-2.13-.43-.4.07-2.12-.08-.27-.15-1.19-.02-.15.07-4.27.01-2.76.36-.4.06-4.16.53-1.97.41-.25.06-2.4.49-1.95.55-.77.13-.83.39-1.35.64-1.47.53-.84.48-.91.35-.94.57-.8.27-.26.18-.07.13-.4.78.02.6-.39 1.13.22.52.04.38-.21.5-.54.5-.85.41-.47.45-.5.98-.11.85.07.63.31.42-.24.46-.19.65-.33.63-1.27.51-.86.65-1.22.5-.76.45-.49.61-.59.52-.21.48-.6.33-.59.5-.42.23-.95.55-.4.47-.07.84-1.28 1.58-.63 1.13-.47 1.33-.17 1.1.05.58.28.77.17.41-.05 1.18.21.72.55.81.85.55.19-.13.57.08.6-.08.18.1.34.61.06.13.77 1.67.35.52.2.61.45.27-.48.48.14.58-.4.85v.43l.01.32-.41.48-.43.21-.18.79v.64l-.93.99-.33 1.37-.12.14-.47.1-.38.33-.24.45-.33 1.09.48.6.38.47.1.36.49.37.1.35-.92 1.41-.76.48-.31.48-.41.34-.16.13-.74.25-.16.05-.5.77-.17.27-.14.57-.54.53-.24.93.1.7-.17.23-1.46.16-.11.01-1.48.43-.47.37-.04.07-.67 1.21-.4.38-.31.66-.19.12-.14.3-1.31 1.48-.08.25-.26.25-.4.05-.28.18-.1.65-.22.2-.49.1-.27.43-.78.28-1.16.92-.2-.04-.45.4-.43.15-.23.47-.31.23-.29-.66-.31-.24-.86-.26H229.1l-.26.18-.47 1.07.04.21-.5.53-.52.07-.27.33-.42.07-.19.13-1.02-.31v.51l-.1.22-.28.2-.68.13h-.05l-.27-.38-.31-.15-.51-.51-.1.18.03.67-.09.2-.4.31-.1.42-.6.15-.24-.2-.56.23-.24-.21-.45-.07-.07.4-.31.13-.7-.3-1.9.36-.5-.08-.17.21-.45.03-.14.17.07.37-.29.25-.55.06-.54.34-.21-.3-.39-.1-.18-.21-.12-.13-.13-.16-.32-.11-.06-.15-.87.56-.31-.46-.6-.36-.35.08-.67.5-.15-.13-.43-.05-.25-.45h-.43l-.19-.36-1.14-.22-.43.12-.17-.55-.35.02-.36-.2-.09-.2.36-.8.04-.35-.07-.21-.19-.55-.61-.6-1.69-.58-2.21-.34-.49-.02-2.36-.09-2.26-.27-.74.05-1.59-.1-.59-.06-4.36.25-.44.09-.34.25-.21-.1-.54.03-.56-.23-1.04-.06-.38-.13-1.81-.03-.79.04-2.94.13-3.5.31-2 .3-5.48.91-5.91.98-1.21.14-.29-.1-.56.2-1.24.23-.84.27-.23-.08-1.77.87-.49.46-.72.68.26.33.05.33-.24.6.38.31.44.06.1.01.12.18-.24.32-.65-.1-.52.06-.74.46-.19.37-.66.56-.68-.18-.53.1-.21.2-.2.57-2.45.21-.65.18h-.33l-.45-.3-2.01.4-.35.3-.92.16h-.85l-.54-.14-.55.03-2.87.52-1.82.58-.19.67-1.06.77-.58.74-.48.22-.67.47-.17.32-.29.05-.96.7-.66.14-.7.92-.23.59.08.35.1.41-.22.23-.66.04-1.32.68-1.27.24-.5.37-.7.04-1.44.51-.4.52-.65-.26-1.33-.05-.62-.32-1.02.01-.47-.17-1.33-.19-2.82.31-1.72.3-.48.45-.45-.05-.82.21-1.46.18-1.34.37-3.08.24-1.9.89-1.71.13-.46.22-.61.15-.49.11-1.13.5-3.21.88-.73.04-.68.19-2.64 1.28-.43.32-1.02.28-2.09.91-.83.36-.7.08-.55.19-.46.15-1.01.24-.76.18-.58.14-1.13.23-5.21 1.08-.42.18-.09.04-.07.06-.68.62-.46.22-.3.02-.87.18-.81.39-.65.11-2.33.82-1.53.77-.48.41-.77.37-.75.24-1.02.17-2.05.81-1.49.45-3.24 1.49-.8.29-4.99 1.55-1.53.47-.75.3-.33.12-5.12 2-4.25 2.01-.41.07-2.04 1.6M158.39 0l-.02.72.44.86.43.54.77.4.17.31-.21.86-.43.49-.46.15-1.48-.13-.89.29"/>
    </g>
</svg>
