<?xml version="1.0" encoding="UTF-8"?>
<svg id="Layer_1" data-name="Layer 1" xmlns="http://www.w3.org/2000/svg" xmlns:xlink="http://www.w3.org/1999/xlink" viewBox="0 0 1597.65 1319.18">
  <defs>
    <style>
      .cls-1, .cls-2 {
        fill: none;
      }

      .cls-3 {
        fill: #0e80fb;
      }

      .cls-4 {
        fill: #0e81fb;
      }

      .cls-5 {
        fill: #ccc;
      }

      .cls-6 {
        clip-path: url(#clippath-17);
      }

      .cls-7 {
        clip-path: url(#clippath-19);
      }

      .cls-8 {
        clip-path: url(#clippath-11);
      }

      .cls-9 {
        clip-path: url(#clippath-16);
      }

      .cls-10 {
        clip-path: url(#clippath-18);
      }

      .cls-11 {
        clip-path: url(#clippath-10);
      }

      .cls-12 {
        clip-path: url(#clippath-15);
      }

      .cls-13 {
        clip-path: url(#clippath-13);
      }

      .cls-14 {
        clip-path: url(#clippath-14);
      }

      .cls-15 {
        clip-path: url(#clippath-12);
      }

      .cls-16 {
        clip-path: url(#clippath-20);
      }

      .cls-17 {
        clip-path: url(#clippath-21);
      }

      .cls-18 {
        clip-path: url(#clippath-22);
      }

      .cls-19 {
        clip-path: url(#clippath-23);
      }

      .cls-20 {
        clip-path: url(#clippath-24);
      }

      .cls-21 {
        clip-path: url(#clippath-1);
      }

      .cls-22 {
        clip-path: url(#clippath-3);
      }

      .cls-23 {
        clip-path: url(#clippath-4);
      }

      .cls-24 {
        clip-path: url(#clippath-2);
      }

      .cls-25 {
        clip-path: url(#clippath-7);
      }

      .cls-26 {
        clip-path: url(#clippath-6);
      }

      .cls-27 {
        clip-path: url(#clippath-9);
      }

      .cls-28 {
        clip-path: url(#clippath-8);
      }

      .cls-29 {
        clip-path: url(#clippath-5);
      }

      .cls-2 {
        stroke: #fff;
        stroke-miterlimit: 5.33;
        stroke-width: 1.35px;
      }

      .cls-30 {
        fill: #0e80fc;
      }

      .cls-31 {
        fill: #88c4fb;
      }

      .cls-32 {
        clip-path: url(#clippath);
      }
    </style>
    <clipPath id="clippath">
      <rect class="cls-1" x="307.81" y="47.58" width="396.92" height="98.5"/>
    </clipPath>
    <clipPath id="clippath-1">
      <rect class="cls-1" x="729.41" y="62.85" width="74.82" height="110.21"/>
    </clipPath>
    <clipPath id="clippath-2">
      <rect class="cls-1" x="765.12" width="80.38" height="64.36"/>
    </clipPath>
    <clipPath id="clippath-3">
      <rect class="cls-1" x="1253.79" y="1112.81" width="193.65" height="206.37"/>
    </clipPath>
    <clipPath id="clippath-4">
      <rect class="cls-1" y="944.35" width="32.05" height="39.32"/>
    </clipPath>
    <clipPath id="clippath-5">
      <rect class="cls-1" x="1244.79" y="936.51" width="55.06" height="81.74"/>
    </clipPath>
    <clipPath id="clippath-6">
      <rect class="cls-1" x="1291.12" y="802" width="49.75" height="131.11"/>
    </clipPath>
    <clipPath id="clippath-7">
      <rect class="cls-1" x="1555.14" y="795.34" width="42.51" height="51.73"/>
    </clipPath>
    <clipPath id="clippath-8">
      <rect class="cls-1" x="1213.97" y="326.49" width="165.07" height="323.58"/>
    </clipPath>
    <clipPath id="clippath-9">
      <rect class="cls-1" x="1338.65" y="691.72" width="35.93" height="61.74"/>
    </clipPath>
    <clipPath id="clippath-10">
      <rect class="cls-1" x="1264.39" y="456.61" width="45.6" height="68.17"/>
    </clipPath>
    <clipPath id="clippath-11">
      <rect class="cls-1" x="1188.64" y="141.62" width="42.85" height="117.73"/>
    </clipPath>
    <clipPath id="clippath-12">
      <rect class="cls-1" x="1048.75" y="197.51" width="56.1" height="51.67"/>
    </clipPath>
    <clipPath id="clippath-13">
      <rect class="cls-1" x="1002.5" y="64.06" width="32.64" height="24.26"/>
    </clipPath>
    <clipPath id="clippath-14">
      <rect class="cls-1" x="1002" y="100.18" width="35.77" height="15.63"/>
    </clipPath>
    <clipPath id="clippath-15">
      <rect class="cls-1" x="134.66" y="980.68" width="67.99" height="57.77"/>
    </clipPath>
    <clipPath id="clippath-16">
      <rect class="cls-1" x="999.56" y="88.91" width="38.06" height="16.01"/>
    </clipPath>
    <clipPath id="clippath-17">
      <rect class="cls-1" x="1146.88" y="283.27" width="20.47" height="27.36"/>
    </clipPath>
    <clipPath id="clippath-18">
      <rect class="cls-1" x="246.03" y="182.8" width="798.49" height="857.31"/>
    </clipPath>
    <clipPath id="clippath-19">
      <rect class="cls-1" x="994.22" y="162.33" width="9.97" height="8.61"/>
    </clipPath>
    <clipPath id="clippath-20">
      <rect class="cls-1" x="1059.59" y="121.21" width="28.23" height="12.23"/>
    </clipPath>
    <clipPath id="clippath-21">
      <rect class="cls-1" x="1049.37" y="114.33" width="6.53" height="5.83"/>
    </clipPath>
    <clipPath id="clippath-22">
      <rect class="cls-1" x="1064.07" y="115.82" width="5.81" height="4.97"/>
    </clipPath>
    <clipPath id="clippath-23">
      <rect class="cls-1" x="1072.7" y="114.56" width="6.85" height="4.12"/>
    </clipPath>
    <clipPath id="clippath-24">
      <rect class="cls-1" x="1292.11" y="469.37" width="14.92" height="14.09"/>
    </clipPath>
  </defs>
  <g class="cls-32">
    <g>
      <path class="cls-5" d="M701.12,75.46c-1.53-1.17-2.03-2.59-3.94-3.55-1.58-.79-7.73-3.89-9.65-1.97-.31.31-.28.87-.59,1.18-.25.25-.71,1.73-.39,2.36.16.33,1.9,1.51,2.17,1.57.21.05.82.04.99.2.43.43.39.67,1.18.98.34.14.83-.12,1.18,0,.41.14.6.6.79.79.15.15.6.1.79.2.11.06.51.63.59.79.22.43.86.55.98.79.13.26-.13.72,0,.99.46.93.63,2.33,1.18,3.15.41.61,1.55.83,2.17.98.36.09.5.25.79.39.46.23.68-.24.99-.39.38-.19.63-.02.98-.2.42-.21,1.02-1.61,1.38-1.97.18-.18-1.05-4.66-1.58-6.3h0ZM683.79,98.7c-2.56-1.5-14.87-1.62-17.33-.39-1.75.87-2.35,2.95-3.54,3.54-2.73,1.37-4.78,3.99-7.09,6.3-.75.75.59,2.56.79,2.76.1.09,6.7,1.38,7.09,1.18,1.64-.82-.42.03.39-.79,1.54-1.55,10.81-.57,13.78-3.55.3-.3,4.16-.31,5.12-.79,2.74-1.37,7.11,1.56,9.06-.39.2-.2.99.2,1.18,0,.29-.29,0-1.58.39-1.97,2.86-2.86-1.99-5.12-5.12-5.12-1.34,0-.81.15-4.73-.79h0ZM319.68,112.68c-1.52-.34-3.87-.46-4.73.39-.45.45-1.52.29-1.97.59-.62.41-.88,1.56-1.18,2.17-.14.29-.92.53-1.18.79-.22.22-.1,1.49-.2,1.77-.06.18-.31.23-.39.39-.68,1.37.4,1.97,1.18,2.36.78.39,2.11.13,3.15.39.54.14,5.24.83,5.71.59.58-.29,1.81-.81,2.56-1.18.59-.3,1.28-1.13,1.77-1.38.47-.24,3.17-2.54,2.56-3.15-.77-.77-2.66-1.43-3.74-1.97-.91-.45-1.52-.69-3.54-1.77h0ZM620.77,56.17c-3.13-1.16-6.66.24-9.85-.39-1.04-.21-1.77-.98-2.76-1.18-6.09-1.22-14.54.44-20.48,1.18-1.81.23-3.71-.26-5.51,0-6.25.89-12.37,1.73-18.51,2.76-2.54.42-5.47-.58-7.88-1.18-2.31-.58-5.51,0-7.88,0-7.05,0-14.67-.78-21.66,0-1.93.21-3.93.72-5.91.39-5.96-.99-12.04-1.57-18.12-1.57s-10.36,1.01-15.75-.79c-2.39-.8-6.77-.42-9.06-1.18-3.27-1.09-6.46-2.18-9.85-3.15-1.99-.57-4.99,0-7.09,0-3.6,0-7.84-.19-11.42-.79-5.67-.95-10.72-.83-16.54,0-.89.13-5.58-.33-6.3.39-2.19,2.19-.76,7.06-3.15,9.45-.37.37-.42,1.6-.79,1.97-.98.98-2.07,3.74-3.55,4.73-.07.05-1.53.35-1.57.39-.46.46-1,1.68-1.58,1.97-.97.48-2.6.55-3.55,1.18-.67.44-1.29,1.57-2.36,1.57-.7,0-1.68,1.37-1.18,2.36.66,1.32,1.34,2.8,2.36,4.33.77,1.16,2.59,1.8,3.15,2.36.07.07.85,2.82,1.18,3.15.99.99,6.97,5.28,7.48,6.3,1.03,2.07,1.03,3.71,1.57,5.91.3,1.22,1.48,2.95.79,4.33-1.1,2.2.64,3.99,0,5.91-.89,2.68-.69,5.75-1.18,8.67-.55,3.29-1.6,5.6-2.36,8.66-.52,2.07-.39,8.26-.39,10.63,0,.24-.15,1.42,0,1.57.19.19.6-.19.79,0,.5.5.22,1.1,1.18,1.58,3.21,1.61,15.9,1.97,20.09,1.97,9.9,0,18.99.59,28.75-1.18,2.65-.48,5.76-1.06,8.27-1.97.83-.3,1.5-.98,2.36-1.18,1.52-.35,9.26-.99,10.24-1.97,2.2-2.2,7.12-3.5,11.03-3.94,5.51-.61,11.21,1.24,15.75,2.76.7.23,1.64-.18,2.36,0,.57.14,1,.69,1.58.79,1.14.19,2.4-.16,3.54,0,4,.57,8.64,1.17,12.21,2.36,3.77,1.26,7.97-1.15,12.6.39.33.11.87-.16,1.18,0,2.12,1.06,2.99,2.78,4.73,3.94,2.01,1.34,10.16,5.01,12.21,4.33,4.3-1.43,9.19-1.75,13.39-3.15,1.53-.51,3.7.32,5.12-.39,2.45-1.22,5.12-1.81,7.88-2.36,1.99-.4,3.99-1.72,5.91-2.36,1.23-.41-.13-.26.39-.79,1.42-1.42,3.04-1.41,4.73-3.94.52-.78.49-1.86.79-2.76.52-1.55,2.34-4.7,3.55-5.91.68-.68,8.51-8.19,8.66-8.27.68-.34,2.06-.88,2.76-1.58.76-.76,1.51-2.22,1.97-3.15.61-1.21.22.65,1.18-.79,2.16-3.23,4.24-7,7.09-9.85.54-.54.7-2.12,1.18-2.76.35-.47,1.55-.77,1.97-1.18.29-.29.57-1.35.79-1.57,1.73-1.73,3.42-2.89,5.51-3.94.05-.03,4.91-7.34,5.12-7.88.23-.58.89-4.37.39-5.12-.91-1.37-2.1-2.88-3.15-3.94-.19-.19-.67.24-.79,0-.39-.78-1.46-3.88-2.36-4.33-1.91-.96-4.68-3.1-6.3-4.73-.28-.28-.81.12-1.18,0-.81-.27-1.93-1.14-2.36-1.58-.4-.4-2.28.08-2.76-.39-1.27-1.27-3.57-2.39-8.66-5.12h0Z"/>
      <path class="cls-2" d="M701.12,75.46c-1.53-1.17-2.03-2.59-3.94-3.54-1.58-.79-7.73-3.89-9.65-1.97-.31.31-.28.87-.59,1.18-.25.25-.71,1.73-.39,2.36.16.33,1.9,1.51,2.17,1.57.21.05.83.04.99.2.43.43.39.67,1.18.98.34.14.83-.12,1.18,0,.41.14.6.6.79.79.15.15.6.1.79.2.11.06.51.63.59.79.22.43.86.55.98.79.13.26-.13.72,0,.99.46.93.63,2.33,1.18,3.15.41.61,1.55.83,2.17.98.36.09.5.25.79.39.46.23.68-.24.99-.39.38-.19.63-.02.98-.2.42-.21,1.02-1.62,1.38-1.97.18-.18-1.05-4.66-1.57-6.3h0ZM683.79,98.7c-2.56-1.5-14.87-1.62-17.33-.39-1.75.87-2.35,2.95-3.54,3.54-2.73,1.37-4.78,3.99-7.09,6.3-.75.75.59,2.56.79,2.76.1.09,6.7,1.38,7.09,1.18,1.64-.82-.42.03.39-.79,1.54-1.55,10.81-.57,13.78-3.55.3-.3,4.16-.31,5.12-.79,2.74-1.37,7.11,1.56,9.06-.39.2-.2.99.2,1.18,0,.29-.29,0-1.58.39-1.97,2.86-2.86-1.99-5.12-5.12-5.12-1.34,0-.81.15-4.73-.79h0ZM319.68,112.68c-1.52-.34-3.87-.46-4.73.39-.45.45-1.52.29-1.97.59-.62.42-.88,1.56-1.18,2.17-.14.29-.92.53-1.18.79-.22.22-.1,1.49-.2,1.77-.06.18-.31.23-.39.39-.68,1.37.4,1.97,1.18,2.36.78.39,2.11.13,3.15.39.54.14,5.24.83,5.71.59.58-.29,1.81-.81,2.56-1.18.59-.3,1.28-1.13,1.77-1.38.47-.24,3.17-2.54,2.56-3.15-.77-.77-2.66-1.43-3.74-1.97-.91-.45-1.52-.69-3.54-1.77h0ZM620.77,56.17c-3.13-1.16-6.66.24-9.85-.39-1.04-.21-1.77-.98-2.76-1.18-6.09-1.22-14.54.44-20.48,1.18-1.81.23-3.71-.26-5.51,0-6.25.89-12.37,1.73-18.51,2.76-2.54.42-5.47-.58-7.88-1.18-2.31-.58-5.51,0-7.88,0-7.05,0-14.67-.78-21.66,0-1.93.21-3.93.72-5.91.39-5.96-.99-12.04-1.57-18.12-1.57s-10.36,1.01-15.75-.79c-2.39-.8-6.77-.42-9.06-1.18-3.27-1.09-6.46-2.18-9.85-3.15-1.99-.57-4.99,0-7.09,0-3.6,0-7.84-.19-11.42-.79-5.67-.95-10.72-.83-16.54,0-.89.13-5.58-.33-6.3.39-2.19,2.19-.76,7.06-3.15,9.45-.37.37-.42,1.6-.79,1.97-.98.98-2.07,3.74-3.55,4.73-.07.05-1.53.35-1.57.39-.46.46-1,1.68-1.58,1.97-.97.48-2.6.55-3.55,1.18-.67.44-1.29,1.57-2.36,1.57-.7,0-1.68,1.37-1.18,2.36.66,1.32,1.34,2.8,2.36,4.33.77,1.16,2.59,1.8,3.15,2.36.07.07.85,2.82,1.18,3.15.99.99,6.97,5.28,7.48,6.3,1.03,2.07,1.03,3.71,1.57,5.91.3,1.22,1.48,2.95.79,4.33-1.1,2.2.64,3.99,0,5.91-.89,2.68-.69,5.75-1.18,8.67-.55,3.29-1.6,5.6-2.36,8.66-.52,2.07-.39,8.26-.39,10.63,0,.24-.15,1.42,0,1.57.19.19.6-.19.79,0,.5.5.22,1.1,1.18,1.58,3.21,1.61,15.9,1.97,20.09,1.97,9.9,0,18.99.59,28.75-1.18,2.65-.48,5.76-1.06,8.27-1.97.83-.3,1.5-.98,2.36-1.18,1.52-.35,9.26-.99,10.24-1.97,2.2-2.2,7.12-3.5,11.03-3.94,5.51-.61,11.21,1.24,15.75,2.76.7.23,1.64-.18,2.36,0,.57.14,1,.69,1.58.79,1.14.19,2.4-.16,3.54,0,4,.57,8.64,1.17,12.21,2.36,3.77,1.26,7.97-1.15,12.6.39.33.11.87-.16,1.18,0,2.12,1.06,2.99,2.78,4.73,3.94,2.01,1.34,10.16,5.01,12.21,4.33,4.3-1.43,9.19-1.75,13.39-3.15,1.53-.51,3.7.32,5.12-.39,2.45-1.22,5.12-1.81,7.88-2.36,1.99-.4,3.99-1.72,5.91-2.36,1.23-.41-.13-.26.39-.79,1.42-1.42,3.04-1.41,4.73-3.94.52-.78.49-1.86.79-2.76.52-1.55,2.34-4.7,3.55-5.91.68-.68,8.51-8.19,8.66-8.27.68-.34,2.06-.88,2.76-1.58.76-.76,1.51-2.22,1.97-3.15.61-1.21.22.65,1.18-.79,2.16-3.23,4.24-7,7.09-9.85.54-.54.7-2.12,1.18-2.76.35-.47,1.55-.77,1.97-1.18.29-.29.57-1.35.79-1.57,1.73-1.73,3.42-2.89,5.51-3.94.05-.03,4.91-7.34,5.12-7.88.23-.58.89-4.37.39-5.12-.91-1.37-2.1-2.88-3.15-3.94-.19-.19-.67.24-.79,0-.39-.78-1.46-3.88-2.36-4.33-1.91-.96-4.68-3.1-6.3-4.73-.28-.28-.81.12-1.18,0-.81-.27-1.93-1.14-2.36-1.58-.4-.4-2.28.08-2.76-.39-1.27-1.27-3.57-2.39-8.66-5.12h0Z"/>
    </g>
  </g>
  <g class="cls-21">
    <g>
      <path class="cls-5" d="M796.63,152.46c-1.78.26-3.75-.35-5.51,0-.67.13-1.29.48-1.97.59-2.77.46-5.67-.04-8.47.2-1.89.16-3.82.4-5.71.59-1.04.1-1.77.62-2.76.79-1.71.29-3.48.24-5.12.79-.36.12-2.07-.39-2.76-.2-.28.08-.5.34-.79.39-.93.17-5.38-.17-6.11.2-1.54.77-.23,3.15-1.18,3.15-.68,0-4.28-.03-4.73.2-.41.21-.79,1.12-.79,1.77,0,.32-.39.6-.2.98.31.63.99.79,1.38,1.38.97,1.46,1.42,2.21,2.76,3.54.78.78,2.45,1.32,3.35,1.77.93.47,1.56,1.47,2.76,1.77.35.09,1.9-.26,2.17,0,.42.42.97.39,1.58.59,1.3.43,5.77-1,7.29-1.38,1.37-.34,3.81.13,4.73-.79.33-.33,2.1.08,2.56,0,1.31-.22,2.62-.82,3.94-.98.65-.08,1.52.16,2.17,0,.92-.23,1.98-.79,2.95-.99.67-.13,1.52-.18,2.17-.39.06-.02,0-.13,0-.2.2-.07.39-.16.59-.2.56-.09,1.46-.14,1.97-.39.3-.15.54-1.13.79-1.38.23-.23,2.41-.64,2.95-1.18.67-.67.67-1.73.98-2.36.12-.24.71-.25.79-.39.63-1.26,2.74-3.13,3.74-4.13.31-.31-.34-.43-.39-.59-.38-1.13-.41-.8-1.58-1.38-.82-.41.21.01-.2-.39-.12-.12-.93-.46-1.18-.59-.19-.09,0-.54-.2-.59-.25-.06-.52,0-1.97-.2h0ZM780.09,65.81c-1.72-.49-3.49.39-5.12.39-.45,0-1.05-.2-1.57-.2-1.57,0-1.93,2.13-2.95,3.15-.13.13.13.66,0,.79-.57.57-2.01.25-2.76.39-.65.13-2.32.35-2.76.79-.1.1-.3.55-.39.59-.38.19-.38-.23-.59.2-.06.12.09.3,0,.39-.77.77,0,.98.79,1.38.38.19,2.36.13,2.76,0,.18-.06.21-.35.39-.39,1.56-.39,9.51-1.29,11.03-.79,2.11.7,4.18.25,6.11-.39.04-.01.72.07.79,0,.31-.31-.03-.73.2-1.18.17-.34.02-2.15-.2-2.36-.73-.73-3.92-2.36-5.71-2.76h0ZM750.94,67c-1.97-1.18-4.38-1.97-6.89-1.97-1.06,0-2.52-.26-3.54,0-.88.22-1.38.39-2.36.39-.49,0-1.17-.18-1.38-.39-.43-.43-2.86.12-3.35.2-.34.06-1.62.1-1.77.39-.34.67-.35,1.87.39,2.36.94.62-.17-.76.79.2,1.49,1.49,4,1.6,5.91,2.56,2.75,1.38,6.45,3.54,9.65,3.54.87,0,1.53.82,2.17.39.45-.3,2.05-.56,2.17-.79,1.84-3.67-.36-3.19-1.77-6.89h0Z"/>
      <path class="cls-2" d="M796.63,152.46c-1.78.26-3.75-.35-5.51,0-.67.13-1.29.48-1.97.59-2.77.46-5.67-.04-8.47.2-1.89.16-3.82.4-5.71.59-1.04.1-1.77.62-2.76.79-1.71.29-3.48.24-5.12.79-.36.12-2.07-.39-2.76-.2-.28.08-.5.34-.79.39-.93.17-5.38-.17-6.11.2-1.54.77-.23,3.15-1.18,3.15-.68,0-4.28-.03-4.73.2-.41.21-.79,1.12-.79,1.77,0,.32-.39.6-.2.98.31.63.99.79,1.38,1.38.97,1.46,1.42,2.21,2.76,3.54.78.78,2.45,1.32,3.35,1.77.93.47,1.56,1.47,2.76,1.77.35.09,1.9-.26,2.17,0,.42.42.97.39,1.58.59,1.3.43,5.77-1,7.29-1.38,1.37-.34,3.81.13,4.73-.79.33-.33,2.1.08,2.56,0,1.31-.22,2.62-.82,3.94-.99.65-.08,1.52.16,2.17,0,.92-.23,1.98-.79,2.95-.98.67-.13,1.52-.18,2.17-.39.06-.02,0-.13,0-.2.2-.07.39-.16.59-.2.56-.09,1.46-.14,1.97-.39.3-.15.54-1.13.79-1.38.23-.23,2.41-.64,2.95-1.18.67-.67.67-1.73.98-2.36.12-.24.72-.25.79-.39.63-1.26,2.74-3.13,3.74-4.13.31-.31-.34-.43-.39-.59-.38-1.13-.41-.79-1.58-1.38-.82-.41.21.01-.2-.39-.12-.12-.93-.46-1.18-.59-.19-.09,0-.54-.2-.59-.26-.06-.53,0-1.97-.2h0ZM780.09,65.81c-1.72-.49-3.49.39-5.12.39-.45,0-1.05-.2-1.58-.2-1.57,0-1.93,2.13-2.95,3.15-.13.13.13.66,0,.79-.57.57-2.01.25-2.76.39-.65.13-2.32.35-2.76.79-.1.1-.3.55-.39.59-.38.19-.38-.23-.59.2-.06.12.09.3,0,.39-.77.77,0,.98.79,1.38.38.19,2.36.13,2.76,0,.18-.06.21-.35.39-.39,1.56-.39,9.51-1.29,11.03-.79,2.11.7,4.18.25,6.11-.39.04-.01.72.07.79,0,.31-.31-.03-.73.2-1.18.17-.34.02-2.15-.2-2.36-.73-.73-3.92-2.36-5.71-2.76h0ZM750.94,67c-1.97-1.18-4.38-1.97-6.89-1.97-1.06,0-2.52-.26-3.55,0-.88.22-1.38.39-2.36.39-.49,0-1.17-.18-1.38-.39-.43-.43-2.86.11-3.35.2-.34.06-1.62.1-1.77.39-.34.67-.35,1.87.39,2.36.94.62-.17-.76.79.2,1.49,1.49,4,1.6,5.91,2.56,2.75,1.38,6.45,3.54,9.65,3.54.87,0,1.53.82,2.17.39.45-.3,2.05-.56,2.17-.79,1.84-3.67-.36-3.19-1.77-6.89h0Z"/>
    </g>
  </g>
  <g class="cls-24">
    <path class="cls-5" d="M832.27,1.81c-1.24-.96-4.42-.41-5.12.99-.23.45-.33,1.42-.79,1.57-.24.08-.55-.08-.79,0-1.95.65-3.92.88-5.91,1.38-.53.13-7.32-.43-6.3.59.77.77,4.2.26,5.51.59,1.16.29,2.44.92,3.74,1.18.39.08,1.07-.11,1.38.2.77.77,1.7,2.33,2.76,2.76.59.23,1.13.07,1.77.39.37.19,1.03.9,1.38.99.34.08,1.72.27,1.97.39.71.36,1,1.19,1.77,1.58,1.61.8,4.49,2.76,6.5,2.76s4.49-2.3,3.94-4.53c-.1-.39-.43-.66-.59-.98-.03-.06,0-.13,0-.2-.07-.26-.06-.56-.2-.79-1.04-1.72-4.36-1.21-5.12-1.97-.55-.55-.17-.28-.79-.59-.23-.12-.38-1.37-.59-1.57-1.6-1.6-2.49-2.24-4.53-4.73h0ZM828.92,42.58c-1.59-.55-3.34-.07-4.92.2-.21.04-6.64.93-6.7.98-.19.2-.55,1.53-.59,1.58-1,1,.23,2.45-.2,3.74-.32.96-.57,1.92-.99,2.76-.3.61.12,1.54-.2,2.17-.25.5-.32,1.45,0,1.77.08.08.48-.04.59,0,.29.1,1.09.54,1.38.39.61-.31,1.58-1.41,1.77-1.97.83-2.49,1.77-3.55,3.54-5.32.27-.27,1.39-.46,1.77-.59.17-.06.22-.33.39-.39.29-.1.69.07.99,0,.53-.13.89-.67,1.38-.79,3.32-.83,3.15-1.25,1.77-4.53h0ZM774.57,50.85c-.93.29-2.21.8-3.35,1.18-2.58.86-2.57-.39-4.73,1.77-.56.56,4.6,1.89,4.92,1.97.5.13,2.75,1.67,3.15,1.57,1.41-.35,2.09-.63,2.76-1.97.11-.22-.18-1,0-1.18,1.12-1.12-1.17-2.44-2.76-3.35h0ZM798.01,49.86c-2.43-.34-4.71.33-7.09.59-.69.08-1.7-.22-2.36,0-.32.11-1.39.81-1.57,1.18-.39.79-.03,2.39-.79,2.95-1.1.82-2.75,1.51-3.55,2.56-.46.62-.65,1.49-.98,2.17-.15.3-.17.96-.39,1.18-.07.07-.33-.07-.39,0-.05.05-.79,1.77-.59,1.97,1.6,1.6,11.96-.54,13.59-2.17.58-.58,1.37-2.65,1.97-2.95.4-.2,1.13-.05,1.57-.2,1.03-.34,3.25-2.67,3.55-3.54.36-1.08.62-2.34,0-2.95-.58-.58.52-1.71-2.95-.79h0Z"/>
  </g>
  <g class="cls-22">
    <g>
      <path class="cls-5" d="M1438.4,1115.21c-2.15.83-4.45,1.46-6.7,2.36-.57.23-1.39-.19-1.97,0-1.56.52-3.03,1.54-4.73,1.97-.46.12-1.55-.21-1.97,0-.08.04-.31.7-.39.79-.28.29-6.69,3.41-7.09,3.55-2.06.68-5.78.66-7.48,2.36-.72.72-1.29,2.47-1.97,3.15-.99.99-3.01.98-3.94,2.36-.67,1-.31,1.4-.79,2.36-.31.62-1.68,1.1-1.97,1.97-.08.25.19.6,0,.79-.19.19-.6-.19-.79,0-.23.23-4.1,6.93-2.76,8.27.31.31,1.19.26,1.58.39.56.19.57.57.79.79.25.25,1.25-.16,1.58,0,3.03,1.51,7.04-.76,9.45-2.36,2.33-1.55,6.18-2.3,8.67-3.55,5.27-2.64,8.96-5.47,14.57-8.27.97-.48,1.71-1.85,1.97-2.36.76-1.52,2.72-1.54,3.94-2.76.19-.19-.19-.6,0-.79.35-.35,1.12-.56,1.57-.79,1.91-.95,2.93-4.02,4.33-4.73,2.29-1.14,1.44-7.51-5.91-5.51h0ZM1377.75,1190.82c.52,0,1.95-.37,1.57,0-2.29,2.29-1.26.03-2.36.39-3.18,1.06-6.13,2.32-9.45,3.15-1.43.36-6.88,1.08-7.88,1.57-1.57.79-3.52,3.53-5.12,4.33-1.92.96-6.36,1.98-8.67,2.36-.65.11-1.36-.24-1.97,0-3.19,1.28-6.23,2.86-9.45,3.94-2.22.74-5.93,0-8.27,0-5.03,0-9.98.1-14.97.39-5.53.33-11.01.81-16.54,1.18-1.57.11-3.16.16-4.73,0-1.68-.17-3.01-1.54-4.73-.39-.56.37-.49.88-.79,1.18-.85.85-2.65.97-3.15,1.97-.16.32-.05,1.4-.39,1.57-2.99,1.49-5.51,2.98-5.51,7.09,0,.16-.11,1.08,0,1.18,1.39,1.39,12.94,3.63,15.75,4.33,1.39.35,4.85-.27,5.91.79l3.54,3.55c.58.58,0,1.95.39,2.76.51,1.02,1.62,2.46,1.97,3.15.19.39.05,1.63.39,1.97.41.42,1.09.46,1.57.79,1.49.99,3.03,4.31,2.36,6.3-.12.35-.62.46-.79.79-.65,1.29-.59,3.16-1.18,4.33-1.66,3.31-5.01,7.01-3.54,11.42.7,2.11,1.92,4.68,3.54,6.3.26.26,1.38.2,1.58.39.55.55,1.18,4.71,1.18,5.91,0,1.83-.65,2.74-1.18,4.33-.39,1.17.15,2.85-.39,3.94-1.08,2.15-4.39,4.91-7.88,6.3-2.44.98-4.78,3.52-6.69,5.12-1.58,1.31-9.58,2.1-9.85,2.36-.48.48-2.1,1.23-3.15,1.57-2.48.83-5.79-.83-8.27,0-2.55.85-5.9,3.93-7.88,5.91-.34.35-1.64,1.31-1.97,1.97-.35.71-.26,2.63-.79,3.15-1.1,1.1-5.9,5.91-3.55,7.09,1.24.62,2.9.21,4.33.39,6.3.79,10.65,1.75,16.94.79,3.02-.46,6.04.7,9.06.39,5.08-.51,9.87-1.18,14.97-1.18,3.16,0,6.39.57,9.45,1.18,4.43.89,9.86-.31,14.18-.79,2.66-.3,5.25.04,7.88-.39,5.01-.83,7.32.47,11.42-1.57,2.29-1.15,8.58,1.18,11.03,1.18,3.33,0,12.66-3.21,14.97-5.51,1.09-1.09,2.55-3.13,3.54-5.12.79-1.58,2.85-1.67,3.94-2.76,1.43-1.43,3.98-4.03,4.73-5.51,2.06-4.12-3.88-13.72-5.91-15.75-.28-.28.09-.8,0-1.18-.35-1.41-1.37-4.32-1.97-5.51-1.02-2.05-.09-8.6-1.18-10.24-.16-.24-.58-.19-.79-.39-.51-.51-.84-2.25-1.18-2.76-.61-.91-2.3-1.39-2.76-2.76-.36-1.08-.42-2.45-.79-3.54-.37-1.12-1.56-1.92-1.97-3.15-.32-.96-.28-2.14-.79-3.15-.38-.76-1.21-1.23-1.58-1.97-.73-1.46-.67-8.89,0-10.24.52-1.04-.29-2.79,0-3.94.42-1.66.88-3.33,1.58-4.73.19-.38-.13-1.2,0-1.57.21-.64,1.26-1.34,1.57-1.97.87-1.75,2.81-2.51,4.73-3.15,1.89-.63,4.99-3.81,5.91-4.73.26-.26,1.82-.48,1.97-.79.12-.24-.12-.55,0-.79.2-.4,2.33-.76,2.76-1.18.24-.24,1.78-2.38,1.97-2.76,1.31-2.61-.87-6.93.39-9.45.85-1.71.53-3.41,1.18-4.73,3.78-7.57-1.35-3.71-2.76-5.12-.76-.76-2.65-.32-5.51,0h0Z"/>
      <path class="cls-2" d="M1438.4,1115.21c-2.15.83-4.45,1.47-6.7,2.36-.57.23-1.39-.19-1.97,0-1.56.52-3.03,1.54-4.73,1.97-.46.12-1.54-.21-1.97,0-.08.04-.31.7-.39.79-.29.29-6.7,3.41-7.09,3.54-2.06.69-5.78.66-7.48,2.36-.72.72-1.29,2.47-1.97,3.15-.99.99-3.01.98-3.94,2.36-.67,1-.31,1.4-.79,2.36-.31.62-1.68,1.1-1.97,1.97-.08.25.19.6,0,.79-.19.19-.6-.19-.79,0-.24.23-4.1,6.93-2.76,8.27.31.31,1.19.26,1.58.39.56.19.57.57.79.79.25.25,1.25-.16,1.58,0,3.03,1.51,7.04-.76,9.45-2.36,2.32-1.55,6.18-2.3,8.66-3.55,5.27-2.64,8.96-5.47,14.57-8.27.97-.48,1.71-1.85,1.97-2.36.76-1.52,2.72-1.54,3.94-2.76.19-.19-.19-.6,0-.79.35-.35,1.12-.56,1.57-.79,1.91-.95,2.93-4.02,4.33-4.73,2.29-1.14,1.43-7.51-5.91-5.51h0ZM1377.75,1190.82c.53,0,1.95-.37,1.58,0-2.29,2.29-1.26.03-2.36.39-3.18,1.06-6.12,2.32-9.45,3.15-1.43.36-6.88,1.08-7.88,1.57-1.57.79-3.52,3.53-5.12,4.33-1.92.96-6.36,1.98-8.66,2.36-.65.11-1.36-.24-1.97,0-3.19,1.28-6.23,2.86-9.45,3.94-2.22.74-5.93,0-8.27,0-5.03,0-9.98.1-14.97.39-5.53.33-11.01.81-16.54,1.18-1.57.11-3.16.16-4.73,0-1.68-.17-3.01-1.54-4.73-.39-.56.37-.49.88-.79,1.18-.85.85-2.65.97-3.15,1.97-.16.32-.05,1.4-.39,1.57-2.99,1.49-5.51,2.98-5.51,7.09,0,.16-.1,1.08,0,1.18,1.39,1.39,12.94,3.63,15.75,4.33,1.39.35,4.85-.27,5.91.79l3.55,3.55c.58.58,0,1.95.39,2.76.51,1.02,1.62,2.46,1.97,3.15.19.39.05,1.63.39,1.97.42.42,1.09.46,1.58.79,1.49.99,3.03,4.31,2.36,6.3-.12.35-.62.46-.79.79-.65,1.29-.59,3.16-1.18,4.33-1.65,3.31-5.01,7.01-3.54,11.42.7,2.11,1.92,4.68,3.54,6.3.26.26,1.38.2,1.58.39.55.55,1.18,4.71,1.18,5.91,0,1.83-.65,2.74-1.18,4.33-.39,1.17.15,2.85-.39,3.94-1.08,2.15-4.39,4.91-7.88,6.3-2.44.98-4.78,3.52-6.7,5.12-1.58,1.31-9.58,2.1-9.85,2.36-.48.48-2.11,1.23-3.15,1.57-2.48.83-5.79-.83-8.27,0-2.55.85-5.9,3.93-7.88,5.91-.34.34-1.64,1.31-1.97,1.97-.35.71-.26,2.63-.79,3.15-1.1,1.1-5.9,5.91-3.54,7.09,1.24.62,2.9.21,4.33.39,6.3.79,10.65,1.75,16.93.79,3.02-.46,6.04.7,9.06.39,5.08-.51,9.87-1.18,14.97-1.18,3.16,0,6.39.57,9.45,1.18,4.43.89,9.86-.31,14.18-.79,2.66-.3,5.25.04,7.88-.39,5.01-.83,7.32.47,11.42-1.57,2.29-1.15,8.58,1.18,11.03,1.18,3.33,0,12.66-3.21,14.97-5.51,1.09-1.09,2.55-3.13,3.54-5.12.79-1.58,2.85-1.67,3.94-2.76,1.43-1.43,3.98-4.03,4.73-5.51,2.06-4.12-3.88-13.72-5.91-15.75-.28-.28.09-.8,0-1.18-.35-1.41-1.37-4.32-1.97-5.51-1.02-2.05-.09-8.6-1.18-10.24-.16-.24-.58-.19-.79-.39-.52-.52-.84-2.25-1.18-2.76-.61-.91-2.3-1.39-2.76-2.76-.36-1.08-.42-2.45-.79-3.54-.37-1.12-1.56-1.92-1.97-3.15-.32-.96-.28-2.14-.79-3.15-.38-.76-1.21-1.23-1.58-1.97-.73-1.46-.67-8.89,0-10.24.52-1.04-.29-2.79,0-3.94.42-1.66.88-3.33,1.58-4.73.19-.38-.13-1.2,0-1.57.21-.64,1.26-1.34,1.57-1.97.88-1.75,2.81-2.51,4.73-3.15,1.89-.63,4.99-3.81,5.91-4.73.26-.26,1.82-.48,1.97-.79.12-.24-.12-.55,0-.79.2-.4,2.33-.76,2.76-1.18.24-.24,1.78-2.38,1.97-2.76,1.31-2.61-.87-6.93.39-9.45.85-1.71.53-3.41,1.18-4.73,3.78-7.57-1.34-3.71-2.76-5.12-.76-.76-2.65-.32-5.51,0h0Z"/>
    </g>
  </g>
  <g class="cls-23">
    <g>
      <path class="cls-5" d="M28.24,968.89c-.26-1.14-1.8-2.24-2.76-2.95-.67-.5-1.04-.54-1.77-.79-.51-.17-1.04-1.57-1.57-1.97-.11-.08-.27.04-.39,0-.31-.1-.33-.59-.59-.79-.62-.46-1.24-1.22-1.77-1.57-.11-.07-.28.07-.39,0-.35-.23-.86-1.32-.98-1.58-.3-.6-2.17-1.39-2.56-2.17-.57-1.13-2.19-2.83-2.56-3.94-.24-.72-1.2-2.57-1.77-3.15-.24-.24-1.82-.83-1.97-.98-.14-.14-.71-1.29-.99-1.38-.64-.21-1.26-.87-1.58-1.18-.13-.13-2.16-.1-2.36,0-.79.39,0,1.18-.39,1.58-1.26,1.26-1.77,2.86-1.77,5.12,0,.12-.08.71,0,.79.43.43.8,2.02.99,2.76.21.83.56,1.63.79,2.56.2.8-.2,1.76,0,2.56.02.09.13.13.2.2.07.13.16.25.2.39.05.22-.08.82,0,.99.07.13.29.09.39.2.79.79,1.17,1.76,1.97,2.56.56.55,1.53,1.3,1.97,1.97.85,1.28,2.27,2.47,3.35,3.55.14.13.87.28.99.39.09.09-.06.28,0,.39.05.09.94.5.98.59.66,1.31,2.51,2.94,4.14,3.35.35.09.7.99.98,1.18,1.13.75,2.49.96,3.74,1.38.18.06.22.33.39.39.19.06.41-.09.59,0,.33.17.64.65.98.79.18.07.41-.09.59,0,.13.07.09.29.2.39.14.14.41-.09.59,0,.13.07.07.33.2.39.06.03.13,0,.2,0,.2,0,.41-.09.59,0,.25.12.47.43.79.59,1.14.57,1.53-.46,1.77-1.18.09-.27.26-.53.39-.79.15-.29-.2-.98-.2-1.38,0-.52-.12-7.32-.2-7.48-.17-.34-.39-.66-1.38-1.77h0Z"/>
      <path class="cls-2" d="M28.24,968.89c-.26-1.14-1.8-2.24-2.76-2.95-.67-.5-1.04-.54-1.77-.79-.51-.17-1.04-1.57-1.57-1.97-.11-.08-.27.04-.39,0-.31-.1-.33-.59-.59-.79-.62-.46-1.24-1.22-1.77-1.58-.11-.07-.28.07-.39,0-.35-.23-.86-1.32-.98-1.57-.3-.6-2.17-1.39-2.56-2.17-.57-1.13-2.19-2.83-2.56-3.94-.24-.72-1.2-2.57-1.77-3.15-.24-.24-1.82-.84-1.97-.99-.14-.14-.71-1.29-.98-1.38-.64-.21-1.26-.87-1.58-1.18-.13-.14-2.16-.1-2.36,0-.79.39,0,1.18-.39,1.58-1.26,1.26-1.77,2.86-1.77,5.12,0,.12-.08.71,0,.79.43.43.8,2.02.99,2.76.21.83.56,1.63.79,2.56.2.8-.2,1.76,0,2.56.02.09.13.13.2.2.07.13.16.25.2.39.05.22-.08.82,0,.99.07.13.29.09.39.2.79.79,1.17,1.76,1.97,2.56.55.55,1.52,1.3,1.97,1.97.85,1.28,2.27,2.47,3.35,3.55.14.13.87.28.99.39.09.09-.06.28,0,.39.05.09.94.5.98.59.65,1.31,2.51,2.94,4.14,3.35.35.09.7.99.98,1.18,1.13.75,2.49.96,3.74,1.38.18.06.22.34.39.39.19.06.41-.09.59,0,.33.17.64.65.98.79.18.07.41-.09.59,0,.13.07.09.29.2.39.14.14.41-.09.59,0,.13.07.07.33.2.39.06.03.13,0,.2,0,.2,0,.42-.09.59,0,.25.12.47.43.79.59,1.14.57,1.53-.46,1.77-1.18.09-.27.26-.53.39-.79.15-.29-.2-.98-.2-1.38,0-.52-.12-7.32-.2-7.48-.17-.34-.39-.66-1.38-1.77h0Z"/>
    </g>
  </g>
  <g class="cls-29">
    <g>
      <path class="cls-5" d="M1266.72,983.92c-2.23.26-3.84,1.65-5.85,2.51-.79.34-1.69.25-2.51.56-1.85.69-2.48,2.18-3.06,3.34-.07.15-.99.45-1.11.84-.52,1.56-.75,4.19-1.67,5.57-1.13,1.69-2.68,2.2-3.34,4.18-.74,2.23-1.2,4.72-1.95,6.96-.11.34-.68,2.1-.28,2.51,1.16,1.16,2.75,1.23,4.18,1.95.84.42-.56.28.84.83.26.1.57-.07.83,0,.38.1.48.66.84.84.73.37,3.14,1.52,3.9,1.67,2.79.56,7.17.95,10.03,0,1-.33,3,.41,3.62-.83,1.24-2.48.64-5.78,1.67-8.35.74-1.85,2.43-3.37,3.34-4.73.21-.31-.21-.81,0-1.11.12-.17.44-.11.56-.28.27-.4.16-1.75.28-2.23.91-3.66,1.06-7.05-1.11-10.3-.5-.75-6.48-5.36-6.68-5.29-.51.17-.93.56-2.51,1.39h0ZM1274.24,969.99l.56-1.11c-1.63,3.25-.71,6.53,1.39,8.63.62.62,2.53-.88,2.79-1.39.35-.72.82-1.38,1.39-1.95,1.37-1.36-2.52-4.19-3.06-4.73-.23-.23-2.41-.54-3.06.56h0ZM1296.24,938.52c-.43.8-1.47,1.19-2.09,1.81-.31.31-.39.83-.83.97-.93.31-2.21.78-2.51,1.67-.12.37-.57.73-.7,1.11-.17.51-.23,1.23-.56,1.67-.28.37-.76.76-.97.97-.15.15-.67,2.57-.56,2.93.19.55.84,1.22,1.25,1.53.9.67,2.6.72,3.62.97.26-.1.26.24.42.28.22.06.5-.13.7,0,.36.24.28.28.83.42.45.11,1.95-.28,2.23-.7.58-.87,1.06-5.82.56-6.82-.26-.52.26-1.43,0-1.95-.32-.64.06.59-.28-.42-.15-.46,0-1.32,0-1.81,0-.93-.2-2.04-1.11-2.65Z"/>
      <path class="cls-2" d="M1266.72,983.92c-2.23.26-3.84,1.65-5.85,2.51-.79.34-1.69.25-2.51.56-1.85.69-2.48,2.18-3.06,3.34-.07.15-.99.45-1.11.84-.52,1.56-.75,4.19-1.67,5.57-1.12,1.69-2.68,2.2-3.34,4.18-.74,2.23-1.2,4.72-1.95,6.96-.11.34-.68,2.1-.28,2.51,1.16,1.16,2.74,1.23,4.18,1.95.83.42-.56.28.83.83.26.1.57-.07.84,0,.38.1.48.66.83.84.73.37,3.14,1.52,3.9,1.67,2.79.56,7.17.95,10.03,0,1-.33,3,.41,3.62-.83,1.24-2.48.64-5.78,1.67-8.35.74-1.85,2.43-3.37,3.34-4.73.21-.31-.21-.81,0-1.11.11-.17.44-.11.56-.28.26-.4.16-1.75.28-2.23.91-3.66,1.06-7.05-1.11-10.3-.5-.75-6.48-5.36-6.68-5.29-.51.17-.93.56-2.51,1.39h0ZM1274.24,969.99c.19-.37.74-1.49.56-1.11-1.63,3.25-.71,6.53,1.39,8.63.62.62,2.53-.88,2.78-1.39.35-.72.82-1.38,1.39-1.95,1.36-1.36-2.52-4.19-3.06-4.73-.23-.23-2.41-.54-3.06.56h0ZM1296.24,938.52c-.43.8-1.47,1.19-2.09,1.81-.31.31-.39.83-.84.97-.93.31-2.21.78-2.51,1.67-.12.37-.57.73-.7,1.11-.17.51-.23,1.23-.56,1.67-.28.37-.76.76-.97.97-.15.15-.67,2.57-.56,2.93.18.55.84,1.22,1.25,1.53.9.67,2.6.72,3.62.97.26-.1.25.24.42.28.23.06.5-.13.7,0,.36.24.28.28.84.42.45.11,1.95-.28,2.23-.7.58-.87,1.06-5.82.56-6.82-.26-.52.26-1.43,0-1.95-.32-.64.06.59-.28-.42-.15-.46,0-1.32,0-1.81,0-.93-.2-2.04-1.11-2.65h0Z"/>
    </g>
  </g>
  <g class="cls-26">
    <g>
      <path class="cls-5" d="M1330.22,804.01c-2.65,2.68-5.71,4.6-8.35,7.24-.13.13-.37,0-.56,0-.37.19-.82.26-1.11.56-1.72,1.72-.15,5.71-1.67,7.24-1.06,1.06-2.07,3.18-3.34,4.46-.42.42-.89,15.82,0,16.71.48.48,3.32,3.85,3.34,3.9,1.69,3.37-1.11,8.86-1.11,12.25,0,1.22.38,7.71,1.67,8.35.35.17,1.98,0,2.23,0,.64,0,2.2.29,2.79,0,5.36-2.68,5.92-10.16,8.35-15.04.87-1.74-.07-4.26.56-6.13.42-1.26,1.19-1.27,1.67-2.23.45-.89-.32-2.38,0-3.34.56-1.68,1.49-2.99,2.23-4.46.35-.7-.43-2.14,0-2.79,1.25-1.87,1.11-.37,1.11-1.67,0-1.09,1.45-5.23.56-6.13-.37-.37-1.39-.83-1.67-1.11-.37-.37.37-1.86,0-2.23-2.61-2.61-2.96-10.76-5.57-13.37-.83-.83.68-2.25-1.11-2.23h0ZM1313.79,901.48c-.68.92-1.45,1.78-1.95,2.79-.4.8.7,3.2.28,3.62-.09.09-.46-.09-.56,0-.54.54-1.96,1.69-2.23,2.51-.88,2.65.77,4.63,3.34,3.34.1-.05.19-.94.28-1.11.86-1.73.78-3.74,1.39-5.57.45-1.35,1.43-2.31,1.95-3.34.17-.33.61-2.74.56-2.79-.18-.18-1.9-.55-3.06.56h0ZM1295.96,923.76c-.91,1.92-1.6,2-2.23,3.9-.12.36-.79,2.6-.56,3.06.23.47,2.87.43,3.34.28,1.11-.37.09-.09.83-.84.57-.57,2.4-.73,3.06-1.39.03-.03.24-1.06.28-1.11,2.01-3.02-.84-1.97-.84-3.62,0-1.09-1.67-1.17-3.9-.28h0Z"/>
      <path class="cls-2" d="M1330.22,804.01c-2.65,2.68-5.71,4.6-8.35,7.24-.13.13-.37,0-.56,0-.37.19-.82.26-1.11.56-1.72,1.72-.15,5.71-1.67,7.24-1.06,1.06-2.07,3.18-3.34,4.46-.42.42-.89,15.82,0,16.71.48.48,3.32,3.85,3.34,3.9,1.69,3.37-1.11,8.86-1.11,12.25,0,1.22.38,7.71,1.67,8.35.35.17,1.98,0,2.23,0,.65,0,2.2.29,2.79,0,5.36-2.68,5.92-10.16,8.35-15.04.87-1.74-.07-4.26.56-6.13.42-1.26,1.19-1.27,1.67-2.23.45-.9-.32-2.38,0-3.34.56-1.68,1.49-2.99,2.23-4.46.35-.7-.43-2.14,0-2.79,1.25-1.87,1.11-.37,1.11-1.67,0-1.09,1.45-5.23.56-6.13-.37-.37-1.39-.83-1.67-1.11-.37-.37.37-1.86,0-2.23-2.61-2.61-2.96-10.75-5.57-13.37-.83-.83.68-2.25-1.11-2.23h0ZM1313.79,901.48c-.68.92-1.45,1.78-1.95,2.79-.4.8.7,3.2.28,3.62-.09.09-.47-.09-.56,0-.54.54-1.96,1.69-2.23,2.51-.88,2.65.77,4.63,3.34,3.34.1-.05.19-.94.28-1.11.86-1.73.78-3.74,1.39-5.57.45-1.35,1.43-2.31,1.95-3.34.17-.33.61-2.74.56-2.79-.18-.18-1.9-.55-3.06.56h0ZM1295.96,923.76c-.91,1.92-1.6,2-2.23,3.9-.12.36-.79,2.6-.56,3.06.23.47,2.87.43,3.34.28,1.11-.37.09-.09.83-.84.57-.57,2.4-.73,3.06-1.39.03-.03.24-1.06.28-1.11,2.01-3.02-.84-1.98-.84-3.62,0-1.09-1.67-1.17-3.9-.28h0Z"/>
    </g>
  </g>
  <g class="cls-25">
    <g>
      <path class="cls-5" d="M1586.15,841.33c-2.5,1.56-5.09,2.54-7.8,3.62-1.13.45-7.9-.62-9.19-.83-3.69-.61-4.5.79-6.96-1.67-1.36-1.36.07-8.13-.56-10.03-.41-1.24-.8-2.36-1.11-3.62-.22-.88.12-2.26-.28-3.06-1.19-2.37-1.92-4.91-2.79-7.52-.8-2.41.28-5.89.28-8.35,0-1.52-1.12-8.91-.28-9.75,1.91-1.91,11.05-3.37,13.65-2.51,1.55.52,4.12,8.47,4.73,10.3.38,1.14,1.6,1.87,2.23,2.51.21.21,1.39,2.87,1.67,3.34.13.22,5.24,6.64,5.29,6.68.38.28,1.92,1.27,2.23,1.67.18.23.04.66.28.84,0,0,2.02.73,2.23.83.63.31,1.57,1.85,2.23,2.51.79.79,2.05,1.22,2.79,1.95,1.09,1.09.84,3.49.84,5.01s-.79,5.96-2.23,6.68c-.69.35-3.93,1.38-4.73,1.11-.47-.16-.9-.61-1.39-.56-.46.05-.84,1.21-1.11.84-.28-.37.74-.56,0,0h0Z"/>
      <path class="cls-2" d="M1586.15,841.33c-2.5,1.56-5.09,2.54-7.8,3.62-1.13.45-7.9-.62-9.19-.83-3.69-.61-4.5.79-6.96-1.67-1.36-1.36.07-8.13-.56-10.03-.41-1.24-.8-2.36-1.11-3.62-.22-.88.12-2.26-.28-3.06-1.18-2.37-1.91-4.91-2.78-7.52-.8-2.41.28-5.89.28-8.35,0-1.52-1.12-8.91-.28-9.75,1.91-1.91,11.05-3.37,13.65-2.51,1.55.52,4.12,8.47,4.73,10.3.38,1.14,1.6,1.87,2.23,2.51.21.21,1.39,2.87,1.67,3.34.13.22,5.24,6.64,5.29,6.68.38.28,1.92,1.27,2.23,1.67.18.23.05.66.28.84,0,0,2.02.73,2.23.84.63.31,1.57,1.85,2.23,2.51.79.79,2.05,1.22,2.79,1.95,1.09,1.09.83,3.49.83,5.01s-.79,5.96-2.23,6.68c-.7.35-3.93,1.38-4.73,1.11-.47-.16-.9-.61-1.39-.56-.46.05-.83,1.21-1.11.84-.28-.37.74-.56,0,0h0Z"/>
    </g>
  </g>
  <g class="cls-28">
    <g>
      <path class="cls-5" d="M1305.15,420.26c-2.35-.26-3.55,2.67-5.57,3.34-1.51.5-6,.12-6.68-.56-1.53-1.53-.56-8.25-.56-10.58,0-.25-1.32-2.02-.56-2.78,1.68-1.68.48-5.49,2.23-7.24.49-.49,1.85-.56,2.79-.56,5.39,0,3.09,3.39,4.46,6.13.6,1.21,1.61,2.11,2.23,3.34.17.33-.26.85,0,1.11,2.82,2.82,3.9-1.53,1.67,7.8h0ZM1330.77,348.96c-4.1,1.08-7.67,4.88-10.03,7.24-.38.38-8.57,1.45-4.46,5.57.27.27,1.7.56,2.23.56,5.44,0,5.1-3.98,8.35-7.24.19-.19-.19-.93,0-1.11.26-.26.78.17,1.11,0,1.14-.57,1.57-2.12,2.23-2.78.37-.37,1.3-.19,1.67-.56.83-.83.59-2.29-1.11-1.67h0ZM1258.37,330.58c-.99.13-1.11,1.11-1.67,1.67-.63.63-2.3,1.74-2.79,2.23-1.55,1.55,1.14,9.5,1.67,10.03,2.28,2.28,7.48,10.9,3.9,14.48-.28.28-1.39-.28-1.67,0-.69.69-.7,1.26-1.11,1.67-.61.61-13.82-1.56-13.93-1.67-1.18-1.18-4.43-2.22-5.57-2.79-2.53-1.26-6.94,1.26-9.47,0-1.11-.56-1.67-1.86-3.9-1.11-4.65,1.55-10.35,8.59-6.68,12.25.38.38-.25,1.72,0,2.23.19.37.93.19,1.11.56.55,1.1,1.11,10.89,1.11,12.81,0,5.64.56,11.24.56,16.71,0,1.92-1.63,4.54-.56,6.68,1.3,2.59,3.41,2.26,5.57,3.34,1,.5,2.02,3.52,2.78,3.9,4.97,2.48,6.17,1.67,11.7,1.67,4.18,0,7.48-3.49,8.91-7.8.42-1.25,0-3.33.56-4.46.31-.63,1.45-1.01,1.67-1.67.45-1.35,3.26-8.43,1.67-10.03-1.74-1.74-1.3-6.69-2.23-9.47-.51-1.54-1.67-1.77-1.67-3.34,0-.98-.62-5.51,0-6.13,5.69-5.7,14.71,8.24,21.17,5.01.51-.25,4.23-.89,4.45-1.11,1.43-1.43,2.53-3.77,5.01-5.01.58-.29,2.34.45,2.79,0,1.99-1.99,8.75-2.62,9.47-3.34,1.89-1.89,5.59-3.36,7.24-5.01,1.34-1.34-1.29-4.08-1.67-4.46-1.87-1.87-15.46-1.39-17.27-5.01-.82-1.64-3.45-5.12-4.46-6.13-1.12-1.12-.91-14.28-5.01-18.38-1.38-1.38-5.97,1.11-6.13,1.11-.95,0-1.84-.56-5.57.56h0ZM1370.87,648.06c-11.42.03-2.9-11.81-3.9-12.81-.79-.79-21.35-2.69-24.51-1.11-1.05.52-6.52,2.39-7.8,1.11-.88-.88-.41-1.37-1.11-2.79-.22-.43-1.97-1.97-2.23-2.23-1.33-1.34.26-7.84-.56-9.47-.57-1.14-1.69-3.36-2.23-3.9-.39-.39-1.91-.17-2.23-1.11-.35-1.03.01-1.1-.56-1.67-.63-.63-1.77-.75-2.23-1.67-1.39-2.77-4.09-6.88-6.13-8.91-.41-.41-2.54-12.63-3.34-15.04-.48-1.43-4.7-11.45-4.46-11.7,1.56-1.56,12.54-1.39,15.04-.56,3.19,1.06,5.92,3.51,8.91,5.01,2.67,1.33,9.44,2.75,11.14,4.45.44.44,3.06,2.51,3.34,3.34.12.35-.26.85,0,1.11s.78-.17,1.11,0c2.95,1.48,6.97,6.14,8.35,8.91,1.84,3.68-3.5,6.93-1.11,11.7.08.17.37,0,.56,0,.19.19.44.32.56.56,2.74,5.49,11.74,6.73,15.59,10.58.26.26.85-.26,1.11,0,.26.26,3.09,12.51,2.79,12.81-1.95,1.95-3.03,9.33-6.13,13.37h0Z"/>
      <path class="cls-2" d="M1305.15,420.26c-2.35-.26-3.55,2.67-5.57,3.34-1.51.5-6,.12-6.68-.56-1.53-1.53-.56-8.25-.56-10.58,0-.25-1.32-2.02-.56-2.78,1.68-1.68.48-5.49,2.23-7.24.49-.49,1.85-.56,2.79-.56,5.39,0,3.09,3.39,4.45,6.13.6,1.21,1.61,2.11,2.23,3.34.17.33-.26.85,0,1.11,2.82,2.82,3.9-1.53,1.67,7.8h0ZM1330.77,348.96c-4.09,1.08-7.67,4.88-10.03,7.24-.37.38-8.57,1.45-4.45,5.57.27.27,1.7.56,2.23.56,5.44,0,5.1-3.98,8.36-7.24.19-.19-.19-.93,0-1.11.26-.26.78.17,1.11,0,1.14-.57,1.57-2.13,2.23-2.79.37-.37,1.3-.18,1.67-.56.83-.83.59-2.29-1.11-1.67h0ZM1258.37,330.58c-.99.13-1.11,1.11-1.67,1.67-.63.63-2.3,1.74-2.79,2.23-1.55,1.55,1.14,9.5,1.67,10.03,2.28,2.28,7.48,10.9,3.9,14.48-.28.28-1.39-.28-1.67,0-.69.69-.7,1.26-1.11,1.67-.61.61-13.82-1.56-13.92-1.67-1.18-1.18-4.43-2.22-5.57-2.79-2.52-1.26-6.94,1.26-9.47,0-1.12-.56-1.67-1.86-3.9-1.11-4.65,1.55-10.35,8.59-6.68,12.25.38.38-.25,1.72,0,2.23.19.37.93.19,1.11.56.55,1.1,1.11,10.89,1.11,12.81,0,5.64.56,11.24.56,16.71,0,1.92-1.63,4.54-.56,6.68,1.3,2.59,3.41,2.26,5.57,3.34,1,.5,2.02,3.52,2.79,3.9,4.97,2.48,6.17,1.67,11.7,1.67,4.18,0,7.48-3.49,8.91-7.8.42-1.25,0-3.33.56-4.46.31-.63,1.45-1.01,1.67-1.67.45-1.35,3.26-8.43,1.67-10.03-1.74-1.74-1.3-6.69-2.23-9.47-.51-1.54-1.67-1.77-1.67-3.34,0-.98-.62-5.51,0-6.13,5.69-5.7,14.72,8.24,21.17,5.01.51-.25,4.23-.89,4.46-1.11,1.43-1.43,2.52-3.77,5.01-5.01.58-.29,2.34.45,2.78,0,1.99-1.99,8.75-2.62,9.47-3.34,1.89-1.89,5.59-3.36,7.24-5.01,1.34-1.34-1.29-4.08-1.67-4.46-1.87-1.87-15.46-1.39-17.27-5.01-.82-1.64-3.45-5.12-4.46-6.13-1.12-1.12-.91-14.28-5.01-18.38-1.38-1.38-5.97,1.11-6.13,1.11-.95,0-1.84-.56-5.57.56h0ZM1370.88,648.06c-11.42.03-2.9-11.81-3.9-12.81-.8-.79-21.36-2.69-24.51-1.11-1.05.52-6.52,2.39-7.8,1.11-.88-.88-.41-1.37-1.11-2.78-.22-.43-1.97-1.97-2.23-2.23-1.34-1.34.26-7.84-.56-9.47-.57-1.14-1.69-3.36-2.23-3.9-.39-.39-1.91-.17-2.23-1.11-.35-1.03.01-1.1-.56-1.67-.63-.63-1.77-.75-2.23-1.67-1.39-2.77-4.09-6.88-6.13-8.91-.41-.41-2.54-12.63-3.34-15.04-.48-1.43-4.71-11.45-4.46-11.7,1.56-1.56,12.54-1.39,15.04-.56,3.19,1.06,5.92,3.51,8.91,5.01,2.67,1.33,9.44,2.75,11.14,4.45.44.44,3.06,2.51,3.34,3.34.12.35-.26.85,0,1.11s.78-.17,1.11,0c2.95,1.48,6.97,6.14,8.35,8.91,1.84,3.68-3.5,6.93-1.11,11.7.08.17.37,0,.56,0,.19.19.44.32.56.56,2.75,5.49,11.74,6.73,15.6,10.58.26.26.85-.26,1.11,0,.26.26,3.09,12.51,2.79,12.81-1.95,1.95-3.03,9.33-6.13,13.37Z"/>
    </g>
  </g>
  <g class="cls-27">
    <g>
      <path class="cls-5" d="M1355.84,695.4c-1.85,1.12-6.08,3.25-7.24,5.57-1.29,2.58-1.94,12.93-2.23,13.37-4.26,6.39-5.57,12.55-5.57,20.61,0,.78-.32,2.7,0,3.34.24.47,1.11.28,1.67.56.33.17-.26.85,0,1.11s2.73,2.2,2.79,2.23c1.1.55,2.54.44,3.9,1.11,5.88,2.94,7.37,10.8,14.48,7.24,3.25-1.63,3.99-1.86,5.57-5.01.42-.83,3.63-16.69,3.34-17.27-1.16-2.32.04.6-1.11-.56-.26-.26.26-.85,0-1.11-1.89-1.89-2.23-4.57-2.23-7.24,0-3.68,2.72-13.49,1.11-16.71-1.27-2.54-2.36-4.59-3.9-6.13-.71-.71-3.3-1.07-3.9-1.67,0,0-1.46-1.22-1.67-1.11-1.06.53-1.86,1.49-5.01,1.67h0Z"/>
      <path class="cls-2" d="M1355.84,695.4c-1.85,1.12-6.08,3.25-7.24,5.57-1.29,2.58-1.94,12.93-2.23,13.37-4.26,6.39-5.57,12.55-5.57,20.61,0,.78-.32,2.7,0,3.34.24.47,1.11.28,1.67.56.33.17-.26.85,0,1.11.27.27,2.73,2.2,2.79,2.23,1.1.55,2.54.44,3.9,1.11,5.88,2.94,7.37,10.8,14.48,7.24,3.26-1.63,3.99-1.86,5.57-5.01.42-.83,3.63-16.69,3.34-17.27-1.16-2.32.04.6-1.11-.56-.26-.26.26-.85,0-1.11-1.89-1.89-2.23-4.57-2.23-7.24,0-3.68,2.72-13.49,1.11-16.71-1.27-2.54-2.36-4.59-3.9-6.13-.71-.71-3.3-1.07-3.9-1.67,0,0-1.46-1.22-1.67-1.11-1.06.53-1.86,1.49-5.01,1.67h0Z"/>
    </g>
  </g>
  <g class="cls-11">
    <g>
      <path class="cls-31" d="M1296.8,522.74h-5.57c-.59,0-3.47-.55-3.9-.83-.17-.12-.11-.44-.28-.56-.15-.1-.39.08-.56,0-1.21-.6-2.1-2.1-2.79-2.79-.33-.33.87-8.39,1.11-8.63.58-.58-.4-3.56-.56-4.18-.24-.95.26-2.25-.28-3.06-.63-.94-.82-2.21-1.67-3.06-3.38-3.38-6.67-7.23-10.03-11.42-1.25-1.57-4.33-2.82-5.01-4.18-.11-.22.11-.61,0-.84-.21-.41-.62-.69-.84-1.11-.09-.17-.08-12.29.28-13.37.7-2.11-.1.1.56-.56.37-.37-.37-1.86,0-2.23,1.3-1.3,2.68-2.73,4.46-3.62.17-.08.83-1.39,1.11-1.67.27-.27.79-.08,1.11-.28.75-.45,1.44-1.16,1.95-1.67.36-.36,2.36.83,2.79,1.11,1.49.99,2.76,1.92,3.9,3.06.97.97,3.07,1.12,4.18,1.67.49.25,1.21,1.02,1.95,1.39.55.27,3.48.9,3.62,1.11.78,1.17,3.72,4.71,5.01,5.57,1.13.75,3.03,1.36,3.9,2.23.5.5.92,1.02,1.67,1.39,1,.5,2.21.82,2.78,1.39.31.31.75,1.77.84,1.95.83,1.67,1.48,5.86.84,7.8-.34,1.02-.67,3.29-.28,4.46.71,2.12,1.25,11.29.56,13.37-.67,2-.15,4.09-.56,6.13-.31,1.56-.77,4.66-1.67,5.57-.47.46.19,2.04-.28,2.51-1.86,1.86-3.41,3.62-8.35,3.34h0Z"/>
      <path class="cls-2" d="M1296.8,522.74h-5.57c-.59,0-3.47-.55-3.9-.83-.17-.11-.11-.44-.28-.56-.15-.1-.39.08-.56,0-1.21-.6-2.1-2.1-2.79-2.79-.33-.33.87-8.39,1.11-8.63.58-.58-.4-3.56-.56-4.18-.24-.96.26-2.25-.28-3.06-.63-.94-.81-2.21-1.67-3.06-3.38-3.38-6.67-7.23-10.03-11.42-1.25-1.57-4.33-2.82-5.01-4.18-.11-.22.11-.61,0-.84-.21-.41-.62-.69-.83-1.11-.09-.17-.08-12.29.28-13.37.7-2.11-.1.1.56-.56.37-.37-.37-1.86,0-2.23,1.3-1.3,2.68-2.73,4.46-3.62.17-.08.83-1.39,1.11-1.67.27-.27.79-.08,1.11-.28.75-.45,1.44-1.16,1.95-1.67.36-.36,2.36.83,2.78,1.11,1.49.99,2.76,1.92,3.9,3.06.97.97,3.07,1.12,4.18,1.67.49.25,1.21,1.02,1.95,1.39.55.27,3.48.9,3.62,1.11.78,1.17,3.72,4.71,5.01,5.57,1.13.75,3.03,1.36,3.9,2.23.5.5.93,1.02,1.67,1.39,1,.5,2.21.82,2.79,1.39.31.31.74,1.77.83,1.95.83,1.67,1.48,5.86.84,7.8-.34,1.02-.67,3.29-.28,4.46.71,2.12,1.25,11.29.56,13.37-.67,2-.15,4.09-.56,6.13-.31,1.56-.76,4.66-1.67,5.57-.46.46.19,2.04-.28,2.51-1.86,1.86-3.41,3.62-8.35,3.34h0Z"/>
    </g>
  </g>
  <g class="cls-8">
    <g>
      <path class="cls-3" d="M1218.63,257.03c-3.45-1.31-10.55.87-13.39-1.97-.2-.2-.98.2-1.18,0-.84-.84-2.53-1.35-3.54-2.36-.42-.42-1.58-3.79-1.58-4.33,0-.44.28-2.48,0-2.76-1.02-1.02-1.18-2.75-2.36-3.94-.19-.19.19-.6,0-.79-.81-.82.03,1.25-.79-.39-.37-.74.3-2.67.79-3.15,3.4-3.4,3.57-1.2,5.91-2.36.75-.38.4-1.58.79-1.97.48-.48,1.64-.85,1.97-1.18,1.82-1.82,6.3-5.91,9.45-4.33,3.74,1.87,3.82,5.79,6.69,8.67.89.89,3.84,1.87,5.12,3.15.19.19-.19.6,0,.79.19.19.6-.18.79,0,.51.51,1.29,1.69,1.97,2.36.63.63-.32,4.65-.39,4.73-.84.84.11,3.33-.39,4.33-.36.72.06,3.49-.39,3.94-1.74,1.74-3.73,2.32-9.45,1.57h0ZM1212.33,172.35c-2.39-.14-3.97-1.99-6.3-3.15-.37-.19-1.28-.1-1.57-.39-.8-.8-1.7-1.88-3.15-2.36-.61-.2-1.35.25-1.97,0-.3-.12-4.21-2.24-4.33-2.36-.19-.19.19-.6,0-.79-.82-.82-2.09-1.31-2.76-1.97-.2-.2-1.77-7.88-1.58-8.27.81-1.63,1.17-2.73,1.97-4.33.45-.9.36-3.12,1.18-3.94.19-.19.6.19.79,0,.19-.19-.19-.6,0-.79,1.06-1.06,5.67.53,6.7.79,1.09.27,3.97.82,4.73,1.58,1.93,1.93,2.87,4.05,4.33,5.51.33.33.07,1.25.39,1.58.54.54,2.19,1.23,2.76,2.36.12.23-.24.67,0,.79.75.37,1.06.27,1.57.79.19.19-.19.6,0,.79.13.13.66-.13.79,0,.45.45.41,1.99.79,2.36.13.13.66-.13.79,0,.96.96.25,3.24.79,4.33.26.52,2.25,3.27,1.18,4.33-.13.13-.66-.13-.79,0-.2.2.2.98,0,1.18-1.59,1.59-1.04,3.81-6.3,1.97h0Z"/>
      <path class="cls-2" d="M1218.63,257.03c-3.45-1.31-10.55.87-13.39-1.97-.2-.2-.99.2-1.18,0-.84-.84-2.53-1.35-3.55-2.36-.42-.42-1.57-3.79-1.57-4.33,0-.44.28-2.48,0-2.76-1.02-1.02-1.18-2.75-2.36-3.94-.19-.19.19-.6,0-.79-.81-.81.03,1.25-.79-.39-.37-.74.3-2.67.79-3.15,3.4-3.4,3.57-1.2,5.91-2.36.75-.38.4-1.58.79-1.97.48-.48,1.64-.85,1.97-1.18,1.82-1.82,6.3-5.91,9.45-4.33,3.74,1.87,3.82,5.79,6.7,8.67.89.89,3.84,1.87,5.12,3.15.19.19-.19.6,0,.79.19.19.6-.18.79,0,.51.51,1.3,1.69,1.97,2.36.63.63-.32,4.65-.39,4.73-.84.84.11,3.33-.39,4.33-.36.72.06,3.49-.39,3.94-1.74,1.74-3.73,2.33-9.45,1.57h0ZM1212.33,172.35c-2.39-.14-3.97-1.99-6.3-3.15-.37-.19-1.28-.1-1.58-.39-.8-.8-1.69-1.88-3.15-2.36-.61-.2-1.35.25-1.97,0-.3-.12-4.21-2.25-4.33-2.36-.19-.19.19-.6,0-.79-.82-.82-2.09-1.31-2.76-1.97-.2-.2-1.77-7.88-1.57-8.27.81-1.63,1.17-2.73,1.97-4.33.45-.9.37-3.12,1.18-3.94.19-.19.6.19.79,0,.19-.19-.19-.6,0-.79,1.06-1.06,5.67.53,6.7.79,1.09.27,3.97.82,4.73,1.58,1.93,1.93,2.87,4.05,4.33,5.51.33.33.07,1.25.39,1.58.54.54,2.19,1.23,2.76,2.36.12.23-.23.67,0,.79.75.37,1.06.27,1.57.79.19.19-.19.6,0,.79.13.13.66-.13.79,0,.45.45.41,1.99.79,2.36.13.13.66-.13.79,0,.96.96.24,3.25.79,4.33.26.52,2.25,3.27,1.18,4.33-.13.13-.66-.13-.79,0-.2.2.2.99,0,1.18-1.59,1.59-1.04,3.81-6.3,1.97h0Z"/>
    </g>
  </g>
  <g class="cls-15">
    <g>
      <path class="cls-30" d="M1060.7,218.03c-.69-.47-1.6-1.39-2.36-1.58-4.51-1.13-4.68-2.32-7.09-4.73-.18-.18.12-.94,0-1.18-2.56-5.12,5.59-11.03,9.85-11.03s4.05.51,6.3,2.76c.88.88,2.18.81,2.76,1.97,1.14,2.28,1.52,6.13,2.36,8.67.54,1.61,3.54,2.2,3.54,3.54,0,1.93,5.79,6.42,3.55,8.66-.43.43.14,1.18-.79,1.18-.5,0-2.83.32-3.15,0-.7-.7-.71-1.89-1.58-2.76-.78-.78-2.37-1.58-3.15-2.36-.19-.19.19-.6,0-.79-.13-.13-.66.13-.79,0-.39-.39-.39-1.18-.79-1.58-.26-.26-.92-.13-1.18-.39-.19-.19.19-.6,0-.79-.64-.64-3.83.49-7.48.39h0ZM1099.3,247.18c-2.04-.1-3.5-.37-5.12-1.18-1.52-.76-.97-2.54-1.97-3.54-.65-.65-1.77-1.18-2.36-2.36-.28-.57-.74-2.85-.39-3.55.99-1.97,3.54-3.54,5.12-4.33.34-.17.47-1.22,1.18-1.57.06-.03,1.54-.79,1.18-.79-.19,0-.58.39-.39.39,1.61,0,1.85-.63,2.76,1.18.54,1.08.73.73,1.18,1.18,1.86,1.86,2.36,5.95,2.36,8.66s-.94,2.93-3.54,5.91h0Z"/>
      <path class="cls-2" d="M1060.7,218.03c-.69-.47-1.6-1.39-2.36-1.58-4.51-1.13-4.68-2.32-7.09-4.73-.18-.18.12-.94,0-1.18-2.56-5.12,5.59-11.03,9.85-11.03s4.05.51,6.3,2.76c.88.88,2.18.81,2.76,1.97,1.14,2.28,1.52,6.13,2.36,8.67.54,1.61,3.55,2.2,3.55,3.54,0,1.93,5.79,6.42,3.54,8.66-.43.43.15,1.18-.79,1.18-.5,0-2.83.32-3.15,0-.7-.7-.71-1.89-1.57-2.76-.78-.78-2.37-1.58-3.15-2.36-.19-.19.19-.6,0-.79-.13-.13-.66.13-.79,0-.39-.39-.39-1.18-.79-1.58-.26-.26-.92-.13-1.18-.39-.19-.19.19-.6,0-.79-.64-.64-3.83.49-7.48.39h0ZM1099.3,247.18c-2.04-.1-3.5-.37-5.12-1.18-1.52-.76-.97-2.54-1.97-3.55-.65-.65-1.77-1.18-2.36-2.36-.28-.57-.74-2.85-.39-3.55.98-1.97,3.53-3.54,5.12-4.33.34-.17.47-1.22,1.18-1.57.06-.03,1.54-.79,1.18-.79-.19,0-.58.39-.39.39,1.61,0,1.85-.63,2.76,1.18.54,1.08.73.73,1.18,1.18,1.86,1.86,2.36,5.95,2.36,8.66s-.94,2.93-3.55,5.91h0Z"/>
    </g>
  </g>
  <g class="cls-13">
    <g>
      <path class="cls-4" d="M1022.89,66.8c-3.88,1.42-5.08,4.3-7.88,7.09-1.05,1.05-2.38,1.59-3.15,2.36-1.11,1.11-1.25,2.83-2.36,3.94-.79.79-6.24,4-4.73,5.51,1.37,1.37,4.99,0,6.69,0,1.38,0,1.4-1.25,2.36-1.97,1.18-.89,2.64-1.06,3.54-1.97.13-.13.26-1.05.39-1.18.28-.28.83.17,1.18,0,.78-.39,2.53-1.35,3.15-1.97.28-.28,1.57.13,1.97,0,1.09-.36,2.22-.71,3.15-1.18,1.35-.68-.38-.4.39-.79,1.9-.95,2.35-1.54,3.15-3.15.14-.27,1.8-.84,1.97-1.18.05-.1.44-5.46.39-5.51-1.43-1.43-6.62-.39-10.24,0h0Z"/>
      <path class="cls-2" d="M1022.89,66.8c-3.88,1.42-5.08,4.3-7.88,7.09-1.05,1.05-2.38,1.59-3.15,2.36-1.11,1.11-1.25,2.83-2.36,3.94-.79.79-6.24,4-4.73,5.51,1.37,1.37,4.99,0,6.69,0,1.38,0,1.4-1.25,2.36-1.97,1.18-.89,2.64-1.06,3.54-1.97.13-.13.26-1.05.39-1.18.28-.28.83.18,1.18,0,.78-.39,2.53-1.35,3.15-1.97.28-.28,1.57.13,1.97,0,1.09-.36,2.22-.72,3.15-1.18,1.35-.68-.38-.4.39-.79,1.9-.95,2.35-1.54,3.15-3.15.14-.27,1.8-.84,1.97-1.18.05-.1.44-5.46.39-5.51-1.43-1.43-6.62-.39-10.24,0h0Z"/>
    </g>
  </g>
  <g class="cls-14">
    <path class="cls-5" d="M1035.11,102.49l-13.08-.97-18.69,1.58c1.41.85,8.92,4.4,7.71,3.69-1-.58,2.17,1.22,2.46,1.36.11.06.71.12.75.19.35.69,1.5,1.74,2.42,2.05.41.14.59,1,.75,1.31.2.41.62.33.93.56.51.38,1.25,1.46,1.68,1.68.81.41,5.51.8,6.15.37.15-.1.21-.31.37-.37.71-.28,1.53-.04,2.05-.56.16-.15.78.16.93,0,.2-.2.93-.65,1.12-.75.71-.35,3.07-.64,3.54-1.12.4-.4.23-1.53.56-1.86.79-.79,2.21-3.21,1.49-4.66-.13-.26-.89-1.07-1.12-1.3-.16-.16.09-.98,0-1.18h0Z"/>
  </g>
  <g class="cls-12">
    <g>
      <path class="cls-5" d="M194.63,1036.44c-7.78-.38-13.67-4.01-21.27-5.91-.36-.09-.44-.67-.79-.79-.08-.03-1.44.13-1.58,0-1.17-1.17-3.39-1.69-5.51-2.76-.35-.18-.83.18-1.18,0-1.57-.78-2.13-2.52-3.15-3.55l-1.58-1.58c-.18-.18-.94.12-1.18,0-.77-.38-.61-1.79-1.18-2.36-.53-.53-1.25-.7-1.97-1.18-.22-.15.19-.6,0-.79-.26-.26-.92-.13-1.18-.39-.05-.05-1.27-2.06-1.58-2.36-.75-.75-3.35-1.38-3.94-1.97-.57-.57-.89-2.07-1.57-2.76-.63-.63-1.73-.55-2.36-1.18-.13-.13-.26-1.05-.39-1.18-1.77-1.77-4.28-2.66-5.51-5.12-.58-1.16-.32-2.6-.79-3.55-.95-1.89.53-4.85-.39-6.69-1.3-2.6-1.18-6.7.79-8.66.24-.24,1.91-.56,2.36-.79,1.27-.63,3.24.57,4.33.79.36.07,2.81-.35,3.15,0,.67.67,2.55,1.37,3.54,2.36.45.45.81,1.59,1.18,1.97.82.82.27,3.69.79,4.73,1.01,2.01.48,4.51,1.18,5.91.49.98,4.48,9.29,4.73,9.45.65.43,1.09.2,1.97.79.56.37.49.88.79,1.18.19.19.6-.19.79,0,.19.19-.19.6,0,.79.2.2.98-.2,1.18,0,.4.4.84.81,1.57,1.18,2.36,1.18,6.37-.75,8.67.39,1.24.62,2.17.49,3.54,1.18.74.37,2.02-.37,2.76,0,1.77.89,2.16,1.87,3.94,2.76.87.43,3.75.99,4.33,1.58.29.29.14.85.39,1.18.56.74,2.37,1.05,3.15,1.57,2.69,1.79,4.38,3.24,5.51,5.51.37.73,1.22,1.61,1.57,1.97.39.39-.39,1.97,0,2.36.86.86,1.02,5.05.79,5.51-.05.1-1.41,0-1.57,0-1.23,0-1.1.13-4.33.39h0Z"/>
      <path class="cls-2" d="M194.63,1036.44c-7.78-.38-13.67-4.01-21.27-5.91-.36-.09-.44-.67-.79-.79-.08-.03-1.44.13-1.58,0-1.17-1.17-3.39-1.69-5.51-2.76-.35-.18-.83.18-1.18,0-1.57-.78-2.13-2.52-3.15-3.55l-1.58-1.57c-.18-.18-.94.12-1.18,0-.77-.38-.61-1.79-1.18-2.36-.53-.53-1.25-.7-1.97-1.18-.22-.15.19-.6,0-.79-.26-.26-.92-.13-1.18-.39-.05-.05-1.27-2.06-1.58-2.36-.75-.75-3.35-1.38-3.94-1.97-.57-.57-.89-2.07-1.57-2.76-.63-.63-1.73-.55-2.36-1.18-.13-.13-.26-1.05-.39-1.18-1.77-1.77-4.28-2.66-5.51-5.12-.58-1.16-.32-2.6-.79-3.55-.95-1.89.53-4.85-.39-6.69-1.3-2.6-1.18-6.7.79-8.66.24-.24,1.91-.56,2.36-.79,1.27-.63,3.24.57,4.33.79.36.07,2.81-.35,3.15,0,.67.67,2.55,1.37,3.54,2.36.45.45.81,1.59,1.18,1.97.82.82.27,3.69.79,4.73,1.01,2.01.48,4.51,1.18,5.91.49.98,4.48,9.29,4.73,9.45.65.43,1.09.2,1.97.79.56.37.49.88.79,1.18.19.19.6-.19.79,0,.19.19-.19.6,0,.79.2.2.98-.2,1.18,0,.4.4.84.81,1.57,1.18,2.36,1.18,6.37-.75,8.67.39,1.24.62,2.17.49,3.54,1.18.74.37,2.02-.37,2.76,0,1.77.89,2.16,1.87,3.94,2.76.87.43,3.75.99,4.33,1.58.29.29.14.85.39,1.18.56.74,2.37,1.05,3.15,1.57,2.69,1.79,4.38,3.24,5.51,5.51.37.73,1.22,1.61,1.57,1.97.39.39-.39,1.97,0,2.36.86.86,1.02,5.05.79,5.51-.05.1-1.41,0-1.58,0-1.23,0-1.1.13-4.33.39h0Z"/>
    </g>
  </g>
  <g class="cls-9">
    <path class="cls-5" d="M1036.29,101.81c-.18-.37-.34-.63-.6-1.14-.24-.49-.73-.86-.98-1.38-1.31-2.62-.86-2.43-2.76-4.33-.04-.03-.17-.58-.2-.59-.12-.06-.3.09-.39,0-.04-.04-.12-.68-.2-.79-.47-.71-.92-1.11-1.38-1.58-.78-.78.51-2.53-3.15-1.38-.42-.05-.92.13-1.18.39-1.14,1.14-2.78,2.47-3.74,2.95-.45.22-1.85.07-2.17.39-.18.18-.38.49-.79.59-1.11.28-2.1,1.01-2.95,1.18-.89.18-1.01-.11-1.77.39-.41.27-1.31.04-1.77.2-1.16.39-5.44.91-5.91,1.38-.18.18-.91-.09-1.18,0-.86.29-1.2.79-2.17.79-1.04,0-2.59,1.12-1.97,2.36.06.12-.09.3,0,.39,2.65,2.65,4.42,1.71,5.53,1.94.97-.13,2.45-.49,2.51-.42.67.7,1.19-.41,2.1-.09l10.72-1.74,14.27,1.18.12-.71h0Z"/>
  </g>
  <g class="cls-6">
    <g>
      <path class="cls-3" d="M1159.95,308.62c-2.3-.04-7.9-1.21-9.25-2.56-.09-.09-.3.09-.39,0-1.27-1.27-.34-3.51-.79-5.32-.44-1.76-1.04-4.23-.2-5.91.29-.57.96-.92,1.18-1.58.33-1,.38-1.96,1.18-2.76.79-.79.04-3.97.79-4.73.2-.2,2.49-.72,3.15-.39,1.47.74,3.14,2.54,3.94,4.13.22.43-.02,1.15.2,1.58.07.13.33.07.39.2.43.85,1,2.42,1.38,3.55.45,1.35,1.98,2.79,2.36,4.33.3,1.22.49,2.35.79,3.54.04.18-.13.86,0,.99.3.3.39.75.39,1.38,0,.11.45.54.2.79-.19.19-.43.82-.59.99-.87.87-2.1,1.59-4.73,1.77h0Z"/>
      <path class="cls-2" d="M1159.95,308.62c-2.3-.04-7.9-1.21-9.25-2.56-.09-.09-.3.09-.39,0-1.27-1.27-.34-3.51-.79-5.32-.44-1.76-1.04-4.23-.2-5.91.29-.57.96-.92,1.18-1.58.33-1,.38-1.96,1.18-2.76.79-.79.04-3.97.79-4.73.2-.2,2.49-.72,3.15-.39,1.47.73,3.14,2.54,3.94,4.13.22.43-.02,1.15.2,1.58.07.13.33.07.39.2.43.85,1,2.42,1.38,3.55.45,1.35,1.98,2.79,2.36,4.33.3,1.22.49,2.35.79,3.54.05.18-.13.86,0,.99.3.3.39.75.39,1.38,0,.11.45.54.2.79-.19.19-.43.82-.59.99-.87.87-2.1,1.59-4.73,1.77h0Z"/>
    </g>
  </g>
  <g class="cls-10">
    <path class="cls-5" d="M274.46,1038.78c-.19-.8-1.9-.23-2.23-.56-.75-.75-1.36-2.47-1.67-2.78-1-1-2.77-3.33-3.62-4.18s.81-6.1,1.39-6.68c.11-.11-.56-4.48-.56-5.29,0-.75.51-4.78,0-5.29-.49-.5-1.19-1.33-2.23-1.67-.28-.09-.9-.06-1.11-.28-1.05-1.05-2.31-2.03-3.06-2.78-.32-.33-6.4-.14-7.24-.56-.85-.42-3.16-2.33-3.9-3.06-.98-.98-.48-1.63-2.23-2.51-1.53-.76.05-8.4.83-9.19.1-.1-.11-.78,0-.84.67-.34,1.7-.43,2.51-.84.23-.12.31-.47.56-.56,3.5-1.17,4.93,2.98,6.68,4.73.65.65,1.14,1.13,1.95,1.67.15.1.43-.13.56,0,.34.34.47,1.21,1.39,1.67.74.37,1.53.42,1.95.83.36.36.6.92.84,1.39.06.13,1.49.65,1.67.83.47.47.85,1.4,1.39,1.67,1.4.7,7.83-1.08,8.63-.28.33.33,1.51,1.15,2.23,1.39.85.29,2.01.68,2.51,1.67,1.02,2.05.29,6.15.83,7.24.38.77.56.99.56,1.95,0,.61.94,1.65.56,2.23-1.26,1.9-.85,3.95-1.39,6.13-.18.73.33,1.85,0,2.51-.35.71-1.33,4.67-1.39,4.73-.34.34-1.16.6-1.39.84-.3.29,0,.83-.56,1.11-.23.12-.94-.18-1.11,0-.44.44-1.61,1.05-2.23,1.67-.13.13.13,2.41-1.11,3.06h0ZM1039.43,192.04c-1.76-.22-2.81-1.04-3.94-2.17-.4-.4-1.52-.73-1.77-.99-.29-.28-.53-1.07-.99-1.38-.31-.21-1.77-.24-1.77-.59,0-.4-.57-1.99-.2-2.36.93-.93,2.11-.06,3.15.2.6.15,1.61-.28,2.17,0,.73.37,2.09,1.11,2.56,1.57.35.35,2,.71,2.56.99,0,0,1.67,2.07,1.97,2.36.12.12-.9.55-.99.59-.49.25-.36.56-.59.79-.63.63-.59-.58-2.17.99h0Z"/>
  </g>
  <g class="cls-7">
    <path class="cls-5" d="M999.49,163.76c-1.24-.23-2.55-.04-3.37.78-1.09,1.09-.31,2.49,0,3.11.04.07,3.55,1.49,3.63,1.56,1.78,1.33,3.01-1.04,3.11-1.56,0-.01-.73-2.9-.78-3.11-.27-1.07-1.5-.78-2.59-.78h0Z"/>
  </g>
  <g class="cls-16">
    <path class="cls-5" d="M1060.92,122.54c1.54,2.25,4.12,7.69,6.7,7.69,3.96,0,7.22,1.87,11.19,1.87,1.75,0,2.95-2.57,4.08-3.56,1.46-1.98,4.59-4.01,3.26-3.44-4.29,1.17-5.96-.75-7.23-2.04-1.77,3.44-7.62,2.24-9.74,3.07-2.12.84-3.19-1.51-3.55-2.9-.31-1.2-2.33.9-4.72-.7Z"/>
  </g>
  <g class="cls-17">
    <path class="cls-5" d="M1050.75,115.72c.03.32.77,0,1.49-.06.45.05,2.19.28,2.33,1.19-.17.96-.52.57-.82.64-.11.03-.15.16-.17.26-.07.27,0,.65,0,.93,0,.3-1.01.02-.9-.18.31-.58.13-1.08.35-1.31,1.18-1.25-1.78-.31-1.84-.55-.08-.3-.64-.53-.44-.93Z"/>
  </g>
  <g class="cls-18">
    <path class="cls-5" d="M1068.56,117.23c-1.22-.28-3.15.15-3.15,1.92,0,1.05,2.89-.91,3.15-1.92Z"/>
  </g>
  <g class="cls-19">
    <path class="cls-5" d="M1074.03,115.89c0,1.32,2.64,0,3.96,0,.97,0-1.62,1.16-2.57,1.4-.95.24-.86-.35-1.17-.47"/>
  </g>
  <g class="cls-20">
    <path class="cls-3" d="M1305.69,479.08c-.52,1.66-1.98,2.84-3.71,3.02-1.56.17-3.1-.52-4.56-1.45-1.8-1.15-3.36-2.64-3.83-4.61-.48-1.98.23-4.07,1.83-5.34l10.27,8.37h0Z"/>
  </g>
</svg>