<?xml version="1.0" encoding="UTF-8" standalone="no"?>
<!-- Created by Uwe Dedering -->
<svg xmlns:inkscape="http://www.inkscape.org/namespaces/inkscape" xmlns:sodipodi="http://sodipodi.sourceforge.net/DTD/sodipodi-0.dtd" xmlns="http://www.w3.org/2000/svg" xmlns:svg="http://www.w3.org/2000/svg" width="600" height="400" version="1.1" id="svg279" sodipodi:docname="Edo language.svg" inkscape:version="1.1.1 (3bf5ae0d25, 2021-09-20)"><sodipodi:namedview id="namedview281" pagecolor="#505050" bordercolor="#eeeeee" borderopacity="1" inkscape:pageshadow="0" inkscape:pageopacity="0" inkscape:pagecheckerboard="0" showgrid="false" inkscape:snap-global="false" inkscape:zoom="0.9346049" inkscape:cx="296.91691" inkscape:cy="334.90087" inkscape:window-width="1920" inkscape:window-height="1046" inkscape:window-x="-11" inkscape:window-y="-11" inkscape:window-maximized="1" inkscape:current-layer="layercountry" fit-margin-top="0" fit-margin-left="0" fit-margin-right="0" fit-margin-bottom="0"/>
<defs id="defs10">
  <clipPath id="clipPath1">
    <path d="M 0,0 H 954 V 734 H 0 Z" id="clipping"/>
  </clipPath>
  <style type="text/css" id="style4">
      .river1 {fill:none;stroke:#0978ab;stroke-width:1.5;stroke-linecap:round;stroke-miterlimit:4;stroke-opacity:1;stroke-dasharray:none;}
      .river2 {fill:none;stroke:#0978ab;stroke-width:1.0;stroke-linecap:round;stroke-miterlimit:4;stroke-opacity:1;stroke-dasharray:none;}
      .river3 {fill:none;stroke:#0978ab;stroke-width:0.5;stroke-linecap:round;stroke-miterlimit:4;stroke-opacity:1;stroke-dasharray:none;}
      .rivera {fill:none;stroke:#00ff00;stroke-width:0.5;stroke-linecap:round;stroke-miterlimit:4;stroke-opacity:1;stroke-dasharray:none;}
      .riverb {fill:none;stroke:#00ee00;stroke-width:0.5;stroke-linecap:round;stroke-miterlimit:4;stroke-opacity:1;stroke-dasharray:none;}
      .river {fill:none;stroke:#0978ab;stroke-width:1.0;stroke-linecap:round;stroke-miterlimit:4;stroke-opacity:1;stroke-dasharray:none;}
      .coastline {fill:none;stroke:#0978ab;stroke-width:1;stroke-linecap:round;stroke-miterlimit:4;stroke-opacity:1;stroke-dasharray:none;}
      .minorIslands {fill:none;stroke:#0978ab;stroke-width:1.5;stroke-linecap:round;stroke-miterlimit:4;stroke-opacity:1;stroke-dasharray:none;}
      .otherCountries {fill:#e0e0e0;stroke:none;display:inline;}
      .country {fill:#fefee4;stroke:none;display:inline;}
      .disputedCountries {fill:#f5f5f5;fill-rule:evenodd;stroke:#646464;stroke-width:2;stroke-miterlimit:4;stroke-dasharray:10,4;}
      .iBoundaries {fill:none;stroke:#646464;stroke-width:2;stroke-linecap:butt;stroke-linejoin:miter;stroke-miterlimit:4;stroke-opacity:1;stroke-dasharray:none;}
      .rBoundaries {fill:none;stroke:#808080;stroke-width:1.5;stroke-linecap:round;stroke-miterlimit:4;stroke-dasharray:none;}
	  .ocean {fill:#c8ebff;fill-opacity:1;stroke:none}
	  .lake {fill:#c8ebff;stroke:#0978ab;stroke-width:0.5;fill-opacity:1;}
      .grid {fill:none;stroke:#000000;stroke-width:0.5;stroke-linecap:round;stroke-miterlimit:4;stroke-opacity:1;stroke-dasharray:none;}
	  .label {font-family:Bitstream Vera Sans; font-size:24px;}
      .mountaincss {fill:#ffffff;stroke:#000000;stroke-width:0.1;fill-rule:evenodd;}
      .settlementcss {fill:#ffffff;stroke:#000000;stroke-width:0.5;fill-rule:evenodd;}
      .settlement_carthagecss {fill:#800080;stroke:#000000;stroke-width:0.5;fill-rule:evenodd;}
      .settlement_greekcss {fill:#ff0000;stroke:#000000;stroke-width:0.5;fill-rule:evenodd;}
    </style>
  <circle id="mountainsymbol" class="mountaincss" cx="0" cy="0" r="5"/>
  <circle id="settlementsymbol" class="settlementcss" cx="0" cy="0" r="5"/>
  <circle id="settlementsymbol_carthage" class="settlement_carthagecss" cx="0" cy="0" r="5"/>
  <circle id="settlementsymbol_greek" class="settlement_greekcss" cx="0" cy="0" r="5"/>
</defs>
<g style="display:inline" inkscape:groupmode="layer" inkscape:label="ocean" id="layer0" clip-path="url(#clipPath1)" transform="translate(-0.93673003,-333.98297)">
  <rect y="333.98297" x="0.93673003" height="400" width="600" id="ocean" class="ocean" style="stroke-width:0.585442"/>
</g>
<g inkscape:groupmode="layer" inkscape:label="coastline" id="layercoastline" transform="translate(-0.93673003,-333.98297)">
  <path class="coastline" id="10m_coastline.31" d="m 193.9,571.6 5.5,3.5 2.2,1.8 2.6,2.7 1.9,2.8 1.3,1.6 2.9,1.2 1.5,1.4 8.9,11.5 2.7,6 0.8,0.1 3.7,-3.4 1.1,-0.8 5.5,-2.9 2.9,-0.9 2.5,-2.3 1.6,-0.2 -1.7,2.8 -6,2.2 -2.3,2 -0.1,0.7 0.3,0.8 0.1,0.6 -0.3,0.5 -0.6,-0.2 -1.5,-1.1 -0.8,-0.3 -0.9,0.6 -0.7,1.3 -0.4,1.7 -0.2,1.4 0.3,1.8 0.6,1.3 0.7,1 0.7,2 0.9,1.6 1.2,1.4 1.1,1 1,0.7 0.4,0.2 1.9,-0.7 1.7,-1 0.8,-0.2 1.8,-0.1 1.2,-0.6 1,-0.9 0.8,-1.4 2,-5.5 h 0.4 l 0.1,1.4 -0.1,1 -1.4,4 v 1.3 l 0.6,1 1.4,0.8 1.2,0.1 1.3,-0.3 1.2,-0.6 0.8,-0.7 0.9,-2.2 0.7,-0.8 h 1.4 l 1.3,0.6 1.5,1 1.2,1.3 0.5,1.1 0.1,0.8 -0.2,0.5 -0.3,0.2 h -0.8 l -0.2,-0.3 -0.4,-1.7 -0.2,-0.5 -0.8,-0.5 -1.1,-0.4 h -1.2 l -0.9,0.4 -0.6,0.9 -1.2,2.6 -0.7,1 h -0.5 l -1.5,-0.8 -2.8,-0.5 -7.2,-0.3 -0.5,0.1 -0.6,0.5 -1.2,1.2 -0.5,0.3 -0.2,0.7 0.1,1.6 0.6,1.6 1.5,1 2.3,2.1 0.3,0.4 0.3,0.8 0.4,0.4 8.2,2.8 4.3,0.2 -0.5,-0.6 -0.4,-1 -0.2,-1 0.3,-0.4 1,0.2 0.2,0.3 0.2,0.5 0.4,0.5 1.5,0.6 1.2,-0.2 1,-1.1 0.8,-1.8 -0.4,-1.9 1,-1.6 1.8,-0.9 1.6,0.4 0.4,-0.4 0.5,-0.3 0.2,-0.4 1.3,0.4 1.1,-0.5 0.9,-0.9 1.2,-0.5 -1,1.7 -0.9,0.9 -0.9,0.4 h -2.4 l -1.1,0.2 -1,0.6 -0.5,0.9 -0.1,1.2 0.1,1.2 0.3,1 0.7,1.1 1.7,1.5 0.6,0.9 h -0.5 l -0.8,-0.5 h -1.1 l -1.2,0.2 -2.5,1 -0.5,0.3 -0.4,0.5 -0.5,1.1 -0.6,0.4 -0.6,-0.8 -0.2,-0.5 -0.2,-0.7 -1.4,0.4 -4.9,0.1 -1.7,0.3 -0.4,1 1.6,6.6 0.3,3.4 -0.2,2.7 0.2,0.6 0.8,0.4 1.7,-0.4 1,0.5 1.1,-0.4 0.5,-0.1 h 0.7 l 0.2,-0.3 v -1.4 l 0.2,-0.3 0.8,0.4 2,2.2 0.5,0.9 -1.4,-0.3 -1.6,-0.2 1.5,4 -0.9,-0.5 -1.3,-1.9 -0.8,-0.6 -1.1,-0.4 -1.2,-0.1 -0.9,0.4 -0.3,0.8 0.2,1.2 0.5,0.8 0.6,0.5 0.2,0.6 0.2,1.2 0.3,1.1 1,1.9 0.4,1.2 0.6,3.4 2.1,5.7 2.3,2.6 0.6,1.8 -2.5,-1.5 0.8,0.9 1.9,3.1 0.3,1.2 0.9,1.4 3.2,2 v 1.4 l -0.5,-0.3 -0.2,-0.1 -0.4,-0.1 0.8,3.1 2,2.8 6.8,6.4 0.5,0.3 1.9,2 0.6,0.8 1.6,1.7 1,0.4 1,0.2 0.9,0.5 0.6,0.9 -0.5,-0.3 -1,-0.4 -0.5,-0.3 0.9,1.1 2.9,1.7 1.2,1.2 h 0.5 l -0.1,-0.8 0.3,-0.5 0.5,-0.3 0.8,0.1 -0.8,1.8 0.9,1.8 1.7,1.4 1.4,0.5 0.6,0.4 1,0.8 1.1,0.7 1.1,0.2 0.8,-0.9 -0.2,-1.2 -1.1,-2.5 1.1,0.7 0.4,0.3 0.6,-2.5 h 0.4 l -0.1,1.3 0.1,1.2 0.1,0.3 1,1.4 -0.2,0.2 -0.4,0.1 0.1,2.6 0.6,0.4 1.6,0.1 1.1,0.4 0.9,0.8 0.6,0.1 0.2,-1.6 -0.4,-1.1 -0.6,-0.9 -0.3,-0.8 0.3,-1 -0.3,-0.6 -0.4,-1.1 -0.1,-1 0.2,-0.8 0.9,-0.3 0.9,0.4 0.7,0.2 0.9,0.1 -0.3,2 v 1.1 l 0.3,-0.1 0.8,-0.2 0.2,0.9 -1,1.7 -0.3,1.2 -0.1,1.4 0.3,1 0.6,0.7 1.2,0.5 0.3,-0.3 0.5,-0.4 0.2,-0.3 1.9,0.5 2.7,-0.2 2.1,-0.7 0.4,-0.7 -1,-0.3 h -0.5 l -0.6,0.3 v -1 l 0.5,-0.4 0.6,-0.2 0.4,-0.4 0.6,-1 0.4,-1.5 0.1,-1.9 -0.5,-1.2 -0.8,-1.2 -0.8,-1.7 1.4,0.3 0.8,0.7 0.6,0.8 0.7,0.7 -0.5,-1.4 -0.4,-1.8 -0.1,-1.8 0.1,-1.5 h 0.4 l 1.2,3.6 0.3,3.9 2.6,-3 0.5,-0.2 h 0.5 l 0.6,0.1 0.9,0.1 -4.8,5.4 -1.4,3.1 1.7,2.1 1.4,-0.6 3.4,-0.1 1.4,-0.6 1.4,-0.3 1.8,-0.1 1.2,-0.5 -0.5,-1.4 0.9,-0.3 1,-0.1 2,1.3 4.3,0.4 3.6,-0.8 0.2,-2.5 0.9,-2.8 0.3,-3 -0.7,-2.6 -2.1,-1.6 2.3,-0.2 1.1,1.9 0.3,2.7 -0.1,3.3 0.2,2.3 0.8,2.3 0.4,0.5 2.1,-0.2 h 2.3 l 0.7,-0.3 0.5,-0.7 v -0.9 l -0.7,-2.5 -0.6,-1.5 -0.9,-1.5 -0.3,-1.2 -0.1,-3.5 -0.4,-1 0.5,-0.3 0.4,-0.3 0.4,-0.5 0.2,-0.5 0.4,0.9 0.2,4.5 0.3,1.1 0.6,1.6 0.2,-0.9 v -1.5 l 0.3,-0.6 -0.5,-2.4 0.5,-3.4 1.2,-3.1 1.4,-1.7 v 2.2 l -0.1,0.8 -1.7,4.4 -0.3,1.1 v 2.6 l 0.2,0.3 0.7,0.6 0.2,0.4 -0.1,0.3 -0.4,0.5 -0.3,4.4 0.3,1 1.6,0.9 2.7,0.3 2.9,-0.2 2.3,-0.4 1.8,-1 -0.9,-1.1 -1.5,-1.3 0.2,-1.7 -1,-1.2 -0.8,-2.1 -1.4,-7.2 0.1,-1.1 0.4,-0.6 1.6,-1.4 -1.4,-2.3 -0.9,-1.2 -0.9,-0.5 -0.7,-0.5 -0.3,-1.3 -0.3,-2.7 -0.6,-2.7 -0.5,-1.3 -0.7,-0.5 -0.9,-0.5 -0.4,-1 -0.1,-1.3 -0.3,-1.3 0.6,0.3 0.6,0.1 0.6,-0.1 0.7,-0.3 0.1,0.7 0.2,0.5 0.7,0.9 0.9,-0.9 0.7,0.1 0.2,0.6 -0.5,0.9 -0.8,1 -0.3,1 0.3,1.8 1.1,4.5 1.3,2.5 1.9,1 1.2,0.5 0.2,1.1 -0.3,1.2 -0.3,0.7 -0.6,0.7 -0.5,0.6 -0.4,0.7 -0.1,1.3 0.3,1.9 0.8,2.3 1.2,1.9 1.2,0.7 -0.5,1.2 0.1,1.3 0.6,1.2 0.8,0.9 1.7,-0.7 1.7,0.4 1.6,0.8 1.6,0.5 -0.3,-0.5 -0.1,-0.3 v -0.3 l 1.4,0.6 1.7,0.5 0.7,-0.4 0.4,-0.7 0.2,-0.7 -1,-1.1 -2.6,-5.2 -0.1,-1.7 0.7,-5.1 -0.6,-0.9 -1.3,-0.3 -1.4,0.3 -0.7,1.1 -0.6,-0.8 0.3,-0.4 0.5,-0.4 0.3,-0.6 -0.1,-0.6 -0.3,-0.5 -0.6,-0.7 -1.1,-1.8 -0.3,-1 -0.2,-1.2 2.2,2.4 0.7,1.2 0.7,1.4 0.7,-0.3 0.3,-0.2 0.3,0.7 0.4,0.2 0.5,0.1 h 0.7 l -1.6,-4.3 -0.8,-1.2 0.3,-0.6 -0.2,-1.8 0.4,-1.1 0.9,1.6 0.2,1.2 0.5,0.1 1.4,-1.9 0.3,0.6 0.4,1.6 0.3,0.8 1.5,1.7 0.4,0.8 -0.4,-0.2 -0.7,-0.1 -0.4,-0.2 0.2,1.1 -0.2,1.5 -0.4,1.3 -0.3,0.6 -0.8,0.6 0.3,1.2 1.2,2 0.2,3.8 0.5,1.8 0.8,1.7 h 0.6 l 2,-0.5 -0.8,-1.1 -0.4,-1.3 0.2,-1.2 1,-0.9 -0.3,1.4 0.4,1.1 1,0.8 1.4,0.7 v -0.4 l 1.5,-0.5 1.3,-0.6 2,-2.3 0.5,-1.2 -0.7,-1.3 -1.1,-1.1 -1,-0.7 1.9,-0.9 -0.2,-2.4 -1.7,-2.5 -2.2,-1.2 -1.4,-0.4 -0.7,-1.1 -0.7,-2.5 -0.5,-0.6 h -0.5 l -0.3,-0.1 -0.2,-0.8 0.1,-0.1 0.4,-0.5 0.4,-0.7 0.1,-0.7 0.8,1.1 1.2,3.4 0.6,0.7 1.3,1.1 0.6,0.7 0.2,0.1 h 1.6 l 1.1,-0.5 h 0.4 l 0.3,0.7 v 2 l 0.6,1.5 4.6,5 1.7,2.4 0.3,0.4 3.3,-0.5 0.5,-0.7 0.1,-0.6 -0.4,-0.5 -2,-0.4 -1.2,-1 -1,-0.4 0.5,-0.4 -0.5,-0.3 -0.5,-0.7 0.7,-0.3 0.2,-0.5 0.1,-0.5 0.2,-0.3 h 1.4 l 0.5,-0.2 0.4,-0.3 0.9,1.3 1.7,0.8 1.9,0.3 1.8,0.1 2.6,1.4 1.5,0.2 0.7,-1.6 h 0.5 l 0.7,0.7 0.8,-0.1 0.9,-0.5 0.6,-0.5 1.3,-1.4 0.2,-0.2 -0.2,-0.6 -1,-1.2 v -0.4 l 0.6,-0.9 v -0.8 l -0.2,-0.8 -0.2,-1.1 0.2,-0.7 0.6,-0.6 1.2,-0.9 h 0.5 l -1.4,3.4 -0.2,1.9 1.1,1.2 -0.3,0.8 -0.2,0.2 1.3,1.7 0.2,0.4 -0.3,0.8 -0.5,0.4 -0.5,0.3 -0.2,0.4 0.1,0.9 h 0.6 l 0.9,-0.1 0.9,0.3 -0.4,0.2 -0.2,0.2 -0.2,0.3 6.3,0.8 1,0.2 1,1 2.1,0.3 2.4,-0.1 1.6,-0.4 -0.5,-0.3 -0.6,-0.2 h -0.6 l -0.3,-0.8 0.9,-0.3 0.9,0.1 0.7,0.4 12.6,-1.4 h 3.2 l 1.4,-0.2 2.5,-1.3 h 1.4 l 3,0.4 h 6.3 l 4.2,0.5 h 3.2 l 0.7,-0.1 0.7,-0.4 1,-2.2 0.7,-1.2 1.4,-0.8 1.2,-1.1 -0.2,-1.7 -0.7,-0.5 -0.8,-0.3 -0.8,-0.4 -0.2,-1.1 0.1,-0.6 0.6,-1.7 0.2,-0.4 -0.9,-1.2 -1.1,-3.2 -0.7,-0.6 -0.8,-0.4 -0.8,-1 -0.7,-1.2 -0.5,-1 1.2,-0.8 -0.3,-1.7 -1.9,-3.5 -1,-1.3 -4,-3.8 v -0.4 h 0.4 l 0.4,0.5 0.7,0.9 0.9,0.7 0.8,0.4 0.9,0.3 0.6,0.6 0.8,1.6 0.4,1.2 0.1,0.1 1.7,1 2,1.4 0.6,0.9 -0.3,1 1.5,0.8 0.5,0.1 -0.3,0.7 -0.2,0.3 1.9,1.7 2.1,0.1 1.6,-1.2 0.5,-2.5 h 0.5 l -0.4,2.5 -0.7,2.6 0.1,2.1 2.2,0.8 1,-0.2 1.4,-0.7 0.6,-0.2 0.4,0.3 -0.2,0.8 -0.3,0.7 -0.4,0.5 -0.3,0.7 0.5,0.2 h 0.7 l 0.4,-0.1 1.1,0.3 0.9,0.2 0.9,-0.4 0.6,-1.1 0.1,-0.7 -0.5,-1.1 -0.1,-0.7 0.2,-0.7 0.7,-1.4 0.1,-0.7 0.3,-0.6 0.7,-0.7 1.3,-0.9 0.7,0.1 0.5,0.4 0.1,0.3 -0.3,0.2 -0.8,0.6 -0.2,1.5 0.3,2.9 -0.5,-0.6 -0.4,0.9 0.1,0.9 0.3,0.9 v 0.9 l -0.4,0.6 -2.2,1.4 -1.2,1.5 -0.6,1 -0.2,1 0.4,1.2 0.7,0.6 h 0.9 l 1,-0.8 -1.5,2.6 -0.4,1 -1.2,-0.2 -0.3,1.3 0.4,1.8 1.1,1.1 0.8,0.2 0.8,0.1 0.6,-0.3 0.5,-1.6 0.6,-0.4 h 0.8 l 0.9,0.4 -0.8,0.7 -0.9,1 -0.4,1 0.8,0.3 9.2,-0.6 1.5,-0.9 -0.4,-1.9 -0.8,-0.6 -0.8,-0.5 -0.7,-0.5 -1.8,-6.8 -1.1,-2.3 -0.5,-2.1 1.2,-1.8 0.4,2.9 3.3,4.7 0.8,2.7 0.5,1.2 1.3,0.7 1.2,0.5 0.5,0.6 0.3,0.3 1.5,0.8 0.5,0.2 0.3,-0.2 1,-1.8 -0.7,-0.3 -0.3,-0.6 -0.1,-0.7 v -1 l 3.6,2.8 0.2,1.2 0.6,0.5 0.7,-0.3 0.4,-1.2 -0.5,-1.6 -2.3,-3.5 0.3,-0.9 0.6,0.2 0.6,0.7 0.6,0.8 0.6,1.2 1.6,0.6 0.6,0.5 0.2,1.1 -0.2,0.9 -0.3,0.9 -0.2,0.9 0.4,1.1 1,-0.5 1.6,-1.9 -0.7,1.8 -1.9,3.2 -0.4,1.9 1.7,10.4 1.3,2.8 1.8,2.5 2.2,2.1 -0.2,2.1 -1.4,4.4 0.2,2.1 0.9,0.6 6.3,3 3.9,2.4 1.2,0.2 0.7,-0.3 1.3,-0.1 h 1.3 l 0.9,0.2 1,0.7 0.2,0.9 -0.1,1 c -0.0657,3.24195 3.97368,0.61221 5.4,-0.7 l 0.4,-1.3 0.8,-1.2 1.8,-0.4 v 0.5 l -1.3,1.7 c -1.27739,7.28754 13.50046,13.00206 10.9,1.3 l -0.5,-0.6 -2,-1.2 0.1,-0.8 0.4,-0.5 0.6,-0.3 0.9,-0.1 0.1,0.7 0.2,0.3 0.3,0.2 0.4,0.3 1,1.5 1,0.8 c 1.60316,0.63647 1.94082,0.77532 3.1,-0.7 l -0.7,-1.2 -1.2,-1 -0.8,-0.9 -0.8,-1.7 -0.1,-0.3 -0.7,-0.5 -0.7,-0.2 -0.5,-0.2 -0.6,-0.6 2.1,-2.3 0.9,-0.4 1,1.2 -0.4,1.7 0.7,1.7 1.3,1.3 1.5,0.8 1,-1 -0.1,1.6 1.5,0.3 2,-0.6 1.6,-0.8 1.3,-1.4 2.4,-3.7 1.3,-1 v 1.6 h 0.5 l 0.6,-0.9 0.6,-0.7 1.4,-1 1.2,-0.5 0.1,0.4 -0.3,0.8 -0.3,0.3 -2.2,1.1 -3.1,4.9 -1.2,1.1 -1.4,0.7 -1.2,1.7" sodipodi:nodetypes="cccccccccccccccccccccccccccccccccccccccccccccccccccccccccccccccccccccccccccccccccccccccccccccccccccccccccccccccccccccccccccccccccccccccccccccccccccccccccccccccccccccccccccccccccccccccccccccccccccccccccccccccccccccccccccccccccccccccccccccccccccccccccccccccccccccccccccccccccccccccccccccccccccccccccccccccccccccccccccccccccccccccccccccccccccccccccccccccccccccccccccccccccccccccccccccccccccccccccccccccccccccccccccccccccccccccccccccccccccccccccccccccccccccccccccccccccccccccccccccccccccccccccccccccccccccccccccccccccccccccccccccccccccccccccccccccccccccccccccccccccccccccccccccccccccccccccccccccccccccccccccccccccccccccccccccccccccccccccccccccccccccccccccccccccccccccccccccccccccccccccccccccccccccccccccccccccccccccccccccccccccccccccccccccccccccccccccccccccccccccccccccccccccccccccccccccccccccccccccccccccccccccccccccccccccccccccccccccccccccccccccccccccccccccccccccccccccccc"/>
  <path class="coastline" id="10m_coastline.41" d="m -8.5,566.9 25.1,-2.8 5.9,-1.3 29.1,-2.8 16.5,-1.5 11.3,0.6 9.7,-1.1 8.2,0.4 4.3,-0.5 0.4,-1.6 -0.4,-0.4 -0.1,-0.4 -0.2,-0.4 -0.4,-0.4 -0.4,-0.6 0.3,-0.5 0.6,-0.4 0.2,-0.5 0.3,-0.9 1,-1.6 0.3,-0.8 v -0.6 l -0.5,-1.1 -0.1,-0.5 0.3,-0.6 0.7,-0.2 h 0.7 l 0.6,-0.3 1.6,-1.7 0.9,-0.8 1.3,-0.7 -0.1,1 -0.5,1.6 0.1,0.9 0.3,0.9 0.2,0.3 0.5,0.3 h 0.9 l 0.9,0.3 0.2,0.2 1,-0.1 0.8,-0.1 0.9,-0.3 2.5,-1.4 0.8,-0.1 h 1.3 l 3.6,-1.2 3.9,-2.2 4.2,-1.6 4.1,1 0.6,-0.2 0.4,0.1 0.5,0.2 0.5,0.4 -6.1,0.9 -0.9,0.3 -0.4,1.6 -1,1.2 -1.5,0.8 -1.6,0.7 -1,-0.3 -3.3,1 -1.5,0.3 h -3 l -0.7,0.3 -0.1,0.6 0.2,0.9 -0.1,0.7 -1.1,1.2 -1.1,0.6 -1.2,0.2 -1.4,0.1 -1,0.3 h -0.6 l -0.2,-0.6 -0.4,-0.1 -2.6,2.4 -0.3,-1.1 -0.2,-1.1 -0.4,-0.4 -1.1,1.1 -0.5,-0.4 -0.4,-0.1 -0.5,0.1 -0.7,0.4 1.1,0.7 0.7,0.8 0.9,0.7 1.6,0.3 31.3,-1.6 18.8,1.6 20.5,3.7 7.6,3.4 2.8,1.8 4.5,4.2 2.5,1.5" sodipodi:nodetypes="cccccccccccccccccccccccccccccccccccccccccccccccccccccccccccccccccccccccccccccccccccccccccccccccc"/>
  <path class="coastline" id="10m_coastline.1267" d="m 387,697.7 -1.1,-0.4 -1.1,-1.9 -1,-0.7 -0.3,1.3 -0.3,0.7 -1.4,1.6 -1.7,2.5 -2.3,2.5 -0.7,1.4 0.7,0.9 2.5,0.2 6.5,-1.3 1,-0.5 1,-0.6 0.7,-0.7 0.3,-1.1 v -1.2 l 0.2,-1 0.4,-0.9 0.9,-0.8 -0.9,-0.3 -3.4,0.3"/>
  <path class="coastline" id="10m_coastline.1270" d="m 406.6,698.3 -1.2,0.1 -2.7,0.7 -1.3,0.2 -1.3,-0.4 -2.6,-1.3 -0.9,-0.3 -3.5,1.1 -0.8,0.4 -0.7,1.3 0.5,0.9 1.1,0.6 5.4,0.3 1.3,-0.1 3.6,-1.3 1.2,-0.2 2.8,0.1 1.2,-0.3 0.7,-0.8 0.4,-1 -0.7,-0.3 -2.5,0.3"/>
</g>
<g inkscape:groupmode="layer" inkscape:label="country" id="layercountry" transform="translate(-0.93673003,-333.98297)">
  <path class="country" id="10m_admin_1_states_provinces_shp.3099" d="m 426.2,607 2.4,1.8 2.7,1 1.3,3.4 -0.7,4.1 1.7,7.7 3.6,6.7 -1,2.6 -3.4,-0.6 -3.9,-3 -4.1,-2.3 -2.5,-3.8 -3.6,-2.6 -2.8,-0.4 -2,1.4 0.5,5 -1.8,4 -0.1,1 1.8,0.5 0.8,1.4 -0.5,1.4 -2.1,1.4 -3.7,-0.5 -3.3,0.9 -0.2,1.5 0.8,1.3 0.1,1.4 -1,4.6 -0.3,3.2 0.5,3.4 -0.5,3.3 -2.4,2.4 -1.6,2.6 1,3.6 -0.5,1.3 -0.2,1.2 1.6,2.9 0.5,3.1 -4.9,-3.3 -3.9,-0.1 -2.8,-1.1 h -2.8 l -6,1.3 -3,-1 -1,-5.7 7.6,-11.6 0.3,-3.5 -1.4,-2.7 5.3,-15.5 2.8,-3.1 0.9,-1.8 0.7,-2 1,-1.5 0.5,-1.7 v -2 l -0.3,-2 v -2 l -0.5,-1.9 -0.8,-1.4 0.6,-1.1 0.7,-3.3 -0.9,-8.2 -2.8,-2.5 -2.1,-0.5 -3.7,-1.9 -1.5,-1.3 3.4,-4.3 4.9,-2.6 0.5,0.3 0.2,0.3 3.4,-0.6 3.6,-0.1 4.8,3.6 0.1,4.3 -0.7,4.7 4.4,2.1 10.7,0.2 3.9,1.8 0.6,2.5 z"/>
  <path class="country" id="10m_admin_1_states_provinces_shp.3100" d="m 458.6,674.2 2.8,2.1 0.9,0.1 0.4,0.4 1.1,3.2 0.9,1.2 -0.2,0.4 -0.6,1.7 -0.2,0.7 0.4,1 0.7,0.4 0.8,0.3 0.7,0.5 0.2,1.7 -1.2,1.1 -1.4,0.8 -0.7,1.2 -1,2.2 -0.7,0.4 -0.7,0.1 h -3.2 l -4.2,-0.5 h -6.3 l -3,-0.4 h -1.4 l -2.5,1.3 -1.4,0.2 h -3.2 l -12.6,1.5 -0.7,-0.5 -0.9,-0.1 -0.9,0.3 -0.5,0.8 h 0.8 l 1.2,0.2 0.5,0.3 -1.6,0.4 -2.4,0.1 -2.1,-0.3 -1,-1 -1,-0.2 -6.5,-0.5 0.2,-0.3 0.2,-0.2 0.2,-0.3 0.4,-0.2 -0.9,-0.3 -0.9,0.1 h -0.6 l -0.1,-0.9 0.2,-0.4 0.5,-0.3 0.5,-0.4 0.3,-0.8 -0.2,-0.4 -1.3,-1.7 0.2,-0.2 0.3,-0.8 -1.1,-1.2 0.2,-1.9 1.4,-3.4 h -0.5 l -0.8,0.6 0.1,-1.8 -0.7,-2.7 -1.3,-2.1 -0.9,-1.8 -0.5,-3.1 -1.6,-2.9 0.2,-1.2 0.5,-1.3 -1,-3.6 1.6,-2.6 2.4,-2.4 0.5,-3.3 -0.5,-3.4 0.3,-3.2 1,-4.6 -0.1,-1.4 -0.8,-1.3 0.2,-1.5 3.3,-0.9 3.7,0.5 2.1,-1.4 0.5,-1.4 -0.8,-1.4 -1.8,-0.5 0.1,-1 1.8,-4 -0.5,-5 2,-1.4 2.8,0.4 3.6,2.6 2.5,3.8 4.1,2.3 3.9,3 -2.1,2.3 1.2,3.1 0.8,1.4 1.5,1.1 4.3,-0.7 1.9,0.5 3.3,2 1.2,1.4 -0.5,9 1,4 1.9,3.7 2.7,3.7 z"/>
  <path class="country" id="10m_admin_1_states_provinces_shp.3101" d="m 393.5,627.6 -2.8,3.1 -5.3,15.5 -2.2,0.6 -2.3,0.3 -3.9,-1.1 -9.3,0.9 -10.3,-0.7 -7.7,-5.1 -0.6,-0.9 -1.7,-1.3 -0.7,-0.8 -0.1,-2.6 1.1,-2.3 0.6,-5.3 -3.1,-3.1 -2.6,0.6 -2.6,-0.2 -0.5,-1.6 2.3,-11.5 0.8,-2.6 4.9,-3.9 5.7,-1.6 3.2,1.4 2.9,-0.9 2.9,-5.8 0.9,-3.1 2.8,-1.7 3.3,-0.8 3.4,-0.4 6.6,1.4 3,-1 3.1,-0.6 1.5,1.3 3.7,1.9 2.1,0.5 2.8,2.5 0.9,8.2 -0.7,3.3 -0.6,1.1 0.8,1.4 0.5,1.9 v 2 l 0.3,2 v 2 l -0.5,1.7 -1,1.5 -0.7,2 z"/>
  <path class="country" id="10m_admin_1_states_provinces_shp.3102" d="m 405.5,677.8 0.7,2.7 -0.1,1.8 -0.4,0.3 -0.6,0.6 -0.2,0.8 0.2,1 0.2,0.8 v 0.8 l -0.6,0.9 v 0.4 l 1,1.2 0.2,0.6 -0.2,0.2 -1.3,1.4 -0.6,0.5 -0.9,0.5 -0.8,0.1 -0.7,-0.7 h -0.5 l -0.7,1.6 -1.5,-0.2 -2.6,-1.4 -1.8,-0.1 -1.9,-0.3 -1.7,-0.8 -0.9,-1.3 -0.4,0.3 -0.5,0.2 h -1.4 l -0.2,0.3 -0.1,0.5 -0.2,0.5 -0.7,0.3 v 0.4 l 0.5,0.3 v 0.7 l 1,0.4 1.2,1 2,0.4 0.4,0.5 -0.1,0.7 -0.5,0.6 -3.3,0.5 -0.3,-0.4 -1.7,-2.4 -4.6,-5 -0.6,-1.5 v -2 l -0.3,-0.7 h -0.4 l -1.1,0.5 h -1.6 l -0.2,-0.1 -0.6,-0.7 -1.3,-1.1 -0.6,-0.7 -1.2,-3.4 -0.8,-1.1 -0.1,0.7 -0.4,0.7 -0.4,0.5 -0.2,0.1 0.3,0.8 0.3,0.1 0.5,0.1 0.5,0.5 0.7,2.5 0.7,1.1 1.3,0.4 2.3,1.2 1.7,2.5 0.2,2.4 -1.9,0.9 1,0.7 1.1,1.1 0.7,1.3 -0.5,1.2 -2,2.3 -1.3,0.6 -1.5,-0.6 v 1.1 l -1.4,-0.3 -1,-0.8 -0.4,-1.1 0.3,-1.4 -1,0.9 -0.2,1.2 0.4,1.3 0.8,1.1 -2,0.5 h -0.6 l -0.8,-1.7 -0.5,-1.8 -0.2,-3.8 -1.2,-2 -0.3,-1.2 0.8,-0.6 0.3,-0.6 0.4,-1.3 0.2,-1.5 -0.2,-1.1 0.4,0.2 0.7,0.1 0.4,0.2 -0.4,-0.8 -1.5,-1.7 -0.3,-0.8 -0.4,-1.6 -0.3,-0.6 -1.4,1.9 -0.5,-0.1 -0.2,-1.2 -0.9,-1.6 -0.4,1.1 0.2,1.8 -0.3,0.6 0.8,1.2 1.6,4.3 h -0.7 l -0.9,-0.3 -0.3,-0.7 -0.3,0.2 -0.7,0.3 -0.7,-1.4 -0.7,-1.2 -2.2,-2.4 0.2,1.2 0.3,1 1.1,1.8 0.6,0.7 0.3,0.5 0.1,0.6 -0.3,0.6 -0.5,0.4 -0.3,0.4 0.6,0.8 0.7,-1.1 1.4,-0.3 1.3,0.3 0.6,0.9 -0.7,5.1 0.1,1.7 2.6,5.2 1,1.1 -0.2,0.7 -0.4,0.7 -0.7,0.4 -1,-0.2 -0.7,-0.3 -1.4,-0.3 0.1,0.3 0.3,0.5 -1.6,-0.5 -1.7,-0.8 -1.6,-0.4 -1.7,0.7 -0.8,-0.9 -0.6,-1.2 -0.1,-1.3 0.5,-1.2 -1.2,-0.7 -1.2,-1.9 -0.8,-2.3 -0.3,-1.9 0.2,-1.3 0.3,-0.7 0.5,-0.5 0.6,-0.8 0.3,-0.7 0.3,-1.2 -0.2,-1.1 -1.2,-0.5 -1.9,-1 -1.3,-2.5 -1.1,-4.5 -0.3,-1.8 0.3,-1 0.8,-1 0.5,-0.9 -0.2,-0.6 -0.7,-0.1 -0.9,0.9 -0.7,-0.9 -0.2,-0.5 -0.1,-0.7 -0.7,0.3 -0.6,0.1 -0.6,-0.1 -0.6,-0.3 0.3,1.3 0.1,1.3 0.4,1 0.9,0.5 0.7,0.5 0.5,1.3 0.6,2.7 0.3,2.7 0.3,1.3 0.7,0.5 0.9,0.5 0.9,1.2 1.4,2.3 -1.6,1.4 -0.4,0.6 -0.1,1.1 1.4,7.2 0.8,2.2 1,1.1 -0.2,1.7 1.5,1.3 0.9,1.1 -1.8,1 -2.3,0.4 -2.9,0.2 -2.7,-0.3 -1.6,-0.9 -0.3,-1 0.3,-4.4 0.4,-0.5 0.1,-0.3 -0.2,-0.4 -0.7,-0.6 -0.1,-0.3 v -2.5 l 0.2,-1.2 1.7,-4.4 0.1,-0.8 v -2.2 l -1,1.2 -0.8,-1.1 -2.4,-1.1 -2.1,-1.6 -1.2,-2.4 -0.5,-2.6 -4.6,-2.9 -6.1,2.3 -2.2,0.2 -0.8,-2.3 0.4,-1.3 -0.7,-0.9 -1.1,-0.1 -1,-0.5 -1.7,-2.2 0.1,-3 0.8,-2.5 1.5,-2.2 0.2,-1.1 0.7,-1.6 1.3,-1.4 -0.6,-0.7 -0.4,-0.7 -0.3,-0.8 -0.2,-0.8 v -1.5 l 0.3,-1.9 0.5,-1.5 0.5,-0.7 1.3,-0.6 0.6,-1.6 0.4,-3.3 1,-2.4 1.6,-1.5 1.8,-1.3 2.4,-3.1 0.5,-0.7 0.2,-0.8 0.3,-0.5 1.4,-0.3 0.3,-0.2 0.1,-0.2 0.7,-0.7 0.2,-0.4 v -0.5 l -0.1,-0.3 -0.3,-0.3 -2.1,-2.6 -6.8,-0.6 -1.2,-3.2 -0.1,-0.1 0.4,-0.3 0.7,-0.8 0.4,-0.4 1.4,-0.5 0.4,-0.2 1.4,-1.6 0.6,-0.8 0.3,-0.9 0.4,-2.1 0.2,-1.5 1.5,-3.3 1.9,-8.5 2.2,1.9 2.4,0.2 -0.8,2.6 -2.3,11.5 0.5,1.6 2.6,0.2 2.6,-0.6 3.1,3.1 -0.6,5.3 -1.1,2.3 0.1,2.6 0.7,0.8 1.7,1.3 0.6,0.9 7.7,5.1 10.3,0.7 9.3,-0.9 3.9,1.1 2.3,-0.3 2.2,-0.6 1.4,2.7 -0.3,3.5 -7.6,11.6 1,5.7 3,1 6,-1.3 h 2.8 l 2.8,1.1 3.9,0.1 4.9,3.3 0.9,1.8 z"/>
  <path class="country" id="path25" d="m 387,697.8 3.4,-0.4 0.9,0.4 -0.9,0.8 -0.4,0.8 -0.2,1 v 1.2 l -0.3,1.1 -0.7,0.7 -1,0.6 -1,0.5 -6.5,1.3 -2.5,-0.2 -0.7,-0.9 0.7,-1.4 2.3,-2.5 1.7,-2.5 1.4,-1.6 0.3,-0.7 0.3,-1.2 1,0.6 1.1,1.9 z"/>
  <path class="country" id="path27" d="m 406.6,698.3 2.5,-0.3 0.7,0.3 -0.4,1 -0.7,0.8 -1.2,0.3 -2.8,-0.1 -1.2,0.2 -3.6,1.3 -1.3,0.1 -5.4,-0.3 -1.1,-0.6 -0.5,-0.9 0.7,-1.3 0.8,-0.4 3.5,-1.1 0.9,0.3 2.6,1.4 1.3,0.3 1.3,-0.2 2.7,-0.6 z"/>
  <path class="country" id="10m_admin_1_states_provinces_shp.3103" d="m 343.4,688.2 2.4,1.1 0.8,1.1 -0.4,0.6 -1.2,3 -0.5,3.4 0.6,2.4 -0.4,0.6 v 1.5 l -0.2,0.9 -0.6,-1.6 -0.3,-1 -0.2,-4.6 -0.4,-0.8 -0.2,0.4 -0.4,0.5 -0.4,0.3 -0.5,0.3 0.4,1 0.1,3.5 0.3,1.2 0.9,1.5 0.6,1.5 0.7,2.5 v 0.9 l -0.5,0.8 -0.7,0.2 H 341 l -2.1,0.2 -0.4,-0.5 -0.8,-2.3 -0.2,-2.3 0.1,-3.3 -0.3,-2.7 -1.1,-1.9 -2.3,0.2 2.1,1.6 0.7,2.6 -0.3,3 -0.9,2.8 -0.2,2.5 -3.6,0.8 -4.3,-0.4 -2,-1.3 -1,0.1 -0.9,0.3 0.5,1.4 -1.2,0.5 -1.8,0.1 -1.4,0.3 -1.4,0.6 -3.4,0.1 -1.4,0.6 -1.7,-2.1 1.4,-3.1 4.8,-5.4 -0.9,-0.1 -0.6,-0.1 h -0.5 l -0.6,0.2 -2.5,3 -0.3,-3.9 -1.2,-3.6 h -0.4 l -0.1,1.5 0.1,1.8 0.4,1.8 0.5,1.4 -0.7,-0.7 -0.6,-0.8 -0.8,-0.7 -1.4,-0.3 0.8,1.7 0.8,1.2 0.5,1.2 -0.1,1.9 -0.4,1.5 -0.6,1 -0.4,0.4 -0.6,0.2 -0.5,0.4 v 1 l 0.6,-0.2 h 0.5 l 1,0.2 -0.4,0.7 -2.1,0.7 -2.7,0.2 -1.9,-0.5 -0.2,0.3 -0.5,0.4 -0.3,0.3 -1.2,-0.5 -0.6,-0.7 -0.3,-1 0.1,-1.4 0.3,-1.2 1,-1.7 0.2,-1 -0.4,0.1 -1.1,0.3 v -1.1 l 0.3,-2 -0.9,-0.1 -0.7,-0.2 -0.9,-0.4 -0.9,0.3 -0.2,0.8 0.1,1 0.3,1.1 0.4,0.6 -0.4,1 0.4,0.8 0.7,0.9 0.3,1.1 -0.2,1.6 -0.6,-0.1 -0.9,-0.8 -1.1,-0.4 -1.6,-0.1 -0.6,-0.4 -0.1,-2.6 0.4,-0.1 0.2,-0.2 -1,-1.4 -0.1,-0.3 -0.1,-1.2 0.1,-1.3 h -0.4 l -0.6,2.5 -0.4,-0.3 -1.1,-0.7 1.1,2.5 0.2,1.2 -0.8,0.9 -1.1,-0.1 -1.1,-0.8 -1,-0.8 -0.6,-0.4 -1.4,-0.5 -1.7,-1.4 -0.9,-1.8 0.8,-1.8 -0.8,-0.1 -0.6,0.3 -0.2,0.5 0.1,0.8 h -0.5 l -1.2,-1.2 -2.9,-1.7 -0.9,-1.1 0.5,0.3 1,0.4 0.5,0.3 -0.6,-0.9 -0.9,-0.4 -1,-0.3 -1,-0.4 -1.6,-1.7 -0.6,-0.8 -1.9,-2 -0.5,-0.3 -6.8,-6.4 -2,-2.8 -0.7,-3.1 0.3,0.1 0.2,0.1 0.5,0.3 v -1.4 l -3.2,-2 -0.9,-1.4 -0.3,-1.2 -1.9,-3.1 -0.8,-0.9 2.5,1.5 -0.6,-1.8 -2.3,-2.6 -2.1,-5.7 -0.6,-3.4 -0.4,-1.2 -1,-1.9 -0.3,-1.1 -0.2,-1.2 -0.2,-0.6 -0.6,-0.5 -0.5,-0.8 -0.2,-1.2 0.3,-0.8 0.9,-0.4 1.2,0.1 1.1,0.4 0.8,0.6 1.3,1.9 0.9,0.5 -1.1,-2.9 2,1.7 2.8,1.8 3.4,1.2 3.7,2 1.4,1.1 1.8,0.2 1.3,-0.1 h 1.1 l 2.7,-1.4 2.5,-1.8 1.4,-0.4 1.3,-0.6 1.4,-0.5 1.4,0.3 2.2,-0.4 2,-1.1 2.4,-3.4 1,-0.4 2.5,2.2 1.5,0.9 1.6,0.6 1.9,0.3 1.2,-0.7 2.1,-2.9 0.7,-0.2 0.8,0.1 1,0.3 0.8,0.1 1,-0.2 0.5,-0.4 0.4,-0.5 0.6,-0.4 1.8,-0.6 0.9,-0.4 0.3,-0.8 -0.1,-0.6 -0.7,-1.1 -0.2,-0.8 0.6,-1.8 1.4,-0.5 3.1,0.1 1.3,-0.4 0.2,-0.4 v -1 l 0.1,-0.9 0.4,-0.8 0.6,-0.6 0.6,-0.7 1.4,-1 1.2,-0.4 9.5,-1.4 1.2,-0.7 -0.2,-1.6 6.8,0.6 2.1,2.6 0.3,0.3 0.1,0.3 v 0.5 l -0.2,0.4 -0.7,0.7 -0.1,0.2 -0.3,0.2 -1.4,0.3 -0.3,0.5 -0.2,0.8 -0.5,0.7 -2.4,3.1 -1.8,1.3 -1.6,1.5 -1,2.4 -0.4,3.3 -0.6,1.6 -1.3,0.6 -0.5,0.7 -0.5,1.5 -0.3,1.9 v 1.5 l 0.2,0.8 0.3,0.8 0.4,0.7 0.6,0.7 -1.3,1.4 -0.7,1.6 -0.2,1.1 -1.5,2.2 -0.8,2.5 -0.1,3 1.7,2.2 1,0.5 1.1,0.1 0.7,0.9 -0.4,1.3 0.8,2.3 2.2,-0.2 6.1,-2.3 4.6,2.9 0.5,2.6 1.2,2.4 z"/>
  <path class="country" id="10m_admin_1_states_provinces_shp.3104" d="m 562.7,541.7 -1.7,7 v 0.1 h -0.9 l -2.2,0.5 -1.1,0.9 -1.7,3.2 -1.2,1.1 -1.5,0.8 -2.9,1.1 -1.4,-2.4 -2.1,-3.8 -8.8,-10.3 -6.4,-3.2 -11.6,2.1 -4.2,0.1 -2,-0.4 -1.4,-1.2 0.7,-4.4 -1.8,-3.8 -8.8,-5.2 -5.3,-1.8 -5,-0.5 -4.8,1.8 -0.9,2.4 0.7,2.8 -1.3,2 -2.4,1.4 -3.2,0.8 h -3.2 l -2.9,-0.4 -2.9,-0.1 -2.2,1.6 -2,2.2 -2.2,1.2 -2.4,0.2 -1.7,-1.9 -0.9,-2.4 -0.6,-2.9 -0.8,-1.2 -1.4,-0.1 -0.3,0.8 -0.8,1.2 -1.7,-0.1 -1.7,0.4 -2.8,3.6 -2.8,0.7 h -2.9 l -3.1,0.4 -1.1,2.4 -0.8,6.2 -3.2,4.4 -5,-3.1 -2.4,-5.1 2.5,-6.8 v -3.6 l -0.8,-3.5 -1.9,-2.9 -3,-1.5 -2.6,0.7 -2.2,1.6 -3,0.4 -2.8,-1.4 -2.7,-2 -2.5,-2.3 -2,-2.5 -2.8,-5.8 -0.7,-3 2.8,1.4 3.1,2.6 2.4,1 1.9,-0.6 0.2,-3.3 1.2,-2.9 9.8,-5.3 3,-5 1.3,-5.9 0.2,-2.3 0.9,-2.2 1.4,-2.5 -1.8,-1.3 -2.8,0.3 -2.4,-1.2 -0.8,-2.9 -1.2,-8.8 0.2,-8.4 -0.3,-2.7 -1.5,-2.6 -2.1,-2.2 -2.2,-3.2 -0.9,-3.7 -0.2,-3.9 0.4,-4.2 3.7,0.9 4.7,0.6 3.5,1.1 2.6,0.6 5.2,0.6 2.5,0.7 3.7,2.2 1.2,0.5 6.2,1 2,0.7 3.9,2.1 2.3,0.7 2.4,0.2 2.1,0.6 1.7,1.8 3.4,1.9 1.8,1.4 0.9,0.4 0.9,0.3 0.5,0.1 0.9,-1.2 -0.4,-2.6 -3.5,-7.5 -1.7,-5.3 1.2,-5.1 4.1,-3.5 9.7,-1.1 14.8,4.9 5.3,1.2 8.1,0.3 2.6,-0.3 v -0.4 l 14,10.4 -4,6 0.8,1.6 2.4,-0.5 4.9,-2.2 2.9,-0.6 11.3,-0.3 11.2,1.3 8.3,5.7 6.6,8.2 7.5,6.6 3.3,8.5 -2.9,8.8 -0.5,8.7 -3.3,2.9 -3.6,2.7 -3,3.7 -2.2,4.2 -2.5,12.8 0.3,4.7 z"/>
  <path class="country" id="10m_admin_1_states_provinces_shp.3105" d="m 546,550.2 2.1,3.8 1.4,2.4 -0.4,0.1 -2.2,1.4 -2.2,4.3 -2.1,1.2 -1.1,0.1 -0.9,-0.1 -0.9,0.1 -1,0.5 -1,1.2 -2.1,4.4 -1.9,2.6 -10.1,8.1 -6.7,7 -1.6,2.3 -0.9,1 -1.2,0.6 -0.4,0.5 -0.2,2.1 -0.2,0.9 -1.3,0.2 -1.6,-0.6 -1.6,-0.2 -1.2,1.2 -1,1.2 -2.6,1.8 -0.8,1.2 0.1,1.5 0.8,1.1 0.7,1.3 -0.4,1.8 -1.3,1.6 -1.2,1 -0.6,1 0.9,1.9 1.5,1.4 1.7,1.3 1.3,1.4 0.8,2 -0.3,1.8 -1.1,1.4 -1.4,1.3 -1.1,1.4 -0.5,1.6 0.1,1.5 0.3,1.4 v 1.5 l -0.5,1.7 -1.5,3.1 -0.5,1.7 0.1,1 0.6,1.8 0.1,0.8 -2,9.9 -0.5,1 -0.8,0.3 -0.9,0.2 -0.8,0.4 -0.7,0.7 -1.4,2.2 -0.5,1 -1.1,3.2 -0.7,1.4 -1.1,1.6 -2.8,4.5 -0.5,1.4 -2,1.4 -0.6,1.2 0.2,1.5 0.2,1 0.3,1.1 -1.3,1.2 -0.1,-0.3 -0.5,-0.4 -0.7,-0.1 -0.6,0.2 -0.7,0.7 -1,1.3 -0.1,0.7 -0.7,1.4 -0.2,0.7 0.1,0.7 0.5,1.1 -0.1,0.7 -0.6,1.1 -0.9,0.4 -0.9,-0.2 -1.1,-0.3 -0.4,0.1 h -0.7 l -0.5,-0.2 0.3,-0.7 0.4,-0.5 0.3,-0.7 0.2,-0.8 -0.4,-0.3 -0.6,0.2 -1.4,0.7 -1,0.2 -2.2,-0.8 -0.1,-2.1 0.7,-2.6 0.4,-2.5 h -0.5 l -0.5,2.5 -1.6,1.3 -2.1,-0.2 -1.9,-1.7 0.2,-0.3 0.3,-0.7 -0.5,-0.1 -1.5,-0.8 0.3,-1 -0.6,-0.9 -2,-1.4 -1.7,-1 -0.1,-0.1 -0.4,-1.2 -0.8,-1.6 -0.6,-0.6 -0.9,-0.3 -0.8,-0.4 -0.9,-0.7 -0.7,-0.9 -0.4,-0.5 h -0.4 v 0.4 l 4,3.8 1,1.3 1.9,3.5 0.3,1.7 -1.2,0.8 0.5,1 0.7,1.2 0.8,1 0.8,0.4 0.3,0.2 -0.9,-0.1 -2.8,-2.1 -8.6,-9 -2.7,-3.7 -1.9,-3.7 -1,-4 0.5,-9 -1.2,-1.4 -3.3,-2 -1.9,-0.5 -4.3,0.7 -1.5,-1.1 -0.8,-1.4 -1.2,-3.1 2.1,-2.3 3.4,0.6 1,-2.6 -3.6,-6.7 -1.7,-7.7 0.7,-4.1 -1.3,-3.4 0.3,-1.8 0.7,-1.8 1.2,-1.3 0.9,-1.5 -0.2,-1.7 0.1,-1.7 1,-1 2.6,-4 0.9,-3.2 -1.2,-2.3 0.8,-1.9 3,-0.9 2.7,0.8 1.5,3.3 1.9,-0.1 1.3,-1.3 3.4,-1.6 1.2,-1.4 0.9,-1.6 h 2 l 2.1,1 1.2,-2 1.4,-5.5 1.4,-2.2 1.6,-2.1 4.2,-4.2 0.6,-5 -1.4,-2.2 0.6,-2.4 4.5,-2.6 -0.2,-2.3 -1.6,-1.9 -0.7,-2 -0.4,-2.3 -1.2,-1.4 -0.3,-0.9 -0.5,-0.7 -1.1,-0.6 -0.9,-0.8 -2.8,-3.2 -1.1,-4 2.4,-0.2 2.2,-1.2 2,-2.2 2.2,-1.6 2.9,0.1 2.9,0.4 h 3.2 l 3.2,-0.8 2.4,-1.4 1.3,-2 -0.7,-2.8 0.9,-2.4 4.8,-1.8 5,0.5 5.3,1.8 8.8,5.2 1.8,3.8 -0.7,4.4 1.4,1.2 2,0.4 4.2,-0.1 11.6,-2.1 6.4,3.2 z"/>
  <path class="country" id="10m_admin_1_states_provinces_shp.3106" d="m 602.5,522.5 -1.5,-1.1 -0.8,-1.5 -1.1,-5.4 -0.6,-1.2 -1,-0.2 -1.7,1 -18,15.2 -1.7,0.7 -1.4,-0.4 -1.4,-0.7 -1.8,-0.2 -1.4,1.6 -5.6,17.8 -0.9,0.7 H 561 v -0.1 l 1.7,-7 0.9,-12.3 -0.3,-4.7 2.5,-12.8 2.2,-4.2 3,-3.7 3.6,-2.7 3.3,-2.9 0.5,-8.7 2.9,-8.8 -3.3,-8.5 -7.5,-6.6 -6.6,-8.2 -8.3,-5.7 -11.2,-1.3 -11.3,0.3 -2.9,0.6 -4.9,2.2 -2.4,0.5 -0.8,-1.6 4,-6 2.6,-2.2 10.6,-7 1.5,-1.3 -0.2,-2 -0.6,-1.3 0.1,-1.3 -0.2,-3.8 -3.9,-4.9 0.3,-2.2 0.8,-1.9 1.2,-1.7 1.8,-0.7 3.6,1.2 1.7,0.9 2.1,0.4 2.2,0.6 2.1,0.3 2.1,-0.1 3,-1.9 2,-3.2 3.9,0.3 5.6,-0.4 5.3,-1.5 4.7,-3.6 4.3,-4.3 4.8,-3.4 5.3,-2.9 2,-1.8 3.8,-4.6 1.7,-2.6 z" sodipodi:nodetypes="ccccccccccccccccccccccccccccccccccccccccccccccccccccccccccccccccccccc"/>
  <path class="country" id="10m_admin_1_states_provinces_shp.3107" d="m 58.8,397.9 -3.8,3.3 -0.6,0.4 -1.4,-18 v -0.8 l 0.4,-0.5 1.3,-0.6 0.4,-0.4 0.1,-0.6 -0.4,-1.1 -0.1,-0.7 0.3,-1.1 0.9,-2.1 v -1.1 l -0.3,-0.5 -0.3,-0.2 -0.3,-0.1 -0.2,-0.6 0.2,-0.2 0.8,-1.2 0.3,-0.5 0.4,-2 0.1,-4.6 -0.2,-2 5.7,0.5 1,-0.1 0.6,-0.6 0.7,-0.6 0.8,-0.5 0.7,-0.2 h 2.3 l 0.8,0.1 0.8,0.3 0.7,0.5 0.7,0.4 h 0.9 l 5,-1.3 1.8,-1.3 1.1,-2.3 2.5,-7.5 1.5,-2.8 0.4,-1.6 0.1,-4.7 -0.3,-1.3 -0.9,-2.3 -0.5,-2 0.3,-2 94.5,-1.8 2.5,4.1 5.4,-0.7 6.4,1 0.1,0.5 0.2,2.7 -0.1,1.5 0.1,-0.1 h 0.1 l 0.1,-0.1 v 1.4 l 0.2,1.2 0.7,1 1.1,0.8 1.1,0.5 3.7,0.6 2.1,0.7 0.9,1.5 v 2 l -0.3,2.2 0.1,2.2 1.3,1.4 2.1,0.7 2.2,-0.2 3,-0.9 3.3,-1.8 4.7,-1.5 h 1 l 1,0.2 1.8,0.8 0.1,0.4 1.3,0.6 2.5,1.7 3.8,1.8 1.1,0.8 1.2,1.7 1.3,1.3 0.3,0.7 0.1,0.8 -0.1,0.8 0.1,0.8 0.5,1 0.9,0.6 1.1,0.3 7,1.2 4.9,-0.3 1.1,0.2 0.9,0.5 0.7,0.6 1.4,1.3 0.9,0.7 0.9,0.4 0.9,0.2 2.3,0.2 1,0.2 1,0.3 1,0.6 0.4,0.3 1,1.3 1.6,1.3 0.6,0.7 0.6,0.8 0.7,1.2 0.2,0.4 1,0.8 1.2,0.4 4.2,0.1 0.6,0.1 1.6,0.6 0.6,0.1 0.9,1.5 1.1,1.4 0.8,1.4 0.5,0.5 0.8,0.3 3.9,-0.1 3.3,0.5 h 1.1 l 0.8,-0.1 2.4,-1.1 1.8,-0.4 8,-0.1 1.2,0.2 1,0.4 2.3,2.1 0.5,0.2 4.1,-0.8 -3.1,4 -3,10.2 -1.2,7.6 -0.7,2.1 -1.5,1.8 -2.4,0.5 -8.1,-1.8 -10.2,-0.5 -7.2,-1.7 -7.4,-2.8 -3.7,-3.6 -2.9,-1.1 -3.3,2.9 -8.4,10.5 -0.5,2.4 2.2,4.1 1.1,1.3 1.2,1.1 0.8,1.4 2.9,2.7 5,3 0.5,4.4 -7.9,0.3 -2.6,0.8 -1.6,1.8 -0.4,2.4 -0.9,1.7 -0.6,0.2 -0.7,-0.2 -3,0.5 -1.8,-0.4 -3,-0.2 -4.8,-3 -4.6,1.4 -1.5,-0.7 -0.4,-1.2 -0.8,-0.5 -1.1,-0.3 -4.2,0.6 -2.2,-1.5 -1.6,-2.5 -3,-0.1 -2.9,1.2 -4.1,0.4 -0.6,0.5 -0.1,-0.5 -2,0.5 -1.9,0.8 -4.1,0.9 -4.8,-0.5 -4.8,0.2 -1.2,-0.8 -1.2,-0.2 -0.9,-1.5 -2.1,-6.9 -2.7,-4.3 -1.9,-1.2 -1.7,-1.6 -2.7,-3.8 -2.5,-9.8 -2.6,-3.9 -6.5,-14.4 -1,-4.4 1,-4.5 1.6,-1.5 1.2,-1.9 1.8,-1.9 2.5,-1.4 2.5,-3.5 -1.3,-2.8 -3.6,2.1 -2,0.1 -5.4,-1.2 -8.7,-3.1 -3.2,-1.7 -2.8,-2.4 -1.7,-3.2 -2.1,-2.7 -3.4,-1.5 -3.5,0.4 -3.3,2.3 -1.8,3.6 -0.8,4.8 -1.4,1.5 -1.7,1.2 -15.1,7.6 -3.1,2.3 -3,1.5 -3.3,2.5 -8.6,3.8 -1,0.2 -0.8,-0.9 -0.8,-0.4 -0.6,-0.8 -1.2,-0.3 -1.2,0.2 -1.7,0.5 -1.5,0.9 -3.1,2.6 -1.4,0.9 -1.2,0.9 -0.5,0.8 -1.7,0.6 -4,3.3 -1.4,1.6 -1.7,1.2 -5.8,1.3 -1.5,-0.1 z" sodipodi:nodetypes="ccccccccccccccccccccccccccccccccccccccccccccccccccccccccccccccccccccccccccccccccccccccccccccccccccccccccccccccccccccccccccccccccccccccccccccccccccccccccccccccccccccccccccccccccccccccccccccccccccccccccccccccccccccccccccccccccccccccccccccccccccc"/>
  <path class="country" id="10m_admin_1_states_provinces_shp.3108" d="m 172.2,557.7 -0.3,2 v 0.2 L 156,557 l -18.7,-1.6 -31.4,1.6 -1.6,-0.3 -0.9,-0.7 -0.7,-0.8 -1.1,-0.7 0.7,-0.4 0.5,-0.1 0.4,0.1 0.5,0.4 1.1,-1.1 0.5,0.4 0.1,1.1 0.3,1.1 2.6,-2.4 0.4,0.1 0.2,0.6 h 0.6 l 1,-0.3 1.4,-0.1 1.2,-0.2 1.1,-0.6 1.1,-1.1 0.1,-0.8 -0.2,-0.9 0.1,-0.6 0.7,-0.3 h 3 l 1.5,-0.3 3.3,-1 1,0.3 1.6,-0.7 1.5,-0.8 1,-1.2 0.4,-1.6 0.9,-0.3 6.1,-0.9 -0.5,-0.4 -0.5,-0.2 -0.4,-0.1 -0.6,0.2 -4.1,-1 -4.2,1.6 -3.9,2.2 -3.6,1.2 h -1.3 l -0.8,0.1 -2.5,1.4 -0.9,0.3 -0.8,0.2 h -1 l -0.2,-0.2 -0.9,-0.3 h -0.9 l -0.5,-0.3 -0.2,-0.3 -0.3,-0.9 -0.1,-0.9 0.5,-1.6 0.1,-1 -1.3,0.7 -0.9,0.8 -1.6,1.7 -0.6,0.3 h -0.7 l -0.7,0.2 -0.3,0.6 0.1,0.5 0.5,1.1 v 0.6 l -0.3,0.8 -1,1.6 -0.3,0.9 -0.2,0.5 -0.6,0.4 -0.3,0.5 0.4,0.6 0.4,0.4 0.2,0.4 0.1,0.4 0.4,0.4 -0.4,1.6 -4.3,0.5 -8.2,-0.4 -9.7,1.1 -11.3,-0.6 -16.5,1.6 v -4.5 l 0.6,-3.3 h 0.5 l 2.4,0.2 2.5,-0.2 1.9,0.6 1.8,-0.1 2,-1.3 1.4,-1.6 v -1 l 0.8,-0.4 16,0.7 4.3,-0.6 1.1,-1.2 0.7,-3.6 1.1,-1.5 1.2,-1.2 1,-3.8 0.5,-1.1 2.3,-0.8 1.7,0.5 3.3,1.7 1.8,2.2 2.6,0.1 1.4,-0.3 0.9,-1.2 0.2,-1.1 0.7,-0.6 42.8,-0.3 4.4,1.2 -0.8,1.9 -1.8,1.4 -0.6,1.8 0.8,1.8 v 0.9 l 2.1,1.7 2.2,-1.1 2.3,-1.5 2.4,-0.5 2.1,0.7 0.7,1.6 -0.7,1.5 -4.2,2.4 0.1,1.8 1.7,1 2.1,0.6 1,0.9 1.3,0.8 1.7,-0.4 4.1,0.1 2.1,0.7 z"/>
  <path class="country" id="10m_admin_1_states_provinces_shp.3109" d="m 387.6,330.8 -4,2.8 -0.7,2.8 1.5,2.2 1,0.6 1.2,1.6 -0.1,1.1 -0.8,2.2 0.4,1.2 1.9,-0.6 1.7,0.4 -10.3,14.5 -0.4,0.2 -3.5,-2 -6.9,-6.6 -4.4,-1.3 -13.5,0.5 -1.8,0.8 -0.4,2.1 0.7,52.4 0.5,1.3 1.8,3.1 3.3,0.4 -1,2.9 -2.1,2 -1.5,0.5 -1.2,1.2 0.1,1.6 -0.3,1.2 -1,-0.6 -1,0.8 -0.8,1.8 -0.5,1.9 -1.2,1.3 -0.2,-0.5 -1.1,-0.9 -0.1,-0.4 -0.9,-0.5 -2.8,-2.9 -2.8,-4.6 -0.9,-0.9 -7.2,-5.5 -0.6,-0.3 -1.7,-3.4 -0.9,-3.5 -0.2,-2.2 -0.2,-0.6 -0.7,-0.7 -0.1,-0.6 -1.2,-2.3 -0.1,-0.6 -0.1,-1.3 -1.8,-3.1 -0.9,-0.9 -1.2,-0.6 -1.5,-0.3 -2.7,-1.8 -0.5,-0.5 -1.3,-0.1 -3.2,0.6 -4.1,0.8 -0.5,-0.2 -2.3,-2.1 -1,-0.4 -1.2,-0.2 -8,0.1 -1.8,0.4 -2.4,1.1 -0.8,0.1 h -1.1 l -3.3,-0.5 -3.9,0.1 -0.8,-0.3 -0.5,-0.5 -0.8,-1.4 -1.1,-1.4 -0.9,-1.5 -0.6,-0.1 -1.6,-0.6 -0.6,-0.1 -4.2,-0.1 -1.2,-0.4 -1,-0.8 -0.2,-0.4 -0.7,-1.2 -0.6,-0.8 -0.6,-0.7 -1.6,-1.3 -1,-1.3 -0.4,-0.3 -1,-0.6 -1,-0.3 -1,-0.2 -2.3,-0.2 -0.9,-0.2 -0.9,-0.4 -0.9,-0.7 -1.4,-1.3 -0.7,-0.6 -0.9,-0.5 -1.1,-0.2 -4.9,0.3 -7,-1.2 -1.1,-0.3 -0.9,-0.6 -0.5,-1 -0.1,-0.8 0.1,-0.8 -0.1,-0.8 -0.3,-0.7 -1.3,-1.3 -1.2,-1.7 -1.1,-0.8 -3.8,-1.8 -2.5,-1.7 -1.3,-0.6 -0.1,-0.4 -1.8,-0.8 -1,-0.2 h -1 l -4.7,1.5 -3.3,1.8 -3,0.9 -2.2,0.2 -2.1,-0.7 -1.3,-1.4 -0.1,-2.2 0.3,-2.2 v -2 l -0.9,-1.5 -2.1,-0.7 -3.7,-0.6 -1.1,-0.5 -1.1,-0.8 -0.7,-1 -0.2,-1.2 v -1.4 l -0.1,0.1 h -0.1 l -0.1,0.1 0.1,-1.5 -0.2,-2.7 -0.1,-0.5 -6.4,-1 -5.4,0.7 -2.5,-4.1 z" sodipodi:nodetypes="ccccccccccccccccccccccccccccccccccccccccccccccccccccccccccccccccccccccccccccccccccccccccccccccccccccccccccccccccccccccccccccccccccccccccccccccccccc"/>
  <path class="country" id="10m_admin_1_states_provinces_shp.3110" d="m 187.5,563.8 -4.5,-0.3 -0.1,0.1 -6.4,-2.9 -4.6,-0.8 v -0.2 l 0.3,-2 -0.1,-2 -2.1,-0.7 -4.1,-0.1 -1.7,0.4 -1.3,-0.8 -1,-0.9 -2.1,-0.6 -1.7,-1 -0.1,-1.8 4.2,-2.4 0.7,-1.5 -0.7,-1.6 -2.1,-0.7 -2.4,0.5 -2.3,1.5 -2.2,1.1 -2.1,-1.7 v -0.9 l -0.8,-1.8 0.6,-1.8 1.8,-1.4 0.8,-1.9 -4.4,-1.2 -42.8,0.3 -0.7,0.6 -0.2,1.1 -0.9,1.2 -1.4,0.3 -2.6,-0.1 -1.8,-2.2 -3.3,-1.7 -1.7,-0.5 -2.3,0.8 -0.5,1.1 -1,3.8 -1.2,1.2 -1.1,1.5 -0.7,3.6 -1.1,1.2 -4.3,0.6 -16,-0.7 -0.8,0.4 v 1 l -1.4,1.6 -2,1.3 -1.8,0.1 -1.9,-0.6 -2.5,0.2 -2.4,-0.2 h -0.5 l 0.3,-1.5 1.6,-4.7 0.1,-1.5 -0.6,-3.1 V 540 l 0.9,-1.6 1.3,-1.2 0.9,-0.6 0.4,-0.8 -0.2,-3.4 -0.2,-0.7 -0.4,-0.4 -0.9,-0.1 -0.8,-0.2 -0.6,-0.4 -0.6,-0.8 -0.3,-1.4 0.2,-1.6 0.7,-3.1 -0.3,-3.1 -1,-2.8 -0.3,-2.6 1.9,-2.7 0.9,-0.4 0.9,-0.3 0.8,-0.4 0.3,-0.7 -0.4,-0.7 -2,-1.6 -0.6,-0.8 -0.3,-1 0.1,-0.5 0.3,-0.5 0.7,-1.3 0.6,-0.8 0.2,-0.7 0.1,-1 -1.6,-18.1 0.2,-0.8 0.6,-0.3 h 0.8 l 1.5,0.3 0.3,-0.1 v -0.4 l 0.2,-0.7 0.2,-3.1 -1.6,-2.7 -2.2,-2.5 -1.5,-2.8 -0.3,-2.8 0.8,-12.3 -0.2,-1.1 -0.6,-1 -1.8,-2 -0.8,-2.1 -0.6,-0.9 v -0.3 l 0.5,-0.3 6.3,-4.4 7.1,0.2 1.9,3.5 0.4,8.2 1.2,4 2.1,0.3 0.7,-3.8 1.1,-3.2 2.7,-0.1 0.5,6.5 -2.7,7.4 0.1,1.6 1.4,3.8 3.1,2.5 2.4,3.1 3.3,6 5.1,4.6 4.1,1.4 4.1,-0.2 2.9,-2.5 3,-7.3 3,-2 2.7,2 1.3,3.6 2.1,1.2 2.1,-1.2 2.3,-0.9 7.3,0.1 2.5,3.6 v 4.1 l 0.2,1.3 2.1,1.5 2.1,1.2 0.5,1.3 v 1.4 l 0.2,1.1 0.5,1.1 0.8,4.4 -2.7,3.6 -2,3.4 4.5,0.2 9,-1.1 4.5,-1.2 2.1,-1.3 2.3,-0.8 2.2,-0.2 2.2,-0.4 5.2,-2.4 1.6,3 0.6,3.4 2.9,-0.4 2.8,-1.7 3.4,-0.2 2.4,2.1 0.9,1.8 0.7,1.9 0.2,1.1 0.4,1.1 2.1,0.1 2.6,-1.4 1.5,0.5 h 1.6 l 1.2,-0.5 1.3,-0.4 3,-0.2 1.1,1.4 -1.6,9.6 -1.4,1.8 -6.6,4.8 -3.7,3.9 -1.8,4.8 v 2.3 l 1.1,1.9 1,0.7 2.3,0.7 1.2,0.2 3.8,0.1 3.2,-1.9 1.1,-1.7 1.9,-0.9 1.4,1.9 v 5.3 l 0.6,3.4 -0.2,1 -0.8,0.9 -1.2,0.4 -3.7,2.7 -2.4,0.3 -1.1,0.5 1.2,1.4 h 2.2 l 4.1,1.8 0.1,1.9 z"/>
  <path class="country" id="10m_admin_1_states_provinces_shp.3111" d="m 228.6,577.8 -8.2,19.8 v 0.1 l -8.6,-11.1 -1.5,-1.4 -2.9,-1.2 -1.3,-1.5 -1.9,-2.9 -2.6,-2.7 -2.2,-1.8 -5.5,-3.5 -2.5,-1.5 -4.5,-4.2 -2.8,-1.8 -1.2,-0.5 0.1,-0.1 4.5,0.3 1.1,-1.4 -0.1,-1.9 -4.1,-1.8 h -2.2 l -1.2,-1.4 1.1,-0.5 2.4,-0.3 3.7,-2.7 1.2,-0.4 0.8,-0.9 0.2,-1 -0.6,-3.4 v -5.3 l -1.4,-1.9 -1.9,0.9 -1.1,1.7 -3.2,1.9 -3.8,-0.1 -1.2,-0.2 -2.3,-0.7 -1,-0.7 -1.1,-1.9 v -2.3 l 1.8,-4.8 3.7,-3.9 6.6,-4.8 1.4,-1.8 1.6,-9.6 2.9,-1.5 1.1,-1.6 0.6,-1.9 2,-3.4 3.1,-2.4 2.9,-0.9 2.7,1.2 3.7,2.4 0.9,0.4 2,0.2 0.8,-0.6 0.2,-1.6 -0.2,-1.7 0.2,-1.9 v -5.6 l 0.6,-3.5 1.3,-3.4 3.2,-1.6 3.6,-1 v -3 l 5.2,-1.6 2.7,-0.1 8.1,0.6 5.2,-0.3 3.7,1.1 1.8,3.5 1.6,5.1 4.1,1.6 7.7,-6.4 4,-9.4 1.4,-7 0.9,-2.1 3.2,-3.4 1.9,-1.1 0.9,-1.2 0.8,-1.4 1.9,-1 2,0.9 1.8,-0.7 1.3,-2.1 5.9,-1 2.2,0.9 -0.4,2.9 3.6,5.7 4.6,4.9 -1.3,2.3 -1.7,1.9 -0.9,0.5 -2,0.4 -1,0.9 -0.7,2.5 2.2,1.5 0.4,1.2 -0.8,1.6 0.3,2.3 0.4,1 0.3,1.7 -0.7,2.4 -1,1 -1.2,0.8 -1.8,1.6 -1.6,1.8 -0.1,0.9 0.2,0.8 -3.4,7.6 -0.4,1.8 -1,1.3 -2,2 -0.9,2.7 -0.1,2.5 1,2.3 0.3,0.9 -0.3,0.6 -0.4,0.2 -0.3,0.5 v 1.1 l -1.6,0.4 -0.7,1.9 -0.9,4.6 -0.3,1 -1.1,1.8 -0.8,0.5 -1.2,0.4 -2.4,-0.5 -0.9,-0.8 -2.1,-0.2 -3.6,2.9 -1.6,0.3 -2,-4.9 0.8,-2 1.2,-1.9 -3.4,-2.6 H 236 l -1.2,0.5 -0.9,1 v 1.8 l -1.2,1.6 -1,2 -2.6,2.5 -2.3,2.8 -0.8,1.6 -0.3,2.4 -0.2,1 v 2.3 l 0.3,0.6 0.7,0.3 1.2,2 1.3,3.8 -1.7,3.9 -1.2,1.8 -0.6,2.2 -1,1.8 -1.8,1 -1.6,0.5 -1,1.6 -0.4,2.1 -0.5,1 -0.4,0.5 v -0.2 l -0.2,0.3 0.2,-0.1 -0.2,0.5 0.4,0.7 1.5,0.9 1.8,1.5 1.5,1.8 0.2,1 0.7,0.3 h 0.9 l 0.9,0.4 0.8,0.6 1.3,2.1 z"/>
  <path class="country" id="10m_admin_1_states_provinces_shp.3112" d="m 270.6,454.4 5.8,2.8 3.3,1 -1.3,2.1 -1.8,0.7 -2,-0.9 -1.9,1 -0.8,1.4 -0.9,1.2 -1.9,1.1 -3.2,3.4 -0.9,2.1 -1.4,7 -4,9.4 -7.7,6.4 -4.1,-1.6 -1.6,-5.1 -1.8,-3.5 -3.7,-1.1 -5.2,0.3 -8.1,-0.6 -2.7,0.1 -5.2,1.6 -5.8,-15.5 -0.4,-3.8 0.8,-3.3 0.6,-8.8 3.4,-4.4 2.8,-1.4 2.3,-2 1.7,-5.9 0.8,0.5 0.4,1.2 1.5,0.7 4.6,-1.4 4.8,3 3,0.2 1.8,0.4 3,-0.5 0.7,0.2 0.6,-0.2 0.9,-1.7 0.4,-2.4 1.6,-1.8 2.6,-0.8 7.9,-0.3 -1.5,2 0.1,3.1 1.4,0.6 2,-1.2 2.7,-0.6 2.7,-0.3 1.3,0.2 1.1,0.8 -0.1,1.6 -1.6,1 -2.1,2.6 -0.6,3.1 1.1,3.2 2.4,2.1 h 1 z"/>
  <path class="country" id="10m_admin_1_states_provinces_shp.3113" d="m 213.3,463.9 0.4,3.8 5.8,15.5 v 3 l -3.6,1 -3.2,1.6 -1.3,3.4 -0.6,3.5 v 5.6 l -0.2,1.9 0.2,1.7 -0.2,1.6 -0.8,0.6 -2,-0.2 -0.9,-0.4 -3.7,-2.4 -2.7,-1.2 -2.9,0.9 -3.1,2.4 -2,3.4 -0.6,1.9 -1.1,1.6 -2.9,1.5 -1.1,-1.4 -3,0.2 -1.3,0.4 -1.2,0.5 h -1.6 l -1.5,-0.5 -2.6,1.4 -2.1,-0.1 -0.4,-1.1 -0.2,-1.1 -0.7,-1.9 -0.9,-1.8 -2.4,-2.1 -3.4,0.2 -2.8,1.7 -2.9,0.4 -0.6,-3.4 -1.6,-3 -5.2,2.4 5,-26.5 -0.4,-2.1 -1.4,-1.7 -1.2,-2.3 -1.6,-2.1 -2,-1.2 -1.5,-1.7 0.1,-2.1 1.2,-1.9 0.7,-2 0.3,-2.2 0.3,-4.8 1.2,-3.3 5,1.3 3.7,-2.7 -0.1,-1.6 0.7,-0.7 0.8,-0.6 1.4,-1.9 1.5,-1.6 2.3,0.9 2,1.8 2.7,4.3 3,0.6 1.5,-1.6 2.2,-1.5 0.4,-0.4 0.4,-0.7 0.6,-0.5 0.2,0.2 1.2,-1 1.4,-0.8 1.3,-0.5 1.6,-0.3 0.4,-0.5 0.6,-0.9 0.2,-2.5 -0.6,-2.5 4.8,-0.2 4.8,0.5 4.1,-0.9 1.9,-0.8 2,-0.5 0.1,0.5 0.6,-0.5 4.1,-0.4 2.9,-1.2 3,0.1 1.6,2.5 2.2,1.5 4.2,-0.6 1.1,0.3 -1.7,5.9 -2.3,2 -2.8,1.4 -3.4,4.4 -0.6,8.8 z"/>
  <path class="country" id="10m_admin_1_states_provinces_shp.3114" d="m 56.1,443.4 -6.3,4.4 -0.5,0.3 -0.1,-0.3 0.2,-0.6 0.7,-1.4 0.6,-5.3 0.9,-4.6 0.1,-4.4 0.2,-1.3 0.6,-1.3 0.8,-1.2 0.6,-1.3 v -1.7 l -0.5,-1.5 -1.5,-3.1 -0.5,-1.6 -0.3,-1.7 0.1,-1.4 0.6,-3.1 v -0.7 l -0.2,-1.3 v -0.7 l 0.4,-0.9 1.5,-1.6 0.5,-0.9 0.6,-2.5 -0.2,-2.1 0.6,-0.4 3.8,-3.3 h 1.4 l 1.5,0.1 5.8,-1.3 1.7,-1.2 1.4,-1.6 4,-3.3 1.7,-0.6 0.5,-0.8 1.2,-0.9 1.4,-0.9 3.1,-2.6 1.5,-0.9 1.7,-0.5 1.2,-0.2 1.2,0.3 0.6,0.8 0.8,0.4 0.8,0.9 1,-0.2 8.6,-3.8 3.3,-2.5 3,-1.5 3.1,-2.3 15.1,-7.6 1.7,-1.2 1.4,-1.5 0.8,-4.8 1.8,-3.6 3.3,-2.3 3.5,-0.4 3.4,1.5 2.1,2.7 1.7,3.2 2.8,2.4 3.2,1.7 8.7,3.1 5.4,1.2 2,-0.1 3.6,-2.1 1.3,2.8 -2.5,3.5 -2.5,1.4 -1.8,1.9 -1.2,1.9 -1.6,1.5 -1,4.5 1,4.4 6.5,14.4 2.6,3.9 2.5,9.8 2.7,3.8 1.7,1.6 1.9,1.2 2.7,4.3 2.1,6.9 0.9,1.5 1.2,0.2 1.2,0.8 0.6,2.5 -0.2,2.5 -0.6,0.9 -0.4,0.5 -1.6,0.3 -1.3,0.5 -1.4,0.8 -1.2,1 -0.2,-0.2 -0.6,0.5 -0.4,0.7 -0.4,0.4 -2.2,1.5 -1.5,1.6 -3,-0.6 -2.7,-4.3 -2,-1.8 -2.3,-0.9 -1.5,1.6 -1.4,1.9 -0.8,0.6 -0.7,0.7 0.1,1.6 -3.7,2.7 -5,-1.3 -1.2,3.3 -0.3,4.8 -0.3,2.2 -0.7,2 -1.2,1.9 -0.1,2.1 1.5,1.7 2,1.2 1.6,2.1 1.2,2.3 1.4,1.7 0.4,2.1 -5,26.5 -2.2,0.4 -2.2,0.2 -2.3,0.8 -2.1,1.3 -4.5,1.2 -9,1.1 -4.5,-0.2 2,-3.4 2.7,-3.6 -0.8,-4.4 -0.5,-1.1 -0.2,-1.1 v -1.4 l -0.5,-1.3 -2.1,-1.2 -2.1,-1.5 -0.2,-1.3 v -4.1 l -2.5,-3.6 -7.3,-0.1 -2.3,0.9 -2.1,1.2 -2.1,-1.2 -1.3,-3.6 -2.7,-2 -3,2 -3,7.3 -2.9,2.5 -4.1,0.2 -4.1,-1.4 -5.1,-4.6 -3.3,-6 -2.4,-3.1 -3.1,-2.5 -1.4,-3.8 -0.1,-1.6 2.7,-7.4 -0.5,-6.5 -2.7,0.1 -1.1,3.2 -0.7,3.8 -2.1,-0.3 -1.2,-4 -0.4,-8.2 -1.9,-3.5 z"/>
  <path class="country" id="10m_admin_1_states_provinces_shp.3115" d="m 353.2,604 -5.7,1.6 -4.9,3.9 -2.4,-0.2 -2.2,-1.9 0.3,-3.1 0.4,-2 0.8,-1.9 1.4,-2.5 2.9,-3.9 0.3,-0.6 0.1,-0.7 -0.1,-1.3 0.1,-0.7 0.9,-3.7 -0.2,-3.8 0.3,-1.7 1.4,-1.2 1,-0.3 0.7,-0.4 0.6,-0.6 0.2,-0.9 0.3,-3.3 -0.2,-1 -0.3,-1 -1,-1.8 -0.3,-1 -0.3,-2.9 -1.3,-3.6 -0.4,-4 -2.1,-7.2 -0.3,-2.2 v -2.3 l 0.6,-0.1 1.7,0.1 1.9,0.4 1.9,-0.3 2.4,-2.4 1.6,-7.2 1.7,-3.5 5,-4.7 0.7,2.1 -0.1,2.3 0.9,0.5 4,-0.2 4.2,1.8 2.3,0.5 2.3,1 -0.3,4.9 -4.1,4.4 -2,5.5 0.6,1.9 1.1,0.5 2.5,0.4 1.1,0.6 1.5,2.1 2.3,5.3 0.5,0.7 0.1,0.7 -0.4,0.6 -0.5,0.3 v 1.3 l -0.2,1.3 -0.2,1 0.6,0.9 1.1,-0.3 1.1,-0.8 1.2,0.8 0.3,1.7 1.7,1.3 -0.4,2.6 0.9,2.1 1.2,2 0.8,2.3 1.6,1.8 2.1,0.3 1.9,-0.5 0.8,0.1 1.3,0.7 0.4,0.8 0.7,0.2 -4.9,2.6 -3.4,4.3 -3.1,0.6 -3,1 -6.6,-1.4 -3.4,0.4 -3.3,0.8 -2.8,1.7 -0.9,3.1 -2.9,5.8 -2.9,0.9 z"/>
  <path class="country" id="10m_admin_1_states_provinces_shp.3118" d="m 258.7,654.1 -2.8,-1.8 -2,-1.7 -0.4,-1.1 1.6,0.2 1.4,0.3 -0.5,-0.8 -2,-2.2 -0.8,-0.5 -0.2,0.3 v 1.4 l -0.2,0.3 h -0.7 l -0.6,0.1 -1,0.4 -1,-0.5 -1.7,0.4 -0.8,-0.4 -0.2,-0.6 0.2,-2.7 -0.3,-3.4 -1.6,-6.6 0.4,-0.9 1.7,-0.4 4.9,-0.1 1.4,-0.4 0.2,0.7 0.2,0.5 0.6,0.8 0.6,-0.4 0.5,-1.1 0.4,-0.5 0.5,-0.3 2.5,-1 1.2,-0.2 h 1.1 l 0.8,0.5 h 0.5 l -0.6,-0.9 -1.8,-1.5 -0.6,-1.1 -0.3,-1 -0.1,-1.2 0.1,-1.2 0.5,-0.9 1,-0.6 1.1,-0.2 h 2.4 l 0.9,-0.4 0.9,-0.9 1,-1.7 -1.2,0.5 -0.9,0.9 -1.1,0.5 -1.3,-0.4 -0.2,0.4 -0.5,0.3 -0.3,0.4 -1.7,-0.4 -1.8,0.9 -1,1.6 0.4,1.9 -0.8,1.8 -1,1.1 -1.2,0.2 -1.5,-0.6 -0.4,-0.5 -0.2,-0.5 -0.3,-0.3 -0.9,-0.2 -0.3,0.5 0.1,0.9 0.5,1 0.5,0.6 -4.3,-0.2 -8.2,-2.8 -0.4,-0.4 -0.3,-0.8 -0.3,-0.4 -2.3,-2.1 -1.5,-1 -0.6,-1.6 -0.1,-1.6 0.2,-0.7 0.5,-0.2 1.2,-1.3 0.6,-0.5 0.5,-0.1 7.2,0.3 2.8,0.5 1.5,0.8 h 0.5 l 0.7,-1 1.2,-2.6 0.6,-0.9 0.9,-0.4 h 1.2 l 1.1,0.4 0.8,0.5 0.2,0.5 0.4,1.7 0.2,0.3 h 0.8 l 0.3,-0.2 0.2,-0.5 -0.1,-0.8 -0.5,-1.1 -1.2,-1.3 -1.5,-1 -1.3,-0.6 h -1.4 l -0.7,0.8 -0.9,2.2 -0.8,0.7 -1.2,0.6 -1.3,0.3 -1.2,-0.1 -1.4,-0.8 -0.6,-1 v -1.3 l 1.4,-4 0.1,-1 -0.1,-1.4 h -0.4 l -2,5.5 -0.8,1.4 -1,1 -1.2,0.5 -1.8,0.1 -0.8,0.2 -1.7,1 -1.9,0.7 -0.4,-0.2 -1,-0.7 -1.1,-1 -1.2,-1.4 -0.9,-1.5 -0.7,-2.1 -0.7,-1 -0.6,-1.3 -0.3,-1.8 0.2,-1.4 0.4,-1.7 0.7,-1.3 0.9,-0.6 0.8,0.3 1.5,1.1 0.5,0.2 0.4,-0.5 -0.1,-0.6 -0.3,-0.8 v -0.7 l 2.4,-2 6,-2.2 1.7,-2.8 -1.6,0.3 -2.5,2.2 -2.9,0.9 -5.5,2.9 -1.1,0.8 -3.7,3.4 -0.8,-0.1 -2.7,-6 -0.3,-0.4 v -0.1 l 8.2,-19.8 5.1,2.4 3.5,4 -0.7,4.9 0.6,3.8 1.5,1.1 1.3,-0.5 4.2,-3.7 -0.4,-2.4 0.8,-1.8 4.7,0.3 2.2,-0.4 2.8,0.2 2.8,2 1.3,0.5 0.8,0.2 0.7,-0.6 0.4,-1 4.1,-2.5 4.5,-0.2 8.6,4.7 4,4.3 2.5,1.4 2,1.5 -0.3,2.7 -1.6,2.6 0.4,0.8 0.8,0.7 0.4,0.9 -0.3,0.8 0.1,1.2 1.2,0.4 h 1.3 l 7.2,-1.6 3.8,-2.7 3,-3.5 4.1,-3.1 3,-3.5 0.9,-2.8 v -2.8 l -1,-0.9 -1.4,-0.3 -4.4,-4 -2.2,-3.7 -0.9,-2.9 -0.2,-2.5 -2.4,-4.1 0.3,-2.6 1,-2.1 1.7,-1.6 2.5,0.3 1.9,1.9 1.4,2.4 h 2.1 l 3.1,-3.8 1.9,-1.2 6.9,-2.9 9,-5.3 4.4,-1.9 2.6,-0.1 2.6,0.5 2.1,-0.7 2.3,-2.8 v 2.3 l 0.3,2.2 2.1,7.2 0.4,4 1.3,3.6 0.3,2.9 0.3,1 1,1.8 0.3,1 0.2,1 -0.3,3.3 -0.2,0.9 -0.6,0.6 -0.7,0.4 -1,0.3 -1.4,1.2 -0.3,1.7 0.2,3.8 -0.9,3.7 -0.1,0.7 0.1,1.3 -0.1,0.7 -0.3,0.6 -2.9,3.9 -1.4,2.5 -0.8,1.9 -0.4,2 -0.3,3.1 -1.9,8.5 -1.5,3.3 -0.2,1.5 -0.4,2.1 -0.3,0.9 -0.6,0.8 -1.4,1.6 -0.4,0.2 -1.4,0.5 -0.4,0.4 -0.7,0.8 -0.4,0.3 0.1,0.1 1.2,3.2 0.2,1.6 -1.2,0.7 -9.5,1.4 -1.2,0.4 -1.4,1 -0.6,0.7 -0.6,0.6 -0.4,0.8 -0.1,0.9 v 1 l -0.2,0.4 -1.3,0.4 -3.1,-0.1 -1.4,0.5 -0.6,1.8 0.2,0.8 0.7,1.1 0.1,0.6 -0.3,0.8 -0.9,0.4 -1.8,0.6 -0.6,0.4 -0.4,0.5 -0.5,0.4 -1,0.2 -0.8,-0.1 -1,-0.3 -0.8,-0.1 -0.7,0.2 -2.1,2.9 -1.2,0.7 -1.9,-0.3 -1.6,-0.6 -1.5,-0.9 -2.5,-2.2 -1,0.4 -2.4,3.4 -2,1.1 -2.2,0.4 -1.4,-0.3 -1.4,0.5 -1.3,0.6 -1.4,0.4 -2.5,1.8 -2.7,1.4 h -1.1 l -1.3,0.1 -1.8,-0.2 -1.4,-1.1 -3.7,-2 z"/>
  <path class="country" id="10m_admin_1_states_provinces_shp.3119" d="m 218.6,565.8 0.2,-0.3 v 0.2 z"/>
  <path class="country" id="10m_admin_1_states_provinces_shp.3120" d="m 343.1,545.7 0.1,1.1 v 1 l -2.3,2.8 -2.1,0.7 -2.6,-0.5 -2.6,0.1 -4.4,1.9 -9,5.3 -6.9,2.9 -1.9,1.2 -3.1,3.8 h -2.1 l -1.4,-2.4 -1.9,-1.9 -2.5,-0.3 -1.7,1.6 -1,2.1 -0.3,2.6 2.4,4.1 0.2,2.5 0.9,2.9 2.2,3.7 4.4,4 1.4,0.3 1,0.9 v 2.8 l -0.9,2.8 -3,3.5 -4.1,3.1 -3,3.5 -3.8,2.7 -7.2,1.6 h -1.3 l -1.2,-0.4 -0.1,-1.2 0.3,-0.8 -0.4,-0.9 -0.8,-0.7 -0.4,-0.8 1.6,-2.6 0.3,-2.7 -2,-1.5 -2.5,-1.4 -4,-4.3 -8.6,-4.7 -4.5,0.2 -4.1,2.5 -0.4,1 -0.7,0.6 -0.8,-0.2 -1.3,-0.5 -2.8,-2 -2.8,-0.2 -2.2,0.4 -4.7,-0.3 -0.8,1.8 0.4,2.4 -4.2,3.7 -1.3,0.5 -1.5,-1.1 -0.6,-3.8 0.7,-4.9 -3.5,-4 -5.1,-2.4 v -2.3 l -1.3,-2.1 -0.8,-0.6 -0.9,-0.4 h -0.9 l -0.7,-0.3 -0.2,-1 -1.5,-1.8 -1.8,-1.5 -1.5,-0.9 -0.4,-0.7 0.2,-0.5 0.4,-0.5 0.5,-1 0.4,-2.1 1,-1.6 1.6,-0.5 1.8,-1 1,-1.8 0.6,-2.2 1.2,-1.8 1.7,-3.9 -1.3,-3.8 -1.2,-2 -0.7,-0.3 -0.3,-0.6 v -2.3 l 0.2,-1 0.3,-2.4 0.8,-1.6 2.3,-2.8 2.6,-2.5 1,-2 1.2,-1.6 v -1.8 l 0.9,-1 1.2,-0.5 h 20.5 l 3.4,2.6 -1.2,1.9 -0.8,2 2,4.9 1.6,-0.3 3.6,-2.9 2.1,0.2 0.9,0.8 2.4,0.5 1.2,-0.4 0.8,-0.5 1.1,-1.8 0.3,-1 0.9,-4.6 0.7,-1.9 1.6,-0.4 v -1.1 l 0.3,-0.5 0.4,-0.2 0.3,-0.6 -0.3,-0.9 -1,-2.3 0.1,-2.5 0.9,-2.7 2,-2 1,-1.3 0.4,-1.8 3.4,-7.6 -0.2,-0.8 0.1,-0.9 1.6,-1.8 1.8,-1.6 1.2,-0.8 1,-1 0.7,-2.4 -0.3,-1.7 -0.4,-1 -0.3,-2.3 0.8,-1.6 -0.4,-1.2 -2.2,-1.5 0.7,-2.5 1,-0.9 2,-0.4 0.9,-0.5 1.7,-1.9 1.3,-2.3 1.3,0.7 1.5,-0.3 1.2,0.8 -0.3,1.4 2.4,0.8 0.5,1.7 -0.8,3.2 1.9,2.5 3.3,-0.1 3.4,-1.4 1.5,-0.9 1.4,-0.3 0.8,1.3 1.1,0.9 2.4,1.6 2.1,2.4 1.7,0.1 2.8,-0.7 1.5,0.2 1.9,1.6 1.6,4.1 1,1.3 0.3,1.4 0.9,1.4 3.7,-0.7 3,-1.2 2,-0.2 1.1,0.9 0.8,1 0.2,1.3 1,0.5 1.9,0.6 0.2,0.6 1.1,2.6 0.2,0.6 0.1,1.5 -0.3,1.3 -0.9,2.7 -0.3,3.8 -0.6,1.7 -0.1,0.8 v 3.2 l -0.1,0.7 -1.9,4.1 -0.8,2.8 -0.1,1.3 0.4,3.8 -0.3,9.4 0.3,3.1 z"/>
  <path class="country" id="10m_admin_1_states_provinces_shp.3121" d="m 397.1,505.8 3.6,0.2 2.5,2.2 0.7,3 2.8,5.8 2,2.5 2.5,2.3 2.7,2 2.8,1.4 3,-0.4 2.2,-1.6 2.6,-0.7 3,1.5 1.9,2.9 0.8,3.5 v 3.6 l -2.5,6.8 -4.9,0.5 -2.5,-0.2 -2.3,1.5 2.9,9.3 -0.1,5.3 -3.2,9.7 1.3,2 0.1,1 0.9,3 0.1,2.3 0.5,2.3 0.2,2.2 -1.5,2.2 -1.8,1.9 -0.4,3.7 0.8,3.8 -2,1.1 -2.6,-2.5 -1.6,-1 -1.9,-1 -3.6,1.2 -4.8,-3.6 -3.6,0.1 -3.4,0.6 -0.2,-0.3 -0.5,-0.3 -0.7,-0.2 -0.4,-0.8 -1.3,-0.7 -0.8,-0.1 -1.9,0.5 -2.1,-0.3 -1.6,-1.8 -0.8,-2.3 -1.2,-2 -0.9,-2.1 0.4,-2.6 -1.7,-1.3 -0.3,-1.7 -1.2,-0.8 -1.1,0.8 -1.1,0.3 -0.6,-0.9 0.2,-1 0.2,-1.3 V 566 l 0.5,-0.3 0.4,-0.6 -0.1,-0.7 -0.5,-0.7 -2.3,-5.3 -1.5,-2.1 -1.1,-0.6 -2.5,-0.4 -1.1,-0.5 -0.6,-1.9 2,-5.5 4.1,-4.4 0.3,-4.9 -2.3,-1 -2.3,-0.5 -4.2,-1.8 -4,0.2 -0.9,-0.5 0.1,-2.3 -0.7,-2.1 2,-3.9 2.4,-1.5 0.2,0.6 v 0.6 l 0.4,1.1 0.5,0.4 1.1,1.7 1.9,0.9 3.2,-2.5 2.8,-3.4 6.1,-4.2 3.7,-3.4 4.2,-5.5 1.3,-1.2 2.3,-0.8 2.4,-1.8 z"/>
  <path class="country" id="10m_admin_1_states_provinces_shp.3122" d="m 420.3,541.1 2.5,0.2 4.9,-0.5 2.4,5.1 5,3.1 3.2,-4.4 0.8,-6.2 1.1,-2.4 3.1,-0.4 h 2.9 l 2.8,-0.7 2.8,-3.6 1.7,-0.4 1.7,0.1 0.8,-1.2 0.3,-0.8 1.4,0.1 0.8,1.2 0.6,2.9 0.9,2.4 1.7,1.9 1.1,4 2.8,3.2 0.9,0.8 1.1,0.6 0.5,0.7 0.3,0.9 1.2,1.4 0.4,2.3 0.7,2 1.6,1.9 0.2,2.3 -4.5,2.6 -0.6,2.4 1.4,2.2 -0.6,5 -4.2,4.2 -1.6,2.1 -1.4,2.2 -1.4,5.5 -1.2,2 -2.1,-1 h -2 l -0.9,1.6 -1.2,1.4 -3.4,1.6 -1.3,1.3 -1.9,0.1 -1.5,-3.3 -2.7,-0.8 -3,0.9 -0.8,1.9 1.2,2.3 -0.9,3.2 -2.6,4 -1,1 -0.1,1.7 0.2,1.7 -0.9,1.5 -1.2,1.3 -0.7,1.8 -0.3,1.8 -2.7,-1 -2.4,-1.8 -1.1,-2.3 -0.6,-2.5 -3.9,-1.8 -10.7,-0.2 -4.4,-2.1 0.7,-4.7 -0.1,-4.3 3.6,-1.2 1.9,1 1.6,1 2.6,2.5 2,-1.1 -0.8,-3.8 0.4,-3.7 1.8,-1.9 1.5,-2.2 -0.2,-2.2 -0.5,-2.3 -0.1,-2.3 -0.9,-3 -0.1,-1 -1.3,-2 3.2,-9.7 0.1,-5.3 -2.9,-9.3 z"/>
  <path class="country" id="10m_admin_1_states_provinces_shp.3123" d="m 398.8,344.4 -2.1,-0.1 -7,0.8 -1.7,-0.4 -1.9,0.6 -0.4,-1.2 0.8,-2.2 0.1,-1.1 -1.2,-1.6 -1,-0.6 -1.5,-2.2 0.7,-2.8 4,-2.8 93.8,0.6 2.9,4.3 3.5,3.6 2.8,3.9 -0.3,4.5 -1.6,4.2 -2.7,3.1 -1.9,4.4 -2.3,4.1 -3.1,3.1 -2.9,0.4 -1.8,-1.8 -1,-1.6 -1.4,-1.4 -3,-3.8 -6.6,-1.8 -2.4,-0.9 -1.9,1.8 -4.2,5.9 -5.9,3.2 -1.9,-7.1 -0.7,-8.6 -2.9,-1.7 -2.4,-1.9 0.1,-1.9 -0.7,-1.7 -2.4,-2.2 -4.5,0.7 -2.8,5.2 -2.6,1.1 -2.5,-1 -1.2,-0.1 -3,-1.6 -2.4,0.2 -1.7,-0.9 -1.1,-1.9 -2.1,0.9 -2.3,0.5 -1.3,-2.5 -2.6,-1 -2.4,3.2 -1.6,1.2 -1.8,-0.8 z" sodipodi:nodetypes="ccccccccccccccccccccccccccccccccccccccccccccccccccccccccc"/>
  <path class="country" id="10m_admin_1_states_provinces_shp.3124" d="m 413.6,438.1 1.3,0.1 0.9,0.2 -0.4,4.2 0.2,3.9 0.9,3.7 2.2,3.2 2.1,2.2 1.5,2.6 0.3,2.7 -0.2,8.4 1.2,8.8 0.8,2.9 2.4,1.2 2.8,-0.3 1.8,1.3 -1.4,2.5 -0.9,2.2 -0.2,2.3 -1.3,5.9 -3,5 -9.8,5.3 -1.2,2.9 -0.2,3.3 -1.9,0.6 -2.4,-1 -3.1,-2.6 -2.8,-1.4 -2.5,-2.2 -3.6,-0.2 -2.6,1.4 -2.4,1.8 -2.3,0.8 -1.3,1.2 -4.2,5.5 -3.7,3.4 -6.1,4.2 -2.8,3.4 -3.2,2.5 -1.9,-0.9 -1.1,-1.7 -0.5,-0.4 -0.4,-1.1 v -0.6 l -0.2,-0.6 -2.4,1.5 -2,3.9 -5,4.7 -1.7,3.5 -1.6,7.2 -2.4,2.4 -1.9,0.3 -1.9,-0.4 -1.7,-0.1 -0.6,0.1 v -1 l -0.1,-1.1 -1.5,-4.2 -0.3,-3.1 0.3,-9.4 -0.4,-3.8 0.1,-1.3 0.8,-2.8 1.9,-4.1 0.1,-0.7 v -3.2 l 0.1,-0.8 0.6,-1.7 0.3,-3.8 0.9,-2.7 0.3,-1.3 -0.1,-1.5 -0.2,-0.6 -1.1,-2.6 -0.2,-0.6 -1.9,-0.6 -1,-0.5 -0.2,-1.3 -0.8,-1 -1.1,-0.9 -2,0.2 -3,1.2 -3.7,0.7 -0.9,-1.4 -0.3,-1.4 -1,-1.3 -1.6,-4.1 -1.9,-1.6 -1.5,-0.2 -2.8,0.7 -1.7,-0.1 -2.1,-2.4 -2.4,-1.6 -1.1,-0.9 -0.8,-1.3 -1.4,0.3 -1.5,0.9 -3.4,1.4 -3.3,0.1 -1.9,-2.5 0.8,-3.2 -0.5,-1.7 -2.4,-0.8 0.3,-1.4 -1.2,-0.8 -1.5,0.3 -1.3,-0.7 -4.6,-4.9 -3.6,-5.7 0.4,-2.9 -2.2,-0.9 -5.9,1 -3.3,-1 -5.8,-2.8 -1.2,-1 h -1 l -2.4,-2.1 -1.1,-3.2 0.6,-3.1 2.1,-2.6 1.6,-1 0.1,-1.6 -1.1,-0.8 -1.3,-0.2 -2.7,0.3 -2.7,0.6 -2,1.2 -1.4,-0.6 -0.1,-3.1 1.5,-2 -0.5,-4.4 -5,-3 -2.9,-2.7 -0.8,-1.4 -1.2,-1.1 -1.1,-1.3 -2.2,-4.1 0.5,-2.4 8.4,-10.5 3.3,-2.9 2.9,1.1 3.7,3.6 7.4,2.8 7.2,1.7 10.2,0.5 8.1,1.8 2.4,-0.5 1.5,-1.8 0.7,-2.1 1.2,-7.6 3,-10.2 3.1,-4 3.2,-0.6 1.3,0.1 0.5,0.5 2.7,1.8 1.5,0.3 1.2,0.6 0.9,0.9 1.8,3.1 0.1,1.3 0.1,0.6 1.2,2.3 0.1,0.6 0.5,0.1 0.2,0.6 0.4,2.8 0.9,3.5 1.7,3.4 0.6,0.3 7.2,5.5 0.9,0.9 2.8,4.6 2.8,2.9 0.9,0.5 0.1,0.4 1.1,0.9 0.2,0.5 1.2,-1.3 0.5,-1.9 0.8,-1.8 1,-0.8 1,0.6 0.3,-1.2 -0.1,-1.6 1.2,-1.2 1.5,-0.5 2.1,-2 1,-2.9 4.5,-0.2 2.7,0.3 2.7,-0.4 0.6,-0.1 -0.6,2.5 -1.8,4.7 3.5,6.3 0.3,4.8 -1.1,10.7 -0.9,2.4 -1.3,2 -0.9,3 -0.1,3 0.6,0.2 1.8,-0.7 2.5,-1.6 1.4,-1.3 0.5,-0.2 0.1,-0.4 3.8,-2.3 14.8,-5 2.5,-0.2 12.9,1.1 z"/>
  <path class="country" id="10m_admin_1_states_provinces_shp.3125" d="m 603.9,385.5 -3.6,4.2 -1.7,2.6 -3.8,4.6 -2,1.8 -5.3,2.9 -4.8,3.4 -4.3,4.3 -4.7,3.6 -5.3,1.5 -5.6,0.4 -3.9,-0.3 -2.7,-3.8 -4,-2.5 -8.6,-3.6 -4.6,-0.1 -4.6,1.4 -6.8,1.1 h -6.9 l -4.5,-1.2 -6.1,-3.2 -1.6,-3.1 0.5,-3.5 -0.6,-3.1 -1.7,-2.4 -1.5,-3.6 1.3,-3.1 1.8,-2.2 1.8,-2.6 2.7,-0.8 1.7,-1.7 3.1,-4.2 1.1,-2.5 0.4,-2.1 -1.4,-1.7 -2,-1.3 -2.3,0.6 -1.1,0.5 -1.3,0.2 -5,0.1 -4.8,-0.9 -3.5,-3.6 -1.1,-5 -3.6,-2.6 -4.3,-2.1 1.6,-4.2 0.3,-4.5 -2.8,-3.9 -3.5,-3.6 116.63673,-1.71704 z" sodipodi:nodetypes="ccccccccccccccccccccccccccccccccccccccccccccccccccc"/>
  <path class="country" id="10m_admin_1_states_provinces_shp.3126" d="m 552.2,408.2 4,2.5 2.7,3.8 -2,3.2 -3,1.9 -2.1,0.1 -2.1,-0.3 -2.2,-0.6 -2.1,-0.4 -1.7,-0.9 -3.6,-1.2 -1.8,0.7 -1.2,1.7 -0.8,1.9 -0.3,2.2 3.9,4.9 0.2,3.8 -0.1,1.3 0.6,1.3 0.2,2 -1.5,1.3 -10.6,7 -2.6,2.2 -14,-10.4 v 0.4 l -2.6,0.3 -8.1,-0.3 -5.3,-1.2 -14.8,-4.9 -9.7,1.1 -4.1,3.5 -1.2,5.1 1.7,5.3 3.5,7.5 0.4,2.6 -0.9,1.2 -0.5,-0.1 -0.9,-0.3 -0.9,-0.4 -1.8,-1.4 -3.4,-1.9 -1.7,-1.8 -2.1,-0.6 -2.4,-0.2 -2.3,-0.7 -3.9,-2.1 -2,-0.7 -6.2,-1 -1.2,-0.5 -3.7,-2.2 -2.5,-0.7 -5.2,-0.6 -2.6,-0.6 -3.5,-1.1 -4.7,-0.6 -3.7,-0.9 -0.9,-0.2 -1.3,-0.1 -10.3,1 -12.9,-1.1 -2.5,0.2 -14.8,5 -3.8,2.3 -0.1,0.4 -0.5,0.2 -1.4,1.3 -2.5,1.6 -1.8,0.7 -0.6,-0.2 0.1,-3 0.9,-3 1.3,-2 0.9,-2.4 1.1,-10.7 -0.3,-4.8 -3.5,-6.3 1.8,-4.7 0.6,-2.5 10.6,-1.6 10.4,-2.8 9.4,-4.6 3.2,-3.6 2.6,-4.1 3.2,-8.8 3.4,-14.8 -0.3,-7.2 0.2,-4.5 1.7,-7.9 1.3,-2.4 0.9,-0.2 0.9,-0.6 0.2,-1.4 -0.2,-1.5 2.1,-0.9 1.1,1.9 1.7,0.9 2.4,-0.2 1.8,1.5 1.2,0.1 3.7,1.1 2.6,-1.1 2.8,-5.2 4.5,-0.7 2.4,2.2 0.7,1.7 -0.1,1.9 2.4,1.9 2.9,1.7 0.7,8.6 1.9,7.1 5.9,-3.2 4.2,-5.9 1.9,-1.8 2.4,0.9 6.6,1.8 3,3.8 1.4,1.4 1,1.6 1.8,1.8 2.9,-0.4 3.1,-3.1 2.3,-4.1 1.9,-4.4 2.7,-3.1 4.3,2.1 3.6,2.6 1.1,5 3.5,3.6 4.8,0.9 5,-0.1 1.3,-0.2 1.1,-0.5 2.3,-0.6 2,1.3 1.4,1.7 -0.4,2.1 -1.1,2.5 -3.1,4.2 -1.7,1.7 -2.7,0.8 -1.8,2.6 -1.8,2.2 -1.3,3.1 1.5,3.6 1.7,2.4 0.6,3.1 -0.5,3.5 1.6,3.1 6.1,3.2 4.5,1.2 h 6.9 l 6.8,-1.1 4.6,-1.4 4.6,0.1 z"/>
  <path class="country" id="10m_admin_1_states_provinces_shp.3786" d="m 412.8,344.1 0.2,1.5 -0.2,1.4 -0.9,0.6 -0.9,0.2 -1.3,2.4 -1.7,7.9 -0.2,4.5 0.3,7.2 -3.4,14.8 -3.2,8.8 -2.6,4.1 -3.2,3.6 -9.4,4.6 -10.4,2.8 -10.6,1.6 -0.6,0.1 -2.7,0.4 -2.7,-0.3 -4.5,0.2 -3.3,-0.4 -1.8,-3.1 -0.5,-1.3 -0.7,-52.4 0.4,-2.1 1.8,-0.8 13.5,-0.5 4.4,1.3 6.9,6.6 3.5,2 0.4,-0.2 10.3,-14.5 7,-0.8 2.1,0.1 2,0.3 1.8,0.8 1.6,-1.2 2.4,-3.2 2.6,1 1.3,2.5 z"/>
</g>
<g inkscape:groupmode="layer" id="layer3" inkscape:label="edo language" style="opacity:1">
  <path style="fill:#ff7f2a;fill-opacity:1;stroke-width:0.539253" d="m 296.81759,271.88934 c -2.83307,-1.49774 -3.24586,-2.2442 -3.79837,-6.86868 -0.74012,-6.19474 -3.15968,-10.65742 -7.00548,-12.92105 -1.59977,-0.94162 -3.52913,-2.19525 -4.28747,-2.78586 -2.14117,-1.66754 -10.84764,-4.86971 -15.19282,-5.58781 -2.156,-0.3563 -5.73997,-0.65942 -7.96439,-0.67359 -3.42565,-0.0218 -4.42289,-0.25265 -6.51841,-1.50872 -1.71548,-1.02827 -3.2139,-1.48295 -4.8872,-1.48295 -1.99617,0 -2.68689,-0.28809 -3.99702,-1.66714 -3.52987,-3.71554 -9.42622,-5.35795 -15.40165,-4.29008 -4.57347,0.81732 -4.97574,0.52406 -4.56959,-3.33135 0.19537,-1.85459 0.84658,-3.33057 2.39315,-5.42408 2.68883,-3.63975 7.43865,-7.93597 8.77384,-7.93597 2.22051,0 7.59401,-3.4767 9.66582,-6.25387 1.65923,-2.22413 2.53503,-2.88436 4.58886,-3.4594 2.33867,-0.65479 2.88279,-0.60188 6.91931,0.67282 6.209,1.96075 7.69869,2.31474 9.95275,1.19454 10.65434,-5.2949 7.69923,-14.43429 11.2726,-22.49313 0.50976,-1.14963 0.98515,-0.87142 3.10428,1.34008 1.22111,1.27433 3.25921,2.7855 4.52912,3.35815 2.14698,0.96816 2.28546,1.15686 1.9745,2.69074 -0.18393,0.90727 -0.39212,3.06987 -0.66586,4.77877 -0.6346,3.96159 0.17242,3.76225 2.53352,5.77688 1.63217,1.39267 4.5159,3.51524 6.53371,4.57557 6.52108,3.42673 8.76487,5.95104 9.96636,11.21237 1.07875,2.80106 2.54385,10.14963 5.55607,10.88699 0.87042,0.19118 1.85816,1.0261 2.44355,1.66159 2.02112,2.19411 1.83594,1.62991 2.87802,4.18344 1.41393,3.46471 1.21686,16.40594 -0.34732,22.16799 -1.21117,4.46164 -3.67316,9.43029 -4.97868,10.04766 -0.41817,0.19776 -2.11921,0.99908 -3.78008,1.78071 -3.59037,1.68969 -6.93518,1.81234 -9.69112,0.35538 z" id="path5057" sodipodi:nodetypes="ssssssssssssssssssssssssccssssss"/>
</g>
<g inkscape:groupmode="layer" inkscape:label="otherCountries" id="layerotherCountries" transform="translate(-0.93673003,-333.98297)">
  <path id="10m_admin_1_states_provinces_shp.879" class="otherCountries" d="m 602.5,522.5 -1.5,-1.19922 -0.80078,-1.40039 -1,-5.40039 -0.59961,-1.19922 -1.09961,-0.20117 -1.69922,1 -18,15.20117 -1.70117,0.69922 -1.40039,-0.40039 -1.39844,-0.69922 -1.80078,-0.20117 -1.30078,1.60156 -5.59961,17.5 -0.0996,0.29883 -0.90039,0.70117 h -3.5 l -2.19922,0.5 -1.09961,0.89844 -1.70117,3.20117 -1.19922,1.09961 -1.40039,0.80078 -3.40039,1.19922 -2.19922,1.40039 -2.20117,4.29883 -2,1.20117 -1.19922,0.0996 -0.90039,-0.0996 -0.90039,0.0996 -1,0.5 -1,1.19922 -2.09961,4.40039 -1.90039,2.59961 -10,8.10156 -6.79883,7 -1.59961,2.29883 -0.90039,1 -1.20117,0.59961 -0.39844,0.5 -0.10156,2.10156 -0.29883,0.89844 -1.30078,0.20117 -1.59961,-0.59961 -1.59961,-0.20117 -1.20117,1.20117 -1,1.19922 -2.59961,1.80078 -0.79883,1.19922 0.0996,1.40039 0.79883,1.19922 0.70117,1.30078 -0.40039,1.79883 -1.19922,1.60156 -1.30078,1 -0.59961,1 1,1.89844 1.40039,1.40039 1.69922,1.30078 1.40039,1.40039 0.69922,2 -0.29883,1.69922 -1.10156,1.5 -1.39844,1.30078 -1.10156,1.39844 -0.5,1.60156 0.10156,1.39844 0.29883,1.5 v 1.5 l -0.40039,1.70117 -1.59961,3.09961 -0.5,1.69922 0.0996,1 0.60156,1.80078 0.0996,0.80078 -2,9.89844 -0.5,1 -0.80078,0.30078 -0.90039,0.19922 -0.79883,0.30078 -0.70117,0.80078 -1.39844,2.19922 -0.5,1 -1.10156,3.19922 -0.69922,1.40039 -1,1.59961 -2.90039,4.5 -0.5,1.40039 -2,1.40039 -0.59961,1.19922 0.19922,1.5 0.20117,1 0.29883,1.10156 L 484,674 l -0.40039,0.19922 -0.79883,0.60156 -0.20117,1.5 0.30078,2.89844 -0.5,-0.59961 L 482,679.5 l 0.0996,0.90039 0.30078,0.90039 v 0.89844 L 482,682.80078 l -2.19922,1.39844 -1.20117,1.5 -0.59961,1 -0.19922,1 0.39844,1.20117 0.70117,0.59961 h 0.90039 l 1,-0.80078 -1.5,2.60156 -0.40039,1 -1.20117,-0.20117 -0.29883,1.30078 0.40039,1.79883 1.09961,1.10156 0.90039,0.19922 0.79883,0.0996 0.59961,-0.29883 0.40039,-1.60156 0.59961,-0.39844 H 483 l 0.90039,0.39844 -0.80078,0.70117 -0.90039,1 -0.39844,1 0.79883,0.29883 9.20117,-0.59961 1.59961,-0.90039 -0.5,-1.89844 -0.70117,-0.60156 -0.89844,-0.5 -0.70117,-0.5 -1.79883,-6.89844 -1.10156,-2.20117 -0.5,-2.09961 1.20117,-1.80078 0.5,2.90039 3.19922,4.70117 0.80078,2.69922 0.59961,1.19922 1.19922,0.70117 1.20117,0.5 0.5,0.59961 0.29883,0.30078 1.5,0.79883 0.5,0.20117 L 499,694.09961 500,692.30078 499.30078,692 499,691.40039 l -0.0996,-0.70117 v -1 L 502.5,692.5 l 0.19922,1.19922 0.60156,0.5 0.69922,-0.29883 0.40039,-1.20117 -0.5,-1.59961 -2.20117,-3.5 0.20117,-0.90039 0.59961,0.20117 0.69922,0.69922 0.5,0.80078 0.60156,1.19922 1.59961,0.59961 0.59961,0.5 0.19922,1.10156 -0.19922,0.89844 -0.30078,0.90039 L 506,694.5 l 0.40039,1.09961 1,-0.5 L 509,693.19922 508.30078,695 506.40039,698.19922 506,700 l 1.80078,10.5 1.19922,2.80078 1.80078,2.5 L 513,717.90039 512.90039,720 511.5,724.40039 l 0.0996,2 0.90039,0.69922 6.40039,3 3.90039,2.40039 1.09961,0.19922 0.69922,-0.29883 1.30078,-0.0996 h 1.40039 l 0.79883,0.19922 1.09961,0.69922 0.20117,0.90039 -0.20117,1 c 0,2.92287 4.09039,1.18464 5.40039,-0.69922 l 0.4004,-1.30079 0.80078,-1.19922 1.79883,-0.40039 v 0.5 l -1.29883,1.69922 c -1.30724,8.82388 4.10479,5.23589 6.69922,1.40039 l 0.80078,-1.79883 2.89844,-4.80078 0.20117,-0.30078 -0.0996,-0.29883 L 548.5,726 l 0.0996,-0.19922 0.20117,-0.10156 0.0996,-0.0996 H 549 l 0.69922,-0.29883 0.90039,1 0.5,-0.10156 0.5,-0.29883 0.59961,-0.59961 0.80078,-1.40039 0.5,-0.70117 1,-0.89844 0.40039,-0.60156 v -0.79883 l -0.59961,-1.59961 -0.60156,-0.80078 -1,-0.69922 L 547.5,716.90039 545.90039,716 546.09961,714.09961 546.5,712 l 5.09961,-8.09961 0.40039,-1.5 -0.69922,-2 -0.10156,-1.09961 L 551.5,695.09961 552,693 l 2.40039,-4.09961 1.09961,-1.59961 0.59961,-0.5 1.70117,-0.10156 1,0.30078 0.59961,-0.0996 L 560,686.69922 560.59961,686 l 0.5,-2.40039 2,-3 2,-1.59961 0.70117,-1.69922 v -1.90039 l 0.0996,-0.80078 0.40039,-1.19922 0.69922,-1.09961 2.40039,-2.20117 1.29883,-1.79883 0.80078,-0.70117 0.5,-0.69922 0.0996,-0.80078 -1.59961,-1.79883 -0.5,-0.90039 0.19922,-1.09961 0.60156,-1.80078 0.89844,-2.30078 1.30078,-1.5 2.5,-0.5 0.80078,-0.79883 -0.20117,-1.40039 -1.40039,-3.09961 -1.09961,-1.80078 -2.69922,-3.40039 -1.20117,-2.89844 L 569.09961,640 569,639.30078 569.30078,638.69922 570,638.5 h 0.69922 l 0.90039,-0.0996 0.90039,-0.5 2.59961,-3.09961 2.5,-0.5 -0.5,5.29883 1.09961,1.59961 0.80078,0.10156 0.80078,-0.20117 0.59961,-0.59961 0.79883,-0.5 0.80078,-0.0996 1,0.40039 2.40039,1.69922 0.5,0.69922 0.29883,0.5 0.20117,1.20117 1,1.90039 0.0996,3 -0.80078,1.69922 0.10156,0.40039 0.0996,0.29883 0.5,1 0.5,1.40039 0.29883,0.59961 0.40039,0.40039 2.70117,1.59961 0.29883,0.40039 0.20117,0.59961 0.29883,1.90039 0.30078,0.80078 v 0.19922 l 0.40039,0.40039 0.59961,0.5 0.40039,0.19922 1,1 0.5,2.40039 0.59961,0.70117 0.59961,0.0996 h 0.19922 l 0.5,-0.0996 H 597.5 l 0.69922,-0.10156 1.80078,-3.89844 0.59961,-0.70117 0.30078,-0.59961 2.69922,-1.80078 z m -45.19922,64.30078 0.26953,0.35938 -0.0703,-0.0606 -0.0996,-0.0996 z" sodipodi:nodetypes="cccccccccccccccccccccccccccccccccccccccccccccccccccccccccccccccccccccccccccccccccccccccccccccccccccccccccccccccccccccccccccccccccccccccccccccccccccccccccccccccccccccccccccccccccccccccccccccccccccccccccccccccccccccccccccccccccccccccccccccccccccccccccccccccccccccccccccccccccccccccccccccccccccccccccccccccccccccccccccccccccccccc"/>
  <path class="otherCountries" id="10m_admin_1_states_provinces_shp.1582" d="m 546.7,728.5 0.2,-0.3 0.4,0.4 0.5,0.2 0.7,0.2 0.8,0.4 v 0.4 l 0.8,1.7 0.8,0.9 1.2,1 0.7,1.2 c -0.84492,1.75205 -1.63949,1.20815 -3.1,0.7 l -1,-0.8 -0.9,-1.5 -0.5,-0.3 -0.3,-0.2 -0.2,-0.3 v -0.7 l -1,0.1 -0.6,0.3 -0.4,0.5 -0.1,0.8 2,1.2 0.5,0.6 c -1.12809,8.62848 -5.28241,7.67686 -4.2,0.1 l 0.8,-1.8 z m 53.3,-66.7 -1.8,3.9 -0.7,0.1 h -0.3 l -0.5,0.1 h -0.2 l -0.6,-0.1 -0.6,-0.7 -0.5,-2.4 -1,-1 -0.4,-0.2 -0.6,-0.5 -0.4,-0.4 v -0.2 l -0.3,-0.8 -0.3,-1.9 -0.2,-0.6 -0.3,-0.4 -2.7,-1.6 -0.4,-0.4 -0.3,-0.6 -0.5,-1.4 -0.5,-1 -0.1,-0.3 -0.1,-0.4 0.8,-1.7 -0.1,-3 -1,-1.9 -0.2,-1.2 -0.3,-0.5 -0.5,-0.7 -2.4,-1.7 -1,-0.4 -0.8,0.1 -0.8,0.5 -0.6,0.6 -0.8,0.2 -0.8,-0.1 -1.1,-1.6 0.5,-5.3 -2.5,0.5 -2.6,3.1 -0.9,0.5 -0.9,0.1 H 570 l -0.7,0.2 -0.3,0.6 0.1,0.7 0.6,2.8 1.2,2.9 2.7,3.4 1.1,1.8 1.4,3.1 0.2,1.4 -0.8,0.8 -2.5,0.5 -1.3,1.5 -0.9,2.3 -0.6,1.8 -0.2,1.1 0.5,0.9 1.6,1.8 -0.1,0.8 -0.5,0.7 -0.8,0.7 -1.3,1.8 -2.4,2.2 -0.7,1.1 -0.4,1.2 -0.1,0.8 v 1.9 l -0.7,1.7 -2,1.6 -2,3 -0.5,2.4 -0.6,0.7 -0.6,0.2 -0.6,0.1 -1,-0.3 -1.7,0.1 -0.6,0.5 -1.1,1.6 -2.4,4.1 -0.5,2.1 -0.3,4.2 0.1,1.1 0.7,2 -0.4,1.5 -5.1,8.1 -0.4,2.1 -0.2,1.9 1.6,0.9 5.2,0.9 1,0.7 0.6,0.8 0.6,1.6 v 0.8 l -0.4,0.6 -1,0.9 -0.5,0.7 -0.8,1.4 -0.6,0.6 -0.5,0.3 -0.5,0.1 0.1,0.1 -0.4,1.8 0.7,1.7 1.4,1.3 1.4,0.8 1,-1 v 1.6 l 1.4,0.3 2,-0.6 1.6,-0.8 1.3,-1.4 2.4,-3.7 1.3,-1 v 1.5 h 0.5 l 0.6,-0.8 0.6,-0.7 1.4,-1 1.2,-0.5 0.1,0.4 -0.3,0.8 -0.3,0.3 -2.1,1.1 -3.2,4.9 -1.2,1.1 -1.4,0.7 -1.2,1.7 40.22125,-0.12259 z" sodipodi:nodetypes="cccccccccccccccccccccccccccccccccccccccccccccccccccccccccccccccccccccccccccccccccccccccccccccccccccccccccccccccccccccccccccccccccccccccccccccccccccccccccccccccc"/>
  <path id="10m_admin_1_states_provinces_shp.2349" class="otherCountries" d="M -0.90039062,566 16.699219,564.09961 22.5,562.69922 26.400391,562.40039 35.5,561.5 51.599609,560 51.699219,555.59961 52.5,550.80078 52.699219,550 l 1.40039,-3.90039 0.09961,-1.5 L 53.599609,541.5 V 540 L 54.5,538.40039 l 1.300781,-1.20117 0.898438,-0.59961 0.40039,-0.79883 -0.199218,-3.40039 -0.201172,-0.80078 -0.398438,-0.29883 -0.90039,-0.10156 L 54.599609,531 54,530.59961 53.400391,529.80078 53.099609,528.40039 53.300781,526.80078 54,523.69922 l -0.300781,-3.09961 -1,-2.79883 L 52.5,515.09961 54.400391,512.5 l 0.798828,-0.40039 0.90039,-0.29883 0.800782,-0.40039 0.298828,-0.80078 -0.398438,-0.69922 -2,-1.5 -0.601562,-0.80078 -0.298828,-1 0.09961,-0.5 0.300781,-0.5 L 55,504.19922 55.599609,503.5 l 0.201172,-0.69922 0.09961,-1 -1.5,-18.10156 0.09961,-0.79883 0.599609,-0.30078 h 0.800782 l 1.599609,0.30078 0.199219,-0.0996 v -0.5 l 0.201172,-0.60156 0.199218,-3.09961 -1.599609,-2.69922 -2.199219,-2.5 -1.40039,-2.80078 L 52.5,467.80078 52.599609,465.40039 53.300781,455.5 53.099609,454.40039 52.5,453.30078 l -1.800781,-1.90039 -0.798828,-2.09961 -0.59961,-0.90039 -0.101562,-0.59961 0.90039,-2 0.300782,-0.60156 0.298828,-4.69922 0.90039,-4.59961 L 51.800781,431.5 52,430.19922 l 0.5,-1.29883 0.800781,-1.20117 0.59961,-1.39844 v -1.60156 l -0.5,-1.5 L 52,420.09961 51.400391,418.5 l -0.300782,-1.80078 0.09961,-1.39844 0.601562,-3 v -0.70117 l -0.201172,-1.29883 v -0.70117 L 52,408.69922 l 1.5,-1.59961 0.5,-0.90039 0.599609,-2.5 -1.599609,-20 v -0.0996 -0.79883 l 0.5,-0.5 1.199219,-0.60156 0.40039,-0.39844 0.09961,-0.60156 L 54.800781,379.5 54.699219,378.90039 55,377.80078 l 0.900391,-2.10156 v -1.09961 L 55.300781,373.90039 55,373.80078 54.800781,373.19922 55,373 l 0.900391,-1.19922 0.199218,-0.5 0.400391,-2 0.199219,-4.60156 -0.298828,-2 5.699218,0.5 1,-0.19922 0.701172,-0.5 0.59961,-0.59961 0.798828,-0.5 3,-0.20117 H 69 l 0.800781,0.40039 0.699219,0.5 0.800781,0.40039 h 0.798828 l 5,-1.30078 1.800782,-1.29883 1.199218,-2.30078 2.400391,-7.5 0.790703,-4.15348 0.5,-1.5 v -4.69922 l -0.300781,-1.30078 -0.898438,-2.29883 -0.5,-2 -82.805589,0.32962 z" sodipodi:nodetypes="ccccccccccccccccccccccccccccccccccccccccccccccccccccccccccccccccccccccccccccccccccccccccccccccccccccccccccccccccccccccccccccccccccccc"/>
</g>
<g inkscape:groupmode="layer" inkscape:label="river" id="layerriver" transform="translate(-0.93673003,-333.98297)">
  <path class="river3" id="10m_rivers_lake_centerlines_scale_ranks.141" d="m 109.5,383.9 0.4,0.3 h 0.4 l 0.4,-0.1 0.3,0.1 1.8,1.7 2.8,4 1.2,1.2 6,3.1 1.9,1.7 4.1,5.8"/>
  <path class="river3" id="10m_rivers_lake_centerlines_scale_ranks.142" d="m 128.8,401.7 2.2,3.4 0.5,1.2 v 0.7 l -0.3,1.5 v 0.8 l 1,5.1 0.1,1.8 -0.4,2.7 -0.7,2.7 -1.2,3 -1.6,2.7 -1.3,2.9 -0.1,3.2 0.8,6.9 -0.1,2 -1.1,2.7 0.1,6.2 0.3,1.2 1.5,2.5 0.3,0.8 v 1.2 l -0.3,0.1 -0.7,-0.1 -1,0.1 -1,0.6 -8.9,7.7 -1.5,2.8 -0.1,1.7 0.5,1.3 0.5,1.2 0.3,1.3 -0.5,2.2 -1,2.1 -1.3,1.8 -1.6,1.6 -4.2,2.7 -1,0.9 -2.3,3.3 -2.1,1.9 -2.6,1.5 -2.1,1.7 -0.7,2.5 0.4,1.2 0.9,2.4 0.2,1.3 -0.5,1.6 -1.4,3.1 -0.2,1.7 0.6,1.8 0.8,1.2 0.5,1.3 -0.6,2"/>
  <path class="river2" id="10m_rivers_lake_centerlines_scale_ranks.143" d="m 97.9,513.4 -1.5,2.7 -0.1,1.3 0.9,1.6 2.9,2 1.2,1.4 -0.1,1.9 -0.4,1.1 -0.5,3.1 h -0.1 l -0.8,1 -0.3,0.3 -0.1,0.6 -0.1,1.5 -0.1,0.7 0.2,0.8 0.5,1 1.4,1.7 0.4,0.9 0.4,2.9 0.9,1.7 1.2,0.8 1.5,0.5 1.8,0.8"/>
  <path class="river2" id="10m_rivers_lake_centerlines_scale_ranks.891" d="m 286.7,316.7 -0.2,1.9 0.1,0.7 0.5,0.6 0.8,0.3 0.7,-0.3 0.6,-0.1 0.4,1 0.1,1.5 -0.2,1.6 -1,3.4 -3.7,7.8 -0.3,1.4 -0.1,4.5 -4.6,24.6 0.2,1.9 0.9,1.1 1.3,0.9 1.3,1.2 0.8,1.6 v 1.4 l -0.7,1.5 -7.5,7.5"/>
  <path class="river2" id="10m_rivers_lake_centerlines_scale_ranks.893" d="m 40,557.4 0.1,-0.9 0.4,-1.1"/>
  <path class="river2" id="10m_rivers_lake_centerlines_scale_ranks.894" d="m 40.5,555.4 -0.1,5.7"/>
  <path class="river3" id="10m_rivers_lake_centerlines_scale_ranks.896" d="m 21.3,337.7 -0.6,6.3 -0.2,0.6 -0.6,1.4 -0.4,2 -0.3,0.7 -0.5,0.7 -0.5,0.9 1,0.3 1.8,-0.8 1.2,0.5 -0.5,0.5 -0.6,0.4 -0.7,0.1 h -0.7 l 0.6,1.4 -0.5,2.7 0.9,1.4 -0.8,0.9 -0.3,1.3 0.1,1.2 0.4,1.2 1.7,-0.7 0.3,1.2 -0.8,1.4 -1.4,-0.2 -1.1,-0.3 -1.3,0.6 -1,1.1 -0.4,1.4" sodipodi:nodetypes="cccccccccccccccccccccccccccccc"/>
  <path class="river3" id="10m_rivers_lake_centerlines_scale_ranks.897" d="m 16.1,365.4 0.4,1.1 0.3,0.5 -0.1,0.4 -0.6,1 -0.3,0.2 h -0.5 l -0.4,0.1 -0.2,0.4 v 0.7 l -0.1,0.5 -0.1,0.3 -0.4,0.3 v 0.5 l 0.6,0.2 1.4,0.8 -0.5,0.2 -0.3,0.4 -0.2,0.6 v 0.8 l 0.8,-0.4 0.4,-0.2 0.3,-0.4 0.6,0.5 0.4,-0.4 0.2,-0.1 h 0.4 l -0.3,2.1 -1,1.6 -1.2,1.2 -0.6,1.4 -1.4,5.9 0.7,0.9 0.5,1 1.2,6.5 -0.9,6.3 0.5,1.8 0.4,0.4 0.5,0.2 0.5,0.1 0.5,0.3 0.8,0.6 1.5,1.7 1.4,1 1.4,0.8 1.3,1 0.7,1.5 0.1,3.1 -0.7,6.4 0.6,3 2.3,4 0.1,0.8 -1.5,3.5 -0.3,1.3 0.1,0.5 1.1,1.8 0.4,0.3 0.2,0.4 0.2,0.5 -0.2,0.5 -0.7,0.8 -0.2,0.4 0.2,0.8 0.3,0.5 0.4,0.4 0.2,0.3 1.5,12 1.5,2.4 3.3,2.5 0.7,1 0.2,0.9 v 1.7 l 0.3,0.9 0.4,0.6 1.1,1.1 0.5,0.8"/>
  <path class="river2" id="10m_rivers_lake_centerlines_scale_ranks.898" d="m 36.8,462.9 -0.1,2 -1.3,3.5 -0.1,2.1 0.5,1.9 -0.2,0.8 -1.1,0.3 -0.7,0.5 -2.3,3.3 -0.9,1.6 0.2,1.7 1,3.2 v 3.3 l 0.2,0.6 0.4,0.6 0.4,0.7 v 1.1"/>
  <path class="river2" id="10m_rivers_lake_centerlines_scale_ranks.899" d="m 32.8,490.1 -0.7,0.8 -1.3,3.2 0.2,0.3 0.2,0.3 0.4,0.3 0.4,0.1 0.8,0.1 0.2,0.3 v 0.3 l 0.3,0.4 1.5,0.7 0.4,0.6 0.1,1.1 -1.7,0.2 -1.7,2 -0.7,2.6 1.1,1.8 v 0.4 l -1.3,0.5 0.1,1.2 0.8,1.3 0.9,0.6 -1.1,0.3 -0.8,0.5 -0.5,0.8 -0.1,1.2 0.1,2.2 0.3,1 0.6,0.5 -0.5,1.8 v 1 1.2 l 0.3,-0.1 0.8,-0.2 0.4,-0.2 0.2,1 1,1.2 0.3,1.1 0.1,1.1 1.3,5.5 0.6,12 0.4,0.8 2.5,2.5 0.6,0.9 0.3,0.9 0.1,1.1 0.1,1.4 0.1,1 1.4,2.7 -0.4,0.6 -0.1,0.6 -0.3,1.8"/>
  <path class="river2" id="10m_rivers_lake_centerlines_scale_ranks.900" d="m 40.7,561 -0.6,-1.4 0.1,-1.1 -0.2,-1.1"/>
  <path class="river2" id="10m_rivers_lake_centerlines_scale_ranks.1960" d="m 603.3,397.8 -0.8,0.8 -1.6,2.2 -0.4,1.2 -0.4,0.5 -0.6,0.3 -2.1,0.3 -2,0.8 -0.1,2.9 -0.4,0.8 -0.8,0.5 -2,0.4 -1,0.4 -0.5,0.6 -0.3,0.7 -1,3.3 -0.7,1.1 -0.1,0.3 -0.5,0.1 -1.6,0.7 -0.7,0.2 h -2.3 l -2.6,0.7 -2.5,1.1 -1.5,1.3 -0.9,1.3" sodipodi:nodetypes="cccccccccccccccccccccccccc"/>
  <path class="river2" id="10m_rivers_lake_centerlines_scale_ranks.1961" d="m 575.9,420.3 -1.5,2.1 -1.7,1.3 -1.4,0.3 -2.9,-0.1 -1.5,0.1 -0.6,0.3 -0.5,0.3 -2.4,2.1 -1.7,0.9 -1.6,0.7 -0.6,0.3 -1.3,1.1 -0.5,0.3 -2.4,0.8 -0.6,0.3 -0.3,0.1 -0.2,0.2 -0.2,0.3 -0.1,0.5 -0.1,0.2 -0.6,0.5 -0.6,0.2 -7.2,1.8 -0.6,0.3 -0.3,0.2 -0.5,0.6 -0.4,0.1 -1.4,1.2 -1.5,2.8 -0.6,0.7 -0.4,0.4 -1,0.3 -0.6,0.3 -0.3,0.4 -0.4,1.2 -0.3,0.4 -0.8,0.6 -2.7,0.4 -3.5,1.6 -6.5,2 -2.6,0.4 -5.4,0.1 -2.7,0.6 -0.9,0.6 -0.8,0.8 -1.3,1.7 -2.2,1.5 -2.9,0.6 -5.8,0.4 -2.7,0.7 -7.6,3.5 -1.4,0.4 -1.5,0.1 -7.3,-0.4 -1.4,-0.2 -0.7,-0.3 -1.9,-1.3 -0.8,-0.3 -3.2,-0.6 -0.9,-0.3 -0.9,-0.4 -1.8,-1.4 -3.4,-1.9 -1.7,-1.8 -2.1,-0.6 -2.4,-0.2 -2.3,-0.7 -3.9,-2.1 -2,-0.7 -6.2,-1 -1.2,-0.5 -3.7,-2.2 -2.5,-0.7 -5.2,-0.6 -2.6,-0.6"/>
  <path class="river2" id="10m_rivers_lake_centerlines_scale_ranks.1962" d="m 427.7,441 -3.5,-1.1 -4.7,-0.6 -4.6,-1.1 -1.3,-0.1 -10.3,1 -13,-1.1 -2.4,0.2 -14.8,5 -3.8,2.3 -0.1,0.4 -0.5,0.2 -1.4,1.3 -2.5,1.6 -8.2,3.3 -3.2,0.5 -1.1,0.4 -1.2,0.8 -1,0.9 -0.3,1.1"/>
  <path class="river1" id="10m_rivers_lake_centerlines_scale_ranks.2033" d="m 312.4,664.1 0.3,1.1 0.9,1.8 0.3,1.1 -0.1,0.4 -0.3,0.8 -0.1,0.6 v 2 l -0.3,1.2 -1.4,2.2 -0.4,1.1 0.2,1.3 0.8,2.4 0.1,1.1 -0.4,1.2 -1.3,1.4 -0.4,0.9 0.1,1.1 0.8,2.5 0.1,1.2 0.4,0.8 0.7,1 0.3,1 -1,2 -0.8,3"/>
  <path class="river1" id="10m_rivers_lake_centerlines_scale_ranks.2034" d="m 192.7,303.5 1.8,10.7 -0.2,0.6 -1.4,0.4 -0.4,0.4 -0.2,0.6 -0.4,1.8 -1.3,2.9 -1.8,3 -0.3,2.4 0.4,2.3 2.5,5.7 0.6,2.2 0.2,2.7 -0.1,1.4 h 0.1 0.1 v 0 -0.1 l 0.1,1.4 0.2,1.2 0.7,1 1.1,0.8 1.1,0.5 3.7,0.6 2.1,0.7 0.9,1.5 v 2 l -0.3,2.2 0.1,2.2 1.3,1.4 2.1,0.7 2.2,-0.2 3,-0.9 3.3,-1.8 4.7,-1.5 h 1 l 1,0.2 1.8,0.8 0.1,0.4 1.3,0.6 2.5,1.7 3.8,1.8 1.1,0.8 1.2,1.6 1.3,1.4 0.3,0.7 0.1,0.8 -0.1,0.8 0.1,0.8 0.5,1 0.9,0.6 1.1,0.3 7,1.2 4.9,-0.3 1.1,0.2 0.9,0.4 0.7,0.7 1.4,1.3 0.9,0.7 0.9,0.4 1,0.2 2.2,0.2 1,0.2 1,0.3 1,0.6 0.4,0.3 1,1.2 1.6,1.4 0.6,0.7 0.6,0.8 0.7,1.2 0.3,0.4 0.9,0.8 1.2,0.3 4.2,0.2 0.6,0.1 1.6,0.6 0.6,0.1 0.9,1.5 1.1,1.4 0.8,1.4 0.5,0.5 0.8,0.3"/>
  <path class="river1" id="10m_rivers_lake_centerlines_scale_ranks.2035" d="m 330.4,632.4 -0.1,1.9 -1.1,0.4 -1.7,-0.1 -1.3,0.6 -0.7,1 -1.3,2.4 -0.7,0.8 -1.3,0.4 -1.3,0.1 -1.1,0.5 -0.4,1.3 -0.2,0.9 -0.3,0.8 -0.6,0.7 -0.6,0.6 -0.6,0.9 0.4,0.4 1.4,0.5 h 0.8 l 0.6,-0.4 0.4,-0.1 0.2,1 -0.2,0.8 -0.6,0.7 -0.7,0.4 -0.8,-0.2 -0.8,-0.1 -0.9,3.6 -1,1.3 -1.7,0.2 -1.3,-0.4 -0.8,0.1 -0.3,3.5 v 0.8 l 0.3,0.6 0.8,0.1 0.8,-0.2 h 0.6 l 0.1,0.9 -0.3,0.4 h -0.5 l -0.5,-0.1 -0.3,0.1 -0.1,0.7 v 0.2 l 0.1,0.2 v 0.5 l 0.5,1.5 v 1 l -0.7,0.5 -1.1,0.3 -0.4,0.6 -0.4,0.7 -0.8,0.4 -0.1,-0.5 -0.4,-0.8 H 309 l -0.6,4 -1,0.4 -1.5,-0.2 -1.6,0.6 -0.2,0.3 -0.1,0.9 -0.2,0.4 -0.3,0.2 -0.4,0.1 -0.5,0.1 -0.6,0.1 -0.5,0.3 -1.7,2.7 0.4,0.4 0.6,1.6 -0.8,-0.1 -0.5,0.2 -0.4,0.3 -0.3,0.6 1.4,0.7 0.4,1.6 -0.3,3.5 0.1,2.3 -0.1,0.9 -0.3,0.6 -0.5,0.5 v 0.6 l 0.8,0.8 -0.6,0.8 -0.5,1 -0.3,1.1 -0.1,0.9 -0.3,0.8 -1.2,2.1 -0.3,0.4 -0.5,0.5 0.3,1.1 0.6,1 0.4,0.4 0.1,1.1 -0.1,0.9 -0.2,1.7"/>
  <path class="river1" id="10m_rivers_lake_centerlines_scale_ranks.2036" d="m 334.4,620.7 -0.4,2.1 -0.3,0.9 -0.6,0.8 -1.4,1.6 -0.4,0.2 -1.4,0.5 -0.4,0.4 -0.7,0.8 -0.4,0.3 0.1,0.1 1.2,3.2 0.2,1.6 -1.2,0.7 -9.5,1.4 -1.2,0.4 -1.3,1 -0.7,0.7 -0.6,0.6 -0.4,0.8 -0.1,0.9 v 1 l -0.2,0.4 -1.3,0.4 -3.1,-0.1 -1.4,0.5 -0.6,1.8 0.2,0.8 0.7,1.1 0.1,0.6 -0.3,0.8 -0.9,0.4 -1.8,0.6 -0.6,0.4 -0.4,0.5 -0.5,0.4 -1,0.2 -0.8,-0.1 -1,-0.3 -0.8,-0.1 -0.7,0.2 -2.1,2.9 -1.2,0.7 -1.9,-0.3 -1.6,-0.6 -1.5,-0.9 -4.9,-4.3 -1,-0.3 -4.3,0.3 -1.3,-0.3 -0.5,-1.2 -0.7,0.2 -4.3,2.6 -1.1,-0.8 -0.7,-0.3 -0.3,0.3 -0.2,1.2 -0.6,0.1 -1.4,-0.5 -2.8,0.4 -2.5,0.6 -0.6,0.3 -0.6,0.6 -0.6,0.1 -0.6,-0.3 -0.4,-1.4 -0.5,-0.3 -0.6,0.2 -2.1,1.3 -0.9,0.1 -1.4,0.1 -0.8,0.3"/>
  <path class="river1" id="10m_rivers_lake_centerlines_scale_ranks.2037" d="m 335,620.8 v 0 m 0,0 v 0 m 0,0 1.1,0.9 1.1,0.7 0.9,1 0.4,1.7 -0.6,4.7 0.1,1.6 0.5,3 0.1,0.4 0.3,0.3 0.1,0.3 v 0.5 l -0.2,0.4 -0.7,0.7 -0.1,0.2 -0.3,0.2 -1.4,0.3 -0.3,0.5 -0.2,0.8 -0.5,0.7 -2.4,3.1 -1.8,1.3 -1.6,1.5 -1,2.4 -0.4,3.3 -0.6,1.6 -1.3,0.6 -0.5,0.7 -0.4,1.5 -0.4,1.9 v 1.5 l 0.2,0.8 0.3,0.8 0.4,0.7 0.6,0.7 0.7,-0.9 0.9,0.1 0.9,0.5 1.1,0.3 1.1,-0.3 0.8,-0.5 0.4,0.1 0.2,1.4 0.4,0.6 0.8,0.1 0.9,0.3 0.7,1.7 1.3,1.8 0.4,0.8 v 0.9 l -0.5,1.8 v 0.9 l 1.3,2.9 0.6,2.8 1.2,1.5 1.7,0.8 1.7,-0.5 1,1.2 1.1,3.2 0.7,0.6 0.4,0.6 0.5,1.5 0.3,1.7 0.6,1.2"/>
  <path class="river1" id="10m_rivers_lake_centerlines_scale_ranks.2038" d="m 279,385.9 3.9,-0.1 3.3,0.5 h 1.1 l 0.8,-0.2 2.4,-1 1.8,-0.4 8,-0.1 1.2,0.2 1,0.4 2.3,2.1 0.5,0.2 7.3,-1.4 1.3,0.1 0.5,0.5 2.7,1.8 1.5,0.2 1.2,0.7 0.9,0.9 1.8,3.1 0.1,1.3 0.1,0.6 1.2,2.3 0.2,0.6 0.4,0.1 0.2,0.6 0.2,0.6 0.2,2.2 0.9,3.5 1.7,3.4 0.6,0.3 7.2,5.5 0.9,0.9 2.9,4.6 2.7,2.9 0.9,0.5 0.1,0.4 1.1,0.9 1.1,2.7 0.8,1.2 1.9,2.3 1.6,2.5 0.6,1.2 0.4,1.2 1.6,9.3 -0.1,1.2 -0.3,1.2 -1.4,2.8 -0.2,0.6 -0.9,6.4 -0.7,2.2 -0.1,0.4 0.1,0.6 0.4,1.1 0.2,0.6 -0.1,0.7 -0.3,0.8 -1.6,1.9 -0.4,0.6 -0.9,3.2 -0.2,1 v 1 l 0.5,2.5 -0.7,11 0.2,1.5 v 0.8"/>
  <path class="river1" id="10m_rivers_lake_centerlines_scale_ranks.2039" d="m 345.6,487.1 -1,9 0.1,1.4 0.2,0.6 1.1,2.6 0.2,0.6 0.1,1.5 -0.3,1.3 -0.9,2.7 -0.3,3.8 -0.6,1.7 -0.1,0.8 v 3.2 l -0.1,0.7 -1.9,4.1 -0.8,2.8 -0.1,1.2 0.4,3.9 -0.3,9.4 0.3,3.1 1.5,4.2 0.1,1.1 v 3.3 l 0.3,2.2 0.7,2.5"/>
  <path class="river1" id="10m_rivers_lake_centerlines_scale_ranks.2040" d="m 344.2,554.8 1.3,4.7 0.5,4 1.3,3.6 0.3,2.9 0.3,1 1,1.8 0.3,1 0.2,1 -0.3,3.3 -0.2,0.9 -0.6,0.6 -0.7,0.4 -1,0.3 -1.4,1.2 -0.3,1.7 0.2,3.8 -0.9,3.7 -0.1,0.7 0.1,1.3 -0.1,0.7 -0.3,0.6 -2.9,3.9 -1.4,2.5 -0.7,1.9 -0.5,2 -0.3,3.1 -1.9,8.5 -1.5,3.3 -0.2,1.5"/>
</g>
<g inkscape:groupmode="layer" inkscape:label="rBoundaries" id="layerrBoundaries" transform="translate(-0.93673003,-333.98297)">
  <path class="rBoundaries" id="10m_admin_1_states_provinces_lines_shp.6455" d="m 393.6,585.6 -4.9,2.6 -3.4,4.3"/>
  <path class="rBoundaries" id="10m_admin_1_states_provinces_lines_shp.6456" d="m 406.1,589.1 0.1,4.3 -0.7,4.7 4.4,2.1 10.7,0.2 3.9,1.8 0.6,2.5 1.1,2.3 2.4,1.8 2.7,1"/>
  <path class="rBoundaries" id="10m_admin_1_states_provinces_lines_shp.6458" d="m 393.6,585.6 0.5,0.3 0.2,0.3 3.4,-0.6 3.6,-0.2 4.8,3.7"/>
  <path class="rBoundaries" id="10m_admin_1_states_provinces_lines_shp.6459" d="m 360,530.1 0.7,2.1 -0.1,2.3 0.9,0.5 4,-0.2 4.2,1.8 2.3,0.5 2.3,1 -0.3,4.9 -4.1,4.4 -2,5.5 0.6,1.9 1.1,0.5 2.5,0.4 1.1,0.6 1.5,2.1 2.3,5.3 0.5,0.7 0.1,0.7 -0.4,0.6 -0.5,0.3 v 1.3 l -0.2,1.3 -0.2,1 0.6,0.9 1.1,-0.3 1.1,-0.8 1.2,0.8 0.3,1.7 1.7,1.3 -0.4,2.6 0.9,2.1 1.2,2 0.8,2.3 1.6,1.8 2.1,0.3 1.9,-0.5 0.8,0.1 1.3,0.7 0.4,0.8 0.7,0.2"/>
  <path class="rBoundaries" id="10m_admin_1_states_provinces_lines_shp.6460" d="m 406.1,589.1 3.6,-1.2 1.9,1 1.6,1 2.6,2.5 2,-1.1 -0.8,-3.8 0.4,-3.7 1.8,-1.9 1.5,-2.2 -0.2,-2.2 -0.5,-2.3 -0.1,-2.3 -0.9,-3 -0.1,-1 -1.3,-2 3.2,-9.7 0.1,-5.3 -2.9,-9.3 2.3,-1.5 2.5,0.2 4.9,-0.5"/>
  <path class="rBoundaries" id="10m_admin_1_states_provinces_lines_shp.6461" d="m 259.5,435.2 -1.5,2 0.1,3.1 1.4,0.6 2,-1.2 2.7,-0.6 2.7,-0.3 1.3,0.2 1.1,0.8 -0.1,1.6 -1.6,1 -2.1,2.6 -0.6,3.1 1.1,3.2 2.4,2.1 h 1 l 1.2,1 5.8,2.8 3.3,1"/>
  <path class="rBoundaries" id="10m_admin_1_states_provinces_lines_shp.6462" d="m 360,530.1 -5,4.7 -1.7,3.5 -1.6,7.2 -2.4,2.4 -1.9,0.3 -1.9,-0.4 -1.7,-0.1 -0.6,0.1"/>
  <path class="rBoundaries" id="10m_admin_1_states_provinces_lines_shp.6463" d="m 343.2,547.8 v -1 l -0.1,-1.1 -1.5,-4.2 -0.3,-3.1 0.3,-9.4 -0.4,-3.8 0.1,-1.3 0.8,-2.8 1.9,-4.1 0.1,-0.7 v -3.2 l 0.1,-0.8 0.6,-1.7 0.3,-3.8 0.9,-2.7 0.3,-1.3 -0.1,-1.5 -0.2,-0.6 -1.1,-2.6 -0.2,-0.6 -1.9,-0.6 -1,-0.5 -0.2,-1.3 -0.8,-1 -1.1,-0.9 -2,0.2 -3,1.2 -3.7,0.7 -0.9,-1.4 -0.3,-1.4 -1,-1.3 -1.6,-4.1 -1.9,-1.6 -1.5,-0.2 -2.8,0.7 -1.7,-0.1 -2.1,-2.4 -2.4,-1.6 -1.1,-0.9 -0.8,-1.3 -1.4,0.3 -1.5,0.9 -3.4,1.4 -3.3,0.1 -1.9,-2.5 0.8,-3.2 -0.5,-1.7 -2.4,-0.8 0.3,-1.4 -1.2,-0.8 -1.5,0.3 -1.3,-0.7"/>
  <path class="rBoundaries" id="10m_admin_1_states_provinces_lines_shp.6464" d="m 403.2,508.2 -2.5,-2.2 -3.6,-0.2 -2.6,1.4 -2.4,1.8 -2.3,0.8 -1.3,1.2 -4.2,5.5 -3.7,3.4 -6.1,4.2 -2.8,3.4 -3.2,2.5 -1.9,-0.9 -1.1,-1.7 -0.5,-0.4 -0.4,-1.1 v -0.6 l -0.2,-0.6 -2.4,1.5 -2,3.9"/>
  <path class="rBoundaries" id="10m_admin_1_states_provinces_lines_shp.6465" d="m 488.7,351.9 4.3,2.1 3.6,2.6 1.1,5 3.5,3.6 4.8,0.9 5,-0.1 1.3,-0.2 1.1,-0.5 2.3,-0.6 2,1.3 1.4,1.7 -0.4,2.1 -1.1,2.5 -3.1,4.2 -1.7,1.7 -2.7,0.8 -1.8,2.6 -1.8,2.2 -1.3,3.1 1.5,3.6 1.7,2.4 0.6,3.1 -0.5,3.5 1.6,3.1 6.1,3.2 4.5,1.2 h 6.9 l 6.8,-1.1 4.6,-1.4 4.6,0.1 8.6,3.6 4,2.5 2.7,3.8"/>
  <path class="rBoundaries" id="10m_admin_1_states_provinces_lines_shp.6466" d="m 365.3,410.1 -0.6,2.5 -1.8,4.7 3.5,6.3 0.3,4.8 -1.1,10.7 -0.9,2.3 -1.3,2.1 -0.9,3 -0.1,3 0.6,0.2 1.8,-0.7 2.5,-1.6 1.4,-1.3 0.5,-0.2 0.1,-0.4 3.8,-2.3 14.8,-5 2.5,-0.2 12.9,1.1 10.3,-1 1.3,0.1 0.9,0.2"/>
  <path class="rBoundaries" id="10m_admin_1_states_provinces_lines_shp.6468" d="m 481.4,331.4 2.9,4.3 3.5,3.6 2.8,3.9 -0.3,4.5 -1.6,4.2" sodipodi:nodetypes="cccccc"/>
  <path class="rBoundaries" id="10m_admin_1_states_provinces_lines_shp.6469" d="m 412.8,344.1 2.1,-0.9 1.1,1.9 1.7,0.9 2.4,-0.2 1.8,1.5 1.2,0.1 3.7,1.1 2.6,-1.1 2.8,-5.2 4.5,-0.7 2.4,2.2 0.7,1.7 -0.1,1.9 2.4,1.9 2.9,1.7 0.7,8.6 1.9,7.1 5.9,-3.2 4.2,-5.9 1.9,-1.8 2.4,0.9 6.6,1.8 3,3.8 1.4,1.4 1,1.6 1.8,1.8 2.9,-0.4 3.1,-3.1 2.3,-4.1 1.9,-4.4 2.7,-3.1"/>
  <path class="rBoundaries" id="10m_admin_1_states_provinces_lines_shp.6472" d="m 365.3,410.1 -0.6,0.1"/>
  <path class="rBoundaries" id="10m_admin_1_states_provinces_lines_shp.6473" d="m 401.5,393.4 -2.6,4.1 -3.2,3.6 -9.4,4.6 -10.4,2.8 -10.6,1.6"/>
  <path class="rBoundaries" id="10m_admin_1_states_provinces_lines_shp.6475" d="m 407.8,362.6 0.3,7.2 -3.4,14.8 -3.2,8.8"/>
  <path class="rBoundaries" id="10m_admin_1_states_provinces_lines_shp.6477" d="m 407.8,362.6 0.2,-4.5 1.7,-7.9 1.3,-2.4 0.9,-0.2 0.9,-0.6 0.2,-1.4 -0.2,-1.5"/>
  <path class="rBoundaries" id="10m_admin_1_states_provinces_lines_shp.6478" d="m 389.7,345.1 7,-0.8 2.1,0.1 2,0.3 1.8,0.8 1.6,-1.2 2.4,-3.2 2.6,1 1.3,2.5 2.3,-0.5"/>
  <path class="rBoundaries" id="10m_admin_1_states_provinces_lines_shp.6479" d="m 407.8,362.6 -1.8,1 -2,-0.5 -1.1,-3.4 -3.8,-1.8 -4.3,-0.8 -3.3,-1.2 -2.5,-0.1 -5.8,3.6 -3.8,0.2"/>
  <path class="rBoundaries" id="10m_admin_1_states_provinces_lines_shp.6483" d="m 364.7,410.2 -2.7,0.4 -2.7,-0.3 -4.5,0.2"/>
  <path class="rBoundaries" id="10m_admin_1_states_provinces_lines_shp.6487" d="m 219.5,483.2 -5.8,-15.5 -0.4,-3.8 0.8,-3.3 0.6,-8.8 3.4,-4.4 2.8,-1.4 2.3,-2 1.7,-5.9"/>
  <path class="rBoundaries" id="10m_admin_1_states_provinces_lines_shp.6488" d="m 385.4,646.2 5.3,-15.5 2.8,-3.1 0.9,-1.8 0.7,-2 1,-1.5 0.5,-1.7 v -2 l -0.3,-2 v -2 l -0.5,-1.9 -0.8,-1.4 0.6,-1.1 0.7,-3.3 -0.9,-8.2 -2.8,-2.5 -2.1,-0.5 -3.7,-1.9 -1.5,-1.3"/>
  <path class="rBoundaries" id="10m_admin_1_states_provinces_lines_shp.6489" d="m 385.3,592.5 -3.1,0.6 -3,1 -6.6,-1.4 -3.4,0.4 -3.3,0.8 -2.8,1.7 -0.9,3.1 -2.9,5.8 -2.9,0.9 -3.2,-1.4 -5.7,1.6 -4.9,3.9"/>
  <path class="rBoundaries" id="10m_admin_1_states_provinces_lines_shp.6490" d="m 432.8,633.7 -3.9,-3 -4.1,-2.3 -2.5,-3.8 -3.6,-2.6 -2.8,-0.4 -2,1.4 0.5,5 -1.8,4 -0.1,1 1.8,0.5 0.8,1.4 -0.5,1.4 -2.1,1.4 -3.7,-0.5 -3.3,0.9 -0.2,1.5 0.8,1.3 0.1,1.4 -1,4.6 -0.3,3.2 0.5,3.4 -0.5,3.3 -2.4,2.4 -1.6,2.6 1,3.6 -0.5,1.3 -0.2,1.2 1.6,2.9 0.5,3.1"/>
  <path class="rBoundaries" id="10m_admin_1_states_provinces_lines_shp.6491" d="m 279.7,458.2 -1.3,2.1 -1.8,0.7 -2,-0.9 -1.9,1 -0.8,1.4 -0.9,1.2 -1.9,1.1 -3.2,3.4 -0.9,2.1 -1.4,7 -4,9.4 -7.7,6.4 -4.1,-1.6 -1.6,-5.1 -1.8,-3.5 -3.7,-1.1 -5.2,0.3 -8.1,-0.6 -2.7,0.1 -5.2,1.6"/>
  <path class="rBoundaries" id="10m_admin_1_states_provinces_lines_shp.6492" d="m 295.6,471.6 -1.3,2.3 -1.7,1.9 -0.9,0.5 -2,0.4 -1,0.9 -0.7,2.5 2.2,1.5 0.4,1.2 -0.8,1.6 0.3,2.3 0.4,1 0.3,1.7 -0.7,2.4 -1,1 -1.2,0.8 -1.8,1.6 -1.6,1.8 -0.1,0.9 0.2,0.8 -3.4,7.6 -0.4,1.8 -1,1.3 -2,2 -0.9,2.7 -0.1,2.5 1,2.3 0.3,0.9 -0.3,0.6 -0.4,0.2 -0.3,0.5 v 1.1 l -1.6,0.4 -0.7,1.9 -0.9,4.6 -0.3,1 -1.1,1.8 -0.8,0.5 -1.2,0.4 -2.4,-0.5 -0.9,-0.8 -2.1,-0.2 -3.6,2.9 -1.6,0.3 -2,-4.9 0.8,-2 1.2,-1.9 -3.4,-2.6 H 236 l -1.2,0.5 -0.9,1 v 1.8 l -1.2,1.6 -1,2 -2.6,2.5 -2.3,2.8 -0.8,1.6 -0.3,2.4 -0.2,1 v 2.3 l 0.3,0.6 0.7,0.3 1.2,2 1.3,3.8 -1.7,3.9 -1.2,1.8 -0.6,2.2 -1,1.8 -1.8,1 -1.6,0.5 -1,1.6 -0.4,2.1 -0.5,1 -0.4,0.5"/>
  <path class="rBoundaries" id="10m_admin_1_states_provinces_lines_shp.6493" d="m 218.8,565.7 -0.2,0.5 0.4,0.7 1.5,0.9 1.8,1.5 1.5,1.8 0.2,1 0.7,0.3 h 0.9 l 0.9,0.4 0.8,0.6 1.3,2.1 v 2.3"/>
  <path class="rBoundaries" id="10m_admin_1_states_provinces_lines_shp.6494" d="m 295.6,471.6 -4.6,-4.9 -3.6,-5.7 0.4,-2.9 -2.2,-0.9 -5.9,1"/>
  <path class="rBoundaries" id="10m_admin_1_states_provinces_lines_shp.6495" d="m 218.8,565.7 v -0.2 l -0.2,0.3 0.2,-0.1"/>
  <path class="rBoundaries" id="10m_admin_1_states_provinces_lines_shp.6496" d="m 219.5,483.2 v 3 l -3.6,1 -3.2,1.6 -1.3,3.4 -0.6,3.5 v 5.6 l -0.2,1.9 0.2,1.7 -0.2,1.6 -0.8,0.6 -2,-0.2 -0.9,-0.4 -3.7,-2.4 -2.7,-1.2 -2.9,0.9 -3.1,2.4 -2,3.4 -0.6,1.9 -1.1,1.6 -2.9,1.5"/>
  <path class="rBoundaries" id="10m_admin_1_states_provinces_lines_shp.6497" d="m 432.8,633.7 3.4,0.6 1,-2.6 -3.6,-6.7 -1.7,-7.7 0.7,-4.1 -1.3,-3.4"/>
  <path class="rBoundaries" id="10m_admin_1_states_provinces_lines_shp.6498" d="m 431.3,609.8 0.3,-1.8 0.7,-1.8 1.2,-1.3 0.9,-1.5 -0.2,-1.7 0.1,-1.7 1,-1 2.6,-4 0.9,-3.2 -1.2,-2.3 0.8,-1.9 3,-0.9 2.7,0.8 1.5,3.3 1.9,-0.1 1.3,-1.3 3.4,-1.6 1.2,-1.4 0.9,-1.6 h 2 l 2.1,1 1.2,-2 1.4,-5.5 1.4,-2.2 1.6,-2.1 4.2,-4.2 0.6,-5 -1.4,-2.2 0.6,-2.4 4.5,-2.6 -0.2,-2.3 -1.6,-1.9 -0.7,-2 -0.4,-2.3 -1.2,-1.4 -0.3,-0.9 -0.5,-0.7 -1.1,-0.6 -0.9,-0.8 -2.8,-3.2 -1.1,-4"/>
  <path class="rBoundaries" id="10m_admin_1_states_provinces_lines_shp.6499" d="m 432.8,633.7 -2.1,2.3 1.2,3.1 0.8,1.4 1.5,1.1 4.3,-0.7 1.9,0.5 3.3,2 1.2,1.4 -0.5,9 1,4 1.9,3.7 2.7,3.7 8.6,9 2.8,2.1 0.9,0.1"/>
  <path class="rBoundaries" id="10m_admin_1_states_provinces_lines_shp.6500" d="m 338,607.4 0.3,-3.1 0.4,-2 0.8,-1.9 1.4,-2.5 2.9,-3.9 0.3,-0.6 0.1,-0.7 -0.1,-1.3 0.1,-0.7 0.9,-3.7 -0.2,-3.8 0.3,-1.7 1.4,-1.2 1,-0.3 0.7,-0.4 0.6,-0.6 0.2,-0.9 0.3,-3.3 -0.2,-1 -0.3,-1 -1,-1.8 -0.3,-1 -0.3,-2.9 -1.3,-3.6 -0.4,-4 -2.1,-7.2 -0.3,-2.2 v -2.3"/>
  <path class="rBoundaries" id="10m_admin_1_states_provinces_lines_shp.6501" d="m 343.2,547.8 -2.3,2.8 -2.1,0.7 -2.6,-0.5 -2.6,0.1 -4.4,1.9 -9,5.3 -6.9,2.9 -1.9,1.2 -3.1,3.8 h -2.1 l -1.4,-2.4 -1.9,-1.9 -2.5,-0.3 -1.7,1.6 -1,2.1 -0.3,2.6 2.4,4.1 0.2,2.5 0.9,2.9 2.2,3.7 4.4,4 1.4,0.3 1,0.9 v 2.8 l -0.9,2.8 -3,3.5 -4.1,3.1 -3,3.5 -3.8,2.7 -7.2,1.6 h -1.3 l -1.2,-0.4 -0.1,-1.2 0.3,-0.8 -0.4,-0.9 -0.8,-0.7 -0.4,-0.8 1.6,-2.6 0.3,-2.7 -2,-1.5 -2.5,-1.4 -4,-4.3 -8.6,-4.7 -4.5,0.2 -4.1,2.5 -0.4,1 -0.7,0.6 -0.8,-0.2 -1.3,-0.5 -2.8,-2 -2.8,-0.2 -2.2,0.4 -4.7,-0.3 -0.8,1.8 0.4,2.4 -4.2,3.7 -1.3,0.5 -1.5,-1.1 -0.6,-3.8 0.7,-4.9 -3.5,-4 -5.1,-2.4"/>
  <path class="rBoundaries" id="10m_admin_1_states_provinces_lines_shp.6502" d="m 329.7,631.6 0.2,1.6 -1.2,0.7 -9.5,1.4 -1.2,0.4 -1.4,1 -0.6,0.7 -0.6,0.6 -0.4,0.8 -0.1,0.9 v 1 l -0.2,0.4 -1.3,0.4 -3.1,-0.1 -1.4,0.5 -0.6,1.8 0.2,0.8 0.7,1.1 0.1,0.6 -0.3,0.8 -0.9,0.4 -1.8,0.6 -0.6,0.4 -0.4,0.5 -0.5,0.4 -1,0.2 -0.8,-0.1 -1,-0.3 -0.8,-0.1 -0.7,0.2 -2.1,2.9 -1.2,0.7 -1.9,-0.3 -1.6,-0.6 -1.5,-0.9 -2.5,-2.2 -1,0.4 -2.4,3.4 -2,1.1 -2.2,0.4 -1.4,-0.3 -1.4,0.5 -1.3,0.6 -1.4,0.4 -2.5,1.8 -2.7,1.4 -1.1,-0.1 -1.3,0.2 -1.8,-0.2 -1.4,-1.1 -3.7,-2 -3.4,-1.2 -2.8,-1.8 -2,-1.7"/>
  <path class="rBoundaries" id="10m_admin_1_states_provinces_lines_shp.6503" d="m 228.6,577.8 -8.2,19.8 v 0.1"/>
  <path class="rBoundaries" id="10m_admin_1_states_provinces_lines_shp.6505" d="m 603.9,385.5 -3.6,4.2 -1.7,2.6 -3.8,4.6 -2,1.8 -5.3,2.9 -4.8,3.4 -4.3,4.3 -4.7,3.6 -5.3,1.5 -5.6,0.4 -3.9,-0.3" sodipodi:nodetypes="cccccccccccc"/>
  <path class="rBoundaries" id="10m_admin_1_states_provinces_lines_shp.6506" d="m 558.9,414.5 -2,3.2 -3,1.9 -2.1,0.1 -2.1,-0.3 -2.2,-0.6 -2.1,-0.4 -1.7,-0.9 -3.6,-1.2 -1.8,0.7 -1.2,1.7 -0.8,1.9 -0.3,2.2 3.9,4.9 0.2,3.8 -0.1,1.3 0.6,1.3 0.2,2 -1.5,1.3 -10.6,7 -2.6,2.2"/>
  <path class="rBoundaries" id="10m_admin_1_states_provinces_lines_shp.6511" d="m 427.7,540.8 2.4,5.1 5,3.1 3.2,-4.4 0.8,-6.2 1.1,-2.4 3.1,-0.4 h 2.9 l 2.8,-0.7 2.8,-3.6 1.7,-0.4 1.7,0.1 0.8,-1.2 0.3,-0.8 1.4,0.1 0.8,1.2 0.6,2.9 0.9,2.4 1.7,1.9"/>
  <path class="rBoundaries" id="10m_admin_1_states_provinces_lines_shp.6512" d="m 403.2,508.2 0.7,3 2.8,5.8 2,2.5 2.5,2.3 2.7,2 2.8,1.4 3,-0.4 2.2,-1.6 2.6,-0.7 3,1.5 1.9,2.9 0.8,3.5 v 3.6 l -2.5,6.8"/>
  <path class="rBoundaries" id="10m_admin_1_states_provinces_lines_shp.6513" d="m 403.2,508.2 2.8,1.4 3.1,2.6 2.4,1 1.9,-0.6 0.2,-3.3 1.2,-2.9 9.8,-5.3 3,-5 1.3,-5.9 0.2,-2.3 0.9,-2.2 1.4,-2.5 -1.8,-1.3 -2.8,0.3 -2.4,-1.2 -0.8,-2.9 -1.2,-8.8 0.2,-8.4 -0.3,-2.7 -1.5,-2.6 -2.1,-2.2 -2.2,-3.2 -0.9,-3.7 -0.2,-3.9 0.4,-4.2"/>
  <path class="rBoundaries" id="10m_admin_1_states_provinces_lines_shp.6514" d="m 415.8,438.4 3.7,0.9 4.7,0.6 3.5,1.1 2.6,0.6 5.2,0.6 2.5,0.7 3.7,2.2 1.2,0.5 6.2,1 2,0.7 3.9,2.1 2.3,0.7 2.4,0.2 2.1,0.6 1.7,1.8 3.4,1.9 1.8,1.4 0.9,0.4 0.9,0.3 0.5,0.1 0.9,-1.2 -0.4,-2.6 -3.5,-7.5 -1.7,-5.3 1.2,-5.1 4.1,-3.5 9.7,-1.1 14.8,4.9 5.3,1.2 8.1,0.3 2.6,-0.3 v -0.4 l 14,10.4"/>
  <path class="rBoundaries" id="10m_admin_1_states_provinces_lines_shp.6515" d="m 461.7,537.5 2.4,-0.2 2.2,-1.2 2,-2.2 2.2,-1.6 2.9,0.1 2.9,0.4 h 3.2 l 3.2,-0.8 2.4,-1.4 1.3,-2 -0.7,-2.8 0.9,-2.4 4.8,-1.8 5,0.5 5.3,1.8 8.8,5.2 1.8,3.8 -0.7,4.4 1.4,1.2 2,0.4 4.2,-0.1 11.6,-2.1 6.4,3.2 8.8,10.3 2.1,3.8 1.4,2.4"/>
  <path class="rBoundaries" id="10m_admin_1_states_provinces_lines_shp.6516" d="m 526.1,446.6 -4,6 0.8,1.6 2.4,-0.5 4.9,-2.2 2.9,-0.6 11.3,-0.3 11.2,1.3 8.3,5.7 6.6,8.2 7.5,6.6 3.3,8.5 -2.9,8.8 -0.5,8.7 -3.3,2.9 -3.6,2.7 -3,3.7 -2.2,4.2 -2.5,12.8 0.3,4.7 -0.9,12.3 -1.7,7 v 0.1"/>
  <path class="rBoundaries" id="10m_admin_1_states_provinces_lines_shp.6520" d="m 187.9,514.6 -1.1,-1.4 -3,0.2 -1.3,0.4 -1.2,0.5 h -1.6 l -1.5,-0.5 -2.6,1.4 -2.1,-0.1 -0.4,-1.1 -0.2,-1.1 -0.7,-1.9 -0.9,-1.8 -2.4,-2.1 -3.4,0.2 -2.8,1.7 -2.9,0.4 -0.6,-3.3 -1.6,-3.1 -5.2,2.4"/>
  <path class="rBoundaries" id="10m_admin_1_states_provinces_lines_shp.6521" d="m 187.9,514.6 -1.6,9.6 -1.4,1.8 -6.6,4.8 -3.7,3.9 -1.8,4.8 v 2.3 l 1.1,1.9 1,0.7 2.3,0.7 1.2,0.2 3.8,0.1 3.2,-1.9 1.1,-1.7 1.9,-0.9 1.4,1.9 v 5.3 l 0.6,3.4 -0.2,1 -0.8,0.9 -1.2,0.4 -3.7,2.7 -2.4,0.3 -1.1,0.5 1.2,1.4 h 2.2 l 4.1,1.8 0.1,1.9 -1.1,1.4 -4.5,-0.3 -0.1,0.1"/>
  <path class="rBoundaries" id="10m_admin_1_states_provinces_lines_shp.6522" d="m 385.4,646.2 1.4,2.7 -0.3,3.5 -7.6,11.6 1,5.7 3,1 6,-1.3 h 2.8 l 2.8,1.1 3.9,0.1 4.9,3.3"/>
  <path class="rBoundaries" id="10m_admin_1_states_provinces_lines_shp.6523" d="m 342.6,609.5 -2.4,-0.2 -2.2,-1.9"/>
  <path class="rBoundaries" id="10m_admin_1_states_provinces_lines_shp.6524" d="m 342.6,609.5 -0.8,2.6 -2.3,11.5 0.5,1.6 2.6,0.2 2.6,-0.6 3.1,3.1 -0.6,5.3 -1.1,2.3 0.1,2.6 0.7,0.8 1.7,1.3 0.6,0.9 7.7,5.1 10.3,0.7 9.3,-0.9 3.9,1.1 2.3,-0.3 2.2,-0.6"/>
  <path class="rBoundaries" id="10m_admin_1_states_provinces_lines_shp.6525" d="m 329.7,631.6 6.8,0.6 2.1,2.6 0.3,0.3 0.1,0.3 v 0.5 l -0.2,0.4 -0.7,0.7 -0.1,0.2 -0.3,0.2 -1.4,0.3 -0.3,0.5 -0.2,0.8 -0.5,0.7 -2.4,3.1 -1.8,1.3 -1.6,1.5 -1,2.4 -0.4,3.3 -0.6,1.6 -1.3,0.6 -0.5,0.7 -0.5,1.5 -0.3,1.9 v 1.5 l 0.2,0.8 0.3,0.8 0.4,0.7 0.6,0.7 -1.3,1.4 -0.7,1.6 -0.2,1.1 -1.5,2.2 -0.8,2.5 -0.1,3 1.7,2.2 1,0.5 1.1,0.1 0.7,0.9 -0.4,1.3 0.8,2.3 2.2,-0.2 6.1,-2.3 4.6,2.9 0.5,2.6 1.2,2.4 2.1,1.6 2.4,1.1 0.8,1.1"/>
  <path class="rBoundaries" id="10m_admin_1_states_provinces_lines_shp.6526" d="m 406.1,682.3 0.1,-1.8 -0.7,-2.7 -1.3,-2.1 -0.9,-1.8"/>
  <path class="rBoundaries" id="10m_admin_1_states_provinces_lines_shp.6527" d="m 329.7,631.6 -1.2,-3.2 -0.1,-0.1 0.4,-0.3 0.7,-0.8 0.4,-0.4 1.4,-0.5 0.4,-0.2 1.4,-1.6 0.6,-0.8 0.3,-0.9 0.4,-2.1 0.2,-1.5 1.5,-3.3 1.9,-8.5"/>
  <path class="rBoundaries" id="10m_admin_1_states_provinces_lines_shp.6540" d="m 259.5,435.2 -7.9,0.3 -2.6,0.8 -1.6,1.8 -0.4,2.4 -0.9,1.7 -0.6,0.2 -0.7,-0.2 -3,0.5 -1.8,-0.4 -3,-0.2 -4.8,-3 -4.6,1.4 -1.5,-0.7 -0.4,-1.2 -0.8,-0.5"/>
  <path class="rBoundaries" id="10m_admin_1_states_provinces_lines_shp.6541" d="m 259.5,435.2 -0.5,-4.4 -5,-3 -2.9,-2.7 -0.8,-1.4 -1.2,-1.1 -1.1,-1.3 -2.2,-4.1 0.5,-2.4 8.4,-10.5 3.3,-2.9 2.9,1.1 3.7,3.6 7.4,2.8 7.2,1.7 10.2,0.5 8.1,1.8 2.4,-0.5 1.5,-1.8 0.7,-2.1 1.2,-7.6 3,-10.2 3.1,-4"/>
  <path class="rBoundaries" id="10m_admin_1_states_provinces_lines_shp.6542" d="m 187.5,437.8 4.8,-0.2 4.8,0.5 4.1,-0.9 1.9,-0.8 2,-0.5 0.1,0.5 0.6,-0.5 4.1,-0.4 2.9,-1.2 3,0.1 1.6,2.5 2.2,1.5 4.2,-0.6 1.1,0.3"/>
  <path class="rBoundaries" id="10m_admin_1_states_provinces_lines_shp.6543" d="m 187.5,437.8 0.6,2.5 -0.2,2.5 -0.6,0.9 -0.4,0.5 -1.6,0.3 -1.3,0.5 -1.4,0.8 -1.2,1 -0.2,-0.2 -0.6,0.5 -0.4,0.7 -0.4,0.4 -2.2,1.5 -1.5,1.6 -3,-0.6 -2.7,-4.3 -2,-1.8 -2.3,-0.9 -1.5,1.6 -1.4,1.9 -0.8,0.6 -0.7,0.7 0.1,1.6 -3.7,2.7 -5,-1.3 -1.2,3.3 -0.3,4.8 -0.3,2.2 -0.7,2 -1.2,1.9 -0.1,2.1 1.5,1.7 2,1.2 1.6,2.1 1.2,2.3 1.4,1.7 0.4,2.1 -5,26.5"/>
  <path class="rBoundaries" id="10m_admin_1_states_provinces_lines_shp.6544" d="m 152.4,505.4 -2.2,0.4 -2.2,0.2 -2.3,0.8 -2.1,1.3 -4.5,1.2 -9,1.1 -4.5,-0.2 2,-3.4 2.7,-3.7 -0.8,-4.3 -0.5,-1.1 -0.2,-1.1 v -1.4 l -0.5,-1.3 -2.1,-1.2 -2.1,-1.5 -0.2,-1.3 v -4.1 l -2.5,-3.6 -7.3,-0.1 -2.3,0.9 -2.1,1.2 -2.1,-1.2 -1.3,-3.6 -2.7,-2 -3,2 -3,7.3 -2.9,2.5 -4.1,0.2 -4.1,-1.4 -5.1,-4.6 -3.3,-6 -2.4,-3.1 -3.1,-2.5 -1.4,-3.8 -0.1,-1.6 2.7,-7.4 -0.5,-6.5 -2.7,0.1 -1.1,3.2 -0.7,3.8 -2.1,-0.3 -1.2,-4 -0.4,-8.2 -1.9,-3.5 -7.1,-0.2 -6.3,4.4 -0.5,0.3"/>
  <path class="rBoundaries" id="10m_admin_1_states_provinces_lines_shp.6545" d="m 187.5,437.8 -1.2,-0.8 -1.2,-0.2 -0.9,-1.5 -2.1,-6.9 -2.7,-4.3 -1.9,-1.2 -1.7,-1.6 -2.7,-3.8 -2.5,-9.8 -2.6,-3.9 -6.5,-14.4 -1,-4.4 1,-4.5 1.6,-1.5 1.2,-1.9 1.8,-1.9 2.5,-1.4 2.5,-3.5 -1.3,-2.8 -3.6,2.1 -2,0.1 -5.4,-1.2 -8.7,-3.1 -3.2,-1.7 -2.8,-2.4 -1.7,-3.2 -2.1,-2.7 -3.4,-1.5 -3.5,0.3 -3.3,2.4 -1.8,3.6 -0.8,4.8 -1.4,1.5 -1.7,1.2 -15.1,7.6 -3.1,2.3 -3,1.5 -3.3,2.5 -8.6,3.8 -1,0.2 -0.8,-0.9 -0.8,-0.4 -0.6,-0.8 -1.2,-0.3 -1.2,0.2 -1.7,0.5 -1.5,0.9 -3.1,2.6 -1.4,0.9 -1.2,0.9 -0.5,0.8 -1.7,0.6 -4,3.3 -1.4,1.6 -1.7,1.2 -5.8,1.3 -1.5,-0.1 h -1.4 l -3.8,3.3 -0.6,0.4"/>
  <path class="rBoundaries" id="10m_admin_1_states_provinces_lines_shp.6546" d="m 52.2,552.3 h 0.5 l 2.4,0.2 2.5,-0.2 1.9,0.6 1.8,-0.1 2,-1.3 1.4,-1.6 v -1 l 0.8,-0.4 16,0.7 4.3,-0.6 1.1,-1.2 0.7,-3.6 1.1,-1.5 1.2,-1.2 1,-3.8 0.5,-1 2.3,-0.9 1.7,0.5 3.3,1.7 1.8,2.2 2.6,0.1 1.4,-0.3 0.9,-1.2 0.2,-1.1 0.7,-0.6 42.8,-0.3 4.4,1.2 -0.8,1.9 -1.8,1.4 -0.6,1.8 0.8,1.8 v 0.9 l 2.1,1.7 2.2,-1.1 2.3,-1.5 2.4,-0.5 2.1,0.7 0.7,1.6 -0.7,1.5 -4.2,2.4 0.1,1.8 1.7,1 2.1,0.6 1,0.9 1.3,0.8 1.7,-0.4 4.1,0.1 2.1,0.7 0.1,2 -0.3,2 v 0.2"/>
  <path class="rBoundaries" id="10m_admin_1_states_provinces_lines_shp.6549" d="m 354.8,410.5 -1,2.9 -2.1,2 -1.5,0.5 -1.2,1.2 0.1,1.6 -0.3,1.2 -1,-0.6 -1,0.8 -0.8,1.8 -0.5,1.9 -1.2,1.3 -0.2,-0.5 -1.1,-0.9 -0.1,-0.4 -0.9,-0.5 -2.8,-2.9 -2.8,-4.6 -0.9,-0.9 -7.2,-5.5 -0.6,-0.3 -1.7,-3.4 -0.9,-3.5 -0.2,-2.2 -0.2,-0.6 -0.7,-0.7 -0.1,-0.6 -1.2,-2.3 -0.1,-0.6 -0.1,-1.3 -1.8,-3.1 -0.9,-0.9 -1.2,-0.6 -1.5,-0.3 -2.7,-1.8 -0.5,-0.5 -1.3,-0.1 -3.2,0.6"/>
  <path class="rBoundaries" id="10m_admin_1_states_provinces_lines_shp.6550" d="m 389.7,345.1 -1.7,-0.4 -1.9,0.6 -0.4,-1.2 0.8,-2.2 0.1,-1.1 -1.2,-1.6 -1,-0.6 -1.5,-2.2 0.7,-2.8" sodipodi:nodetypes="cccccccccc"/>
  <path class="rBoundaries" id="10m_admin_1_states_provinces_lines_shp.6551" d="m 379.4,359.6 -0.4,0.2"/>
  <path class="rBoundaries" id="10m_admin_1_states_provinces_lines_shp.6552" d="m 389.7,345.1 -10.3,14.5"/>
  <path class="rBoundaries" id="10m_admin_1_states_provinces_lines_shp.6553" d="m 364.2,349.9 4.4,1.3 6.9,6.6 3.5,2"/>
  <path class="rBoundaries" id="10m_admin_1_states_provinces_lines_shp.6554" d="m 354.8,410.5 -3.3,-0.4 -1.8,-3.1 -0.5,-1.3 -0.7,-52.4 0.4,-2.1 1.8,-0.8 13.5,-0.5"/>
  <path class="rBoundaries" id="10m_admin_1_states_provinces_lines_shp.6556" d="m 309.4,386.7 -4.1,0.8 -0.5,-0.2 -2.3,-2.1 -1,-0.4 -1.2,-0.2 -8,0.1 -1.8,0.4 -2.4,1.1 -0.8,0.1 h -1.1 l -3.3,-0.5 -3.9,0.1 -0.8,-0.3 -0.5,-0.5 -0.8,-1.4 -1.1,-1.4 -0.9,-1.5 -0.6,-0.1 -1.6,-0.6 -0.6,-0.1 -4.2,-0.1 -1.2,-0.4 -1,-0.8 -0.2,-0.4 -0.7,-1.2 -0.6,-0.8 -0.6,-0.7 -1.6,-1.3 -1,-1.3 -0.4,-0.3 -1,-0.6 -1,-0.3 -1,-0.2 -2.3,-0.2 -0.9,-0.2 -0.9,-0.4 -0.9,-0.7 -1.4,-1.3 -0.7,-0.6 -0.9,-0.5 -1.1,-0.2 -4.9,0.3 -7,-1.2 -1.1,-0.3 -0.9,-0.6 -0.5,-1 -0.1,-0.8 0.1,-0.8 -0.1,-0.8 -0.3,-0.7 -1.3,-1.4 -1.2,-1.6 -1.1,-0.8 -3.8,-1.8 -2.5,-1.7 -1.3,-0.6 -0.1,-0.4 -1.8,-0.8 -1,-0.2 h -1 l -4.7,1.5 -3.3,1.8 -3,0.9 -2.2,0.2 -2.1,-0.7 -1.3,-1.4 -0.1,-2.2 0.3,-2.2 v -2 l -0.9,-1.5 -2.1,-0.7 -3.7,-0.6 -1.1,-0.5 -1.1,-0.8 -0.7,-1 -0.2,-1.2 v -1.4 l -0.1,0.1 h -0.1 l -0.1,0.1 0.1,-1.5 -0.2,-2.7 -0.1,-0.5 -6.4,-1 -5.4,0.7 -2.5,-4.1" sodipodi:nodetypes="ccccccccccccccccccccccccccccccccccccccccccccccccccccccccccccccccccccccccccccccccccccccc"/>
</g>
<g inkscape:groupmode="layer" inkscape:label="iBoundaries" id="layeriBoundaries" transform="translate(-0.93673003,-333.98297)">
  <path class="iBoundaries" id="10m_admin_0_boundary_lines_land.109" d="m 51.7,560.1 v -4.5 l 0.8,-4.8 1.6,-4.7 0.2,-1.5 -0.7,-3.1 0.1,-1.5 0.8,-1.6 1.3,-1.2 0.9,-0.6 0.4,-0.8 -0.2,-3.4 -0.2,-0.7 -0.4,-0.4 h -0.9 l -0.7,-0.3 -0.7,-0.4 -0.5,-0.8 -0.4,-1.4 0.2,-1.6 0.8,-3.1 -0.4,-3.1 -1,-2.8 -0.2,-2.6 1.9,-2.7 0.8,-0.4 1,-0.2 0.7,-0.4 0.3,-0.8 -0.4,-0.7 -1.9,-1.6 -0.7,-0.8 -0.2,-1 v -0.5 l 0.4,-0.5 0.6,-1.3 0.6,-0.8 0.3,-0.7 v -1 l -1.5,-18.1 0.2,-0.8 0.5,-0.3 h 0.8 l 1.6,0.3 0.2,-0.1 0.1,-0.4 0.1,-0.7 0.2,-3.1 -1.6,-2.6 -2.1,-2.6 -1.5,-2.8 -0.4,-2.8 0.9,-12.3 -0.2,-1.1 -0.7,-1 -1.8,-2 -0.8,-2.1 -0.6,-0.9 -0.1,-0.6 0.2,-0.6 0.8,-1.4 0.2,-0.6 0.3,-4.6 0.9,-4.7 0.2,-4.4 0.2,-1.3 0.6,-1.3 0.7,-1.2 0.6,-1.3 v -1.6 l -0.5,-1.6 -1.4,-3.1 -0.6,-1.6 -0.2,-1.7 v -1.4 l 0.6,-3.1 v -0.7 l -0.2,-1.3 v -0.7 l 0.4,-0.9 1.5,-1.6 0.6,-0.9 0.6,-2.5 -1.7,-20.1 0.1,-0.7 0.4,-0.6 1.2,-0.6 0.4,-0.4 0.1,-0.6 -0.4,-1.1 -0.1,-0.7 0.3,-1.1 0.9,-2.1 0.1,-1.1 -0.3,-0.5 -0.4,-0.2 -0.3,-0.1 -0.1,-0.6 0.2,-0.2 0.8,-1.2 0.2,-0.5 0.4,-2 0.2,-4.6 -0.3,-2 5.7,0.5 1,-0.1 0.7,-0.6 0.6,-0.6 0.8,-0.5 0.8,-0.2 h 2.2 l 0.8,0.1 0.8,0.3 0.8,0.5 0.7,0.4 h 0.8 l 5.1,-1.3 1.8,-1.3 1.1,-2.3 2.4,-7.5 1.5,-2.8 0.5,-1.6 V 341 l -0.3,-1.2 -0.9,-2.4 -0.5,-2 0.3,-2 1.4,-2.3 0.6,-0.4 1.1,-0.4" sodipodi:nodetypes="cccccccccccccccccccccccccccccccccccccccccccccccccccccccccccccccccccccccccccccccccccccccccccccccccccccccccccccccccccccccccccccccccc"/>
  <path class="iBoundaries" id="10m_admin_0_boundary_lines_land.225" d="m 602.5,522.6 -1.5,-1.2 -0.8,-1.5 -1,-5.4 -0.6,-1.2 -1,-0.2 -1.8,1 -17.9,15.2 -1.7,0.7 -1.5,-0.4 -1.4,-0.7 -1.7,-0.1 -1.4,1.5 -5.6,17.8 -1,0.7 h -3.5 l -2.2,0.5 -1,0.9 -1.8,3.2 -1.1,1.2 -1.5,0.7 -3.4,1.2 -2.2,1.4 -2.2,4.3 -2,1.2 -1.2,0.1 -0.9,-0.1 -0.9,0.1 -1,0.5 -1,1.2 -2.1,4.4 -1.9,2.6 -10,8.1 -6.8,7 -1.6,2.3 -0.9,1 -1.2,0.6 -0.4,0.5 -0.1,2.1 -0.3,0.9 -1.3,0.2 -1.6,-0.6 -1.6,-0.2 -1.2,1.2 -1,1.2 -2.6,1.8 -0.8,1.2 0.2,1.5 0.8,1.1 0.6,1.3 -0.3,1.9 -1.3,1.5 -1.3,1 -0.6,1 1,1.9 1.5,1.4 1.6,1.3 1.4,1.4 0.7,2 -0.3,1.8 -1.1,1.4 -1.4,1.3 -1.1,1.4 -0.4,1.6 0.1,1.5 0.2,1.4 0.1,1.5 -0.5,1.7 -1.6,3.1 -0.5,1.8 0.1,0.9 0.6,1.8 0.1,0.8 -2,9.9 -0.5,1 -0.8,0.3 -0.8,0.2 -0.8,0.4 -0.8,0.7 -1.4,2.2 -0.5,1 -1,3.2 -0.7,1.5 -1.1,1.5 -2.9,4.5 -0.4,1.4 -2.1,1.4 -0.6,1.2 0.2,1.5 0.3,1 0.2,1.1 -1.2,1.2 h -1.2 l -1,0.7 -0.5,1.1 -0.3,2.1 -0.3,3.2 -1.2,2.1 -1.7,1.3" sodipodi:nodetypes="ccccccccccccccccccccccccccccccccccccccccccccccccccccccccccccccccccccccccccccccccccccccccccccccccccc"/>
</g>
<g inkscape:groupmode="layer" inkscape:label="lake" id="layerlake" transform="translate(-0.93673003,-333.98297)">
  <path class="lake" id="10m_lakes.793" d="m 40.1,554.9 0.6,1 0.2,1 -0.9,0.5 -1.9,0.3 -2.9,1.1 -2.2,0.2 -1,-0.2 -1.4,-0.7 -1.1,-0.1 -1.8,0.1 v -0.5 l 0.1,-2.3 0.2,-1 0.5,-0.6 1,-0.2 1.1,-0.4 1.1,-0.8 1,-0.6 1.1,0.2 0.5,0.3 0.9,0.4 1.1,0.1 1,-0.2 0.7,0.3 0.6,0.5 0.7,0.6 z"/>
</g>
<g inkscape:groupmode="layer" id="layer4" inkscape:label="text">
  <switch style="font-weight:bold;font-stretch:semi-condensed;font-size:26px;line-height:125%;font-family:'DejaVu Sans';-inkscape-font-specification:'DejaVu Sans, Bold Semi-Condensed';letter-spacing:0px;word-spacing:0px;fill:#000000;stroke:none;stroke-width:1px;stroke-linecap:butt;stroke-linejoin:miter;stroke-opacity:1"><text xml:space="preserve" style="font-weight:bold;font-stretch:semi-condensed;font-size:26px;line-height:125%;font-family:'DejaVu Sans';-inkscape-font-specification:'DejaVu Sans, Bold Semi-Condensed';letter-spacing:0px;word-spacing:0px;fill:#000000;stroke:none;stroke-width:1px;stroke-linecap:butt;stroke-linejoin:miter;stroke-opacity:1" x="280.47488" y="141.21759" id="text11418"><tspan sodipodi:role="line" id="tspan11416" x="280.47488" y="141.21759">NIGERIA</tspan></text></switch>
  <switch style="font-weight:bold;font-stretch:semi-condensed;font-size:16px;line-height:125%;font-family:'DejaVu Sans';-inkscape-font-specification:'DejaVu Sans, Bold Semi-Condensed';letter-spacing:0px;word-spacing:0px;fill:#000000;stroke:none;stroke-width:1px;stroke-linecap:butt;stroke-linejoin:miter;stroke-opacity:1"><text xml:space="preserve" style="font-weight:bold;font-stretch:semi-condensed;font-size:16px;line-height:125%;font-family:'DejaVu Sans';-inkscape-font-specification:'DejaVu Sans, Bold Semi-Condensed';letter-spacing:0px;word-spacing:0px;fill:#000000;stroke:none;stroke-width:1px;stroke-linecap:butt;stroke-linejoin:miter;stroke-opacity:1" x="9.8355885" y="21.18434" id="text15118-fr" systemLanguage="fr"><tspan sodipodi:role="line" id="tspan15116-fr" x="9.8355885" y="21.18434">BNIN</tspan></text><text xml:space="preserve" style="font-weight:bold;font-stretch:semi-condensed;font-size:16px;line-height:125%;font-family:'DejaVu Sans';-inkscape-font-specification:'DejaVu Sans, Bold Semi-Condensed';letter-spacing:0px;word-spacing:0px;fill:#000000;stroke:none;stroke-width:1px;stroke-linecap:butt;stroke-linejoin:miter;stroke-opacity:1" x="9.8355885" y="21.18434" id="text15118"><tspan sodipodi:role="line" id="tspan15116" x="9.8355885" y="21.18434">BENIN</tspan></text></switch>
  <switch style="font-weight:bold;font-stretch:semi-condensed;font-size:16px;line-height:125%;font-family:'DejaVu Sans';-inkscape-font-specification:'DejaVu Sans, Bold Semi-Condensed';letter-spacing:0px;word-spacing:0px;fill:#000000;stroke:none;stroke-width:1px;stroke-linecap:butt;stroke-linejoin:miter;stroke-opacity:1"><text xml:space="preserve" style="font-weight:bold;font-stretch:semi-condensed;font-size:16px;line-height:125%;font-family:'DejaVu Sans';-inkscape-font-specification:'DejaVu Sans, Bold Semi-Condensed';letter-spacing:0px;word-spacing:0px;fill:#000000;stroke:none;stroke-width:1px;stroke-linecap:butt;stroke-linejoin:miter;stroke-opacity:1" x="495.56232" y="341.59747" id="text16618-fr" systemLanguage="fr"><tspan sodipodi:role="line" id="tspan16616-fr" x="495.56232" y="341.59747">CAMEROUN</tspan></text><text xml:space="preserve" style="font-weight:bold;font-stretch:semi-condensed;font-size:16px;line-height:125%;font-family:'DejaVu Sans';-inkscape-font-specification:'DejaVu Sans, Bold Semi-Condensed';letter-spacing:0px;word-spacing:0px;fill:#000000;stroke:none;stroke-width:1px;stroke-linecap:butt;stroke-linejoin:miter;stroke-opacity:1" x="495.56232" y="341.59747" id="text16618"><tspan sodipodi:role="line" id="tspan16616" x="495.56232" y="341.59747">CAMEROON</tspan></text></switch>
</g>


</svg>
