<?xml version="1.0" encoding="UTF-8"?>
<svg width="600" height="380" viewBox="0 0 600 380" version="1.1" xmlns="http://www.w3.org/2000/svg">
    <style id="BStyle" type="text/css">
    path{stroke-linejoin:bevel}.sea{fill:#c6ecff;stroke:none}.map{fill:#e0e0e0;stroke:none}.yemen{fill:#fefee9;stroke:none}.borders{fill:none;stroke:#646464;stroke-width:1;stroke-linecap:round}.coastline{fill:none;stroke:#086d9b;stroke-width:.4}.hadhrami{fill:#c12838}
    </style>
    <path d="M0 380V0h600v380H0z" class="sea"/>
    <g class="map">
        <path class="eritrea" d="m76.02 323.41-.11-.16.04-.13h.35l.03.19-.08.08-.23.02zm-8.76-4.87-.32-.08-.21-.12-.14-.34-.05-.39.14-.07.25.14.65.59.09.16-.05.08-.36.03zm-1.46-1-.64-.12-.03-.12.14-.13.19.03.34.34zm-5.75-.78-.21-.04-.23-.28-.01-.12.28.07.17.37zm1.17.06-.34-.11h-.4l-.25-.1-.05-.08.02-.17.13-.2.15-.03.24.18.16-.09.17.16.23-.05.19.16-.26.18.01.15zm2.12-.3-.38-.17.45-.23.18.05.06.2-.03.12-.28.03zm1.15.47-.25-.19-.13-.19.04-.15.14-.17.36.23.02.19.14.19-.06.06-.26.03zm4.2-3.24-.6-.66-.08.07-.08-.05.01-.12.14-.03.32-.24.17.15-.14.2.34.56-.08.12zm-7.12-.85-.53-.13-.3-.16.04-.11.51.08.23-.31.22.16.05.18-.07.19-.15.1zm3.76-.66-.36-.19-.1-.12.02-.13.15.05.31.27-.02.12zm2.55 4.42-.34-.11-.29-.26-.3-.5-.19-.03-.07-.08.03-.14-.2-.24-.12-.25.02-.12.17-.1.52.07.37.23-.08.15-.19.03-.04.11.38.66.43.54-.1.04zm.52-1.06-.17-.05-.16-.2-.09-.21.06-.21h.13l.34.32-.05.32-.06.03zm.47-.52-.62-.41-.15-.21.04-.25-.08-.25.07-.12.09-.02.17.09.09-.11.3.16-.06.16.09.2.17.02.11.28.15.11.17.23-.07.11-.47.01zm-1.61-.24-.51-.26-.11-.12.1-.19-.1-.2-.4-.15-.13.03-.18.04-.1.12-.17-.04-.04.08.09.24.39.16.14.14-.1.07-.58-.22-.68-.89-.24-.75.03-.17.18.04.09-.12.12.02.4.31.26.01.13-.05.05-.02.05-.11-.21-.18-.18-.29.15-.02.39.35.31.17.49.13.33.25.41.09.33.43-.1.24-.34-.22-.13.01.15.42-.07.14-.01.27-.21.24zm-3.62-4.43-.8-.21-.29-.24-.15-.12-.07-.16.01-.26.17-.4 1.06-.24.11.1-.14.16-.35.02-.3.11-.02.08.26.14.08.17.19.11.3.48.14-.08.14.07.11.34-.45-.07zm-12.29-6.65-.38-.55.05-.13.1.03.18.35.08.03.1-.07.14.14-.12.18-.15.02zm-.72-1.19-.1-.34.04-.18.07-.04.08.05.07.32-.16.19zm-15.85-18.49-.04-.12.12-.34-.02-.56h.1l.1.17.03.57-.16.26-.13.02zm-.94-.62-.18-.14.02-.13.16-.11.29-.43.12-.03.14.15-.33.56-.22.13zm-2.16-1.8-.14-.32.04-.14.13-.04.13.19.1-.02.03.09-.29.24zm-9.52-9.64-.05-.16.11-.3.46-.18.03.09-.22.31-.12.14-.21.1zm1.88-.26-.08-.05-.02-.17.6-.57.19-.12.08.03.05.19-.08.22-.48.23-.26.24zm37.9 39.65.19-.14.29-.05.03.02.25.11.26.49-.03.41.32.44.03.34-.27.32-.27-.1-.01-.23-.12-.14-.01-.17.07-.17-.1-.1-.14.05-.07-.05.02-.14.26-.11-.06-.19.07-.22-.18-.15-.14.03-.39-.25zm2.64.92-.35-.41-.07-.16.08-.13.13-.05.22.09.03.13-.12.19.08.34zm2.17-.69-.32-.09-.23-.22-.19-.31v-.17l.11.01.23.19.41.19.13.27-.14.13zM0 253.28l1.22.99 1.04.95.83 1.26.43.68.33.64.16.3.43 1.28.58.91.28.28.54.32.61.59.68.47.12.16.57.77.8.77.14.32.44.63-.01.14-.13-.04-.05.09.15.27.37.68.06-.16-.24-.66.06-.14.29.31.17.73.38.57.61 1.43.1.4.22.51.43.39.28.04.48-.19.29.01.18.14.15.68.26.13.34.02.29-.16 1.23.23.24-.23.12-.13.15-.06.36.08.42-.2.25.11.25.18.63 1.1.15.13.57.1.15.14.23.5.17.14.01.27.1.17.35.02.09-.03.17-.05.22.1.24-.19.88.15.32-.06.13-.1.06-.25.15.08.31.58.49.26-.03.14.07.11.25-.08.25-.18.38.08.35-.04.11.1.01.24v.2l.09.14.28.24.54.29.37.03.1.42.29.46-.06.54.18.3.15.46.18.16.46.1.13-.09.13.08.23.53.52 1.2.88.34-.03.11.06.1.18.02.15.16.07.15-.14.2.02.13.35.38-.05.19.35.44.12.48.29.34.02.52.01.22.25.42.24.14.23.04.18-.1.17-.32.14-.13.72-.1.13.06.62.58.8 1.01.13.12.2.18.33.75.18.41.39.43.64.41.22.27.07.34.2.15.26-.09.05-.02-.07-.16-.25-.11-.09-.12.02-.13.25-.13-.01-.1-1.4-1.5-.16-.31.07-.15.51.4.13.03.27-.08.25-.23.07-.51.02-.14-.09-.25-.04-.44-.1-.16-1.12-.52-.35-.33-.19.31-.18.12-.17-.12.25-.19-.05-.1-.48-.05-.37.14-.21-.06-.03-.1.09-.22.21.07.06-.04.08-.04.31.03.45-.24.16.05.48.56.92.39.44.31.47 1.12.42.43.28.43.12.18.67.59.8.86.42.87.07.75.12.07-.13 1.02.06.47.01.06.32.92.28.3.62.43.48.67.04.26.5 1.32.12.93.07.22-.03.23.07.47.28.83.15 1.48.32 1.62.09 1.65.1.42.23.39.2.19.46.26.51.03 1.09.25.51.22.31.04.22.15.8.03.18-.06.34.18.2.02.49-.39.34-.08.2-.12.05-.11-.01-.03-.12-.23.07-.11.22-.03.21-.55.19-.29.39-.08.32.01.05.07-.01.3-.33.64.06.19.36.26.14-.02.07-.31.1-.01.45.99.21.48.48.48.43.19.64.47.85.86.48.6.43.93.11.16.83 1.25.25.21.65.11.78-.21.28-.01.16.07.56.52.54.06.15.61.16.64-.4.78.01.42-.09.32-.23.24-.13.37.43.2.7.83.48.96.11.58-.09.41.15.48-.51.29-.02.1.3.39.27.53.32.36.36.19.39.09.26-.09.45-.4.21.02.29-.29.27-.17.3.03.2-.18.12.17.16.71-.08.21-.2.2.14.18.3-.33.16.06.96.94.89.62.27-.03.29-.13.09-.13-.16-.23.06-.05.29.23.25-.05.22.09.14.12.02.22-.05.06-.19.03-.42.06-.22.11-.13.23.07.13.7.06.31-.07.46-.25-.23-.23.33-.14.1-.22.19.04.2.13.14-.02.1-.07.11-.29.66-.17.44-.19.24-.22.13-.24-.2-.35-.17-.16-.27-.13.44-.44.1-.29-.3-.94.22-.33h.46l.12-.08.03.06h.26l.41.1.18.18.29.76.23.03.09.01.23.11.87 1.29.25.23.2.07.35-.36.21.21.27.86.26 1.48.06.32.23 1 .18.43.13.15.53.29.24.48.34.22.17.21-.87.05-.04.01-4.63 1.93-.44.2-.04.05-.1.18-.31-.04-.17-.02-.35.19h-.01l-.5.28-.74.4-1.32.73-.08.04-.45-.01-.63-.32-.29-.01-.24.22-.51.46-.03.03.01.05.13.34.01.18-.03.09-.05.11-.45.14-.04.01.01.03.05.23-.2.36.04 1.04-.09.07-.31-.03-.11-.02h-.02l-.24.38h-.01l-.02.02-.15.12-.65.03-.16.13-.15.42-.46.62-.03.02-.38.35.04 1.12.16.18.39.17.12.05.04.02.16.36.1.2.01.01.16.06-.01.51-.09.23-.09.22-.31.3-.11.05-.76.36-.97.09-.03.01-.36.18-.2.09-.06.11-.27.49-.06.1-.39.33h-.06l-.78.04-.39.26-.08.05-.4.26-.17.52h-.02l-.36-.12-.81-.65-.19-.47-.25-.11-.14-.11-.19-.14-.47-.34-.44-.51-.96-.8-.03-.12-.26-.32-.56-.41-1.07-1.07-.34-.25-.53-.39-.32-.07-.22-.25-.25-.16-.59-.24-1.14-.46-.25-.19-.09-.08-.38-.09-.47.04-.38.3-.29.32-1.95 2.14-.28-.12-.45-.45-.15-.13-.22-.19-.62-.49-.27-.23-.62-.72-.56-.87-.53-.83-.11-.18-.33-.52-.46-.95-.05-.1-.67-1.38-.01-.01-.01-.03-.37-.63-.03-.04-.46-.97-1.09-1.62-.06-.09-.4-.59-.58-.78-.53-.58-.92-.68-.72-.54-.77-.56-.62-.37-.87-.45-.14-.03-.52-.14-.19-.02-1.32-.14-.76-.17-.72-.42-.55-.5-1.11-.84-.6-.59-.71-.89-.62-.75-.33-.57-.57-.95-.35-.69-.27-.45-.6-1.02-.4-.84-.39-.79-.45-1.5-.08-.31-.11-.45-.56-1.16-.13-.27-.08-.16-.4-.64-.57-.89-.44-.47-.8-.99-.52-.63-.03-.03-.13-.17-.69-.8-1.49-1.43-1.06-.86-1.41-.99-1.13-.79-1.56-1-1.54-1.09-3.7-2.27-1.58-1.12-1.52-1.07-.41-.27v-37.04z"/>
        <path class="ethiopia" d="m0 290.32.41.27 1.52 1.07 1.58 1.12 3.7 2.27 1.54 1.09 1.56 1 1.13.79 1.41.99 1.06.86 1.49 1.43.69.8.13.17.03.03.52.63.8.99.44.47.57.89.4.64.08.16.13.27.56 1.16.11.45.08.31.45 1.5.39.79.4.84.6 1.02.27.45.35.69.57.95.33.57.62.75.71.89.6.59 1.11.84.55.5.72.42.76.17 1.32.14.19.02.52.14.14.03.87.45.62.37.77.56.72.54.92.68.53.58.58.78.4.59.06.09 1.09 1.62.46.97.03.04.37.63.01.03.01.01.67 1.38.05.1.46.95.33.52.11.18.53.83.56.87.62.72.27.23.62.49.22.19.15.13.45.45.28.12-.49.53-.34.49-.07.26-.49.49-.28.39-.86 1.18-.48.67-.16.47-.14.43-.03.4-.56 1.68-.15.18-.21.25-.22.12-2.06 1.66-.56.66-.22.25-.68 1.03-.08.12-.77 1.42-.93 1.51-.65.63-.33.66-.15.44-.13.39v.01l-.18.8-.17.15-.36.03-.28.23-.7 1.28-.22.23-.25.41-.52.84-.15.15-1.16 1.17-1.13 1.88-.4.5-.03.04-.13.17-.21.26-.27.5-.2.38-.42.57-.17.6-.98 1.38-.76.66-1 .64-.13.09-1.13.52-.39.18-.18.25-.22 1.17-.23.24-.01.02-.41.08-1.36.61-.06.04-.38.23-.36.92-.05.23-.09.49-.9 2.71.08.43-.02.17-.14.9-.56 1.94v.4l-.31.54-.35 1.2-.06.42-.06.33v.01l.09.66.37 1.45H0v-89.68z"/>
        <path class="somalia" d="m89.95 380 .15-.25.18-.08.28-.03.16.09.05.2-.01.07h-.81zm-5.35-.34.95-.85.15-.4.18-.88.17.12-.22 1.03-.12.24-.95.74h-.16zm5.17-1.94-.04-.14.08-.26.31-.37.24-.13.08.11-.46.67-.21.12zM80.23 380l.58-.94.23-.37.17.09.66-.07.62-.08.25.08.19.25.19.08.19-.03.05-.14-.04-.18-.27-.5-.12-.11-.57-.16.08-.13.19-.03.52.23.24.26.27.52.06.12.23.79.16.32h-3.88zm280.28 0 .25-.24.08-.02.93-.24.8-.03.39-.08h1.16l.51-.18.69-.05.44-.3.54-.25.63-.27.51.23.92.42.82.21.86.07 1.48-.07.45.08.82-.05.2-.05.73-.18.73-.25 1.7-.94.54-.43.24.01.37.36.28.15.34.29.07-.15-.05-.21-.66-.32-.04-.09.13-.29.22-.13.33-.09.68.02.65.24.46.09.74-.02h.16l.37-.01.96.06 1.51-.12.64-.14.48-.18.51-.38.49-.23.21-.26.25-.31.68.02.44-.38.41-.22.47-.16.75-.09.42-.2.73.03.26-.08.68-.47.16-.11 1.15-.26.41-.16.28-.24.2-.39.38-.35.54-.32.78-.22.99-.48.68-.33.97-.66.41-.21 1.33-.36.62-.27.92-.82.87-.78.53-.6.41-.52.89-1.58.37-.76.28-.22.16-.25.24-.74.12-.57.09-.42.24-.65.27-.64.39-.66.04-.27-.34.4-.6 1.11-.19.44-.13.5-.37 1.42-.15.03-.03-.17.78-2.68.5-.93.08-.15.28-.34 1.01-.89.38-.15.6-.4.87-.12.19-.17.12-.35.11-.09h.26l.67.15.88.19 1.5-.54.86-.39.44-.08.75-.29.57-.11.34-.25.1-.07.52-.05.25-.2-.06-.1-.54-.03-.35.14-.28.32-.12-.07.3-.45.18-.1.79-.04.32.07.31.19.63.62.51.35.89.47.32.14 1.52.22.5-.04.71.38 1.59.42.78.35 1.21.56.76.49 1.62.79.45.04.91-.06.28.05.39.08.7-.02 1.09-.15.23.07.71.44.33.3.59.22.25.05 1.06.24.15.03.76.36h.6l.77-.27.45-.02.35.17.12.14.04.05.1.44-.1.54-.8 1.6-.35.51-.09.34.07.69-.12.44-.36.52-.13.32.43.79.05.31-.11.48-.08.18-.46.98-.55.26-.13.13-.27.73-.16.18-.38.19-.89 1.32-.56.48-.03.01-.4.52-.33.54-.34.78-1.11 1.45-.22.47.01.21.13.38.01.46.01.05.09.39-.13.81h-69.95z"/>
        <path class="djibouti" d="m43.3 334.58 1.95-2.14.29-.32.38-.3.47-.04.38.09.09.08.25.19 1.14.46.59.24.25.16.22.25.32.07.53.39.34.25 1.07 1.07.56.41.26.32.03.12.96.8.44.51.47.34.19.14.14.11.25.11.19.47.81.65.36.12h.02l.17-.52.4-.26.08-.05.39-.26.78-.04h.06l.39-.33.06-.1.27-.49.06-.11.2-.09.36-.18.03-.01.97-.09.76-.36.11-.05.31-.3.09-.22.09-.23.01-.51-.16-.06-.01-.01-.1-.2-.16-.36-.04-.02-.12-.05-.39-.17-.16-.18-.04-1.12.38-.35.03-.02.46-.62.15-.42.16-.13.65-.03.15-.12.02-.02h.01l.24-.38h.02l.11.02.31.03.09-.07-.04-1.04.2-.36-.05-.23-.01-.03.04-.01.45-.14.05-.11.03-.09-.01-.18-.13-.34-.01-.05.03-.03.51-.46.24-.22.29.01.63.32.45.01.08-.04 1.32-.73.74-.4.5-.28h.01l.35-.19.17.02.31.04.1-.18.04-.05.44-.2 4.63-1.93.04-.01.87-.05.36 1.39.17.33.81 1.6 1.1 1.13.77 1.36.47.54.97 1.12.56.73.75 1.11.81.99.15.5.13.13.41.05.25-.07.18-.18.07-.16-.11-.38.08-.16.14-.02.11.05.1.05.11.23-.18.81.06.58.65 1.74.1.03.35.34.27.27.18.28.52 2.47.13 1.41-.02.34.09.49.01.09.74.98.44.57.28.59.17 1.17-.11 1.08.31.64.11.54-.02.73-.01.69.07.4-.06.77-.53 1.88-.59 1.31-.25.55-.22.4-.31.57-.27.28-.67.16-.2.04-1.07-.14-.6.02-.23.12-.58.64-.06.02-.2.06-.46-.05-.21-.03-.75-.08-1 .19-.33.16-.59-.08-.49.06-.42.15-.35.2-.67.8-.32.28-.12.08-.44.26-.31.47-.47.42-.71.86-.49.72-.79.8-.51.3-.16.17-.13.3-.66.59-.25.04-.39-.03-.25.07-.39-.02-.94.37-.07-.01h-.59l-.32.08-.12.02-.05.01-.22.14-.23.24-.19.35-.22.29-.45.41-.17-.03-.25-.33-.07.02-.06.21-.22-.08-.25-.28-1 .06-.17-.08-.27.04-.41-.15-.26.02-.82.42-.51.1-.31.06-.48.44-.64.36-1.21.24-.29.12-.36.32-.45 1.03-.45.41-.06.19.05.5-.21.39-.37.32-.9.55-.09.33-.14.07-.16.27-.26.23-.12.39-.37 1.15.01.52-.22.68-.26.32-.1.34.02.38-.14.13-.75-.29-.1.15-.19-.07-.37-.38-.13-.04-.37-.1-.02.1.28.12.34.3-.14.12-.52-.06-.93-.65-.26-.03-.84.46-.19-.03-.18-.28h-.3l-.35-.43-.04-.05-.24-.16-1.03-.29.07.22-.03.1-.22-.28-.19-.08-.02.11.06.1-.53.21-.05.09.09.14-.01.28.13.05.04-.17.07-.03.12.13.18-.1.12.05-.08.31.16.15-.04.16.09.26.11.06-.01.02-.04.06-.28.02-.08.1.11.25-.31.19-.05.22.07.19 1.29.95.1.15.2.08.11.25.26.04.25.22.32.08.2.26.37.31.07.05.3.21.27.08 1.09.04.05-.26.17-.14.12-.35.32.09.42-.04.72.17.37-.06.19.15.09-.25.17-.13.01-.1-.14-.04.07-.24.05-.13-.09-.43-.26-.18-.6-.11-.15-.15.09-.1-.31-.29-.01-.15.17-.22.39-.06.47-.42.09-.15.18.01.14.13.21.01.61-.35.34-.06.11-.06.35-.2.69-.11.34-.27.91.06.61-.23.16-.13.17-.35.44-.31.25-.01.18.08.35-.05.17.07.17-.06.21-.19.12.01.18.17.31.02.17-.12-.11-.28.03-.1.17.03.1.21.16.04.07.17.18-.14.11.02h.01l.06.18.12.08.27-.12.42.04.79-.21.3-.04.39.05.39-.14.31-.03 1.01-.09.23.08.21.21.34-.18.64.2.41-.23.32-.16.27-.04.88-.11.37.07.36.24.24.03.18-.07.22-.33.35.03.64.19.35.18.21.41.26.02.59-.25.69-.23.59-.31.09-.12.02-.02-.02-.14-.11-.08-.55-.03-.04-.11.13-.11.05-.04.42-.12.33.15.16.16.06.21-.12.28.02.19.26.49.03.03.44.42.5 1.41.08.24.53.69.12.07.61-.01.82.58.17.23.19.7.34.51.26.15-.23.37-.58.94H15.71l-.37-1.45-.09-.66v-.01l.06-.33.06-.42.35-1.2.31-.54v-.4l.56-1.94.14-.9.02-.17-.08-.43.9-2.71.09-.49.05-.23.36-.92.38-.23.06-.04 1.36-.61.41-.08.01-.02.23-.24.22-1.17.18-.25.39-.18 1.13-.52.13-.09 1-.64.76-.66.98-1.38.17-.6.42-.57.2-.38.27-.5.21-.26.13-.17.03-.04.4-.5 1.13-1.88 1.16-1.17.15-.15.52-.84.25-.41.22-.23.7-1.28.28-.23.36-.03.17-.15.18-.8v-.01l.13-.39.15-.44.33-.66.65-.63.93-1.51.77-1.42.08-.12.68-1.03.22-.25.56-.66 2.06-1.66.22-.12.21-.25.15-.18.56-1.68.03-.4.14-.43.16-.47.48-.67.86-1.18.28-.39.49-.49.07-.26.34-.49.49-.53zm35.43 33.26-.07-.09.35-.45-.05-.09-.37-.07-.02-.09.35-.08.25.08.05.11-.06.38-.24.26-.19.04zm-.37-.3-.45-.09-.14-.11-.02-.15.19-.09.55.21.08.09-.21.14z"/>
        <path class="oman" d="M469.43 44 600 .44V133.9l-.4.07-.03.01-.17-.24-.19-.09-.32-.31-.05.11.01.41-.05.12-.25.19-.06.26-.37.09-.15-.12-.34.14-.15-.13-.27-.04-.04.24-.19.09-.44-.19-1.16.22-.31-.05-.1.13-.28.02-.08.11.04.22-.18.15-.34.04-.33.21-.12-.18-.25-.07-.11-.12-.07-.08-.08-.1-.19-.07-.05-.09-.52.35-.2-.29-.37-.22-.21.05-.41.3-.09-.08-.27-.03-.15-.27h-.26l-.12-.23-.7-.13-.26.08-.11-.34-.21.01-.22-.12-.06-.13.22-.49.02-.21v-.02l-.04-.11-.12-.34-.37-.36-1.04-.36-1.35-.21-.3-.01-1.45-.06-1.39-.17-.45.04-.98-.07-.36-.03-2.68.15-.26.05-.21.16-.13-.06-.33.02-.35-.14-.63-.04-.24-.08-1.11-.02-.48.02-1.81.08-2.14.2-1.23.18-3.37.56-3.62.6-.74.09-.18-.07-.34.13-.76.14-.52.16-.14-.05-1.09.54-.3.28-.44.42.16.2.03.21-.09.21-.06.16.23.19.28.03.06.01.07.11-.15.19-.4-.06-.31.04-.46.29-.11.22-.41.34-.42-.11-.32.06-.13.13-.12.35-1.51.13-.4.1h-.2l-.28-.18-1.23.25-.21.18-.57.1h-.52l-.33-.09-.34.02-1.76.32-1.12.36-.11.41-.65.47-.36.46-.3.13-.41.29-.1.19-.18.04-.59.43-.4.09-.43.56-.14.36.05.21.06.26-.14.14-.4.02-.81.42-.78.15-.31.23-.43.02-.88.31-.24.32-.41-.16-.81-.03-.38-.19h-.63l-.29-.11-.81-.11-1.73.19-1.06.18-.29.28-.28-.03-.5.13-.9.11-.82.23-1.89.15-1.17.54-1.04.08-.29.14-.37.09-.3.07-.7.3-1.97.54-.44.03-.42.11-1.62.79-.26.19-.63.18-1.28.56-13.09-28.05-2.96-.4-.14-.33.01-.03.02.01.36-.08-.03-.07 1.4-1.95L469.43 44z"/>
        <path class="saudi_arabia" d="m51.42 181.27-.08-.09.04-.08.45-.39.08.11-.49.45zm-8.02-8.15-.19-.06-.05-.11.03-.15.22-.06.19-.19.16-.06-.16.57-.2.06zm-5.7-2.32.09-.03.02.14-.58.28.01-.16.21-.18.25-.05zm4.46-1.74-.27.17-.09.15-.13-.01-.14-.08-.08-.21-.2-.17-.09-.54.26-.5.26-.31.11.42.09.11.39.17.09.19-.12.54-.08.07zm5.17-3.06-.17-.03-.26-.17-.37-.02-.14-.12.15-.11.3.05.52.23.06.06-.09.11zm-5.82-1.17-.2.41-.05.37-.12.13-.22.01-.21-.07-.08-.15.03-.26.41-.2.09-.31.18-.04.17.11zm-6.85-1.15-.19.05-.09.18.03.15.2.23-.04.17-.35.05-.08.17-.27-.13-.13-.29.15-.52-.06-.45.07-.27.13-.08.17.01.12.16-.03.09-.16-.14-.08.03v.11l.12.1.28.06.21.32zm-10.64.1-.16.2-.41-.06.06-.17-.14-.44.11-.34.14-.12.19.14.06.54.15.25zm12.9-1.26-.8 1.17.06.25-.33.28-.06-.04.06-.2-.17-.12-.02-.18.13-.31 1.13-.85zm3.71-1 .04.09-.13.1-.55.1.05-.12.19-.01.22-.16h.18zm3.85-.09.04-.14.2-.17.33-.06h.59l.04.15h-.61l-.26.08-.12.17-.21-.03zm14.81-1.37.05-.32.06-.03-.02-.2.04-.06.05-.01-.03.05v.02l.05-.03-.01-.04-.09-.05.02-.04.13.06.01.02-.04.06-.09.04.05.11.09.08.04.04-.01.05h-.1l-.02.02-.03.12-.1.13-.03.08.01.05.06.02.04.21.02.16.05.21.11.13.04.07.06.12.15.05h.08l.03.15.05.07h.06l.01.04h-.09l-.17-.14-.17-.15-.03-.03-.14-.18-.18-.17-.08-.07-.09-.08-.01-.15v-.01l.07-.17.1-.23zm-20.7.25.12.05.1.05-.02.11-.11.07-.29-.06-.44.07-.03-.07.14-.17.07-.01.46-.04zm1.3 4.68-.47-.04-.33-.14-.25-.03-.33.05-.1-.09-.1-.26.09-.33.2.03.22-.12.84-.76.31-.19h.23l.09.29.25.41-.19.28.03.24-.13.2-.01.23-.14.17-.21.06zm5.57-.71.37-.66.25.18-.13.35.18.28h.29l.15.17.04.05.18-.01.34.22h.16l.43-.17-.12.3.19.24-.1.08-.46-.14-.92-.05-.19.07-.18.31-.27-.29-.18-.44-.29-.04-.05-.08.31-.37zm-24.3-5.84-.45.05-.05-.21-.23-.35.47.16.26.35zm6.63-4.75-.46-.03-.37-.62-.07-.31.01-.12.01-.23.32-.45.55.07.1.13-.19.66.02.16.09.03.22-.43.1-.5.13-.11.08.03.03.18.15.24-.4.91-.16.27-.16.12zm22.13-7.42.16.14-.4.22v.15l.14.23-.04.13-.26-.13.08-.42.26-.32h.06zm-43.17.55-.23-.1.03-.1.25-.1.4.01.18.08-.03.12-.42-.02-.18.11zm10.52-.04-.27-.2-.24.02-.33-.36-2.05-.2-.36-.34-.54-.12-.79-.81.05-.15.11-.07.17-.02.6-.05.41.18-.13-.18v-.15l1.54.26.53.18.42.25.2.22-.05.08-.12.01-.22-.21h-.27l-.05.09.38.24.09.09.29.3.77.4.13.36.02.38-.29-.2zm17.31-2.95v-.34l.13-.36.18.28-.01.17-.3.25zm6.17 7.25.27.1.26.31-.08.04-.45-.45zm-4.21-1.58.08.02.08.17-.06.38-.12-.08-.05-.43.07-.06zm-18.3-2.28.35.17.3.27.55.18.44.64-.04.09-.07.02-.26-.22-.63-.06-.16-.43-.29-.11-.11-.15-.24-.17.16-.23zm3.55 2.6-.27-.03-.67-.5.05-.07.31-.04.07-.21.29.06-.08.16.3.63zm3.01.51-.33.45-.21.11-.25.03-.12-.07-.02-.17.19-.19.36.01.38-.17zm1.91-1.26-.08-.09-.34.15-.08.27-.12.07-.16-.07-.09.16.23.42-.07.22-.22-.11-.18-.23-.02-.2.07-.21-.34-.23-.37.18-.05-.32.08-.37.15-.1.25-.02.24-.45.27-.06.68-.15.2.04.39.43.01.14-.4.7.07.18-.15.36.03.45-.11.13-.19-.41-.04-.33.1-.33.24-.22zm10.38 9.62-.19-.34-.18-.14-.41-.19-.3.04-.18-.13.11-.1.35.04.3.07.34.22.3.05.03.21-.17.27zM0 97.59l.11-.01.04.13-.15.05v-.17zm4.81-15.11-.01-.4-.05-.19-.18-.12.01-.18.34-.08-.03.18.11.24-.19.55zm9.83 47.92-.23-.05-.27.03-.19-.08-.47.01-.14-.28.06-.14.46-.3.31.22.14-.04.41.13.14.1.11.16-.1.16-.23.08zm6.35-1.99h.12l.35.19.24.22.4.5-.02.12-.63-.27-.29-.25-.19-.39.02-.12zm.54-.05h.1l.63.58.08.22-.03.08-.12-.04-.68-.69.02-.15zm21.46 4.34.11-.03.49.44.6.35v.1l-.25-.04-.42-.31-.53-.51zm-33.01-.86-.11.15-.21.06-.38-.09.27-.33.39.06.04.15zm2.17 4.68.19-.22.24-.13.45-.13.18.1-.05.18h-.12l-.15.14-.16.05-.09.11-.41.01-.08-.11zm3.64-2.41.06-.48-.04-.13-.3-.17.75.1.31.11.15.36.27.13-.02.08-.28.22-.2.49-.44-.12-.26-.59zm6.42.63-.19-.12-.23-.17-.21-.02-.14-.1-.13-.16-.13-.59-.26-.18-.3-.07-.08-.2-.53-.54-.69-.38-.68-.01-.23-.07-.17-.21v-.13l.42.2.05.02.19.02.14-.09.82.38.08-.05.35.13.03.19.28.47.31.07.36.34.31.04.34.19.29-.06.04.21.17.09.1.42-.11.35-.08.05-.12-.02zM6.3 83.42l-.24-.26.15-.2.16.03.06.11-.02.16-.11.16zm19.46 59.35-.39-.63-.16.04-.16-.2.26-.24.13-.25.11.05.05.27.11.19.18.02.19.19-.23.16.02.13.18.08-.08.11-.21.08zm19.4-.69-.15.02-.19-.3.02-.18.18-.04.2.13-.12.22.06.15zm-30.26-4.64.24.14.06.31.62.36.04.17.59.17.34.01.14.11.15.05.27.08.31.38.57.36.23.01.1.1-.04.57.14.19.46.21-.13.95.09.32.35.61.36.44.29.35.46.36.35.13.41.01.24-.1.27-.02.46.04.62.4.44.17h.73l.82-.41.28.12.21.01.07.1.63.18.08.11v.19l.3.38-.16.23.18.21.27.08.3-.04.73-.6.14.06.32.4.17-.03.29-.28.09-.2v-.2l-.23-.64-.16-.16-.25-.05-.1-.13-.12-.02-.07.07.02.14.41.51-.08.09-.47-.04-.62.1-.49-.7.25-.19.32-.43.06-.24-.01-.04-.06-.26-.12-.21.16-.36-.01-.1.23-.28-.03-.22.37-.08.24.26.14.03.06-.11-.17-.27.04-.1.15-.05.04-.22.46.05.14-.12.28-.02.34.55.15.07v.4l.07.13.12.2-.08.35.23.27.16.42.51.51.01.18.15.04.27-.07.21.07.8 1.2.32.01.48-.2.23-.01.1.13-.03.08-.18.43-.11.1-.14-.02-.07.05-.06.15-.34.27v.13l.32-.28.3-.1.47-.34.23-.09.07.99-.06.21-.42.34-.25.3-.03.4.03.24.24.02.05.13-.06 1.15.37.69.25.2.03.09-.19.35-.03.44-.47.18-.56-.01-.33-.09-.12-.27-.12-.14-.46-.5-.06-.14-.11-.04-.16-.26-.64-.32-.61-.16-1.2-.16-.35-.11.28-.24 1.12-.22.07-.06.14-.11.26-.64v-.27l-.15-.49-.23-.29-1.11-.44-.41.03-.73-.12-1.33.34-.32.08-.86.01-.71.09-.13.18-.13.46-.4.1-.78-.24-.33-.32-.5-.27-.59-.49-.08-.1-.11-.13v-.21l-.4-.35-.04-.04h-.25l-.48-.01-.71-.3-.48-.51-.51-.31-.16-.23-.39-.32-.16-.3-.05-.08-.13-.51.01-.21v-.18l-.18-.31-.54-.54-.21-.2-.41-.24-1.15.26-.16-.07-.01-.31.14-.37.44-.49.03-.33-.06-.23-.26-.24-.14-.12-.24-.47-.16-.08-.35.08-.04-.36-.3-.73.21-.17.64.06zm-1.26 4.68-.3-.06-.35-.16-.11-.17.01-.15.16-.19.18.07.21-.2.11-.01.55.18.2-.02.06.07-.26.58-.46.06zm29.59-4.51.16-.08.39.2-.15.18-.2.11-.37-.22.03-.1.14-.09zm-35.88 1.45.59.97.58.72.31.14-.41.17-.35-.03-1.34-.7-.12-.27.08-.33-.75-.77.01-.31-.1-.24.12-.81-.04-.27.04-.16.12.01.18.19.11.48.97 1.21zm17.19.97.79-.35.55.15.2-.18.18-.02.31.1.14-.2.26.25-.1.21-.23.18-.14.01-.34-.13h-.39l-.59.05-.45.14-.2-.12.01-.09zm.38 3.74-.22-.66-.16-.19-.04-.57-.2-.18-.28-.07-.52.1-.3-.13-1.07-.16-1.11-.46-.41-.33-.59-.47-.27-.1.1-.21-.14-.54-.11-.1-.31-.06-.17-.49-.22-.39-.79-.97-.23-.42-.09-.31.06-.23.1-.1.09-.08.04-.22.12-.05 1.19.03.77-.25 1.02-.99.1-.63.6.12.14.1.22.23.03.3.15.07.07.03.17.29-.21.42-.35.23-.09.22v.25l.76 1.03.2.13.34.03.65.27.23-.04.08.05.16.09-.32.16.15.17.06.22-.09.11.05.16-.06.11-.21-.05-.25-.17-.23-.01-.27.08-.4-.13-.31.04-.37.13-.35.23h-.14l-.07.16.09.23.48.34.04.1-.06.11.28.24h.34l.18.09.11.16.16.04.3-.09.03.13.22.05.35.29.37.45.25.15.33.76.67.51-.23.35-.21-.04-.4.33zM8.04 139.7l-.69-.83-.15-.18-.53-1.03.03-.17.18.33.32.3.5.88.88 1.21-.38-.19-.16-.32zm4.18-3.42-.18.31-.04.42-.68.16-.37.26-.18.04-.19-.24-.18.02-.11-.41-.63-.49-.16-.27.26-.63.56-.53.07-.09.34-.4.12-.07.23-.01.62.27.3.31-.01.15.27.16.31.09.45.42-.61.14.07.19-.26.2zM600 .44 469.43 44l-1.71.29-10.86 1.84-43.2 7.55-72.23 7.35-41.52 20.03-25.96 31.8-5.9 14.83-12.53 7.41-7.9.08-11.35-14.88-16.71 2.21-12.73-.93-30.51-3.46-8.13-4.39-25.18-.11-3.66 1.23-4.37-1.19-4.75-.04-1.21.18-4.78.5-.86.2-.8-.04-2.3.25-.34 1.11-.88.78-.44.02-1.5-1.77-.79.04-1.15.61-.53-.49-1.92 3.07-.06.1-.04-.01-2.68-.49-1.93.08-1.34.06-.59-.41-.49-.32-.09-.05-.75-.82-.74.02h-.19l-.48.05-.87.08-.44.04-.13.02-.85.08h-.04l-.94.08-.81-.72-2.08-1.9-.03-.02-.19-.22-.86-.97-.01-.01-.47-.51-.75-.83-.08-.07-.21-.17-1.44-1.14-.26.19-.05.04-.18-.19-.45-.47-.24-.07-.23-.06-.14-.24-.34-.56-.71-.26-.19-.08h-.23l-.24.04-.38.08-.63-.62-.51-.09-1.07.27-.72.17-.15.53-.95-.54-.86.73-1.11.55-.25-.19-.09.18-.18.11-.59.34-1.11 1.24-.9.38.72 1.05-1.08.93.05.54.18.38.11.35.01.37-.08.34-.02.03-.1.1.03.12.23.33.14.1.9.09.86.68.67.21.33.21.27.28.02.19-.28.34.21.14.49.03.06.05.28.2.19.24.12.28.02.33-.03.15-.72-.1-.51.06-.12.25-.39.04-.63.47-.62-.1-.78.08-.16.16-.25.24-.45.12.07.38.04.17-.74.01-.43-.11-.25.11-.05.14.07.31-.22.23.4.76.38.76-.27.14-.24.21-.43.37-.25.22-.3.19-.37.12-.99.32.13.71.14.79.05.44-.04.33v.04l-.01.37-.01.43.02.15.06.51.02.13 1.14-.49.06.06.92.83.88.12.02.73.47.46.18.69-.13.41-.14-.28-.24.04.04.33-.21.04-.08.39-.23-.16-.23-.27-.21-.07-.15.08-.18.47-.26-.13-.27-.12-.02-.43-.53.03.01.4.2.12-.17.22-.12.69.33.17.04.15.12.24-.45.21-.03.3v.05l.01.01.41.44.38.14-.07.48-.19.17-.57.18-.18.24-.33.02-.21-.09h-.03l-.31.03-.34.18-.18.09v.02l.06.5-.02.04-.09.19.13.12.08.07.16.45-.01.42.39-.12.08.06.11.09.19.36.74.9h.09l.18.01h.18l.26.14.58-.06.16.09.17.28.37-.04.19.29.02.03.22.72.7.58.48-.06.12.07.03.92-.11.3-.05.14-.02.02-.13.19.17.08.19.11.12.39.14.48-.62.39-.24.01-.36-.13-.17-.06-.46-.07.12.38-.02.11-.05.21-.1.07-.36.24-.02.29.04.1.21.51.01.02.13.31-.06.23-.11.46.4.38.08.65-.05.28-.04.02-.26.14-.24.03-.16.03-.36-.04h-.01l-.3-.24-.07-.06-.84-.2-.05-.01-.09-.03-.47-.27-.41-.23-.22-.06-.23-.27-.07-.02-.11-.02-.4.15-.14.06-.12.04.01.27.06.07.22.27.27.33v.18l-.47.6-.12.36V150.03l-.07.15-.15.29-.2.41v.05l-.03.38-.21.42-.08.17.03.12.19.72.04.16-.05.95-1.57-.01h-.42l-.36-.04-.03-.01-.03.02-.34.18-.48.04-.76.05-.42.03-.07-.03-.83.07-.4-.01-.41.3-.38.14-.33.22-.39.2-.34.24-.25.32-.09.53-.02.08-.05.34-.05.36-.1.43.38.69-.12.47-.24.71.54.06.12.12.12.11-.26.12-.42.05-.4-.02-.37.18-.72.12-.94.15-1.27.21-.6.1-.59.1-.14-.39-.74-.32-.31-.26-.45-.08-.28-.03-.27-.03-.4.01-.23-.06-.03-.06.03-.05-.02-.2-.15-.38-.11-.04h-.02l-.01-.05v-.05l.02-.15.18-.12-.12-.11-.03-.03.14-.12.16-.14.11-.3.03-.08.04-.12.04-.09.06-.18.01-.18-.01-.16-.05-.16-.03-.1-.07-.18-.17-.22-.02-.03-.09-.11-.13-.17-.9-.45-.27-.48-.12-.12-.27-.55.14-.36-.06-.14-.32-.35-.04-.2.04-.19-.07-.16.04-.2-.35-.39-.29-.78.04-.34.22-.28.02-.59.13-.25.27-.27.01-.44.06-.09-.05-.33.09-.17.1-.27-.27-.32.24-.23.06-.12-.05-.23.18-.04v-.18l-.17-.15-.17-.01-.27.18-.11-.24v-.25l.13-.36-.1-.23-.04-.33-.14-.04.06.36-.04.44-.28-.32.02-.09.11-.36-.26-.62-.15-.14-.15-.32-.27-.14-.24-.27.02-.11.2-.04.42.32.18.03.09.17-.12.11-.01.15.43-.46-.03-.16-.21.09-.71-.33-.21-.17-.39-.83-.19-.33-.33-.56-.24-.11-.44-.46-.08-.39-.41-.22-.27-.32-.41-.3-.33-.15-.32-.05-.16.09-.21-.26-.25-.13-.44-.11-.45.01-.18.39-.19-.03-.06-.23.19-.13-.12-.14.1-.14-.18-.14-.05-.24.18-.13-.1-.24-.4-.46-.38-.03-.22-.28-.43.04-.06-.25.25-.58.18-.1.42-.04.15-.26-.03-.13.1-.22-.01-.15-.2-.13-.09-.21-.11-.22.14-.29-.39-.58.1-.2-.04-.2.15-.41-.08-.1.27-.32-.02-.11-.04-.34.11-.5-.34-.21-.64-.07-.14-.17-.11-.6-.28-.25-.52-.25-.36-.17-.79-.22-.22.1-.58-.09-.52-.48-.26-.15-.13-.16-.06-.35-.23-.42-.29-.31-.01-.21-.43-.2-.1-.12-.1-.3-.14-.13.05-.32.03-.19-.09-.39.1-.39.19-.36-.04-.29-.13-.13-.17.08-.1.17-.38.03-.14-.14.26-.19-.01-.17-.11-.11-.37-.18-.46-.38-.45-.17-.3.17-.09.15.03.11.09.03.16.06-.01.21.49.55.03.31.2.23-.14.16.29.28-.05.18.33.36-.13.07-.29-.1-.2.03-.39.32-.13.23.04.68.24.5.01.14-.1.22.09.26-.05.47.13.41-.03.36.2.09-.04.24-.24.22-.13.38-.16-.37-.09-.63.03-1.02-.05-.47-.08-.99.04-.72-.09-1.08-.14-.63-.58-1.67-.14-.39-.05-.12-.15-.2-.02-.24-.13-.11.07-.42-.2-.99.17-1.91-.14-.83-.19-.6-.02-.06.05-.3-.43-1.27.01.85.05.14-.04.09-.4-.19-.04-.1.16-.63-.06-.52.06-.43.33-.58.12-1.21-.1-.64-.29-.68-.22-.3-.59-.25-.2-.03-.26-.59-.24-.22-.37-.09-.17.08.33.12.19.3-.09.15.02.6-.15-.07-.17-.23-.1-.54-.17-.32-.22-.08-.09-.24-.17-.44.25-.15-.09-.11-.35-.05-.3-.31-.15-.06-.02-.15-.07-.04-.01-.22.07-.17-.26.05-.11-.04-.18-.21-.59-.4-.25-.05-.38-.36-.24-.06-.22-.51-.11-.08-.24-.03-.15-.34-.67-.26-.31.02-.08.07v.17l-.16-.05-.13.11-.14-.27.07-.33.22-.13-.06-.08h-.18l-.13-.13-.1.07-.02.11.09.18-.08.07.05.41-.11-.09-.16-.52.18-.72-.11-.52-.3-.3-1.29-1.26-.23-.1-.09-.03-.34-.29-.39-.45-1-.24-.31-.63-.6-.57-.72-.45-.19-.02-.22.08-.34-.13-.17-.09-.14-.19-.19-.2-.37-.06-.35-.39-.47-.09-.36-.4-.06-.23-.3-.34-.37-.04-.37-.29-.28-.47-.06-.05-.31-.24-.29.05-.66-.45.01-.4-.37-.29-.26-.3.39-.07.08-.22-.04-.14-.3.02-.15-.07-.12.23-.11.06-.16-.04-.34-.26-.21-.06-.16.15-.3-.02-.05-.03-.28-.15-.19.07-.22-.08-.83-.76-.37-.05-.11-.36-.09-.07-.11.03-.23-.1-.12.06-.42-.05-.16.14-.12-.02-.19-.18-.01-.13.21-.11.11-.16.01-.45-.42-.28-.11-.06-.42-.57-1.71-1.28-.33-.27-.26-.34-.05-.35-.29-.03-.12-.16.04-.21-.52-.16-.53-.46-.21-.33.07-.11.25.22.49.17.07-.12-.21-.25-.29-.11.16-.16-.14-.17-.13-.16-.24-.09-.23.05-.21-.26-.29-.09-.52-.04.01-.51-.21-.28.1-.22.15.05.53-.08-.04-.18-.36-.39v-.12l.18-.1.09-.1-.11-.2.02-.17-.22-.27-.25-.02-.35-.15-.48-.33-.25-.05-.28.12.06-.52-.1-.11.06-.11-.15-.11-.19.01-.19-.32-.18-.08-.11-.07-.04-.02-.1-.35.07-.26-.11-.27.08-.16-.11-.18.01-.49-.13-.07-.04-.15.11-.16-.08-.09-.06-.33-.18-.06-.12-.27.02-.04.09-.14-.12-.13-.67-.01-.26-.18.03-.19.49.04.11-.1-.33-.27-.19-.5-.39-.19-.05-.16-.3-.34-.2.24-.15.01-.08-.07-.05-.17.11-.2.26-.03.16-.32.03-.07-.02-.09-.2-.05-.12-.19.03-.28-.28-.15-.36-.52-.04.68-.16-.02-.34.46-.14-.02-.29-.22-.08-.29.14-.52.32-.22.06-.24.35-.31.24.03.02-.25-.11-.24-.32.38-.22.02-.12-.12.06-.14.39-.29-.15-.21-.26.11-.13-.18-.17-.02v-.18l-.07-.09-.29.08-.2.21-.32-.42-.04-.28.06-.25.36-.03-.17-.21-.02-.29-.21-.02-.19-.47-.31-.17-.12-.15-.29-.84-.25-1.16-.18-.36.01-.69.12-.11.27.05.11-.34-.15-.62-.18-.18-.14.11-.08-.18.19-.41-.34-.36.1-.21-.13-.2-.2-.07-.05-.1.23-.61-.04-.14-.24-.04-.03-.04V0h600v.44zM0 67.82l.02.07.06.11.02.06-.07.05H0v-.29z"/>
        <path class="yemen" d="m526.03 349.3.38.1.29.27.1.07.22-.01.1.03.05.14-.1.21-.18.06-.2-.04-.48-.1h-.16l-.19.08-.51-.02-.13-.11-.05-.13-.24-.09-.08-.04-.04-.01.07-.17.11-.05h.13l.15-.02.19-.08.16-.07.09-.02h.32zm-43.91-1.18-.54-.26-1.43-.12-.22-.1-.24-.28-.21-.51-.2-.18-.79.07-.51-.18-.52.02-.18-.09-.6.02-.36-.05-.18-.09-.29-.47-.51-.21-.44.09-1.05-.2-.5-.33-.97-.39-.03-.03-.13-.14.19-.22-.17-.12.03-.08.54-.22.38-.05.61.16.53-.12.21.07.63.01 1.09.48.57.46.08.06.44-.01.49.35.52.23.73.06 1.36-.04.7.05.53-.1.63.16.07.02.85.4.5.06.39-.11 1.53.18.43-.09.51-.3.22-.04.03.11-.05.09-.67.37-.16.08-.23.26-.08.25.04.2.32.3.04.14-.14.18-.63-.21-.18.01-.74.26-.44.07-.74-.06-.35.11-.71.02zM581.11 331l-.39.25-.41.14-.86.18-.4.02-.75.26-.28.22-.46.8.04.17.18.17-.01.15-.39.21-.31.32-.43.05-.21.13-.14.25-.11.06-.59.06-.6.21-.45.02-.32.1-.36.2-1.11.26-.88.03-.27-.22-.24.25-.7.03-.83.19-1.19.67-.31.26-.11.26-.09.61-.11.14-.5.1-.12-.03-.67.27-.23.19-.23.41-.59.28-1.03.7-.44.21h-.48l-.39-.18-.8-.06h-.11l-.95.02-1.8.19-.63.33-.22.47-.63.2-1.33-.3h-.75l-.25.11-.55.02-.59.13-.85.03-.95.2-2.26.63-.64-.09-.86.2-.81.19-1.13.09-1.1-.03-.69-.09-1.91-.07-.04-.01-1.25-.27-1.37-.5-.66-.33-1.57-.43-.57-.06-.02-.02-.12-.1-.04-.2.1-.4-.08-.17-.81-.82-.61-.76-1.32-1.01-.44-.79-.03-.05-.21-.2-2.02-.78-1.19-.8-.32-.13-.98-.67-.18-.11-2.38-1.46-.12-.26.2-.3.25-.12.27-.01.44.35.35-.02.38-.17.36-.07.76-.17.44-.19.37-.33.31-.5.06-.37-.04-1.1.08-.39.22-.43-.18-.33-.02-.22.1-.28-.28-.35.08-.28.79-.47.79-.27.72.03.42.02.24-.09.17-.15.04-.04.27-.47.23-.05-.06-.11.19-.33.16-.11.68-.03.09-.07.39-.31.21-.07 1.1-.07.26-.01.2.06.45.34.15.08.22.1.65-.08.68.2.44-.04.69-.17.48.04.26-.09.17.04.63.5.14.11.56.45 2.85 1.86 1.11.83.21.12-.1.25.03.12.1-.01.31-.23.14.01 1.04.46.84.18.53-.07.49-.15.07-.11.76-.79.16-.44.16-.12.14-.38.65-.14.67-.25h.21l1.03.56.54-.03.29.1.41-.23.27-.07.19-.19 1.18.03.41-.12.12-.05.9-.41 1.63-.5.47-.28.14-.18.1-.64.16-.13.82.03.45.17.05.04.86.71.9.55.23.05 1.11-.15.32-.26.22.55.23.12.12.25.36.26.1.15.19.2.59-.17.96.22.23.41.59.28.55.38.48.06.29.21.47-.04.36.19.34-.1.23.08.4.15.31-.08.37.03 1.15.78.78.34.23.02.23-.12.17.03.57.56.72.49.92.62.98-.05.25-.13.38-.35.1-.1h.13l.38.22.46.02.12.07.04.21-.08.14-.16.05-.37-.04-.09.05zm-64.39 18.37-.25-.19-.1-.04-.19-.07-1.06-.22-.91-.59-.67-.1-.48-.16-.09-.13.07-.14.35-.02.55-.15.7-.33H515.05l.63-.13.5.13.67-.08.63.4.29.26.1.2-.04.2.09.54-.06.23-.11.09-.82.28-.21.02zm-427.93-22.3h-.17l.1-.27-.02-.13-.43.22-.09-.11.15-.43-.11-.19-.18-.08-.07.21-.24-.1-.21-.1-.07.07.02.12.17.11.1.19-.08.05-.34-.17-.39-.33-.07-.16.09-.14 1.08-.26.93.28.11.2.09.5-.14.35-.23.17zm-8.94-28.69-.04-.22.05-.28.1-.1.11.62.11.26-.06.05-.11-.03-.16-.3zm66.09 24.15-.41-.03-.14-.14.2-.02.26-.15.09.02.11.19-.11.13zM18.17 196.61l.13-.03.2.15.23.34.08.26.02.05-.04.17-.16.2-.27.15-.21.04-.9-.16-.1-.18.03-.15.3-.09.65-.74.04-.01zm8.03 16.25.04-.15.14-.13.11.09.05.2.27.93-.08.16-.11.01-.24-.24-.24-.7.06-.17zm.96.04-.01-.39.03-.43.13-.19.17.03.21.23.25.62.06.27v.01l.03.17-.06.29-.08-.02-.05-.02-.23.3-.31.05-.07-.06-.06-.27-.01-.59zm4.64 4.8.14-.11.11.19.08.16-.06.11-.19.09-.11-.02-.13-.14.16-.28zm.59 3.33-.18-.1-.2-.03-.08-.11.12-.57.17-.09.37.35-.16.19.11.22-.05.12-.1.02zm.7-2.92h.12l.04.02.22.15.13.14.04.3-.09.48.14.47-.06.15-.23.17-.16.26h-.14l-.39-.36-.28-.52-.13-.5.03-.21.21-.09.43-.47.12.01zm14.54-18.81.14.1.28.18.25.07.43-.08.06.13-.23.12-.35.01-.13.21-.11-.03-.08-.27-.31-.11-.39.04-.09.12.19.15.02.1-.13.06-.43-.07-.2-.23.88-.48.2-.02zm-5.67-1.13.19.1-.31.39.22.98.63.44.69.48.09.17-.09.18-.62-.32-.67-.58-.59-1.46-.29-.28.03-.16.1-.02.62.08zm-3.21-5.7-.13-.01-.1-.1-.21-.19-.18-.79-.13-.14-.3-.06-.04-.1.05-.37.23-.51.14-.15.18-.04.18.16.1.97.3 1.25-.09.08zm8.46-2.79-.05-.1.08-.23.15-.13.19.07.09.18-.01.12-.45.09zm2.21 7.03h-.34l-.09-.1.13-.11.54-.04.12-.13.16-.07.05.11-.07.11-.5.23zm-6.83-6.17-.24.07-.18-.36-.09-.42.22-.02.04-.11-.31-.91.11-.13.37.07 1.53.74.43.07.07.17h-.2l-.13.08.1.05.38.04.67-.13.23.24 1.02-.05.1.13-.05.11.08.24-.05.13-.26.12-.46.07-.9-.05-.98-.23-.15-.04-1.12-.01-.23.13zm6.75 0 .02-.19.97-.04.07.06-.16.13-.9.04zm18.42 52.66-.12-.02-.62-.71-.14-.27.29-.78.17-.1.16.07-.02.09-.19.17-.02.37.15.45.33.27-.03.13.1.23-.06.1zm-1.09-2.93-.19-.03-1.25-1.09-.13-.19.06-.25.48-.04.46-.24.17.03.11.15-.37.27-.11.16.02.12.13.13h.58l.17-.11.38-.09.05.09-.05.11-.14.08-.66.19-.08.13.03.17.35.31-.01.1zm-9.92 28.69-.09-.18.11-.37.15-.16.11.12-.11.13-.07.45-.1.01zm.95 14.3.07-.05.08-.55.13.07.18.01.01.1-.12.07-.18.38v.05l-.01.2.08.24-.07.06-.23-.05-.38.15-.08-.1-.01-.21.53-.37zm.54-1.06-.11-.13.04-.24.08-.1.16.04.07.16-.24.27zm2.61-2.84-.12-.28v-.17l.07-.05.13.1.11.27-.07.11-.12.02zm-1.24-119.99.4-.01.27.03.28.03.45.08.31.26.74.32.14.39.59-.1.6-.1 1.27-.21.94-.15.72-.12.37-.18.4.02.42-.05.26-.12-.12-.11-.12-.12-.54-.06.24-.71.12-.47-.38-.69.1-.43.05-.36.05-.34.02-.08.09-.53.25-.32.34-.24.39-.2.33-.22.38-.14.41-.3.4.01.83-.07.07.03.42-.03.76-.05.48-.04.34-.18.03-.02.03.01.36.04h.42l1.57.01.05-.95-.04-.16-.19-.72-.03-.12.08-.17.21-.42.03-.38v-.05l.2-.41.15-.29.07-.15V149.45l.12-.36.47-.6v-.18l-.27-.33-.22-.27-.06-.07-.01-.27.12-.04.14-.06.4-.15.11.02.07.02.23.27.22.06.41.23.47.27.09.03.05.01.84.2.07.06.3.24h.01l.36.04.16-.03.24-.03.26-.14.04-.02.05-.28-.08-.65-.4-.38.11-.46.06-.23-.13-.31-.01-.02-.21-.51-.04-.1.02-.29.36-.24.1-.07.05-.21.02-.11-.12-.38.46.07.17.06.36.13.24-.01.62-.39-.14-.48-.12-.39-.19-.11-.17-.08.13-.19.02-.02.05-.14.11-.3-.03-.92-.12-.07-.48.06-.7-.58-.22-.72-.02-.03-.19-.29-.37.04-.17-.28-.16-.09-.58.06-.26-.14h-.18l-.18-.01h-.09l-.74-.9-.19-.36-.11-.09-.08-.06-.39.12.01-.42-.16-.45-.08-.07-.13-.12.09-.19.02-.04-.06-.5v-.02l.18-.09.34-.18.31-.03h.03l.21.09.33-.02.18-.24.57-.18.19-.17.07-.48-.38-.14-.41-.44-.01-.01v-.05l.03-.3.45-.21-.12-.24-.04-.15-.33-.17.12-.69.17-.22-.2-.12-.01-.4.53-.03.02.43.27.12.26.13.18-.47.15-.08.21.07.23.27.23.16.08-.39.21-.04-.04-.33.24-.04.14.28.13-.41-.18-.69-.47-.46-.02-.73-.88-.12-.92-.83-.06-.06-1.14.49-.02-.13-.06-.51-.02-.15.01-.43.01-.37v-.04l.04-.33-.05-.44-.14-.79-.13-.71.99-.32.37-.12.3-.19.25-.22.43-.37.24-.21.27-.14-.38-.76-.4-.76.22-.23-.07-.31.05-.14.25-.11.43.11.74-.01-.04-.17-.07-.38.45-.12.25-.24.16-.16.78-.08.62.1.63-.47.39-.04.12-.25.51-.06.72.1.03-.15-.02-.33-.12-.28-.19-.24-.28-.2-.06-.05-.49-.03-.21-.14.28-.34-.02-.19-.27-.28-.33-.21-.67-.21-.86-.68-.9-.09-.14-.1-.23-.33-.03-.12.1-.1.02-.03.08-.34-.01-.37-.11-.35-.18-.38-.05-.54 1.08-.93-.72-1.05.9-.38 1.11-1.24.59-.34.18-.11.09-.18.25.19 1.11-.55.86-.73.95.54.15-.53.72-.17 1.07-.27.51.09.63.62.38-.08.24-.04h.23l.19.08.71.26.34.56.14.24.23.06.24.07.45.47.18.19.05-.04.26-.19 1.44 1.14.21.17.08.07.75.83.47.51.01.01.86.97.19.22.03.02 2.08 1.9.81.72.94-.08h.04l.85-.08.13-.02.44-.04.87-.08.48-.05h.19l.74-.02.75.82.09.05.49.32.59.41 1.34-.06 1.93-.08 2.68.49.04.01.06-.1 1.92-3.07.53.49 1.15-.61.79-.04 1.5 1.77.44-.02.88-.78.34-1.11 2.3-.25.8.04.86-.2 4.78-.5 1.21-.18 4.75.04 4.37 1.19 3.66-1.23 25.18.11 8.13 4.39 30.51 3.46 12.73.93 16.71-2.21 11.35 14.88 7.9-.08 12.53-7.41 5.9-14.83 25.96-31.8 41.52-20.03 72.23-7.35 43.2-7.55 10.86-1.84 1.71-.29 34.74 73.35-1.4 1.95.03.07-.36.08-.02-.01-.01.03.14.33 2.96.4 13.09 28.05-.51.22-.43.05-.34.11-.28.1-.62.15-.47.11-.36.08-.69.14-3.19.67-.26.11-.06.02-.04.04-.42.38-.28.13-.18.02-.54.1-.49.24-.4.07-1.43.51-.94.47-.3.25-.47.23-.46.15-.62.1-1.26.5-.92.27-1.99.92-.48.18-3.07.95-.94.29-.45.18-.21.08-3.14 1.23-2.61 1.23-.25.04-3.47 2.73-.81.82-.27.26-.53.55-.08.08-.83.93-.2.33-.42.59-.17.12-.21.16-.13.14-.62.59-.8 1.15-.82 1.03-.14.17-.2.3-.65 1.59-.37.57-.31.74-.09.56-.04 1.09-.15.65-.67 1.06-.27.42v.17l-.53 1.2-.09.16-.1.17-.09.16.18.27-.19.39-.07.14-.32 1.04-.08.59.17.73.08.14.29.07.06.33.08.09.26-.02.09.27v.14l-.29.49-.03.19.06.33-.19.92.11.68.06.25.18.23.41.19.35.04.16.1.62.92-.05.08-.05-.01-.24-.07-.05.17.26.62-.14.39.06.19.24.16.01.08-.34.15-.22.28-.05.37.53 2.42.01.05.57 1.96.16.24.16.61.24.28-.09.32-.4.23-.79.89-.16.08-.11-.01-.37-.05-.26.04-1.76.65-.26.05-.17.03-.94.31-1 .43-1.64.6-.81.19-.84.39-.14.07-.62.12-.54.25-.66.14-.59.26-.62.43-.59.11-1.52.73-.21.15-.86.36-.16.36-.22-.03-.37.33-.11.21.03.11.38.12-.26.29-.02.22.09.14.27.05.08.11-.49.14-.29-.07-.5-.46-.15-.15-.27-.06-2.71.74-2.3.89-.1.04-1.38.62-.61.39-.63.38-.24.28-.25.47-.04.24.13.38.16.22.25.16.42.09.36.37-.34.15-.39.06-.54.09-.27.14-.58-.04-.36.08-.47-.23h-.36l-.6.28-.52.01-.88.37-.8.12-.96.39-.61.26-.64.08-.31.3-.15.33-.45.18-.13.31-.08.02-.22-.23-.3.28-.58.11-.38.16-.08.18.12.27-.03.07-.48-.19-.21-.01-.16.07-1.37.53-.09.22v.22l-.14.07-.46-.04-.25.06-.34-.2-.18.04-.31.17-.87.2-1.06.36-.17.06-1.39.64-.61.15-.67.41h-.36l-.17-.08-.98.32-.9.38-1.45.39-.16-.06-.07.14-.2.04-.77.05-2.33.58-1.14.24-.72.12-.56.18-.73.03-3.01.97-.54.03-.61.05-3.54 1.23-.66-.1-.57.16-2.31.59-.49.19-.14.06-.36-.12-.4-.03-1.59.44-.9.1-.44.08-.83-.04-.67.21-.64.07-.98.31-.88.07-1.19.29-.39.1-.93.29-.89.27-.28.15-.52.48-.25.11-.49.03-.1.06-.15.07-1.09.8-1.15.62-.04.06-.33.43-.43.17-.17.01-.41.52-.19.14-.1.24-.4.3-.18.36-.2.02-.25-.18-.21-.07-.57-.02-.44.12-.25.14-1 .47-.94.59-.78.46-1.59.88-.19.18-.12.48-.01.02-.21.26-.29-.04-.5.12-.47-.08-.36-.17-.25-.03-1.17.1-2.16.81-.11.04-1.12.26-.23.17-.11-.08.02-.47-.17-.41-.22-.24-.46-.23h-.23l-.79.02-.62.16-.62-.02-.6-.19-.26.04-.52.3-.67.21-.47.28-1.96.84-.59.17-.13.11-.08.01-.86.11-.73.26-.73.38-1.59.42-1.64.16h-.03l-.43.12-2.48.63-.45.06-2.76.98-.86.52-.79.35-.62.45-.39.12-.38.29-.27.22-.26.1-.54.13-.54.26-.7.18-.4.27-.77.22-.19.14-.18-.04-.03.18-.28.09-1.3.31-1.59.73-.96.43-.6.17-.71.59-.42.22-.54.18-.29.31-.38.07-1.09.66-.91.65-.93.4-.46.31-.25.25-.17.55.02.33.08.24-.01.13-.02.18-.14.09-.16-.01-.04-.01-.35-.35-.29-.11-.08-.25-.32.07-.21-.05-.37-.23-.21-.03-.4-.06-.59.19-.41.38-.48.3-1.39 1.57-.22.25-.92 1.28-.38.96-.34.34-.18.34-.03.64-.29.27-.04.25.05.26-.26.55.06.16.44.41.1.24-.12.43-.19.38-.28.23-.48.21-.72-.04-.36.11-.17.15-.28.3-.25.06-.04.13.09.21-.23.17-.18.7.07.07-.57.38-.21.38-.18-.24-.14.01-.34.27-.7.22-.15.15-.15-.01-.11.11-.1.3.13.77-.56.61-.22.36-.23.36-.85 1.05-.85.46-.4.65-.35.25-.91.38-.18.24-.32.14-.34.43-.22.27-.15.19-.11.33-.35.37-1.05.8-.66.5-.07.06-.67.3h-.05l-.33-.01-1.61-.2-1.43.04-.71.12-1.7.11-.26.07-.93.28-.53.28-.93 1-.63-.13-.26.03-.24.18-.32.48-.23.04-.15-.35-.01-.37-.01-.26-.1-.14-.24-.24-.28-.09-.17.04-.02.32-.1.07-.56-.11-.31-.19-.9.27-.27.02-.54-.18-.52.08-.68-.21h-.45l-.32.08-.08.14.21.33-.05.22-.34-.07-.38.06-.65.29-.18.42-.11.06-.3-.36-.2-.08-.18.02-.22.33-.52-.11-.08.05-.11.22.13.26-.08.09h-.1l-.15-.01-.26-.36-.52-.1-.25-.22-.11-.02-.18.2-.19.48-.34.11-.9-.16-.3-.25-.09-.36-.17-.15-.65-.61-.16-.09-.86-.52-.92-.25-.69-.33-1.76-.65-1.4-.2-1.66.09-1.32.28-.72.44-.53.23-.83.58-.64.46-.37.44-1.8 1.68-1.57 1.01-.87.56-1.02.25-1.77.07-1.34.43-.41.22-1.18.65-.64.61-.44.24-.31.04-.22.14-.7.87-.37.24-.32.33-.17.33-.24.45-.56.24-.37.26-1.17 1.25-.67.39-1.14 1.15-.07.08-1.62 1.48-.63.36-.41.39-.91.5-.8.69-.39.33-.74.38-.7.15-1.6.15-.54.17-.53.35-.81.27-1.3.43-.11.04-2.32.63-1.24.05-.56.22-.36.14-.87.07-.61.17-.86.32-.61.33-.47.13-1.29.04-.43.11-2.82.68-1.21.01-.99.23-.54.26-.22.1-.77.54-.77.36-.27.18-.79.81-.45.22-.38.05-.93.65-.19.05-1.18.28-1.14.53-.95.25-.9.36-.56.33-.24.07-.32.05-.41-.11-.18-.05-.79-.19-1.93-.13-1.56.31-1.37.18-1.03.36-1.54.15-.54.13-.64.03-1.03.24-.16-.06-.04-.02-.41-.35h-.08l-.89-.05-1.39.28-.31-.09-.53.08-.6-.2-.7-.11-.48-.19-.7-.03h-.15l-.58-.17-1.65-.12-3.31.37-.31.1-1-.07-.89.19-1.91.24-.87-.11-.64-.27-.51.04-.96.17-.34-.01-.76.26-.78.16-1.58.04-.03.01-.29.07-.43.21-.37.15-.78.09-.41.01-.36-.06-.92.24-.92.23-.47.06-.28-.04-.48.12-.61.27-1.5.38-.53-.03-.27.08-1.06.48-.26.04-.98-.07-.81.19-.91.49-.7.54-.56.57-.27.28-.63.37-.31.39-.32.22-.78.67-.28.36-1.16 1.17-.03.03-1.34 1.56-1 1.34-.08.11-.17.39-.17.37-.31.41-.25.32-1.65 1.54-.34.49-.15.12-.82.85-.56.42-.36.15-.51.11-.64.05-1.09.09-1.16.24-.03.01-.33.1-1.59.5-.6.26-2.45.74-.42.18-1.16.49-.64.53-.07.16-1.21 1.18-.04.04-.21.56-.49.94-1.3 2.52-.43 1.32-.08.24-.17 1.13-.02.01-.03.34.05.19.13.13.37.03.07.11-.02.33.17.29-.08.15-.14.03-.31-.18-.2-.01-.08.11-.06.27-.21.14-.37.04-.96-.18-.15-.1-.2-.4-.24-.15-.67-.43-.1-.13.07-.36 1.02-.21.23-.05.61.23.2-.04.2-.21.04-.04.03-.17-.18-.38-.42-.32-.33-.66-.05-.12-.33-.29-.06-.06-.18-.02-.12.28.04.31-.05.17-.2.1-.5-.15h-.64l-.72.14-.79.13-.32.12-.44.33-.34.43-.23.45-.09.75-.32.04-.15-.15-.77-.82-.04-.04h-.49l-.21.14-.27.47-.08.13.11.22.09-.03.32-.13.35-.02.25.08.37.26.36.07.07.02.18-.01.67-.06.52.08.08.06.03.16-.09.26.05.27-.08.23-.63-.09-.58.12-.15.22.35.4-.8-.23-.05.1.13.23-.04.11-.94-.14-.26.02-.33.28-.28-.46-.2-.05-.29-.07-.15-.1-.08-.19.21-.57-.06-.19-.01-.01-.42-.26-.25-.16-.6-.11h-.36l-.94.21-1.17.45-.03.2-.02.08-.57.49-.21-.4.24-.22.07-.61.28-.05.03-.19-.07-.13-.18-.1-.09.04-.08.3-.18-.07-.39-.45-.72-.49-.48-.25-.39-.22-.1-.05-2.18-.42-1.43.02-.66.08-.65.16-.15.07-.19.1-1.11.56-.68.45-.74.6-.08.07-.39.41-.72 1-.37.41-.38.43-1.5 2.04-.15.05-.28-.54-.16-.06-.37.04-1.17.45-1.34.53-.72.38-.46.31-.73.26-.41.35-.23.06-.73-.14-.51.29-.21.01-.31-.09-.46-.3-.25-.04-.29.04-1.54.69-.81.11-.56-.2-.47-.06-.27-.12-.16-.14-.27-.22.05-.07.16-.02.34.33.29.11.41-.02.62.25.67-.1.13-.12.09-.26-.09-.26-.15-.23-.29-.21-.75-.23-.37-.18-.28.01-.32.29-.43.12-.87.6-.72.39-.23.04-.02-.04-.76.36-.41.29-.22.05-.28.23h-.34l-.26-.14-.39.03-.24.13-.47-.1-.46.18-.79-.03-.46.17-.45.25-.39-.11-.05-.01-.3.1-.32-.16-.35-.04-.42-.13-.31-.26-.11-.2.01-.29v-.45l-.03-.1-.07-.26-.14-.17-.1-.13-.22-.13-.64-.17-.45-.28-.57-.02-.72-.17-.61-.51-.37-.18-.23-.12-1.17-.6-.44-.05-.39.11-.29.07-.22-.18-.15-.02-.19.02-.29-.23-.3-.19-.44-.26-1.76-.36-.28-.24-.28-.08-.47.05-.33-.2-.28.14-.15-.05-.27-.03-.17-.19-.36-.2-.23.06-.16-.03-.17-.22-.33-.01-.19-.03-.44-.32-.51.01-.43.21-.79.55-.51.51-1.12 1.64-.09.04-.04-.02-.33-.12-.2.08-.21.17-.16.13-.24-.04-.3.17-.07-.22-.36-.01-.21-.17-.15-.01-.11.33h-.35l-.18-.12-.32-.74.55-.86h.19l.06.38.38-.07.09.15.08.12.21-.07.13-.15-.12-.27-.35-.07-.25-.28-.22-.04-.16-.25.06-.8.12-.29.02-.1.21-.94.28-.57.17-.7.19-.75-.02-.25-.22-.51-.87-.95-.98-1.35-.46-1-.13-.27-.27-.57-.24-.27-.34-.18-.13-.16-.09-.3.05-.42-.31-.92-.28-.48-.64-.75-.36-.42-.44-1.29-.71-1.37-.37-.48-.63-.64-.32-.28-.36-.83-.65-.6-.25-.47-.83-1.61-.56-.87-.3-.89-.05-.49-.41-.83.03-.19.24-.24.08-.3-.31-1.27.01-.88-.2-.16.06-.13.34-.14.11-.13.15-.85.07-1.01.11-.2-.09-.35-.1-1.26.42-1.2-.28-.7.17-.54.13-1.16.06-.24.2-.84-.03-.5.19-.46.19-.79.28-.4.03-.15-.14-.35.06-.15.57-.5.11-.37-.29-.26-.08-.07-.06-.13-.09-.21-.05-.38.19-1.49.18-.8-.09-.4-.45-.92-.16-.19-.29-1.16-.4-.74-.51-1.42-.49-.88-.02-.32.1-.56-.28-1.09.11-.9-.08-.72-.4-.31-.74-.33-.25-.44-.11-.45-.18-.36-.36-.26-.44-.09-.15-.1-.11-.31-.31-.26-.09-.66-.54-.52-.07-.18.11-.77-.06-.12-.21-.41-.59-.36-.24-.34-.4-.96-.61-.68.03-.15.29-.25.02-.21-.11-.42-.51-.8-.26-.7.04-.64-.13-.29.03-.37-.14-.5-.41-.78.01-1.14-.24-1.12-.16-.38-.37-.31-.04-.2.03-.15-.19-.5-.48-.74-.28-.71-.02-.35-.09-.74-.07-.54-.58-1.22-.93-1.36-.28-.08-.11-.61-.04-.31-.09-.61-.2-.43-.39-1.3-.71-1.6.09-.12.09.03.25.36.05.35.12.21.14.04.05.01.04.04.29.3.21.36-.06.3.12.17.17-.31.26-.04v.02l.2.19.18.87.04.04.12.14h.06l.18.02.14-.23.03-.38-.12-.42-.42-.5.02-.16.21-.07.03-.37-.04-.69-.04-.89.09-.71-.14-1.06-.51-1.75-.03-.07-.29-.05-.03-.37-.34-.22-.15-.26-.06-.19-.06-.14.04-.16.23-.33.07-.29-.09-.44-.04-.07-.18.07-.12-.29-.29-.29-.01-.1.12-.12-.25-.29-.12.02-.05-.05-.41-.94.03-.23.3.3.17-.09-.54-.63.01-.14.16.02.03-.17-.3-.33-.06-.32-.13-.21.12-.16.07-.08-.11-.37-.33-1.15-.09-.28-.49-.6-.47-.28-.19-.59-.54-.4-.33-.35-.43-.23-.27-.3-.05-.19-.35-1.38-.25-.53.17-.71.21-.09.56-.06.04.14-.29.05-.09.1.2.24-.29.29-.06.37.03.39.02.05.57 1.3 1.33 1.14.22.27.1.33.17.26.28-.33-.24-.5.03-.11.22-.12.05-.13.2-.43.12-.47-.03-.3.26-.51-.09-.51-.13-.73v-.44l-.23-.79-.24-.26-.24-.42-.36-1.15-.98-1.26-.28-.12-.06-.05-.71-.64-.28-.76-.15-.91-.04-.83-.24-.55.03-.17.31-.39.05-.46.03-.28-.15-.33-.28-.35-.21-.62-.46-.47-.53-.43-.58-.34-.5-.22-.32-.04-.79-.51-.05-.02-.7-.22-1.05-.51-.95-.28-1.23-.21-.55-.04-.72.15-.12.19.02.09.1.39-.15.38-.16.1-.34.08-.85.03-.17-.1-.4-.68-.16-.46-.74-.94-.02-.16.21-.61.25-.06.18.01.28.21.25.07.61.42 1.1.13.15-.07.34-.39.15-.28.01-.48.16-.09.11-.24.09-.02.12.16.05-.18-.13-.34-.02-.02-.62-.9-.23-.57-.05-.27.05-.11.45-.06.44-.69-.02-.54.1-.53.46-.36.13.23-.14.34-.31.75-.27 1.16-.02.48-.01.14.13.02.02-.05.23-.35.3-.22.33.05.64.57.11.21-.09.25.05.23.06.11.09.19.15-.01.18.18.14-.03.1-.19.13.1-.01.34.12.13.14-.19.13.11.06-.52.1.06.26.51.25.9.18 1.45.11.09.13-.26h.1l.22.3.07-.12-.14-.37-.31-.37-.09-.21.09-.14.24.01.31-.89.72-.7.2-.31.06-.26-.04-.25-.38-.34-.23-.42-.08-.34.01-2.1-.4-.53-.1-.35.06-.18-.04-.25-.37-.6.16-.41-.06-.34-.12-.19-.09.03-.15.28-.17-.02v-.23l.4-.6-.11-1.22.01-.11-.33-.47-.06-.46-.38-.62-.15-.49-.04-.15-.31-.49-.38-.38-1.18-.42-.31-.3-.22-.51.4.08.08-.05v-.2l.13-.44.22-.13.22-.65-.01-.07-.04-.24-.57-.56v-.03l-.08-.47-.26-.24-.09-.29.05-1.28v-.1l.32-.23.02-.09.1-.8-.09-.21-.22-.01-.26.09-.04.01-.12.04-.02-.03-.13-.21.15-.41-.11-.54.05-.38.12.02.27.23.19.03.12-.16-.02-.13-.28-.26.2.04.16.11.1-.05-.13-.23.05-.06.19.15.09-.02.27-.33.46-.12.35-.26.17-.2.1-.44.02-.31-.15-.38v-.18l.13-.01.11.22.56-.39.18-.76.47-.22.2-.22.04-.14.07-.29.16-.55 1.11-1.05.13-.14.09-1.25.18-.73-.07-.46.05-.46.31-.58-.04-.47.18-.69-.02-.12-.12-.67.07-.42.27-.62.2-.51-.16-.72.24-.81v-.31l-.06-.34-.25-.44-.18-.15-.01-.23.2-.39.01-.27-.39-1.03.01-.06.02-.78-.12-.32.05-.22-.2-.5.21-.14.19-.24-.1-.19.09-.19-.23-.47-.2-.2-.11-.18.02-.41-.13-.12-.14-.29-.27-.33.23-.34-.09-.26-.04-.6.17-.18-.22-.1-.18-.51-.31-.33.07-.22-.1-.75.21-.87-.23-.75-.13-.01h-.02l-.18-.26h.04l.2.02-.04-.19.05-.1.09-.03-.04-.02-.06.02-.11-.07-.02-.01.01-.03v-.04l-.03-.03-.05-.09-.11-.07H59.81l-.08.02-.03-.04-.01-.04-.03-.06-.02-.03-.1-.11-.02-.07-.03-.04-.02-.13-.03-.14v-.03l-.02-.07-.01-.05-.01-.02-.03-.03-.02-.01h-.02l-.01-.01v-.04l.01-.02.01-.01.01-.02.02-.03.02-.02.04-.06v-.01h.01l.02-.02v-.04l.01-.01.01-.02.02-.03.01-.01h.01l.01-.01h.02l.02-.01h.02l.03-.03v-.07l-.02-.06-.02-.02h-.01l-.02-.01h-.04l-.01-.01-.02-.01-.01-.02v-.02l.02-.03.01-.02.03-.01.04-.04.02-.08.02-.03zm252.62 108.08-.03-.21.12-.15.18.01.05.12-.04.09-.07.09-.21.05zm-6.04-.62-.13-.13.02-.15.14-.11.2-.01.05.17-.11.2-.17.03zM55.32 280.45l.03-.03.14-.21.66-.59.02-.15.06-.68.23-.77.43-.37.4-.04.23-.14.17-.38.27-.09.29-.23.41-.02.47-.22.11-.16.21-.08.21-.32.12.11.12.42-.03.19-.26.35-.07.38.07.48-.11.25-.19.01-.18.08-.17.29-.27.04-.1.12.05.24-.14.39-.28.56-.18.12-.19.31-.37.26-.38-.06-.49.08-.08.15-.11.21-.03.03-.31.24-.18.58-.11-.12-.49.19-.24-.04-.17-.12-.17-.31-.04-.28.09-.15.21-.08.16-.25.18.15.07-.07-.07-.27zm4.63-4.35-.07-.39.09-.08.18.08.11.17-.23.25-.08-.03zm-.29-2.72-.08-.07-.05-.29-.13-.18.34-.6.55-.53.52-.03.17.04.04.12-.41.78-.4.56-.21.01-.34.19zm1.81-1.22-.05-.2.04-.25.13-.26.07.08.03.26-.07.29-.15.08zm-2.32-1.71-.09-.26.1-.27-.06-.15-.14-.02-.14.29-.29.01-.04.09.05.14-.29.05-.08-.62.22-.62.26-.26-.05-.13-.42-.25-.64.01-.18-.09-.09-.33-.03-.13-.46.06-.08-.1.04-.3-.07-.3-.32-.25-.32-.07-.52-.24-.07-.19.08-.34-.23-.24.15-.21 1.16-.65.09-.37.1-.16.07-.12.62-.4.36-.34.69-.25.32-.18.12.07.32.43.64.38.12.31-.06.26.08.23.24.02.07.12-.27.28-.01.19-.03.77-.4 1.12-.06.6.21.6-.14 1.08.18.52-.17.18-.54.03zm6.88-45.76-.14-.07.02-.34.2-.15.11.07.06.17-.25.32zm-14.14-21.31.04-.03.34-.34.28-.01.07.12-.13.21-.34.21.2.3-.06.11-.16-.1-.4.03-1.05.28-.06.09.11.16.44.14.29.36.09-.04.08-.22.38-.25.4-.26.24-.02.36-.16.45-.06.04.11-.18.2-.15.31.04.2-.04.1-.21-.02-.08.18.14.32-.04.12-.46.41-.09.32.17.45-.06.09-.24.02-.02.05.29.25.03.03.12.44-.22.03-.08.17-.25-.02-.22.31.05.15.22-.01.11.11.37-.46.05.1-.08.26-.69.51-.22.32-.18.08-.02.08.23.09-.04.13-.22.11-.17.43-.04.09-.11.07-.4-.03-.49-.23-.58-.59-.73-.84-.04-.25.1-.15.2-.11.54-.15.17-.12.1-.2.15-.91-.02-.33-.44-.85-.02-.14.18-.23-.08-.3.1-.3.42-.39.65-.83.46-.45.13-.01.02.08-.17.21.14-.01.18-.14.08-.17-.08-.44.55-.18.67-.45.29-.05.25.06.04.09-.17.28.25.26-.12.12-.8.25-.17-.11-.13.03-.42.6-.23.21.1.12zm.82.24-.06-.06.08-.16.23-.19.13.2-.04.11-.34.1zm-.66-9.49-.2-.06-.04-.03-.15-.13-.06-.39-.3-.19-.16-.2.04-.14.24-.12.38-.05.42.56.44.06.16.19.18.09.54.09-.02.07-.49-.01-.98.26zm3.42-3.08-.08.16-.11.03-.07-.16.17-.33.11-.62.13-.04.09.15-.24.81zm-3.2-2.13-.21-.07-.09-.11.19-.32.22-.22.24-.46.4-.17.04.09-.06.12-.18.14-.35.77-.2.23z"/>
        <path class="hadhrami" d="m247.62 135.18 7.9-.08 12.53-7.41 5.9-14.83 25.96-31.8 41.52-20.03 72.23-7.35 43.2-7.55 10.86-1.84 1.71-.29-3.9 2.91c-2 1.28-3.8 2.12-5.41 3.73-.34.34-.52.75-.8 1.03-.29.3-.77.86-.98 1.26-.28.58-.31 1.23-.51 1.82-.24.72-.88 1.14-1.03 1.73-.2.78-.51 1.83-.88 2.57-.44.87-.73 1.9-1.26 2.7-.27.4-.11 1.2-.38 1.6a1.8 1.8 0 0 0-.32.93c-.5 1.82-1.97 5.7-3 7.23-.31.48-.84 1.04-1.02 1.59-.17.51-.5 1.56-.84 2.05-.55.82-1.3 2.17-1.5 3.18-.68 3.42-.3 10.24-1.58 12.79-.46.92-.02 2.3-.37 3.36-1.6 4.77-2.66 9.83-4.49 14.38-.3.75-1.02 2.33-1.58 2.9-.74.73-.5 2.36-1.22 3.07-.35.36-.9 1.11-1.02 1.5-.22 1.1-.94 1.7-1.4 2.62-.07.14-.4.2-.46.33-1.34 2.67-3.37 4.62-5.22 6.47-.8.8-1.6 2.06-2.05 2.97-.44.89-2.72 2.3-3.63 2.9-.47.32-1.12.47-1.65.73-1.83.92-4.29 2.25-5.54 3.5-.82.82-1.96 1.1-2.71 1.85-.58.58-1.36 1.31-1.85 2.05-.3.46-.53.99-.86 1.32-.42.43-.45 1.47-.79 1.98-.38.56-.9 1.01-1.19 1.58-.46.92-.77 2.4-1.78 2.91-1.5.75-3.46 1.02-4.62 2.18-.06.05-.72.02-.8 0-.65-.22-1.3-.98-1.71-1.39-.27-.26-1.93-.61-2.05-.72-.08-.09-.22-.22-.4-.14-1.05.53-1.78 3.77-2.57 4.56-.6 2.12-2.41 2.67-3.82 4.07-.45.45-.68 1.15-1.03 1.5-2.09 2.09-3.52 4.9-4.76 7.37-.54 1.1-.19 3.18-.19 4.49 0 .54-.24 1.84 0 2.33.8 1.59 1.69 3.57 2.24 5.23.44 1.3 4.27 6.4 3.74 7.47-.63 1.25-2.72 1.23-3.27 2.33-.3.62-.25 11.23-.1 11.4.24.22.59 1.5.94 1.67 1.05.53 4-.67 4.67.66.57 1.14-1.34 3.4-1.87 4.2-1.36.25-1.33 1.6-2.05 2.33-.7.7.9 3.8 1.4 4.3.42.41 1.19.49 1.68.65 5.28 1.76 12.33-3.82 15.87-2.05.58.29 1.47-.02 2.06.28 1.97.98 1.17 6.14 1.07 7.91l-.07.74-.36-.12-.4-.03-1.59.44-.9.1-.44.08-.83-.04-.67.21-.64.07-.98.31-.88.07-1.19.29-.39.1-.93.29-.89.27-.28.15-.52.48-.25.11-.49.03-.1.06-.15.07-1.09.8-1.15.62-.04.06-.33.43-.43.17-.17.01-.41.52-.19.14-.1.24-.4.3-.18.36-.2.02-.25-.18-.21-.07-.57-.02-.44.12-.25.14-1 .47-.94.59-.78.46-1.59.88-.19.18-.12.48-.01.02-.21.26-.29-.04-.5.12-.47-.08-.36-.17-.25-.03-1.17.1-2.16.81-.11.04-1.12.26-.23.17-.11-.08.02-.47-.17-.41-.22-.24-.46-.23h-.23l-.79.02-.62.16-.62-.02-.6-.19-.26.04-.52.3-.67.21-.47.28-1.96.84-.59.17-.13.11-.08.01-.86.11-.73.26-.73.38-1.59.42-1.64.16h-.03l-.43.12-2.48.63-.45.06-2.76.98-.86.52-.79.35-.62.45-.39.12-.38.29-.27.22-.26.1-.54.13-.54.26-.7.18-.4.27-.77.22-.19.14-.18-.04-.03.18-.28.09-1.3.31-1.59.73-.96.43-.6.17-.71.59-.42.22-.54.18-.29.31-.38.07-1.09.66-.91.65-.93.4-.46.31-.25.25-.17.55.02.33.08.24-.01.13-.02.18-.14.09-.16-.01-.04-.01-.35-.35-.29-.11-.08-.25-.32.07-.21-.05-.37-.23-.21-.03-.4-.06-.59.19-.41.38-.48.3-1.39 1.57-.22.25-.92 1.28-.38.96-.34.34-.18.34-.03.64-.29.27-.04.25.05.26-.26.55.06.16.44.41.1.24-.12.43-.19.38-.28.23-.48.21-.72-.04-.36.11-.17.15-.28.3-.25.06-.04.13.09.21-.23.17-.18.7.07.07-.57.38-.21.38-.18-.24-.14.01-.34.27-.7.22-.15.15-.15-.01-.11.11-.1.3.13.77-.56.61-.22.36-.23.36-.85 1.05-.85.46-.4.65-.35.25-.91.38-.18.24-.32.14-.34.43-.22.27-.15.19-.11.33-.35.37-1.05.8-.66.5-.07.06-.67.3h-.05l-.33-.01-1.61-.2-1.43.04-.71.12-1.7.11-.26.07-.93.28-.53.28-.93 1-.63-.13-.26.03-.24.18-.32.48-.23.04-.15-.35-.01-.37-.01-.26-.1-.14-.24-.24-.28-.09-.17.04-.02.32-.1.07-.56-.11-.31-.19-.9.27-.27.02-.54-.18-.52.08-.68-.21h-.45l-.32.08-.08.14.21.33-.05.22-.34-.07-.38.06-.65.29-.18.42-.11.06-.3-.36-.2-.08-.18.02-.22.33-.52-.11-.08.05-.11.22.13.26-.08.09h-.1l-.15-.01-.26-.36-.52-.1-.25-.22-.11-.02-.18.2-.19.48-.34.11-.9-.16-.3-.25-.09-.36-.17-.15-.65-.61-.16-.09-.86-.52-.92-.25-.69-.33-1.76-.65-1.4-.2-1.66.09-1.32.28-.72.44-.53.23-.83.58-.64.46-.37.44-1.8 1.68-1.57 1.01-.87.56-1.02.25-1.77.07-1.34.43-.41.22-1.18.65-.64.61-.44.24-.31.04-.22.14-.7.87-.37.24-.32.33-.17.33-.24.45-.56.24-.37.26-1.17 1.25-.67.39-1.14 1.15-.07.08-1.62 1.48-.63.36-.41.39-.91.5-.8.69-.39.33-.74.38-.7.15-1.6.15-.54.17-.53.35-.81.27-1.3.43-.11.04-2.32.63-1.24.05c-.36-1.02.23-2.3.23-3.38 0-2.1-.14-3.8-.72-5.54-.4-1.18.45-3.33-.14-5.09-.13-.41.39-.88 0-1.65-.33-.66.37-3.6-.06-4.02-.24-.24-.32-.77-.66-1-.94-.62-1.84-1.03-2.38-1.84-.53-.8-.1-3.78-1.12-4.3-.17-.08-.6 0-.8 0-2.2 0-.72 1.58-1.38 2.25-.17.17-.4.39-.53.6-.14.21-.11.5-.46.59-.45.11-6.13-1.84-6.93-2.25-.6-.3-2.6-.5-3.04-.79-.21-.14-1.79-.46-2.05-.2-.36.37-5.51 1.03-6.33 1.85a5.7 5.7 0 0 0-.93 1.26c-.09.17-.04.95-.2 1.05-.96.64-1.75 1.5-2.97 1.92-1.42.47-3.63-1.06-4.95-.4-.19.1-.6.04-.86.13-.88.3-2.05 1.16-3.17.6-.47-.24.67-2.23.86-2.51 1.36-2.04.49-5.92-1.06-7.46-.63-.64-1.77-.6-2.55-1.08-1.64 0-6.74 3.72-7.85 2.61-.7-.7-2.09-3.92-2.8-3.92-1.08 0-5.2 1.37-5.79.19-.88-1.76-2.46-10.12-3.73-11.4-1.6-1.58-5.24.91-5.6.2-.48-.97.92-4.8.18-5.05-1.9-.63-4.2-.02-5.82-.63-.82-.3-1.47-.94-1.79-2.21-.69-2.76.55-5.47 1.35-7.87 1-3 4.08-8.7 6.54-9.92 1.12-.57 3-2.43 3.83-3.27 1.52-1.52 3.38-2.16 5.42-3.18 1.73-.87 4.67-2.24 5.97-3.54 4.22-4.22 11.02-5.98 15.31-10.27 4.21-4.2 7.13-8.35 11.2-12.42 1.4-1.38 3.6-4.8 4.86-6.07.44-.44 2.13-1.27 2.43-1.87.8-1.58.3-2.31 1.87-3.36.42-.28 1.26-1.25 1.85-1.3 1.1-1.67 1.87-3.12 3.71-4.04.7-.36 1.1-1.83 1.65-2.38.84-.84 2.26-1.35 2.78-2.38.22-.44.48-.88.79-1.19.56-.56.46-4.42.46-5.48 0-1.48-.1-7.23-.4-8.12-.28-.87-.06-2.43-.37-3.23-.5-1.18-.17-3.36-.42-4.43a66.3 66.3 0 0 1-1.08-3.31"/>
    </g>
    <path d="m76.02 323.41-.11-.16.04-.13h.35l.03.19-.08.08-.23.02m-8.76-4.87-.32-.08-.21-.12-.14-.34-.05-.39.14-.07.25.14.65.59.09.16-.05.08-.36.03m-1.46-1-.64-.12-.03-.12.14-.13.19.03.34.34m-5.75-.78-.21-.04-.23-.28-.01-.12.28.07.17.37m1.17.06-.34-.11h-.4l-.25-.1-.05-.08.02-.17.13-.2.15-.03.24.18.16-.09.17.16.23-.05.19.16-.26.18.01.15m2.12-.3-.38-.17.45-.23.18.05.06.2-.03.12-.28.03m1.15.47-.25-.19-.13-.19.04-.15.14-.17.36.23.02.19.14.19-.06.06-.26.03m4.2-3.24-.6-.66-.08.07-.08-.05.01-.12.14-.03.32-.24.17.15-.14.2.34.56-.08.12m-7.12-.85-.53-.13-.3-.16.04-.11.51.08.23-.31.22.16.05.18-.07.19-.15.1m3.76-.66-.36-.19-.1-.12.02-.13.15.05.31.27-.02.12m2.55 4.42-.34-.11-.29-.26-.3-.5-.19-.03-.07-.08.03-.14-.2-.24-.12-.25.02-.12.17-.1.52.07.37.23-.08.15-.19.03-.04.11.38.66.43.54-.1.04m.52-1.06-.17-.05-.16-.2-.09-.21.06-.21h.13l.34.32-.05.32-.06.03m.47-.52-.62-.41-.15-.21.04-.25-.08-.25.07-.12.09-.02.17.09.09-.11.3.16-.06.16.09.2.17.02.11.28.15.11.17.23-.07.11-.47.01m-1.61-.24-.51-.26-.11-.12.1-.19-.1-.2-.4-.15-.13.03-.18.04-.1.12-.17-.04-.04.08.09.24.39.16.14.14-.1.07-.58-.22-.68-.89-.24-.75.03-.17.18.04.09-.12.12.02.4.31.26.01.13-.05.05-.02.05-.11-.21-.18-.18-.29.15-.02.39.35.31.17.49.13.33.25.41.09.33.43-.1.24-.34-.22-.13.01.15.42-.07.14-.01.27-.21.24m-3.62-4.43-.8-.21-.29-.24-.15-.12-.07-.16.01-.26.17-.4 1.06-.24.11.1-.14.16-.35.02-.3.11-.02.08.26.14.08.17.19.11.3.48.14-.08.14.07.11.34-.45-.07m-12.29-6.65-.38-.55.05-.13.1.03.18.35.08.03.1-.07.14.14-.12.18-.15.02m-.72-1.19-.1-.34.04-.18.07-.04.08.05.07.32-.16.19m-15.85-18.49-.04-.12.12-.34-.02-.56h.1l.1.17.03.57-.16.26-.13.02m-.94-.62-.18-.14.02-.13.16-.11.29-.43.12-.03.14.15-.33.56-.22.13m-2.16-1.8-.14-.32.04-.14.13-.04.13.19.1-.02.03.09-.29.24m-9.52-9.64-.05-.16.11-.3.46-.18.03.09-.22.31-.12.14-.21.1m1.88-.26-.08-.05-.02-.17.6-.57.19-.12.08.03.05.19-.08.22-.48.23-.26.24m37.9 39.65.19-.14.29-.05.03.02.25.11.26.49-.03.41.32.44.03.34-.27.32-.27-.1-.01-.23-.12-.14-.01-.17.07-.17-.1-.1-.14.05-.07-.05.02-.14.26-.11-.06-.19.07-.22-.18-.15-.14.03-.39-.25m2.64.92-.35-.41-.07-.16.08-.13.13-.05.22.09.03.13-.12.19.08.34m2.17-.69-.32-.09-.23-.22-.19-.31v-.17l.11.01.23.19.41.19.13.27-.14.13M0 253.28l1.22.99 1.04.95.83 1.26.43.68.33.64.16.3.43 1.28.58.91.28.28.54.32.61.59.68.47.12.16.57.77.8.77.14.32.44.63-.01.14-.13-.04-.05.09.15.27.37.68.06-.16-.24-.66.06-.14.29.31.17.73.38.57.61 1.43.1.4.22.51.43.39.28.04.48-.19.29.01.18.14.15.68.26.13.34.02.29-.16 1.23.23.24-.23.12-.13.15-.06.36.08.42-.2.25.11.25.18.63 1.1.15.13.57.1.15.14.23.5.17.14.01.27.1.17.35.02.09-.03.17-.05.22.1.24-.19.88.15.32-.06.13-.1.06-.25.15.08.31.58.49.26-.03.14.07.11.25-.08.25-.18.38.08.35-.04.11.1.01.24v.2l.09.14.28.24.54.29.37.03.1.42.29.46-.06.54.18.3.15.46.18.16.46.1.13-.09.13.08.23.53.52 1.2.88.34-.03.11.06.1.18.02.15.16.07.15-.14.2.02.13.35.38-.05.19.35.44.12.48.29.34.02.52.01.22.25.42.24.14.23.04.18-.1.17-.32.14-.13.72-.1.13.06.62.58.8 1.01.13.12.2.18.33.75.18.41.39.43.64.41.22.27.07.34.2.15.26-.09.05-.02-.07-.16-.25-.11-.09-.12.02-.13.25-.13-.01-.1-1.4-1.5-.16-.31.07-.15.51.4.13.03.27-.08.25-.23.07-.51.02-.14-.09-.25-.04-.44-.1-.16-1.12-.52-.35-.33-.19.31-.18.12-.17-.12.25-.19-.05-.1-.48-.05-.37.14-.21-.06-.03-.1.09-.22.21.07.06-.04.08-.04.31.03.45-.24.16.05.48.56.92.39.44.31.47 1.12.42.43.28.43.12.18.67.59.8.86.42.87.07.75.12.07-.13 1.02.06.47.01.06.32.92.28.3.62.43.48.67.04.26.5 1.32.12.93.07.22-.03.23.07.47.28.83.15 1.48.32 1.62.09 1.65.1.42.23.39.2.19.46.26.51.03 1.09.25.51.22.31.04.22.15.8.03.18-.06.34.18.2.02.49-.39.34-.08.2-.12.05-.11-.01-.03-.12-.23.07-.11.22-.03.21-.55.19-.29.39-.08.32.01.05.07-.01.3-.33.64.06.19.36.26.14-.02.07-.31.1-.01.45.99.21.48.48.48.43.19.64.47.85.86.48.6.43.93.11.16.83 1.25.25.21.65.11.78-.21.28-.01.16.07.56.52.54.06.15.61.16.64-.4.78.01.42-.09.32-.23.24-.13.37.43.2.7.83.48.96.11.58-.09.41.15.48-.51.29-.02.1.3.39.27.53.32.36.36.19.39.09.26-.09.45-.4.21.02.29-.29.27-.17.3.03.2-.18.12.17.16.71-.08.21-.2.2.14.18.3-.33.16.06.96.94.89.62.27-.03.29-.13.09-.13-.16-.23.06-.05.29.23.25-.05.22.09.14.12.02.22-.05.06-.19.03-.42.06-.22.11-.13.23.07.13.7.06.31-.07.46-.25-.23-.23.33-.14.1-.22.19.04.2.13.14-.02.1-.07.11-.29.66-.17.44-.19.24-.22.13-.24-.2-.35-.17-.16-.27-.13.44-.44.1-.29-.3-.94.22-.33h.46l.12-.08.03.06h.26l.41.1.18.18.29.76.23.03.09.01.23.11.87 1.29.25.23.2.07.35-.36.21.21.27.86.26 1.48.06.32.23 1 .18.43.13.15.53.29.24.48.34.22.17.21.36 1.39.17.33.81 1.6 1.1 1.13.77 1.36.47.54.97 1.12.56.73.75 1.11.81.99.15.5.13.13.41.05.25-.07.18-.18.07-.16-.11-.38.08-.16.14-.02.11.05.1.05.11.23-.18.81.06.58.65 1.74.1.03.35.34.27.27.18.28.52 2.47.13 1.41-.02.34.09.49.01.09.74.98.44.57.28.59.17 1.17-.11 1.08.31.64.11.54-.02.73-.01.69.07.4-.06.77-.53 1.88-.59 1.31-.25.55-.22.4-.31.57-.27.28-.67.16-.2.04-1.07-.14-.6.02-.23.12-.58.64-.06.02-.2.06-.46-.05-.21-.03-.75-.08-1 .19-.33.16-.59-.08-.49.06-.42.15-.35.2-.67.8-.32.28-.12.08-.44.26-.31.47-.47.42-.71.86-.49.72-.79.8-.51.3-.16.17-.13.3-.66.59-.25.04-.39-.03-.25.07-.39-.02-.94.37-.07-.01h-.59l-.32.08-.12.02-.05.01-.22.14-.23.24-.19.35-.22.29-.45.41-.17-.03-.25-.33-.07.02-.06.21-.22-.08-.25-.28-1 .06-.17-.08-.27.04-.41-.15-.26.02-.82.42-.51.1-.31.06-.48.44-.64.36-1.21.24-.29.12-.36.32-.45 1.03-.45.41-.06.19.05.5-.21.39-.37.32-.9.55-.09.33-.14.07-.16.27-.26.23-.12.39-.37 1.15.01.52-.22.68-.26.32-.1.34.02.38-.14.13-.75-.29-.1.15-.19-.07-.37-.38-.13-.04-.37-.1-.02.1.28.12.34.3-.14.12-.52-.06-.93-.65-.26-.03-.84.46-.19-.03-.18-.28h-.3l-.35-.43-.04-.05-.24-.16-1.03-.29.07.22-.03.1-.22-.28-.19-.08-.02.11.06.1-.53.21-.05.09.09.14-.01.28.13.05.04-.17.07-.03.12.13.18-.1.12.05-.08.31.16.15-.04.16.09.26.11.06-.01.02-.04.06-.28.02-.08.1.11.25-.31.19-.05.22.07.19 1.29.95.1.15.2.08.11.25.26.04.25.22.32.08.2.26.37.31.07.05.3.21.27.08 1.09.04.05-.26.17-.14.12-.35.32.09.42-.04.72.17.37-.06.19.15.09-.25.17-.13.01-.1-.14-.04.07-.24.05-.13-.09-.43-.26-.18-.6-.11-.15-.15.09-.1-.31-.29-.01-.15.17-.22.39-.06.47-.42.09-.15.18.01.14.13.21.01.61-.35.34-.06.11-.06.35-.2.69-.11.34-.27.91.06.61-.23.16-.13.17-.35.44-.31.25-.01.18.08.35-.05.17.07.17-.06.21-.19.12.01.18.17.31.02.17-.12-.11-.28.03-.1.17.03.1.21.16.04.07.17.18-.14.11.02h.01l.06.18.12.08.27-.12.42.04.79-.21.3-.04.39.05.39-.14.31-.03 1.01-.09.23.08.21.21.34-.18.64.2.41-.23.32-.16.27-.04.88-.11.37.07.36.24.24.03.18-.07.22-.33.35.03.64.19.35.18.21.41.26.02.59-.25.69-.23.59-.31.09-.12.02-.02-.02-.14-.11-.08-.55-.03-.04-.11.13-.11.05-.04.42-.12.33.15.16.16.06.21-.12.28.02.19.26.49.03.03.44.42.5 1.41.08.24.53.69.12.07.61-.01.82.58.17.23.19.7.34.51.26.15.17.09.66-.07.62-.08.25.08.19.25.19.08.19-.03.05-.14-.04-.18-.27-.5-.12-.11-.57-.16.08-.13.19-.03.52.23.24.26.27.52.06.12.23.79.16.32m276.4 0 .25-.24.08-.02.93-.24.8-.03.39-.08h1.16l.51-.18.69-.05.44-.3.54-.25.63-.27.51.23.92.42.82.21.86.07 1.48-.07.45.08.82-.05.2-.05.73-.18.73-.25 1.7-.94.54-.43.24.01.37.36.28.15.34.29.07-.15-.05-.21-.66-.32-.04-.09.13-.29.22-.13.33-.09.68.02.65.24.46.09.74-.02h.16l.37-.01.96.06 1.51-.12.64-.14.48-.18.51-.38.49-.23.21-.26.25-.31.68.02.44-.38.41-.22.47-.16.75-.09.42-.2.73.03.26-.08.68-.47.16-.11 1.15-.26.41-.16.28-.24.2-.39.38-.35.54-.32.78-.22.99-.48.68-.33.97-.66.41-.21 1.33-.36.62-.27.92-.82.87-.78.53-.6.41-.52.89-1.58.37-.76.28-.22.16-.25.24-.74.12-.57.09-.42.24-.65.27-.64.39-.66.04-.27-.34.4-.6 1.11-.19.44-.13.5-.37 1.42-.15.03-.03-.17.78-2.68.5-.93.08-.15.28-.34 1.01-.89.38-.15.6-.4.87-.12.19-.17.12-.35.11-.09h.26l.67.15.88.19 1.5-.54.86-.39.44-.08.75-.29.57-.11.34-.25.1-.07.52-.05.25-.2-.06-.1-.54-.03-.35.14-.28.32-.12-.07.3-.45.18-.1.79-.04.32.07.31.19.63.62.51.35.89.47.32.14 1.52.22.5-.04.71.38 1.59.42.78.35 1.21.56.76.49 1.62.79.45.04.91-.06.28.05.39.08.7-.02 1.09-.15.23.07.71.44.33.3.59.22.25.05 1.06.24.15.03.76.36h.6l.77-.27.45-.02.35.17.12.14.04.05.1.44-.1.54-.8 1.6-.35.51-.09.34.07.69-.12.44-.36.52-.13.32.43.79.05.31-.11.48-.08.18-.46.98-.55.26-.13.13-.27.73-.16.18-.38.19-.89 1.32-.56.48-.03.01-.4.52-.33.54-.34.78-1.11 1.45-.22.47.01.21.13.38.01.46.01.05.09.39-.13.81m-340.51 0 .15-.25.18-.08.28-.03.16.09.05.2-.01.07m-6.16-.34.95-.85.15-.4.18-.88.17.12-.22 1.03-.12.24-.95.74h-.16m5.17-1.94-.04-.14.08-.26.31-.37.24-.13.08.11-.46.67-.21.12m-11.04-9.88-.07-.09.35-.45-.05-.09-.37-.07-.02-.09.35-.08.25.08.05.11-.06.38-.24.26-.19.04m-.37-.3-.45-.09-.14-.11-.02-.15.19-.09.55.21.08.09-.21.14M600 133.9l-.4.07-.03.01-.17-.24-.19-.09-.32-.31-.05.11.01.41-.05.12-.25.19-.06.26-.37.09-.15-.12-.34.14-.15-.13-.27-.04-.04.24-.19.09-.44-.19-1.16.22-.31-.05-.1.13-.28.02-.08.11.04.22-.18.15-.34.04-.33.21-.12-.18-.25-.07-.11-.12-.07-.08-.08-.1-.19-.07-.05-.09-.52.35-.2-.29-.37-.22-.21.05-.41.3-.09-.08-.27-.03-.15-.27h-.26l-.12-.23-.7-.13-.26.08-.11-.34-.21.01-.22-.12-.06-.13.22-.49.02-.21v-.02l-.04-.11-.12-.34-.37-.36-1.04-.36-1.35-.21-.3-.01-1.45-.06-1.39-.17-.45.04-.98-.07-.36-.03-2.68.15-.26.05-.21.16-.13-.06-.33.02-.35-.14-.63-.04-.24-.08-1.11-.02-.48.02-1.81.08-2.14.2-1.23.18-3.37.56-3.62.6-.74.09-.18-.07-.34.13-.76.14-.52.16-.14-.05-1.09.54-.3.28-.44.42.16.2.03.21-.09.21-.06.16.23.19.28.03.06.01.07.11-.15.19-.4-.06-.31.04-.46.29-.11.22-.41.34-.42-.11-.32.06-.13.13-.12.35-1.51.13-.4.1h-.2l-.28-.18-1.23.25-.21.18-.57.1h-.52l-.33-.09-.34.02-1.76.32-1.12.36-.11.41-.65.47-.36.46-.3.13-.41.29-.1.19-.18.04-.59.43-.4.09-.43.56-.14.36.05.21.06.26-.14.14-.4.02-.81.42-.78.15-.31.23-.43.02-.88.31-.24.32-.41-.16-.81-.03-.38-.19h-.63l-.29-.11-.81-.11-1.73.19-1.06.18-.29.28-.28-.03-.5.13-.9.11-.82.23-1.89.15-1.17.54-1.04.08-.29.14-.37.09-.3.07-.7.3-1.97.54-.44.03-.42.11-1.62.79-.26.19-.63.18-1.28.56-.51.22-.43.05-.34.11-.28.1-.62.15-.47.11-.36.08-.69.14-3.19.67-.26.11-.06.02-.04.04-.42.38-.28.13-.18.02-.54.1-.49.24-.4.07-1.43.51-.94.47-.3.25-.47.23-.46.15-.62.1-1.26.5-.92.27-1.99.92-.48.18-3.07.95-.94.29-.45.18-.21.08-3.14 1.23-2.61 1.23-.25.04-3.47 2.73-.81.82-.27.26-.53.55-.08.08-.83.93-.2.33-.42.59-.17.12-.21.16-.13.14-.62.59-.8 1.15-.82 1.03-.14.17-.2.3-.65 1.59-.37.57-.31.74-.09.56-.04 1.09-.15.65-.67 1.06-.27.42v.17l-.53 1.2-.09.16-.1.17-.09.16.18.27-.19.39-.07.14-.32 1.04-.08.59.17.73.08.14.29.07.06.33.08.09.26-.02.09.27v.14l-.29.49-.03.19.06.33-.19.92.11.68.06.25.18.23.41.19.35.04.16.1.62.92-.05.08-.05-.01-.24-.07-.05.17.26.62-.14.39.06.19.24.16.01.08-.34.15-.22.28-.05.37.53 2.42.01.05.57 1.96.16.24.16.61.24.28-.09.32-.4.23-.79.89-.16.08-.11-.01-.37-.05-.26.04-1.76.65-.26.05-.17.03-.94.31-1 .43-1.64.6-.81.19-.84.39-.14.07-.62.12-.54.25-.66.14-.59.26-.62.43-.59.11-1.52.73-.21.15-.86.36-.16.36-.22-.03-.37.33-.11.21.03.11.38.12-.26.29-.02.22.09.14.27.05.08.11-.49.14-.29-.07-.5-.46-.15-.15-.27-.06-2.71.74-2.3.89-.1.04-1.38.62-.61.39-.63.38-.24.28-.25.47-.04.24.13.38.16.22.25.16.42.09.36.37-.34.15-.39.06-.54.09-.27.14-.58-.04-.36.08-.47-.23h-.36l-.6.28-.52.01-.88.37-.8.12-.96.39-.61.26-.64.08-.31.3-.15.33-.45.18-.13.31-.08.02-.22-.23-.3.28-.58.11-.38.16-.08.18.12.27-.03.07-.48-.19-.21-.01-.16.07-1.37.53-.09.22v.22l-.14.07-.46-.04-.25.06-.34-.2-.18.04-.31.17-.87.2-1.06.36-.17.06-1.39.64-.61.15-.67.41h-.36l-.17-.08-.98.32-.9.38-1.45.39-.16-.06-.07.14-.2.04-.77.05-2.33.58-1.14.24-.72.12-.56.18-.73.03-3.01.97-.54.03-.61.05-3.54 1.23-.66-.1-.57.16-2.31.59-.49.19-.14.06-.36-.12-.4-.03-1.59.44-.9.1-.44.08-.83-.04-.67.21-.64.07-.98.31-.88.07-1.19.29-.39.1-.93.29-.89.27-.28.15-.52.48-.25.11-.49.03-.1.06-.15.07-1.09.8-1.15.62-.04.06-.33.43-.43.17-.17.01-.41.52-.19.14-.1.24-.4.3-.18.36-.2.02-.25-.18-.21-.07-.57-.02-.44.12-.25.14-1 .47-.94.59-.78.46-1.59.88-.19.18-.12.48-.01.02-.21.26-.29-.04-.5.12-.47-.08-.36-.17-.25-.03-1.17.1-2.16.81-.11.04-1.12.26-.23.17-.11-.08.02-.47-.17-.41-.22-.24-.46-.23h-.23l-.79.02-.62.16-.62-.02-.6-.19-.26.04-.52.3-.67.21-.47.28-1.96.84-.59.17-.13.11-.08.01-.86.11-.73.26-.73.38-1.59.42-1.64.16h-.03l-.43.12-2.48.63-.45.06-2.76.98-.86.52-.79.35-.62.45-.39.12-.38.29-.27.22-.26.1-.54.13-.54.26-.7.18-.4.27-.77.22-.19.14-.18-.04-.03.18-.28.09-1.3.31-1.59.73-.96.43-.6.17-.71.59-.42.22-.54.18-.29.31-.38.07-1.09.66-.91.65-.93.4-.46.31-.25.25-.17.55.02.33.08.24-.01.13-.02.18-.14.09-.16-.01-.04-.01-.35-.35-.29-.11-.08-.25-.32.07-.21-.05-.37-.23-.21-.03-.4-.06-.59.19-.41.38-.48.3-1.39 1.57-.22.25-.92 1.28-.38.96-.34.34-.18.34-.03.64-.29.27-.04.25.05.26-.26.55.06.16.44.41.1.24-.12.43-.19.38-.28.23-.48.21-.72-.04-.36.11-.17.15-.28.3-.25.06-.04.13.09.21-.23.17-.18.7.07.07-.57.38-.21.38-.18-.24-.14.01-.34.27-.7.22-.15.15-.15-.01-.11.11-.1.3.13.77-.56.61-.22.36-.23.36-.85 1.05-.85.46-.4.65-.35.25-.91.38-.18.24-.32.14-.34.43-.22.27-.15.19-.11.33-.35.37-1.05.8-.66.5-.07.06-.67.3h-.05l-.33-.01-1.61-.2-1.43.04-.71.12-1.7.11-.26.07-.93.28-.53.28-.93 1-.63-.13-.26.03-.24.18-.32.48-.23.04-.15-.35-.01-.37-.01-.26-.1-.14-.24-.24-.28-.09-.17.04-.02.32-.1.07-.56-.11-.31-.19-.9.27-.27.02-.54-.18-.52.08-.68-.21h-.45l-.32.08-.08.14.21.33-.05.22-.34-.07-.38.06-.65.29-.18.42-.11.06-.3-.36-.2-.08-.18.02-.22.33-.52-.11-.08.05-.11.22.13.26-.08.09h-.1l-.15-.01-.26-.36-.52-.1-.25-.22-.11-.02-.18.2-.19.48-.34.11-.9-.16-.3-.25-.09-.36-.17-.15-.65-.61-.16-.09-.86-.52-.92-.25-.69-.33-1.76-.65-1.4-.2-1.66.09-1.32.28-.72.44-.53.23-.83.58-.64.46-.37.44-1.8 1.68-1.57 1.01-.87.56-1.02.25-1.77.07-1.34.43-.41.22-1.18.65-.64.61-.44.24-.31.04-.22.14-.7.87-.37.24-.32.33-.17.33-.24.45-.56.24-.37.26-1.17 1.25-.67.39-1.14 1.15-.07.08-1.62 1.48-.63.36-.41.39-.91.5-.8.69-.39.33-.74.38-.7.15-1.6.15-.54.17-.53.35-.81.27-1.3.43-.11.04-2.32.63-1.24.05-.56.22-.36.14-.87.07-.61.17-.86.32-.61.33-.47.13-1.29.04-.43.11-2.82.68-1.21.01-.99.23-.54.26-.22.1-.77.54-.77.36-.27.18-.79.81-.45.22-.38.05-.93.65-.19.05-1.18.28-1.14.53-.95.25-.9.36-.56.33-.24.07-.32.05-.41-.11-.18-.05-.79-.19-1.93-.13-1.56.31-1.37.18-1.03.36-1.54.15-.54.13-.64.03-1.03.24-.16-.06-.04-.02-.41-.35h-.08l-.89-.05-1.39.28-.31-.09-.53.08-.6-.2-.7-.11-.48-.19-.7-.03h-.15l-.58-.17-1.65-.12-3.31.37-.31.1-1-.07-.89.19-1.91.24-.87-.11-.64-.27-.51.04-.96.17-.34-.01-.76.26-.78.16-1.58.04-.03.01-.29.07-.43.21-.37.15-.78.09-.41.01-.36-.06-.92.24-.92.23-.47.06-.28-.04-.48.12-.61.27-1.5.38-.53-.03-.27.08-1.06.48-.26.04-.98-.07-.81.19-.91.49-.7.54-.56.57-.27.28-.63.37-.31.39-.32.22-.78.67-.28.36-1.16 1.17-.03.03-1.34 1.56-1 1.34-.08.11-.17.39-.17.37-.31.41-.25.32-1.65 1.54-.34.49-.15.12-.82.85-.56.42-.36.15-.51.11-.64.05-1.09.09-1.16.24-.03.01-.33.1-1.59.5-.6.26-2.45.74-.42.18-1.16.49-.64.53-.07.16-1.21 1.18-.04.04-.21.56-.49.94-1.3 2.52-.43 1.32-.08.24-.17 1.13-.02.01-.03.34.05.19.13.13.37.03.07.11-.02.33.17.29-.08.15-.14.03-.31-.18-.2-.01-.08.11-.06.27-.21.14-.37.04-.96-.18-.15-.1-.2-.4-.24-.15-.67-.43-.1-.13.07-.36 1.02-.21.23-.05.61.23.2-.04.2-.21.04-.04.03-.17-.18-.38-.42-.32-.33-.66-.05-.12-.33-.29-.06-.06-.18-.02-.12.28.04.31-.05.17-.2.1-.5-.15h-.64l-.72.14-.79.13-.32.12-.44.33-.34.43-.23.45-.09.75-.32.04-.15-.15-.77-.82-.04-.04h-.49l-.21.14-.27.47-.08.13.11.22.09-.03.32-.13.35-.02.25.08.37.26.36.07.07.02.18-.01.67-.06.52.08.08.06.03.16-.09.26.05.27-.08.23-.63-.09-.58.12-.15.22.35.4-.8-.23-.05.1.13.23-.04.11-.94-.14-.26.02-.33.28-.28-.46-.2-.05-.29-.07-.15-.1-.08-.19.21-.57-.06-.19-.01-.01-.42-.26-.25-.16-.6-.11h-.36l-.94.21-1.17.45-.03.2-.02.08-.57.49-.21-.4.24-.22.07-.61.28-.05.03-.19-.07-.13-.18-.1-.09.04-.08.3-.18-.07-.39-.45-.72-.49-.48-.25-.39-.22-.1-.05-2.18-.42-1.43.02-.66.08-.65.16-.15.07-.19.1-1.11.56-.68.45-.74.6-.08.07-.39.41-.72 1-.37.41-.38.43-1.5 2.04-.15.05-.28-.54-.16-.06-.37.04-1.17.45-1.34.53-.72.38-.46.31-.73.26-.41.35-.23.06-.73-.14-.51.29-.21.01-.31-.09-.46-.3-.25-.04-.29.04-1.54.69-.81.11-.56-.2-.47-.06-.27-.12-.16-.14-.27-.22.05-.07.16-.02.34.33.29.11.41-.02.62.25.67-.1.13-.12.09-.26-.09-.26-.15-.23-.29-.21-.75-.23-.37-.18-.28.01-.32.29-.43.12-.87.6-.72.39-.23.04-.02-.04-.76.36-.41.29-.22.05-.28.23h-.34l-.26-.14-.39.03-.24.13-.47-.1-.46.18-.79-.03-.46.17-.45.25-.39-.11-.05-.01-.3.1-.32-.16-.35-.04-.42-.13-.31-.26-.11-.2.01-.29v-.45l-.03-.1-.07-.26-.14-.17-.1-.13-.22-.13-.64-.17-.45-.28-.57-.02-.72-.17-.61-.51-.37-.18-.23-.12-1.17-.6-.44-.05-.39.11-.29.07-.22-.18-.15-.02-.19.02-.29-.23-.3-.19-.44-.26-1.76-.36-.28-.24-.28-.08-.47.05-.33-.2-.28.14-.15-.05-.27-.03-.17-.19-.36-.2-.23.06-.16-.03-.17-.22-.33-.01-.19-.03-.44-.32-.51.01-.43.21-.79.55-.51.51-1.12 1.64-.09.04-.04-.02-.33-.12-.2.08-.21.17-.16.13-.24-.04-.3.17-.07-.22-.36-.01-.21-.17-.15-.01-.11.33h-.35l-.18-.12-.32-.74.55-.86h.19l.06.38.38-.07.09.15.08.12.21-.07.13-.15-.12-.27-.35-.07-.25-.28-.22-.04-.16-.25.06-.8.12-.29.02-.1.21-.94.28-.57.17-.7.19-.75-.02-.25-.22-.51-.87-.95-.98-1.35-.46-1-.13-.27-.27-.57-.24-.27-.34-.18-.13-.16-.09-.3.05-.42-.31-.92-.28-.48-.64-.75-.36-.42-.44-1.29-.71-1.37-.37-.48-.63-.64-.32-.28-.36-.83-.65-.6-.25-.47-.83-1.61-.56-.87-.3-.89-.05-.49-.41-.83.03-.19.24-.24.08-.3-.31-1.27.01-.88-.2-.16.06-.13.34-.14.11-.13.15-.85.07-1.01.11-.2-.09-.35-.1-1.26.42-1.2-.28-.7.17-.54.13-1.16.06-.24.2-.84-.03-.5.19-.46.19-.79.28-.4.03-.15-.14-.35.06-.15.57-.5.11-.37-.29-.26-.08-.07-.06-.13-.09-.21-.05-.38.19-1.49.18-.8-.09-.4-.45-.92-.16-.19-.29-1.16-.4-.74-.51-1.42-.49-.88-.02-.32.1-.56-.28-1.09.11-.9-.08-.72-.4-.31-.74-.33-.25-.44-.11-.45-.18-.36-.36-.26-.44-.09-.15-.1-.11-.31-.31-.26-.09-.66-.54-.52-.07-.18.11-.77-.06-.12-.21-.41-.59-.36-.24-.34-.4-.96-.61-.68.03-.15.29-.25.02-.21-.11-.42-.51-.8-.26-.7.04-.64-.13-.29.03-.37-.14-.5-.41-.78.01-1.14-.24-1.12-.16-.38-.37-.31-.04-.2.03-.15-.19-.5-.48-.74-.28-.71-.02-.35-.09-.74-.07-.54-.58-1.22-.93-1.36-.28-.08-.11-.61-.04-.31-.09-.61-.2-.43-.39-1.3-.71-1.6.09-.12.09.03.25.36.05.35.12.21.14.04.05.01.04.04.29.3.21.36-.06.3.12.17.17-.31.26-.04v.02l.2.19.18.87.04.04.12.14h.06l.18.02.14-.23.03-.38-.12-.42-.42-.5.02-.16.21-.07.03-.37-.04-.69-.04-.89.09-.71-.14-1.06-.51-1.75-.03-.07-.29-.05-.03-.37-.34-.22-.15-.26-.06-.19-.06-.14.04-.16.23-.33.07-.29-.09-.44-.04-.07-.18.07-.12-.29-.29-.29-.01-.1.12-.12-.25-.29-.12.02-.05-.05-.41-.94.03-.23.3.3.17-.09-.54-.63.01-.14.16.02.03-.17-.3-.33-.06-.32-.13-.21.12-.16.07-.08-.11-.37-.33-1.15-.09-.28-.49-.6-.47-.28-.19-.59-.54-.4-.33-.35-.43-.23-.27-.3-.05-.19-.35-1.38-.25-.53.17-.71.21-.09.56-.06.04.14-.29.05-.09.1.2.24-.29.29-.06.37.03.39.02.05.57 1.3 1.33 1.14.22.27.1.33.17.26.28-.33-.24-.5.03-.11.22-.12.05-.13.2-.43.12-.47-.03-.3.26-.51-.09-.51-.13-.73v-.44l-.23-.79-.24-.26-.24-.42-.36-1.15-.98-1.26-.28-.12-.06-.05-.71-.64-.28-.76-.15-.91-.04-.83-.24-.55.03-.17.31-.39.05-.46.03-.28-.15-.33-.28-.35-.21-.62-.46-.47-.53-.43-.58-.34-.5-.22-.32-.04-.79-.51-.05-.02-.7-.22-1.05-.51-.95-.28-1.23-.21-.55-.04-.72.15-.12.19.02.09.1.39-.15.38-.16.1-.34.08-.85.03-.17-.1-.4-.68-.16-.46-.74-.94-.02-.16.21-.61.25-.06.18.01.28.21.25.07.61.42 1.1.13.15-.07.34-.39.15-.28.01-.48.16-.09.11-.24.09-.02.12.16.05-.18-.13-.34-.02-.02-.62-.9-.23-.57-.05-.27.05-.11.45-.06.44-.69-.02-.54.1-.53.46-.36.13.23-.14.34-.31.75-.27 1.16-.02.48-.01.14.13.02.02-.05.23-.35.3-.22.33.05.64.57.11.21-.09.25.05.23.06.11.09.19.15-.01.18.18.14-.03.1-.19.13.1-.01.34.12.13.14-.19.13.11.06-.52.1.06.26.51.25.9.18 1.45.11.09.13-.26h.1l.22.3.07-.12-.14-.37-.31-.37-.09-.21.09-.14.24.01.31-.89.72-.7.2-.31.06-.26-.04-.25-.38-.34-.23-.42-.08-.34.01-2.1-.4-.53-.1-.35.06-.18-.04-.25-.37-.6.16-.41-.06-.34-.12-.19-.09.03-.15.28-.17-.02v-.23l.4-.6-.11-1.22.01-.11-.33-.47-.06-.46-.38-.62-.15-.49-.04-.15-.31-.49-.38-.38-1.18-.42-.31-.3-.22-.51.4.08.08-.05v-.2l.13-.44.22-.13.22-.65-.01-.07-.04-.24-.57-.56v-.03l-.08-.47-.26-.24-.09-.29.05-1.28v-.1l.32-.23.02-.09.1-.8-.09-.21-.22-.01-.26.09-.04.01-.12.04-.02-.03-.13-.21.15-.41-.11-.54.05-.38.12.02.27.23.19.03.12-.16-.02-.13-.28-.26.2.04.16.11.1-.05-.13-.23.05-.06.19.15.09-.02.27-.33.46-.12.35-.26.17-.2.1-.44.02-.31-.15-.38v-.18l.13-.01.11.22.56-.39.18-.76.47-.22.2-.22.04-.14.07-.29.16-.55 1.11-1.05.13-.14.09-1.25.18-.73-.07-.46.05-.46.31-.58-.04-.47.18-.69-.02-.12-.12-.67.07-.42.27-.62.2-.51-.16-.72.24-.81v-.31l-.06-.34-.25-.44-.18-.15-.01-.23.2-.39.01-.27-.39-1.03.01-.06.02-.78-.12-.32.05-.22-.2-.5.21-.14.19-.24-.1-.19.09-.19-.23-.47-.2-.2-.11-.18.02-.41-.13-.12-.14-.29-.27-.33.23-.34-.09-.26-.04-.6.17-.18-.22-.1-.18-.51-.31-.33.07-.22-.1-.75.21-.87-.23-.75-.13-.01h-.02l-.18-.26h.04l.2.02-.04-.19.05-.1.09-.03-.04-.02-.06.02-.11-.07-.02-.01.01-.03v-.04l-.03-.03-.05-.09-.11-.07H59.81l-.08.02-.03-.04-.01-.04-.03-.06-.02-.03-.1-.11-.02-.07-.03-.04-.02-.13-.03-.14v-.03l-.02-.07-.01-.05-.01-.02-.03-.03-.02-.01h-.02l-.01-.01v-.04l.01-.02.01-.01.01-.02.02-.03.02-.02.04-.06v-.01h.01l.02-.02v-.04l.01-.01.01-.02.02-.03.01-.01h.01l.01-.01h.02l.02-.01h.02l.03-.03v-.07l-.02-.06-.02-.02h-.01l-.02-.01h-.04l-.01-.01-.02-.01-.01-.02v-.02l.02-.03.01-.02.03-.01.04-.04.02-.08.02-.03-.23-.06-.03-.06.03-.05-.02-.2-.15-.38-.11-.04h-.02l-.01-.05v-.05l.02-.15.18-.12-.12-.11-.03-.03.14-.12.16-.14.11-.3.03-.08.04-.12.04-.09.06-.18.01-.18-.01-.16-.05-.16-.03-.1-.07-.18-.17-.22-.02-.03-.09-.11-.13-.17-.9-.45-.27-.48-.12-.12-.27-.55.14-.36-.06-.14-.32-.35-.04-.2.04-.19-.07-.16.04-.2-.35-.39-.29-.78.04-.34.22-.28.02-.59.13-.25.27-.27.01-.44.06-.09-.05-.33.09-.17.1-.27-.27-.32.24-.23.06-.12-.05-.23.18-.04v-.18l-.17-.15-.17-.01-.27.18-.11-.24v-.25l.13-.36-.1-.23-.04-.33-.14-.04.06.36-.04.44-.28-.32.02-.09.11-.36-.26-.62-.15-.14-.15-.32-.27-.14-.24-.27.02-.11.2-.04.42.32.18.03.09.17-.12.11-.01.15.43-.46-.03-.16-.21.09-.71-.33-.21-.17-.39-.83-.19-.33-.33-.56-.24-.11-.44-.46-.08-.39-.41-.22-.27-.32-.41-.3-.33-.15-.32-.05-.16.09-.21-.26-.25-.13-.44-.11-.45.01-.18.39-.19-.03-.06-.23.19-.13-.12-.14.1-.14-.18-.14-.05-.24.18-.13-.1-.24-.4-.46-.38-.03-.22-.28-.43.04-.06-.25.25-.58.18-.1.42-.04.15-.26-.03-.13.1-.22-.01-.15-.2-.13-.09-.21-.11-.22.14-.29-.39-.58.1-.2-.04-.2.15-.41-.08-.1.27-.32-.02-.11-.04-.34.11-.5-.34-.21-.64-.07-.14-.17-.11-.6-.28-.25-.52-.25-.36-.17-.79-.22-.22.1-.58-.09-.52-.48-.26-.15-.13-.16-.06-.35-.23-.42-.29-.31-.01-.21-.43-.2-.1-.12-.1-.3-.14-.13.05-.32.03-.19-.09-.39.1-.39.19-.36-.04-.29-.13-.13-.17.08-.1.17-.38.03-.14-.14.26-.19-.01-.17-.11-.11-.37-.18-.46-.38-.45-.17-.3.17-.09.15.03.11.09.03.16.06-.01.21.49.55.03.31.2.23-.14.16.29.28-.05.18.33.36-.13.07-.29-.1-.2.03-.39.32-.13.23.04.68.24.5.01.14-.1.22.09.26-.05.47.13.41-.03.36.2.09-.04.24-.24.22-.13.38-.16-.37-.09-.63.03-1.02-.05-.47-.08-.99.04-.72-.09-1.08-.14-.63-.58-1.67-.14-.39-.05-.12-.15-.2-.02-.24-.13-.11.07-.42-.2-.99.17-1.91-.14-.83-.19-.6-.02-.06.05-.3-.43-1.27.01.85.05.14-.04.09-.4-.19-.04-.1.16-.63-.06-.52.06-.43.33-.58.12-1.21-.1-.64-.29-.68-.22-.3-.59-.25-.2-.03-.26-.59-.24-.22-.37-.09-.17.08.33.12.19.3-.09.15.02.6-.15-.07-.17-.23-.1-.54-.17-.32-.22-.08-.09-.24-.17-.44.25-.15-.09-.11-.35-.05-.3-.31-.15-.06-.02-.15-.07-.04-.01-.22.07-.17-.26.05-.11-.04-.18-.21-.59-.4-.25-.05-.38-.36-.24-.06-.22-.51-.11-.08-.24-.03-.15-.34-.67-.26-.31.02-.08.07v.17l-.16-.05-.13.11-.14-.27.07-.33.22-.13-.06-.08h-.18l-.13-.13-.1.07-.02.11.09.18-.08.07.05.41-.11-.09-.16-.52.18-.72-.11-.52-.3-.3-1.29-1.26-.23-.1-.09-.03-.34-.29-.39-.45-1-.24-.31-.63-.6-.57-.72-.45-.19-.02-.22.08-.34-.13-.17-.09-.14-.19-.19-.2-.37-.06-.35-.39-.47-.09-.36-.4-.06-.23-.3-.34-.37-.04-.37-.29-.28-.47-.06-.05-.31-.24-.29.05-.66-.45.01-.4-.37-.29-.26-.3.39-.07.08-.22-.04-.14-.3.02-.15-.07-.12.23-.11.06-.16-.04-.34-.26-.21-.06-.16.15-.3-.02-.05-.03-.28-.15-.19.07-.22-.08-.83-.76-.37-.05-.11-.36-.09-.07-.11.03-.23-.1-.12.06-.42-.05-.16.14-.12-.02-.19-.18-.01-.13.21-.11.11-.16.01-.45-.42-.28-.11-.06-.42-.57-1.71-1.28-.33-.27-.26-.34-.05-.35-.29-.03-.12-.16.04-.21-.52-.16-.53-.46-.21-.33.07-.11.25.22.49.17.07-.12-.21-.25-.29-.11.16-.16-.14-.17-.13-.16-.24-.09-.23.05-.21-.26-.29-.09-.52-.04.01-.51-.21-.28.1-.22.15.05.53-.08-.04-.18-.36-.39v-.12l.18-.1.09-.1-.11-.2.02-.17-.22-.27-.25-.02-.35-.15-.48-.33-.25-.05-.28.12.06-.52-.1-.11.06-.11-.15-.11-.19.01-.19-.32-.18-.08-.11-.07-.04-.02-.1-.35.07-.26-.11-.27.08-.16-.11-.18.01-.49-.13-.07-.04-.15.11-.16-.08-.09-.06-.33-.18-.06-.12-.27.02-.04.09-.14-.12-.13-.67-.01-.26-.18.03-.19.49.04.11-.1-.33-.27-.19-.5-.39-.19-.05-.16-.3-.34-.2.24-.15.01-.08-.07-.05-.17.11-.2.26-.03.16-.32.03-.07-.02-.09-.2-.05-.12-.19.03-.28-.28-.15-.36-.52-.04.68-.16-.02-.34.46-.14-.02-.29-.22-.08-.29.14-.52.32-.22.06-.24.35-.31.24.03.02-.25-.11-.24-.32.38-.22.02-.12-.12.06-.14.39-.29-.15-.21-.26.11-.13-.18-.17-.02v-.18l-.07-.09-.29.08-.2.21-.32-.42-.04-.28.06-.25.36-.03-.17-.21-.02-.29-.21-.02-.19-.47-.31-.17-.12-.15-.29-.84-.25-1.16-.18-.36.01-.69.12-.11.27.05.11-.34-.15-.62-.18-.18-.14.11-.08-.18.19-.41-.34-.36.1-.21-.13-.2-.2-.07-.05-.1.23-.61-.04-.14-.24-.04-.03-.04m0 .89.02.07.06.11.02.06-.07.05H0m51.42 113.16-.08-.09.04-.08.45-.39.08.11-.49.45m-8.02-8.15-.19-.06-.05-.11.03-.15.22-.06.19-.19.16-.06-.16.57-.2.06m-5.7-2.32.09-.03.02.14-.58.28.01-.16.21-.18.25-.05m4.46-1.74-.27.17-.09.15-.13-.01-.14-.08-.08-.21-.2-.17-.09-.54.26-.5.26-.31.11.42.09.11.39.17.09.19-.12.54-.08.07m5.17-3.06-.17-.03-.26-.17-.37-.02-.14-.12.15-.11.3.05.52.23.06.06-.09.11m-5.82-1.17-.2.41-.05.37-.12.13-.22.01-.21-.07-.08-.15.03-.26.41-.2.09-.31.18-.04.17.11m-6.85-1.15-.19.05-.09.18.03.15.2.23-.04.17-.35.05-.08.17-.27-.13-.13-.29.15-.52-.06-.45.07-.27.13-.08.17.01.12.16-.03.09-.16-.14-.08.03v.11l.12.1.28.06.21.32m-10.64.1-.16.2-.41-.06.06-.17-.14-.44.11-.34.14-.12.19.14.06.54.15.25m12.9-1.26-.8 1.17.06.25-.33.28-.06-.04.06-.2-.17-.12-.02-.18.13-.31 1.13-.85m3.71-1 .04.09-.13.1-.55.1.05-.12.19-.01.22-.16h.18m3.85-.09.04-.14.2-.17.33-.06h.59l.04.15h-.61l-.26.08-.12.17-.21-.03m14.81-1.37.05-.32.06-.03-.02-.2.04-.06.05-.01-.03.05v.02l.05-.03-.01-.04-.09-.05.02-.04.13.06.01.02-.04.06-.09.04.05.11.09.08.04.04-.01.05h-.1l-.02.02-.03.12-.1.13-.03.08.01.05.06.02.04.21.02.16.05.21.11.13.04.07.06.12.15.05h.08l.03.15.05.07h.06l.01.04h-.09l-.17-.14-.17-.15-.03-.03-.14-.18-.18-.17-.08-.07-.09-.08-.01-.15v-.01l.07-.17.1-.23m-20.7.25.12.05.1.05-.02.11-.11.07-.29-.06-.44.07-.03-.07.14-.17.07-.01.46-.04m1.3 4.68-.47-.04-.33-.14-.25-.03-.33.05-.1-.09-.1-.26.09-.33.2.03.22-.12.84-.76.31-.19h.23l.09.29.25.41-.19.28.03.24-.13.2-.01.23-.14.17-.21.06m5.57-.71.37-.66.25.18-.13.35.18.28h.29l.15.17.04.05.18-.01.34.22h.16l.43-.17-.12.3.19.24-.1.08-.46-.14-.92-.05-.19.07-.18.31-.27-.29-.18-.44-.29-.04-.05-.08.31-.37m-24.3-5.84-.45.05-.05-.21-.23-.35.47.16.26.35m6.63-4.75-.46-.03-.37-.62-.07-.31.01-.12.01-.23.32-.45.55.07.1.13-.19.66.02.16.09.03.22-.43.1-.5.13-.11.08.03.03.18.15.24-.4.91-.16.27-.16.12m22.13-7.42.16.14-.4.22v.15l.14.23-.04.13-.26-.13.08-.42.26-.32h.06m-43.17.55-.23-.1.03-.1.25-.1.4.01.18.08-.03.12-.42-.02-.18.11m10.52-.04-.27-.2-.24.02-.33-.36-2.05-.2-.36-.34-.54-.12-.79-.81.05-.15.11-.07.17-.02.6-.05.41.18-.13-.18v-.15l1.54.26.53.18.42.25.2.22-.05.08-.12.01-.22-.21h-.27l-.05.09.38.24.09.09.29.3.77.4.13.36.02.38-.29-.2m17.31-2.95v-.34l.13-.36.18.28-.01.17-.3.25m6.17 7.25.27.1.26.31-.08.04-.45-.45m-4.21-1.58.08.02.08.17-.06.38-.12-.08-.05-.43.07-.06m-18.3-2.28.35.17.3.27.55.18.44.64-.04.09-.07.02-.26-.22-.63-.06-.16-.43-.29-.11-.11-.15-.24-.17.16-.23m3.55 2.6-.27-.03-.67-.5.05-.07.31-.04.07-.21.29.06-.08.16.3.63m3.01.51-.33.45-.21.11-.25.03-.12-.07-.02-.17.19-.19.36.01.38-.17m1.91-1.26-.08-.09-.34.15-.08.27-.12.07-.16-.07-.09.16.23.42-.07.22-.22-.11-.18-.23-.02-.2.07-.21-.34-.23-.37.18-.05-.32.08-.37.15-.1.25-.02.24-.45.27-.06.68-.15.2.04.39.43.01.14-.4.7.07.18-.15.36.03.45-.11.13-.19-.41-.04-.33.1-.33.24-.22m10.38 9.62-.19-.34-.18-.14-.41-.19-.3.04-.18-.13.11-.1.35.04.3.07.34.22.3.05.03.21-.17.27M0 97.59l.11-.01.04.13-.15.05m4.81-15.28-.01-.4-.05-.19-.18-.12.01-.18.34-.08-.03.18.11.24-.19.55m9.83 47.92-.23-.05-.27.03-.19-.08-.47.01-.14-.28.06-.14.46-.3.31.22.14-.04.41.13.14.1.11.16-.1.16-.23.08m6.35-1.99h.12l.35.19.24.22.4.5-.02.12-.63-.27-.29-.25-.19-.39.02-.12m.54-.05h.1l.63.58.08.22-.03.08-.12-.04-.68-.69.02-.15m21.46 4.34.11-.03.49.44.6.35v.1l-.25-.04-.42-.31-.53-.51m-33.01-.86-.11.15-.21.06-.38-.09.27-.33.39.06.04.15m2.17 4.68.19-.22.24-.13.45-.13.18.1-.05.18h-.12l-.15.14-.16.05-.09.11-.41.01-.08-.11m3.64-2.41.06-.48-.04-.13-.3-.17.75.1.31.11.15.36.27.13-.02.08-.28.22-.2.49-.44-.12-.26-.59m6.42.63-.19-.12-.23-.17-.21-.02-.14-.1-.13-.16-.13-.59-.26-.18-.3-.07-.08-.2-.53-.54-.69-.38-.68-.01-.23-.07-.17-.21v-.13l.42.2.05.02.19.02.14-.09.82.38.08-.05.35.13.03.19.28.47.31.07.36.34.31.04.34.19.29-.06.04.21.17.09.1.42-.11.35-.08.05-.12-.02M6.3 83.42l-.24-.26.15-.2.16.03.06.11-.02.16-.11.16m19.46 59.35-.39-.63-.16.04-.16-.2.26-.24.13-.25.11.05.05.27.11.19.18.02.19.19-.23.16.02.13.18.08-.08.11-.21.08m19.4-.69-.15.02-.19-.3.02-.18.18-.04.2.13-.12.22.06.15m-30.26-4.64.24.14.06.31.62.36.04.17.59.17.34.01.14.11.15.05.27.08.31.38.57.36.23.01.1.1-.04.57.14.19.46.21-.13.95.09.32.35.61.36.44.29.35.46.36.35.13.41.01.24-.1.27-.02.46.04.62.4.44.17h.73l.82-.41.28.12.21.01.07.1.63.18.08.11v.19l.3.38-.16.23.18.21.27.08.3-.04.73-.6.14.06.32.4.17-.03.29-.28.09-.2v-.2l-.23-.64-.16-.16-.25-.05-.1-.13-.12-.02-.07.07.02.14.41.51-.08.09-.47-.04-.62.1-.49-.7.25-.19.32-.43.06-.24-.01-.04-.06-.26-.12-.21.16-.36-.01-.1.23-.28-.03-.22.37-.08.24.26.14.03.06-.11-.17-.27.04-.1.15-.05.04-.22.46.05.14-.12.28-.02.34.55.15.07v.4l.07.13.12.2-.08.35.23.27.16.42.51.51.01.18.15.04.27-.07.21.07.8 1.2.32.01.48-.2.23-.01.1.13-.03.08-.18.43-.11.1-.14-.02-.07.05-.06.15-.34.27v.13l.32-.28.3-.1.47-.34.23-.09.07.99-.06.21-.42.34-.25.3-.03.4.03.24.24.02.05.13-.06 1.15.37.69.25.2.03.09-.19.35-.03.44-.47.18-.56-.01-.33-.09-.12-.27-.12-.14-.46-.5-.06-.14-.11-.04-.16-.26-.64-.32-.61-.16-1.2-.16-.35-.11.28-.24 1.12-.22.07-.06.14-.11.26-.64v-.27l-.15-.49-.23-.29-1.11-.44-.41.03-.73-.12-1.33.34-.32.08-.86.01-.71.09-.13.18-.13.46-.4.1-.78-.24-.33-.32-.5-.27-.59-.49-.08-.1-.11-.13v-.21l-.4-.35-.04-.04h-.25l-.48-.01-.71-.3-.48-.51-.51-.31-.16-.23-.39-.32-.16-.3-.05-.08-.13-.51.01-.21v-.18l-.18-.31-.54-.54-.21-.2-.41-.24-1.15.26-.16-.07-.01-.31.14-.37.44-.49.03-.33-.06-.23-.26-.24-.14-.12-.24-.47-.16-.08-.35.08-.04-.36-.3-.73.21-.17.64.06m-1.26 4.68-.3-.06-.35-.16-.11-.17.01-.15.16-.19.18.07.21-.2.11-.01.55.18.2-.02.06.07-.26.58-.46.06m29.59-4.51.16-.08.39.2-.15.18-.2.11-.37-.22.03-.1.14-.09m-35.88 1.45.59.97.58.72.31.14-.41.17-.35-.03-1.34-.7-.12-.27.08-.33-.75-.77.01-.31-.1-.24.12-.81-.04-.27.04-.16.12.01.18.19.11.48.97 1.21m17.19.97.79-.35.55.15.2-.18.18-.02.31.1.14-.2.26.25-.1.21-.23.18-.14.01-.34-.13h-.39l-.59.05-.45.14-.2-.12.01-.09m.38 3.74-.22-.66-.16-.19-.04-.57-.2-.18-.28-.07-.52.1-.3-.13-1.07-.16-1.11-.46-.41-.33-.59-.47-.27-.1.1-.21-.14-.54-.11-.1-.31-.06-.17-.49-.22-.39-.79-.97-.23-.42-.09-.31.06-.23.1-.1.09-.08.04-.22.12-.05 1.19.03.77-.25 1.02-.99.1-.63.6.12.14.1.22.23.03.3.15.07.07.03.17.29-.21.42-.35.23-.09.22v.25l.76 1.03.2.13.34.03.65.27.23-.04.08.05.16.09-.32.16.15.17.06.22-.09.11.05.16-.06.11-.21-.05-.25-.17-.23-.01-.27.08-.4-.13-.31.04-.37.13-.35.23h-.14l-.07.16.09.23.48.34.04.1-.06.11.28.24h.34l.18.09.11.16.16.04.3-.09.03.13.22.05.35.29.37.45.25.15.33.76.67.51-.23.35-.21-.04-.4.33M8.04 139.7l-.69-.83-.15-.18-.53-1.03.03-.17.18.33.32.3.5.88.88 1.21-.38-.19-.16-.32m4.18-3.42-.18.31-.04.42-.68.16-.37.26-.18.04-.19-.24-.18.02-.11-.41-.63-.49-.16-.27.26-.63.56-.53.07-.09.34-.4.12-.07.23-.01.62.27.3.31-.01.15.27.16.31.09.45.42-.61.14.07.19-.26.2M526.03 349.3l.38.1.29.27.1.07.22-.01.1.03.05.14-.1.21-.18.06-.2-.04-.48-.1h-.16l-.19.08-.51-.02-.13-.11-.05-.13-.24-.09-.08-.04-.04-.01.07-.17.11-.05h.13l.15-.02.19-.08.16-.07.09-.02h.32m-43.91-1.18-.54-.26-1.43-.12-.22-.1-.24-.28-.21-.51-.2-.18-.79.07-.51-.18-.52.02-.18-.09-.6.02-.36-.05-.18-.09-.29-.47-.51-.21-.44.09-1.05-.2-.5-.33-.97-.39-.03-.03-.13-.14.19-.22-.17-.12.03-.08.54-.22.38-.05.61.16.53-.12.21.07.63.01 1.09.48.57.46.08.06.44-.01.49.35.52.23.73.06 1.36-.04.7.05.53-.1.63.16.07.02.85.4.5.06.39-.11 1.53.18.43-.09.51-.3.22-.04.03.11-.05.09-.67.37-.16.08-.23.26-.08.25.04.2.32.3.04.14-.14.18-.63-.21-.18.01-.74.26-.44.07-.74-.06-.35.11-.71.02M581.11 331l-.39.25-.41.14-.86.18-.4.02-.75.26-.28.22-.46.8.04.17.18.17-.01.15-.39.21-.31.32-.43.05-.21.13-.14.25-.11.06-.59.06-.6.21-.45.02-.32.1-.36.2-1.11.26-.88.03-.27-.22-.24.25-.7.03-.83.19-1.19.67-.31.26-.11.26-.09.61-.11.14-.5.1-.12-.03-.67.27-.23.19-.23.41-.59.28-1.03.7-.44.21h-.48l-.39-.18-.8-.06h-.11l-.95.02-1.8.19-.63.33-.22.47-.63.2-1.33-.3h-.75l-.25.11-.55.02-.59.13-.85.03-.95.2-2.26.63-.64-.09-.86.2-.81.19-1.13.09-1.1-.03-.69-.09-1.91-.07-.04-.01-1.25-.27-1.37-.5-.66-.33-1.57-.43-.57-.06-.02-.02-.12-.1-.04-.2.1-.4-.08-.17-.81-.82-.61-.76-1.32-1.01-.44-.79-.03-.05-.21-.2-2.02-.78-1.19-.8-.32-.13-.98-.67-.18-.11-2.38-1.46-.12-.26.2-.3.25-.12.27-.01.44.35.35-.02.38-.17.36-.07.76-.17.44-.19.37-.33.31-.5.06-.37-.04-1.1.08-.39.22-.43-.18-.33-.02-.22.1-.28-.28-.35.08-.28.79-.47.79-.27.72.03.42.02.24-.09.17-.15.04-.04.27-.47.23-.05-.06-.11.19-.33.16-.11.68-.03.09-.07.39-.31.21-.07 1.1-.07.26-.01.2.06.45.34.15.08.22.1.65-.08.68.2.44-.04.69-.17.48.04.26-.09.17.04.63.5.14.11.56.45 2.85 1.86 1.11.83.21.12-.1.25.03.12.1-.01.31-.23.14.01 1.04.46.84.18.53-.07.49-.15.07-.11.76-.79.16-.44.16-.12.14-.38.65-.14.67-.25h.21l1.03.56.54-.03.29.1.41-.23.27-.07.19-.19 1.18.03.41-.12.12-.05.9-.41 1.63-.5.47-.28.14-.18.1-.64.16-.13.82.03.45.17.05.04.86.71.9.55.23.05 1.11-.15.32-.26.22.55.23.12.12.25.36.26.1.15.19.2.59-.17.96.22.23.41.59.28.55.38.48.06.29.21.47-.04.36.19.34-.1.23.08.4.15.31-.08.37.03 1.15.78.78.34.23.02.23-.12.17.03.57.56.72.49.92.62.98-.05.25-.13.38-.35.1-.1h.13l.38.22.46.02.12.07.04.21-.08.14-.16.05-.37-.04-.09.05m-64.39 18.37-.25-.19-.1-.04-.19-.07-1.06-.22-.91-.59-.67-.1-.48-.16-.09-.13.07-.14.35-.02.55-.15.7-.33H515.05l.63-.13.5.13.67-.08.63.4.29.26.1.2-.04.2.09.54-.06.23-.11.09-.82.28-.21.02m-427.93-22.3h-.17l.1-.27-.02-.13-.43.22-.09-.11.15-.43-.11-.19-.18-.08-.07.21-.24-.1-.21-.1-.07.07.02.12.17.11.1.19-.08.05-.34-.17-.39-.33-.07-.16.09-.14 1.08-.26.93.28.11.2.09.5-.14.35-.23.17m-8.94-28.69-.04-.22.05-.28.1-.1.11.62.11.26-.06.05-.11-.03-.16-.3m66.09 24.15-.41-.03-.14-.14.2-.02.26-.15.09.02.11.19-.11.13M18.17 196.61l.13-.03.2.15.23.34.08.26.02.05-.04.17-.16.2-.27.15-.21.04-.9-.16-.1-.18.03-.15.3-.09.65-.74.04-.01m8.03 16.25.04-.15.14-.13.11.09.05.2.27.93-.08.16-.11.01-.24-.24-.24-.7.06-.17m.96.04-.01-.39.03-.43.13-.19.17.03.21.23.25.62.06.27v.01l.03.17-.06.29-.08-.02-.05-.02-.23.3-.31.05-.07-.06-.06-.27-.01-.59m4.64 4.8.14-.11.11.19.08.16-.06.11-.19.09-.11-.02-.13-.14.16-.28m.59 3.33-.18-.1-.2-.03-.08-.11.12-.57.17-.09.37.35-.16.19.11.22-.05.12-.1.02m.7-2.92h.12l.04.02.22.15.13.14.04.3-.09.48.14.47-.06.15-.23.17-.16.26h-.14l-.39-.36-.28-.52-.13-.5.03-.21.21-.09.43-.47.12.01m14.54-18.81.14.1.28.18.25.07.43-.08.06.13-.23.12-.35.01-.13.21-.11-.03-.08-.27-.31-.11-.39.04-.09.12.19.15.02.1-.13.06-.43-.07-.2-.23.88-.48.2-.02m-5.67-1.13.19.1-.31.39.22.98.63.44.69.48.09.17-.09.18-.62-.32-.67-.58-.59-1.46-.29-.28.03-.16.1-.02.62.08m-3.21-5.7-.13-.01-.1-.1-.21-.19-.18-.79-.13-.14-.3-.06-.04-.1.05-.37.23-.51.14-.15.18-.04.18.16.1.97.3 1.25-.09.08m8.46-2.79-.05-.1.08-.23.15-.13.19.07.09.18-.01.12-.45.09m2.21 7.03h-.34l-.09-.1.13-.11.54-.04.12-.13.16-.07.05.11-.07.11-.5.23m-6.83-6.17-.24.07-.18-.36-.09-.42.22-.02.04-.11-.31-.91.11-.13.37.07 1.53.74.43.07.07.17h-.2l-.13.08.1.05.38.04.67-.13.23.24 1.02-.05.1.13-.05.11.08.24-.05.13-.26.12-.46.07-.9-.05-.98-.23-.15-.04-1.12-.01-.23.13m6.75 0 .02-.19.97-.04.07.06-.16.13-.9.04m18.42 52.66-.12-.02-.62-.71-.14-.27.29-.78.17-.1.16.07-.02.09-.19.17-.02.37.15.45.33.27-.03.13.1.23-.06.1m-1.09-2.93-.19-.03-1.25-1.09-.13-.19.06-.25.48-.04.46-.24.17.03.11.15-.37.27-.11.16.02.12.13.13h.58l.17-.11.38-.09.05.09-.05.11-.14.08-.66.19-.08.13.03.17.35.31-.01.1m-9.92 28.69-.09-.18.11-.37.15-.16.11.12-.11.13-.07.45-.1.01m.95 14.3.07-.05.08-.55.13.07.18.01.01.1-.12.07-.18.38v.05l-.01.2.08.24-.07.06-.23-.05-.38.15-.08-.1-.01-.21.53-.37m.54-1.06-.11-.13.04-.24.08-.1.16.04.07.16-.24.27m2.61-2.84-.12-.28v-.17l.07-.05.13.1.11.27-.07.11-.12.02m251.38-11.91-.03-.21.12-.15.18.01.05.12-.04.09-.07.09-.21.05m-6.04-.62-.13-.13.02-.15.14-.11.2-.01.05.17-.11.2-.17.03M55.32 280.45l.03-.03.14-.21.66-.59.02-.15.06-.68.23-.77.43-.37.4-.04.23-.14.17-.38.27-.09.29-.23.41-.02.47-.22.11-.16.21-.08.21-.32.12.11.12.42-.03.19-.26.35-.07.38.07.48-.11.25-.19.01-.18.08-.17.29-.27.04-.1.12.05.24-.14.39-.28.56-.18.12-.19.31-.37.26-.38-.06-.49.08-.08.15-.11.21-.03.03-.31.24-.18.58-.11-.12-.49.19-.24-.04-.17-.12-.17-.31-.04-.28.09-.15.21-.08.16-.25.18.15.07-.07-.07-.27m4.63-4.35-.07-.39.09-.08.18.08.11.17-.23.25-.08-.03m-.29-2.72-.08-.07-.05-.29-.13-.18.34-.6.55-.53.52-.03.17.04.04.12-.41.78-.4.56-.21.01-.34.19m1.81-1.22-.05-.2.04-.25.13-.26.07.08.03.26-.07.29-.15.08m-2.32-1.71-.09-.26.1-.27-.06-.15-.14-.02-.14.29-.29.01-.04.09.05.14-.29.05-.08-.62.22-.62.26-.26-.05-.13-.42-.25-.64.01-.18-.09-.09-.33-.03-.13-.46.06-.08-.1.04-.3-.07-.3-.32-.25-.32-.07-.52-.24-.07-.19.08-.34-.23-.24.15-.21 1.16-.65.09-.37.1-.16.07-.12.62-.4.36-.34.69-.25.32-.18.12.07.32.43.64.38.12.31-.06.26.08.23.24.02.07.12-.27.28-.01.19-.03.77-.4 1.12-.06.6.21.6-.14 1.08.18.52-.17.18-.54.03m6.88-45.76-.14-.07.02-.34.2-.15.11.07.06.17-.25.32m-14.14-21.31.04-.03.34-.34.28-.01.07.12-.13.21-.34.21.2.3-.06.11-.16-.1-.4.03-1.05.28-.06.09.11.16.44.14.29.36.09-.04.08-.22.38-.25.4-.26.24-.02.36-.16.45-.06.04.11-.18.2-.15.31.04.2-.04.1-.21-.02-.08.18.14.32-.04.12-.46.41-.09.32.17.45-.06.09-.24.02-.02.05.29.25.03.03.12.44-.22.03-.08.17-.25-.02-.22.31.05.15.22-.01.11.11.37-.46.05.1-.08.26-.69.51-.22.32-.18.08-.02.08.23.09-.04.13-.22.11-.17.43-.04.09-.11.07-.4-.03-.49-.23-.58-.59-.73-.84-.04-.25.1-.15.2-.11.54-.15.17-.12.1-.2.15-.91-.02-.33-.44-.85-.02-.14.18-.23-.08-.3.1-.3.42-.39.65-.83.46-.45.13-.01.02.08-.17.21.14-.01.18-.14.08-.17-.08-.44.55-.18.67-.45.29-.05.25.06.04.09-.17.28.25.26-.12.12-.8.25-.17-.11-.13.03-.42.6-.23.21.1.12m.82.24-.06-.06.08-.16.23-.19.13.2-.04.11-.34.1m-.66-9.49-.2-.06-.04-.03-.15-.13-.06-.39-.3-.19-.16-.2.04-.14.24-.12.38-.05.42.56.44.06.16.19.18.09.54.09-.02.07-.49-.01-.98.26m3.42-3.08-.08.16-.11.03-.07-.16.17-.33.11-.62.13-.04.09.15-.24.81m-3.2-2.13-.21-.07-.09-.11.19-.32.22-.22.24-.46.4-.17.04.09-.06.12-.18.14-.35.77-.2.23" class="coastline"/>
    <g class="borders">
        <path d="m75.71 323.7-.87.05-.04.01-4.63 1.93-.44.2-.04.05-.1.18-.31-.04-.17-.02-.35.19h-.01l-.5.28-.74.4-1.32.73-.08.04-.45-.01-.63-.32-.29-.01-.24.22-.51.46-.03.03.01.05.13.34.01.18-.03.09-.05.11-.45.14-.04.01.01.03.05.23-.2.36.04 1.04-.09.07-.31-.03-.11-.02h-.02l-.24.38h-.01l-.02.02-.15.12-.65.03-.16.13-.15.42-.46.62-.03.02-.38.35.04 1.12.16.18.39.17.12.05.04.02.16.36.1.2.01.01.16.06-.01.51-.09.23-.09.22-.31.3-.11.05-.76.36-.97.09-.03.01-.36.18-.2.09-.06.11-.27.49-.06.1-.39.33h-.06l-.78.04-.39.26-.08.05-.4.26-.17.52h-.02l-.36-.12-.81-.65-.19-.47-.25-.11-.14-.11-.19-.14-.47-.34-.44-.51-.96-.8-.03-.12-.26-.32-.56-.41-1.07-1.07-.34-.25-.53-.39-.32-.07-.22-.25-.25-.16-.59-.24-1.14-.46-.25-.19-.09-.08-.38-.09-.47.04-.38.3-.29.32-1.95 2.14M43.3 334.58l-.28-.12-.45-.45-.15-.13-.22-.19-.62-.49-.27-.23-.62-.72-.56-.87-.53-.83-.11-.18-.33-.52-.46-.95-.05-.1-.67-1.38-.01-.01-.01-.03-.37-.63-.03-.04-.46-.97-1.09-1.62-.06-.09-.4-.59-.58-.78-.53-.58-.92-.68-.72-.54-.77-.56-.62-.37-.87-.45-.14-.03-.52-.14-.19-.02-1.32-.14-.76-.17-.72-.42-.55-.5-1.11-.84-.6-.59-.71-.89-.62-.75-.33-.57-.57-.95-.35-.69-.27-.45-.6-1.02-.4-.84-.39-.79-.45-1.5-.08-.31-.11-.45-.56-1.16-.13-.27-.08-.16-.4-.64-.57-.89-.44-.47-.8-.99-.52-.63-.03-.03-.13-.17-.69-.8-1.49-1.43-1.06-.86-1.41-.99-1.13-.79-1.56-1-1.54-1.09-3.7-2.27-1.58-1.12-1.52-1.07-.41-.27"/>
        <path d="m43.3 334.58-.49.53-.34.49-.07.26-.49.49-.28.39-.86 1.18-.48.67-.16.47-.14.43-.03.4-.56 1.68-.15.18-.21.25-.22.12-2.06 1.66-.56.66-.22.25-.68 1.03-.08.12-.77 1.42-.93 1.51-.65.63-.33.66-.15.44-.13.39v.01l-.18.8-.17.15-.36.03-.28.23-.7 1.28-.22.23-.25.41-.52.84-.15.15-1.16 1.17-1.13 1.88-.4.5-.03.04-.13.17-.21.26-.27.5-.2.38-.42.57-.17.6-.98 1.38-.76.66-1 .64-.13.09-1.13.52-.39.18-.18.25-.22 1.17-.23.24-.01.02-.41.08-1.36.61-.06.04-.38.23-.36.92-.05.23-.09.49-.9 2.71.08.43-.02.17-.14.9-.56 1.94v.4l-.31.54-.35 1.2-.06.42-.06.33v.01l.09.66.37 1.45M80.23 380l.58-.94.23-.37M469.43 44 600 .44M518.6 148.25l-13.09-28.05-2.96-.4-.14-.33.01-.03.02.01.36-.08-.03-.07 1.4-1.95L469.43 44M469.43 44l-1.71.29-10.86 1.84-43.2 7.55-72.23 7.35-41.52 20.03-25.96 31.8-5.9 14.83-12.53 7.41-7.9.08-11.35-14.88-16.71 2.21-12.73-.93-30.51-3.46-8.13-4.39-25.18-.11-3.66 1.23-4.37-1.19-4.75-.04-1.21.18-4.78.5-.86.2-.8-.04-2.3.25-.34 1.11-.88.78-.44.02-1.5-1.77-.79.04-1.15.61-.53-.49-1.92 3.07-.06.1-.04-.01-2.68-.49-1.93.08-1.34.06-.59-.41-.49-.32-.09-.05-.75-.82-.74.02h-.19l-.48.05-.87.08-.44.04-.13.02-.85.08h-.04l-.94.08-.81-.72-2.08-1.9-.03-.02-.19-.22-.86-.97-.01-.01-.47-.51-.75-.83-.08-.07-.21-.17-1.44-1.14-.26.19-.05.04-.18-.19-.45-.47-.24-.07-.23-.06-.14-.24-.34-.56-.71-.26-.19-.08h-.23l-.24.04-.38.08-.63-.62-.51-.09-1.07.27-.72.17-.15.53-.95-.54-.86.73-1.11.55-.25-.19-.09.18-.18.11-.59.34-1.11 1.24-.9.38.72 1.05-1.08.93.05.54.18.38.11.35.01.37-.08.34-.02.03-.1.1.03.12.23.33.14.1.9.09.86.68.67.21.33.21.27.28.02.19-.28.34.21.14.49.03.06.05.28.2.19.24.12.28.02.33-.03.15-.72-.1-.51.06-.12.25-.39.04-.63.47-.62-.1-.78.08-.16.16-.25.24-.45.12.07.38.04.17-.74.01-.43-.11-.25.11-.05.14.07.31-.22.23.4.76.38.76-.27.14-.24.21-.43.37-.25.22-.3.19-.37.12-.99.32.13.71.14.79.05.44-.04.33v.04l-.01.37-.01.43.02.15.06.51.02.13 1.14-.49.06.06.92.83.88.12.02.73.47.46.18.69-.13.41-.14-.28-.24.04.04.33-.21.04-.08.39-.23-.16-.23-.27-.21-.07-.15.08-.18.47-.26-.13-.27-.12-.02-.43-.53.03.01.4.2.12-.17.22-.12.69.33.17.04.15.12.24-.45.21-.03.3v.05l.01.01.41.44.38.14-.07.48-.19.17-.57.18-.18.24-.33.02-.21-.09h-.03l-.31.03-.34.18-.18.09v.02l.06.5-.02.04-.09.19.13.12.08.07.16.45-.01.42.39-.12.08.06.11.09.19.36.74.9h.09l.18.01h.18l.26.14.58-.06.16.09.17.28.37-.04.19.29.02.03.22.72.7.58.48-.06.12.07.03.92-.11.3-.05.14-.02.02-.13.19.17.08.19.11.12.39.14.48-.62.39-.24.01-.36-.13-.17-.06-.46-.07.12.38-.02.11-.05.21-.1.07-.36.24-.02.29.04.1.21.51.01.02.13.31-.06.23-.11.46.4.38.08.65-.05.28-.04.02-.26.14-.24.03-.16.03-.36-.04h-.01l-.3-.24-.07-.06-.84-.2-.05-.01-.09-.03-.47-.27-.41-.23-.22-.06-.23-.27-.07-.02-.11-.02-.4.15-.14.06-.12.04.01.27.06.07.22.27.27.33v.18l-.47.6-.12.36V150.03l-.07.15-.15.29-.2.41v.05l-.03.38-.21.42-.08.17.03.12.19.72.04.16-.05.95-1.57-.01h-.42l-.36-.04-.03-.01-.03.02-.34.18-.48.04-.76.05-.42.03-.07-.03-.83.07-.4-.01-.41.3-.38.14-.33.22-.39.2-.34.24-.25.32-.09.53-.02.08-.05.34-.05.36-.1.43.38.69-.12.47-.24.71.54.06.12.12.12.11-.26.12-.42.05-.4-.02-.37.18-.72.12-.94.15-1.27.21-.6.1-.59.1-.14-.39-.74-.32-.31-.26-.45-.08-.28-.03-.27-.03-.4.01"/>
    </g>
</svg>
