<?xml version="1.0" encoding="UTF-8" standalone="no"?>
<!-- Created with Inkscape (http://www.inkscape.org/) -->

<svg
   xmlns:dc="http://purl.org/dc/elements/1.1/"
   xmlns:cc="http://creativecommons.org/ns#"
   xmlns:rdf="http://www.w3.org/1999/02/22-rdf-syntax-ns#"
   xmlns:svg="http://www.w3.org/2000/svg"
   xmlns="http://www.w3.org/2000/svg"
   xmlns:xlink="http://www.w3.org/1999/xlink"
   xmlns:sodipodi="http://sodipodi.sourceforge.net/DTD/sodipodi-0.dtd"
   xmlns:inkscape="http://www.inkscape.org/namespaces/inkscape"
   version="1.1"
   width="285"
   height="227"
   id="svg2"
   inkscape:version="0.48.2 r9819"
   sodipodi:docname="Hassaniya Arabic Map.svg">
  <sodipodi:namedview
     pagecolor="#ffffff"
     bordercolor="#666666"
     borderopacity="1"
     objecttolerance="10"
     gridtolerance="10"
     guidetolerance="10"
     inkscape:pageopacity="0"
     inkscape:pageshadow="2"
     inkscape:window-width="708"
     inkscape:window-height="690"
     id="namedview104"
     showgrid="false"
     inkscape:zoom="1.1745915"
     inkscape:cx="40.302095"
     inkscape:cy="39.041096"
     inkscape:window-x="0"
     inkscape:window-y="0"
     inkscape:window-maximized="1"
     inkscape:current-layer="svg2" />
  <metadata
     id="metadata24111">
    <rdf:RDF>
      <cc:Work
         rdf:about="">
        <dc:format>image/svg+xml</dc:format>
        <dc:type
           rdf:resource="http://purl.org/dc/dcmitype/StillImage" />
        <cc:license
           rdf:resource="http://web.resource.org/cc/PublicDomain" />
        <dc:title></dc:title>
      </cc:Work>
      <cc:License
         rdf:about="http://web.resource.org/cc/PublicDomain">
        <cc:permits
           rdf:resource="http://web.resource.org/cc/Reproduction" />
        <cc:permits
           rdf:resource="http://web.resource.org/cc/Distribution" />
        <cc:permits
           rdf:resource="http://web.resource.org/cc/DerivativeWorks" />
      </cc:License>
    </rdf:RDF>
  </metadata>
  <defs
     id="defs1930">
    <inkscape:path-effect
       effect="spiro"
       id="path-effect4971" />
    <inkscape:path-effect
       effect="spiro"
       id="path-effect4967" />
    <inkscape:path-effect
       effect="spiro"
       id="path-effect4963" />
    <inkscape:path-effect
       effect="spiro"
       id="path-effect4959" />
    <inkscape:path-effect
       effect="spiro"
       id="path-effect4955" />
    <inkscape:path-effect
       effect="spiro"
       id="path-effect4951" />
    <inkscape:path-effect
       effect="spiro"
       id="path-effect4947" />
    <inkscape:path-effect
       effect="spiro"
       id="path-effect4943" />
    <inkscape:path-effect
       effect="spiro"
       id="path-effect4939" />
    <inkscape:path-effect
       effect="spiro"
       id="path-effect4935" />
    <inkscape:path-effect
       effect="spiro"
       id="path-effect4931" />
    <inkscape:path-effect
       effect="spiro"
       id="path-effect4927" />
    <inkscape:path-effect
       effect="spiro"
       id="path-effect4923" />
    <inkscape:path-effect
       effect="spiro"
       id="path-effect4919" />
    <inkscape:path-effect
       effect="spiro"
       id="path-effect4915" />
    <path
       d="m 185.17009,191.35656 c 0,0 14.54507,-9.19057 29.40983,-5.43442"
       id="path5174-1"
       style="opacity:0;fill:none;stroke:#ffffff;stroke-width:0.5;stroke-linecap:square;stroke-linejoin:miter;stroke-miterlimit:3.97446823;stroke-opacity:1;stroke-dasharray:none;stroke-dashoffset:0" />
  </defs>
  <style
     type="text/css"
     id="style_css_sheet" />
  <g
     transform="translate(-17.456573,-762.84568)"
     id="layer1"
     style="display:inline">
    <g
       transform="matrix(1.59433,0,0,1.59433,-1787.78,-27.262)"
       id="g7"
       style="stroke:#ffffff;stroke-width:0.62722272;stroke-miterlimit:4;stroke-dasharray:none;display:inline">
      <path
         d="m 1249.8072,638.88551 c 0.4639,-1.34083 1.1152,-2.58375 2.7331,-2.75096 1.397,-0.144 3.1283,2.07106 3.4033,-0.40494 0.147,-1.328 1.6137,-1.15706 2.5227,-1.62906 1.178,-0.611 2.0809,-1.50278 3.309,-2.086 1.4737,-0.69983 4.165,-4.33 6.224,-2.473 0.3907,0.35235 1.346,-0.467 1.976,-0.276 0.863,0.261 1.7312,0.56076 2.543,0.952 1.2462,0.60061 -1.0467,3.77289 0.864,4.813 1.1802,0.64247 0.2537,2.64435 1.139,3.535 0.092,0.0929 0.2021,0.20427 0.3187,0.32833 z"
         id="bf"
         style="fill:#b9b9b9;fill-opacity:1;stroke:#ffffff;stroke-width:0.62722272;stroke-miterlimit:4;stroke-opacity:1;stroke-dasharray:none" />
      <path
         d="m 1208.8563,523.43755 0.51,-10.872 c -0.4711,-2.92344 4.011,-3.888 5.625,-5.358 0.8002,-0.72879 2.1082,-2.21792 3.3399,-2.14118 1.0715,0.0668 1.3194,-1.54767 2.7281,-1.82082 2.2933,-0.44468 3.4693,1.77909 4.8483,-1.25991 0.428,-0.941 1.8567,-0.547 2.6777,-0.655 1.478,-0.196 2.967,-0.39709 4.362,-0.91309 2.802,-1.036 2.9178,-4.04518 5.3068,-5.30718 0.022,-0.0118 0.045,-0.0235 0.068,-0.0349 l 73.4848,-0.0122 0.01,97.07133 c -0.4088,0.0603 -0.8045,0.12124 -1.1697,0.19692 -1.987,0.411 -3.979,0.801 -5.964,1.222 -0.996,0.211 -9.724,3.21 -9.349,0.121 0.132,-1.089 0.91,-1.511 0.803,-2.717 -0.041,-0.463 0.098,-2.89491 -0.3842,-3.13591 -1.467,-0.734 -3.2992,-1.06991 -4.9182,-1.38091 -0.798,-0.154 -1.87,-2.18359 -2.4794,-2.034 -3.4973,0.85846 -4.0476,-2.6268 -4.6762,-3.14818 -0.7427,-0.61599 -2.024,-0.672 -2.704,-1.189 -0.765,-0.581 -0.1064,-2.02409 -0.5664,-2.80409 -0.578,-0.981 -1.5816,-1.83491 -2.5226,-2.39191 -1.612,-0.954 -3.122,-2.087 -4.599,-3.234 -3.67,-2.849 -7.276,-5.783 -10.929,-8.654 -14.088,-11.076 -28.157,-22.111 -42.897,-32.316 -3.517,-2.44 -7.052,-4.845 -10.6,-7.232"
         id="dz"
         style="fill:#b9b9b9;fill-opacity:1;stroke:#ffffff;stroke-width:0.62722272;stroke-miterlimit:4;stroke-opacity:1;stroke-dasharray:none" />
      <path
         d="m 1178.5463,631.79755 c 1.351,-0.325 1.954,0.406 3.053,-1.003 0.927,-1.189 0.511,-3.749 0.964,-5.231 1.028,-3.385 5.73,2.223 6.213,3.282 0.898,-2.462 2.393,-3.811 5.224,-2.662 1.4895,0.60429 4.3141,0.63907 5.5926,-0.68784 0.3189,-0.33093 0.1011,-1.15765 0.6234,-1.25916 0.7244,-0.0711 0.6384,0.92339 1.1691,1.17867 1.9674,0.94633 5.5503,0.20819 7.1609,0.0853 5.002,-0.382 10.134,-0.111 15.149,-0.111 1.766,0 3.9421,-0.20573 5.6885,-0.0274 1.283,0.13103 0.911,-2.00207 1.0355,-3.09862 0.141,-1.2417 1.3498,-3.63353 0.052,-4.458 -2.2417,-1.42418 -1.6417,-2.68244 -1.627,-4.492 l -5.229,-70.076 13.2473,0.007 c 13.6958,10.26365 26.5476,20.48235 39.5039,30.66104 1.5569,1.12582 4.4833,2.25318 4.2658,4.59706 -0.068,0.73359 -0.1717,1.38723 1.1419,1.91423 0.6387,0.25622 1.3484,0.43523 1.8904,0.79723 0.905,0.604 0.756,1.69 1.479,2.413 0.688,0.688 1.4063,0.78237 2.2937,0.93586 0.6445,0.11147 0.1681,-0.59268 1.3221,-0.0193 0.8276,0.41126 1.1869,1.50727 2.1329,1.80527 1.474,0.466 3.4488,0.58978 4.8138,1.39678 0.996,0.589 0.7067,3.35736 0.2827,4.32136 -0.59,1.341 -1.45,2.61313 0.684,2.91813 2.257,0.324 4.8134,-0.87786 7.0434,-1.15486 -0.2898,6.143 0.5866,12.66749 -0.2094,18.75213 -0.092,0.69905 0.1242,1.17546 -0.4015,4.50546 -0.1718,1.08852 0.2129,-0.29984 -1.3125,2.901 -0.4686,0.9831 -0.4415,2.172 -0.8685,3.186 -0.412,0.977 -1.364,1.275 -2.143,1.877 -0.958,0.739 -0.305,1.713 -1.619,1.489 -0.3,-0.051 -2.922,-0.751 -3.042,-0.297 -0.315,1.188 -8.5088,0.78632 -9.7508,0.88532 -3.041,0.242 -2.9782,-0.13132 -5.1302,2.22168 -0.675,0.739 -2.003,1.001 -2.95,0.792 -0.548,-0.1 -1.802,-0.11214 -2.358,-0.0981 -0.99,-0.019 -0.926,-0.77986 -0.926,0.45914 -0.718,-0.271 -1.4034,-0.61509 -2.112,-0.912 -1.7043,-0.71413 -2.1134,0.48293 -2.7595,0.006 -0.6288,-0.46433 -1.705,-1.07266 -3.1185,0.18714 -1.4728,1.31268 -3.6101,2.40819 -4.4513,2.97167 -1.4135,0.94671 -2.4511,1.69236 -3.8967,2.05633 -1.1883,0.29919 -0.221,2.816 -1.981,2.045 -1.083,-0.474 -2.0705,-1.13227 -3.2185,-0.33727 -0.7918,0.54922 -1.2884,1.47179 -1.6383,2.37124 l -69.4842,6.6e-4 c -0.04,-1.54403 0.1274,-2.21121 -0.975,-3.43663 -0.386,-0.429 -0.79,-0.941 -0.533,-1.559 0.438,-1.059 0.133,-1.058 -0.291,-2.099"
         id="ml"
         style="fill:#b9b9b9;fill-opacity:1;stroke:#ffffff;stroke-width:0.62722272;stroke-miterlimit:4;stroke-opacity:1;stroke-dasharray:none" />
      <g
         transform="translate(-29.9017,-45.0745)"
         id="mr"
         style="fill:#b9b9b9;fill-opacity:1;stroke:#ffffff;stroke-width:0.62722272;stroke-miterlimit:4;stroke-opacity:1;stroke-dasharray:none">
        <path
           d="m 1178.278,635.04 c 0.508,-0.641 0.609,-1.447 0.65,-2.232 -0.581,0.553 -1.077,1.421 -0.65,2.232"
           id="path3878"
           style="stroke:#ffffff;stroke-width:0.62722272;stroke-miterlimit:4;stroke-dasharray:none" />
        <path
           d="m 1174.038,624.96 c -0.204,-1.377 -0.086,-2.32769 0.4642,-3.65324 0.1538,-0.37061 0.6654,-1.26447 1.634,-1.31476 l 27.8834,-0.0319 c 1.4181,-0.74707 0.4439,-6.90927 0.3494,-9.28114 -0.173,-2.384 -0.414,-3.93685 1.4972,-5.74564 1.6005,-1.51474 1.5477,-1.12866 6.6326,-3.20772 l 1.117,-21.83227 24.8791,-0.29164 0.3344,-11.07091 c 9.472,6.373 18.7673,12.93718 27.9043,19.78218 -4.394,0 -8.8226,0 -13.2156,0 l 5.4235,72.91093 c 0.4464,1.19253 1.6743,1.70657 1.7835,1.9852 0.7263,1.85442 -0.2297,2.41508 -0.2982,3.84403 -0.08,1.6745 -0.2455,3.18268 -0.7334,3.36244 l -15.8878,0.019 c -7.1246,0.24654 -11.0337,1.06886 -12.7564,0.0909 -0.4594,-0.2608 -0.176,-1.41307 -0.9312,-1.21151 -0.8255,0.12519 -0.2071,0.72642 -0.4142,1.01473 -1.0775,1.50015 -3.8342,1.68328 -5.3148,1.09527 -2.7876,-1.10711 -4.5675,-0.64045 -5.71,2.498 -0.6488,-1.07139 -1.5934,-1.98502 -2.561,-2.918 -1.1465,-1.10551 -2.2517,-1.69839 -2.8606,-1.36078 -2.2889,1.26908 0.9057,7.65036 -4.7161,7.24739 0.029,0.10214 -1.5162,-1.09302 -1.9255,-1.87554 -0.5057,-0.96696 -1.0895,-0.65885 -2.0598,-1.48707 -1.051,-0.89711 -0.9771,-2.36093 -1.8392,-2.93401 -2.3084,-1.53451 -1.3934,-1.55366 -1.6078,-2.59424 -0.2641,-1.28138 -1.5683,-2.91336 -2.221,-2.92275 -3.3964,-0.0489 -3.6398,-2.80506 -5.8422,-3.86621 -1.1111,-0.53535 -2.0795,-0.81823 -3.5774,-0.86717 -2.3328,-0.0762 -3.1351,2.20359 -8.4895,1.80377 -1.1287,-0.0843 -0.9781,-0.83817 -1.9394,-0.56515 -0.9333,0.34162 -2.0307,3.34542 -2.4027,4.13276 0,-5.202 3.4242,-9.445 3.9182,-14.544 0.297,-3.07 -0.127,-5.666 -0.512,-8.672 -0.139,-1.084 -0.104,-2.273 -0.793,-3.192 -0.601,-0.802 -1.649,-1.372 -1.76,-2.464 0.802,0.25 1.685,-0.345 1.59,-1.224 -0.542,0.145 -0.975,0.552 -1.16,1.08 0.197,-1.044 1.039,-1.777 1.497,-2.694 0.296,-0.593 -0.133,-1.541 0.214,-1.938 1.565,-1.792 -0.831,-4.97 -1.421,-6.744 -0.244,0.428 -0.411,0.884 -0.5,1.368 -1.588,-1.202 -1.209,-3.688 -2.81,-4.896 -0.255,1.062 -0.639,2.092 -0.862,3.165"
           id="path3882"
           style="fill:#b9b9b9;fill-opacity:1;stroke:#ffffff;stroke-width:0.62722272;stroke-miterlimit:4;stroke-opacity:1;stroke-dasharray:none" />
      </g>
      <path
         d="m 1272.9353,634.74955 c -1.059,-1.252 0.178,-3.534 0.07,-4.968 1.275,0.447 2.847,0.32 4.185,0.335 1.577,0.018 1.977,-0.79 2.912,-1.873 1.125,-1.304 2.434,-0.979 4.041,-1.104 2.048,-0.16 4.09,-0.347 6.146,-0.388 0.97,-0.019 1.92,-0.019 2.884,0.094 1.899,0.222 0.11,-0.582 1.002,-0.809 1.424,-0.365 3.289,1.556 3.91,-0.071 0.545,-1.428 2.219,-1.626 2.782,-2.918 0.576,-1.325 0.557,-2.745 1.289,-4.037 1.528,-2.695 1.187,-5.679 1.34,-8.759 0.22,-4.39 0.15,-8.787 0.126,-13.181 -0.015,-2.731 0.224,-3.442 2.937,-4.073 1.7285,-0.40226 3.4995,-0.58341 5.2492,-0.87285 l 7e-4,46.76125 -37.1206,-0.002 c -0.2091,-0.26282 -0.38,-0.50985 -0.4405,-0.71807 -0.376,-1.302 -0.074,-2.513 -1.313,-3.416"
         id="ne"
         style="fill:#b9b9b9;fill-opacity:1;stroke:#ffffff;stroke-width:0.62722272;stroke-miterlimit:4;stroke-opacity:1;stroke-dasharray:none" />
      <path
         d="m 1144.1363,579.88555 c -1.184,-2.086 0.572,-5.625 0.932,-7.788 0.247,-1.479 0.628,-2.866 1.42,-4.156 0.959,-1.564 2.714,-1.567 3.303,-3.522 0.302,-1.002 0.283,-2.545 1.279,-3.143 0.565,-0.338 0.231,-1.473 0.672,-2.12 0.705,-1.035 3.544,-4.569 2.754,-5.912 -0.531,0.342 -0.978,0.819 -1.29,1.368 1.241,-2.73 4.383,-4.739 6.447,-6.846 2.749,-2.807 2.218,-5.708 3.556,-9.151 1.095,-2.815 1.944,-5.922 4.681,-7.481 3.016,-1.718 4.6561,-3.11882 5.905,-6.441 0.7938,-2.11177 2.2965,-5.10917 1.7754,-4.49436 l 33.4992,-0.27071 -0.4771,14.59548 -24.8565,0.28659 -1.144,21.833 c -1.479,1.067 -3.581,1.184 -5.126,2.145 -2.325,1.445 -3.264,2.991 -3.08,5.737 0.107,1.596 1.332,9.911 -0.363,10.391 l -27.649,0 c -2.122,10e-4 -2.461,3.467 -2.238,4.969"
         id="eh"
         style="fill:#b9b9b9;fill-opacity:1;stroke:#ffffff;stroke-width:0.62722272;stroke-miterlimit:4;stroke-opacity:1;stroke-dasharray:none" />
      <path
         d="m 1140.0263,632.08555 c -0.44,-0.011 -0.823,0.133 -1.15,0.432 -0.127,-1.227 2.169,-1.612 2.879,-2.319 1.547,-1.543 2.788,-3.616 3.694,-5.587 0.434,-0.944 2.525,-9.94 4.725,-7.875 0.989,0.929 6.247,-0.006 7.089,-0.987 1.3,-1.516 6.406,0.185 7.483,1.472 1.455,1.738 1.637,2.443 4.021,2.686 1.297,0.132 2.738,2.669 2.464,3.924 -0.127,0.581 1.761,1.605 2.094,2.219 0.416,0.767 0.62,1.659 1.223,2.315 0.591,0.643 1.792,0.721 2.183,1.512 0.571,1.156 2.306,1.797 2.465,3.146 0.072,0.604 -0.927,1.312 -0.234,1.931 0.575,0.514 0.983,0.849 1.071,1.732 0.05,0.50055 0.3081,1.38223 0.4195,2.20144 l -34.3068,-0.005 c 0.034,-0.15323 0.081,-0.30553 0.1393,-0.45689 -0.085,0.16126 -0.1742,0.31454 -0.2694,0.45786 l -1.1988,2.2e-4 c 0.6774,-0.84652 1.8743,-1.76338 2.4082,-1.82608 -0.6708,-0.284 -2.2019,0.88422 -2.8917,1.82555 l -0.3915,7.9e-4 c -0.2574,-2.42712 -1.6561,-5.97714 -3.9158,-6.79934"
         id="sn"
         style="fill:#b9b9b9;fill-opacity:1;stroke:#ffffff;stroke-width:0.62722272;stroke-miterlimit:4;stroke-opacity:1;stroke-dasharray:none" />
      <path
         d="m 1175.7363,520.19755 c 0.346,-0.381 1.469,-2.163 1.864,-2.307 1.415,-0.515 2.963,-0.581 4.426,-0.903 2.715,-0.598 5.468,-1.456 7.517,-3.42 2.009,-1.926 4.1,-3.439 6.203,-5.224 2.015,-1.709 3.554,-3.989 5.167,-6.064 1.094,-1.408 3.607,-5.462 1.487,-6.998 -0.1172,-0.0848 -0.2295,-0.15794 -0.3343,-0.22418 l 36.9072,0.006 c -0.2549,0.0704 -0.5028,0.16137 -0.7369,0.29227 -1.574,0.879 -2.208,2.722 -3.362,4.012 -1.322,1.479 -3.766,2.057 -5.688,2.133 -1.444,0.056 -2.998,-0.549 -3.581,1.172 -0.622,1.836 -2.427,0.461 -3.872,0.568 -1.019,0.075 -1.612,0.584 -2.268,1.292 -0.666,0.72 -1.452,0.568 -2.282,0.9 -0.958,0.383 -1.549,1.331 -2.314,1.969 -0.813,0.678 -1.82,1.1 -2.651,1.773 -1.621,1.313 -3.042,1.504 -2.88,3.776 0.161,2.26 -0.078,4.765 -0.331,7.012 -0.108,0.952 -30.196,0.235 -33.271,0.235"
         id="ma"
         style="fill:#b9b9b9;fill-opacity:1;stroke:#ffffff;stroke-width:0.62722272;stroke-miterlimit:4;stroke-opacity:1;stroke-dasharray:none" />
      <g
         id="es-cn"
         style="stroke:#ffffff;stroke-width:0.62722272;stroke-miterlimit:4;stroke-dasharray:none">
        <g
           transform="translate(-29.9017,-45.0745)"
           id="es-cn-"
           style="fill:#b9b9b9;fill-opacity:1;stroke:#ffffff;stroke-width:0.62722272;stroke-miterlimit:4;stroke-opacity:1;stroke-dasharray:none">
          <path
             d="m 1170.078,565.488 c -1.076,-0.715 -0.214,-1.846 0.86,-1.513 -0.207,0.55 -0.494,1.054 -0.86,1.513"
             id="path5984"
             style="stroke:#ffffff;stroke-width:0.62722272;stroke-miterlimit:4;stroke-dasharray:none" />
          <path
             d="m 1172.087,557.784 c -0.217,0.144 -0.433,0.288 -0.65,0.432 -0.1,-0.735 -1.45,-2.748 -0.07,-3.024 1.54,-0.307 1.266,1.819 0.72,2.592"
             id="path5986"
             style="stroke:#ffffff;stroke-width:0.62722272;stroke-miterlimit:4;stroke-dasharray:none" />
          <path
             d="m 1175.828,562.32 c -0.73,-0.451 -0.767,-1.805 0.36,-1.584 1.178,0.231 0.451,1.469 -0.36,1.584"
             id="path5988"
             style="stroke:#ffffff;stroke-width:0.62722272;stroke-miterlimit:4;stroke-dasharray:none" />
          <path
             d="m 1179.938,562.536 c -0.591,-1.015 -0.911,-2.158 -1.51,-3.168 2.169,-0.51 3.818,-1.185 5.9,-2.016 -0.749,1.605 -2.656,4.536 -4.39,5.184"
             id="path5990"
             style="stroke:#ffffff;stroke-width:0.62722272;stroke-miterlimit:4;stroke-dasharray:none" />
          <path
             d="m 1187.858,564.696 c -1.775,-0.252 -2.079,-3.15 -0.253,-3.555 2.824,-0.625 1.963,2.761 0.253,3.555"
             id="path5992"
             style="stroke:#ffffff;stroke-width:0.62722272;stroke-miterlimit:4;stroke-dasharray:none" />
          <path
             d="m 1197.288,561.96 c -0.217,-0.144 -0.433,-0.288 -0.65,-0.432 2.129,-0.706 2.409,-3.971 3.947,-5.441 0.972,-0.929 0.455,2.709 0.313,3.076 -0.655,1.679 -2.453,1.646 -3.61,2.797"
             id="path5994"
             style="stroke:#ffffff;stroke-width:0.62722272;stroke-miterlimit:4;stroke-dasharray:none" />
          <path
             d="m 1201.758,555.12 c -0.24,-0.096 -0.48,-0.192 -0.72,-0.288 0.299,-0.652 2.622,-3.685 3.161,-2.192 0.451,1.253 -1.81,1.832 -2.441,2.48"
             id="path5996"
             style="stroke:#ffffff;stroke-width:0.62722272;stroke-miterlimit:4;stroke-dasharray:none" />
        </g>
        <path
           d="m 1157.0209,509.98748 c 6.0953,0 6.0953,-9.14636 0,-9.14636 -6.0998,0 -6.0998,9.14636 0,9.14636"
           id="es-cn_"
           style="opacity:0;fill:#b9b9b9;fill-opacity:1;stroke:#ffffff;stroke-width:0.62722272;stroke-miterlimit:4;stroke-opacity:1;stroke-dasharray:none" />
      </g>
    </g>
    <path
       d="m 40.50267,962.2943 c 1.43984,-4.05532 3.4381,-8.19505 5.49619,-6.26326 1.57679,1.48113 9.95978,-0.01 11.3022,-1.57361 2.07263,-2.417 10.21328,0.29495 11.93037,2.34686 2.31975,2.77094 2.60992,3.89495 6.41081,4.28237 2.06784,0.21045 4.36527,4.25524 3.92842,6.25614 -0.20248,0.9263 2.80762,2.5589 3.33853,3.5378 0.66324,1.2229 0.98849,2.645 1.94987,3.6909 0.94225,1.0252 2.85704,1.1495 3.48042,2.4106 0.60158,1.218 2.01356,2.0773 2.97534,3.1408 0.62075,-0.099 1.93041,-0.6324 2.31018,0.1271 0.0725,0.1451 0.12071,0.4332 0.25,0.5625 0.0853,0.085 0.88466,0.1972 1.0625,0.375 0.2171,0.2171 0.29103,0.6035 0.5625,0.875 0.3057,0.3057 1.62817,0.043 2.0625,0.1875 0.94433,0.3148 2.18624,1.0612 2.9375,1.8125 0.40589,0.4059 1.28416,0.5342 1.6875,0.9375 0.47805,0.4781 0.73238,1.0807 1.1875,1.6875 0.21935,0.2925 0.24164,0.8041 0.4375,1 0.0114,0.25226 -0.0612,0.50641 -0.12085,0.74489 -0.0642,0.25678 -0.11443,0.77853 0.0442,1.01646 0.1028,0.15421 0.37885,0.19576 0.53033,0.30936 0.12784,0.0959 0.5478,0.41094 0.7071,0.46404 0.26299,0.0877 0.59663,0.33184 0.59663,0.64082"
       id="sn-9"
       style="fill:none;stroke:#37abc8;stroke-width:0.5;stroke-miterlimit:3.97446823;stroke-opacity:1;stroke-dasharray:none;display:inline" />
    <path
       d="m 173.46269,991.29459 c 0.0724,-0.13557 0.17037,-0.25739 0.28731,-0.35709 0.19202,-0.16372 0.43151,-0.26518 0.67791,-0.31958 0.2464,-0.0544 0.50062,-0.0637 0.75291,-0.0589 0.50458,0.01 1.01974,0.0736 1.50668,-0.059 0.45618,-0.12422 0.85095,-0.41277 1.19463,-0.73744 0.34368,-0.32468 0.64711,-0.6901 0.99287,-1.01256 0.97389,-0.90825 2.29337,-1.44987 3.625,-1.4375 0.14311,0.001 0.28711,0.009 0.42867,-0.0123 0.14156,-0.021 0.28314,-0.0735 0.38383,-0.17522 0.0729,-0.0737 0.12039,-0.16883 0.15581,-0.26623 0.0354,-0.0974 0.0599,-0.19845 0.0942,-0.29627 0.14571,-0.41613 0.4575,-0.75021 0.77223,-1.05899 0.31473,-0.30877 0.64695,-0.61359 0.85277,-1.00351 0.28178,-0.53384 0.29496,-1.16343 0.4375,-1.75 0.28901,-1.18936 1.10301,-2.17805 1.5625,-3.3125 0.51663,-1.27553 0.56925,-2.69297 1,-4 0.19597,-0.59462 0.46987,-1.1635 0.8125,-1.6875 0.22153,-1.03295 0.15596,-2.12595 -0.1875,-3.125 -0.0449,-0.13073 -0.0948,-0.26052 -0.16424,-0.38007 -0.0694,-0.11955 -0.15933,-0.22913 -0.27326,-0.30743 -0.0887,-0.061 -0.18955,-0.10154 -0.28785,-0.1455 -0.0983,-0.044 -0.19651,-0.0929 -0.27465,-0.167 -0.076,-0.072 -0.12994,-0.16569 -0.16159,-0.26551 -0.0317,-0.0998 -0.0416,-0.20574 -0.0369,-0.31035 0.009,-0.20922 0.076,-0.41097 0.13594,-0.61164 0.11503,-0.3851 0.20827,-0.77876 0.37184,-1.14589 0.16356,-0.36713 0.40678,-0.71276 0.75316,-0.91661 0.13805,-0.0812 0.28926,-0.13822 0.4274,-0.21931 0.0691,-0.0406 0.13496,-0.0873 0.19144,-0.14408 0.0565,-0.0568 0.10343,-0.12397 0.13116,-0.19911 0.0486,-0.13174 0.0354,-0.27858 0.002,-0.41502 -0.0332,-0.13645 -0.0855,-0.26787 -0.1147,-0.40522 -0.0292,-0.13736 -0.0336,-0.28597 0.0264,-0.41292 0.03,-0.0635 0.0761,-0.12004 0.13516,-0.15797 0.0591,-0.0379 0.13142,-0.0564 0.20091,-0.0464 0.0653,0.009 0.12456,0.0426 0.1875,0.0625 0.0829,0.0262 0.17093,0.0292 0.25716,0.0399 0.0862,0.0107 0.17493,0.0309 0.24284,0.0851 0.0542,0.0432 0.0909,0.10522 0.11442,0.17042 0.0235,0.0652 0.0347,0.13408 0.0454,0.20254 0.0107,0.0685 0.0212,0.13739 0.0434,0.20306 0.0222,0.0657 0.0569,0.12858 0.10928,0.17398 0.0639,0.0554 0.15081,0.0809 0.23532,0.0775 0.0845,-0.003 0.16651,-0.0341 0.2378,-0.0796 0.14256,-0.091 0.24031,-0.23574 0.33938,-0.37284 0.13,-0.17991 0.26999,-0.35438 0.4375,-0.5 0.38903,-0.3382 0.90174,-0.50106 1.3125,-0.8125 0.41452,-0.31429 0.70312,-0.76178 0.99697,-1.19103 0.29384,-0.42926 0.6148,-0.86176 1.06553,-1.12147 0.525,-0.3025 1.15721,-0.33289 1.76205,-0.369 0.30242,-0.0181 0.60582,-0.0396 0.90224,-0.10215 0.29642,-0.0626 0.58736,-0.16784 0.83571,-0.34135 0.25705,-0.17959 0.46074,-0.42674 0.62775,-0.69214 0.16701,-0.26539 0.29983,-0.55047 0.43836,-0.83177 0.13854,-0.28131 0.28419,-0.56118 0.47364,-0.81105 0.18946,-0.24986 0.42597,-0.47022 0.71025,-0.60254 0.0834,-0.0388 0.1707,-0.07 0.25015,-0.11646 0.0795,-0.0464 0.15238,-0.11091 0.18735,-0.19604 0.0203,-0.0493 0.0268,-0.10294 0.0327,-0.15589 0.006,-0.053 0.0114,-0.1066 0.0298,-0.15661 0.0224,-0.0611 0.0634,-0.11438 0.11231,-0.15743 0.0489,-0.0431 0.10553,-0.0765 0.16395,-0.10526 0.11684,-0.0576 0.2432,-0.0984 0.34874,-0.17481 0.15885,-0.11493 0.25474,-0.30058 0.30057,-0.49121 0.0458,-0.19063 0.0468,-0.38874 0.05,-0.58478 0.003,-0.19604 0.009,-0.39464 0.0644,-0.58278 0.0276,-0.0941 0.0675,-0.18497 0.12316,-0.2657 0.0556,-0.0807 0.12718,-0.15117 0.21188,-0.20053 0.13867,-0.0808 0.30351,-0.10132 0.46356,-0.11336 0.16004,-0.012 0.32362,-0.0179 0.47394,-0.0741 0.14972,-0.056 0.27663,-0.15846 0.4024,-0.25713 0.12578,-0.0987 0.25692,-0.19713 0.4101,-0.24287 0.14047,-0.0419 0.29044,-0.0367 0.43643,-0.0233 0.14599,0.0134 0.2924,0.0346 0.43857,0.0233 0.29053,-0.0224 0.55527,-0.17053 0.79979,-0.32901 0.24453,-0.15849 0.48481,-0.33333 0.76271,-0.42099 0.42231,-0.13321 0.87836,-0.0503 1.31469,0.0253 0.21816,0.0378 0.43756,0.0735 0.65891,0.0787 0.22135,0.005 0.44602,-0.0213 0.6514,-0.10398 0.36548,-0.1472 0.64249,-0.45937 1,-0.625 0.21363,-0.099 0.4527,-0.14244 0.6875,-0.125 0.19863,-0.28207 0.47865,-0.50611 0.79742,-0.63801 0.31877,-0.13191 0.67522,-0.17123 1.01508,-0.11199 0.38783,0.0676 0.74506,0.25825 1.13119,0.33496 0.19307,0.0383 0.39509,0.0473 0.58541,-0.003 0.19033,-0.0502 0.36832,-0.16405 0.4709,-0.33205 0.0828,-0.13561 0.11276,-0.29728 0.1875,-0.4375 0.10337,-0.19392 0.28835,-0.3358 0.49161,-0.41933 0.20326,-0.0835 0.42474,-0.11316 0.64425,-0.12352 0.21951,-0.0104 0.43961,-0.002 0.65906,-0.0138 0.21944,-0.0116 0.44078,-0.0438 0.64258,-0.13082 0.27652,-0.1192 0.49942,-0.33302 0.75,-0.5 0.43587,-0.29046 0.94919,-0.43553 1.4375,-0.625 0.36939,-0.14333 0.73329,-0.31537 1.125,-0.375 0.34636,-0.0527 0.7008,-0.0149 1.04415,0.0548 0.34335,0.0697 0.67953,0.17097 1.02155,0.24694 0.34202,0.076 0.69377,0.12666 1.04251,0.093 0.34873,-0.0337 0.69653,-0.15743 0.95429,-0.39472 0.14408,-0.13264 0.25593,-0.29602 0.38807,-0.44055 0.0661,-0.0723 0.13764,-0.14017 0.21865,-0.19517 0.081,-0.055 0.17191,-0.0969 0.26828,-0.11428 0.17954,-0.0323 0.36723,0.0236 0.51944,0.12421 0.1522,0.10057 0.27256,0.24269 0.37606,0.39291 0.1035,0.15022 0.1922,0.3102 0.29492,0.46095 0.10272,0.15076 0.22146,0.294 0.37208,0.39693 0.17635,0.12051 0.3894,0.18014 0.60245,0.19534 0.21306,0.0152 0.42709,-0.0121 0.63657,-0.0538 0.41897,-0.0834 0.83432,-0.22517 1.26098,-0.204 0.26689,0.0132 0.53352,0.0933 0.75,0.25 0.12768,0.0924 0.23552,0.20899 0.35209,0.31506 0.11658,0.10606 0.24639,0.20405 0.39791,0.24744 0.12993,0.0372 0.26977,0.0318 0.40075,-0.001 0.13099,-0.0333 0.25383,-0.0936 0.36871,-0.16483 0.22976,-0.14239 0.43091,-0.32898 0.66804,-0.45873 0.33099,-0.18111 0.72253,-0.2422 1.09636,-0.19112 0.37383,0.0511 0.72937,0.21135 1.02864,0.44112 0.32734,0.25132 0.5951,0.59778 0.6875,1 0.0428,0.18621 0.0473,0.37868 0.0624,0.56914 0.0151,0.19046 0.042,0.38386 0.12512,0.55586 0.094,0.19445 0.25324,0.34824 0.40856,0.49835 0.15532,0.1501 0.31335,0.30557 0.40394,0.50165 0.0976,0.21132 0.10837,0.4512 0.11143,0.68397 0.003,0.23277 8.8e-4,0.47072 0.0761,0.69103 0.0666,0.19516 0.19128,0.36641 0.33669,0.51264 0.1454,0.14623 0.31185,0.26955 0.47748,0.39239 0.16564,0.12285 0.3319,0.24646 0.4768,0.39319 0.14491,0.14672 0.26875,0.31867 0.33403,0.51428 0.0599,0.17934 0.0685,0.37205 0.0574,0.56079 -0.0111,0.18874 -0.0414,0.37583 -0.0574,0.56421 -0.0726,0.8516 0.16931,1.74787 0.75,2.375 0.23908,0.25821 0.52737,0.46522 0.78663,0.70316 0.25926,0.23794 0.49641,0.51967 0.58837,0.85934 0.0332,0.12243 0.0465,0.24918 0.0625,0.375 0.0515,0.40513 0.13295,0.81143 0.30786,1.18047 0.17491,0.36903 0.45117,0.7008 0.81714,0.88203 0.12544,0.0621 0.26077,0.10661 0.375,0.1875 0.17731,0.12555 0.28592,0.32595 0.36771,0.52722 0.0818,0.20127 0.14393,0.41244 0.25729,0.59778 0.19087,0.31207 0.50985,0.52323 0.83625,0.68841 0.3264,0.16518 0.67209,0.29586 0.97625,0.49909 0.34444,0.23015 0.62756,0.55119 0.81282,0.92172 0.18526,0.37052 0.27223,0.78964 0.24968,1.20328 0.54443,1.10587 1.56712,1.96587 2.75,2.3125 0.11375,0.0333 0.22924,0.0623 0.33843,0.10841 0.10919,0.0461 0.21317,0.11102 0.28657,0.20409 0.0824,0.10445 0.12113,0.23901 0.12423,0.372 0.003,0.13299 -0.0275,0.26493 -0.0724,0.39016 -0.0897,0.25047 -0.23656,0.47991 -0.30182,0.73784 -0.0513,0.20278 -0.05,0.41477 -0.0441,0.62385 0.006,0.20909 0.0161,0.41985 -0.0184,0.62615 -0.048,0.28739 -0.18024,0.55287 -0.3125,0.8125 -0.14438,0.28342 -0.29159,0.56766 -0.38505,0.8717 -0.0935,0.30404 -0.13104,0.63258 -0.0524,0.9408 0.0868,0.34037 0.31827,0.64131 0.625,0.8125 0.41633,0.24242 0.85092,0.45344 1.29889,0.6307 0.2538,0.10043 0.52233,0.19686 0.7071,0.39775 0.10847,0.11793 0.18106,0.26598 0.22304,0.42061 0.042,0.15463 0.0544,0.31604 0.0523,0.47625 -0.004,0.32043 -0.065,0.63903 -0.0544,0.9593 0.0173,0.51893 0.22883,1.02681 0.57452,1.41421 0.36974,0.41435 0.87366,0.68389 1.28163,1.06066 0.72002,0.66496 1.09429,1.61335 1.63519,2.43068 0.47815,0.72251 1.11258,1.3629 1.90034,1.72357 0.40313,0.18457 0.83838,0.29293 1.23744,0.48614 0.67063,0.32469 1.22068,0.89176 1.52477,1.57198 0.3041,0.68021 0.35987,1.46826 0.15461,2.18452"
       id="path4925"
       style="fill:none;stroke:#37abc8;stroke-width:0.5;stroke-linecap:square;stroke-linejoin:miter;stroke-miterlimit:4;stroke-opacity:1;stroke-dasharray:none;stroke-dashoffset:0;display:inline" />
    <path
       d="m 183.5625,987.125 c 0.48961,0.31518 1.10014,0.437 1.67322,0.33384 0.57307,-0.10315 1.10281,-0.43021 1.45178,-0.89634 0.25492,-0.34049 0.41116,-0.74264 0.60795,-1.11972 0.19678,-0.37709 0.45208,-0.74673 0.82955,-0.94278 0.24798,-0.12879 0.52956,-0.1727 0.80253,-0.23246 0.27296,-0.0598 0.55268,-0.14266 0.75997,-0.33004 0.14164,-0.12803 0.24087,-0.29872 0.30044,-0.48012 0.0596,-0.1814 0.081,-0.37359 0.0822,-0.56451 0.003,-0.38185 -0.0737,-0.76103 -0.0702,-1.14287 0.002,-0.24667 0.0386,-0.49496 0.12879,-0.72457 0.0902,-0.22962 0.23616,-0.44019 0.43371,-0.58793 0.0959,-0.0717 0.20247,-0.12787 0.30282,-0.1933 0.10035,-0.0654 0.19652,-0.14241 0.25968,-0.2442 0.0648,-0.10449 0.0909,-0.22933 0.0941,-0.35226 0.003,-0.12293 -0.0153,-0.24528 -0.0335,-0.3669 -0.0182,-0.12161 -0.0363,-0.24404 -0.0325,-0.36696 0.004,-0.12291 0.0309,-0.24761 0.0969,-0.35138 0.0536,-0.0843 0.13101,-0.15176 0.21683,-0.20288 0.0858,-0.0511 0.18009,-0.0866 0.27573,-0.11543 0.19127,-0.0577 0.3921,-0.0907 0.56994,-0.18169 0.16811,-0.086 0.30833,-0.22122 0.41498,-0.37707 0.10664,-0.15586 0.18092,-0.33207 0.235,-0.51301 0.10815,-0.36188 0.13709,-0.7426 0.22502,-1.10992 0.0325,-0.13598 0.0733,-0.27089 0.0855,-0.41018 0.0121,-0.13929 -0.007,-0.28653 -0.0855,-0.40232 -0.0546,-0.0807 -0.1348,-0.14143 -0.22139,-0.18606 -0.0866,-0.0446 -0.17999,-0.0743 -0.2731,-0.10289 -0.0931,-0.0286 -0.18688,-0.0567 -0.27489,-0.0984 -0.088,-0.0418 -0.17082,-0.0982 -0.23062,-0.17513 -0.0897,-0.11532 -0.12036,-0.26796 -0.1129,-0.41385 0.007,-0.14589 0.0499,-0.28749 0.0936,-0.42687 0.0437,-0.13939 0.0893,-0.27959 0.1035,-0.42497 0.0142,-0.14539 -0.006,-0.2987 -0.0842,-0.42181 -0.0691,-0.10825 -0.17788,-0.18495 -0.28984,-0.2479 -0.11197,-0.063 -0.23036,-0.11533 -0.33516,-0.1896 -0.23366,-0.16558 -0.38327,-0.43093 -0.45378,-0.70849 -0.0705,-0.27757 -0.0683,-0.56848 -0.0462,-0.85401 0.0534,-0.68911 0.22025,-1.3721 0.1875,-2.0625 -0.009,-0.18854 -0.0328,-0.3761 -0.0625,-0.5625 -0.0709,-0.44454 -0.17545,-0.88371 -0.3125,-1.3125 0.0543,-0.14182 0.0962,-0.2884 0.125,-0.4375 0.052,-0.26915 0.0615,-0.54581 0.125,-0.8125 0.084,-0.35319 0.26381,-0.68312 0.51501,-0.94525 0.25121,-0.26212 0.57319,-0.45575 0.92249,-0.55475"
       id="path4929"
       style="fill:none;stroke:#37abc8;stroke-width:0.5;stroke-linecap:square;stroke-linejoin:miter;stroke-miterlimit:4;stroke-opacity:1;stroke-dasharray:none;stroke-dashoffset:0;display:inline" />
    <path
       d="m 189.1875,973.5625 c 0.26971,-0.24548 0.63538,-0.3826 1,-0.375 0.14703,0.003 0.2926,0.0286 0.43917,0.0406 0.14658,0.012 0.29764,0.01 0.43583,-0.0406 0.20247,-0.0737 0.36264,-0.25398 0.41199,-0.46372 0.0494,-0.20974 -0.0136,-0.44253 -0.16199,-0.59878"
       id="path4937"
       style="fill:none;stroke:#37abc8;stroke-width:0.5;stroke-linecap:square;stroke-linejoin:miter;stroke-miterlimit:4;stroke-opacity:1;stroke-dasharray:none;stroke-dashoffset:0;display:inline" />
    <path
       d="m 188.0625,977.0625 c 0.14846,-0.0786 0.29439,-0.16201 0.4375,-0.25 0.22547,-0.13863 0.44439,-0.28892 0.68034,-0.40886 0.23594,-0.11993 0.49257,-0.20954 0.75716,-0.21614 0.27497,-0.007 0.54309,0.0755 0.81008,0.14157 0.267,0.0661 0.54902,0.11631 0.81492,0.0459 0.25463,-0.0674 0.47696,-0.24828 0.59476,-0.48387 0.1178,-0.2356 0.1291,-0.52198 0.0302,-0.76613"
       id="path4941"
       style="fill:none;stroke:#37abc8;stroke-width:0.5;stroke-linecap:square;stroke-linejoin:miter;stroke-miterlimit:4;stroke-opacity:1;stroke-dasharray:none;stroke-dashoffset:0;display:inline" />
    <path
       d="m 190.80524,980 c 0.0986,-0.33698 0.0299,-0.71867 -0.18024,-1 -0.11528,-0.15437 -0.26759,-0.27673 -0.42248,-0.39129 -0.1549,-0.11457 -0.31497,-0.22381 -0.45252,-0.35871 -0.31077,-0.30477 -0.48983,-0.73048 -0.53131,-1.16377 -0.0415,-0.4333 0.0486,-0.87312 0.21881,-1.27373 0.10123,-0.23823 0.23011,-0.46364 0.34009,-0.69795 0.10999,-0.23432 0.20196,-0.48152 0.22241,-0.73955 0.0206,-0.2596 -0.0336,-0.52471 -0.15447,-0.7554 -0.12084,-0.23068 -0.3079,-0.4262 -0.53303,-0.5571"
       id="path4945"
       style="fill:none;stroke:#37abc8;stroke-width:0.5;stroke-linecap:square;stroke-linejoin:miter;stroke-miterlimit:4;stroke-opacity:1;stroke-dasharray:none;stroke-dashoffset:0;display:inline" />
    <path
       d="m 188.25,984.32322 c 0.36687,-0.6442 0.39107,-1.47117 0.0625,-2.13572 -0.18713,-0.37847 -0.47539,-0.69744 -0.6875,-1.0625 -0.47495,-0.81744 -0.53139,-1.86412 -0.1471,-2.7279"
       id="path4949"
       style="fill:none;stroke:#37abc8;stroke-width:0.5;stroke-linecap:square;stroke-linejoin:miter;stroke-miterlimit:4;stroke-opacity:1;stroke-dasharray:none;stroke-dashoffset:0;display:inline" />
    <path
       d="m 183.6875,986.875 c 0.002,-0.50903 0.19876,-1.01489 0.54117,-1.39155 0.34242,-0.37665 0.82729,-0.62056 1.33383,-0.67095 0.22251,-0.0221 0.44702,-0.008 0.67034,-0.0197 0.22332,-0.0114 0.45174,-0.0506 0.64216,-0.16777 0.17714,-0.10904 0.30984,-0.27914 0.40784,-0.46262 0.098,-0.18347 0.1644,-0.38176 0.23518,-0.57736 0.0708,-0.19559 0.14731,-0.39125 0.26285,-0.56422 0.11554,-0.17297 0.2741,-0.32347 0.46913,-0.3958 0.1476,-0.0547 0.30824,-0.0625 0.46564,-0.0599 0.1574,0.003 0.31539,0.0147 0.47186,-0.003 0.22577,-0.0249 0.44431,-0.11236 0.625,-0.25"
       id="path4953"
       style="fill:none;stroke:#37abc8;stroke-width:0.5;stroke-linecap:square;stroke-linejoin:miter;stroke-miterlimit:4;stroke-opacity:1;stroke-dasharray:none;stroke-dashoffset:0;display:inline" />
    <path
       d="m 186.5,981.0625 c 0.10637,-0.006 0.21184,-0.0275 0.3125,-0.0625 0.27536,-0.0957 0.50417,-0.29025 0.7146,-0.49201 0.21042,-0.20175 0.41245,-0.41718 0.6604,-0.57049 0.24205,-0.14966 0.51849,-0.23405 0.79539,-0.29972 0.27689,-0.0657 0.55831,-0.11437 0.82961,-0.20028 0.49559,-0.15693 0.95105,-0.43888 1.3125,-0.8125"
       id="path4957"
       style="fill:none;stroke:#37abc8;stroke-width:0.5;stroke-linecap:square;stroke-linejoin:miter;stroke-miterlimit:4;stroke-opacity:1;stroke-dasharray:none;stroke-dashoffset:0;display:inline" />
    <path
       d="m 191.75,978.1875 0.43403,-4.22065"
       id="path4961"
       style="fill:none;stroke:#37abc8;stroke-width:0.5;stroke-linecap:square;stroke-linejoin:miter;stroke-miterlimit:4;stroke-opacity:1;stroke-dasharray:none;stroke-dashoffset:0;display:inline" />
    <path
       d="m 191.04436,970.63782 c 0.0529,-0.16387 0.0529,-0.34436 0,-0.50823 -0.0437,-0.13528 -0.1218,-0.25749 -0.21393,-0.36575 -0.0921,-0.10827 -0.19837,-0.20354 -0.30535,-0.29716 -0.0433,-0.0379 -0.0868,-0.0756 -0.13258,-0.11049 -0.301,-0.22949 -0.68057,-0.32469 -1.04961,-0.4088 -0.11051,-0.0252 -0.22231,-0.0503 -0.32416,-0.10002 -0.10185,-0.0497 -0.19441,-0.12736 -0.23932,-0.23143 -0.0256,-0.0592 -0.0346,-0.12403 -0.0442,-0.18783 -0.0621,-0.41448 -0.1546,-0.83171 -0.11049,-1.24848 0.0201,-0.18991 0.0687,-0.37678 0.14363,-0.55243"
       id="path4965"
       style="fill:none;stroke:#37abc8;stroke-width:0.5;stroke-linecap:square;stroke-linejoin:miter;stroke-miterlimit:4;stroke-opacity:1;stroke-dasharray:none;stroke-dashoffset:0;display:inline" />
    <path
       d="m 188.8678,970.45 c 0.0964,-0.33378 0.24621,-0.65208 0.44194,-0.93913 0.0798,-0.11699 0.16845,-0.23017 0.28093,-0.31619 0.11248,-0.086 0.25158,-0.14344 0.39303,-0.1368 0.0552,0.003 0.11043,0.0147 0.16515,0.007 0.0274,-0.004 0.0544,-0.0125 0.0768,-0.0286 0.0224,-0.0161 0.0399,-0.0399 0.0453,-0.067 0.004,-0.0217 7.9e-4,-0.0441 0,-0.0663 -0.002,-0.0499 0.0103,-0.0992 0.0264,-0.1465 0.016,-0.0472 0.0361,-0.0931 0.0509,-0.14076 0.04,-0.12831 0.041,-0.26685 0.0154,-0.39877 -0.0256,-0.13192 -0.0772,-0.25772 -0.14044,-0.37631 -0.12644,-0.23718 -0.29914,-0.44712 -0.42738,-0.68333 -0.16842,-0.31022 -0.25674,-0.66349 -0.25412,-1.01647"
       id="path4969"
       style="fill:none;stroke:#37abc8;stroke-width:0.5;stroke-linecap:square;stroke-linejoin:miter;stroke-miterlimit:4;stroke-opacity:1;stroke-dasharray:none;stroke-dashoffset:0;display:inline" />
  </g>
  <g
     transform="translate(-17.456573,-762.84568)"
     id="layer3"
     style="display:inline">
    <path
       d="m 122.78125,779.90625 c -0.18914,-0.0222 -0.44043,0.13926 -0.78125,0.53125 -0.93512,1.09506 -1.97409,2.17538 -3.09375,3.125 -3.35287,2.84588 -6.67199,5.24182 -9.875,8.3125 -3.26678,3.13126 -7.67139,4.51534 -12,5.46875 -2.3325,0.51337 -4.77527,0.61642 -7.03125,1.4375 -0.62976,0.22958 -2.39707,2.84277 -3.0625,3.5625 -0.1785,0.50794 -0.1522,0.49346 -0.53125,1.375 0.88125,0.63344 3.47513,1.51802 4.03125,2 0.55607,0.48198 1.38362,0.85905 0.625,2.4375 -0.75863,1.57844 -2.07724,0.92086 -2.625,0.625 -0.54776,-0.29586 -2.56843,-1.3247 -3.46875,-1.625 -0.4151,0.96538 -0.47626,1.02294 -0.9375,2.25 -1.99116,5.29665 -4.59775,7.51094 -9.40625,10.25 -4.36368,2.48556 -5.72296,7.44947 -7.46875,11.9375 -2.13321,5.48928 -1.27344,10.11846 -5.65625,14.59375 -3.2907,3.35925 -8.30269,6.55373 -10.28125,10.90625 0.49743,-0.87529 1.21591,-1.64224 2.0625,-2.1875 1.25952,2.14118 -3.28225,7.78737 -4.40625,9.4375 -0.7031,1.03153 -0.16171,2.83611 -1.0625,3.375 -1.58796,0.95341 -1.54976,3.43373 -2.03125,5.03125 -0.93906,3.11691 -3.75229,3.10021 -5.28125,5.59375 -1.26271,2.05668 -1.8562,4.26699 -2.25,6.625 -0.275886,1.65761 -1.019377,4.05006 -1.584168,6.2119 l 0.96813,0.32659 c 2.906073,1.98119 2.590453,5.6391 4.293612,7.56653 0.208181,-0.77165 0.793303,-1.76249 1.182313,-2.44486 0.690452,2.34178 3.666095,7.09256 3.486296,9.61834 -0.103942,1.46016 0.750077,1.92358 1.028817,3.0965 0.27873,1.17291 -0.0856,2.94422 -0.4375,4.21875 -0.35191,1.27452 -0.87448,2.49243 -1.5625,3.34375 -0.68801,0.85131 -2.00683,1.46365 -1.78125,1.6875 0.22559,0.22384 0.91508,0.88637 1.28125,1.375 1.09849,1.46519 1.02839,3.3655 1.25,5.09375 0.61382,4.79256 1.31726,8.91791 0.84375,13.8125 -0.27296,2.81746 -1.10766,5.45681 -1.78125,8.15625 l 1.28125,1.375 c 0,0 0.68904,2.21922 1.90625,2.59375 l 0.75,0.5625 c 0,0 5.68845,-0.43904 6.4375,-1.65625 0.74906,-1.21724 1.40625,-1.3125 1.40625,-1.3125 0,0 0.46911,-0.46686 0.75,1.03125 0.2809,1.4981 6,1.03125 6,1.03125 0,0 6.53361,-0.27368 8.40625,5.71875 0,0 0.65802,1.68679 2.0625,1.125 0,0 0.65661,-0.18667 0.9375,0.46875 0.2809,0.65542 1.78125,0.0937 1.78125,0.0937 0,0 0.84564,-0.46615 2.34375,1.59375 l 1.59375,1.46875 1.40625,2.71875 0.9375,2.0625 1.5,0.5625 c -0.2249,0.94331 0.38225,0.46199 0.46875,0.5625 0,0 0.75035,-0.4652 1.03125,2.34375 0,0 0.28231,1.12571 1.125,1.6875 0.84268,0.56179 0.1875,1.21875 0.1875,1.21875 0,0 0.09525,1.0303 1.3125,0.28125 1.21721,-0.74906 3.65625,-0.1875 3.65625,-0.1875 0,0 1.49964,0.097 1.21875,2.71875 -0.2809,2.62168 1.9375,3.65625 1.9375,3.65625 0.59176,-0.61829 0.7392,-0.97329 1.1875,-2.375 0,0 -1.78077,-0.56616 -1.40625,-3.46875 0.37453,-2.90258 1.125,-3.65625 1.125,-3.65625 0,0 2.20271,-2.82416 1.875,0.3125 -0.32771,3.13667 0.3125,3.5625 0.3125,3.5625 0,0 0.61038,0.54695 1.40625,0.59375 0.79587,0.0468 0.65625,-0.4375 0.65625,-0.4375 0,0 0.0618,-0.42253 -0.5,-0.9375 -0.56179,-0.51498 -0.0625,-1.28125 -0.0625,-1.28125 0,0 0.23527,-0.26555 0.9375,-0.21875 0,0 1.79729,-0.32617 2.125,1.21875 l 0.5625,1.125 c 0,0 0.0929,1.09494 -0.5625,2.03125 -0.65542,0.93637 0.46875,2.2188 0.46875,2.2188 0,0 0.21816,0.50142 -0.25,1.625 -0.46816,1.12358 0.71875,0.375 0.71875,0.375 0,0 0.375,-0.51674 0.375,-1.40625 0,-0.8895 1.21875,-2.09375 1.21875,-2.09375 0,0 0.62713,-0.98419 2.3125,-0.84375 0,0 2.15803,0.45093 3.5625,-1.28125 1.40448,-1.73216 2.59375,-1.625 2.59375,-1.625 l 4.0625,0.375 c 0,0 4.17407,0.62405 5.90625,-0.125 1.73219,-0.74905 1.15625,-1.96875 1.15625,-1.96875 l -0.4375,-0.84375 c 0,0 -0.59427,-1.39327 0.53125,-1.625 0,0 0.82707,-0.30218 1.125,1.1875 0,0 0.19598,1.1875 1.71875,1.1875 0,0 4.16473,0.70445 9.59375,-0.15625 5.42903,-0.86069 34.4375,-0.46875 34.4375,-0.46875 0,0 1.08449,0.12049 1.25,-2.03125 C 174.06462,965.25408 174,965 174,965 c 0,0 0.002,-1.4571 0.53125,-2.78125 0.52966,-1.32415 0.34375,-3.3125 0.34375,-3.3125 0,0 -0.0307,-0.61176 -1.15625,-1.40625 0,0 -2.02755,-0.99894 -2.09375,-3.25 l -0.0937,-2.90625 c 0,0 -8.06038,0.0122 -8.65625,-6.34375 l -0.53125,-5.8125 c 0,0 0.0625,-4.04555 -3.84375,-4.90625 0,0 -4.89883,-1.99206 -5.03125,-3.25 -0.13241,-1.25795 -1.1875,-4.25 -1.1875,-4.25 0,0 -0.50079,-1.27145 -2.71875,-2.5625 L 145.3438,921.625 c 0,0 -1.73146,-0.98093 -2.0625,-2.4375 L 141.8125,914.5 c 0,0 -0.60381,-2.12685 -2.65625,-2.09375 -2.05243,0.0331 -3.625,3.9375 -3.625,3.9375 L 134.1875,919.25 c 0,0 -1.46902,2.69677 -4.8125,2.53125 0,0 -1.81753,0.11121 -2.84375,-1.875 l -2.6875,-4.09375 c 0,0 -1.52065,-1.9849 -4.5,-2.8125 l -6.9375,-2.4375 c 0,0 -1.8493,-0.64062 -1.75,-2.59375 l 0.0625,-1.75 c 0,0 -0.0781,-1.4706 1.875,-1.4375 1.95313,0.0331 3.65625,-2.96875 3.65625,-2.96875 l 3.21875,-4.6875 c 0,0 1.42532,-2.38427 3.875,-2.21875 l 3.1875,0.1875 c 0,0 3.00477,0.0879 4.59375,-3.15625 l 3.5625,-6.96875 c 0,0 0.90546,-2.125 2.59375,-2.125 0.55432,-0.069 1.06018,0.25801 1.59375,0.75 l 11.4375,11.34375 c 0,0 8.86918,6.6581 17.34375,6.625 l -4.5625,-62.78125 20.84375,-0.125 c -4.83066,-3.40469 -2.65238,-6.96448 -2.65625,-10.4375 l 0.28125,-12.65625 c 0.32335,-3.2118 -0.57235,-3.40393 -3.1875,-4.90625 l -21.0625,-11.3125 c -2.72311,-2.30752 -5.47253,-1.78125 -8.875,-1.78125 l -8.1875,0.0625 c 0,0 0.19492,-6.23835 0.0625,-7.5625 l -7.21875,0.0625 c 0,0 -3.91578,0.0164 -7.09375,-3.625 -2.5821,-2.95865 -2.39915,-6.49771 -3.21875,-6.59375 z M 138.8125,832.125 c 3.31993,-0.47722 4.75,5.1875 4.75,5.1875 0,0 1.3125,2.5625 1.375,3.75 0,0 0.75,3.625 3.125,3.6875 l 2.71875,0.0937 c 0,0 1.46875,-0.28125 1.34375,1.46875 0,0 -0.625,5.125 -6.1875,5.6875 L 143,852.0625 c 0,0 -2.125,-1.3125 -3.5,0.9375 -1.375,2.25 -3.5625,4 -3.5625,4 0,0 -0.375,0.5 -1.8125,0.375 -1.4375,-0.125 -4.1875,-4.9375 -4.1875,-4.9375 -7.00828,-8.56692 -0.66322,-3.85763 0.25,-9.125 0.375,-2.875 -0.875,-3.875 -0.875,-3.875 0,0 -1.375,-1.25 0.5,-2.5 0,0 4.5,-3.1875 8.3125,-4.625 0.23828,-0.0898 0.46617,-0.15568 0.6875,-0.1875 z m -12.0625,148.21875 -0.4375,0.0312 c 0,0 -0.54609,0.84505 0.0625,1.875 0.6086,1.02995 0.875,-0.59375 0.875,-0.59375 0,0 0.15543,-1.35931 -0.5,-1.3125 z m 9.46875,1.625 c -0.16971,0.0351 -0.38296,0.14103 -0.5,0.46875 -0.10032,0.28089 -0.1003,0.45113 -0.0937,0.5625 0,0 0.53052,0.95436 -0.0312,1.9375 -0.56179,0.98313 0.84375,0.59375 0.84375,0.59375 0,0 0.74988,-0.65779 0.65625,-1.875 -0.0936,-1.21721 -0.5625,-1.6875 -0.5625,-1.6875 0,0 -0.14279,-0.0351 -0.3125,0 z m -4.875,0.15625 C 131.16819,982.10744 131,982.15625 131,982.15625 l -0.0312,0.0937 c 0,0 -0.76533,0.0943 -0.53125,0.5625 0.23408,0.46816 0.84375,0.375 0.84375,0.375 0,0 0.56238,-0.17252 0.46875,-0.6875 -0.0468,-0.25748 -0.23069,-0.35744 -0.40625,-0.375 z"
       id="path3882-4"
       style="opacity:0.5;fill:#008000;stroke:none;display:inline" />
    <g
       transform="translate(-66,666)"
       id="g4909"
       style="fill:#00d400">
      <path
         d="m 229.07468,172.77436 20.83316,-0.11229 65.91197,50.94367 c 0,0 1.39953,0.44625 3.06176,2.26062 0.96614,1.05457 0.15848,3.05924 -1.28276,6.3535 0,0 -0.37453,5.33701 0.93632,7.6778 1.31084,2.34079 0.56179,7.02238 0.56179,7.02238 0,0 -0.2809,2.0599 0.84268,3.46437 1.12358,1.40448 1.31085,5.24338 1.31085,5.24338 0,0 1.31084,3.27711 1.21721,5.05611 -0.0936,1.77901 -0.56179,7.6778 2.15353,9.83133 2.71532,2.15353 2.43442,3.74527 2.43442,3.74527 l -8.05232,14.79382 c 0,0 -3.08985,7.3969 -7.67781,8.23959 0,0 -2.34079,-1.779 -3.08984,-4.68159 -0.74906,-2.90258 -1.59174,-3.27711 -1.59174,-3.27711 0,0 -0.37453,-0.65542 -0.46816,-1.87263 -0.0936,-1.21722 -3.08985,-5.14975 -3.08985,-5.14975 0,0 -0.37452,-0.74905 -1.12358,0.2809 0,0 -1.02995,-0.84269 -2.0599,-0.37453 -1.02995,0.46816 -2.15353,0.0936 -2.15353,0.0936 0,0 -4.68158,-1.02995 -5.99243,-0.74905 -1.31084,0.28089 -4.40069,0.56179 -4.40069,0.56179 0,0 -1.96626,0.18726 -2.71532,0.93632 -0.74905,0.74905 -7.77143,2.43442 -7.77143,2.43442 0,0 -1.31084,0.18726 -2.24716,-0.46816 -0.93632,-0.65542 -1.49811,0.93632 -1.49811,0.93632 0,0 -0.65542,0.93632 -2.24716,-0.18726 l -4.49432,3.1835 c 0,0 -2.71532,0.2809 -2.90259,1.31085 -0.18726,1.02995 -2.34079,1.21721 -2.34079,1.21721 0,0 -2.24716,-0.84268 -2.62169,3.27711 0,0 0,1.87264 -3.18348,1.40448 -3.18348,-0.46816 -9.26954,3.46437 -9.26954,3.46437 0,0 -1.40447,-0.46816 -1.68537,0.65542 -0.28089,1.12358 -1.96627,1.96627 -1.96627,1.96627 l -2.63329,0.0936 c 0,0 0.0628,-0.25462 0.0841,-0.62231 0.0754,-0.92501 0.14185,-1.79138 0.14787,-2.68017 -0.006,-1.21295 0.29425,-2.2475 0.52825,-2.84889 0.45527,-1.37195 0.34805,-2.32203 0.33457,-3.22523 -0.20727,-0.88729 -0.89891,-1.13395 -1.18431,-1.47437 -1.17396,-0.61952 -1.99805,-1.81984 -2.08326,-3.26823 l -0.0917,-2.92168 c 0,0 3.29928,0.60143 7.36515,-1.16633 l 9.32497,-4.41942 8.3085,-4.81717 c 0,0 4.02167,-2.82843 4.06587,-5.56846 0.0442,-2.74004 -1.06066,-7.95496 -1.06066,-7.95496 0,0 -0.35356,-1.14904 -1.28164,-2.43068 -0.92807,-1.28163 -1.19324,-1.76776 -1.14904,-2.78423 0.0442,-1.01646 -0.92808,-3.44714 -0.92808,-3.44714 0,0 -1.32583,-3.40296 -1.14905,-4.77297 0.17678,-1.37002 -1.5026,-4.06587 -1.5026,-4.06587 0,0 -1.32583,-1.94454 0.13258,-3.7565 1.45841,-1.81196 2.43068,-4.19845 2.43068,-4.19845 0,0 0.92808,-1.63518 -2.38649,-1.81196 -3.31456,-0.17678 -13.96535,1.14905 -13.96535,1.14905 0,0 -11.29541,2.50352 -12.06407,0.27302 z"
         id="path4880"
         style="opacity:0.5;fill:#00d400;stroke:none" />
      <path
         d="m 174.39133,309.08789 c -1.68537,-0.14044 -2.3408,0.84269 -2.3408,0.84269 0,0 -1.21721,1.21721 -1.21721,2.10671 0,0.88951 -0.37453,1.40448 -0.37453,1.40448 0,0 -1.17039,0.74905 -0.70223,-0.37453 0.46816,-1.12358 0.23408,-1.63855 0.23408,-1.63855 0,0 -1.12358,-1.26403 -0.46816,-2.20035 0.65539,-0.93631 0.56179,-2.0599 0.56179,-2.0599 l -0.56179,-1.12358 c -0.32771,-1.54492 -2.10671,-1.21721 -2.10671,-1.21721 -0.70223,-0.0468 -0.93631,0.23408 -0.93631,0.23408 0,0 -0.51499,0.74905 0.0468,1.26403 0.56178,0.51497 0.51498,0.93632 0.51498,0.93632 0,0 0.14044,0.51495 -0.65543,0.46815 -0.79587,-0.0468 -1.40447,-0.6086 -1.40447,-0.6086 0,0 -0.65542,-0.42134 -0.32771,-3.55801 0.32771,-3.13666 -1.87263,-0.3277 -1.87263,-0.3277 0,0 -0.74906,0.74905 -1.12359,3.65163 -0.37452,2.90259 1.41251,3.4724 1.41251,3.4724 -0.4483,1.40171 -0.61409,1.77265 -1.20585,2.39094 0,0 -0.96186,0.21856 -0.96186,0.52287 0,0.3043 -0.84269,0.81927 -1.26403,0.58519 0,0 1.96627,2.24717 3.55801,2.29398 1.59174,0.0468 2.01308,1.1704 2.01308,1.1704 0,0 0.77246,0.56179 2.31738,0.39793 1.54493,-0.16385 1.59174,0.0234 1.61515,-0.77246 0.0234,-0.79587 0.81928,-1.45129 0.81928,-1.45129 0,0 0.42134,-1.02995 1.00654,-1.21721 0.5852,-0.18727 1.10017,-1.82582 1.10017,-1.82582 0,0 0.16386,-0.51498 1.14699,-1.12358 0.98313,-0.60861 1.17655,-2.24301 1.17655,-2.24301 z"
         id="path3882-4-0"
         style="opacity:0.5;fill:#00d400;fill-opacity:1;stroke:none;display:inline" />
    </g>
  </g>
  <g
     id="layer10">
    <text
       x="228.30273"
       y="50.234894"
       id="text5047"
       xml:space="preserve"
       style="font-size:8px;font-style:normal;font-variant:normal;font-weight:normal;font-stretch:normal;text-indent:0;text-align:center;text-decoration:none;line-height:100%;letter-spacing:3px;word-spacing:0px;text-transform:none;direction:ltr;block-progression:tb;writing-mode:lr-tb;text-anchor:middle;baseline-shift:baseline;color:#000000;fill:#ffffff;fill-opacity:1;fill-rule:nonzero;stroke:none;stroke-width:1px;marker:none;visibility:visible;display:inline;overflow:visible;enable-background:accumulate;font-family:Arial;-inkscape-font-specification:Arial"><tspan
         x="229.80273"
         y="50.234894"
         id="tspan5049">Algeria</tspan></text>
    <text
       x="97.961327"
       y="146.90195"
       id="text5047-8"
       xml:space="preserve"
       style="font-size:8px;font-style:normal;font-variant:normal;font-weight:normal;font-stretch:normal;text-indent:0;text-align:center;text-decoration:none;line-height:100%;letter-spacing:3px;word-spacing:0px;text-transform:none;direction:ltr;block-progression:tb;writing-mode:lr-tb;text-anchor:middle;baseline-shift:baseline;color:#000000;fill:#ffffff;fill-opacity:1;fill-rule:nonzero;stroke:none;stroke-width:1px;marker:none;visibility:visible;display:inline;overflow:visible;enable-background:accumulate;font-family:Arial;-inkscape-font-specification:Arial"><tspan
         x="99.461327"
         y="146.90195"
         id="tspan5049-8">Mauritania</tspan></text>
    <text
       id="text5047-8-2"
       xml:space="preserve"
       style="font-size:8px;font-style:normal;font-variant:normal;font-weight:normal;font-stretch:normal;text-indent:0;text-align:center;text-decoration:none;line-height:100%;letter-spacing:30px;word-spacing:0px;text-transform:none;direction:ltr;block-progression:tb;writing-mode:lr-tb;text-anchor:middle;baseline-shift:baseline;color:#000000;fill:#ffffff;fill-opacity:1;fill-rule:nonzero;stroke:none;stroke-width:1px;marker:none;visibility:visible;display:inline;overflow:visible;enable-background:accumulate;font-family:Arial;-inkscape-font-specification:Arial"
       sodipodi:linespacing="100%"><textPath
         xlink:href="#path3082"
         startOffset="50%"
         id="textPath3084">Mali<tspan
   id="tspan5049-8-4"
   style="font-size:8px;letter-spacing:30px" /></textPath></text>
    <text
       x="41.599079"
       y="219.72243"
       id="text5047-8-5"
       xml:space="preserve"
       style="font-size:8px;font-style:normal;font-variant:normal;font-weight:normal;font-stretch:normal;text-indent:0;text-align:center;text-decoration:none;line-height:100%;letter-spacing:2px;word-spacing:0px;text-transform:none;direction:ltr;block-progression:tb;writing-mode:lr-tb;text-anchor:middle;baseline-shift:baseline;color:#000000;fill:#ffffff;fill-opacity:1;fill-rule:nonzero;stroke:none;stroke-width:1px;marker:none;visibility:visible;display:inline;overflow:visible;enable-background:accumulate;font-family:Arial;-inkscape-font-specification:Arial"><tspan
         x="42.599079"
         y="219.72243"
         id="tspan5049-8-5">Senegal</tspan></text>
    <text
       x="91.6231"
       y="78.156654"
       transform="matrix(0.8660254,-0.5,0.5,0.8660254,0,0)"
       id="text5047-8-1"
       xml:space="preserve"
       style="font-size:8px;font-style:normal;font-variant:normal;font-weight:normal;font-stretch:normal;text-indent:0;text-align:center;text-decoration:none;line-height:100%;letter-spacing:3px;word-spacing:0px;text-transform:none;direction:ltr;block-progression:tb;writing-mode:lr-tb;text-anchor:middle;baseline-shift:baseline;color:#000000;fill:#ffffff;fill-opacity:1;fill-rule:nonzero;stroke:none;stroke-width:1px;marker:none;visibility:visible;display:inline;overflow:visible;enable-background:accumulate;font-family:Arial;-inkscape-font-specification:Arial"><tspan
         x="93.1231"
         y="78.156654"
         id="tspan5049-8-7">Morocco</tspan></text>
    <text
       x="-27.192142"
       y="101.32474"
       transform="matrix(0.64504665,-0.76414319,0.76414319,0.64504665,0,0)"
       id="text5047-8-7"
       xml:space="preserve"
       style="font-size:8px;font-style:normal;font-variant:normal;font-weight:normal;font-stretch:normal;text-indent:0;text-align:center;text-decoration:none;line-height:100%;letter-spacing:3px;word-spacing:0px;text-transform:none;direction:ltr;block-progression:tb;writing-mode:lr-tb;text-anchor:middle;baseline-shift:baseline;color:#000000;fill:#ffffff;fill-opacity:1;fill-rule:nonzero;stroke:none;stroke-width:1px;marker:none;visibility:visible;display:inline;overflow:visible;enable-background:accumulate;font-family:Arial;-inkscape-font-specification:Arial"><tspan
         x="-25.692142"
         y="101.32474"
         id="tspan5049-8-6">Western Sahara</tspan></text>
    <text
       id="text5170"
       xml:space="preserve"
       style="font-size:5px;font-style:oblique;font-variant:normal;font-weight:normal;font-stretch:normal;text-indent:0;text-align:center;text-decoration:none;line-height:100%;letter-spacing:2px;word-spacing:0px;text-transform:none;direction:ltr;block-progression:tb;writing-mode:lr-tb;text-anchor:middle;baseline-shift:baseline;color:#000000;fill:#37abc8;fill-opacity:1;fill-rule:nonzero;stroke:none;stroke-width:1px;marker:none;visibility:visible;display:inline;overflow:visible;enable-background:accumulate;font-family:Arial;-inkscape-font-specification:Arial Oblique"><textPath
         xlink:href="#path3856"
         startOffset="50%"
         id="textPath3858"><tspan
   id="tspan5172">Niger</tspan></textPath></text>
    <text
       x="38.65324"
       y="201.00513"
       id="text5179"
       xml:space="preserve"
       style="font-size:8px;font-style:normal;font-variant:normal;font-weight:normal;font-stretch:normal;text-indent:0;text-align:center;text-decoration:none;line-height:100%;letter-spacing:0px;word-spacing:0px;text-transform:none;direction:ltr;block-progression:tb;writing-mode:lr-tb;text-anchor:middle;baseline-shift:baseline;color:#000000;fill:#999999;fill-opacity:1;fill-rule:nonzero;stroke:none;stroke-width:1px;marker:none;visibility:visible;display:inline;overflow:visible;enable-background:accumulate;font-family:Arial;-inkscape-font-specification:Arial"><tspan
         x="38.65324"
         y="201.00513"
         id="tspan5181" /></text>
    <text
       id="text5170-4"
       xml:space="preserve"
       style="font-size:5px;font-style:oblique;font-variant:normal;font-weight:normal;font-stretch:normal;text-indent:0;text-align:center;text-decoration:none;line-height:100%;letter-spacing:2px;word-spacing:0px;text-transform:none;direction:ltr;block-progression:tb;writing-mode:lr-tb;text-anchor:middle;baseline-shift:baseline;color:#000000;fill:#37abc8;fill-opacity:1;fill-rule:nonzero;stroke:none;stroke-width:1px;marker:none;visibility:visible;display:inline;overflow:visible;enable-background:accumulate;font-family:Arial;-inkscape-font-specification:Arial Oblique"><textPath
         xlink:href="#path3862"
         startOffset="50%"
         id="textPath3864"><tspan
   id="tspan5172-3">Senegal</tspan></textPath></text>
    <path
       d="m 241.19262,166.30226 a 1.2387295,1.2387295 0 1 1 -2.47746,0 1.2387295,1.2387295 0 1 1 2.47746,0 z"
       transform="matrix(0.60545907,0,0,0.60545907,93.543556,65.542352)"
       id="path5216"
       style="fill:#000000;stroke:none" />
    <text
       x="241.17749"
       y="165.5392"
       id="text5218"
       xml:space="preserve"
       style="font-size:5px;font-style:normal;font-variant:normal;font-weight:normal;font-stretch:normal;text-indent:0;text-align:start;text-decoration:none;line-height:100%;letter-spacing:0px;word-spacing:0px;text-transform:none;direction:ltr;block-progression:tb;writing-mode:lr-tb;text-anchor:start;baseline-shift:baseline;color:#000000;fill:#000000;fill-opacity:1;fill-rule:nonzero;stroke:none;stroke-width:1px;marker:none;visibility:visible;display:inline;overflow:visible;enable-background:accumulate;font-family:Arial;-inkscape-font-specification:Arial"><tspan
         x="241.17749"
         y="165.5392"
         id="tspan5220">Kidal</tspan></text>
    <path
       d="m 241.19262,166.30226 a 1.2387295,1.2387295 0 1 1 -2.47746,0 1.2387295,1.2387295 0 1 1 2.47746,0 z"
       transform="matrix(0.60545907,0,0,0.60545907,41.408639,88.401091)"
       id="path5216-2"
       style="fill:#000000;stroke:none" />
    <text
       x="164.0135"
       y="192.57973"
       id="text5218-2"
       xml:space="preserve"
       style="font-size:5px;font-style:normal;font-variant:normal;font-weight:normal;font-stretch:normal;text-indent:0;text-align:start;text-decoration:none;line-height:100%;letter-spacing:0px;word-spacing:0px;text-transform:none;direction:ltr;block-progression:tb;writing-mode:lr-tb;text-anchor:start;baseline-shift:baseline;color:#000000;fill:#000000;fill-opacity:1;fill-rule:nonzero;stroke:none;stroke-width:1px;marker:none;visibility:visible;display:inline;overflow:visible;enable-background:accumulate;font-family:Arial;-inkscape-font-specification:Arial"><tspan
         x="164.0135"
         y="192.57973"
         id="tspan5220-1">Timbuktu</tspan></text>
    <path
       d="m 241.19262,166.30226 a 1.2387295,1.2387295 0 1 1 -2.47746,0 1.2387295,1.2387295 0 1 1 2.47746,0 z"
       transform="matrix(0.60545907,0,0,0.60545907,-115.07969,73.821361)"
       id="path5216-6"
       style="fill:#000000;stroke:none" />
    <text
       x="32.554249"
       y="173.81821"
       id="text5218-8"
       xml:space="preserve"
       style="font-size:5px;font-style:normal;font-variant:normal;font-weight:normal;font-stretch:normal;text-indent:0;text-align:start;text-decoration:none;line-height:100%;letter-spacing:0px;word-spacing:0px;text-transform:none;direction:ltr;block-progression:tb;writing-mode:lr-tb;text-anchor:start;baseline-shift:baseline;color:#000000;fill:#000000;fill-opacity:1;fill-rule:nonzero;stroke:none;stroke-width:1px;marker:none;visibility:visible;display:inline;overflow:visible;enable-background:accumulate;font-family:Arial;-inkscape-font-specification:Arial"><tspan
         x="32.554249"
         y="173.81821"
         id="tspan5220-5">Nouakchott</tspan></text>
    <path
       d="m 241.19262,166.30226 a 1.2387295,1.2387295 0 1 1 -2.47746,0 1.2387295,1.2387295 0 1 1 2.47746,0 z"
       transform="matrix(0.60545907,0,0,0.60545907,-74.166025,-56.831106)"
       id="path5216-7"
       style="fill:#000000;stroke:none" />
    <text
       x="73.467918"
       y="43.165741"
       id="text5218-6"
       xml:space="preserve"
       style="font-size:5px;font-style:normal;font-variant:normal;font-weight:normal;font-stretch:normal;text-indent:0;text-align:start;text-decoration:none;line-height:100%;letter-spacing:0px;word-spacing:0px;text-transform:none;direction:ltr;block-progression:tb;writing-mode:lr-tb;text-anchor:start;baseline-shift:baseline;color:#000000;fill:#000000;fill-opacity:1;fill-rule:nonzero;stroke:none;stroke-width:1px;marker:none;visibility:visible;display:inline;overflow:visible;enable-background:accumulate;font-family:Arial;-inkscape-font-specification:Arial"><tspan
         x="73.467918"
         y="43.165741"
         id="tspan5220-18">Layoune</tspan></text>
    <path
       d="m 241.19262,166.30226 a 1.2387295,1.2387295 0 1 1 -2.47746,0 1.2387295,1.2387295 0 1 1 2.47746,0 z"
       transform="matrix(0.60545907,0,0,0.60545907,-16.597045,-61.116144)"
       id="path5216-7-9"
       style="fill:#000000;stroke:none" />
    <text
       x="131.0369"
       y="38.880703"
       id="text5218-6-2"
       xml:space="preserve"
       style="font-size:5px;font-style:normal;font-variant:normal;font-weight:normal;font-stretch:normal;text-indent:0;text-align:start;text-decoration:none;line-height:100%;letter-spacing:0px;word-spacing:0px;text-transform:none;direction:ltr;block-progression:tb;writing-mode:lr-tb;text-anchor:start;baseline-shift:baseline;color:#000000;fill:#000000;fill-opacity:1;fill-rule:nonzero;stroke:none;stroke-width:1px;marker:none;visibility:visible;display:inline;overflow:visible;enable-background:accumulate;font-family:Arial;-inkscape-font-specification:Arial"><tspan
         x="131.0369"
         y="38.880703"
         id="tspan5220-18-7">Tindouf</tspan></text>
    <path
       d="m 241.19262,166.30226 a 1.2387295,1.2387295 0 1 1 -2.47746,0 1.2387295,1.2387295 0 1 1 2.47746,0 z"
       transform="matrix(0.60545907,0,0,0.60545907,-122.15881,98.469742)"
       id="path5216-7-95"
       style="fill:#000000;stroke:none" />
    <text
       x="1.7406875"
       y="198.46658"
       id="text5218-6-4"
       xml:space="preserve"
       style="font-size:5px;font-style:normal;font-variant:normal;font-weight:normal;font-stretch:normal;text-indent:0;text-align:start;text-decoration:none;line-height:100%;letter-spacing:0px;word-spacing:0px;text-transform:none;direction:ltr;block-progression:tb;writing-mode:lr-tb;text-anchor:start;baseline-shift:baseline;color:#000000;fill:#000000;fill-opacity:1;fill-rule:nonzero;stroke:none;stroke-width:1px;marker:none;visibility:visible;display:inline;overflow:visible;enable-background:accumulate;font-family:Arial;-inkscape-font-specification:Arial"><tspan
         x="1.7406875"
         y="198.46658"
         id="tspan5220-18-3">St. Louis</tspan></text>
    <path
       style="opacity:0;fill:none;stroke:#ffffff;stroke-width:1;stroke-linecap:square;stroke-linejoin:miter;stroke-miterlimit:4;stroke-opacity:1;stroke-dasharray:none;stroke-dashoffset:0"
       d="m 114.68322,224.55993 c 0,0 122.49143,-6.34417 147.38013,-49.77739"
       id="path3082"
       inkscape:connector-curvature="0"
       sodipodi:nodetypes="cc" />
    <path
       style="fill:none;fill-opacity:1;fill-rule:nonzero;stroke:#ffffff;stroke-width:1;stroke-linecap:square;stroke-linejoin:miter;stroke-miterlimit:4;stroke-opacity:1;stroke-dasharray:none;stroke-dashoffset:0;opacity:0"
       d="m 192.18923,188.77285 c 0,0 21.67209,-11.88954 29.64862,1.20401"
       id="path3856"
       inkscape:connector-curvature="0" />
  </g>
  <path
     style="fill:none;stroke:#ffffff;stroke-width:1;stroke-linecap:square;stroke-linejoin:miter;stroke-miterlimit:4;stroke-opacity:1;stroke-dasharray:none;stroke-dashoffset:0;opacity:0"
     d="m 25.735599,200.8129 c 0,0 19.565074,-11.73904 34.31413,6.77253"
     id="path3862"
     inkscape:connector-curvature="0"
     sodipodi:nodetypes="cc" />
</svg>
