<?xml version="1.0" encoding="UTF-8" standalone="no"?>
<!-- Created with Inkscape (http://www.inkscape.org/) -->
<svg
   xmlns:dc="http://purl.org/dc/elements/1.1/"
   xmlns:cc="http://web.resource.org/cc/"
   xmlns:rdf="http://www.w3.org/1999/02/22-rdf-syntax-ns#"
   xmlns:svg="http://www.w3.org/2000/svg"
   xmlns="http://www.w3.org/2000/svg"
   xmlns:sodipodi="http://sodipodi.sourceforge.net/DTD/sodipodi-0.dtd"
   xmlns:inkscape="http://www.inkscape.org/namespaces/inkscape"
   width="646.38263"
   height="806.2193"
   id="svg2"
   sodipodi:version="0.32"
   inkscape:version="0.44.1"
   sodipodi:docbase="C:\Documents and Settings\Administrator\My Documents\My Pictures"
   sodipodi:docname="Mayan Language Map.svg"
   version="1.0"
   inkscape:export-filename="C:\Documents and Settings\Administrator\My Documents\My Pictures\Mayan Language Map.png"
   inkscape:export-xdpi="210"
   inkscape:export-ydpi="210">
  <defs
     id="defs4" />
  <sodipodi:namedview
     id="base"
     pagecolor="#ffffff"
     bordercolor="#666666"
     borderopacity="1.0"
     gridtolerance="10000"
     guidetolerance="10"
     objecttolerance="10"
     inkscape:pageopacity="0.0"
     inkscape:pageshadow="2"
     inkscape:zoom="1.979899"
     inkscape:cx="217.47072"
     inkscape:cy="511.70257"
     inkscape:document-units="px"
     inkscape:current-layer="layer1"
     inkscape:window-width="1024"
     inkscape:window-height="696"
     inkscape:window-x="-4"
     inkscape:window-y="-4" />
  <metadata
     id="metadata7">
    <rdf:RDF>
      <cc:Work
         rdf:about="">
        <dc:format>image/svg+xml</dc:format>
        <dc:type
           rdf:resource="http://purl.org/dc/dcmitype/StillImage" />
      </cc:Work>
    </rdf:RDF>
  </metadata>
  <g
     inkscape:label="Layer 1"
     inkscape:groupmode="layer"
     id="layer1"
     transform="translate(-2.785719,-161.6429)">
    <rect
       style="opacity:1;color:black;fill:#9ec7f3;fill-opacity:1;fill-rule:nonzero;stroke:black;stroke-width:2.99999976;stroke-linecap:butt;stroke-linejoin:miter;marker:none;marker-start:none;marker-mid:none;marker-end:none;stroke-miterlimit:4;stroke-dasharray:none;stroke-dashoffset:0;stroke-opacity:1;visibility:visible;display:inline;overflow:visible"
       id="rect3461"
       width="641.42847"
       height="800.00018"
       x="4.2857189"
       y="163.79077" />
    <g
       id="g5530"
       transform="matrix(0.986709,-0.162495,-0.138734,-0.842425,-374.0771,497.1042)">
      <g
         transform="matrix(-1.501798,0.786322,-0.786322,-1.501798,1266.694,546.5774)"
         id="g3670"
         style="opacity:1">
        <g
           id="g3672"
           transform="matrix(-0.499374,-0.866386,0.866386,-0.499374,523.4429,1035.508)">
          <g
             id="g3674">
            <path
               sodipodi:nodetypes="cccc"
               d="M 575.51123,88.40901 C 578.62264,94.780878 578.49882,99.252027 578.49882,99.252027 M 582.06964,88.794696 C 578.41227,94.731614 578.49881,99.252027 578.49881,99.252027"
               style="fill:none;fill-rule:evenodd;stroke:black;stroke-width:0.95763284;stroke-linecap:butt;stroke-linejoin:miter;stroke-miterlimit:4;stroke-opacity:1"
               id="path3676" />
          </g>
        </g>
      </g>
      <path
         sodipodi:nodetypes="cc"
         id="path3563"
         d="M 405.72567,68.380424 C 459.96964,-19.840389 412.79083,91.679143 467.06778,9.9744779"
         style="fill:none;fill-rule:evenodd;stroke:black;stroke-width:1.62338042;stroke-linecap:butt;stroke-linejoin:miter;stroke-miterlimit:4;stroke-dasharray:none;stroke-opacity:1" />
    </g>
    <rect
       style="opacity:1;color:black;fill:white;fill-opacity:1;fill-rule:nonzero;stroke:black;stroke-width:1;stroke-linecap:butt;stroke-linejoin:miter;marker:none;marker-start:none;marker-mid:none;marker-end:none;stroke-miterlimit:4;stroke-dasharray:none;stroke-dashoffset:0;stroke-opacity:1;visibility:visible;display:inline;overflow:visible"
       id="rect3947"
       width="111.11678"
       height="58.588852"
       x="76.969543"
       y="389.47882" />
    <g
       id="g2293"
       style="fill:#ffffd0;fill-opacity:1">
      <g
         style="fill:#ffffd0;fill-opacity:1"
         id="g2221" />
      <g
         id="g2299"
         style="fill:#ffffd0;fill-opacity:1">
        <path
           id="path1951"
           style="fill:#ffffd0;fill-opacity:1;fill-rule:evenodd;stroke:black;stroke-width:1px;stroke-linecap:butt;stroke-linejoin:miter;stroke-opacity:1"
           d="M 116.42857,854.50504 C 112.6573,852.24228 106.75664,851.26168 104.28571,848.79075 C 101.08544,845.59048 98.680276,845.32817 95.714286,842.36218 C 93.865143,840.51304 91.427678,838.07289 90.714286,835.21933 C 90.277021,833.47027 86.164507,827.09812 84.285714,825.21933 C 80.289635,821.22325 76.304742,816.52406 72.857143,813.07647 C 70.259051,810.47837 73.740692,804.94681 70,803.07646 C 66.805312,801.47912 63.819127,801.29795 61.428572,799.50504 C 57.5016,796.55981 55.816318,794.40299 52.142858,791.64789 C 49.229104,789.46258 44.765222,788.56593 43.571429,783.79075 C 42.35651,778.93108 32.610063,768.32207 34.850263,772.80247 C 34.686133,772.67937 34.125476,772.33022 33.84011,772.04485 C 33.166702,771.37144 32.720489,770.19498 31.819805,769.51947 C 29.157909,767.52305 30.48378,768.34638 26.769042,766.48901 C 24.43816,765.32357 24.248046,764.89545 22.98097,763.20602 C 22.025233,761.9317 21.476404,760.9545 20.708127,759.41794 C 20.291542,758.58477 19.238982,757.07628 17.930208,756.64002 C 16.444152,756.14467 13.090927,754.18514 12.879445,754.11464 C 11.685646,753.71671 10.611651,752.72821 9.3439111,752.09434 C 7.530268,751.18752 6.5659916,751.08531 6.5659916,748.81134 C 6.5659916,746.37533 4.0345709,748.50732 4.0406102,746.5385 L 4.7982246,499.5562 L 8.3337585,496.27321 C 10.152984,495.8184 9.1486691,495.53894 9.5964492,493.74782 C 9.9079288,492.50191 9.8385806,491.28298 11.616754,491.72752 C 12.41064,491.92599 13.396661,491.98006 14.89975,491.98006 C 16.388081,491.98006 17.959018,491.35591 19.445437,491.72752 C 20.340354,491.95125 21.886109,492.04751 23.486047,491.72752 C 24.90015,491.4447 26.663047,491.47498 28.284271,491.47498 C 29.879977,491.47498 31.30806,491.98006 32.829958,491.98006 C 34.324598,491.98006 35.581388,491.72752 37.123106,491.72752 C 37.646612,491.72752 40.905818,491.201 40.911178,491.22244 C 41.114127,492.03424 40.538806,491.56907 40.153564,493.49529 C 39.972333,494.40144 39.568966,496.44622 40.153564,497.03082 C 40.653585,497.53084 41.670095,498.79826 42.678945,498.54605 C 43.481733,498.34535 45.204326,498.14584 45.204326,499.5562 C 45.204326,501.36797 44.025983,502.24927 44.446712,500.56635 C 44.852569,498.94293 44.72522,498.52008 45.961941,497.28336 C 46.514854,496.73044 47.582299,494.41602 48.234784,494.2529 C 50.138141,493.77706 49.751713,492.23226 47.224632,492.73767 C 45.718333,493.03893 42.980205,495.00159 42.678945,493.49529 C 42.456767,492.3844 42.644164,491.78196 44.446712,492.2326 C 45.427419,492.47777 47.423339,493.19307 48.234784,492.99021 C 49.770528,492.60627 50.042272,493.24275 51.770318,493.24275 C 53.354071,493.24275 55.083684,493.49529 56.568543,493.49529 C 58.018333,493.49529 59.030127,493.52718 60.104077,492.99021 C 60.440794,492.82185 60.764693,492.62495 61.114229,492.48513 C 62.17117,492.06236 64.687293,492.01504 65.407377,491.47498 C 66.749187,490.46862 69.798806,491.58694 70.205602,489.95975 C 70.647882,488.19063 71.488499,488.92939 72.983521,487.43437 C 74.353162,487.09196 75.743823,487.70453 76.519055,486.92929 C 77.775973,485.67238 80.883561,484.00866 81.822356,482.13107 C 82.315042,481.1457 83.337585,480.11034 83.337585,479.10061 C 83.337585,477.51896 82.991572,475.56508 84.852814,475.56508 C 86.45795,475.56508 86.79168,476.82777 87.883272,476.82777 C 88.971211,476.82777 90.587293,477.62233 91.671344,477.08031 C 93.065616,476.38317 93.275457,475.62468 94.701801,474.55493 C 96.255367,473.38975 98.477971,473.54477 100.51018,473.54477 C 102.18099,473.54477 103.23126,473.36958 104.55079,473.0397 C 106.42376,472.57145 106.78643,470.96556 108.5914,470.51432 C 109.9616,470.17177 111.63781,469.7567 113.13709,469.7567 C 114.98903,469.7567 116.84098,469.7567 118.69292,469.7567 C 120.58666,469.7567 121.45697,469.911 123.49115,469.50416 C 124.94119,469.21415 126.72658,468.71239 128.03684,468.49401 C 129.88717,468.18562 132.10482,468.13498 134.09775,467.7364 C 135.27248,467.50145 138.05635,467.7774 139.14851,467.23132 C 139.80068,466.90523 141.77083,465.71609 142.68405,465.71609 C 144.1151,465.71609 145.54615,465.71609 146.9772,465.71609 C 148.29439,465.71609 149.30899,466.22117 150.26019,466.22117 C 151.46248,466.22117 152.17513,466.66993 152.78557,467.48386 C 153.4035,468.30777 153.47635,469.11796 154.04826,470.26178 C 154.82287,471.811 155.43114,471.39211 156.32111,472.28208 C 157.08463,473.04561 158.12018,474.0655 159.09903,474.55493 C 159.55699,474.78391 162.47364,475.97854 161.37187,477.08031 C 160.58812,477.86406 159.6781,478.19823 158.08887,478.59554 C 157.01987,478.86279 155.60011,479.81504 154.55334,479.60569 C 153.17185,479.32939 152.18712,479.28737 153.03811,477.58538 C 153.54459,476.57243 156.32391,475.56648 155.31095,475.06 C 154.40276,474.60591 152.32425,473.75356 151.01781,475.06 C 150.28977,475.78804 148.20628,476.45168 147.73481,477.08031 C 147.49785,477.39625 145.29865,478.99626 145.20943,479.35315 C 144.88974,480.6319 144.75226,481.64995 146.21958,482.38361 C 146.72877,482.6382 149.09369,483.89884 149.75512,483.89884 C 151.74289,483.89884 151.40778,483.16357 150.76527,481.87853 C 150.22626,480.80051 148.83837,478.05068 150.00765,478.343 C 151.14888,478.6283 151.96656,478.53414 152.78557,479.35315 C 153.58848,480.15605 154.57992,480.64242 155.56349,481.62599 C 155.81469,481.87719 158.37439,483.51438 158.34141,483.6463 C 158.10863,484.57743 155.10878,485.41407 156.06857,485.41407 C 157.51371,485.41407 159.4658,485.31635 160.86679,485.6666 C 161.53101,485.83266 163.07234,485.8855 164.14979,486.42422 C 164.70368,486.70116 165.94603,487.75716 166.67517,487.93945 C 167.58386,488.16662 170.19733,487.88091 170.71578,488.19199 C 171.90987,488.90844 172.94195,489.74153 174.25131,489.95975 C 175.79666,490.21731 176.99558,490.39328 178.29192,490.71737 C 179.39268,490.99256 181.52992,491.22244 182.83761,491.22244 C 184.37658,491.22244 185.12338,491.47498 186.62568,491.47498 C 187.61653,491.47498 189.7339,491.84382 189.90868,490.9699 C 194.6868,495.6039 190.37548,485.95395 198.24244,484.15138 C 199.82463,484.15138 200.64959,482.13107 200.76782,482.13107 C 202.12606,482.13107 203.58186,481.87131 204.80843,481.62599 C 206.13433,481.36081 207.04741,481.19252 208.34396,480.86838 C 208.84075,480.74418 210.61681,479.56764 210.61681,479.35315 C 210.61681,478.94455 210.37359,475.68669 210.61681,475.56508 C 211.2762,475.23538 212.73207,474.76807 213.8998,475.06 C 215.42598,475.44155 215.98952,476.50582 216.67772,475.81762 C 217.56552,474.92982 217.84111,474.35633 217.43534,473.54477 C 216.86193,472.39795 213.8998,473.31172 213.8998,472.02954 C 214.23652,471.94537 214.90995,472.12409 214.90995,471.77701 C 214.90995,470.83888 214.50547,468.64596 215.16249,467.98893 C 215.85088,467.30055 218.09797,467.04135 217.1828,465.21102 C 216.72948,464.30438 217.91365,462.4264 216.93026,462.18056 C 216.29243,462.0211 215.41503,461.57533 215.41503,460.91787 C 215.41503,459.82166 214.46645,457.71496 212.88965,458.89756 C 212.00548,459.56069 211.48751,461.1704 210.11173,461.1704 C 209.04673,461.1704 207.19194,461.38747 206.32366,461.1704 C 205.33304,460.92275 202.43628,459.45656 202.28305,459.1501 C 202.04341,458.67083 201.2254,456.67222 202.03051,455.8671 C 203.63992,453.52734 203.38259,448.9959 201.02036,453.8468 C 201.02036,455.47035 200.73572,456.13248 199.50513,456.62472 C 196.95431,457.84125 192.73961,458.31238 190.91883,458.39249 C 191.31331,457.86652 192.18988,457.74023 192.43406,457.12979 C 192.95376,455.83055 193.20642,454.79797 193.69675,452.83665 C 194.21122,450.77875 196.29767,450.9178 196.72721,450.05873 C 196.93347,449.6462 197.24757,447.52952 198.24244,447.28081 C 199.18567,447.045 200.94336,446.56708 201.77797,446.77573 C 202.22343,446.8871 205.3925,446.94928 206.07112,446.27065 C 207.29329,445.04848 207.99123,444.87648 209.85919,444.50289 C 211.71605,444.13152 213.21201,441.97751 215.16249,441.97751 C 216.46595,441.97751 217.49184,439.37487 218.19295,439.19959 C 219.01668,438.99365 220.51556,438.89728 221.22341,438.18943 C 221.87635,437.53649 224.1542,437.27895 224.75894,436.67421 C 227.66664,434.72956 230.10305,432.60646 233.34524,431.11837 C 236.04507,430.21842 234.83026,429.63335 236.3757,428.08791 C 236.92246,427.54115 238.53824,427.0422 239.40615,426.82522 C 242.77954,425.3727 244.29241,422.03305 246.72976,420.00669 C 248.41753,419.58475 247.48779,418.49146 249.50768,418.49146 C 251.03892,418.49146 251.78052,418.09778 251.78052,416.47115 C 251.78052,414.08269 251.70443,414.74143 253.29575,413.94577 C 254.01577,412.04923 254.90927,410.65722 256.07367,409.14755 C 257.92955,408.68358 256.57037,406.67603 257.33636,406.36963 C 257.69905,406.22455 260.3437,405.16473 260.36682,405.10694 C 260.66565,404.35986 262.11029,403.43634 262.38712,402.32902 C 262.74926,399.38542 262.25328,396.82082 264.40743,394.50034 C 265.41398,393.49379 265.16504,392.20656 265.16504,390.45973 C 265.16504,389.1093 264.72845,387.70319 264.40743,386.41912 C 264.28311,385.92183 263.22476,382.8867 263.90235,382.37851 C 267.10713,380.25475 266.37515,378.30339 264.91251,375.81251 C 264.91251,374.06166 264.84502,373.60715 265.92266,372.52952 C 266.87875,371.57343 268.1955,371.99392 268.1955,370.00414 C 268.1955,368.79922 268.48716,367.13016 268.1955,365.96353 C 267.63318,363.71426 268.30016,364.01716 269.96327,363.18561 C 270.70634,362.81407 272.19964,362.21192 272.74119,361.67038 C 274.008,360.40356 275.29247,360.12925 276.27672,359.145 C 277.00666,358.41506 277.14045,356.84562 278.04449,356.61962 C 279.87699,356.16149 280.52306,357.21832 281.32748,355.60946 C 281.62855,355.00733 283.29635,353.34127 283.34779,353.08408 C 283.62059,351.72006 284.30482,350.86436 285.11556,350.05362 C 285.82829,349.34089 286.88332,349.5135 286.88332,348.03332 C 286.88332,346.77063 286.88332,345.50794 286.88332,344.24525 C 286.88332,343.26765 284.29574,342.05109 285.62063,341.71987 C 286.70504,341.44877 287.76197,342.9616 287.3884,341.46733 C 287.18518,340.65444 287.52069,338.31662 286.88332,337.67926 C 286.4368,337.23273 284.04714,335.89202 284.35794,334.6488 C 284.65405,333.46438 285.36809,333.04377 285.36809,331.61834 C 285.36809,330.95356 285.5701,328.19644 285.11556,328.08281 C 283.73245,327.73703 283.93272,326.88701 283.60033,325.55743 C 283.04114,323.32066 285.11556,324.34239 285.11556,323.28458 C 285.11556,321.84859 285.51394,319.97345 285.36809,319.24397 C 285.48349,318.14052 285.59889,317.03706 285.71429,315.93361 C 286.14995,311.76777 284.96503,308.93063 285.71429,305.93361 C 286.62731,302.28151 283.57143,300.15974 283.57143,295.93361 C 283.57143,291.82271 287.52182,286.8569 289.28571,284.50504 C 290.83203,282.44328 288.99717,278.21366 287.85714,275.93361 C 286.12573,272.47079 286.07993,270.56796 288.57143,268.07647 C 292.14024,264.50765 294.28571,263.85876 294.28571,258.07647 C 294.28571,253.26592 298.35813,251.46685 300,247.36218 C 302.0477,242.24293 300.04739,243.02908 303.57143,239.50504 C 305.59183,237.48464 311.47091,236.26958 313.57143,235.21932 C 317.04503,233.48253 323.14053,232.96874 317.85714,231.6479 C 314.24164,230.74402 324.52381,228.31456 327.85714,226.6479 C 331.73009,224.71142 335.49129,223.90225 338.57143,222.36218 C 341.40637,220.94471 346.17971,220.10297 348.57143,219.50504 C 352.35831,218.55832 356.01757,217.46493 359.28571,216.6479 C 362.66544,215.80296 367.17461,215.07012 370,214.50504 C 374.80675,213.54369 380.85285,214.50504 385.71429,214.50504 C 390.48872,214.50504 392.39333,212.83528 397.14286,211.6479 C 401.33641,210.59951 404.50892,210.31754 408.57143,209.50504 C 413.4976,208.5198 416.35427,207.3919 420,205.93361 C 423.75896,204.43003 430.94502,205.93361 435,205.93361 C 438.94704,205.93361 441.93668,203.12801 445,202.36218 C 448.88553,201.3908 450.59568,198.55089 451.42857,195.21932 C 452.02311,192.84117 455.6646,192.74417 457.85714,191.6479 C 461.71011,189.72142 468.65964,190.55441 472.85714,189.50504 C 480.90683,187.49262 480.26263,187.88744 482.85714,193.07647 C 483.17213,193.70643 492.85714,191.32312 492.85714,187.36218 C 492.85714,185.04019 498.63222,183.79075 500.71429,183.79075 C 503.95273,183.79075 506.85825,185.86246 510,186.6479 C 516.25839,188.21249 506.80453,190.93361 516.42857,190.93361 C 520.65567,190.93361 523.51927,191.6479 527.14286,191.6479 C 527.25777,191.6479 533.94607,196.6479 537.85714,196.6479 C 542.39869,196.6479 544.5411,196.22691 548.57143,195.21932 C 552.49945,194.23732 557.56265,193.71713 560.71429,194.50504 C 565.34666,195.66313 569.24958,194.57732 570.71429,191.6479 C 572.84102,187.39443 574.13606,190.06967 576.42857,192.36218 C 577.55282,193.48643 588.37419,190.68734 590.71429,190.21932 C 595.07881,189.34642 594.48608,187.36218 598.57143,187.36218 C 600.02598,187.36218 603.4247,192.92974 604.28571,193.79075 C 607.58076,197.0858 608.03185,198.07647 612.14286,198.07647 C 616.7327,198.07647 617.14286,199.40256 617.14286,203.79075 C 617.14286,203.96039 620.71429,207.68106 620.71429,211.6479 C 620.71429,216.09425 619.28571,217.45294 619.28571,221.6479 C 619.28571,225.48307 620.25844,227.62062 622.14286,229.50504 C 622.81374,230.17592 623.57143,231.86703 623.57143,238.07647 C 623.57143,240.97302 617.04817,238.69607 615,236.6479 C 612.96316,234.61106 614.28571,244.63364 614.28571,245.93361 C 614.28571,250.22922 613.57143,254.07807 613.57143,258.07647 C 613.57143,263.98742 609.28571,263.95183 609.28571,270.21932 C 609.28571,274.24232 605.22078,274.38166 602.85714,273.79075 C 599.71539,273.00531 598.14175,278.7196 595,279.50504 C 589.00826,281.00297 592.85607,284.50531 587.14286,285.93361 C 585.64351,286.30845 583.65453,293.03492 582.14286,293.79075 C 576.81701,296.45368 579.35915,303.41525 572.14286,305.21932 C 570.60896,305.6028 571.42857,313.75349 571.42857,315.21932 C 571.42857,318.60977 566.60383,319.50504 563.57143,319.50504 C 560.53903,319.50504 564.74373,318.99143 564.67527,318.99143 C 564.60681,318.99143 563.22092,321.85654 562.90751,322.27443 C 562.29,323.09778 562.64959,325.07387 562.40243,326.0625 C 562.11407,327.21593 560.20256,327.53837 559.87705,328.84042 C 559.60174,329.94165 559.87705,331.48665 559.87705,332.62849 C 559.87705,333.68326 558.1224,331.36908 557.09913,331.11326 C 556.03193,330.84646 558.00604,333.47821 558.10928,333.89118 C 558.39688,335.04157 558.08496,336.51387 557.85674,337.42672 C 557.54893,338.65799 557.60421,339.90681 557.60421,341.21479 C 557.60421,343.12395 558.84324,341.81449 559.11943,340.70971 C 559.36922,339.71059 558.58025,338.26634 558.36182,337.17418 C 558.11894,335.95979 559.47873,336.6404 559.11943,338.43687 C 558.84316,339.81823 560.3588,341.05555 559.87705,342.98256 C 559.48459,344.55238 559.81983,345.39349 560.38213,346.51809 C 560.89211,347.53807 562.28463,347.54518 562.90751,348.79093 C 563.50147,349.97886 563.80084,350.52089 563.41258,352.07393 C 563.12388,353.22873 563.16004,354.6839 563.16004,355.862 C 563.16004,358.07667 563.29433,358.13485 561.13974,358.13485 C 560.6543,358.13485 559.96954,361.04786 559.87705,361.41784 C 559.46079,363.08289 558.33981,361.83487 558.10928,360.91276 C 557.83966,359.83429 559.24913,358.38052 559.62451,357.62977 C 560.32771,356.22337 560.59377,355.66399 561.39228,354.59931 C 561.96687,353.83319 561.64482,352.05488 561.64482,351.06378 C 561.64482,349.31729 560.71039,349.25814 559.62451,349.80109 C 558.62161,350.30254 559.17993,353.32608 559.37197,354.09423 C 559.74553,355.58845 559.49182,356.61962 558.10928,356.61962 C 557.61882,356.61962 556.29115,358.18521 555.83644,358.63992 C 554.58299,359.89337 555.74083,360.11592 553.5636,360.66023 C 553.27557,360.73223 551.22875,363.05708 551.03821,363.43815 C 550.65159,364.2114 549.05848,364.70084 548.00776,364.70084 C 547.86915,364.70084 547.82569,368.66069 546.49253,368.99398 C 545.27591,369.29814 544.72476,371.02043 544.72476,372.52952 C 544.72476,374.17839 543.97383,374.50302 543.71461,376.31759 C 543.58563,377.22044 542.21417,378.05578 541.6943,379.09551 C 541.0005,380.48312 540.43161,380.03352 540.43161,378.08536 C 540.43161,376.46809 541.44176,376.03617 541.44176,374.54982 C 541.44176,372.79886 541.68552,373.02581 540.68415,372.02444 C 539.47562,370.81591 538.19171,374.21494 538.15877,374.29729 C 537.81329,375.16098 535.19317,373.06702 535.12831,373.0346 C 534.92408,372.93248 534.87577,376.41205 534.87577,376.82267 C 534.87577,378.4866 534.87577,380.53355 534.87577,381.87343 C 534.87577,383.39153 537.68314,383.13612 538.66385,383.13612 C 538.92137,383.13612 539.90215,384.90389 540.93669,384.90389 C 542.31843,384.90389 542.95699,382.58848 542.95699,385.15643 C 542.95699,385.82983 542.17513,387.77881 541.94684,388.69196 C 541.41165,390.83273 543.37796,389.09598 544.47222,388.43942 C 544.51598,388.41317 545.47725,385.91917 545.73491,385.6615 C 546.03253,385.36388 546.23999,384.98807 546.49253,384.65135 C 547.27689,383.60554 549.43387,383.68576 550.53314,383.13612 C 550.67101,383.06718 551.34351,384.62497 552.80598,383.89374 C 553.45367,383.56989 553.92606,384.83258 554.57375,385.15643 C 555.90793,385.82352 557.48192,384.44772 558.8669,383.89374 C 559.64063,383.58424 556.72645,382.87132 557.09913,382.12597 C 557.79329,380.73765 560.25649,381.80998 561.64482,381.11582 C 561.94518,380.96563 560.5394,378.3999 560.38213,378.08536 C 560.02498,377.37107 562.65497,378.04438 562.65497,378.84297 C 562.65497,379.48771 564.31565,380.75619 564.67527,381.11582 C 565.87759,382.31813 566.10196,382.02434 566.44304,383.38866 C 566.48308,383.54881 564.85705,384.93438 564.67527,385.6615 C 564.36687,386.89513 564.42274,388.93329 564.42274,390.45973 C 564.42274,391.5428 562.65521,390.96384 562.40243,391.97496 C 562.18015,392.86408 560.56058,393.06676 559.87705,393.23765 C 559.78648,393.26029 558.20835,395.20842 557.60421,395.51049 C 555.64457,396.49031 556.3141,398.0907 555.33136,400.05618 C 554.82977,401.05937 552.71024,400.73539 551.54329,401.31887 C 549.75767,402.21167 552.38487,398.59736 552.80598,398.03587 C 553.84017,396.65695 553.94878,396.20178 552.3009,397.02572 C 550.88142,397.73546 550.6508,398.19586 549.27045,398.54095 C 548.09074,398.83587 547.82118,400.16595 546.23999,400.56125 C 545.12087,400.84103 543.73341,401.99924 542.95699,402.58156 C 542.18255,403.16239 542.70222,405.60305 542.70446,405.61201 C 543.01191,406.84184 542.95699,408.26814 542.95699,409.65262 C 542.95699,410.49442 542.95699,411.33621 542.95699,412.17801 C 542.95699,413.25603 540.69307,413.15248 540.43161,414.19831 C 540.10782,415.4935 538.99776,415.73389 540.93669,416.21862 C 542.19764,416.53386 542.38819,417.65478 543.71461,417.98638 C 545.14386,418.3437 545.32002,418.82518 546.49253,418.23892 C 547.02492,417.97272 546.32417,416.89205 546.74507,416.47115 C 547.92243,415.29379 548.05479,415.77796 548.51283,413.94577 C 548.9219,412.30952 546.39666,413.99371 545.98745,414.19831 C 544.48529,414.94939 544.58412,415.82544 543.46207,414.70339 C 542.52092,413.76223 545.55459,413.02578 546.74507,412.43054 C 548.51085,411.54765 548.41913,411.26156 549.77552,409.90516 C 550.59962,409.08106 552.07759,408.62056 553.05852,407.88486 C 553.98446,407.1904 555.04961,407.13455 556.08898,406.87471 C 556.61189,406.74398 556.97053,407.50372 557.35167,407.88486 C 558.15026,408.68345 555.56252,409.81965 555.83644,410.91532 C 556.28802,412.72165 556.94411,409.76763 557.09913,409.14755 C 557.45058,407.74177 559.16855,407.43064 560.38213,407.12724 C 562.09043,406.70017 560.66651,409.13163 560.12959,409.40009 C 559.27808,409.82584 558.55851,411.3265 558.10928,411.92547 C 557.52869,412.69959 556.24618,413.2835 555.5839,413.94577 C 554.77675,414.75293 553.78647,415.01525 553.05852,416.47115 C 552.40503,417.77814 552.3009,418.47363 552.3009,420.25923 C 552.3009,421.57754 552.1019,423.58063 551.79583,424.80491 C 551.36357,426.53396 551.54329,428.50135 551.54329,430.36075 C 551.54329,432.01915 550.85042,432.56885 550.02806,433.39121 C 548.64306,434.77621 547.49458,436.20155 546.9976,438.18943 C 546.67085,439.49646 546.74507,440.84211 546.74507,442.23004 C 546.74507,443.32618 545.73773,445.5074 545.73491,445.51304 C 545.34541,446.29205 545.73491,448.44782 545.73491,449.30111 C 545.73491,449.68647 544.47222,451.90434 544.47222,453.34172 C 544.47222,455.05717 544.23672,455.36203 542.45192,455.36203 C 541.99771,455.36203 542.45192,458.85859 542.45192,459.40264 C 542.45192,461.2519 542.54763,462.79887 540.93669,463.44325 C 540.44111,463.64148 538.56986,466.09203 538.41131,466.72624 C 537.98604,468.42733 538.73237,469.23449 536.64354,469.7567 C 536.22712,469.86081 536.47518,470.5985 536.391,471.01939 C 536.23427,471.05857 535.88593,474.75939 535.88593,475.31254 C 535.88593,476.80613 535.97235,478.01077 536.391,478.84807 C 536.86573,479.79753 536.89608,481.36096 536.89608,482.38361 C 536.89608,484.0748 536.40871,484.63874 535.63339,485.41407 C 534.86342,486.18403 535.81901,488.27113 536.13846,488.69706 C 537.30452,490.2518 535.30268,491.64034 534.62324,491.98006 C 533.0446,492.76937 533.282,493.55692 532.85547,495.26305 C 532.56315,496.43233 532.39017,497.62931 532.09785,498.79859 C 531.27665,502.08341 530.10929,501.76556 528.81486,504.35443 C 527.27385,507.43645 527.29963,505.73101 527.29963,510.41534 C 527.29963,511.85514 527.33925,513.03479 527.04709,514.20341 C 526.68856,515.63753 526.03694,515.67607 526.03694,517.48641 C 526.03694,519.00375 525.96199,517.664 525.27932,516.98133 C 524.27878,515.98078 523.77377,515.25228 523.51156,514.20341 C 523.27259,513.24754 521.17427,514.07454 520.73364,513.19326 C 520.44782,512.62162 521.80286,510.17907 521.99633,509.40519 C 522.2622,508.34169 520.73642,507.39599 520.4811,506.37473 C 520.12119,504.93508 520.5511,503.77935 521.23871,503.09174 C 522.4125,501.91795 521.24265,500.82283 520.73364,500.31382 C 519.62449,499.20467 519.40509,500.05039 518.96587,498.29351 C 518.65527,497.0511 517.2783,497.68432 516.94557,496.02067 C 516.73598,494.97273 516.92476,493.19521 518.20826,492.2326 C 518.9065,491.70891 514.87866,491.22244 514.42018,491.22244 C 512.7825,491.22244 511.89962,491.03424 510.63211,490.71737 C 509.23274,490.36752 508.39134,489.22138 507.09658,488.44452 C 505.95558,487.75993 504.78983,487.66996 503.81358,487.18183 C 502.39554,486.47281 503.43356,484.53139 504.06612,483.89884 C 505.34582,482.61914 504.70227,482.03517 506.33896,481.62599 C 507.13612,481.4267 507.4633,479.14895 507.60165,478.59554 C 507.67159,478.31581 505.94916,478.44595 508.10673,476.82777 C 508.67071,476.40478 508.90001,474.15973 509.11688,473.29224 C 509.34224,472.39082 509.56894,471.23148 509.8745,470.00924 C 510.16966,468.82861 510.12704,467.45146 510.12704,466.22117 C 510.12704,463.92496 509.8745,465.98267 509.8745,463.19071 C 509.8745,461.50834 509.36942,460.88918 509.36942,459.40264 C 509.36942,457.87454 509.91044,457.41827 508.86435,456.37218 C 508.19423,455.70206 507.65983,454.46822 507.34912,453.8468 C 507.08292,453.3144 507.09658,452.67427 507.09658,452.07903 C 506.12928,450.14444 505.32881,454.03856 505.32881,454.60441 C 505.32881,456.25612 505.68975,457.5357 504.06612,457.12979 C 501.96322,456.60407 503.06694,456.09769 501.79328,458.64502 C 501.12434,459.9829 499.87175,461.53292 499.52043,462.93817 C 499.22506,464.11967 499.08346,465.44367 498.76282,466.72624 C 498.5875,467.42751 495.97366,465.83674 498.25774,466.97878 C 498.65054,467.17518 496.16003,469.65899 495.9849,470.00924 C 495.34216,471.29472 495.31982,472.69463 494.46967,473.54477 C 493.35503,474.65942 492.33047,475.28306 491.94429,476.82777 C 491.48476,478.66588 491.8777,479.26018 490.17652,480.11077 C 489.40296,480.49755 488.13059,483.44501 487.65114,484.40391 C 486.88104,485.94412 485.88337,486.57407 485.88337,488.44452 C 485.88337,490.00647 484.11561,487.24997 484.11561,490.21229 C 484.11561,492.23813 484.694,492.06967 482.85292,492.99021 C 482.06718,493.38308 480.43657,494.64894 479.82246,495.26305 C 478.96398,496.12153 476.90107,496.73465 475.52931,497.28336 C 474.39814,497.73583 476.35622,500.47473 476.53946,500.56635 C 477.94604,501.26964 479.5595,499.68508 481.08515,499.30366 C 483.96996,498.58246 481.37109,500.78549 480.58007,501.57651 C 479.83356,502.32303 479.7048,504.47209 481.33769,502.8392 C 482.87924,501.29764 484.61981,501.32397 486.89353,501.32397 C 489.42793,501.32397 491.9576,500.31382 494.46967,500.31382 C 496.41861,500.31382 492.52406,501.32397 495.73236,501.32397 C 498.25847,501.32397 497.86122,500.06128 500.02551,500.06128 C 501.46302,500.06128 502.73806,499.47672 504.06612,499.80874 C 505.80458,500.24336 502.66122,501.73833 502.29835,501.82904 C 501.51301,502.02538 502.97684,504.54299 503.05597,504.8595 C 503.1551,505.25602 502.02316,505.70775 501.79328,506.62727 C 501.48578,507.85727 501.79328,509.66017 501.79328,510.92042 C 501.79328,512.08611 502.64664,512.81585 503.30851,513.69834 C 503.98954,514.60639 503.25291,518.5267 503.56104,519.75925 C 503.81356,520.76931 502.55089,522.5183 502.55089,524.0524 C 502.55089,525.64244 501.5885,527.04884 501.2882,528.85063 C 501.10093,529.97426 499.56779,529.84894 498.51028,530.11332 C 498.46804,530.12388 498.51028,531.47605 498.51028,531.62854 C 499.10552,530.43806 496.56025,533.62029 496.23744,534.91154 C 496.01331,535.80807 495.22729,536.05471 495.22729,537.942 C 495.22729,539.88525 495.38762,541.06466 494.46967,541.98261 C 493.20074,543.25154 492.44937,542.48747 492.44937,544.50799 C 492.44937,545.69756 494.11355,545.51814 491.18668,545.51814 C 490.07947,545.51814 490.6176,549.06968 491.69175,548.80114 C 492.85379,548.51063 492.44937,549.06031 492.44937,550.82144 C 492.44937,552.62019 491.94429,553.1384 491.94429,555.11459 C 491.94429,557.32954 491.62186,556.84741 490.6816,556.37728 C 489.35464,555.7138 487.50209,560.03291 487.14607,560.92297 C 486.50115,562.53526 486.68511,562.04836 488.15622,561.68058 C 489.36857,561.37749 489.90357,560.24702 490.17652,559.1552 C 490.69068,557.09857 491.31581,559.67173 491.43921,560.16535 C 491.95963,562.24703 490.17652,561.02484 490.17652,562.94327 C 490.17652,564.46016 489.80619,565.58645 489.16637,566.22627 C 488.09013,567.30251 487.36877,567.93836 486.13591,568.24657 C 484.35816,568.69101 484.61061,570.9741 484.87322,572.28718 C 484.99007,572.87142 485.3783,574.50721 485.3783,575.82272 C 485.3783,577.72654 485.7338,576.83287 487.65114,576.83287 C 488.02097,576.83287 489.10548,579.11468 489.16637,579.35825 C 489.43491,580.4324 491.34216,579.86333 492.44937,579.86333 C 493.38291,579.86333 494.94312,580.35259 495.47982,580.62094 C 497.00084,581.38145 494.91748,583.4275 494.46967,583.6514 C 493.57509,584.09869 492.00205,584.15648 491.18668,584.15648 C 489.20605,584.15648 489.41891,585.93389 489.41891,587.94455 C 489.41891,589.647 489.50899,591.37231 489.16637,592.74277 C 488.9899,593.44866 487.55454,594.3868 486.89353,595.26816 C 485.84457,596.66676 488.16924,598.2921 486.13591,599.30877 C 485.2258,599.76382 485.6174,602.39296 485.3783,603.34938 C 485.04716,604.67395 485.3783,606.52823 485.3783,607.89506 C 485.3783,609.39983 485.3783,610.17016 485.3783,611.68313 C 485.3783,612.27239 485.3783,612.86165 485.3783,613.4509 C 485.3783,614.94415 485.10946,616.41617 485.3783,617.49151 C 485.86151,619.42438 486.79096,618.74642 487.14607,620.52197 C 487.51618,622.37252 486.57412,622.58869 488.40876,623.04735 C 489.78267,623.39083 489.41891,624.83097 489.41891,626.33035 C 489.41891,627.4355 489.92399,628.48444 489.92399,630.11842 C 489.92399,630.99572 492.7019,631.6884 492.7019,633.65395 C 492.7019,634.55106 490.42283,635.42795 489.92399,635.9268 C 488.60241,637.24837 488.15622,637.26344 488.15622,639.20979 C 488.15622,640.75018 487.65114,641.6652 487.65114,643.2504 C 487.65114,645.09983 488.40876,646.63555 488.40876,648.5537 C 488.40876,650.63509 487.3555,649.95344 485.88337,650.32147 C 484.24907,650.73005 484.36815,651.23797 484.36815,653.09939 C 484.36815,654.61462 484.36815,656.12985 484.36815,657.64508 C 484.36815,659.52036 484.3155,659.81797 483.10546,660.42299 C 482.50695,660.72225 482.85292,663.31754 482.85292,663.95853 C 482.85292,665.22122 481.04903,665.81661 480.58007,666.98899 C 479.98368,668.47998 478.51175,668.94885 478.05469,670.77706 C 477.61143,672.55012 477.13479,674.1139 476.792,675.82782 C 476.53774,677.09913 474.96223,679.35886 474.51916,681.13112 C 473.9506,683.40534 474.47076,683.40397 472.24632,683.40397 C 471.01266,683.40397 471.4887,685.49236 471.4887,685.92935 C 471.42325,688.83113 467.6754,687.47467 467.44809,690.98011 C 467.10067,691.67496 465.85021,693.41825 465.42779,694.2631 C 465.07758,694.96352 465.17525,697.23666 465.17525,695.27326 C 464.36474,696.89427 463.40748,695.5692 463.40748,698.55625 C 463.40748,698.56261 460.51605,699.21598 460.12448,699.31387 C 459.33589,699.51102 460.78356,702.24579 458.86179,700.32402 C 458.27093,699.73316 458.14543,697.37606 457.85164,696.78849 C 457.33611,695.75742 455.5788,695.71825 455.5788,697.29356 C 455.5788,697.95006 456.84149,698.81265 456.84149,700.32402 C 456.84149,700.98141 454.05971,699.24977 453.30596,699.06133 C 452.84944,698.9472 451.61094,697.11377 451.28565,696.78849 C 449.91076,695.4136 449.97775,694.54214 450.52804,697.29356 C 450.76553,698.48101 450.78057,699.82928 450.78057,700.8291 C 450.38982,703.76961 447.40558,701.32984 444.9722,702.59686 C 443.93382,702.85646 443.12689,703.68456 442.69935,704.11209 C 441.89622,704.91522 442.55946,707.84566 442.69935,708.40524 C 443.00885,709.64321 443.16632,711.08307 442.95189,711.94077 C 442.70019,712.94758 440.81434,713.76717 439.92143,714.21362 C 438.59303,714.87782 439.99857,716.78285 438.15367,717.24408 C 435.64404,717.98488 432.57703,718.53498 433.60798,721.78976 C 433.99193,723.32555 432.49936,723.60676 431.58768,724.06261 C 430.66251,724.52519 429.05142,724.31514 427.7996,724.31514 C 426.90091,724.31514 425.90883,725.82385 425.52676,726.58799 C 424.89429,727.85293 425.71993,730.64364 426.03184,731.89129 C 426.30931,733.00117 426.28916,734.1737 426.78945,735.17428 C 427.2727,736.14078 428.60018,735.9319 429.81991,735.9319 C 431.9146,736.93094 433.31242,738.59415 436.13336,737.9522 C 437.83931,737.9522 440.02917,738.81755 440.93159,739.71997 C 441.73782,740.5262 441.51262,742.13807 442.95189,742.49789 C 444.66603,742.92642 446.73996,742.71358 446.73996,744.51819 C 447.70083,747.46769 450.2121,747.47445 453.05342,747.54865 C 454.89001,747.91597 455.55147,747.15289 455.07372,749.06388 C 454.65914,750.72222 454.29155,750.73554 452.54834,751.08419 C 451.76032,751.24179 452.49192,754.64656 452.54834,754.87226 C 452.86955,756.1571 453.68922,754.80689 454.56865,754.36718 C 455.82959,753.73671 456.48034,752.96057 457.34657,752.09434 C 458.12258,751.31832 457.34657,749.26711 457.34657,748.30627 C 457.34657,747.31536 459.07385,745.69029 459.36687,744.51819 C 459.69923,743.18875 460.37702,742.87837 460.37702,740.98266 C 460.37702,738.61999 462.8689,740.46921 463.91256,740.73012 C 465.06762,741.01889 466.63179,739.67151 467.44809,739.46743 C 467.50641,739.45285 464.48049,738.09418 463.91256,737.9522 C 462.2995,737.54894 461.96025,737.83566 461.13464,736.18444 C 460.7692,735.45357 460.06706,734.26169 459.36687,733.91159 C 458.42002,733.43817 456.86794,732.61426 456.08387,732.14383 C 455.05598,731.52709 454.82118,730.38715 454.82118,729.11337 C 454.82118,727.97194 457.71217,727.85068 458.60926,727.85068 C 459.5622,727.85068 461.74645,730.29789 461.89226,730.88113 C 462.37694,732.81988 461.70961,731.77667 463.91256,732.14383 C 465.85917,732.46826 464.00494,734.20313 464.92271,735.42682 C 465.48064,736.17073 468.238,736.90446 468.96332,737.19459 C 470.28591,737.72363 471.12285,738.70982 472.75139,738.70982 C 473.84896,738.70982 474.46452,740.21139 475.52931,740.47758 C 476.38033,740.69034 477.46258,742.3281 478.30723,742.75043 C 479.40418,743.2989 480.56623,743.2555 482.0953,743.2555 C 483.97219,743.2555 483.86307,744.36183 483.86307,746.03342 C 483.86307,747.09204 485.83853,748.14637 486.38845,748.5588 C 487.65446,749.50831 486.75496,749.82149 489.16637,749.82149 C 489.64068,749.82149 492.14113,750.93007 492.95444,751.33672 C 494.27605,751.99753 494.45499,753.34969 495.47982,753.86211 C 496.90624,754.57531 498.14174,753.89111 499.2679,753.60957 C 500.95114,753.18876 501.17305,753.31254 501.54074,751.8418 C 501.999,750.00876 503.58567,750.30195 504.82374,749.06388 C 505.78822,748.09939 505.86144,747.99863 506.5915,746.5385 C 507.06184,745.59782 509.36257,745.02327 510.37957,745.02327 C 510.77953,745.02327 512.68196,742.46835 513.15749,741.99281 C 514.09121,741.0591 515.11272,740.80953 516.44049,740.47758 C 517.66548,740.17134 514.16765,739.21489 513.41003,738.20474 C 515.0198,736.70886 518.33112,737.25452 520.73364,736.94205 C 521.5319,736.94205 523.0279,735.67401 524.01663,735.42682 C 526.66322,734.54675 529.29887,734.18286 532.09785,734.16413 C 533.57616,734.16413 534.11296,734.16803 535.12831,733.40652 C 536.28549,732.53863 536.02745,732.26704 537.90623,731.89129 C 539.8392,732.321 541.78638,733.30173 542.70446,735.17428 C 543.61266,736.99069 544.5021,734.35691 544.72476,733.91159 C 545.44217,732.47677 544.73924,731.64237 546.74507,732.14383 C 546.72488,734.087 545.01793,737.7051 548.26029,738.20474 C 550.41547,738.20474 547.90397,739.24084 546.9976,739.46743 C 545.80472,739.76565 546.55577,742.21373 544.9773,743.00297 C 543.30815,743.83754 544.76665,744.05501 545.48238,744.77073 C 545.99095,745.2793 545.73142,746.28247 546.23999,746.79104 C 546.50197,747.05301 549.48223,746.67156 550.2806,746.5385 C 552.11017,746.23357 553.28291,746.14562 551.54329,745.27581 C 550.59441,744.80137 550.08543,744.29434 549.01791,743.76058 C 548.28408,743.39367 547.52496,742.03737 547.25014,741.48774 C 548.27397,739.72675 551.76864,740.31213 552.55344,742.75043 C 554.47737,744.87404 557.02538,745.52581 559.87705,745.52835 C 562.07408,744.18051 562.47551,741.96595 565.43289,742.24535 C 568.0011,741.0461 569.87391,738.49092 572.75649,739.97251 C 574.36214,740.61477 575.07797,741.2352 577.30218,741.2352 C 578.95589,741.2352 580.19121,741.74027 581.84787,741.74027 C 583.18054,741.74027 584.01098,742.0259 584.62579,743.2555 C 587.10865,744.4204 589.73955,745.4629 592.45447,744.51819 C 593.20326,744.331 593.66469,745.42586 594.47477,746.03342 C 594.8467,746.31237 595.30384,746.65522 595.48493,746.79104 C 596.73101,747.7256 598.55268,746.6751 599.52554,746.28596 C 600.98824,745.70088 603.37203,746.63569 604.32376,747.04358 C 607.15482,747.47546 610.02557,746.37771 612.91006,747.04358 C 614.15,746.73359 615.67214,746.5385 616.95067,746.5385 C 618.95476,746.5385 620.58663,745.09933 621.74889,744.51819 C 622.61212,744.08658 624.78108,744.51819 625.7895,744.51819 C 630.02507,744.66083 633.97482,745.48174 638.16387,744.51819 C 639.84308,744.09839 643.97859,743.85906 645.48748,743.2555 L 644.90944,962.86088 L 396.13271,964.71425 C 392.41253,963.78421 390.6543,962.70433 386.42857,961.6479 C 382.65722,960.70506 375.26189,961.6479 373.57143,961.6479 C 369.38302,961.6479 366.6051,961.73616 363.57143,960.21933 C 360.45255,958.65989 360.90667,956.6479 355,956.6479 C 351.07002,956.6479 347.08063,956.81091 343.57143,955.93361 C 340.85146,955.25362 340.89949,948.81727 340.71429,948.07647 C 340.37821,946.73215 333.273,944.63836 332.14286,943.79075 C 328.7011,941.20944 324.66413,942.27822 319.28571,940.93361 C 315.36005,939.95219 312.10327,938.42371 307.85714,937.36218 C 304.35219,936.48594 300.15922,932.04484 295.71429,930.93361 C 292.45818,930.11958 289.98972,927.53305 287.85714,925.93361 C 285.48362,924.15347 282.41995,922.03429 280,920.21933 C 276.03358,917.24451 275.47071,921.16896 270.71429,918.79075 C 267.47937,917.1733 263.00519,918.35959 260.71429,919.50504 C 258.0452,920.83958 254.70972,921.72047 252.14286,922.36218 C 248.2528,923.3347 243.61147,923.07647 239.28571,923.07647 C 236.16245,923.07647 231.85535,920.93361 227.85714,920.93361 C 223.81969,920.93361 219.44893,920.97442 216.42857,920.21933 C 211.96165,919.1026 207.69247,920.49413 204.28571,918.79075 C 199.27408,916.28494 197.12241,917.32129 195,913.07647 C 193.80695,910.69037 183.55369,905.91587 180.71429,903.07647 C 176.11427,898.47645 172.63041,896.1207 168.57143,893.07647 C 164.96668,890.3729 159.409,888.88322 156.42857,886.6479 C 153.88469,884.73998 150.48551,882.1906 147.85714,880.21933 C 144.55705,877.74426 139.76089,874.98022 137.14286,872.36218 C 135.7046,870.92392 128.59588,867.18972 126.42857,866.6479 C 122.49338,865.6641 121.55847,861.90768 120,858.79075 C 118.62272,856.0362 118.53779,855.55965 116.42857,854.50504 M 603.57143,313.07647 C 603.57143,317.03916 607.19795,305.87852 610,303.07647 C 612.71119,300.36528 615.37637,300.89516 617.14286,297.36218 C 618.94442,293.75907 620.44795,294.15399 619.28571,289.50504 C 617.95024,284.16314 619.44023,285.14207 615,287.36218 C 610.63389,289.54524 609.19144,286.74217 606.42857,289.50504 C 603.44109,292.49252 606.42274,294.50796 602.14286,296.6479 C 597.80947,298.81459 598.57143,299.03239 598.57143,304.50504 C 598.57143,310.05343 599.61933,309.12437 603.57143,313.07647 z M 518.46079,522.53717 C 517.1016,522.87697 519.48052,519.6282 520.73364,519.00164 C 521.89192,518.4225 523.68956,519.86272 524.01663,520.51687 C 524.55929,521.60219 524.2228,523.13499 523.7641,524.0524 C 523.11172,525.35716 522.75394,525.55989 522.75394,527.3354 C 522.75394,529.24419 521.85784,529.55122 520.73364,530.11332 C 519.62332,530.66848 518.41361,531.42319 517.70318,532.13362 C 516.98228,532.85453 517.70318,534.70472 517.70318,535.66916 C 517.70318,536.84569 517.47199,538.61422 517.1981,539.70977 C 516.96663,540.63566 515.50539,540.38548 514.16765,540.71992 C 513.05334,540.99849 512.90496,543.69005 512.90496,544.76053 C 512.90496,545.56181 511.959,545.26135 512.39988,543.49784 C 512.68639,542.3518 514.81037,541.21589 515.43034,540.71992 C 516.31895,540.00903 516.52911,538.54904 516.18795,537.18438 C 515.84351,535.80663 514.42018,535.88519 514.42018,533.90139 C 514.42018,532.59865 515.06876,531.81216 515.43034,530.36585 C 515.80135,528.88179 515.97439,528.01506 516.44049,527.08286 C 517.02405,525.91573 517.10584,524.99454 517.70318,523.79986 C 517.92269,523.36084 518.20826,522.95807 518.46079,522.53717 z M 481.59023,611.68313 C 481.59023,613.03263 482.17007,608.95173 481.84276,607.64252 C 481.56224,606.52044 481.65165,604.35269 481.59023,604.10699 C 481.48612,603.69057 480.51949,604.74345 480.32754,604.35953 C 479.66131,603.02709 478.10522,603.14728 477.80215,604.35953 C 477.65693,604.94041 478.21027,607.25468 478.30723,607.64252 C 478.56495,608.67342 479.51221,609.85766 480.075,610.42044 C 481.25831,611.60375 478.42725,611.05054 481.59023,611.68313 z M 481.59023,600.31892 C 482.6844,601.41309 483.35799,598.59961 483.35799,597.541 C 483.35799,596.52765 484.31875,595.21322 484.62068,594.00546 C 484.99798,592.4963 484.57883,592.19584 483.61053,591.22755 C 482.46557,590.08258 480.43153,591.98516 478.81231,591.98516 C 477.00757,591.98516 478.56125,593.25376 478.81231,594.258 C 479.1218,595.49597 478.81231,597.26778 478.81231,598.55115 C 478.81231,600.13578 480.3415,599.81943 481.59023,600.31892 z M 161.37187,471.01939 C 162.45808,472.1056 164.38143,470.26178 165.91756,470.26178 C 167.11657,470.26178 168.17724,468.50717 168.69548,467.98893 C 169.42617,467.25824 171.74248,466.97878 172.98862,466.97878 C 174.20599,466.97878 175.99412,466.10738 176.7767,465.71609 C 176.97542,465.61673 178.96189,464.03597 179.30208,463.69579 C 180.35374,462.64413 181.43408,462.21577 182.58507,461.92802 C 184.22153,461.51891 184.59392,461.3024 185.86807,460.66533 C 187.07829,460.06022 187.65968,459.27041 189.15106,458.89756 C 190.47039,458.56773 191.17137,458.66636 191.17137,460.16025 C 191.17137,460.43964 190.51118,462.80102 190.41375,463.19071 C 190.15088,464.24221 186.92212,462.70758 186.87822,462.68563 C 185.64612,462.06958 184.57389,463.72727 184.1003,464.20086 C 183.21864,465.08252 181.50202,464.5263 180.56477,465.46355 C 179.7363,466.29202 178.09568,465.68874 178.54446,467.48386 C 178.82567,468.6087 178.29192,470.01587 178.29192,470.76685 C 178.29192,471.25625 175.59808,471.58768 175.00893,472.02954 C 173.42593,473.21679 172.45096,471.23934 171.97847,470.76685 C 171.40509,470.19347 173.61456,468.27439 170.71578,468.99909 C 169.85588,469.21406 169.70829,470.70305 168.44294,471.01939 C 166.95965,471.39021 165.80705,472.18344 164.40233,472.53462 C 162.70847,472.95808 163.54218,472.88969 162.38202,474.04985 C 161.20832,475.22355 160.69386,471.8669 161.37187,471.01939 z M 129.04699,481.62599 C 128.25284,482.42014 131.53584,481.66253 132.32998,480.86838 C 133.33345,479.86492 133.4446,479.4533 134.85536,479.10061 C 136.66748,478.64758 137.11094,479.87549 138.3909,478.59554 C 139.58831,477.39812 140.39145,476.90679 140.66374,475.81762 C 140.76284,475.42123 135.85332,475.31254 135.61298,475.31254 C 133.57008,475.31254 133.55467,476.78977 131.82491,475.06 C 130.88463,474.11972 128.28582,475.18805 127.53176,475.56508 C 126.90863,475.87664 127.38878,479.28629 127.53176,479.85823 C 127.91967,481.40987 126.94346,480.78458 129.04699,481.62599 z M 416.42857,761.6479 C 414.38554,764.27698 412.17327,763.79075 409.28571,763.79075 C 407.59796,763.79075 405.5842,764.1479 403.92857,764.1479 C 401.17734,764.1479 401.99472,765.09757 401.42857,767.36218 C 401.20861,768.24203 397.28439,768.43361 396.07143,768.43361 C 394.28571,768.43361 392.5,768.43361 390.71429,768.43361 C 389.81065,768.43361 387.67351,771.11724 387.14286,771.6479 C 386.20253,772.58822 385.03583,773.05855 383.57143,773.79075 C 381.85014,774.6514 387.1133,774.86218 387.85714,774.86218 C 388.8838,774.86218 388.73691,779.09555 388.92857,779.86218 C 389.13117,780.67259 388.96568,783.93917 389.28571,785.21933 C 389.72245,786.96627 394.19665,784.20133 394.28571,784.1479 C 395.98277,783.12966 396.55381,781.58528 398.57143,780.57647 C 400.09873,779.81282 401.33124,780.57647 403.92857,780.57647 C 405.83991,780.57647 409.56062,779.94442 410.71429,778.79075 C 411.96382,777.54122 414.43596,777.30208 416.07143,776.6479 C 417.85343,775.9351 420,774.53129 420,772.36218 C 420,770.45248 420,769.33514 420,767.36218 C 420,765.85444 420.06751,764.77506 419.64286,763.07647 C 419.24325,761.47804 421.75067,761.07377 422.14286,759.50504 C 422.53349,757.94251 422.8827,756.26519 423.92857,755.21933 C 424.55911,754.58878 426.93279,753.39684 428.21429,753.07647 C 430.25521,752.56624 431.50876,752.63914 432.85714,751.29075 C 433.04855,751.09935 431.77666,749.68587 435.35714,748.79075 C 437.08338,748.3592 437.33499,746.26364 437.85714,745.21932 C 438.70898,743.51565 433.99075,744.75735 432.14286,745.21932 C 430.39394,745.65655 429.52748,747.15888 428.57143,748.43361 C 427.58675,749.74652 427.23996,751.12864 426.07143,752.00504 C 424.5391,753.15429 423.43928,753.74575 421.42857,754.1479 C 419.24127,754.58536 419.46269,755.2257 418.92857,757.36218 C 418.37833,759.56316 418.95727,760.13068 416.42857,761.6479 z "
           sodipodi:nodetypes="cssssssssscssssssssssccsssssssssssssssssssssssssscsssssssssssssssssssssssssssssssssssssssssssssssccsssssssscsssssssssccccssssssssssccsccssccssccssccsssssssssssssssssssscsssssssssssssssssssssssssssssssssssssssssssssssssssssssccsssssssssssssssssssssssssssssssssssssssssssssssssssssssssssssssssssssssssssssssssssssssssssssssssssssssssscssssssssssssssssssssssssssssssssssssscsssssssssssssssssssssssssssssssssscssssssssssssssssssssssssssssssssssssssssssssssssssssccscsssssssssccssssccsssssccssccssssssssssssssssssssssssssssssssssssccccsccsccssssssscccccssccsssccsscccccsssssssssssssssssssssssssssccsssssssccsssssssssssssssssccssssssccssssssccsssssssssssssssssssssccssssssssccsssssssssssssssssssssssssssssc" />
      </g>
    </g>
    <path
       style="fill:none;fill-rule:evenodd;stroke:#ccc;stroke-width:1px;stroke-linecap:butt;stroke-linejoin:miter;stroke-opacity:1"
       d="M 427.85714,734.50504 C 425.89311,736.46907 424.23431,734.50504 421.07143,734.50504 C 420.11789,734.50504 418.36246,733.79075 416.42857,733.79075 C 414.19852,733.79075 412.30684,733.03547 410.71429,733.43361 C 409.32656,733.78054 407.01415,733.43361 405.35714,733.43361 C 402.93639,733.43361 402.26863,733.72788 400.71429,734.50504 C 400.23809,734.74313 399.7619,734.98123 399.28571,735.21932 C 399.28571,735.21932 400.97782,727.05591 406.42857,625.57647 C 410.32956,552.82186 406.42857,625.57647 406.78571,539.1479 C 407.2619,539.08837 407.73809,539.02885 408.21429,538.96932 C 409.32804,538.8301 409.76299,537.95633 410.17857,537.54075 C 410.99382,536.7255 411.02608,535.84574 411.42857,535.04075 C 411.80503,534.28783 413.17565,535.06007 413.92857,534.68361 C 414.47164,534.41208 416.56414,535.47643 416.96429,535.57647 C 418.18928,535.88271 418.95816,536.15973 420.17857,536.6479 C 423.16401,537.84207 421.66544,536.70619 423.39286,538.43361 C 424.33599,539.37675 424.49288,539.78719 425.71429,540.3979 C 426.76498,540.92324 426.87333,541.60242 427.67857,542.00504 C 428.55913,542.44532 429.43954,543.06657 430.35714,543.43361 C 432.01954,544.09857 431.64844,544.9941 433.21429,545.93361 C 434.97927,546.9926 434.15103,545.2163 433.75,543.61218 C 433.54191,542.77982 434.00124,541.57522 434.46429,541.11218 C 435.09325,540.48321 436.04656,540.56291 436.60714,539.86218 C 437.5616,538.66911 438.98571,538.14075 439.64286,536.82647 C 440.07408,535.96403 440.70494,535.2567 440.89286,534.50504 C 441.06787,533.80501 442.88019,532.79709 443.39286,532.54075 C 444.29302,532.09067 444.87084,531.16724 445.17857,530.3979 C 445.28448,530.13314 447.39727,529.53745 447.67857,529.32647 C 448.63737,528.60737 448.18557,525.5415 448.39286,524.50504 C 448.67929,523.07288 448.68905,522.17398 449.46429,520.93361 C 450.15686,519.8255 450.86392,518.81969 451.78572,517.8979 C 452.20958,517.47403 452.3851,516.03606 452.5,515.57647 C 452.72826,514.66341 454.15593,514.63482 454.82143,513.96932 C 455.64672,513.14403 455.78654,512.29404 455.53572,511.29075 C 455.16216,509.79652 455.48692,508.02378 456.60714,507.18361 C 457.75227,506.32477 455.84685,505.63058 458.21429,504.68361 C 458.93534,504.39519 459.64744,503.42902 460.17857,502.8979 C 461.16748,501.90899 461.42857,500.23677 461.42857,498.79075 C 461.42857,497.8527 462.5099,497.49128 462.67857,496.6479 C 462.99934,495.04406 463.67488,494.67437 463.03572,493.07647 C 462.63457,492.07361 466.14837,491.21381 467.14286,490.21932 C 467.81494,489.54724 468.60652,489.00442 467.67857,488.07647 C 467.50245,487.90034 470.6616,487.85164 470.89286,487.8979 C 471.96755,488.11283 472.53485,488.25504 473.75,488.25504 C 475.95537,488.25504 478.02302,487.8979 480.17857,487.8979 C 481.2537,487.8979 482.64185,487.36952 483.57143,487.18361 C 483.81209,487.13548 484.04762,487.06456 484.28572,487.00504 C 484.77501,486.88272 483.2288,488.24053 483.21429,488.25504 C 482.91667,488.55266 484.05596,488.53569 484.46429,488.43361 M 489.28571,753.07647 C 486.67742,755.07479 480.71429,754.63581 480.71429,760.21933 C 480.71429,761.7736 475.78516,764.43417 474.28571,765.93361 C 471.40035,768.81897 469.3078,770.17515 467.85714,773.07647 C 466.32699,776.13678 462.90602,778.0113 460.71429,780.93361 C 456.53038,786.51215 448.94624,784.63944 446.42857,790.93361 C 445.67389,792.82032 437.49153,792.54499 435,793.79075 C 431.47264,795.55443 429.14417,797.7901 425.71429,799.50504 C 423.69778,800.51329 422.84905,804.50909 420,805.93361 C 416.48739,807.68992 414.33103,808.42228 410,809.50504 C 407.16758,810.21315 407.42023,813.79075 402.85714,813.79075 C 402.01786,813.79075 402.85714,821.36845 402.85714,823.07647 C 402.85714,825.85311 396.95604,824.87868 395.71429,827.36218 C 394.89798,828.9948 397.42416,836.49623 397.85714,837.36218 C 399.62436,840.89662 399.49055,842.10746 402.85714,843.79075 C 405.85954,845.29195 408.05694,847.79177 407.14286,852.36218 C 406.25532,856.79989 409.18394,859.50504 403.57143,859.50504 C 400.30047,859.50504 396.55811,861.51836 394.28571,863.79075 C 391.19811,866.87836 387.14286,863.20897 387.14286,870.21933 C 387.14286,874.03895 384.99598,873.07848 382.14286,874.50504 C 379.35294,875.9 375.95658,876.16961 373.57143,877.36218 C 373.56367,877.36606 371.53341,876.95262 367.85714,878.79075 C 364.40944,880.5146 367.52556,884.88774 368.57143,885.93361 C 371.67729,889.03948 369.23485,893.26775 367.14286,893.79075 C 365.98793,894.07949 365.2381,895.21933 364.28571,895.93361 C 363.10791,896.22806 361.90476,896.4098 360.71429,896.6479 C 358.6711,897.05653 357.06014,903.15918 355.71429,904.50504 C 353.60708,906.61224 354.29778,910.57345 350,911.6479 C 348.19338,912.09955 343.96423,911.6479 340.71429,911.6479 C 336.53369,911.6479 333.82407,912.78021 332.85714,916.6479 C 332.24319,919.10371 327.96725,920.8235 326.42857,922.36218 C 324.40072,924.39004 323.54394,925.9886 322.14286,928.79075 C 320.22906,932.61834 320.67465,935.25896 317.85714,938.07647 C 316.40906,939.52455 317.85714,937.98742 317.85714,939.50504 M 385.71429,874.50504 C 383.83198,876.38735 390.97484,876.19416 392.85714,878.07647 C 393.98242,879.20175 401.13268,879.43107 401.42857,879.50504 C 404.33988,880.23287 405.66659,880.92169 408.57143,881.6479 C 412.00798,882.50703 415,881.83256 415,887.36218 C 415,889.50992 418.01718,893.07647 421.42857,893.07647 C 423.64591,893.07647 427.58569,897.22645 429.28571,898.07647 C 431.66687,899.26705 432.24906,903.18267 434.28571,905.21933 C 436.27345,907.20706 442.60781,908.19271 445,908.79075 C 448.91169,909.76868 450.8387,910.60757 455,911.6479 C 457.045,912.15915 459.43009,915.61256 463.57143,916.6479 C 467.24341,917.56589 465.53087,922.5456 463.57143,924.50504 C 459.91525,928.16122 469.92608,926.6479 470.71429,926.6479 C 474.32747,926.6479 478.07355,926.05808 481.42857,925.21933 C 485.88862,924.10431 488.05125,926.58574 489.28571,921.6479 C 489.58372,920.45588 498.77869,920.46359 500,920.21933 C 505.27058,919.16521 506.88261,919.24479 508.57143,920.93361 C 513.14035,925.50253 505.37064,925.63824 515.71429,927.36218 C 518.53495,927.83229 523.35376,926.77205 525.71429,927.36218 C 530.35592,928.52259 532.85714,924.02912 532.85714,930.21933 C 532.85714,932.60742 531.42857,937.11954 531.42857,940.93361 C 531.42857,945.64804 530.06212,945.80937 528.57143,948.79075 C 527.62412,950.68538 531.07446,957.37431 531.42857,958.79075 C 532.38496,962.61631 534.05503,962.57065 532.85714,967.36218 M 624.28571,960.93361 C 622.39707,959.98929 621.25993,953.1162 620.71429,950.93361 C 619.75959,947.11483 622.18341,945.38152 621.42857,942.36218 C 620.09208,937.01621 624.09452,935.21933 628.57143,935.21933 C 632.86903,935.21933 633.98743,932.92733 638.57143,935.21933 M 406.78571,552.71932 L 406.78571,552.71932 C 406.78571,552.71932 406.78571,552.71932 238.75,551.82647 C 238.75,551.82647 238.48214,596.46932 238.83929,605.13004 C 238.83929,605.13004 238.83929,605.13004 197.5,605.84432 C 197.5,605.87409 197.49278,605.90474 197.5,605.93361 C 197.55406,606.14984 197.64315,606.79105 197.85714,607.00504 C 198.04752,607.19542 198.39286,607.71878 198.39286,607.98718 C 198.39286,608.39088 198.29552,608.93712 198.39286,609.32647 C 198.44743,609.54474 198.86503,610.22576 199.19643,610.30861 C 199.71201,610.4375 200.32048,610.3979 200.89286,610.3979 C 201.44769,610.3979 202.36949,610.24335 202.85714,610.48718 C 203.0953,610.60626 205.28277,611.17164 205.17857,611.38004 C 204.94406,611.84906 205.34181,612.06877 205.625,612.54075 C 205.9126,613.02008 206.26566,613.47559 206.60714,613.61218 C 207.42745,613.9403 207.21719,613.5229 208.03571,613.5229 C 208.74336,613.5229 208.48299,613.16491 208.83929,612.80861 C 209.38114,612.26676 209.14045,612.45147 209.82143,612.45147 C 210.64932,612.45147 210.66791,612.81934 211.33929,612.98718 C 212.13373,613.18579 212.8454,613.47593 213.03571,614.23718 C 213.16505,614.75453 213.30357,615.16664 213.30357,615.75504 C 213.30357,616.472 213.39109,617.08726 213.57143,617.80861 C 213.73675,618.46989 214.44085,618.20817 214.82143,618.96932 C 215.03981,619.40608 215.40843,619.95147 215.89286,619.95147 C 216.70403,619.95147 216.72382,620.23961 216.875,620.84432 C 217.07562,621.64679 217.5,622.01042 217.5,622.80861 C 217.5,623.20383 217.38168,623.83594 217.67857,624.05861 C 218.15744,624.41776 218.67854,624.83091 219.19643,625.21932 C 220.0552,625.8634 221.01144,627.10897 221.69643,627.45147 C 222.11078,627.65864 222.79354,628.44388 223.21429,628.61218 C 223.89282,628.88359 224.24618,628.88004 225.08929,628.88004 C 225.80111,628.88004 226.0077,629.2883 226.25,629.7729 C 226.57477,630.42244 226.58935,631.0766 226.875,631.6479 C 227.2187,632.33529 227.16071,632.73717 227.67857,633.25504 C 227.95297,633.52944 228.08219,633.83723 228.39286,634.1479 C 228.8566,634.61164 229.40629,635.02295 229.82143,635.57647 C 230.42567,636.38212 231.08663,637.73453 231.78571,638.43361 C 232.10742,638.75531 232.78494,639.96001 233.125,640.13004 C 233.50586,640.32047 233.90582,640.72703 234.375,640.84432 C 234.68618,640.92212 236.64366,641.57487 236.69643,641.46932 C 237.29418,640.27383 237.79853,641.8418 238.66071,642.2729 C 239.26904,642.57706 239.46898,642.8979 240.26786,642.8979 C 241.58197,642.8979 241.17135,642.72996 241.78571,643.34432 C 242.05797,643.61658 244.16221,644.95894 244.19643,645.13004 C 244.19643,645.74606 244.52787,645.53723 244.64286,646.11218 C 244.75401,646.66792 244.88534,647.99987 245.625,647.63004 C 246.03254,647.42627 246.47645,647.45147 247.05357,647.45147 C 247.77823,647.45147 249.59421,647.65036 250.08929,647.8979 C 250.33282,648.01966 251.54844,648.49724 251.60714,648.79075 C 251.64992,649.00463 251.90899,649.87918 252.23214,650.04075 C 252.75087,650.30012 253.43355,650.04075 254.10714,650.04075 C 254.69904,650.04075 255.88115,650.48133 256.42857,650.75504 C 257.6086,651.34505 258.19436,651.3896 258.48214,652.54075 C 258.60548,653.03411 258.92857,653.26526 258.92857,653.96932 C 258.92857,654.32807 259.68433,655.20976 260.17857,655.30861 C 260.90862,655.45462 261.70552,655.76413 262.23214,656.29075 C 263.13506,657.19367 264.4358,658.05181 264.73214,659.23718 C 264.88119,659.83338 265.79038,660.16657 265.98214,660.93361 C 266.13525,661.54603 266.59474,661.80166 266.875,662.36218 C 267.18383,662.97984 267.50426,663.44214 267.85714,664.1479 C 268.30679,665.04718 268.21429,665.72045 268.21429,666.6479 C 268.21429,667.39913 268.63658,667.35493 268.75,667.80861 C 268.81733,668.07795 269.02381,668.62408 269.19643,668.96932 C 269.63482,669.84611 271.61449,672.80126 270.71429,673.70147 C 270.1876,674.22816 270.44643,674.8943 270.44643,675.66575 C 270.44643,676.21572 270.69771,676.50568 271.16072,676.73718 C 271.77929,677.04647 272.31659,677.53591 272.94643,678.16575 C 273.48521,678.70453 273.58778,679.65123 274.10714,680.04075 C 274.68832,680.47663 275.2471,680.48718 275.98214,680.48718 C 276.98062,680.48718 278.07283,680.00945 279.01786,680.57647 C 279.73189,681.00489 279.47188,681.46932 280.35714,681.46932 C 281.10855,681.46932 281.8493,681.46932 282.58929,681.46932 C 282.90127,681.46932 284.10714,681.61904 284.10714,682.00504 C 284.10714,682.59277 284.37391,682.71787 284.64286,683.07647 C 285.05035,683.61979 285.15485,684.65989 285.625,685.13004 C 285.91179,685.41682 286.30359,685.63451 286.78572,685.75504 C 287.18982,685.85606 287.75531,685.75504 288.30357,685.75504 C 288.61761,685.75504 290.79409,685.89175 290.71429,686.29075 C 291.26462,686.62095 291.54436,686.69397 291.42857,687.2729 C 291.24474,688.19204 292.23214,688.60447 292.23214,689.68361 C 292.23214,690.46691 293.05913,691.86453 292.94643,692.54075 C 292.59912,694.62461 291.14734,693.98716 290.08929,695.3979 C 290,695.51694 289.88798,695.62194 289.82143,695.75504 C 289.35527,696.68736 289.6123,697.97859 289.01786,698.96932 C 288.58708,699.68728 288.65118,701.211 288.21429,701.6479 C 287.32387,702.53831 287.41072,702.8364 287.41072,703.96932 C 287.41072,705.0301 287.62747,705.84378 287.76786,706.82647 C 287.94944,708.09754 288.19821,707.77646 288.75,708.88004 C 288.99344,709.36691 288.92857,709.6285 288.92857,710.13004 C 288.92857,710.51611 288.71678,711.27002 288.75,711.46932 C 288.88378,712.27199 288.92857,713.16372 288.92857,713.96932 C 288.92857,714.49263 288.52799,714.58951 288.39286,715.13004 C 288.33733,715.35217 288.2553,716.28349 288.39286,716.55861 C 288.45012,716.67313 289.0555,717.93465 289.01786,718.07647 C 288.97978,718.2199 288.94171,718.36334 288.90363,718.50677 C 288.90363,718.50677 288.90363,718.50677 172.73609,717.49661 C 172.73609,717.49661 172.73609,717.49661 140.4112,773.56008 C 139.79794,774.58935 139.18469,775.61862 138.57143,776.6479 C 136.93489,779.39462 136.42697,781.65429 135.71429,784.50504 C 135.39437,785.78469 130.9119,787.28602 130,790.93361 C 129.22505,794.03342 126.05289,794.48033 129.28571,798.79075 C 131.47542,801.71037 132.70731,803.19142 133.57143,806.6479 C 134.08126,808.68721 138.327,811.22965 140,811.6479 C 142.78144,812.34326 139.28571,817.35228 139.28571,820.21933 L 134.28571,826.6479 C 136.92399,827.30747 132.14286,833.00042 132.14286,834.50504 C 132.14286,838.66161 131.42857,840.59286 131.42857,844.50504 C 131.42857,847.14257 130,846.69775 130,851.6479 C 130,854.22329 125.71429,855.50107 125.71429,858.07647 C 125.71429,862.41586 125.49543,865.65703 124.28571,868.07647 C 124.13513,868.37764 123.80952,867.60028 123.57143,867.36218"
       id="path1973"
       sodipodi:nodetypes="cccsssssssssssssssscssssssssssssssssssssssssssssscssscssssssssssssssssssssssssssssscssssssssccccccssssscscscsssscccccsssssssssssssssssssssssssssssssssssssscssssssssssssssssssssssssssssssssscsssssssssssssssscccssssssccsssssc" />
    <text
       xml:space="preserve"
       style="font-size:32px;font-style:normal;font-variant:normal;font-weight:normal;font-stretch:normal;text-align:start;line-height:125%;writing-mode:lr-tb;text-anchor:start;fill:#f60;fill-opacity:1;stroke:none;stroke-width:1.5;stroke-linecap:butt;stroke-linejoin:miter;stroke-opacity:1;font-family:Arial Narrow"
       x="88.621689"
       y="421.02203"
       id="text1951"
       sodipodi:linespacing="125%"><tspan
         sodipodi:role="line"
         id="tspan1953"
         x="88.621689"
         y="421.02203">Wastek</tspan></text>
    <text
       xml:space="preserve"
       style="font-size:40px;font-style:normal;font-variant:normal;font-weight:normal;font-stretch:normal;text-align:start;line-height:125%;writing-mode:lr-tb;text-anchor:start;fill:#37c837;fill-opacity:1;stroke:none;stroke-width:1.5;stroke-linecap:butt;stroke-linejoin:miter;stroke-opacity:1;font-family:Arial Narrow"
       x="340.7048"
       y="381.26807"
       id="text1959"
       sodipodi:linespacing="125%"><tspan
         sodipodi:role="line"
         id="tspan1961"
         x="340.7048"
         y="381.26807">Yucatec</tspan></text>
    <text
       xml:space="preserve"
       style="font-size:16px;font-style:normal;font-variant:normal;font-weight:normal;font-stretch:normal;text-align:start;line-height:125%;writing-mode:lr-tb;text-anchor:start;fill:#37c837;fill-opacity:1;stroke:none;stroke-width:1.5;stroke-linecap:butt;stroke-linejoin:miter;stroke-opacity:1;font-family:Arial Narrow"
       x="389.8277"
       y="687.88434"
       id="text1963"
       sodipodi:linespacing="125%"><tspan
         sodipodi:role="line"
         id="tspan1965"
         x="389.8277"
         y="687.88434">Mopan</tspan></text>
    <text
       xml:space="preserve"
       style="font-size:16px;font-style:normal;font-variant:normal;font-weight:normal;font-stretch:normal;text-align:start;line-height:125%;writing-mode:lr-tb;text-anchor:start;fill:#37c837;fill-opacity:1;stroke:none;stroke-width:1.5;stroke-linecap:butt;stroke-linejoin:miter;stroke-opacity:1;font-family:Arial Narrow"
       x="302.72806"
       y="613.96655"
       id="text1967"
       sodipodi:linespacing="125%"><tspan
         sodipodi:role="line"
         id="tspan1969"
         x="302.72806"
         y="613.96655">Itza'</tspan></text>
    <text
       xml:space="preserve"
       style="font-size:16px;font-style:normal;font-variant:normal;font-weight:normal;font-stretch:normal;text-align:start;line-height:125%;writing-mode:lr-tb;text-anchor:start;fill:#37c837;fill-opacity:1;stroke:none;stroke-width:1.5;stroke-linecap:butt;stroke-linejoin:miter;stroke-opacity:1;font-family:Arial Narrow"
       x="225.5537"
       y="699.91364"
       id="text1971"
       sodipodi:linespacing="125%"><tspan
         sodipodi:role="line"
         id="tspan1973"
         x="225.5537"
         y="699.91364">Lakantun</tspan></text>
    <text
       xml:space="preserve"
       style="font-size:24px;font-style:normal;font-variant:normal;font-weight:normal;font-stretch:normal;text-align:start;line-height:125%;writing-mode:lr-tb;text-anchor:start;fill:#04a;fill-opacity:1;stroke:none;stroke-width:1.5;stroke-linecap:butt;stroke-linejoin:miter;stroke-opacity:1;font-family:Arial Narrow"
       x="124.40637"
       y="521.89722"
       id="text1975"
       sodipodi:linespacing="125%"><tspan
         sodipodi:role="line"
         id="tspan1977"
         x="124.40637"
         y="521.89722">Chontal</tspan></text>
    <text
       xml:space="preserve"
       style="font-size:32px;font-style:normal;font-variant:normal;font-weight:normal;font-stretch:normal;text-align:start;line-height:125%;writing-mode:lr-tb;text-anchor:start;fill:#04a;fill-opacity:1;stroke:none;stroke-width:1.5;stroke-linecap:butt;stroke-linejoin:miter;stroke-opacity:1;font-family:Arial Narrow"
       x="102.9778"
       y="600.9046"
       id="text1979"
       sodipodi:linespacing="125%"><tspan
         sodipodi:role="line"
         id="tspan1981"
         x="102.9778"
         y="600.9046">Ch'ol</tspan></text>
    <text
       xml:space="preserve"
       style="font-size:24px;font-style:normal;font-variant:normal;font-weight:normal;font-stretch:normal;text-align:start;line-height:125%;writing-mode:lr-tb;text-anchor:start;fill:#04a;fill-opacity:1;stroke:none;stroke-width:1.5;stroke-linecap:butt;stroke-linejoin:miter;stroke-opacity:1;font-family:Arial Narrow"
       x="388.69208"
       y="851.34058"
       id="text1983"
       sodipodi:linespacing="125%"><tspan
         sodipodi:role="line"
         id="tspan1985"
         x="388.69208"
         y="851.34058">Ch'orti'</tspan></text>
    <text
       xml:space="preserve"
       style="font-size:32px;font-style:normal;font-variant:normal;font-weight:normal;font-stretch:normal;text-align:start;line-height:125%;writing-mode:lr-tb;text-anchor:start;fill:#04a;fill-opacity:1;stroke:none;stroke-width:1.5;stroke-linecap:butt;stroke-linejoin:miter;stroke-opacity:1;font-family:Arial Narrow"
       x="89.355118"
       y="679.32617"
       id="text1987"
       sodipodi:linespacing="125%"><tspan
         sodipodi:role="line"
         id="tspan1989"
         x="89.355118"
         y="679.32617">Tzeltal</tspan></text>
    <text
       xml:space="preserve"
       style="font-size:32px;font-style:normal;font-variant:normal;font-weight:normal;font-stretch:normal;text-align:start;line-height:125%;writing-mode:lr-tb;text-anchor:start;fill:#04a;fill-opacity:1;stroke:none;stroke-width:1.5;stroke-linecap:butt;stroke-linejoin:miter;stroke-opacity:1;font-family:Arial Narrow"
       x="31.865635"
       y="746.22656"
       id="text1991"
       sodipodi:linespacing="125%"><tspan
         sodipodi:role="line"
         id="tspan1993"
         x="31.865635"
         y="746.22656">Tzotzil</tspan></text>
    <text
       xml:space="preserve"
       style="font-size:24px;font-style:normal;font-variant:normal;font-weight:normal;font-stretch:normal;text-align:start;line-height:125%;writing-mode:lr-tb;text-anchor:start;fill:#2a7fff;fill-opacity:1;stroke:none;stroke-width:1.5;stroke-linecap:butt;stroke-linejoin:miter;stroke-opacity:1;font-family:Arial Narrow"
       x="171.82095"
       y="742.19617"
       id="text1995"
       sodipodi:linespacing="125%"><tspan
         sodipodi:role="line"
         id="tspan1997"
         x="171.82095"
         y="742.19617">Chuj</tspan></text>
    <text
       xml:space="preserve"
       style="font-size:24px;font-style:normal;font-variant:normal;font-weight:normal;font-stretch:normal;text-align:start;line-height:125%;writing-mode:lr-tb;text-anchor:start;fill:#2a7fff;fill-opacity:1;stroke:none;stroke-width:1.5;stroke-linecap:butt;stroke-linejoin:miter;stroke-opacity:1;font-family:Arial Narrow"
       x="87.505585"
       y="707.81641"
       id="text1999"
       sodipodi:linespacing="125%"><tspan
         sodipodi:role="line"
         id="tspan2001"
         x="87.505585"
         y="707.81641">Tojolab'al</tspan></text>
    <text
       xml:space="preserve"
       style="font-size:24px;font-style:normal;font-variant:normal;font-weight:normal;font-stretch:normal;text-align:start;line-height:125%;writing-mode:lr-tb;text-anchor:start;fill:#2a7fff;fill-opacity:1;stroke:none;stroke-width:1.5;stroke-linecap:butt;stroke-linejoin:miter;stroke-opacity:1;font-family:Arial Narrow"
       x="228.77412"
       y="747.58496"
       id="text2003"
       sodipodi:linespacing="125%"><tspan
         sodipodi:role="line"
         id="tspan2005"
         x="228.77412"
         y="747.58496">Q'anjob'al</tspan></text>
    <text
       xml:space="preserve"
       style="font-size:24px;font-style:normal;font-variant:normal;font-weight:normal;font-stretch:normal;text-align:start;line-height:125%;writing-mode:lr-tb;text-anchor:start;fill:#2a7fff;fill-opacity:1;stroke:none;stroke-width:1.5;stroke-linecap:butt;stroke-linejoin:miter;stroke-opacity:1;font-family:Arial Narrow"
       x="159.30731"
       y="769.94952"
       id="text2007"
       sodipodi:linespacing="125%"><tspan
         sodipodi:role="line"
         id="tspan2009"
         x="159.30731"
         y="769.94952">Akatek</tspan></text>
    <text
       xml:space="preserve"
       style="font-size:32px;font-style:normal;font-variant:normal;font-weight:normal;font-stretch:normal;text-align:start;line-height:125%;writing-mode:lr-tb;text-anchor:start;fill:#2a7fff;fill-opacity:1;stroke:none;stroke-width:1.5;stroke-linecap:butt;stroke-linejoin:miter;stroke-opacity:1;font-family:Arial Narrow"
       x="78.078239"
       y="802.9491"
       id="text2011"
       sodipodi:linespacing="125%"><tspan
         sodipodi:role="line"
         id="tspan2013"
         x="78.078239"
         y="802.9491">Jakaltek </tspan></text>
    <text
       xml:space="preserve"
       style="font-size:16px;font-style:normal;font-variant:normal;font-weight:normal;font-stretch:normal;text-align:start;line-height:125%;writing-mode:lr-tb;text-anchor:start;fill:#2a7fff;fill-opacity:1;stroke:none;stroke-width:1.5;stroke-linecap:butt;stroke-linejoin:miter;stroke-opacity:1;font-family:Arial Narrow"
       x="134.55212"
       y="822.25421"
       id="text2015"
       sodipodi:linespacing="125%"><tspan
         sodipodi:role="line"
         id="tspan2017"
         x="134.55212"
         y="822.25421">Mocho'</tspan></text>
    <text
       xml:space="preserve"
       style="font-size:32px;font-style:normal;font-variant:normal;font-weight:normal;font-stretch:normal;text-align:start;line-height:125%;writing-mode:lr-tb;text-anchor:start;fill:#892ca0;fill-opacity:1;stroke:none;stroke-width:1.5;stroke-linecap:butt;stroke-linejoin:miter;stroke-opacity:1;font-family:Arial Narrow"
       x="124.1134"
       y="861.99097"
       id="text2019"
       sodipodi:linespacing="125%"><tspan
         sodipodi:role="line"
         id="tspan2021"
         x="124.1134"
         y="861.99097">Mam</tspan></text>
    <text
       xml:space="preserve"
       style="font-size:16px;font-style:normal;font-variant:normal;font-weight:normal;font-stretch:normal;text-align:start;line-height:125%;writing-mode:lr-tb;text-anchor:start;fill:#892ca0;fill-opacity:1;stroke:none;stroke-width:1.5;stroke-linecap:butt;stroke-linejoin:miter;stroke-opacity:1;font-family:Arial Narrow"
       x="174.72278"
       y="785.36664"
       id="text2023"
       sodipodi:linespacing="125%"><tspan
         sodipodi:role="line"
         id="tspan2025"
         x="174.72278"
         y="785.36664">Tekiteko</tspan></text>
    <text
       xml:space="preserve"
       style="font-size:24px;font-style:normal;font-variant:normal;font-weight:normal;font-stretch:normal;text-align:start;line-height:125%;writing-mode:lr-tb;text-anchor:start;fill:#892ca0;fill-opacity:1;stroke:none;stroke-width:1.5;stroke-linecap:butt;stroke-linejoin:miter;stroke-opacity:1;font-family:Arial Narrow"
       x="254.15665"
       y="794.15485"
       id="text2027"
       sodipodi:linespacing="125%"><tspan
         sodipodi:role="line"
         id="tspan2029"
         x="254.15665"
         y="794.15485">Ixil</tspan></text>
    <text
       xml:space="preserve"
       style="font-size:24px;font-style:normal;font-variant:normal;font-weight:normal;font-stretch:normal;text-align:start;line-height:125%;writing-mode:lr-tb;text-anchor:start;fill:#892ca0;fill-opacity:1;stroke:none;stroke-width:1.5;stroke-linecap:butt;stroke-linejoin:miter;stroke-opacity:1;font-family:Arial Narrow"
       x="185.02161"
       y="814.34308"
       id="text2031"
       sodipodi:linespacing="125%"><tspan
         sodipodi:role="line"
         id="tspan2033"
         x="185.02161"
         y="814.34308">Awakatek</tspan></text>
    <text
       xml:space="preserve"
       style="font-size:16px;font-style:normal;font-variant:normal;font-weight:normal;font-stretch:normal;text-align:start;line-height:125%;writing-mode:lr-tb;text-anchor:start;fill:#f0c;fill-opacity:1;stroke:none;stroke-width:1.5;stroke-linecap:butt;stroke-linejoin:miter;stroke-opacity:1;font-family:Arial Narrow"
       x="266.91782"
       y="765.98846"
       id="text2035"
       sodipodi:linespacing="125%"><tspan
         sodipodi:role="line"
         id="tspan2037"
         x="266.91782"
         y="765.98846">Uspantek</tspan></text>
    <text
       xml:space="preserve"
       style="font-size:40px;font-style:normal;font-variant:normal;font-weight:normal;font-stretch:normal;text-align:start;line-height:125%;writing-mode:lr-tb;text-anchor:start;fill:#f0c;fill-opacity:1;stroke:none;stroke-width:1.5;stroke-linecap:butt;stroke-linejoin:miter;stroke-opacity:1;font-family:Arial Narrow"
       x="198.41084"
       y="844.34027"
       id="text2039"
       sodipodi:linespacing="125%"><tspan
         sodipodi:role="line"
         id="tspan2041"
         x="198.41084"
         y="844.34027">K'iche'</tspan></text>
    <text
       xml:space="preserve"
       style="font-size:32px;font-style:normal;font-variant:normal;font-weight:normal;font-stretch:normal;text-align:start;line-height:125%;writing-mode:lr-tb;text-anchor:start;fill:#f0c;fill-opacity:1;stroke:none;stroke-width:1.5;stroke-linecap:butt;stroke-linejoin:miter;stroke-opacity:1;font-family:Arial Narrow"
       x="226.98227"
       y="868.85883"
       id="text2043"
       sodipodi:linespacing="125%"><tspan
         sodipodi:role="line"
         id="tspan2045"
         x="226.98227"
         y="868.85883">Kaqchikel</tspan></text>
    <text
       xml:space="preserve"
       style="font-size:24px;font-style:normal;font-variant:normal;font-weight:normal;font-stretch:normal;text-align:start;line-height:125%;writing-mode:lr-tb;text-anchor:start;fill:#f0c;fill-opacity:1;stroke:none;stroke-width:1.5;stroke-linecap:butt;stroke-linejoin:miter;stroke-opacity:1;font-family:Arial Narrow"
       x="174.72278"
       y="890.52026"
       id="text2047"
       sodipodi:linespacing="125%"><tspan
         sodipodi:role="line"
         id="tspan2049"
         x="174.72278"
         y="890.52026">Tz'utujil</tspan></text>
    <text
       xml:space="preserve"
       style="font-size:24px;font-style:normal;font-variant:normal;font-weight:normal;font-stretch:normal;text-align:start;line-height:125%;writing-mode:lr-tb;text-anchor:start;fill:#f0c;fill-opacity:1;stroke:none;stroke-width:1.5;stroke-linecap:butt;stroke-linejoin:miter;stroke-opacity:1;font-family:Arial Narrow"
       x="288.75067"
       y="792.37695"
       id="text2051"
       sodipodi:linespacing="125%"><tspan
         sodipodi:role="line"
         id="tspan2053"
         x="288.75067"
         y="792.37695">Sakapultek</tspan></text>
    <text
       xml:space="preserve"
       style="font-size:24px;font-style:normal;font-variant:normal;font-weight:normal;font-stretch:normal;text-align:start;line-height:125%;writing-mode:lr-tb;text-anchor:start;fill:#f0c;fill-opacity:1;stroke:none;stroke-width:1.5;stroke-linecap:butt;stroke-linejoin:miter;stroke-opacity:1;font-family:Arial Narrow"
       x="282.32208"
       y="812.20239"
       id="text2055"
       sodipodi:linespacing="125%"><tspan
         sodipodi:role="line"
         id="tspan2057"
         x="282.32208"
         y="812.20239">Achi</tspan></text>
    <text
       xml:space="preserve"
       style="font-size:24px;font-style:normal;font-variant:normal;font-weight:normal;font-stretch:normal;text-align:start;line-height:125%;writing-mode:lr-tb;text-anchor:start;fill:#f0c;fill-opacity:1;stroke:none;stroke-width:1px;stroke-linecap:butt;stroke-linejoin:miter;stroke-opacity:1;font-family:Arial Narrow"
       x="315.50681"
       y="831.26257"
       id="text2059"
       sodipodi:linespacing="125%"><tspan
         sodipodi:role="line"
         id="tspan2061"
         x="315.50681"
         y="831.26257">Poqomchi</tspan></text>
    <text
       xml:space="preserve"
       style="font-size:24px;font-style:normal;font-variant:normal;font-weight:normal;font-stretch:normal;text-align:start;line-height:125%;writing-mode:lr-tb;text-anchor:start;fill:#f0c;fill-opacity:1;stroke:none;stroke-width:1px;stroke-linecap:butt;stroke-linejoin:miter;stroke-opacity:1;font-family:Arial Narrow"
       x="331.2211"
       y="886.63818"
       id="text2063"
       sodipodi:linespacing="125%"><tspan
         sodipodi:role="line"
         id="tspan2065"
         x="331.2211"
         y="886.63818">Poqomam</tspan></text>
    <text
       xml:space="preserve"
       style="font-size:32px;font-style:normal;font-variant:normal;font-weight:normal;font-stretch:normal;text-align:start;line-height:125%;writing-mode:lr-tb;text-anchor:start;fill:#f0c;fill-opacity:1;stroke:none;stroke-width:1px;stroke-linecap:butt;stroke-linejoin:miter;stroke-opacity:1;font-family:Arial Narrow"
       x="321.63126"
       y="741.48669"
       id="text2067"
       sodipodi:linespacing="125%"><tspan
         sodipodi:role="line"
         id="tspan2069"
         x="321.63126"
         y="741.48669">Q'eqchi'</tspan></text>
    <text
       xml:space="preserve"
       style="font-size:16px;font-style:normal;font-variant:normal;font-weight:normal;font-stretch:normal;text-align:start;line-height:125%;writing-mode:lr-tb;text-anchor:start;fill:#f0c;fill-opacity:1;stroke:none;stroke-width:1.5;stroke-linecap:butt;stroke-linejoin:miter;stroke-opacity:1;font-family:Arial Narrow"
       x="119.80476"
       y="835.67792"
       id="text2041"
       sodipodi:linespacing="125%"><tspan
         sodipodi:role="line"
         id="tspan2043"
         x="119.80476"
         y="835.67792">Sipakapense</tspan></text>
    <text
       xml:space="preserve"
       style="font-size:4px;font-style:normal;font-weight:normal;fill:black;fill-opacity:1;stroke:none;stroke-width:1px;stroke-linecap:butt;stroke-linejoin:miter;stroke-opacity:1;font-family:Bitstream Vera Sans"
       x="94.212509"
       y="439.92548"
       id="text3949"><tspan
         sodipodi:role="line"
         id="tspan3951"
         x="94.212509"
         y="439.92548"
         style="font-size:20px;font-family:Arial Narrow">(Veracruz)</tspan></text>
    <rect
       style="opacity:1;color:black;fill:none;fill-opacity:1;fill-rule:nonzero;stroke:black;stroke-width:3.00000072;stroke-linecap:butt;stroke-linejoin:miter;marker:none;marker-start:none;marker-mid:none;marker-end:none;stroke-miterlimit:4;stroke-dasharray:none;stroke-dashoffset:0;stroke-opacity:1;visibility:visible;display:inline;overflow:visible"
       id="rect3459"
       width="642.85724"
       height="800.00031"
       x="4.8110914"
       y="163.14287" />
    <path
       id="path7323"
       style="fill:none;fill-rule:evenodd;stroke:black;stroke-width:1px;stroke-linecap:butt;stroke-linejoin:miter;stroke-opacity:1"
       d="M 36.365492,196.00536 L 36.365492,229.59293 M 105.56094,211.91526 L 105.56094,211.91526 L 36.365492,211.91526 L 120.20815,211.91526 M 172.98863,196.00536 L 172.98863,211.91526 L 172.98863,211.91526 L 104.80333,211.91526 M 120.20815,211.91526 L 120.20815,229.59293"
       sodipodi:nodetypes="cccccccccccc" />
    <text
       xml:space="preserve"
       style="font-size:22px;font-style:normal;font-weight:normal;fill:black;fill-opacity:1;stroke:none;stroke-width:1px;stroke-linecap:butt;stroke-linejoin:miter;stroke-opacity:1;font-family:Bitstream Vera Sans"
       x="177.28177"
       y="222.52185"
       id="text7335"><tspan
         sodipodi:role="line"
         id="tspan7337"
         x="177.28177"
         y="222.52185">100</tspan></text>
    <text
       xml:space="preserve"
       style="font-size:16;font-style:normal;font-weight:normal;fill:black;fill-opacity:1;stroke:none;stroke-width:1px;stroke-linecap:butt;stroke-linejoin:miter;stroke-opacity:1;font-family:Arial;font-stretch:normal;font-variant:normal;text-anchor:start;text-align:start;writing-mode:lr;line-height:125%"
       x="95.53009"
       y="205.5451"
       id="text7339"
       sodipodi:linespacing="125%"><tspan
         sodipodi:role="line"
         id="tspan7341"
         x="95.53009"
         y="205.5451">M</tspan></text>
    <text
       xml:space="preserve"
       style="font-size:16px;font-style:normal;font-variant:normal;font-weight:normal;font-stretch:normal;text-align:start;line-height:125%;writing-mode:lr-tb;text-anchor:start;fill:black;fill-opacity:1;stroke:none;stroke-width:1px;stroke-linecap:butt;stroke-linejoin:miter;stroke-opacity:1;font-family:Arial"
       x="63.675522"
       y="237.9106"
       id="text7343"
       sodipodi:linespacing="125%"><tspan
         sodipodi:role="line"
         id="tspan7345"
         x="63.675522"
         y="237.9106">Km</tspan></text>
  </g>
</svg>
