<?xml version="1.0"?>
<svg xmlns="http://www.w3.org/2000/svg" viewBox="0 0 330.82 291.82"><title>Outline_map_of_Central_America</title><g id="svg2"><polygon points="198.09 290.53 198.32 289.79 197.63 288.94 195.93 287.74 196.17 288.56 197.31 289.4 197.58 290.39 197.66 291.82 199.07 291.82 198.09 290.78 198.09 290.53" fill="none"/><path d="M174,289.81l-.13-1.14-.17-.7-.23-.51.54-.54.23-.39-.08-.33-.85-1.09-.53-.33.3-.4.68-.55.46-.68.33-.68.67.28.37-.43.29-.63.84-.65-.33-.72-.59-.77-.42-.42.25-.18.11-.05.18,0v-.28h-.54v-.28l.45-.08.3-.28.33-.77h.27l.56.45.77-.32.8-.45.6.07h.25l-.06-.53.14-.26L180,276l.21-.18.37-.63.14,0,.49.05,1.19-1.26-.09-.34-.21-.25-.51-.37-1.62,1.66,0-.13v-.12l0-.06h-.19v-.25l.46-.51.28-.21.34-.11-.27-.28,0,0-.05.08-.08.08-.13.08.1-.34,0-.11.45-.13v-.25h-.27v-.3l.66-.54.13-1.37L181,267.6l-.59-.71-1.31-.59-1.31-.22-.59.41H177l-1.1-.92-.31-.34.19.06.23-.11.1-.22-.23-.28-.29-.07-.76.07h-.32l-1.17-.45-.91-.54-1-.46L169.9,263v-.3l.9-.23,1.67-.77.95-.11-.16-.25-.11-.16-.19-.08-.35-.06v-.28l1.95-.12.5.12.21.31-.05.37-.1.3.08.13.16.07.51.48h.25l.29-.3v-.25l-.45-.46.43-.29.85-.13.8.05.27.12.35.36.32.07.26-.1.11-.23,0-.27-.19-.23v-.3l.58-.22.17-.45-.14-.53-.32-.47-.29-.21-.66-.28-.29-.2-.33-.35v-.1l.2,0,.27-.2.6-.57.35.2.42.38h.79L181,257l-.11-.59-.43-.56-.48-.36-.37-.16-2-.83-.77-.12-.56-.31-.31-.72-.37-1.46-.72-1.09L170.63,246l-.35-.25-.19-.09-.6-.43-.13-.17-1.38-.39-.61-.59L166,242.48l-1.06-.56-1.35-1.44-1.72-1-.57-.52-.16-.33-.37-1.21-1.23-.55-1.48-1.44-3.64-1.61-.62-.46-.53-.62-.44-1.28-4.74-3.65-.77-1-1.06-2.4-.43-.37-.4-.21-1-1.06-.61-.89-.68-1.28-.13-.6-.19-.56-.46-.47-1-.77-.93-1.16L139,214.48l-1.39-3.81-.4-.61-1-.86-8.11-5-.51-.63-2.23-1.29L124.14,201l-2.73-1.24-.1-.94.45.61.78.52.9.37.87.17-1-1.09-.5-.41-.55-.17-.34-.26-.89-1.7h-.25l.4,1.5-.64-.56-1-1.32-.77-.73-.49-.2-2.47-1.93-.33-.34-.18-.42-.21-.71-.12.22-.3.39-.13.2-4.35-5-.51-1.07.17.2.16.11.48.25v-.26l-.19-.06-.35-.24v-.25l-.1-.41-.67-.56-.9-.48-.79-.21v.25l1,.69.55.52,0,.45-.4-.05-.59-.45-.88-.86-4.64-2.79-1-.86-.58-1v-1.19l.75-1.41,1.11-1,1.15-.71.84-.91.19-1.55h.25l-.12.87-.13.24h.44l.54.07.46.14.18.19.19.12,1,.86.25.14.72,1,.17.13.51.31.13.11,0,.27-.08.61,0,.26,1.29,1.29,1.69.36,4.07-.24v-.31l-2.06,0-1-.11-.45-.37.4-.64,1.92-1,.27-.19.39-.27.12-.52.29-.4.42-.29.54-.2v-.25l-1.09,0-.79-.16-.6-.34-.52-.59-.25-.4-.06-.22.07-.64.25-.1,1.21-.19.41-.12-2.3-.61-1.3-.14-.73.23h-.25l-.1-1.57-.54-1.6-.77-1.42-.77-1-.25-.66,0,0-.1-.18-.23,0-.26.06-.19-.05-.28-.37-.13-.33.07-.33.34-.39.33-.21.66-.31.36-.31.79-1.12.29-.26.53.12.63-.15,1.27-.5,0-.34v-.24l0-.28-.58-.53-.27-.19-.36-.08-.8.15-.32-.07-.37-.38-.68.49-.21.22-.19.39-.08.55.14.29,0,.23-.39.32-.25,0-1.37,0-.62.15h-.35l-.38-.16v-.28h.56v-.25l-.75-.16-.77-.28-.69-.06-.52.5h-.27l.08-.39.44-1-.54-.21-.13-.44.15-1.15-.21-.61-.49.1-.55.47-.39.46.36,1.15-.58,1.07-1.07.8-1.12.3-.71-.14-.92-.56-.76-.26-.06-.27v-.28L97,161.3l-.38,0-.27-.06L95.8,161l-.32-.18-.2-.34-.3-.86-1.11,1.93-.29,1.14.73.5.47.18,1.31,1.26.75.5.06.24v.49l-.32.87-.79.62-2.94,1.48-.8.63-.14.65.91.64-1.4.32L86,170.69l-1.29-.25h-.26l-.67.27-3.41.29-3.67-.57-1,.32-.5-.18-.58-.13v-.25l.9-.06.06-.62-.48-.77-.72-.51.15.31.48.66.18.41-1.43,0-.7.07-.6.25.38.16.31,0,.37-.11h.56v.3l-.92.38-1,0-.79-.49-.24-1,.39.17.15.11.54-.56v-.25l-.68-.31-.74-1-.5-.31.13.58.23.48.11.43-.18.42-.57-.33L68.32,168l-.72-.38L67,166.48l-.31-.19-.46,0L64.87,166h-.58l-1.6.3-2.24.06-.49.22.27.21.29.16.28,0,.27-.11,1.11.26,3.18-.35.36.06.51.28.28.26.49.6.33.25v.3l-.74-.13-.54-.1L64.87,168v.28l3.25.66,1.69.55.76.75-.27.49-.71-.13-.79-.41-.52-.39-.59-.3-10.22-1.9L56.24,167l-9.82-4.57-4.71-2.88L39,158.34l-2.9-.69H34.76l-1-.24-6.45-.31-2.84-.81-6.24-.58-1.3.21-.45-.25-.3-1.72-.32-.66-.43-.51-.45-.39-1.19-.79-2.53-1.26L9,148.85,5.44,147.1l-1.38-.3L0,145V291.82H174.76ZM102.18,163.34l.52-.76.36-.23.48.19.39.11,1.07-.22.58,0v.25l-.69.32.47,1.6-.6.57-1.83-.59-.84-.51Zm0,2.43.5-.06,1.18,0,.13.3-.08.63-.41.58-.88.16-.48-.08-.16-.07-.17-.13v-.25H102l-.15-.22-.24-.45-.15-.21Z" fill="none"/><path d="M76.86,5.6l0,.84L76.68,8l.28.85.15.78,0,.44.21.93.16.51.37.2.85.28.48.62.32.78.19.89.1,1.28.23,1-.09.47-.25.1h-.35L79,17.3l-.43.39-.54.62-.46.7-.19.65.18.75.77,1.2.16.7h.07l.13.11.1.18,0,.24-.15,0-.52-.07-.17,0-.5.39-.2.25-.09.36L77,24l-.2.2-.19.27-.09.43,0,.48.19.64,0,.4-.36,2.87-.25.44-.35.36-.39.51L75,32.3l-.21.5-.14.72.27,1-.17.38-.28.35-.27,0-.12-.63,1.24-4.61.67-.7.25-.41-1,.53-1.07,2.66-.86,1,.26,0,.55.26-.26.13-.21.06-.25,0L73,33.44l.08.35.1.17.22,0h.41v.25l-.42.28-.3.41-.07.48.25.52-.74.55-.81,1.6-.75.34-.08.22-.07,1,0,.2-.23.13h-.21l-.13-.07v-.06L70,40l-.08.09,0,.1-.16.2-.51,1.21-.15.2-.31.17-1,1.35-.13.22-.16.53-.11.19,0,.12.06.35,0,.11-.11,0-.32-.05-.11,0-.17.1-.48.11-.19.1-.08.16-.19.64V44.23h-.27l-.27.89-.55.12L64,44.91l-.25-.52-.15-.23-.34,0-.33.06-.14,0,0,.15,0,.71-.11.28-.29.09-1.33.19-.24.15-.18.19-.29.16-.52.07-.56.26-.17.64.09,1.57-.15.84-.37.62-.56.38-.69.12-.2.11L57,51l-.2.31-.17.71-.24.2-.34.14-.38.21-.44.37-.2.21-.17.25-.1.45,0,.45-.11.35-1,.3-.69.41-.66.54-.44.55-.14,1,.82,1.69-.14.95.55.25,1.34,1.11,1.37-.34,1.75.39,1.35.79.15.85.9.14,4,2.49-.49,1.83.09.27h1.07l.43-.16.12-.35-.05-.3-.09,0v-.17l-.13-.14-.13-.19v-.3l.2-.06.37,0,.36-.06.15-.36.16-.65.35-.45.37-.35.23-.35,0-.63-.3-1,0-.63h.29v.56H67l.47-.31,1.15.22.56-.22-.91-.84-.51-.38-.73-.33-.31-.41-.26-.46-.27-.35-1.71-.95-.49-.6.57-.66.61.35,1.12.48.46.28,1.15,1.2.83.47,2.07,1.72,4.09,1.89,1.33,1.2.43.19,1.74,1.52,1.38.59.25.1,1.8,1.27,1,.3,1-.46,2.3-2.43,1-.61-.21-.64.4-.13,1.56.21,2.31-1.38.28-.55.09-.4L91.34,62l-.44-.12-.36-.29-.16-.29.14-.13,1.67,0,.67-.2.65-.46,1.17-.39,3.4-.23.71-.2.23-.57.56-.18.71.09.67.23,1.75,1.05.68.06v-.25l-.41-.39.41-.46,1.37-.83-.75,1-.27.63.34.28.22.29L108,64l1.2.51,1.27-.25.22-.23.4-.66.19-.19.38,0,1,0,.21-.16.23-.69.6-.36.79-.08,4.09.93,3.56,1.24,3.67.4,4.22,1,1.41.12,1.51-.16,2.43-.71.71-.12.1-.12.66-.51.16-.07.22-.18.49.16.47.28.19.14,1.69.14,7.73-.67,1.32,0,1.21.49,1,.64.62.16,1,.06.78-.13.66-.3,3.77-2.32,1-1.07.45-.36,1.37-.55,1.37-.33,5.66-.21.5-.14.4-.2,1.54-1.11.84-.92.35-1-.63-.82-2.5-.36-1.21-.3.2-.45,1-.09,3.29.92.32-.21L173,55l.44-.22.64.48,1.11.34,2.19.29.55.13,1,.59.63.13.44.2.11.47V58l.1.45h.3l0-.28.08-.13.12-.07.09-.08.28-.47.53.26.64.5.59.27.58.13,2.54,1,1.46.34,1.64.18,5-.43,6.25-.27,1.38-.26,1.18-.46,3.53-2.3,2.76-.09,4.69,1.36,6.56,2.76,1.38.28.83.44.33.27-.72.43-.1.73.17.84.3.64.39.45.3.15.8,0L224,64.2l.35-.69.44-.48.22.27.35.85.84.21,2.06-.11-.13-.77.9-.31h1.93l-.78-.56-6-1.15-.51-.25.29-.28.49,0,6.27,1.25,5.37.43.5.15.32.34.32.58,1.25.64,2.26,2.54,4.6,3.63,4.05,3.89,2.23,1.76,2.65,2.38.73.43.72.31,1.39.23.35.19.27.39,0,.32-.26.2-.59.08-.69-.27-1.51-1.17-1.11-.39-.76-.52-.37-.17h-1.2l-.52-.11-.46-.46.18-.07.17-.12.19-.06-.35-.5-1.3-1.46h-.27l-.43.21-.53-.31-.56-.47-.51-.24-.81.1-.37.26-.29.35-.56.37-.25-.16-1.1-.39.51-.44.21-.25.09-.27-.19-.09-.42-.07-.47,0-.29.06-.11.44.25.7.46.74.5.58-.1.09,0,0,0,.05-.09.14h-.27l-1.18-2.29-.44-.48-.45-.08-.52.1-.68.23-.47,0-.68-.16-.47-.06.31.92.25.31.73.26v.34l-.13.45-.09.49h.27l.13-.62.79-.37.36-1.13.37-.12.37.23.54,1.32.64,1.07.23.92-.85.38-.42.46.31,1,.67,1.11.67.71,1,.54.85.2.37-.38-.37-1.19.53.42.47.55.19.62-.33.65.54.67.77.13,1.94-.24V84h-.39l-.26.07-.44.22v.25l.33.69.49.63.65.46.83.19.72-.09.92-.24.89-.35.61-.43-.51-.48L251.85,84l-.29-.27-.13-.28-.16-.2-.37-.08-.42,0-3-1.06-.49-.32L246,80.45l-.46-.34.35-.31.39-.2.88-.32,3.54,1.54.57.83.22.43.55.39.66.3,1.14.24.46.32.41.46.34.5-.26.17-.32.29-.23.09v.26l.65.14.55-.4.43,0L256.2,86l-.09,1.51.09.4.29.29.3,0,.2-.29v-.53h.29l.35.79.33-.19.67-1.18.62-.36.82-.24,1.41-.18.18-.2-.09-.91.06-.33.26-.17.26,0,.29.09L265,85l.68-.14v.26l-.24.24,0,.16.14.18.08.3V87.2l-.21.61-.46.26-.45-.18-.21-.69-.14-.21-.35-.13-.41-.08-.34,0-.24.16-.21.37-.25.6-.18.21-.18.13-.13.2-.05.43.09.37.23.07.26-.12.23-.18-.2-.34,0-.27.08-.24.16-.26H263l.08,1,.27.71.5.28.78-.32.21-.23.36-.59.24-.26.31-.2,1.77-.64v-.14l-.18-.43-.17-.25-.23-.19-.22-.23-.17-.41-.13-.58-.29-.77-.49-.46-.74.37-1.17-.7-.59-.13-.69.3-.25-.27.09-.16.16-.4-.64-.08-1.72-.63-.35-.26-.41-.46-.83-.26-.61-.36.23-.74.65-.32.62.34.56.53.47.28.42.14,4.29,2.21,5.32,2,2.05,1.49.47.76.64,2.61.69,1.63,1.05,1.54,1.21,1,4.89,1.93-.29.42-.73.33-.36.38-.58-.68-.48.48-.38.85-.29.46-.51.25-.48.58-.36.69-.14.56-.1.19-.51.49-.2.29-.1.39-.07.87-.1.4-.32.5-.48.37-1.36.54.09-.24.11-.2.34-.39v.3l.13-.23.08-.18,0-.2v-.27l-.3.19-.13,0-.35-.22v-.25l.47-.22.45-.06.39.14.31.39,0-.77-.43-1.05-.11-.81-.24-.82-.57-.13-.64.24-.47.29-.78.73-1.75,2.24-.41,1,.38-.41.13-.17.55.43.43,1.67.26.37.53.31.56.55.61.19.6-.75-.29-.25-.73-.45-.33-.13.45-.25.45.14.42.39.33.55,0-.92.29-.29.35.35,1.55,7.1.08.23.38.76.33,1.94,1.91,5.56.21,1.59-.19,1.39-1.07,2.56-3.3,5.28-1.42,1.73-.2.66-.28.5-1.88,1.32-.8,1.12-.55,1.29-.95,3.77L267,147.58l-.93,4.63.06,2-.17,1v.78l-.82,2-.71,2.68-.44,5.22.08,1,.28.57-.3.25.23.5,2.19,13.29-1.33,10.7v2.37l.13.39.57,1.17.38,1.28,1.11,1.56.26,1-.1,1.24-.41.66-.81.27-1.27,0-1,.2-1,.36-.93.15-.79-.44.3-.28.82-.59.24-.26,0-.47-.15-.64-.25-.56-.87-.78.07-2.65-.19-1,.15-.08h0l0,0,.08-.15h.25l1.4.45,1-1.26.34-1.83-.53-1.23v-.31l.34-.38.14-.55.07-2.26.06-.09.17-.14.18-.2.13-.28-.14-1.09-.76-.64-1.06-.26-1,.08-.82.48-.35.75,0,.82.3.72.88.47.08.08v.14l.07.68.06.29.17.28.18.11.15.16.06.42,0,.68-.09.28-.18.31.15.19.41.64-1.24.73-2.11,1.78-1.27.54-1.71.18-.72.24-.3.53v2.11l0,.05.16-.09.33,0,.48.1h.32l.27.09.31.38.27,1.81-.15.86-.28.82-.13.78.29.74.74.36,1.24-.27.21.63-.05.4-.2.79-.05.47.09.25.18-.37.63-2.08.24-.52.35-.22.78.12.17.3-1.85,3.73-.88,4.81.29,5.2.3.87-.27.17-.3.11.17-.84-.28-.69-1-1.24-.42-1,.34-.44.58-.4.31-.93-.2-.69-.52-.79-.7-.68-.74-.36-1.21.13.06.6.63.37.52-.55h.29l.67.7.27.43.12.53-.15.69-.6.88-.06.65-.23.78-.71,0-1.63-.5-.22.14.49.29,1,.4.23.32.16.43.09.51,0,.53-.09.37-.35.74-.08.3.07.22.13.24.09.25-.05.27-.2.25-.23.12-.2.07-.15.11-.74,1-.22.15-.34.12-.39.3-.33.37-.17.35.52.35.64.58.53.63.34.77.29.22.39.14.4.05.58-.07,0-.18-.17-.27-.05-.31.26-.79.22-.41.35-.16.66,0,.38.33,1.84,7.4.09,1.43,0,.52,0,.32-.15.25-.32.3-.07-.12-.56.11-.55.19,0,.09-.32.13-.39.59-.36.14h-.48l-.39.06-.33.15-.32.31-.4,1.25-.38,1.9-.54,1.43-.84-.13H254l-1.26,1.62-.37.62-.2.7v4.1l1.21,5.32.86,2.12,1.19,1.85.38,1,1,1.52.33.33.72.45.6,1.64.7-.13-.15-.44.57-.08.85.18.65.34.79.93,1,1.88.72,2-.09,1.28-.58-.72-1-2.6.67,3.24-.07,1.31-1.15,1,.61-.12.41-.28.38-.35.52-.34-.18.21,0,.25.07.29.15.34.15-.48.17-.93.22-.51,1.92,5.37,2.41,5.74,2.84,4.8,6,7.89h53.91V0H96l.6,1.74-.19.3-.06.4v1h-.27V2.84l-.22.07L95.72,3l-.11.16-.09.21,0-2.46L95.43,0H92.36l-.1.35L92,2.17l-.1.29-.2.41-.18.51,0,.57-.56-.55.15-.14,0-.13,0-.14,0-.15L91.29,2,91.66.55l0-.55h-14l-.46,1.48ZM294.35,122.1l.09,0,0-.1v-.16l.64-.35.25-.46.14-.46.3-.39.64-.32H297l.35.33.13.66-.27,1.13-.72.33-2.1-.18h0l-.16,0Zm-9.61,88.51.55-.29.45.37-.15.27-1.15,1.27-.07-.91ZM169.61,38.7l.41-.58.71-1.29.5-.63.62-.53.52-.25,1.46-.05.39.13v.29l-.27.28-.76.31-.29.76-.42.17-.81.21-.73.51-1.32,1.22Zm-25.69,3.78,1.7-.87,2.14-.86,2.52-1.47,1-.42,3.15-.71h.71l2.11.48,1.5,0,.32.06-.64.23-.74.09h-1.56l-.7.12-.27.12-.55.37-.24.1H154l-.68-.11-.36,0-.63.24-2.67,1.34-1.74,1.16-.7.29-1.47.36-.73.25-.58.36-.94.88-.55.37-.25-1.25Zm-15.26,9.28,2.16-1.11.59.22.57-.09.53-.15.47,0,.25.26-.34.67L133,52l-.74,0-.62.15-1.07.43-.56.07-.85,0-.62-.25Z" fill="none"/><polygon points="171.66 37.52 172.47 37.31 172.89 37.14 173.18 36.38 173.94 36.08 174.21 35.79 174.22 35.5 173.83 35.37 172.37 35.42 171.85 35.67 171.23 36.2 170.73 36.83 170.02 38.12 169.61 38.7 169.61 39.25 170.93 38.03 171.66 37.52" fill="#dddedf"/><polygon points="129.99 52.66 130.55 52.59 131.62 52.16 132.24 52.01 132.98 52.04 132.88 51.58 133.23 50.91 132.98 50.66 132.51 50.63 131.98 50.78 131.41 50.87 130.82 50.66 128.66 51.76 128.52 52.39 129.14 52.64 129.99 52.66" fill="#dddedf"/><polygon points="176.19 228.46 176.39 229.77 172.58 229.9 173.15 229.7 173.39 229.65 173.02 229.25 172.8 228.95 172.75 228.66 172.85 228.26 173.94 227.42 174.31 227.74 174.78 227.69 175.69 227.42 175.99 227.72 176.19 228.46" fill="#fefee9"/><polygon points="183.29 238.88 182.06 239.18 181.29 239.13 180.62 238.9 179.09 237.99 179.53 237.49 180.2 235.91 180.72 235.22 181.51 234.87 183.19 234.85 183.69 234.65 183.99 234.94 184.21 235.07 184.7 235.32 185.12 235.64 185.35 236.03 185.47 236.8 185.45 237.47 185.59 238.06 186.14 238.56 186.61 238.41 187.08 238.51 187.57 238.71 188.19 238.83 188.64 238.9 188.79 239.15 188.89 239.55 189.28 240.09 189.58 240.71 189.43 241.28 188.99 241.73 188.47 241.9 188.29 241.97 187.77 242.34 187.65 242.44 187.33 242.39 186.93 242.2 186.54 242.15 185.67 241.63 184.93 239.37 183.99 238.83 183.29 238.88" fill="#dddedf"/><path d="M171.27,229.64l0,.26.07-.06,0-.2ZM279.8,95.94h0l-.52-.21h0L275,94l-1.21-1-.15-.22-.9-1.33L272,89.89l-.64-2.61-.47-.77-.32-.23L268.84,85h0l-5.28-2-2.63-1.35h0l-.16-.08-.14-.07-1.34-.69h0l-.19-.07-.05,0h0l-.12,0-.47-.28-.08-.08-.48-.45-.49-.26-.06,0-.07,0h-.05l-.6.29-.18.59,0,.06,0,.1.61.35.17.06.08,0,.09,0,.09,0,.33.11h.07l.07.08h0l.33.38.2.15.05,0,.08,0,0,0,.63.22.12,0h0l0,0,.05,0,.12,0h0l0,0,.62.22h.31l.1,0,.2,0h.07l0,.11-.05.1-.07.19-.09.15.23.26h0l.69-.3.15,0,.06,0,.09,0,.08,0h0l.12,0h0l.21.12.62.37.25.15h0l.06,0,0,0,.25-.12h0l.06,0,.4-.2h0l0,0,.46.43.12.32.17.46,0,.09.11.48.15.37,0,0,.06.07.17.17.22.18.13.19,0,.06.18.44v.14l-.23.08-1.21.43-.33.12-.31.2-.24.26-.36.6-.16.17L263,89l-.78.32h0l-.27-.14-.19-.11h0l-.1-.28h0l-.16-.43-.08-1h-.29l-.1.17-.06.1-.08.23,0,.27.2.34-.23.19-.26.12h0l-.12,0h-.07l-.09-.38v-.07l0-.35.13-.19v0l.17-.12.18-.22L261,87l.12-.28.21-.37.23-.16h.36l.36.07h0l.08,0h0l.19.08.08,0,.14.2.09.3,0,.06.1.33.38.15,0,0h0l.46-.26,0-.06.1-.28.09-.27V85.43l-.08-.3L263.9,85l0-.16,0,0,.21-.22V84.3h0l-.64.12h0l-2.57-.49-.28-.09-.22,0-.27.17-.05.33.08.92-.18.19-1.41.18-.82.25-.62.35-.67,1.18-.26.15-.07,0v0h0L255.8,87l-.1-.22h-.29v.54l-.2.29h-.31l-.28-.28,0-.17-.05-.23.09-1.51-.06-.27-.1-.39-.13-.53h0l-.29.05h-.1l-.55.4h0l-.37-.08-.24-.06V84.3l.17-.07.06,0,.32-.28.26-.18-.34-.5-.4-.45,0,0,0,0,0,0-.38-.26h0l-.31-.06-.79-.17h0l-.65-.29-.55-.4-.12-.23-.1-.2-.57-.82L249,80.2,247,79.34l-1.4-.61h0l-.87.32-.39.21-.3.25-.05,0,.18.14.28.21.71,1,.21.3.36.23.13.08.56.2h0l2.38.85h.11l.39,0,.19,0,.11,0h.07l.16.2v0l.07.13.06.12.28.28,1.66.89h0l0,0,.47.44-.61.44-.88.35-.93.23h0l-.51.07-.19,0h0l-.79-.17h0l-.19-.13-.2-.14-.05,0-.2-.14,0,0-.25-.32h0l-.22-.28L247,84v-.25l.44-.21.26-.08h.39v-.28h0l-1.48.19h0l-.41.05h-.07l-.7-.11-.36-.44-.18-.22.13-.26.2-.39-.19-.63-.47-.54,0,0-.15-.12-.35-.29v0h0l.36,1.14L244,82h-.08l-.76-.18-1-.54-.42-.44h0l-.24-.26-.67-1.12-.31-1,.43-.45.84-.39-.23-.91-.63-1v0l-.54-1.33h0L240,74h0l0,0h0l-.35.12,0,.08-.33,1-.07,0-.72.34-.13.62h-.27l.09-.48.13-.45V75h-.08l-.36-.13-.29-.1-.25-.31,0-.08-.28-.85.43,0h0l.13,0,.51.12h0l.44,0h0l.68-.22.48-.1h0l.4.06h.05l.44.49.06.12.39.75.5,1,.22.44h.28l.09-.14,0,0,0,0,.09-.08h0l0,0-.48-.57-.46-.74h0l-.23-.62,0-.07.11-.44.26,0h0l.47,0h0l.34,0h0l.17.08h0l-.09.26-.21.25-.26.23h0l-.23.2h0l.42.15.08,0h0l.14.06.34.12H243l.22.15h0l.56-.38.29-.35.14-.1.23-.15.8-.1h0l.34.16.13.07h0l.47.38.09.08.32.19.1.06h0l.07,0,0,0,.43-.22h.27l.47.52.84.94.34.5-.19.06-.17.13-.17.07.45.45.45.09h1.27l.37.16.54.38.22.15,1,.36.08,0,1.5,1.18.3.12.2.08.13,0h.06l.45,0,.12,0h0l.26-.21,0-.31-.06-.09-.09-.13-.12-.18h0l-.16-.09-.15-.08h-.07l-.69-.11-.63-.11H254l-.1,0-.1,0-.1,0-.36-.16-.51-.3-.13-.08-.09-.05,0,0L250,75.62l-2.24-1.77L243.7,70l-4.6-3.63-.29-.33-2-2.2h0l0,0-1.17-.62-.18-.31-.15-.27-.32-.33h-.06l-.45-.14-5.36-.42h0l-6.23-1.24-.23,0h-.26l-.29.29.47.23,0,0,1.16.22,4.81.91h.07l.11.08.36.26.27.19,0,0h-1.93l-.9.31.13.77-1.47.09-.59,0h-.05l-.32-.09h-.06l-.1,0-.31-.08h0l-.16-.38-.19-.46-.22-.27,0,0-.09.09-.33.37-.35.69h0l.07.34-.8,0h0l-.27-.13h0l-.35-.41h0l0,0-.3-.63L220.5,62l.1-.73.72-.44-.33-.27h0l-.09-.05h0l-.09,0h0l-.59-.32h0l-.21,0h0l-.2,0h0l-.24,0h-.1l-.55-.11-5.83-2.46-.69-.29-1.53-.45-.83-.24-2.33-.68h0l-2.73.1-3.53,2.29-1.18.46h0l-1.35.27h0l-6.21.26-5,.44h0l-.57-.06h-.13l-.33,0-.57-.06-.64-.15-.19,0-.22,0h0l-.39-.09h0l-1.31-.5-.57-.22-.63-.24-.42-.1-.06,0-.1,0h0l-.33-.15-.23-.11-.6-.47,0,0-.53-.25-.28.47-.09.08-.12.07-.08.13,0,.27h-.3l-.1-.44v-.55l-.11-.47-.38-.17,0,0-.13,0h-.11l-.4-.09-.38-.22-.6-.36h-.05l-.09,0-.13,0-.29-.07-1.94-.25-.25,0-.45-.14-.66-.21h0l-.62-.47h0l-.42.21-.87.15-.32.21h0l-3.26-.9-1,.08-.06.15-.13.3,1.2.3.46.07,1.93.27h.11l.28.36.33.44,0,0-.35,1-.84.92L167.3,59l-.4.21-.5.14-5.66.2-1.37.34-1.37.54-.45.36-1,1.08-3.76,2.32-.67.3h0l-.75.12h0l-.21,0h-.32l-.39,0h0l-.6-.15-.92-.59-.08,0h0l-1.18-.48h0l-1.3,0-7.73.66-.75-.06-.2,0h-.38l-.35,0h0l-.19-.13h0l-.45-.26h0l-.44-.15-.22.18-.16.08-.65.5-.11.13-.71.11-2.43.72-1.51.15-1.41-.12h0l-4.18-1-3.68-.4h0l-2-.68L117,62.27l-.52-.12-3.57-.81h0l-.77.08-.59.36-.24.69-.21.17-1,0-.38,0-.19.2-.4.66-.22.22-1,.2-.28.05h0l-.23-.1,0,0-.14-.06-.76-.32,0,0-.39-.35-.18-.16h0L103,60.34l-.26-.23-.15-.19-.07-.09-.25-.21-.09-.07v0l.26-.6.76-1-.06,0h0l-1.24.75-.07,0-.4.47.4.38v.26l-.67-.06h0L99.81,59l-.43-.26-.28-.1h0l-.08,0-.08,0-.06,0-.16,0-.51-.07H98l-.27.08-.29.09-.23.58-.71.2-3.4.22L91.93,60l-.65.47-.66.2-1.68,0-.14.13,0,.06h0l.12.21.23.19.07.05,0,0,.18,0h.11l.16.05.22.18-.09.4-.28.55L87.31,64l-.8-.11-.14,0-.22,0-.4-.06h0l-.37.13.21.64-1,.62L82.3,67.61l-.89.39-.16.07-1-.3h0l-.92-.65h0l-.84-.6,0,0-.07,0-.13-.06h0l-1.34-.58-1.74-1.52h0l-.4-.17-1.33-1.2L69.26,61l-2.07-1.72-.71-.4,0,0h0l-.07,0-.45-.47-.7-.73h0l-.45-.26-.29-.13-.83-.36L63,56.5l-.57.67.17.2h0l.32.38h0l.26.14.3.17.07,0,.9.5.18.1.27.34.26.46,0,0,.28.38.73.33.48.36,0,0,.44.41.47.44-.56.21h0l-1.12-.2-.47.3h-.25v-.55h-.29v.1l0,.53.3,1-.05.62-.23.36-.37.35-.35.44-.15.66-.16.36-.36,0h0l-.12,0h-.22l-.2.06V66l.13.19.13.14v.17l.09,0,0,.31-.12.34-.43.16H61.81l-.09-.27.05-.17.44-1.65-.5-.31-1.89-1.18-.36-.22-1-.6-.28-.18-.9-.15v0l-.07-.39-.08-.44h0l-.38-.22-.39-.23L55.82,61l-1-.23h0l-.1,0-.1,0-.47-.11h0l-.62.16-.71.18,0,0-.74-.62-.57-.48h0l-.52-.24,0-.24.1-.71-.82-1.69.14-1,.44-.56.67-.54.68-.41,1-.29.11-.35,0-.45.1-.45.17-.25.2-.21.44-.37.38-.22.34-.13.24-.21.18-.7.19-.32.24-.25.2-.11.69-.13.56-.38.37-.61.15-.84-.09-1.58.17-.63.56-.26.53-.07.28-.17.18-.19.24-.15,1.33-.19.29-.09.11-.27,0-.72,0-.14.1,0h.06l.12,0,.19,0h.13l.17,0h0l.15.23.14.28.11.24.33.2.19.12h0l0,0,.55-.13.1-.31v0l.17-.52h.27v1.69l.1-.36.08-.29.08-.16.19-.1.48-.1.17-.1.08,0h0l.09,0,.21,0h.13l0-.12,0-.34,0-.12.11-.2L66,43l.12-.22,1-1.34.31-.18.16-.2.5-1.21.16-.2.05-.1.08-.09.23-.15h0v.07l.11.06H69l.23-.13,0-.2.07-1,.08-.23.75-.33L71,35.93l.74-.55-.25-.51.07-.49.3-.41.27-.18.13-.09h0v-.25h-.11l-.3,0h0l-.19,0v0l-.08-.14L71.46,33l0-.1.22.09.15.06h.11l.1,0h0l.2-.06h0l.26-.13h-.07l0,0-.09,0L72,32.63l-.1,0H71.7l.2-.22.66-.77.21-.52.86-2.13.63-.32.35-.18h0l0,0-.25.41-.67.69-1,3.6-.27,1v.05l.11.57h0l.27,0,.28-.36.17-.37-.12-.47L73.08,33l.14-.71.22-.51.45-1.66.39-.51.35-.35.25-.44.36-2.88,0-.39L75,24.88l0-.49.09-.42.19-.28.2-.2.08-.19.09-.37.2-.25.5-.39.13,0h.21l.35,0,.15,0,0-.23-.11-.19L77,21.76h-.07l-.16-.7L76,19.86l-.18-.74.19-.65.46-.71.54-.62.43-.39.4-.14h.34l.25-.1.09-.48-.22-1-.1-1.28-.2-.88-.32-.79-.48-.61h0l-.09,0-.73-.24h0l-.34-.2-.16-.5-.21-.94,0-.44-.15-.77-.28-.86.14-1.59,0-.85L75.66.94l.46-1.49H-1.58v145l1.58.71,2.45,1.1,0,0,.72.16.17,0,.49.11.73.36,2.82,1.38.95.63.29.19.33.22.65.43,0,0,.82.41.16.08.17.09.09,0,1.29.64,1.19.78.22.19.23.21.43.51.32.65.26,1.5,0,.23.44.24h0l1.05-.16.22,0h0l1.92.18.68.06.16,0,3.48.32.46.13h.05l.34.1,2,.56,1.56.08h.3l.64,0,.54,0h.16l3.25.16,1,.23h1.38l2.9.69.33.15.51.22.29.13,1.56.69,4.67,2.86,0,0,1.32.61L49,163.79l2.46,1.15,3.22,1.5,1.2.56h0l.65.12,3.14.58,2.21.41,1.55.29,2.68.5.58.29.13.1.39.3.35.18.08,0,0,0,0,0h0L68,170l.67.11h0l0,0,.26-.45-.7-.69,0,0,0,0h0l-1.34-.43h0l-.32-.1-1.11-.23-.56-.11-1.58-.33v-.28l.26.08.06,0,.12,0,.21.06.06,0,.47.14.54.1.7.11h0v-.3l-.33-.25-.13-.16-.11-.14-.25-.29h0l-.28-.26h0l-.48-.25-.36-.06-3.18.34h0l-.42-.1-.33-.08-.31-.07h0l-.27.12-.28-.05h0l-.25-.15-.27-.21.17-.08.32-.14,2.21-.06h0l1.6-.3h.58l.38.08.1,0h.06l.77.16.34,0h.12l.31.19.1.18.38.69.1.17.07.13.45.25.27.14,1.06.27.6.15h0l.48.27.06,0,0,0v0l.16-.4-.11-.42-.23-.49-.13-.58.27.17.23.14.47.67.27.38.23.1.42.19h0v.26l-.36.37-.18.18,0,0-.12-.08-.39-.18v0l.19.77,0,.13,0,.08.28.18.48.3h0l.78,0h.24l.92-.38v-.31H72l-.37.11-.29,0h-.07l-.33-.15.27-.11.17-.07.16-.07L72,169h.24l1.3,0h.13l-.1-.23-.08-.18L73,168l-.14-.28,0,0,.43.3.29.21L74,169l-.06.62h0l-.59,0-.31,0v.25l.22,0h.11l.23.05h0l.46.16h0l1-.31.46.07,3.18.48h0l3.41-.29.67-.26h.27l1.24.24h0l5.45.37,1.4-.32-.61-.42-.3-.21,0-.13.11-.52.8-.64,2.94-1.48.79-.62.32-.87v-.48l-.06-.24h0l-.15-.1-.1-.07-.13-.09-.35-.24-.46-.45-.85-.81-.47-.17-.73-.51,0-.12.26-1,.94-1.63.16-.28v0l.31.87,0,0,.17.3.32.17.23.09.32.12h.12l.18.05h.08l.29,0h0l.14.12v.28l.06.28.71.24h0l.9.56h0l.16,0h0l.53.1.13,0,1-.26,1.07-.79.58-1.08-.36-1.15.39-.46.55-.46.21-.05.26-.06h0l.22.62L102,159.8l0,.12.08.29v0l.18.07.33.13h0l-.21.49-.23.53,0,.13,0,.25v0h.27l.41-.41.1-.09.46,0,.2,0h0l.27.09,0,0H104l.07,0,.17.06.15,0,.13,0h0l.09,0,.11,0,.35.08h0v.25h-.56v.27l.21.09.14.07h.38l.31-.07.27-.07h0l.73,0h.75l.13,0h0l.39-.32,0-.22-.14-.3.08-.54.19-.4.21-.22.66-.47,0,0,.35.37,0,0,.28.05h0l.8-.15.34.07h0l.27.19.13.12.28.26.17.16,0,.28v.23l0,.35-1.27.49-.62.16-.24-.06h0l-.29-.07h0l-.27.26-.22.31-.57.81-.36.3-.66.31-.33.22-.34.38-.07.34.11.27,0,.05.28.37.16,0h0l.27,0h0l.18,0h0l.1.17,0,0h0l.25.65.77,1,.77,1.41.54,1.61.07,1,0,.5v0h.25l.74-.22.54.06.75.08,1.19.31,1.08.29h0l-.23.07-.18.05-1.21.18-.25.1-.07.65.06.21.25.4.18.2.34.39.56.34h0l.75.14h1.13V176l-.29.11h0l-.24.1-.42.29-.29.39-.12.52-.39.27-.27.19-1.92,1-.35.56h0l0,.08.14.12.07,0,.24.19.43.05.6.07h.15l1.89-.05h0v.3h0l-1.59.1-2.46.15h0l-.34-.07-1.32-.29-1.29-1.29h0l0-.25.08-.61,0-.26h0l-.11-.11,0,0-.26-.16-.21-.13-.17-.13-.21-.28-.51-.68-.2-.12,0,0-1-.83,0,0-.16-.1,0,0-.14-.15,0,0-.46-.14h0l-.49-.07h-.44l.13-.23,0-.19.09-.68h-.25l-.08.65-.11.91-.84.9-1.15.71-1.11,1-.75,1.4v1.19l.51.88.07.12,1,.85h0l4.65,2.8.87.85.59.45.15,0h.06l.19,0v-.46l-.46-.42-.1-.09-.27-.17-.78-.52v-.26l.33.09.17,0,.13,0,.16,0,.79.43.11.06.24.2.43.35,0,.09.08.33v.25l.08.05.25.16,0,0,.08,0h0l0,0h0v.25l0,0,0,0-.3-.16-.1,0-.16-.11-.1-.11-.07-.08v0h0l.48,1,3.92,4.56.41.47,0,0,.13-.2.22-.28.08-.1.07-.12,0,0h0l0,0,.07.24.14.46.17.41h0l.33.35,2.47,1.92.46.2h0l.4.37.37.36.86,1.09.17.22.62.54h0l0,0-.41-1.5h.25l.15.28.64,1.22h0l.1.19.34.26.55.16.36.29.15.12,1,1.09h0l-.24,0-.57-.11-.48-.2-.43-.17,0,0h0l-.13-.08-.18-.12-.42-.28-.24-.32-.21-.29v0h0v.11l0,.51,0,.26,2.69,1.21,0,0,.84.9.38.41,2.07,1.2.15.09.2.25h0l.3.37,8.11,5,.65.56.34.3.39.61,1.39,3.82,1.49,2.6.68.85h0l.24.3.93.74,0,0h0l.46.46.19.57.13.6.68,1.27.61.88h0l.61.61.44.45.37.2h0l0,0,.4.34,1.06,2.41.53.67.24.29,4.32,3.32.42.32.44,1.28.22.25v0l.3.35.62.46,3.64,1.61,1.46,1.43h0l.86.39.33.15,0,0,.37,1.21.13.26,0,.06.57.52,1.62.93.11.06.95,1,.4.43.93.49.1,0h0l1.21,1.48.12.15.58.56h0l0,0,1.35.38h0l.13.17.61.44.15.07h0l.23.16.12.09,4.23,4.79.72,1.08.37,1.46.2.46.11.26.52.3h0l.25,0h.07l.45.07.24.1.88.38.85.36.37.15.24.19.24.18.41.54,0,0,.11.59-.46.43h-.81l-.42-.38h0l-.14-.08,0,0-.14-.08-.6.56-.27.2-.2,0v.09l.33.36.25.18,0,0,.09,0,.07,0h0l.48.2h0l.27.2.32.47.14.53-.17.44-.58.22v.3l.19.23,0,.27-.11.24-.18.06-.08,0h0l-.14,0h0l-.15,0h0l-.33-.34-.27-.13h-.2l-.6,0-.85.13-.14.09-.28.2.44.45v.25l-.29.3h-.25l-.51-.47-.16-.08-.08-.13v0l.09-.26,0-.19,0-.17-.21-.32-.24-.05-.13,0-.07,0H173l-.85.05h0l-.29,0h-.26l-.42,0H171v.28l.32.05h0l.19.09.12.15.15.25-.52.06H171l-.15,0h0l-.08,0-.51.24h0l-1,.49-.65.16h0l-.24.06v.3l.44.06.14,0,.23,0,.67.09h0l.11.05.92.4.06,0,.81.5,0,0,1.14.43h.35l.76-.08h0l.24.06h0l.23.28-.1.23h0l-.22.1h-.11l-.05,0h0l.29.33,0,0,.19.15.29.24.61.51h.25l.37-.25.22-.16,1.29.22h0l.31.14.1.05.16.07.17.07.24.11h0l.23.11.06,0h0l.58.7h0l.23,2.67-.13,1.38-.66.53v.3h.27v.26h0l-.42.12h0v.12l-.1.31v0l.13-.07.08-.09,0-.07,0,0h0l.27.27h0l-.32.11-.28.22-.46.51v.25l.17,0h0l0,.07V274l0,.11v0L180,272.5h0l.29.21.18.12h0l0,0,.21.26.05.2,0,.13-.91,1-.28.29-.29,0h-.2l-.14,0-.37.64-.21.18-.22.14-.13.25.05.53h-.25l-.6-.07h0l-.77.44-.77.33,0,0-.54-.43h-.27l-.33.76-.29.28-.37.07-.09,0V278h.54v.27l-.18.05-.11.06-.25.17.42.43.59.76.33.73-.84.64-.29.63-.37.43h0l-.65-.26-.33.67-.46.69-.68.55-.22.29-.08.11.32.19.21.13.85,1.1.08.32-.23.39-.54.54.23.51.17.7.13,1.15.64,1.55.18.45h22.89l0-.45-.05-1-.27-1,0,0-.37-.28-.74-.55-.05-.16-.18-.62h0v0l1.53,1.08.14.1,0,0,.11.14.05.06.53.66-.23.73v.26l.55.58.43.45h77.84l-.34-.45-5.61-7.43-2.84-4.81-2.41-5.74-1.32-3.7-.3-.81-.3-.85v0l-.14.32L262,268l-.17.93-.15.48,0-.05-.13-.28-.07-.3,0-.24.18-.21-.11.07-.2.13-.21.13,0,.05-.33.31-.41.28-.6.11h0l1.13-1,0-.36.05-1-.38-1.83-.25-1.23v0l0-.14,1,2.6.13.16.41.52,0,.05.09-1.29-.72-2-1-1.87-.25-.3v0l-.49-.57,0-.05-.14-.07-.51-.27-.82-.16h0l-.57.08.15.43-.7.13v0l-.18-.49-.41-1.13-.37-.23-.35-.22-.33-.32-.06-.09-.89-1.44h0l-.37-1-1.19-1.85-.85-2.11L250.63,247v-4.11l.2-.69.37-.63,1.25-1.61h.25l.6.1.21,0h0l.54-1.43.38-1.9.4-1.26.32-.3.33-.16.39-.06h.48l.36-.13.39-.59.29-.13h0l0-.09.55-.18.53-.11h0l.06.08,0,0,.31-.3.15-.25.05-.31,0-.53-.09-1.43-1.71-6.88-.13-.52-.37-.33h-.05l-.62,0-.35.15-.22.42-.26.78.05.32.17.26,0,.19-.16,0-.42.05-.4-.05h0l-.07,0-.08,0h0l-.21-.08-.29-.21-.09-.22-.25-.56-.53-.63-.32-.29-.32-.29-.52-.35.06-.11.11-.24.33-.37.39-.29.34-.12.23-.16.73-.95.15-.11.2-.08.23-.11.2-.25,0-.28-.09-.25-.13-.23-.07-.23.08-.29.35-.75.09-.37,0-.53-.1-.5-.16-.44-.23-.31h0l-.16-.07-.77-.32-.48-.3.17-.1,0,0,1.62.49h.71l.23-.78,0-.38,0-.27.29-.42.31-.46V213h0l.14-.61-.12-.54-.07-.11-.2-.31-.56-.58-.11-.12h-.29l-.51.55h0l-.61-.36,0-.2,0-.4,1.19-.13h0l.74.36.25.25h0l.44.43,0,.06.05.07.43.66.07.24.13.45-.09.28-.22.65-.3.21-.28.19-.34.44.42,1,.36.46.55.69h0l.08.09.28.69-.17.82h0l.3-.11.27-.16-.3-.88-.1-1.83,0-.37L258,214l-.11-2.05v0l.1-.57.77-4.2,1.24-2.49.61-1.24-.17-.31h0l-.15,0-.13,0H260l-.4-.05-.35.21-.24.53-.2.66-.43,1.42-.18.37,0,0-.07-.21.05-.46.2-.79,0-.29v-.12l-.08-.23-.13-.39h0l-.25.05h0l-.24.05-.71.15h0l-.71-.35-.11-.29-.18-.45.13-.77.28-.82.15-.87-.27-1.81h0l-.3-.37h0l-.11,0-.14,0h-.32l-.48-.09-.33,0-.16.08,0,0v-2.11l.29-.54.72-.24,1.69-.18h0l1.27-.54,2.11-1.78,1.24-.73-.41-.63-.15-.2.18-.3.09-.28,0-.69-.06-.42-.15-.16-.18-.11-.17-.28-.06-.28-.07-.69v-.13l-.09-.09,0,0-.32-.17-.51-.28-.12-.27-.19-.44,0-.83.35-.75.82-.48,1-.08,1,.26h0l.33.29h0l.39.34h0l.14,1.09-.13.28-.18.2-.16.14L263,187l-.07,2.27-.13.54-.35.39v.3l.36.84.17.39L263,192l-.13.68-.16.89-1,1.27h0l-.54-.17-.65-.21-.19-.06h-.25l-.08.14,0,0h-.05l-.14.08.06.34.12.67-.07,2.59v.06l.48.43.37.34h0l.25.56.15.64,0,.48-.24.26-.82.58-.15.15-.14.14.76.42h0l.93-.15.21-.08.06,0,.68-.25h.1l.1,0,.81-.17,1.27-.05.81-.26.41-.66.1-1.24-.26-1-1.11-1.55-.38-1.29-.43-.88v0l-.13-.26-.13-.39V191.6l.79-6.39h0l.46-3.74.07-.56-.58-3.5-1.61-9.8-.23-.5.3-.25-.28-.56-.07-1,.43-5.22.71-2.68.5-1.23.32-.79v-.78l.17-1-.06-2,.94-4.63,1.52-5.12.95-3.76.55-1.29.8-1.13,1.88-1.31.28-.5.2-.67,1.42-1.72,2.49-4,.81-1.3.27-.65.8-1.91.19-1.39-.21-1.59-1.91-5.56-.33-1.94-.37-.75-.09-.23-1.16-5.34-.16-.7v-.06l-.13-.58-.09-.43-.35-.35-.07.07-.22.22,0,.61V106l0-.07-.28-.45v0l-.14-.13-.28-.27-.14,0,0,0-.07,0-.06,0h0l-.09,0-.24.13-.05,0-.16.09.21.09.13,0,.5.31.23.14.18.15.1.09-.11.14-.25.32-.24.3-.25-.08h0l-.05,0-.06,0-.06,0-.14,0-.57-.55,0,0,0,0-.07,0-.06,0-.32-.2-.24-.33,0,0-.43-1.66-.44-.36-.11-.08-.13.18-.38.4v0h0l.32-.75h0l.07-.15,1.75-2.24.79-.72.46-.3.64-.24.22.05h0l.27.07h0l.22.75,0,.06.11.82.43,1,0,.47v.29l0,0h0l-.07-.09-.19-.24h-.06l-.08,0h-.05l-.22-.09h0l-.18,0h-.12l-.12,0-.15.07-.19.09,0,0-.09,0v.25l.24.15.08.06h0l.11,0h0l.26-.16,0,0v.27l0,.2h0l-.08.18-.13.22v-.3l0,0-.3.35-.11.19-.08.21v0h0l1.36-.54.33-.25.15-.11.28-.44,0-.07.1-.4.07-.87.1-.39.2-.29h0l.49-.48.1-.19.14-.56.36-.69.48-.58.51-.24.29-.46.3-.67.08-.19.48-.48.17.2.25.29.14.17h0v0l.36-.38.31-.14.42-.2.29-.42Zm-249-20.15.67-.37.5-.57.52-.52.89-.25,2.5.08.42-.08.44-.27.42-.57.15-.54.32-.4.89-.17.25-.08.55-.37.32-.07.35.07.44.35.42.1.72-.1,1.48-.54.67-.13.6-.22,2.17-2,.33-.52.27-.3.27-.22.62-.25.67-.44L49,67.3l.22-.15.08-.39v-.3l0-.22.15-.2.37-.25.15-.07H50l0,0,.05-.19.67,0,.74-.32.7-.47.32-.5.25-.69.49-.22.42.27,0,.79-.42.65L52,66.29l-.27.47-.13.37-.32.3-.39.07-.82-.42-.32.25-.25.39-.22.28-1.07.17-.29.12-.45.7-.17.47.22.19,0,.18-.57.79-.15.3v.27l0,.27.39,1.36.1.65V74.8l-.3.13-3.63,3-1.17.59-1.16.3-1.19,0-3.39-.54v.29l.4,0,.12,0-.59.72-1,.87-1,.39L33.81,80l-.2-.57.22-.47.15-.47L33.51,78v-.25l.3-.57-.47-.49-.79-.27-.65.19h-.25l-.09-.32-.1-.17-.23,0-.42,0Zm145.26,167,0-.06-.68-1.17-1.09-4.16-.27-.67-1.24-2.1-.33-.29-.31-.28v.57l-.32-.28-.1-.17-.1-.17-.07-.37,0-.42.2.09.37.08.25.1-.52-2.38-.3-.67.2-.19,0-.2-.07-.2-.15-.25h-.27l0,.26v.24l0,.22,0,.2.25.77-.57-.43-.42-.45-.92-1v0l-.26-.52.13-.37.27-.4.32-.32.64-.35V227l-.27-.74,0-1.88-.28-1-.36-.23-.35-.22-.45-.39,0-.06.32-.66.3-.16.21-.11.06,0,.22.87h.27l-.39-1.21-.38-.35h0l-.7-.12-.3-.35v-.08l0-.66.07-.84.1-.55.47-1.28,1.27-2.53.74-.92,1.06.33.37-.09.7-.16.86-.59.8-.4,0,.07.62.47,2.62,1.44.9.34h0l.32.22.09.26.06.18.17.25.42.05.45-.05.29-.12V216h.25l.92-.64,1.12.85.14.11,1.58,1.93.1.12.1.13.27.25.77,1.21.43,1,0,0,1.9,1.93.89-.86,1.69.34,1.75.9.86.6.21.14.34.49.25.67.11.17.26.38.57.24.47.08.2.14.12.08.22.27.33.4.32.17.87.15.12,0,.17.06,1.54,2.4,1.46,1.76.1.15,0,.11.06.18.07.13.13.1.32.09.1,0,.31.32.35.35.3.4.32,1v0l.45.47.84.65.15.12,1.28,1.58.3.38.7.44.19.12,1.08,1.57.24.34.34.2.25,0,.13,0,.09,0,.27.27.13.32.1.42.05.79.18.78v0l.47.47.24.19.28.23.4.65-.07.14-.25.13,0,0-.1.17.22.34.47-.1.37,0,.37.22.77.77.37.37.37.59.25.92v3.19l.12.87.5,1.31,0,.49,0,.25-.35.4-1.71,1.29-1.26,0-.22.1-.22.17-1,.42-.4.1-.81-.15-.36-.44-.26-.32h-.07l-.8-.19-.64,0-7.13-1.65-.64,0-.65.12-.64.05-.94-.42h-1.29l-.32-.17-.4-.44-.39-.43,0,0-.38-.31-1.46-.52-1.36-.3-1.64-.15-3.49-1.26-.57-.4-.47-.49-.49-.37-1.09-.67-.59-.25-.67-.2-1.31-.12Zm-21.8-32-.6-.15h-.1l-.1,0-.12-.17,0-.2V210l.07-.25.13-.1.57-.19.39-.5.25-.69v-.84l-.57-1.34-.28-.11-.86-.36-1.28.25-1.09.74-.45.54-.39.35-.47,0-1.27-.92-3.51-1.46-1.16-.67-.26-.36-.46-.63-.15-1.61,0-.84.08-.3.17-.24.27-.18h.1l.15,0,.2.2.09.31v0l.29.37.72.28.89.12.8-.07.91-.62.6-.94.69-.84,1.19-.38.59-.07.92-.37.66-.1.75-.25.47-.47.47-.32.64.2.25-.2.27-.05.16,0,.11,0,.28.18.27,2.18-.13.32.1.21,0,.06,1.14,1.14.12.09.22.16.42.61.72,3,0,.32.07.79.87-.84,1-1.19,1.08-.71.75.38.32.16.27.79,0,.89-.45,3.05-.08.26-.17.55-.34.55-1.24.47Zm119.17-89.47.66.74.38.57.06.21.11.39-.25.49V124l.47.57.27.74.05.82-.24.67h0l-.59.48L274,127l-.2-.29-.19-.28-.26-.21L273,126l-.18.2-.17,0-.47-.22-.09-.3-.08-.25,0-.24v-.32l.07-.35.2-.22.17-.18.08-.12v-.69l-.2-.47-.62-.75v-.29l1,.32.4.25.22.24,0,0h.3l-.15-.23-.05-.07-.32-.3-.2-.19-.09-.14,0-.06.13-.5.24,0,.28.19Z" fill="#dddedf"/><polygon points="53.68 63.59 53.63 64.38 53.21 65.03 52 66.29 51.73 66.76 51.6 67.13 51.28 67.43 50.89 67.5 50.07 67.08 49.75 67.33 49.5 67.72 49.28 68 48.21 68.17 47.92 68.29 47.47 68.99 47.3 69.46 47.52 69.65 47.57 69.83 47 70.62 46.85 70.92 46.85 71.19 46.88 71.46 47.27 72.82 47.37 73.47 47.37 74.8 47.07 74.93 43.44 77.95 42.27 78.54 41.11 78.84 39.92 78.81 36.53 78.27 36.53 78.56 36.93 78.54 37.05 78.56 36.46 79.28 35.42 80.15 34.4 80.54 33.81 79.95 33.61 79.38 33.83 78.91 33.98 78.44 33.51 77.97 33.51 77.72 33.81 77.15 33.34 76.66 32.55 76.39 31.9 76.58 31.65 76.58 31.56 76.26 31.46 76.09 31.23 76.04 30.81 76.06 30.81 75.79 31.48 75.42 31.98 74.85 32.5 74.33 33.39 74.08 35.89 74.16 36.31 74.08 36.75 73.81 37.17 73.24 37.32 72.7 37.64 72.3 38.53 72.13 38.78 72.05 39.33 71.68 39.65 71.61 40 71.68 40.44 72.03 40.86 72.13 41.58 72.03 43.06 71.49 43.73 71.36 44.33 71.14 46.5 69.11 46.83 68.59 47.1 68.29 47.37 68.07 47.99 67.82 48.66 67.38 48.98 67.3 49.2 67.15 49.28 66.76 49.28 66.46 49.3 66.24 49.45 66.04 49.82 65.79 49.97 65.72 50.02 65.72 50.04 65.69 50.09 65.5 50.76 65.52 51.5 65.2 52.2 64.73 52.52 64.23 52.77 63.54 53.26 63.32 53.68 63.59" fill="#fff"/><polygon points="95.52 3.4 95.61 3.19 95.72 3.03 95.86 2.92 96.09 2.84 96.1 2.98 96.09 3.4 96.36 3.4 96.36 2.44 96.42 2.04 96.61 1.74 96.01 0 95.43 0 95.56 0.94 95.52 3.4" fill="#dddedf"/><polygon points="143.51 44.49 144.45 43.61 145.03 43.25 145.76 43 147.24 42.63 147.93 42.35 149.67 41.19 152.34 39.85 152.97 39.61 153.33 39.58 154.01 39.69 154.36 39.68 154.6 39.58 155.15 39.21 155.42 39.09 156.12 38.97 157.68 38.98 158.42 38.89 159.06 38.66 158.74 38.6 157.24 38.63 155.13 38.15 154.42 38.15 151.27 38.86 150.28 39.28 147.76 40.75 145.62 41.61 143.91 42.48 142.71 43.61 142.96 44.86 143.51 44.49" fill="#dddedf"/><polygon points="104.77 165.16 105.36 164.58 104.89 162.98 105.58 162.66 105.58 162.41 105 162.43 103.93 162.65 103.54 162.54 103.06 162.35 102.7 162.58 102.18 163.34 102.09 164.05 102.93 164.56 104.77 165.16" fill="#dddedf"/><polygon points="101.89 166.65 102.04 166.87 101.77 166.87 101.77 167.12 101.94 167.25 102.1 167.32 102.58 167.4 103.46 167.24 103.87 166.66 103.94 166.03 103.82 165.73 102.64 165.71 102.14 165.77 101.5 165.99 101.65 166.2 101.89 166.65" fill="#dddedf"/><polygon points="91.29 1.98 91.2 2.84 91.14 2.99 91.13 3.13 91.08 3.27 90.93 3.4 91.49 3.95 91.53 3.38 91.71 2.87 91.91 2.46 92.01 2.17 92.26 0.35 92.36 0 91.71 0 91.66 0.55 91.29 1.98" fill="#dddedf"/><polygon points="297.17 121.95 297.44 120.82 297.31 120.16 296.96 119.83 296.44 119.82 295.8 120.14 295.5 120.53 295.36 120.99 295.11 121.45 294.47 121.8 294.48 121.96 294.44 122.06 294.35 122.09 296.45 122.28 297.17 121.95" fill="#dddedf"/><polygon points="285.59 210.96 285.74 210.69 285.29 210.32 284.74 210.61 284.37 211.32 284.44 212.23 285.59 210.96" fill="#dddedf"/><polygon points="294.35 122.09 294.17 122.08 294.33 122.1 294.35 122.09" fill="#fefee9"/></g><g id="Layer_7" data-name="Layer 7"><path id="polyline211" d="M203,209.78l-.46.81-.08.83.26.79.55.75.71.52,4.38,1.72,1,.72.49.19.56-.23.37-.41.73-1.5.33-.45.39-.33,1.73-.88.65-.15,1.63,0,1.15-.11.53,0,.54.26.87.91.35.27.91.31,1.89.09.95.27,1.05.56.52.14.65-.07.46-.17.37-.25.65-.65.89-.63,2.07-.77,2.21-1.4,1.45-.44,1.52-.16,1.49.06.73.19,2.13.94,1.46.08.44.22.18.3.22.74.15.24.36.15,1.15.24.52,0,.3.06.16.16.13.19.2.14.35.1,1.23.14h.63l.3,0,.28.13.59.41.19.09.66,0,.29-.17.22-.31.46-.44.27-.09.69,0,.31-.06.14-.2v-.27l.05-.24.33-.12.69-.14,1.27-.51.79-.14,1.39.16.63.62.84,2.11M-7.62,99.87l.65-.13.3.25.24.47L-6,101l1.31.23,3.28-.53,1.14.58.66-.16,2.13-.17.46-.09.2-.15L4.45,99.3,4.79,99l.35-.16.38,0,.43.27.59-.34,1.09-.19,5.27,0,.65.27.22-.41.39,0,1.14.18.4-.16.3-.33.33-.22.46.16.54-.46,1.92,0,.83-.6.27.28.25-.2.64-.77.05-.16,1-.1.56-.12.38-.19.21-.14.74-.29.24-.14L24.5,95l.07-.13.11-.1L26,94.14l.34-.3h.24l.12.18.24.19.18.2.45-.66,1.1-.68,4-1.62,1.82-1.19.79.18.93-.61,1.55-1.53,1-.49,2.15-.57.91-.49h.27l.48.51.89-.18L45.59,86l.54-.22.42-.07.28.14.09.42.51-.36.31,0,.28.2.39.12.44-.27,1.34-1.54,1.56-.52.34-.16.12-.35.06-.5,0-.49-.16-.32.28-.2.13-.14.13-.22-.18-.11v0l-.08-.15,1.33-.28h.56v-.25l-.09-.18,0,0,0-.07.07-.28.46.31.18-.17.09-.41.23-.42.42-.21.39-.1.17-.18-.27-.45.44-.32-.09-1.47.41-.76.61-.25.92-.14.9,0,.57.14.43-.35.66-.26.72-.09.63.14-.25-.27v-.26l.61-.06.73-.17.66-.26.41-.36h.29l.27.24.77.13.31.18.12-.18.18-.09.25,0,.29,0-.19.33.3,0,1.49-.21h.37l.46.09L69.07,74l-.17-.87h.29l.31.25.19-.13.08-.38-.06-.52.18.11.11.14h.25l-.1-.28L70,72.05l.22,0,0-.06v-.17l.14.09.28.11.15.08.24-.5.47-.46.52-.25.39.1.32-.46.82-.69.21-.51.15.07.28.11.13.09L74.06,69l.53-.16.43-.06.43.06L76,69l.83,0,.63-.23.59-.32.68-.28.24.3.26-.54,0-.44.13-.37.47-.17m12.44,62.49,1.56-4,.1-.57-.16-.2-.32-.12-.38-.29-2-2.6L89.18,118l-.22-.2-.58-.36-.23-.25-.09-.31-.15-.89-.13-.41-1.26-2-.75-2.86-.85-1.79L83.7,107.3l-1.59-1.41-3.59-2.08-.3-.24-.21-.35,0-.41.14-.42.24-.33.3-.15-.37-.87,0-1.3.37-2.55.51-.68.2-.35.12-.41v-.4l-.09-.85,0-.42.46-1.57.22-.45.45-.52,2.07-1.47,1.66-.82,3-2,.31-.28.23-.34.28-.73.26-.37.72-.42.7.06.73.22.81.05.11-.25.06-.28v-.28l-.07-.27.48-.5.1-.19v-.14l0-.14,0-.13.07-.12.18-.1.53-.14.23-.14.36-.28.19-.09.16-.12.27-.34,1-1.61.58-.49.15-.33-.15-.56-.39-.39-.48-.25-.27-.23.25-.36h.45l.42.3.32.06.11-.72-.2-.53-.35-.49-.14-.57.43-.75.41-.27.21-.57.16-.67.26-.55.12,0,.23.09.29,0,.25-.15,0-.14.3-1,.09-.13-.6-.94-1-.83-.65-.73.57-.66-.72-.15.22-.39,1.21-.8.56-.15.36-.2.23-.41,0-.46L98,65.53l-.24-.2-.32.08-.16-.53-.6-.69v-.42l.21-.37.62-.63.29-.41.36-1,.23-.38.44-.4.39-.24.22-.38-.13-1m66.23,124.3-1.34.6-.46,0-.48-.17-.42-.29-.44-.17-.5.16-.47.73-.13,1,.12,1,.31.83.48.55.62.56.55.6.41,1.11.38-.1.38-.18.17.16.19,0,.41.28.38.32.1.11.92.76.31.23.34.2.36.14.38.06,1.24,0,.45.08.59.26,1.21.31,1.21-.2,1.09-.6.84-.92.57-.28v-.19l-.07-.25-.1-.15-.1.06.82-1.93.74-.4,4.12-1.44.09-.4H181l.31.15.3.1.27-.18,1-1.2.94-.45.86.06L188,186l.33.36.25.37.34.29.61.12.38.13.88.57.62.13.34.12.41.32.33.4.13.39.28.14,1.3.46.75.4.63,0,.29.22-.06.11-.21,1h.27l.67-.44.45.07,1.24,1.4.25.06.12-.39.16-.16.36.15.36.25.2.17H200l.15-.26.11-.32,0-.39,0-.44.67.21.31-.31,0-.6-.4-.66.53-.5.13-.08v-.12l.28-.24.33-.21.12,0,.17-.6.14-1.13.2-.49.76-.69h.74l.73.39,1.17.89.19.08.17-.19,1.05-1.54.36-.34.75-.26.21-.14.13-.3-.06-.67.07-.29.69-.45.25-.23.4-.61.28-.67.8.15.9-.62.83-.8.58-.39.47,0,.75-.21.54,0,.51.13.23.17.21,0,.42-.32.22-.09.17,0,.12,0,.07-.61.17-.4,0-.14.05-.58.25-1.35.16-.35.84-.92.32-.27.4-.08.93,0,.34-.23h.25l.26.43.48.56.52.5.41.2.47-.14.19-.28.13-.28.27-.18h.35l.3.14.26.22.17.21.63-.28,1.1-.28,1-.11.47.24.08.28.22.2.31.12.39.07,1.18.19.27.12.82,1,.55.41.26-.49.32-.08,1.86-1.44,1-1.19,1-.88,1.2-.61,3.23-.59.84-.38.36-.64.09-.41h.23l.3.17.31.11.32-.16-.42-.35-.61-.29-.22,0-.12-.09-.31-.13-.14-.08v-.26l.37-.33.09-.18.11-.34h.24l.34.16,1-.28.62.12-.12-.18-.22-.41-.2-.22.75.14.61.24.48-.11.32-.85.27.19.18,0,.36-.21h.28l.35.22.16-.17-.05-.41-.22-.47.42.07.35.24.24.33.1.33.19.21.91.33.27.15.54,1.54.18.27.42.3.73.38-.19.1-.15.12-.1.15-.07.21h.27v.26l-.1.44.94.21.26.6v.82l.06.54.3.53.71.76-.34.68.56.63.89.47.66.18.59.38,1.29,1.47.4.07.52.29.74,0,.65.15.28.86.45.13,2.82.26v.08l.1.16.19.12.23-.06.11-.21-.1-.18-.2-.12-.19,0-.17-.08,0-.17.14-.18.14-.1h.15l.29.2.24,0,.19.07.61.34.41.12h.47l.87-.1M38.25,113.76l.25.3.33.74.23.32.36.23.45.2.38.31.16.52.7,1,.14.42-.52,3.78-.18.38-1.49,1.27.12.64-.51,1.47-.15.82-.35.38-2.09.85-.2.24-.16.29-.25.23-.47.07-.47-.15-.25-.28-.13-.28-.11-.12-.7.09-.69.28-.49.51L32,129l.19.24.39.68.26.71-.18.33.1.45L32,134l.12.87.44.4.59.12h.59l.47-.12.17-.28.13-.28.33-.12.46-.09.36-.2.39-.29.41.08.72.41.64.09.13,0,.38.17.28,0,.17-.08.51-.37.3-.1.82.35H41l.25-.5.56.44.44.11.54-.18m15.56,2.69,1-.5,3-.46,1,.07,3,.95,1.74.13.39.17.35.34,0,.13v.1l-.06.05-.17,0,.24.54,0,.48-.13.49-.08.6.11.38.43,1.07,0,.65-.39.65-.17.15.24.51-.05.48-.28.4-.43.28.08.56-.37.57-.36.69.11,1,1.22,1.22.46.71-2.49,1.81-.23.71-.58.81-.8.5-.87-.2-1.14,1.41-.06.26-.64.1-.23.33-.09,1.23-.34,1.2L60,161.17l-.17.43-.1.51-.05,1.26-.09.27-.7.68-.37.55-.24.44-.37.31-.78.11-.47.17-.3.41-.15.58M50.46,139h.61l.66.08,1.17,0,1,.1.54-.14.34-.48m3.54-1.26-.59.25-1.22.58-.5.17-.38.11-.26.1-.59.05m-4.35.47-.14,0h-.13l-.14,0-.15,0-1-.47-.15-.1-.18-.16-.21-.31-.11-.22-.06-.19,0-.1,0-.1v-.11l0-.17h0l0-.07-.07-.11-.87-1L47,135.4l-.06-.07-.67-.48L46,134.6l-.2-.11-1-.37-.18-.09-.18-.09-.13-.07-.14,0h-.12l-.7.37-.56.32M-7.29,42.91l.58-.56.24-.65-.34-.52h-.27v.3h-.27l.1-.57.38-.21.54,0,.6.17-.45-.75-.05-.23v-.54l-.08-.58-.23-.06m-1.38,5.45v-.1l0-.11.24.16.33.09.24-.1V43.7l-.24.09-.58-.21m.28,1.53-.15-.22m-.12,1.33.33,3-.26-.4m-.1,1.49,0,1.18.07,2.09.08-.38m-.18,1.28M163.6,209.63l.78.37,1.18.26.52.48.6.9.19.21.4.24.71.32.27.3,1.87.55H172l.6.32.25.51m43.65,39.75.41-.29.61,0,.54.23.41.29h.25l1.59-.63,2.77,2.06,1.46-.46.36-.07.4.3.33.46.14.4,1.62.71.92.25.51.2.22.23.12.35.28.38.36.34.32.19.54-.95.67-.05,1.52,1,.38.19.09.3v.41l.08.51.18.29.52.67.11.28.42.4,1.84.71.42.29.36.4.75.39.69.58.14,1-.55.29-.16.12-.18.31.08.23.16.17.09.14.87.71.21.27.44-.32h.62l.63.09.47-.08.74.73.45.17.46-.35h.27l.48.48,1-.64.68.16.47-.47.53-.09.44.3.18.69,2.39,1.91.27.13.36.05.39-.07.55-.39.27-.09,1.08.22.15-.1.81-.95,2.63-1,2.8-.68,1.39-.72.12-1.1-.37-1.45,0-1.74V262l0-.2.29-.21.23,0h.25l.31,0m-44.57-7.77-1.06.24-1.73.15-1.53-.92-1.33-1.3-5.33-3-2.41-2.25-9.72-11.46-.79-1.15-1.79-2-4.59-3.94-1-2-1.8-1.84-3.14-2.3-2.52-2.53-1.42-1.31-3.44-4.17M-6.55,38.74l-.35.16-.45.06-.23-.1-.29-.19" fill="none" stroke="#fff" stroke-miterlimit="10" stroke-width="0.5"/><polyline points="42.23 -8.35 41.91 0 41.87 1.08 41.5 10.5 41.14 19.93 40.77 29.36 40.41 38.79 40.04 48.22 39.68 57.64 39.58 60.12 39.91 60.65 40 60.52 40.38 60.33 40.84 60.18 41.2 60.16 41.92 59.86 44.95 60 46.08 59.81 47.35 59.8 50.86 60.7 52.39 60.12" fill="none" stroke="#646464" stroke-linecap="round" stroke-linejoin="round" stroke-width="0.5"/><polyline points="261.07 261.63 261.04 261.63 261.03 261.63 260.92 261.62 260.75 261.6 260.5 261.6 260.27 261.55 260.26 261.56 259.98 261.76 260.03 261.97 260.01 262.16 260.05 263.9 260.41 265.35 260.29 266.45 258.9 267.17 256.1 267.85 253.47 268.86 252.66 269.82 252.51 269.91 252.48 269.9 251.43 269.69 251.17 269.78 250.61 270.17 250.23 270.24 250.21 270.24 250.19 270.24 249.86 270.18 249.59 270.06 247.2 268.15 247.02 267.46 246.58 267.16 246.57 267.16 246.05 267.25 245.58 267.73 245.55 267.72 245.39 267.68 244.91 267.56 244.9 267.57 243.92 268.2 243.9 268.18 243.44 267.73 243.42 267.73 243.17 267.73 242.72 268.08 242.68 268.07 242.26 267.9 241.52 267.17 241.5 267.17 241.05 267.25 241.02 267.25 240.39 267.16 240.36 267.16 239.81 267.15 239.36 267.47 239.35 267.46 239.15 267.2 238.28 266.49 238.19 266.35 238.03 266.18 237.96 265.95 238.13 265.64 238.3 265.52 238.85 265.23 238.7 264.26 238.01 263.68 237.98 263.67 237.26 263.29 236.9 262.89 236.48 262.6 234.64 261.89 234.23 261.49 234.12 261.21 233.59 260.54 233.41 260.25 233.33 259.75 233.34 259.34 233.25 259.03 233.22 259.02 232.87 258.84 232.54 259.04 230.41 260.44 230.03 260.6 229.6 260.56 229.17 260.39 228.82 260.19 228.48 259.9 227.58 258.77 227.41 258.65 227.22 258.54 227.02 258.46 226.8 258.4 224.83 257.52 223.92 257.22 223.06 257.27 222.37 257.17 220.86 256.08 220.16 255.77 218.92 256.06 215.99 258.02 211.91 260.74 210.98 261.08 210.07 260.98 203.67 258.59 196.56 255.94 191.22 253.94 187.21 252.44 185.93 251.71 184.81 250.7 183.68 250.11 182.36 250.66 181.24 252.18 180.52 253.77 179.56 255.34 179.93 255.49" fill="none" stroke="#646464" stroke-linecap="round" stroke-linejoin="round" stroke-width="0.5"/><polyline points="52.91 60.36 52.39 60.12 50.86 60.7 47.35 59.8 46.08 59.81 44.95 60 41.92 59.86 41.2 60.16 40.84 60.18 40.38 60.33 40 60.52 39.91 60.65 39.58 60.12 39.68 57.64 40.04 48.22 40.41 38.79 40.77 29.36 41.14 19.93 41.5 10.5 41.87 1.08 41.91 0 42.23 -8.35" fill="none" stroke="#646464" stroke-linecap="round" stroke-linejoin="round" stroke-width="0.5"/><polyline points="80.01 67.03 79.94 67 79.81 66.94 79.8 66.94 79.79 66.94 79.78 66.93 79.77 66.93" fill="none" stroke="#646464" stroke-linecap="round" stroke-linejoin="round" stroke-width="0.5"/><polyline points="5.44 147.11 4.82 145.2 4.8 144.56 4.9 143.9 5.11 143.26 5.43 142.68 5.9 142.19 6.99 141.61 7.47 141.22 7.84 140.65 8.1 140.06 8.44 139.49 9.03 138.98 12.83 136.32 13.67 135.48 14.1 135.21 15.85 134.54 16.43 134.5 17.15 134.69 18.18 135.49 18.76 135.72 19.34 135.41 19.36 135.18 19.07 134.53 19.03 134.22 19.15 133.88 20.84 130.9 21.63 130.04 22.63 129.28 23.67 128.8 27.92 127.79 28.18 127.54 28.17 126.9 28.05 126.74 27.54 126.49 27.37 126.32 27.3 126.05 27.23 125.43 27.17 125.24 26.94 124.81 26.83 124.65 26.6 124.44 26.33 124.32 25.5 124.21 25.26 123.63 25.49 123.29 25.89 123.01 26.14 122.61 26.02 122.14 25.73 121.74 25.56 121.28 25.82 120.64 26.38 120.22 26.97 120.27 27.4 120.71 27.51 121.46 28.05 121.07 29.03 119.9 29.73 119.6 30.36 119.68 30.81 119.92 31.26 120.08 31.88 119.95 32.78 119.03 33.18 118.87 33.23 119.66 33.44 119.34 33.48 119.25 34.63 120.08 34.54 118.82 34.62 118.18 34.87 117.65 35.28 117.39 36.16 117.16 36.48 116.82 36.88 116.11 37.43 115.52 38.67 114.46 38.68 114.45 39.03 114.01 39.22 113.7 39.52 113.49 40.19 113.41 40.68 113.49 41.68 113.84 42.13 113.8 42.6 113.36 42.78 112.69 42.8 111.97 42.64 109.92 42.78 109.67 43.2 109.21 43.3 108.9 43.23 108.21 42.99 107.84 42.63 107.52 42.2 106.97 41.45 105.18 41.08 104.56 40.28 103.61 39.93 103.09 39.75 102.52 39.78 101.76 40.09 101.28 41.08 100.44 41.76 99.47 42.25 98.32 42.25 97.25 41.48 96.53 42.11 94.66 42.58 93.93 43.39 93.28 44.6 92.67 48.62 91.33 50 90.68 55.01 86.83 61.85 81.57 65.29 78.92 68.75 76.26 72.75 73.14 74.59 71.35 75.79 69.31 76.01 69.01 76.84 69 77.47 68.76 78.06 68.44 78.72 68.17 78.74 68.16 78.96 68.43 78.98 68.46 79.25 67.92 79.21 67.48 79.34 67.11 79.79 66.94 79.8 66.94" fill="none" stroke="#646464" stroke-linecap="round" stroke-linejoin="round" stroke-width="0.5"/><polyline points="95.8 161 98.91 159.58 99.59 158.81 99.69 158.29 99.61 157.75 99.41 157.26 99.11 156.9 98.53 156.68 97.69 156.96 97.28 156.81 96.87 155.89 97.1 154.76 98.05 152.47 98.14 151.73 98.11 150.23 98.25 149.51 98.6 149.02 98.99 148.64 99.19 148.2 98.93 147.53 99.13 146.87 99.93 145.03 100.29 144.44 99.59 144.16 97.84 142.66 97.6 142.53 97.05 142.32 96.84 142.19 96.52 141.71 96.13 140.64 95.76 140.35 95.17 140.37 94.77 140.7 94.44 141.12 94.06 141.39 93.68 141.42 92.9 141.25 92.51 141.23 92.2 141.34 91.69 141.73 91.51 141.82 91.24 141.74 90.65 141.36 90.34 141.3 89.75 141.46 87.94 142.36 87.61 141.35 86.97 140.58 86.24 139.92 85.66 139.23 85.08 137.73 84.63 137.35 83.58 137.29 81.52 137.54 80.89 137.52 79.84 137.29 79.24 137.23 78.85 137.37 78.83 137.51 78.87 138.31 78.95 138.46 79.31 138.78 79.38 138.89 79.19 139.45 78.94 139.5 78.59 139.45 78.11 139.65 77.85 139.94 77.56 140.45 77.25 140.75 76.82 140.9 76.34 140.93 75.91 141.09 75.63 141.6 75.38 141.49 75.06 141.4 74.75 141.34 74.49 141.36 74.37 141.5 74.34 141.76 74.34 142 74.29 142.11 74 142.08 73.37 141.83 72.99 141.81 71.39 142.17 70.67 142.47 69.93 142.92 68.88 142.97 69.22 142.4 69.2 141.75 68.77 140.68 68.66 140.3 68.74 139.7 68.88 139.21 68.9 138.73 68.66 138.2 68.83 138.22 68.89 138.17 68.9 138.07 68.93 137.94 68.58 137.6 68.55 137.59 68.18 137.44 66.45 137.31 66.42 137.3 63.45 136.35 63.01 136.32 62.81 136.3 62.41 136.28 61.43 136.44 61.19 136.53 61.19 136.46 61.21 136.25 61.12 135.91 60.92 135.64 60.64 135.39 60.45 135.33 59.6 135.21 58.98 134.81 59.01 134.24 59.24 133.57 59.28 132.88 58.99 132.42 58.65 132.46 58.24 132.71 57.77 132.89 56.03 132.76 55.34 132.86 55.08 131.72 54.48 130.51 53.65 129.47 52.67 128.84 52.05 128.83 51.5 129.07 51.03 129.34 50.65 129.43 50.3 129.17 50.17 128.74 50.11 128.22 49.96 127.71 49.6 127.12 49.24 126.68 48.23 125.92 48.05 125.55 47.9 124.31 47.64 123.81 47.01 123.49 45.66 123.34 45.21 122.95 45.36 122.55 45.4 122.14 45.31 121.73 45.12 121.36 44.89 121.06 44.69 120.88 44.46 120.83 44.11 120.93 43.8 121.25 43.23 122.35 42.85 122.69 41.02 122.14 40.6 121.84 40.02 121.44 38 121.01 36.77 120.43 34.63 120.08 34.54 118.82 34.62 118.18 34.87 117.65 35.28 117.39 36.16 117.16 36.48 116.82 36.88 116.11 37.43 115.52 38.67 114.46 38.68 114.45 39.03 114.01 39.22 113.7 39.52 113.49 40.19 113.41 40.68 113.49 41.68 113.84 42.13 113.8 42.6 113.36 42.78 112.69 42.8 111.97 42.64 109.92 42.78 109.67 43.2 109.21 43.3 108.9 43.23 108.21 42.99 107.84 42.63 107.52 42.2 106.97 41.45 105.18 41.08 104.56 40.28 103.61 39.93 103.09 39.75 102.52 39.78 101.76 40.09 101.28 41.08 100.44 41.76 99.47 42.25 98.32 42.25 97.25 41.48 96.53 42.11 94.66 42.58 93.93 43.39 93.28 44.6 92.67 48.62 91.33 50 90.68 55.01 86.83 61.85 81.57 65.29 78.92 68.75 76.26 72.75 73.14 74.59 71.35 75.79 69.31 76.01 69.01 76.84 69 77.47 68.76 78.06 68.44 78.72 68.17 78.74 68.16 78.96 68.43 78.98 68.46 79.25 67.92 79.21 67.48 79.34 67.11 79.79 66.94 79.8 66.94 79.81 66.94 79.94 67 80.01 67.03 80.06 67.05" fill="none" stroke="#646464" stroke-linecap="round" stroke-linejoin="round" stroke-width="0.5"/><polyline points="281.38 95.49 281.42 95.5 281.39 95.5 281.37 95.51 281.37 95.5 280.83 95.57 279.99 95.53 279.49 95.5 278.94 95.6 277.9 96.08 276.14 96.05 275.98 96.08 275.53 95.9 275.24 95.7 275.27 95.48 275.74 95.25 275.7 95.25 275.71 95.24 273.96 95.06 273.28 95.1 272.71 95.48 272.51 94.97 272.1 94.71 271.59 94.51 271.09 94.12 271.08 94.13 271.06 94.11 270.68 94.82 270.07 95.49 269.26 95.97 268.35 96.08 268 95.89 267.52 95.15 267.31 94.95 267.29 94.95 267.28 94.94 266.79 94.86 266.76 94.85 266.36 94.9 266.23 95.1 266.49 95.5 266.28 95.77 266.22 96.02 266.2 96.61 265.84 96.28 265.83 96.29 265.81 96.27 265.59 96.45 265.53 96.92 265.66 97.46 265.43 97.35 264.87 97.19 264.84 97.18 264.93 97.31 265.04 97.6 265.11 97.74 264.55 97.9 263.56 98.69 262.59 99.05 262.39 99.49 262.31 100.04 262.14 100.53 261.87 100.53 261.54 100.11 260.88 99.92 260.81 99.9 260.78 99.89 259.9 99.84 259.12 99.95 258.38 100.3 258.23 100.75 258.6 101.92 258.34 101.92 258.19 101.58 258.16 101.57 257.89 101.4 257.88 101.4 257.86 101.39 257.49 101.34 257.45 101.33 256.95 101.36 257.03 101.99 256.21 102.31 254.04 102.45 254 102.45 254.29 102.92 254.48 103.12 254.79 103.33 254.06 103.33 253.27 103.58 252.57 103.98 252.1 104.4 251.89 104.13 251.75 104.02 251.6 103.98 251.56 103.97 251.31 103.86 251.28 103.85 251.47 104.24 251.52 104.41 251.05 104.28 250.41 103.6 250.38 103.59 249.93 103.33 249.93 103.34 249.9 103.33 249.7 104.26 249.7 104.63 249.9 104.96 245.98 105.17 245.34 105.09 245.26 104.78 245.23 104.77 245.06 104.67 245.04 104.67 245.02 104.66 244.39 104.69 244.36 104.69 243.96 104.63 243.82 104.49 243.72 104.31 242.81 103.73 242.78 103.73 242.52 103.75 242.49 103.75 242.06 104.11 242.52 105.06 242.79 105.43 243.14 105.77 243.14 106.07 242.87 106.24 242.71 106.22 242.7 106.22 242.52 106.13 242.21 106.08 242.18 106.07 241.82 106.15 241.62 106.32 241.46 106.51 241.22 106.65 240.26 106.93 239.69 106.97 239.68 106.97 239.23 106.78 238.29 105.78 237.99 105.52 237.63 105.32 237.08 105.13 237.05 105.13 236.55 105.16 236.33 105.64 236.54 107.55 236.33 108.44 235.52 108.86 235.29 108.85 235.11 108.84 234.71 108.75 234.15 108.63 234.12 108.62 233.54 108.56 233.25 108.36 232.96 107.3 232.58 106.91 232.57 106.92 232.55 106.9 232.02 107.67 231.47 108.69 230.74 109.59 229.27 110.1 228.24 110.67 227.8 110.8 227.23 110.63 226.81 110.28 226.78 110.27 226.4 110.05 226.38 110.05 226.36 110.04 225.8 110.22 225.91 109.44 226.06 109.15 226.03 109.15 226.03 109.14 223.41 109.07 223.17 109.06 222.57 108.93 222.25 108.86 220.75 108.21 220.72 108.21 219.99 108.13 219.96 108.13 219.25 108.55 218.66 107.18 218.25 106.5 217.44 105.96 217.48 105.42 217.37 104.93 217.34 104.93 217.34 104.92 216.58 104.82 216.6 104.75 216.91 104.35 217.03 104.24 216.45 103.28 215.58 102.63 214.55 102.32 214.52 102.32 213.48 102.36 211.11 102.79 210.46 103.17 208.65 104.91 207.94 105.42 207.24 105.88 206.7 106.39 206.35 107.03 206.14 108.53 206.01 108.77 205.81 108.86 205.18 109.03 205.4 109.43 206.52 110.23 205.65 111.05 205.41 111.36 205.45 111.36 205.44 111.37 206.44 111.36 206.14 112.04 204.74 113.45 203.91 113.84 203.9 113.84 203.26 113.35 202.62 112.66 202.59 112.65 202.44 112.61 201.9 112.47 201.9 112.48 201.87 112.47 201.56 113.04 201.39 114.17 201.31 116.22 201.17 116.48 200.25 117.45 200.2 117.71 200.3 118.33 200.25 118.58 199.17 119.41 199.81 119.83 200.51 120.48 201.02 121.29 201.06 122.21 200.6 122.88 199.79 123.37 198.8 123.7 197.82 123.87 196.32 123.87 195.91 123.96 194.97 124.42 194.59 124.52 194.38 124.74 194.22 125.02 193.94 125.36 193.82 125.65 193.71 125.78 193.55 125.82 193.15 125.76 193.12 125.75 192.95 125.78 192.57 126.15 192.11 126.74 191.73 127.38 191.44 128.42 191.12 129.19 190.68 129.97 190.22 130.54 189.2 131.34 188.52 131.74 187.1 132.13 186.87 132.66 186.78 133.31 186.41 133.86 185.67 134.11 184.71 134.29 184.68 134.29 183.81 134.57 183.44 135.14 183.05 135.54 181.66 135.96 181.79 136.38 181.67 136.42 181.56 136.42 181.5 136.47 181.52 136.66 181.28 136.66 180.97 136.57 180.94 136.56 180.14 137.25 179.63 137.49 178.93 137.44 178.55 137.36 178.52 137.35 178.32 137.57 178.28 138.46 177.88 139.68 177.72 140.46 177.87 140.81 177.9 140.82 178.46 141 178.69 141.47 178.6 142.1 178.28 142.75 177.92 143.08 177.85 143.05 177.32 142.46 176.52 142.39 175.59 142.42 174.71 142.11 174.08 141.35 173.7 140.52 173.23 139.81 172.36 139.43 171.82 139.46 171.46 139.61 171.1 139.69 170.55 139.5 170.28 139.25 169.42 138.12 166.62 136.1 166.51 135.02 166.94 134.15 166.95 133.7 163.92 134.15 163.38 134.43 162.93 134.83 162.72 135.18 162.57 135.58 162.28 136.09 161.82 136.57 161.34 136.82 160.88 137 160.46 137.28 159.09 139.41 156.5 142.19 155.87 143.18 155.56 144.39 155.33 145 154.87 145.52 154.28 145.81 153.55 145.99 151.51 146.12 151.23 146.08 150.86 145.96 150.62 145.79 150 145.15 149.42 145.23 148.89 145.51 148.31 145.69 147.61 145.49 146.3 144.77 144.74 144.87 141.51 145.48 139.78 145.27 138.95 145.34 138.05 145.79 137.6 146.1 137.41 146.27 137.34 146.52 137.25 147.08 137.1 149.95 137.17 150.31 137.33 150.52 137.84 150.91 137.99 151.17 138.01 151.82 137.77 153.12 137.79 153.81 138.77 157.54 139.07 158.67 139 159.31 138.5 160.43 138.44 161.01 138.59 161.41 138.82 161.53 139.09 161.6 139.35 161.83 139.64 162.35 139.72 162.59 139.96 163.75 139.87 164.38 139.56 164.91 139.02 165.41 138.45 165.8 138.08 165.9 137.71 165.78 135.43 164.66 134.75 164.6 134.11 164.78 133.59 165.14 131.68 166.78 131.36 167.18 131.08 167.72 130.79 168.86 130.73 168.97 130.8 169.21 131.1 169.86 131.17 169.96 130.83 172.1 130.93 172.35 131.15 172.45 131.31 172.6 131.2 172.99 131 173.2 130.42 173.49 130.19 173.67 129.27 175.12 128.82 175.61 127.8 176.25 126.98 176.66 126.76 177.32 126.29 177.29 125.38 176.73 124.8 176.66 115.76 177.24" fill="none" stroke="#646464" stroke-linecap="round" stroke-linejoin="round" stroke-width="0.5"/></g><g id="Layer_2" data-name="Layer 2"><switch style="isolation:isolate"><text transform="translate(257.96 220.62)" font-size="4.38" font-family="OpenSans-Regular, Open Sans" style="isolation:isolate" id="trsvg18"><tspan id="trsvg1">BLUEFIELDS</tspan></text></switch><circle cx="269.16" cy="137.42" r="0.94"/><switch style="isolation:isolate"><text transform="translate(272.67 139.01)" font-size="4.38" font-family="OpenSans-Regular, Open Sans" style="isolation:isolate" id="trsvg19-ca" systemLanguage="ca"><tspan id="trsvg2-ca">BILWI (Puerto Cabezas)</tspan></text><text transform="translate(272.67 139.01)" font-size="4.38" font-family="OpenSans-Regular, Open Sans" style="isolation:isolate" id="trsvg19"><tspan id="trsvg2">PUERTO CABEZAS</tspan></text></switch><circle cx="254.3" cy="219.02" r="0.94"/><switch style="isolation:isolate"><text transform="translate(167.12 70.74)" font-size="4.38" font-family="OpenSans-Regular, Open Sans" style="isolation:isolate" id="trsvg20"><tspan id="trsvg3">TOCOA</tspan></text></switch><circle cx="163.46" cy="69.13" r="0.94"/><switch style="isolation:isolate"><text transform="translate(136.29 69)" font-size="4.38" font-family="OpenSans-Regular, Open Sans" style="isolation:isolate" id="trsvg21"><tspan id="trsvg4">LA CEIBA</tspan></text></switch><circle cx="132.63" cy="67.39" r="0.94"/><switch style="isolation:isolate"><text transform="translate(90.78 78.45)" font-size="4.38" font-family="OpenSans-Regular, Open Sans" style="isolation:isolate" id="trsvg22"><tspan id="trsvg5">SAN PEDRO SULA</tspan></text></switch><circle cx="87.12" cy="76.84" r="0.94"/><switch style="isolation:isolate"><text transform="translate(264.85 168.21)" font-size="4.38" font-family="OpenSans-Regular, Open Sans" style="isolation:isolate" id="trsvg23"><tspan id="trsvg6">PRINZAPOLKA</tspan></text></switch><circle cx="261.19" cy="166.6" r="0.94"/><switch style="isolation:isolate"><text transform="translate(145.82 210.96)" font-size="4.38" font-family="OpenSans-Regular, Open Sans" style="isolation:isolate" id="trsvg24"><tspan id="trsvg7">MANAGUA</tspan></text></switch><circle cx="156.36" cy="213.48" r="0.94"/><switch style="isolation:isolate"><text transform="translate(174.15 181.43)" font-size="4.38" font-family="OpenSans-Regular, Open Sans" style="isolation:isolate" id="trsvg25"><tspan id="trsvg8">MATGALPA</tspan></text></switch><circle cx="170.49" cy="179.83" r="0.94"/><switch style="isolation:isolate"><text transform="translate(118.17 136.46)" font-size="4.38" font-family="OpenSans-Regular, Open Sans" style="isolation:isolate" id="trsvg26"><tspan id="trsvg9">TEGUCIGALPA</tspan></text></switch><circle cx="114.52" cy="134.85" r="0.94"/><switch style="isolation:isolate"><text transform="translate(167.02 221.89)" font-size="4.38" font-family="OpenSans-Regular, Open Sans" style="isolation:isolate" id="trsvg27"><tspan id="trsvg10">MASAYA</tspan></text></switch><circle cx="163.36" cy="220.28" r="0.94"/><switch style="isolation:isolate"><text transform="translate(136.22 202.8)" font-size="4.38" font-family="OpenSans-Regular, Open Sans" style="isolation:isolate" id="trsvg28-ca" systemLanguage="ca"><tspan id="trsvg11-ca">SANTIAGO DE LOS CABALLEROS DE LE&#xD3;N</tspan></text><text transform="translate(136.22 202.8)" font-size="4.38" font-family="OpenSans-Regular, Open Sans" style="isolation:isolate" id="trsvg28"><tspan id="trsvg11">LEON</tspan></text></switch><circle cx="132.56" cy="201.19" r="0.94"/><g opacity="0.75"><switch style="isolation:isolate"><text transform="translate(103.36 115.38)" font-size="6.39" fill="#231f20" font-family="OpenSans-Regular, Open Sans" style="isolation:isolate" id="trsvg29-ca" systemLanguage="ca"><tspan id="trsvg12-ca">HONDURES</tspan></text><text transform="translate(103.36 115.38)" font-size="6.39" fill="#231f20" font-family="OpenSans-Regular, Open Sans" style="isolation:isolate" id="trsvg29"><tspan id="trsvg12">HONDURAS</tspan></text></switch></g></g><g id="Layer_8" data-name="Layer 8"><g opacity="0.6"><switch><text transform="translate(39.77 246.03)" font-size="6.39" fill="#231f20" font-family="OpenSans-Regular, Open Sans" id="trsvg30-ca" systemLanguage="ca"><tspan id="trsvg13-ca">OCE&#xC0; PAC&#xCD;FIC </tspan><tspan x="-4.98" y="7.67" id="trsvg14-ca"> </tspan></text><text transform="translate(39.77 246.03)" font-size="6.39" fill="#231f20" font-family="OpenSans-Regular, Open Sans" id="trsvg30"><tspan id="trsvg13">PACIFIC OCEAN</tspan><tspan x="-4.98" y="7.67" id="trsvg14">OC&#xC9;ANO PAC&#xCD;FICO</tspan></text></switch><switch><text transform="translate(247.99 35.37)" font-size="6.39" fill="#231f20" font-family="OpenSans-Regular, Open Sans" id="trsvg31-ca" systemLanguage="ca"><tspan id="trsvg15-ca">MAR CARIB</tspan><tspan x="5.17" y="7.67" id="trsvg16-ca"> </tspan></text><text transform="translate(247.99 35.37)" font-size="6.39" fill="#231f20" font-family="OpenSans-Regular, Open Sans" id="trsvg31"><tspan id="trsvg15">CARIBBEAN SEA</tspan><tspan x="5.17" y="7.67" id="trsvg16">MAR CARIBE</tspan></text></switch></g><g opacity="0.75"><switch style="isolation:isolate"><text transform="translate(189.12 163.75)" font-size="6.39" fill="#231f20" font-family="OpenSans-Regular, Open Sans" style="isolation:isolate" id="trsvg32"><tspan id="trsvg17">NICARAGUA</tspan></text></switch></g></g><g id="Layer_6" data-name="Layer 6"><g opacity="0.35"><path d="M279.8,95.93l-.29.42-.73.34-.36.38v0l-.57-.67-.48.48-.38.86-.29.46-.51.24-.48.58-.36.69-.14.56-.1.19-.51.49-.2.29-.1.39-.07.87-.1.4-.32.51-.48.36-1.36.54h0l.09-.23.11-.19.3-.35,0-.05v.3l.13-.22.08-.19,0-.2v-.27l0,0-.26.16h0l-.11,0h0l-.34-.22v-.25l.47-.22.12,0h.12l.21,0,.25.1h.05l.08,0h0l.27.34,0,0,0-.76-.43-1.05-.11-.82-.24-.81-.27-.07a2.8,2.8,0,0,0-.32-1,4.56,4.56,0,0,1-.54,0c-1.75,0-2.68.71-4.15,1.37-1.89.86-4.26,2.87-6,4-3.07,2.08-6.52,4.4-10.16,5.08s-7.39.46-11.06,1c-4,.57-7.25,3.18-11.17,4-3.29.73-3.79.62-7-.35s-7.44-5.4-10.29-4.19c-3,1.29-4.38,8.4-5.29,11.27-1.38,4.36-6.78,6.75-10.21,9.5-4.44,3.56-9.86-1.93-5.66-5.66,4-3.59,8.07-7.47,10.26-12.38,1.43-3.22,3.73-8.79,6.86-10.64,2.89-1.71,6.51-1.17,9.6.27,3.86,1.79,5.09,4.8,9.8,4.65,4.55-.14,6.19-3.38,10.6-4.22s8.7-.3,13-1.33c5.6-1.33,9.63-6.83,14.55-8.78.83-.93,1.46-2,.48-2.77s-1.92.1-2.75.45-1.79.73-2.7,1.08c-2,.76-4,1.45-6.1,2a64.1,64.1,0,0,1-7.76,1.77,20.39,20.39,0,0,1-3.57.29,6.73,6.73,0,0,1-1.68-.13c-.54-.16-.49-.45-.66-1-.12-.4-.39-1-.23-1.29s.81-.81,1.11-1.13.74-.84,1.1-1.26c.57-.69,1.24-1.21,1.26-2.12s.2-1.73-.5-2.33-1.53-1.06-2.21-1.68c-1.11-1-1.92-2.34-3-3.41a21.12,21.12,0,0,1-1.76-1.78c-.6-.76-1.07-1.66-1.6-2.47a19.23,19.23,0,0,0-2.63-3.49,19.6,19.6,0,0,0-2.25-1.71,3.67,3.67,0,0,0-2-.5,20.71,20.71,0,0,0-2.72-.27,15.15,15.15,0,0,0-2.57.5,45.31,45.31,0,0,1-4.94.6,27.09,27.09,0,0,0-4.82,1.17c-1.11.32-1.28,0-2.83-.92a4.12,4.12,0,0,1-1.06-.89c-.77-.94-1.43-2-2.17-2.94a2.39,2.39,0,0,1-.56-1.23c-.17-1.67,0-3.43,0-5.1,0-.6,1.34-1.41,1.87-1.47.84-.1,1.74.29,2.58.18,1.22-.16,2-1.71,3.2-2.09l.57-.17,4.28,1.8.55.11.1,0,.24.05.28,0,.21,0,.81.43h0l.33.27-.72.44-.1.73.17.84.3.63.37.44h0l.27.13,0,0,.8-.05-.07-.35.35-.69.42-.46,0,0,.22.27.35.84h0l.35.09.1,0,.38.1h0l2.06-.12-.13-.77.9-.31h1.93l0,0-.74-.53h0l-6-1.14,0,0-.47-.23.29-.29h.26l.23,0L229,61.64l5.37.42.48.15h0l.32.33.33.58,1.21.64h0l2.26,2.53,4.6,3.63,4.05,3.89L250,75.6,252.56,78l0,0,.09,0,.13.08.51.3.36.16.14.06.1,0,.1,0h0l1.36.23h0l.32.17h0l.27.4,0,.31-.26.21-.59.07h0l-.13,0-.2-.08-.34-.13L253,78.68h0l-1.08-.37-.76-.53-.37-.16h-.17l-1,0h0l-.49-.1-.46-.45.18-.07.17-.13.19-.06-.34-.5-1.31-1.46h-.27l-.43.22,0,0-.07,0h0l-.1-.06-.32-.19-.56-.46h0l-.14-.07L245.2,74l-.81.1-.37.25-.29.35-.56.38h0l-.23-.16h0l-.34-.12-.18-.07-.08,0-.46-.16h0l.5-.43.21-.25.09-.26h0l-.17-.08-.42-.07-.47,0h0l-.26,0-.11.44.25.7.46.74.5.59-.1.09,0,0,0,0-.09.14h-.27l-1.18-2.28-.44-.49-.45-.07-.52.1-.68.22h0l-.44,0-.51-.12-.16,0h0l-.47-.06.31.93.25.31.69.24h0v.34l-.13.45-.09.49h.27l.13-.62.79-.37.36-1.12.37-.12.35.21h0l.54,1.33.64,1.07.23.91-.84.39-.43.45.31,1,.67,1.12.67.71,1,.54.8.19h0l.38-.38L244,80.43h0l0,0,.5.41,0,0,.47.54.19.63-.33.65.54.66.74.12h0l1.9-.24h0v.28h-.39l-.26.08-.44.21V84l.33.7.47.61,0,0,.2.14.05,0,.2.14.19.13h0l.83.18.7-.09h0l.93-.23.88-.35.61-.44-.51-.48h0l-1.66-.89-.28-.28-.14-.27-.16-.2h0l-.34-.07-.42,0h0l-3-1.06-.49-.31-.92-1.32-.46-.35.35-.3.39-.21.88-.32,3.54,1.55.57.82.22.43.55.4.66.29,1.14.24.47.33.4.45.34.5-.26.18-.32.28-.23.1v.25l.65.15.55-.4.4-.06h0l.29,1.19-.09,1.51.09.4.29.29h.3l.2-.29v-.54h.29l.34.77v0l.33-.19.67-1.18.62-.35.82-.25,1.41-.18.18-.19L260,84.3,260,84l.27-.17.22,0h0l.29.1,2.57.49.65-.12h0v.25l-.24.25,0,.16.13.17.08.3v1.22l-.21.61-.46.26-.45-.18-.21-.69-.14-.2h0l-.31-.13-.36-.07h-.4l-.23.16-.21.37-.25.59-.18.22-.17.12-.14.21-.05.42.09.38.06,0h0l.12,0,.26-.12.23-.19-.2-.34,0-.27.08-.23.16-.27h.29l.08,1,.27.71h0l.47.26h0L263,89l.21-.22.36-.6.24-.26.31-.2,1.77-.63v-.14l-.18-.44-.17-.25-.22-.18-.23-.24-.17-.41-.13-.57-.29-.78L264,83.6h0l-.73.36h0l-1.16-.68-.12,0h0l-.08,0-.09,0-.06,0-.19,0-.69.3h0l-.24-.27.09-.15.16-.4h0l-.2,0-.1,0h-.07l-.24,0-.62-.22-.07,0-.12,0-.05,0-.07,0-.79-.28,0,0-.08,0,0,0-.2-.15-.41-.46-.36-.12-.09,0-.09,0-.08,0-.21-.07-.61-.35.23-.75.65-.31.07,0,.06,0,.49.26.56.53.47.28.16.06h0l.05,0,.19.07,1.34.69.14.07.16.08h0L263.48,83l5.32,2,2.05,1.49.47.77.64,2.61.69,1.62L273.7,93l1.21,1,4.85,1.92Z" fill="red"/><path d="M277.34,120.76l-1.91-5.56-.33-1.94-.37-.75-.09-.23-1.34-6.13h0c-.27-.08-.53-.14-.79-.23h0l-.05,0-.05,0a5,5,0,0,1-1-.41,2.53,2.53,0,0,1-.23-.12l0,0a1.13,1.13,0,0,1-.2-.13h0a4,4,0,0,1-.33-.24c0,.39,0,.8-.06,1.19h0a15.41,15.41,0,0,0,.24,2.88c.33,1.73,1,3.91.39,5.65a3.67,3.67,0,0,1-.5.83,10.63,10.63,0,0,1-6.78,4.38,6.17,6.17,0,0,1-2.25-.2,21.16,21.16,0,0,0-5.39-.3,1.85,1.85,0,0,0-1.52.67,1.29,1.29,0,0,0,.29,1.44,3.73,3.73,0,0,0,1.35.79l2.71,1.1a2.14,2.14,0,0,1,.84.49,3.4,3.4,0,0,1-.21,3.72c-.76.68-2.38.73-2.59,1.94a1.62,1.62,0,0,0,1.34,1.62,13.47,13.47,0,0,0,2.3.15,8.09,8.09,0,0,1,2.2.61,2.14,2.14,0,0,1,.76.44,2,2,0,0,1,.47,1.1c.41,2.17.15,4.74-1.6,6.09a2.24,2.24,0,0,1-.87.44,3.29,3.29,0,0,1-1,0,16.28,16.28,0,0,1-7.16-2.23,8.23,8.23,0,0,1-2.93-3.84,3.77,3.77,0,0,0-.91-1.4,1.26,1.26,0,0,0-1.55-.13,1.57,1.57,0,0,0-.31,1.56,11,11,0,0,0,2.29,3.85,6.29,6.29,0,0,1,1.64,4.1,4.42,4.42,0,0,0,0,2,2.88,2.88,0,0,0,.56.75,10.3,10.3,0,0,0,4,3.07c.53.18,1.08.26,1.61.45,2,.72,2.6,2.43,3.08,4.3l.51,2.39a1.12,1.12,0,0,0,1.09.88h.64a1.12,1.12,0,0,0,1.07-.8l0-.08,0-.09v-.07l.17-1-.06-2,.94-4.63,1.52-5.12.95-3.76.55-1.29.8-1.13,1.88-1.31.28-.5.2-.67,1.42-1.72,3.3-5.29,1.07-2.56.19-1.39Zm-2.53,3.88.27.74.05.82-.24.67-.6.49-.37-.27-.39-.57-.57-.47-.18.2-.17,0-.47-.22-.17-.55-.05-.24v-.32l.07-.35.2-.22.17-.18.08-.12v-.69l-.2-.47-.62-.75v-.29l1,.32.4.25.25.27h.3l-.2-.3-.52-.49-.13-.2.13-.5.24,0,.33.22.66.74.38.57.17.6-.25.49Z" fill="red"/><path d="M266.08,199.46l-.1,1.24-.41.66-.81.26-1.27,0-.81.17-.1,0h-.1l-1,.35-.93.15h0l-.79-.42.29-.29.82-.6.25-.25,0-.47-.15-.64-.24-.57-.87-.77,0-2.64-.17-1,.14-.1H260l0,0,.07-.15h.25l.87.29.54.17,1-1.28.32-1.8-.52-1.24v-.3l.34-.4.13-.54.07-2.28.08-.07.17-.15.17-.2.13-.27-.13-1.09-.76-.64-.25-.06.1-.32a4,4,0,0,1-1.42-.91c-1.16-1.78-4.55-2.2-6.4-3.11a17.32,17.32,0,0,1-4.49-3.08c-3.11-3-2-7.39-7.28-7.1a9,9,0,0,1-1.69-.23c-2.82-.79-1.79-3.88.73-4.5,6.13-1.51,7.83.35,10.77,5.26,2.6,4.34,7.51,4.46,11.1,7a.92.92,0,0,0,.51.08h0L265,181l-1.33,10.7V194l.13.39.57,1.17.38,1.29,1.11,1.55Z" fill="red"/><path d="M196.36,97.54a4.1,4.1,0,0,0-.06,1,2.73,2.73,0,0,0,.4,1.37,2.43,2.43,0,0,0,1.64.93c2.34.37,5.25.41,7-1.24A17.29,17.29,0,0,1,210.73,96,21.54,21.54,0,0,0,216,93.39c1.74-1.25,3.45-2.53,5.06-4a7.2,7.2,0,0,0,1.42-1.55,2.61,2.61,0,0,0,.36-2,2.14,2.14,0,0,0-2-1.49,8.24,8.24,0,0,0-2.9,1c-1.25.5-2.5,1-3.76,1.47-2.27.85-4.56,1.65-6.89,2.35s-5.67.81-7.18,3.07C199,93.91,196.75,95.62,196.36,97.54Z" fill="red"/><path d="M251.47,213.08l-.23-.32a2.46,2.46,0,0,1-.29-2.32l.52-1.3a2.44,2.44,0,0,1,1.19-1.3h0a2.55,2.55,0,0,1,1.08-.25h0a2.45,2.45,0,0,1,2.14,1.27l.66,1.2a2.34,2.34,0,0,1,.29,1.44l-.1.92-.13.62-1.7,1a2.46,2.46,0,0,1-3.09-.51l-.23-.28A1.15,1.15,0,0,1,251.47,213.08Z" fill="red"/></g></g></svg>
