<?xml version="1.0" encoding="UTF-8" standalone="no"?>
<!-- Created with Inkscape (http://www.inkscape.org/) -->
<svg xmlns:sodipodi="http://sodipodi.sourceforge.net/DTD/sodipodi-0.dtd" version="1.0"
   xmlns="http://www.w3.org/2000/svg"
   xmlns:xlink="http://www.w3.org/1999/xlink"
   width="552" height="623">
  <g transform="translate(-108,-148)">
    <rect
       style="fill:#f4e3b6;stroke:none"
       width="552" height="623"
       x="108" y="148"/>
    <path style="fill:white;stroke:none"
       d="M 517,213 L 520,215 L 521,212 C 523,211 526,211 528,211 C 532,211 533,211 534,213 C 536,215 537,215 539,215 C 542,215 543,215 543,216 C 543,216 544,217 544,217 C 546,217 546,218 546,225 C 545,233 546,234 548,236 C 550,237 551,239 551,241 L 551,244 L 513,244 L 476,244 L 476,201 L 476,159 L 486,159 L 497,159 L 497,161 C 497,163 496,164 495,164 C 494,164 494,164 494,165 C 494,166 492,168 491,170 C 488,173 488,175 488,179 C 488,182 487,186 486,189 C 484,194 484,194 486,195 C 487,196 489,199 490,201 C 492,204 495,208 497,210 L 502,214 L 509,214 L 517,213 z M 117,669 L 314,667 L 314,764 L 117,765 L 117,669 z M 657,158 L 657,158 z M 517,211 L 505,211 L 505,195 L 517,195 L 517,211 z M 515,209 C 515,209 515,197 515,197 C 515,197 506,197 506,197 C 506,197 506,209 506,209 C 506,209 515,209 515,209 z M 613,241 C 613,237 617,230 625,223 C 631,218 634,214 636,208 C 638,205 639,202 638,202 C 638,202 636,202 633,203 C 631,204 628,205 626,205 C 624,205 620,202 620,199 C 619,198 617,196 615,194 C 613,193 611,191 611,190 C 611,189 610,187 608,186 C 607,185 605,182 605,180 C 604,177 603,176 603,176 C 602,176 601,174 600,171 C 598,168 597,166 596,165 C 595,164 595,162 595,161 C 595,159 595,159 599,159 C 603,159 604,159 608,164 C 611,167 613,170 613,171 C 613,172 614,174 616,175 C 621,182 624,185 624,188 C 624,190 624,192 625,192 C 626,193 627,193 627,193 C 627,192 628,191 629,191 C 632,190 638,187 642,184 C 643,183 645,182 645,182 C 646,182 647,181 647,181 C 647,180 648,180 649,180 L 652,180 L 652,212 L 652,244 L 632,244 L 613,244 L 613,241 z M 635,167 C 635,166 634,165 633,165 C 632,165 632,164 632,162 L 632,159 L 642,159 L 652,159 L 652,162 C 652,166 652,166 647,167 C 638,169 635,169 635,167 z" />
    <path style="fill:#99ca62"
       d="M 152,690 C 150,689 149,689 150,685 C 150,678 152,677 162,676 C 162,676 167,677 169,678 C 172,679 171,681 171,681 C 172,684 172,686 171,688 C 170,691 170,691 162,691 C 158,691 153,690 152,690 z " />
    <path style="fill:#99ca62"
       d="M 560,690 C 557,689 557,689 559,681 C 560,676 561,673 564,671 C 570,664 573,666 576,676 C 578,681 577,684 573,689 C 571,692 566,693 560,690 z "
       id="path5321" />
    <path
       style="fill:#99ca62"
       d="M 345,685 C 323,684 305,667 299,647 C 295,627 279,616 260,612 C 243,601 223,604 204,605 C 195,600 188,588 186,578 C 187,564 184,549 192,537 C 201,509 195,474 219,454 C 232,438 252,437 269,432 C 282,429 298,420 310,425 C 310,434 301,451 318,447 C 331,435 320,411 309,402 C 295,410 278,418 259,416 C 243,425 245,397 252,389 C 256,370 261,352 259,333 C 254,314 269,302 273,285 C 274,266 285,253 299,241 C 306,215 329,246 345,231 C 356,235 368,234 380,234 C 389,253 399,273 400,295 C 388,299 398,312 390,319 C 373,319 361,337 377,349 C 385,356 395,384 378,381 C 371,376 358,385 358,393 C 359,408 351,419 345,432 C 340,449 331,470 344,487 C 346,504 360,512 370,524 C 389,531 391,551 389,569 C 384,589 402,603 422,603 C 443,607 446,636 436,651 C 432,672 413,678 395,674 C 377,676 363,691 345,685 z "
       id="path5319" />
    <path
       style="fill:#f4e3b6;fill-opacity:1"
       d="M 334,372 C 335,370 336,366 337,364 C 338,358 339,356 342,356 C 344,355 345,355 345,351 C 345,347 344,346 343,346 C 342,346 339,344 336,342 C 327,335 317,332 303,331 C 297,331 294,331 293,332 C 291,334 291,334 293,336 C 294,337 295,339 295,339 C 295,341 300,344 306,347 C 313,350 323,361 327,369 C 329,373 331,376 331,376 C 332,376 333,374 334,372 z "
       id="path5317" />
    <path
       style="fill:#99ca62"
       d="M 382,463 C 377,458 375,453 375,444 C 375,437 375,436 378,434 C 381,431 388,429 394,429 C 402,429 413,438 413,444 C 413,447 409,455 404,461 C 402,463 400,465 397,466 C 389,468 386,467 382,463 z "
       id="path5199" />
    <path
       style="fill:#54c9e6"
       d="M 344.5,397.36 C 341.26,399.04 327.55,406.52 327,406.86 C 326.45,407.20 326,407.00 326,406.42 C 326,405.83 326.45,405.36 327,405.36 C 327.55,405.36 342.78,396.36 344.85,395.36 C 346.92,394.36 348.87,392.14 350,391.44 C 350,390.37 355.12,387.36 356.95,387.36 C 358.77,387.36 359.16,386.92 364.70,385.88 C 370.24,384.85 373.55,382.81 375.92,378.98 C 379.88,372.57 385.99,370.48 389.5,374.36 C 392.07,377.20 394.32,376.86 399.62,372.82 C 405.46,368.35 408.70,367.04 417.69,365.46 C 421.65,364.76 425.28,363.67 425.76,363.03 C 426.25,362.38 427.21,359.87 427.91,357.45 C 428.81,354.30 430.83,351.42 434.97,347.38 C 438.16,344.27 441.67,339.96 442.78,337.79 C 443.88,335.63 445.94,332.61 447.36,331.10 C 448.77,329.58 450.48,326.48 451.16,324.21 C 451.97,321.51 454.41,318.05 458.28,314.15 C 462.33,310.06 465.28,305.83 467.75,300.53 C 472.35,290.68 476.86,285.08 482.35,282.43 C 488.09,279.65 489.29,278.09 491.51,270.50 C 493.78,262.77 497.71,256.35 501.39,254.40 C 505.00,252.48 507.02,253.79 509.10,259.39 C 510.75,263.82 514.10,267.36 516.66,267.36 C 517.46,267.36 522.97,272.35 528.91,278.45 L 539.70,289.54 L 545.36,288.83 C 549.30,288.34 551.46,288.50 552.50,289.36 C 554.09,290.68 554.38,295.53 553.07,298.86 C 552.51,300.28 553.25,302.69 555.64,307.19 C 557.49,310.67 559,314.83 559,316.42 C 559,320.10 555.17,322.87 551.41,321.92 C 546.14,320.60 545.14,325.44 549.42,331.55 C 551.55,334.59 551.39,339.23 549.05,342.79 C 546.66,346.42 547.16,347.36 551.48,347.36 C 559.21,347.36 561.50,358.07 555.47,365.98 C 553.06,369.14 552.52,371.04 551.84,378.77 C 551.40,383.77 550.77,388.99 550.45,390.38 C 550.09,391.89 550.68,395.03 551.92,398.17 C 554.52,404.76 554.51,406.42 551.86,411.62 C 550.40,414.49 549.51,418.68 549.04,424.97 C 548.38,433.61 548.08,434.56 543.67,441.63 C 540.95,446.00 539,450.32 539,451.98 C 539,456.06 546.49,480.93 549.48,486.78 C 552.38,492.46 552.57,494.74 550.51,499.67 C 549.24,502.71 549.16,507.02 549.96,529.37 C 550.79,552.78 551.10,555.87 552.91,558.93 C 554.51,561.65 555.06,564.95 555.60,575.16 L 556.27,587.97 L 553.31,591.41 C 545.51,600.49 545.29,602.62 551.46,609.22 C 556.18,614.26 559.94,621.30 559.97,625.17 C 559.99,626.59 562.73,630.58 567.09,635.54 C 576.88,646.65 581.65,654.33 583.00,661.17 C 584.86,670.58 585.77,672.59 591.09,679.09 C 597.82,687.31 601.53,689.56 607.70,689.16 C 611.56,688.92 612.55,688.47 612.84,686.86 C 613.49,683.35 615.10,682.36 620.20,682.36 L 625.15,682.36 L 621.57,678.18 L 618,674.00 L 618,662.37 C 618,648.58 618.90,646.87 626.72,645.89 C 636.82,644.62 647.26,641.24 651.81,637.78 C 654.27,635.90 657.12,634.36 658.14,634.36 C 661.28,634.36 660.27,637.98 656.25,641.14 C 649.37,646.54 647.34,647.20 626.21,651.00 C 623.02,651.58 621.76,655.58 622.17,663.92 C 622.49,670.40 622.82,671.34 626.25,675.35 C 632.44,682.57 631.11,687.36 622.92,687.36 C 617.88,687.36 611.43,689.56 610.78,691.50 C 610.55,692.19 607.76,692.89 604.24,693.15 L 598.10,693.59 L 592.73,688.22 C 584.05,679.53 581.28,675.03 579.40,666.53 C 578.35,661.78 576.43,656.85 574.36,653.61 C 569.63,646.17 559.07,633.52 557.08,632.88 C 555.90,632.51 555.06,630.38 554.28,625.80 C 553.34,620.31 552.40,618.34 548.46,613.56 C 540.52,603.92 540.36,600.60 547.46,592.29 C 552.27,586.65 553.55,581.96 551.91,576.00 C 551.33,573.93 551.13,571.01 551.46,569.52 C 551.89,567.57 551.37,565.90 549.58,563.47 C 547.77,561.02 547.12,558.89 547.14,555.49 C 547.16,552.94 546.73,548.16 546.18,544.86 C 544.83,536.74 545.16,501.09 546.60,499.26 C 549.16,496.01 548.87,493.19 545.27,486.66 C 543.19,482.87 540.96,476.73 539.94,472.00 C 538.97,467.52 537.61,462.06 536.92,459.86 C 536.22,457.66 535.62,453.54 535.58,450.72 C 535.51,446.49 536.05,444.80 538.61,441.22 C 544.24,433.32 545.36,430.30 545.60,422.36 C 545.75,417.20 546.50,413.35 548.00,410.02 L 550.17,405.17 L 547.95,399.25 C 546.28,394.77 545.91,392.28 546.43,389.09 C 546.81,386.76 547.47,381.26 547.89,376.86 C 548.52,370.39 549.27,367.91 551.83,363.91 C 557.20,355.52 555.76,351.38 547.13,350.39 C 541.33,349.72 540.65,347.34 544.59,341.39 L 547.31,337.28 L 545.22,333.07 C 541.99,326.56 541.56,323.68 543.37,320.91 C 544.63,318.99 545.98,318.40 549.72,318.16 C 555.79,317.77 556.27,315.93 552.09,309.20 C 548.85,303.99 548.11,298.87 550.08,295.21 C 550.67,294.09 550.90,292.93 550.58,292.61 C 550.27,292.30 547.04,292.14 543.40,292.26 L 536.79,292.47 L 531.14,286.55 C 528.04,283.30 523.58,278.52 521.24,275.94 C 518.90,273.36 515.52,270.64 513.72,269.89 C 509.50,268.12 507.38,265.70 506.27,261.36 C 505.63,258.88 504.81,257.86 503.44,257.86 C 500.82,257.86 495.73,266.57 494.01,274.00 C 492.32,281.32 491.88,281.88 485.33,284.98 C 479.15,287.90 476.75,290.78 471.17,301.96 C 468.67,306.96 464.65,312.76 460.66,317.10 C 457.10,320.98 453.91,325.47 453.55,327.11 C 453.19,328.74 451.57,331.35 449.95,332.90 C 448.32,334.46 447,336.10 447,336.56 C 447,337.01 443.47,341.64 439.16,346.84 C 434.60,352.35 430.83,357.96 430.13,360.29 C 428.68,365.15 425.77,367.36 420.81,367.36 C 415.33,367.36 407.18,370.75 401.64,375.34 C 395.90,380.08 392.36,380.51 389.18,376.86 C 387.99,375.48 386.55,374.36 386.00,374.36 C 385.44,374.36 381.55,377.35 377.35,381.02 C 370.56,386.94 369.15,387.73 364.71,388.16 C 360.26,388.59 357.20,389.36 356.22,389.36 C 355.24,389.36 353.44,390.06 352.22,390.91 C 351.00,392.65 347.73,395.68 344.5,397.36 z M 112.67,245.70 C 111.26,244.29 112.33,243.34 124.75,235.09 C 131.76,230.42 138.4,225.59 139.5,224.34 C 140.6,223.09 144.45,220.17 148.07,217.84 C 151.68,215.51 157.08,211.25 160.07,208.37 C 163.18,205.37 168.26,201.86 172,200.14 C 175.65,198.45 180.91,194.84 184.02,191.89 C 187.07,189.00 190.91,185.94 192.57,185.08 C 197.30,182.63 214.88,181.00 228.48,181.75 C 238.13,182.28 241.57,182.09 245.97,180.78 C 255.93,177.81 266.61,169.04 271.09,160.17 C 274.38,153.66 274.21,153.71 285.06,155.51 C 291.94,156.64 292.08,156.62 298.12,153.45 C 301.48,151.69 304.41,150.44 304.63,150.66 C 305.55,151.58 303.76,154.00 300.49,156.23 C 296.33,159.07 290.36,159.89 283.31,158.60 C 280.46,158.08 277.71,157.93 277.20,158.26 C 276.68,158.59 275.32,160.66 274.16,162.86 C 271.34,168.24 269.47,170.36 263,175.53 C 252.17,184.18 242.71,186.96 229.73,185.30 C 218.77,183.90 201.56,185.47 195.37,188.44 C 193.11,189.52 189.41,192.43 187.16,194.91 C 184.51,197.83 180.72,200.46 176.39,202.40 C 172.39,204.20 167.27,207.67 163.61,211.06 C 160.25,214.17 154.57,218.61 151,220.93 C 147.42,223.24 143.6,226.15 142.5,227.39 C 141.4,228.63 137.50,231.57 133.85,233.93 C 130.19,236.28 126.93,238.65 126.60,239.19 C 125.85,240.41 118.22,244.88 115.42,245.74 C 114.28,246.09 113.05,246.07 112.67,245.70 z "/>
    <g
       id="g6320"
       transform="translate(-15,3)">
      <path
         id="path5325"
         d="M 167,709 C 166,709 166,702 167,699 C 168,698 169,698 175,698 C 179,699 183,700 183,700 C 185,702 186,707 184,709 C 183,710 169,710 167,709 z "
         style="fill:#99ca62" />
      <path
         id="path5330"
         d="M 185,709 C 186,709 186,708 186,705 C 185,701 186,699 177,698 C 177,698 169,697 168,698 C 167,699 166,703 166,703 C 166,710 167,710 175,710 C 179,710 184,710 185,709 z "
         style="fill:none;stroke:#fdfd59;stroke-width:4;stroke-miterlimit:4;stroke-dasharray:none;stroke-opacity:1" />
    </g>
    <path
       style="fill:none;stroke:#fdfd59;stroke-width:4;stroke-miterlimit:4;stroke-dasharray:none;stroke-opacity:1"
       d="M 575,690 C 579,686 580,678 577,671 C 574,666 570,664 564,668 C 562,669 559,673 558,677 C 557,680 557,683 556,684 C 556,686 555,688 556,689 C 557,691 563,694 567,694 C 570,694 573,693 575,690 z "
       id="path5203" />
    <path
       style="fill:#663503"
       d="M 512,771.98 C 512,771.50 513.61,767.11 515.59,762.23 L 519.18,753.36 L 520.64,746.36 L 522.10,739.36 L 524.58,733.91 C 525.95,730.92 529.86,723.55 533.27,717.53 L 539.48,706.59 L 543.06,702.47 C 545.02,700.21 548.01,696.33 549.70,693.86 L 552.78,689.36 L 557.87,686.36 L 562.96,683.36 L 562.98,679.74 C 563.00,675.57 560.52,651.14 558.88,639.36 L 557.77,631.36 L 556.26,630.16 L 554.74,628.95 L 555.37,627.32 L 556.00,625.68 L 554.47,620.52 L 552.94,615.36 L 548.10,609.53 L 543.26,603.71 L 544.88,598.53 L 546.50,593.36 L 548.94,590.11 C 550.28,588.32 551.82,586.86 552.37,586.86 L 553.37,586.86 L 550.69,589.65 L 548.01,592.45 L 546.14,597.90 L 544.27,603.36 L 549.17,609.54 L 554.06,615.73 L 555.60,620.89 L 557.13,626.06 L 556.63,627.37 L 556.12,628.69 L 557.33,629.15 L 558.53,629.62 L 559.73,635.49 C 561.35,643.39 561.80,647.12 563.01,662.36 C 563.57,669.51 564.28,677.16 564.58,679.36 L 565.13,683.36 L 559.56,686.66 L 553.99,689.97 L 549.96,695.66 C 547.75,698.80 544.25,703.48 542.19,706.07 L 538.45,710.78 L 531.18,724.57 L 523.91,738.36 L 522.37,746.35 L 520.83,754.34 L 518.48,759.35 C 517.18,762.10 515.54,766.27 514.82,768.61 L 513.51,772.86 L 512.75,772.86 C 512.34,772.86 512,772.46 512,771.98 z M 552.60,584.28 C 552.27,583.41 552,578.91 552,574.28 L 552,565.86 L 550.95,565.86 C 550.37,565.86 548.11,566.72 545.93,567.77 L 541.97,569.69 L 539.61,566.52 C 535.38,560.85 532.22,555.43 530.87,551.54 L 529.54,547.72 L 524.77,544.29 C 522.14,542.40 519.64,540.86 519.21,540.86 L 518.43,540.86 L 517.09,536.30 C 516.35,533.80 515.15,531.15 514.42,530.42 L 513.09,529.10 L 508.33,528.38 L 503.56,527.67 L 498.53,525.07 L 493.5,522.48 L 488.5,521.80 C 485.75,521.43 479.21,520.57 473.97,519.90 L 464.44,518.69 L 458.32,520.27 C 454.96,521.14 451.35,521.86 450.30,521.86 L 448.40,521.86 L 441.95,525.33 L 435.5,528.81 L 429.98,528.83 L 424.47,528.86 L 419.60,532.11 L 414.73,535.36 L 412.61,540.42 C 411.45,543.20 409.98,546.33 409.34,547.37 L 408.19,549.26 L 406.73,548.05 C 405.93,547.39 402.66,545.95 399.47,544.85 C 396.27,543.75 391.60,541.56 389.08,539.97 L 384.5,537.10 L 379.36,536.54 L 374.22,535.98 L 370.77,534.54 L 367.32,533.10 L 366.01,528.40 L 364.69,523.71 L 362.59,522.39 C 361.44,521.67 358.85,520.79 356.84,520.44 L 353.19,519.80 L 352.72,518.58 C 352.47,517.91 351.67,513.98 350.96,509.86 L 349.66,502.36 L 346.58,497.86 C 344.88,495.38 342.96,493.01 342.31,492.59 C 341.66,492.18 339.76,489.45 338.10,486.53 L 335.07,481.24 L 325.28,479.41 C 319.90,478.40 314.98,477.38 314.34,477.15 C 313.70,476.91 311.61,474.34 309.68,471.44 L 306.18,466.17 L 300.84,465.23 L 295.5,464.28 L 289,465.67 L 282.5,467.05 L 271.95,477.49 L 261.40,487.92 L 255.96,486.76 L 250.51,485.59 L 248.00,483.99 C 242.26,480.32 242.00,479.34 244.96,472.44 L 246.93,467.85 L 245.82,462.35 L 244.72,456.86 L 245.81,451.41 L 246.91,445.96 L 245.34,441.36 L 243.78,436.77 L 239.14,437.44 C 233.14,438.31 233.28,438.19 232.49,442.90 L 231.81,446.93 L 229.33,449.87 L 226.86,452.81 L 220.18,449.44 L 213.5,446.08 L 211.59,443.97 C 210.54,442.81 209.34,441.86 208.91,441.86 L 208.14,441.86 L 207.52,447.11 L 206.89,452.36 L 207.89,457.36 L 208.88,462.36 L 207.80,466.03 L 206.72,469.71 L 204.42,470.29 L 202.12,470.86 L 197.19,469.81 L 192.26,468.75 L 186.46,469.05 L 180.66,469.36 L 178.99,474.35 L 177.33,479.35 L 171.91,480.42 L 166.5,481.49 L 159.76,479.68 L 153.02,477.86 L 149.20,477.86 L 145.38,477.86 L 143.72,476.61 L 142.06,475.36 L 138.53,468.53 L 135,461.71 L 135,459.72 L 135,457.72 L 133.25,458.23 C 129.71,459.27 119.54,460.86 116.56,460.84 L 113.5,460.83 L 112.00,459.88 L 110.51,458.94 L 111.75,457.70 L 113,456.46 L 113,458.06 L 113,459.67 L 117.25,459.22 C 122.51,458.66 132.76,456.88 134.46,456.23 L 135.73,455.75 L 136.94,460.55 L 138.14,465.36 L 141.14,470.61 L 144.14,475.86 L 147.32,475.86 C 149.07,475.87 154.15,476.75 158.62,477.82 L 166.74,479.77 L 171.61,478.56 L 176.48,477.36 L 177.99,471.99 L 179.5,466.62 L 188.5,467.25 C 193.45,467.59 199.13,468.14 201.14,468.46 L 204.78,469.05 L 205.96,465.47 L 207.14,461.88 L 206.01,456.42 L 204.87,450.96 L 206.06,444.91 C 206.72,441.58 207.45,438.86 207.68,438.86 C 207.91,438.86 209.54,440.23 211.30,441.92 L 214.5,444.98 L 220.24,447.93 L 225.98,450.88 L 227.92,449.67 L 229.86,448.46 L 230.49,443.86 C 230.84,441.33 231.43,438.78 231.81,438.19 L 232.5,437.11 L 237.79,435.98 C 240.71,435.36 243.49,434.86 243.97,434.86 L 244.85,434.86 L 246.52,440.58 L 248.18,446.31 L 247.12,451.58 L 246.06,456.86 L 247.17,462.35 L 248.27,467.84 L 246.13,472.98 C 244.96,475.81 244,478.51 244,478.98 C 244,479.45 245.68,480.93 247.75,482.27 L 251.5,484.71 L 256.35,485.41 L 261.20,486.12 L 271.46,475.89 L 281.72,465.67 L 288.59,464.23 L 295.46,462.79 L 300.31,463.83 L 305.16,464.87 L 305.94,464.39 C 307.02,463.72 309.71,453.68 310.99,445.50 L 312.07,438.65 L 314.61,433.63 L 317.16,428.61 L 315.15,420.48 C 314.04,416.01 312.86,410.96 312.52,409.25 L 311.90,406.14 L 317.79,404.98 L 323.69,403.82 L 327.28,398.59 L 330.87,393.36 L 334.93,381.86 L 338.98,370.36 L 338.97,365.86 L 338.96,361.36 L 337.69,357.86 C 335.61,352.15 332.40,346.55 328.07,341.07 C 325.83,338.23 324,335.73 324,335.51 C 324,335.28 326.58,334.91 329.75,334.67 L 335.5,334.24 L 340.58,330.57 L 345.67,326.90 L 352.08,324.76 L 358.5,322.61 L 369.13,322.31 L 379.76,322.01 L 384.85,319.43 L 389.93,316.86 L 391.95,316.86 L 393.97,316.86 L 397.12,310.61 C 398.85,307.17 402.02,302.11 404.16,299.36 L 408.05,294.36 L 412.99,282.90 L 417.92,271.44 L 414.20,266.40 L 410.48,261.36 L 410.80,258.72 L 411.11,256.08 L 417.48,255.40 L 423.85,254.71 L 428.28,255.38 L 432.71,256.04 L 433.44,254.20 C 433.84,253.19 434.43,248.79 434.74,244.42 L 435.31,236.49 L 432.00,230.37 L 428.69,224.24 L 433.09,218.20 C 435.51,214.89 443.01,206.41 449.75,199.36 L 462,186.56 L 462,191.73 L 462,196.91 L 464.75,198.00 C 466.26,198.59 469.52,199.32 472,199.60 L 476.5,200.12 L 477.67,201.05 L 478.85,201.98 L 481.86,200.43 L 484.86,198.88 L 484.13,196.12 C 483.20,192.63 483.26,192.18 485.31,187.49 L 487,183.61 L 487,179.74 L 487,175.86 L 485.91,175.86 L 484.82,175.86 L 488.91,170.73 L 493,165.60 L 493,164.23 L 493,162.86 L 494.5,162.86 L 496,162.86 L 496,161.86 L 496,160.86 L 529.52,160.86 L 563.04,160.86 L 569.77,156.65 C 573.47,154.34 576.78,152.03 577.13,151.53 L 577.76,150.61 L 579.12,151.07 L 580.48,151.52 L 573.49,155.94 L 566.5,160.36 L 582.25,160.63 L 598,160.91 L 598,161.81 C 598,162.31 598.58,163.31 599.30,164.04 C 600.01,164.76 601.63,167.49 602.89,170.11 L 605.17,174.86 L 606.05,174.86 L 606.92,174.86 L 607.99,178.85 L 609.07,182.84 L 611.53,185.30 L 614,187.77 L 614,189.30 L 614,190.83 L 617.76,193.21 C 619.83,194.52 622.14,196.33 622.90,197.25 L 624.28,198.91 L 623.67,199.51 L 623.06,200.12 L 625.31,201.89 L 627.56,203.66 L 630.28,203.14 L 633,202.62 L 633,201.68 L 633,200.74 L 633.95,201.33 L 634.91,201.92 L 638.57,200.39 C 640.59,199.55 642.37,198.86 642.53,198.86 C 643.33,198.86 641.53,206.00 639.39,211.34 L 636.98,217.36 L 633.68,220.86 C 631.86,222.78 629.28,225.30 627.94,226.46 C 626.59,227.62 623.90,230.35 621.94,232.53 L 618.39,236.50 L 617.07,239.68 L 615.75,242.86 L 583.12,242.80 L 550.5,242.74 L 546.30,237.67 L 542.11,232.60 L 543.55,231.16 L 545,229.71 L 545,224.89 L 545,220.07 L 543.25,219.32 C 542.28,218.91 540.24,218.67 538.70,218.79 L 535.91,219.02 L 533.88,216.44 L 531.85,213.86 L 529.55,213.86 C 528.28,213.86 525.28,214.57 522.87,215.45 L 518.5,217.04 L 512.5,216.95 L 506.5,216.86 L 505.05,217.79 L 503.60,218.72 L 501.90,217.81 C 500.97,217.31 498.39,215.27 496.17,213.27 L 492.13,209.65 L 489.40,204.26 L 486.67,198.87 L 482.35,201.28 L 478.02,203.70 L 477.45,202.78 L 476.88,201.86 L 474.27,201.86 C 472.84,201.86 469.27,201.10 466.33,200.17 L 461,198.49 L 460.95,193.92 L 460.90,189.36 L 450.39,200.30 L 439.88,211.24 L 435.04,217.89 L 430.21,224.53 L 433.58,229.94 L 436.95,235.36 L 436.93,240.36 C 436.92,243.11 436.35,248.06 435.66,251.36 L 434.41,257.36 L 425.80,257.01 L 417.18,256.66 L 415.18,257.30 L 413.18,257.93 L 412.57,259.53 L 411.96,261.12 L 415.81,266.24 L 419.67,271.36 L 414.83,282.65 L 409.99,293.93 L 405.24,300.17 L 400.5,306.41 L 397.56,312.63 L 394.63,318.86 L 391.77,318.86 L 388.92,318.86 L 384.71,321.06 L 380.5,323.26 L 371,323.36 L 361.5,323.45 L 353.5,325.85 L 345.5,328.24 L 340.40,332.05 L 335.31,335.86 L 331.71,335.86 L 328.11,335.86 L 327.64,336.63 L 327.16,337.40 L 330.57,341.88 C 332.45,344.34 335.20,348.83 336.69,351.86 L 339.38,357.36 L 339.79,363.90 L 340.20,370.45 L 336.49,381.40 L 332.79,392.36 L 329.91,396.91 C 328.33,399.42 326.01,402.41 324.76,403.56 L 322.5,405.65 L 318.25,406.34 L 314,407.03 L 314,408.33 C 314,409.05 315.07,413.79 316.39,418.87 L 318.79,428.11 L 315.89,434.23 L 313.00,440.36 L 313.00,442.55 C 312.99,445.34 310.47,456.26 308.59,461.58 L 307.15,465.67 L 310.67,470.70 L 314.19,475.73 L 318.84,476.71 C 321.40,477.25 326.25,478.23 329.62,478.88 L 335.75,480.07 L 338.07,484.21 C 339.36,486.49 341.32,489.30 342.45,490.45 C 343.57,491.60 345.95,494.65 347.73,497.21 L 350.97,501.88 L 351.50,505.12 C 351.80,506.90 352.50,510.67 353.06,513.51 L 354.09,518.65 L 357.79,519.31 C 359.83,519.67 362.23,520.18 363.12,520.44 L 364.75,520.91 L 366.86,526.70 L 368.97,532.48 L 374.32,534.17 C 377.26,535.10 380.93,535.86 382.47,535.86 L 385.27,535.86 L 389.99,538.76 L 394.72,541.67 L 400.61,543.48 C 403.84,544.48 406.78,545.70 407.12,546.19 L 407.75,547.07 L 408.62,545.72 C 409.10,544.97 410.42,542.11 411.54,539.36 L 413.59,534.36 L 419.04,530.64 L 424.5,526.92 L 430.41,526.89 L 436.32,526.86 L 440.72,524.28 L 445.12,521.70 L 454.81,519.36 L 464.5,517.02 L 472.15,517.88 C 476.35,518.35 482.65,519.26 486.15,519.90 L 492.5,521.05 L 497.70,523.42 L 502.90,525.79 L 509.26,526.96 L 515.61,528.13 L 517.81,533.79 L 520.00,539.46 L 525.37,542.91 L 530.73,546.36 L 532.46,551.11 C 533.42,553.72 535.96,558.58 538.11,561.91 L 542.02,567.96 L 542.76,567.52 C 543.16,567.27 545.23,566.35 547.36,565.47 L 551.23,563.86 L 549.76,561.61 L 548.30,559.36 L 547.52,550.86 L 546.75,542.36 L 546.76,520.86 C 546.77,499.55 546.90,497.40 548.25,495.24 L 548.95,494.12 L 545.89,488.48 L 542.83,482.84 L 539.92,471.10 C 538.32,464.64 536.73,457.22 536.38,454.61 L 535.74,449.87 L 540.87,441.29 L 546,432.70 L 546,427.21 L 546,421.72 L 559.75,422.28 C 567.31,422.59 588.38,423.37 606.57,424.00 L 639.64,425.16 L 648.33,424.62 L 657.03,424.08 L 658.53,422.82 L 660.04,421.57 L 660.74,422.27 L 661.44,422.97 L 659.97,423.89 C 659.16,424.39 656.02,425.33 653,425.97 L 647.5,427.14 L 609,425.96 C 587.82,425.31 565.21,424.46 558.75,424.06 L 547,423.34 L 547,428.04 L 547,432.74 L 541.95,441.05 L 536.90,449.36 L 537.51,454.56 C 537.85,457.42 539.41,464.95 540.98,471.29 L 543.83,482.83 L 546.91,488.22 L 550.00,493.60 L 548.65,497.48 L 547.30,501.36 L 547.54,521.86 C 547.67,533.13 548.12,546.18 548.54,550.86 L 549.31,559.36 L 551.05,561.86 L 552.80,564.36 L 553.34,575.11 C 553.64,581.02 553.73,585.86 553.55,585.86 C 553.36,585.86 552.94,585.15 552.60,584.28 z M 624.72,195.85 L 623,193.83 L 623,191.04 L 623,188.24 L 620.25,184.87 C 618.73,183.02 616.26,180.22 614.75,178.64 L 612,175.79 L 611.98,174.07 L 611.96,172.36 L 606.93,166.86 L 601.90,161.36 L 617.69,161.08 L 633.48,160.80 L 634.81,162.58 L 636.14,164.36 L 637.07,164.11 L 638,163.86 L 638,165.86 L 638,167.86 L 639.75,167.84 C 640.71,167.84 642.53,167.55 643.80,167.21 L 646.11,166.59 L 645.61,165.30 L 645.11,164.00 L 646.55,162.81 L 648,161.61 L 648,163.27 L 648,164.92 L 649.5,165.50 L 651,166.07 L 651,173.88 C 651,178.18 650.72,182.41 650.39,183.28 L 649.78,184.86 L 648.47,184.86 C 647.75,184.86 646.11,185.75 644.83,186.85 C 641.01,190.11 635.00,193.86 633.59,193.86 C 632.86,193.86 631.12,194.76 629.72,195.86 C 626.62,198.30 626.82,198.30 624.72,195.85 z M 599.33,161.19 L 600,160.52 L 600.66,161.19 L 601.33,161.86 L 600,161.86 L 598.66,161.86 L 599.33,161.19 z " />
    <path
       d="M 517,211 L 505,211 L 505,195 L 517,195 L 517,211 z M 515,209 C 515,209 515,197 515,197 C 515,197 506,197 506,197 C 506,197 506,209 506,209 C 506,209 515,209 515,209 z "
       style="fill:#ffffff" />
    <text
       xml:space="preserve"
       style="font-size:28px;font-style:normal;font-variant:normal;font-weight:normal;font-stretch:normal;text-align:center;line-height:125%;writing-mode:lr-tb;text-anchor:middle;fill:#663503;fill-opacity:1;stroke:none;stroke-width:1px;stroke-linecap:butt;stroke-linejoin:miter;stroke-opacity:1;font-family:sans"
       x="600.19"
       y="278.01"
       id="text2165"
       linespacing="125%"><tspan
         role="line"
         id="tspan2167"
         x="600.19"
         y="278.01">Burkina</tspan><tspan
         role="line"
         x="600.19"
         y="313.01"
         id="tspan2169">Faso</tspan></text>
    <text
       xml:space="preserve"
       style="font-size:36px;font-style:normal;font-variant:normal;font-weight:normal;font-stretch:normal;text-align:center;line-height:125%;writing-mode:lr-tb;text-anchor:middle;fill:#663503;fill-opacity:1;stroke:none;stroke-width:1px;stroke-linecap:butt;stroke-linejoin:miter;stroke-opacity:1;font-family:sans"
       x="605.07"
       y="540.71"
       id="text3143"
       linespacing="125%"><tspan
         role="line"
         id="tspan3145"
         x="605.07"
         y="540.71"
         style="font-size:28px;fill:#663503;fill-opacity:1">Ghana</tspan></text>
    <text
       xml:space="preserve"
       style="font-size:36px;font-style:normal;font-variant:normal;font-weight:normal;font-stretch:normal;text-align:center;line-height:125%;writing-mode:lr-tb;text-anchor:middle;fill:#663503;fill-opacity:1;stroke:none;stroke-width:1px;stroke-linecap:butt;stroke-linejoin:miter;stroke-opacity:1;font-family:sans"
       x="185.55"
       y="311.79"
       id="text3147"
       linespacing="125%"><tspan
         role="line"
         id="tspan3149"
         x="185.55"
         y="311.79"
         style="font-size:28px;fill:#663503;fill-opacity:1">Mali</tspan></text>
    <text
       xml:space="preserve"
       style="font-size:20;font-style:normal;font-variant:normal;font-weight:bold;font-stretch:normal;text-align:start;line-height:125%;writing-mode:lr-tb;text-anchor:start;fill:#663503;fill-opacity:1;stroke:none;stroke-width:1px;stroke-linecap:butt;stroke-linejoin:miter;stroke-opacity:1;font-family:sans"
       x="406.71"
       y="457.23"
       id="text3151"
       linespacing="125%"><tspan
         role="line"
         id="tspan3153"
         x="406.71"
         y="457.23"
         style="font-size:16;text-align:start;text-anchor:start;fill:#663503;fill-opacity:1;font-weight:bold">Karaboro</tspan></text>
    <text
       xml:space="preserve"
       style="font-size:16px;font-style:normal;font-variant:normal;font-weight:bold;font-stretch:normal;text-align:end;line-height:125%;writing-mode:lr-tb;text-anchor:end;fill:#663503;fill-opacity:1;stroke:none;stroke-width:1px;stroke-linecap:butt;stroke-linejoin:miter;stroke-opacity:1;font-family:sans"
       x="561.43"
       y="673.51"
       id="text3155"
       linespacing="125%"><tspan
         role="line"
         id="tspan3157"
         x="561.43"
         y="673.51"
         style="font-size:16px;font-weight:bold;text-align:end;text-anchor:end;fill:#663503;fill-opacity:1">Nafaanra</tspan></text>
    <text
       xml:space="preserve"
       style="font-size:16px;font-style:normal;font-variant:normal;font-weight:bold;font-stretch:normal;text-align:center;line-height:125%;writing-mode:lr-tb;text-anchor:middle;fill:#663503;fill-opacity:1;stroke:none;stroke-width:1px;stroke-linecap:butt;stroke-linejoin:miter;stroke-opacity:1;font-family:sans"
       x="583.24"
       y="396.53"
       id="text3159"
       linespacing="125%"
       transform="matrix(0.88,0.47,-0.47,0.88,0,0)"><tspan
         role="line"
         id="tspan3161"
         x="583.24"
         y="396.53"
         style="font-size:16px;font-weight:bold;text-align:center;text-anchor:middle;fill:#663503;fill-opacity:1">Tagwana-Djimini</tspan></text>
    <text
       xml:space="preserve"
       style="font-size:16px;font-style:normal;font-variant:normal;font-weight:bold;font-stretch:normal;text-align:center;line-height:125%;writing-mode:lr-tb;text-anchor:middle;fill:#663503;fill-opacity:1;stroke:none;stroke-width:1px;stroke-linecap:butt;stroke-linejoin:miter;stroke-opacity:1;font-family:sans"
       x="558.45"
       y="314.35"
       id="text3163"
       linespacing="125%"
       transform="matrix(0.88,0.47,-0.47,0.88,0,0)"><tspan
         role="line"
         id="tspan3165"
         x="558.45"
         y="314.35"
         style="font-size:16px;font-weight:bold;text-align:center;text-anchor:middle;fill:#663503;fill-opacity:1">Kpalaga</tspan></text>
    <text
       xml:space="preserve"
       style="font-size:16px;font-style:normal;font-variant:normal;font-weight:bold;font-stretch:normal;text-align:center;line-height:125%;writing-mode:lr-tb;text-anchor:middle;fill:#663503;fill-opacity:1;stroke:none;stroke-width:1px;stroke-linecap:butt;stroke-linejoin:miter;stroke-opacity:1;font-family:sans"
       x="257.14"
       y="506.43"
       id="text3167"
       linespacing="125%"><tspan
         role="line"
         id="tspan3169"
         x="257.14"
         y="506.43"
         style="font-size:16px;font-weight:bold;text-align:center;text-anchor:middle;fill:#663503;fill-opacity:1">Senari</tspan></text>
    <text
       xml:space="preserve"
       style="font-size:16px;font-style:normal;font-variant:normal;font-weight:bold;font-stretch:normal;text-align:center;line-height:125%;writing-mode:lr-tb;text-anchor:middle;fill:#663503;fill-opacity:1;stroke:none;stroke-width:1px;stroke-linecap:butt;stroke-linejoin:miter;stroke-opacity:1;font-family:sans"
       x="-91.04"
       y="437.42"
       id="text3171"
       linespacing="125%"
       transform="matrix(0.54,-0.83,0.83,0.54,0,0)"><tspan
         role="line"
         id="tspan3173"
         x="-91.04"
         y="437.42"
         style="font-size:16px;font-weight:bold;text-align:center;text-anchor:middle;fill:#663503;fill-opacity:1">Suppire-Mamara</tspan></text>
    <text
       xml:space="preserve"
       style="font-size:28px;font-style:normal;font-variant:normal;font-weight:normal;font-stretch:normal;text-align:center;line-height:125%;writing-mode:lr-tb;text-anchor:middle;fill:#663503;fill-opacity:1;stroke:none;stroke-width:1px;stroke-linecap:butt;stroke-linejoin:miter;stroke-opacity:1;font-family:sans"
       x="168.20"
       y="626.94"
       id="text3175"
       linespacing="125%"><tspan
         role="line"
         x="168.20"
         y="626.94"
         id="tspan3179">Côte</tspan><tspan
         role="line"
         x="168.20"
         y="661.94"
         id="tspan3183">d'Ivoire</tspan></text>
    <text
       xml:space="preserve"
       style="font-size:20px;font-style:normal;font-variant:normal;font-weight:normal;font-stretch:normal;text-align:center;line-height:125%;writing-mode:lr-tb;text-anchor:middle;fill:#54c9e6;fill-opacity:1;stroke:none;stroke-width:1px;stroke-linecap:butt;stroke-linejoin:miter;stroke-opacity:1;font-family:sans"
       x="366.33"
       y="795.37"
       id="text3185"
       linespacing="125%"
       transform="matrix(0.93,-0.35,0.35,0.93,0,0)"><tspan
         role="line"
         id="tspan3187"
         x="366.33"
         y="795.37">Black</tspan><tspan
         role="line"
         x="366.33"
         y="820.37"
         id="tspan3189">Volta</tspan></text>
    <text
       xml:space="preserve"
       style="font-size:20px;font-style:normal;font-variant:normal;font-weight:normal;font-stretch:normal;text-align:center;line-height:125%;writing-mode:lr-tb;text-anchor:middle;fill:#54c9e6;fill-opacity:1;stroke:none;stroke-width:1px;stroke-linecap:butt;stroke-linejoin:miter;stroke-opacity:1;font-family:sans"
       x="-18.13"
       y="285.44"
       id="text3191"
       linespacing="125%"
       transform="matrix(0.74,-0.67,0.67,0.74,0,0)"><tspan
         role="line"
         x="-18.13"
         y="285.44"
         id="tspan3195">Niger</tspan></text>
    <text
       xml:space="preserve"
       style="font-size:16px;font-style:normal;font-variant:normal;font-weight:bold;font-stretch:normal;text-align:center;line-height:125%;writing-mode:lr-tb;text-anchor:middle;fill:#663503;fill-opacity:1;stroke:none;stroke-width:1px;stroke-linecap:butt;stroke-linejoin:miter;stroke-opacity:1;font-family:sans"
       x="161.46773"
       y="738.22437"
       id="text3199"
       linespacing="125%"
       sodipodi:linespacing="125%"><tspan
         role="line"
         id="tspan3201"
         x="161.46773"
         y="738.22437"
         style="font-size:16px;font-weight:bold;text-align:center;text-anchor:middle;fill:#663503;fill-opacity:1">Senari</tspan></text>
    <text
       xml:space="preserve"
       style="font-size:16px;font-style:italic;font-variant:normal;font-weight:normal;font-stretch:normal;text-align:center;line-height:125%;writing-mode:lr;text-anchor:middle;fill:#663503;fill-opacity:1;stroke:none;stroke-width:1;stroke-linecap:butt;stroke-linejoin:miter;stroke-opacity:1;font-family:sans;stroke-miterlimit:4;stroke-dasharray:none"
       x="203.98"
       y="362.72"
       id="text3203"
       linespacing="125%"><tspan
         role="line"
         id="tspan3205"
         x="203.98"
         y="362.72">Bambara</tspan></text>
    <text
       xml:space="preserve"
       style="font-size:16px;font-style:italic;font-variant:normal;font-weight:normal;font-stretch:normal;text-align:center;line-height:125%;writing-mode:lr-tb;text-anchor:middle;fill:#663503;fill-opacity:1;stroke:none;stroke-width:1;stroke-linecap:butt;stroke-linejoin:miter;stroke-miterlimit:4;stroke-dasharray:none;stroke-opacity:1;font-family:sans"
       x="161.03999"
       y="757.95001"
       id="text3207"
       linespacing="125%"
       sodipodi:linespacing="125%"><tspan
         role="line"
         id="tspan3209"
         x="161.03999"
         y="757.95001">Bambara</tspan></text>
    <text
       xml:space="preserve"
       style="font-size:12px;font-style:normal;font-variant:normal;font-weight:normal;font-stretch:normal;text-align:start;line-height:200%;writing-mode:lr;text-anchor:start;fill:#000000;fill-opacity:1;stroke:none;stroke-width:1px;stroke-linecap:butt;stroke-linejoin:miter;stroke-opacity:1;font-family:sans"
       x="203.98"
       y="685.79"
       id="text3211"
       linespacing="200%"><tspan
         role="line"
         id="tspan3213"
         x="203.98"
         y="685.79">Senufo area</tspan><tspan
         role="line"
         x="203.98"
         y="709.79"
         id="tspan3215">Nafaanra</tspan><tspan
         role="line"
         x="203.98"
         y="733.79"
         id="tspan3217">Senufo subfamily</tspan><tspan
         role="line"
         x="203.98"
         y="757.79"
         id="tspan3219">Other language</tspan></text>
    <text
       xml:space="preserve"
       style="font-size:16px;font-style:italic;font-variant:normal;font-weight:normal;font-stretch:normal;text-align:center;line-height:125%;writing-mode:lr-tb;text-anchor:middle;fill:#663503;fill-opacity:1;stroke:none;stroke-width:1;stroke-linecap:butt;stroke-linejoin:miter;stroke-opacity:1;font-family:sans;stroke-miterlimit:4;stroke-dasharray:none"
       x="278.07"
       y="426.80"
       id="text3221"
       linespacing="125%"><tspan
         role="line"
         id="tspan3223"
         x="278.07"
         y="426.80">Duun</tspan></text>
    <text
       xml:space="preserve"
       style="font-size:16px;font-style:italic;font-variant:normal;font-weight:normal;font-stretch:normal;text-align:center;line-height:125%;writing-mode:lr;text-anchor:middle;fill:#663503;fill-opacity:1;stroke:none;stroke-width:1;stroke-linecap:butt;stroke-linejoin:miter;stroke-opacity:1;font-family:sans;stroke-miterlimit:4;stroke-dasharray:none"
       x="434.12"
       y="426.36"
       id="text4194"
       linespacing="125%"><tspan
         role="line"
         id="tspan4196"
         x="434.12"
         y="426.36">Toussian</tspan></text>
    <text
       xml:space="preserve"
       style="font-size:16px;font-style:italic;font-variant:normal;font-weight:normal;font-stretch:normal;text-align:center;line-height:125%;writing-mode:lr-tb;text-anchor:middle;fill:#663503;fill-opacity:1;stroke:none;stroke-width:1;stroke-linecap:butt;stroke-linejoin:miter;stroke-opacity:1;font-family:sans;stroke-miterlimit:4;stroke-dasharray:none"
       x="428.17"
       y="478.44"
       id="text4198"
       linespacing="125%"><tspan
         role="line"
         id="tspan4200"
         x="428.17"
         y="478.44">Dogosé</tspan></text>
    <text
       xml:space="preserve"
       style="font-size:16px;font-style:italic;font-variant:normal;font-weight:normal;font-stretch:normal;text-align:center;line-height:125%;writing-mode:lr-tb;text-anchor:middle;fill:#663503;fill-opacity:1;stroke:none;stroke-width:1;stroke-linecap:butt;stroke-linejoin:miter;stroke-opacity:1;font-family:sans;stroke-miterlimit:4;stroke-dasharray:none"
       x="407.07"
       y="508.40"
       id="text2208"
       linespacing="125%"><tspan
         role="line"
         id="tspan2210"
         x="407.07"
         y="508.40">Cerma</tspan></text>
    <text
       xml:space="preserve"
       style="font-size:16px;font-style:italic;font-variant:normal;font-weight:normal;font-stretch:normal;text-align:center;line-height:125%;writing-mode:lr-tb;text-anchor:middle;fill:#663503;fill-opacity:1;stroke:none;stroke-width:1;stroke-linecap:butt;stroke-linejoin:miter;stroke-opacity:1;font-family:sans;stroke-miterlimit:4;stroke-dasharray:none"
       x="368.40"
       y="483.92"
       id="text2212"
       linespacing="125%"><tspan
         role="line"
         id="tspan2214"
         x="368.40"
         y="483.92">Turka</tspan></text>
    <text
       xml:space="preserve"
       style="font-size:16px;font-style:italic;font-variant:normal;font-weight:normal;font-stretch:normal;text-align:center;line-height:125%;writing-mode:lr-tb;text-anchor:middle;fill:#663503;fill-opacity:1;stroke:none;stroke-width:1;stroke-linecap:butt;stroke-linejoin:miter;stroke-opacity:1;font-family:sans;stroke-miterlimit:4;stroke-dasharray:none"
       x="442.04"
       y="583.30"
       id="text2216"
       linespacing="125%"><tspan
         role="line"
         id="tspan2218"
         x="442.04"
         y="583.30">Dioula</tspan></text>
    <text
       xml:space="preserve"
       style="font-size:16px;font-style:italic;font-variant:normal;font-weight:normal;font-stretch:normal;text-align:center;line-height:125%;writing-mode:lr-tb;text-anchor:middle;fill:#663503;fill-opacity:1;stroke:none;stroke-width:1;stroke-linecap:butt;stroke-linejoin:miter;stroke-opacity:1;font-family:sans;stroke-miterlimit:4;stroke-dasharray:none"
       x="505.59"
       y="629.82"
       id="text2220"
       linespacing="125%"><tspan
         role="line"
         id="tspan2222"
         x="505.59"
         y="629.82">Kulango</tspan></text>
    <text
       xml:space="preserve"
       style="font-size:16px;font-style:italic;font-variant:normal;font-weight:normal;font-stretch:normal;text-align:center;line-height:125%;writing-mode:lr-tb;text-anchor:middle;fill:#663503;fill-opacity:1;stroke:none;stroke-width:1;stroke-linecap:butt;stroke-linejoin:miter;stroke-opacity:1;font-family:sans;stroke-miterlimit:4;stroke-dasharray:none"
       x="595.20"
       y="658.50"
       id="text2224"
       linespacing="125%"><tspan
         role="line"
         id="tspan2226"
         x="595.20"
         y="658.50">Deg</tspan></text>
    <text
       xml:space="preserve"
       style="font-size:16px;font-style:italic;font-variant:normal;font-weight:normal;font-stretch:normal;text-align:center;line-height:125%;writing-mode:lr-tb;text-anchor:middle;fill:#663503;fill-opacity:1;stroke:none;stroke-width:1;stroke-linecap:butt;stroke-linejoin:miter;stroke-opacity:1;font-family:sans;stroke-miterlimit:4;stroke-dasharray:none"
       x="601.30"
       y="688.98"
       id="text2228"
       linespacing="125%"><tspan
         role="line"
         id="tspan2230"
         x="601.30"
         y="688.98">Ligbi</tspan></text>
    <text
       xml:space="preserve"
       style="font-size:16px;font-style:italic;font-variant:normal;font-weight:normal;font-stretch:normal;text-align:center;line-height:125%;writing-mode:lr-tb;text-anchor:middle;fill:#663503;fill-opacity:1;stroke:none;stroke-width:1;stroke-linecap:butt;stroke-linejoin:miter;stroke-opacity:1;font-family:sans;stroke-miterlimit:4;stroke-dasharray:none"
       x="585.45"
       y="719.46"
       id="text2232"
       linespacing="125%"><tspan
         role="line"
         id="tspan2234"
         x="585.45"
         y="719.46">Brong</tspan></text>
    <text
       xml:space="preserve"
       style="font-size:16px;font-style:italic;font-variant:normal;font-weight:normal;font-stretch:normal;text-align:center;line-height:125%;writing-mode:lr-tb;text-anchor:middle;fill:#663503;fill-opacity:1;stroke:none;stroke-width:1;stroke-linecap:butt;stroke-linejoin:miter;stroke-opacity:1;font-family:sans;stroke-miterlimit:4;stroke-dasharray:none"
       x="264.76"
       y="659.17"
       id="text2248"
       linespacing="125%"><tspan
         role="line"
         id="tspan2250"
         x="264.76"
         y="659.17">Malinké</tspan></text>
    <text
       xml:space="preserve"
       style="font-size:16px;font-style:italic;font-variant:normal;font-weight:normal;font-stretch:normal;text-align:center;line-height:125%;writing-mode:lr-tb;text-anchor:middle;fill:#663503;fill-opacity:1;stroke:none;stroke-width:1;stroke-linecap:butt;stroke-linejoin:miter;stroke-opacity:1;font-family:sans;stroke-miterlimit:4;stroke-dasharray:none"
       x="287.23"
       y="213.34"
       id="text2252"
       linespacing="125%"><tspan
         role="line"
         id="tspan2254"
         x="287.23"
         y="213.34">Bambara</tspan></text>
    <text
       xml:space="preserve"
       style="font-size:16px;font-style:italic;font-variant:normal;font-weight:normal;font-stretch:normal;text-align:center;line-height:125%;writing-mode:lr-tb;text-anchor:middle;fill:#663503;fill-opacity:1;stroke:none;stroke-width:1;stroke-linecap:butt;stroke-linejoin:miter;stroke-opacity:1;font-family:sans;stroke-miterlimit:4;stroke-dasharray:none"
       x="403.58"
       y="229.72"
       id="text2256"
       linespacing="125%"><tspan
         role="line"
         id="tspan2258"
         x="403.58"
         y="229.72">Bomu</tspan></text>
    <text
       xml:space="preserve"
       style="font-size:16px;font-style:italic;font-variant:normal;font-weight:normal;font-stretch:normal;text-align:center;line-height:125%;writing-mode:lr-tb;text-anchor:middle;fill:#663503;fill-opacity:1;stroke:none;stroke-width:1;stroke-linecap:butt;stroke-linejoin:miter;stroke-opacity:1;font-family:sans;stroke-miterlimit:4;stroke-dasharray:none"
       x="407.89"
       y="340.06"
       id="text2260"
       linespacing="125%"><tspan
         role="line"
         id="tspan2262"
         x="407.89"
         y="340.06">Bolon</tspan></text>
    <text
       xml:space="preserve"
       style="font-size:16px;font-style:italic;font-variant:normal;font-weight:normal;font-stretch:normal;text-align:center;line-height:125%;writing-mode:lr-tb;text-anchor:middle;fill:#663503;fill-opacity:1;stroke:none;stroke-width:1;stroke-linecap:butt;stroke-linejoin:miter;stroke-opacity:1;font-family:sans;stroke-miterlimit:4;stroke-dasharray:none"
       x="330.03"
       y="360.20"
       id="text2264"
       linespacing="125%"><tspan
         role="line"
         id="tspan2266"
         x="330.03"
         y="360.20">Banka</tspan></text>
    <text
       xml:space="preserve"
       style="font-size:16px;font-style:normal;font-variant:normal;font-weight:normal;font-stretch:normal;text-align:start;line-height:125%;writing-mode:lr-tb;text-anchor:start;fill:#663503;fill-opacity:1;stroke:none;stroke-width:1px;stroke-linecap:butt;stroke-linejoin:miter;stroke-opacity:1;font-family:sans"
       x="419.32"
       y="400.40"
       id="text2268"
       linespacing="125%"><tspan
         role="line"
         id="tspan2270"
         x="419.32"
         y="400.40">Bobo Dioulasso</tspan></text>
    <path
       type="arc"
       style="opacity:1;fill:#663503;fill-opacity:1;fill-rule:nonzero;stroke:none;stroke-width:4;stroke-linecap:round;stroke-linejoin:round;stroke-miterlimit:4;stroke-dasharray:none;stroke-dashoffset:0;stroke-opacity:1"
       id="path2274"
       cx="224.99"
       cy="557.72"
       rx="3.01"
       ry="3.44"
       d="M 228.00 557.72 A 3.01 3.44 0 1 1  221.97,557.72 A 3.01 3.44 0 1 1  228.00 557.72 z"
       transform="translate(108.89,148.67)" />
    <use
       x="0"
       y="0"
       xlink:href="#path2274"
       id="use2276"
       transform="translate(2.15,-40.08)"
       width="552.95"
       height="623.66" />
    <use
       x="0"
       y="0"
       xlink:href="#path2274"
       id="use2278"
       transform="translate(207.75,-20.25)"
       width="552.95"
       height="623.66" />
    <use
       x="0"
       y="0"
       xlink:href="#path2274"
       id="use2280"
       transform="translate(-41.80,-153.87)"
       width="552.95"
       height="623.66" />
    <use
       x="0"
       y="0"
       xlink:href="#path2274"
       id="use2282"
       transform="translate(-43.53,-314.64)"
       width="552.95"
       height="623.66" />
    <use
       x="0"
       y="0"
       xlink:href="#path2274"
       id="use2284"
       transform="translate(77.58,-311.19)"
       width="552.95"
       height="623.66" />
    <text
       xml:space="preserve"
       style="font-size:16px;font-style:normal;font-variant:normal;font-weight:normal;font-stretch:normal;text-align:start;line-height:125%;writing-mode:lr-tb;text-anchor:start;fill:#663503;fill-opacity:1;stroke:none;stroke-width:1px;stroke-linecap:butt;stroke-linejoin:miter;stroke-opacity:1;font-family:sans"
       x="342.67"
       y="671.91"
       id="text2287"
       linespacing="125%"><tspan
         role="line"
         id="tspan2289"
         x="342.67"
         y="671.91">Katiola</tspan></text>
    <text
       xml:space="preserve"
       style="font-size:16px;font-style:normal;font-variant:normal;font-weight:normal;font-stretch:normal;text-align:start;line-height:125%;writing-mode:lr-tb;text-anchor:start;fill:#663503;fill-opacity:1;stroke:none;stroke-width:1px;stroke-linecap:butt;stroke-linejoin:miter;stroke-opacity:1;font-family:sans"
       x="341.39"
       y="710.92"
       id="text2291"
       linespacing="125%"><tspan
         role="line"
         id="tspan2293"
         x="341.39"
         y="710.92">Bouaké</tspan></text>
    <text
       xml:space="preserve"
       style="font-size:16px;font-style:italic;font-variant:normal;font-weight:normal;font-stretch:normal;text-align:center;line-height:125%;writing-mode:lr-tb;text-anchor:middle;fill:#663503;fill-opacity:1;stroke:none;stroke-width:1;stroke-linecap:butt;stroke-linejoin:miter;stroke-opacity:1;font-family:sans;stroke-miterlimit:4;stroke-dasharray:none"
       x="378.20"
       y="740.18"
       id="text2295"
       linespacing="125%"><tspan
         role="line"
         id="tspan2297"
         x="378.20"
         y="740.18">Baoule</tspan></text>
    <text
       xml:space="preserve"
       style="font-size:16px;font-style:normal;font-variant:normal;font-weight:normal;font-stretch:normal;text-align:end;line-height:125%;writing-mode:lr-tb;text-anchor:end;fill:#663503;fill-opacity:1;stroke:none;stroke-width:1px;stroke-linecap:butt;stroke-linejoin:miter;stroke-opacity:1;font-family:sans"
       x="286.53"
       y="556.10"
       id="text2299"
       linespacing="125%"><tspan
         role="line"
         id="tspan2301"
         x="286.53"
         y="556.10">Korhogo</tspan></text>
    <text
       xml:space="preserve"
       style="font-size:16px;font-style:normal;font-variant:normal;font-weight:normal;font-stretch:normal;text-align:end;line-height:125%;writing-mode:lr-tb;text-anchor:end;fill:#663503;fill-opacity:1;stroke:none;stroke-width:1px;stroke-linecap:butt;stroke-linejoin:miter;stroke-opacity:1;font-family:sans"
       x="285.18"
       y="396.02"
       id="text2303"
       linespacing="125%"><tspan
         role="line"
         id="tspan2305"
         x="285.18"
         y="396.02">Sikasso</tspan></text>
    <text
       xml:space="preserve"
       style="font-size:16px;font-style:normal;font-variant:normal;font-weight:normal;font-stretch:normal;text-align:end;line-height:125%;writing-mode:lr-tb;text-anchor:end;fill:#663503;fill-opacity:1;stroke:none;stroke-width:1px;stroke-linecap:butt;stroke-linejoin:miter;stroke-opacity:1;font-family:sans"
       x="535.10"
       y="691.05"
       id="text3276"
       linespacing="125%"><tspan
         role="line"
         id="tspan3278"
         x="535.10"
         y="691.05">Bonduku</tspan></text>
    <path
       style="fill:none;fill-rule:evenodd;stroke:#663503;stroke-width:1px;stroke-linecap:butt;stroke-linejoin:miter;stroke-opacity:1;font-size:10"
       d="M 499.55,591.66 L 499.55,596.51 L 364.21,596.51 L 364.21,591.66 M 391.48,596.54 C 391.48,596.54 391.48,593.45 391.48,592.42 M 418.30,596.39 L 418.30,592.58 M 445.27,596.23 L 445.27,592.58 M 472.40,596.23 L 472.40,592.58"
       id="path3290"
       transform="translate(108.89,148.67)"
       nodetypes="cccccscccccc" />
    <text
       xml:space="preserve"
       style="font-size:10px;font-style:normal;font-variant:normal;font-weight:normal;font-stretch:normal;text-align:center;line-height:125%;writing-mode:lr-tb;text-anchor:middle;fill:#000000;fill-opacity:1;stroke:#663503;stroke-width:1px;stroke-linecap:butt;stroke-linejoin:miter;stroke-opacity:1;font-family:sans"
       x="474.01"
       y="757.09"
       id="text3294"
       linespacing="125%"><tspan
         role="line"
         id="tspan3296"
         x="474.01"
         y="757.09">0</tspan></text>
    <text
       xml:space="preserve"
       style="font-size:10px;font-style:normal;font-variant:normal;font-weight:normal;font-stretch:normal;text-align:center;line-height:125%;writing-mode:lr-tb;text-anchor:middle;fill:#000000;fill-opacity:1;stroke:#663503;stroke-width:1px;stroke-linecap:butt;stroke-linejoin:miter;stroke-opacity:1;font-family:sans"
       x="500.07"
       y="757.09"
       id="text3298"
       linespacing="125%"><tspan
         role="line"
         id="tspan3300"
         x="500.07"
         y="757.09">50</tspan></text>
    <text
       xml:space="preserve"
       style="font-size:10px;font-style:normal;font-variant:normal;font-weight:normal;font-stretch:normal;text-align:center;line-height:125%;writing-mode:lr-tb;text-anchor:middle;fill:#000000;fill-opacity:1;stroke:#663503;stroke-width:1px;stroke-linecap:butt;stroke-linejoin:miter;stroke-opacity:1;font-family:sans"
       x="527.35"
       y="757.09"
       id="text3302"
       linespacing="125%"><tspan
         role="line"
         id="tspan3304"
         x="527.35"
         y="757.09">100</tspan></text>
    <text
       xml:space="preserve"
       style="font-size:10px;font-style:normal;font-variant:normal;font-weight:normal;font-stretch:normal;text-align:center;line-height:125%;writing-mode:lr-tb;text-anchor:middle;fill:#000000;fill-opacity:1;stroke:#663503;stroke-width:1px;stroke-linecap:butt;stroke-linejoin:miter;stroke-opacity:1;font-family:sans"
       x="554.47"
       y="757.09"
       id="text3306"
       linespacing="125%"><tspan
         role="line"
         id="tspan3308"
         x="554.47"
         y="757.09">150</tspan></text>
    <text
       xml:space="preserve"
       style="font-size:10px;font-style:normal;font-variant:normal;font-weight:normal;font-stretch:normal;text-align:center;line-height:125%;writing-mode:lr-tb;text-anchor:middle;fill:#000000;fill-opacity:1;stroke:#663503;stroke-width:1px;stroke-linecap:butt;stroke-linejoin:miter;stroke-opacity:1;font-family:sans"
       x="580.99"
       y="757.09"
       id="text3310"
       linespacing="125%"><tspan
         role="line"
         id="tspan3312"
         x="580.99"
         y="757.09">200</tspan></text>
    <text
       xml:space="preserve"
       style="font-size:10px;font-style:normal;font-variant:normal;font-weight:normal;font-stretch:normal;text-align:center;line-height:125%;writing-mode:lr-tb;text-anchor:middle;fill:#000000;fill-opacity:1;stroke:#663503;stroke-width:1px;stroke-linecap:butt;stroke-linejoin:miter;stroke-opacity:1;font-family:sans"
       x="608.57"
       y="757.09"
       id="text3314"
       linespacing="125%"><tspan
         role="line"
         id="tspan3316"
         x="608.57"
         y="757.09">250</tspan></text>
    <text
       xml:space="preserve"
       style="font-size:10px;font-style:normal;font-variant:normal;font-weight:normal;font-stretch:normal;text-align:center;line-height:125%;writing-mode:lr-tb;text-anchor:middle;fill:#000000;fill-opacity:1;stroke:#663503;stroke-width:1px;stroke-linecap:butt;stroke-linejoin:miter;stroke-opacity:1;font-family:sans"
       x="636.31"
       y="757.21"
       id="text3318"
       linespacing="125%"><tspan
         role="line"
         id="tspan3320"
         x="636.31"
         y="757.21">km</tspan></text>
  </g>
</svg>
