<svg xmlns="http://www.w3.org/2000/svg" xml:space="preserve" width="2168.914" height="1973.678" style="display:inline" version="1.0"><path d="M158.826 203.494V400H375V203.494Z" style="fill:#c6ecff;fill-rule:evenodd" transform="matrix(10 0 0 10 -1584.686 -2029.942)"/><path d="M158.826 371.215V400h120.336c-.008-.143.006-.275-.035-.436-.183-.698-4.077-5.886-4.797-6.69-2.725-3.047-5.328-1.187-6.568-2.356l.386-.754c1.221-.324 3.364-2.083 3.909-3.25l-.082-.99c-2.6.358-4.068 2.623-5.823 4.193-.53.476-1.424.706-1.94 1.178-1.205 1.103-1.78 3.035-3.325 3.912-3.663 2.076-3.496.124-7.123.423-2.925.24-11.611 1.737-12.641-2.261l.498-.52q.826-.136 1.637-.33l.498-.517c-.715-.448-1.789-.264-2.606-.33-.664.43-1.451.595-2.105.99-4.184 2.528-4.803-.053-8.233-1.604-.718.1-1.28.803-1.83 1.227-1.19.225-2.409-.108-3.576.093-.5.087-1.021.417-1.523.471-3.01.324-3.914-3.178-6.375-3.816-3.575-.927-5.69 1.055-8.953 1.224-2.36.121-3.815-.617-6.016-.847-2.579-.27-6.246.099-8.896-.801-1.164-.397-2.332-1.117-3.55-1.367-5.571-1.144-7.526-1.135-11.697-5.465a7.2 7.2 0 0 1 .028-1.98c-.188-.747-3.793-2.926-4.656-3.346-1.45-.704-3.056-.742-4.52-1.555-1.289-.716-2.436-1.664-3.74-2.355-1.01.224-2.218.61-3.244.61-.733 0-2.08-.707-3.438-1.536" style="display:inline;fill:#fefee9;fill-opacity:1" transform="matrix(10 0 0 10 -1584.686 -2029.942)"/><path d="M266.13 203.494c1.625.763 3.181 1.513 4.151 1.787.57.161 1.183.155 1.75.375.898.35 1.647 1.138 2.594 1.406 4.619 1.308 7.483.787 11.781-1.062.654-.87 1.23-1.691 1.768-2.506zm25.956 0c-1.17 1.302-2.773 2.619-2.367 4.287.25.195.438.64.5.938-2.65 2.512-5.675 1.193-8.656.937-3.48-.572-7.313.69-10.657-.093-1.082-1.556-.386-3.027-2.906-3.25-.157.066-.592.26-.656.437l-.281.031c-.94 1.264 1.63 3.76 1.468 5.063-.522.609-1.08.742-1.844.656-1.747-.198-3.363-1.281-5.093-1.281-1.01 0-1.886.754-2.844.562l-.188-.219c-.554.63.922 4.79 1.375 5.375.324.416 1.39.991 1.875 1.25.434 1.6 5.41 3.213 6.25 4.907.385.198.828.35 1.25.437.22.258.48.535.625.844-.097.38.122 1.387.157 1.875l-.25.188c.093-1.088-.244-1.99-1.281-2.438h-.688c-.906-.652-2.648-1.256-3.781-.813.27-.23-.26-.009-.531.282-.148.159-.773.995-.813 1.125-.44 1.423.675 2.24.625 3.5-1.455 3.13-.637 1.876 0 4.531-.128.804-.829 1.312-1.25 1.969l.031.812c.173.408.7.768 1.125.844.862.154 1.586-.076 2.438.375 1.157.612 1.216 1.856 3.093 1.969.688-.38 1.464-.356 2.22-.219l.53-.25c.461-.617.656-1.377 1.157-1.969.196-.23.503-.453.75-.625 1.478-1.028 2.902-1.455 4.281-2.812.212-.21.425-.415.687-.563-.842 3.13-4.104 8.778-6.125 11.063-1.705.492-2.768 1.576-4 2.719-.187.29-.113.95 0 1.25.536.519 1.371.96 1.844 1.625 1.187.836 2.313 4.044 2.96 6.933l.001.01c.412 1.844.623 3.565.52 4.47l.277.141c1.526-.779 3.85.301 4.686-1.459.256-.54.207-1.199.443-1.744a9 9 0 0 0-.438-1.367l-1.689-.015h1.678c-.575-1.43-1.384-2.912-1.25-4.313.062-.657.514-1.924.906-2.469 1.038-1.443 9.692-6.896 11.375-7.187 1.248-.216 2.496.18 3.687.469.484.118 1.724.593 1.938 1.125.713 1.78-1.313 3.148-1.188 3.906l-.03-.219c-3.057 3.129 3.496 7.778 5.53 7.906.896.056 1.402-1.25 2.563-1.187.377.16 1.02.328 1.344.562.26.19.612.759 1.031 1.438H375v-52.319Z" style="display:inline;fill:#fefee9;fill-opacity:1;fill-rule:evenodd" transform="matrix(10 0 0 10 -1584.686 -2029.942)"/><path d="M304.531 255.781c1.231 1.997 2.824 5.415 3 6.375l-.25.531-.406.282c-1.186-.03-1.813-1.213-2.938-1.531-1.337-.38-4.465 2.74-4.437 4.156.42.87.416 1.485 1.438 1.937.88-.304 1.212-.625 1.875-1.281.424-.122 1.128-.246 1.406-.031 1.883 1.006 2.2 3.511.906 5.187-.522.676-1.297 1.039-1.75 1.813.06 1.485.283 2.592.625 4.031.46.643 1.39.617 2 1.031.33.224 1.263 1.691 1.656 2.125 2.314 2.556 3.198 3.625 2.719 7.188-.124.923-.506 1.715-.531 2.687.133-.582.253-1.698.562-2.156 1.742-.596 2.39 2.155 3 3.094.554.85 1.68 1.209 1.656 2.469-.048 2.555-2.014 1.904-1.25 7.25.2.335.63.768 1 .906l.72-.063c2.996-2.236 3.52-12.937 9.25-9.125.672.448 2.89 1.55 3.218 2.25 4.384 4.702-1.188 5.905-1.188 8.625 0 3.585 2.642 2.331 2.72 4.469.031.93-.445 1.597-.5 2.5-.2 1.021 2.001 5.42 2.718 6.313.608.153 1.52.31 2 .75 2.132 1.95 1.937 9.773-1.281 10.156-1.55-.188-1.92-1.802-3-2.656-1.413-1.118-3.45-1.442-4.875-2.594-.41.046-.774.017-1.219.093-.295.198-.617.688-.688 1.032l.344.719c4.235 3.04 4.228 1.149 6.906 6.53.41.823 1 1.582 1 2.563 0 1.782-1.367 2.9-.843 4.844.706 2.629 2.52 2.288.75 5.563-.6.474-1.352.478-2.063.375-3.786-.553-2.799-5.458-5.219-6.313-.572.078-1.03.069-1.53.438-.123.64-.482 4.88-.532 4.937l-.406.156c-1.283-1.066-1.956-7.849-2.844-9l-.75-.156c-1.292.967-3.056 2.198-4.719 2.469-.655-.053-1.338-.459-1.937-.438-.158.255-.534.513-.75.719a5.4 5.4 0 0 0-.219 1.344l.25.531c.784.452 1.599.09 2.438.219.607.303.943 1.33 1.062 1.937.134.684.47 1.49.438 2.188-.133 2.916-4.45 3.472-.75 7.375.54.57.983 1.135 1.843 1.219 1.56.15 2.39.063 3.563-1 .967-.878 1.334-2.454 2.187-3.22-.122-.05-.036-.236.031-.187.032-.576.472-1.125.907-1.469 1.247-.097 2.185.676 2.468 1.844-.285.857-1.118 2.274-1.156 3.063.727.849 1.391 1.189 1.969 2.25.732 1.343.403 4.033 2.094 4.625.5.04.976-.25 1.406-.469l.812.094c1.53 1.306 2.735 3.19 4.375 4.375 3.233 2.335 7.477 5.558 7 10.093-.268 2.555-2.182 4.643-1.062 7.22l-.281.843c-1.074-.665-1.771-2.809-2.969-3.875-1.544-1.375-3.6-.25-5.281.094-2.174.443-3.366 0-4.375 2.75-.18 1.235-.537 2.284-.594 3.562-.06 1.35.259 7.068 1.25 7.875l.063.188c.113.608.488 1.135.593 1.718.503 2.776.477 5.627 4.094 4.844 1.392.263 1.897 1.554 2.563 2.594.086.135.217.25.328.375h3.867c-.408-.336-.821-.666-1.227-1-2.485-2.049-3.589-3.86-4.906-6.781-.381-.846-.915-1.717-1.031-2.657-.152-1.223.644-1.958.844-3 .569-.313.556-.685.875-1.125.61-.844 1.071-.733 1.093-2.03.012-.632-.885-2.555-.5-3.063l.531-.469c.815-.2 2.094.336 2.532 1.062 1.686.332 3.188-.324 4.187 1.375 1.11 1.885 1.39 4.874 1 6.97-.156.832-.61 1.737-.75 2.562-.278 1.658.75 5.452 1.746 8.156H375V255.781zm-22.097 144.581.129-.279c1.313-2.576 7.477-2.633 8.232-.235l-.034.514zm11.664 0c.125-5.054 3.567-7.272 7.701-8.996.903-.377 2.08-.516 2.883-1.037l.776.235c.526 1.488 1.273 3.724.943 5.278-1.075.941-2.428 1.455-3.576 2.45a3.63 3.63 0 0 0-.338 2.07z" style="display:inline;fill:#fefee9;fill-opacity:1" transform="matrix(10 0 0 10 -1584.686 -2029.942)"/><path d="m216.205 238.455-.639.426c-1.215 2.287 2.966 6.547 3.715 8.717.311.902-.042 1.644.082 2.545 1.096 1.337 2.69 2.15 3.688 3.582 2.406 3.45 5.845 9.286 8.814 12.062 1.072 1.002 3.143 1.72 4.436 2.543 1.824 1.162 3.17 2.674 4.822 4.008.556.449 1.269.795 1.803 1.271 1.42 1.268 2.459 4.787 3.215 5.184 1.259.472 2.449-.977 3.658-.943.523.015 1.114.247 1.664.283 1.798-.532.47-3.286.47-4.477-.9-1.613-2.605-1.404-4.074-2.168-.925-.482-1.673-1.298-2.55-1.838-.89-.548-2.097-.78-3.077-1.082-2.17-.672-4.516-1.955-6.347-3.3-2.483-1.822-3.888-4.454-5.905-6.645-.99-1.074-2.57-1.814-3.435-2.873-1.618-1.976-2.815-4.174-3.854-6.504-.312-.697-.478-1.519-.888-2.166-2.218-3.51-2.645-3.934-4.158-7.918-.267-.377-.997-.679-1.44-.707zm9.645 25.824-.278.047c.105 2.623-.224 7.078.832 9.377.718 1.563 3.748 3.743 3.797 4.617-.355.82-1.381.578-1.94 1.98-.277.698-.23 1.114-.25 1.839-.105 4.076 2.285 3.659 3.634 6.549l-.28.707c-.393.105-.891.574-1.052.943.125.85.43 1.928.277 2.78-.203 1.121-1.245 2.165-.555 3.392a3.4 3.4 0 0 0 1.22.896c.762 2.927 1.075 3.356 3.743 4.664.428.21.813.597 1.33.614.164.005 4.282-1.833 4.795-2.075 2.154-1.549-1.96-4.963-2.605-6.548l.304-.52c.791.107 1.349.765 1.803 1.367.754.097 1.702.114 2.41.377.743.275 1.202.942 2.08.942 3.167-1.221 1.676-4.678-.36-6.172-.697-.513-1.506-.57-2.19-.99-.645-.397-1.119-1.755-1.692-2.403-1.27-1.44-6.416-5.329-5.82-7.305l.527-.517c2.56-.811 2.103 3.501 5.71 2.685-.388-1.068-2.7-4.027-3.66-4.617-.664-.409-1.611-.504-2.08-1.178-.39-.565-.282-1.112-.47-1.697-.078-.239-3.535-4.385-3.797-4.57-3.126.337-4.066-3.067-5.433-5.184zm-21.786-39.441c-2.383.69-2.698-.497-4.388 1.98.089.113-.063.051-.074.141-.038.319.054 1.126.119 1.46.23 1.17.56 2.488 1.322 3.44 1.355 1.695 4.697 1.642 6.734 2.592 1.204.562 3.863 2.668 5.073 2.498.759-.602 1.937-.798 2.58-1.414.925-.888.972-2.525 0-3.392-.704-.628-2.31-.791-3.217-1.131-1.415-.53-4.306-1.916-5.322-3.016-.245-.266-.421-.73-.721-.943-.407-.291-.824-.371-1.33-.801-.146-.476-.356-1.114-.776-1.414zm52.11 53.342-.72.283c-.22.756-.133 1.518-.472 2.262-.534.508-1.346.223-1.996.33-.034.03-.15-.016-.193 0l-.213.11-.426.22-.166.988c.287.323.64.427 1.028.566 1.848.665 2.95 1.427 4.517 2.545.246.176.714.182.998.141l.332-.33c.015-.515.028-1.045.112-1.555 3.114-3.95-.024-3.39-1.801-5.465l-.002-.002c-.275.02-.731-.008-.998-.093zm-3.188 2.875c.096-.081-.082-.094-.082-.094zm.028 5.511c-.043.305-.277.623-.47.848l-.028.426c.128.112.138.552.138.707l.028-.236.084.142-.112.188c-.16 2.56 3.007 9.744 5.85 10.084.405.048 1.833-.297 2.328-.377.391.426 1.19.621 1.69.941.353.046.946-.087 1.22-.328a2.8 2.8 0 0 0 .387-1.13c-.166-2.448-4.261-2.242-5.625-3.724-.236-.256-.44-.67-.483-1.005-.223-1.804-.748-2.594-1.57-4.178.394-1.073-1.07-1.926-1.855-2.262l-.002-.002c-.49.191-1.024-.269-1.58-.094zm11.754 1.227c-1.785.169-1.853-.239-2.883 1.365l-.112.096c.363 6.667 10.305 5.09 10.534 4.76-.018-.465.11-1.108.36-1.508.618-.39 1.613-.843 2.327-.944.043-.628-.155-1.272-.414-1.837l-.13-.094c-.894-.65-1.855.1-2.837 0-.63-.064-4.24-1.442-5.1-1.744-.617-.217-1.114.015-1.745-.094zm-49.202-33.457c-.989.243-1.302 1.785-1.302 2.64.475 1.364 2.625 2.615 3.465 3.864 1.443 2.147 1.352 4.81 3.326 6.832l.5-.047c.583-1.181.11-6.01-.446-7.115-2.42-1.958-1.558-3.908-3.242-5.09h-.22l-.334-.707c-.116.05-1.257-.437-1.747-.377zm35.87 45.66c-1.91 2.205 1.459 3.155 1.857 4.713l.691.187a4.05 4.05 0 0 0-1.496-4.9zm-1.83 13.525c.232.425.704.714.914 1.084.48.846.568 2.26.914 3.204.272.738 2.448 4.78 3.05 4.949.391-.144.878-.616 1.053-.99-.059-2.345-1.494-3.075-2.55-4.807-.46-.752-.766-1.778-1.274-2.45-.59-.12-.434-1.038-2.108-.99z" style="display:inline;fill:#fefee9;fill-rule:evenodd;stroke:#0978ab;stroke-width:1;stroke-linejoin:round;stroke-miterlimit:3.86369;stroke-dasharray:none" transform="matrix(10 0 0 10 -1584.686 -2029.942)"/><path d="M158.826 336.996c.743.76 1.34 2.715 3.715 4.14 2.894 1.738 6.2 2.587 9.12 4.24 1.307.743 3.071 3.007 4.073 3.347 1.058.36 2.342-.294 3.495.234.606.278 1.075 1.034 1.746 1.367 1.304.647 3.254.828 4.71 1.508 1.539.717 2.623 2.41 4.047 3.25 1.198.71 2.656.742 3.909 1.604.66.453.863 1.046 1.746 1.271 7.657-1.19 3.935.452 8.732 1.84 1.32.382 3.331-1.28 4.906-1.414.195-.016.702-.032.887 0 .371.064 1.122.854 1.496 1.084.936.575 2.119.54 3.022 1.084.605.364.93 1.412.916 2.072l.636.426c.422-.072 1.134.117 1.442.422.29 1.162 1.259 3.286 2.55 3.582-.163.062.024-.308.11-.096 1.87-.19 2.57-3.27 5.684-2.543-.748 1.665-.353 1.847.304 3.346 1.181.873 4.19 0 4.63-1.508-.275-.79-.421-1.613-.694-2.402l.138-.614c.983-.91.974-1.284 2.385-1.65 1.402-1.497.083-3.616.914-5.324.532-.693 1.654-.866 2.356-1.65 2.182-2.438 3.264-6.366 4.297-9.376l.582-.19.554.518c.382.358.534 1.657.887 2.215.938 1.486 3.348 1.703 4.822 2.358l.446.611c.089.45.058.967-.03 1.414l.555.47c1.84.55 5.772-.807 6.652-2.589.492-.997.183-2.2.518-3.283.35-1.132 1.207-2.338.535-3.551-.565-1.832-1.359-1.51-1.219-4.006-.609-1.605-2.593-1.506-3.63-2.592-.705-.737-1.372-2.455-1.58-3.44-.333-1.563-.058-3.13-.278-4.71-.285-2.046-1.238-3.964-1.082-6.078-.708-1.076-1.883-1.424-2.521-2.781-1.128-2.396.338-4.665.166-7.069-.057-.797-.672-1.437-.887-2.168-.281-.955.185-1.835-.082-2.78-.541-1.305-4.781-1.545-5.988-1.32-2.948 2.3.219 4.103 1.689 5.514l.25.707-.33.707c-1.054.544-2.634.5-3.217 1.79-.174 1.13.742 2.093.528 3.251-.614 3.321-1.36 1.874-.196 6.08-.298 2.288-3.459 3-4.406 4.948-.378.775-.5 1.733-.887 2.545l-.554-.471c-.224-1.126-.452-2.438-.416-3.582.574-.902 1.425-1.439 1.966-2.215 1.457-2.089.468-6.94-.359-9.19-.464-1.262-1.79-1.947-1.996-3.343-.331-2.253 2.505-.578.72-6.834-.346-1.216-.809-2.52-1.662-3.486-.894-1.013-1.583-.86-2.662-1.461-1.64-.912-2.87-2.522-4.6-3.502-.253-.144-.678-.317-.888-.504-.224-.2-.656-.98-.775-1.272.115-.488.329-.998.609-1.414l.527-.283c4.535.416 3.867 2.034 5.655 2.78.254.044.567-.066.802-.14.57-1.05.03-1.668 0-2.64-.048-1.557 1.187-3.943-.248-5.324l-.775-.283c-.464.065-1.07.622-1.47.894l-.637-.094c-1.031-1.655 2.25-4.23 1.691-6.642-.318-1.372-3.316-2.959-4.324-4.053-2.323-2.523-3.519-5.702-5.989-8.2-.175-.256-2.261-1.987-2.761-2.497-.842-.86-1.257-1.952-2.06-2.826-3.018-3.277-7.137-4.615-8.565-9.66l.441-.614c2.714-1.259 4.114 2.32 5.018 4.24.286.21.837.372 1.191.33 1.81-1.465-.346-4.652-.719-6.218.866-1.18 2.168-1.195 2.024-3.158-.195-2.65-2.813-3.06-3.688-4.664-1.248-2.292-.62-7.95-3.27-9.237-.73-.355-1.961-.345-2.827-.613-.635-.196-1.934-1.299-2.385-1.225l-.61 1.367c-4.036 1.593-4.705-6.65-5.626-8.53-.483-.985-1.994-1.862-1.747-3.061.368-.77 1.227-.906 1.608-1.508 1.398-2.207-1.478-3.59-2.856-4.383-.549.442-3.644-1.123-4.406-1.271-2.815-.55-2.29 1.1-5.857-.848-.596-.327-1.231-.629-1.543-1.274-2.274-.725-2.91.133-5.018.754-.714-.16-1.45-.479-2.023-.941l-.25-.566c.217-.274.453-.603.748-.801h.195c.305-.116.814-.482.942-.801.883-.656 2.742.24 4.02-.33l.442-.613c-1.559-5.473-5.075-2.489-5.627-5.889l-.802-.285-.612.379q-.3.859-.525 1.742l-.61.142c-1.26-.152-1.553-1.191-2.05-2.167-1.1-.34-2.26.146-3.383.14-.687-.374-1.032-1.384-1.406-2.168h-3.14" style="display:inline;fill:#fefee9;fill-rule:evenodd;stroke:#0978ab;stroke-width:1;stroke-linejoin:round;stroke-miterlimit:3.86369;stroke-dasharray:none" transform="matrix(10 0 0 10 -1584.686 -2029.942)"/><path d="M301.328 334.208c.1.513.167 1.035.222 1.554-.623 1.212-1.805 1.734-2.051 3.252-.969-.822-2.086-3.355-1.636-4.618.808-.97 2.544-.922 3.465-.189zm-11.42-9.99.665.423c-.628.536-1.423.792-1.995 1.414-.652.708-.755 1.291-1.164 2.074-.428.816-2.268 1.027-3.022.706-.733-.311-1.092-1.282-1.423-1.931-.573-1.124-1.41-2.013-1.654-3.3.227-.397 2.27-1.305 2.772-1.366.313.221.702.137 1.025.33 2.28 1.362 1.652 2.192 4.796 1.65zm-8.732-22.713c1.99 3.006-.749 5.634-2.993 7.21l-.416-.047c.047-1.284.646-2.832-.86-3.534-.457-.214-.916-.172-1.357-.518l-.028-.519c1.232-.762 2.836-2.124 4.158-2.544l.665.188-.11-.142.073.094c.434.118.687.224.98.472z" style="display:inline;fill:#fefee9;fill-opacity:1;fill-rule:evenodd;stroke:#0978ab;stroke-width:1.2756;stroke-linejoin:round;stroke-miterlimit:3.86369" transform="matrix(10 0 0 10 -1584.686 -2029.942)"/><path d="M279.197 400.01q.006.106.003.206m-120.368-28.989c1.357.829 2.699 1.525 3.432 1.525 1.026 0 2.235-.388 3.244-.612 1.304.691 2.452 1.64 3.741 2.356 1.464.813 3.069.851 4.518 1.555.863.42 4.469 2.6 4.657 3.346a7.2 7.2 0 0 0-.028 1.979c4.171 4.33 6.125 4.322 11.697 5.466 1.217.25 2.385.97 3.549 1.367 2.65.9 6.318.53 8.897.8 2.201.23 3.656.97 6.015.849 3.264-.169 5.378-2.152 8.953-1.225 2.461.638 3.366 4.14 6.375 3.816.502-.054 1.024-.384 1.525-.471 1.167-.202 2.386.131 3.575-.094.552-.424 1.112-1.126 1.83-1.225 3.43 1.551 4.049 4.13 8.232 1.602.655-.395 1.443-.56 2.107-.99.817.067 1.89-.118 2.605.33l-.499.519q-.811.193-1.635.33l-.498.518c1.03 3.999 9.715 2.502 12.64 2.262 3.627-.299 3.46 1.652 7.123-.424 1.546-.877 2.12-2.808 3.326-3.911.515-.471 1.409-.703 1.94-1.178 1.755-1.57 3.222-3.834 5.821-4.194l.083.99c-.545 1.167-2.687 2.926-3.908 3.25l-.388.755c1.24 1.169 3.845-.69 6.57 2.356.72.805 4.612 5.993 4.794 6.691q.06.235.072.446m11.521-.017c.01.061.02.12.026.168m-8.113-.202c1.343-2.284 6.613-2.458 7.937-.57.056.081.113.371.15.604m11.739.001.008.157m-8.412-.162c.303-4.767 3.69-6.933 7.747-8.624.902-.377 2.08-.516 2.882-1.037l.776.235c.526 1.488 1.273 3.724.943 5.278-1.075.941-2.428 1.455-3.576 2.45a3.66 3.66 0 0 0-.368 1.703m-8.414.175.01-.18m49.345.016c-.996-2.703-2.018-6.512-1.74-8.169.139-.825.593-1.71.749-2.544.39-2.095.11-5.09-.998-6.975-1-1.699-2.499-1.035-4.185-1.366-.438-.727-1.736-1.283-2.55-1.084l-.527.471c-.386.509.51 2.432.499 3.063-.022 1.298-.47 1.181-1.08 2.026-.32.44-.32.818-.889 1.131-.2 1.042-.983 1.793-.831 3.016.116.94.644 1.793 1.026 2.639 1.317 2.92 2.42 4.737 4.906 6.786.355.292.723.567 1.08.854m4.569.23-.029-.078" style="display:inline;fill:none;stroke:#0978ab;stroke-width:1;stroke-linejoin:round;stroke-miterlimit:3.86369;stroke-dasharray:none" transform="matrix(10 0 0 10 -1584.686 -2029.942)"/><path d="M321.202 358.569c1.182.957 2.582 1.511 3.715 2.45 1.326 1.1 4.191 5.07 3.797 6.786-.819 1.44-2.61 2.164-3.908 3.11-.423.124-1.214.027-1.552-.283-1.231-2.658-1.292-2.525-4.13-3.015-.406.111-.96.494-1.193.848-.153 1.299.448 2.544-.277 3.77l-.665.376c-1.099-1.111-.616-2.011-1.22-3.11l-.86.094c-1.024 1.614 1.122 4.458-.22 6.456-1.885 2.803-4.754.892-6.293 2.498l.056 1.13c1.613 1.93 4.512-.06 6.264.142 1.172.135 3.508 1.88 4.352 2.733 3.218 3.253 3.524 5.437 4.02 9.754.138 1.206.464 2.476.498 3.676.018.638-.267 1.335-.25 1.98.025.852.287 1.634.613 2.398H319c.433-3.371 2.52-8.686-1.345-10.551-1.818.085-3.81 1.966-5.211 1.32l-.527-2.592c-2.368-2.437-6.02-5.393-6.902-8.765-.231-.885-.165-1.987.055-2.874.319-1.287 1.465-2.449 1.986-3.739.63-1.556 1.627-3.627 2.144-5.026.293-.792.43-1.64.804-2.403 1.419-2.893 2.975-5.895 3.77-9.048.25-.995.173-1.963.332-2.968l.666-.33c1.203.17 1.463 1.194 2.966.66 1.002-.792 1.65-2.035 2.106-3.204.18.189 1.64 3.888 1.664 4.146.11 1.195-.805 1.869-.305 3.582z" style="display:inline;fill:#fefee9;fill-opacity:1" transform="matrix(10 0 0 10 -1584.686 -2029.942)"/><path d="M319.022 400.202c.475-3.377 2.438-8.555-1.368-10.392-1.817.085-3.809 1.967-5.21 1.32l-.527-2.591c-2.368-2.438-6.02-5.393-6.902-8.765-.232-.885-.165-1.987.055-2.875.319-1.286 1.465-2.448 1.986-3.738.63-1.556 1.627-3.627 2.144-5.026.293-.793.43-1.64.804-2.404 1.418-2.893 2.975-5.895 3.77-9.047.25-.995.172-1.963.332-2.968l.665-.33c1.204.17 1.463 1.194 2.966.66 1.003-.793 1.651-2.035 2.107-3.205.18.19 1.639 3.889 1.663 4.147.11 1.195-.805 1.868-.305 3.581 1.182.957 2.582 1.511 3.714 2.45 1.327 1.1 4.192 5.07 3.798 6.786-.819 1.44-2.61 2.164-3.908 3.11-.424.125-1.214.027-1.553-.283-1.23-2.658-1.29-2.525-4.13-3.015-.405.112-.96.494-1.192.848-.153 1.299.448 2.544-.277 3.77l-.665.376c-1.099-1.111-.616-2.011-1.22-3.11l-.86.094c-1.024 1.614 1.122 4.458-.221 6.456-1.884 2.803-4.753.892-6.292 2.498l.056 1.13c1.613 1.93 4.512-.06 6.264.142 1.171.135 3.507 1.88 4.352 2.733 3.218 3.253 3.524 5.437 4.02 9.754.138 1.206.464 2.476.498 3.676.018.638-.267 1.335-.25 1.98.022.738.22 1.425.486 2.092m51.173-173c-1.147 1.228-2.244 2.57-3.595 3.531-1.413 1.006-4.589 1.79-5.294 2.356-.929-.23-1.455.047-2.328.047-.608 0-1.23-.247-1.858-.142-3.048.51-2.994 3.117-7.123 1.838-2.414-1.347-2.54.32-4.186.943-.686.259-1.445.17-2.161.518-2.018.98-2.269 2.767-5.128 1.79-.806-1.242-1.99-2.343-2.874-3.565-3.756-5.19-4.689-6.282-11.54-5.058-.432-.321-5.054-.406-6.653-2.308-1.575-1.875-1.293-5.281-4.85-4.76-2.824.414-4.073 4.126-7.373 4.477-3.54-.937-1.13-5.186-8.094-6.315l-.398.08c-1.565-.122-2.973.124-4.508.25-7.927.653-7.375 7.956-11.365 10.368-2.535 1.532-3.43-1.626-7.207.423l-.333.66c-.055-.047-.172.043-.11.094m96.998 100.724c-1.447.356-3.938-1.38-5.139-1.344-.207.01-4.966 1.573-5.184 1.696-.825.468-1.364 1.421-2.245 1.838-.882.048-1.368-.673-2.19-.849-1.26.393-1.322 1.335-2.162 1.933-1.404 1-4.744 1.426-6.541 2.356-1.779.92-2.36 2.164-3.742 3.44-1.326 1.223-2.95 1.662-4.49 2.497l-.388.66.138.989c.451.604 1.307.722 1.524 1.508-.155.763-.653 1.271-.86 2.01-.132.478-.056.902-.11 1.383-.247 2.202-1.445 2.371-2.965 3.392-.593 1.482-1.46 2.485-2.578 3.582-2.99 1.435-7.268-6.508-8.842-.707" style="display:inline;fill:none;stroke:#0978ab;stroke-width:1;stroke-linejoin:round;stroke-miterlimit:3.86369;stroke-dasharray:none" transform="matrix(10 0 0 10 -1584.686 -2029.942)"/><path d="m245.404 269.72-5.341 1.612-.05.025c.368.33.72.665 1.112.98.556.45 1.269.796 1.803 1.272 1.42 1.268 2.459 4.787 3.215 5.184 1.259.472 2.449-.977 3.658-.943.523.015 1.114.247 1.664.283 1.798-.532.47-3.286.47-4.477-.9-1.613-2.605-1.404-4.074-2.168-.89-.464-1.621-1.228-2.457-1.767zm-10.326 4.311-.072.04-2.32 2.226-.14 3.434 3.759 22.828-.006.115c.011 0 .018.009.029.01.164.005 4.282-1.832 4.795-2.074 2.154-1.55-1.96-4.964-2.606-6.55l.305-.519c.791.107 1.349.765 1.803 1.367.754.097 1.702.114 2.41.377.743.275 1.202.942 2.08.942 3.167-1.221 1.676-4.678-.36-6.172-.697-.513-1.506-.57-2.19-.99-.645-.396-1.12-1.755-1.692-2.403-1.27-1.44-6.416-5.328-5.82-7.304l.527-.518c2.56-.81 2.103 3.502 5.709 2.686-.387-1.068-2.698-4.028-3.658-4.618-.665-.409-1.612-.503-2.08-1.177-.39-.565-.283-1.113-.471-1.698v-.002zm21.096 4.149-.72.283c-.22.756-.133 1.518-.472 2.262-.534.508-1.346.223-1.996.33-.034.03-.15-.016-.193 0l-.213.11-.426.22-.166.988c.287.323.64.427 1.028.566 1.848.665 2.95 1.427 4.517 2.545.246.176.714.182.998.141l.332-.33c.015-.515.028-1.045.112-1.555 3.114-3.95-.024-3.39-1.801-5.465l-.002-.002c-.275.02-.731-.008-.998-.093m-3.188 2.875c.096-.081-.082-.094-.082-.094zm.235 5.472a1 1 0 0 0-.207.04c-.043.304-.277.622-.47.847l-.028.426c.128.112.138.552.138.707l.028-.236.084.142-.112.188c-.16 2.56 3.007 9.744 5.85 10.084.405.048 1.833-.297 2.328-.377.391.426 1.19.621 1.69.941.353.046.946-.087 1.22-.328a2.8 2.8 0 0 0 .387-1.13c-.166-2.448-4.261-2.242-5.625-3.724-.236-.256-.44-.67-.483-1.005-.223-1.804-.748-2.594-1.57-4.178.394-1.073-1.07-1.926-1.855-2.262l-.002-.002c-.428.167-.892-.165-1.373-.133m12.634 1.264c-.351.005-.693.07-1.087.002-1.785.169-1.853-.239-2.883 1.365l-.112.096c.363 6.667 10.305 5.09 10.534 4.76-.018-.465.111-1.108.361-1.508.617-.39 1.612-.842 2.326-.943.043-.628-.155-1.273-.414-1.838l-.13-.094c-.894-.65-1.855.1-2.837 0-.63-.064-4.24-1.442-5.1-1.744a1.8 1.8 0 0 0-.658-.096m-14.42 12.205c-1.91 2.205 1.46 3.155 1.858 4.713l.691.187a4.05 4.05 0 0 0-1.496-4.9zm28.245 1.557c-1.322.42-2.927 1.783-4.159 2.545l.03.517c.44.346.898.306 1.355.52.528.246.795.596.92 1.002l.09-.074 2.977-4.159a3 3 0 0 0-.584-.21l.037.046zm-39.793 4.64c-.576-.01-1.068.016-1.37.073-2.947 2.3.22 4.102 1.69 5.513l.25.707-.33.707c-1.054.544-2.634.5-3.217 1.79-.174 1.13.742 2.093.528 3.251-.614 3.321-1.36 1.874-.196 6.08-.298 2.288-3.46 3-4.406 4.948-.378.775-.5 1.733-.887 2.545l-4.412 10.91 5.469 4.764.586-6.584 3.02-6.254 4.743-1.51 7.551-1.62.153-.032c-.025-1.004-.006-2.009-.147-3.02-.285-2.046-1.238-3.964-1.082-6.078-.708-1.076-1.883-1.424-2.521-2.781-1.128-2.396.338-4.665.166-7.069-.057-.797-.672-1.437-.887-2.168-.281-.955.185-1.835-.082-2.779-.406-.98-2.892-1.36-4.62-1.393zm9.718 7.328c.233.425.705.714.915 1.084.48.846.568 2.26.914 3.204.272.738 2.448 4.78 3.05 4.949.391-.144.878-.616 1.053-.99-.059-2.345-1.494-3.075-2.55-4.807-.46-.752-.766-1.778-1.274-2.45-.59-.12-.434-1.038-2.108-.99" style="display:inline;fill:#5fd38d;fill-rule:evenodd;stroke:none;stroke-width:1;stroke-linejoin:round;stroke-miterlimit:3.86369;stroke-dasharray:none" transform="matrix(10 0 0 10 -1584.686 -2029.942)"/><path d="m203.355 327.883-7.968 30.074c7.657-1.19 3.935.452 8.732 1.84 1.32.382 3.331-1.28 4.906-1.414.195-.016.702-.032.887 0 .37.064 1.122.854 1.496 1.084.936.575 2.118.54 3.021 1.084.605.364.931 1.412.916 2.072l.637.426c.422-.072 1.134.117 1.442.422.29 1.162 1.258 3.286 2.55 3.582-.147.056-.011-.195.08-.098l5.543-6.775 7.409-12.7-5.47-4.763-10.47-2.838z" style="display:inline;fill:#ffd42a;fill-rule:evenodd;stroke:none;stroke-width:1;stroke-linejoin:round;stroke-miterlimit:3.86369;stroke-dasharray:none" transform="matrix(10 0 0 10 -1584.686 -2029.942)"/><path d="M280.068 326.668c1.212 1.146.293 3.88 2.356 4.712.372-.21.955-.37 1.386-.33l.444.613c.462 2.424-2.163 2.719-3.881 3.016l-.36.754c.223 1.247 1.06 1.618 1.44 2.686.462 1.292.083 2.678 1.22 3.77.751.72 2.029.736 2.855 1.413l-.082.848c-.79.019-1.551-.332-2.329-.236-.444.56-1.202 1.05-1.94.99-.667-.355-3.473-2.011-3.825-2.498-.73-1.008-.492-2.567-1.774-3.345-.749.011-1.204.757-1.83 1.084h-.803c-5.002-2.792-4.893-3.82-6.403-8.953-.389-1.322-1.227-2.37-1.358-3.817-.097-1.068.556-1.683.526-2.64-.035-1.114-.72-1.878-.637-3.203.043-.688.89-.999 1.22-1.508.57-.88.514-2.235 1.524-2.828.827-.338 3.365.371 4.158.801.586 1.065.521 2.443 1.08 3.393.713 1.212 2.094 1.126 2.967 2.074.742.806 1.258 2.375 2.3 2.827.471.204 1.23.269 1.747.377zm12.944-24.456c1.075.724 2.471.707 3.604 1.602 1.784 1.41 2.062 3.037 4.463 3.958.455-.144 1.117-.18 1.58-.047.949.888 1.858 1.624 2.966 2.31.69 1.192-.635 3.74-2.024 3.863a4 4 0 0 1-1.414-.707c-.727 1.151-1.257 3.816-1.33 5.184a5 5 0 0 1-.998 1.084l-.97-.094c-.84-.573-1.641-2.15-2.19-3.016-.613-.968-1.624-2.14-1.996-3.204-.771-2.21-.317-7.075-2.91-8.152h-.887l-.443.612c.012 2.025.41 3.936.443 6.22 0 .294.05.655.11.943.54 2.6 4.456 5.187 3.715 8.105-.832 1.372-1.32 1.176-2.753 1.35-5.963.725-4.46-3.844-5.063-5.262-.486-1.139-2.03-1.816-3.078-2.261l-.526.518c.234 1.37.508 3.148.305 4.524l-.444.565c-1.791.361-2.446-1.173-2.965-2.497-1.36-3.468 1.064-5.553 3.381-7.775.701-.673 1.238-1.555 1.94-2.215.372-.349.787-.54 1.082-.99.943-1.438.167-4.196 2.66-4.712.872.26 2.759.229 3.742.094zm1.414 34.446c.478 1.318 1.336 2.011 1.358 3.58.013.922-.428 1.907.056 2.781.345.28.727.526 1.109.754.237-.036.474-.145.693-.235.193-.515 1.189-2.246 1.607-2.498.533.618.743 2.198.768 3 .037 1.216.595 4.821-.74 5.435-1.726.792-4-2.115-5.294.188l-.72.236-.528-.519c-.224-.901.292-1.687.694-2.45l-.112-.895c-1.568-1.538-3.809-1.274-5.1-2.309-.494-1.22-.447-6.75.361-7.822.454-.604 1.337-.67 1.718-1.367-.02-1.653-1.202-2.903-.277-4.665l.693-.235.148-.142c1.036-.905 1.733-2.557 2.735-3.675l.554.33.36.66c-.368 1.787.95 2.9 1.054 4.57.12 1.927-.985 3.432-1.136 5.278zm23.977-23.278-.416.283c-3.074.386-4.86-6.907-6.292-8.67-.831-1.024-2.384-1.278-3.05-2.451-.373-.66-.708-2.91-.554-3.628.233-.157.45-.358.638-.566.377-.2 1.125-.104 1.497.047.132.243.255.485.416.707 2.057 2.842 1.74 5.394 3.548 7.728 1.403 1.813 4.225 2.188 4.435 5.278l.01.25c.013.349.023.736-.231 1.022zm3.132 18.613-.388.188c-.246-.147-.606-.545-.638-.848a4.6 4.6 0 0 0-.748-.33c-.64.59-1.543 1.002-2.292 1.445-.796.47-1.44.722-2.254.11-2.514-1.888.222-3.87.222-5.796 0-.242-.544-2.16-.665-2.403 0-.876.355-1.298.859-1.932.323.07.802.257 1.025.518.198.566.889 2.854 1.275 3.346.916 1.168 3.583 1.78 3.964 2.733.094.234 0 1.936 0 2.262 0 .236-.22.53-.36.707zm-10.422-2.121c-.973.285-1.878.936-2.745 1.178-.51-.764-.28-2.028-.498-2.921-.282-1.15-1.266-1.897-1.635-2.969.472-2.11.178-3.289 2.133-4.854l.083-.093.305-.094c.41-.016 2.582 3.294 3.095 3.753.218.195.15.083.231.314l.111.315c.143.707-.636 4.959-1.08 5.372zm7.234-24.691-.416.377c-.793.328-2.28-.159-2.771-.849l.249-.612.083.094c.13-.355 1.7-1.961 2.078-2.12.55.655 1.057 2.285.777 3.11zm-5.405 12.11c.463.848.653 1.363.194 2.262-.056.012-3.647-1.022-3.936-1.131l-.166-.424.277-.708a4.6 4.6 0 0 0 .471-.942c.614-.027 2.667.58 3.16.942zm-11.032 7.068-.11.094c3.29 1.313 1.088 6.298-1.747 5.984l-.554-.282c-.857-1.12-2.164-6.08-.832-7.068l.804-.236c.763.268 1.818.989 2.439 1.508z" style="display:inline;fill:#fefee9;fill-opacity:1;fill-rule:evenodd;stroke:#0978ab;stroke-width:1.2756;stroke-linejoin:round;stroke-miterlimit:3.86369" transform="matrix(10 0 0 10 -1584.686 -2029.942)"/><path d="m327.78 271.799-24.405 1.42c.06 1.485.283 2.592.625 4.031.46.643 1.39.617 2 1.031.33.224 1.263 1.691 1.656 2.125 2.314 2.556 3.198 3.625 2.719 7.188-.124.923-.506 1.715-.531 2.687.133-.582.253-1.698.562-2.156 1.742-.596 2.39 2.155 3 3.094.554.85 1.68 1.209 1.656 2.469-.048 2.555-2.014 1.904-1.25 7.25.2.335.63.768 1 .906l.72-.063c2.996-2.236 3.52-12.937 9.25-9.125.672.448 2.89 1.55 3.218 2.25 4.384 4.702-1.188 5.905-1.188 8.625 0 .755.133 1.262.319 1.664l.38-.257 8.634-8.633 4.482-6.309-.498-5.31-3.818-6.807zm-18.301 26.441c-.281-.018-.562.007-.75.108-.188.208-.404.41-.637.566-.154.718.18 2.969.553 3.629.666 1.173 2.22 1.425 3.05 2.45 1.432 1.762 3.217 9.055 6.291 8.67l.416-.282h.002c.254-.286.244-.675.23-1.024l-.01-.25c-.21-3.09-3.032-3.464-4.435-5.277-1.808-2.334-1.49-4.886-3.547-7.728-.16-.222-.284-.464-.416-.707a2.6 2.6 0 0 0-.748-.155zm-28.303 3.266s0 .003.002.004v-.004zm.002.004.11.654c-.14-.074-.264-.173-.395-.26l-2.977 4.159-.088.072c.233.753-.03 1.698-.06 2.533l.416.047c2.243-1.575 4.98-4.2 2.994-7.205m36.392.56c-.378.16-1.948 1.767-2.078 2.122l-.084-.094-.248.611c.491.69 1.979 1.178 2.772.85l.416-.377c.28-.825-.228-2.457-.778-3.112m-28.3.047c-2.493.516-1.718 3.275-2.66 4.713-.296.45-.71.641-1.083.99-.702.66-1.238 1.542-1.94 2.215-2.316 2.222-4.74 4.308-3.38 7.776.52 1.324 1.174 2.857 2.965 2.496l.443-.565c.203-1.376-.07-3.153-.304-4.523l.527-.52c1.048.445 2.59 1.123 3.076 2.262.603 1.418-.898 5.987 5.065 5.262 1.433-.174 1.92.022 2.752-1.35.74-2.918-3.175-5.505-3.715-8.105-.06-.288-.11-.65-.11-.944-.033-2.284-.431-4.193-.443-6.218l.443-.614h.887c2.593 1.077 2.14 5.943 2.91 8.153.372 1.064 1.383 2.237 1.996 3.205.55.866 1.35 2.442 2.19 3.015l.97.094a5 5 0 0 0 .998-1.084c.073-1.368.604-4.033 1.33-5.184a4 4 0 0 0 1.415.708c1.389-.123 2.713-2.672 2.023-3.864-1.108-.686-2.018-1.422-2.967-2.31-.463-.133-1.125-.097-1.58.047-2.4-.921-2.679-2.547-4.463-3.957-1.133-.895-2.528-.878-3.603-1.602-.983.135-2.87.164-3.742-.096m-20.633 14.996a3 3 0 0 0-.436.002 1.3 1.3 0 0 0-.385.08c-1.01.593-.953 1.949-1.523 2.829-.284.438-.949.732-1.156 1.244l4.535.789 1.887 8.8 5.353 5.233 4.266 8.814c.738.06 1.495-.43 1.94-.99.777-.096 1.537.256 2.327.237l.082-.848c-.826-.677-2.102-.694-2.853-1.414-1.137-1.092-.759-2.478-1.22-3.77-.38-1.068-1.217-1.438-1.44-2.685l.36-.754c1.717-.297 4.342-.594 3.88-3.018l-.443-.611c-.431-.04-1.015.12-1.387.33-2.063-.832-1.144-3.567-2.356-4.713-.517-.108-1.275-.173-1.746-.377-1.042-.452-1.558-2.02-2.3-2.826-.873-.948-2.254-.862-2.967-2.074-.56-.95-.494-2.33-1.08-3.395-.608-.329-2.237-.821-3.338-.883m15.45 5.125c-.501.061-2.545.969-2.772 1.366.244 1.287 1.08 2.176 1.654 3.3.33.65.69 1.621 1.424 1.932.754.321 2.593.109 3.021-.707.41-.783.512-1.366 1.164-2.074.572-.622 1.366-.878 1.994-1.414l-.664-.422c-3.144.542-2.517-.289-4.797-1.65-.323-.194-.71-.11-1.023-.33zm9.509 3.582c-1.002 1.118-1.7 2.77-2.737 3.674l-.146.143-.693.234c-.925 1.762.257 3.013.277 4.666-.381.697-1.265.763-1.719 1.367-.808 1.072-.855 6.603-.361 7.823l4.119-8.56z" style="display:inline;fill:#f55;fill-opacity:1;fill-rule:evenodd;stroke:none;stroke-width:1;stroke-linejoin:round;stroke-miterlimit:3.86369;stroke-dasharray:none" transform="matrix(10 0 0 10 -1584.686 -2029.942)"/><path d="M265.137 321.268a.8.8 0 0 0-.065.263 3.5 3.5 0 0 0 .06.903c.054.275.133.53.216.779.082.248.168.49.236.738a4 4 0 0 1 .086.381q.033.194.04.402.006.18-.017.344a3 3 0 0 1-.066.322c-.056.21-.131.41-.205.614a5 5 0 0 0-.194.632 2.5 2.5 0 0 0-.044.729q.024.27.08.525.055.255.133.496c.103.323.231.63.369.934s.284.604.42.91c.135.307.26.62.357.951.378 1.284.653 2.31.934 3.172.14.431.282.82.437 1.18.621 1.44 1.468 2.404 3.383 3.625.479.305 1.023.628 1.648.977h.803a2.7 2.7 0 0 0 .445-.307c.143-.116.281-.24.424-.354s.29-.218.448-.295a1.2 1.2 0 0 1 .513-.128 2.13 2.13 0 0 1 .715.709q.126.203.217.425.09.221.162.451c.096.307.175.622.275.922q.074.226.172.438.097.21.233.4.068.093.238.233t.414.312c.323.23.728.494 1.143.754.829.52 1.697 1.022 2.03 1.2l-4.265-8.815-5.353-5.233-1.887-8.8zm-16.078 10.212-.153.034-7.55 1.619-4.745 1.51-3.02 6.253-.585 6.584-7.408 12.7-5.51 6.736-.004.041c1.87-.19 2.57-3.27 5.683-2.543-.748 1.665-.352 1.847.305 3.346 1.181.873 4.19 0 4.63-1.508-.275-.79-.421-1.613-.694-2.402l.138-.614c.983-.91.974-1.284 2.385-1.65 1.402-1.497.083-3.616.914-5.324.532-.693 1.654-.866 2.356-1.65 2.182-2.438 3.264-6.366 4.297-9.376l.582-.19.554.518c.382.358.534 1.657.887 2.215.938 1.486 3.348 1.703 4.822 2.358l.446.611c.089.45.058.967-.03 1.414l.555.47c1.84.55 5.772-.807 6.652-2.589.492-.997.183-2.2.518-3.283.35-1.132 1.207-2.338.535-3.551-.565-1.832-1.359-1.51-1.219-4.006-.609-1.605-2.594-1.506-3.63-2.592-.706-.737-1.372-2.455-1.58-3.44-.12-.562-.118-1.126-.132-1.69z" style="display:inline;fill:#59f;fill-rule:evenodd;stroke:none;stroke-width:1;stroke-linejoin:round;stroke-miterlimit:3.86369;stroke-dasharray:none" transform="matrix(10 0 0 10 -1584.686 -2029.942)"/><path d="M309.781 316.348a4.6 4.6 0 0 1-.47.941l-.278.71.166.423c.29.109 3.882 1.143 3.938 1.13.459-.898.267-1.413-.196-2.261v-.002c-.493-.362-2.546-.968-3.16-.941m-1.025 3.771-.305.094-.084.094c-1.955 1.565-1.66 2.743-2.133 4.853.37 1.072 1.353 1.819 1.635 2.969.218.893-.012 2.158.498 2.922.867-.242 1.773-.895 2.746-1.18.444-.417 1.223-4.663 1.08-5.37l-.111-.316c-.081-.23-.012-.119-.23-.314-.513-.459-2.686-3.768-3.096-3.752m6.875 2.309c-.504.634-.86 1.055-.86 1.931.121.243.666 2.16.666 2.403 0 1.926-2.736 3.909-.222 5.797.814.612 1.458.358 2.254-.112.749-.443 1.653-.853 2.293-1.443a4.6 4.6 0 0 1 .748.328c.032.303.39.703.636.85l.39-.19c.14-.177.359-.47.359-.707 0-.326.094-2.028 0-2.262-.381-.953-3.047-1.564-3.963-2.732-.386-.492-1.078-2.78-1.276-3.346-.223-.26-.702-.447-1.025-.517m8.97.047c-.41.046-.773.017-1.218.093-.295.198-.617.688-.688 1.032l.344.718c4.235 3.04 4.228 1.15 6.906 6.532.213.426.468.835.67 1.267l3.432-5.414c-.407.566-.927.945-1.57 1.022-1.55-.188-1.92-1.803-3-2.657-1.413-1.118-3.45-1.441-4.875-2.593zm9.446 4.228q.155-.21.287-.453zm.287-.453.395-.621-.094-.059q-.133.363-.301.68m-34.863-3.398-.803.236c-1.332.988-.027 5.946.83 7.066l.555.284c2.835.314 5.038-4.672 1.748-5.985l.11-.094c-.622-.519-1.677-1.24-2.44-1.507m-5.875 2.968-1.26 9.346-4.12 8.56c1.292 1.036 3.532.771 5.1 2.31l.114.894c-.402.763-.92 1.55-.696 2.45l.53.518.718-.236c1.294-2.303 3.57.605 5.295-.187 1.335-.614.778-4.22.74-5.436-.024-.802-.236-2.382-.769-3-.418.252-1.412 1.983-1.605 2.498-.22.09-.457.2-.694.236a9.4 9.4 0 0 1-1.11-.753c-.483-.874-.043-1.86-.056-2.782-.022-1.569-.88-2.262-1.357-3.58h.002c.15-1.846 1.255-3.35 1.135-5.277-.104-1.67-1.421-2.783-1.053-4.57l-.361-.66zm5.957 7.842c-.65.018-1.286.25-1.69.734-.45 1.263.666 3.796 1.635 4.618.246-1.518 1.43-2.04 2.053-3.252a18 18 0 0 0-.223-1.555c-.46-.366-1.125-.563-1.775-.545m17.955.594c-1.292.967-3.056 2.198-4.719 2.469-.655-.053-1.338-.459-1.937-.438-.158.255-.534.513-.75.719a5.4 5.4 0 0 0-.22 1.344l.25.53c.785.453 1.6.092 2.438.22.607.303.944 1.33 1.063 1.937.134.684.47 1.49.437 2.188-.133 2.916-4.449 3.472-.75 7.375.54.57.984 1.134 1.844 1.218 1.56.15 2.39.063 3.563-1 .967-.878 1.334-2.453 2.187-3.218-.122-.051-.036-.237.031-.188.032-.576.472-1.125.907-1.469l3.53-5.572c-.407-1.122-.828-2.143-1.812-2.49-.572.078-1.031.068-1.531.437-.122.64-.481 4.88-.531 4.938l-.406.156c-1.283-1.066-1.956-7.849-2.844-9z" style="display:inline;fill:#de87cd;fill-opacity:1;fill-rule:evenodd;stroke:none;stroke-width:1;stroke-linejoin:round;stroke-miterlimit:3.86369;stroke-dasharray:none" transform="matrix(10 0 0 10 -1584.686 -2029.942)"/><path d="m296.354 235.416-5.182.563-14.756 9.125-2.59 3.603 3.11 11.217c.693-.089 1.318-.288 1.664-1.016.256-.54.207-1.199.443-1.744a9 9 0 0 0-.438-1.367l-1.689-.016h1.678c-.575-1.43-1.384-2.911-1.25-4.312.062-.657.514-1.924.906-2.469 1.038-1.443 9.692-6.896 11.375-7.187 1.248-.216 2.496.18 3.687.468.484.118 1.724.593 1.938 1.125.713 1.78-1.313 3.149-1.188 3.907l-.03-.22c-3.057 3.13 3.496 7.779 5.53 7.907.896.056 1.402-1.25 2.563-1.187.377.16 1.02.328 1.344.562.26.19.612.759 1.031 1.438h.049c1.228 2 2.807 5.388 2.982 6.343l-.25.532-.406.28c-1.186-.028-1.813-1.212-2.937-1.53-1.337-.38-4.466 2.74-4.438 4.156.42.87.417 1.485 1.438 1.937.88-.304 1.212-.625 1.875-1.281.424-.122 1.128-.246 1.406-.031 1.883 1.006 2.2 3.511.906 5.187-.522.676-1.297 1.039-1.75 1.813l.002.014h.002l24.4-1.434.565-5.746 2.476-7.434.184-2.806.002-.032.266-4.033-2.252-5.744-6.196-5.52-6.984-3.04z" style="display:inline;fill:#d4ff2a;fill-opacity:1" transform="matrix(10 0 0 10 -1584.686 -2029.942)"/><path d="M375 255.795H252.135l29.013 27.14v10.298l-24.547 11.806 4.58 22.88 5.79 15.666 4.225 4.902-12.607 22.329-.261 5.479h-24.647l-10.5-.5-12.635.045-22.856-6.708-29.221-14.653" style="display:inline;fill:none;stroke:#646464;stroke-width:1;stroke-linejoin:round;stroke-miterlimit:3.86369;stroke-dasharray:none" transform="matrix(10 0 0 10 -1584.686 -2029.942)"/><path d="M288.167 203.487a53 53 0 0 1-1.779 2.502c-4.299 1.85-7.162 2.393-11.78 1.084-.948-.268-1.68-1.063-2.579-1.413-.567-.221-1.177-.216-1.746-.377-.97-.275-2.495-1.013-4.123-1.778" style="display:inline;fill:none;stroke:#0978ab;stroke-width:1;stroke-linejoin:round;stroke-miterlimit:3.86369;stroke-dasharray:none" transform="matrix(10 0 0 10 -1584.686 -2029.942)"/><path d="M335.065 399.951a3 3 0 0 1-.253-.34c-.665-1.04-1.185-2.328-2.578-2.591-3.616.783-3.563-2.062-4.065-4.837-.106-.584-.478-1.104-.592-1.713l-.083-.188c-.99-.808-1.307-6.52-1.247-7.87.057-1.277.43-2.345.61-3.58 1.009-2.751 2.178-2.29 4.352-2.734 1.68-.343 3.75-1.469 5.294-.094 1.197 1.067 1.892 3.2 2.966 3.864l.277-.848c-1.12-2.576.785-4.656 1.053-7.21.476-4.535-3.753-7.748-6.985-10.084-1.64-1.185-2.85-3.075-4.38-4.382l-.803-.094c-.43.218-.914.511-1.414.471-1.69-.592-1.375-3.275-2.107-4.618-.577-1.061-1.213-1.413-1.94-2.262.039-.788.851-2.206 1.137-3.063-.284-1.168-1.22-1.935-2.468-1.838-.434.344-.883.885-.914 1.461-.068-.049-.15.137-.028.189-.854.764-1.222 2.358-2.19 3.236-1.172 1.063-1.997 1.14-3.557.989-.86-.084-1.307-.639-1.848-1.21-3.698-3.902.616-4.482.749-7.398.032-.696-.291-1.483-.426-2.167-.119-.609-.464-1.629-1.071-1.932-.84-.128-1.656.216-2.44-.236l-.249-.518c.01-.456.1-.93.222-1.367.216-.206.59-.452.748-.706.6-.021 1.286.37 1.94.423 1.664-.27 3.42-1.483 4.713-2.45l.776.142c.888 1.15 1.545 7.933 2.827 9l.416-.141c.05-.057.405-4.307.527-4.948.5-.369.952-.346 1.524-.424 2.42.855 1.443 5.762 5.23 6.314.71.104 1.461.097 2.06-.377 1.772-3.274-.042-2.931-.748-5.56-.523-1.945.831-3.073.831-4.854 0-.98-.598-1.754-1.007-2.576-2.678-5.382-2.658-3.478-6.892-6.518l-.333-.707c.07-.343.37-.839.665-1.037.445-.078.81-.048 1.22-.094 1.424 1.152 3.465 1.475 4.878 2.592 1.08.854 1.445 2.45 2.994 2.639 3.218-.383 3.435-8.18 1.303-10.131-.481-.44-1.388-.6-1.996-.754-.717-.893-2.945-5.293-2.745-6.315.057-.902.56-1.568.527-2.497-.076-2.138-2.744-.892-2.744-4.477 0-2.72 5.576-3.921 1.192-8.623-.329-.701-2.551-1.814-3.225-2.261-5.73-3.812-6.25 6.905-9.248 9.141l-.693.047c-.371-.138-.827-.56-1.026-.895-.764-5.346 1.227-4.7 1.275-7.257.024-1.26-1.11-1.6-1.663-2.45-.611-.939-1.252-3.706-2.994-3.11-.309.458-.448 1.585-.582 2.167.025-.972.403-1.762.527-2.685.48-3.563-.384-4.638-2.698-7.194-.393-.434-1.352-1.913-1.681-2.136-.61-.415-1.536-.394-1.996-1.037-.342-1.44-.55-2.52-.61-4.005.453-.774 1.224-1.163 1.746-1.838 1.294-1.676.968-4.177-.915-5.184-.277-.215-.96-.075-1.385.047-.663.656-1.003.968-1.885 1.273-1.02-.453-1.022-1.061-1.442-1.933-.028-1.416 3.098-4.525 4.435-4.147 1.124.319 1.752 1.48 2.938 1.509l.416-.283.25-.518c-.238-1.291-3.046-7.032-4.075-7.775-.324-.235-.954-.406-1.33-.566-1.161-.062-1.684 1.235-2.578 1.178-2.036-.128-8.6-4.788-5.544-7.916l.056.235c-.125-.758 1.878-2.132 1.164-3.91-.214-.533-1.448-.998-1.93-1.116-1.192-.29-2.449-.703-3.697-.487-1.683.291-10.326 5.767-11.365 7.21-.392.545-.824 1.793-.886 2.45-.178 1.864 1.285 3.853 1.69 5.702-.235.545-.187 1.203-.443 1.743-.835 1.76-3.157.682-4.684 1.461l-.278-.142c.264-2.324-1.546-10.031-3.492-11.403-.473-.665-1.295-1.13-1.83-1.649-.113-.299-.187-.934 0-1.225 1.232-1.143 2.287-2.241 3.992-2.733 2.1-2.375 5.567-8.417 6.237-11.45l-.112.376c-.262.148-.471.373-.683.581-1.38 1.358-2.819 1.784-4.297 2.812-.247.172-.533.381-.73.613-.5.592-.703 1.362-1.164 1.979l-.526.235c-.754-.137-1.53-.144-2.218.236-1.878-.113-1.947-1.367-3.104-1.98-.852-.45-1.577-.222-2.44-.376-.425-.076-.964-.44-1.136-.849l-.028-.8c.421-.657 1.147-1.176 1.275-1.98-.636-2.654-1.483-1.393-.028-4.523.05-1.26-1.05-2.064-.61-3.487.04-.13.657-.973.804-1.131.272-.29.797-.512.527-.283 1.134-.443 2.892.149 3.797.801h.694c1.037.448 1.367 1.363 1.275 2.45l.25-.188c-.036-.488-.265-1.505-.167-1.885-.146-.309-.39-.59-.61-.848a5 5 0 0 1-1.247-.424c-.842-1.694-5.832-3.3-6.265-4.9-.486-.26-1.561-.856-1.885-1.273-.453-.584-1.913-4.742-1.358-5.372l.194.236c.958.191 1.818-.566 2.827-.566 1.73 0 3.353 1.074 5.1 1.272.763.087 1.308-.05 1.83-.66.16-1.301-2.408-3.777-1.47-5.041l.306-.047c.064-.178.48-.358.637-.424 2.52.223 1.829 1.696 2.91 3.251 3.345.783 7.194-.478 10.673.094 2.981.255 5.997 1.57 8.647-.942-.062-.298-.248-.748-.498-.943-.406-1.669 1.23-2.984 2.4-4.285" style="display:inline;fill:none;stroke:#0978ab;stroke-width:1;stroke-linejoin:round;stroke-miterlimit:3.86369;stroke-dasharray:none" transform="matrix(10 0 0 10 -1584.686 -2029.942)"/><text xml:space="preserve" x="910.128" y="1386.889" style="font-size:60px;line-height:1.25;font-family:&quot;Noto Sans&quot;;-inkscape-font-specification:&quot;Noto Sans&quot;;word-spacing:0;stroke-width:1.5"><tspan x="910.128" y="1386.889" style="stroke-width:1.5">Songish</tspan></text><text xml:space="preserve" x="752.81" y="1208.627" style="font-size:60px;line-height:1.25;font-family:&quot;Noto Sans&quot;;-inkscape-font-specification:&quot;Noto Sans&quot;;word-spacing:0;display:inline;stroke-width:1.5"><tspan x="752.81" y="1208.627" style="stroke-width:1.5">Saanich</tspan></text><text xml:space="preserve" x="460.061" y="1480.332" style="font-size:60px;line-height:1.25;font-family:&quot;Noto Sans&quot;;-inkscape-font-specification:&quot;Noto Sans&quot;;word-spacing:0;display:inline;stroke-width:1.5"><tspan x="460.061" y="1480.332" style="stroke-width:1.5">Sooke</tspan></text><text xml:space="preserve" x="1372.136" y="482.668" style="font-size:60px;line-height:1.25;font-family:&quot;Noto Sans&quot;;-inkscape-font-specification:&quot;Noto Sans&quot;;word-spacing:0;display:inline;stroke-width:1.5"><tspan x="1372.136" y="482.668" style="stroke-width:1.5">Semiahmoo</tspan></text><text xml:space="preserve" x="1525.517" y="836.067" style="font-size:60px;line-height:1.25;font-family:&quot;Noto Sans&quot;;-inkscape-font-specification:&quot;Noto Sans&quot;;word-spacing:0;display:inline;stroke-width:1.5"><tspan x="1525.517" y="836.067" style="stroke-width:1.5">Lummi</tspan></text><text xml:space="preserve" x="1393.427" y="1447.568" style="font-size:60px;line-height:1.25;font-family:&quot;Noto Sans&quot;;-inkscape-font-specification:&quot;Noto Sans&quot;;word-spacing:0;display:inline;stroke-width:1.5"><tspan x="1393.427" y="1447.568" style="stroke-width:1.5">Samish</tspan></text><switch><text xml:space="preserve" x="1588.889" y="1758.537" style="font-size:133.333px;line-height:1.25;font-family:sans-serif;-inkscape-font-specification:sans-serif;word-spacing:0;stroke-width:.25" systemLanguage="en"><tspan x="1588.889" y="1758.537" style="font-style:normal;font-variant:normal;font-weight:400;font-stretch:normal;font-family:serif;-inkscape-font-specification:serif;text-align:center;text-anchor:middle;stroke-width:.25">UNITED STATES</tspan><tspan x="1588.889" y="1925.204" style="font-style:normal;font-variant:normal;font-weight:400;font-stretch:normal;font-size:133.333px;font-family:serif;-inkscape-font-specification:&quot;serif, Normal&quot;;font-variant-ligatures:normal;font-variant-caps:small-caps;font-variant-numeric:normal;font-variant-east-asian:normal;text-align:center;text-anchor:middle;stroke-width:.25">Washington</tspan></text><text xml:space="preserve" x="1588.889" y="1758.537" style="font-size:133.333px;line-height:1.25;font-family:sans-serif;-inkscape-font-specification:sans-serif;word-spacing:0;stroke-width:.25" systemLanguage="fr"><tspan x="1588.889" y="1758.537" style="font-style:normal;font-variant:normal;font-weight:400;font-stretch:normal;font-family:serif;-inkscape-font-specification:serif;text-align:center;text-anchor:middle;stroke-width:.25">ÉTATS-UNIS</tspan><tspan x="1588.889" y="1925.204" style="font-style:normal;font-variant:normal;font-weight:400;font-stretch:normal;font-size:133.333px;font-family:serif;-inkscape-font-specification:&quot;serif, Normal&quot;;font-variant-ligatures:normal;font-variant-caps:small-caps;font-variant-numeric:normal;font-variant-east-asian:normal;text-align:center;text-anchor:middle;stroke-width:.25">Washington</tspan></text></switch><switch><text xml:space="preserve" x="666.953" y="155.367" style="font-size:133.333px;line-height:1.25;font-family:sans-serif;-inkscape-font-specification:sans-serif;word-spacing:0;stroke-width:.25" systemLanguage="en"><tspan x="666.953" y="155.367" style="font-style:normal;font-variant:normal;font-weight:400;font-stretch:normal;font-family:serif;-inkscape-font-specification:serif;text-align:center;text-anchor:middle;stroke-width:.25">CANADA</tspan><tspan x="666.953" y="322.033" style="font-style:normal;font-variant:normal;font-weight:400;font-stretch:normal;font-size:133.333px;font-family:serif;-inkscape-font-specification:&quot;serif, Normal&quot;;font-variant-ligatures:normal;font-variant-caps:small-caps;font-variant-numeric:normal;font-variant-east-asian:normal;text-align:center;text-anchor:middle;stroke-width:.25">British Columbia</tspan></text><text xml:space="preserve" x="666.953" y="155.367" style="font-size:133.333px;line-height:1.25;font-family:sans-serif;-inkscape-font-specification:sans-serif;word-spacing:0;stroke-width:.25" systemLanguage="fr"><tspan x="666.953" y="155.367" style="font-style:normal;font-variant:normal;font-weight:400;font-stretch:normal;font-family:serif;-inkscape-font-specification:serif;text-align:center;text-anchor:middle;stroke-width:.25">CANADA</tspan><tspan x="666.953" y="322.033" style="font-style:normal;font-variant:normal;font-weight:400;font-stretch:normal;font-size:133.333px;font-family:serif;-inkscape-font-specification:&quot;serif, Normal&quot;;font-variant-ligatures:normal;font-variant-caps:small-caps;font-variant-numeric:normal;font-variant-east-asian:normal;text-align:center;text-anchor:middle;stroke-width:.25">Colombie-Britannique</tspan></text></switch></svg>
