<?xml version="1.0" encoding="UTF-8" standalone="no"?>

<svg
   xmlns:dc="http://purl.org/dc/elements/1.1/"
   xmlns:cc="http://creativecommons.org/ns#"
   xmlns:rdf="http://www.w3.org/1999/02/22-rdf-syntax-ns#"
   xmlns:svg="http://www.w3.org/2000/svg"
   xmlns="http://www.w3.org/2000/svg"
   version="1.1"
   width="418.91"
   height="393.75"
   id="svg3023">
  <desc
     id="desc3027">Authors: Lincun, Nanshu</desc>
  <metadata
     id="metadata3059">
    <rdf:RDF>
      <cc:Work
         rdf:about="">
        <dc:format>image/svg+xml</dc:format>
        <dc:type
           rdf:resource="http://purl.org/dc/dcmitype/StillImage" />
        <dc:title></dc:title>
      </cc:Work>
    </rdf:RDF>
  </metadata>
  <defs
     id="defs3057" />
  <g
     transform="translate(0,0.75)"
     id="g6494">
    <path
       d="m 0.90625,-0.75 0,391.28125 418,0 0,-391.28125 -418,0 z"
       id="rect3029"
       style="fill:#eeeeee" />
  </g>
  <path
     d="m 351.41907,20.918077 -7.00003,4.666686 -4.66668,7.000028 -7.00003,9.333371 -4.66669,-2.333343 -2.33334,4.666685 4.66668,2.333343 4.66669,9.333371 7.00003,7.000028 0,7.000028 -4.66669,4.666685 4.66669,4.666686 -2.33334,2.333342 -7.00003,-16.333398 -4.66669,-2.333343 0,4.666685 4.66669,21.000085 -2.33335,4.666685 -4.66668,-7.000028 2.33334,14.000057 -9.33337,2.33334 11.66671,4.66669 7.00003,0 2.33335,-7.00003 7.00002,0 7.00003,-2.333344 9.33337,-11.666713 -2.33334,4.666685 2.33334,2.333343 4.66669,-14.000056 -4.66669,4.666685 7.00003,-16.333399 -2.33334,-9.333371 -9.33337,-4.666685 -4.66669,-4.666685 0,-14.000057 -2.33334,-14.000056 z m -84.00034,46.666854 -2.33334,4.666686 -7.00003,4.666685 -4.66668,9.333371 -2.33335,7.000028 0,9.333369 7.00003,4.66669 -9.33337,0 -2.33334,7.00003 -4.66669,4.66668 2.33335,-11.66671 -4.66669,-9.333374 -4.66669,7.000024 -4.66668,0 -4.66669,0 2.33335,-4.66668 -4.66669,-2.333344 -4.66668,2.333344 -2.33335,18.66674 -11.66671,-2.33334 -2.33334,-4.66669 -7.00003,2.33335 -9.33337,2.33334 14.00005,7.00003 2.33335,18.66674 11.66671,4.66668 -2.33334,7.00003 -18.66674,0 -2.33335,2.33334 0,11.66672 -4.66668,-2.33335 -21.00009,9.33338 0,4.66668 11.66672,9.33337 -14.00006,7.00003 0,2.33334 -7.00003,11.66672 0,2.33334 11.66672,11.66671 14.00005,2.33334 7.00003,-2.33334 2.33334,2.33334 4.66669,0 4.66668,9.33338 4.66669,2.33334 2.33334,-2.33334 4.66669,0 4.66668,0 4.66669,-7.00003 4.66668,-2.33335 2.33335,2.33335 2.33334,0 0,-4.66669 -4.66669,-4.66668 -9.33337,-4.66669 0,4.66669 -14.00005,-9.33337 -11.66672,-7.00003 14.00006,2.33334 7.00003,0 2.33334,-4.66668 7.00003,-7.00003 -2.33334,-9.33337 0,-9.33337 -2.33335,2.33334 -2.33334,-2.33334 11.66671,-2.33335 11.66672,4.66669 7.00003,-4.66669 11.66671,-2.33334 11.66671,-4.66669 2.33334,-2.33334 -2.33334,-4.66668 -4.66668,-4.66669 9.33337,-2.33334 7.00003,-2.33334 4.66668,-7.00003 -14.00006,0 -11.66671,-4.66669 -2.33334,-2.33334 4.66668,-7.00003 4.66669,0 2.33334,-7.00003 7.00003,-4.66668 2.33334,-14.00006 -9.33337,-2.33334 4.66669,-18.666743 -4.66669,-14.000056 z"
     id="path3035"
     style="fill:#f6bad3;stroke:#000000;stroke-width:0.46666855;stroke-linejoin:round" />
  <path
     d="m 337.2788,48.167269 c 0.64699,-1.243869 2.24437,-2.239973 3.64017,-2.107467 1.26196,0.1198 2.17983,1.429847 2.87381,2.490643 2.23376,3.414452 2.51213,7.765674 3.64017,11.686861 1.09198,3.795853 2.62746,7.526785 3.02651,11.456375 0.28327,2.78949 0.17208,5.668988 -0.46971,8.398385 -0.37194,1.581795 -0.47369,3.748297 -1.92532,4.478491 -2.41546,1.215016 -6.26907,0.291612 -7.89294,-1.870275 -1.46874,-1.955355 0.39455,-4.882192 0.3643,-7.327532 -0.0542,-4.383102 -0.39255,-8.769708 -0.97764,-13.113923 -0.43908,-3.260202 -1.43701,-6.427602 -1.89618,-9.685036 -0.2058,-1.45995 -1.06353,-3.0985 -0.38317,-4.406522 z"
     id="path3264"
     style="fill:#ff6f00;fill-opacity:0.43529412;stroke:#ff6f00;stroke-width:1.5;stroke-linecap:butt;stroke-linejoin:miter;stroke-miterlimit:4;stroke-opacity:1;stroke-dasharray:none" />
  <path
     d="m 356.86795,83.620466 c -1.59669,-3.546409 0.55332,-7.824765 1.68654,-11.545283 0.90326,-2.965521 1.80672,-6.212481 4.01391,-8.389295 1.30205,-1.284129 4.98128,-2.299055 4.98128,-2.299055 0,0 1.69488,-1.422744 2.68223,-0.957939 1.77245,0.834399 2.09042,3.430227 2.29906,5.36446 0.36267,3.362202 -0.90186,6.736475 -1.91588,9.96257 -1.00213,3.188264 -1.42012,7.134987 -4.07997,9.158464 -1.67835,1.276798 -4.19624,1.389661 -6.25634,0.939063 -1.32753,-0.290366 -2.85294,-0.993863 -3.41083,-2.232985 z"
     id="path3262"
     style="fill:#ff6f00;fill-opacity:0.43529412;stroke:#ff6f00;stroke-width:1.5;stroke-linecap:butt;stroke-linejoin:miter;stroke-miterlimit:4;stroke-opacity:1;stroke-dasharray:none" />
  <path
     d="m 358.57336,78.457031 c 1.83085,-4.912258 1.90478,-8.112551 3.80345,-11.705737 0.72226,-1.36686 2.87382,-3.64017 2.87382,-3.64017 0,0 3.31818,-1.859564 4.5981,-0.957939 1.89758,1.336721 1.19823,4.588512 0.95794,6.897164 -0.39243,3.770415 -2.19071,7.292572 -3.85063,10.700606 -0.69359,1.424021 -1.0643,3.418934 -2.52839,4.023345 -1.79952,0.742877 -4.44816,0.185678 -5.69101,-1.3128 -0.85286,-1.028274 -0.62984,-2.752656 -0.16328,-4.004469 z"
     id="path3260"
     style="fill:#ff6f00;fill-opacity:0.43529412;stroke:#ff6f00;stroke-width:1.5;stroke-linecap:butt;stroke-linejoin:miter;stroke-miterlimit:4;stroke-opacity:1;stroke-dasharray:none" />
  <path
     d="m 362.71462,70.368187 c 0.53686,-1.792555 0.77427,-3.848887 2.03466,-5.231961 0.87556,-0.960786 2.26218,-2.176598 3.48797,-1.743987 1.03421,0.364998 1.25391,1.901748 1.36737,2.99259 0.16812,1.61634 -0.61879,3.195155 -1.07014,4.756275 -0.42906,1.483979 -0.50785,3.228466 -1.5524,4.366532 -0.8409,0.916191 -2.19954,1.886861 -3.39546,1.545834 -1.00783,-0.287391 -1.54765,-1.58653 -1.74399,-2.615981 -0.25989,-1.362666 0.47399,-2.740395 0.87199,-4.069302 z"
     id="path3258"
     style="fill:#ff6f00;fill-opacity:0.43529412;stroke:#ff6f00;stroke-width:1.5;stroke-linecap:butt;stroke-linejoin:miter;stroke-miterlimit:4;stroke-opacity:1;stroke-dasharray:none" />
  <path
     d="m 360.67997,61.938917 c -3.21904,-0.954947 -5.22257,-4.312105 -7.26661,-6.975948 -2.29684,-2.993304 -4.50753,-6.264692 -5.45829,-9.915913 -0.85995,-3.30247 -1.68474,-7.234243 -0.0643,-10.237592 0.98676,-1.828916 3.18267,-3.735357 5.23196,-3.390318 7.14789,1.203494 10.53414,10.478709 13.37056,17.149204 1.07236,2.521886 1.25746,5.399835 1.16266,8.138606 -0.048,1.386398 0.12007,3.099667 -0.872,4.069303 -1.48124,1.447736 -4.11825,1.751726 -6.10395,1.162658 z"
     id="path3256"
     style="fill:#ff6f00;fill-opacity:0.43529412;stroke:#ff6f00;stroke-width:1.5;stroke-linecap:butt;stroke-linejoin:miter;stroke-miterlimit:4;stroke-opacity:1;stroke-dasharray:none" />
  <path
     d="m 262.48689,82.764731 c -2.02363,-1.262456 -4.92466,-2.505174 -5.24344,-4.868913 -0.20606,-1.527877 1.07164,-3.211756 2.43446,-3.932585 1.27031,-0.671901 2.97788,-0.358895 4.30711,0.187266 2.49346,1.024523 5.10701,2.884564 5.99251,5.430712 0.49889,1.434515 0.45128,3.56384 -0.74907,4.494382 -1.13895,0.882956 -2.90295,-0.05026 -4.30712,-0.374533 -0.84714,-0.195634 -1.69679,-0.476135 -2.43445,-0.936329 z"
     id="path4464"
     style="fill:#ff6f00;fill-opacity:0.43529412;stroke:#ff6f00;stroke-width:1.5;stroke-linecap:butt;stroke-linejoin:miter;stroke-miterlimit:4;stroke-opacity:1;stroke-dasharray:none" />
  <path
     d="m 239.91128,151.76173 c -1.32935,-2.46946 -3.27372,-5.21296 -2.71908,-7.9621 0.42846,-2.12368 2.21669,-4.33948 4.3209,-4.85512 2.80895,-0.68833 5.63875,1.57952 8.11104,3.08012 1.40743,0.85426 2.72155,1.95309 3.68672,3.28692 0.91776,1.26831 1.88876,2.74166 1.87266,4.30712 -0.0261,2.54159 -1.17331,6.23675 -3.18352,6.92883 -1.44694,0.49816 -4.53814,4.47592 -7.5322,1.1026 -1.35921,-1.53139 -3.38014,-3.70307 -4.55652,-5.88837 z"
     id="path4648"
     style="fill:#ff6f00;fill-opacity:0.43529412;stroke:#ff6f00;stroke-width:1.5;stroke-linecap:butt;stroke-linejoin:miter;stroke-miterlimit:4;stroke-opacity:1;stroke-dasharray:none" />
  <path
     d="m 186.83146,199.24413 c -1.70946,-0.62432 -3.63239,-1.32202 -4.68165,-2.80899 -1.0015,-1.41928 -1.81784,-3.56147 -1.02828,-5.10872 0.82452,-1.61576 3.14269,-2.41626 4.95001,-2.26097 2.36171,0.20292 4.31945,2.22135 5.86961,4.01463 0.99584,1.15202 1.97421,2.58169 2.00641,4.10412 0.0231,1.08991 -0.35376,2.47434 -1.31086,2.99626 -1.72086,0.9384 -3.9641,-0.26391 -5.80524,-0.93633 z"
     id="path4859"
     style="fill:#ff6f00;fill-opacity:0.43529412;stroke:#ff6f00;stroke-width:1.5;stroke-linecap:butt;stroke-linejoin:miter;stroke-miterlimit:4;stroke-opacity:1;stroke-dasharray:none" />
  <path
     d="m 217.3558,221.71604 c -0.98734,1.08803 -2.85551,1.16334 -4.30711,0.93633 -5.91316,-0.92473 -10.2483,-6.19845 -15.54308,-8.98877 -2.2791,-1.20107 -4.52014,-2.54607 -6.97364,-3.33171 -1.45495,-0.4659 -3.00059,-0.58451 -4.51391,-0.79388 -1.29216,-0.17877 -2.5915,-0.47395 -3.89352,-0.39406 -1.19202,0.0731 -2.40843,0.29548 -3.49372,0.79387 -1.99138,0.91449 -3.13112,3.49665 -5.28251,3.91306 -1.45672,0.28195 -3.48804,0.11359 -4.30712,-1.1236 -1.1842,-1.78869 -0.0977,-4.48752 0.93634,-6.36704 1.42942,-2.5983 4.75546,-3.60303 6.74157,-5.80525 2.34262,-2.59753 3.01498,-6.77866 5.99251,-8.61423 1.12719,-0.69488 2.69485,-1.03238 3.93258,-0.5618 0.99362,0.37778 1.88965,1.38518 2.05993,2.43446 0.26923,1.65906 -2.05439,3.01074 -1.87266,4.68165 0.20405,1.8761 1.7499,3.4544 3.18352,4.68165 2.99083,2.56031 7.18076,3.24057 10.67416,5.05618 4.71287,2.44939 9.42817,4.93427 13.85768,7.86516 1.11409,0.73716 2.66278,1.20424 3.18352,2.43446 0.4165,0.98397 0.3435,2.39226 -0.37454,3.18352 z"
     id="path4861"
     style="fill:#ff6f00;fill-opacity:0.43529412;stroke:#ff6f00;stroke-width:1.5;stroke-linecap:butt;stroke-linejoin:miter;stroke-miterlimit:4;stroke-opacity:1;stroke-dasharray:none" />
  <path
     d="m 314.09375,58.24975 -18.6875,2.34375 -16.3125,11.65625 -2.34375,2.34375 -4.65625,-7 -4.6875,0 4.6875,14 -4.6875,18.65625 9.34375,2.34375 -2.34375,14 -7,4.65625 -2.3125,7 -4.6875,0 -4.65625,7 2.34375,2.34375 11.65625,4.65625 14,0 4.65625,-7 2.34375,-7 7,0 0,-7 9.34375,-11.65625 0,-4.6875 11.65625,-2.3125 9.34375,-2.34375 -2.34375,-14 -2.34375,9.34375 -11.65625,0 0,-7 7,-4.6875 -2.34375,-7 -4.65625,-2.3125 -2.34375,0 0,11.65625 -2.3125,0 0,-4.65625 -4.6875,4.65625 0,9.34375 -4.65625,-2.34375 -2.34375,4.65625 2.34375,-14 4.65625,0 2.34375,-11.65625 7,-9.34375 2.34375,-4.65625 z m -277.6875,140 0,2.34375 2.34375,0 7,7 2.34375,2.3125 7,-2.3125 4.65625,2.3125 4.65625,9.34375 7,-2.34375 4.6875,4.6875 4.65625,0 2.34375,-7 2.3125,4.65625 11.6875,2.34375 2.3125,11.65625 7,-2.34375 -4.65625,-4.65625 2.34375,-2.34375 0,-11.65625 2.3125,4.65625 2.34375,-2.3125 0,4.65625 2.34375,-4.65625 2.3125,0 4.6875,0 0,4.65625 -9.34375,4.65625 11.65625,-2.3125 7,-2.34375 0,2.34375 -11.65625,9.3125 -2.34375,4.6875 -4.65625,9.3125 4.65625,2.34375 2.34375,0 4.65625,-11.65625 2.34375,7 2.34375,0 -4.6875,2.3125 0,4.6875 7,-2.34375 -2.3125,4.65625 4.65625,0 -2.34375,4.6875 -7,0 9.34375,2.3125 -4.65625,4.6875 2.3125,4.65625 11.6875,2.34375 4.65625,7 2.34375,-2.34375 2.3125,4.65625 4.6875,-4.65625 7,2.34375 2.3125,-2.34375 7,4.65625 -4.65625,2.34375 2.34375,4.65625 2.3125,2.34375 -2.3125,2.34375 7,2.3125 0,-7 -2.34375,-7 -2.34375,-7 -2.3125,-7 -4.6875,2.34375 -4.65625,-7 -7,-7 9.34375,-2.34375 2.3125,2.34375 4.6875,0 0,4.65625 11.65625,0 7,2.34375 2.34375,2.34375 2.3125,-4.6875 2.34375,-9.3125 -4.65625,-7 2.3125,-4.6875 7,4.6875 7,-2.34375 0,-2.34375 -4.65625,-2.3125 -4.65625,-9.34375 -4.6875,0 -2.3125,-2.34375 -7,2.34375 -14,-2.34375 -11.6875,-11.65625 0,-2.34375 -2.3125,0 -16.34375,2.34375 -16.34375,-9.34375 -25.65625,9.34375 -7,-4.65625 -9.34375,2.3125 -11.65625,-2.3125 -2.34375,-4.6875 -28,-4.65625 z m 21,37.34375 -4.65625,2.3125 4.65625,2.34375 0,-4.65625 z m 21,0 -9.3125,2.3125 0,4.6875 -9.34375,0 2.34375,7 4.65625,9.3125 7,7 -2.34375,4.6875 2.34375,0 4.65625,-2.34375 7,4.65625 -2.3125,7 0,11.6875 4.65625,4.65625 -2.34375,9.34375 -7,2.3125 4.6875,7 7,-7 7,-9.3125 4.65625,0 -4.65625,-2.34375 4.65625,-2.34375 7,2.34375 0,14 4.65625,7 7,4.65625 4.6875,-2.3125 -2.34375,-9.34375 2.34375,-2.34375 2.3125,-2.3125 4.6875,2.3125 4.65625,-2.3125 2.34375,-4.6875 4.65625,2.34375 0,2.34375 -2.34375,4.65625 0,7 0,7 2.34375,-4.65625 9.34375,-4.6875 4.65625,-9.3125 2.34375,-11.6875 -7,-7 -2.34375,4.6875 -7,0 -2.34375,7 -2.3125,-9.34375 -4.6875,2.34375 -2.3125,-7 -4.6875,9.3125 -2.3125,-2.3125 -2.34375,-9.34375 -7,9.34375 0,-4.6875 -2.34375,-4.65625 -2.3125,2.34375 -2.34375,-4.6875 7,-2.3125 0,-4.6875 -2.34375,2.34375 -11.65625,9.34375 -2.34375,-2.34375 2.34375,-4.65625 -4.65625,-2.34375 11.65625,-4.65625 -9.34375,0 7,-2.34375 -7,-2.34375 4.6875,-2.3125 11.65625,2.3125 0,-4.65625 -4.65625,-7 -2.34375,4.65625 -2.34375,-7 0,9.34375 -9.3125,4.65625 -2.34375,-4.65625 -2.34375,2.34375 -4.65625,-2.34375 0,-4.65625 -7,2.3125 2.34375,-7 -7,-4.65625 7,-4.65625 7,-2.34375 7,4.65625 0,-7 -4.6875,-2.3125 -9.3125,4.65625 -4.6875,-4.65625 z m -28,49 9.34375,7 -2.34375,-4.6875 -7,-2.3125 z m 4.6875,35 -7,9.3125 -4.6875,2.34375 2.34375,7 -4.65625,9.34375 2.3125,2.3125 0,4.6875 2.34375,-2.34375 7,-2.34375 4.65625,-11.65625 -2.3125,-4.65625 7,-2.34375 -4.6875,-7 0,-4.65625 -2.3125,0 z m 28,9.3125 -7,11.6875 7,9.3125 4.65625,-2.3125 14,4.65625 7,7 4.65625,-7 -2.3125,-7 2.3125,-4.65625 -4.65625,0 -4.65625,4.65625 0,-7 -4.6875,0 -2.3125,4.65625 -4.6875,-2.3125 -9.3125,-11.6875 z m 32.65625,16.34375 -2.34375,2.34375 4.6875,2.3125 -2.34375,-4.65625 z"
     id="path3037"
     style="fill:#ece3b4;fill-opacity:1;stroke:#000000;stroke-width:0.46666855;stroke-linejoin:round" />
  <path
     d="m 300.31461,101.49132 c -0.71396,-0.53762 -0.71631,-1.74143 -0.5618,-2.62172 0.20362,-1.160041 0.82449,-2.459146 1.87266,-2.996254 2.56087,-1.312248 5.86058,1.396968 8.61423,0.561797 2.25811,-0.684877 4.1845,-2.432756 5.61798,-4.307116 1.21921,-1.594183 1.14085,-3.92126 2.28395,-5.570868 3.72475,-5.375188 9.02585,-9.59193 14.38271,-13.34299 2.24109,-1.569292 4.80115,-2.638946 7.30337,-3.745318 1.95112,-0.862697 3.99732,-3.002393 5.99251,-2.247191 2.11541,0.800708 2.85565,3.754517 3.18352,5.99251 0.41525,2.834361 -0.52723,5.806909 -1.68539,8.426966 -0.59561,1.34744 -1.34798,2.817825 -2.62173,3.558052 -0.92381,0.536871 -2.11937,0.470786 -3.18351,0.374532 -2.52919,-0.228772 -4.74946,-2.394942 -7.28384,-2.233403 -2.49709,0.159163 -4.69952,1.796818 -6.83923,3.093911 -3.41737,2.071608 -6.23168,5.007255 -9.43337,7.398724 -1.97629,1.476169 -3.90915,3.030547 -6.03157,4.287585 -1.96973,1.166606 -3.96754,2.407383 -6.17978,2.996253 -1.75348,0.46675 -3.98118,1.46604 -5.43071,0.37453 z"
     id="path4298"
     style="fill:#ff6f00;fill-opacity:0.43529412;stroke:#ff6f00;stroke-width:1.5;stroke-linecap:butt;stroke-linejoin:miter;stroke-miterlimit:4;stroke-opacity:1;stroke-dasharray:none" />
  <path
     d="m 299.56554,71.528776 c 0.83347,-2.813646 2.20176,-5.450179 3.55806,-8.052434 1.11328,-2.135998 1.6768,-4.945618 3.74531,-6.179776 1.07345,-0.640466 2.69091,-0.858624 3.74532,-0.187265 1.53513,0.977445 2.04591,3.236335 2.05993,5.056179 0.0223,2.887518 -1.80424,5.51422 -3.14446,8.071966 -1.14991,2.194551 -2.38342,4.43224 -4.15891,6.160244 -1.1665,1.135301 -2.49209,2.625472 -4.11985,2.621723 -1.03891,-0.0024 -2.19832,-0.736679 -2.62173,-1.685393 -0.79884,-1.789917 0.37962,-3.925877 0.93633,-5.805244 z"
     id="path4343"
     style="fill:#ff6f00;fill-opacity:0.43529412;stroke:#ff6f00;stroke-width:1.5;stroke-linecap:butt;stroke-linejoin:miter;stroke-miterlimit:4;stroke-opacity:1;stroke-dasharray:none" />
  <path
     d="m 276.34457,81.828402 c -1.29534,-1.964438 -3.02269,-4.235653 -2.62172,-6.554307 0.24115,-1.394507 1.40071,-3.043683 2.80899,-3.183521 1.9505,-0.193679 3.356,2.114226 4.68164,3.558052 1.49915,1.632806 3.37424,3.408972 3.55806,5.617978 0.10672,1.28243 -0.46485,2.791015 -1.49813,3.558052 -0.95757,0.710833 -2.43385,0.772531 -3.55805,0.374532 -1.4979,-0.530302 -2.49606,-2.04422 -3.37079,-3.370786 z"
     id="path4424"
     style="fill:#ff6f00;fill-opacity:0.43529412;stroke:#ff6f00;stroke-width:1.5;stroke-linecap:butt;stroke-linejoin:miter;stroke-miterlimit:4;stroke-opacity:1;stroke-dasharray:none" />
  <path
     d="m 283.67072,110.08792 c 0.79808,-1.96128 1.42688,-4.00022 2.39361,-5.88409 0.60677,-1.18242 1.35533,-2.29005 2.12426,-3.37404 0.89432,-1.260765 1.67203,-2.673389 2.88711,-3.628862 1.51438,-1.19083 3.51678,-1.576382 5.24376,-2.43018 3.49871,-1.729723 6.78199,-3.897649 10.36219,-5.45171 1.39438,-0.605259 2.80388,-1.723789 4.30711,-1.498127 1.14825,0.172373 2.35889,0.989598 2.80899,2.059925 0.34221,0.813755 0.14164,1.905575 -0.37453,2.621723 -0.89775,1.245562 -2.61027,1.779631 -4.11985,2.059925 -1.91145,0.354914 -3.90994,-0.994767 -5.80524,-0.561798 -1.99339,0.455378 -4.09319,1.492999 -5.24345,3.183521 -1.24696,1.832643 -0.53902,4.416143 -1.1236,6.554303 -1.10981,4.0593 -2.31481,8.19789 -4.49438,11.79776 -1.51157,2.49658 -3.30743,5.04478 -5.80524,6.5543 -1.09461,0.66151 -2.52154,1.34758 -3.72578,0.9168 -1.16691,-0.41743 -1.87092,-1.78986 -2.22766,-2.97673 -0.34598,-1.15105 -0.0545,-2.42732 0.21076,-3.59961 0.50381,-2.22653 1.72152,-4.22865 2.58194,-6.34311 z"
     id="path4426"
     style="fill:#ff6f00;fill-opacity:0.43529412;stroke:#ff6f00;stroke-width:1.5;stroke-linecap:butt;stroke-linejoin:miter;stroke-miterlimit:4;stroke-opacity:1;stroke-dasharray:none" />
  <path
     d="m 256.49438,110.29282 c 1.58829,-1.85445 3.7826,-3.46871 6.17978,-3.93258 2.33918,-0.45265 4.76871,0.54988 7.02649,1.31086 3.41093,1.14965 6.45442,3.18934 9.64822,4.84938 2.10679,1.09505 4.38991,1.9273 6.27513,3.37079 1.09782,0.84059 2.22069,1.78362 2.84805,3.01578 0.70057,1.37595 1.57596,3.18895 0.85246,4.55298 -0.65224,1.22968 -2.4479,1.49387 -3.82919,1.66586 -1.83347,0.22829 -3.67146,-0.47326 -5.46977,-0.89727 -4.22457,-0.99609 -8.39519,-2.27412 -12.43767,-3.85446 -2.82906,-1.10598 -5.63072,-2.34259 -8.22591,-3.9211 -1.49264,-0.90789 -3.73752,-1.47347 -4.17845,-3.16398 -0.27514,-1.05486 0.60172,-2.16828 1.31086,-2.99626 z"
     id="path4538"
     style="fill:#ff6f00;fill-opacity:0.43529412;stroke:#ff6f00;stroke-width:1.5;stroke-linecap:butt;stroke-linejoin:miter;stroke-miterlimit:4;stroke-opacity:1;stroke-dasharray:none" />
  <path
     d="m 253.1569,134.25481 c 4.64375,-2.87218 9.00497,-6.19982 13.7427,-8.91418 4.51085,-2.58437 9.29118,-4.667 13.93935,-6.99537 1.24798,-0.62514 2.36412,-2.074 3.74532,-1.87266 1.3547,0.19748 2.65281,1.48374 2.99625,2.80898 0.24488,0.94494 -0.38232,1.95759 -0.89476,2.78843 -1.37219,2.22477 -3.6404,3.75911 -5.59698,5.49241 -5.31539,4.70881 -11.21909,8.7148 -16.64567,13.29502 -2.4932,2.10435 -4.99056,4.21467 -7.306,6.51317 -1.61328,1.60149 -2.92689,3.49174 -4.57531,5.05704 -1.57652,1.49702 -2.88739,4.27081 -5.05618,4.11985 -2.8885,-0.20106 -4.41783,-3.88502 -5.90895,-6.36704 -1.12282,-1.86897 -2.47969,-4.02553 -2.14349,-6.17977 0.19251,-1.23351 1.31676,-2.16385 2.24719,-2.99626 3.3033,-2.95529 7.68696,-4.41813 11.45653,-6.74962 z"
     id="path4650"
     style="fill:#ff6f00;fill-opacity:0.43529412;stroke:#ff6f00;stroke-width:1.5;stroke-linecap:butt;stroke-linejoin:miter;stroke-miterlimit:4;stroke-opacity:1;stroke-dasharray:none" />
  <path
     d="m 185.75174,116.58513 4.66668,7.00003 2.33335,7.00002 -2.33335,-2.33334 -2.33334,7.00003 -4.66669,-9.33337 -2.33334,-2.33334 -7.00003,4.66668 -4.66668,7.00003 -11.66671,-9.33337 -7.00003,2.33334 -4.66669,7.00003 0,2.33334 -9.33337,0 0,7.00003 2.33334,4.66669 -11.66671,4.66668 -4.66669,-4.66668 -16.33339,4.66668 2.33334,2.33334 -7.00003,4.66669 -9.33337,4.66668 -7.000029,2.33335 -4.666685,-2.33335 0,2.33335 4.666685,7.00003 4.666686,-2.33335 0,2.33335 4.666685,7.00002 4.666686,-2.33334 2.333342,7.00003 7.00003,2.33334 2.33334,-11.66671 4.66669,4.66668 11.66671,-2.33334 0,9.33337 -4.66669,-2.33334 -7.00002,0 0,9.33337 -4.66669,-4.66669 -2.33334,4.66669 -2.33334,-2.33334 -2.33335,7.00003 -4.666682,-4.66669 0,-4.66669 -4.666686,2.33335 -2.333342,-7.00003 -9.333371,2.33334 -2.333343,11.66672 -9.333371,-7.00003 -7.000028,0 -2.333343,-4.66669 -7.000028,7.00003 -18.666741,2.33334 28.000112,4.66669 2.333343,4.66668 11.666713,2.33335 9.333371,-2.33335 7.000028,4.66669 25.666768,-9.33337 16.3334,9.33337 16.3334,-2.33334 2.33334,0 7.00003,-11.66672 0,-2.33334 14.00006,-7.00003 -11.66672,-9.33337 0,-4.66668 21.00009,-9.33338 4.66668,2.33335 0,-11.66672 2.33335,-2.33334 18.66674,0 2.33334,-7.00003 -11.66671,-4.66668 -2.33335,-18.66674 -14.00005,-7.00003 z m -121.333823,49.00019 -2.333343,7.00003 9.333371,7.00003 7.000028,2.33334 7.000028,-2.33334 -4.666685,-9.33337 -4.666685,0 -11.666714,-4.66669 z"
     id="path3039"
     style="fill:#b6f2dc;stroke:#000000;stroke-width:0.46666855;stroke-linejoin:round" />
  <path
     d="m 188.01745,140.12218 c -1.39381,0.008 -2.98829,0.22606 -4.14494,-0.55172 -0.88849,-0.59745 -1.37071,-1.74162 -1.59363,-2.78884 -0.13894,-0.6527 -0.28615,-1.53405 0.19921,-1.99203 1.16008,-1.09465 3.22126,0.13497 4.78087,-0.1992 1.39858,-0.29967 2.58852,-1.9071 3.98407,-1.59363 1.23775,0.27803 2.42274,1.53128 2.58964,2.78884 0.18758,1.4133 -0.82741,2.96252 -1.99203,3.78487 -1.05181,0.7427 -2.53561,0.54463 -3.82319,0.55171 z"
     id="path5169"
     style="fill:#ff6f00;fill-opacity:0.43529412;stroke:#ff6f00;stroke-width:1.5;stroke-linecap:butt;stroke-linejoin:miter;stroke-miterlimit:4;stroke-opacity:1;stroke-dasharray:none" />
  <path
     d="m 184.0561,141.83836 c -1.04894,-0.25343 -2.2216,-0.7428 -2.77323,-1.67028 -1.52894,-2.57069 -1.01721,-6.03786 -0.3984,-8.96415 0.58748,-2.77812 1.86217,-5.54476 3.79107,-7.62861 1.46944,-1.58748 3.4345,-2.9919 5.57147,-3.32756 1.75034,-0.27493 3.79483,0.0895 5.17928,1.19522 1.67082,1.33439 2.51408,3.65633 2.78885,5.77689 0.31292,2.41502 -0.70017,4.83717 -1.39442,7.17132 -0.69401,2.33334 -0.77822,5.3384 -2.75052,6.76533 -2.71071,1.96116 -6.76191,1.46757 -10.0141,0.68184 z"
     id="path5171"
     style="fill:#ff6f00;fill-opacity:0.43529412;stroke:#ff6f00;stroke-width:1.5;stroke-linecap:butt;stroke-linejoin:miter;stroke-miterlimit:4;stroke-opacity:1;stroke-dasharray:none" />
  <path
     d="m 171.12351,138.37525 c -3.46548,0.0724 -7.01003,-1.16829 -9.96017,-2.98805 -1.39922,-0.86309 -3.03162,-1.98039 -3.38644,-3.58565 -0.27192,-1.23018 0.24434,-2.75916 1.19522,-3.58567 1.48867,-1.29396 3.86652,-0.79495 5.8195,-1.07119 1.56075,-0.22076 3.12963,-0.44141 4.7057,-0.46737 3.0172,-0.0497 6.06065,0.0774 9.0331,0.59761 1.82534,0.31943 3.56085,1.0276 5.34209,1.53857 1.394,0.39988 3.30995,0.0374 4.18327,1.19521 0.67977,0.90119 0.71057,2.50935 0,3.38646 -1.41004,1.74051 -4.41555,0.7945 -6.57371,1.39442 -3.52038,0.97859 -6.70549,3.50932 -10.35856,3.58566 z"
     id="path5167"
     style="fill:#ff6f00;fill-opacity:0.43529412;stroke:#ff6f00;stroke-width:1.5;stroke-linecap:butt;stroke-linejoin:miter;stroke-miterlimit:4;stroke-opacity:1;stroke-dasharray:none" />
  <path
     d="m 122.71713,157.10035 c -2.30373,-0.076 -4.93056,-0.009 -6.77291,-1.39442 -1.13954,-0.85676 -2.28785,-2.3902 -1.99202,-3.78487 0.33353,-1.57241 2.24535,-2.5258 3.78485,-2.98805 2.99983,-0.90072 6.64523,-0.76089 9.36255,0.79682 1.19873,0.68716 2.17592,2.02149 2.39044,3.38645 0.17281,1.09959 -0.14647,2.46806 -0.99602,3.18725 -1.48363,1.25597 -3.83409,0.86093 -5.77689,0.79682 z"
     id="path5165"
     style="fill:#ff6f00;fill-opacity:0.43529412;stroke:#ff6f00;stroke-width:1.5;stroke-linecap:butt;stroke-linejoin:miter;stroke-miterlimit:4;stroke-opacity:1;stroke-dasharray:none" />
  <path
     d="m 116.22001,181.76728 c -1.71557,0.79481 -3.73625,-0.82134 -5.41309,-1.69492 -2.54489,-1.32582 -4.18002,-4.1243 -6.81589,-5.25853 -3.02465,-1.30153 -6.515712,-2.09924 -9.759064,-1.53076 -1.546839,0.27113 -2.558863,2.31602 -4.128595,2.26952 -1.288031,-0.0382 -2.804772,-0.8584 -3.271515,-2.05949 -0.682227,-1.75562 -0.0031,-4.3071 1.494514,-5.44931 1.521744,-1.16059 3.841401,-0.22927 5.741427,0 4.716071,0.56907 9.437683,1.60968 13.841803,3.38983 3.63844,1.47066 8.92929,2.2089 10.1695,5.9322 0.50332,1.51104 -0.41398,3.73196 -1.85909,4.40146 z"
     id="path5509"
     style="fill:#ff6f00;fill-opacity:0.43529412;stroke:#ff6f00;stroke-width:1.5;stroke-linecap:butt;stroke-linejoin:miter;stroke-miterlimit:4;stroke-opacity:1;stroke-dasharray:none" />
  <path
     d="m 108.75143,156.25195 2.33334,2.33335 -2.33334,4.66668 2.33334,2.33334 11.66671,2.33335 6.34378,-3.20835 -20.34383,-8.45837 z m 20.34383,8.45837 7.65628,3.20835 -4.66668,-4.66669 -2.9896,1.45834 z m 7.65628,3.20835 4.66669,4.66668 6.56252,0 -11.22921,-4.66668 z m 11.22921,4.66668 10.86463,4.52085 -3.4271,-4.52085 -7.43753,0 z m 10.86463,4.52085 3.57293,4.81252 2.33334,-2.33334 -5.90627,-2.47918 z"
     id="path3041"
     style="fill:none;stroke:#000000;stroke-width:0.46666855;stroke-linecap:round;stroke-linejoin:round" />
  <path
     d="m 233.60324,-19.17004 a 1.6194332,1.6194332 0 1 1 -3.23886,0 1.6194332,1.6194332 0 1 1 3.23886,0 z"
     transform="matrix(1.191022,0,0,1.191022,75.302982,58.894184)"
     id="path4058"
     style="fill:#ffffff;fill-opacity:0;fill-rule:evenodd;stroke:#444444;stroke-width:1px;stroke-linecap:butt;stroke-linejoin:miter;stroke-opacity:1" />
  <path
     d="m 233.60324,-19.17004 a 1.6194332,1.6194332 0 1 1 -3.23886,0 1.6194332,1.6194332 0 1 1 3.23886,0 z"
     transform="matrix(1.191022,0,0,1.191022,75.46962,69.442155)"
     id="path4058-4"
     style="fill:#ffffff;fill-opacity:0;fill-rule:evenodd;stroke:#444444;stroke-width:1px;stroke-linecap:butt;stroke-linejoin:miter;stroke-opacity:1" />
  <path
     d="m 233.60324,-19.17004 a 1.6194332,1.6194332 0 1 1 -3.23886,0 1.6194332,1.6194332 0 1 1 3.23886,0 z"
     transform="matrix(1.191022,0,0,1.191022,81.051016,77.814248)"
     id="path4058-5"
     style="fill:#ffffff;fill-opacity:0;fill-rule:evenodd;stroke:#444444;stroke-width:1px;stroke-linecap:butt;stroke-linejoin:miter;stroke-opacity:1" />
  <path
     d="m 233.60324,-19.17004 a 1.6194332,1.6194332 0 1 1 -3.23886,0 1.6194332,1.6194332 0 1 1 3.23886,0 z"
     transform="matrix(1.191022,0,0,1.191022,87.795201,81.767736)"
     id="path4058-8"
     style="fill:#ffffff;fill-opacity:0;fill-rule:evenodd;stroke:#444444;stroke-width:1px;stroke-linecap:butt;stroke-linejoin:miter;stroke-opacity:1" />
  <path
     d="m 233.60324,-19.17004 a 1.6194332,1.6194332 0 1 1 -3.23886,0 1.6194332,1.6194332 0 1 1 3.23886,0 z"
     transform="matrix(1.191022,0,0,1.191022,90.678917,89.535178)"
     id="path4058-8-8"
     style="fill:#ffffff;fill-opacity:0;fill-rule:evenodd;stroke:#444444;stroke-width:1px;stroke-linecap:butt;stroke-linejoin:miter;stroke-opacity:1" />
  <path
     d="m 233.60324,-19.17004 a 1.6194332,1.6194332 0 1 1 -3.23886,0 1.6194332,1.6194332 0 1 1 3.23886,0 z"
     transform="matrix(1.191022,0,0,1.191022,88.492877,96.651455)"
     id="path4058-8-1"
     style="fill:#ffffff;fill-opacity:0;fill-rule:evenodd;stroke:#444444;stroke-width:1px;stroke-linecap:butt;stroke-linejoin:miter;stroke-opacity:1" />
  <path
     d="m 233.60324,-19.17004 a 1.6194332,1.6194332 0 1 1 -3.23886,0 1.6194332,1.6194332 0 1 1 3.23886,0 z"
     transform="matrix(1.191022,0,0,1.191022,85.237062,103.16308)"
     id="path4058-8-1-2"
     style="fill:#ffffff;fill-opacity:0;fill-rule:evenodd;stroke:#444444;stroke-width:1px;stroke-linecap:butt;stroke-linejoin:miter;stroke-opacity:1" />
  <path
     d="m 233.60324,-19.17004 a 1.6194332,1.6194332 0 1 1 -3.23886,0 1.6194332,1.6194332 0 1 1 3.23886,0 z"
     transform="matrix(1.191022,0,0,1.191022,64.091692,73.386933)"
     id="path4058-1"
     style="fill:#ffffff;fill-opacity:0;fill-rule:evenodd;stroke:#444444;stroke-width:1px;stroke-linecap:butt;stroke-linejoin:miter;stroke-opacity:1" />
  <path
     d="m 233.60324,-19.17004 a 1.6194332,1.6194332 0 1 1 -3.23886,0 1.6194332,1.6194332 0 1 1 3.23886,0 z"
     transform="matrix(1.191022,0,0,1.191022,68.960605,93.424387)"
     id="path4058-49"
     style="fill:#ffffff;fill-opacity:0;fill-rule:evenodd;stroke:#444444;stroke-width:1px;stroke-linecap:butt;stroke-linejoin:miter;stroke-opacity:1" />
  <path
     d="m 233.60324,-19.17004 a 1.6194332,1.6194332 0 1 1 -3.23886,0 1.6194332,1.6194332 0 1 1 3.23886,0 z"
     transform="matrix(1.191022,0,0,1.191022,67.275212,104.09855)"
     id="path4058-82"
     style="fill:#ffffff;fill-opacity:0;fill-rule:evenodd;stroke:#444444;stroke-width:1px;stroke-linecap:butt;stroke-linejoin:miter;stroke-opacity:1" />
  <path
     d="m 233.60324,-19.17004 a 1.6194332,1.6194332 0 1 1 -3.23886,0 1.6194332,1.6194332 0 1 1 3.23886,0 z"
     transform="matrix(1.191022,0,0,1.191022,58.099182,98.8551)"
     id="path4058-45"
     style="fill:#ffffff;fill-opacity:0;fill-rule:evenodd;stroke:#444444;stroke-width:1px;stroke-linecap:butt;stroke-linejoin:miter;stroke-opacity:1" />
  <path
     d="m 233.60324,-19.17004 a 1.6194332,1.6194332 0 1 1 -3.23886,0 1.6194332,1.6194332 0 1 1 3.23886,0 z"
     transform="matrix(1.191022,0,0,1.191022,54.166598,91.926259)"
     id="path4058-45-2"
     style="fill:#ffffff;fill-opacity:0;fill-rule:evenodd;stroke:#444444;stroke-width:1px;stroke-linecap:butt;stroke-linejoin:miter;stroke-opacity:1" />
  <path
     d="m 233.60324,-19.17004 a 1.6194332,1.6194332 0 1 1 -3.23886,0 1.6194332,1.6194332 0 1 1 3.23886,0 z"
     transform="matrix(1.191022,0,0,1.191022,59.035511,65.709031)"
     id="path4058-45-9"
     style="fill:#ffffff;fill-opacity:0;fill-rule:evenodd;stroke:#444444;stroke-width:1px;stroke-linecap:butt;stroke-linejoin:miter;stroke-opacity:1" />
  <path
     d="m 233.60324,-19.17004 a 1.6194332,1.6194332 0 1 1 -3.23886,0 1.6194332,1.6194332 0 1 1 3.23886,0 z"
     transform="matrix(1.191022,0,0,1.191022,66.338882,55.222138)"
     id="path4058-45-9-9"
     style="fill:#ffffff;fill-opacity:0;fill-rule:evenodd;stroke:#444444;stroke-width:1px;stroke-linecap:butt;stroke-linejoin:miter;stroke-opacity:1" />
  <path
     d="m 233.60324,-19.17004 a 1.6194332,1.6194332 0 1 1 -3.23886,0 1.6194332,1.6194332 0 1 1 3.23886,0 z"
     transform="matrix(1.191022,0,0,1.191022,81.110204,113.08329)"
     id="path4058-45-9-8"
     style="fill:#ffffff;fill-opacity:0;fill-rule:evenodd;stroke:#444444;stroke-width:1px;stroke-linecap:butt;stroke-linejoin:miter;stroke-opacity:1" />
  <path
     d="m 233.60324,-19.17004 a 1.6194332,1.6194332 0 1 1 -3.23886,0 1.6194332,1.6194332 0 1 1 3.23886,0 z"
     transform="matrix(1.191022,0,0,1.191022,75.889444,118.89255)"
     id="path4058-45-9-3"
     style="fill:#ffffff;fill-opacity:0;fill-rule:evenodd;stroke:#444444;stroke-width:1px;stroke-linecap:butt;stroke-linejoin:miter;stroke-opacity:1" />
  <path
     d="m 233.60324,-19.17004 a 1.6194332,1.6194332 0 1 1 -3.23886,0 1.6194332,1.6194332 0 1 1 3.23886,0 z"
     transform="matrix(1.191022,0,0,1.191022,65.567133,120.94846)"
     id="path4058-45-9-86"
     style="fill:#ffffff;fill-opacity:0;fill-rule:evenodd;stroke:#444444;stroke-width:1px;stroke-linecap:butt;stroke-linejoin:miter;stroke-opacity:1" />
  <path
     d="m 233.60324,-19.17004 a 1.6194332,1.6194332 0 1 1 -3.23886,0 1.6194332,1.6194332 0 1 1 3.23886,0 z"
     transform="matrix(1.191022,0,0,1.191022,54.728395,127.50679)"
     id="path4058-45-9-98"
     style="fill:#ffffff;fill-opacity:0;fill-rule:evenodd;stroke:#444444;stroke-width:1px;stroke-linecap:butt;stroke-linejoin:miter;stroke-opacity:1" />
  <path
     d="m 233.60324,-19.17004 a 1.6194332,1.6194332 0 1 1 -3.23886,0 1.6194332,1.6194332 0 1 1 3.23886,0 z"
     transform="matrix(1.191022,0,0,1.191022,41.619781,120.20341)"
     id="path4058-45-9-6"
     style="fill:#ffffff;fill-opacity:0;fill-rule:evenodd;stroke:#444444;stroke-width:1px;stroke-linecap:butt;stroke-linejoin:miter;stroke-opacity:1" />
  <path
     d="m 233.60324,-19.17004 a 1.6194332,1.6194332 0 1 1 -3.23886,0 1.6194332,1.6194332 0 1 1 3.23886,0 z"
     transform="matrix(1.191022,0,0,1.191022,33.754613,114.02363)"
     id="path4058-45-9-62"
     style="fill:#ffffff;fill-opacity:0;fill-rule:evenodd;stroke:#444444;stroke-width:1px;stroke-linecap:butt;stroke-linejoin:miter;stroke-opacity:1" />
  <path
     d="m 233.60324,-19.17004 a 1.6194332,1.6194332 0 1 1 -3.23886,0 1.6194332,1.6194332 0 1 1 3.23886,0 z"
     transform="matrix(1.191022,0,0,1.191022,26.638507,121.70154)"
     id="path4058-45-9-62-3"
     style="fill:#ffffff;fill-opacity:0;fill-rule:evenodd;stroke:#444444;stroke-width:1px;stroke-linecap:butt;stroke-linejoin:miter;stroke-opacity:1" />
  <path
     d="m 233.60324,-19.17004 a 1.6194332,1.6194332 0 1 1 -3.23886,0 1.6194332,1.6194332 0 1 1 3.23886,0 z"
     transform="matrix(1.191022,0,0,1.191022,18.398808,122.63787)"
     id="path4058-45-9-62-8"
     style="fill:#ffffff;fill-opacity:0;fill-rule:evenodd;stroke:#444444;stroke-width:1px;stroke-linecap:butt;stroke-linejoin:miter;stroke-opacity:1" />
  <path
     d="m 233.60324,-19.17004 a 1.6194332,1.6194332 0 1 1 -3.23886,0 1.6194332,1.6194332 0 1 1 3.23886,0 z"
     transform="matrix(1.191022,0,0,1.191022,17.83701,114.95997)"
     id="path4058-45-9-62-2"
     style="fill:#ffffff;fill-opacity:0;fill-rule:evenodd;stroke:#444444;stroke-width:1px;stroke-linecap:butt;stroke-linejoin:miter;stroke-opacity:1" />
  <path
     d="m 233.60324,-19.17004 a 1.6194332,1.6194332 0 1 1 -3.23886,0 1.6194332,1.6194332 0 1 1 3.23886,0 z"
     transform="matrix(1.191022,0,0,1.191022,15.215287,133.68655)"
     id="path4058-45-9-62-6"
     style="fill:#ffffff;fill-opacity:0;fill-rule:evenodd;stroke:#444444;stroke-width:1px;stroke-linecap:butt;stroke-linejoin:miter;stroke-opacity:1" />
  <path
     d="m 233.60324,-19.17004 a 1.6194332,1.6194332 0 1 1 -3.23886,0 1.6194332,1.6194332 0 1 1 3.23886,0 z"
     transform="matrix(1.191022,0,0,1.191022,25.514912,97.918767)"
     id="path4058-45-9-62-2-2"
     style="fill:#ffffff;fill-opacity:0;fill-rule:evenodd;stroke:#444444;stroke-width:1px;stroke-linecap:butt;stroke-linejoin:miter;stroke-opacity:1" />
  <path
     d="m 233.60324,-19.17004 a 1.6194332,1.6194332 0 1 1 -3.23886,0 1.6194332,1.6194332 0 1 1 3.23886,0 z"
     transform="matrix(1.191022,0,0,1.191022,32.421066,84.057077)"
     id="path4058-45-9-62-2-7"
     style="fill:#ffffff;fill-opacity:0;fill-rule:evenodd;stroke:#444444;stroke-width:1px;stroke-linecap:butt;stroke-linejoin:miter;stroke-opacity:1" />
  <path
     d="m 233.60324,-19.17004 a 1.6194332,1.6194332 0 1 1 -3.23886,0 1.6194332,1.6194332 0 1 1 3.23886,0 z"
     transform="matrix(1.191022,0,0,1.191022,19.896934,85.93375)"
     id="path4058-45-9-62-2-7-5"
     style="fill:#ffffff;fill-opacity:0;fill-rule:evenodd;stroke:#444444;stroke-width:1px;stroke-linecap:butt;stroke-linejoin:miter;stroke-opacity:1" />
  <path
     d="m 233.60324,-19.17004 a 1.6194332,1.6194332 0 1 1 -3.23886,0 1.6194332,1.6194332 0 1 1 3.23886,0 z"
     transform="matrix(1.191022,0,0,1.191022,6.6010542,95.484311)"
     id="path4058-45-9-62-2-7-5-7"
     style="fill:#ffffff;fill-opacity:0;fill-rule:evenodd;stroke:#444444;stroke-width:1px;stroke-linecap:butt;stroke-linejoin:miter;stroke-opacity:1" />
  <path
     d="m 233.60324,-19.17004 a 1.6194332,1.6194332 0 1 1 -3.23886,0 1.6194332,1.6194332 0 1 1 3.23886,0 z"
     transform="matrix(1.191022,0,0,1.191022,1.1703429,99.79143)"
     id="path4058-45-9-62-2-7-5-8"
     style="fill:#ffffff;fill-opacity:0;fill-rule:evenodd;stroke:#444444;stroke-width:1px;stroke-linecap:butt;stroke-linejoin:miter;stroke-opacity:1" />
  <path
     d="m 233.60324,-19.17004 a 1.6194332,1.6194332 0 1 1 -3.23886,0 1.6194332,1.6194332 0 1 1 3.23886,0 z"
     transform="matrix(1.191022,0,0,1.191022,4.5411294,104.09854)"
     id="path4058-45-9-62-2-7-5-8-2"
     style="fill:#ffffff;fill-opacity:0;fill-rule:evenodd;stroke:#444444;stroke-width:1px;stroke-linecap:butt;stroke-linejoin:miter;stroke-opacity:1" />
  <path
     d="m 233.60324,-19.17004 a 1.6194332,1.6194332 0 1 1 -3.23886,0 1.6194332,1.6194332 0 1 1 3.23886,0 z"
     transform="matrix(1.191022,0,0,1.191022,10.346372,150.48806)"
     id="path4058-45-9-62-6-7"
     style="fill:#ffffff;fill-opacity:0;fill-rule:evenodd;stroke:#444444;stroke-width:1px;stroke-linecap:butt;stroke-linejoin:miter;stroke-opacity:1" />
  <path
     d="m 233.60324,-19.17004 a 1.6194332,1.6194332 0 1 1 -3.23886,0 1.6194332,1.6194332 0 1 1 3.23886,0 z"
     transform="matrix(1.191022,0,0,1.191022,7.7246503,142.67533)"
     id="path4058-45-9-62-6-8"
     style="fill:#ffffff;fill-opacity:0;fill-rule:evenodd;stroke:#444444;stroke-width:1px;stroke-linecap:butt;stroke-linejoin:miter;stroke-opacity:1" />
  <path
     d="m 233.60324,-19.17004 a 1.6194332,1.6194332 0 1 1 -3.23886,0 1.6194332,1.6194332 0 1 1 3.23886,0 z"
     transform="matrix(1.191022,0,0,1.191022,-15.519009,99.95595)"
     id="path4058-45-9-62-2-7-5-8-0"
     style="fill:#ffffff;fill-opacity:0;fill-rule:evenodd;stroke:#444444;stroke-width:1px;stroke-linecap:butt;stroke-linejoin:miter;stroke-opacity:1" />
  <path
     d="m 233.60324,-19.17004 a 1.6194332,1.6194332 0 1 1 -3.23886,0 1.6194332,1.6194332 0 1 1 3.23886,0 z"
     transform="matrix(1.191022,0,0,1.191022,-9.69108,103.72401)"
     id="path4058-45-9-62-2-7-5-8-0-2"
     style="fill:#ffffff;fill-opacity:0;fill-rule:evenodd;stroke:#444444;stroke-width:1px;stroke-linecap:butt;stroke-linejoin:miter;stroke-opacity:1" />
  <path
     d="m 233.60324,-19.17004 a 1.6194332,1.6194332 0 1 1 -3.23886,0 1.6194332,1.6194332 0 1 1 3.23886,0 z"
     transform="matrix(1.191022,0,0,1.191022,-19.428908,126.57045)"
     id="path4058-45-9-62-2-7-5-8-0-0"
     style="fill:#ffffff;fill-opacity:0;fill-rule:evenodd;stroke:#444444;stroke-width:1px;stroke-linecap:butt;stroke-linejoin:miter;stroke-opacity:1" />
  <path
     d="m 233.60324,-19.17004 a 1.6194332,1.6194332 0 1 1 -3.23886,0 1.6194332,1.6194332 0 1 1 3.23886,0 z"
     transform="matrix(1.191022,0,0,1.191022,-13.061868,132.75023)"
     id="path4058-45-9-62-2-7-5-8-0-0-8"
     style="fill:#ffffff;fill-opacity:0;fill-rule:evenodd;stroke:#444444;stroke-width:1px;stroke-linecap:butt;stroke-linejoin:miter;stroke-opacity:1" />
  <path
     d="m 233.60324,-19.17004 a 1.6194332,1.6194332 0 1 1 -3.23886,0 1.6194332,1.6194332 0 1 1 3.23886,0 z"
     transform="matrix(1.191022,0,0,1.191022,-17.556249,135.37195)"
     id="path4058-45-9-62-2-7-5-8-0-0-8-9"
     style="fill:#ffffff;fill-opacity:0;fill-rule:evenodd;stroke:#444444;stroke-width:1px;stroke-linecap:butt;stroke-linejoin:miter;stroke-opacity:1" />
  <path
     d="m 233.60324,-19.17004 a 1.6194332,1.6194332 0 1 1 -3.23886,0 1.6194332,1.6194332 0 1 1 3.23886,0 z"
     transform="matrix(1.191022,0,0,1.191022,-29.751218,139.62556)"
     id="path4058-45-9-62-2-7-5-8-0-0-8-9-2"
     style="fill:#ffffff;fill-opacity:0;fill-rule:evenodd;stroke:#444444;stroke-width:1px;stroke-linecap:butt;stroke-linejoin:miter;stroke-opacity:1" />
  <path
     d="m 233.60324,-19.17004 a 1.6194332,1.6194332 0 1 1 -3.23886,0 1.6194332,1.6194332 0 1 1 3.23886,0 z"
     transform="matrix(1.191022,0,0,1.191022,1.3349236,170.33717)"
     id="path4058-45-9-62-2-7-5-8-0-0-8-9-2-8"
     style="fill:#ffffff;fill-opacity:0;fill-rule:evenodd;stroke:#444444;stroke-width:1px;stroke-linecap:butt;stroke-linejoin:miter;stroke-opacity:1" />
  <path
     d="m 233.60324,-19.17004 a 1.6194332,1.6194332 0 1 1 -3.23886,0 1.6194332,1.6194332 0 1 1 3.23886,0 z"
     transform="matrix(1.191022,0,0,1.191022,-11.001941,182.37569)"
     id="path4058-45-9-62-2-7-5-8-0-0-8-9-2-8-2"
     style="fill:#ffffff;fill-opacity:0;fill-rule:evenodd;stroke:#444444;stroke-width:1px;stroke-linecap:butt;stroke-linejoin:miter;stroke-opacity:1" />
  <path
     d="m 233.60324,-19.17004 a 1.6194332,1.6194332 0 1 1 -3.23886,0 1.6194332,1.6194332 0 1 1 3.23886,0 z"
     transform="matrix(1.191022,0,0,1.191022,-16.994451,173.76147)"
     id="path4058-45-9-62-2-7-5-8-0-0-8-9-2-8-0"
     style="fill:#ffffff;fill-opacity:0;fill-rule:evenodd;stroke:#444444;stroke-width:1px;stroke-linecap:butt;stroke-linejoin:miter;stroke-opacity:1" />
  <path
     d="m 233.60324,-19.17004 a 1.6194332,1.6194332 0 1 1 -3.23886,0 1.6194332,1.6194332 0 1 1 3.23886,0 z"
     transform="matrix(1.191022,0,0,1.191022,-26.170481,170.95248)"
     id="path4058-45-9-62-2-7-5-8-0-0-8-9-2-8-0-5"
     style="fill:#ffffff;fill-opacity:0;fill-rule:evenodd;stroke:#444444;stroke-width:1px;stroke-linecap:butt;stroke-linejoin:miter;stroke-opacity:1" />
  <path
     d="m 233.60324,-19.17004 a 1.6194332,1.6194332 0 1 1 -3.23886,0 1.6194332,1.6194332 0 1 1 3.23886,0 z"
     transform="matrix(1.191022,0,0,1.191022,-28.230406,176.00866)"
     id="path4058-45-9-62-2-7-5-8-0-0-8-9-2-8-0-5-5"
     style="fill:#ffffff;fill-opacity:0;fill-rule:evenodd;stroke:#444444;stroke-width:1px;stroke-linecap:butt;stroke-linejoin:miter;stroke-opacity:1" />
  <path
     d="m 233.60324,-19.17004 a 1.6194332,1.6194332 0 1 1 -3.23886,0 1.6194332,1.6194332 0 1 1 3.23886,0 z"
     transform="matrix(1.191022,0,0,1.191022,-33.286586,167.76895)"
     id="path4058-45-9-62-2-7-5-8-0-0-8-9-2-8-0-5-2"
     style="fill:#ffffff;fill-opacity:0;fill-rule:evenodd;stroke:#444444;stroke-width:1px;stroke-linecap:butt;stroke-linejoin:miter;stroke-opacity:1" />
  <path
     d="m 233.60324,-19.17004 a 1.6194332,1.6194332 0 1 1 -3.23886,0 1.6194332,1.6194332 0 1 1 3.23886,0 z"
     transform="matrix(1.191022,0,0,1.191022,-41.33902,129.56671)"
     id="path4058-45-9-62-2-7-5-8-0-0-8-9-2-7"
     style="fill:#ffffff;fill-opacity:0;fill-rule:evenodd;stroke:#444444;stroke-width:1px;stroke-linecap:butt;stroke-linejoin:miter;stroke-opacity:1" />
  <path
     d="m 233.60324,-19.17004 a 1.6194332,1.6194332 0 1 1 -3.23886,0 1.6194332,1.6194332 0 1 1 3.23886,0 z"
     transform="matrix(1.191022,0,0,1.191022,-50.537736,130.26227)"
     id="path4058-45-9-62-2-7-5-8-0-0-8-9-2-6"
     style="fill:#ffffff;fill-opacity:0;fill-rule:evenodd;stroke:#444444;stroke-width:1px;stroke-linecap:butt;stroke-linejoin:miter;stroke-opacity:1" />
  <path
     d="m 233.60324,-19.17004 a 1.6194332,1.6194332 0 1 1 -3.23886,0 1.6194332,1.6194332 0 1 1 3.23886,0 z"
     transform="matrix(1.191022,0,0,1.191022,-51.638646,136.68281)"
     id="path4058-45-9-62-2-7-5-8-0-0-8-9-2-6-7"
     style="fill:#ffffff;fill-opacity:0;fill-rule:evenodd;stroke:#444444;stroke-width:1px;stroke-linecap:butt;stroke-linejoin:miter;stroke-opacity:1" />
  <path
     d="m 233.60324,-19.17004 a 1.6194332,1.6194332 0 1 1 -3.23886,0 1.6194332,1.6194332 0 1 1 3.23886,0 z"
     transform="matrix(1.191022,0,0,1.191022,-61.189208,143.04985)"
     id="path4058-45-9-62-2-7-5-8-0-0-8-9-2-6-7-8"
     style="fill:#ffffff;fill-opacity:0;fill-rule:evenodd;stroke:#444444;stroke-width:1px;stroke-linecap:butt;stroke-linejoin:miter;stroke-opacity:1" />
  <path
     d="m 233.60324,-19.17004 a 1.6194332,1.6194332 0 1 1 -3.23886,0 1.6194332,1.6194332 0 1 1 3.23886,0 z"
     transform="matrix(1.191022,0,0,1.191022,-70.927035,141.92626)"
     id="path4058-45-9-62-2-7-5-8-0-0-8-9-2-6-7-7"
     style="fill:#ffffff;fill-opacity:0;fill-rule:evenodd;stroke:#444444;stroke-width:1px;stroke-linecap:butt;stroke-linejoin:miter;stroke-opacity:1" />
  <path
     d="m 233.60324,-19.17004 a 1.6194332,1.6194332 0 1 1 -3.23886,0 1.6194332,1.6194332 0 1 1 3.23886,0 z"
     transform="matrix(1.191022,0,0,1.191022,-45.271605,195.29704)"
     id="path4058-45-9-62-2-7-5-8-0-0-8-9-2-8-2-8"
     style="fill:#ffffff;fill-opacity:0;fill-rule:evenodd;stroke:#444444;stroke-width:1px;stroke-linecap:butt;stroke-linejoin:miter;stroke-opacity:1" />
  <path
     d="m 233.60324,-19.17004 a 1.6194332,1.6194332 0 1 1 -3.23886,0 1.6194332,1.6194332 0 1 1 3.23886,0 z"
     transform="matrix(1.191022,0,0,1.191022,-55.57123,193.98618)"
     id="path4058-45-9-62-2-7-5-8-0-0-8-9-2-8-2-1"
     style="fill:#ffffff;fill-opacity:0;fill-rule:evenodd;stroke:#444444;stroke-width:1px;stroke-linecap:butt;stroke-linejoin:miter;stroke-opacity:1" />
  <path
     d="m 233.60324,-19.17004 a 1.6194332,1.6194332 0 1 1 -3.23886,0 1.6194332,1.6194332 0 1 1 3.23886,0 z"
     transform="matrix(1.191022,0,0,1.191022,-65.683589,195.48432)"
     id="path4058-45-9-62-2-7-5-8-0-0-8-9-2-8-2-6"
     style="fill:#ffffff;fill-opacity:0;fill-rule:evenodd;stroke:#444444;stroke-width:1px;stroke-linecap:butt;stroke-linejoin:miter;stroke-opacity:1" />
  <path
     d="m 233.60324,-19.17004 a 1.6194332,1.6194332 0 1 1 -3.23886,0 1.6194332,1.6194332 0 1 1 3.23886,0 z"
     transform="matrix(1.191022,0,0,1.191022,-63.436398,201.28955)"
     id="path4058-45-9-62-2-7-5-8-0-0-8-9-2-8-2-0"
     style="fill:#ffffff;fill-opacity:0;fill-rule:evenodd;stroke:#444444;stroke-width:1px;stroke-linecap:butt;stroke-linejoin:miter;stroke-opacity:1" />
  <path
     d="m 233.60324,-19.17004 a 1.6194332,1.6194332 0 1 1 -3.23886,0 1.6194332,1.6194332 0 1 1 3.23886,0 z"
     transform="matrix(1.191022,0,0,1.191022,-74.672353,190.24087)"
     id="path4058-45-9-62-2-7-5-8-0-0-8-9-2-8-2-9"
     style="fill:#ffffff;fill-opacity:0;fill-rule:evenodd;stroke:#444444;stroke-width:1px;stroke-linecap:butt;stroke-linejoin:miter;stroke-opacity:1" />
  <path
     d="m 233.60324,-19.17004 a 1.6194332,1.6194332 0 1 1 -3.23886,0 1.6194332,1.6194332 0 1 1 3.23886,0 z"
     transform="matrix(1.191022,0,0,1.191022,-62.125537,242.48806)"
     id="path4058-45-9-62-2-7-5-8-0-0-8-9-2-8-2-0-5"
     style="fill:#ffffff;fill-opacity:0;fill-rule:evenodd;stroke:#444444;stroke-width:1px;stroke-linecap:butt;stroke-linejoin:miter;stroke-opacity:1" />
  <path
     d="m 233.60324,-19.17004 a 1.6194332,1.6194332 0 1 1 -3.23886,0 1.6194332,1.6194332 0 1 1 3.23886,0 z"
     transform="matrix(1.191022,0,0,1.191022,-80.664863,231.43936)"
     id="path4058-45-9-62-2-7-5-8-0-0-8-9-2-8-2-0-8"
     style="fill:#ffffff;fill-opacity:0;fill-rule:evenodd;stroke:#444444;stroke-width:1px;stroke-linecap:butt;stroke-linejoin:miter;stroke-opacity:1" />
  <path
     d="m 233.60324,-19.17004 a 1.6194332,1.6194332 0 1 1 -3.23886,0 1.6194332,1.6194332 0 1 1 3.23886,0 z"
     transform="matrix(1.191022,0,0,1.191022,-86.095575,219.64162)"
     id="path4058-45-9-62-2-7-5-8-0-0-8-9-2-8-2-0-9"
     style="fill:#ffffff;fill-opacity:0;fill-rule:evenodd;stroke:#444444;stroke-width:1px;stroke-linecap:butt;stroke-linejoin:miter;stroke-opacity:1" />
  <path
     d="m 233.60324,-19.17004 a 1.6194332,1.6194332 0 1 1 -3.23886,0 1.6194332,1.6194332 0 1 1 3.23886,0 z"
     transform="matrix(1.191022,0,0,1.191022,-90.777222,217.20715)"
     id="path4058-45-9-62-2-7-5-8-0-0-8-9-2-8-2-0-0"
     style="fill:#ffffff;fill-opacity:0;fill-rule:evenodd;stroke:#444444;stroke-width:1px;stroke-linecap:butt;stroke-linejoin:miter;stroke-opacity:1" />
  <path
     d="m 233.60324,-19.17004 a 1.6194332,1.6194332 0 1 1 -3.23886,0 1.6194332,1.6194332 0 1 1 3.23886,0 z"
     transform="matrix(1.191022,0,0,1.191022,-90.589957,226.38319)"
     id="path4058-45-9-62-2-7-5-8-0-0-8-9-2-8-2-0-9-0"
     style="fill:#ffffff;fill-opacity:0;fill-rule:evenodd;stroke:#444444;stroke-width:1px;stroke-linecap:butt;stroke-linejoin:miter;stroke-opacity:1" />
  <path
     d="m 233.60324,-19.17004 a 1.6194332,1.6194332 0 1 1 -3.23886,0 1.6194332,1.6194332 0 1 1 3.23886,0 z"
     transform="matrix(1.191022,0,0,1.191022,-100.88958,228.81764)"
     id="path4058-45-9-62-2-7-5-8-0-0-8-9-2-8-2-0-9-0-0"
     style="fill:#ffffff;fill-opacity:0;fill-rule:evenodd;stroke:#444444;stroke-width:1px;stroke-linecap:butt;stroke-linejoin:miter;stroke-opacity:1" />
  <path
     d="m 233.60324,-19.17004 a 1.6194332,1.6194332 0 1 1 -3.23886,0 1.6194332,1.6194332 0 1 1 3.23886,0 z"
     transform="matrix(1.191022,0,0,1.191022,-104.26037,233.12476)"
     id="path4058-45-9-62-2-7-5-8-0-0-8-9-2-8-2-0-9-0-0-7"
     style="fill:#ffffff;fill-opacity:0;fill-rule:evenodd;stroke:#444444;stroke-width:1px;stroke-linecap:butt;stroke-linejoin:miter;stroke-opacity:1" />
  <path
     d="m 233.60324,-19.17004 a 1.6194332,1.6194332 0 1 1 -3.23886,0 1.6194332,1.6194332 0 1 1 3.23886,0 z"
     transform="matrix(1.191022,0,0,1.191022,-83.660372,146.86455)"
     id="path4058-45-9-62-2-7-5-8-0-0-8-9-2-6-7-7-2"
     style="fill:#ffffff;fill-opacity:0;fill-rule:evenodd;stroke:#444444;stroke-width:1px;stroke-linecap:butt;stroke-linejoin:miter;stroke-opacity:1" />
  <path
     d="m 233.60324,-19.17004 a 1.6194332,1.6194332 0 1 1 -3.23886,0 1.6194332,1.6194332 0 1 1 3.23886,0 z"
     transform="matrix(1.191022,0,0,1.191022,-81.269933,152.0518)"
     id="path4058-45-9-62-2-7-5-8-0-0-8-9-2-6-7-7-5"
     style="fill:#ffffff;fill-opacity:0;fill-rule:evenodd;stroke:#444444;stroke-width:1px;stroke-linecap:butt;stroke-linejoin:miter;stroke-opacity:1" />
  <path
     d="m 233.60324,-19.17004 a 1.6194332,1.6194332 0 1 1 -3.23886,0 1.6194332,1.6194332 0 1 1 3.23886,0 z"
     transform="matrix(1.191022,0,0,1.191022,-86.250008,159.21515)"
     id="path4058-45-9-62-2-7-5-8-0-0-8-9-2-6-7-7-52"
     style="fill:#ffffff;fill-opacity:0;fill-rule:evenodd;stroke:#444444;stroke-width:1px;stroke-linecap:butt;stroke-linejoin:miter;stroke-opacity:1" />
  <path
     d="m 233.60324,-19.17004 a 1.6194332,1.6194332 0 1 1 -3.23886,0 1.6194332,1.6194332 0 1 1 3.23886,0 z"
     transform="matrix(1.191022,0,0,1.191022,-90.632483,159.01595)"
     id="path4058-45-9-62-2-7-5-8-0-0-8-9-2-6-7-7-1"
     style="fill:#ffffff;fill-opacity:0;fill-rule:evenodd;stroke:#444444;stroke-width:1px;stroke-linecap:butt;stroke-linejoin:miter;stroke-opacity:1" />
  <path
     d="m 233.60324,-19.17004 a 1.6194332,1.6194332 0 1 1 -3.23886,0 1.6194332,1.6194332 0 1 1 3.23886,0 z"
     transform="matrix(1.191022,0,0,1.191022,-91.429296,154.83268)"
     id="path4058-45-9-62-2-7-5-8-0-0-8-9-2-6-7-7-4"
     style="fill:#ffffff;fill-opacity:0;fill-rule:evenodd;stroke:#444444;stroke-width:1px;stroke-linecap:butt;stroke-linejoin:miter;stroke-opacity:1" />
  <path
     d="m 233.60324,-19.17004 a 1.6194332,1.6194332 0 1 1 -3.23886,0 1.6194332,1.6194332 0 1 1 3.23886,0 z"
     transform="matrix(1.191022,0,0,1.191022,-110.75201,157.42232)"
     id="path4058-45-9-62-2-7-5-8-0-0-8-9-2-6-7-7-4-8"
     style="fill:#ffffff;fill-opacity:0;fill-rule:evenodd;stroke:#444444;stroke-width:1px;stroke-linecap:butt;stroke-linejoin:miter;stroke-opacity:1" />
  <path
     d="m 233.60324,-19.17004 a 1.6194332,1.6194332 0 1 1 -3.23886,0 1.6194332,1.6194332 0 1 1 3.23886,0 z"
     transform="matrix(1.191022,0,0,1.191022,-115.53288,153.43827)"
     id="path4058-45-9-62-2-7-5-8-0-0-8-9-2-6-7-7-4-8-6"
     style="fill:#ffffff;fill-opacity:0;fill-rule:evenodd;stroke:#444444;stroke-width:1px;stroke-linecap:butt;stroke-linejoin:miter;stroke-opacity:1" />
  <path
     d="m 233.60324,-19.17004 a 1.6194332,1.6194332 0 1 1 -3.23886,0 1.6194332,1.6194332 0 1 1 3.23886,0 z"
     transform="matrix(1.191022,0,0,1.191022,-128.28188,159.61356)"
     id="path4058-45-9-62-2-7-5-8-0-0-8-9-2-6-7-7-4-8-6-4"
     style="fill:#ffffff;fill-opacity:0;fill-rule:evenodd;stroke:#444444;stroke-width:1px;stroke-linecap:butt;stroke-linejoin:miter;stroke-opacity:1" />
  <path
     d="m 233.60324,-19.17004 a 1.6194332,1.6194332 0 1 1 -3.23886,0 1.6194332,1.6194332 0 1 1 3.23886,0 z"
     transform="matrix(1.191022,0,0,1.191022,-136.05081,170.37054)"
     id="path4058-45-9-62-2-7-5-8-0-0-8-9-2-6-7-7-4-8-6-6"
     style="fill:#ffffff;fill-opacity:0;fill-rule:evenodd;stroke:#444444;stroke-width:1px;stroke-linecap:butt;stroke-linejoin:miter;stroke-opacity:1" />
  <path
     d="m 233.60324,-19.17004 a 1.6194332,1.6194332 0 1 1 -3.23886,0 1.6194332,1.6194332 0 1 1 3.23886,0 z"
     transform="matrix(1.191022,0,0,1.191022,-150.79185,176.34663)"
     id="path4058-45-9-62-2-7-5-8-0-0-8-9-2-6-7-7-4-8-6-6-8"
     style="fill:#ffffff;fill-opacity:0;fill-rule:evenodd;stroke:#444444;stroke-width:1px;stroke-linecap:butt;stroke-linejoin:miter;stroke-opacity:1" />
  <path
     d="m 233.60324,-19.17004 a 1.6194332,1.6194332 0 1 1 -3.23886,0 1.6194332,1.6194332 0 1 1 3.23886,0 z"
     transform="matrix(1.191022,0,0,1.191022,-158.36156,175.54982)"
     id="path4058-45-9-62-2-7-5-8-0-0-8-9-2-6-7-7-4-8-6-6-9"
     style="fill:#ffffff;fill-opacity:0;fill-rule:evenodd;stroke:#444444;stroke-width:1px;stroke-linecap:butt;stroke-linejoin:miter;stroke-opacity:1" />
  <path
     d="m 233.60324,-19.17004 a 1.6194332,1.6194332 0 1 1 -3.23886,0 1.6194332,1.6194332 0 1 1 3.23886,0 z"
     transform="matrix(1.191022,0,0,1.191022,-185.99479,194.46072)"
     id="path4058-45-9-62-2-7-5-8-0-0-8-9-2-6-7-7-4-8-6-6-83"
     style="fill:#ffffff;fill-opacity:0;fill-rule:evenodd;stroke:#444444;stroke-width:1px;stroke-linecap:butt;stroke-linejoin:miter;stroke-opacity:1" />
  <path
     d="m 233.60324,-19.17004 a 1.6194332,1.6194332 0 1 1 -3.23886,0 1.6194332,1.6194332 0 1 1 3.23886,0 z"
     transform="matrix(1.191022,0,0,1.191022,-182.66146,200.2183)"
     id="path4058-45-9-62-2-7-5-8-0-0-8-9-2-6-7-7-4-8-6-6-5"
     style="fill:#ffffff;fill-opacity:0;fill-rule:evenodd;stroke:#444444;stroke-width:1px;stroke-linecap:butt;stroke-linejoin:miter;stroke-opacity:1" />
  <path
     d="m 233.60324,-19.17004 a 1.6194332,1.6194332 0 1 1 -3.23886,0 1.6194332,1.6194332 0 1 1 3.23886,0 z"
     transform="matrix(1.191022,0,0,1.191022,-176.90388,201.43043)"
     id="path4058-45-9-62-2-7-5-8-0-0-8-9-2-6-7-7-4-8-6-6-51"
     style="fill:#ffffff;fill-opacity:0;fill-rule:evenodd;stroke:#444444;stroke-width:1px;stroke-linecap:butt;stroke-linejoin:miter;stroke-opacity:1" />
  <path
     d="m 233.60324,-19.17004 a 1.6194332,1.6194332 0 1 1 -3.23886,0 1.6194332,1.6194332 0 1 1 3.23886,0 z"
     transform="matrix(1.191022,0,0,1.191022,-162.05539,200.82436)"
     id="path4058-45-9-62-2-7-5-8-0-0-8-9-2-6-7-7-4-8-6-6-51-5"
     style="fill:#ffffff;fill-opacity:0;fill-rule:evenodd;stroke:#444444;stroke-width:1px;stroke-linecap:butt;stroke-linejoin:miter;stroke-opacity:1" />
  <path
     d="m 233.60324,-19.17004 a 1.6194332,1.6194332 0 1 1 -3.23886,0 1.6194332,1.6194332 0 1 1 3.23886,0 z"
     transform="matrix(1.191022,0,0,1.191022,-151.44933,200.52133)"
     id="path4058-45-9-62-2-7-5-8-0-0-8-9-2-6-7-7-4-8-6-6-51-5-5"
     style="fill:#ffffff;fill-opacity:0;fill-rule:evenodd;stroke:#444444;stroke-width:1px;stroke-linecap:butt;stroke-linejoin:miter;stroke-opacity:1" />
  <path
     d="m 233.60324,-19.17004 a 1.6194332,1.6194332 0 1 1 -3.23886,0 1.6194332,1.6194332 0 1 1 3.23886,0 z"
     transform="matrix(1.191022,0,0,1.191022,-146.60085,204.76376)"
     id="path4058-45-9-62-2-7-5-8-0-0-8-9-2-6-7-7-4-8-6-6-51-5-8"
     style="fill:#ffffff;fill-opacity:0;fill-rule:evenodd;stroke:#444444;stroke-width:1px;stroke-linecap:butt;stroke-linejoin:miter;stroke-opacity:1" />
  <path
     d="m 233.60324,-19.17004 a 1.6194332,1.6194332 0 1 1 -3.23886,0 1.6194332,1.6194332 0 1 1 3.23886,0 z"
     transform="matrix(1.191022,0,0,1.191022,-139.63115,208.70315)"
     id="path4058-45-9-62-2-7-5-8-0-0-8-9-2-6-7-7-4-8-6-6-51-5-8-4"
     style="fill:#ffffff;fill-opacity:0;fill-rule:evenodd;stroke:#444444;stroke-width:1px;stroke-linecap:butt;stroke-linejoin:miter;stroke-opacity:1" />
  <path
     d="m 233.60324,-19.17004 a 1.6194332,1.6194332 0 1 1 -3.23886,0 1.6194332,1.6194332 0 1 1 3.23886,0 z"
     transform="matrix(1.191022,0,0,1.191022,-148.11601,212.64254)"
     id="path4058-45-9-62-2-7-5-8-0-0-8-9-2-6-7-7-4-8-6-6-51-5-8-0"
     style="fill:#ffffff;fill-opacity:0;fill-rule:evenodd;stroke:#444444;stroke-width:1px;stroke-linecap:butt;stroke-linejoin:miter;stroke-opacity:1" />
  <path
     d="m 233.60324,-19.17004 a 1.6194332,1.6194332 0 1 1 -3.23886,0 1.6194332,1.6194332 0 1 1 3.23886,0 z"
     transform="matrix(1.191022,0,0,1.191022,-160.23722,219.61224)"
     id="path4058-45-9-62-2-7-5-8-0-0-8-9-2-6-7-7-4-8-6-6-51-5-8-5"
     style="fill:#ffffff;fill-opacity:0;fill-rule:evenodd;stroke:#444444;stroke-width:1px;stroke-linecap:butt;stroke-linejoin:miter;stroke-opacity:1" />
  <path
     d="m 233.60324,-19.17004 a 1.6194332,1.6194332 0 1 1 -3.23886,0 1.6194332,1.6194332 0 1 1 3.23886,0 z"
     transform="matrix(1.191022,0,0,1.191022,-172.93415,224.52096)"
     id="path4058-45-9-62-2-7-5-8-0-0-8-9-2-6-7-7-4-8-6-6-51-5-8-47"
     style="fill:#ffffff;fill-opacity:0;fill-rule:evenodd;stroke:#444444;stroke-width:1px;stroke-linecap:butt;stroke-linejoin:miter;stroke-opacity:1" />
  <path
     d="m 233.60324,-19.17004 a 1.6194332,1.6194332 0 1 1 -3.23886,0 1.6194332,1.6194332 0 1 1 3.23886,0 z"
     transform="matrix(1.191022,0,0,1.191022,-181.14631,217.79406)"
     id="path4058-45-9-62-2-7-5-8-0-0-8-9-2-6-7-7-4-8-6-6-51-5-8-2"
     style="fill:#ffffff;fill-opacity:0;fill-rule:evenodd;stroke:#444444;stroke-width:1px;stroke-linecap:butt;stroke-linejoin:miter;stroke-opacity:1" />
  <path
     d="m 233.60324,-19.17004 a 1.6194332,1.6194332 0 1 1 -3.23886,0 1.6194332,1.6194332 0 1 1 3.23886,0 z"
     transform="matrix(1.191022,0,0,1.191022,-199.02509,222.64254)"
     id="path4058-45-9-62-2-7-5-8-0-0-8-9-2-6-7-7-4-8-6-6-51-5-8-1"
     style="fill:#ffffff;fill-opacity:0;fill-rule:evenodd;stroke:#444444;stroke-width:1px;stroke-linecap:butt;stroke-linejoin:miter;stroke-opacity:1" />
  <path
     d="m 233.60324,-19.17004 a 1.6194332,1.6194332 0 1 1 -3.23886,0 1.6194332,1.6194332 0 1 1 3.23886,0 z"
     transform="matrix(1.191022,0,0,1.191022,-202.66146,219.61225)"
     id="path4058-45-9-62-2-7-5-8-0-0-8-9-2-6-7-7-4-8-6-6-51-5-8-49"
     style="fill:#ffffff;fill-opacity:0;fill-rule:evenodd;stroke:#444444;stroke-width:1px;stroke-linecap:butt;stroke-linejoin:miter;stroke-opacity:1" />
  <path
     d="m 233.60324,-19.17004 a 1.6194332,1.6194332 0 1 1 -3.23886,0 1.6194332,1.6194332 0 1 1 3.23886,0 z"
     transform="matrix(1.191022,0,0,1.191022,-211.44934,218.70315)"
     id="path4058-45-9-62-2-7-5-8-0-0-8-9-2-6-7-7-4-8-6-6-51-5-8-9"
     style="fill:#ffffff;fill-opacity:0;fill-rule:evenodd;stroke:#444444;stroke-width:1px;stroke-linecap:butt;stroke-linejoin:miter;stroke-opacity:1" />
</svg>
