<svg xmlns="http://www.w3.org/2000/svg" viewBox="0 0 236.1 314.06"><title>Ohlone color map</title><g id="svg2466"><g id="California"><rect id="rect7" x="-148.56" y="-454.17" width="1020.47" height="1169.27" fill="#e0e0e0"/><path id="path9" d="M567.33,687.39l200.65-19,26.74-2.53a3.86,3.86,0,0,1,1.48-2.18c1.73,0,3.59.64,5.29.92s7.45,1.22,9.1.91a5.2,5.2,0,0,0,2.34-4.07c.05-1.19-1.09-2.23-.25-4.82,1-1.1,1.92-2.3,2.81-3.48,1.81-.18,3-.44,3.76-2.16a6.57,6.57,0,0,0-.38-2c-.18-1.29.2-2.58-.7-3.71l.54-.79c0-1.56-1.77-2.61-1.42-4.39a8,8,0,0,0,1.32-2.93,7.57,7.57,0,0,0-3-3.6c0-1.32-1.27-3.45-2-4.45-1.64-.27-3.31-.78-5-1a5.39,5.39,0,0,1-4.06,1.24,8.79,8.79,0,0,1-2.52-2.67l-.52.12a7.65,7.65,0,0,0-.86,1.83c-2.2-1.22-1.09-2.14-1.91-3.73-.15-.3-.53-.57-.71-.87-.74-1.23-.51-1.82-2.18-2.28l.12-.5a30.51,30.51,0,0,1,.65-3.16c.47-1.53,1.8-2.75,2.05-4.9,0-.39-.05-.83,0-1.22.15-1.69.65-3.7.4-5.41a14.76,14.76,0,0,1-.6-2.42c.63-1,1.26-1.31,1.51-2.62-.18-.32-1.26-2.3-1.31-2.49-.54-2.18.44-2.5-1.43-4.7l-.43-.51c-.16-1.06.08-2.2-.09-3.22-.32-1.93-2.1-4-.63-5.88l.72-.92a14.81,14.81,0,0,0,5.05-.37l.66-1c.71-1,.89-2.67,1.47-3.86,1-2,2.49-3.6,3.29-5.7a13.31,13.31,0,0,0,2.09-1.55c-.35-1.66,1.13-2.44,2.34-3.2a4.1,4.1,0,0,0,.41-2.36,12.08,12.08,0,0,0-1-1.49c-.15-1.19,1-3.49,1.54-4.55l-.4-1.34.56-1.36c-.11-.26-.31-.95-.15-1.23a3.26,3.26,0,0,0,.89-1.25,2.66,2.66,0,0,0-1-1.5,5.64,5.64,0,0,0,.47-1.51,12,12,0,0,1,2.26-1.6l.37-1.38c-.08-.32-.89-3.11-.9-3.18,0-.64.34-1.38.33-2a69.93,69.93,0,0,0-1.91-6.75c-.42-1.5.24-3.52-.6-5.17l1.91-.81.38-.7c.08-1.21-.08-2.54-1.29-3.13l-.11-.41.53-.25,0-.68c-.44-.82-2.14-2.59-2.13-3.33,1-2.68,2.06-2,3.16-2.93a40.54,40.54,0,0,0,3.11-3.51,10.24,10.24,0,0,0-.27-2.41c.6-.51,1.5-.29,2.38-1.27.63-2.48.52-5.13,1.18-7.61a15.1,15.1,0,0,1,2.43-3.19c2.43-.28,1.81.36,4.56-.78.25-.57.52-1.14.81-1.69.38-.4,1.9-.36,2.43-.62l1.29-.85c.85-.56,1.87-2.2,2.55-2.42,1.16-.37,2.68-.42,3.75-1,2.56-1.46,1.73-2.74,2.76-3.85.8-.87,2.79-2.21,3.23-2.71.16-.19,1.25-2.72,1.53-3.26a8.63,8.63,0,0,1,2.24-.66c.07-.12.39-.66.42-.76a39.34,39.34,0,0,0-.38-5.33,17.23,17.23,0,0,0-1.24-1.82c-.42-.71-.8-1.48-1.19-2.21a16.33,16.33,0,0,0-4.75-2.16,26.75,26.75,0,0,0-4.39-4.38,8.54,8.54,0,0,0-1.43,0c-.81-.77-.59-2-1.22-2.56a12.62,12.62,0,0,0-1.12-.72A31.52,31.52,0,0,1,831,461.3c-1.32-.36-3.3.82-4.23-.61,0-1,.63-1.76.69-2.61a19.24,19.24,0,0,0-.31-2.46A21.19,21.19,0,0,0,827,453a25.47,25.47,0,0,0-1.67-4.5c-1.1-2.47-2.89-2.75-3.32-4.19a3.11,3.11,0,0,0,.77-1.4,5.66,5.66,0,0,0-1.57-2.09c-.28-1.41-.52-3.48-1.75-4.41l.24-.37.77-.39-.51-.47a7.81,7.81,0,0,0-1.05-2.47c.31-.53-.25-2.89-1.24-2.93l-.32.24-.45-.2-.16-.85c-.27-.24-1.14-.79-1.26-1.11-1.21,0-2.83-2-3.63-2.85-.15-.15-1.1-1-1.16-1.09a22.87,22.87,0,0,1-1.79-3.35,13.87,13.87,0,0,1-.44-1.77,15.63,15.63,0,0,0-1.22-3.06c-.2-.34-2.34-2.6-2.57-2.8-.92-.79-1.33-.4-1.76-1.69-.54-1.63.24-2.12.45-3.54a9,9,0,0,0-.41-2c-.08-.75.28-1.66.18-2.44-.08-.62-.42-1.26-.52-1.88,0-.12.1-.67.1-.84,0-.74-.14-1.48-.14-2.25a22.68,22.68,0,0,1,.28-2.7L768,362.07l-18.31-17.58-138.5-136L472.59,78.33l-177-154.47.91-118.21.06-7.22c0-.12.18-.51.2-.66a23.45,23.45,0,0,0-.11-3.45c0-.12.19-.45.2-.58,0-.31-.16-.67-.16-1,0-6.49,0-13-.07-19.45,0-.07.23-1,.26-1.11a2.3,2.3,0,0,0,0-.26,48.81,48.81,0,0,1-.27-7.65c0-.92.26-1.87.25-2.79,0-.47-.26-1-.29-1.48-.07-.94,0-1.93,0-2.87l-.12-12.63c0-.7.08-1.44.11-2.14,0-.12.24-.52.23-.6a114.86,114.86,0,0,1-.29-13c0-.13.19-.48.2-.63.07-.64-.23-1.42-.23-2.07s.16-1.09.16-1.63c0-1.08-.11-2.19-.16-3.26,0-.14.2-.58.2-.71,0-.47-.28-1-.32-1.42,0-.28.13-.64.13-.93v-5.37c0-1,.19-2,.18-3,0-.27-.2-.59-.21-.86,0-1.93-.11-3.9-.07-5.83,0-1.69.29-3.4.31-5.09,0-2-.44-4.15-.1-6.16l-.22-.4-.08-21.65c0-1,.19-1.93.19-2.88,0-.44-.17-.92-.17-1.37l0-10.59v-2.41c0-.14-.15-.45-.14-.57.09-1,.28-2,.28-3,0-.36-.28-.82-.28-1.18.08-10.62-.08-21.23-.06-31.85,0-.45.31-1,.34-1.45.25-3.86-.57-7.69-.4-11.53,0-.55.2-1.11.22-1.66.07-2.22-.25-4.52-.26-6.75s.11-4.58.11-6.87c0-1.14-.12-2.29-.12-3.43,0-.28.15-.6.14-.87-.15-4.65-.62-9.4-.53-14a3.67,3.67,0,0,0-.52-.14c-2.59-.06-5.14.05-7.72-.06-.1,0-.4-.23-.48-.23-1.15.08-2.32.2-3.47.22-.7,0-1.41-.12-2.1-.11-.35,0-.72.15-1.07.15q-14.32,0-28.67,0c-.76,0-1.57-.23-2.33-.2-6.63.21-13.24.14-19.87.11-.38,0-.79.16-1.18.17h-9.74c-.55,0-1.16,0-1.71,0-.08,0-.32.18-.39.18l-3.65-.18c-.09,0-.35.18-.45.18-1.77,0-3.57.09-5.34.07-.5,0-1-.16-1.5-.18-.92,0-1.88,0-2.81,0-3.83,0-7.67.12-11.5.11s-7.94-.27-11.88-.4a8.8,8.8,0,0,1-2.19.3c-.14,0-.67-.32-.78-.32-13.78,0-27.56-.35-41.34-.52-1.16,0-2.32.12-3.5.09-3.85-.08-7.74-.25-11.6-.25-1.44,0-2.91.13-4.34.08s-3.19-.29-4.75-.43c-.16,0-.32,0-.47,0-7.63-.13-15.27-.16-22.9-.39-2.85-.09-5.67-.32-8.53-.26-13.16.25-26.33.62-39.5.68-6.63,0-13.27-.13-19.89-.2-.09,0-.47-.27-.58-.28a7.83,7.83,0,0,0-2,.27c-3,0-6-.06-9,.07a1.77,1.77,0,0,1-.32,0c-2.35-.17-4.86-.52-7.21-.52-4.53,0-9.46.89-14,1-1.7,0-3.43-.15-5.14-.16-3.29,0-6.59.21-9.88.21-2.25,0-4.52,0-6.76-.08-.62,0-1.26-.18-1.88-.18-1,0-1.92.15-2.87.17-2.4.06-4.82,0-7.22,0a3.57,3.57,0,0,1-1.59.53c-8.47.2-16.95,0-25.43,0,0,0-.61-.34-.68-.38-2.47.86-25.12.46-27.53.45l-30,193.88,344,912Z" fill="#fefee9"/><path id="path11" d="M-117.6-454.11l.84,2A7.28,7.28,0,0,0-117-451c0,.11.17.49.18.63.06.52-.4,1-.07,1.67.47.89,1,.93,1.17,2.42l-.45,1.37.36,1.05-.19.75.25.42.76,0c.12,1.08,1.12,1.35,1.69,2.06a13.67,13.67,0,0,1,1,1.76,1.89,1.89,0,0,1,1.55,1.77l1.38,1.08,1.26-.29a22.69,22.69,0,0,0,1.74,2c.29.28.85.4,1.17.66.11.1.32.55.44.67.62.59,1.35,1.14,2,1.69,2.42,0,25,.41,27.52-.45.07,0,.65.38.68.38,8.48,0,17,.25,25.43,0a3.57,3.57,0,0,0,1.59-.53c2.4,0,4.82.07,7.22,0,1,0,1.92-.17,2.87-.17.62,0,1.26.16,1.88.18,2.24.07,4.51.08,6.76.08,3.29,0,6.59-.22,9.88-.21,1.71,0,3.44.2,5.14.16,4.58-.09,9.51-1,14-1,2.35,0,4.86.35,7.21.52a1.77,1.77,0,0,0,.32,0c3-.13,6-.1,9-.07a7.83,7.83,0,0,1,2-.27c.11,0,.49.28.58.28,6.62.07,13.26.24,19.89.2,13.17-.06,26.34-.43,39.5-.68,2.86-.06,5.68.17,8.53.26,7.63.23,15.27.26,22.9.39.15,0,.31,0,.47,0,1.56.14,3.18.37,4.75.43s2.9-.08,4.34-.08c3.86,0,7.75.17,11.6.25,1.18,0,2.34-.11,3.5-.09,13.78.17,27.56.48,41.34.52.11,0,.64.3.78.32a8.8,8.8,0,0,0,2.19-.3c3.94.13,7.93.39,11.88.4s7.67-.08,11.5-.11c.93,0,1.89-.06,2.81,0,.5,0,1,.17,1.5.18,1.77,0,3.57-.05,5.34-.07.1,0,.36-.19.45-.18l3.65.18c.07,0,.31-.18.39-.18.55-.05,1.16,0,1.71,0h9.74c.39,0,.8-.17,1.18-.17,6.63,0,13.24.1,19.87-.11.76,0,1.57.2,2.33.19q14.34,0,28.67,0c.35,0,.72-.14,1.07-.15.69,0,1.4.12,2.1.11,1.15,0,2.32-.14,3.47-.22.08,0,.38.23.48.23,2.58.11,5.13,0,7.72.06a3.67,3.67,0,0,1,.52.14c-.09,4.65.38,9.4.53,14,0,.27-.14.59-.14.87,0,1.14.12,2.29.12,3.43,0,2.29-.12,4.58-.11,6.87s.33,4.53.26,6.75c0,.55-.2,1.11-.22,1.66-.17,3.84.65,7.67.4,11.53,0,.46-.34,1-.34,1.45,0,10.62.14,21.23.06,31.85,0,.36.28.82.28,1.18,0,1-.19,2-.28,3,0,.12.14.43.14.57v2.41l0,10.59c0,.45.17.93.17,1.37,0,.95-.19,1.91-.19,2.88l.08,21.65.22.4c-.34,2,.12,4.14.1,6.16,0,1.69-.27,3.4-.31,5.09,0,1.93,0,3.9.07,5.83,0,.27.21.59.21.86,0,1-.18,2-.18,3v5.37c0,.29-.15.65-.13.93,0,.46.29.95.32,1.42,0,.13-.21.57-.2.71.05,1.07.16,2.18.16,3.26,0,.54-.16,1.09-.16,1.63s.3,1.43.23,2.07c0,.15-.2.5-.2.63a114.86,114.86,0,0,0,.29,13c0,.08-.22.48-.23.6,0,.7-.11,1.44-.11,2.14l.12,12.63c0,.94-.05,1.93,0,2.87,0,.48.28,1,.29,1.48,0,.92-.23,1.87-.25,2.79a48.81,48.81,0,0,0,.27,7.65,2.3,2.3,0,0,1,0,.26c0,.13-.27,1-.26,1.11.08,6.49.1,13,.07,19.45,0,.32.16.68.16,1,0,.13-.21.46-.2.58a23.45,23.45,0,0,1,.11,3.45c0,.15-.2.54-.2.66l-.06,7.22-.91,118.21,177,154.47L611.17,208.54l138.5,136L768,362.07l34.87,33.46a22.68,22.68,0,0,0-.28,2.7c0,.77.12,1.51.14,2.25,0,.17-.11.72-.1.84.1.63.44,1.26.52,1.88.1.78-.26,1.69-.18,2.44a9,9,0,0,1,.41,2c-.21,1.42-1,1.91-.45,3.54.43,1.29.84.9,1.76,1.69.23.2,2.37,2.46,2.57,2.8a15.63,15.63,0,0,1,1.22,3.06,13.87,13.87,0,0,0,.44,1.77,22.87,22.87,0,0,0,1.79,3.35c.06.09,1,.94,1.16,1.09.8.81,2.42,2.81,3.63,2.85.12.32,1,.87,1.26,1.11l.16.85.45.2.32-.24c1,0,1.55,2.4,1.24,2.93a7.81,7.81,0,0,1,1.05,2.47l.51.47-.77.39-.24.37c1.23.93,1.47,3,1.75,4.41a5.66,5.66,0,0,1,1.57,2.09,3.11,3.11,0,0,1-.77,1.4c.43,1.44,2.22,1.72,3.32,4.19A25.47,25.47,0,0,1,827,453a21.19,21.19,0,0,1,.17,2.65,19.24,19.24,0,0,1,.31,2.46c-.06.85-.73,1.65-.69,2.61.93,1.43,2.91.25,4.23.61a31.52,31.52,0,0,0,2.64,2.13,12.62,12.62,0,0,1,1.12.72c.63.58.41,1.79,1.22,2.56a8.54,8.54,0,0,1,1.43,0,26.75,26.75,0,0,1,4.39,4.38,16.33,16.33,0,0,1,4.75,2.16c.39.73.77,1.5,1.19,2.21a17.23,17.23,0,0,1,1.24,1.82,39.34,39.34,0,0,1,.38,5.33c0,.1-.35.64-.42.76a8.63,8.63,0,0,0-2.24.66c-.28.54-1.37,3.07-1.53,3.26-.44.5-2.43,1.84-3.23,2.71-1,1.11-.2,2.39-2.76,3.85-1.07.62-2.59.67-3.75,1-.68.22-1.7,1.86-2.55,2.42l-1.29.85c-.53.26-2.05.22-2.43.62-.29.55-.56,1.12-.81,1.69-2.75,1.14-2.13.5-4.56.78a15.1,15.1,0,0,0-2.43,3.19c-.66,2.48-.55,5.13-1.18,7.61-.88,1-1.78.76-2.38,1.27a10.24,10.24,0,0,1,.27,2.41,40.54,40.54,0,0,1-3.11,3.51c-1.1.94-2.13.25-3.16,2.93,0,.74,1.69,2.51,2.13,3.33l0,.68-.53.25.11.41c1.21.59,1.37,1.92,1.29,3.13l-.38.7-1.91.81c.84,1.65.18,3.67.6,5.17a69.93,69.93,0,0,1,1.91,6.75c0,.64-.34,1.38-.33,2,0,.07.82,2.86.9,3.18l-.37,1.38a12,12,0,0,0-2.26,1.6,5.64,5.64,0,0,1-.47,1.51,2.66,2.66,0,0,1,1,1.5,3.26,3.26,0,0,1-.89,1.25c-.16.28,0,1,.15,1.23l-.56,1.36.4,1.34c-.52,1.06-1.69,3.36-1.54,4.55a12.08,12.08,0,0,1,1,1.49,4.1,4.1,0,0,1-.41,2.36c-1.21.76-2.69,1.54-2.34,3.2a13.31,13.31,0,0,1-2.09,1.55c-.8,2.1-2.32,3.71-3.29,5.7-.58,1.19-.76,2.82-1.47,3.86l-.66,1a14.81,14.81,0,0,1-5.05.37l-.72.92c-1.47,1.89.31,3.95.63,5.88.17,1-.07,2.16.09,3.22l.43.51c1.87,2.2.89,2.52,1.43,4.7.05.19,1.13,2.17,1.31,2.49-.25,1.31-.88,1.64-1.51,2.62a14.76,14.76,0,0,0,.6,2.42c.25,1.71-.25,3.72-.4,5.41,0,.39.07.83,0,1.22-.25,2.15-1.58,3.37-2.05,4.9a30.51,30.51,0,0,0-.65,3.16l-.12.5c1.67.46,1.44,1,2.18,2.28.18.3.56.57.71.87.82,1.59-.29,2.51,1.91,3.73a7.65,7.65,0,0,1,.86-1.83l.52-.12a8.79,8.79,0,0,0,2.52,2.67,5.39,5.39,0,0,0,4.06-1.24c1.64.18,3.31.69,5,1,.76,1,2,3.13,2,4.45a7.57,7.57,0,0,1,3,3.6,8,8,0,0,1-1.32,2.93c-.35,1.78,1.45,2.83,1.42,4.39l-.54.79c.9,1.13.52,2.42.7,3.71a6.57,6.57,0,0,1,.38,2c-.78,1.72-2,2-3.76,2.16-.89,1.18-1.81,2.38-2.81,3.48-.84,2.59.3,3.63.25,4.82a5.2,5.2,0,0,1-2.34,4.07c-1.65.31-7.37-.62-9.1-.91s-3.56-1-5.29-.92a3.89,3.89,0,0,0-1.47,2.18c-.36.92-.78,1.84-1.1,2.77a19.59,19.59,0,0,1-1,3.25c-.32.45-.94.78-1.28,1.22s-.51,1.3-1,1.79a7.91,7.91,0,0,0-2,2.15,3.08,3.08,0,0,1-1.35,0l-.44.45c-.67,1.51.66,2.73.43,4,0,.1-.24,1.1-.27,1.16-.18.37-.94.94-.89,1.38l.17.33.36.15a3.54,3.54,0,0,0,1.11-.93,2.29,2.29,0,0,1,0,1.76c-1.33.87-.48,1.65-1.56,3.38l.61,1.53-.13.29-.64.2-.26.46,0,.67c.85.78,4.93,1.77,6.23,2.29L824.05,707c.39.16.85.19,1.23.35.1,0,.2.25.3.29.95.35,2.29.71,3.14,1.06.15.06.3.25.45.31,3,1.17,6.11,2.32,9.13,3.52l6.31,2.52,27.3,0V-454.17Z" fill="#f6e1b9"/><path id="path13" d="M575,715a7.82,7.82,0,0,1-.37-1.41c-.28-1.57-1.12-2.68-1.69-4.15-.39-1-.44-2.25-.9-3.28-.05-.09-.37-.34-.44-.45a15.11,15.11,0,0,1-1.18-2.11c0-.09,0-.89,0-1.06-.14-.88-.44-1.71-.57-2.62a2.57,2.57,0,0,0-.08-.62,15.08,15.08,0,0,0-.9-1.4,13.19,13.19,0,0,1-1.42-4c0-.46.12-1,.12-1.49s-.17-1.11-.16-1.65c0-1.12.36-2.27-.12-3.36.08-1.19-.81-2.4-.84-3.54s.24-2.07.27-3.08c.09-2.84-2.5-7.89-4.57-9.75l-.16-.84c-.63-.69-2.33-.73-1.56-1.63s2.07.64,2.06,1.19,2.46,3.32,3,4.1,1.42,2.19,2.06,3.22,1.68.13,1.59-.53-.94-2.44-1.45-4.09-3.5-5.18-5.9-7.34-3.14.09-3.88,1.14-1.24,5.38-1.24,5.38a.94.94,0,0,1-.14.69l-.45.09c-.38-.41-.31-1.71-.73-2.44l.09-.65c-.93-1.24-.24-2.86-.81-4.16a1.4,1.4,0,0,0,.09-1.08l.28-.6-.13-.54a2,2,0,0,0,.25-1,1.86,1.86,0,0,0,.51-1.07h-.21c-.78-.23.39-4.83-2.24-6.35l-.18-.59-.42-.35a16.87,16.87,0,0,0-.21-2.19l.25-.68.79-.63.61.24c1.3-.68,1.36-4.37,1.12-5.63-.12-.6-.51-1.19-.63-1.79s-.08-1.59-.22-2.35-.41-1.37-.55-2c-.53-2.59-.67-5.36-1.48-7.88,0-.12-.33-.45-.39-.59a23,23,0,0,1-1.07-2.45c-.19-.58-.15-1.29-.35-1.87a20.07,20.07,0,0,0-1-2.05c-.14-.3-.46-2.3-.69-2.92-.34-1-.74-2-1.17-2.92-.17-.36-.5-.7-.71-1.05a12.09,12.09,0,0,1-.69-1.66,45.89,45.89,0,0,0-4.3-6.46c-.81-.72-2.13-3.36-2.52-3.45-2.67-4.58-5.64-9.39-9.39-13.17a33.73,33.73,0,0,0-3-2.65c-.33-.26-.89-.35-1.24-.59a16.58,16.58,0,0,1-1.43-1.23,2.18,2.18,0,0,0-1.16-.13l-.39-.24-.08-.19a29.68,29.68,0,0,0-5.95-7.66c-.54-.47-1.51-.62-2.23-1.39-.72.1-1.46-.33-2.17-.17l-.33.31h-.75a13.06,13.06,0,0,0-1.06-2.69c-.68,0-1.26-1.24-1.41-1.75l-.49.06-.81-1,.1-.44-.76-.66c0-.73-1.6-2.05-2-2.91a4,4,0,0,1-2.49-1.27l-.57,0c-.51-1.16-1-1-1.59-1.52s-.83-1.05-1.31-1.42-1.13-.49-1.59-.83-.69-1-1.28-1.2l-1.32-.39c-.62-.17-3.31-.75-3.65-1.17-.36-2-4-3.18-5.33-4.38-.5-.45-.94-1-1.42-1.5-1.66-1.65-3.23-3.28-4.77-5.05a25.75,25.75,0,0,0-2.71-3c-.32-.27-.74-.48-1-.76-.13-.13-.4-.62-.52-.71-.71-.55-1.63-.94-2.39-1.47l-.36,0c-.57-.22-1-.87-1.36-1l-2.07-.64c-.73-.22-2-.65-2.76,0-.15.13-.47.69-.6.79a14.89,14.89,0,0,1-1.55.9,3.48,3.48,0,0,0-.24.28v.33l-1.41.58-.82-.19-.71-.82a3.06,3.06,0,0,1-1.26.69l-.15.39-.63.19c0,.39.51,1.73.47,1.86a2.42,2.42,0,0,1-1,.26l-.09-1-.35.11,0,.3.27.54-.52.06-.05.24.32.59a1.69,1.69,0,0,0-.48.61l-.44,0a3.67,3.67,0,0,0-2.34-1c-1.14-1.1-3.63-1.57-4.29-3-1,.15-1.66-.66-2.71-.58a2,2,0,0,1-1.28.27l-.48-.32a4.56,4.56,0,0,0-.73-2.07l.2-.55-.14-.29-.26,0c0-.18-.44-.47-.58-.56l.64-.39c-.12-.38.29-1.1.52-1.36l.57-.28a2.36,2.36,0,0,1,.32-1l.67-.17a4.63,4.63,0,0,0,.76-2.31l-.4-.59.35-.52c.13-.49-2.62-8-2.68-8.16-1.1-2.54-2.4-5-3.59-7.54-.43-.89-2.08-2.8-2.08-3.39-.95-.54-.71-1.06-1.28-1.57s-1.41-1.39-2.16-2-2.53-1.4-2.93-2.22l-1,.18a3.65,3.65,0,0,0-1.23-.41,6,6,0,0,1-1.11.62c-.14,0-1.2-.33-1.28-.33-.69,0-1.45.22-2.15.23-.24,0-.54-.17-.78-.17a5.55,5.55,0,0,0-.62.15c-1.45.11-3-.38-4.42,0a5.94,5.94,0,0,1-.91.83c-.94-.34-1.35,0-2.18.1-.28.05-.57-.21-.81-.23s-.45.11-.65.1c-1.5-.11-2.16-.56-3.41.72-1.15,0-3.16.32-3.37,1.75a2.55,2.55,0,0,0-1.33.76c-.7-1.33-3.12-3-4.44-3.75h-.91c-.71-.92-4.21-.09-5.41-1.31-1.54-.14-.6.81-2.68-.25a2.7,2.7,0,0,1-.95-.7,2.37,2.37,0,0,1-1.6-.77c-.63.12-1-.4-1.47-.62a7.33,7.33,0,0,0-1.51-.2l-.75-.55-1.48-1.08c-.08,0-3.2-.45-3.5-.49-1.15-.17-3.26-1.19-4.7-1.42l-.09-.22c-1,.2-3.27-2-4.06-2.63-.17-.13-.43-.2-.59-.34a23.84,23.84,0,0,0-2.34-2.05c-.1-.07-1-.27-1.23-.35-2-.89-3.72-5.76-4.38-7.58-.24-.64-.81-2.35-.38-3-1.61-1.51-.47-4.62-4.59-4.85l-.24-.07a10.14,10.14,0,0,0-1.77-1.25l-.57-.26c-1.24-1.12-2.17-2.55-3.58-3.51a4.37,4.37,0,0,0-1.8,0c-1.21-1.38-2.56-3.34-4-4.42l-.47.07c-.54-.06-1.76-2-2.7-2.28L345,470l-.59-.43-1.17-.85c-.57-.26-1.53-.05-2.1-.4s-1.33-.76-1.94-1.19c-.81-.58-1.47-1.31-2.35-1.83-1.57.52-2.89-.79-4.45-.76a15.26,15.26,0,0,0-2.44.56c-.08,0-.44-.09-.55-.09-1.33,0-3.08-.26-4.27.51l-.64,1-.39.07-.56.67c-2.17.6-2.73-.26-4.52-1-.26-.11-.62-.08-.89-.19a23,23,0,0,0-3.25-1.36c-1.18.56-2.45,0-3.7.31a1.67,1.67,0,0,0-.69,1.11l-.26.17c-.65-.53-2.4-.45-3.14-.28-.36-.1-1-1-1.19-1.34-1.69-.16-2.17-1.5-3.53-1.89-.9-.26-2.4.16-3.15-.3s-1.4-1-2.08-1.45a2,2,0,0,1-1-.13l-.65-.82a2.08,2.08,0,0,0-1.68-.7c-.13.16-.53.54-.76.54-1.78-1.38-3.3.14-4-1a2.19,2.19,0,0,1-.55.7,5.93,5.93,0,0,1-3-.44c-.42-.18-.82-.62-1.25-.77a12.18,12.18,0,0,0-2-.42c-1.23-.17-1.65.48-2.54.45-1.45-.06-3-.21-4.45-.17-1.19,0-2.42.54-3.63.52-.5,0-1-.19-1.5-.19-.19,0-.77.13-.91.11-.64-.08-1.24-.54-1.92-.36-.66.61-4.09,1.47-5.12,1.47a11.49,11.49,0,0,0-1.31-.06c-.83.08-1.66.36-2.49.44-1.24.13-1.79-.3-3.19.64a3.18,3.18,0,0,0-2.36.26l-.42.66a1.34,1.34,0,0,1-.76-.75l-.63-.06c0-.06-.3-.44-.31-.48a11.48,11.48,0,0,0-.85-3.19,16.23,16.23,0,0,1-1.59-2c-.16-.35-.18-.83-.31-1.2a7.29,7.29,0,0,0-2.07-2.88,15,15,0,0,0-1.93-1.14c-.13-.06-.74-.09-.92-.15a11.86,11.86,0,0,1-2.81-1.76l-2.17,0-.51.43c-.57.24-1.44-.44-1.76-.85l-.79-.13-.16-.21a2.24,2.24,0,0,0-.2-1.05l-.83-.4.35-.47c-.13-.79.32-1,.39-1.32s0-1,.05-1.47c0-.11.33-.54.39-.69l1.34-3.63.33-.26c-.09-.76.45-1.52.65-2.22a16,16,0,0,1,1.12-4,2.2,2.2,0,0,1,0-1.39c-.4-1-1.21-2-1.32-3.06a2.51,2.51,0,0,1-1.49-2.35l-.54-.63c.85-2.49,3.48-10.32,2.17-12.56-.43-.73-1.57-1.41-2.18-2.05a7,7,0,0,0-.74-2.06l-1-.4a2.21,2.21,0,0,1-1.39.06l-.17-.24c.24-.53.87-2.36.53-2.95.28-.41,2.35-7.95,2.51-8.8.41-2.13,1.13-5.81,1-7.93a37.3,37.3,0,0,0-.81-3.68c-.21-1.07-.36-2.16-.55-3.23a4,4,0,0,0-1.61-2.73,4.28,4.28,0,0,1-2.22-.88c-.11-.14-.6-.87-.67-.93-.68-.52-2.1-1.16-3-.77a2.21,2.21,0,0,0-1.31-.43l-.18.11-.82-.1-.64.38a4.44,4.44,0,0,0,.05,1.74l-.26.09a6.37,6.37,0,0,1-1.5-.73,9.72,9.72,0,0,1-1.09-1.28,8.13,8.13,0,0,1-2.73-1.56,4.64,4.64,0,0,1-1.35-.84l-.58,0c-.53-.47-1.5-1-1.79-1.22-.45-.4-.73-1.09-1.15-1.47-.1-.1-.45-.21-.54-.3s-.25-.53-.42-.72-.5-.33-.69-.54a7.18,7.18,0,0,1-1.32-2.06,1.27,1.27,0,0,0-.13-1l.48-.54c0-.43-.3-1.24-.14-1.51l.42-.07c0-.82,1.18-2.46,1.52-3.35a17.66,17.66,0,0,0,.94-3.84,14,14,0,0,0,.08-2.24c0-.52-.32-1.12-.32-1.64,0-.15.3-.83.32-1a14.11,14.11,0,0,0-.58-3.17c-.33-.77-2.18-4.3-3.12-4.8s-1.37-.2-2.33-.09a12.7,12.7,0,0,1-1.75-.05c-.1,0-.32-.09-.44,0a3,3,0,0,0-1.79-1.41,4.25,4.25,0,0,1-2.12-.29l-.28.34c-1.21.05-2.19-1.91-2.8-2.73-.42-.57-.84-.57-1.17-.89-.67-.65-1-1.71-1.59-2.4-.16-.18-.68-.4-.85-.59s-3.59-4.22-3.77-4.33a8.57,8.57,0,0,0-1-3.1c-.2-.3-.6-.55-.78-.86-.51-.84-.64-2.14-2.08-2.67a12,12,0,0,0-2.37-3.55,8.93,8.93,0,0,0-1.7-.71l-.52.13.07.54-.22.28-.65-.78-.59-.08a3.31,3.31,0,0,0-1.3-1.16,3.73,3.73,0,0,1-3.51-1.33l-.5,0a1.82,1.82,0,0,0-1.92-.29c0-2.35-1.37-4-2.87-5.58.2-.69-.11-1.05-.15-1.65a7.57,7.57,0,0,1,.32-2.7,2,2,0,0,0-.63-1l-.54-.14-.05-.45.22-.31a2.54,2.54,0,0,0-1.83-2.28,1.39,1.39,0,0,1-.23-.91c-.76-.87-1.68-1.5-2.5-2.29-.22-.21-.35-.5-.57-.71s-.75-.53-1.05-.84a22.86,22.86,0,0,1-1.64-2.17c-.23-.34-.34-.78-.56-1.11-.39-.59-1.13-.68-1.64-1.15a4.09,4.09,0,0,0-1.64-1.11c-.39-.84-1.44-1.24-1.67-2.06l.18-.66-.35-.64,0-.54c-1.21-1.82-.09-1.59-.45-2.63-.45-.3-.88-2.27-1.26-2.95a4.19,4.19,0,0,0,.05-.47c-.45-1.82-1.4-5-3-6.2l-2.05-1.09c-.93-.39-2.71-.37-3.23-.76a5.48,5.48,0,0,1-1.22-2,6.49,6.49,0,0,1-1.12-3c-2.46-1-2.66-4.42-3.95-6.42a37.56,37.56,0,0,0-2.4-3.16c-.26-.3-.62-.54-.87-.85s-.54-.94-.87-1.26c-.54-.52-1.34-.85-1.89-1.37-.31-.3-.51-.86-.81-1.2a8.8,8.8,0,0,0-2-1.66c-1.55-1-3.08-2-4.65-3a10.7,10.7,0,0,0-1.59-.79c-.23-.08-1.2-.23-1.35-.31-.81-.41-1.51-1.26-2.37-1.72-.26-1.1-1.21-3.63-2.5-3.8a3.25,3.25,0,0,0-1.45-1.22,2.43,2.43,0,0,0-2.28-1.54l.55-.68a9.49,9.49,0,0,0,.15-2.26l.24-.42c-.08-1.23-1-1.88-1.49-2.9l.4-1.11-.36-.68a3.23,3.23,0,0,1,.45-1c.08-1-.54-1.09-1.26-1.61l.4-.57-.16-.34.07-.3-.35-.5a5.15,5.15,0,0,0-1.7-4.66c.87-1.61-.45-2.53-.67-4.44l-.44-.27.53-.49c.46-1.82-1.17-2.41-1.25-2.81l.25-.45c.28-.09.89.25,1.09.41a1.71,1.71,0,0,1,1.1-.55l.09-1.2c0-.24-.43-.57-.62-.7l-.08-.32.31-.29a1.87,1.87,0,0,0-.5-1.81h-.38l-.07-.3a3.32,3.32,0,0,0-.93-.35l-.18.58-.3-.07-.57-.62-.54-.05-.45-.9-.52-.22-.07-.29L109,209h.73l.24-.47-.13-.4c.35-.52.41-1.39.8-2a1.3,1.3,0,0,0,.75-.12l.22-.74.37-.21c.18-.37.51-1.45.27-1.86l.2-.36a2.68,2.68,0,0,1,1.19.15l.42.79,1.68.89a7.74,7.74,0,0,0,1.43,2.07c1.6.36,2.82-1,3.73-2.15.09-.11.33-.75.43-.92a11.63,11.63,0,0,0,1.26-2c1.86-5,2.21-5.76,2.48-11.08a6.92,6.92,0,0,1,.14-.77l1.22,1.08.06-.31-.89-1.06.07-.71-.2-.23c.59-1.66,0-3.49,1.2-4.84l-.19-.58c.45-.83-.58-1.78-.88-2.37-.45-.88-.57-2-.94-3,0-.05-.17-.12-.2-.17-.54-1-.8-2-1.29-2.92s-1.13-1.83-1.63-2.76c-1.85-3.48-2.29-5.73-5.86-8a5.1,5.1,0,0,0-3.07-1.09l-1.6.79c-.4.19-.44.72-.7,1s-.58.28-.72.66a1.23,1.23,0,0,1-.94,0l-.29-.31-1,0a2.32,2.32,0,0,0-1.57-.59l-.26-.31c-.11.33-.74.63-1,.7l0,.63-.18.25c-.25.24-1.52-.1-2.26.53a2.36,2.36,0,0,0-1-.27l-.42.22-.79-.1-.43-.43-.48,0-.56-.29-.91.16-.33-.28-.47-.06a1.53,1.53,0,0,0-1.08-.59l-.43-.44-.59.14a6,6,0,0,1-1.43-1.49l-1,.16a1.63,1.63,0,0,0-1.23-1.58l0-.19a15.37,15.37,0,0,0-1.39-1c-.2-.17-.31-.48-.5-.65s-2.21-1.9-2.38-2-.82,0-1.06-.46c0-.1-.27-1-.3-1a38.25,38.25,0,0,1-3.91-6c-.23-.45-.65-.58-.86-1.36a19.64,19.64,0,0,1-2.84-2.31l-.46-.06-1.57.83-.21-.7-.55-.24L74.57,144l-.51-.38-.13-.48c-.5,0-1-.58-1.45-.76l.19-1.36-.78-1.21c-.9-.08-1.14-1.62-2.45-1.24l-.37-.28A2,2,0,0,0,68.4,137c.23-.87-.3-1.45-.46-2.22,0-.24,0-1,0-1.22-.17-.66-.63-1.29-.84-1.94-.14-.42,1-5.43,1.09-6.19.11-1,.06-2.08.09-3.07l.23-.18a40.32,40.32,0,0,1,.43-4.14,1.41,1.41,0,0,0-.69-.75c0-.3-.15-1.65-.41-1.79l-.3-.12-.11-.35c-.14-.4-.42-.78-.52-1.08s-.11-.86-.24-1.26c-.05-.14-.27-.35-.33-.5s0-.52-.15-.72-.42-.46-.53-.7c-.18-.39-.21-.89-.37-1.28,0-.11-.45-.62-.45-.68l-.32-3.51c0-.29-.26-.81-.1-1.08l-.31-.28a1.51,1.51,0,0,0,0-.3,12.18,12.18,0,0,0-.63-1.48A2.86,2.86,0,0,0,60,101l-.21.5-.32.07a1.66,1.66,0,0,0-.12-1l-.91-.57a3.09,3.09,0,0,0-.12-1.13l-.41-.41c.11-.54-.35-1.11-.23-1.64l.45-2-.33-.88c.24-.34-.08-3.42-.18-3.92l.38-.48a1.47,1.47,0,0,0,1.09.07l.23-.66-.16-.4.47-.87a6.54,6.54,0,0,1-.13-.7,31.16,31.16,0,0,0,.18-8.25c-.15-1.49-.76-2.84-1-4.28-.09-.48,0-1.1-.05-1.6a26.41,26.41,0,0,0-.49-4.93,1.88,1.88,0,0,1,.65-1,2.79,2.79,0,0,0,1.71-.15c.77-.44.72-2.1,1.25-2.35l.48-.11c1.21,1.16,2-.1,3,.29l.42-.27c.8.6,1.5-.21,2.27-.27.77.19,2.13,2,2.51,2.73-.29.62.07.92.11,1.43.06.77-.35,1.28.29,2.07a2.33,2.33,0,0,0,0,1.52l-.37.24,0,.27.1.19a1.73,1.73,0,0,1,.93,1l.42.22.54-.49A2.79,2.79,0,0,1,73,74l-.27.44.08.43-.48.6-1-.43-.07-.68-.61.26a1.36,1.36,0,0,1-.27.93c.41.66,1.26,1,1.62,1.7v.35l-.33.08c-.37,0-1.29-1.43-1.71-1.78l-.3,0-.11.41a7.19,7.19,0,0,1,.6,4.09l-.65,1,.15.18.3,0,.26-.23.12.29L70.2,82l.07.41.54.32.07.24-.19.5a3.57,3.57,0,0,1-1.22,0l0,.41-.35.48.13.43.28-.37.27,0,.08.35.54,0,.15.18-.44.38,0,.19.63.13.19-.09.48.35.68.07-.18.55.36.2.08.32-.25.47-.57-.07a2.33,2.33,0,0,0-.31,1.15c.11.28.64.52.9.58l.43.84.47.08.18.37c1,.12,2.38.32,3.13-.5l.33.14a3.2,3.2,0,0,0,.73,1.4l.68.77c.8.62,3,.32,3.86,0l1,.36a15,15,0,0,0,2.57,3,8.21,8.21,0,0,0,1,.49,1.47,1.47,0,0,1,2,.81,8.21,8.21,0,0,0-.85,1.67l.08.38.36.17c.29,1,.6.74,1.26,1.15a14.75,14.75,0,0,0,1.22,1,1.92,1.92,0,0,1,1.08-.22,4.71,4.71,0,0,1,1.52,1.46h.3l.17-.36c-.16-.69-1-1-1.21-1.61l.19-.61a1.72,1.72,0,0,1,.9-.29,3.32,3.32,0,0,1,1.15,1c.42.61.31,1.29.59,1.91,1.16,2.56,2,3.67,5,3.8a6.05,6.05,0,0,0,3.07-.23c.32-.5.72-.93,1-1.42l-.31-.49a6.06,6.06,0,0,1-2-.48l-.31-.49c0-.49.16-1,.14-1.49-.05-1.11-1.77-2-2.74-2.18a3.77,3.77,0,0,1-1.75.73,17.12,17.12,0,0,1-1.15-1.54c-.13-1.29-.61-3.77-1.76-4.57l-.15-.72-.42-.25c0-.66-.62-1.42-.72-2.16L92.87,91a2.85,2.85,0,0,1-.1-.32c0-.48.09-1,.08-1.47,0-1.18-.54-2.3-.34-3.48l-.34-.31a2.41,2.41,0,0,0-.24-1.78l.19-.52a5.26,5.26,0,0,1-.62-2.19c-.31-.2-.4-.57-.64-.81s-.89-.6-1-.7a7.34,7.34,0,0,1-1.16-2.65l-.41,0a4.46,4.46,0,0,1-.59-1.22,3,3,0,0,0-1,.41,3.4,3.4,0,0,1-.6,1.39l-.54.11a5.5,5.5,0,0,0-2.41-2.52c.21-.18.7-.69.73-1L83,73l0-.22a2.57,2.57,0,0,1,1.26.09l.18-1c-.06-.53-1.39-1.77-1.8-2s-.9-.16-1.18-.58l-.7.12L80,68.94l-.72.18a3.67,3.67,0,0,1-.9-.47l.35-.56,0-.24-.85,0-.3.36c-.37.22-1.19-.18-1.47-.43l-.16-.8h-.3l-.39-1.17c.62,0,.81.36,1.25.5a9.29,9.29,0,0,0,1.38.25c.93.13,1.58-.15,2.48-.08.35.37,1.1.61,1.31,1l.41,0a15.88,15.88,0,0,1,3.35,2.63l-.06.55-.63.38-.11.42c.43.49,1.14.31,1.63.88l.47-.32.44.38.37-.18A1.8,1.8,0,0,1,86.87,71l-.44-.09-.26-.82-.38,0c0-.65-1.55-1.72-1.93-2.14s-.17-.74-.79-1l-.76.13L82,66.77c-.68-.1-1.22-.81-1.81-.77-1.24.09-3.6.39-4.54-.8H76c0-.21-.37-.45-.42-.59l0-.3h.74a2.78,2.78,0,0,0,.85-.89l.63-.09a.85.85,0,0,0-.22-.48l-1,.41-.69-.2-.7.17L75,63l.22-.39,3.46-.66.19-.39c-.26-.94-1.33-5.72-2-6.09L77,55l.32-.16a3.21,3.21,0,0,0-.44-.89l-.52-.06.22-.44c-.07-.44-.94-1-1.3-1.15a1.44,1.44,0,0,0-.76.42l-.55,0,.19-.51L74,52,73.5,52l-.72.7a6.07,6.07,0,0,0-.57-1.76,2.06,2.06,0,0,0-.82,0l.73.77.26,1.13-.16.17-.49,0L71,52.37a1.82,1.82,0,0,0-1.19.25l-.13-.31.42-.79-.08-.4-1.31-1.33-.93-.06-.06-1-.24-.28-.67-.23-.08-.38.25-.47-.07-.27-.43-.22L66.18,46c.59-.19,1.14.16,1.58,0l.25.94a1.65,1.65,0,0,1,1,.57l.12-.74h.41a1.72,1.72,0,0,1,.79-1l.18-1.15.87.08a4.32,4.32,0,0,0,1.21-1.74c.09-.56-.93-1.27-1-2.06l.3-.56a1.16,1.16,0,0,1,.76.36c1-.15,1.72.95,2.63.64l1.23-1.1a6.84,6.84,0,0,0,1.91.06c.26-.23,1-1,1-1.41l.51-.09a4.71,4.71,0,0,0,.82-1.51l.75-.25a6,6,0,0,1,.5-1.63,4.54,4.54,0,0,1-.16-.79c3.87-2.39,7,3,9.64,3.17a7.58,7.58,0,0,0,1.58,0c1.27-.21,5.28-2.73,7.4-3.32a17.15,17.15,0,0,1,4.58-.28c.81.77,3.72.91,4.85,1.07a50.36,50.36,0,0,1,5.26.56c1.69.45,3.15,1.57,4.91,1.87.77.13,1.55.12,2.33.21,1.45.17,2.92.52,4.38.62.76,0,1.56-.15,2.3-.07,1.27.13,2.18,1.26,3.52,1.46a6.24,6.24,0,0,0,3.24-.7l-.11-.62c-.67-.8-1.85-.14-2.66-.59l-.31-.55.28-.66a4.54,4.54,0,0,0,2.19-.94c.15-.11.39-.19.53-.31,1.43-1.33.08-4.71,2.71-4.64.42,0,1,.22,1.39.28.49-.35.75-.91,1.22-1.25A2.52,2.52,0,0,1,144.79,31c.22.57.15,1.31.61,1.8a4.25,4.25,0,0,0,.47.31c.58.32,1.23.47,1.8.8a12.27,12.27,0,0,0,1.16.77l.37.16c.49.67.72,1.5,1.69,1.6a2.17,2.17,0,0,1,1.16-.45l.67.27c.43.52.11,1.17.61,1.7s1.49.6,2.1,1.11c.95.79,1.82,2.62,3.22,2.53l.28-.56c-.07-1.34-2-2.66-2.91-3.53a26.64,26.64,0,0,0-2-2.11,29.21,29.21,0,0,0-3.49-2.19c-.66-.35-1.34-.26-2-.55-1.32-.61-1.25-3.42-2.61-4a12,12,0,0,0-1.3-.25c-2.61-.69-2.92.14-4.88,1.28-1.68,0-3.93-.74-4.46,1.6a1.85,1.85,0,0,0,.22,1.45,1.76,1.76,0,0,1-.44,1.18,7.09,7.09,0,0,1-2,1.25c-2.11,1.07-3.88,2.44-6,.44a2.08,2.08,0,0,1-.7-1.41c.1-2.23,4.67-2.31,5.9-3a2,2,0,0,0,.81-.83c.08-.2.09-.45.16-.66.34-.95,1.09-1.81,1.36-2.77a13.91,13.91,0,0,0,.61-3.5,7.84,7.84,0,0,0-1.11,1.32c-2.16,2.51-3.29,5-6.23,6.86a6.45,6.45,0,0,1-1.58.83c-.42.12-1,.31-1.36.38-1.61.3-5.28-1.14-6.54-.79l-.34.45.14.65c-.92,1-3.67,1.41-5,1.46l-.31-.52c.16-.38,1.29-1.13,1.69-1.63l.11-.62-.47-.31a19.9,19.9,0,0,0-2.19.31c-1.49.1-5.41-.58-6.4-1.8l-.06-.73c.53-.94,1.79-1.81,2.08-2.81.42-1.44-.68-2.5-2-2.73s-5.13,1.1-5.9,2.28a10.71,10.71,0,0,1-.42,2.84c-.73,1.5-2.62,2.37-3.74,3.57-.68.73-1.32,1.5-2,2.22a7,7,0,0,1-.94.66,6.32,6.32,0,0,1-1.5,0,13.24,13.24,0,0,0-2.74-2.18c-3.23.79-2.27,0-4.88-1l-.67.14-.33.49-.69-.1-.64.09c-.11-.19-.33-.59-.38-.64-.77-.85-1.64-1.69-2.36-2.58-.11-.12-.28-.69-.38-.79a10.82,10.82,0,0,0-2.85-1.85c-.47-.27-.87-.65-1.34-.92-1.43-.85-4.42-1.4-5.57-2.43a2.7,2.7,0,0,1-.24,1.43,14.87,14.87,0,0,1-3.68,3l-.33-.07-.41-.81-.49.57a24.9,24.9,0,0,1-3.66.51c-1.26-.52-1-3-2.61-3.73l-.1.28c1.6,1.07.71,3.38,3.29,4.42l.22.45-.17.41c0,.37.39.57.49.87a10.81,10.81,0,0,1,.07,2.9c-.82.34-.69,1.78-.81,2.43-.07.4-.32.81-.39,1.21-.14.76-.05,1.53-.24,2.29a2.56,2.56,0,0,0,1.14.34,6.9,6.9,0,0,0,3,1.84c.26.29.91,1.24.81,1.68l-.61.69-.86-.52-.59.14L62,44.7l-.59.11L61,45.3l-.77-.07-.42,1.22c.1.25.45,1.32.71,1.39l.86.15.19.36a2.85,2.85,0,0,1-.82,1,6.33,6.33,0,0,0-2.18-.82c1,1,.34,2.67,2.32,2.63l.93.95a2.58,2.58,0,0,0,2.71,2.37,6.53,6.53,0,0,1,.85,1.41l-.58.28a2.31,2.31,0,0,1-.61.74c-.17,0-.67.1-.82,0l-.15.31.32.71-.43.14c-1.85-1,0-2.14-2.56-3.52l-.93,0-.26-.23-.16.58L59.82,56l-.07.19c-.88-.26-1.14-1.07-2.28-1.11l0,.48.94.17A2.6,2.6,0,0,0,59.55,57l.28.6c.44,0,1.72.93,1.78,1.37a2.47,2.47,0,0,0,.54,2.13l0,.38-.37.21-.24.88-.24.16-.51-.33a4,4,0,0,0-1.59.77,3.15,3.15,0,0,0-1.61-.45l-.45.22-.32.64-.21.12L55.93,62l-1.13-.59-.35-.77L54,60.32l-.42-1.06-.23-.15-.63,0-.51-.67-.75.2c-.57-.24-.73-1.11-1.08-1.56-.86-1.12-2.3-.48-3-1.2-.39-.41-.62-1-1-1.44-.55-.59-1.26-.81-1.69-1.58l-.24.45L42.76,53a3.61,3.61,0,0,1,1.84-.25c-.05-.22-1.43-1.38-1.73-1.85l-.7-.23a1.89,1.89,0,0,0-1.09-.91l-.08.52a2.07,2.07,0,0,0,.63.86,3.48,3.48,0,0,0,.08,2.16c-.7.29-.89.36-1.19,1.1l-.58.33c-.28-.09-.64-.73-.74-1l-1-.27c-.86-.43,0-2-2.27-3.56a2.91,2.91,0,0,0-1.57-.54l-.48-.71-.56-.12-.27-.39L32.66,48a10.33,10.33,0,0,0-1.85-4.09l-.87-.41c-.82-1.77-3.28-4.6-5-5.13l-1.07-.62a16.4,16.4,0,0,0-4-1.84c-.64-.63-.5-2.86-1.47-4.12-.43.47-.54,1.11-1.05,1.52a1.72,1.72,0,0,0-1.08.45l-.19.63c.11,1.08,1,1.61,1.77,2.28l.27,1.06c-.6.68-3.53-.05-4.39,3.58l.25.55,1.34.81.1.27c-.4.21-1.21-.41-1.93-.23l-.34-.2-.48.22a2,2,0,0,1-1.23-.44,1.71,1.71,0,0,1-1.27.22l-.1-.26c0-.52.68-.72.81-1s.23-.58.38-.94c.62-1.57,1.42-2.91,2.11-4.42a54,54,0,0,0,2.4-7.56c.8-2.73,2.05-4.85.65-7.58l-1-.72a2.29,2.29,0,0,0,.05-1.32c-.54-1.95-1.61-1.73-1.66-3.57-.37-.36-1.43-1.49-1.13-2.12l.45.16.77,1,.84.85c1.75,2.07,3.91,3.78,5.41,6.06,1.71,2.58,3,5.5,4.77,8a9.82,9.82,0,0,0,1.72,1.56,16,16,0,0,0,1.77,1.52,2.69,2.69,0,0,0-.27-1.31c-.25-.49-2.09-3.85-2.31-4.09a50.72,50.72,0,0,1-4-5c-.24-.37-.35-.74-.55-1.11-.55-1-1.44-2-1.92-3a11.74,11.74,0,0,0-1-2.19c-.69-1-1.82-1.36-2.64-2.25l-.42-.74a7.34,7.34,0,0,0-1-2.69L14,9.71l-.26.1a1.81,1.81,0,0,1-.42-1.39,1.28,1.28,0,0,0-.79-.27l-.4-.6,0-.57a3.23,3.23,0,0,0-.76-.39c-1-1.72-2.34-1.8-4.12-1.89l.24-.17h.58l.26-1.07C7.65,3.16,7.69,2.33,6.61,2l-.1.49.61,1.27-.46,1,.28.66L6.33,5.1l.29.65.19-.15a1.26,1.26,0,0,1,.25.61c-.15.08-.61.23-.78.14a5.41,5.41,0,0,0-1-1.59l.09-.36a1.36,1.36,0,0,0-.58-.48l0-.27.54-.14A12.22,12.22,0,0,0,5.64.58C5.51-.88,4.38-4.36,2.88-4.85a6.37,6.37,0,0,0-.79-2.77l-.63-.31-.41-.82L.57-9A2.68,2.68,0,0,0,0-10.42l.09-.65C-.36-12-1-12-1.79-12.42A7.27,7.27,0,0,1-2.43-13a8.51,8.51,0,0,1-.92-.59c-.9-.87-.61-1-2.07-2-.74-.5-5.23-2.9-5.49-3.27l-.69.34-.18-.59a4.5,4.5,0,0,1-1.28-1.76c-1-.45-1.57-1.28-2.69-1.47a1.11,1.11,0,0,0-.6-.64l-.23-.66a4.52,4.52,0,0,0-1.72-.87l-.34-.57-.53,0-.63-.69c.3-1-.7-2.42-1.39-3a4.33,4.33,0,0,1-1.61-.92l.27-.48,0-.33c-1.33-1-1.65-2.9-3.06-3.83l-.13-.64-.21-.21-.2-.85a3.9,3.9,0,0,1-1.08-1.66l-1.19-.74a1.58,1.58,0,0,1-.06-.89c-.4-.41-.57-1-.93-1.4s-.7-.46-.94-.75-.37-.82-.6-1.15-.88-.51-1.33-.75c-.82-.44-1.36-1.31-2.11-1.76-.07,0-1.45-.49-1.62-.54a3.38,3.38,0,0,0-1.38-1.16v-.57c-.45-.38-.54-1.13-.89-1.59a6,6,0,0,0-2.33-1.74c-.09-.58-1.41-1.74-1.84-2.07l-1.06,0a2.15,2.15,0,0,0-1.1-.68l.19-.42a2.49,2.49,0,0,0-1.14-1.71c-1.27.3-1.9-2.17-3.09-2.06-1.34-1.49-.28-2.34-2.34-3.94a2.49,2.49,0,0,0-1-.52l-.13-.34c-.26-.63-1-1-1.46-1.42s-.66-1.09-1-1.32l-.21-.15-.24-.6-1.22-.35-.33-1.06.42-.71a20.06,20.06,0,0,0-1.57-2.49l.24-.1.54.15.38-.11c.34-.46.82-1,1.11-1.48.5-.89.78-1.84,1.37-2.83a2.49,2.49,0,0,0,.37-.6,25.17,25.17,0,0,0,.59-3.16,3.53,3.53,0,0,1,.26-1.32,7.9,7.9,0,0,1-.4-2.36c-.09-.48-.34-1-.46-1.46s-.18-1.12-.32-1.66c-.07-.23-.29-.47-.33-.7-.12-.59,0-1.29-.2-1.86s-.77-1-.63-1.72l-.52-.72.17-.34A1.45,1.45,0,0,1-55.82-92l-.81-.68-.42,0-.37-.59.19-.42-.12-.43.25-.37c-.3-.54-.59-1.15-.93-1.67-.63-1-1.18-.85-1.44-2.5a1.89,1.89,0,0,1-1.14-.41l-.12-.42.22-.51-.52-1,.06-.22.38-.11.06-.33a1.79,1.79,0,0,0-.56-.77l.44-.41-.65-.55-.09-.43.19-.42-.75-1.87.09-.33-.8-1.74-.58.1c-.71-.41-.12-1.45-.37-2l.12-.2.58,0L-63-111l.32-.56-.29-.2-.66,0-.8-.57.21-.53.59-.26.26-.34-.59-.8,0-.46-.29-.17-.24.07-.54-.83.14-.31c-.13-.29-.53-.81-.87-.88l-.17-.45.45-.6-.35-.6.28-.27.48.05,0-.3-.59-.31-.12-.51a1.09,1.09,0,0,0,.53-.71l-.26-.58a1.29,1.29,0,0,1,.28-.67l-.13-.61.17-.26c-.1-.32-.32-1.34-.09-1.64l.4-.22.18-.88-.46-.57.06-.33.73-.26c-.12-.12-.48-.42-.67-.42l-.31-.74.11-.41.5,0,.12-.26-.33-.6.12-.68.39-.3.92-3.4-.38-.51.07-.25.69-.05c1.63-2,2.21-4.63,2.81-7.08.46-1.84-1.32-2.44-1-4a3.52,3.52,0,0,1-1-2.23c.2-.49.46-1,.61-1.51s-.28-1.07-.4-1.57c-.24-1,.21-1.91-.17-3.37-.09-.35-.52-1.08-.55-1.32-.1-.92.2-1.9-.24-2.8-.07-.14-.6-.62-.7-.79-.68-1.12-.51-1.91-2.1-2.21-.4-.41-.79-1.25-.39-1.79l-.48-.75.14-.69c-.84-1.87-.38-3.13-.47-5.08a26.86,26.86,0,0,0-1.23-5c-.75-.81-1.72-.92-2.56-1.5A30.16,30.16,0,0,0-73.4-178c-1-1.35-1.51-4.92-2.46-6-2.6-.82-3-3.93-4.53-5.83-.32-.4-.83-.72-1.18-1.1s-.71-1.25-1.11-1.63c-.13-.12-.72-.41-.8-.51-.27-.32-.39-.86-.65-1.19s-.66-.55-.93-.84c-.08-.09-.22-.41-.3-.46-.5-.38-2.32-2-2.93-1.9l-.53.67c-.08-.07-.9-.78-.92-.82-.48-1-.39-.47-.36-1.84.11-4.32-.31-3.9-3.15-7.57-.76-1-3-1.16-4.06-1.74-.62-.34-.88-.86-1.41-1.21s-1.17-.48-1.68-.78c-.84-.49-1-1.38-1.58-2a1.29,1.29,0,0,0-.36-.25c-.74-.52-1.22-1.22-1.91-1.73s-2.41-1.18-2.9-2l-.2-.31-.2-.32c-.14-.07-2-.89-2.06-.94-.31-.25-.53-.67-.83-.93s-.86-.49-1.15-.79c-.78-.82-1.37-1.94-2.18-2.72-.14-.14-1.25-.59-1.43-.74l-.85-1.08c-1.22-1.54-.41-3.16.12-4.93a17.88,17.88,0,0,0,.65-1.76c.32-1.87-.81-2.51-1.28-4,0-.08-.08-1.65-.09-1.83-.07-1.43-.75-4.76-2.53-5.19a11.21,11.21,0,0,1-1.54-4.31,23.88,23.88,0,0,0,2.33-6.81l-.35-.76c-.06-.44,1-2.09,1.21-2.64.79-2,1.52-4.1,2.37-6.1.2-.47.56-.9.76-1.36.52-1.27.71-2.79,1.69-3.84l.58-.16.46-.64-.26-.27.28-.06,0-.69-1,1.36-.06-.16A86.58,86.58,0,0,1-105.71-281c.55-.8,1-1.7,1.45-2.55,1.25.15.13,2.45-.12,3.07a6.09,6.09,0,0,1-1.25,2.38c-1,1.25,1,2,2,2.11s1-.36,1.38-1.11a7.09,7.09,0,0,0,0-3.4,4,4,0,0,1,.94-2.8,6.54,6.54,0,0,0,1.61-3.29c.09-1.24,2.53-3.39,3.18-3.4s3.35-.49,4.41-.69,1.44-1.8,2.52-3.36-2-1.31-3.77-1.56a3.17,3.17,0,0,0-3.21,1.28c-.53.66-1.73,2.72-2.33,3.5s-1.4,3-2.27,4.29a7.45,7.45,0,0,1-2.26,2.11l-.54-.23-.16-.28a60.49,60.49,0,0,0,5.08-9c.77-1.69,1.38-3.45,2.15-5.14.31-.68.88-1.35,1.13-2.05a34.64,34.64,0,0,0,.86-3.37,22.13,22.13,0,0,1,.91-3.79,34.12,34.12,0,0,0,1.25-7c0-.71-1-2.25-1.31-2.8-.22-.38-.66-1.25-1.25-1.38l-1.27.54-.15-.37.33-.43,0-.55-.21-.33-.61-.16a2,2,0,0,1,.23-1.22,1.35,1.35,0,0,1,0-1.41l-.72-1.3c.16-.88.53-2.52-.27-3.23l.34-.65-.11-.51.61-.59.86.31c.52-.46,1.45-3.27,1.71-4a60.83,60.83,0,0,0,2.08-7.23c.13-.58.08-1.23.21-1.81,0-.16.34-.62.36-.76.1-.67-.06-1.5.09-2.15.27-1.14,1.19-2.28,1.32-3.47.06-.56,0-1.17,0-1.73.12-1.84.9-3.62,1.2-5.42.26-1.59,1-6.83,1-8.27a60.55,60.55,0,0,0-.79-6.17c0-.3-1.58-2.46-.94-3.83l-.52-.34.37-.44a2.4,2.4,0,0,1,.05-1.71l.32,1,.14-.93,2,.4-.45-.53a7.84,7.84,0,0,1-3-1.31c0-.09-.71-1.59-.71-1.62,0-.88.09-1.85,0-2.71,0-.15-.27-.76-.32-1-.24-1.16.19-1.1-1-2a17.61,17.61,0,0,0-1.41-4.28l-.62-.11a4.9,4.9,0,0,1-.56-2l.26-.59-.11-.48a9.43,9.43,0,0,1-.4-3.07,1.6,1.6,0,0,0-.12-1c-.85-1.29-1.63-2.7-3.07-3.43l-.75.08-.76-.69-.87.07-.58-.39-.64.05-.64-1c-1.13-.47-1.81-1.48-2.92-1.95l-.35-.68,0-.36c1.9-1.63,1.3-1.89,2.23-4l.94-2.1c.37-1.34.13-2.56.73-4.32s.55-6.56.54-8.42l.22-.09c.27.5-.12,1.85.32,2.9l.41-.26-.17-.18-.1-.84.51.45-.2-1.27.32.12,0-.36-.57-.32-.24-.91-.62-.08c-.34-1.13.28-1.73.28-2.61a24.21,24.21,0,0,0-.41-2.78,6,6,0,0,0-.44-1.07c-.66-.55-1.39-1.1-2-1.69-.12-.12-.33-.57-.44-.67-.32-.26-.88-.38-1.17-.66a22.69,22.69,0,0,1-1.74-2l-1.26.29-1.38-1.08a1.89,1.89,0,0,0-1.55-1.77,13.67,13.67,0,0,0-1-1.76c-.57-.71-1.57-1-1.69-2.06l-.76,0-.25-.42.19-.75-.36-1.05.45-1.37c-.2-1.49-.7-1.53-1.17-2.42-.33-.65.13-1.15.07-1.67,0-.14-.18-.52-.18-.63a7.28,7.28,0,0,1,.22-1.13l-.84-2-31-.06V715.11Z" fill="#c6ecff"/><path id="path47" d="M274.43,368c-1.29-.35-3.19-3-4.3-3.84A9.29,9.29,0,0,0,268,363c-2.5-1-5.32.26-7.74-.79-1.7-.75-2-2.79-3.74-3.54-2.15-.94-6.5-.46-8.23-1.76-1.07-.82-1-2-1.53-3.05-.87-1.73-2.1-3.33-3-5.06a17.52,17.52,0,0,0-1.33-2.63,7.49,7.49,0,0,0-.75-.84c-1.42-1.36-3.19-2-4.41-3.67s-.91-3.43-2-5-4.69-2.25-5.35-3.64l.08-.72a3.43,3.43,0,0,0,.61-1,9,9,0,0,0,.64-1.08c.55-1.52.53-5,.53-6.65,0-1.28.2-2.6.11-3.88s-.36-2.83-.39-4.26c0-2.09.23-7.07-.31-8.87s-2.36-3.12-3.68-4.33a10.82,10.82,0,0,0-1.69-1.56,9.18,9.18,0,0,1-.28-.9,7.33,7.33,0,0,0-.64-3.29c-.77-1.34-5.73-1.77-7.09-3.61-1.05-1.42-.59-2.9-1.11-4.33-.43-1.17-1.35-1.25-1.83-2.18-.69-1.34-.26-2.63-.72-3.95-1-2.76-3.43-4.24-4.33-6.13-.75-1.6-.85-3.82-1.88-5.17a9.87,9.87,0,0,0-1.44-1.76c-.31-.23-.71-.35-1-.59-.65-.49-1.17-1.08-1.8-1.56-.45-.35-.95-.6-1.41-.9a26.91,26.91,0,0,1-4.38-3.81c-1.54-1.66-1.56-4.34-2.78-5.65-2.33-1.68-5.37-1.77-7.56-4.19-1.15-1.27-1.49-6.64-1.75-8.46a19.3,19.3,0,0,0-.3-2.74,14,14,0,0,0-2.47-4.71c-.93-1.08-2.53-1.27-3.41-2.29-1.14-1.31-1.16-3-3.13-4.12-2.34-1.31-5.07-.63-7.49-1.59a10.06,10.06,0,0,1-1-.63,5.91,5.91,0,0,1-2-1.31c-.2-.3-.33-.69-.52-1-.61-.21-1.08-.61-1.7-.79-1.53-.46-2.28-.09-3-1.88a11.22,11.22,0,0,0-1.05-2.21c-.57-.73-1.84-1-2.64-1.39a8,8,0,0,1-1.41-1,19.55,19.55,0,0,1-1.47-1.8c-.39-.44-.88-.76-1.27-1.18a3.91,3.91,0,0,1-.39-.45c-.44-.79-.74-1.83-1.19-2.6s-1.1-1.22-1.42-1.87-.33-1.71-.77-2.46a10.91,10.91,0,0,0-3.19-2.53c-1.73.26-2.74,1.2-4.71.66s-2.91-2.65-4.24-3.88c-1.1-1-2.62-1.74-3.5-3-.4-.59-.77-1.38-1.13-2a6.94,6.94,0,0,0-.72-.87,10.12,10.12,0,0,1-1.72-4c-.06-.26-3.65-1.49-3.55-1.76" fill="none" stroke="#0978ab" stroke-linejoin="round" stroke-width="0.5"/><path id="path111" d="M67.48-279.52a8.6,8.6,0,0,0-1.72.77c-2,1.39-3.15,4.82-.61,6.27.9,1.44-.85,3.9.33,6.2s4.29,1,6,1.73.33,3.17.64,4.37a11.44,11.44,0,0,1,1.66,2.46c.14.39.15.87.28,1.28a10.81,10.81,0,0,0-.58,2l.33.59a10.48,10.48,0,0,1,3,1.22c.09.21,1,2.08,1.05,2.11,1,.6,2.79.16,3.94.42,2.64.58,5.87,2.27,7.23,4.71a7.71,7.71,0,0,1,.67,2.42c.18,1.29-.14,2.59,0,3.88s1.06,2.38,1.08,3.71l-.28.56c-.68.16-1.76.69-1.91,1.45l.14.59a2.23,2.23,0,0,0,1.69.87A10.34,10.34,0,0,0,92.65-233l.58.24c.46.63,1,1.67.36,2.36-.51.35-1.15.48-1.64.83a54.82,54.82,0,0,0-4.35,4.13,5.45,5.45,0,0,0-.5,1l.11.77.53.21c2-.2,1.89-1.78,3.22-1.74l.49.35c.78,2.43-4.91,5.62-4.46,8.56a7.81,7.81,0,0,0,.72,1.69,10,10,0,0,0,1.58.91c1.59.6,4.86,1.13,5.8,2.77.52.92-.33,3.13.13,4.33.24.61.75.83,1.14,1.32.23,1.22,1.24,3,1.25,3.63,0,1.5-.56,2.95-.31,4.51a18.21,18.21,0,0,0,1.33,3.5c.09.16.27.32.34.48s.07.43.13.63c.67,2.09,1.66,3.48,1.09,5.85-.62.68-1.63,1.55-1.61,2.53l.25.56a4,4,0,0,1,2.08,1.35c.06.69.11,1.38.16,2.08.45,0,.85,1.56.85,1.56-.1,1.43,0,1.45-1.16,2.46v.37c1.37,1.61,1.11.95.51,2.79.46.44,1.14.67,1.5,1.15a1.78,1.78,0,0,1,.55-.18c2.53-.39,1,2.9,1,3.1a4.08,4.08,0,0,0,.4.93,12.31,12.31,0,0,1,3.57,3.36c.61-.23,1.53-1,2.06-.24a10.6,10.6,0,0,1,1.15,2.31c.5,1.26,2.6,4.28,0,4.69.84,1.21-1,2-2,1.91a7.45,7.45,0,0,1-.7.32c1.9.42,2.49,3.14-.52,3.37a1.71,1.71,0,0,0-.3.85c.74.75,2.07,1.78.94,2.89a4.14,4.14,0,0,1-1.16.88c-.07.57.08,2.21-.3,2.57,1,.39.54,2.19-.17,2.66l-.1.31a2.84,2.84,0,0,1,.31.93,2.32,2.32,0,0,1,.61.71s.53,1.43.28,1.73c-.17.75.32,1.36.16,2.12s-.56,1.25-.66,1.9c-.27,1.64.37,4,.08,5.37a3.27,3.27,0,0,1-1,1.42c-.64,1.7.39,1.82.47,3.16,0,.35-.43,5.18-.5,5.44-.17.6-1.18,1.76-1.52,2.6a23.59,23.59,0,0,1,.72,6.27,2.69,2.69,0,0,0,.13,1.38l.5.35.58-.31.34.41c-.18,1.27,1.07,3.88.25,4.75l0,.73c1,.81,1,2.14,1.83,3.05.87.67,2.41-.33,3.43-.08L113-98.9h0l-.3.57.05.19.16.4.12.35.33.67,1.22,1.16c.72,1.07.72,1,.49,2.06-.13.58-1,.71-1.39.82a2.9,2.9,0,0,1,.67.64l.46.14.19.08a1.23,1.23,0,0,1,.76,1,1.12,1.12,0,0,1,.36.54l.06.19.16,1,.66.64c.3.39.6.68.4,1.22a1.29,1.29,0,0,1,.15,1.08l.23.24.92.46,1.12-.07c1.28-.25,1.26-.34,2.12.62.59.53.53.59.69,1.41v.29l-.07.39.12.62.4.48.13.24.13.37c.53.55.48.61.57,1.4L124-79l.52,1.15.84.68c.57.21.75.28,1,.84l.07.3c0,1.11-.53,1.4-1.49,1.61l-.71.07a1.85,1.85,0,0,1-1,1.85c.13.67,0,.87-.52,1.31v.33l.17.5c.67.81.38,1.08,0,2l1.16.67c.24.14,1.19.55,1.35,1a1.13,1.13,0,0,1,1.17,1.86l-.74.53c-.11,1-.58,1.18-1.26,1.55.19.13.93.57,1,1a2.66,2.66,0,0,1,1.76.74l.25-.12.87-.36.42-.18c.66-1.11,1.77-.76,2.34.18l.52.32c.51.28,1.09.54.89,1.27.81.42.42,1,.05,1.54l-.05.45-.07.33.09.17c.63.85.5.71.59,1.91v.19l-.05.28a1.26,1.26,0,0,1,.23.92,4.14,4.14,0,0,1,1.09,0,3.51,3.51,0,0,1,.79.37l.2.15.34.37c.53.75.68.86.52,1.63l0,.35a1.57,1.57,0,0,1-.16,1.7l.44.22c.33.25.63.43.84.61.34-.89.81-1.27,1.35-1.27l.14-.25.18-.21c.56-.45.73-.42,1.42-.29,0-.54.91-1.4,1.48-1.24l1.07.29.23.11,1.07.73.23.23.63,1,.1.22c.46,1.76.44,1.22-.24,3.05l-.68,1.18-.08.54-.13,1.17-.06.2-.42,1-.16.24-1.2,1.27-.73.73,0,.44.58,1,1.8,1.95,1.47,1.22.18,0c1.06-.56,1.86-1,2.59.3l.09.33.19,3.16.14.77.58.72c.85-.55.69-.44,1.82-.53h.19c.83.15.87.07,1.45.5l.21.22.35.59.07.17.18.58.09.48c.15,1-.08,1-.69,2l-.43.76.06.38.49,1.13c.46,1.84-.05,2.23-1.51,3a1,1,0,0,1,.11,1.53c-.45.7-1.1.66-1.82.53l-.54.22-.21.34-.1.81.11.41.69,1,.52.55.59.09,1.51.07.23.05c1,.36.91.4,1.36,1.42l.07.26.07,1.09.13.88v.2l-.05.43-.05.2-.21.54-.17.26c-.72.73-.64.63-1.71.79l-.54,0,.45.75.3.38.8,1.58.07.28.08.85,0,.25-.15.65-.12.26-.38.54-.48.54.1.93c-.14,2-.08,1.48-1.61,3-.51.51-1.37.49-2.07.68V2a7.76,7.76,0,0,0-.28,1.37c.1,1.74,4.36,6.69,5.65,8.07a1.64,1.64,0,0,1-.44,1.18c-1.5.67-1.59,0-2.75.25l-.52.38c-.62,1.1,1,5.93-3.22,7.9-2.44,1.14-7-1.08-8.59-.35-.46.2-1.65.2-1.84.63-.36.78-1.45,1.15-1.29,2" fill="none" stroke="#0978ab" stroke-linejoin="round" stroke-width="0.5"/><path id="path117" d="M312.65-14.42a8.27,8.27,0,0,1-1,2.35A16.07,16.07,0,0,1,309-9.88a38.12,38.12,0,0,1-5.57,2.53c-2.09.91-4.1,2-6.18,2.91a23.48,23.48,0,0,1-3.19.72,12.14,12.14,0,0,1-5.93-1.1L286.76-5c-.4.11-.87.07-2.22.22l-1.06.45-2,.86-1.94,2-1,1.51-1.29,2.49L276,4.05l-.21.17-.65.39-1.15,2-.14.17-1.82,1.79-.8,1.1L271,10l-.24.57L270,12l-.66.74-.23.27-.13.33c-.19,1.27-.38,1.1-1.58,2l-.52,1-1.09,2-1,1.34-.29.59-.3.41-.05.23c0,1-.24,1.09-1.16,1.42l-.31.61-.41.63-.22.23s-.49.32-.63.39c.36,1.48.26,1.34-1,2.34l-.24.38c-.4,1.6-.16,1.2-1.32,2.34l-.3.18-.41.14-.48.31v.69l0,.26c-.68,2.05-.27,1.62-1.9,2.74-.05.37-.1.37-.33.79l-.18.21-.27.23-.44.83-.2.59-.11.22-.14.18-.66,1,0,.2-.09.27-.65,1.18-.24.3a1.13,1.13,0,0,1-1.14,1.56h-.86L249.37,41c-.55,1.72-.26,1.78-1.84,2.21a1,1,0,0,1-1-.53,1.68,1.68,0,0,1-.34.21c.46.55.4.89.13,1.11.16.22.29.47.41.66l.71,1.06c1.43,1.09.83,1.39-.44,2.1l-.48.43-.27.15-.72.25-.33.54c.29,1.08.32,1-.18,1.95-.21.42-.94.49-1.29.56l-.73.45-.2,1.06-.11.27c-.53.83-1.1,1.51-2.2,1.16l-.53.54c.07.51-.54,1-.82,1.22-.2,1-.94,1-1.89,1.29l-1,.72a5.12,5.12,0,0,1-.78,1.9,4.45,4.45,0,0,1-1,1.76,7.42,7.42,0,0,1-.7.68,4,4,0,0,1-1.22.67c-.85.36-1.76,0-2.6.27-1.55.43-2.8,2.44-4.38,3-1.74.59-5.46,0-7.43.38-1.5.31-6.91,2.39-7.79,3.53l-1,1.29c-.09.56-.41.72-.84,1l-.32.15a1.94,1.94,0,0,1-1.5-.11c-.74.82-2.14-.09-2.76-.47l-1-1-.72-.76-.38.18-.51.34a1.31,1.31,0,0,1-1.63.56c-1.08,1.62-.87,1.3-2.88,1.46-.54,0-.93-.64-1.15-1a1.29,1.29,0,0,1-1.85.91,1.56,1.56,0,0,1-.54,0,1.69,1.69,0,0,1-1.76.5l-.23.42-.12.17c-.76.76-.69.64-1.86.78l-1.07.17-.62.24-.75.32-.17.59-.11.3c-.34.55-1.09,1.35-1.8,1.23a1,1,0,0,1-.45,1.22l-.17.1a1.77,1.77,0,0,1-2-.63,1.41,1.41,0,0,1-1,.7l-.23.23v.35l-.05.62a1.18,1.18,0,0,1-.57.74" fill="none" stroke="#0978ab" stroke-linejoin="round" stroke-width="0.5"/><path id="path121" d="M322.67,159.29l-1.15,1.19-.83.66c-1.15.92-.91.6-1.43,2l-.05.21c-.11,1.33-.34,1.43.56,2.26l-.2.09-.26.19-.52.57c-.54.74-.44.69-.49,1.71l-.16.26-.29.27h-.74c-.72,0-.77.75-.92,1.41l-1,1.24c-.45,1-.46.85-.23,1.85l0,.39-.48.23-.24.19-.92,1.07c-.76.58-.75.71-.78,1.72h-.32l-.35-.35c-.07-.05-1-.94-1.5-.93h-.38c-.47,0-.72.48-.82.86l-.49.14-.57-.14-.4-.22-.29-.09-.37,0c-.59-.27-1.5-.73-1.84.38l-.72.33-.65.35c-1.45,0-2-.4-2.53.92l-.55.33H300l-.18,0a11.88,11.88,0,0,0-1.17.32c-1-.72-2.32-1.75-2.75.19l-.21.29-.26.14-.43,0c-1.42.11-1.11.16-2.43,1.28l-.52,0-.71-.21-1.41-.26h-.32l-.46.11-.7-.28-.19,0c-1.41-.19-1.18-.07-2.47.93l-.33.16-1.18.08-.66.16-1.18.34-.79.41-.51.41-.41.29-.53-.21-.29-.06c-1,0-1.21,0-1.53,1-.55.45-.6,1-.87,1.71h-.18l-.18-.12c-.16-.44-.36-1.22-1-1.19a6,6,0,0,0-1.32.11,3.43,3.43,0,0,0-.89.7c-1.16.19-1.13.48-1.12,1.57l-.18,0c-.6-.43-1.1-.76-1.63,0l-.65-.26-.29-.06h-.57a2.5,2.5,0,0,0-1.21.24,1.76,1.76,0,0,0-.12-.2,4.87,4.87,0,0,0-.72-.6l-.23-.13-1-.32-.49-.14a2.15,2.15,0,0,0-.87-.3c0-.47-.52-.74-.85-.95l-.22-.1c-1-.25-1.45-.36-1.62.82l-.42,0-.48-.1c.1-1.57.35-1.56-.51-2.58l-.17-.42-.16-.24c-.76-.78-1.16-1.47-2.32-1.24-.29-.61-.29-.65-.86-1-.31-.35-.64-.69-1.16-.47l-.28-.37-.44-.7-.49-.59-.22-.18-.6-.33-.3-.24,0-.21-.11-.31-.46-.83-.11-.75-.09-.28-.32-.56-.06-.51.6-1.13c.3-.47.87-1.23.11-1.68l-.36-.21c.28-.56-.43-1.34-.64-1.66L252,167l-.54-.76-.31-1.29-.09-.23-.69-1.13c-.09-.82,0-1.26-.79-1.64l-.18-.26-.56-1.12-.27-.85-.13-.24-.42-.54-.12-.36-.1-.19c-.74-1.08-.59-.85-2-1.31l-.52-.36-.23-.44c.76-1,.51-1.1,0-2.26l.3-.77a12.56,12.56,0,0,0-1.5-3.05c-.1-.14-.3-.25-.39-.38s-.13-.4-.22-.56-1.39-1.71-1.47-1.77c-1.45-1.06-4.05-.59-4.55-1s-.43-1.15-.75-1.66c-.44-.71-1.44-.76-2.08-1.25-.29-.23-.54-.53-.85-.76-.69,0-1.35.45-2,.42s-1.38-.49-2.14-.49a8.15,8.15,0,0,1-2.1.07,4.75,4.75,0,0,1-.67-.21c-2.92-1.42-.86-3.43-1.38-5.19-.68-2.28-2.43-2.21-3.47-3a8,8,0,0,1-1.72-2.26c-.92-1.82-.69-2.73-.83-4.6a3.76,3.76,0,0,0-1.8-2.33c-.71,0-1.47.25-2.14.25-.94,0-4.62-.7-5.35-1.28s-1-1.8-1.63-2.57-1.51-1.06-2.05-1.87a4.42,4.42,0,0,1-.36-1.21c-.2-.57-1.32-2.38-1.67-3.29-.55-1.49-.39-2.37-1.27-4.16s-2.56-2.25-3.66-3.67c-.83-1.09-.81-2.81-1.33-3.37s-2.08-1.12-2.94-2c-1.58-1.69-2.35-4-3.77-5.85a27.85,27.85,0,0,0-2.16-2,25,25,0,0,1-1.94-2.7A16.31,16.31,0,0,1,185.48,86a3.57,3.57,0,0,0-.5-1c-.81-.8-2.27-.47-3.11-1.07s-1.31-2.45-2.33-3.4c-.65-.6-2.1-1.18-2.4-2l-.15-.39c.57-1.72,1.56-1.3,1-3.64l-.55-.21a4.74,4.74,0,0,0-1.44,1,1.66,1.66,0,0,1-1-.77c-.15-1,.19-1.92.05-2.87a3.39,3.39,0,0,0-.47-1.14c-.29-.63-.2-1.31-.44-1.94-.52-1.34-1.42-2.48-1.64-4a9.77,9.77,0,0,1,.25-2.14,10.69,10.69,0,0,0-.08-2.26,13.67,13.67,0,0,0-.17-1.45c-.38-1.69-1.45-3.24-1.13-5.09a13.73,13.73,0,0,1,.5-2,9.85,9.85,0,0,0,.55-1.18c-.09-.45-1-1.38-1.33-1.91l.06-1.59-.31-.52a10.47,10.47,0,0,1-3.69-3,14.56,14.56,0,0,0-1.35-2c-1-.84-5.75-.22-6.6-.49" fill="none" stroke="#0978ab" stroke-linejoin="round" stroke-width="0.5"/><path id="path251" d="M67.14,58.72l-.43.24L66,58.89l-.34.21L65.27,59l-.52-.54,0-.3.48-.22,0-.57.41.08.28-.39.43-.16a2.92,2.92,0,0,1,.92,1.27A3.78,3.78,0,0,0,67.14,58.72Z" fill="#fefee9" stroke="#0978ab" stroke-linejoin="round" stroke-width="0.5"/><path id="path253" d="M71.88,63.65l.61.56v.41l-.28.23-.39-.11c-.34-.36-.17-1.43-.79-2.23l.28-.83.64.21A2,2,0,0,1,72.5,63,2.44,2.44,0,0,1,71.88,63.65Z" fill="#fefee9" stroke="#0978ab" stroke-linejoin="round" stroke-width="0.5"/><polyline id="polyline295" points="103.51 29.72 103.9 30.1 104.31 30.52 104.87 30.79 105.28 31.18 105.01 31.73 104.42 31.97 103.84 31.69 103.29 31.38 102.87 31.04 102.4 30.62 101.99 30.31 102.34 29.82 102.84 29.51 103.51 29.72" fill="#fefee9" stroke="#0978ab" stroke-linejoin="round" stroke-width="0.5"/><polyline id="polyline297" points="119.5 35.02 119.89 35.51 120.14 36.06 119.78 36.55 119.2 36.37 118.56 36.2 117.9 35.99 117.4 35.68 117.67 35.13 118.17 34.71 118.62 34.43 119.11 34.12 119.5 35.02" fill="#fefee9" stroke="#0978ab" stroke-linejoin="round" stroke-width="0.5"/><polyline id="polyline299" points="121.53 33.7 122.36 33.74 122.94 34.02 123.25 34.5 122.91 34.95 122.47 35.33 121.89 35.64 121.22 35.54 120.81 35.16 120.61 34.57 120.69 33.84 121.53 33.7" fill="#fefee9" stroke="#0978ab" stroke-linejoin="round" stroke-width="0.5"/><path id="path301" d="M802.86,395.53,768,362.07l-18.31-17.58-138.5-136L472.59,78.33l-177-154.47.91-118.21.06-7.22c0-.12.18-.51.2-.66a23.45,23.45,0,0,0-.11-3.45c0-.12.19-.45.2-.58,0-.31-.16-.67-.16-1,0-6.49,0-13-.07-19.45,0-.07.23-1,.26-1.11a2.3,2.3,0,0,0,0-.26,48.81,48.81,0,0,1-.27-7.65c0-.92.26-1.87.25-2.79,0-.47-.26-1-.29-1.48-.07-.94,0-1.93,0-2.87l-.12-12.63c0-.7.08-1.44.11-2.14,0-.12.24-.52.23-.6a114.86,114.86,0,0,1-.29-13c0-.13.19-.48.2-.63.07-.64-.23-1.42-.23-2.07s.16-1.09.16-1.63c0-1.08-.11-2.19-.16-3.26,0-.14.2-.58.2-.71,0-.47-.28-1-.32-1.42,0-.28.13-.64.13-.93v-5.37c0-1,.19-2,.18-3,0-.27-.2-.59-.21-.86,0-1.93-.11-3.9-.07-5.83,0-1.69.29-3.4.31-5.09,0-2-.44-4.15-.1-6.16l-.22-.4-.08-21.65c0-1,.19-1.93.19-2.88,0-.44-.17-.92-.17-1.37l0-10.59v-2.41c0-.14-.15-.45-.14-.57.09-1,.28-2,.28-3,0-.36-.28-.82-.28-1.18.08-10.62-.08-21.23-.06-31.85,0-.45.31-1,.34-1.45.25-3.86-.57-7.69-.4-11.53,0-.55.2-1.11.22-1.66.07-2.22-.25-4.52-.26-6.75s.11-4.58.11-6.87c0-1.14-.12-2.29-.12-3.43,0-.28.15-.6.14-.87-.15-4.65-.62-9.4-.53-14a3.67,3.67,0,0,0-.52-.14c-2.59-.06-5.14.05-7.72-.06-.1,0-.4-.23-.48-.23-1.15.08-2.32.2-3.47.22-.7,0-1.41-.12-2.1-.11-.35,0-.72.15-1.07.15q-14.32,0-28.67,0c-.76,0-1.57-.23-2.33-.2-6.63.21-13.24.14-19.87.11-.38,0-.79.16-1.18.17h-9.74c-.55,0-1.16,0-1.71,0-.08,0-.32.18-.39.18l-3.65-.18c-.09,0-.35.18-.45.18-1.77,0-3.57.09-5.34.07-.5,0-1-.16-1.5-.18-.92,0-1.88,0-2.81,0-3.83,0-7.67.12-11.5.11s-7.94-.27-11.88-.4a8.8,8.8,0,0,1-2.19.3c-.14,0-.67-.32-.78-.32-13.78,0-27.56-.35-41.34-.52-1.16,0-2.32.12-3.5.09-3.85-.08-7.74-.25-11.6-.25-1.44,0-2.91.13-4.34.08s-3.19-.29-4.75-.43c-.16,0-.32,0-.47,0-7.63-.13-15.27-.16-22.9-.39-2.85-.09-5.67-.32-8.53-.26-13.16.25-26.33.62-39.5.68-6.63,0-13.27-.13-19.89-.2-.09,0-.47-.27-.58-.28a7.83,7.83,0,0,0-2,.27c-3,0-6-.06-9,.07a1.77,1.77,0,0,1-.32,0c-2.35-.17-4.86-.52-7.21-.52-4.53,0-9.46.89-14,1-1.7,0-3.43-.15-5.14-.16-3.29,0-6.59.21-9.88.21-2.25,0-4.52,0-6.76-.08-.62,0-1.26-.18-1.88-.18-1,0-1.92.15-2.87.17-2.4.06-4.82,0-7.22,0a3.57,3.57,0,0,1-1.59.53c-8.47.2-16.95,0-25.43,0,0,0-.61-.34-.68-.38-2.47.86-25.12.46-27.53.45" fill="none" stroke="#646464" stroke-linejoin="round" stroke-width="0.5"/><path id="path45" d="M567.42,687.39c.08-1.19-.9-2.4-.93-3.54s.24-2.07.27-3.08c.09-2.84-2.5-7.89-4.57-9.75l-.16-.84c-.63-.69-2.33-.73-1.56-1.63s2.07.64,2.06,1.19,2.46,3.32,3,4.1,1.42,2.19,2.06,3.22,1.68.13,1.59-.53-.94-2.44-1.45-4.09-3.5-5.18-5.9-7.34-3.14.09-3.88,1.14-1.24,5.38-1.24,5.38a.94.94,0,0,1-.14.69l-.46.09c-.37-.41-.3-1.71-.72-2.44l.09-.65c-.93-1.24-.24-2.86-.81-4.16a1.4,1.4,0,0,0,.09-1.08l.28-.6-.13-.54a2,2,0,0,0,.25-1,1.86,1.86,0,0,0,.51-1.07h-.21c-.78-.24.39-4.83-2.24-6.35l-.19-.6-.41-.35a17,17,0,0,0-.21-2.19l.25-.68.79-.62.61.24c1.3-.68,1.36-4.38,1.12-5.64-.12-.59-.51-1.19-.63-1.78-.15-.76-.08-1.59-.22-2.36s-.41-1.36-.55-2c-.53-2.58-.67-5.36-1.48-7.88,0-.11-.33-.44-.39-.58a22.3,22.3,0,0,1-1.07-2.46c-.19-.58-.15-1.29-.35-1.87a21.12,21.12,0,0,0-1-2.05c-.14-.3-.46-2.29-.69-2.92-.34-1-.74-2-1.17-2.91a12.09,12.09,0,0,0-.71-1.05,12.63,12.63,0,0,1-.69-1.66,44.76,44.76,0,0,0-4.3-6.46c-.81-.72-2.13-3.36-2.52-3.45-2.67-4.58-5.64-9.4-9.39-13.17a32.31,32.31,0,0,0-3-2.66c-.33-.26-.89-.34-1.24-.58a18.68,18.68,0,0,1-1.43-1.24,2.18,2.18,0,0,0-1.16-.12l-.39-.24-.08-.19a29.72,29.72,0,0,0-5.95-7.67c-.54-.47-1.51-.61-2.23-1.38-.72.1-1.46-.33-2.17-.17l-.33.3h-.75a13.13,13.13,0,0,0-1.06-2.7c-.68,0-1.26-1.23-1.41-1.74l-.49.06-.81-1,.1-.43-.76-.67c0-.73-1.6-2.05-2-2.9a4,4,0,0,1-2.49-1.27l-.57,0c-.51-1.16-1-1-1.59-1.53s-.83-1.05-1.31-1.42-1.13-.49-1.59-.82-.69-1-1.28-1.2l-1.32-.39c-.62-.17-3.31-.76-3.65-1.18-.36-1.94-4-3.17-5.33-4.37-.51-.45-.94-1-1.42-1.5-1.66-1.65-3.23-3.28-4.77-5.06a26.5,26.5,0,0,0-2.71-3c-.32-.27-.74-.48-1-.77-.13-.12-.4-.61-.52-.7-.71-.56-1.63-1-2.39-1.47l-.36,0c-.57-.22-1-.87-1.36-1l-2.07-.64c-.73-.23-2-.65-2.76,0-.15.13-.47.69-.61.79a13.72,13.72,0,0,1-1.54.89,2.47,2.47,0,0,0-.24.29v.32l-1.41.58-.82-.18-.71-.82a3.18,3.18,0,0,1-1.26.69l-.15.38-.63.2c0,.38.51,1.73.47,1.86-.27.09-.68.31-1,.25l-.09-1-.35.11,0,.3.27.53-.52.06-.05.25.32.59a1.66,1.66,0,0,0-.48.6l-.44,0a3.67,3.67,0,0,0-2.34-1c-1.14-1.09-3.63-1.57-4.29-3-1,.14-1.66-.66-2.71-.58a2,2,0,0,1-1.28.27l-.48-.32a4.52,4.52,0,0,0-.73-2.07l.2-.55-.14-.3-.26,0c0-.17-.44-.46-.58-.55l.64-.39c-.12-.38.29-1.1.52-1.37l.57-.28a2.27,2.27,0,0,1,.32-1l.67-.17a4.67,4.67,0,0,0,.76-2.32l-.4-.59.35-.52c.13-.48-2.62-8-2.68-8.16-1.1-2.53-2.4-5-3.59-7.53-.43-.89-2.08-2.81-2.08-3.39-.95-.54-.71-1.07-1.28-1.58s-1.41-1.38-2.16-2-2.53-1.41-2.93-2.22l-1,.18a3.65,3.65,0,0,0-1.23-.41,5.47,5.47,0,0,1-1.11.61c-.14,0-1.2-.32-1.28-.32-.69,0-1.45.21-2.15.23-.24,0-.54-.17-.78-.18s-.47.14-.62.15c-1.45.12-3-.38-4.42,0a5.94,5.94,0,0,1-.91.83c-.94-.34-1.35,0-2.18.1-.28,0-.57-.22-.81-.23s-.45.11-.65.1c-1.5-.12-2.16-.57-3.41.72-1.15-.05-3.16.31-3.37,1.75a2.49,2.49,0,0,0-1.33.76c-.7-1.33-3.12-3-4.44-3.75h-.91c-.71-.92-4.21-.1-5.41-1.31-1.54-.14-.6.81-2.68-.26a2.67,2.67,0,0,1-.95-.69,2.38,2.38,0,0,1-1.6-.78c-.63.13-1-.39-1.47-.61a7.33,7.33,0,0,0-1.51-.21l-.74-.54-1.49-1.09c-.08,0-3.2-.45-3.5-.49-1.15-.16-3.26-1.18-4.7-1.42l-.09-.21c-1,.2-3.27-2-4.06-2.64-.17-.13-.43-.2-.58-.33a26.85,26.85,0,0,0-2.35-2.06c-.1-.07-1-.26-1.23-.35-2-.88-3.72-5.75-4.38-7.58-.24-.63-.81-2.34-.38-3-1.61-1.51-.47-4.62-4.59-4.85l-.24-.08a10.71,10.71,0,0,0-1.77-1.25l-.56-.25c-1.25-1.12-2.18-2.55-3.59-3.51a4.55,4.55,0,0,0-1.8,0c-1.21-1.37-2.56-3.33-4-4.41l-.47.07c-.54-.07-1.76-2-2.7-2.28L345,470l-.59-.43-1.17-.85c-.57-.26-1.53-.05-2.1-.4s-1.33-.76-1.94-1.19c-.81-.58-1.47-1.32-2.35-1.83-1.57.52-2.89-.79-4.45-.76a15.26,15.26,0,0,0-2.44.56c-.08,0-.44-.09-.55-.09-1.33,0-3.08-.26-4.27.51l-.64,1-.39.07-.56.66c-2.17.61-2.73-.25-4.52-1-.26-.11-.62-.09-.89-.19a21.9,21.9,0,0,0-3.25-1.36c-1.18.56-2.45,0-3.7.31a1.65,1.65,0,0,0-.69,1.1l-.26.17c-.65-.52-2.4-.45-3.14-.27-.36-.1-1-1.05-1.19-1.35-1.69-.15-2.17-1.49-3.53-1.88-.9-.26-2.4.15-3.15-.31s-1.4-1-2.08-1.44a2,2,0,0,1-1-.13l-.65-.82a2,2,0,0,0-1.68-.7c-.13.16-.53.54-.76.54-1.78-1.38-3.3.14-4-1a2.05,2.05,0,0,1-.55.69,5.93,5.93,0,0,1-3-.43c-.42-.18-.82-.62-1.25-.77a11.25,11.25,0,0,0-2-.42c-1.23-.17-1.65.48-2.54.44-1.45-.05-3-.21-4.45-.16-1.19,0-2.42.54-3.63.51-.5,0-1-.19-1.5-.19-.18,0-.77.14-.91.12-.64-.08-1.24-.55-1.92-.36-.66.61-4.09,1.46-5.12,1.46-.41,0-.9-.1-1.31-.06-.83.09-1.66.37-2.49.45-1.24.12-1.79-.3-3.18.64a3.24,3.24,0,0,0-2.37.25l-.42.67a1.32,1.32,0,0,1-.76-.76l-.63-.05c0-.06-.3-.44-.31-.48a11.38,11.38,0,0,0-.85-3.19,17.88,17.88,0,0,1-1.59-2c-.16-.35-.18-.84-.31-1.21a7.33,7.33,0,0,0-2.07-2.87,15,15,0,0,0-1.93-1.14c-.13-.06-.74-.1-.92-.16a11.7,11.7,0,0,1-2.81-1.75l-2.17,0-.51.43c-.57.23-1.44-.45-1.76-.85l-.79-.13-.16-.21a2.22,2.22,0,0,0-.2-1.05l-.83-.4.35-.48c-.13-.79.32-1,.39-1.32s0-1,.05-1.46c0-.12.33-.55.39-.69l1.34-3.64.33-.26c-.09-.75.45-1.52.65-2.22a15.83,15.83,0,0,1,1.12-4,2.2,2.2,0,0,1,0-1.39c-.4-1-1.21-2-1.32-3.06a2.52,2.52,0,0,1-1.49-2.36l-.54-.62c.85-2.49,3.48-10.32,2.17-12.56-.43-.74-1.57-1.42-2.18-2.06a7.09,7.09,0,0,0-.74-2.05l-1-.4a2.28,2.28,0,0,1-1.39.06l-.17-.24c.24-.54.87-2.37.53-2.95.28-.41,2.35-7.95,2.51-8.81.41-2.13,1.13-5.8,1-7.92a36.87,36.87,0,0,0-.81-3.69c-.21-1.06-.36-2.15-.55-3.23a4,4,0,0,0-1.61-2.72,4.29,4.29,0,0,1-2.22-.89c-.11-.13-.6-.86-.67-.92-.68-.53-2.1-1.16-3-.77a2.22,2.22,0,0,0-1.31-.44l-.18.12-.82-.1-.64.38a4.38,4.38,0,0,0,.05,1.73l-.26.09a6.08,6.08,0,0,1-1.5-.72,9.72,9.72,0,0,1-1.09-1.28,8.15,8.15,0,0,1-2.73-1.57,4.36,4.36,0,0,1-1.35-.83l-.58,0c-.53-.48-1.5-1-1.79-1.23-.45-.4-.73-1.08-1.15-1.47-.1-.09-.45-.21-.54-.3s-.25-.52-.42-.71-.5-.34-.69-.54a7.18,7.18,0,0,1-1.32-2.06,1.34,1.34,0,0,0-.12-1l.47-.53c0-.43-.3-1.24-.14-1.51l.42-.08c0-.82,1.18-2.45,1.52-3.34a17.8,17.8,0,0,0,.94-3.84,14,14,0,0,0,.08-2.24c0-.53-.32-1.12-.32-1.64,0-.16.3-.83.32-1a14.2,14.2,0,0,0-.58-3.18c-.33-.77-2.18-4.3-3.12-4.8s-1.37-.19-2.33-.09a11.31,11.31,0,0,1-1.75,0,.66.66,0,0,0-.44,0,3,3,0,0,0-1.79-1.42,4.14,4.14,0,0,1-2.12-.28l-.28.33c-1.21.05-2.19-1.9-2.8-2.72-.42-.57-.84-.57-1.17-.9-.67-.65-1-1.7-1.59-2.39-.16-.19-.68-.4-.85-.59s-3.59-4.23-3.77-4.33a8.51,8.51,0,0,0-1-3.1c-.2-.31-.6-.55-.78-.86-.51-.85-.64-2.15-2.08-2.67a12.17,12.17,0,0,0-2.37-3.56,9.61,9.61,0,0,0-1.7-.7l-.52.13.07.54-.22.28-.65-.78-.59-.09a3.31,3.31,0,0,0-1.3-1.16,3.7,3.7,0,0,1-3.51-1.32l-.5,0a1.82,1.82,0,0,0-1.92-.29c0-2.36-1.37-4-2.87-5.59.2-.68-.11-1-.15-1.64a7.51,7.51,0,0,1,.32-2.7,2,2,0,0,0-.63-1l-.54-.14-.05-.46.22-.31a2.54,2.54,0,0,0-1.83-2.27,1.39,1.39,0,0,1-.23-.91c-.76-.87-1.68-1.51-2.5-2.29-.22-.21-.35-.5-.57-.71s-.75-.53-1.05-.84a24.34,24.34,0,0,1-1.64-2.18c-.23-.33-.34-.77-.56-1.11-.39-.58-1.13-.68-1.64-1.14a4.09,4.09,0,0,0-1.64-1.11c-.39-.84-1.44-1.25-1.67-2.06l.18-.66-.35-.64,0-.54c-1.21-1.83-.09-1.6-.45-2.64-.45-.29-.88-2.27-1.26-2.95a2.58,2.58,0,0,0,.05-.46c-.45-1.82-1.4-5-3-6.2l-2.05-1.09c-.93-.39-2.71-.38-3.23-.77a5.32,5.32,0,0,1-1.22-2,6.45,6.45,0,0,1-1.12-3c-2.46-1-2.66-4.43-3.95-6.42a37.56,37.56,0,0,0-2.4-3.16c-.26-.31-.62-.55-.87-.85a14.73,14.73,0,0,0-.87-1.26c-.54-.52-1.34-.85-1.89-1.37-.31-.3-.51-.87-.81-1.21a9.07,9.07,0,0,0-2-1.66c-1.55-1-3.08-2-4.65-3a10.7,10.7,0,0,0-1.59-.79c-.23-.09-1.2-.23-1.35-.31-.81-.41-1.51-1.26-2.37-1.72-.26-1.1-1.21-3.63-2.5-3.8a3.21,3.21,0,0,0-1.45-1.23,2.42,2.42,0,0,0-2.28-1.53l.55-.68a9.55,9.55,0,0,0,.15-2.26l.24-.42c-.08-1.23-1-1.89-1.49-2.91l.4-1.1-.36-.69a3.18,3.18,0,0,1,.45-1c.08-1-.54-1.09-1.26-1.62l.4-.56-.16-.34.07-.31-.35-.49a5.12,5.12,0,0,0-1.7-4.66c.87-1.61-.45-2.53-.67-4.44l-.44-.27.53-.49c.46-1.82-1.17-2.41-1.25-2.81l.25-.45c.28-.09.89.25,1.09.4a1.75,1.75,0,0,1,1.1-.54l.09-1.2a1.62,1.62,0,0,0-.62-.7l-.08-.32.31-.29a1.89,1.89,0,0,0-.5-1.82h-.38l-.07-.29a3.34,3.34,0,0,0-.93-.36l-.18.58-.3-.06-.57-.62-.54-.06-.45-.89-.52-.22-.07-.3L109,209l.73,0,.24-.48-.13-.4c.35-.51.41-1.39.8-2a1.3,1.3,0,0,0,.75-.12l.22-.75.37-.21c.18-.37.51-1.44.27-1.85l.2-.37a2.55,2.55,0,0,1,1.19.16l.42.79,1.68.89a7.69,7.69,0,0,0,1.43,2.06c1.6.37,2.82-1,3.73-2.15.09-.11.33-.74.43-.91a11.63,11.63,0,0,0,1.26-2c1.86-5.05,2.21-5.76,2.48-11.09a6.75,6.75,0,0,1,.14-.76l1.22,1.07.06-.3-.89-1.06.07-.71-.2-.24c.59-1.65,0-3.48,1.2-4.83l-.19-.59c.45-.83-.58-1.77-.88-2.37-.45-.87-.57-2-.94-3,0-.05-.17-.12-.2-.18-.54-1-.8-1.95-1.29-2.92s-1.13-1.82-1.63-2.76c-1.85-3.47-2.29-5.72-5.86-8a5.05,5.05,0,0,0-3.07-1.1l-1.6.79c-.4.2-.44.73-.7,1.05s-.58.27-.72.66a1.23,1.23,0,0,1-.94,0l-.29-.31-1,0a2.33,2.33,0,0,0-1.57-.6l-.26-.31c-.11.33-.74.64-1,.71l0,.63-.18.25c-.25.23-1.52-.1-2.26.53a2.36,2.36,0,0,0-1-.27l-.42.21-.79-.09-.43-.44-.48,0-.56-.3-.91.16-.33-.28-.47,0a1.53,1.53,0,0,0-1.08-.59l-.43-.44-.59.14a6.13,6.13,0,0,1-1.43-1.49l-1,.16a1.64,1.64,0,0,0-1.22-1.59v-.18a13.66,13.66,0,0,0-1.39-1c-.2-.17-.31-.48-.5-.65s-2.21-1.9-2.38-2-.82,0-1.06-.46c0-.1-.27-1-.3-1a38.34,38.34,0,0,1-3.91-6c-.23-.44-.65-.58-.86-1.36a19.64,19.64,0,0,1-2.84-2.31l-.46-.05-1.57.82-.21-.69-.55-.24L74.57,144l-.51-.38-.13-.48c-.5,0-1-.59-1.45-.76l.19-1.37-.78-1.2c-.9-.08-1.14-1.63-2.45-1.24l-.37-.28A2,2,0,0,0,68.4,137c.23-.87-.3-1.46-.46-2.23,0-.23,0-1,0-1.22-.17-.65-.63-1.28-.84-1.93-.14-.43,1-5.43,1.09-6.19.11-1,.06-2.08.09-3.07l.23-.18a40.52,40.52,0,0,1,.43-4.15,1.39,1.39,0,0,0-.69-.74c0-.3-.15-1.65-.41-1.8l-.3-.11-.11-.35c-.14-.41-.42-.78-.52-1.08s-.11-.87-.24-1.26c0-.14-.27-.36-.33-.5s0-.52-.15-.72-.42-.46-.53-.71-.21-.88-.37-1.28c0-.11-.45-.61-.45-.68l-.32-3.5c0-.29-.26-.81-.1-1.08l-.31-.28a1.46,1.46,0,0,0,0-.3,12.18,12.18,0,0,0-.63-1.48A2.83,2.83,0,0,0,60,101l-.21.5-.32.07a1.65,1.65,0,0,0-.12-1l-.91-.57a3.07,3.07,0,0,0-.12-1.13l-.41-.41c.11-.55-.35-1.12-.23-1.64l.45-2-.33-.88c.24-.35-.08-3.43-.18-3.92l.38-.48a1.52,1.52,0,0,0,1.09.07l.23-.67-.16-.39.47-.87c0-.1-.14-.64-.13-.7a31.17,31.17,0,0,0,.18-8.25c-.15-1.49-.76-2.84-1-4.28-.09-.49,0-1.1-.05-1.6a25.52,25.52,0,0,0-.49-4.93,1.88,1.88,0,0,1,.65-1,2.79,2.79,0,0,0,1.71-.16c.77-.43.72-2.1,1.25-2.35l.48-.11c1.21,1.17,2-.09,3,.29l.42-.27c.8.6,1.5-.2,2.27-.26.77.18,2.13,2,2.51,2.73-.29.62.07.91.11,1.43.06.77-.35,1.28.29,2.07a2.33,2.33,0,0,0,0,1.52l-.37.24,0,.27.1.18a1.78,1.78,0,0,1,.93,1l.42.22.54-.49A2.59,2.59,0,0,1,73,74l-.27.45.08.43-.48.6-1-.44-.07-.67-.61.25a1.37,1.37,0,0,1-.27.94c.41.66,1.26,1,1.62,1.7v.35l-.33.07c-.37,0-1.29-1.43-1.71-1.77l-.3,0-.11.41a7.18,7.18,0,0,1,.6,4.09l-.65,1,.15.18.3,0,.26-.23.12.29L70.2,82l.07.4.54.32.07.24-.19.5a3.33,3.33,0,0,1-1.22,0l0,.41-.35.48.13.42.28-.36.27,0,.08.35.54,0,.15.18-.44.38,0,.19.63.12.19-.09.48.35.68.07-.18.56.36.19.08.32-.25.48-.57-.08a2.4,2.4,0,0,0-.31,1.16c.11.27.64.51.9.57l.43.85.47.08.18.37c1,.12,2.38.32,3.13-.51l.33.15a3.16,3.16,0,0,0,.73,1.39l.68.78c.8.61,3,.32,3.86,0l1,.35a14.81,14.81,0,0,0,2.57,3.06,7,7,0,0,0,1,.48,1.49,1.49,0,0,1,2,.82,8,8,0,0,0-.85,1.67l.08.37.36.17c.29,1,.6.75,1.26,1.16.43.26.74.71,1.22,1a1.84,1.84,0,0,1,1.08-.22,4.71,4.71,0,0,1,1.52,1.46h.3l.17-.36c-.16-.69-1-1-1.21-1.62l.19-.6a1.73,1.73,0,0,1,.9-.3,3.46,3.46,0,0,1,1.15,1c.42.6.31,1.28.59,1.9,1.16,2.56,2,3.68,5,3.81a6.06,6.06,0,0,0,3.07-.24c.32-.49.72-.92,1-1.42l-.31-.48a6.34,6.34,0,0,1-2-.49l-.31-.48c0-.5.16-1,.14-1.49,0-1.11-1.77-2.06-2.74-2.18a3.75,3.75,0,0,1-1.75.72,15.8,15.8,0,0,1-1.15-1.54c-.13-1.28-.61-3.76-1.76-4.56l-.15-.72-.42-.25c0-.67-.62-1.42-.72-2.16l-.34-.2a2.33,2.33,0,0,1-.1-.32c0-.48.09-1,.08-1.47,0-1.17-.54-2.29-.34-3.48l-.34-.3a2.4,2.4,0,0,0-.24-1.78l.19-.52A5.3,5.3,0,0,1,91.5,81c-.31-.2-.39-.58-.64-.81s-.89-.61-1-.7a7.34,7.34,0,0,1-1.16-2.65l-.41,0a4.61,4.61,0,0,1-.59-1.22,2.77,2.77,0,0,0-1,.41,3.36,3.36,0,0,1-.6,1.38l-.54.12a5.48,5.48,0,0,0-2.41-2.53c.21-.18.7-.69.73-1L83,73l0-.21a2.46,2.46,0,0,1,1.26.09l.18-1c-.06-.52-1.39-1.76-1.8-2s-.9-.16-1.18-.59l-.7.12L80,69l-.72.17a4,4,0,0,1-.9-.46l.35-.56,0-.24-.85,0-.3.37c-.37.21-1.19-.19-1.47-.43L75.92,67l-.3,0-.39-1.17c.62,0,.81.36,1.25.5a10.79,10.79,0,0,0,1.38.25c.93.13,1.58-.15,2.48-.09.35.38,1.1.61,1.31,1l.41,0a15.34,15.34,0,0,1,3.35,2.64l0,.54-.64.39-.11.41c.43.5,1.14.32,1.63.89l.47-.32.44.38.37-.19A1.78,1.78,0,0,1,86.87,71L86.43,71l-.26-.83-.38,0c0-.65-1.55-1.72-1.93-2.14s-.17-.74-.79-1l-.76.12L82,66.78c-.68-.1-1.22-.81-1.81-.77-1.24.09-3.6.39-4.54-.8H76c0-.21-.37-.45-.42-.59l0-.3.74,0a2.68,2.68,0,0,0,.85-.89l.63-.08a.88.88,0,0,0-.22-.49l-1,.42-.69-.2-.7.17L75,63l.22-.4L78.63,62l.19-.39c-.26-.94-1.33-5.73-2-6.1L77,55l.32-.15a3.27,3.27,0,0,0-.44-.9l-.52,0,.22-.45c-.07-.43-.94-1-1.3-1.14a1.44,1.44,0,0,0-.76.42h-.55l.19-.5L74,52,73.5,52l-.72.69a6,6,0,0,0-.57-1.75,1.89,1.89,0,0,0-.82,0l.73.77.26,1.12-.16.18-.49,0L71,52.37a1.89,1.89,0,0,0-1.19.26l-.13-.32.42-.78-.08-.4-1.31-1.34-.93,0-.06-1-.24-.28-.67-.24-.08-.37.25-.48-.07-.26-.43-.22L66.18,46c.59-.19,1.14.15,1.58,0l.25.94a1.68,1.68,0,0,1,1,.56l.12-.74h.41a1.74,1.74,0,0,1,.79-1l.18-1.14.87.08a4.28,4.28,0,0,0,1.21-1.75c.09-.56-.93-1.26-1-2.06l.3-.56a1.22,1.22,0,0,1,.76.37c1-.15,1.72,1,2.63.64l1.23-1.1a6.83,6.83,0,0,0,1.91.05c.26-.22,1-1,1-1.41l.51-.08a4.71,4.71,0,0,0,.82-1.51l.75-.26a6.1,6.1,0,0,1,.5-1.63,4.34,4.34,0,0,1-.16-.79c3.87-2.38,7,3,9.64,3.17a7,7,0,0,0,1.58,0c1.27-.21,5.28-2.73,7.4-3.33a17.15,17.15,0,0,1,4.58-.27c.81.76,3.72.91,4.85,1.07a50.36,50.36,0,0,1,5.26.55c1.69.45,3.15,1.57,4.91,1.88.77.13,1.55.11,2.33.2,1.45.17,2.92.52,4.38.63.76,0,1.56-.15,2.3-.07,1.27.13,2.18,1.26,3.52,1.45a6.13,6.13,0,0,0,3.24-.69l-.11-.62c-.67-.8-1.85-.14-2.66-.59l-.31-.56.28-.66a4.53,4.53,0,0,0,2.19-.93c.15-.11.39-.19.53-.31,1.43-1.34.08-4.71,2.71-4.65.42,0,1,.23,1.39.28.49-.34.75-.9,1.22-1.25A2.52,2.52,0,0,1,144.79,31c.22.58.15,1.32.61,1.8a4.29,4.29,0,0,0,.47.32c.58.32,1.23.46,1.8.79.4.23.74.59,1.16.78l.37.16c.49.67.72,1.5,1.69,1.59a2.25,2.25,0,0,1,1.16-.45l.67.28c.43.51.11,1.17.61,1.7s1.49.59,2.1,1.11c.95.78,1.82,2.62,3.22,2.53l.28-.56c-.07-1.34-2-2.66-2.91-3.53a26.78,26.78,0,0,0-2-2.12,29.13,29.13,0,0,0-3.49-2.18c-.66-.36-1.34-.26-2-.55-1.32-.62-1.25-3.42-2.61-4a12,12,0,0,0-1.3-.24c-2.61-.69-2.92.13-4.88,1.28-1.68,0-3.93-.74-4.46,1.59a1.87,1.87,0,0,0,.22,1.46,1.76,1.76,0,0,1-.44,1.18,7.33,7.33,0,0,1-2,1.25c-2.11,1.06-3.88,2.44-6,.43a2,2,0,0,1-.7-1.41c.1-2.23,4.67-2.3,5.9-3a2.09,2.09,0,0,0,.81-.83c.08-.2.09-.45.16-.66.34-1,1.09-1.81,1.36-2.77a13.91,13.91,0,0,0,.61-3.5,7.47,7.47,0,0,0-1.11,1.32c-2.16,2.51-3.29,5-6.23,6.86a6.45,6.45,0,0,1-1.58.83c-.42.11-1,.3-1.36.38-1.61.29-5.28-1.15-6.54-.8l-.34.45.14.66c-.92,1-3.67,1.4-5,1.46l-.31-.52c.17-.39,1.29-1.13,1.69-1.63l.11-.63-.47-.31c-.77,0-1.44.26-2.19.31-1.49.11-5.41-.57-6.4-1.8l-.06-.73c.53-.93,1.79-1.8,2.08-2.8.42-1.44-.68-2.5-2-2.74s-5.13,1.11-5.9,2.29a10.78,10.78,0,0,1-.42,2.84c-.73,1.5-2.62,2.37-3.74,3.57-.68.72-1.32,1.49-2,2.22a7.92,7.92,0,0,1-.94.65,5.82,5.82,0,0,1-1.5,0,12.92,12.92,0,0,0-2.74-2.18c-3.23.79-2.27,0-4.88-1l-.67.14-.33.49-.69-.1-.64.09c-.11-.19-.33-.59-.38-.64-.77-.85-1.64-1.69-2.36-2.58-.11-.13-.28-.69-.38-.79a10.82,10.82,0,0,0-2.85-1.85c-.47-.27-.87-.65-1.34-.93-1.43-.84-4.42-1.4-5.57-2.42a2.65,2.65,0,0,1-.24,1.42,14.65,14.65,0,0,1-3.68,3l-.33-.06-.41-.82-.49.57a22.47,22.47,0,0,1-3.66.51c-1.26-.51-1-3-2.61-3.72l-.1.27c1.6,1.08.71,3.39,3.29,4.42l.22.45-.17.42c0,.37.39.57.49.86a10.82,10.82,0,0,1,.07,2.9c-.82.34-.69,1.78-.81,2.43-.07.41-.32.81-.39,1.22-.14.75-.05,1.53-.24,2.29a2.7,2.7,0,0,0,1.14.34,6.79,6.79,0,0,0,3,1.83c.26.3.91,1.24.81,1.69l-.61.69-.86-.52-.59.14L62,44.7l-.59.12L61,45.3l-.77-.06-.42,1.22c.1.25.45,1.32.72,1.39l.85.14.19.37a3,3,0,0,1-.82,1,6.14,6.14,0,0,0-2.18-.82c1,1,.34,2.67,2.32,2.63l.93,1a2.57,2.57,0,0,0,2.71,2.36,6.59,6.59,0,0,1,.85,1.42l-.58.27a2.34,2.34,0,0,1-.61.75,1.75,1.75,0,0,1-.82,0l-.15.3.32.72-.43.13c-1.85-1,0-2.14-2.56-3.51l-.93-.06-.26-.22-.16.57L59.82,56l-.07.2c-.88-.27-1.14-1.07-2.28-1.12l0,.49.94.16A2.56,2.56,0,0,0,59.55,57l.28.61c.45,0,1.72.92,1.78,1.36a2.48,2.48,0,0,0,.54,2.14l0,.38-.37.21-.24.88-.24.15-.51-.32a3.86,3.86,0,0,0-1.59.77,3.06,3.06,0,0,0-1.61-.45l-.45.22-.32.64-.21.12L55.93,62l-1.13-.58-.35-.77L54,60.33l-.42-1.06-.23-.15-.63,0-.51-.68-.75.21c-.57-.24-.73-1.11-1.08-1.56-.86-1.13-2.3-.48-3-1.21-.39-.4-.62-1-1-1.43-.55-.59-1.26-.81-1.69-1.58l-.24.45L42.76,53a3.72,3.72,0,0,1,1.84-.24c-.05-.23-1.43-1.38-1.73-1.85l-.7-.23a1.86,1.86,0,0,0-1.09-.91l-.08.52a2.11,2.11,0,0,0,.63.85,3.51,3.51,0,0,0,.08,2.17c-.7.29-.89.35-1.19,1.1l-.58.33c-.28-.1-.64-.73-.74-1l-1-.27c-.86-.43,0-2-2.27-3.56a2.84,2.84,0,0,0-1.57-.55l-.48-.7-.56-.13-.27-.39L32.66,48a10.21,10.21,0,0,0-1.85-4.09l-.87-.41c-.82-1.77-3.28-4.6-5-5.13l-1.07-.63a16.38,16.38,0,0,0-4-1.83c-.64-.64-.5-2.87-1.47-4.13-.43.47-.54,1.12-1.05,1.53a1.62,1.62,0,0,0-1.08.45l-.19.62c.11,1.08,1,1.61,1.77,2.29l.28,1.05c-.61.68-3.54,0-4.4,3.59l.25.55,1.34.81.1.26c-.4.21-1.21-.4-1.93-.23l-.34-.19-.48.22a2,2,0,0,1-1.23-.44,1.71,1.71,0,0,1-1.27.22l-.1-.27c0-.51.68-.71.81-1a9.9,9.9,0,0,0,.38-.95c.62-1.56,1.42-2.91,2.11-4.42a53.86,53.86,0,0,0,2.4-7.55c.8-2.74,2.05-4.85.65-7.58l-1-.72a2.29,2.29,0,0,0,.05-1.32c-.54-1.95-1.61-1.73-1.66-3.57-.37-.36-1.43-1.5-1.13-2.13l.45.17.77,1,.84.85c1.75,2.07,3.91,3.79,5.41,6.07,1.71,2.57,3,5.5,4.77,8a10.23,10.23,0,0,0,1.72,1.56,16,16,0,0,0,1.77,1.52,2.75,2.75,0,0,0-.27-1.32c-.25-.48-2.09-3.84-2.31-4.09a51.8,51.8,0,0,1-4-5c-.24-.37-.35-.74-.55-1.11-.55-1-1.44-2-1.91-3a12.37,12.37,0,0,0-1-2.18c-.69-1-1.82-1.36-2.64-2.25l-.42-.74a7.34,7.34,0,0,0-1-2.69L14,9.71l-.26.1a1.78,1.78,0,0,1-.42-1.38,1.36,1.36,0,0,0-.79-.28l-.4-.6,0-.57a3.17,3.17,0,0,0-.76-.38c-1-1.73-2.34-1.8-4.12-1.9l.24-.17.58,0,.26-1.07C7.65,3.17,7.69,2.33,6.61,2l-.1.5.61,1.26-.46,1,.28.66L6.33,5.1l.29.66.19-.15a1.22,1.22,0,0,1,.25.61,1.25,1.25,0,0,1-.78.13,5.68,5.68,0,0,0-1-1.59l.09-.36a1.33,1.33,0,0,0-.58-.47l0-.27.54-.15A12.08,12.08,0,0,0,5.64.59C5.51-.87,4.38-4.35,2.88-4.85a6.45,6.45,0,0,0-.79-2.77l-.63-.31-.41-.81L.57-9A2.68,2.68,0,0,0,0-10.41l.09-.66C-.36-12-1-12-1.79-12.41c-.22-.13-.43-.45-.64-.61a10.37,10.37,0,0,1-.92-.59c-.9-.87-.61-1-2.07-2-.74-.5-5.23-2.9-5.49-3.28l-.69.35-.18-.59a4.58,4.58,0,0,1-1.28-1.76c-1-.45-1.57-1.29-2.69-1.48a1.17,1.17,0,0,0-.6-.64l-.23-.66a4.64,4.64,0,0,0-1.72-.86l-.34-.58h-.53l-.63-.7c.3-1-.7-2.41-1.39-3a4.07,4.07,0,0,1-1.61-.92l.27-.48,0-.32c-1.33-1-1.65-2.9-3.06-3.84l-.13-.64-.21-.2-.2-.85a3.87,3.87,0,0,1-1.08-1.67l-1.19-.73a1.58,1.58,0,0,1-.06-.89c-.4-.41-.57-1-.93-1.4s-.7-.47-.94-.76-.37-.81-.6-1.15-.88-.51-1.33-.75c-.82-.44-1.36-1.31-2.11-1.75-.07,0-1.45-.49-1.62-.55a3.43,3.43,0,0,0-1.38-1.15v-.57c-.45-.38-.54-1.13-.89-1.59a5.82,5.82,0,0,0-2.33-1.74c-.09-.59-1.41-1.74-1.84-2.07l-1.06,0a2.08,2.08,0,0,0-1.1-.68l.19-.42a2.47,2.47,0,0,0-1.14-1.71c-1.27.3-1.9-2.18-3.09-2.07C-50-59.26-48.95-60.1-51-61.7a2.51,2.51,0,0,0-1-.53l-.13-.33c-.26-.64-1-1-1.46-1.43s-.66-1.09-1-1.31l-.21-.15-.24-.61-1.22-.35-.33-1.06.42-.7a20.18,20.18,0,0,0-1.57-2.5l.24-.1.54.16.38-.11c.34-.47.82-1,1.11-1.49.5-.89.78-1.83,1.37-2.82a2.76,2.76,0,0,0,.37-.61,25,25,0,0,0,.59-3.15,3.49,3.49,0,0,1,.26-1.32,7.9,7.9,0,0,1-.4-2.36c-.09-.49-.34-1-.46-1.46s-.18-1.12-.32-1.66a7.51,7.51,0,0,1-.33-.71c-.12-.58,0-1.28-.2-1.85s-.77-1-.63-1.72l-.52-.72.17-.34a1.47,1.47,0,0,1-.22-1.1l-.81-.67-.42,0-.37-.6.19-.42-.12-.42.25-.37c-.3-.55-.59-1.15-.93-1.67-.63-1-1.18-.85-1.44-2.5a2,2,0,0,1-1.14-.41l-.12-.43.22-.5-.52-1,.06-.22.38-.11.06-.33a1.82,1.82,0,0,0-.56-.78l.44-.41-.65-.55-.09-.42.19-.42-.75-1.88.09-.33-.8-1.73-.58.09c-.71-.4-.12-1.44-.37-2l.12-.19.58,0L-63-111l.32-.56-.29-.2-.66,0-.8-.57.21-.53.59-.26.26-.34-.59-.8,0-.46-.29-.17-.24.07-.54-.83.15-.31a1.81,1.81,0,0,0-.88-.89l-.17-.45.45-.6-.35-.6.28-.26.48,0,0-.3-.59-.31-.12-.51a1.11,1.11,0,0,0,.53-.72l-.26-.57a1.26,1.26,0,0,1,.28-.67l-.13-.62.17-.25c-.1-.32-.32-1.34-.09-1.65l.4-.22.18-.88-.46-.56.06-.33.73-.27A1.51,1.51,0,0,0-65-127l-.31-.74.11-.41.5,0,.12-.25-.33-.6.12-.69.39-.29.92-3.4-.38-.52.07-.25.69,0c1.63-2,2.21-4.63,2.81-7.08.46-1.85-1.32-2.45-1-4a3.52,3.52,0,0,1-1-2.23c.2-.48.46-1,.61-1.5s-.28-1.08-.4-1.57c-.24-1,.21-1.92-.17-3.38-.09-.34-.52-1.07-.55-1.31-.1-.92.2-1.9-.24-2.81-.07-.14-.6-.61-.7-.79-.68-1.11-.51-1.9-2.1-2.21-.4-.4-.78-1.25-.39-1.78l-.48-.76.14-.68c-.84-1.88-.38-3.13-.47-5.09a26.76,26.76,0,0,0-1.23-5c-.75-.81-1.72-.93-2.56-1.5A28.37,28.37,0,0,0-73.4-178c-1-1.35-1.51-4.92-2.46-6-2.6-.82-3-3.94-4.53-5.83-.32-.4-.83-.72-1.18-1.11s-.71-1.24-1.11-1.62c-.13-.13-.72-.41-.8-.52-.27-.31-.39-.85-.65-1.19s-.66-.55-.93-.83c-.08-.09-.22-.41-.3-.47-.5-.38-2.32-2-2.93-1.89l-.53.66c-.08-.06-.9-.77-.92-.81-.48-1-.39-.47-.36-1.84.11-4.33-.31-3.91-3.15-7.57-.76-1-3-1.16-4.06-1.74-.62-.35-.88-.87-1.41-1.21s-1.17-.48-1.68-.78c-.84-.5-1-1.38-1.57-2a1.85,1.85,0,0,0-.37-.25c-.74-.51-1.22-1.22-1.91-1.72s-2.41-1.19-2.9-2l-.2-.32-.2-.32c-.14-.06-2-.89-2.06-.93-.31-.25-.53-.67-.83-.93s-.86-.49-1.15-.8c-.78-.82-1.37-1.94-2.18-2.71-.14-.14-1.25-.59-1.43-.75l-.85-1.08c-1.22-1.53-.41-3.16.12-4.92a18,18,0,0,0,.65-1.77c.32-1.87-.81-2.51-1.28-4,0-.07-.08-1.64-.09-1.82-.07-1.44-.75-4.76-2.53-5.19a11.27,11.27,0,0,1-1.54-4.31,23.84,23.84,0,0,0,2.33-6.82l-.35-.75c-.06-.45,1-2.1,1.21-2.65.79-2,1.52-4.09,2.37-6.09.2-.47.56-.9.76-1.37.52-1.27.71-2.79,1.69-3.83l.58-.16.46-.64-.26-.27.28-.06,0-.69-1,1.36-.06-.17a87,87,0,0,1,7.05-12.2c.55-.8,1-1.7,1.45-2.55,1.25.15.13,2.44-.12,3.07a6.14,6.14,0,0,1-1.25,2.37c-1,1.25,1,2,2,2.11s1-.36,1.38-1.1a7.09,7.09,0,0,0,0-3.4,4,4,0,0,1,.94-2.81,6.5,6.5,0,0,0,1.61-3.29c.09-1.24,2.53-3.38,3.18-3.39s3.35-.49,4.41-.7,1.44-1.79,2.52-3.36-2-1.31-3.77-1.56a3.17,3.17,0,0,0-3.21,1.29c-.53.65-1.73,2.71-2.33,3.5s-1.4,3-2.27,4.29a7.45,7.45,0,0,1-2.26,2.11l-.54-.23-.16-.29a59.88,59.88,0,0,0,5.08-9c.77-1.69,1.38-3.46,2.15-5.14.31-.68.88-1.36,1.13-2.05a34.84,34.84,0,0,0,.86-3.38,22.36,22.36,0,0,1,.91-3.79,33.91,33.91,0,0,0,1.25-7c0-.72-1-2.26-1.31-2.8-.22-.39-.66-1.25-1.25-1.38l-1.27.54-.15-.37.33-.43,0-.55-.2-.33-.62-.16a2,2,0,0,1,.23-1.22,1.37,1.37,0,0,1,0-1.42l-.72-1.29c.16-.89.53-2.52-.27-3.23l.34-.65-.11-.51.61-.6.86.31c.52-.46,1.45-3.26,1.71-4a60.14,60.14,0,0,0,2.08-7.22c.13-.58.08-1.23.21-1.81,0-.17.34-.62.36-.76.1-.67-.06-1.51.09-2.15.27-1.15,1.19-2.28,1.32-3.47.06-.56,0-1.17,0-1.74.12-1.84.9-3.62,1.2-5.41.26-1.6,1-6.83,1-8.28a60.55,60.55,0,0,0-.79-6.17c0-.29-1.58-2.46-.94-3.83l-.52-.33.37-.44a2.43,2.43,0,0,1,.05-1.72l.32,1,.14-.93,2,.4-.45-.53a8,8,0,0,1-3-1.31c0-.09-.71-1.59-.71-1.62,0-.88.09-1.85,0-2.72,0-.14-.27-.75-.32-1-.24-1.16.19-1.09-1-2a17.47,17.47,0,0,0-1.41-4.28l-.62-.12a4.9,4.9,0,0,1-.56-2l.26-.59-.11-.48a9.43,9.43,0,0,1-.4-3.07,1.6,1.6,0,0,0-.12-1c-.85-1.29-1.63-2.7-3.07-3.43l-.75.08-.76-.69-.87.07-.58-.39-.64.05-.64-1c-1.13-.47-1.81-1.48-2.92-1.95l-.35-.68,0-.36c1.9-1.63,1.3-1.89,2.23-4l.94-2.1c.37-1.34.13-2.56.73-4.32s.55-6.56.54-8.42l.22-.09c.27.5-.12,1.85.32,2.9l.41-.26-.17-.18-.1-.84.51.46-.2-1.28.32.12,0-.36-.57-.32-.24-.91-.62-.08c-.34-1.13.28-1.73.28-2.6a24.06,24.06,0,0,0-.41-2.79,6,6,0,0,0-.45-1.07" fill="none" stroke="#0978ab" stroke-linejoin="round" stroke-width="0.5"/></g></g><g id="Layer_2" data-name="Layer 2"><path d="M68,134.8c0-.23,0-1,0-1.22a5,5,0,0,0-.29-.73c-.08-.16-.16-.32-.25-.48a5.58,5.58,0,0,1-.31-.72c-.14-.43,1-5.44,1.1-6.2a7,7,0,0,0,0-.81c0-.75,0-1.53,0-2.26l.24-.18a39.73,39.73,0,0,1,.43-4.14,1,1,0,0,0-.28-.44,1.24,1.24,0,0,0-.22-.18,1,1,0,0,0-.2-.13,8.79,8.79,0,0,0-.27-1.59.25.25,0,0,0,0-.09l0-.07a.12.12,0,0,0,0,0l-.31-.11-.11-.34c-.13-.41-.42-.78-.52-1.09s-.11-.86-.24-1.26c0-.13-.27-.35-.32-.49s-.06-.53-.16-.73-.41-.45-.53-.7-.2-.88-.37-1.28c0-.11-.44-.61-.45-.68l-.32-3.51c0-.28-.26-.81-.09-1.08l-.32-.28a.93.93,0,0,0,0-.29,9.27,9.27,0,0,0-.63-1.48,2.91,2.91,0,0,0-3-1.34A1.76,1.76,0,0,0,60,101l-.22.5-.32.07a1.53,1.53,0,0,0-.12-1l-.9-.57a3.6,3.6,0,0,0-.12-1.13l-.41-.41c.11-.54-.36-1.11-.24-1.64l.45-2-.32-.87A15.47,15.47,0,0,0,57.59,90l.38-.49a.35.35,0,0,0,.14.06,1.07,1.07,0,0,0,.33.07h.17a1.22,1.22,0,0,0,.45-.07l.24-.66-.16-.4.46-.86c0-.1-.13-.64-.12-.7a30.83,30.83,0,0,0,.17-8.26c-.14-1.48-.75-2.83-1-4.28a14,14,0,0,1,0-1.59,25.71,25.71,0,0,0-.5-4.94,1.86,1.86,0,0,1,.45-.77l.1-.1.1-.09a2.67,2.67,0,0,0,.91.06,2.17,2.17,0,0,0,.8-.21l.14-.1c.47-.39.58-1.29.8-1.83a1,1,0,0,1,.22-.36l.09-.06.49-.11a1.56,1.56,0,0,0,1.84.36,1.66,1.66,0,0,1,1.12-.07l.42-.27c.81.6,1.51-.2,2.28-.26a1.78,1.78,0,0,1,.66.4l.18.17a1.7,1.7,0,0,1,.19.19,11.5,11.5,0,0,1,1.47,2c-.28.62.08.91.12,1.43.06.77-.35,1.27.28,2.07a2.36,2.36,0,0,0,0,1.51l-.36.24,0,.28.09.18a1.69,1.69,0,0,1,.93,1l.43.22.54-.5A3,3,0,0,1,73,74l-.28.45.08.43-.48.59-1-.43-.07-.68-.61.26a1.32,1.32,0,0,1-.27.94,1.92,1.92,0,0,0,.38.43,1.42,1.42,0,0,0,.22.2l.46.38.22.21a1.8,1.8,0,0,1,.35.47v.35l-.32.07c-.12,0-.29-.14-.48-.33-.35-.37-.76-.93-1.06-1.26a.26.26,0,0,0-.09-.09L70,75.85l-.3,0-.11.42a7.07,7.07,0,0,1,.59,4.08l-.65,1,.15.18.3,0,.26-.23.13.29L70.2,82s.08.39.08.4l.54.32.07.24-.19.49a3.63,3.63,0,0,1-1.23,0l0,.4-.35.48.14.43.27-.37.28,0s.07.34.07.35l.55,0,.15.18-.45.38,0,.19.64.13.18-.09.48.35.69.07-.19.55.37.2.07.32-.24.47s-.58-.08-.58-.07a2.57,2.57,0,0,0-.31,1.16,1.3,1.3,0,0,0,.67.49.79.79,0,0,0,.23.08l.44.84.46.08.19.37.31,0a3.58,3.58,0,0,0,2.64-.38l.17-.16.34.14a3.13,3.13,0,0,0,.72,1.4l.68.78a1.22,1.22,0,0,0,.3.16,1.52,1.52,0,0,0,.38.11,2.83,2.83,0,0,0,.42.06,5.73,5.73,0,0,0,1.17,0l.55-.07.09,0a4.84,4.84,0,0,0,1-.23l.94.35a21.89,21.89,0,0,0,1.86,2.4,7.22,7.22,0,0,0,.71.66,2,2,0,0,0,.5.25l.28.11.26.12a1.67,1.67,0,0,1,1.66.25,1,1,0,0,1,.34.56,8.59,8.59,0,0,0-.86,1.68l.08.37.36.17a1.48,1.48,0,0,0,.35.7.13.13,0,0,0,.07.06c.21.16.47.16.84.39s.75.72,1.23,1l.18-.11.26-.07a2.44,2.44,0,0,1,.63,0l.21.13a4.46,4.46,0,0,1,.43.33,1.8,1.8,0,0,1,.2.19l.2.2a5.43,5.43,0,0,1,.48.62s.3,0,.3,0l.17-.35a1.33,1.33,0,0,0-.39-.64l-.18-.18-.19-.18a1.6,1.6,0,0,1-.44-.62l.18-.61a1.78,1.78,0,0,1,.46-.21,1.1,1.1,0,0,1,.45-.08,5.5,5.5,0,0,1,.63.43,1.85,1.85,0,0,1,.51.56c.43.61.32,1.29.6,1.91a8.52,8.52,0,0,0,1.55,2.56,2.16,2.16,0,0,0,.27.25,3.7,3.7,0,0,0,1.32.7,2.75,2.75,0,0,0,.41.11,5.76,5.76,0,0,0,.78.13,24.87,24.87,0,0,1-.91,5.06c-1.26,4.75-4.91,9.92-7.93,13.77a25.34,25.34,0,0,1-3.07,3.23c-5.53,4.92-12.19,6.87-19.22,8.52Z" fill="#b85f49" opacity="0.8"/><path d="M71.36,139.57l-.1-.1c-.19-.18-.36-.39-.56-.57a.43.43,0,0,0-.12-.11,1.15,1.15,0,0,0-1.14-.23l-.37-.28Z" fill="#0978ab" opacity="0.8"/><path d="M120.12,168.47c-.43-.84.38.72,0,0a10.72,10.72,0,0,0-3.1-3.88c-.17-.14-.37-.28-.57-.42l-.64-.41c-.31-.2-.65-.4-1-.58a3.76,3.76,0,0,0-2.09-.48l-1.59.8c-.39.21-.44.74-.68,1.05a.93.93,0,0,1-.18.16l-.1.06-.21.14a.74.74,0,0,0-.23.31,1.25,1.25,0,0,1-.95,0l-.28-.31-1,0a2.28,2.28,0,0,0-.89-.48,2,2,0,0,0-.7-.09l-.26-.3a.48.48,0,0,1-.16.23,1.92,1.92,0,0,1-.6.38,1.09,1.09,0,0,1-.27.11l0,.62-.16.25h0a.26.26,0,0,1-.14.06h-.09l-.25,0a.39.39,0,0,1-.15,0,3.35,3.35,0,0,0-1.33.24,1.25,1.25,0,0,0-.3.21l-.21-.1-.25-.08-.2,0-.09,0a1,1,0,0,0-.3,0l-.42.21L100,166h0l-.43-.42-.49,0-.56-.29-.9.17-.35-.28-.46,0a1,1,0,0,0-.2-.22,1.75,1.75,0,0,0-.75-.34l-.14,0-.44-.43-.58.15a2.86,2.86,0,0,1-.3-.22,3.4,3.4,0,0,1-.29-.26,8.23,8.23,0,0,1-.86-1l-1,.18h0a1.34,1.34,0,0,0-.58-1.21,3.24,3.24,0,0,0-.66-.36h0v-.17l-.16-.16c-.18-.14-.36-.26-.54-.38l-.18-.11a3,3,0,0,1-.52-.36,2.44,2.44,0,0,1-.38-.5.64.64,0,0,0-.13-.15l-1-.85c-.34-.29-.7-.59-1-.8l-.27-.22-.14-.11a.79.79,0,0,0-.27-.1l-.29,0-.21-.06a.39.39,0,0,1-.19-.12.4.4,0,0,1-.1-.12c0-.11-.28-1-.31-1a36.11,36.11,0,0,1-4-5.95c-.23-.44-.67-.57-.88-1.35-.51-.32-1-.69-1.49-1.07a17.91,17.91,0,0,1-1.37-1.21l-.47,0-1.56.84h0l-.21-.68-.56-.25-.29-2.17-.51-.37h0l-.15-.47a1.09,1.09,0,0,1-.55-.2,1.7,1.7,0,0,1-.22-.15,3.94,3.94,0,0,0-.68-.39h0l.17-1.36-.78-1.19a1,1,0,0,1-.54-.24h0a.43.43,0,0,1-.1-.09c-.19-.18-.36-.39-.56-.57l-.12-.11a1.18,1.18,0,0,0-1.15-.21l-.37-.27h0a2.2,2.2,0,0,0-.55-1.15.57.57,0,0,0-.13-.1,1.84,1.84,0,0,0,0-.61c1.32-2.47,2.57-4.77,5.23-6.35a30.09,30.09,0,0,1,6.8-2.68,14.08,14.08,0,0,1,5.23-.89,11.18,11.18,0,0,1,3.49,1l1.08.5,8.12,3.77a12.5,12.5,0,0,1,4,2.51,22.64,22.64,0,0,1,2.47,3.93c2.28,3.61,6.21,5.86,10.17,7.47s8.13,2.75,11.83,4.9a9.9,9.9,0,0,1,2.86,2.27C134.87,159.82,125,164.67,120.12,168.47Z" fill="#c99e6b" opacity="0.8"/><path d="M158.69,150.78a4.17,4.17,0,0,1-5.53,3.22,24.83,24.83,0,0,1-4-2,95.42,95.42,0,0,0-13.25-6.56c-2.86-1.14-6.09-2.15-9-1a9.9,9.9,0,0,0-4.25,3.72,4,4,0,0,1-.8.83,4.18,4.18,0,0,1-3.53.76,25.08,25.08,0,0,1-14.65-9.85,60.39,60.39,0,0,0-3.81-5.5,13.59,13.59,0,0,0-7.36-4.24,4.25,4.25,0,0,1-2.94-2.21c-.07-.13-.13-.28-.19-.42a3.93,3.93,0,0,1-.21-1.72,12.88,12.88,0,0,1,1.37-4.48c1.84-3.57,5.18-6,6.55-9.82L99,106.36l.53.07.34,0,.37,0a15.56,15.56,0,0,0,1.89.07,4.46,4.46,0,0,0,.78-.15l.41-.16c.32-.49.71-.91,1-1.41l-.3-.48a6.4,6.4,0,0,1-2-.49h0l-.3-.47c0-.5.15-1,.13-1.49a1.76,1.76,0,0,0-.63-1.15l-.29-.24a4.84,4.84,0,0,0-1-.56.86.86,0,0,0-.21-.07,4,4,0,0,1,1.47-.86l.07,0a4.15,4.15,0,0,1,.76-.17c6.24-.8,12.25-2.56,17.14,2.57,2.29,2.4,4,5.34,6.43,7.58s5.76,3.78,8.75,5.52a3.76,3.76,0,0,1,1.52,1.35,5,5,0,0,1,.22,2.4c0,3.26,2,6.26,4.64,8.18a25.16,25.16,0,0,0,6.87,3.29,4.15,4.15,0,0,0,3.75-.57l.32-.23a4.15,4.15,0,0,1,6.43,2.15c.13.49.24,1,.33,1.46A53.27,53.27,0,0,1,158.69,150.78Z" fill="#c8794e" opacity="0.8"/><path d="M223.52,235.27c-.48,2.21-1.46,4.6-3.68,5.54-2.56,1.09-5.72.54-8.21-.49l-.09,0c-2.8-1.16-4.42-3.3-6.59-5.27q-4.2-3.83-8.38-7.68c-2.55-2.37-5.39-4-7.2-7.1-.71-1.22-1.25-2.54-2.06-3.69a5.49,5.49,0,0,0-3.32-2.44c-1.4-.27-2.83.27-4.26.2-2.45-.12-6.9-2.42-10.15-4.47-.6-.38-1.17-.75-1.67-1.1s-1.1-.78-1.48-1.1c-3.61-3-7.41-4.62-10.37-8.48-2.52-3.31-5-6.68-7.19-10.18-5.12-8-15.84-8.74-23-7.73a4.49,4.49,0,0,1-.34-.51h0a2.41,2.41,0,0,1-.15-.33c-.33-.82-.47-1.8-.79-2.62l0-.05-.12-.09,0,0c-.55-1-.81-2-1.29-2.92s-1.13-1.82-1.63-2.76c-.23-.43-.44-.85-.63-1.25-.1-.2-.2-.39-.29-.59l-.59-1.19v0a.17.17,0,0,1,0-.05l0,0s0,0,0,0a.17.17,0,0,1,0-.05h0a0,0,0,0,1,0,0l0-.08h0l0-.07h0v0a0,0,0,0,0,0,0l-.18-.33,0-.1,0,0-.14-.24c-.09-.16-.19-.31-.29-.46a1.38,1.38,0,0,0-.17-.25s0,0,0,0a2,2,0,0,0-.18-.25,7,7,0,0,0-.49-.62h0c3.5-3.39,10.66-3.8,10.91-8.69.08-1.49-3-4.46-3.88-5.7a5.22,5.22,0,0,1-.73-1.62,5.57,5.57,0,0,1,1.19-5,4.1,4.1,0,0,1,.62-.63l1-.84a3.77,3.77,0,0,1,4-.53c2.66,1.26,5.31,2.51,8,3.8l0,0c3.31,1.61,6.6,3.28,9.81,5.09a8.17,8.17,0,0,0,8.75-.84,2.19,2.19,0,0,0,.87-1.54c.1-.9.19-2.15.43-3.36a6.35,6.35,0,0,1,1.42-3.19,2.8,2.8,0,0,1,3.24-.39,20.28,20.28,0,0,1,2.89,1.65,21.33,21.33,0,0,0,6.06,2.33,8,8,0,0,1,6.15,7.15c.44,6.71-.53,13,3,19.18,2.25,4,5.8,6.74,8.9,10,3.52,3.67,9.09,6.27,12.32,10.2a21.06,21.06,0,0,1,3.14,6,10.62,10.62,0,0,1-.68,7.7c-.84,1.81-2.1,3.48-2.5,5.44-.71,3.52,1.91,6.87,4.38,9.1,2.2,2,5.11,2.8,7.55,4.41a46.23,46.23,0,0,1,5,3.88c1.16,1,3.05,1.94,3.49,3.51A4.36,4.36,0,0,1,223.52,235.27Z" fill="#826e41" opacity="0.8"/><path d="M171.6,208.31c-1.75.9-3.16,2.72-4.39,4.36a82.84,82.84,0,0,1-9,10.17c-1.28,1.23-2.67,2.53-3,4.27-.46,2.26,1,4.47,1.08,6.77.17,3.33-2.4,6.26-2.55,9.58s2.06,6.19,4.56,8.3,5.4,3.78,7.52,6.27c1.72,2,2.91,4.62,5.12,6.12s5.26,1.65,8,1.54a13.76,13.76,0,0,0,6.23-1.31c2-1.09,3.35-3,4.73-4.79a30.74,30.74,0,0,1,8.57-8.14c2.66-1.53,5.66-2.41,8.28-4s4.94-4.25,4.87-7.32c0-2.26-1.37-4.28-2.65-6.15-4.56-6.68-9.38-13.21-13.8-20-1.9-2.74-4.65-5.83-7.88-5-3.45.84-4.74,3-8.45.85-1.56-.89-3.12-2-4.91-2.05A4.79,4.79,0,0,0,171.6,208.31Z" fill="#486c50" opacity="0.8"/><path d="M168.53,213.45a7.45,7.45,0,0,1-1.88,2.62,51.86,51.86,0,0,1-6.39,5.84,22.77,22.77,0,0,1-3.12,2,18.53,18.53,0,0,1-8.76,2.11h-.87c-4.91-.12-9.75-1.29-14.66-1.6-1.87-.11-4.11.09-5.06,1.7a1.87,1.87,0,0,0-.22.56,4.37,4.37,0,0,0,1,3.87l3.14,3.63c2.54,2.94,3.94,6.8,2.6,10.61-1.08,3.08-4.59,6.91-8.2,5.53l-.06,0-.29-.12c-.23-.09-1.2-.23-1.35-.31l-.3-.18c-.19-.13-.38-.28-.57-.43l-.29-.24-.59-.47a5,5,0,0,0-.61-.41c0-.07,0-.14-.06-.22s0-.14-.06-.22-.06-.2-.1-.31-.06-.18-.1-.28-.07-.2-.11-.3l-.13-.3,0-.08c-.06-.13-.12-.26-.19-.39s-.13-.25-.2-.36a.43.43,0,0,0,0-.07.61.61,0,0,0-.07-.1,1.74,1.74,0,0,0-.11-.18,2.57,2.57,0,0,0-.39-.47,1.67,1.67,0,0,0-.9-.52l-.12-.18-.08-.1-.07-.08-.17-.18-.2-.18-.2-.16a3.19,3.19,0,0,0-.42-.26l-.2-.09a1.88,1.88,0,0,0-.35-.64l-.12-.13a.2.2,0,0,0-.09-.09l0,0a.78.78,0,0,0-.21-.16.39.39,0,0,0-.14-.08l-.09-.06-.16-.07-.09,0-.25-.09a5.88,5.88,0,0,0-.73-.14l.55-.67a9.55,9.55,0,0,0,.14-2.26l.25-.42c-.09-1.23-1-1.89-1.5-2.91l.4-1.1-.36-.69a3.09,3.09,0,0,1,.46-1,1.41,1.41,0,0,0,0-.48.2.2,0,0,0,0-.11.14.14,0,0,1,0-.06l0-.05-.09-.14a.61.61,0,0,0-.16-.16,2.06,2.06,0,0,0-.41-.3c-.08,0-.16-.1-.24-.15l-.25-.18.4-.55-.15-.35.06-.3-.34-.5a5.12,5.12,0,0,0-1.7-4.65c.87-1.62-.45-2.53-.67-4.44l-.45-.28.54-.49c.45-1.82-1.17-2.41-1.25-2.81,0,0,.24-.44.24-.45h.11a.91.91,0,0,1,.26.05l.14,0a.84.84,0,0,1,.14.06l.14.07.23.13.08.05a.43.43,0,0,1,.1-.09l.11-.1.14-.09.09-.06.11,0a1.63,1.63,0,0,1,.25-.1,1,1,0,0,1,.29,0l.1-1.19a.45.45,0,0,0-.06-.13.21.21,0,0,0,0-.06.1.1,0,0,0,0-.05l0-.06,0-.05-.14-.14-.15-.12-.12-.1-.07-.32.31-.29a1.43,1.43,0,0,0,0-.94,1.21,1.21,0,0,0,0-.18,1.71,1.71,0,0,0-.07-.18,1.31,1.31,0,0,0-.26-.42.47.47,0,0,0-.12-.09h-.37l-.07-.29a.47.47,0,0,0-.16-.11l-.13,0-.07,0a.11.11,0,0,1-.08,0l-.15,0-.1,0-.1,0-.08,0-.06,0-.19.58-.29-.07-.58-.62-.54-.05-.45-.9s-.52-.21-.52-.22l-.07-.29L109,209l.73,0,.24-.47-.13-.4c.35-.51.42-1.39.81-2l.14,0H111a1.1,1.1,0,0,0,.26-.06l.13-.06.23-.75.36-.2c.18-.37.52-1.45.28-1.86,0,0,.19-.36.19-.37h.48l.25,0a1.09,1.09,0,0,1,.26.05l.2.08.42.79,1.69.89a4.26,4.26,0,0,0,.57,1l.06.09.2.26.2.24c.13.16.27.32.4.46a1.65,1.65,0,0,0,.32,0l.23,0,.3,0a1.89,1.89,0,0,0,.4-.08l.23-.09.28-.14.15-.1,0,0,.06,0,.1-.08,0,0c.13-.09.25-.19.37-.29a11.21,11.21,0,0,0,1.2-1.31c.09-.11.33-.75.44-.92a13.32,13.32,0,0,0,1.26-2c.12-.32.23-.62.33-.91s.1-.27.15-.42c.25-.67.46-1.25.65-1.78,0-.11.08-.21.11-.32s.07-.21.1-.3.07-.2.1-.3.12-.38.17-.57.06-.19.08-.28a2.86,2.86,0,0,0,.07-.28,2.46,2.46,0,0,0,.07-.29,1.31,1.31,0,0,0,.06-.27c.07-.27.12-.56.17-.85s.07-.4.09-.61.06-.42.08-.64,0-.33,0-.5a1.36,1.36,0,0,0,0-.21c0-.36.06-.75.09-1.17q0-.24,0-.51c0-.28,0-.57,0-.88a5.5,5.5,0,0,1,.15-.77l1.21,1.07.07-.29-.89-1.07.07-.71-.2-.23c.58-1.65,0-3.49,1.19-4.84l-.19-.58c.34-.62-.15-1.31-.54-1.86a3.32,3.32,0,0,1-.34-.53c-.3-.91,10.76-4.62,15.5-3.87a6.27,6.27,0,0,1,4.42,3.71c4.1,8.63,8.06,12.9,15,19.46,2.8,2.63,5.92,5.26,7.43,8.72a10.57,10.57,0,0,1,.56,1.58c.05.19.1.38.13.57A4.94,4.94,0,0,1,168.53,213.45Z" fill="#a6ae65" opacity="0.8"/><path d="M99.47,28.21c0,.08,0,.17,0,.27s-.08.21-.13.32a4,4,0,0,1-.74,1q-.33.33-.72.66c-.26.22-.53.42-.8.62a13.44,13.44,0,0,0-1.48,1.27c-.67.72-1.32,1.49-2,2.21l-.17.14-.14.1L93,35a1.94,1.94,0,0,1-.33.2h-.08a5.93,5.93,0,0,1-1.11,0l-.3,0a25.19,25.19,0,0,0-2-1.73l-.2-.14a2.35,2.35,0,0,0-.33-.22.75.75,0,0,0-.25-.1l-.63.15-.52.1c-1.48.25-1.55-.14-2.62-.74-.15-.08-.31-.17-.49-.25l-.29-.13L83.55,32l-.66.14s-.33.48-.34.48h-.08l-.6-.08-.65.08c-.11-.2-.32-.59-.37-.64-.51-.55-1.06-1.11-1.58-1.68.12.12,1.21-1.72,1.27-1.92.27-.9.11-1.94.67-2.75a3.88,3.88,0,0,1,2-1.24q1.81-.7,3.57-1.56a6.56,6.56,0,0,1,3.14-.95c1.46.1,2.56,1.15,3.85,1.67s2.76.49,4.06,1C99.29,25.21,99.47,26.75,99.47,28.21Z" fill="#9e6985" opacity="0.8"/><path d="M158.67,114.75c.21,1.61.33,3.23.38,4.83.09,2.85-.2,6.1-2.42,7.88-2,1.63-4.94,1.43-7.52,1.1-4.49-.59-9.55-1.73-11.76-5.67-1.27-2.25-1.34-5.06-2.84-7.17-1.93-2.72-5.63-3.48-8.17-5.63-2.31-2-3.49-4.9-5.17-7.42-3.48-5.23-7.19-4.49-12.34-2.69-.73.25-6.66,2.32-7.06,1.43a2.06,2.06,0,0,0-.5-.66l-.29-.24a4.84,4.84,0,0,0-1-.56l-.22-.08a1.73,1.73,0,0,0-.33-.1l-.28-.06-.19.13a3.37,3.37,0,0,1-1.56.6l0,0,0,0C97,100,96.26,98.9,96.26,98.9c-.11-1.2-.54-3.46-1.54-4.39l-.21-.18-.15-.72-.43-.25c0-.66-.61-1.42-.72-2.15,0,0-.34-.2-.34-.21a2.74,2.74,0,0,1-.1-.31c0-.48.09-1,.08-1.47,0-1.18-.54-2.3-.33-3.48l-.35-.31a2.37,2.37,0,0,0-.23-1.77l.18-.53a5.35,5.35,0,0,1-.61-2.19c-.28-.17-.38-.48-.56-.71l-.09-.09,0,0c-.11-.09-.34-.24-.53-.38l-.22-.15a.92.92,0,0,1-.16-.13,7.1,7.1,0,0,1-1.16-2.65l-.41,0c-.21-.12-.5-1-.59-1.21l-.47.14-.16.07a1.44,1.44,0,0,0-.33.19,3.16,3.16,0,0,1-.6,1.39l-.54.11a8.43,8.43,0,0,0-1.31-1.78,3.57,3.57,0,0,0-.69-.54,3.93,3.93,0,0,0-.41-.21l.15-.12a1,1,0,0,0,.17-.18,1.66,1.66,0,0,0,.42-.68S83,73,83,73l0-.21a2.46,2.46,0,0,1,1.26.09l.19-1a2.75,2.75,0,0,0-.77-1.1l-.3-.3L83,70.24a2.83,2.83,0,0,0-.45-.33,1.66,1.66,0,0,0-.31-.12,3,3,0,0,1-.32-.09,1,1,0,0,1-.43-.24.49.49,0,0,1-.12-.13l-.7.12L80,69l-.73.17-.09,0-.1,0a2.85,2.85,0,0,1-.71-.39l.35-.55v-.25l-.85,0-.31.37c-.36.21-1.18-.19-1.47-.44l-.15-.8s-.3,0-.3,0l-.4-1.17a1,1,0,0,1,.35,0,.73.73,0,0,1,.22.09,3,3,0,0,1,.3.18l.1.06a1.28,1.28,0,0,0,.29.13,10.19,10.19,0,0,0,1.38.25c.92.13,1.58-.15,2.47-.09a1,1,0,0,0,.15.14,6,6,0,0,0,.56.36,2,2,0,0,1,.5.38.64.64,0,0,1,.1.13l.42,0,.16.11.42.27.75.52c.35.25.71.52,1,.78a4.27,4.27,0,0,1,1,1s0,.53,0,.54l-.63.39-.11.4c.43.5,1.13.32,1.63.89l.47-.32.43.38.37-.18A1.75,1.75,0,0,1,86.88,71s-.44-.08-.44-.09l-.27-.82s-.38,0-.38,0a1.48,1.48,0,0,0-.51-.85l-.15-.15A1.21,1.21,0,0,0,85,69l-.33-.29c-.27-.23-.54-.45-.69-.6L83.87,68c-.22-.24-.21-.54-.45-.78a1,1,0,0,0-.34-.21l-.76.12L82,66.78c-.68-.1-1.22-.81-1.82-.77-1.05.06-2.94.31-4.05-.38a1.44,1.44,0,0,1-.25-.18,1.14,1.14,0,0,1-.24-.25H76c0-.22-.37-.44-.42-.59l0-.3.73,0a1.35,1.35,0,0,0,.36-.27l.12-.12a3.34,3.34,0,0,0,.37-.5l.64-.08a.9.9,0,0,0-.23-.48l-1,.42-.7-.21-.7.17L75,63l.22-.4,3.45-.65.2-.38c-.25-.88-1.2-5.15-1.92-6a.46.46,0,0,0-.07-.07l-.07-.06S77,55,77,55l.31-.15a3.49,3.49,0,0,0-.43-.89l-.52-.06.22-.44a1.29,1.29,0,0,0-.55-.68,4.51,4.51,0,0,0-.75-.47.53.53,0,0,0-.2.05,1.41,1.41,0,0,0-.32.17l-.18.14-.07.07h-.54l.18-.51L74,52l-.49,0-.73.68a6.52,6.52,0,0,0-.56-1.75,3.22,3.22,0,0,0-.48,0h-.18l-.15,0,.72.77.25,1.12-.15.17-.49,0L71,52.37a1.76,1.76,0,0,0-.6,0,2.11,2.11,0,0,0-.38.12l-.21.11-.12-.31.41-.78-.08-.4-1.31-1.34-.93-.06-.06-1-.24-.29-.67-.24-.07-.37.24-.47-.07-.27-.42-.22L66.18,46a1.71,1.71,0,0,1,.87,0,1.6,1.6,0,0,0,.72,0l.24.93a1.08,1.08,0,0,1,.27.07,1.83,1.83,0,0,1,.42.21l.12.09a.47.47,0,0,1,.1.1l.08.09.12-.74h.41A1.42,1.42,0,0,1,70,46l.12-.12a1.16,1.16,0,0,1,.24-.19l.18-1.14.88.08a2.11,2.11,0,0,0,.37-.32,5.66,5.66,0,0,0,.84-1.42,1.18,1.18,0,0,0-.33-.77,10.55,10.55,0,0,1,3.86,1.07c1.87.89,2.06,1.87,4,2.69,2.11.91,9.86,2.19,12,3.19,6.34,3,8.64,12,16.37,12.54,3.71.24,7.39-1.94,11-1.11,3.45.78,5.73,4,8.75,5.87,2.69,1.64,6,2.2,8.37,4.31,5.12,4.6,2.66,13.35,6,19.37,2.16,3.91,6.43,6.1,9.54,9.32C156,103.49,157.93,109.05,158.67,114.75Z" fill="#7c4649" opacity="0.8"/><path d="M94.86,36.92l2-1h0a14.89,14.89,0,0,1-5,4.59,22.27,22.27,0,0,0-4,2.29,6.52,6.52,0,0,0-2.12,3.63c0,.27-.1.57-.17.85a1.71,1.71,0,0,1-.89,1.32c-.76.3-1.55-.32-2.21-.82A8.65,8.65,0,0,0,78,46c-1.71-.17-3.5.3-5.19.07a7.55,7.55,0,0,1-2.47-.81l.12-.74.88.08a2.11,2.11,0,0,0,.37-.32,4.62,4.62,0,0,0,.6-.91l0-.07s0,0,0-.05a.16.16,0,0,1,0-.07.61.61,0,0,0,0-.12,1.13,1.13,0,0,0,.09-.2.46.46,0,0,0,0-.2.07.07,0,0,0,0-.05v0a.93.93,0,0,0-.05-.1h0s0,0,0,0a.21.21,0,0,0,0-.07l-.05-.07-.1-.15,0,0a3,3,0,0,1-.67-1.29l.29-.56H72l.22.06.11,0a1,1,0,0,1,.28.18l.06.07a2.07,2.07,0,0,1,1.26.35,1.74,1.74,0,0,0,1.38.29l1.22-1.1.37,0a4.06,4.06,0,0,0,1.55,0l.25-.23c.32-.34.75-.87.7-1.17h0l.52-.08a4.47,4.47,0,0,0,.81-1.5h0l.75-.26a7.35,7.35,0,0,1,.47-1.58l0,0a3.09,3.09,0,0,1-.16-.79h0a3.73,3.73,0,0,1,3.38-.36,7.42,7.42,0,0,1,1.28.6l.4.25.19.13.39.26.25.18.36.27.21.14.59.44.45.32a8.09,8.09,0,0,0,1.1.65,3,3,0,0,0,1,.29l.34,0h.4a5.53,5.53,0,0,0,.84-.06l.27-.06c.2-.06.43-.16.7-.27S94.54,37.08,94.86,36.92Z" fill="#9e6985" opacity="0.8"/></g><g id="Layer_7" data-name="Layer 7"><line x1="103.49" y1="157.87" x2="103.49" y2="163.96" fill="#c8794e" stroke="#fff" stroke-miterlimit="10"/><line x1="105.28" y1="159.82" x2="101.7" y2="159.82" fill="#c8794e" stroke="#fff" stroke-miterlimit="10"/><line x1="115.41" y1="209.75" x2="115.41" y2="215.84" fill="#c8794e" stroke="#fff" stroke-miterlimit="10"/><line x1="117.21" y1="211.7" x2="113.62" y2="211.7" fill="#c8794e" stroke="#fff" stroke-miterlimit="10"/><line x1="166.74" y1="225.61" x2="166.74" y2="231.7" fill="#c8794e" stroke="#fff" stroke-miterlimit="10"/><line x1="168.54" y1="227.56" x2="164.95" y2="227.56" fill="#c8794e" stroke="#fff" stroke-miterlimit="10"/><line x1="149.44" y1="172.61" x2="149.44" y2="178.71" fill="#c8794e" stroke="#fff" stroke-miterlimit="10"/><line x1="151.23" y1="174.57" x2="147.64" y2="174.57" fill="#c8794e" stroke="#fff" stroke-miterlimit="10"/><line x1="102.28" y1="110.53" x2="102.28" y2="116.63" fill="#c8794e" stroke="#fff" stroke-miterlimit="10"/><line x1="104.08" y1="112.48" x2="100.49" y2="112.48" fill="#c8794e" stroke="#fff" stroke-miterlimit="10"/><line x1="106.57" y1="88.17" x2="106.57" y2="94.27" fill="#c8794e" stroke="#fff" stroke-miterlimit="10"/><line x1="108.36" y1="90.13" x2="104.77" y2="90.13" fill="#c8794e" stroke="#fff" stroke-miterlimit="10"/><line x1="66.71" y1="67.47" x2="66.71" y2="73.56" fill="#c8794e" stroke="#fff" stroke-miterlimit="10"/><line x1="68.5" y1="69.42" x2="64.91" y2="69.42" fill="#c8794e" stroke="#fff" stroke-miterlimit="10"/></g><g id="Layer_5" data-name="Layer 5"><text transform="translate(64.05 92.84) rotate(55.56)" font-size="4" fill="#fefee9" font-family="Helvetica">RAMAYTUSH</text><text transform="translate(98.01 79.12)" font-size="4" fill="#fefee9" font-family="Helvetica">CHOCHENYO</text><text transform="translate(106.77 128.1)" font-size="4" fill="#fefee9" font-family="Helvetica">TAMIEN</text><text transform="translate(81.28 29.51)" font-size="4" fill="#fefee9" font-family="Helvetica">KARKIN</text><text transform="translate(153.7 179)" font-size="4" fill="#fefee9" font-family="Helvetica">MUTSUN</text><text transform="translate(128.93 211.74)" font-size="4" fill="#fefee9" font-family="Helvetica">RUMSEN</text><text transform="translate(170.95 241.41)" font-size="4" fill="#fefee9" font-family="Helvetica">CHALON</text><g opacity="0.4"><text transform="translate(186.73 290.53)" font-size="4" font-family="Helvetica">SALINAN</text><text transform="translate(99.49 44.05)" font-size="4" font-family="Helvetica">BAY MIWOK</text><text transform="translate(180.21 121.45)" font-size="4" font-family="Helvetica">YOKUTS</text><text transform="translate(23.52 15.99)" font-size="4" font-family="Helvetica">COAST MIWOK</text><text transform="translate(166.74 15.99)" font-size="4" font-family="Helvetica">PLAINS MIWOK</text><text transform="translate(88.11 12.03)" font-size="4" font-family="Helvetica">PATWIN</text><text transform="matrix(0.61, 0.79, -0.79, 0.61, 135.58, 232.34)" font-size="4" font-family="Helvetica">ESSELEN</text></g><text transform="translate(88.11 144.23) rotate(29.58)" font-size="4" fill="#fefee9" font-family="Helvetica">AWASWAS</text></g></svg>