<svg xmlns="http://www.w3.org/2000/svg" viewBox="0 0 184.8 290.36"><title>PATWIN MAP</title><g id="svg2466"><g id="layer1"><g id="California"><path d="M-10,0V178.73l10,.48c.38.38.53.83,1,1l-.26,1.06H.19l-.19.14v0c1.76.1,3.08.19,4.07,1.89a3.66,3.66,0,0,1,.76.39l0,.57.4.6a1.3,1.3,0,0,1,.78.28,1.8,1.8,0,0,0,.43,1.38l.26-.1.23.12a7.07,7.07,0,0,1,1,2.7l.43.73c.81.9,1.95,1.29,2.64,2.26a11.65,11.65,0,0,1,1,2.18c.47,1,1.37,2,1.92,3a11.45,11.45,0,0,0,.55,1.11,49.28,49.28,0,0,0,4,5c.22.25,2.06,3.6,2.3,4.09A2.65,2.65,0,0,1,21,209a16,16,0,0,1-1.77-1.53,9.82,9.82,0,0,1-1.72-1.56c-1.8-2.53-3.06-5.46-4.77-8-1.51-2.28-3.66-4-5.42-6.07L6.48,191l-.76-1-.45-.16C5,190.46,6,191.6,6.4,192c0,1.84,1.12,1.61,1.66,3.56A2.32,2.32,0,0,1,8,196.85l1,.72c1.4,2.72.15,4.84-.65,7.58A55.21,55.21,0,0,1,6,212.7c-.69,1.51-1.49,2.85-2.12,4.42a8.48,8.48,0,0,1-.37.95c-.13.25-.78.46-.81,1l.1.26a1.76,1.76,0,0,0,1.27-.21,2.16,2.16,0,0,0,1.23.44l.48-.23.34.2c.72-.17,1.52.44,1.93.23l-.1-.26-1.34-.81-.25-.56c.86-3.62,3.79-2.9,4.39-3.58l-.27-1.05c-.73-.68-1.66-1.21-1.77-2.29l.19-.62a1.62,1.62,0,0,1,1.08-.45c.51-.42.62-1.06,1-1.53,1,1.26.83,3.49,1.47,4.13a16.38,16.38,0,0,1,4,1.83l1.06.62c1.74.54,4.2,3.37,5,5.13l.88.41a10.33,10.33,0,0,1,1.85,4.09l.44.14.27.39.56.13.48.7a2.94,2.94,0,0,1,1.57.54c2.24,1.61,1.41,3.13,2.27,3.57l.95.27c.1.25.46.88.74,1l.58-.33c.3-.75.49-.81,1.19-1.1a3.51,3.51,0,0,1-.08-2.17,2.07,2.07,0,0,1-.63-.86l.07-.51a1.81,1.81,0,0,1,1.1.91l.7.22c.3.48,1.68,1.63,1.73,1.85a3.9,3.9,0,0,0-1.85.25l1.72.3.24-.44c.43.77,1.14,1,1.69,1.58.37.41.6,1,1,1.43.69.73,2.13.08,3,1.2.35.46.51,1.32,1.08,1.57l.75-.21.51.68H46l.23.15.42,1.06.45.33.35.76,1.13.59.7,1.67.21-.12.32-.65.45-.21a3,3,0,0,1,1.61.45,3.86,3.86,0,0,1,1.59-.77l.51.32.24-.15.24-.88.37-.21,0-.38a2.49,2.49,0,0,1-.54-2.14c-.06-.44-1.34-1.36-1.78-1.36l-.28-.61A2.56,2.56,0,0,1,51,232.48l-.94-.16,0-.49c1.14,0,1.4.85,2.28,1.11l.07-.19-.62-1.16L52,231l.26.23.93.06c2.6,1.37.71,2.53,2.56,3.51l.43-.13-.32-.72.15-.3a1.63,1.63,0,0,0,.82,0,2.31,2.31,0,0,0,.61-.74l.58-.27a6.59,6.59,0,0,0-.85-1.42,2.57,2.57,0,0,1-2.71-2.37l-.93-.94c-2,0-1.37-1.65-2.32-2.64a6.16,6.16,0,0,1,2.18.83,3.06,3.06,0,0,0,.82-1l-.19-.37-.86-.14c-.27-.07-.61-1.15-.71-1.4l.42-1.21.77.06.4-.49.6-.11.22-.85.59-.15.85.52.62-.68c.1-.45-.55-1.39-.81-1.69a6.88,6.88,0,0,1-3-1.83,2.7,2.7,0,0,1-1.14-.34c.19-.77.1-1.54.24-2.29.07-.41.31-.81.39-1.22.12-.65,0-2.09.81-2.43a10.82,10.82,0,0,0-.07-2.9c-.1-.29-.5-.5-.49-.87l.17-.41-.22-.45c-2.58-1-1.7-3.34-3.29-4.42l.1-.27c1.65.74,1.35,3.21,2.61,3.72a23.79,23.79,0,0,0,3.66-.51l.49-.57.41.82.33.06a14.65,14.65,0,0,0,3.68-3,2.68,2.68,0,0,0,.24-1.42c1.14,1,4.14,1.58,5.57,2.42.47.28.87.65,1.34.93a11,11,0,0,1,2.85,1.84c.1.11.27.67.37.8.73.89,1.6,1.73,2.37,2.57.05,0,.27.45.38.65l.64-.09.69.09.33-.48.67-.14c2.61,1,1.65,1.8,4.88,1a13.57,13.57,0,0,1,2.74,2.19,6.88,6.88,0,0,0,1.5,0,7,7,0,0,0,.94-.66c.65-.72,1.29-1.49,2-2.21,1.12-1.2,3-2.08,3.74-3.57a10.39,10.39,0,0,0,.41-2.85c.78-1.18,4.56-2.52,5.91-2.28s2.47,1.29,2,2.74c-.29,1-1.55,1.86-2.08,2.8l.06.73c1,1.22,4.91,1.9,6.4,1.8a19.9,19.9,0,0,1,2.19-.31l.47.31-.11.63c-.4.5-1.53,1.24-1.69,1.62l.3.52c1.35,0,4.1-.44,5-1.45l-.14-.66.34-.45c1.26-.35,4.93,1.09,6.54.8.4-.08.94-.27,1.36-.38a6.1,6.1,0,0,0,1.57-.84c3-1.84,4.08-4.34,6.24-6.86a7.77,7.77,0,0,1,1.11-1.31,14.45,14.45,0,0,1-.61,3.5c-.27,1-1,1.81-1.36,2.77-.07.2-.08.46-.16.66a2.09,2.09,0,0,1-.81.83c-1.23.71-5.8.78-5.9,3a2,2,0,0,0,.7,1.41c2.09,2,3.87.63,6-.44a7.3,7.3,0,0,0,2-1.24,1.78,1.78,0,0,0,.44-1.18,1.87,1.87,0,0,1-.22-1.46c.53-2.33,2.78-1.59,4.46-1.59,2-1.15,2.27-2,4.88-1.28a10,10,0,0,1,1.3.24c1.36.57,1.29,3.37,2.61,4,.62.29,1.31.2,2,.56a27.92,27.92,0,0,1,3.49,2.18,24.82,24.82,0,0,1,2,2.11c.89.88,2.85,2.2,2.91,3.54l-.27.55c-1.4.1-2.27-1.74-3.22-2.53-.61-.51-1.61-.57-2.11-1.11s-.17-1.18-.6-1.69l-.67-.28a2.22,2.22,0,0,0-1.16.45c-1-.09-1.2-.92-1.69-1.59l-.38-.17a13.56,13.56,0,0,1-1.15-.77c-.57-.33-1.22-.47-1.8-.8a4.25,4.25,0,0,1-.47-.31c-.46-.49-.39-1.22-.61-1.8a2.52,2.52,0,0,0-3.77-1.11c-.47.34-.73.9-1.22,1.25-.44-.06-1-.27-1.39-.28-2.63-.06-1.28,3.31-2.71,4.64a5.74,5.74,0,0,1-.53.32,4.53,4.53,0,0,1-2.19.93l-.28.66.31.55c.81.46,2-.2,2.66.59l.11.63a6.23,6.23,0,0,1-3.24.69c-1.34-.2-2.25-1.32-3.52-1.46-.74-.07-1.54.13-2.3.07-1.47-.1-2.93-.45-4.38-.62-.78-.09-1.56-.07-2.33-.21-1.77-.3-3.22-1.42-4.91-1.87a50.27,50.27,0,0,0-5.27-.55c-1.12-.17-4-.31-4.85-1.08a17.52,17.52,0,0,0-4.57.28c-2.12.6-6.13,3.12-7.4,3.33a8.33,8.33,0,0,1-1.58,0c-2.66-.19-5.77-5.56-9.64-3.17a3.6,3.6,0,0,0,.16.79,6,6,0,0,0-.5,1.63l-.75.26a4.93,4.93,0,0,1-.82,1.51l-.51.08c0,.4-.7,1.19-1,1.41a6.9,6.9,0,0,1-1.92-.06l-1.22,1.1c-.91.32-1.68-.78-2.63-.63a1.17,1.17,0,0,0-.76-.37l-.3.56c.07.79,1.08,1.5,1,2.06A4.35,4.35,0,0,1,64,221.46l-.88-.09L63,222.52a1.75,1.75,0,0,0-.79,1h-.41l-.12.74a1.7,1.7,0,0,0-1-.57l-.25-.93c-.44.16-1-.18-1.58,0l.32.87.43.22.07.27-.25.47.08.38.67.23.23.29.07,1,.93.06,1.31,1.34.08.4-.42.78.13.32a1.81,1.81,0,0,1,1.18-.26l.72.56.49,0,.16-.17-.26-1.12-.73-.77a1.89,1.89,0,0,1,.82,0,6.19,6.19,0,0,1,.57,1.76l.72-.69.5,0,.12.21-.19.51h.55a1.53,1.53,0,0,1,.76-.43c.36.16,1.23.71,1.3,1.15l-.22.45.52.05a3.58,3.58,0,0,1,.44.9l-.32.15-.19.47c.72.37,1.79,5.16,2,6.09l-.19.4-3.46.65-.22.39.18.24.7-.18.69.21,1-.42a1,1,0,0,1,.22.48l-.63.09a2.78,2.78,0,0,1-.85.89h-.74l0,.3c0,.15.45.38.42.6h-.34c.94,1.19,3.3.88,4.54.8.59,0,1.13.67,1.81.76l.35.39.76-.12c.61.24.51.67.79,1s2,1.49,1.93,2.15l.38,0,.26.83.44.08a1.8,1.8,0,0,0,.65,1.21l-.37.19-.44-.39-.47.33c-.5-.58-1.2-.39-1.63-.89l.11-.41.63-.39.05-.54c-.29-.6-2.55-2.15-3.34-2.64l-.41,0c-.21-.4-1-.64-1.31-1-.9-.07-1.55.22-2.48.08a10.76,10.76,0,0,1-1.38-.24c-.44-.15-.63-.53-1.25-.5l.39,1.17.3,0,.16.81c.28.24,1.1.64,1.47.43l.3-.37.85,0,0,.25-.35.56a3.81,3.81,0,0,0,.9.46l.72-.17.68.5.71-.12c.27.42.79.38,1.18.58s1.74,1.47,1.8,2l-.19,1a2.34,2.34,0,0,0-1.26-.09l0,.21,1,.92c0,.3-.52.81-.73,1a5.55,5.55,0,0,1,2.41,2.52l.54-.11a3.4,3.4,0,0,0,.6-1.39,3,3,0,0,1,1-.4c.1.23.39,1.09.59,1.21l.41,0a7.27,7.27,0,0,0,1.16,2.65c.08.1.82.57,1,.71s.33.61.64.8a5.22,5.22,0,0,0,.62,2.19l-.19.53a2.37,2.37,0,0,1,.24,1.77l.34.31c-.2,1.18.32,2.3.34,3.48,0,.48,0,1-.08,1.47a2.33,2.33,0,0,0,.1.32l.34.2c.1.73.69,1.49.72,2.15l.42.25.15.73c1.15.79,1.63,3.28,1.76,4.56a15.8,15.8,0,0,0,1.15,1.54,3.63,3.63,0,0,0,1.74-.73c1,.13,2.7,1.08,2.75,2.19,0,.46-.15,1-.14,1.49l.31.48a6.34,6.34,0,0,0,2,.49l.31.48c-.31.5-.71.93-1,1.42a6.05,6.05,0,0,1-3.07.23c-3-.12-3.89-1.24-5-3.8-.28-.62-.17-1.3-.59-1.91a3.43,3.43,0,0,0-1.15-1,1.72,1.72,0,0,0-.9.29l-.19.61c.23.67,1,.92,1.21,1.61l-.17.37h-.3A4.68,4.68,0,0,0,84.21,278a1.91,1.91,0,0,0-1.07.23c-.48-.25-.79-.7-1.22-1-.66-.4-1-.12-1.26-1.15l-.37-.17-.07-.37a8,8,0,0,1,.85-1.68,1.48,1.48,0,0,0-2-.81,8.2,8.2,0,0,1-1-.48,15.12,15.12,0,0,1-2.58-3.06l-.94-.35c-.84.31-3.06.61-3.86,0l-.68-.78a3.14,3.14,0,0,1-.73-1.4l-.33-.14c-.75.82-2.15.63-3.13.5l-.18-.37-.47-.08-.43-.84a1.57,1.57,0,0,1-.91-.57,2.46,2.46,0,0,1,.32-1.16l.57.08.25-.48-.08-.32-.36-.2.18-.55-.68-.07-.48-.35-.19.09-.63-.13,0-.19.44-.38-.15-.18-.54,0-.08-.35-.27,0-.28.37-.14-.43.36-.48,0-.4a3.33,3.33,0,0,0,1.22,0l.19-.5-.07-.24-.54-.32-.07-.4.16-.42-.13-.29-.25.23-.31,0-.14-.18.65-1a7.16,7.16,0,0,0-.6-4.08l.11-.42h.3c.42.34,1.34,1.77,1.71,1.77l.33-.07V254c-.36-.71-1.21-1-1.63-1.69a1.33,1.33,0,0,0,.28-.94l.61-.25.07.67,1,.43.49-.59-.08-.43.27-.45A2.79,2.79,0,0,0,65,250l-.54.5-.42-.22a1.75,1.75,0,0,0-.93-1l-.1-.18,0-.28.37-.23a2.33,2.33,0,0,1,0-1.52c-.64-.8-.23-1.3-.29-2.07,0-.52-.4-.81-.11-1.43-.38-.69-1.74-2.55-2.51-2.73-.77.06-1.47.86-2.27.26l-.42.27c-1-.38-1.76.88-3-.29l-.48.11c-.53.25-.48,1.92-1.25,2.35a2.79,2.79,0,0,1-1.71.15,1.92,1.92,0,0,0-.65,1,26.52,26.52,0,0,1,.49,4.94c0,.5,0,1.11.05,1.59.26,1.45.87,2.8,1,4.28a31.25,31.25,0,0,1-.18,8.26c0,.06.11.6.12.7l-.46.86.16.4-.23.67a1.52,1.52,0,0,1-1.09-.08l-.38.49c.1.49.42,3.57.18,3.92l.33.87-.45,2c-.12.53.34,1.1.23,1.64l.41.41a3.15,3.15,0,0,1,.12,1.14l.91.57a1.58,1.58,0,0,1,.11,1.05l.33-.07.21-.51A2.85,2.85,0,0,1,56.08,279a11.54,11.54,0,0,1,.63,1.48,2.66,2.66,0,0,1,0,.3L57,281c-.16.26.07.79.09,1.07l.33,3.51c0,.07.4.57.44.68.17.4.2.89.38,1.28s.41.46.53.7.07.52.15.73.28.36.33.49a5.13,5.13,0,0,1,.16.87H192.1V0" fill="#fefee9" stroke="#0978ab" stroke-miterlimit="10" stroke-width="0.25"/><path d="M59,289c-.08-.21-.06-.53-.15-.73s-.42-.45-.53-.7-.21-.88-.38-1.28c0-.11-.44-.61-.44-.68l-.33-3.51c0-.28-.25-.81-.09-1.07l-.31-.28a2.66,2.66,0,0,0,0-.3,11.54,11.54,0,0,0-.63-1.48,2.85,2.85,0,0,0-3.47-1.19l-.21.51-.33.07a1.58,1.58,0,0,0-.11-1.05l-.91-.57a3.15,3.15,0,0,0-.12-1.14l-.41-.41c.11-.54-.35-1.11-.23-1.64l.45-2-.33-.87c.24-.35-.08-3.43-.18-3.92l.38-.49a1.52,1.52,0,0,0,1.09.08l.23-.67-.16-.4.46-.86c0-.1-.13-.64-.12-.7a31.25,31.25,0,0,0,.18-8.26c-.15-1.48-.76-2.83-1-4.28-.09-.48,0-1.09-.05-1.59a26.52,26.52,0,0,0-.49-4.94,1.92,1.92,0,0,1,.65-1,2.79,2.79,0,0,0,1.71-.15c.77-.43.72-2.1,1.25-2.35l.48-.11c1.21,1.17,2-.09,3,.29l.42-.27c.8.6,1.5-.2,2.27-.26.77.18,2.13,2,2.51,2.73-.29.62.07.91.11,1.43.06.77-.35,1.27.29,2.07a2.33,2.33,0,0,0,0,1.52l-.37.23,0,.28.1.18a1.75,1.75,0,0,1,.93,1l.42.22L65,250a2.79,2.79,0,0,1,.67.7l-.27.45.08.43-.49.59-1-.43-.07-.67-.61.25a1.33,1.33,0,0,1-.28.94c.42.65,1.27,1,1.63,1.69v.36l-.33.07c-.37,0-1.29-1.43-1.71-1.77h-.3l-.11.42a7.16,7.16,0,0,1,.6,4.08l-.65,1,.14.18.31,0,.25-.23.13.29-.16.42.07.4.54.32.07.24-.19.5a3.33,3.33,0,0,1-1.22,0l0,.4-.36.48.14.43.28-.37.27,0,.08.35.54,0,.15.18-.44.38,0,.19.63.13.19-.09.48.35.68.07-.18.55.36.2.08.32-.25.48-.57-.08a2.46,2.46,0,0,0-.32,1.16,1.57,1.57,0,0,0,.91.57l.43.84.47.08.18.37c1,.13,2.38.32,3.13-.5l.33.14a3.14,3.14,0,0,0,.73,1.4l.68.78c.8.61,3,.31,3.86,0l.94.35A15.12,15.12,0,0,0,78,272.57a8.2,8.2,0,0,0,1,.48,1.48,1.48,0,0,1,2,.81,8,8,0,0,0-.85,1.68l.07.37.37.17c.29,1,.6.75,1.26,1.15.43.27.74.72,1.22,1a1.91,1.91,0,0,1,1.07-.23,4.68,4.68,0,0,1,1.53,1.47H86l.17-.37c-.16-.69-1-.94-1.21-1.61l.19-.61a1.72,1.72,0,0,1,.9-.29,3.43,3.43,0,0,1,1.15,1c.42.61.31,1.29.59,1.91,1.16,2.56,2,3.68,5,3.8A6.05,6.05,0,0,0,96,283c.32-.49.72-.92,1-1.42l-.31-.48a6.34,6.34,0,0,1-2-.49l-.31-.48c0-.5.16-1,.14-1.49-.05-1.11-1.77-2.06-2.75-2.19a3.63,3.63,0,0,1-1.74.73,15.8,15.8,0,0,1-1.15-1.54c-.13-1.28-.61-3.77-1.76-4.56l-.15-.73-.42-.25c0-.66-.62-1.42-.72-2.15l-.34-.2a2.33,2.33,0,0,1-.1-.32c0-.48.09-1,.08-1.47,0-1.18-.54-2.3-.34-3.48l-.34-.31a2.37,2.37,0,0,0-.24-1.77l.19-.53a5.22,5.22,0,0,1-.62-2.19c-.31-.19-.4-.57-.64-.8s-.89-.61-1-.71a7.27,7.27,0,0,1-1.16-2.65l-.41,0c-.2-.12-.49-1-.59-1.21a3,3,0,0,0-1,.4,3.4,3.4,0,0,1-.6,1.39l-.54.11a5.55,5.55,0,0,0-2.41-2.52c.21-.18.7-.69.73-1l-1-.92,0-.21a2.34,2.34,0,0,1,1.26.09l.19-1c-.06-.52-1.39-1.76-1.8-2s-.91-.16-1.18-.58l-.71.12-.68-.5-.72.17a3.81,3.81,0,0,1-.9-.46l.35-.56,0-.25-.85,0-.3.37c-.37.21-1.19-.19-1.47-.43l-.16-.81-.3,0-.39-1.17c.62,0,.81.35,1.25.5a10.76,10.76,0,0,0,1.38.24c.93.14,1.58-.15,2.48-.08.35.37,1.1.61,1.31,1l.41,0c.79.49,3,2,3.34,2.64l-.05.54-.63.39-.11.41c.43.5,1.13.31,1.63.89l.47-.33.44.39.37-.19a1.8,1.8,0,0,1-.65-1.21l-.44-.08-.26-.83-.38,0c0-.66-1.55-1.72-1.93-2.15s-.18-.74-.79-1l-.76.12-.35-.39c-.68-.09-1.22-.8-1.81-.76-1.24.08-3.6.39-4.54-.8h.34c0-.22-.37-.45-.42-.6l0-.3H69a2.78,2.78,0,0,0,.85-.89l.63-.09a1,1,0,0,0-.22-.48l-1,.42-.69-.21-.7.18-.18-.24.22-.39,3.46-.65.19-.4c-.26-.93-1.33-5.72-2-6.09l.19-.47.32-.15a3.58,3.58,0,0,0-.44-.9l-.52-.05.22-.45c-.07-.44-.94-1-1.3-1.15a1.53,1.53,0,0,0-.76.43h-.55l.19-.51-.12-.21-.5,0-.72.69a6.19,6.19,0,0,0-.57-1.76,1.89,1.89,0,0,0-.82,0l.73.77.26,1.12-.16.17-.49,0-.72-.56a1.81,1.81,0,0,0-1.18.26l-.13-.32.42-.78-.08-.4-1.31-1.34-.93-.06-.07-1-.23-.29-.67-.23-.08-.38.25-.47-.07-.27-.43-.22-.32-.87c.59-.19,1.14.15,1.58,0l.25.93a1.7,1.7,0,0,1,1,.57l.12-.74h.41a1.75,1.75,0,0,1,.79-1l.17-1.15.88.09a4.35,4.35,0,0,0,1.21-1.75c.08-.56-.93-1.27-1-2.06l.3-.56a1.17,1.17,0,0,1,.76.37c1-.15,1.72.95,2.63.63l1.22-1.1a6.9,6.9,0,0,0,1.92.06c.26-.22,1-1,1-1.41l.51-.08a4.93,4.93,0,0,0,.82-1.51l.75-.26a6,6,0,0,1,.5-1.63,3.6,3.6,0,0,1-.16-.79c3.87-2.39,7,3,9.64,3.17a8.33,8.33,0,0,0,1.58,0c1.27-.21,5.28-2.73,7.4-3.33a17.52,17.52,0,0,1,4.57-.28c.82.77,3.73.91,4.85,1.08a50.27,50.27,0,0,1,5.27.55c1.69.45,3.14,1.57,4.91,1.87.77.14,1.55.12,2.33.21,1.45.17,2.91.52,4.38.62.76.06,1.56-.14,2.3-.07,1.27.14,2.18,1.26,3.52,1.46a6.23,6.23,0,0,0,3.24-.69l-.11-.63c-.68-.79-1.85-.13-2.66-.59l-.31-.55.28-.66a4.53,4.53,0,0,0,2.19-.93,5.74,5.74,0,0,0,.53-.32c1.43-1.33.08-4.7,2.71-4.64.42,0,.95.22,1.39.28.49-.35.75-.91,1.22-1.25a2.52,2.52,0,0,1,3.77,1.11c.22.58.15,1.31.61,1.8a4.25,4.25,0,0,0,.47.31c.58.33,1.23.47,1.8.8a13.56,13.56,0,0,0,1.15.77l.38.17c.49.67.72,1.5,1.69,1.59a2.22,2.22,0,0,1,1.16-.45l.67.28c.43.51.11,1.16.6,1.69s1.5.6,2.11,1.11c1,.79,1.82,2.63,3.22,2.53l.27-.55c-.06-1.34-2-2.66-2.91-3.54a24.82,24.82,0,0,0-2-2.11,27.92,27.92,0,0,0-3.49-2.18c-.66-.36-1.35-.27-2-.56-1.32-.61-1.25-3.41-2.61-4a10,10,0,0,0-1.3-.24c-2.61-.7-2.92.13-4.88,1.28-1.68,0-3.93-.74-4.46,1.59a1.87,1.87,0,0,0,.22,1.46,1.78,1.78,0,0,1-.44,1.18,7.3,7.3,0,0,1-2,1.24c-2.11,1.07-3.89,2.44-6,.44a2,2,0,0,1-.7-1.41c.1-2.23,4.67-2.3,5.9-3a2.09,2.09,0,0,0,.81-.83c.08-.2.09-.46.16-.66.34-1,1.09-1.81,1.36-2.77a14.45,14.45,0,0,0,.61-3.5,7.77,7.77,0,0,0-1.11,1.31c-2.16,2.52-3.29,5-6.24,6.86a6.1,6.1,0,0,1-1.57.84c-.42.11-1,.3-1.36.38-1.61.29-5.28-1.15-6.54-.8l-.34.45.14.66c-.92,1-3.67,1.4-5,1.45l-.3-.52c.16-.38,1.29-1.12,1.69-1.62l.11-.63-.47-.31a19.9,19.9,0,0,0-2.19.31c-1.49.1-5.41-.58-6.4-1.8l-.06-.73c.53-.94,1.79-1.81,2.08-2.8.42-1.45-.69-2.5-2-2.74s-5.13,1.1-5.91,2.28a10.39,10.39,0,0,1-.41,2.85c-.74,1.49-2.62,2.37-3.74,3.57-.68.72-1.32,1.49-2,2.21a7,7,0,0,1-.94.66,6.88,6.88,0,0,1-1.5,0,13.57,13.57,0,0,0-2.74-2.19c-3.23.8-2.27,0-4.88-1l-.67.14-.33.48-.69-.09-.64.09c-.11-.2-.33-.6-.38-.65-.77-.84-1.64-1.68-2.37-2.57-.1-.13-.27-.69-.37-.8a11,11,0,0,0-2.85-1.84c-.47-.28-.87-.65-1.34-.93-1.43-.84-4.43-1.4-5.57-2.42a2.68,2.68,0,0,1-.24,1.42,14.65,14.65,0,0,1-3.68,3l-.33-.06-.41-.82-.49.57a23.79,23.79,0,0,1-3.66.51c-1.26-.51-1-3-2.61-3.72l-.1.27c1.59,1.08.71,3.39,3.29,4.42l.22.45-.17.41c0,.37.39.58.49.87a10.82,10.82,0,0,1,.07,2.9c-.82.34-.69,1.78-.81,2.43-.08.41-.32.81-.39,1.22-.14.75-.05,1.52-.24,2.29a2.7,2.7,0,0,0,1.14.34,6.88,6.88,0,0,0,3,1.83c.26.3.91,1.24.81,1.69l-.62.68-.85-.52-.59.15-.22.85-.6.11-.4.49-.77-.06-.42,1.21c.1.25.44,1.33.71,1.4l.86.14.19.37a3.06,3.06,0,0,1-.82,1,6.16,6.16,0,0,0-2.18-.83c.95,1,.34,2.67,2.32,2.64l.93.94a2.57,2.57,0,0,0,2.71,2.37,6.59,6.59,0,0,1,.85,1.42l-.58.27a2.31,2.31,0,0,1-.61.74,1.63,1.63,0,0,1-.82,0l-.15.3.32.72-.43.13c-1.85-1,0-2.14-2.56-3.51l-.93-.06L52,231l-.16.58.62,1.16-.07.19c-.88-.26-1.14-1.07-2.28-1.11l0,.49.94.16a2.56,2.56,0,0,0,1.17,1.26l.28.61c.44,0,1.72.92,1.78,1.36a2.49,2.49,0,0,0,.54,2.14l0,.38-.37.21-.24.88-.24.15-.51-.32a3.86,3.86,0,0,0-1.59.77,3,3,0,0,0-1.61-.45l-.45.21-.32.65-.21.12-.7-1.67-1.13-.59-.35-.76-.45-.33L46.22,236l-.23-.15h-.63l-.51-.68-.75.21c-.57-.25-.73-1.11-1.08-1.57-.86-1.12-2.3-.47-3-1.2-.39-.41-.62-1-1-1.43-.55-.59-1.26-.81-1.69-1.58l-.24.44-1.72-.3a3.9,3.9,0,0,1,1.85-.25c-.05-.22-1.43-1.37-1.73-1.85l-.7-.22a1.81,1.81,0,0,0-1.1-.91l-.07.51a2.07,2.07,0,0,0,.63.86,3.51,3.51,0,0,0,.08,2.17c-.7.29-.89.35-1.19,1.1l-.58.33c-.28-.1-.64-.73-.74-1l-.95-.27c-.86-.44,0-2-2.27-3.57a2.94,2.94,0,0,0-1.57-.54l-.48-.7-.56-.13-.27-.39-.44-.14a10.33,10.33,0,0,0-1.85-4.09l-.88-.41c-.81-1.76-3.27-4.59-5-5.13l-1.06-.62a16.38,16.38,0,0,0-4-1.83c-.64-.64-.5-2.87-1.47-4.13-.43.47-.54,1.11-1,1.53a1.62,1.62,0,0,0-1.08.45l-.19.62c.11,1.08,1,1.61,1.77,2.29l.27,1.05c-.6.68-3.53,0-4.39,3.58l.25.56,1.34.81.1.26c-.41.21-1.21-.4-1.93-.23l-.34-.2-.48.23a2.16,2.16,0,0,1-1.23-.44,1.76,1.76,0,0,1-1.27.21l-.1-.26c0-.51.68-.72.81-1a8.48,8.48,0,0,0,.37-.95c.63-1.57,1.43-2.91,2.12-4.42a55.21,55.21,0,0,0,2.4-7.55c.8-2.74,2-4.86.65-7.58l-1-.72a2.32,2.32,0,0,0,.05-1.33c-.54-2-1.61-1.72-1.66-3.56-.37-.36-1.43-1.5-1.13-2.13l.45.16.76,1,.84.85c1.76,2.07,3.91,3.79,5.42,6.07,1.71,2.57,3,5.5,4.77,8a9.82,9.82,0,0,0,1.72,1.56A16,16,0,0,0,21,209a2.65,2.65,0,0,0-.28-1.32c-.24-.49-2.08-3.84-2.3-4.09a49.28,49.28,0,0,1-4-5,11.45,11.45,0,0,1-.55-1.11c-.55-1-1.45-2-1.92-3a11.65,11.65,0,0,0-1-2.18c-.69-1-1.83-1.36-2.64-2.26l-.43-.73a7.07,7.07,0,0,0-1-2.7l-.23-.12-.26.1A1.8,1.8,0,0,1,6,185.21a1.3,1.3,0,0,0-.78-.28l-.4-.6,0-.57a3.66,3.66,0,0,0-.76-.39c-1-1.7-2.31-1.79-4.07-1.89V290.36H59.45a5.13,5.13,0,0,0-.16-.87C59.24,289.36,59,289.14,59,289Z" fill="#c6ecff"/><path d="M.77,181.32,1,180.26c-.5-.22-.65-.67-1-1v2.24l.19-.14Z" fill="#c6ecff"/><path id="path17" d="M150.31,31.43l.58.24c.94,0,1.48-.73,2.56-.69l.44.41a4.89,4.89,0,0,1-.69,1.84l.22.62c1.61.18,2.26-1.66,3.82-1.87a19.71,19.71,0,0,0,2,.55l.33.49c-1.54.61-2.54.94-3.49,2.36l0,.76.42.34c1.23.26,3.92.12,4.6,1.53-.7,3.3-6-1.17-7.54-.45a2.67,2.67,0,0,1-2,1.38l-.31-.48a2.5,2.5,0,0,0,0-1.46c-1-.35-1.73.52-2.88,0l-.33-.38a4.07,4.07,0,0,1,.28-2.18,22.76,22.76,0,0,0-.75-3.26c-.16-.36-.42-.66-.56-1s-.19-.84-.36-1.21c-.24-.54-.69-1-.94-1.56a17.21,17.21,0,0,1-.8-3.16c-.84-1.17-2.48-.95-3.69-1.35l-.42-.45c-.35-.68.54-3,1.08-3.57l.5.28a6.08,6.08,0,0,0,1.28,2c.91.16,2.84.24,3.52.77a36.21,36.21,0,0,1,1.69,4.57C149.36,27.92,149.27,30.21,150.31,31.43Z" fill="#c6ecff" stroke="#0978ab" stroke-linejoin="round" stroke-width="0.25"/><path id="path23" d="M183.08,130.93l.25.56.83,0a34.4,34.4,0,0,1,3.82-2.73l.39.45-.07.21c-.47,1.3-1.89,1.69-2.76,2.7-.59.69-.48,1.69-1.08,2.35l-.29.23a8,8,0,0,0-1.12.78,4.39,4.39,0,0,1-1.28,1.18,4.4,4.4,0,0,1-.74-.14,16.9,16.9,0,0,1-3.08-2.77c-.2-1.44,1.56-2.47,2.33-3.43.56-.71.87-1.5,1.38-2.2,1.36-1.84,2.56-3.05,2.22-5.57a4.88,4.88,0,0,1,1.47-1l.58.25a4.65,4.65,0,0,0-.69,1.87c.3.35.13,1.45,0,1.87-.25.8-.8,1.54-1.11,2.32a20.1,20.1,0,0,0-.69,2.25A2.65,2.65,0,0,1,183.08,130.93Z" fill="#c6ecff" stroke="#0978ab" stroke-linejoin="round" stroke-width="0.25"/><path id="path27" d="M179.89,135.72a36.11,36.11,0,0,0-3.63,4.19c-.42.68-.62,1.57-1.08,2.22a6.51,6.51,0,0,1-1.31,1.14c-1.09.55-2.32.31-3.43.59-.85.21-1.24,1.13-2.16,1.11a5.35,5.35,0,0,0-1.42-.14c-.35.5-.58,1.13-1,1.59s-1.14,1-1.63,1.53c-1.71,1.84-3.25,3.79-5.92,4.19a2.36,2.36,0,0,1-1.76-.28c-1-.68-.39-1.86-1.47-2.63-2-1.42-6.48-1.24-8.79-1.33" fill="none" stroke="#0978ab" stroke-linejoin="round" stroke-width="0.25"/><path id="path29" d="M32.07,35c-.55.08-1.08,0-1.61,0-.7.07-1.49.26-2.19.39-3.11.55-4.06,1.32-5.76,3.93a7.43,7.43,0,0,0-1.25,3c0,.65.45,1.23.55,1.87-.45.75-1.46.79-1.91,1.49s-.33,1.84-.67,2.63c-.22.53-.71.93-.86,1.49-.24,1,0,2-.5,2.85-1.5,1.39-4.44-1.64-6.12-1.6a4.52,4.52,0,0,0-1.28.35,2.19,2.19,0,0,0-1.1.59c-1.4.25-3.19,0-4.5.45S1.36,55,.33,55.33a3.58,3.58,0,0,1-2.11-.27,11.38,11.38,0,0,1-1.83-.66c-1.78-1-1.73-3.25-2.33-4.89a10.65,10.65,0,0,1-.83-2.42c-.13-1.34.5-3.16-.39-4.3-1.18-1.53-3.25-.29-4.79-.94-1-.41-1.26-2.49-2.38-3.39s-1.82-.81-2.94-1.28a13.69,13.69,0,0,1-3-2c-.68-1-.24-2.81-.8-4.05-1-2.16-2.77-2.89-3.3-4.06-.45-1-.08-1.77-.19-2.73s-1.33-2-1.39-3.57.52-2.78-.14-4.16c-.33-.69-1-1.34-1.36-2" fill="none" stroke="#0978ab" stroke-linejoin="round" stroke-width="0.25"/><path id="path45" d="M117.66,367.31a7.37,7.37,0,0,1,.14-.77l1.22,1.08.06-.3-.89-1.07.07-.71-.2-.23c.58-1.65,0-3.49,1.2-4.84l-.19-.58c.45-.83-.58-1.78-.88-2.37-.45-.88-.57-2-.94-3,0-.06-.17-.13-.2-.18-.54-1-.8-2-1.29-2.92s-1.13-1.82-1.63-2.76c-1.85-3.47-2.29-5.73-5.86-8a5.05,5.05,0,0,0-3.07-1.1l-1.6.79c-.4.2-.44.73-.7,1s-.58.28-.72.66a1.23,1.23,0,0,1-.94,0l-.29-.31-1,0a2.32,2.32,0,0,0-1.57-.59l-.26-.31c-.11.33-.74.63-1,.71l0,.62-.18.26c-.25.23-1.52-.1-2.26.53a2.24,2.24,0,0,0-1-.27l-.42.21-.79-.09-.43-.44-.48,0-.56-.3-.91.16-.33-.28-.47-.06a1.6,1.6,0,0,0-1.08-.59l-.43-.43-.59.14a5.83,5.83,0,0,1-1.43-1.5l-1,.17a1.64,1.64,0,0,0-1.23-1.59l0-.18a13.66,13.66,0,0,0-1.39-1c-.2-.17-.31-.48-.5-.66s-2.21-1.89-2.38-2-.82,0-1.06-.45c0-.11-.27-1-.3-1a37.79,37.79,0,0,1-3.91-6c-.23-.44-.66-.58-.86-1.36a19.11,19.11,0,0,1-2.84-2.31l-.46-.05-1.58.82-.2-.69-.55-.24-.27-2.19-.51-.37-.13-.48c-.5,0-1-.59-1.45-.76l.19-1.37-.78-1.2c-.9-.08-1.15-1.63-2.45-1.25l-.37-.27A2.06,2.06,0,0,0,61,313.8c.23-.87-.31-1.45-.46-2.22,0-.23,0-1,0-1.22-.18-.65-.63-1.28-.84-1.93-.14-.43,1-5.43,1.09-6.2.11-1,.06-2.07.09-3.06l.23-.18a40.23,40.23,0,0,1,.43-4.15,1.44,1.44,0,0,0-.69-.75c0-.3-.15-1.64-.41-1.79l-.3-.12-.12-.34c-.13-.41-.42-.78-.51-1.09s-.11-.86-.24-1.26c0-.13-.27-.35-.33-.49s-.06-.53-.15-.73-.42-.45-.53-.7-.21-.88-.38-1.28c0-.11-.44-.61-.44-.68l-.33-3.51c0-.28-.25-.81-.09-1.07l-.31-.28a2.66,2.66,0,0,0,0-.3,11.54,11.54,0,0,0-.63-1.48,2.85,2.85,0,0,0-3.47-1.19l-.21.51-.33.07a1.58,1.58,0,0,0-.11-1.05l-.91-.57a3.15,3.15,0,0,0-.12-1.14l-.41-.41c.11-.54-.35-1.11-.23-1.64l.45-2-.33-.87c.24-.35-.08-3.43-.18-3.92l.38-.49a1.52,1.52,0,0,0,1.09.08l.23-.67-.16-.4.46-.86c0-.1-.13-.64-.12-.7a31.25,31.25,0,0,0,.18-8.26c-.15-1.48-.76-2.83-1-4.28-.09-.48,0-1.09-.05-1.59a26.52,26.52,0,0,0-.49-4.94,1.92,1.92,0,0,1,.65-1,2.79,2.79,0,0,0,1.71-.15c.77-.43.72-2.1,1.25-2.35l.48-.11c1.21,1.17,2-.09,3,.29l.42-.27c.8.6,1.5-.2,2.27-.26.77.18,2.13,2,2.51,2.73-.29.62.07.91.11,1.43.06.77-.35,1.27.29,2.07a2.33,2.33,0,0,0,0,1.52l-.37.23,0,.28.1.18a1.75,1.75,0,0,1,.93,1l.42.22L65,250a2.79,2.79,0,0,1,.67.7l-.27.45.08.43-.49.59-1-.43-.07-.67-.61.25a1.33,1.33,0,0,1-.28.94c.42.65,1.27,1,1.63,1.69v.36l-.33.07c-.37,0-1.29-1.43-1.71-1.77h-.3l-.11.42a7.16,7.16,0,0,1,.6,4.08l-.65,1,.14.18.31,0,.25-.23.13.29-.16.42.07.4.54.32.07.24-.19.5a3.33,3.33,0,0,1-1.22,0l0,.4-.36.48.14.43.28-.37.27,0,.08.35.54,0,.15.18-.44.38,0,.19.63.13.19-.09.48.35.68.07-.18.55.36.2.08.32-.25.48-.57-.08a2.46,2.46,0,0,0-.32,1.16,1.57,1.57,0,0,0,.91.57l.43.84.47.08.18.37c1,.13,2.38.32,3.13-.5l.33.14a3.14,3.14,0,0,0,.73,1.4l.68.78c.8.61,3,.31,3.86,0l.94.35A15.12,15.12,0,0,0,78,272.57a8.2,8.2,0,0,0,1,.48,1.48,1.48,0,0,1,2,.81,8,8,0,0,0-.85,1.68l.07.37.37.17c.29,1,.6.75,1.26,1.15.43.27.74.72,1.22,1a1.91,1.91,0,0,1,1.07-.23,4.68,4.68,0,0,1,1.53,1.47H86l.17-.37c-.16-.69-1-.94-1.21-1.61l.19-.61a1.72,1.72,0,0,1,.9-.29,3.43,3.43,0,0,1,1.15,1c.42.61.31,1.29.59,1.91,1.16,2.56,2,3.68,5,3.8A6.05,6.05,0,0,0,96,283c.32-.49.72-.92,1-1.42l-.31-.48a6.34,6.34,0,0,1-2-.49l-.31-.48c0-.5.16-1,.14-1.49-.05-1.11-1.77-2.06-2.75-2.19a3.63,3.63,0,0,1-1.74.73,15.8,15.8,0,0,1-1.15-1.54c-.13-1.28-.61-3.77-1.76-4.56l-.15-.73-.42-.25c0-.66-.62-1.42-.72-2.15l-.34-.2a2.33,2.33,0,0,1-.1-.32c0-.48.09-1,.08-1.47,0-1.18-.54-2.3-.34-3.48l-.34-.31a2.37,2.37,0,0,0-.24-1.77l.19-.53a5.22,5.22,0,0,1-.62-2.19c-.31-.19-.4-.57-.64-.8s-.89-.61-1-.71a7.27,7.27,0,0,1-1.16-2.65l-.41,0c-.2-.12-.49-1-.59-1.21a3,3,0,0,0-1,.4,3.4,3.4,0,0,1-.6,1.39l-.54.11a5.55,5.55,0,0,0-2.41-2.52c.21-.18.7-.69.73-1l-1-.92,0-.21a2.34,2.34,0,0,1,1.26.09l.19-1c-.06-.52-1.39-1.76-1.8-2s-.91-.16-1.18-.58l-.71.12-.68-.5-.72.17a3.81,3.81,0,0,1-.9-.46l.35-.56,0-.25-.85,0-.3.37c-.37.21-1.19-.19-1.47-.43l-.16-.81-.3,0-.39-1.17c.62,0,.81.35,1.25.5a10.76,10.76,0,0,0,1.38.24c.93.14,1.58-.15,2.48-.08.35.37,1.1.61,1.31,1l.41,0c.79.49,3,2,3.34,2.64l-.05.54-.63.39-.11.41c.43.5,1.13.31,1.63.89l.47-.33.44.39.37-.19a1.8,1.8,0,0,1-.65-1.21l-.44-.08-.26-.83-.38,0c0-.66-1.55-1.72-1.93-2.15s-.18-.74-.79-1l-.76.12-.35-.39c-.68-.09-1.22-.8-1.81-.76-1.24.08-3.6.39-4.54-.8h.34c0-.22-.37-.45-.42-.6l0-.3H69a2.78,2.78,0,0,0,.85-.89l.63-.09a1,1,0,0,0-.22-.48l-1,.42-.69-.21-.7.18-.18-.24.22-.39,3.46-.65.19-.4c-.26-.93-1.33-5.72-2-6.09l.19-.47.32-.15a3.58,3.58,0,0,0-.44-.9l-.52-.05.22-.45c-.07-.44-.94-1-1.3-1.15a1.53,1.53,0,0,0-.76.43h-.55l.19-.51-.12-.21-.5,0-.72.69a6.19,6.19,0,0,0-.57-1.76,1.89,1.89,0,0,0-.82,0l.73.77.26,1.12-.16.17-.49,0-.72-.56a1.81,1.81,0,0,0-1.18.26l-.13-.32.42-.78-.08-.4-1.31-1.34-.93-.06-.07-1-.23-.29-.67-.23-.08-.38.25-.47-.07-.27-.43-.22-.32-.87c.59-.19,1.14.15,1.58,0l.25.93a1.7,1.7,0,0,1,1,.57l.12-.74h.41a1.75,1.75,0,0,1,.79-1l.17-1.15.88.09a4.35,4.35,0,0,0,1.21-1.75c.08-.56-.93-1.27-1-2.06l.3-.56a1.17,1.17,0,0,1,.76.37c1-.15,1.72.95,2.63.63l1.22-1.1a6.9,6.9,0,0,0,1.92.06c.26-.22,1-1,1-1.41l.51-.08a4.93,4.93,0,0,0,.82-1.51l.75-.26a6,6,0,0,1,.5-1.63,3.6,3.6,0,0,1-.16-.79c3.87-2.39,7,3,9.64,3.17a8.33,8.33,0,0,0,1.58,0c1.27-.21,5.28-2.73,7.4-3.33a17.52,17.52,0,0,1,4.57-.28c.82.77,3.73.91,4.85,1.08a50.27,50.27,0,0,1,5.27.55c1.69.45,3.14,1.57,4.91,1.87.77.14,1.55.12,2.33.21,1.45.17,2.91.52,4.38.62.76.06,1.56-.14,2.3-.06,1.27.13,2.18,1.25,3.52,1.45a6.23,6.23,0,0,0,3.24-.69l-.11-.63c-.68-.79-1.85-.13-2.66-.59l-.31-.55.28-.66a4.53,4.53,0,0,0,2.19-.93,5.74,5.74,0,0,0,.53-.32c1.43-1.33.08-4.7,2.71-4.64.42,0,.95.22,1.39.28.49-.35.75-.91,1.22-1.25a2.52,2.52,0,0,1,3.77,1.11c.22.58.15,1.31.61,1.8a4.25,4.25,0,0,0,.47.31c.58.33,1.23.47,1.8.8a13.56,13.56,0,0,0,1.15.77l.38.17c.49.67.72,1.5,1.69,1.59a2.22,2.22,0,0,1,1.16-.45l.67.28c.43.51.11,1.16.6,1.69s1.5.6,2.11,1.11c1,.79,1.82,2.63,3.22,2.53l.27-.55c-.06-1.34-2-2.66-2.91-3.54a24.82,24.82,0,0,0-2-2.11,27.92,27.92,0,0,0-3.49-2.18c-.66-.36-1.35-.27-2-.56-1.32-.61-1.25-3.41-2.61-4a10,10,0,0,0-1.3-.24c-2.61-.7-2.92.13-4.88,1.28-1.68,0-3.93-.74-4.46,1.59a1.87,1.87,0,0,0,.22,1.46,1.78,1.78,0,0,1-.44,1.18,7.3,7.3,0,0,1-2,1.24c-2.11,1.07-3.89,2.44-6,.44a2,2,0,0,1-.7-1.41c.1-2.23,4.67-2.3,5.9-3a2.09,2.09,0,0,0,.81-.83c.08-.2.09-.46.16-.66.34-1,1.09-1.81,1.36-2.77a14.45,14.45,0,0,0,.61-3.5,7.77,7.77,0,0,0-1.11,1.31c-2.16,2.52-3.29,5-6.24,6.86a6.1,6.1,0,0,1-1.57.84c-.42.11-1,.3-1.36.38-1.61.29-5.28-1.15-6.54-.8l-.34.45.14.66c-.92,1-3.67,1.4-5,1.45l-.3-.52c.16-.38,1.29-1.12,1.69-1.62l.11-.63-.47-.31a19.9,19.9,0,0,0-2.19.31c-1.49.1-5.41-.58-6.4-1.8l-.06-.73c.53-.94,1.79-1.81,2.08-2.8.42-1.45-.69-2.5-2-2.74s-5.13,1.1-5.91,2.28a10.39,10.39,0,0,1-.41,2.85c-.74,1.49-2.62,2.37-3.74,3.57-.68.72-1.32,1.49-2,2.21a7,7,0,0,1-.94.66,6.88,6.88,0,0,1-1.5,0,13.57,13.57,0,0,0-2.74-2.19c-3.23.8-2.27,0-4.88-1l-.67.14-.33.48-.69-.09-.64.09c-.11-.2-.33-.6-.38-.65-.77-.84-1.64-1.68-2.37-2.57-.1-.13-.27-.69-.37-.8a11,11,0,0,0-2.85-1.84c-.47-.28-.87-.65-1.34-.93-1.43-.84-4.43-1.4-5.57-2.42a2.68,2.68,0,0,1-.24,1.42,14.65,14.65,0,0,1-3.68,3l-.33-.06-.41-.82-.49.57a23.79,23.79,0,0,1-3.66.51c-1.26-.51-1-3-2.61-3.72l-.1.27c1.59,1.08.71,3.39,3.29,4.42l.22.45-.17.41c0,.37.39.58.49.87a10.82,10.82,0,0,1,.07,2.9c-.82.34-.69,1.78-.81,2.43-.08.41-.32.81-.39,1.22-.14.75-.05,1.52-.24,2.29a2.7,2.7,0,0,0,1.14.34,6.88,6.88,0,0,0,3,1.83c.26.3.91,1.24.81,1.69l-.62.68-.85-.52-.59.15-.22.85-.6.11-.4.49-.77-.06-.42,1.21c.1.25.44,1.33.71,1.4l.86.14.19.37a3.06,3.06,0,0,1-.82,1,6.16,6.16,0,0,0-2.18-.83c.95,1,.34,2.67,2.32,2.64l.93.94a2.57,2.57,0,0,0,2.71,2.37,6.59,6.59,0,0,1,.85,1.42l-.58.27a2.31,2.31,0,0,1-.61.74,1.63,1.63,0,0,1-.82,0l-.15.3.32.72-.43.13c-1.85-1,0-2.14-2.56-3.51l-.93-.06L52,231l-.16.58.62,1.16-.07.19c-.88-.26-1.14-1.07-2.28-1.11l0,.49.94.16a2.56,2.56,0,0,0,1.17,1.26l.28.61c.44,0,1.72.92,1.78,1.36a2.49,2.49,0,0,0,.54,2.14l0,.38-.37.21-.24.88-.24.15-.51-.32a3.86,3.86,0,0,0-1.59.77,3,3,0,0,0-1.61-.45l-.45.21-.32.65-.21.12-.7-1.67-1.13-.59-.35-.76-.45-.33L46.22,236l-.23-.15h-.63l-.51-.68-.75.21c-.57-.25-.73-1.11-1.08-1.57-.86-1.12-2.3-.47-3-1.2-.39-.41-.62-1-1-1.43-.55-.59-1.26-.81-1.69-1.59l-.24.45-1.72-.3a3.9,3.9,0,0,1,1.85-.25c-.05-.22-1.43-1.37-1.73-1.85l-.7-.22a1.81,1.81,0,0,0-1.1-.91l-.07.51a2.07,2.07,0,0,0,.63.86,3.51,3.51,0,0,0,.08,2.17c-.7.29-.89.35-1.19,1.1l-.58.33c-.28-.1-.64-.73-.74-1l-.95-.27c-.86-.44,0-2-2.27-3.57a2.94,2.94,0,0,0-1.57-.54l-.48-.7-.56-.13-.27-.39-.44-.14a10.33,10.33,0,0,0-1.85-4.09l-.88-.41c-.81-1.76-3.27-4.59-5-5.12l-1.06-.63a16.38,16.38,0,0,0-4-1.83c-.64-.64-.5-2.87-1.47-4.13-.43.47-.54,1.11-1,1.53a1.62,1.62,0,0,0-1.08.45l-.19.62c.11,1.08,1,1.61,1.77,2.29l.27,1.05c-.6.68-3.53,0-4.39,3.58l.25.56,1.34.81.1.26c-.41.21-1.21-.4-1.93-.23l-.34-.2-.48.23a2.16,2.16,0,0,1-1.23-.44,1.76,1.76,0,0,1-1.27.21l-.1-.26c0-.51.68-.72.81-1a8.48,8.48,0,0,0,.37-.95c.63-1.57,1.43-2.91,2.12-4.42a55.21,55.21,0,0,0,2.4-7.55c.8-2.74,2-4.86.65-7.58l-1-.72a2.32,2.32,0,0,0,.05-1.33c-.54-2-1.61-1.72-1.66-3.56-.37-.36-1.43-1.5-1.13-2.13l.45.16.76,1,.84.85c1.76,2.07,3.91,3.79,5.42,6.07,1.71,2.57,3,5.5,4.77,8a9.82,9.82,0,0,0,1.72,1.56A16,16,0,0,0,21,209a2.65,2.65,0,0,0-.28-1.32c-.24-.49-2.08-3.84-2.3-4.09a49.28,49.28,0,0,1-4-5,11.45,11.45,0,0,1-.55-1.11c-.55-1-1.45-2-1.92-3a11.65,11.65,0,0,0-1-2.18c-.69-1-1.83-1.36-2.64-2.26l-.43-.73a7.07,7.07,0,0,0-1-2.7l-.23-.12-.26.1A1.8,1.8,0,0,1,6,185.21a1.3,1.3,0,0,0-.78-.28l-.4-.6,0-.57a3.66,3.66,0,0,0-.76-.39c-1-1.72-2.34-1.79-4.12-1.89l.24-.17H.77L1,180.26c-.74-.32-.7-1.15-1.78-1.52l-.1.5.61,1.26-.46,1,.28.66-.61-.28.29.66.19-.16A1.3,1.3,0,0,1-.3,183c-.16.07-.61.22-.78.13a5.68,5.68,0,0,0-1-1.59l.09-.36a1.43,1.43,0,0,0-.58-.48l0-.27.54-.14a12.14,12.14,0,0,0,.35-2.92c-.13-1.46-1.26-4.94-2.76-5.44" fill="none" stroke="#0978ab" stroke-linejoin="round" stroke-width="0.25"/><path id="path113" d="M148.4,37c-1,.27-1.73-.21-2.63,0a10.1,10.1,0,0,0-5.05,4.09c-.49,1-.7,2.53-1.58,3.32-1.31,1.2-3.26.81-3.91,2.74-.52,1.56,1,2.87,1,4.47s-1.56,2.83-2.28,4.23l.06.76a20.73,20.73,0,0,1,1.36,1.87,24,24,0,0,1,.72,4l.11,1.39-.44.85-.5.88-.41.51.13.43c.47.5,1.16,1.19.5,1.9a1.13,1.13,0,0,1-.85,1.76v.31l-.11.64.07.17.16.28.19.57c1.37-.11,1.23.52,1.19,1.63.47.85.43,1-.2,1.75l-.28.38-.21.24.1.3c1.08.41,1.15.67.75,1.79l-.09.18a1.47,1.47,0,0,1,.32,1.89l.32.64.22.62.1.63v.18l0,.37.08.43.19.38.34.94c.2,1.49.31,1.25-.16,2.33l.1.42c1.7-.61,1.72,1.63,1.42,2.72l-.1.23-.33.5-.62.84-1,1.28,0,.76.12,1,.3,1.23,0,.17a1.6,1.6,0,0,1,.85,1.44,1.33,1.33,0,0,1,0,.84c1-.08,1.77,1.08,1.2,1.82l-.79,1,0,.51.13.69.07.68.31.8.34,1.26,0,.23,0,.64-.71,5.1a5.73,5.73,0,0,0-1.07.91,30.09,30.09,0,0,0-3.41,8.08,7.56,7.56,0,0,0,.26,1.57c.12.57.12,1.16.29,1.72.3,1,.94,1.84,1.33,2.8" fill="none" stroke="#0978ab" stroke-linejoin="round" stroke-width="0.25"/><path id="path249" d="M65.12,230.56l-.05-.16.16-.25h.22c.28,0,.6.54.69.77l0,.17A3.27,3.27,0,0,0,65.12,230.56Z" fill="#fefee9" stroke="#0978ab" stroke-linejoin="round" stroke-width="0.25"/><path id="path251" d="M59.78,235.5l-.43.24-.68-.07-.35.21-.41-.11-.53-.54,0-.3.48-.22.05-.57.41.08.28-.39.42-.16A2.84,2.84,0,0,1,60,235,3.66,3.66,0,0,0,59.78,235.5Z" fill="#fefee9" stroke="#0978ab" stroke-linejoin="round" stroke-width="0.25"/><path id="path253" d="M64.52,240.43l.6.57v.4l-.28.24-.39-.12c-.34-.35-.17-1.42-.79-2.23l.28-.83.64.21a2,2,0,0,1,.55,1.11A2.35,2.35,0,0,1,64.52,240.43Z" fill="#fefee9" stroke="#0978ab" stroke-linejoin="round" stroke-width="0.25"/><polyline id="polyline295" points="96.15 206.5 96.54 206.88 96.95 207.3 97.51 207.58 97.92 207.96 97.65 208.51 97.06 208.75 96.48 208.48 95.93 208.17 95.51 207.82 95.04 207.4 94.63 207.09 94.98 206.61 95.48 206.29 96.15 206.5" fill="#fefee9" stroke="#0978ab" stroke-linejoin="round" stroke-width="0.25"/><polyline id="polyline297" points="112.14 211.8 112.53 212.29 112.78 212.84 112.42 213.33 111.84 213.16 111.2 212.98 110.53 212.77 110.03 212.46 110.31 211.91 110.81 211.49 111.26 211.22 111.75 210.9 112.14 211.8" fill="#fefee9" stroke="#0978ab" stroke-linejoin="round" stroke-width="0.25"/><polyline id="polyline299" points="114.17 210.49 115 210.52 115.58 210.8 115.89 211.28 115.55 211.73 115.11 212.12 114.53 212.43 113.86 212.32 113.44 211.94 113.25 211.35 113.33 210.63 114.17 210.49" fill="#fefee9" stroke="#0978ab" stroke-linejoin="round" stroke-width="0.25"/><path id="path19" d="M220.14-1.39c-2.18-.61-3.51.6-5,.52s-2.33-1.71-3.41-1.76c-.18,0-5.08,2-6.15,2.14-1.81.32-4.81-.56-6.13-.06A43.93,43.93,0,0,0,194.52,2c-.49.33-.91.77-1.38,1.11a30.11,30.11,0,0,1-4.52,2.61,12.77,12.77,0,0,1-2.69.86,7.72,7.72,0,0,0-1.52,0,15.93,15.93,0,0,0-2.11,1.21,23.09,23.09,0,0,0-2.3.94,12.07,12.07,0,0,0-1.72,1.63c-1.26,1.18-2.67,2.38-4.05,3.46a22.42,22.42,0,0,1-1.91,1.46,12.48,12.48,0,0,0-2.52,1.49C168.63,18,167,20.7,167,22.38a15.36,15.36,0,0,0,.52,1.73,7.22,7.22,0,0,0,1.14,1.39c-1.76,6.67-3.94,3-5.79,4.54-.63.5-.35.57-.61,1a9.21,9.21,0,0,1-3.08,2.15" fill="none" stroke="#0978ab" stroke-linejoin="round" stroke-width="0.25"/><path id="path111" d="M89.94-20.34a18,18,0,0,0,1.33,3.5,5.36,5.36,0,0,1,.34.49c.07.18.07.43.13.62.67,2.09,1.66,3.48,1.08,5.86-.61.67-1.62,1.54-1.6,2.52l.25.56a4,4,0,0,1,2.07,1.35c.07.69.12,1.39.17,2.08.45,0,.85,1.57.85,1.57-.1,1.42,0,1.44-1.17,2.46V1c1.37,1.61,1.11.94.51,2.78.46.44,1.14.67,1.5,1.16A1.57,1.57,0,0,1,96,4.79c2.53-.39,1,2.9,1,3.1a4.36,4.36,0,0,0,.4.94,12.27,12.27,0,0,1,3.57,3.35c.61-.22,1.53-1,2-.23a9.81,9.81,0,0,1,1.16,2.31c.5,1.25,2.59,4.28,0,4.68.84,1.22-1,2-2,1.91-.23.12-.46.22-.7.32,1.9.42,2.49,3.14-.53,3.37a1.84,1.84,0,0,0-.29.85c.74.75,2.07,1.78.94,2.9a4.3,4.3,0,0,1-1.16.87c-.07.58.08,2.21-.3,2.57,1,.39.54,2.19-.17,2.67l-.1.31a2.94,2.94,0,0,1,.31.92,2.31,2.31,0,0,1,.6.72s.54,1.43.29,1.73c-.17.75.32,1.36.16,2.11s-.56,1.25-.66,1.91c-.27,1.63.37,3.95.08,5.37a3.33,3.33,0,0,1-1,1.42c-.64,1.69.39,1.81.47,3.15,0,.36-.43,5.18-.5,5.44-.17.6-1.18,1.76-1.53,2.6a23.59,23.59,0,0,1,.73,6.27,2.73,2.73,0,0,0,.13,1.39l.5.34.58-.31.34.42c-.18,1.26,1.07,3.87.25,4.74l0,.73c1,.82,1,2.14,1.83,3,.87.68,2.41-.32,3.42-.08l-.23,1.26h0l-.29.57,0,.19.17.39.12.35.33.67,1.22,1.16c.72,1.07.72,1,.48,2.06-.12.58-1,.71-1.38.83a2.7,2.7,0,0,1,.67.64l.46.13.18.08c.48.29.65.42.76,1a1.07,1.07,0,0,1,.37.53l.06.2.16,1,.65.64c.31.39.61.68.41,1.23a1.3,1.3,0,0,1,.15,1.07l.23.24.92.46,1.12-.07c1.28-.24,1.26-.33,2.12.62.59.54.53.59.69,1.42v.28l-.07.39.12.62.4.48.13.25.13.36c.53.55.48.61.57,1.4l.07.79.52,1.14.84.69c.57.2.75.27,1,.83l.06.3c0,1.11-.52,1.4-1.49,1.61l-.7.07a1.85,1.85,0,0,1-1,1.85c.13.67,0,.87-.52,1.31V106l.17.5c.67.81.38,1.08,0,2l1.16.67c.24.14,1.19.55,1.35,1a1.13,1.13,0,0,1,1.17,1.87l-.74.53c-.12,1-.58,1.17-1.26,1.54.19.14.93.57,1,1a2.62,2.62,0,0,1,1.75.75l.26-.13.87-.35.42-.18c.66-1.12,1.76-.76,2.34.18l.52.31c.51.28,1.09.55.89,1.27.81.42.42,1,0,1.54l0,.45-.07.33.09.17c.63.86.5.72.59,1.91v.19l0,.28a1.26,1.26,0,0,1,.23.92,4,4,0,0,1,1.09,0,3.1,3.1,0,0,1,.79.37l.19.15.35.37c.53.74.68.85.52,1.62l.05.35a1.59,1.59,0,0,1-.16,1.7l.44.22c.33.25.62.44.84.61.34-.89.81-1.27,1.35-1.26l.14-.26.18-.21c.55-.44.73-.41,1.42-.28,0-.54.91-1.41,1.48-1.25l1.07.3.22.1,1.08.73.23.23.63,1,.1.22c.46,1.76.44,1.23-.24,3l-.68,1.18-.08.54-.13,1.17-.06.21-.42,1-.16.24-1.2,1.26-.74.74,0,.43.58,1,1.79,1.95,1.48,1.22.18,0c1.06-.57,1.86-1,2.59.29l.09.33.18,3.17.15.77.58.72c.84-.56.69-.45,1.82-.53H144c.83.14.87.06,1.45.49l.21.23.35.58.07.17.18.59.09.47c.15,1-.08,1-.69,2l-.43.76.06.38.49,1.14c.46,1.84-.05,2.23-1.51,3a1,1,0,0,1,.11,1.53c-.45.7-1.1.66-1.82.53l-.54.21-.21.34-.1.81.11.42.69,1,.52.55.59.09,1.51.08.23,0c1,.37.91.4,1.36,1.42l.07.26.07,1.1.13.88v.19l0,.43,0,.2-.21.54-.18.27c-.71.72-.63.62-1.7.78l-.54,0,.45.76.3.37.8,1.59.07.27.08.86,0,.24-.15.65-.12.26-.38.55-.48.53.1.93c-.14,2-.09,1.49-1.61,3-.51.52-1.37.49-2.07.68v.43a7.86,7.86,0,0,0-.28,1.38c.1,1.73,4.36,6.68,5.65,8.07a1.67,1.67,0,0,1-.44,1.18c-1.5.67-1.59,0-2.75.24l-.52.38c-.62,1.11,1,5.93-3.22,7.9-2.44,1.14-7-1.08-8.59-.35-.46.21-1.65.2-1.84.63-.36.79-1.45,1.15-1.29,2" fill="none" stroke="#0978ab" stroke-linejoin="round" stroke-width="0.25"/><path id="path117" d="M218.17,243.47c-1.74.59-5.46,0-7.43.38-1.5.32-6.91,2.39-7.79,3.54l-1,1.29c-.09.55-.41.71-.84,1l-.32.15a1.94,1.94,0,0,1-1.5-.11c-.74.82-2.14-.09-2.76-.47l-1.05-1-.72-.76-.38.18-.51.34a1.31,1.31,0,0,1-1.64.56c-1.07,1.62-.86,1.3-2.87,1.47-.54,0-.93-.64-1.15-1a1.3,1.3,0,0,1-1.85.92,1.55,1.55,0,0,1-.54,0,1.71,1.71,0,0,1-1.76.51l-.23.42-.12.16c-.76.77-.69.64-1.86.78l-1.07.17-.62.25-.75.31-.17.6-.11.3c-.34.54-1.09,1.34-1.8,1.23a1,1,0,0,1-.45,1.21l-.17.1a1.76,1.76,0,0,1-2-.62,1.46,1.46,0,0,1-1,.7l-.23.22v.35l-.05.63a1.16,1.16,0,0,1-.57.73" fill="none" stroke="#0978ab" stroke-linejoin="round" stroke-width="0.25"/><path id="path121" d="M220,319.59a6.55,6.55,0,0,1-.67-.2c-2.92-1.43-.86-3.44-1.39-5.2-.67-2.28-2.42-2.21-3.46-3.05a7.92,7.92,0,0,1-1.72-2.25c-.92-1.82-.69-2.74-.83-4.61a3.72,3.72,0,0,0-1.8-2.32c-.71,0-1.47.24-2.14.24-.94,0-4.62-.7-5.35-1.28s-1-1.8-1.63-2.57-1.51-1.06-2-1.87a4.32,4.32,0,0,1-.36-1.21c-.2-.56-1.32-2.37-1.67-3.29-.55-1.49-.39-2.37-1.27-4.16s-2.57-2.25-3.66-3.67c-.83-1.08-.81-2.81-1.33-3.36-.65-.7-2.08-1.13-2.94-2.05-1.58-1.69-2.36-4-3.77-5.85-.61-.8-1.48-1.32-2.16-2.05a25,25,0,0,1-1.94-2.7,16.26,16.26,0,0,1-1.77-5.4,3.45,3.45,0,0,0-.5-1c-.81-.8-2.27-.48-3.11-1.08s-1.31-2.44-2.33-3.39c-.65-.61-2.1-1.18-2.4-2l-.15-.39c.57-1.72,1.56-1.3,1-3.64l-.55-.2a4.71,4.71,0,0,0-1.44,1,1.68,1.68,0,0,1-1-.76c-.15-1,.19-1.93.05-2.88a3.61,3.61,0,0,0-.47-1.14c-.29-.63-.2-1.31-.44-1.94-.52-1.34-1.42-2.48-1.64-3.95a9.86,9.86,0,0,1,.25-2.15,10.57,10.57,0,0,0-.08-2.25,13.86,13.86,0,0,0-.17-1.46c-.38-1.69-1.45-3.23-1.13-5.09a13.73,13.73,0,0,1,.5-2,11.7,11.7,0,0,0,.55-1.18,12.78,12.78,0,0,0-1.33-1.9l.06-1.6-.31-.52a10.44,10.44,0,0,1-3.69-2.94,14.07,14.07,0,0,0-1.35-2c-1-.84-5.75-.22-6.6-.49" fill="none" stroke="#0978ab" stroke-linejoin="round" stroke-width="0.25"/></g></g></g><g id="Layer_8" data-name="Layer 8"><path d="M134.06,166.8c.72,7.76,1.78,13.68-1.6,20.06-.73,1.4-17.36,19.15-20.27,21.91a3.25,3.25,0,0,0-1.1,0l-.33.45.14.66c-.92,1-3.68,1.4-5,1.46l-.3-.52c.16-.39,1.29-1.13,1.69-1.63l.11-.63-.47-.31a21.78,21.78,0,0,0-2.19.31c-1.5.11-5.41-.57-6.41-1.8l0-.72c.53-.94,1.79-1.81,2.08-2.81.41-1.44-.69-2.5-2.06-2.74s-5.12,1.11-5.9,2.29a10.32,10.32,0,0,1-.42,2.84c-.73,1.5-2.62,2.37-3.74,3.57-.67.72-1.32,1.49-2,2.22a6.41,6.41,0,0,1-1,.65,5.75,5.75,0,0,1-1.49,0,13,13,0,0,0-2.75-2.18c-3.22.79-2.26,0-4.88-1l-.66.14-.34.49-.68-.1-.65.09a6.66,6.66,0,0,0-.37-.64c-.78-.85-1.64-1.69-2.37-2.58-.1-.13-.28-.69-.37-.79a5.18,5.18,0,0,0-1.19-.94c-.53-2.52-1.24-6-2-10.06-2-11-2-13.32-.53-14.92,1.72-1.86,5.23-2.62,7.85-2,2.38.54,5.07,2.41,5.89,1.52a.76.76,0,0,0,.1-.13c1.31-2.06-1.22-5.8-2.38-7.57-10.15-15.61-6.32-20.8-15.78-30.06-3.25-3.18-7.15-5.69-8.18-10.42-1.66-7.66,2.3-14-1.1-21.57A43.76,43.76,0,0,0,39.84,92.23c-2.68-2-10.74-12-13.08-14.22-3.57-3.38-7.34-8-5.37-13.51,2.56-7.1,16.49-3.07,27.9-13.84,3.4-3.21,3.08-4.44,5.84-7.57C65.16,31.69,87,28,100.69,32.36c4.39,1.41,8,3.64,10,6.73,4.92,7.29-2.94,12.59-.45,29.74,1.57,10.75,5.36,13.47,10.15,22.85A122.3,122.3,0,0,1,125.2,103c3.39,8.72,6.06,15.59,8.07,23.07C137.45,141.67,131.73,141.47,134.06,166.8Z" fill="#136f35" opacity="0.4"/></g><g id="Layer_10" data-name="Layer 10"><circle cx="74.9" cy="203.09" r="0.73"/><text transform="translate(77.07 203.91)" font-size="3" font-family="Helvetica-Oblique, Helvetica" font-style="oblique">Aguasto</text><circle cx="71.37" cy="194.13" r="0.73"/><text transform="translate(73.54 194.95)" font-size="3" font-family="Helvetica-Oblique, Helvetica" font-style="oblique">Suskol</text><circle cx="75.06" cy="184.66" r="0.73"/><text transform="translate(77.23 185.48)" font-size="3" font-family="Helvetica-Oblique, Helvetica" font-style="oblique">Tulukai</text><circle cx="73.45" cy="181.44" r="0.73"/><text transform="translate(75.62 182.26)" font-size="3" font-family="Helvetica-Oblique, Helvetica" font-style="oblique">Napato</text><circle cx="86.77" cy="182.35" r="0.73"/><text transform="translate(88.94 183.16)" font-size="3" font-family="Helvetica-Oblique, Helvetica" font-style="oblique">Soneto</text><circle cx="101.89" cy="199.38" r="0.73"/><text transform="translate(104.06 200.2)" font-size="3" font-family="Helvetica-Oblique, Helvetica" font-style="oblique">Tolenas</text><circle cx="100.44" cy="175.45" r="0.73"/><text transform="translate(102.61 176.27)" font-size="3" font-family="Helvetica-Oblique, Helvetica" font-style="oblique">Ululato</text><circle cx="101.17" cy="156.26" r="0.73"/><text transform="translate(103.34 157.08)" font-size="3" font-family="Helvetica-Oblique, Helvetica" font-style="oblique">Liwai</text><circle cx="88.22" cy="157.81" r="0.73"/><text transform="translate(90.39 158.63)" font-size="3" font-family="Helvetica-Oblique, Helvetica" font-style="oblique">Liwai</text><circle cx="80.34" cy="153.55" r="0.73"/><text transform="translate(82.51 154.37)" font-size="3" font-family="Helvetica-Oblique, Helvetica" font-style="oblique">Putato</text><circle cx="117.01" cy="130.26" r="0.73"/><text transform="translate(119.18 131.08)" font-size="3" font-family="Helvetica-Oblique, Helvetica" font-style="oblique">Churup</text><circle cx="124.99" cy="119.2" r="0.73"/><text transform="translate(127.16 120.02)" font-size="3" font-family="Helvetica-Oblique, Helvetica" font-style="oblique">Yo&apos;doi</text><circle cx="119.91" cy="98.94" r="0.73"/><text transform="translate(122.08 99.76)" font-size="3" font-family="Helvetica-Oblique, Helvetica" font-style="oblique">Koh&apos;pah de&apos;-he</text><circle cx="118.46" cy="94.6" r="0.73"/><text transform="translate(120.63 95.42)" font-size="3" font-family="Helvetica-Oblique, Helvetica" font-style="oblique">Kusêmpu</text><circle cx="113.48" cy="91.04" r="0.73"/><text transform="translate(115.65 91.86)" font-size="3" font-family="Helvetica-Oblique, Helvetica" font-style="oblique">Nawidihu</text><circle cx="109.72" cy="89.11" r="0.73"/><text transform="translate(111.89 89.93)" font-size="3" font-family="Helvetica-Oblique, Helvetica" font-style="oblique">P&apos;ālo</text><circle cx="109.24" cy="79.08" r="0.73"/><text transform="translate(111.41 79.89)" font-size="3" font-family="Helvetica-Oblique, Helvetica" font-style="oblique">P&apos;ālo</text><circle cx="105.52" cy="81.91" r="0.73"/><text transform="translate(107.69 82.73)" font-size="3" font-family="Helvetica-Oblique, Helvetica" font-style="oblique">Gapa</text><circle cx="116.65" cy="111.72" r="0.73"/><circle cx="115.56" cy="107.68" r="0.73"/><circle cx="95.34" cy="130.21" r="0.73"/><text transform="translate(97.51 131.03)" font-size="3" font-family="Helvetica-Oblique, Helvetica" font-style="oblique">Moso</text><circle cx="83.24" cy="126.81" r="0.73"/><text transform="translate(85.41 127.63)" font-size="3" font-family="Helvetica-Oblique, Helvetica" font-style="oblique">Kisi</text><circle cx="81.07" cy="119.25" r="0.73"/><text transform="translate(83.24 120.06)" font-size="3" font-family="Helvetica-Oblique, Helvetica" font-style="oblique">Imil</text><circle cx="68.97" cy="107.59" r="0.73"/><text transform="translate(71.14 108.41)" font-size="3" font-family="Helvetica-Oblique, Helvetica" font-style="oblique">Lopa</text><circle cx="66.44" cy="104.95" r="0.73"/><text transform="translate(68.61 105.76)" font-size="3" font-family="Helvetica-Oblique, Helvetica" font-style="oblique">Tebti?</text><circle cx="62.67" cy="89.11" r="0.73"/><text transform="translate(64.84 89.93)" font-size="3" font-family="Helvetica-Oblique, Helvetica" font-style="oblique">Sukui</text><circle cx="100" cy="47.28" r="0.73"/><text transform="translate(102.17 48.1)" font-size="3" font-family="Helvetica-Oblique, Helvetica" font-style="oblique">Bo&apos;-do</text><circle cx="96.39" cy="55.77" r="0.73"/><text transform="translate(98.56 56.59)" font-size="3" font-family="Helvetica-Oblique, Helvetica" font-style="oblique">Katsil</text><circle cx="100.73" cy="64.73" r="0.73"/><text transform="translate(102.9 65.55)" font-size="3" font-family="Helvetica-Oblique, Helvetica" font-style="oblique">Si&apos;-ko-pe</text><circle cx="99.28" cy="68.01" r="0.73"/><text transform="translate(101.45 68.83)" font-size="3" font-family="Helvetica-Oblique, Helvetica" font-style="oblique">Til-til</text><circle cx="102.62" cy="71.22" r="0.73"/><text transform="translate(104.79 72.04)" font-size="3" font-family="Helvetica-Oblique, Helvetica" font-style="oblique">Dok&apos;-dok</text><circle cx="47.09" cy="93.15" r="0.73"/><text transform="translate(49.26 93.96)" font-size="3" font-family="Helvetica-Oblique, Helvetica" font-style="oblique">Ho&apos;lokomi</text><circle cx="46.37" cy="89.88" r="0.73"/><text transform="translate(48.54 90.7)" font-size="3" font-family="Helvetica-Oblique, Helvetica" font-style="oblique">Tokti</text><circle cx="43.48" cy="87.56" r="0.73"/><text transform="translate(45.64 88.38)" font-size="3" font-family="Helvetica-Oblique, Helvetica" font-style="oblique">Tebti?</text><circle cx="100.73" cy="74.02" r="0.73"/><text transform="translate(102.9 74.84)" font-size="3" font-family="Helvetica-Oblique, Helvetica" font-style="oblique">Koru</text><text transform="translate(61.51 114.78)" font-size="3" fill="#fefee9" font-family="Helvetica-Bold, Helvetica" font-weight="700">HILL<tspan x="-2.36" y="3.95">PATWIN</tspan></text><g opacity="0.2"><text transform="translate(39.66 113.78)" font-size="3" font-family="Helvetica-Bold, Helvetica" font-weight="700">LAKE<tspan x="-1.25" y="3.95">MIWOK</tspan></text></g><g opacity="0.2"><text transform="translate(52.99 18.81)" font-size="3" font-family="Helvetica-Bold, Helvetica" font-weight="700">NOMLAKI</text></g><g opacity="0.2"><text transform="translate(49.52 155.53)" font-size="3" font-family="Helvetica-Bold, Helvetica" font-weight="700">WAPPO</text></g><g opacity="0.2"><text transform="translate(8.94 148.14)" font-size="3" font-family="Helvetica-Bold, Helvetica" font-weight="700">POMO</text></g><g opacity="0.2"><path d="M163.86,190.07a.79.79,0,0,1-.54.16h-.45V191h-.45v-2.16h.93a.76.76,0,0,1,.51.16.65.65,0,0,1,.19.52A.64.64,0,0,1,163.86,190.07Zm-.34-.78a.43.43,0,0,0-.24-.07h-.41v.64h.41a.36.36,0,0,0,.24-.08.34.34,0,0,0,.08-.25A.33.33,0,0,0,163.52,189.29Z"/><path d="M164.41,188.85h.45v1.77h1.08V191h-1.53Z"/><path d="M166.86,188.85h.51l.77,2.16h-.49l-.14-.45h-.8l-.15.45h-.47Zm0,1.34h.56l-.28-.85Z"/><path d="M168.82,191h-.44v-2.16h.44Z"/><path d="M169.24,188.85h.47l.86,1.5v-1.5H171V191h-.45l-.88-1.54V191h-.42Z"/><path d="M171.74,190.34a.41.41,0,0,0,.08.22.46.46,0,0,0,.38.13,1,1,0,0,0,.27,0,.25.25,0,0,0,.19-.25.2.2,0,0,0-.09-.17,1.16,1.16,0,0,0-.3-.1l-.24,0a1.42,1.42,0,0,1-.47-.17.5.5,0,0,1-.22-.46.58.58,0,0,1,.22-.48.89.89,0,0,1,.62-.2,1,1,0,0,1,.59.18.68.68,0,0,1,.26.53h-.44a.3.3,0,0,0-.17-.28.68.68,0,0,0-.27-.05.47.47,0,0,0-.28.07.21.21,0,0,0-.11.2.19.19,0,0,0,.1.17l.29.09.38.09a1,1,0,0,1,.37.15.54.54,0,0,1,.2.44.64.64,0,0,1-.23.5,1,1,0,0,1-.65.19,1,1,0,0,1-.67-.19.65.65,0,0,1-.24-.53Z"/><path d="M164,192.79h.65V195h-.42v-1.81l-.4,1.81h-.44l-.41-1.81V195h-.42v-2.16h.66l.39,1.7Z"/><path d="M165.49,195H165v-2.16h.45Z"/><path d="M166.21,192.79l.28,1.24.06.34.07-.33.24-1.25h.48l.25,1.24.07.34.07-.33.28-1.25h.46l-.61,2.16h-.43l-.26-1.26-.07-.42-.08.42-.26,1.26h-.42l-.61-2.16Z"/><path d="M170.41,194.76a1.13,1.13,0,0,1-1.42,0,1.16,1.16,0,0,1-.33-.89A1.13,1.13,0,0,1,169,193a1.13,1.13,0,0,1,1.42,0,1.16,1.16,0,0,1,.32.89A1.2,1.2,0,0,1,170.41,194.76Zm-.28-.33a1.12,1.12,0,0,0,0-1.12.56.56,0,0,0-.86,0,1.06,1.06,0,0,0,0,1.12.56.56,0,0,0,.86,0Z"/><path d="M171.09,192.79h.44v.89l.83-.89H173l-.89.89L173,195h-.58l-.66-.94-.22.22V195h-.44Z"/></g><g opacity="0.2"><text transform="translate(156.36 98.94)" font-size="3" font-family="Helvetica-Bold, Helvetica" font-weight="700">NISENAN</text></g><g opacity="0.2"><text transform="translate(117.26 18.81)" font-size="3" font-family="Helvetica-Bold, Helvetica" font-weight="700">KONKOW</text></g><g opacity="0.2"><path d="M31.73,200.43a.87.87,0,0,1,.66-.27.9.9,0,0,1,.79.36.82.82,0,0,1,.15.4h-.45a.7.7,0,0,0-.11-.23.44.44,0,0,0-.36-.14.42.42,0,0,0-.38.2.91.91,0,0,0-.14.56.83.83,0,0,0,.15.54.45.45,0,0,0,.37.18.43.43,0,0,0,.35-.15.65.65,0,0,0,.11-.25h.45a1,1,0,0,1-.29.57.86.86,0,0,1-.61.22.93.93,0,0,1-.73-.3,1.42,1.42,0,0,1,0-1.69Z"/><path d="M35.35,202.17a.93.93,0,0,1-.71.25,1,1,0,0,1-.71-.25,1.2,1.2,0,0,1-.32-.89,1.16,1.16,0,0,1,.32-.89,1,1,0,0,1,.71-.25.93.93,0,0,1,.71.25,1.13,1.13,0,0,1,.33.89A1.16,1.16,0,0,1,35.35,202.17Zm-.28-.33a1.06,1.06,0,0,0,0-1.12.56.56,0,0,0-.86,0,1.06,1.06,0,0,0,0,1.12.56.56,0,0,0,.86,0Z"/><path d="M36.64,200.2h.51l.76,2.16h-.49l-.14-.44h-.79l-.15.44h-.47Zm0,1.35h.55l-.27-.85Z"/><path d="M38.51,201.7a.56.56,0,0,0,.08.22.5.5,0,0,0,.39.13.88.88,0,0,0,.26,0,.26.26,0,0,0,.2-.25.19.19,0,0,0-.1-.17.94.94,0,0,0-.3-.1l-.23-.05a1.49,1.49,0,0,1-.48-.17.53.53,0,0,1-.21-.47.63.63,0,0,1,.21-.48.9.9,0,0,1,.63-.19,1,1,0,0,1,.59.18.66.66,0,0,1,.25.53h-.43a.31.31,0,0,0-.18-.28.53.53,0,0,0-.26,0,.5.5,0,0,0-.29.07.21.21,0,0,0-.11.19.18.18,0,0,0,.11.17.89.89,0,0,0,.29.09l.38.09a.91.91,0,0,1,.37.16.52.52,0,0,1,.19.44.59.59,0,0,1-.23.49,1,1,0,0,1-.64.2,1.09,1.09,0,0,1-.67-.19.63.63,0,0,1-.25-.53Z"/><path d="M41.76,200.2v.39h-.65v1.77h-.45v-1.77H40v-.39Z"/><path d="M32.87,204.15h.65v2.16H33.1V204.5l-.41,1.81h-.44l-.4-1.81v1.81h-.42v-2.16h.66l.39,1.7Z"/><path d="M34.35,206.31H33.9v-2.16h.45Z"/><path d="M35.06,204.15l.29,1.24.06.34.06-.34.25-1.24h.47l.26,1.24.07.34.06-.33.29-1.25h.46l-.61,2.16h-.43L36,205.05l-.08-.42-.07.42-.26,1.26H35.2l-.61-2.16Z"/><path d="M39.27,206.12a1,1,0,0,1-.71.25.93.93,0,0,1-.71-.25,1.18,1.18,0,0,1-.33-.89,1.12,1.12,0,0,1,.33-.89.94.94,0,0,1,.71-.26,1,1,0,0,1,.71.26,1.15,1.15,0,0,1,.32.89A1.21,1.21,0,0,1,39.27,206.12Zm-.29-.33a.85.85,0,0,0,.16-.56.88.88,0,0,0-.16-.57.5.5,0,0,0-.42-.19.53.53,0,0,0-.43.19.88.88,0,0,0-.16.57.85.85,0,0,0,.16.56.54.54,0,0,0,.43.2A.5.5,0,0,0,39,205.79Z"/><path d="M39.94,204.15h.45V205l.83-.89h.58l-.88.89.93,1.27h-.58l-.67-.94-.21.22v.72h-.45Z"/></g><g opacity="0.2"><text transform="translate(95.03 247.46)" font-size="3" font-family="Helvetica-Bold, Helvetica" font-weight="700">OHLONE</text></g><g opacity="0.2"><text transform="translate(105.49 223.17)" font-size="3" font-family="Helvetica-Bold, Helvetica" font-weight="700">BAY<tspan x="-2.3" y="3.95">MIWOK</tspan></text></g><g opacity="0.2"><text transform="translate(67.03 283.16)" font-size="3" font-family="Helvetica-Bold, Helvetica" font-weight="700">OHLONE</text></g><text transform="translate(88.48 167.72)" font-size="3" fill="#fefee9" font-family="Helvetica-Bold, Helvetica" font-weight="700">SOUTHERN PATWIN</text><text transform="translate(82.19 61.71)" font-size="3" fill="#fefee9" font-family="Helvetica-Bold, Helvetica" font-weight="700">RIVER<tspan x="-1.11" y="3.95">PATWIN</tspan></text><path d="M79.65,29.15c-9,24.42-6,38.15-1.29,46.24,3.44,5.92,7.73,8.75,15.55,22,6.82,11.53,8.41,17.59,9.09,21" fill="none" stroke="#fefee9" stroke-linecap="round" stroke-miterlimit="10" stroke-width="2" opacity="0.4"/></g><g id="Layer_2" data-name="Layer 2"><path d="M16.3,82.45c-.14.35-.41.45-.65.65A2.44,2.44,0,0,0,15,84.49c-.21.85,0,.88-.21,1.69a3.25,3.25,0,0,1-.56,1.27c-.21.27-.41.4-.5.72a1.55,1.55,0,0,0,.05.77,11.43,11.43,0,0,1-.12,1.92,2.62,2.62,0,0,0,.07,1.39.76.76,0,0,0,.31.41c.23.14.48.07.84,0s.72,0,1.08-.09,1-.06,2.14-.07a7.2,7.2,0,0,1,2,.09c.55.16.49.27,1.05.41.93.23,1.23,0,1.71.29a2.4,2.4,0,0,1,.7.91,2.28,2.28,0,0,1,.26.7c.06.34,0,.4.05.67,0,0,.17.67.55.75.17,0,.24-.07.89-.44a2.92,2.92,0,0,1,.77-.36,5.79,5.79,0,0,1,.74,0,2.35,2.35,0,0,0,.75-.07.85.85,0,0,0,.5-.36c.2-.42-.42-.85-.24-1.28a.59.59,0,0,1,.63-.33.55.55,0,0,1,.33.33c.22.46-.1.78-.12,1.37a2.7,2.7,0,0,0,.6,1.54c.38.54.71.69.87,1.27a1,1,0,0,1,.05.6c-.12.41-.52.48-.55.87a.77.77,0,0,0,.09.41c.12.22.29.3.6.5s.35.31.75.55.73.47.89.34,0-.23.12-.46a.62.62,0,0,1,.38-.31.7.7,0,0,1,.53.19,2.17,2.17,0,0,1,.48.7,3,3,0,0,0,.79.91,2.45,2.45,0,0,0,.89.41,3.72,3.72,0,0,0,.87.12,2.53,2.53,0,0,0,1.2-.07c.24-.1.38-.23.53-.17s.18.24.21.39c.1.4-.05.52,0,.81s.41.38.53.82-.15.58,0,.91a1.17,1.17,0,0,0,.82.53,1,1,0,0,0,.91-.07c.15-.12.19-.29.27-.58s.16-.64.07-.84c-.25-.51-1.29-.17-1.59-.69-.15-.28.09-.47,0-1.06a2.89,2.89,0,0,0-.39-.87,7.1,7.1,0,0,0-1-1.41,5.2,5.2,0,0,0-1.47-1.18,2.46,2.46,0,0,0-1.63-.43c-.32,0-.64.21-.67.14s.39-.26.45-.65a.93.93,0,0,0-.21-.67,2.51,2.51,0,0,0-.77-.67c-.46-.32-.43-.26-.82-.53a6.53,6.53,0,0,0-.91-.65c-.26-.14-.44-.2-.43-.24s.1,0,.69,0,.66,0,.87.07a2.82,2.82,0,0,1,.67.15c.39.15.41.32.79.5a2.35,2.35,0,0,0,.8.19,4.07,4.07,0,0,0,1.15,0c.34,0,.4-.07.43-.12.13-.22-.37-.6-.24-.92a.57.57,0,0,1,.24-.21,1.9,1.9,0,0,1,.53-.19c.28-.11.59-.39.55-.58s-.54-.31-1-.38a6.56,6.56,0,0,0-1-.08c-.75,0-1,0-1.3,0a8.44,8.44,0,0,1-1.94-.24,7.74,7.74,0,0,1-1.69-.65c-1.1-.53-1.22-.8-1.25-1-.06-.32.16-.58,0-.74s-.44-.09-.57-.07a2.71,2.71,0,0,0-.39.12l-.6.14-.53.12a1.19,1.19,0,0,1-1.12-1c0-.19.08-.24,0-.43s-.3-.3-.36-.56.27-.48.17-.76-.22-.15-.31-.34.16-.47.14-1a1.3,1.3,0,0,0-.24-.7c-.14-.2-.25-.21-.43-.38-.38-.36-.25-.62-.58-1.11s-.37-.26-.79-.77-.3-.56-.62-.89-.47-.26-.89-.62-.38-.51-.72-.79A2.84,2.84,0,0,0,20,81.9c-.73-.06-.87.19-1.42,0-.36-.12-.57-.32-.77-.22s-.14.5-.36.6-.75-.45-1-.31S16.4,82.2,16.3,82.45Z" fill="#c6ecff" stroke="#0978ab" stroke-miterlimit="10" stroke-width="0.25"/></g></svg>