<?xml version="1.0" encoding="UTF-8" standalone="no"?>
<svg
   xmlns:dc="http://purl.org/dc/elements/1.1/"
   xmlns:cc="http://creativecommons.org/ns#"
   xmlns:rdf="http://www.w3.org/1999/02/22-rdf-syntax-ns#"
   xmlns="http://www.w3.org/2000/svg"
   xmlns:sodipodi="http://sodipodi.sourceforge.net/DTD/sodipodi-0.dtd"
   xmlns:inkscape="http://www.inkscape.org/namespaces/inkscape"
   width="478" height="385" viewBox="10.5 7 478 385"
   version="1.1"
   inkscape:version="0.48.2 r9819"
   sodipodi:docname="Pomoan_languages_map_multicolored.svg">
  <metadata>
    <rdf:RDF>
      <cc:Work rdf:about="">
        <dc:format>image/svg+xml</dc:format>
        <dc:type rdf:resource="http://purl.org/dc/dcmitype/StillImage" />
        <dc:title>Pomoan languages map</dc:title>
      </cc:Work>
    </rdf:RDF>
  </metadata>
  <g
     inkscape:groupmode="layer"
     id="layer3"
     inkscape:label="Coastline"
     style="display:inline">
    <path
       id="path14090"
       d="m 19,14.80401 c 18.849463,0.494091 37.703445,0.743429 56.55676,1.03498 l 12.01766,16.66612 c 6.60974,9.16638 12.01766,17.95766 12.01766,19.53619 0,1.57853 0.77994,1.517202 1.73322,0.928052 0.95322,-0.58914 1.94211,0.580552 2.5523,1.890012 0.88583,1.9009 1.33217,1.90328 2.21485,0.0117 1.31393,-2.81565 6.76503,-2.902994 6.76503,-0.183434 0,1.04228 -0.85273,1.89506 -1.89502,1.89506 -2.7204,0 -2.33444,3.08001 0.77552,6.19 1.46881,1.46883 2.1084,3.44849 1.42133,4.39924 -1.57582,2.18031 -7.07897,3.447736 -6.77856,1.545146 0.76601,-4.85127 0.12706,-9.027094 -2.12121,-9.027094 -1.55616,0 -2.229,1.216718 -2.07852,3.839908 0.13948,2.43126 0.75108,4.42107 1.35906,4.42181 1.28783,0.002 1.17949,-1.21024 2.2868,25.58462 0.71498,17.3031 2.22935,20.94976 4.78975,21.45835 1.6965,0.33699 1.24269,14.54124 1.24269,13.58937 0.56149,8.72125 2.08103,16.39176 6.76533,36.08376 10.05565,24.29033 4.91907,28.10251 4.54353,45.89289 -0.26001,12.31688 18.7295,21.89156 26.01253,31.57297 13.78788,18.3284 28.84406,45.69591 42.7605,50.09941 11.19413,3.5421 16.56972,22.27618 19.6866,29.20844 0.46159,7.92817 2.7053,9.60656 -3.07246,12.76978 2.09944,0.002 3.78863,1.26833 3.79004,2.84257 0.002,1.56198 1.534,5.09493 3.40559,7.85094 1.87167,2.7561 3.902,8.0859 4.51187,11.8442 l 1.1088,6.8331 -106.37118,0 -96.00047,0 z"
       style="fill:#9ec8d8;fill-opacity:1;display:inline"
       sodipodi:nodetypes="cccssssssscsssscsccsssccccccccc"
       inkscape:export-filename="/home/pat/pomoan_large.png"
       inkscape:export-xdpi="136.25999"
       inkscape:export-ydpi="136.25999"
       inkscape:connector-curvature="0" />
    <path
       style="color:#000000;fill:#e5e2d7;fill-opacity:1;fill-rule:nonzero;stroke:none;stroke-width:7.14531565;marker:none;visibility:visible;display:inline;overflow:visible;enable-background:accumulate"
       d="m 75.375003,15.301993 12.03125,16.796851 c 6.60974,9.16638 12,17.95272 12,19.53125 0,1.578529 0.796717,2.401649 1.749997,1.812499 0.95322,-0.58914 2.23356,0.003 2.84375,1.3125 0.88583,1.9009 1.33607,1.89158 2.21875,0 1.31393,-2.815649 6.46875,-3.188309 6.46875,-0.46875 0,1.04228 -0.86396,1.90625 -1.90625,1.90625 -2.7204,0 -2.32871,3.07751 0.78125,6.1875 1.46881,1.46883 2.12457,3.4555 1.4375,4.40625 -1.57582,2.18031 -6.08166,3.15259 -5.78125,1.25 0.76601,-4.85127 -0.59548,-9.3125 -2.84375,-9.3125 -1.55616,0 -2.52548,1.78306 -2.375,4.40625 0.13948,2.43126 0.76702,4.40551 1.375,4.40625 1.28783,0.002 1.17394,-1.20111 2.28125,25.593751 0.71498,17.303096 2.22085,20.960156 4.78125,21.468746 1.6965,0.33699 1.25,14.54562 1.25,13.59375 0.56149,8.72125 2.09695,16.3705 6.78125,36.0625 10.05565,24.29033 4.90679,28.11587 4.53125,45.90625 -0.26001,12.31688 18.71697,21.88109 26,31.5625 13.78788,18.3284 28.86481,45.69025 42.78125,50.09375 11.19413,3.5421 16.57062,22.28649 19.6875,29.21875 0.46159,7.92817 2.68401,9.61803 -3.09375,12.78125 2.09944,0.002 3.81109,1.26951 3.8125,2.84375 0.002,1.56198 1.53466,5.08774 3.40625,7.84375 1.87167,2.7561 3.89013,8.08545 4.5,11.84375 l 0.96875,6.125 c 114.84192,0 214.7187,-0.0312 214.7187,-0.0312 0,-88.40406 0,-347.140647 0,-347.140647 -120.09606,-6.83e-4 -240.27723,-0.01984 -360.406197,0 z"
       id="rect7578"
       inkscape:connector-curvature="0"
       sodipodi:nodetypes="ccscccssscssscssccssscccsccccc" />
    <rect
       style="opacity:0.1;color:#000000;fill:#ffffff;fill-opacity:0;fill-rule:nonzero;stroke:none;stroke-width:7.14531565;marker:none;visibility:visible;display:inline;overflow:visible;enable-background:accumulate"
       id="rect6688"
       width="1116.4802"
       height="910.81281"
       x="-569.258"
       y="-452.05072" />
  </g>
  <g
     inkscape:groupmode="layer"
     id="layer4"
     inkscape:label="Languages"
     style="display:inline">
    <path
       style="fill:#377eb8;fill-opacity:1;stroke:none;display:inline"
       d="m 179.15625,255.4375 c -4.93361,0.317 -7.94659,4.74177 -11.87386,7.12648 -2.71627,2.69619 -0.50134,6.87895 1.94629,8.91928 6.24572,6.46112 10.85189,15.01575 19.30467,18.9475 5.82475,2.78727 12.08649,6.25696 14.75463,12.48728 1.45975,2.88827 2.41854,6.86809 6.0047,7.7674 3.81363,0.30657 7.62183,-0.21506 11.42817,-0.38567 3.344,-2.16141 1.05784,-6.48636 -0.71333,-8.90729 -1.84707,-4.57559 -1.75056,-9.6712 -1.07933,-14.47631 0.77695,-3.11176 4.27618,-5.73283 2.96311,-9.18857 -1.56757,-4.12408 -5.85219,-6.10296 -9.05453,-8.77351 -3.31458,-2.34879 -6.22401,-5.33152 -9.86189,-7.18254 -4.84727,-1.99437 -10.79634,-0.67091 -15.01332,-4.27585 -2.65109,-1.66836 -5.78291,-1.8101 -8.80531,-2.0582 z"
       id="kju"
       inkscape:connector-curvature="0" />
    <path
       style="fill:#984ea3;fill-opacity:1;stroke:none;display:inline"
       d="m 195.28125,226.09375 c -2.38506,0.0407 -4.92893,0.68861 -7.65625,2.53125 -8.98759,3.48014 -22.64601,6.99402 -30.03125,10.625 -3.01211,1.477 -5.4258,3.00193 -7.375,4.53125 4.0089,5.44612 8.12799,11.53609 12.28125,17.5625 0.42212,-0.21221 0.83306,-0.43396 1.25,-0.6875 14.64823,-8.90769 14.78959,-10.07173 20.96875,-6.96875 6.48056,2.46192 11.19298,2.15653 17.25,4.53125 8.76681,0.50196 12.40924,6.52779 18.5,12.78125 3.77384,4.68889 6.04513,9.11541 3.0625,14.0625 -0.67159,5.26028 -1.16607,4.15001 -1.4375,8.625 0.49485,5.54373 3.56411,13.95094 7.5,17.125 3.29115,1.23549 11.41921,3.74336 17.8125,4.84375 8.18658,-1.78975 14.5974,2.76652 21.96875,3.53125 1.74359,-0.1865 2.84245,-1.73276 4,-2.84375 10.95029,-3.69977 -0.39043,-12.21266 -2.78125,-18.78125 -5.95764,-7.80394 -11.4393,-16.05061 -18.78125,-22.8125 -5.45219,-8.62885 -15.55462,-9.44746 -21.96875,-16.3125 -4.58696,-6.07043 -4.41693,-17.7626 3.21875,-20.3125 4.22199,-4.0708 16.22389,-2.9265 20.3125,-2.65625 -4.49733,-5.87869 -15.01505,-12.34305 -19.125,-5.28125 -5.9137,0.0789 -10.60342,3.45241 -16.8125,2.375 -2.61276,-1.45135 -4.15401,-5.30326 -8.03125,-3.90625 -4.33949,0.23097 -8.87786,-2.65199 -14.125,-2.5625 z"
       id="peq"
       inkscape:connector-curvature="0" />
    <path
       transform="translate(0,-652.362)"
       style="fill:#e41a1c;fill-opacity:1;stroke:none"
       d="m 257.71908,886.29301 c -5.73341,-5.32946 11.4806,-17.78974 -3.07513,-14.78897 -3.64247,0.75607 -6.50525,-0.36396 -8.53409,-3.49141 -2.71567,-2.06042 -4.37884,-4.53652 -3.46415,-8.03059 0.0759,-4.05474 0.15189,-8.10954 0.22792,-12.16427 7.1233,1.35907 9.90132,2.27246 10.30386,-5.85761 6.26381,3.92125 0.35184,-9.53257 -0.8944,-12.44307 -0.655,-7.28072 0.39987,-21.91209 -9.58086,-21.04562 -6.60761,-0.41789 -9.39334,-11.659 -10.75743,-14.93212 1.56693,7.3799 -5.94318,14.58178 -0.18531,21.27818 0.71648,4.58042 -1.49311,10.00795 3.55858,12.66674 4.52437,6.65669 0.52087,14.36411 -2.52816,20.81415 -2.85861,5.23162 -6.94774,19.50881 4.02323,18.26254 5.26704,2.13082 5.29707,9.27351 10.15747,11.52104 3.40968,2.23994 7.04932,8.2606 10.47007,9.34253 l 0.2784,-1.13152 0,0 z"
       id="peb"
       inkscape:export-filename="/home/pat/pomoan_large.png"
       inkscape:export-xdpi="136.25999"
       inkscape:export-ydpi="136.25999"
       inkscape:label="#path10213"
       inkscape:connector-curvature="0">
      <desc
         id="desc16687">Eastern Pomo Language</desc>
      <title
         id="title16685">EasternPomo</title>
    </path>
    <path
       transform="translate(0,-652.362)"
       style="fill:#ff7f00;fill-opacity:1;stroke:none"
       d="m 279.00681,867.62202 c 6.21246,-1.53609 6.26475,-4.45373 1.35387,-7.57777 -5.99578,-5.43921 -9.78111,-15.92045 -19.20645,-15.08772 -4.54631,1.68548 -7.25279,0.91903 -7.12793,6.80161 -2.44727,7.28032 -9.8959,-7.17895 -8.69306,2.84869 0.30466,3.74623 -1.12964,8.24448 2.84194,10.46719 2.05423,2.72729 4.49277,4.53979 8.0611,3.66373 7.37818,-0.17116 14.82611,0.46113 22.14635,-0.49093 l 0.62418,-0.6248 0,0 z"
       id="pom"
       inkscape:export-filename="/home/pat/pomoan_large.png"
       inkscape:export-xdpi="136.25999"
       inkscape:export-ydpi="136.25999"
       inkscape:label="#path10211"
       inkscape:connector-curvature="0">
      <desc
         id="desc16679">Southeastern Pomo language</desc>
      <title
         id="title16677">SoutheasternPomo</title>
    </path>
    <path
       style="fill:#a65628;fill-opacity:1;stroke:none"
       d="m 167.96875,104.1875 c -3.83496,0.14089 -7.66426,1.60922 -10.6875,3.78125 -8.73659,-0.36546 -17.27202,0.67808 -24.21875,5.5 -4.38458,2.86368 -15.6726,4.22973 -21.65625,4.5 0.50133,4.19887 0.28125,11.30956 0.28125,10.625 0.28074,4.36062 0.80416,8.44228 1.84375,13.90625 0.007,0.0176 -0.007,0.0448 0,0.0625 0.28486,0.68811 0.57088,1.40822 0.84375,2.25 -0.085,0.30907 -0.14827,0.584 -0.21875,0.875 0.86897,4.23181 2.10215,9.57624 3.625,16.03125 5.07083,4.09929 17.88994,0.68446 20.0625,8.78125 4.4206,7.58822 8.28491,15.28739 17.71875,16.625 4.98662,6.08525 3.53163,17.6523 12.84375,18.5625 1.81541,1.28712 5.35271,1.45597 7.0625,-0.0937 4.3886,-0.78537 10.82502,-3.6266 9.4375,-9.25 1.55467,-6.65512 -5.59053,-10.33438 -3.75,-16.9375 -1.28735,-4.79284 4.51057,-2.39668 7.3125,-3.03125 6.68293,-0.18388 13.45044,-0.54324 19.5,2.25 6.68883,5.72577 10.17278,15.78667 14.92854,21.47321 7.19685,3.39143 7.90858,-10.60083 11.00896,-16.28571 2.68478,-4.95446 -6.13264,-7.86578 -4.75,-13.125 0.27149,-6.68988 -3.7544,-11.98077 -2.21875,-19.0625 3.80451,-6.37407 1.95785,-14.54265 -7.46875,-12.78125 -6.94585,-0.17627 -13.89641,-0.18619 -20.84375,-0.28125 0.61719,-5.72504 -7.57844,-2.41991 -7.875,-8.625 -5.08676,-7.687 -9.85139,-15.33357 -14.21875,-23.34375 -2.58853,-1.81776 -5.57975,-2.51583 -8.5625,-2.40625 z"
       id="pej"
       inkscape:connector-curvature="0"
       sodipodi:nodetypes="scccccccccccccccccccccccccs">
      <desc
         id="desc5562">Northern Pomo language</desc>
      <title
         id="title5560">NorthernPomo</title>
    </path>
    <path
       transform="translate(0,-652.362)"
       style="fill:#f781bf;fill-opacity:1;stroke:none"
       d="m 267.5226,804.58315 c 7.37253,-2.7403 12.11995,-10.05899 17.44383,-15.21959 7.18871,-6.88357 1.52227,-16.9607 -8.03484,-15.58198 -6.02283,1.6828 -4.9954,-3.58256 -9.60413,-4.936 -5.8394,0.28428 -6.83784,10.48719 -8.1568,16.09079 0.69714,6.14929 0.48457,17.35836 7.17584,20.59241 l 1.1761,-0.94563 0,0 z"
       id="pef"
       inkscape:export-filename="/home/pat/pomoan_large.png"
       inkscape:export-xdpi="136.25999"
       inkscape:export-ydpi="136.25999"
       sodipodi:nodetypes="cccccccc"
       inkscape:label="#path10195"
       inkscape:connector-curvature="0">
      <desc
         id="desc16675">Northeastern Pomo language</desc>
      <title
         id="title15509">NortheasternPomo</title>
    </path>
    <path
       style="fill:#4daf4a;fill-opacity:1;stroke:none;display:inline"
       d="m 120.125,166.96875 c -0.2472,0.007 -0.47599,0.018 -0.71875,0.0312 8.73789,22.15956 3.95653,26.37671 3.59375,43.5625 -0.24857,11.77497 17.07966,21.03034 24.96875,30.28125 2.98588,-0.77388 6.15843,-1.99182 6.53125,-2.71875 8.22101,-2.13076 15.17869,-8.29033 23.90625,-8.625 7.1343,-3.61152 14.59305,-7.43036 23.46875,-5.78125 4.77116,2.59926 10.50312,2.28196 16.03125,2.40625 1.33964,7.24055 9.70455,0.22767 14.4375,0.9375 1.62551,-3.47021 10.81439,-7.59356 2.34375,-10.0625 -8.48456,1.57396 -8.13607,-7.52474 -7.78125,-13.25 -2.55851,-1.08249 -5.77417,1.72634 -7.5625,-3.25 -3.18104,-7.9925 -8.33926,-16.09442 -16.9375,-19.75 -5.13998,-2.31073 -23.14634,-4.23494 -16.40625,5.25 3.21194,6.31472 2.34085,12.83831 -0.30359,18.65635 -7.79811,3.34353 -20.08465,9.06483 -25.44641,0.71865 -4.87704,-5.6552 -3.44752,-18.50521 -14.03125,-17.125 -7.9648,-2.90403 -8.7368,-11.57103 -12.59375,-17.9375 -2.775,-2.35991 -8.52932,-3.48362 -13.5,-3.34375 z"
       id="poo"
       inkscape:connector-curvature="0"
       sodipodi:nodetypes="ccsccccccccccccccccc" />
  </g>
  <g
     inkscape:groupmode="layer"
     id="layer5"
     inkscape:label="Labels"
     style="display:inline">
    <text
       xml:space="preserve"
       style="font-size:18.00003052px;font-style:normal;font-variant:normal;font-weight:normal;font-stretch:normal;fill:#000000;fill-opacity:1;stroke:none;font-family:Sans"
       x="138.017"
       y="744.922"
       id="text11038"
       transform="matrix(1.00209,0,0,0.997911,0,-652.362)"
       inkscape:export-filename="/home/pat/pomoan_large.png"
       inkscape:export-xdpi="136.25999"
       inkscape:export-ydpi="136.25999"><tspan
         sodipodi:role="line"
         id="tspan11040"
         x="138.017"
         y="744.922">Northern</tspan></text>
    <text
       id="text11042"
       y="119.16631"
       x="282.61197"
       style="font-size:18px;font-style:normal;font-variant:normal;font-weight:normal;font-stretch:normal;fill:#000000;fill-opacity:1;stroke:none;font-family:Sans"
       xml:space="preserve"
       transform="scale(1.0020917,0.99791268)"
       inkscape:export-filename="/home/pat/pomoan_large.png"
       inkscape:export-xdpi="136.25999"
       inkscape:export-ydpi="136.25999"><tspan
         y="119.16631"
         x="282.61197"
         id="tspan11044"
         sodipodi:role="line">Northeast</tspan></text>
    <text
       xml:space="preserve"
       style="font-size:18px;font-style:normal;font-variant:normal;font-weight:normal;font-stretch:normal;fill:#000000;fill-opacity:1;stroke:none;font-family:Sans"
       x="253.42343"
       y="173.46518"
       id="text11065"
       transform="scale(1.0020917,0.99791267)"
       inkscape:export-filename="/home/pat/pomoan_large.png"
       inkscape:export-xdpi="136.25999"
       inkscape:export-ydpi="136.25999"><tspan
         sodipodi:role="line"
         id="tspan11067"
         x="253.42343"
         y="173.46518">Eastern</tspan></text>
    <text
       id="text11069"
       y="219.22331"
       x="333.00906"
       style="font-size:18px;font-style:normal;font-variant:normal;font-weight:normal;font-stretch:normal;text-align:center;text-anchor:middle;fill:#000000;fill-opacity:1;stroke:none;font-family:Sans"
       xml:space="preserve"
       transform="scale(1.0020917,0.99791267)"
       inkscape:export-filename="/home/pat/pomoan_large.png"
       inkscape:export-xdpi="136.25999"
       inkscape:export-ydpi="136.25999"><tspan
         y="219.22331"
         x="333.00906"
         sodipodi:role="line"
         id="tspan8054">Southeast</tspan></text>
    <text
       xml:space="preserve"
       style="font-size:18.00003052px;font-style:normal;font-variant:normal;font-weight:normal;font-stretch:normal;fill:#000000;fill-opacity:1;stroke:none;font-family:Sans"
       x="256.58401"
       y="990.73602"
       id="text11073"
       transform="matrix(1.00209,0,0,0.997911,0,-652.362)"
       inkscape:export-filename="/home/pat/pomoan_large.png"
       inkscape:export-xdpi="136.25999"
       inkscape:export-ydpi="136.25999"><tspan
         sodipodi:role="line"
         id="tspan11075"
         x="256.58401"
         y="990.73602">Southern</tspan></text>
    <text
       id="text11085"
       y="950.59399"
       x="122.847"
       style="font-size:18.00003052px;font-style:normal;font-variant:normal;font-weight:normal;font-stretch:normal;text-align:center;text-anchor:middle;fill:#000000;fill-opacity:1;stroke:none;font-family:Sans"
       xml:space="preserve"
       transform="matrix(1.00209,0,0,0.997911,0,-652.362)"
       inkscape:export-filename="/home/pat/pomoan_large.png"
       inkscape:export-xdpi="136.25999"
       inkscape:export-ydpi="136.25999"><tspan
         y="950.59399"
         x="122.847"
         id="tspan11087"
         sodipodi:role="line">Kashaya</tspan><tspan
         y="973.09406"
         x="122.847"
         sodipodi:role="line"
         id="tspan11089">(Southwestern)</tspan></text>
    <text
       id="text11091"
       y="871.30298"
       x="39.579399"
       style="font-size:18.00003052px;font-style:normal;font-variant:normal;font-weight:normal;font-stretch:normal;fill:#000000;fill-opacity:1;stroke:none;font-family:Sans"
       xml:space="preserve"
       transform="matrix(1.00209,0,0,0.997911,0,-652.362)"
       inkscape:export-filename="/home/pat/pomoan_large.png"
       inkscape:export-xdpi="136.25999"
       inkscape:export-ydpi="136.25999"><tspan
         y="871.30298"
         x="39.579399"
         id="tspan11093"
         sodipodi:role="line">Central</tspan></text>
  </g>
  <g
     inkscape:groupmode="layer"
     id="layer2"
     inkscape:label="Inset"
     style="display:inline">
    <rect
       style="fill:#ffffff;fill-opacity:1;stroke:#030000;stroke-width:0.55035257000000004;stroke-linejoin:round;stroke-miterlimit:4;stroke-opacity:1;stroke-dasharray:none"
       id="rect10946"
       width="116.87352"
       height="127.96866"
       x="364.02274"
       y="256.95248"
       ry="0.042863961" />
    <path
       style="fill:#e5e2d7;fill-opacity:1;stroke:none;stroke-width:0.18067602999999999;stroke-miterlimit:4;stroke-opacity:1;stroke-dasharray:none;display:inline"
       d="m 375.25453,262.94139 c -0.94904,0.004 -1.50222,0.0609 -1.61882,0.14243 -0.37511,0.26233 -0.2887,1.14922 -0.0992,2.13644 0.1894,0.9872 0.48187,2.07431 0.52,2.73892 0.013,0.22513 0.0936,0.64451 0.14781,1.0716 0.0541,0.42707 0.0816,0.86278 -0.008,1.1202 -0.2486,0.71474 -2.2831,4.11861 -2.57305,4.48198 -0.0266,0.0332 -1.60082,4.91879 -1.63117,5.05394 -0.24852,1.10523 0.0594,4.93886 0.45679,5.29922 0.20953,0.18999 1.27863,1.44975 1.25779,1.45934 0.52866,0.60249 1.04921,1.24242 1.09764,1.36887 0.0644,0.16809 0.20379,0.2513 0.31024,0.18539 0.12116,-0.075 0.88529,0.86054 1.20701,1.16091 0.2291,0.21384 0.49516,0.85158 0.49406,0.92804 -7.9e-4,0.0764 0.30835,0.92103 0.37227,1.25812 0.11337,0.59777 0.12988,1.36954 0.12406,1.85156 l -0.17815,1.88887 0.34287,1.2875 c 0.12273,0.48836 0.0965,4.46695 0.32038,5.85992 0.1622,1.00913 1.45097,2.17297 1.51842,2.28224 0.0674,0.10924 0.19428,0.15491 0.28202,0.10059 0.0877,-0.0543 0.27895,0.0538 0.42527,0.24077 0.24506,0.31327 0.23547,0.31834 -0.12407,0.0588 -0.21464,-0.15493 0.24333,0.37225 1.01862,1.17222 0.99048,1.02209 1.50365,1.72996 1.72481,2.38058 0.17305,0.50917 0.54815,1.1244 0.83363,1.36775 0.42298,0.36063 0.50781,0.58059 0.45797,1.18578 -0.0475,0.57735 -0.16739,0.78271 -0.53691,0.92352 -0.26142,0.0996 -0.47495,0.30637 -0.47495,0.45894 0,0.21409 0.14953,0.24344 0.65657,0.12885 0.93882,-0.21218 1.79768,0.20056 2.14441,1.03205 0.32722,0.78476 0.54713,0.94995 1.48343,1.1089 0.5498,0.0933 0.67591,0.19428 0.62041,0.49963 -0.0914,0.50317 -0.0706,1.01883 0.12414,3.06221 0.11723,1.23028 0.2648,1.81526 0.53243,2.11154 0.23909,0.26475 0.41583,0.84921 0.49854,1.65037 0.12689,1.22789 0.79235,2.58025 1.15857,2.35346 0.0917,-0.0568 0.23028,7.9e-4 0.30796,0.1266 0.0933,0.15117 0.0561,0.17595 -0.10944,0.0735 -0.16699,-0.10345 -0.22038,-0.0646 -0.16015,0.11642 0.0497,0.14934 0.18609,0.27128 0.3023,0.27128 0.1162,0 0.28398,0.0796 0.37337,0.17749 0.0945,0.10338 0.0605,0.11897 -0.0812,0.0373 -0.31276,-0.18035 -0.3211,0.19914 -0.009,0.4092 0.12926,0.087 1.11746,0.46585 2.19528,0.84214 l 1.95941,0.68388 0,0.78221 c 0,0.71404 -0.0431,0.77814 -0.48847,0.74266 -1.54618,-0.12308 -1.84722,0.35571 -1.45631,2.31278 0.53863,2.697 0.66938,3.00479 1.77669,4.1971 0.90981,0.97961 1.01933,1.17654 0.76145,1.3655 -0.28948,0.21209 -0.41929,0.66689 -0.19065,0.66693 0.0607,0 0.27022,-0.0861 0.46591,-0.19102 0.2839,-0.15225 0.37683,-0.10917 0.46135,0.21476 0.0583,0.22327 0.19923,0.34824 0.31252,0.27809 0.1225,-0.0759 0.16094,-0.0117 0.0958,0.15824 -0.0673,0.17585 0.0417,0.33355 0.2832,0.41032 0.22635,0.072 0.49288,0.43111 0.62944,0.84893 0.13005,0.398 0.61742,1.17245 1.08404,1.72157 0.46662,0.54912 0.84833,1.13799 0.84833,1.30785 0,0.16986 0.3891,0.58849 0.86405,0.93031 0.47504,0.34181 0.96076,0.85644 1.07964,1.14394 0.13051,0.31581 0.541,0.67413 1.03781,0.90543 l 0.8223,0.3832 -0.0665,1.1304 c -0.0508,0.85413 0.0197,1.25888 0.28988,1.66054 0.19663,0.29225 0.44712,0.70736 0.55727,0.92237 0.11015,0.21502 0.48722,0.47628 0.83701,0.57989 0.41543,0.12302 0.60051,0.28089 0.5336,0.45554 -0.0563,0.14707 -0.10268,0.48043 -0.10268,0.74042 0,0.42113 -0.0854,0.47252 -0.78063,0.47248 -0.56349,0 -0.77946,0.081 -0.77946,0.29279 0,0.21557 0.22368,0.2939 0.84605,0.29388 0.69289,0 0.88056,0.0797 1.03215,0.43972 0.24459,0.58065 0.11565,1.31918 -0.23013,1.31915 -0.15143,0 -0.33296,0.22793 -0.4027,0.50642 -0.19522,0.77953 0.24726,1.9461 0.95211,2.51058 0.34672,0.2777 0.87199,0.74645 1.16643,1.04109 0.52402,0.52444 0.5914,0.53696 3.21831,0.5991 2.37909,0.0562 2.7314,0.10821 3.10902,0.4612 0.38886,0.3636 0.57763,0.38651 2.17263,0.25999 1.55585,-0.12341 1.84966,-0.0919 2.69492,0.28937 0.52181,0.2354 1.05574,0.44632 1.18672,0.4691 0.13106,0.0228 0.30678,0.11715 0.39036,0.20913 0.0835,0.092 0.0519,0.11044 -0.07,0.0407 -0.30607,-0.17524 -0.4678,0.80082 -0.2346,1.41523 0.15362,0.40489 0.22053,0.44159 0.38241,0.20572 0.15237,-0.22211 0.17148,-0.19449 0.0834,0.12208 -0.0828,0.29797 0.006,0.46595 0.32832,0.62171 0.41316,0.19959 0.41646,0.21522 0.0519,0.24191 -1.62165,0.11872 -3.11538,-0.0177 -3.58161,-0.32781 -0.2828,-0.18808 -0.95376,-0.40813 -1.4902,-0.48832 -0.53644,-0.0802 -1.26117,-0.20375 -1.61088,-0.27469 -0.37605,-0.0763 -0.74345,-0.0388 -0.90022,0.0915 -0.2008,0.16705 -0.32628,0.14727 -0.51662,-0.0825 -0.19216,-0.23198 -0.46104,-0.27363 -1.14725,-0.17634 -1.23625,0.17525 -1.51489,0.46849 -1.1912,1.25132 0.31417,0.76014 0.81578,1.03573 1.67173,0.92015 0.39445,-0.0533 0.62064,-0.0139 0.55279,0.0961 -0.0631,0.10233 0.0398,0.35696 0.22785,0.56519 0.42739,0.47321 1.66049,0.50582 2.33625,0.0622 0.4571,-0.30014 0.5152,-0.2903 1.14496,0.19103 0.41112,0.31422 1.40576,0.58432 1.50262,0.54824 0.0968,-0.0361 0.11825,-0.15975 0.0473,-0.27467 -0.0708,-0.11496 -0.0427,-0.15531 0.062,-0.0904 0.10472,0.0648 0.44728,-0.0201 0.76145,-0.18764 0.31417,-0.16754 0.99339,-0.33685 1.50938,-0.37643 1.17988,-0.0905 1.36385,-0.2067 1.25213,-0.79239 -0.0693,-0.36313 -0.0176,-0.44999 0.22565,-0.3798 0.17336,0.05 0.70232,0.19157 1.17539,0.31424 0.47315,0.12267 1.06761,0.35963 1.32211,0.52677 0.42762,0.28073 0.43902,0.33007 0.15119,0.64882 -0.22769,0.25208 -0.24939,0.38375 -0.0824,0.48721 0.13185,0.0816 0.43737,-0.0847 0.72198,-0.39224 0.46458,-0.50209 0.57449,-0.52839 1.90194,-0.4612 1.75767,0.0889 2.08655,0.31508 1.80154,1.24568 -0.26739,0.87296 0.0282,1.45701 1.09874,2.16694 0.79424,0.52671 1.27887,0.60184 2.36778,0.3685 0.81601,-0.17487 2.11587,0.72842 3.47445,2.41336 0.81971,1.01665 1.24734,1.37675 1.84997,1.55768 1.01525,0.30479 1.76113,1.17317 2.78408,3.24194 0.77348,1.56404 0.81043,1.71188 0.61592,2.50153 -0.39075,1.58624 -0.24404,2.54244 0.43887,2.85421 0.27077,0.12363 0.49296,0.36405 0.49296,0.53467 0,0.17062 0.0905,0.48098 0.2019,0.68953 0.1622,0.3037 0.34625,0.35957 0.92616,0.27922 0.39822,-0.0552 3.40134,-0.3613 6.67358,-0.68049 9.5678,-0.93326 10.03497,-0.98045 14.53293,-1.46723 2.3603,-0.25546 4.88996,-0.52209 5.62114,-0.59233 0.99535,-0.0956 1.35418,-0.2098 1.42927,-0.45329 0.0551,-0.17884 0.22533,-0.55792 0.37785,-0.84327 0.15253,-0.28535 0.27754,-0.74235 0.27754,-1.01508 0,-0.27272 0.0867,-0.54961 0.19404,-0.61605 0.31535,-0.19532 0.2243,-0.85133 -0.17376,-1.25021 -0.20811,-0.20854 -0.80029,-0.42825 -1.35929,-0.50529 -0.93222,-0.12847 -0.99826,-0.17618 -1.11344,-0.79126 -0.0673,-0.35963 -0.0689,-0.74032 -0.003,-0.84664 0.0656,-0.10637 0.0672,-1.74699 0.63967,-2.44278 0.51749,-0.62903 1.23067,-2.10436 1.23067,-2.54675 0,-0.16082 -0.0879,-0.34728 -0.19514,-0.4137 -0.27691,-0.1715 -0.24247,-1.33971 0.0485,-1.63906 0.19655,-0.2023 0.14663,-0.73075 0.14663,-0.82632 0,-0.0956 -0.0879,-0.17293 -0.19514,-0.17294 -0.34256,0 -0.20985,-0.77727 0.24365,-1.42541 0.24136,-0.34507 0.71482,-0.94712 1.05251,-1.33838 0.33768,-0.39127 0.66616,-0.87629 0.72984,-1.07725 0.0637,-0.201 0.31488,-0.453 0.55727,-0.55954 0.66962,-0.29437 0.71019,-1.34116 0.0688,-1.76228 -0.2703,-0.1775 -0.5465,-0.49677 -0.61365,-0.70875 -0.0671,-0.21195 -0.33335,-0.48203 -0.59225,-0.60023 -0.25891,-0.11822 -0.4715,-0.33187 -0.4715,-0.47588 0,-0.14401 -0.17462,-0.43834 -0.38918,-0.65336 -0.23107,-0.2315 -0.39035,-0.65144 -0.39035,-1.02979 0,-0.35548 -0.34539,-1.32821 -0.77836,-2.1918 -0.5134,-1.02401 -0.71279,-1.6177 -0.5855,-1.74531 0.10622,-0.10641 0.19294,-0.26329 0.19294,-0.34931 0,-0.27779 -0.43611,-0.16638 -0.72536,0.18538 -0.26386,0.32094 -0.27431,0.31833 -0.15906,-0.0407 0.0977,-0.30439 -0.39303,-0.88353 -2.40166,-2.83386 -1.38869,-1.34842 -2.86348,-2.75489 -3.27703,-3.12552 -0.41355,-0.37063 -1.54209,-1.38007 -2.50764,-2.24268 -0.96564,-0.8626 -2.50159,-2.27637 -3.41353,-3.14133 -6.17063,-5.85269 -8.20009,-7.75756 -8.97263,-8.42247 -0.48282,-0.41553 -1.66843,-1.50682 -2.63407,-2.42467 -0.96555,-0.91787 -2.44545,-2.23771 -3.28938,-2.93336 l -3.47673,-2.90055 c -0.0331,-0.0733 -0.76271,-0.74197 -1.62102,-1.48533 -0.85832,-0.74338 -2.29332,-2.02999 -3.18906,-2.85986 l -5.95843,-5.74008 -4.3047,-3.62289 c 0,0 -0.49972,-0.32424 -3.12923,-2.6971 -2.34183,-2.11322 -3.14998,-2.96908 -2.97245,-3.14697 0.31645,-0.31715 -0.0346,-0.67513 -0.38014,-0.38773 -0.24813,0.20633 -0.46466,0.0673 -1.36495,-0.87152 -0.99433,-1.03681 -1.06289,-1.1677 -0.96226,-1.84818 0.0595,-0.40282 0.16417,-3.76733 0.23233,-7.47635 0.0682,-3.70901 0.19294,-7.31449 0.27754,-8.01328 0.0846,-0.69881 0.15968,-2.1945 0.16691,-3.32333 l 0.0158,-5.27775 c 0.0185,-1.12885 0.11511,-3.81149 0.2144,-5.96164 0.0993,-2.15014 0.18256,-4.32738 0.185,-4.83804 l 0.005,-0.92804 -1.31762,-0.002 c -0.72419,-9.4e-4 -2.50096,-0.0825 -3.94933,-0.182 -1.44837,-0.0995 -4.38914,-0.23275 -6.53489,-0.29615 -2.14575,-0.0634 -4.47138,-0.15554 -5.16883,-0.20459 -0.6973,-0.049 -3.02411,-0.13769 -5.16986,-0.19668 -2.14574,-0.0591 -4.38356,-0.14849 -4.97369,-0.19896 -0.59006,-0.0505 -3.73289,-0.18671 -6.98382,-0.30293 -2.28797,-0.0818 -3.7821,-0.12235 -4.73107,-0.11871 z"
       id="path14076"
       inkscape:connector-curvature="0" />
    <path
       style="fill:#86816e;fill-opacity:1;stroke:none;display:inline"
       d="M 378.875 294.8125 C 378.61457 294.8225 378.36155 294.94257 378.15625 295.09375 C 377.56296 295.06835 376.97174 295.13315 376.5 295.46875 C 376.25579 295.63224 375.72958 295.71151 375.3125 295.75 L 375.46875 296.375 C 375.59148 296.86336 375.58862 300.85703 375.8125 302.25 C 375.9747 303.25913 377.24505 304.42198 377.3125 304.53125 C 377.3799 304.64049 377.50601 304.67932 377.59375 304.625 C 377.68145 304.5707 377.88493 304.65678 378.03125 304.84375 C 378.27631 305.15702 378.26579 305.16579 377.90625 304.90625 C 377.69161 304.75132 378.13096 305.29378 378.90625 306.09375 C 379.56453 306.77304 379.99023 307.30411 380.28125 307.78125 C 380.28396 307.78569 380.30982 307.77682 380.3125 307.78125 C 380.45851 307.8565 380.57781 307.9674 380.71875 308.0625 C 380.75235 308.1144 380.81785 308.17184 380.84375 308.21875 C 380.84575 308.22675 380.84075 308.2434 380.84375 308.25 C 380.86105 308.2813 380.89005 308.2836 380.90625 308.3125 C 381.1089 308.67478 381.24357 308.8457 381.4375 308.9375 C 381.4984 309.05062 381.55599 309.1537 381.6875 309.1875 C 381.94648 309.2088 382.21027 309.16795 382.46875 309.15625 C 382.50055 309.13515 382.51335 309.11995 382.53125 309.09375 C 382.6937 309.10525 382.84256 309.12935 383 309.15625 C 383.0181 309.17505 383.0438 309.20325 383.0625 309.21875 C 383.24516 309.28905 383.65341 309.38199 384.03125 309.46875 C 384.61188 309.70815 385.49805 309.91731 385.90625 309.875 C 386.06025 309.859 386.20838 309.6798 386.25 309.46875 C 386.59854 309.17657 385.98582 308.6813 385.84375 308.28125 C 385.43918 307.73808 385.06108 307.15815 384.5625 306.6875 C 384.28998 306.24543 383.85764 306.08139 383.46875 305.84375 C 383.41985 305.68654 383.34375 305.50009 383.34375 305.4375 C 383.34375 304.90926 383.86181 304.69336 384.75 304.8125 C 385.16284 304.8675 385.5 304.866 385.5 304.8125 C 385.5 304.7722 385.8177 304.7799 385.46875 304.34375 L 385.5 303.875 C 385.5 303.76464 385.73088 303.57108 386 303.46875 C 386.47177 303.28939 386.56735 303.05195 386.3125 302.59375 C 386.3332 302.59175 386.3543 302.59675 386.375 302.59375 L 386.40625 302.5625 C 386.82813 302.45558 386.83358 302.2487 386.5 302.03125 C 386.09997 301.6593 385.86585 300.93854 385.25 300.96875 C 385.09211 300.67813 384.93813 300.37198 384.8125 300.09375 C 384.7351 299.92227 384.67081 299.80567 384.59375 299.65625 C 384.56865 299.12332 384.55615 298.38524 383.96875 298.4375 C 383.75993 298.17915 383.44463 298.02483 383.21875 297.78125 C 383.16125 297.74675 383.08251 297.69295 383 297.65625 C 382.9834 297.37539 382.79172 297.17019 382.375 297.25 C 381.90332 297.2377 381.44054 297.22525 380.96875 297.21875 C 381.01065 296.82027 380.45764 297.05689 380.4375 296.625 C 380.09206 296.08996 379.76533 295.55753 379.46875 295 C 379.29297 294.87347 379.07755 294.80488 378.875 294.8125 z "
       id="path8964" />
    <path
       style="fill:#86816e;fill-opacity:1;stroke:none;display:inline"
       d="m 385.625,295.6875 c -0.39655,0.0198 -0.47293,0.73497 -0.5625,1.125 0.0473,0.42801 0.0456,1.18115 0.5,1.40625 l 0.0625,-0.0625 c 0.50065,-0.19074 0.82596,-0.7033 1.1875,-1.0625 0.48817,-0.47912 0.11775,-1.15847 -0.53125,-1.0625 -0.409,0.11713 -0.34328,-0.24955 -0.65625,-0.34375 z"
       id="path8856" />
  </g>
</svg>
