<svg id="Layer_1" data-name="Layer 1" xmlns="http://www.w3.org/2000/svg" viewBox="0 0 297.45 419.39"><defs><style>.cls-1{fill:#fdfde7;}.cls-2{fill:#c6ecff;stroke:#0978ab;stroke-miterlimit:10;stroke-width:0.1px;fill-rule:evenodd;}.cls-12,.cls-13,.cls-14,.cls-15,.cls-17,.cls-19,.cls-20,.cls-21,.cls-22,.cls-23,.cls-24,.cls-25,.cls-26,.cls-27,.cls-28,.cls-29,.cls-3,.cls-30,.cls-31,.cls-32,.cls-33,.cls-34,.cls-35,.cls-36,.cls-37,.cls-38,.cls-39,.cls-4,.cls-40,.cls-41,.cls-42,.cls-43,.cls-44,.cls-45,.cls-46,.cls-47,.cls-48,.cls-49,.cls-5,.cls-50,.cls-51,.cls-52,.cls-53,.cls-54,.cls-55,.cls-56,.cls-57,.cls-58,.cls-59,.cls-6,.cls-60,.cls-61,.cls-62,.cls-63,.cls-64,.cls-65,.cls-66,.cls-7,.cls-8,.cls-9{isolation:isolate;}.cls-3{font-size:6px;fill:#0978ab;font-family:Arial-ItalicMT, Arial;font-style:italic;}.cls-4{fill:#085b82;opacity:0.55;}.cls-5{fill:#8eb681;}.cls-10,.cls-5,.cls-6{opacity:0.6;}.cls-6{fill:#adc167;}.cls-19,.cls-20,.cls-59,.cls-60,.cls-61,.cls-62,.cls-7{fill:#6c3e6f;}.cls-7{opacity:0.4;}.cls-8{fill:#8d8d8d;opacity:0.1;}.cls-40,.cls-41,.cls-42,.cls-43,.cls-44,.cls-45,.cls-46,.cls-47,.cls-48,.cls-9{fill:#04544b;}.cls-9{opacity:0.35;}.cls-11,.cls-55,.cls-56,.cls-57,.cls-58{fill:#4d86c3;}.cls-12,.cls-63,.cls-64,.cls-65,.cls-66{fill:#000082;}.cls-12,.cls-20{opacity:0.3;}.cls-13,.cls-15,.cls-17,.cls-19{font-size:5.71px;}.cls-13,.cls-15,.cls-17{font-family:ArialMT, Arial;}.cls-15{letter-spacing:-0.13em;}.cls-16{opacity:0.5;}.cls-17{letter-spacing:-0.06em;}.cls-18{letter-spacing:-0.11em;}.cls-19,.cls-21,.cls-22,.cls-23,.cls-24,.cls-25,.cls-26,.cls-27,.cls-28,.cls-29,.cls-30,.cls-31,.cls-32,.cls-33,.cls-34,.cls-35,.cls-36,.cls-37,.cls-38,.cls-39,.cls-40,.cls-41,.cls-42,.cls-43,.cls-44,.cls-45,.cls-46,.cls-47,.cls-48,.cls-49,.cls-50,.cls-51,.cls-52,.cls-53,.cls-54,.cls-55,.cls-56,.cls-57,.cls-58,.cls-59,.cls-60,.cls-61,.cls-62,.cls-63,.cls-64,.cls-65,.cls-66{font-family:Arial-BoldMT, Arial;font-weight:700;}.cls-21,.cls-22,.cls-23,.cls-24,.cls-25,.cls-26,.cls-27,.cls-28,.cls-29,.cls-30,.cls-31,.cls-32,.cls-33,.cls-34,.cls-35,.cls-36,.cls-37,.cls-38,.cls-39,.cls-40,.cls-41,.cls-42,.cls-43,.cls-44,.cls-45,.cls-46,.cls-47,.cls-48,.cls-49,.cls-50,.cls-51,.cls-52,.cls-53,.cls-54,.cls-55,.cls-56,.cls-57,.cls-58,.cls-59,.cls-60,.cls-61,.cls-62,.cls-63,.cls-64,.cls-65,.cls-66{font-size:7px;}.cls-21,.cls-22,.cls-23,.cls-24,.cls-25,.cls-26,.cls-27,.cls-28,.cls-29,.cls-30{fill:#6e8963;}.cls-21{letter-spacing:-0.01em;}.cls-22,.cls-31,.cls-41,.cls-51,.cls-61{letter-spacing:0.02em;}.cls-23,.cls-49{letter-spacing:0.01em;}.cls-24,.cls-42{letter-spacing:0.02em;}.cls-25{letter-spacing:0.05em;}.cls-26,.cls-55{letter-spacing:-0.05em;}.cls-27,.cls-60{letter-spacing:0.02em;}.cls-28,.cls-32{letter-spacing:0.02em;}.cls-29,.cls-52{letter-spacing:0em;}.cls-31,.cls-32,.cls-33,.cls-34,.cls-35,.cls-36,.cls-37,.cls-38,.cls-39{fill:#017384;}.cls-33{letter-spacing:0.05em;}.cls-34,.cls-43{letter-spacing:0.03em;}.cls-35,.cls-44{letter-spacing:0.02em;}.cls-36,.cls-45,.cls-50{letter-spacing:0.02em;}.cls-37,.cls-46{letter-spacing:0.03em;}.cls-39,.cls-48,.cls-57,.cls-65{letter-spacing:0.02em;}.cls-40{letter-spacing:0.02em;}.cls-49,.cls-50,.cls-51,.cls-52,.cls-53,.cls-54{fill:#95a358;}.cls-53{letter-spacing:0.04em;}.cls-56{letter-spacing:0.01em;}.cls-59{letter-spacing:-0.05em;}.cls-63{letter-spacing:-0.05em;}.cls-64{letter-spacing:0.01em;}</style></defs><g id="base"><rect class="cls-1" x="-143.38" y="-54.34" width="638.98" height="693.44"/></g><g id="water"><path class="cls-2" d="M130.34-7.1s0,0,0,0S130.34-7.08,130.34-7.1Zm-.05-.08s.08.07,0,.07,0,0,0-.07Zm-4,4.82s0,0,0,0,0,0,0,0Zm-.71-1.33s.07-.05.08,0S125.59-3.66,125.59-3.69Zm-.54-.37c0-.17.11.08.16.15s-.16-.09-.16-.15Zm-1.11,2.17s.23,0,.2.08S124-1.86,123.94-1.89Zm-.2-2.49s.05.07,0,0A.08.08,0,0,1,123.74-4.38Zm-.44.7c.06-.08,0-.27.16-.27C123.42-3.89,123.41-3.55,123.3-3.68ZM122-2.91s.1,0,.14,0-.11,0-.14,0Zm-.15-.27s.07-.16.06,0S121.89-3.13,121.83-3.18Zm-.56-.06s0,0,0,0,0,.08,0,0Zm-1.7-1.63c.2.06.15.37.23.53s.18,0,.13.14c.17,0,.2.16.16.3s.29-.4.4-.15.13.07.13.19c.09-.11.17-.35.34-.31,0-.28.38,0,.47-.15-.1-.15.08-.08.15,0-.18.13.06.3.18.12.19.11,0,.28,0,.4s-.08-.06-.16.07,0,.09,0,.12-.25.27-.43.2c0,.06-.05.11-.11.1-.26.16.32,0,.16.2.19,0,0,.15-.07.23.19,0,.09,0,.12.22.16-.07.18-.32.32-.42a.15.15,0,0,1,.18.13v0c.08,0,.11-.12.18,0s-.14.17-.13.26,0,.23-.18.19a1.2,1.2,0,0,1-.29.66.84.84,0,0,1-.12.58c-.17.37.58-.21.69,0-.57.33-1.06.56-.07.61.16-.06.44,0,.53-.11s.09.08.17.09.3.3.4.52.24,0,.37.23c.12,0,0,.14,0,.2s.31.13.3,0c.13.23.2-.29.46-.31.09,0,.21-.31.33-.16-.06.12.09.1,0,.05s.1-.32.28-.25c0-.11.24-.07.24-.19.36,0-.09-.22.12-.32s.08.1.11,0,.17-.05.26.05.19-.1.07-.14.1-.06,0-.13.12,0,.16-.08,0-.14.06-.08.07.27.13,0,.09.08.18.06c.07.18,0-.08.25-.05-.08,0-.18-.22,0-.2-.25-.16-.13-.21,0-.31-.11,0-.32-.18-.09-.19.08,0-.11-.12,0-.16s.15.2.2.09,0-.2.09-.09.13.11.2,0c0,.08.16.17.19.11s0,0,.09.06a.42.42,0,0,0,.36-.29c.29-.44,0-.71.43-.09,0-.14.08-.46.26-.3l0-.06c-.47-.09-.13-.82,0-1.12,0-.13.14,0,.21,0S128-3.91,128-4c-.23-.1-.28-.22-.41-.41s0-.13,0-.23.11,0,.14-.05-.14-.21,0-.18c.23.19.55-.15.81,0,.09.06.24,0,.31.06s-.08.31,0,.23.1.11.09,0,.25-.17.23-.27c-.32,0-.15-.22-.05-.47-.18,0-.38.28-.49.06.09-.07.25-.11.31-.23a.75.75,0,0,1,.69-.11c-.05.13.11.2.06.14.15,0-.14-.11.14-.15-.08.14.12,0,.23.16s-.06,0-.08-.08-.08-.42.09-.5c-.27-.11.29-.33.31-.52a.16.16,0,0,1,0-.23c-.15,0-.15,0-.08-.09s.18-.37.06-.44c0,0,.16-.14.1-.15s-.05,0,0-.17c-.06.08-.12.07-.06.19s-.27.13-.1.27c-.06.07-.21.09-.29.19s.06.22,0,.31-.11.25-.22.31-.08.12-.09.23c.15.25-.08.14-.18.27s-.11-.08-.2,0c0,.35-1.25.55-.64.88-.14,0-.47-.22-.64,0-.21.09-.07-.22-.15-.09s-.22-.1-.34,0a.3.3,0,0,1-.42-.07.36.36,0,0,1,0-.09c-.14,0-.08-.23-.22-.22.05.14-.33.36-.39.12-.08,0-.32,0-.12,0-.11,0-.08.06,0,.16s0,.14.11.3,0,0-.11,0a1.85,1.85,0,0,1-.41-.07,1.5,1.5,0,0,0,.23.2c-.05.1.09.12,0,.28s0,.18-.12.21-.17,0-.18,0-.18.1-.2.24-.14-.06-.19-.13.13-.16,0-.25-.09,0-.16-.08-.09.16-.22.09,0-.16,0-.28c-.18-.09-.31-.24-.48-.33,0-.13,0,0-.1-.13s-.17-.37-.14-.62c-.16,0-.25.11-.2.29-.13,0,0,0,0,.17s-.09,0-.08.13-.1,0-.14.05.1.15,0,.19c-.34,0-.13.1-.11.26s-.36.08-.32.23c.2.33-.16.3-.1,0-.16-.27.37-.74.14-.82-.23.19-.4,0-.41-.21h-.44c-.14-.06,0-.21.08-.25s0-.18,0-.28-.18-.07-.09-.2c0,0-.06.1-.11,0,0,.1,0,.08-.07,0s-.07.22-.13.29c-.16.27-.11.07-.23,0-.35.2,0,.28-.2.53-.15,0-.28-.38-.19,0-.13,0-.25-.1-.39-.07s-.27.08-.28-.12c0,0,0-.05,0-.11s-.07,0,0,.11-.31.46-.39.73c-.06,0,0-.07-.09-.11s-.19,0-.12-.08-.12.1-.11-.19,0,.08-.12.07-.14.08-.32-.07c-.15,0-.11,0-.08.09-.15,0,0,.08-.18,0Z"/><path class="cls-2" d="M119.86,8.55c.06,0,.12-.05.18,0A.34.34,0,0,1,119.86,8.55Zm-.18,0s0,0,0,0,0,0,0,0Zm-.24-1.26s.08,0,.06,0-.06,0-.07,0Zm-.12-2s.06-.1.08,0-.07.06-.08,0Zm-.09-2.46s0,0,0,0,0,0,0,0ZM116,3.57a.27.27,0,0,1,.29.22c.11,0,.61,0,.48.24,0,0,.16.07.15.12-.17-.06,0,.4-.2.26-.06.1.06.36-.18.34s.11.17.18.21-.12.22-.12.36c.35.31-.2.55,0,.8.3.09.55.16.36.56-.07.14.26.41.08.41s.19,0,.2,0c.29-.05-.08.21,0,.38s0,.4.1.54.17.19.3.27.13.09.13.2a2.3,2.3,0,0,1-.11.57c-.07,0,0,0,0,0a.25.25,0,0,1,0,.22c0,.09.15.13.17.23,1,.35-.12,1,.68,1,.2-.06.3.24.34.3s.08-.28.08-.39.1-.06,0-.17a.5.5,0,0,0-.06-.24s.14,0,.11-.14-.46-.54,0-.32a1,1,0,0,0,.44.23c.27-.06.25,0,.13.16.08,0,.19.06.29.11s-.06.1,0,.13a.36.36,0,0,1,.46,0,2.42,2.42,0,0,0,.25-.31.59.59,0,0,1-.11-.5c.3-.14,0-.41,0-.57s0,0-.07,0,.11-.09.1-.19c-.23.06-.14-.34-.1-.55a1.16,1.16,0,0,1,.2-.65c-.2.18-.33.38-.51.56s.15.32,0,.42-.07,0-.18,0-.16,0-.22.06.11.06.17.05-.12,0-.14,0,0-.26-.14-.35.08,0,.11-.08.06,0,.08-.1c.34-.11.32-.19.3-.57-.07-.11,0,.3-.1.24s0,0,0,0-.09.11-.15.06-.11.1-.17,0c-.2.13-.09-.11-.16-.19s.18-.29.12-.41.14-.15.16-.28-.08,0-.06-.1,0-.11.1-.16,0-.06,0-.12.08,0,.12-.06.1-.14,0-.1c0-.11-.13-.19,0-.27-.13-.09,0-.11.13-.15-.21,0,0-.37-.2-.15s-.07-.21-.15,0c-.19,0,.11-.22.08-.35s-.18.08-.15-.06c-.14-.07.14-.16,0-.25s0,0,0-.06-.07-.06-.14-.09a.81.81,0,0,0,.12-.4c-.13-.31,0-.33.27-.27.1,0,.43.09.3,0-.13.07-.21-.15-.31-.15a.08.08,0,0,1-.12,0,.08.08,0,0,1,0,0c-.08,0-.21.08-.28,0-.34.46-.31-.3-.42-.57s0-.3.26-.24.26-.2.4-.25c-.17-.12,0-.34,0-.49,0-.34-.3.06-.3-.44,0-.08,0,.65-.16.66a2.84,2.84,0,0,1-.42-.09c0-.09-.09-.07-.13-.14s0-.17-.1-.2-.19-.08-.17,0c0,.24-.32.23-.38.43a.87.87,0,0,0,0,1,3,3,0,0,0,.09.72c.09.41.62.67.41,1.07,0,.17-.16.33-.17.53s-.15,0-.07.09.07.35,0,.45.13.12,0,.17.07.07,0,.1c0,.25-.26.55-.26.3.1-.07.22-.11.22-.26.1-.38-.41-.21-.44-.6,0-.1,0-.15-.07-.1-.17-.17,0-.24.13-.36s-.32-.34,0-.58c0-.22-.09.14-.22.15-.32-.09,0-.39-.15-.6-.44-.09.11-.5.17-.7a1,1,0,0,0-.14-.51c0-.15.15-.28.2-.44a3.81,3.81,0,0,0-.44-1.78c0-.1,0,0,0,.06l-.28-.07s.12-.09,0-.15c.12-.15-.29-.15-.06-.34,0-.06.21-.1.11-.09s-.16-.15-.32-.14,0-.12-.09-.14-.12-.14-.2,0,0-.26-.11-.19c.06,0,0,.36.18.16.07.09.13.06.16.18s.16,0,.17.11,0,.13,0,.24.16.1.11.19,0,.25-.15.2,0-.2,0-.09-.57.12-.47.47a1.22,1.22,0,0,1,.27.86C116.39,3.05,116.51,3.65,116,3.57Z"/><path class="cls-2" d="M279.53,22.34c.34-.16.62-.41.36.13.22-.4.55-.46.29.06.4-.29-.11,1.27.13.93.84,0,.78-.59.86-1.3a1.24,1.24,0,0,1,0-1.25c.12-.77,1-1.05,1.36-1.64.42.1.15-.62.5-.66.31-.41,1.24.6,1.31-.12-.48.28-.83,0-1-.46-.58-.29-.82-.92-1.52-1.07-.53-.1-1.07-.18-1.62-.23-.13.25.25.63.07.83.13.26,1,.64.44.87-.28.11.08.14.06.3-.33.18-.06.22-.09.55s-.14.2-.06.43-.19.28,0,.5-.58,0-.28.18c-.1,0-.47-.1-.46.18-.16-.06.17.31,0,.34,0,.14.28-.06.39.05s-.44.14-.57.43c.23-.22.68.39.16.36C280.1,22,279.75,22.12,279.53,22.34Z"/><path class="cls-2" d="M150.79,55.91s.07,0,.06,0,0,0,0,0S150.79,55.92,150.79,55.91Zm-1.59-3.23c.06-.2,0-.4.22-.16S149.29,52.84,149.2,52.68Zm-5.86,2.23c.07.82.37-.29.35.52,0,.1,0-.12.08-.13s.21.11.26-.06c.23.14.07,0,.23-.11s.12-.09.21-.15.1,0,.17-.16.1,0,.14,0,0-.07,0-.09,0,.06.11,0,.07-.08.12-.06.13-.1.1,0,.11,0,.16,0,0-.14,0-.09.07.1.12.07.12-.12.12,0,0,.14.19.14c0-.14,0,.06.08-.08.21.14.26-.2.32-.08s.18-.18.32-.16,0-.07.07-.08.16-.12.28-.11c.12-.29.53-.42.78-.61s.88-.61.77-.07c.07,0,.07-.24.18-.27s.25-.16.37,0,0,.11.12.27.22.11.24.21-.29.16-.23.25a.41.41,0,0,1,.2-.14,2.16,2.16,0,0,1,.82.28c0,.08-.13,0,0,.12s-.08.14,0,.14.27.12.09.17.1,0,.13,0-.18.09-.08.15c.14-.1.72-.11.57.18,0,.08.11,0,.14,0s0,.21.08.14.21-.11.32-.11c0-.17.28.11.4.13s.33.28.17.29-.06,0-.07,0c.18,0,.34.34.14.39.09.06,0,.13,0,.19s.07.07.05.13-.33.09-.29-.06c-.12,0,0-.05-.1-.06s0,0-.09,0,0,.07-.08,0c-.24-.06-.29,0-.43-.25-.1,0-.12.19-.25.15s-.09.12-.13.18-.36,0-.31,0c.21,0,0,.34-.15.36,0,.09.21-.07.24-.13s.12-.19.24-.18.08-.12.17-.12.49.08.49.24.3-.06.34.11.26,0,.37.07-.25,0-.32.1-.33,0-.39.08.07.08.16.06c.32,0,0,.1,0,.29l.34-.25c.09,0,.37,0,.13.05s-.09.09.09.1a.76.76,0,0,0,.28.38c0,.1-.23.15-.27.11s-.11,0-.13,0-.24,0-.29.09.46,0,.26.09c-.22.33.16-.13.27,0-.2.27.14,0,0,.16.06,0,.11-.1.13,0s0,0,0,0,.06-.06,0-.14a.32.32,0,0,1,.45,0,.46.46,0,0,1,.08.13c.07.14-.16.2-.25.26s-.21.17-.23.27-.27.22-.28.4-.26-.08-.23.12.06.1.08.15-.24-.09-.25.09.13.28.05.08.15,0,.24-.07,0-.15,0-.21.17.07.22,0a.88.88,0,0,1,.42-.26s0,.1,0,.14.16.13.16,0-.11-.22,0-.3.21.21.15.06c-.26-.34,0-.39.29-.32s.18.27.36.31.44,0,.38-.11c-.07-.3-.15-.14-.34-.22s-.08-.25-.17-.36-.31-.15-.27-.33a7.55,7.55,0,0,1,0-1s.08-.08,0-.13.11,0,.15-.08c-.22,0-.21-.25,0-.34-.11,0-.13,0-.2-.09s-.05.06-.08,0-.09,0-.09-.06c-.19.06-.21-.14-.13-.26s.2-.12.17-.23-.14.11-.22.13-.08.18-.18.11a.51.51,0,0,1-.17-.34c-.11-.09-.12-.21,0-.26s-.26,0-.32-.06,0-.17-.08-.27c-.06.05-.12.28-.15.06-.14.09-.2-.09-.31-.14a.61.61,0,0,1-.13-.33c-.08,0-.13-.05,0-.12s-.08-.08,0-.17-.07.23-.2,0c-.06-.06,0-.16,0-.24s-.17-.1-.13-.2c-.15-.16.41-.12.18-.18,0,0,.13-.11.09-.14s-.16,0-.17.08-.06-.08-.09-.12-.09-.11-.12-.18,0-.05-.05,0a2.34,2.34,0,0,1,0,.26c0,.08,0,.46,0,.23-.36-.2-.1-.18-.08-.52-.08.11-.13.07-.21.15a1.6,1.6,0,0,1-.1.31c-.06.07.34.23.13.17-.06,0-.18-.1-.25-.06s-.07.08-.14,0-.07,0-.11,0-.12,0-.17,0-.3-.14-.22-.27-.08-.2,0-.26c-.12,0-.12,0-.12-.15s-.2.13-.2,0,.14-.18.2-.27.21,0,.09,0-.15-.12,0-.13,0,0,0,0-.07-.06,0-.14.21-.35.06-.44,0,.18-.11.16,0-.1,0,0c-.27-.07-.14-.3.14-.18.11-.07-.17-.36.05-.26,0,.1.41.32.27.18s-.09-.29-.22-.43a.56.56,0,0,1,.12-.41c.06-.11-.11,0-.09-.06s0-.11-.07,0a4,4,0,0,1-.32.48c-.1,0-.55-.52-.61-.62s-.48,0-.26-.15c0-.09-.21,0-.07.21s.16,0,.23,0-.1.22-.11.35a.34.34,0,0,0,.07.22c-.07,0,0,.14,0,.21s.23.23.25.37c-.15-.09,0,.13-.05.23s.1.56-.1.61,0-.12,0-.15-.21-.07-.16-.19-.09.28-.28.21c-.16.13-.1-.07-.17-.17,0,.5-.06.57-.26,0l-.09-.18s0,.09-.05,0-.08-.28-.06-.13.31.48,0,.41c0,.1.26.15.25.31.16.13-.12.22-.17.35s-.12-.21-.17-.31,0,.2,0,.29-.16.2-.24.3c-.24.17-.44.27-.66.43a2.43,2.43,0,0,1-.85.35c-.06-.07-.13,0-.23,0a.37.37,0,0,0-.34,0,.65.65,0,0,1-.31.08.83.83,0,0,1-.32.17c-.24-.1-.35.08-.57.11-.07.17-.15,0-.25,0-.26.08-.37-.07-.44.26Z"/><path class="cls-2" d="M112.55,293.72c-.28,1,.94,1.7.58,2.69-.53.54-.6,2.39-.18,2.46.21-.46-.34-1.19,0-1.72,1.09-1.21-.11-1.93-.18-3.18.37-1.94,1.82-3.7,1.18-5.76,0-1.7,3.74-1.67,3.25-4.15a2.2,2.2,0,0,0-.71-1.65c-.07-.41-.11-.82-.14-1.23s.14-.3.31-.42a16.26,16.26,0,0,1,1.09-1.39c.64-.84,2.06-1.39,1.49-2.71-.14-.85-1-1.72-.61-2.59,0-.8.67-1.26,1.15-1.83.94-1.2-.17-2.31-.64-3.38a5,5,0,0,0-.08-1,1.3,1.3,0,0,0,.38-1,2.77,2.77,0,0,0-.11-1.31c-.14-.22-.47-.47-.18-.7-.16-.46-.73-.94-.56-1.45-.18-.6.29-.85.62-1.25.09-.72.93-1.22.68-2.06-.07-.61-1-1.05-.53-1.67.15-.59,0-1.26.44-1.72.13-.39.77-.67.72-1.21a4.1,4.1,0,0,1,.1-1.52c.2-.36.57-.73.53-1.17.18-.32.08-.73.18-1.07a6,6,0,0,1,.67-1.05c.16-.26.11-.61.36-.81,1-.74.14-2,.06-3a6.41,6.41,0,0,0-.08-2.58,2.53,2.53,0,0,0-.43-.89,4,4,0,0,0,0-.69c-.58-1.54,1-2.63,2.1-3.43.71-.53.87-1.59,1.59-2.14.31-.18,0-.58-.14-.17a5.49,5.49,0,0,0-1,1.61c-.83,1.16-2.71,1.76-2.68,3.43-.07.45.23.94.11,1.26a5.73,5.73,0,0,1,.68,2.17c0,.62-.13,1.15-.17,1.71.2.57.65,1.24.47,1.89a4.43,4.43,0,0,1-.7,1.06,1.55,1.55,0,0,1-.21.59c-.34.5-.81.95-.71,1.62-.19,1.13-1,2.13-.78,3.36-.3.63-1.07,1.18-1.09,2,.25.34-.07.65-.16,1,0,.62.93,1.38.6,1.92-1.71,3.44-1.55,1.93-.34,5.6.13.7-.46,1.27-.42,1.94.19.1.13.26.1.43s.06.38,0,.57.19.36.36.44c.15.23.29.5.42.75.93,1.94-2.34,3-1.3,5,.26.85.83,1.76.51,2.66a7,7,0,0,0-2.37,2.62,1,1,0,0,0-.38,1.22c.1,1,1,1.75.75,2.87s-1.58,1.7-2.42,2.34c-1.8.35-.14,2.46-.85,3.53C113.35,291.6,112.9,292.64,112.55,293.72Z"/><path class="cls-2" d="M232.6-4.53s0-.06.05,0S232.62-4.54,232.6-4.53ZM231-43.84l0,0s0,0,0,0ZM229.8-32.47a.06.06,0,0,1,0-.05s0,.05,0,.05ZM229.44-38s0,0,0,0,0,0,0,0Zm-.9-8.93s.05,0,0,0Zm-1-.73s.08.09.05.09a.13.13,0,0,1-.05-.09Zm-.75,95.07s.05-.08.09-.07-.06.11-.09.07Zm-.19.12s.09-.12.13-.1-.1.15-.13.1Zm-2.37,3.31c0-.12.31-.06.31,0s-.21,0-.31,0Zm-.32.19s0-.1.08-.08-.08.13-.08.08Zm-.64,3.1s0-.08,0-.1,0,.1,0,.1Zm-.45.2c0-.08.28-.07.27,0s-.17,0-.27,0Zm-3,2.37s0,0,0,0Zm-6.63,4.24c.06,0,.22-.13.28-.11s-.19.07-.28.11Zm-.53,2.43s0,0,0,0,0,0,0,0Zm-2.61-2,.21-.09c.14,0-.2.25-.21.09Zm-1,0v0s0,0,0,0Zm0,0s0,0,0,0v0Zm0,0s0,0,0,0,0,0,0,0Zm-.23-.26s.08,0,.09,0-.08,0-.09,0Zm-1.07.4a.3.3,0,0,1,.42,0h0c-.14.06-.27.14-.43,0ZM192.42,88.69c0-.09.07.08,0,.11s0-.08,0-.11Zm0,1.72s0,0,0,0,0,0,0,0Zm-.27-2.78c0-.2.07,0,.05.08s-.05,0-.05-.08Zm-.55,9.23c0-.15.27-.12.32-.27.09.14-.19.3-.32.27Zm-.34,0s.08,0,.1,0-.09,0-.1,0Zm0-11s.08,0,.07.07a.46.46,0,0,1-.07-.07Zm-.08,11c.11-.07.55-.13.38.05-.11,0-.25-.08-.38-.05Zm-.29-11.65c.06,0,.15.13,0,.17a1.09,1.09,0,0,1,0-.17Zm-.13-.19s.05.06.05.08-.05,0-.05-.08Zm-.15,12.12h.16a.22.22,0,0,1-.16,0Zm-2.69,3.32s.08-.09.07,0-.06,0-.07,0Zm-.1.81s.07.16,0,.21a.76.76,0,0,1,0-.21Zm-.12.61s0-.12.07-.11-.05.12-.07.11Zm-1.51,2.61c0-.06.17-.29.13-.18s-.11.58-.13.18Zm-1.1,2.37,0,0c.11-.06,0,.11,0,0Zm0-.93c0-.16.12,0,.17-.12,0,.25,0,.51-.17.12Zm-.14,1.34c.11,0,.12-.16.15-.23a2.56,2.56,0,0,0,.22-.35c.06-.19-.15-.34-.07-.51s-.07-.62.18-.86a.43.43,0,0,1,.42-.37s-.14,0,0,0,.22.09.34,0,.12-.52.27-.73-.14-.32.07-.34a.91.91,0,0,0,.71-.56,12.09,12.09,0,0,1,.66-1.63c.11-.27-.12-.5-.08-.78a3.19,3.19,0,0,1,.51-.92c.35-.57.92-1,1.22-1.55.2-.19.55-.1.66-.42a1.54,1.54,0,0,1,.41-.8c.23,0,.33,0,.43-.23,1.44.2,1-.88.85-1.87-.21-.41,0-.83,0-1.25a1,1,0,0,1,0-.85,4.74,4.74,0,0,0,.6-2.47c0-.46,0-.94,0-1.4,0-.13.1,0,.14,0s0,.07.14,0,0-.06-.05-.1,0-.14,0-.17-.09.23-.21.25.11-.21.05-.32-.06-.47-.16-.72a6,6,0,0,0-.81-1.64c-.14-.23-.19-.48-.43-.63s-.13-.31-.11-.47a1,1,0,0,1-.22-.24c-.2-.22.2-.29.29-.43a1.5,1.5,0,0,0,.39-.68c.1-.37-.11-.76-.08-1.16.37-.64.76-1.31,1.12-2,.35-.48,0-1.1.24-1.62a10.88,10.88,0,0,0,.56-1.2c.05-.1.2-.56.13-.16.47-.7.51-3.22,1.85-3.28,0,.07.06,0,0,0s-.07,0-.06,0c.22-.06.27-.29.4-.45s.44-.16.67-.24.27-.36.48-.47a1.22,1.22,0,0,0,.84-.36c.4-.28.65-.78,1-1.08a7.73,7.73,0,0,0,1.76-1,5.72,5.72,0,0,0,.55-1.24c.45-.22,1,.08,1.47-.25s.19-.61.23-.92.38-.44.35-.77c1.3-1.7-1.25-1.42-.35-3.07.07-.34.43-.54.65-.79a1.89,1.89,0,0,1,.35-.6c.29-.41.92-.5,1.11-1,.42-.38,1.06,0,1.54-.11a1.7,1.7,0,0,0,.79-.4,3.32,3.32,0,0,1,1-.23c.49-.11.59-.66,1-.07a1.5,1.5,0,0,0,.4.5c.16.11.44-.08.55.12a1.05,1.05,0,0,0,.55,1c.18,0,.29-.15.47-.18a.31.31,0,0,0,.33-.09,2.16,2.16,0,0,1,.84.07c.17.15.27.41.47.54a.9.9,0,0,0,.54,0,1,1,0,0,0,.24.22,3.34,3.34,0,0,1,1.26.41,3.22,3.22,0,0,0-1.25-.44c-.14,0-.15-.16-.24-.24-.13.12-.28.07-.43.06-.38-.07-.45-.64-.89-.64a4,4,0,0,0-1.37.28,4.48,4.48,0,0,1-.47-.5,1.63,1.63,0,0,0-.05-.49c-.16-.16-.43,0-.59-.11s-.61-.63-.18-.57c.69-.33.71.58,1.22-.27.34-.16.69.37,1.08.24a15.78,15.78,0,0,0,1.79-.49,2.09,2.09,0,0,0,.71-.29c.11,0,.26.07.35,0a1.41,1.41,0,0,1,.69-.84c.48,0,.83-.4,1.29-.49a13,13,0,0,0,1.46-1.1c.14-.16.31-.15.5-.17a6,6,0,0,0,.69-.42c.1-.1.23-.15.23-.32s.23-.14.31-.25c.08-.3.27-.17.47-.33a7.71,7.71,0,0,1,1.23-1.26c.44-.39,1.08-.49,1.46-1,.33-.1.57-.18.55-.57.3-.38-.13-.68-.12-1.08a2.22,2.22,0,0,1,.39-1.13A3.65,3.65,0,0,0,224,51c.27-.28.8-.06.92-.53-.06-.26.17-.42.23-.67s.36-.32.38-.57c0-.6.64-.9.73-1.46a3.62,3.62,0,0,0,1.12-.9c.24-.3.24-.74.51-1a3.8,3.8,0,0,0,.69-.5c.19-.12.43,0,.63-.1.51-.77.44-.33.23-1.17-.06-.48.35-.8.55-1.17-.18-.78-.39-.54.09-1.26.92-1.43-1.19-2,.42-3.33.31-.57,0-1,0-1.51.22-.57.49-1,.13-1.56-.1-.41.26-.64.43-.95,0-.74-.21-1.5-.22-2.24-.15-.48-.76-.68-.88-1.2a14.67,14.67,0,0,1-.16-2.73,2.06,2.06,0,0,0-.38-1.52,2.81,2.81,0,0,1,.48-2c.47-.29.46-.74.36-1.22a11.63,11.63,0,0,1,.06-1.56c.22-.4.7-.6.73-1.11q.36-1,.63-1.95c.19-.62.79-1,.9-1.69-.48-.91.37-.76,0-1.36-.11-.21-.32-.45-.25-.73.3-.44-.11-1.1.33-1.38A.72.72,0,0,0,233,13c.17-.65.43-1.28.61-1.93a6.31,6.31,0,0,0,.59-2c.15-.29.28-.67,0-.92a10.62,10.62,0,0,0-.6-1.16,1.17,1.17,0,0,1-.06-.78c0-.25-.09-.49,0-.73s.11-.54.19-.8a1.6,1.6,0,0,1,0-1.14,4.13,4.13,0,0,1,.37-2.08c.1-.22,0-.46.07-.68.25-.15.16-.45.3-.68.05-.42-.16-.79-.13-1.21.22-.25.07-.35,0-.64a4.28,4.28,0,0,0-.77-.51c-.18-.09-.32-.27-.52-.33a.53.53,0,0,1-.48-.13c-.4-.52-.07-1.34.2-1.9.17-.25.56-.23.53-.61.16-.37.55-.71.48-1.14s.43-1,.44-1.57c0-.36.45-.57.46-.91a.8.8,0,0,1,.12-.72c.11-.18.13-.41.24-.6.45-.83,1.29-1.49,1.22-2.53.22-.64-.4-1.07-.78-1.48a15,15,0,0,1-.91-1.34c-.74-1,.75-2.23-.23-3.09a.79.79,0,0,1-.56-.43c-.15-.21-.61-.15-.61-.46a1.81,1.81,0,0,0,.45-.81c.22-.27.52-.69.14-1-.17-.12,0-.36.05-.5a2.88,2.88,0,0,1-.11-.42,1.23,1.23,0,0,1,.14-.62,1.3,1.3,0,0,1-.12-.55c-.07-.3-.43-.43-.61-.67.09-.44-.33-.64-.54-1a3.49,3.49,0,0,1,.05-1.07,1.84,1.84,0,0,1-.23-1.5,1,1,0,0,1,.1-.43c0-.13-.19-.23-.17-.36s.27-.1.37-.16a.92.92,0,0,0,0-.71,2.07,2.07,0,0,0-1.77-1.25c0-.08,0-.19-.08-.23s-.22.05-.28,0-.27-.19-.41-.26-.18-.33-.17-.51,0-.3,0-.43-.2-.16-.24-.31.42-.34.11-.59c-.11-.18,0-.48-.15-.64s-.51-.55-.19-.76c.12-.51-.72-.84-.48-1.34.21-.12.26-.37.39-.57s.28-.41.22-.67-.43-.69-.05-.91c.11-.17-.19-.39-.06-.56.3-.19.43-.54.84-.59a.29.29,0,0,0,.28-.29.3.3,0,0,0,0-.1c.14-.22.4-.36.36-.67s0-.42.18-.51a.17.17,0,0,0,.18-.16.15.15,0,0,0,0-.13c-.14-.11,0-.3-.12-.42s0-.29,0-.42-.27-.16-.15-.32,0-.36.14-.54c.34-.27.08-.74-.08-1.05a1.57,1.57,0,0,1,.17-.88c0-.15-.19-.18-.27-.27s.35-.33.07-.49c-.12-.13-.4,0-.44-.21s.06-.2,0-.3-.44-.23-.42-.49a.41.41,0,0,1,.27-.36c.12-.13,0-.46-.19-.57a.54.54,0,0,0-.62,0,.76.76,0,0,0-.86.16,1.46,1.46,0,0,0-.5-.12c-.21.08-.39-.25-.18-.3.21-.22-.19-.37-.38-.28a.67.67,0,0,1-.16-.43c0,.79.34.24.58.58-.1.11-.2.21-.15.36s.51,0,.69.22a.14.14,0,0,0,.17-.05c.11-.14.35-.14.49-.2s.2.15.39.07a.43.43,0,0,1,.59.1v0c.07.11.16.29.09.41a.45.45,0,0,0-.28.48c.09.22.34.23.43.44-.18.47.11.39.39.49s-.41.36.22.71a1.57,1.57,0,0,0-.16.83c0,.26.28.54.23.85a1.4,1.4,0,0,0-.25.75c-.17.19,0,.25.1.38s-.2.35,0,.44,0,.36.15.45-.13.14-.23.27a2.9,2.9,0,0,0-.14.65c0,.25-.43.38-.32.67-.15.33-.72.16-.82.55-.11.18-.52.3-.28.57s-.1.28-.16.47a1.39,1.39,0,0,0,.26.76c0,.63-.79,1-.63,1.59.12.26.42.47.47.75s-.25.37-.09.56c.41.4.32.81.58,1.27,0,.17-.4.27-.18.46s.06.65.33.9c0,.38.39.26.51.56.09,0,.23-.07.3,0s0,.26.22.23a2,2,0,0,1,1.56,1.17,1.06,1.06,0,0,1,0,.66c-.1.13-.4,0-.42.25.26.33.1.68,0,1.09s.23.85.28,1.3a1.31,1.31,0,0,0,.26,1.36c.32.1.17.42.27.62s.47.35.58.61c.18.54-.12,1,0,1.48.1.33-.25.54.17.84.08.31-.2.58-.35.83a2.25,2.25,0,0,1-.41.78c.18.29.7.32.82.74,1.43.33.15,1.78.41,2.63.24,1.1,1.18,1.88,1.83,2.77a2.83,2.83,0,0,1-.82,2.54,6.61,6.61,0,0,0-.76,1.5,1.26,1.26,0,0,1-.36,1.06,4.53,4.53,0,0,0-.21.9,2.3,2.3,0,0,0-.31.8c.13.59-.46,1-.52,1.51-.17.18-.43.22-.57.46a8.34,8.34,0,0,1-.26.85,1.12,1.12,0,0,0,.19,1c.2.18.47,0,.66.19.35.33.94.44,1.11.89.25.24-.1.34,0,.61,0,.45.26.87,0,1.3,0,.24-.12.31-.22.48A5.42,5.42,0,0,1,233.9,2c-.43.72-.19,1.45-.37,2.26.23.65-.21,1.27-.05,2-.28,1,.81,1.63.86,2.55-.26.35-.18.79-.31,1.19s-.38,1-.54,1.44a7.21,7.21,0,0,1-.46,1.38,1.07,1.07,0,0,1-.47.9c-.2.18-.06.43-.05.64s-.16.54-.16.81.39.56.33.91c-.32.46-.31.44-.09,1a2.7,2.7,0,0,1-.65,1.21c-.31.34-.26.79-.42,1.21a15.72,15.72,0,0,0-.59,1.67c-.2.29-.56.45-.64.82s0,.86,0,1.29.17.77-.06,1.08a1.51,1.51,0,0,0-.68,1.15,1.87,1.87,0,0,0,.23,1.8c.19.41,0,.88.07,1.32.13.84-.2,1.71.24,2.52.14.48.85.63.79,1.18a11.67,11.67,0,0,0,.24,1.87c0,.35-.37.52-.45.83-.14.49.44.9.07,1.35-.52.75.36,1.66-.45,2.32a.87.87,0,0,0-.39.75c0,.52.4.94.5,1.42a2.94,2.94,0,0,1-.62,1.38c0,.24.2.45.24.69s-.22.34-.33.48-.24.44-.25.69a1.51,1.51,0,0,0,.21.64,3.36,3.36,0,0,0-.39.52c-.18.23-.53,0-.75.2s-.69.35-.81.78a2.54,2.54,0,0,1-1.24,1.47c-.25.06-.2.37-.32.53a1.8,1.8,0,0,0-.59,1c0,.22-.25.29-.33.47a3.56,3.56,0,0,0-.34.89c-.1.24-.37.16-.58.17a.47.47,0,0,1-.27.18c-.2.09-.07.34-.22.47a2.28,2.28,0,0,0-.6,1.28c0,.34.29.67.21,1s-.11.57-.43.58c.43-.11.28,0,0,0s-.26.33-.43.45a8.16,8.16,0,0,0-.8.36,7,7,0,0,0-1.42,1.35c-.11.11-.15.23-.31.28s-.25,0-.3.09-.28.29-.37.46a1.75,1.75,0,0,1-1.15.7c-.24,0-.32.31-.49.39s-.31.22-.44.33a5.23,5.23,0,0,0-.63.41c-.33.23-.75.25-1.06.52-.16.13-.41,0-.52.16a1.21,1.21,0,0,0-.57.76,18.26,18.26,0,0,0-2.14.67,1.49,1.49,0,0,1-1.06.07c-.27-.16-.61-.36-.84-.05s-.56.11-.84.07-.38.14-.53,0-.06-.2-.18-.16c-.29.1-.44.49-.8.25a5,5,0,0,1-1,.41c-.23.08-.29.34-.57.34-.5.17-1.05-.12-1.55,0-.23,0-.26.33-.4.46a3,3,0,0,0-1.17,1c-.55.82-1.64,1.85-.37,2.74a.87.87,0,0,1,.32.76,4.09,4.09,0,0,0-.44,1c-.49.46,0,1.37-.83,1.46-.35.09-.82-.11-1.13.13a6.36,6.36,0,0,1-.51,1.2c-.21.15-.45.23-.67.38.17-.06-.08.16-.08.09-.29.31-.78.33-1.12.55a6,6,0,0,1-1.33,1.33c-.19,0-.46,0-.59.16a.58.58,0,0,1-.43.41,1.09,1.09,0,0,0-.84.57c-.26.17-.6.22-.83.45a6.84,6.84,0,0,0-.91,2.3c0,.05-.13.65-.23.43a1.34,1.34,0,0,0-.09.26,9.64,9.64,0,0,1-.4.93c-.12.26-.18.19-.27.52s0,.88-.08,1.31c-.38.71-.8,1.41-1.2,2.1-.12.36.11.73.06,1.09a1.17,1.17,0,0,1-.6,1c-.16,0-.17.28-.1.41s.1.16.16.26a2,2,0,0,1,.1.35,1.55,1.55,0,0,1,.27.24,3.5,3.5,0,0,0,.47.73,4.06,4.06,0,0,1,.4,1.07c.35.34.21.84.26,1.28,0,.7,0,1.11,0,2a6.77,6.77,0,0,1-.68,2.11c-.12.34.1.65,0,1-.34.81.75,2.1-.1,2.66-.24,0-.57,0-.76.2,0,.24-.28.09-.42.18-.27.27-.27.68-.47,1s-.57.08-.65.43a11.26,11.26,0,0,0-1.67,2.27c0,.28.1.56.13.83-.18.21-.24.5-.42.72a2,2,0,0,1-.59,1.32c-.21.12-.63,0-.44.4-.07.21-.31.29-.22.55-.09.08.08.2-.08.24a.65.65,0,0,0-.63.23,3.06,3.06,0,0,1-.26.51c-.06.07.09.19,0,.22-.26,0,0,.36,0,.5s.24.4,0,.47c-.1.14-.1.34-.2.48Z"/><path class="cls-2" d="M166.68,140.62c.06-.13,0,.1.07,0C166.82,140.8,166.69,140.69,166.68,140.62Zm-1.92-1c.39.11.6.45.09.44,0,.2.53.73.4.78.37.48.46,1.44,1.05,1,.21.5.6-.55,1,.51l0-.09,0,0c-.15-.26-.49-.54-.15-.77-.06.09.21-.07.23-.11s-.16-.07-.16-.15.1.06.15,0,0-.1-.09-.09c.1,0,.54-.27.22-.3-.15,0-.29.22-.4.09s.3-.1.14-.2c-.27.13-.29-.38-.62-.4,0,.23-.25.08,0,0-.06-.11-.13.05-.21-.08.14-.08,0-.16.19-.13s-.22-.14-.07-.17c0-.11,0-.07-.14-.05s-.13.21-.13.07c.11-.34-.17-.18-.1-.43.11,0,.19-.12.33-.1-.14-.13,0-.11.1-.19s-.18-.1-.28-.13-.21.14-.1.05c.34-.45-.14-.07-.15-.53a5.43,5.43,0,0,1,.28-.95,2.58,2.58,0,0,0,.74-1,.93.93,0,0,0,.29-.77,4,4,0,0,0,.22-.89c.31-.23.31-.57,0-.7.34.14-.23,0-.08-.11,0-.16-.08.09-.16,0,.08.08-.39-.1-.51-.07.11.09.61.08.25.1-.78.05,1,.13.48.71.08-.38,0-.31-.15-.11-.09-.12,0,.1,0,.11s-.16.24-.21.38a1.29,1.29,0,0,1-.16.72c.16.25-.24.46-.27.7s-.62.89-.8.61c-.14-.05-.17-.21-.33-.13.18,0,.13.15.19.27,0,.45-.36.79-.28,1.23,0,.09,0,.39-.13.32s-.14-.33-.24-.16c.08.19.19.48-.14.47-.15,0,0,0,0,.08s-.15.1-.13,0S164.79,139.63,164.76,139.63Z"/><path class="cls-2" d="M106.64,9.43a.35.35,0,0,1,.06-.17C106.91,9.17,106.78,9.69,106.64,9.43Zm-.18-.36a.89.89,0,0,1,.14-.47c.11,0,.15.06,0,.09.06.09.25,0,.33-.09s-.13.31-.18.4-.35.46-.33.07Zm-1.62-3.32c.49.55.4.61.34,1.34,0,.25.35.19.43.48.09.12.23,0,.34,0a.35.35,0,0,0,.4-.19c.06-.12.07-.34.24-.33s.6,0,.4.31c0,.23-.1.14-.22,0s-.24.16-.23.34c-.19.19,0,.28.14.13.06.12.25-.07.2,0s.22-.1.28,0,.21.33,0,.42-.15,0-.18.12-.13-.18-.24-.14-.32,0-.45.15-.49.19-.55.38c.18.3.37-.19.3.35.09.15.23.14.36.17-.05.18.2.28.13.42s.12,0,.15.12.11-.11.12-.18.23-.22.2-.36a1.39,1.39,0,0,1,.26-1.06c.13-.09,0-.27.2-.32.17.12.58-.53.34-.35-.17.36-.45.2-.69,0a1.27,1.27,0,0,0-.37-1.1,4.87,4.87,0,0,1-.3-1.46c-.21-.18-.25-.53-.5-.64-.26.15-.85.73-.51,1,.2,0,0,.28-.14.26s-.42-.27-.48,0Z"/><path class="cls-2" d="M138.79,49.82s0-.14.05-.17S138.8,49.89,138.79,49.82Zm-2.5-1.53s.08-.11.14-.11-.09.15-.14.11Zm-3.9-2.24c.1,0,.23,0,.29.05s-.25.07-.29-.05Zm-.59-.56c0-.05,0,.06,0,0v0Zm0-.06s0,0,0,0Zm-.31-.24s0,0,0,0,0,0,0,0Zm-.27-.08c.17-.08.15-.08.25.08C131.39,45.21,131.25,45.15,131.19,45.11Zm-.83-.15s0,0,.06,0-.06,0-.06,0Zm-.28.06c0-.05.1,0,.12,0s-.1,0-.12,0Zm-.39-.72s.07.06.06.08-.06-.05-.06-.08Zm-.41-.16c0-.07.18,0,.15.09a.29.29,0,0,1-.15-.09Zm-.68-.36c0-.28.43,0,.28.15-.1,0-.23-.06-.28-.15Zm-.25-.72s.15.08.13.15S128.34,43.12,128.35,43.06Zm-.56,0c.11-.18.74-.18.43.07-.13.13-.28-.07-.43-.07Zm-1.5-1.71s.07,0,0,.06a.06.06,0,0,1,0-.06Zm-1.44-4.61c0-.08.11.17.12.23s-.11-.18-.12-.23Zm-1.09-2.89s0-.08,0-.08,0,.18,0,.08Zm-.29-1s0-.08,0-.1,0,.34,0,.1ZM123,27c0-.09.1,0,.07,0s-.06,0-.07,0Zm-.7-10s0,0,0,0,0,0,0,0ZM122,14.67c0-.09.17,0,.14.1a.23.23,0,0,1-.14-.1Zm-.08-.81s0,0,0,0,0,0,0,0Zm-.41,1.64s0-.18,0-.12,0,.2,0,.12Zm-.16,1.91c0-.05.11,0,.16-.06s-.12.06-.16.06Zm-.43-.25s0,0,0,0v0Zm-.44-.83h0a0,0,0,0,1,0,0Zm-.36,1.41s0-.08,0-.11,0,.23,0,.11Zm-.22-.69c0,.14.17.29.1.43.07,0,.13.07.12.14s-.08.11,0,.18.06.28.16.34c-.13,0,0,0,.09,0a1.58,1.58,0,0,1,.47.23,2.21,2.21,0,0,0-.11.57c-.12.07-.32.12-.26.3s-.44.14-.23.41.38-.21.57-.05.35.24.39.07a.27.27,0,0,1,.34.19h0c.09,0,.14.2.2.27s.13.31,0,.31c-.27.17-.11.53-.09.8s-.31.4-.57.44-.39.25-.4.45c.27.44.4.35,0,.82,0,.59.63,0,.41,1s.72,1.36,1.17,2c.21,0,.26.14.43.24.31-.06.33.26.27.48-.17.61.23.24.44.65.16.21-.06.41,0,.61.14.52.42,1,.52,1.51-.06.18-.27.15-.39.21s-.07.55,0,.74-.31.37-.12.62,0,.27-.13.39a.9.9,0,0,0,0,.7c.44.21,0,.77.23,1.13a1.09,1.09,0,0,1,.22.63c.24.11.23.47.34.7s.5,0,.3.28c-.56,0,.22,1.1.32,1.33a2.68,2.68,0,0,0,.24.9c.21.17.09.21.13.4a.61.61,0,0,0,.34.76c0,.29.21.35.43.46.17.32,0,.76.13,1.11,0,.26.22.3.32.49a.11.11,0,0,1,0,.15.08.08,0,0,1-.06,0c-.08.06.12.1,0,.12a.39.39,0,0,0-.32.44.56.56,0,0,0,0,.12,4.42,4.42,0,0,1,.74.62c0,.11-.21.1-.11.26s.13.5.15.7.53-.11.26.14a.15.15,0,0,0-.11.18.17.17,0,0,0,.07.1c.13-.11.19-.17.38-.1a1.93,1.93,0,0,1,.79.13c.12,0,.18-.19.26,0,.15.32.15.84.62.8.25,0,.37.38.65.3.17.22,0,.55.25.71s.41.07.6,0,.27.09.4,0,.24.24.43.24a.52.52,0,0,1,.53.42,3.24,3.24,0,0,0,.73.56c.25-.19.26.13.43.28.15,0,.29.26.5.18.27.15.56.41.16.64-.08.28.28.18.44.25,0-.13.18-.48.39-.22a.36.36,0,0,0,.36.14c.24,0,.67,0,.77.24-.06.27.17.51.45.61s.36-.12.48,0,.15.2.26.14.06-.17.14-.1c.24.21.36.57.71.62a.92.92,0,0,0,.54.08.83.83,0,0,0,.58.05c.16.18-.09.52,0,.76a1.53,1.53,0,0,1,.09.64c0,.16.12.32,0,.49-.11.34.16.57.32.83,0,.29-.65.52-.22.79.19.19.47.24.66.38s.06.13.13.18a1.28,1.28,0,0,1,.39.13c.11.13.16.27.32.34s.12.1.22.09,0,.1.07.13.25,0,.33.08a1.14,1.14,0,0,1,.37,0c.08-.11.24,0,.28,0s.13,0,.17.07.23.13.38.17,0,.1,0,.12c0-.14,0,.07.07.06s.31.28.18.39.07,0,.06.07.15.1.06.19.14,0,.17.07.14,0,.12.1c-.08.26-.26-.07-.35.06s-.15.13-.16.21-.12.12,0,.09.08-.08,0,0a.34.34,0,0,0,.22.23c.13,0,.21.25,0,.25s0,.12-.11.17-.15.08-.08.12.17-.13.18-.25A.94.94,0,0,0,143,56a.58.58,0,0,0-.18-.26c0-.06,0-.15-.06-.19-.25-.35.43.08.43-.33.35,0,0-.32.21-.61,0-.12-.18-.16-.25-.26s-.11.06-.16,0,0-.11,0,0c-.2-.06-.08-.25-.23-.33a.21.21,0,0,1-.22-.14c.12-.15-.27-.28-.42-.33a1.19,1.19,0,0,1-1-.06c-.13,0-.17-.19-.27-.27s-.25-.09-.37-.15-.1.08-.18.05a2.19,2.19,0,0,1-.48-.31c-.27-.08-.94-.1-.84-.55.08-.17.32-.21.35-.4s-.39-.43-.35-.73a9.72,9.72,0,0,0-.08-1.43c0-.17.19-.72-.14-.66a.48.48,0,0,1-.42,0,1.92,1.92,0,0,1-.91-.23c-.14-.19-.34-.38-.47-.56-.24.36-.24,0-.53-.08-.11.1-.23.21-.39.13-.64-.43,0-.86-1.07-.85-.3.14-.37-.31-.68-.29s-.08.37-.3.35a.42.42,0,0,1-.21-.06c-.13-.13.41-.17.2-.38a1.24,1.24,0,0,0-.48-.46c.16.12-.21,0-.27-.06-.26-.13-.36-.52-.7-.5s-.36-.24-.55-.32-.14-.37-.33-.44-.2-.31-.43-.18c-.19,0-.25-.16-.47-.1-.29-.16-.69.22-.92-.13-.13-.18.1-.46-.1-.58a2.55,2.55,0,0,1-.75-.39c0-.27-.33-.16-.41-.37s0-.22,0-.35-.24-.27-.4-.25-.32.19-.52.15-.5-.15-.63.07c-.09-.13.33-.27.12-.36-.48,0-.21-.1-.33-.48,0-.13-.14-.23-.09-.37.22-.09-.1-.3-.19-.38s-.19-.19,0-.21c-.1,0-.22,0-.32-.09s-.17-.38,0-.52.26-.05.28-.2a.43.43,0,0,0-.29-.44,2.74,2.74,0,0,1-.14-1c.06-.3-.1-.43-.36-.5-.11-.08-.09-.22-.13-.33s-.22-.09-.29-.2-.05-.49,0-.71-.22-.18-.11-.33c-.27-.58-.44-1.16-.75-1.73-.1-.13-.1-.37.12-.31a.17.17,0,0,0,0-.23.2.2,0,0,0-.16-.07c-.32-.06-.21-.56-.37-.72a1.91,1.91,0,0,1-.34-1.27c0-.52-.62-.84,0-1.33.12-.19-.19-.41,0-.59s0-.48,0-.77.33-.2.46-.4-.21-.6-.22-.92-.32-.49-.27-.75c.2-.43-.12-.71-.44-.93-.07-.24.19-.63-.12-.75a.44.44,0,0,1-.38-.22.76.76,0,0,1-.52-.44c-.25-.31-.6-.52-.74-.9-.32-.34.14-1.08-.17-1.36-.78,0,0-.52-.19-.86-.11-.08-.24-.21-.21-.35s.26-.25.41-.34a.5.5,0,0,0,.56-.43.09.09,0,0,1,0,0,1,1,0,0,1,0-.68c.17-.09.28-.19.22-.4a1,1,0,0,1-.37-.43.31.31,0,0,0-.29-.06.11.11,0,0,1-.14.06h0c-.14,0-.18-.14-.31-.16s-.17.09-.28.11c-.21.18-.38-.24-.07-.25.11-.07.08-.22.13-.31s.23-.09.26-.21,0-.35.08-.5c-.06-.18-.33-.21-.49-.27s-.14-.47-.27-.66-.23-.43-.14-.65a.32.32,0,0,1,.17-.42l.07,0c.6-.21.62.14.69.62,0,.12-.09.44.19.36.41.1.55-.11.87-.31.47.09.36-.4.31-.71s.1-.35.08-.52,0-.09,0-.13.06-.07,0,0-.14-.31-.32-.32-.12.06-.17.09-.17,0-.27.06c-.23-.32,1.06-.67.39-.94-.11,0-.55-.16-.32-.36s.42-.24.27-.5-.11-.26-.17-.38,0-.21,0-.29a1.65,1.65,0,0,1-.24-.87c-.07-.37-.53-.4-.73-.65-.07-.1,0-.32.11-.31s.26.18.26,0c.15-.2-.08-.39-.21-.53s-.15-.37-.34-.47.08.1.11.1a.75.75,0,0,0,.13.25c.1.21.47.4.27.68-.1,0-.18-.1-.28-.09a.29.29,0,0,0-.07.37,1.68,1.68,0,0,1,.37.27.39.39,0,0,1,.28.19c.12.13.08.35.08.53s.13.27.2.41,0,.29,0,.41.23.42.17.62-.39.15-.34.36.23.19.37.26c.3.21.13.34-.13.45-.57.53-.31.56.2.32.19,0,.24.3.33.44a1.37,1.37,0,0,1-.09.4c0,.41.27.85-.34.86a1.06,1.06,0,0,1-1,.25c0-.24,0-.45-.07-.6,0-.49-.62-.53-.89-.24-.12.18,0,.37-.1.55Z"/><path class="cls-2" d="M136.76,171.19c1.17.63,2.41.95,3.43,1.44.25-.15.06-.47.17-.64s.39-.36,0-.56c-1-1.13-1.35,0-1.89-.57.16-.26-1-.66-1.38-.9C136.89,170.34,137.07,170.84,136.76,171.19Z"/><path class="cls-2" d="M292.4,122.86c.12.5.27.78.65.82.11.47.89.22,1.27.44C295.81,122.46,292.75,120.05,292.4,122.86Z"/><path class="cls-2" d="M104.23,333.68s0,0,0,0S104.25,333.67,104.23,333.68Zm-.1.16s0,0,.05,0S104.15,333.83,104.13,333.84Zm0,.09s0,0,0,0S104.09,333.94,104.08,333.93Zm0,0a.22.22,0,0,1,.1-.09A.22.22,0,0,1,104.05,333.93Zm0,.06h0Zm0-.05s0,0,0,0Zm-.08,0,0,0S104,334,103.93,334Zm-.18-2.84,0,0,0,0Zm0,0s0,0,0,0,0,0,0,0Zm0,0h0Zm0,3.91s0-.07,0-.09S103.72,335.08,103.7,335Zm-.14-12.05.07,0s0,0-.07,0Zm0-.08s0-.05.08,0-.06.05-.08,0Zm0,0a0,0,0,0,1,0,0,.05.05,0,0,1,0,0Zm-.06,0s0-.06.08-.05a.06.06,0,0,1,0,.06Zm0,0a.34.34,0,0,1,.2,0c0,.06-.17,0-.2,0Zm-.06-.05h0Zm0,0,.15,0c0,.07-.1.06-.15,0Zm-1.09,2.72c.12.31,0,.78.39,1s.12.6.15.93c.2.34.57.35.86.56a1.16,1.16,0,0,0,.32.62,4.15,4.15,0,0,1-.15.7c0,.32-1,.6-.35.93-.07.69.62,1.11.43,1.77a2.38,2.38,0,0,0,.31,1.61,1.72,1.72,0,0,0-.53,1.53,18.45,18.45,0,0,0,.86,2.12c0,2.74-1.89,1.81-.25,5.69-.12.93.91,1.27.9,2.13,1.48.64,0,2-.26,3.05-.33,1.36,1.54,1.9,1.23,3.13a1.39,1.39,0,0,0-.18,1.51c1.38,1.93-2.08,2.71.2,4.63.19.42.59.79.38,1.29-.36,1.52.51,2.95,1.35,4.09.07.29-.13.57-.27.82a5.12,5.12,0,0,0,0,1.61c0,.65,0,1.3,0,1.95,0,.4-.41.85-.25,1.26,2,4.32-.06,2.81.56,5.13-.38-1.24.57-1.47.35-2.7,0-1-.84-1.67-.89-2.61,0-.46.31-.94.34-1.43a18,18,0,0,1,0-2.08c-.25-1.51,1-1.42-.23-2.86a8.9,8.9,0,0,0-.61-.9c-.09-.53-.12-1-.21-1.53s.22-1.17-.12-1.67-1-.94-1-1.64.6-1.36.86-1.86c.24-.06,0-.38.07-.55.16-.58-.61-1-.5-1.57s.41-.85.4-1.34c0-.75-.86-1.05-1.11-1.67-.68-1.29.9-2.38.75-3.6-.19-.22-.49-.32-.69-.51a.92.92,0,0,0-.08-.65c-.89-.69-.77-1.85-1.31-2.79-.48-1.3.19-2.36.8-3.46.14-.21,0-.43,0-.66a1,1,0,0,0-.32-1c.14-.51-.63-.92-.47-1.48a1.87,1.87,0,0,1,.08-.91c.14-.15.36-.23.41-.49s-.23-.38-.29-.59a8.47,8.47,0,0,1,0-1,1,1,0,0,0-.28-1c-.07-.2,0-.41-.17-.58a.44.44,0,0,0-.16-.43c-.07-.39.58-.38.51-.77a1.7,1.7,0,0,0,.13-.67,1.27,1.27,0,0,1-.29-.62c-.21-.24-.59-.19-.78-.47s.07-.48-.06-.73-.53-.45-.47-.81c0-.18-.21-.36,0-.49,1-.79-.59-.68.2-2.08.29-1.21,1-.1,1-.59-.19-.08-1-.15-1,.36C101.62,324.89,103.4,324.55,102.26,325.53Z"/><path class="cls-2" d="M283.47,135.68c0-.12.11,0,.07,0S283.48,135.7,283.47,135.68Zm-.27-.64c.15,0,.08-.22.14-.27s.12.25.3.25c.25-.15,0,.09.15.12s-.16.08-.06.12c-.17-.07-.15,0-.22-.14s-.22.06-.31-.08Zm-1.31,0c.2.44.92,1,1.11,1.51.11.36.74,0,.5-.37-.06,0,0-.36.1-.2-.1.22,0,0,.17.09,0-.25.17-.21.38-.26.47-.44.05-1-.06-1.45,0,.46-.3.33-.55.09-.15.06-.09.21-.32.14-.11-.28.06-.31-.34-.56-.15,0,0-.19-.29-.19-.24.27-.57.51-.62.84.11.12-.11.15-.06.23.11-.1.07.17,0,.13Z"/><path class="cls-2" d="M190.7,84.68s.06,0,0,0S190.7,84.69,190.7,84.68Zm-.56-.82c.07,0,.09.08.05.12s0-.08-.05-.12Zm-1.4-1.48a0,0,0,0,1,0,0s0,.08.05.1-.07,0-.06-.05Zm-1.41-3s.06,0,0,0,0,0,0,0Zm-1.19-.91c0-.25.41.57.11.34C186.14,78.76,186.15,78.62,186.14,78.5Zm-.11-.65a.46.46,0,0,1,.09.46c0-.15-.06-.31-.09-.46ZM186,74.12s0-.05,0,0,0,0,0,0Zm-.19.27a.08.08,0,0,1,.06-.08s-.07.17-.06.08Zm-.5.6a.08.08,0,0,0,0,0s0,.06,0,0Zm-.46.61a.09.09,0,0,1,0-.06c.1-.1,0,.15,0,.06Zm-1-1.79a.23.23,0,0,1,.06-.16c.12,0,0,.25,0,.32s0-.12-.05-.16Zm-2.62-4.92a.09.09,0,0,1,.07,0s-.07,0-.07,0Zm-.4-.32s0,0,0,0,0,0,0,0Zm-.05-.36s.05.13,0,.12a.53.53,0,0,1,0-.12Zm-1.27-.8s.13,0,.16,0a.18.18,0,0,1-.16,0Zm-4.15-3.63s0,0,0,0,0,.05,0,0Zm0,0s0,0,0,0,0,0,0,0Zm-1.45-1.12s.09,0,.1,0-.07,0-.1,0Zm-4.57-.89c0-.13.05,0,0,.07v-.07Zm-.73.16c.06-.06.15,0,.21.06s-.19,0-.21-.06Zm-10.94-3.06c.12.06.37.18.44.34a.4.4,0,0,1-.44-.34Zm-2.06-.14c.05-.07.15,0,.2,0a.18.18,0,0,1-.2,0ZM154.22,58c1.17.14.26.5.93.68a4.66,4.66,0,0,1,1.33.35c.26.09.23.59.54.54.47.08.08-.77.46-.77.13.42.54.36.79.64.5.12.44.61.88.7-.12.39.22.27.48.29.45,0-.09.5.61.48a.52.52,0,0,0,.44,0c.21.08.18.61.53.61s.49-.18.62.11.36.08.52.19-.12.23-.06.37a1.76,1.76,0,0,0,.41.45,1.82,1.82,0,0,1,1.06.38c.33.06.5-.17.67-.4.34-.1.59-.35.36-.69.19-.21.47-.34.65-.53a.31.31,0,0,1,.29-.33.21.21,0,0,1,.11,0c.51.58.49-.57.94.45.11.06.21.07.28,0,.27-.46.46.56.73,0s.92-.19.72.41c.06.31.57.15.75,0s0-.41.09-.6a2.25,2.25,0,0,1,.72-.28,1.4,1.4,0,0,0,.58.38c.19.06.23-.13.33-.22s.26.11.41.07.36,0,.49-.15c.22.05.43.11.64.18s.41-.1.6-.08c.47.19.75.35.82.9-.33.44-.34.61.27.68a1.27,1.27,0,0,1,.78.72c.4.14.12.6.47.71.35-.14.43,0,.54.32s.35.23.46.42c.18.75.84.18,1.26,0,.37.18.73.33.71.81.14.16.21.39.36.53s.59.39.44.65-.35.26,0,.46,1-.14,1.07.38c0,.19.17.2.29.27s.09.47.22.65c.31.29.77.22,1.16.33.47-.22.74-.12.76.44a4.69,4.69,0,0,1,.29.79c.32.13.09.41.19.64A3,3,0,0,1,183.7,72c.06.37.36.69.34,1.07s-.25.51-.31.78c.09.2,0,.39,0,.59a2.44,2.44,0,0,1,0,.81c.17,0,.3.15.47.18s.33-.09.5,0,.07.26.05.42a5.33,5.33,0,0,0,.87,1.24,3.05,3.05,0,0,1,.58,1.7,1.51,1.51,0,0,0,.86.48c.05.06.14,0,.21.08a1.7,1.7,0,0,1,.22.24c.07.08.1.2.2.26s.14,0,.18,0a.65.65,0,0,0,.08.47c.08.11.24.15.28.3.28.36-.29.8.08,1.09.18.15.56,0,.59.37,0,.12-.15.17-.13.3s.13.06.18.08.16.16.25.22,0,.28.13.38a.44.44,0,0,0,.32.15c.11,0,0,.19,0,.27a.61.61,0,0,0,.14.29.21.21,0,0,0,.29.08.83.83,0,0,1,.32.4c0,.06,0,.12.12.15a.16.16,0,0,1,.15,0c.14.06,0,.42.16.25,0-.15-.11-.34-.32-.33s-.13-.24-.2-.35.07-.12,0-.19-.1,0-.15,0-.18.07-.26,0-.28-.28-.18-.4-.22-.23-.33-.37-.06-.2-.12-.3a.88.88,0,0,0-.38-.36c-.12,0,0-.14,0-.21.16-.27-.18-.37-.39-.43a.39.39,0,0,1-.29-.46.32.32,0,0,1,.1-.18.78.78,0,0,0-.09-.56c-.06-.18-.29-.15-.35-.37-.05-.37.17-.34-.25-.46-.13-.2-.21-.39-.46-.49s-.32-.06-.46-.14-.29-.36-.4-.59,0-.58-.24-.78a6.2,6.2,0,0,0-.91-1.3c-.23-.3-.56-.64-.17-1a.4.4,0,0,0,.29-.44.79.79,0,0,0,.21-.27c.05-.06.14-.06.15-.17.26-.19.38-.51.64-.74s.41,0,.57,0c-.21,0,.08-.07.13-.13s-.05-.36.14-.28.3-.14.4-.26.26-.1.29-.25.37,0,.37-.23c.15-.14.05-.35.19-.47s.19-.1.22-.17,0-.13,0-.24,0-.11.1-.16a2.34,2.34,0,0,1,.29-.35c.09,0,.07-.11,0-.14s.11-.16.15-.21c.2-.19,0-.5.06-.74,0-.07-.19-.17,0-.26.34-.17.26-.18.18-.5s.49-.21.24-.45c-.06-.11.28-.16.36-.26s.28.12.22-.07,0-.08,0-.15.21-.24.25-.42.43-.06.45-.3.3-.29.24-.53c0-.08.11-.1.17-.13s.09-.13.18-.16,0-.45.3-.43c.13,0,.19,0,.12-.15.18-.16.12-.34.39-.39.22-.22.56-.38.73-.67.12-.13.3-.26.23-.47a.26.26,0,0,1,.29,0c.12,0,.15-.15.25-.2s.15-.16.2-.25,0-.19,0-.26.23-.25,0-.29c.25-.15.08-.28.17-.53a3.39,3.39,0,0,0,.35-.78c.13-.37.82-.79.52-1.17-.1-.11.13-.15.2-.2a1.45,1.45,0,0,0,.1-.41c.14-.2-.27-.23-.25-.37s-.3-.31-.29-.55-.18-.13-.12-.29a5.13,5.13,0,0,0-.16-.94,1.07,1.07,0,0,0-.18-.65c0-.11.06-.12.12-.16s-.15-.29-.07-.44-.16,0-.21-.14-.28-.15-.28-.37.15-.1,0-.2c.05.07,0,.11-.07.16a1.11,1.11,0,0,0,.08.3c.17,0,.21.25.36.18.08.09,0,.35.12.49-.28.09,0,.3,0,.5.05-.22,0,.29.07.37a4.07,4.07,0,0,1,.13,1c0,.1,0,.14.13.17a1.41,1.41,0,0,0,.17.46c.14.05.12.08.14.2a.79.79,0,0,1,.26.19c-.09.13-.06.33-.11.49s-.36.14-.19.27c.21.45-.57.83-.61,1.3-.06.29-.3.46-.33.75s0,.26-.12.37c.09.11,0,.16-.05.27s.12.11.1.23a2.09,2.09,0,0,1-.41.43c-.08.11-.35-.12-.41.07.1.21-.16.31-.25.46a2.33,2.33,0,0,1-.91.74c0,.16-.18.27-.16.44a1.27,1.27,0,0,0-.28,0c-.11.1-.09.28-.15.4s-.18.17-.32.25,0,.2-.06.29-.19.15-.22.27-.23.11-.34.22-.15.17-.18.29-.14.22-.26.31c.08.31,0,0-.23.17s-.34.07-.33.22.16.16.07.22c-.35.16-.28.28-.23.59-.14.08-.44.24-.21.4a2.44,2.44,0,0,0,0,.54c.09.22-.34.32-.16.51-.09.13-.45.42-.47.54s0,.15,0,.21a.08.08,0,0,1,0,.11l0,0c-.17.1-.26.14-.25.38a1.83,1.83,0,0,1-.18.34c-.08,0-.22,0-.27,0s-.19.2-.31.26-.18.27-.33.26-.17.13-.18.25-.13.09-.2.12-.39-.06-.53.09a.93.93,0,0,1-.27.25c0,.09,0,.2-.14.2s-.06.19-.19.23-.18.2-.26.35-.1.35-.3.51c.06-.06.16-.18.07,0s-.24.08-.31.17c-.07-.28-.36-.25-.57-.2a2.88,2.88,0,0,1-.5-.15c-.07-.12.09-.27,0-.42a1.86,1.86,0,0,1,.15-.87c0-.11.1-.18,0-.29s.11-.25.15-.38a1.83,1.83,0,0,0-.28-1.14,3,3,0,0,0-.53-1.25c-.08-.15.09-.27,0-.41s-.28-.18-.25-.37-.14-.33-.22-.49,0-.59-.28-.69-.46.21-.72.08c-.44-.1-1.1,0-1-.69,0-.25-.31-.26-.43-.43s-.06-.41-.31-.41-.86.07-1-.28c.11-.08.26-.11.29-.27,0-.38-.34-.52-.58-.71a4.71,4.71,0,0,1-.39-.89c-.07-.13-.21-.12-.32-.18s-.22-.22-.39-.18c-.4.28-1,.64-1.14-.06-.11-.15-.31-.19-.43-.31-.08-.32-.2-.62-.56-.41-.26,0-.17-.22-.18-.38s-.42-.37-.48-.67c-.21-.42-1.52-.28-.9-.89a.81.81,0,0,0-.16-.73c-.16-.2-.42-.18-.6-.33s-.44.16-.68.06-.39-.06-.57-.17a1.47,1.47,0,0,1-.61.17c-.54-.25-.29.13-.66.15a2,2,0,0,1-.59-.4,3.15,3.15,0,0,0-.65.23c-.3.16,0,.68-.4.78s-.31-.45-.54-.7a.58.58,0,0,0-.79.22l0,0c-.24.15-.21-.35-.46-.28s-.17.28-.31.2-.15-.28-.24-.37-.34,0-.54.09-.18-.18-.29-.22-.42.14-.41.37c-.2.19-.51.33-.66.57s.09.11.11.21-.2.32-.36.39-.31.48-.63.45-.59-.27-.87-.39a.53.53,0,0,1-.53-.29c-.41-.24.44-.56-.55-.66-.23-.47-.62,0-.91-.29-.43-.81-.06-.34-.8-.45s.1-.58-.95-.5c-.15,0,0-.14,0-.22s-.37-.1-.4-.32-.34-.32-.53-.44-.28-.41-.52-.47c-.79-.73-.27.89-.87.53-.34-.73-1.23-.74-1.87-.85-.32-.31.15-.65-.81-.6Z"/><path class="cls-2" d="M112,303.34s0,0,0,0S112,303.35,112,303.34Zm-4.45,6.22c0-.05,0-.15.1-.14A.24.24,0,0,1,107.59,309.56Zm-.28,5.82a.09.09,0,0,1,.07.06A.09.09,0,0,1,107.31,315.38Zm-.13-.31s0-.08,0,0S107.19,315.12,107.18,315.07Zm-3.57,7.63c.1.49,0-.06.35,0s.84-.16,1.21-.16c.17-.23-.21-.66.31-.55.33,0,.3.36.54.46a1,1,0,0,0,.91-1l0-.19c-.46-1.14.95-1.06,1.62-1.49.76-.84.32-1.56-.17-2.37-.44-.3-.5-.75-.79-1.14,0-.09.11-.05.11-.13s-.14-.14-.08-.23c0-.31-.35-.47-.36-.76.18-.5-.13-1.05-.22-1.54s-.44-.5-.28-.87a4.16,4.16,0,0,0-.2-.79.79.79,0,0,0,.08-.54c.42-.53.59-1.29,1-1.8.54-.85.57-2.08,1.53-2.52.52-.37-.15-1,.22-1.35a2.8,2.8,0,0,0,1.23-.8c.11-.25.12-.49.45-.51.22-.21.5-.44.52-.76.14-.08.32-.07.43-.2s.08-.38.28-.44.47-.29.58-.58a12.36,12.36,0,0,0,.43-1.3,5.41,5.41,0,0,1-.36-2.21c-.23.33.1,1,.06,1.52,0,.35.37.71.13,1.05a4.14,4.14,0,0,1-.5,1.23,1,1,0,0,0-.57.55c-.09.28-.4.23-.56.42a1,1,0,0,1-.58.73c-.24,0-.25.31-.31.47a4.27,4.27,0,0,0-.63.56c-.29.19-.7,0-.79.47s.29.74,0,1.09c-1,.35-1,1.65-1.58,2.46-.3.7-.94,1.38-1,2.1-.24.42.11.89,0,1.33a4.32,4.32,0,0,1,.52,2.28c0,.3.38.4.34.71.08.14.22.21,0,.32a6.17,6.17,0,0,1,.37.83c.13.18.39.25.46.48.8,1,.69,2.3-.76,2.55-1.4.41-.63.79-.76,1.76,0,.24-.28.08-.39.23s-.2.51-.46.34-.19-.56-.49-.43c-.37-.06-.44.15-.33.45a1.86,1.86,0,0,1-1,.29C104,322.48,103.82,322.73,103.61,322.7Z"/><path class="cls-2" d="M105.35,355.89c0,.85.76,1.34,1.14,2,.25.35.06.7,0,1.05a5.51,5.51,0,0,0,1.41,3.83c.09.41-.33.73-.35,1.15,0,1.42.23,2.87-.31,4.2.16,1.19,1.12,2.14.91,3.4,0,.38-.32.66-.44,1s.13,1.29.19.9c-.54-.8.44-1.47.35-2.32.09-1.2-1.21-2.13-.86-3.31a2.58,2.58,0,0,0,.17-1.62,5.53,5.53,0,0,0,0-1.86c-.08-.61.54-1.1.33-1.73a4.25,4.25,0,0,1-1.26-2.82c-.2-.82.25-1.73-.46-2.44-1.36-1.14-.64-1.9.07-3.06.12-.17-.28,0-.16.19A6,6,0,0,0,105.35,355.89Z"/><path class="cls-2" d="M126.92,222.4a3.82,3.82,0,0,0,.17-.36C127.22,222.1,127,222.4,126.92,222.4Zm-.53.44c0-.12.37-.35.38-.23s-.22.35-.38.23ZM125,227.62c.2.64.76,3.69,1,2.92-1.43-2.23-.25-3.94-.6-6.19a2,2,0,0,1,.77-1,1.2,1.2,0,0,1,.38-.51,3.14,3.14,0,0,1,.46-.5,1.25,1.25,0,0,0,0-1,2.8,2.8,0,0,1,0-.71c-.47.23.1,1.24-.13,1.66-.28.23-.72.39-.69.83a2.82,2.82,0,0,0-.87,1.1A7.69,7.69,0,0,1,125,227.62Z"/><path class="cls-2" d="M126.92,220.62c.3,0,.16-.81.29-1.06.35-1,1.38-1.91,1.43-3a4.1,4.1,0,0,0-.14-1.52c-.33,0-.12.23,0,.37C128.49,219.26,126.9,217.69,126.92,220.62Z"/><path class="cls-2" d="M126.39,204.84c.79.11.9-1.61,1.44-2.14a4.54,4.54,0,0,0,1.36-1.68c0-.21.26-1.36,0-.84.05.69-.46,1.19-.82,1.8-.5.18-.72.71-1.05,1.06a2.33,2.33,0,0,0-.28,1.06A2.2,2.2,0,0,0,126.39,204.84Z"/><g id="river_labels" data-name="river labels"><text class="cls-3" transform="translate(123.57 16.33) rotate(84.31)">R</text><text class="cls-3" transform="translate(124.23 21.06) rotate(73.94)">i</text><text class="cls-3" transform="matrix(0.25, 0.97, -0.97, 0.25, 124.7, 22.34)">o</text><text class="cls-3" transform="translate(125.73 26.88) rotate(95.95)">C</text><text class="cls-3" transform="translate(125.34 32.03) rotate(77.9)">h</text><text class="cls-3" transform="matrix(0.47, 0.88, -0.88, 0.47, 126.23, 35.97)">a</text><text class="cls-3" transform="matrix(0.91, 0.41, -0.41, 0.91, 128.89, 40.39)">m</text><text class="cls-3" transform="translate(133.36 42.44) rotate(28.65)">a</text><text class="cls-3" transform="matrix(0.17, -0.98, 0.98, 0.17, 109.29, 295.09)">R</text><text class="cls-3" transform="matrix(0.36, -0.93, 0.93, 0.36, 110.15, 291.01)">i</text><text class="cls-3" transform="translate(110.6 289.81) rotate(-66.3)">o</text><text class="cls-3" transform="translate(112.68 285.33) rotate(-63.33)">G</text><text class="cls-3" transform="translate(114.93 280.6) rotate(-75.78)">r</text><text class="cls-3" transform="translate(115.53 278.06) rotate(-89.21)">a</text><text class="cls-3" transform="translate(115.56 274.58) rotate(-92.79)">n</text><text class="cls-3" transform="matrix(-0.02, -1, 1, -0.02, 115.35, 271.29)">d</text><text class="cls-3" transform="matrix(0.07, -1, 1, 0.07, 115.3, 268.03)">e</text></g></g><g id="Layer_5" data-name="Layer 5"><path class="cls-4" d="M245.78,26.91c-8.16,7.85-13.36,18.51-15.63,29.61-.77,3.79-1.08,10.78,2.18,13.6,4.09,3.54,10.12-2.8,12.66-5.55A53.89,53.89,0,0,0,255.7,47.08c2-5.36,7.5-19.79.6-23.73a6.31,6.31,0,0,0-5.34-.16,14.66,14.66,0,0,0-4.52,3.11Z"/><circle class="cls-5" cx="159.21" cy="299.07" r="13.27"/><path class="cls-5" d="M99.68,302.27c-3.3.33-22.18,2.49-34.59,19.25-8.81,11.9-9.11,26.24-4,39.71,4.83,12.65,13,26.13,22.76,35.62,4.28,4.17,10.87,7.89,16,3.1,4.94-4.61,7.25-12.21,9.51-18.4a141.27,141.27,0,0,0,6-21.75A140.6,140.6,0,0,0,117,316.62C115.75,306.18,110.4,301.2,99.68,302.27Z"/><path class="cls-6" d="M214.31,283.46c-16.93,2.19-29.84,17.89-31.35,34.45-.57,6.26,1.17,12.77,7.43,15.37,10.54,4.37,24.47-1.29,32.43-8.63s16.35-22.77,10.31-33.21C229.23,284.69,221.66,282.51,214.31,283.46Z"/><path class="cls-7" d="M222.4,171.34a15.62,15.62,0,0,1-10.63,12.27c-7.82,2.55-17.57-1.16-21.87-8,4.73-3.44,7.86-8,6.1-13.69a24.78,24.78,0,0,0-2.62-5.65,16.54,16.54,0,0,1,5.83-3.19,17.91,17.91,0,0,1,9.66-.11,19.17,19.17,0,0,1,7.3,3.72C220.45,160.2,223.16,165.84,222.4,171.34Z"/><path class="cls-8" d="M187.85,165.86a14.1,14.1,0,0,0,2.05,9.73c-5.44,4-13,6.47-17.73,7.66-12.39,3.11-26.5,2.22-37.85-3.92-7.79-4.22-17.36-13.53-19.52-22.58a6,6,0,0,1,0-2.88,3.35,3.35,0,0,1,.43-1l.2-.24c1.39-1.5,3.94-1.12,6-.68,6.38,1.36,13.36,1.62,19.07-1.52,6.14-3.38,10.07-10.26,16.7-12.53,12.18-4.18,29,6.74,36.14,18.34A16,16,0,0,0,187.85,165.86Z"/><circle class="cls-8" cx="40.05" cy="230.47" r="20.32"/><path class="cls-9" d="M151.17,193.92c-.59-3.28-1.85-6.43-4.95-7.87-4.06-1.88-9.32-1-12.87,1.62-9.41,6.83-13.23,23.09-14.43,34.09-1.5,13.74.41,29.5,8.68,40.84,9.43,12.9,28.32,25.74,41.48,20.12,12.48-5.33,18.62-19.35,20-32.09,1.88-16.69-8.93-17.88-22.18-22-12.57-4-14.47-19.23-15.29-30.36A41.79,41.79,0,0,0,151.17,193.92Z"/><g class="cls-10"><path class="cls-11" d="M118.28,116.14a41.14,41.14,0,0,0-3.78,24c.36,2.78,1.79,7.65,4.69,8.82,3.63,1.47,6.28-4.3,7.38-6.78a39,39,0,0,0,3.24-14.51c.14-4.16.5-15.34-5.16-16.42a4.56,4.56,0,0,0-3.7,1.14,10.67,10.67,0,0,0-2.37,3.2C118.48,115.76,118.37,116,118.28,116.14Z"/><circle class="cls-11" cx="233.65" cy="151.21" r="6.22"/></g><circle class="cls-12" cx="195.93" cy="99.03" r="31.86"/><circle cx="233.64" cy="151.19" r="1.28"/><text class="cls-13" transform="translate(237.18 153.2)">Pecos</text><circle cx="208.67" cy="167.29" r="1.28"/><text class="cls-13" transform="translate(212.21 169.3)">Galisteo</text><circle cx="192.65" cy="162.25" r="1.28"/><text class="cls-13" transform="translate(196.19 161.4)">San Marcos</text><circle cx="215.35" cy="172.54" r="1.28"/><text class="cls-13" transform="translate(218.89 177.97)">San Cristobal</text><circle cx="198.55" cy="177.21" r="1.28"/><text class="cls-13" transform="translate(196.95 184.92)">San Lazaro</text><circle cx="208.07" cy="124.61" r="1.28"/><g class="cls-14"><text class="cls-15" transform="translate(211.61 126.62)">T</text><text class="cls-13" transform="translate(214.47 126.62)">esuque</text></g><circle cx="137.7" cy="190.58" r="1.28"/><text class="cls-13" transform="translate(141.24 192.58)">Sandia</text><circle cx="132.42" cy="198.84" r="1.28"/><text class="cls-13" transform="translate(135.95 200.85)">Alameda</text><circle cx="131.84" cy="207.87" r="1.28"/><text class="cls-13" transform="translate(135.38 209.88)">Puaray</text><circle cx="123.9" cy="236.66" r="1.28"/><text class="cls-13" transform="translate(127.44 238.67)">Isleta</text><circle cx="168.83" cy="257.26" r="1.28"/><g class="cls-14"><text class="cls-15" transform="translate(172.37 259.27)">T</text><text class="cls-13" transform="translate(175.22 259.27)">ajique</text></g><circle cx="213.23" cy="292.91" r="1.28"/><g class="cls-14"><text class="cls-15" transform="translate(216.77 294.92)">T</text><text class="cls-13" transform="translate(219.62 294.92)">abirá</text></g><circle cx="190.25" cy="321.73" r="1.28"/><text class="cls-13" transform="translate(193.79 323.74)">Las Humanas</text><circle cx="167.92" cy="277.72" r="1.28"/><text class="cls-13" transform="translate(171.46 279.73)">Quarai</text><circle cx="154.55" cy="298.13" r="1.28"/><text class="cls-13" transform="translate(158.09 300.14)">Abó</text><circle cx="92.24" cy="394.61" r="1.28"/><text class="cls-13" transform="translate(95.78 396.62)">Senecú</text><circle cx="102.92" cy="357.99" r="1.28"/><g class="cls-14"><text class="cls-15" transform="translate(106.46 360)">T</text><text class="cls-13" transform="translate(109.31 360)">eypana</text></g><circle cx="63.16" cy="337.85" r="1.28"/><text class="cls-13" transform="translate(66.7 339.86)">Magdalena</text><circle cx="67.01" cy="329.27" r="1.28"/><text class="cls-13" transform="translate(70.55 331.27)">Bear Mtn.</text><circle cx="103.64" cy="331.38" r="1.28"/><text class="cls-13" transform="translate(107.18 333.38)">Alamillo</text><circle cx="101.78" cy="347.72" r="1.28"/><text class="cls-13" transform="translate(105.32 349.73)">Pilabó</text><circle cx="108.84" cy="308.71" r="1.28"/><text class="cls-13" transform="translate(112.38 310.72)">Sevilleta</text><circle cx="180.49" cy="237.66" r="1.28"/><text class="cls-13" transform="translate(184.03 239.67)">Chilili</text><g class="cls-16"><circle cx="161.69" cy="142.8" r="1.28"/><text class="cls-13" transform="translate(165.23 144.81)">Cochiti</text><circle cx="159.9" cy="155.61" r="1.28"/><text class="cls-13" transform="translate(163.44 157.62)">Kewa</text><circle cx="150.89" cy="166.29" r="1.28"/><text class="cls-13" transform="translate(154.43 168.3)">San Felipe</text><circle cx="142.45" cy="178.88" r="1.28"/><g class="cls-14"><text class="cls-13" transform="translate(145.99 180.89)">Santa</text><text class="cls-17" transform="translate(160.9 180.89)"> </text><text class="cls-13" transform="translate(162.17 180.89)">Ana</text></g><circle cx="48.46" cy="219.67" r="1.28"/><text class="cls-13" transform="translate(52 221.68)">Laguna</text><circle cx="120.97" cy="156.64" r="1.28"/><text class="cls-13" transform="translate(124.51 158.64)">Zia</text><circle cx="26.66" cy="238.28" r="1.28"/><text class="cls-13" transform="translate(30.2 240.29)">Acoma</text></g><circle cx="120.46" cy="142.32" r="1.28"/><text class="cls-13" transform="translate(124 144.32)">Jemez</text><circle cx="123.51" cy="119.9" r="1.28"/><text class="cls-13" transform="translate(127.05 121.9)">Gíusewa</text><circle cx="204.01" cy="105.87" r="1.28"/><text class="cls-13" transform="translate(207.54 107.88)">Nambé</text><circle cx="186.37" cy="103.85" r="1.28"/><text class="cls-13" transform="translate(147.59 105.67)">San Ildefonso</text><circle cx="199.07" cy="105.43" r="1.28"/><text class="cls-13" transform="translate(199.18 101.73)">Pojoaque</text><circle cx="192.01" cy="81.92" r="1.28"/><text class="cls-13" transform="translate(195.54 83.93)">Ohkay Owingeh</text><circle cx="182.38" cy="75.58" r="1.28"/><text class="cls-13" transform="translate(185.92 77.59)"><tspan class="cls-18">T</tspan><tspan x="2.85" y="0">e&apos;ewi</tspan></text><circle cx="249.74" cy="30.42" r="1.28"/><g class="cls-14"><text class="cls-15" transform="translate(253.27 32.43)">T</text><text class="cls-13" transform="translate(256.13 32.43)">aos</text></g><circle cx="233.27" cy="62.8" r="1.28"/><text class="cls-13" transform="translate(236.81 64.81)">Picuris</text><circle cx="188.99" cy="93.53" r="1.28"/><text class="cls-13" transform="translate(154.97 95.36)">Santa Clara</text><text class="cls-19" transform="translate(189.72 169.94)">?</text><path class="cls-20" d="M196.5,165.07c0,.22,0,.44,0,.65l0,.28v0c0,.2,0,.41-.08.61s-.08.43-.13.64a10.48,10.48,0,0,1-1.3,3.13c-.1.16-.2.32-.31.48s-.3.44-.46.65l0,.06-.46.57a18.38,18.38,0,0,1-1.74,1.79l-.21.19c-.57.5-1.18,1-1.82,1.45a14.1,14.1,0,0,1-2.05-9.73,16,16,0,0,1,5.53-9.61c.17.28.33.56.49.84l.32.58c.21.39.41.78.59,1.17.11.2.2.41.29.61.23.51.43,1,.61,1.51.12.31.22.63.32.94A10.4,10.4,0,0,1,196.5,165.07Z"/></g><g id="legend"><g class="cls-14"><text class="cls-21" transform="translate(25.6 39.39)">P</text><text class="cls-22" transform="translate(30.31 39.39)">i</text><text class="cls-23" transform="translate(32.4 39.39)">r</text><text class="cls-24" transform="translate(35.23 39.39)">o</text><text class="cls-25" transform="translate(39.69 39.39)">/</text><text class="cls-26" transform="translate(41.98 39.39)">T</text><text class="cls-24" transform="translate(45.87 39.39)">o</text><text class="cls-27" transform="translate(50.32 39.39)">m</text><text class="cls-28" transform="translate(56.7 39.39)">p</text><text class="cls-22" transform="translate(61.14 39.39)">i</text><text class="cls-23" transform="translate(63.23 39.39)">r</text><text class="cls-29" transform="translate(66.06 39.39)">o</text><text class="cls-30" transform="translate(70.36 39.39)">*</text></g><rect class="cls-5" x="15.26" y="34.06" width="5.72" height="5.72"/><g class="cls-14"><text class="cls-31" transform="translate(25.6 21.37)">N</text><text class="cls-32" transform="translate(30.8 21.37)">o</text><text class="cls-33" transform="translate(35.24 21.37)">r</text><text class="cls-34" transform="translate(38.35 21.37)">t</text><text class="cls-35" transform="translate(40.88 21.37)">h</text><text class="cls-36" transform="translate(45.32 21.37)">e</text><text class="cls-37" transform="translate(49.37 21.37)">r</text><text class="cls-38" transform="translate(52.3 21.37)">n </text><text class="cls-39" transform="translate(58.52 21.37)">T</text><text class="cls-36" transform="translate(62.91 21.37)">i</text><text class="cls-39" transform="translate(65.02 21.37)">w</text><text class="cls-38" transform="translate(70.58 21.37)">a</text></g><rect class="cls-4" x="15.26" y="16.04" width="5.72" height="5.72"/><g class="cls-14"><text class="cls-40" transform="translate(25.6 30.38)">S</text><text class="cls-41" transform="translate(30.4 30.38)">o</text><text class="cls-42" transform="translate(34.81 30.38)">u</text><text class="cls-43" transform="translate(39.27 30.38)">t</text><text class="cls-44" transform="translate(41.79 30.38)">h</text><text class="cls-45" transform="translate(46.24 30.38)">e</text><text class="cls-46" transform="translate(50.29 30.38)">r</text><text class="cls-47" transform="translate(53.22 30.38)">n </text><text class="cls-48" transform="translate(59.44 30.38)">T</text><text class="cls-45" transform="translate(63.83 30.38)">i</text><text class="cls-48" transform="translate(65.93 30.38)">w</text><text class="cls-47" transform="translate(71.49 30.38)">a</text></g><rect class="cls-9" x="15.26" y="25.05" width="5.72" height="5.72"/><g class="cls-14"><text class="cls-49" transform="translate(25.6 48.41)">J</text><text class="cls-50" transform="translate(29.61 48.41)">uma</text><text class="cls-51" transform="translate(44.47 48.41)">n</text><text class="cls-52" transform="translate(48.89 48.41)">o</text><text class="cls-53" transform="translate(53.18 48.41)">*</text><text class="cls-54" transform="translate(56.22 48.41)">*</text></g><rect class="cls-6" x="15.26" y="43.08" width="5.72" height="5.72"/><g class="cls-14"><text class="cls-55" transform="translate(25.6 68.42)">T</text><text class="cls-56" transform="translate(29.49 68.42)">o</text><text class="cls-57" transform="translate(33.85 68.42)">w</text><text class="cls-58" transform="translate(39.41 68.42)">a</text></g><rect class="cls-11" x="15.26" y="63.08" width="5.72" height="5.72"/><g class="cls-14"><text class="cls-59" transform="translate(25.6 96.45)">T</text><text class="cls-60" transform="translate(29.51 96.45)">a</text><text class="cls-61" transform="translate(33.55 96.45)">n</text><text class="cls-62" transform="translate(37.97 96.45)">o</text></g><rect class="cls-7" x="15.26" y="91.12" width="5.72" height="5.72"/><g class="cls-10"><g class="cls-14"><text class="cls-63" transform="translate(25.6 87.44)">T</text><text class="cls-64" transform="translate(29.52 87.44)">e</text><text class="cls-65" transform="translate(33.51 87.44)">w</text><text class="cls-66" transform="translate(39.07 87.44)">a</text></g></g><rect class="cls-12" x="15.26" y="82.11" width="5.72" height="5.72"/></g></svg>