<svg id="Layer_1" data-name="Layer 1" xmlns="http://www.w3.org/2000/svg" width="12.69in" height="7.95in" viewBox="0 0 913.7 572.4">
  <defs>
    <style>
      .cls-1, .cls-2 {
        fill: #d3d3d3;
      }

      .cls-2 {
        stroke: #fff;
        stroke-width: 1.5px;
      }

      .cls-3, .cls-7 {
        fill: #a05c7b;
      }

      .cls-3, .cls-4, .cls-5, .cls-8 {
        opacity: 0.6;
      }

      .cls-4 {
        fill: #af8ba8;
      }

      .cls-5 {
        fill: #7f3b48;
      }

      .cls-6, .cls-7, .cls-8 {
        font-size: 7px;
        font-family: NotoSans-Regular, Noto Sans;
      }

      .cls-6 {
        fill: #8f7288;
      }

      .cls-8 {
        fill: #69313b;
      }
    </style>
  </defs>
  <title>shoshone map</title>
  <g id="Layer_3" data-name="Layer 3">
    <g id="Layer_1-2" data-name="Layer 1">
      <g id="Layer_1-2-2" data-name="Layer 1-2">
        <g>
          <path id="AL" class="cls-1" d="M614.5,460l.6.2,1.3-2.7,1.5-4.4,2.3.6,3.1,6v1l-2.7,1.9,2.7.3,5.2-2.5-.3-7.6-2.5-1.8-2-2,.4-4,10.5-1.5,25.7-2.9,6.7-.6,5.6.1-.5-2.2-1.5-.8-.9-1.1,1-2.6-.4-5.2-1.6-4.5.8-5.1,1.7-4.8-.2-1.7-1.8-.7-.5-3.6-2.7-3.4-2-6.5-1.4-6.7-1.8-5-3.8-16-3.5-7.9-.8-5.6.1-2.2-9,.8-23.4,2.2-12.2.8-.2,6.4.2,16.7-.7,31-.3,14.1,2.8,18.8,1.6,14.7Z"/>
          <path id="AR" class="cls-1" d="M573.3,339.7l-6.4-.7.9-3.1,3.1-2.6.6-2.3-1.8-2.9-31.9,1.2-23.3.7-23.6.3,1.5,6.9.1,8.5,1.4,10.9.3,38.2,2.1,1.6,3-1.2,2.9,1.2.4,10.1,25.2-.2,26.8-.8.9-1.9-.3-3.8-1.7-3.1,1.5-1.4-1.4-2.2.7-2.4,1.1-5.9,2.7-2.3-.8-2.2,4-5.6,2.5-1.1-.1-1.7-.5-1.7,2.9-5.8,2.5-1.1.2-3.3,2.1-1.4.9-4.1-1.4-4,4.2-2.4.3-2.1,1.2-4.2.9-3.1Z"/>
          <path id="AZ" class="cls-1" d="M121.1,383.3l-.3,1.5.5,1,18.9,10.7,12.1,7.6,14.7,8.6,16.8,10,12.3,2.4,25.4,2.7,6-39.6,7-53.1,4.4-31-24.6-3.6-60.7-11-.2,1.1-2.6,16.5-2.1,3.8-2.8-.2-1.2-2.6-2.6-.4-1.2-1.1-1.1.1-2.1,1.7-.3,6.8-.3,1.5-.5,12.5-1.5,2.4-.4,3.3,2.8,5,1.1,5.5.7,1.1,1.1.9-.4,2.4-1.7,1.2-3.4,1.6-1.6,1.8-1.6,3.6-.5,4.9-3,2.9-1.9.9-.1,5.8-.6,1.6.5.8,3.9.4-.9,3-1.7,2.4-3.7.4Z"/>
          <path id="CA" class="cls-1" d="M108.7,379.5,89,376.8l-10-1.5-.5-1.8v-9.4l-.3-3.2-2.6-4.2-.8-2.3-3.9-4.2L68,345.5l-2.7-.2-3.2-.8-.3-1,1.5-.6-.6-3.2-1.5-2.1-4.8-.8-3.9-2.1-1.1-2.3-2.6-4.8-2.9-3.1H43l-3.9-2.1-4.5-1.8-4.2-.5L28,317.4l.5-1.9,1.8-7.1.8-1.9v-2.4l-1.6-1-.5-2.9-1.5-2.6-3.4-5.8-1.3-3.1L21.3,284l-1.6-5.3-3.2-4.4-.5-2.9.8-3.9h1.1l2.1-1.6,1.1-3.6-1-2.7-2.7-.5-1.9-2.6-2.1-3.7-.2-8.2.6-1.9.6-2.3.5-2.4-5.7-6.3v-2.1l.3-.5.3-3.2-1.3-4-2.3-4.8-2.7-4.5-1.8-3.9,1-3.7.6-5.8,1.8-3.1.3-6.5L4.3,186l-1.6-4.2L0,177.6l.8-3.2,1.5-4.2,1.8-.8.3-1.1,3.1-2.6,5.2-11.8.2-7.4,1.7-4.9,38.7,11.8L78.9,160l-8,31.3-8.7,33.1,12.6,19.2L117,305.9,134.1,332l-.4,3.1,2.8,5.2,1.1,5.4,1,1.5.7.6-.2,1.4-1.4,1-3.4,1.6-1.9,2.1-1.7,3.9-.5,4.7-2.6,2.5-2.3,1.1-.1,6.2-.6,1.9,1,1.7,3,.3-.4,1.6-1.4,2-3.9.6ZM34.8,330.6l1.3,1.5-.2,1.3-3.2-.1-.6-1.2-.6-1.5Zm1.9,0,1.2-.6,3.6,2.1,3.1,1.2-.9.6-4.5-.2-1.6-1.6Zm20.7,19.8,1.8,2.3.8,1,1.5.6.6-1.5-1-1.8-2.7-2-1.1.2v1.2ZM56,359.1l1.8,3.2,1.2,1.9-1.5.2-1.3-1.2a10.66,10.66,0,0,1-.7-1.9v-2.2Z"/>
          <path id="CO" class="cls-1" d="M366.2,229.1l-36-3.5L251.1,217l-2.2,22.1-7,50.4L240,303.2l34,3.9,37.5,4.4,34.7,3,14.3.6Z"/>
          <path id="CT" class="cls-1" d="M838,184.5l3.6-3.2,1.9-2.1.8.6,2.7-1.5,5.2-1.1,7-3.5-.6-4.2-.8-4.4-1.6-6-4.3,1.1-21.8,4.7.6,3.1,1.5,7.3v8.3l-.9,2.1,1.7,2.2Z"/>
          <path id="DE" class="cls-1" d="M820.4,240.8l-1,.5-3.6-2.4-1.8-4.7-1.9-3.6-2.3-1-2.1-3.6.5-2,.5-2.3.1-1.1-.6.1-1.7,1-2,1.7-.2.3,1.4,4.1,2.3,5.6,3.7,16.1,5-.3,6-1.1Z"/>
          <path id="FL" class="cls-1" d="M736.2,438.8l-5.2-.7-.7.8,1.5,4.4-.4,5.2-4.1-1-.2-2.8H723l-5.3.7-32.4,1.9-8.2-.3-1.7-1.7-2.5-4.2H667l-6.6.5L625,445.8l-.3,2.8,1.6,1.6,2.9,2,.3,8.4,3.3-.6,6-2.1,6-.5,4.4-.6,7.6,1.8,8.1,3.9,1.6,1.5,2.9,1.1L671,467l.3,2.7,3.2-1.3h3.9l3.6-1.9,3.7-3.6,3.1.2.5-1.1-.8-1,.2-1.9,4-.8h2.6l2.9,1.5,4.2,1.5,2.4,3.7,2.7,1,1.1,3.4L712,471l1.6,2.6,1.9.6,5.2,1.3,1.3,3.1,3,3.7v9.5l-1.5,4.7.3,2.7,1.3,4.8,1.8,4,.8-.5,1.5-4.5-2.6-1-.3-.6,1.6-.6,4.5,1,.2,1.6-3.2,5.5-2.1,2.4,3.6,3.7,2.6,3.1,2.9,5.3,2.9,3.9,2.1,5,1.8.3,1.6-2.1,1.8,1.1,2.6,4,.6,3.6,3.1,4.4.8-1.3,3.9.3,3.6,2.3,3.4,5.2.8,3.4.3,2.9,1.1,1,1.3.5,2.4-1,1.5-1.6,3.9-.2,3.1-1.5,2.7-3.2-.5-1.9-.3-2.4.6-1.9-.3-1.9,2.4-1.3.3-3.4-.6-1.8-.5-12-1.3-7.6L777,508l-3.6-5.8-2.6-5.3-2.9-2.9-2.9-7.4.7-1.4,1.1-1.3-1.6-2.9-4-3.7-4.8-5.5-3.7-6.3-5.3-9.4-3.7-9.7-2.3-7.3Zm17.7,132.7,2.4-.6,1.3-.2,1.5-2.3,2.3-1.6,1.3.5,1.7.3.4,1.1-3.5,1.2-4.2,1.5-2.3,1.2Zm13.5-5,1.2,1.1,2.7-2.1,5.3-4.2,3.7-3.9,2.5-6.6,1-1.7.2-3.4-.7.5-1,2.8-1.5,4.6-3.2,5.3-4.4,4.2-3.4,1.9Z"/>
          <path id="GA" class="cls-1" d="M736.2,437.8l-5.6-.7-1.4,1.6,1.6,4.7-.3,3.9-2.2-.6-.2-3h-5.2l-5.3.7-32.3,1.9-7.7-.3-1.4-1.2-2.5-4.3-.8-3.3-1.6-.9-.5-.5.9-2.2-.4-5.5-1.6-4.5.8-4.9,1.7-4.8-.2-2.5-1.9-.7-.4-3.2-2.8-3.5-1.9-6.2-1.5-7-1.7-4.8L658,370l-3.5-8-.8-5.3.1-2.3,3.3-.3,13.6-1.6,18.6-2,6.3-1.1.5,1.4-2.2.9-.9,2.2.4,2,1.4,1.6,4.3,2.7,3.2-.1,3.2,4.7.6,1.6,2.3,2.8.5,1.7,4.7,1.8,3,2.2,2.3,3,2.3,1.3,2,1.8,1.4,2.7,2.1,1.9,4.1,1.8,2.7,6,1.7,5.1,2.8.7,2.1,1.9,2,5.7,2.9,1.6,1.7-.8.4,1.2-3.3,6.2.5,2.6-1.5,4.2-2.3,10,.8,6.3Z"/>
          <path id="IA" class="cls-1" d="M542.8,177.2l2.1,2.1.3.7-2,3,.3,4,2.6,4.1,3.1,1.6,2.4.3.9,1.8.2,2.4,2.5,1,.9,1.1.5,1.6,3.8,3.3.6,1.9-.7,3-1.7,3.7-.6,2.4-2.1,1.6-1.6.5-5.7,1.5-1.6,4.8.8,1.8,1.7,1.5-.2,3.5-1.9,1.4-.7,1.8V236l-1.4.4-1.7,1.4-.5,1.7.4,1.7-1.3,1-2.3-2.7-1.4-2.8-8.3.8-10,.6L471,239.3l-1.6-4.3-.4-6.7-1.4-4.2-.7-5.2-2.2-3.7-1-4.6-2.7-7.8-1.1-5.6-1.4-1.9-1.3-2.9,1.7-3.8,1.2-6.1-2.7-2.2-.3-2.4.7-2.4,1.8-.3,61.1-.6,21.2-.7Z"/>
          <path id="ID" class="cls-1" d="M161.3,21.2l-4.8,17.4L152,59.5l-3.4,16.2-.4,9.7,1.2,4.4,3.5,2.7-.2,3.9-3.9,4.4-4.5,6.6-.9,2.9-1.2,1.1-1.8.8-4.3,5.3-.4,3.1-.4,1.1.6,1,2.6-.1,1.1,2.3-2.4,5.8-1.2,4.2-8.8,35.3,20.7,4.5,39.5,7.9,34.8,6.1,4.9-29.2,3.8-24.1-2.7-2.4-.4-2.6-.8-1.1-2.1,1-.7,2.6-3.2.5-3.9-1.6-3.8.1-2.5.7-3.4-1.5-2.4.2-2.4,2-2-1.1-.7-4,.7-2.9-2.5-2.9-3.3-2.6-2.7-13.1L192,102l-.3-.1-.2.4-5.1,3.5-1.7-.2-2.9-3.4-.2-3.1,7-17.1-.4-2-3.4-1.2-.6-1.2-2.6-3.5L177,64l-3.2-1.5-2-5,1.3-4.6-3.2-7.6,4.4-21.5Z"/>
          <path id="IL" class="cls-1" d="M604.7,207.9l-.8-2.6-1.3-3.7-1.6-1.8-1.5-2.6-.4-5.5-15.9,1.8-17.4,1H553.5l.2,2.1,2.2.9,1.1,1.4.4,1.4,3.9,3.4.7,2.4-.7,3.3-1.7,3.7-.8,2.7-2.4,1.9-1.9.6-5.2,1.3-1.3,4.1.6,1.1,1.9,1.8-.2,4.3-2.1,1.6-.5,1.3v2.8l-1.8.6-1.4,1.2-.4,1.2.4,2-1.6,1.3-.9,2.8.3,3.9,2.3,7,7,7.6,5.7,3.7v4.4l.7,1.2,6.6.6,2.7,1.4-.7,3.5-2.2,6.2-.8,3,2,3.7,6.4,5.3,4.8.8,2.2,5.1,2,3.4-.9,2.8,1.5,3.8,1.7,2.1,1.6-.3,1-2.2,2.4-1.7,2.8-1,6.1,2.5.5-.2v-1.1l-1.2-2.7.4-2.8,2.4-1.6,3.4-1.2-.5-1.3-.8-2,1.2-1.3,1-2.7v-4l.4-4.9,2.5-3,1.8-3.8,2.5-4-.5-5.3-1.8-3.2-.3-3.3.8-5.3-.7-7.2-1.1-15.8-1.4-15.3-.9-11.7Z"/>
          <path id="IN" class="cls-1" d="M608.9,209.7l1.5,1,1.1-.3,2.1-1.9,2.5-1.8,14.3-1.1,18.4-1.8,1.6,15.5,4.9,42.6-.6,2.9,1.3,1.6.2,1.3-2.3,1.6-3.6,1.7-3.2.4-.5,4.8-4.7,3.6-2.9,4,.2,2.4-.5,1.4h-3.5l-1.4-1.7-5.2,3,.2,3.1-.9.2-.5-.9-2.4-1.7-3.6,1.5L620,294l-1.2-.6-1.6-1.8-4.4.5-5.7,1-2.5,1.3v-2.6l.4-4.7,2.3-2.9,1.8-3.9,2.7-4.2-.5-5.8-1.8-3.1-.3-3.2.8-5.3-.7-7.1-.9-12.6-2.5-30.1Z"/>
          <path id="KS" class="cls-1" d="M471.9,253.1l-43.8-.6-40.6-1.2-21.7-.9-4.3,64.8,24.3,1,44.7,2.1,46.3.6,12.6-.3.7-35-1.2-11.1-2.5-2-2.4-3-2.3-3.6.6-3,1.7-1.4v-2.1l-.8-.7-2.6-.2-3.5-3.4Z"/>
          <path id="KY" class="cls-1" d="M593.2,325.4l12.6-.7.1-4.1h4.3l30.4-3.2,45.1-4.3,5.6-3.6,3.9-2.1.1-1.9,6-7.8,4.1-3.6,2.1-2.4-3.3-2-2.5-2.7-3-3.8-.5-2.2-2.6-1.4-.9-1.9-.2-6.1-2.6-2-1.9-1.1-.5-2.3-1.3.2-2,1.2-2.5,2.7-1.9-1.7-2.5-.5-2.4,1.4h-2.3l-1.8-2-5.6-.1-1.8-4.5-2.9-1.5-2.1.8-4.2.2-.5,2.1,1.2,1.5.3,2.1-2.8,2-3.8,1.8-2.6.4-.5,4.5-4.9,3.6-2.6,3.7.2,2.2-.9,2.3-4.5-.1-1.3-1.3-3.9,2.2.2,3.3-2.4.6-.8-1.4-1.7-1.2-2.7,1.1-1.8,3.5-2.2-1-1.4-1.6-3.7.4-5.6,1-2.8,1.3-1.2,3.4-1,1,1.5,3.7-4.2,1.4-1.9,1.4-.4,2.2,1.2,2.4v2.2l-1.6.4L591,311l-2.3.9-2,1.4-.8,1.8,1.7,2.4-.9,1.8-.1,3.3-2.4,1.3-2.1,1.7Z"/>
          <path id="LA" class="cls-1" d="M512.9,479.5l8.1-.3,10.3,3.6,6.5,1.1,3.7-1.5,3.2,1.1,3.2,1,.8-2.1-3.2-1.1-2.6.5-2.7-1.6.8-1.5,3.1-1,1.8,1.5,1.8-1,3.2.6,1.5,2.4.3,2.3,4.5.3,1.8,1.8-.8,1.6-1.3.8,1.6,1.6,8.4,3.6,3.6-1.3,1-2.4,2.6-.6,1.8-1.5,1.3,1,.8,2.9-2.3.8.6.6,3.4-1.3L582,488l.8-.5-2.1-.3.8-1.6-.2-1.5,2.1-.5,1.1-1.3.6.8.6,3.1,4.2.6,4,1.9,1,1.5h2.9l1.1,1,2.3-3.1v-1.5h-1.3l-3.4-2.7-5.8-.8-3.2-2.3,1.1-2.7,2.3.3.2-.6-1.8-1v-.5h3.2l1.8-3.1-1.3-1.9-.3-2.7-1.5.2-1.9,2.1-.6,2.6-3.1-.6-1-1.8,1.8-1.9,1.9-1.7-2.2-6.5-3.4-3.4,1-7.3-.2-.5-1.3.2-33.1,1.4-.8-2.4.8-8.5,8.6-14.8-.9-2.6,1.4-.4.4-2-2.2-2,.1-1.9-2-4.5-.4-5.1.1-.7-26.4.8-25.2.1.4,9.7.7,9.5.5,3.7,2.6,4.5.9,4.4,4.3,6,.3,3.1.6.8-.7,8.3-2.8,4.6,1.2,2.4-.5,2.6-.8,7.3-1.3,3,.2,3.7Z"/>
          <path id="MA" class="cls-1" d="M873.5,166.1l-.5-2.3.8-1.5,2.9-1.5.8,3.1-.5,1.8-2.4,1.5v1l1.9-1.5,3.9-4.5,3.9-1.9,4.2-1.5-.3-2.4-1-2.9-1.9-2.4-1.8-.8-2.1.2-.5.5,1,1.3,1.5-.8,2.1,1.6.8,2.7-1.8,1.8-2.3,1-3.6-.5-3.9-6-2.3-2.6h-1.8l-1.1.8-1.9-2.6.3-1.5,2.4-5.2-2.9-4.4-3.7,1.8-1.8,2.9L843.6,146l-13.8,2.5-.6,10.6.7,4.9,22-4.8,11.2-2.8,2,1.6,3.4,4.3,2.9,4.7Zm12.5,1.4,2.2-.7.5-1.7,1,.1,1,2.3-1.3.5-3.9.1Zm-9.4.8,2.3-2.6h1.6l1.8,1.5-2.4,1-2.2,1Z"/>
          <path id="MD" class="cls-1" d="M820.8,257.7l1.7-3.8.5-4.8-6.3,1.1-5.8.3-3.8-16.8-2.3-5.5-1.5-4.6-22.2,4.3-37.6,7.6,2,10.4,4.8-4.9,2.5-.7,1.4-1.5,1.8-2.7,1.6.7,2.6-.2,2.6-2.1,2-1.5,2.1-.6,1.5,1.1,2.7,1.4,1.9,1.8,1.3,1.4,4.8,1.6-.6,2.9,5.8,2.1,2.1-2.6,3.7,2.5-2.1,3.3-.7,3.3-1.8,2.6v2.1l.3.8,2,1.3,3.4,1.1,4.3-.1,3.1,1,2.1.3,1-2.1-1.5-2.1v-1.8l-2.4-2.1-2.1-5.5,1.3-5.3-.2-2.1-1.3-1.3s1.5-1.6,1.5-2.3a16,16,0,0,1,.5-2.1l1.9-1.3,1.9-1.6.5,1-1.5,1.6L799,237l.3,1.1,1.8.3.5,5.5-2.1,1,.3,3.6.5-.2,1.1-1.9,1.6,1.8-1.6,1.3-.3,3.4,2.6,3.4,3.9.5,1.6-.8,3.2,4.2,1,.4Zm-14.5.2,1.1,2.5.2,1.8,1.1,1.9s.9-.9.9-1.2-.7-3.1-.7-3.1l-.7-2.3Z"/>
          <path id="ME" class="cls-1" d="M851.8,85.5l1.5.4V83.3l.8-5.5,2.6-4.7,1.5-4-1.9-2.4v-6l.8-1,.8-2.7-.2-1.5-.2-4.8,1.8-4.8,2.9-8.9,2.1-4.2h1.3l1.3.2v1.1l1.3,2.3,2.7.6.8-.8v-1l4-2.9,1.8-1.8,1.5.2,6,2.4,1.9,1L896,64h6l.8,1.9.2,4.8,2.9,2.3h.8l.2-.5-.5-1.1,2.8-.5,1.9,2.1,2.3,3.7v1.9l-2.1,4.7-1.9.6L906,87l-4.8,5.5h-1.3c-.6,0-1-2.1-1-2.1l-1.8.2-1,1.5-2.4,1.5-1,1.5,1.6,1.5-.5.6-.5,2.7-1.9-.2V98.1l-.3-1.3-1.5.3-1.8-3.2-2.1,1.3,1.3,1.5.3,1.1-.8,1.3.3,3.1.2,1.6-1.6,2.6-2.9.5-.3,2.9-5.3,3.1-1.3.5-1.6-1.5-3.1,3.6,1,3.2-1.5,1.3-.2,4.4-1.1,6.3-2.2-.9-.5-3.1-4-1.1-.2-2.5L850.5,85.7Zm36.5,15.6,1.5-1.5,1.4,1.1.6,2.4-1.7.9Zm6.7-5.9,1.8,1.9s1.3.1,1.3-.2.2-2,.2-2l.9-.8-.8-1.8-2,.7Z"/>
          <path id="MI" class="cls-1" d="M630.5,204.6l19.1-1.9.2,1.1,9.9-1.5,12-1.7.1-.6.2-1.5,2.1-3.7,2-1.7-.2-5.1,1.6-1.6,1.1-.3.2-3.6,1.5-3,1.1.6.2.6.8.2,1.9-1-.4-9.1-3.2-8.2-2.3-9.1-2.4-3.2-2.6-1.8-1.6,1.1-3.9,1.8-1.9,5-2.7,3.7-1.1.6-1.5-.6s-2.6-1.5-2.4-2.1.5-5,.5-5l3.4-1.3.8-3.4.6-2.6,2.4-1.6-.3-10-1.6-2.3-1.3-.8-.8-2.1.8-.8,1.6.3.2-1.6-2.6-2.2-1.3-2.6h-2.6l-4.5-1.5-5.5-3.4h-2.7l-.6.6-1-.5-3.1-2.3-2.9,1.8-2.9,2.3.3,3.6,1,.3,2.1.5.5.8-2.6.8-2.6.3-1.5,1.8-.3,2.1.3,1.6.3,5.5-3.6,2.1-.6-.2V134l1.3-2.4.6-2.4-.8-.8-1.9.8-1,4.2-2.7,1.1-1.8,1.9-.2,1,.6.8-.6,2.6-2.3.5v1.1l.8,2.4-1.1,6.1-1.6,4,.6,4.7.5,1.1-.8,2.4-.3.8-.3,2.7,3.6,6,2.9,6.5,1.5,4.8-.8,4.7-1,6-2.4,5.2-.3,2.7-3.2,3.1Zm-33.3-72.4-1.3-1.1-1.8-10.4-3.7-1.3-1.7-2.3-12.6-2.8-2.8-1.1-8.1-2.2-7.8-1-3.9-5.3.7-.5,2.7-.8,3.6-2.3v-1l.6-.6,6-1,2.4-1.9,4.4-2.1.2-1.3,1.9-2.9,1.8-.8,1.3-1.8,2.3-2.3,4.4-2.4,4.7-.5,1.1,1.1-.3,1-3.7,1-1.5,3.1-2.3.8-.5,2.4-2.4,3.2-.3,2.6.8.5,1-1.1,3.6-2.9,1.3,1.3h2.3l3.2,1,1.5,1.1,1.5,3.1,2.7,2.7,3.9-.2,1.5-1,1.6,1.3,1.6.5,1.3-.8h1.1l1.6-1,4-3.6,3.4-1.1,6.6-.3,4.5-1.9,2.6-1.3,1.5.2v5.7l.5.3,2.9.8,1.9-.5,6.1-1.6,1.1-1.1,1.5.5v7l3.2,3.1,1.3.6,1.3,1-1.3.3-.8-.3-3.7-.5-2.1.6-2.3-.2-3.2,1.5h-1.8l-5.8-1.3-5.2.2-1.9,2.6-7,.6-2.4.8-1.1,3.1-1.3,1.1-.5-.2-1.5-1.6-4.5,2.4h-.6l-1.1-1.6-.8.2-1.9,4.4-1,4-3.2,6.9ZM567.6,75.7l1.8-2.1,2.2-.8,5.4-3.9,2.3-.6.5.5-5.1,5.1-3.3,1.9-2.1.9Zm86.2,32.1.6,2.5,3.2.2,1.3-1.2s-.1-1.5-.4-1.6a14.62,14.62,0,0,1-1.6-1.9l-2.2.2-1.6.2-.3,1.1Z"/>
          <path id="MN" class="cls-1" d="M450.6,60.4l-.6,3.9V74.6l1.6,5,1.9,3.3.5,9.9,1.8,13.4,1.8,7.3.4,6.4v5.3l-1.6,1.8-1.8,1.3v1.5l.9,1.7,4.1,3.5.7,3.2v35.9l60.3-.6,21.2-.7-.5-6-1.8-2.1-7.2-4.6-3.6-5.3-3.4-.9-2-2.8h-3.2l-3.5-3.8-.5-7,.1-3.9,1.5-3-.7-2.7-2.8-3.1,2.2-6.1,5.4-4,1.2-1.4-.2-8,.2-3,2.6-3,3.8-2.9,1.3-.2,4.5-5,1.8-.8,2.3-3.9,2.4-3.6,3.1-2.6,4.8-2,9.2-4.1,3.9-1.8.6-2.3-4.4.4-.7,1.1h-.6l-1.8-3.1-8.9.3-1,.8h-1l-.5-1.3-.8-1.8-2.6.5L537.8,73l-1.6.8h-3.1l-2.6-1V70.7l-1.3-.2-.5.5-2.6-1.3-.5-2.9-1.5.5-.5,1-2.4-.5-5.3-2.4L512,62.8h-2.9l-1.3-1-2.3.6-1.1,1.1-.3,1.3h-4.8V62.7l-6.3-.3-.3-1.5h-4.8l-1.6-1.6-1.5-6.1-.8-5.5-1.9-.8-2.3-.5-.6.2-.3,8.2H448.8Z"/>
          <path id="MO" class="cls-1" d="M579.1,332.3l.5-5.9,4.2-3.4,1.9-1v-2.9l.7-1.6-1.1-1.6-2.4.3-2.1-2.5-1.7-4.5.9-2.6-2-3.2-1.8-4.6-4.6-.7-6.8-5.6-2.2-4.2.8-3.3,2.2-6,.6-3-1.9-1-6.9-.6-1.1-1.9v-4.1l-5.3-3.5-7.2-7.8-2.3-7.3-.5-4.2.7-2.4-2.6-3.1-1.2-2.4-7.7.8-10,.6-48.8,1.2,1.3,2.6-.1,2.2,2.3,3.6,3,3.9,3.1,3,2.6.2,1.4,1.1v2.9l-1.8,1.6-.5,2.3,2.1,3.2,2.4,3,2.6,2.1,1.3,11.6-.8,40,.5,5.7,23.7-.2,23.3-.7,32.5-1.3,2.2,3.7-.8,3.1-3.1,2.5-.5,1.8,5.2.5,4.1-1.1Z"/>
          <path id="MS" class="cls-1" d="M590.3,466.1l2.6-4.2,1.8.8,6.8-1.9,2.1.3,1.5.8h5.2l.4-1.6L609,445.5l-2.8-19,1-45.1-.2-16.7.2-6.3-4.8.3-19.6,1.6-13,.4-.2,3.2-2.8,1.3-2.6,5.1.5,1.6.1,2.4-2.9,1.1-3.5,5.1.8,2.3-3,2.5-1,5.7-.6,1.9,1.6,2.5-1.5,1.4,1.5,2.8.3,4.2-1.2,2.5-.2.9.4,5,2,4.5-.1,1.7,2.3,2-.7,3.1-.9.3.6,1.9-8.6,15-.8,8.2.5,1.5,24.2-.7,8.2-.7,1.9-.3.6,1.4-1,7.1,3.3,3.3,2.2,6.4Z"/>
          <path id="MT" class="cls-1" d="M347.1,64.4l-5.3,57.1-1.3,15.2-59.1-6.6-49-7.1L231,134.2l-1.9-1.7-.4-2.5-1.3-1.9-3.3,1.5-.7,2.5-2.3.3-3.8-1.6-4.1.1-2.4.7-3.2-1.5-3,.2-2.1,1.9-.9-.6-.7-3.4.7-3.2-2.7-3.2-3.3-2.5-2.5-12.6-.1-5.3-1.6-.8-.6,1-4.5,3.2-1.2-.1-2.3-2.8-.2-2.8,7-17.2-.6-2.7-3.5-1.1-.4-.9-2.7-3.5-4.6-10.4-3.2-1.6-1.8-4.3,1.3-4.6-3.2-7.6,4.4-21.3L208,30.8l18.4,3.4,32.3,5.3,29.3,4L317.2,47,348,50.1Z"/>
          <path id="NC" class="cls-1" d="M772.7,351.3,760,343.6l-3.1-.8-16.6,2.1-1.6-3-2.8-2.2-16.7.5-7.4.9-9.2,4.5-6.8,2.7-6.5,1.2-13.4,1.4.1-4.1,1.7-1.3,2.7-.7.7-3.8,3.9-2.5,3.9-1.5,4.5-3.7,4.4-2.3.7-3.2,4.1-3.8.7,1,2.5.2,2.4-3.6,1.7-.4,2.6.3,1.8-4,2.5-2.4.5-1.8.1-3.5,4.4.1,38.5-5.6L817.8,292l2,4.8,3.6,6.5,2.4,2.4.6,2.3-2.4.2.8.6-.3,4.2-2.6,1.3-.6,2.1-1.3,2.9-3.7,1.6-2.4-.3-1.5-.2-1.6-1.3.3,1.3v1H813l.8,1.3-1.9,6.3h4.2l.6,1.6,2.3-2.3,1.3-.5-1.9,3.6-3.1,4.8H814l-1.1-.5-2.7.6-5.2,2.4-6.5,5.3-3.4,4.7-1.9,6.5-.5,2.4-4.7.5-5.1,1.5ZM822,325.1l2.6-2.5,3.2-2.6,1.5-.6.2-2-.6-6.1-1.5-2.3-.6-1.9.7-.2,2.7,5.5.4,4.4-.2,3.4-3.4,1.5-2.8,2.4-1.1,1.2Z"/>
          <path id="ND" class="cls-1" d="M457,120l-.4-6.2-1.8-7.3L453,92.9l-.5-9.7L450.6,80,449,74.7V64.3l.6-3.8L447.8,55l-28.6-.6-18.6-.6-26.5-1.3-25.2-2.2L348,64.7l-4.7,50.9,56.8,3.9,56.9,1.7Z"/>
          <path id="NE" class="cls-1" d="M456.3,197.9l-1-2.3-.5-1.6-2.9-1.6-4.8-1.5-2.2-1.2-2.6.1-3.7.4-4.2,1.2-6-4.1-2.2-2-10.7.6L374,183.5l-35.6-2.2L334.1,225l33.1,3.3-1.4,21.1,21.7,1,40.6,1.2,43.8.6h4.5l-2.2-3-2.6-3.9.1-2.3-1.4-2.7-1.9-5.2-.4-6.7-1.4-4.1-.5-5-2.3-3.7-1-4.7L460,203l-1-5.3Z"/>
          <path id="NH" class="cls-1" d="M867.7,134.9l1.1-3.2-2.7-1.2-.5-3.1-4.1-1.1-.3-3L849.5,85.8l-.7.1-.6,1.6-.6-.5-1-1-1.5,1.9-.2,2.3.5,8.4,1.9,2.8v4.3l-3.9,4.8-2.4.9v.7l1.1,1.9v8.6l-.8,9.2-.2,4.7,1,1.4-.2,4.7-.5,1.5,1,1.1,5.1-1.2,13.8-3.5,1.7-2.9,4-1.9Z"/>
          <path id="NJ" class="cls-1" d="M809.7,221.9l.1-1.5,2.7-1.3,1.7-2.8,1.7-2.4,3.3-3.2v-1.2l-6.1-4.1-1-2.7-2.7-.3-.1-.9-.7-2.2,2.2-1.1.2-2.9-1.3-1.3.2-1.2,1.9-3.1v-3.1l2.5-3.1,5.6,2.5,6.4,1.9,2.5,1.2.1,1.8-.5,2.7.4,4.5-2.1,1.9-1.1,1,.5.5,2.7-.3,1.1-.8,1.6,3.4.2,9.4.6,1.1-1.1,5.5-3.1,6.5-2.7,4-.8,4.8-2.1,2.4h-.8l-.3-2.7.8-1-.2-1.5-4-.6-4.8-2.3-3.2-2.9-1-2Z"/>
          <path id="NM" class="cls-1" d="M256.2,423l-16.7-2.6-1.2,9.6-15.8-2,6-39.7,7-53.2,4.4-30.9,34,3.9,37.4,4.4,32,2.8-.3,10.8-1.4-.1-7.4,97.7-28.4-1.8-38.1-3.7.7,6.3Z"/>
          <path id="NV" class="cls-1" d="M109.1,167.2l38.7,8.5,26,5.2L163.2,234l-5.4,29.8-3.3,15.5-2.1,11.1-2.6,16.4-1.7,3.1-1.6-.1-1.2-2.6-2.8-.5-1.3-1.1-1.8.1-.9.8-1.8,1.3-.3,7.3-.3,1.5-.5,12.4-1.1,1.8-16.7-25.5L75.7,243.2l-12.4-19,8.6-32.6,8-31.3Z"/>
          <path id="NY" class="cls-1" d="M829.4,193.6l.5-2.7-.2-2.4-3-1.5-6.5-2-6-2.6-.6-.4-2.7-.3-2-1.5-2.1-5.9-3.3-.5-2.4-2.4-38.4,8.1-31.6,6-.5-6.5,1.6-1.2,1.3-1.1,1-1.6,1.8-1.1,1.9-1.8.5-1.6,2.1-2.7,1.1-1-.2-1-1.3-3.1-1.8-.2-1.9-6.1,2.9-1.8,4.4-1.5,4-1.3,3.2-.5,6.3-.2,1.9,1.3,1.6.2,2.1-1.3,2.6-1.1,5.2-.5L773,148l1.8-3.2,1.6-1.9h2.1l1.9-1.1.2-2.3-1.5-2.1-.3-1.5,1.1-2.1v-1.5h-1.8l-1.8-.8-.8-1.1-.2-2.6,5.8-5.5.6-.8,1.5-2.9,2.9-4.5,2.7-3.7,2.1-2.4,2.4-1.8,3.1-1.2,5.5-1.3,3.2.2,4.5-1.5,7.4-2.2.7,4.9,2.4,6.5.8,5-1,4.2,2.6,4.5.8,2-.9,3.2,3.7,1.7,2.7,10.2v5.8l-.6,10.9.8,5.4.7,3.6,1.5,7.3v8.1l-1.1,2.3,2.1,2.7.5.9-1.9,1.8.3,1.3,1.3-.3,1.5-1.3,2.3-2.6,1.1-.6,1.6.6,2.3.2,7.9-3.9,2.9-2.7,1.3-1.5,4.2,1.6-3.4,3.6-3.9,2.9-7.1,5.3-2.6,1-5.8,1.9-4,1.1-1-.4Z"/>
          <path id="OH" class="cls-1" d="M649.8,204.8l1.7,15.5,4.8,41.1,3.9-.2,2.3-.8,3.6,1.8,1.7,4.2,5.4.1,1.8,2h1.7l2.4-1.4,3.1.5,1.5,1.3,1.8-2,2.3-1.4,2.4-.4.6,2.7,1.6,1,2.6,2,.8.2,2-.1,1.2-.6v-2.1l1.7-1.5.1-4.8,1.1-4.2,1.9-1.3,1,.7,1,1.1.7.2.4-.4-.9-2.7v-2.2l1.1-1.4,2.5-3.6,1.3-1.5,2.2.5,2.1-1.5,3-3.3,2.2-3.7.2-5.4.5-5v-4.6l-1.2-3.2,1.2-1.8,1.3-1.2-.6-2.8L717.5,189l-6.2,3.7-3.9,2.3-3.4,3.7-4,3.9-3.2.8-2.9.5-5.5,2.6-2.1.2-3.4-3.1-5.2.6-2.6-1.5-2.2-1.3Z"/>
          <path id="OK" class="cls-1" d="M397.9,328.5l-1.8,24.3-.9,18,.2,1.6,4,3.6,1.7.9h.9l.9-2.1,1.5,1.9,1.6.1.3-.2.2-1.1,2.8,1.4-.4,3.5,3.8.5,2.5,1,4.2.6,2.3,1.6,2.5-1.7,3.5.7,2.2,3.1,1.2.1v2.3l2.1.7,2.5-2.1,1.8.6,2.7.1.7,2.3,4.4,1.8,1.7-.3,1.9-4.2h1.3l1.1,2.1,4.2.8,3.4,1.3,3,.8,1.6-.7.7-2.7h4.5l1.9.9,2.7-1.9h1.4l.6,1.4h3.6l2-1.8,2.3.6,1.7,2.2,3,1.7,3.4.9,1.9,1.2-.3-37.6-1.4-10.9-.1-8.6-1.5-6.6-.6-6.8.1-4.3-12.6.3-46.3-.5-44.7-2.1-41.5-1.8-.4,10.7Z"/>
          <path id="OR" class="cls-1" d="M53.4,152.5l28.2,7.2,27.5,6.5,17,3.7,8.8-35.1,1.2-4.4,2.4-5.5-.7-1.3-2.5.1-1.3-1.8.6-1.5.4-3.3,4.7-5.7,1.9-.9.9-.8.7-2.7.8-1.1,3.9-5.7,3.7-4,.2-3.3-3.4-2.5-1.2-4.6L134.1,82l-15.3-3.5-14.7.5L103,77.7l-5.1,1.8L93.4,79,91,77.4l-1.3.6L85,77.7l-2-1.4-4.8-1.8-1.1-.1-4.4-1.3-1.8,1.5-6.3-.2-5.3-3.8.2-9.3-2-3.5-4.1-.6-.7-2.5-2.4-.5-5.8,2.1-2.3,6.5L39,72.8l-3.2,6.5-5,14.1L24.3,107l-8.1,12.6-1.9,2.9-.8,8.6-1.3,6,2.7,3.5Z"/>
          <path id="PA" class="cls-1" d="M722.6,185.8l1.3-.5,5.7-5.5.7,6.9,33.5-6.5,36.9-7.8,2.3,2.3,3.1.4,2,5.6,2.4,1.9,2.8.4.1.1-2.6,3.2v3.1l-1.9,3.1-.2,1.9,1.3,1.3-.2,1.9-2.4,1.1,1,3.4.2,1.1,2.8.3.9,2.5,5.9,3.9v.4l-3.1,3-1.5,2.2-1.7,2.8-2.7,1.2-1.4.3-2.1,1.3-1.6,1.4-22.4,4.3L743,234.6,731.7,236l-3.9.7-5.1-22.4-4.3-25.9Z"/>
          <path id="RI" class="cls-1" d="M859.6,169.3l-.8-4.4-1.6-6,5.7-1.5,1.5,1.3,3.4,4.3,2.8,4.4-2.8,1.4-1.3-.2-1.1,1.8-2.4,1.9-2.8,1.1Z"/>
          <path id="SC" class="cls-1" d="M745,407.2l-2.1-1-1.9-5.6-2.5-2.3-2.5-.5-1.5-4.6-3-6.5-4.2-1.8-1.9-1.8-1.2-2.6-2.4-2-2.3-1.3-2.2-2.9-3.2-2.4-4.4-1.7-.4-1.4L707,366l-.5-1.5-3.8-5.4-3.4.1-3.9-2.5-1.2-1.2-.2-1.4.6-1.6,2.7-1.3-.8-2,6.4-2.7,9.2-4.5,7.1-.9,16.4-.5,2.3,1.9,1.8,3.5,4.6-.8,12.6-1.5,2.7.8,12.5,7.4,10.1,8.3-5.3,5.4-2.6,6.1-.5,6.3-1.6.8-1.1,2.7-2.4.6-2.1,3.6-2.7,2.7-2.3,3.4-1.6.8-3.6,3.4-2.9.2,1,3.2-5,5.3-2.3,1.6Z"/>
          <path id="SD" class="cls-1" d="M457,174.7l-.9,3.2.4,3,2.6,2-1.2,5.4-1.8,4.1,1.5,3.3.7,1.1-1.3.1-.7-1.6-.6-2-3.3-1.8-4.8-1.5-2.5-1.3-2.9.1-3.9.4-3.8,1.2-5.3-3.8-2.7-2.4-10.9.8-41.5-2.4-35.6-2.2,1.5-24.8,2.8-34,.4-5,56.9,3.9,56.9,1.7v2.7l-1.3,1.5-2,1.5-.1,2.2,1.1,2.2,4.1,3.4.5,2.7v35.9Z"/>
          <path id="TN" class="cls-1" d="M656.8,353.2l-13.1,1.2-23.3,2.2-37.6,2.7-11.8.4.9-.6.9-4.5-1.2-3.6,3.9-2.3.4-2.5,1.2-4.3,3-9.5.5-5.6.3-.2,12.3-.2,13.6-.8.1-3.9,3.5-.1,30.4-3.3,54-5.2,10.3-1.5,7.6-.2,2.4-1.9,1.3.3-.1,3.3-.4,1.6-2.4,2.2-1.6,3.6-2-.4-2.4.9-2.2,3.3-1.4-.2-.8-1.2-1.1.4-4.3,4-.8,3.1-4.2,2.2-4.3,3.6-3.8,1.5-4.4,2.8-.6,3.6-2.5.5-2,1.7-.2,4.8Z"/>
          <path id="TX" class="cls-1" d="M268.8,419.2l37,3.6,29.3,1.9,7.4-97.7,54.4,2.4-1.7,23.3-1,18,.2,2,4.4,4.1,2,1.1h1.8l.5-1.2.7.9,2.4.2,1.1-.6V377l1,.5-.4,3.7,4.5.7,2.4.9,4.2.7,2.6,1.8,2.8-1.9,2.7.6,2.2,3.1.8.1v2.1l3.3,1.1,2.5-2.1,1.5.5,2.1.1.6,2.1,5.2,2,2.3-.5,1.9-4h.1l1.1,1.9,4.6.9,3.4,1.3,3.2,1,2.4-1.2.7-2.3h3.6l2.1,1,3-2h.4l.5,1.4h4.7l1.9-1.8,1.3.4,1.7,2.1,3.3,1.9,3.4,1,2.5,1.4,2.7,2,3.1-1.2,2.1.8.7,20,.7,9.5.6,4.1,2.6,4.4.9,4.5,4.2,5.9.3,3.1.6.8-.7,7.7-2.9,4.8,1.3,2.6-.5,2.4-.8,7.2-1.3,3,.3,4.2-5.6,1.6-9.9,4.5-1,1.9-2.6,1.9-2.1,1.5-1.3.8-5.7,5.3-2.7,2.1-5.3,3.2-5.7,2.4-6.3,3.4-1.8,1.5-5.8,3.6-3.4.6-3.9,5.5-4,.3-1,1.9,2.3,1.9-1.5,5.5-1.3,4.5-1.1,3.9-.8,4.5.8,2.4,1.8,7,1,6.1,1.8,2.7-1,1.5-3.1,1.9-5.7-3.9-5.5-1.1-1.3.5-3.2-.6-4.2-3.1-5.2-1.1-7.6-3.4-2.1-3.9-1.3-6.5-3.2-1.9-.6-2.3.6-.6.3-3.4-1.3-.6-.6-1,1.3-4.4-1.6-2.3-3.2-1.3-3.4-4.4-3.6-6.6-4.2-2.6.2-1.9-5.3-12.3-.8-4.2-1.8-1.9-.2-1.5-6-5.3-2.6-3.1v-1.1l-2.6-2.1-6.8-1.1-7.4-.6-3.1-2.3-4.5,1.8-3.6,1.5-2.3,3.2-1,3.7-4.4,6.1-2.4,2.4-2.6-1-1.8-1.1-1.9-.6-3.9-2.3v-.6l-1.8-1.9-5.2-2.1-7.4-7.8-2.3-4.7v-8.1l-3.2-6.5-.5-2.7-1.6-1-1.1-2.1-5-2.1-1.3-1.6-7.1-7.9-1.3-3.2-4.7-2.3-1.5-4.4-2.6-2.9-1.7-.5ZM443.2,560.9l-.6-7.1-2.7-7.2-.6-7,1.5-8.2,3.3-6.9,3.5-5.4,3.2-3.6.6.2-4.8,6.6-4.4,6.5-2,6.6-.3,5.2.9,6.1,2.6,7.2.5,5.2.2,1.5Z"/>
          <path id="UT" class="cls-1" d="M214.4,299.5l24.6,3.6,1.9-13.7,7-50.5,2.3-22L218,213.4l2.2-13.1,1.8-10.6-34.7-6.1-12.5-2.5L164.2,234l-5.4,30-3.3,15.4-1.7,9.2Z"/>
          <path id="VA" class="cls-1" d="M820.7,258.8l-.2,2.8-2.9,3.8-.4,4.6.5,3.4-1.8,5-2.2,1.9-1.5-4.6.4-5.4,1.6-4.2.7-3.3-.1-1.7Zm-60.3,44.6L721.8,309l-4.8-.1-2.2-.3-2.5,1.9-7.3.1-10.3,1.6-6.7.6,4.1-2.6,4.1-2.3v-2.1l5.7-7.3,4.1-3.7,2.2-2.5,3.6,4.3,3.8.9,2.7-1,2-1.5,2.4,1.2,4.6-1.3,1.7-4.4,2.4.7,3.2-2.3,1.6.4,2.8-3.2.2-2.7-.8-1.2,4.8-10.5,1.8-5.2.5-4.7.7-.2,1.1,1.7,1.5,1.2,3.9-.2,1.7-8.1,3-.6.8-2.6,2.8-2.2,1.1-2.1,1.8-4.3.1-4.6,3.6,1.4,6.6,3.1.3-5.2,3.4,1.2-.6,2.9,8.6,3.1,1.4,1.8-.8,3.3-1.3,1.3-.5,1.7.5,2.4,2,1.3,3.9,1.4,2.9,1,4.9.9,2.2,2.1,3.2.4.9,1.2-.4,4.7,1.4,1.1-.5,1.9,1.2.8-.2,1.4-2.7-.1.1,1.6,2.3,1.5.1,1.4,1.8,1.8.5,2.5-2.6,1.4,1.6,1.5,5.8-1.7,3.7,6.2Z"/>
          <path id="VT" class="cls-1" d="M818.7,104.9l2.4,6.5.8,5.3-1,3.9,2.5,4.4.9,2.3-.7,2.6,3.3,1.5,2.9,10.8v5.3l11.5-2.1-1-1.1.6-1.9.2-4.3-1-1.4.2-4.7.8-9.3v-8.5l-1.1-1.8v-1.6l2.8-1.1,3.5-4.4v-3.6L844.4,99l-.3-5.8L818,100Z"/>
          <path id="WA" class="cls-1" d="M60.5,61.3,58.2,57l-4.1-.7-.4-2.4-2.5-.6-2.9-.5-1.8,1-2.3-2.9.3-2.9,2.7-.3,1.6-4-2.6-1.1.2-3.7,4.4-.6-2.7-2.7-1.5-7.1.6-2.9V17.7l-1.8-3.2,2.3-9.4,2.1.5,2.4,2.9,2.7,2.6L58.1,13l4.5,2.1,3.1.6,2.9,1.5,3.4,1,2.3-.2V15.6l1.3-1.1,2.1-1.3.3,1.1.3,1.8-2.3.5-.3,2.1,1.8,1.5,1.1,2.4.6,1.9,1.5-.2.2-1.3-1-1.3-.5-3.2.8-1.8-.6-1.5V12.6L81.4,9,80.3,6.4,77.9,1.6l.3-.8L79.6,0,84,1.5l9.7,2.7,8.6,1.9,20,5.7,23,5.7,15,3.5-4.8,17.6L151,59.4l-3.4,16.3-.4,9.2-12.9-3.7L119,77.6l-14.5.3-1.1-1.5-5.7,2.1-3.9-.4-2.6-1.8-1.7.7-4.2-.2-1.7-1.3-5.2-1.8-1.2-.2L72.5,72l-1.9,1.7-5.7-.2L60.3,70ZM70.1,5.9l2-.2.5,1.4,1.5-1.6h2.3L77.2,7,75.7,8.7l.6.8-.7,2-1.4.4s-.9.1-.9-.2a13.5,13.5,0,0,1,1.5-2.6l-1.7-.6L72.8,10l-.7.6L70.6,8.3Z"/>
          <path id="WI" class="cls-1" d="M527.4,103.5l2.9.5,2.9-.6,7.4-3.2,2.9-1.9,2.1-.8,1.9,1.5-1.1,1.1-1.9,3.1-.6,1.9,1,.6,1.8-1,1.1-.2,2.7.8.6,1.1,1.1.2.6-1.1,4,5.3L565,112l8.2,2.2,2.6,1.1,12.3,2.6,1.6,2.3,3.6,1.2,1.7,10.2,1.6,1.4,1.5.9-1.1,2.3-1.8,1.6-2.1,4.7-1.3,2.4.2,1.8,1.5.3,1.1-1.9,1.5-.8.8-2.3,1.9-1.8,2.7-4,4.2-6.3.8-.5.3,1-.2,2.3-2.9,6.8-2.7,5.7-.5,3.2-.6,2.6.8,1.3-.2,2.7-1.9,2.4-.5,1.8.6,3.6.6,3.4-1.5,2.6-.8,2.9-1,3.1,1.1,2.4.6,6.1,1.6,4.5-.2,3-15.9,1.8-17.5,1H553l-.7-1.5-2.9-.4-2.6-1.3-2.3-3.7-.3-3.6,2-2.9-.5-1.4-2.1-2.2-.8-3.3-.6-6.8-2.1-2.5-7-4.5-3.8-5.4-3.4-1-2.2-2.8h-3.2l-2.9-3.3-.5-6.5.1-3.8,1.5-3.1-.8-3.2-2.5-2.8,1.8-5.4,5.2-3.8,1.6-1.9-.2-8.1.2-2.8,2.4-2.8Z"/>
          <path id="WV" class="cls-1" d="M744.9,247.9l5.8-6,2.6-.8,1.6-1.5,1.5-2.2,1.1.3,3.1-.2,4.6-3.6,1.5-.5,1.3,1,2.6,1.2,3,3-.4,4.3-5.4-2.6-4.8-1.8-.1,5.9-2.6,5.7-2.9,2.4-.8,2.3-3,.5-1.7,8.1-2.8.2-1.1-1-1.2-2-2.2.5-.5,5.1-1.8,5.1-5,11,.9,1.4-.1,2-2.2,2.5-1.6-.4-3.1,2.3-2.8-.8-1.8,4.9-3.8,1-2.5-1.3-2.5,1.9-2.3.7-3.2-.8-3.8-4.5L705,289l-2.5-2.5-2.9-3.7-.5-2.3-2.8-1.7-.6-1.3-.2-5.6.3.1,2.4-.2,1.8-1v-2.2l1.7-1.5.1-5.2.9-3.6,1.1-.7.4.3,1,1.1,1.7.5,1.1-1.3-1-3.1v-1.6l3.1-4.6,1.2-1.3,2,.5,2.6-1.8,3.1-3.4,2.4-4.1.2-5.6.5-4.8v-4.9l-1.1-3,.9-1.3.8-.7,4.3,19.3,4.3-.8,11.2-1.3Z"/>
          <path id="WY" class="cls-1" d="M339,155.5l-1.5,25.4-4.4,44-2.7-.3-83.3-9.1-27.9-3,2-12,6.9-41,3.8-24.2,1.3-11.2,48.2,7,59.1,6.5Z"/>
          <g id="DC">
            <path id="DC1" class="cls-1" d="M787.8,247.4l-1.1-1.6-1-.8,1.1-1.6,2.2,1.5Z"/>
            <circle id="DC2" class="cls-2" cx="787.3" cy="245.4" r="5"/>
          </g>
        </g>
      </g>
    </g>
  </g>
  <path class="cls-3" d="M153.36,114.43l-6.72,5.72a5.51,5.51,0,0,0-1.91,4.78l1,9.58a5.65,5.65,0,0,1-.09,1.74l-2.32,10.81a5.54,5.54,0,0,1-1.61,2.86l-3.85,3.6a5.51,5.51,0,0,0-1.49,5.67l1.17,3.7a5.49,5.49,0,0,1-.28,4l-2.09,4.38a5.5,5.5,0,0,0,1.25,6.42l1,.92a5.52,5.52,0,0,0,4.06,1.44l12.44-.78a6.29,6.29,0,0,1,1,0l17.37,2a5.58,5.58,0,0,1,2.42.88l8.5,5.64a5.68,5.68,0,0,0,1.71.75l7.46,1.86a5.55,5.55,0,0,0,2.33.08l16.46-3a4.68,4.68,0,0,1,1-.1h10.61a5.46,5.46,0,0,0,3.2-1l3.63-2.59a5.54,5.54,0,0,0,2.12-3.07l3.66-13.82a4.79,4.79,0,0,1,.33-.92l6.47-13.86,4.48-8.59a5.5,5.5,0,0,0-4.75-8h0a5.47,5.47,0,0,1-4.19-2.11l-4.9-6.24a5.52,5.52,0,0,0-4-2.1l-17.63-1a5.49,5.49,0,0,1-3.31-1.33l-12.22-10.59a5.6,5.6,0,0,0-1.47-.92l-14.6-6.15a5.51,5.51,0,0,0-4.13,0l-11.93,4.64-8.83,4A5.76,5.76,0,0,0,153.36,114.43Z"/>
  <path class="cls-4" d="M83.24,303.5l1.2,3.36a5.49,5.49,0,0,0,6.14,3.58l3.64-.64a7.17,7.17,0,0,0,.91-.24l9.62-3.47a5.52,5.52,0,0,0,3.46-3.76l.71-2.69a5.48,5.48,0,0,1,5-4.08l1.48-.1a5.52,5.52,0,0,0,2.56-.82l5.85-3.66a5.47,5.47,0,0,0,1.72-1.7l7.62-11.88c.08-.13.17-.26.26-.38l7.48-9.79a5.52,5.52,0,0,1,2.91-2l7.14-2a5.61,5.61,0,0,0,1.56-.7l12.06-7.94,9.83-6.88a4.66,4.66,0,0,0,.49-.39l7.92-7a5.59,5.59,0,0,1,1.32-.87L204,230.29a5.6,5.6,0,0,0,1.76-1.29l5.23-5.76a5.51,5.51,0,0,1,3.93-1.8l5.69-.15a5.49,5.49,0,0,0,5.22-6.71l-2.25-9.93c0-.11-.05-.22-.07-.33l-1.67-10.27a5.5,5.5,0,0,0-8.31-3.8l-4.09,2.51a5.5,5.5,0,0,1-6.32-.39l-1.2-1a5.38,5.38,0,0,0-1.49-.85l-6.55-2.49a5.54,5.54,0,0,1-.85-.41l-10.41-6.17a5.57,5.57,0,0,0-3.14-.76l-15.6,1a5.45,5.45,0,0,1-2.19-.32l-12.39-4.44a5.45,5.45,0,0,0-4.5.35l-9.72,5.33a5.75,5.75,0,0,0-1,.66l-5,4.35a5.49,5.49,0,0,0-1.37,1.8l-2.77,5.81c-.07.14-.14.28-.22.41l-9.87,16.89a5.68,5.68,0,0,0-.63,1.58l-3.11,14c0,.19-.07.39-.1.59l-.89,8.19a5.05,5.05,0,0,1-.34,1.39l-3.18,8.19a5.68,5.68,0,0,0-.22.7l-3.23,13.36a5.58,5.58,0,0,0-.07,2.23l1,5.74a5.5,5.5,0,0,1-.17,2.55l-3.17,10.25a5.47,5.47,0,0,1-1.36,2.26l-9.65,9.64a2.23,2.23,0,0,1-.27.26l-4.62,4A5.51,5.51,0,0,0,83.24,303.5Z"/>
  <path class="cls-5" d="M230.69,180l-7.47,17a5.52,5.52,0,0,0-.46,2.47l.54,11.52a5.36,5.36,0,0,0,.22,1.31l1.31,4.42a5.48,5.48,0,0,0,4.52,3.88l4.63.64a5.86,5.86,0,0,1,1.78.56l4.52,2.34a5.49,5.49,0,0,0,6.57-1.16l8.12-8.82,5.5-6a5.48,5.48,0,0,1,4.89-1.73l2.44.37a5.46,5.46,0,0,0,4.92-1.75l7.12-7.89a4.26,4.26,0,0,1,.43-.42l6.84-6.1a5.49,5.49,0,0,0,1.74-5.21l-1.79-8.73a5.81,5.81,0,0,1-.11-1.25l.31-11.15a5.4,5.4,0,0,0-.49-2.41l-2.7-6a5.51,5.51,0,0,1-.09-4.31l2.47-6.17a5.52,5.52,0,0,0-2-6.58l-4.4-3a5.86,5.86,0,0,1-.67-.54l-6.73-6.39a5.49,5.49,0,0,0-7-.47l-7.3,5.3a5.48,5.48,0,0,1-2.64,1l-6.32.69a5.52,5.52,0,0,0-4.75,4.13l-1.75,7a5.84,5.84,0,0,0-.16,1.1l-.5,11.52a5.51,5.51,0,0,1-1.85,3.88l-5.2,4.6a5.54,5.54,0,0,0-1.64,2.6L231,179.26A4.3,4.3,0,0,1,230.69,180Z"/>
  <text class="cls-6" transform="translate(139.84 220.36)">WESTERN<tspan x="-3.25" y="8.4">SHOSHONE</tspan></text>
  <text class="cls-7" transform="translate(170.99 151.31)">NORTHERN<tspan x="-0.21" y="8.4">SHOSHONE</tspan></text>
  <text class="cls-8" transform="translate(244.04 177.41)">EASTERN<tspan x="-4.27" y="8.4">SHOSHONE</tspan></text>
</svg>
