<?xml version="1.0" encoding="UTF-8"?><svg xmlns="http://www.w3.org/2000/svg" viewBox="0 0 393.336 289.59"><g id="a"><g id="b"><rect id="c" x="-370.684" y="-804.295" width="1300" height="1353" fill="#d3ebfa" stroke="#27bbea" stroke-width=".5"/><g id="d"><path id="e" d="m605.096,548.735l-2.1-3.14-.42-1.47-.71-1.08-.57-.66-1.47-.06-1.23-1.25-1.52-2-1.06-3.07.07-1,.44-1.51.9-1.61.5-1.29,1.7-1.74-.41-1.5-1-1.76-1,.23-.82-.15-.77-.35.24-.72.8-.81-.17-.85v-1.57l1-.14.41.46h.36l-.2-3.87.23-1.19-.43-.89-1.11-1.15-.95-1.66.6-1.08.7-.42,1-1.05.42-2,.4.81-.07,1.71-.5,1.34v1l.75,1.08h.62l1-.53-.35-1.91-.64-1.47-.21-6.67-1.86-6.94.53-8.18,1-5.17,1.15-1.37,1.07-2.07,1.09-2.4.3-1.46-3.11-7.37-.84-.16-.67.1-.89-1,.37-.94.8-.76.77.09.28,1.66.41-.28,1-2.49.54-.57.45-.79-1.44-.7-1.35-.46-1.89-2.79-5.68-1.47-.57.16,2.59.92,1.2,1.18-.73.19-1.15-.7-1.59.38-.76.94-.86.13-1-1.17-1.48-1-1.2-.59-1.71-.1-.64.44-.92.09-.26-.52-.26-1.16.52-.45,2.11-.53,4.28,1.46-.27-.56-10.28-5.7-5.11-.11.62.39,1.28.13-.23.37-1,.52-1.32.07-1.86-1.27-6.57-1-1.41.54-2.12,1.43-6.17,1.34-6-1.06-4,.19.66.33.44.87-2.47,1.3-2.15.72-3.22,2.45h-2.45l-5.36.91-2.86,1-7.51-.34-1.77.39-2.07,1-1.2-.65-1.57-1.28-1.63.2-3.32,1-.59.4-1.89,1.72-.83.52-1.38,1.41-2-.29-7.5-3.33v.45l.56.44.77.89-1.17,1.79-2.12-.55-1.84-.86h-.83l-1.09-.29-.44-1.2.54-1.24,3.21-4.83,2.52-1.14,1.73-3,1-1.18,1.52-3,.44-6.43-1-4.3-.11-2.32.28-1.58,1-2.53-1.47-1.61.72-2.83.1-1.85,1.63-5.54v-2l-1.09-2.27-2.24.21-.91.32-1.05-.15.82-2.31.31-.85,1.31-2.65.11-1.359,1.24-1.19.9-1.31.79-.19.6,2.09-.5,4,.41.74,1.59.62,1.79,3h.56l.78-1.81.65-1.81.15-4.08,1.26-3,.67-4.91,1.29-4.86-.22-.55h-.79l-1.22,1.54-.65-.06-.24-1.8.54-.67,1.08-.79,1-.33.54-.42.78-1.21v-1.59h-.85l-.78.34-1.43.23-1.06.52-.92-.65v-.84l1.65-3,1.39-1.01h.77l.39-.78.12-.73-.84-1.83-.23-2,.61-2.6,3.2-5.83,2.78-2.82,2.2-3.41.94-2.06.67-2.45.5-2.91-.7-.87-.32-.62-.53-3.58-1.72-.56-2.56-2.16-1.81-.31-1.55,1-1.08.36-1.73.21-.29.47,1.74.27.86-.15.69-.44.41-.1.51.55-.36.78-.52.45-.59.3-4.33.11-4-.69h-1.6l-4.45-.47-2.35.08-.72.34v.23l-.22.28-1.21.39-4,.47-2.14.87-2.85,2.13-2.41,1-17.36,4.77-1.24.56-5.32,3.15-3,2.49-1.16,5-.37.89-.24,3.08.37,3.38.08,3,.38,3.81-.06,1.53-.24.71-2.55,2.5-.72,1.36-.33,7.34-3.83,4.26-1.91,1.22-1.39,1.31-5.56,3.38-.37.52-.18.63h.45l1.88-1.48.2.44-.55,1.42.26.54h.92l.64,1,.19,1.84-3.06,1.88-1.68,1.81-1.26.29-3.93-.09-2.2-.93-.6-.62,1.15-.79-.05-.74-1.88-1.34-2.47.44-2.09.55-4.37.55-.83.27-4.26,1.37-.33.74-.71,1-2.17,1.24-4.62,1.22-2-.25-6.23.71-4,1.67-2.05,1.17-6,2.49-3.9.8-1.31.07-1.67-.06-2.76-3.18-2.38-3-4.21-.85-3.32-2.32h-7.38l-2.65-1-.43.15,1.28.8,1.5.57h-.94l-3.78-1.06-1.95-1.16-.17-.58,2.29.79.62-.06-2.65-1.64-1.47-3-1.74-.92-1-1.76-3.26-2.65-.57-2.46-1.07-1.77-1.84-5.76-5-5.95-8.05-8-1.28-1.93-.2-1.6-3.2-5.77-2.83-5.59v-.66l-.27-.88-1-.55-.6-.53-.78-1.28-2.34-8.12,3.17,5,2.57,2.83,1.4.84v.83l-.72,1.15-.14,2.1.51,1.61.36-2,.93-1.26.37-2.45-.89-1-2.37-1.67-1.93-2-3.46-5.66-.42-3.34-1.21-4.44v-.91l-.32-1.29.71-3,1-2.15.23-1.1-.53-7,.55-8.27-.29-.55.25-.53.14-3.74.74-8,2.68-12.21,1.41-4.28,3.45-7,1-3.33.23-4,.07-1.33-.2-.69h-1.15l-3.55-6.3-.63-1.72-.65-4-.53-1.31-.65-2.86-.54-1.16.65-1.69.7-1.28v-1.07l-.22-1.25-3.71-.87-1.43-3.29,1.56,1.18,2.86,1.5.78-.07.72-.25,1-1.81,1.51-5-2.61-3.17.47-.45.53-.22,2.18.24,1.4-.54,1.69-2.13.62-2.13-1.87.71-.27-.81v-.81l1.06-.31,1.42-.15.85-.54.56-.7.26.76.52.52.9-.75.56-.53.15-2,.31-2,1.77,1.5,2-.58,1.26-.81,1.16-1-1-.39-.88-.15-2.17-4.22.55-.3.58.13.3.59.62.69,1.39,1,1.29-.76v-.51h1.72l2.84.52,1.82-.27-2.07,1.48-1.75,1.49.94-.3,2.75-1.78,2.9-1.18,2.06-1.5,1.32-.71,4.57-3.24,1.94-1.39,2-2.36.15-1.75,2-1.91,2.16-2.3-.92-1.71-1-1.32-.69-3.32.69-.24.95.58h.69l.93-1.53h1.56l.41,1.84-.83,2.15.8.2,2.18-.77,1.4.3-3.76,2.78-.13.67,3.11-2.16,8.05-4.16,3.6-.63v-.65l-1.14-1.73,1.62-3.35h.82l.46.46v.75l-.55,1.28-.64.67-.61.22.38,1,.72.55,1-.62,1.21-.42,5.3-.53,1.8-.39,1.88.06,4,1,2.9,1.32,2.13.56,7.17.17,3-1,.4-.51-1-.9-.42-.59.86-1.28,1-.87,2.09-.9,1.33,1.56,2.63-.16,2.09,2.56.95.89,3.24.51.84-1.06.5-.08-.1,1.17.36.91,1.72,1.93.13.63-1.52-.11-.77.28-.1.8,5.15,1.35,4.49.76,1.24-.52,1.37-2.53,1.4-.71,2.14-.14,1.42.61,1.18,2.33.64.44,1.28-.76.51-1,.21-1.17v-1.13l.29-.82-.17-1.85-.9-.52-.73-.24-.39-.45v-.64l5,1,1.1.7.43.65.18.91,1.35.25.76-.17.93.17.82.59,1,.24,1.48.91,1.11,1.62.69.6-.21,1.78.75-.43,1.47-1.81.77.44.76.64.33-.62.3-1.08,1.44-1.05v-1.18l-.89-.19-.95-.47-1.33-1.51-1.12.19-4.81-1.12-1.28-1.15-1.74-.83-1-1.48.53-.61v-.57l.34-.22.74.11,1-.6-.6-.46.94-1,1.27-.4,1.67-.91-.19-.36-.08-1.6-.86-1-.29-.62.16-.72h-1.64l-1.07,1.24-.27,1.75-.7.31-2-.28-1.38-1.36.58-.83,1-.76.78-.86-.1-.53-1.25-.39-.54.75-.51.31-1.41.12-1.59,1.5-3.05.95-1.95-.57-2.34-1.22,1.13-2.84,1.64-2.19h1.72l1.41.18,1.72,1.44,6.47,1.26,1.11-.66,1.26-.76,1.85-2.64,1-.09.71.13,2.82-1.06,2.44-1.24.55-.1.93.08,2.29.71,5-1,.84-.17h1.74l1.94-.34.21-1,.3-3,.51-2.35.33-.31,1.22,1.17.59,1.21.24,2.18.54.63h.71l.89,1.07.52,1-1.86.91-1.38.28-.3.51,6.47-1.59,1.61-2.28.38-.24.66-.43.15.58-.84,1.21.47.23,3.2-1.37.37-1.19,1-1.28v-1.69l.88-.14.89.63.51-1.14.58-.41.72,1.25-.17,1.44-2.26,1-.62.53-.55.78,3.89-1.24,4.82-1.35,1.19-.62,1.29-1,1.21-.76,1.29.06,2-.53,1.63.31.54.37.33.66-2-.14-3.56,1.16,4.93.54,5.75,1.41,1.22.65h.61l.12-.7-.08-.84,1-.87,1.21-.35-.5,1.08-.25,1,1,.65-.13.65h-.91l3.33,2.35,2.85,1.51,1,1.38v.79l-.32.42-.92-.74-.68-1,.21,1.46.84,1.29,1,.13,2.19-.93,2.64-.72,1-.65,1.27-.87,1.52-.18,3.9-3.18,1.59-.54,1.22-.17.35-.5-.45-1,.2-1,.46-.67,4.38-1.59,6.49,2.33,8.37,7.86,10.19,6,2.55,2.76.37,1.44v.84l.76,5.53-.71,5.13-.39,7.89.85,1.21.69.71.64.37.4-.56,1,.1.52-.66.16-.65-.06-1.91-.72-.34-.93-1.14.62-.47,1,.24,1.28,1.35.42.12.79-.86.82.63.18.51-.31,1.35-1.26,2.11-1.5,3.38-.85.36-.44.4,1.19.76.76.81,4.22,6,1.92,2.08,1.33,1,.89.25h1.12l.1-.71-.42-1.16,1.4-.82,1.44-.26-.7,1.54.42,3.66,1.16,2.8.62.11.6-.36.61-1.72.57-.78.85-.63-.87,2-.76,2.3.55.34,1.25.39,1.91,5.37,2.22,2.78,2.89,1.22,3.78.4.68,1.84,2.58,2.41,2.73,3.73,1.1.34,1.44.21.86.76-.3.87-2.66-1.32-.65.33-.26.87v.82l1.31,1.52,1.76-.29,2.51-1.41,2.29-.11,2.9-2.17,1.3-.24,1.73-2.42.36-2-.2-3.8,1-2.7.57-2.87h.29l.23.58.21.13-.79-5.8-.36-8.7-1-4.57-1.34-3.43-1-1.57-2.19-2-10.83-17.12-1-1.62-1.46-1.86-1.17-3.4-.8-1.33-.78-2.28.5-.14.74.37v1l.42.91,1.24.37.28.38-.46,1.36.14,1,1.09,2.13.37-.68-.09-1.54.12-1.35.43-.2.46,4,.74,2.71,2.78,4.26.85.49-1.92-3-1.08-2-.54-1.7-.27-1.81v-1.25l.53-1.32-.95-1.2-7.51-8.24-4.94-7.09-3.67-6-2.73-6.4-1.26-2.27-2.54-6.91-1.15-1.56-.46-1.32-.33-1.39.18-.83.14-2v-1.6l-.26-.73v-1.47l.56.28h.82l.93-2.06-.86-.81-.87-.19-.13-.39,1.35-.66.38-1.39.51-.85.5-1.3-.37-.08-.42.31-.63-.07.15-.75,1.06-1-.06-.71-.43-.33-.32-.68.44-.9,1-.42.41-.79-.08-.5-.61-.41-.43-.67.44-.41.62-.1,1.81-1.48.51-1.83-.31-.72.37-1,.91-.45.47-.44.76-1.66-.24-.56-.51-.17-.64-.52-.78-1.14-.41-1.62,2,1.8.38-.33v-.65l.44-.4.62,1.27.42.58h.5l.92-1,.35-.64-.09-1.42-1.12-.8-1.84-.31.93-.66,1.86-.18h1.68l1.39-1.07.39-.91.74-.51,1-.15,1.51-1,1.13-1.23.51-1.38-1-1.42,2.17-.06,1-1,1.59-2.11.07-1.88,1.32-.86,1.2-.61,1.93-2.37.54-1.15-1.4-2.27.5-2,.17.81v1l1,1.14.21-3.35,2.4-5.77,1-1.59,3.55-4,.2-.12,2.33-1.45,6.26-1.54.31-1.75-.53-3.46.87,1.73.27,1.64.31.94.12-2.3v-2l1.11-3.09.63-1.14.63-.69,1.64-2.38,1.81-2-.48-.44-.35-.68-.64-2.67.61.58.76,1.32,1,.06.64-.44,1.4-2.29,1.38-.17,2.38-.76,1.54-.49,1-.33.19-1,1.3-.74,1.54-.59.88-1.61.75-2.15-1.74-.59-4.24,2.22-2.54.11-1.45-.72-2.11-2.07,4,2,1.35-.08,1.94-2.27.08-.66-.15-1,.33-1.38.55-1.3-.79-.5-.78-.27-6.5-.8-1.35-1,2.68.57h2.41l1.55-.89v-1.58l.51-.2.81.26.62,1.31.6.64.61-.4.9-.12,1.94.1,1.64-.17.95-.83,1.47-3.09,2.25-3.54-.16-2.41-.62-1.43-.5-1-.89-.89-.67.1-1.58,1.81.54,3.44-.52.8-.58.18-.37-1.9-.23-1.82-.61-1.72-2.2.22-.75.72-1.39.7-2.24.58-1.59.72-1.83.24-.27-1.49-.82-1.83-.38-1.87.65,1.49,1,1.23,2.13.62,1.17-.6.63-1,.3-1.44.93-.37h1.54l-1-1.22.86.22,1.21.08-.22-1.37-.43-1.2,1.65.44h1.72l1.2.34,1.28.92-1.51-2.77-1.48-1.94-1-.65-.45-.79v-2l-.36-.49-.07-.76.17-.5.57.38.71,1.16.16.29,2.65,5,2.11,2.84,3.46,3.77,1,.8-.68-1-4.86-5.8-3.18-5.72-1.06-1.89-1.34-1.86-.87-1.74-.76-.82-2.28.3h-1.63l-2,1.89-1.37.26-.58-1.16-2.39-1.09-1.21-2.25-1.47.19-2.62-.09-1.39-.56-3.05.36-.53-.13-.46-.28,3.73-.82,5.08.61,1.08-.4.83,1.39,1.8.94.89.6,1.13.49.83-.7.63-1-.57-1-.59-.62-1.44-.9-1.63-.23-2.09-1-2.56-1.87-.42-.51-.16-.49,4.3,2.81,1.45.32.78-.78-.35-.56-.21-1.06h2.22l-.25-1.45-.54-1.18-1.67-.24.72-1.07-3-.31-1.19-.49-1.5-1.35-1.71-.64-2.66-1.92-1.6-1.46-3.45-1.76.6-.2,2.31.82,2.34,2.1.65.3,5.8,3.61h.9l1.36-.51.34-1-.2-1.45.19-1.17-.27-.87-1.71-.94-2-.41-1.59-1.26-1.62-.34-4.22-.09-2.9-2.47h-1l-1.66,1.09-.67-.05-.83-.69-.22-2.68v-1.47l1-1.87.86-1.14.39-1.28-.35-2.24.75,2.09-.16,1.54-.92,1.41-.72,2.47-.07,1,.57,1.64,1.19-.12.95-1.19,1.11-.39.45.93.8.74,1.18.8.1-1-.28-1,2.12,2,2.79-.09,2.35.45,1,.7,1.11.46-.16-1.07-.78-.93-1-1.18-4.43-2.57-.82-1.48-.51-1.4.43.55.4.73,1.63,1.66,1.09.34,1.28.5.62-.33-.6-.89-.91-.87-.93-.91-1.62-3.9v-.94l-.19-1-.36-1.09.14-1-.66-1-.92-1.06.16-.11,1.27.4.44-1.25-.38-1-1.08-.36-1.74-1.47v-.31l2.42.21.12-.61-.31-1,.57-.6v-.83l-.15-.43.15-.39,1.23,1.33.13-.65-.33-1.7.45.24.33.74,1-.77.48-.76v-.79l-.37-1.07.14-.75.78-.4.6-.52.27,1.6,1.38-.55-.36,1-.55.35-.44,1.15,1-.05,1,.16-1.41.61-1.44.4-.86,1.38-.55,2.73,1,2.37.92-1.5.18.79-.25,2-1-.1-1,.3.05,1.16.22.85,1.13-1.06.88.32.67,1.1-1,.93-.76.31v2.27l.42-.4.17-1.08h1l.83.83,2.19,1.12.57-.25.36.37-1.65.5h-1.35l-.87.65.1,2.16.75,1,1.18,1.21,1.64.42,1.17.44.38-.43v-.59l.26-.27.49.7.35-.49.47-1.1.41-.26v.92l.5,1-.06,1-.4,1.05.66.26h.57l1.18.76-.22,1.18v1.27l1.71-.56h1.23l-.16,2.96-.75,1.57-.7,3.07-.14,4.63.37,2.68.46.94,1.07.93.45-3.14-.05-2.66.43-1.12.78-1.14.91-.67.54-.65-.53-1.35,1.16-8.56.12-.87.57-1.52.36-2.47.9-.54v-.91l-.36-1.69.13-.5.29-.49.33.22.23.85.24-.44v-.88l-.15-.57-.23-.92-1-1.28-.68-.22-1.07.51.63-1.06.16-1.94-.38-1-1.64-.36-2.64-2.25-1.89-2-1.33-3.52-2.23-1.85-1.19-1.18-.32-1.49-.41-.63-.37-1,.81-1.85.2-1.39.43-.85.21-.4,1-1,2-1.24.92-2.15-.14,1.13-.37,1.4-2.65,1.68-.77,1.07-.29,1.71-.14,2.35.45,1.32.16.82,3.3,2.12,2.09.51,1.8,1,1.24-.45,1.21.09,1.38.46.21,2,.05,2h.5l1.54-1.76,1-4.63.37-1-.23-.87.21-.56.72-.88.64-.11.41-1.07-.13-1.37.12-.72-.61-1.1,1.18-.11.62-1.84.5-2.53-.4-4.32.09-.83.35-.47.68,3.22.3.77-.35-2.73-.58-3-.23-2v-1.66l-.25-1.56-.63-1.3-.68-.87-.6.67-2.88.39-.74-1.27.06-1.69.33-1,.33-.64.44-.44.5-.85.37-.9.45-3.47-.23-1.57v-.08l-1-2.62-1.42-1.93.82.4.88.7.84,2.15.37,2.89-.15,1.6v1.85l.41-.68.29-.92.74-.57.74-1.23,1-2.18.42-.69.49-.8,4.67-4.84,2-1.54,1-1.79h1.2l5-2,1.27-1.22,1.6-.14,2.43-1.61,1.9-1,1.24-.34,1-.28,3.09-2.16.6-1.81-.94-3.49.4-1.64-1-1.61h.49l.55.31.55.7.8.53.34-.67.51-1,.4-.18-.07,2.26,1,2.28.45.41.9-1.38,1.37-.74,2.62-4.56.5-.09.85,1.86.16,1,.31.4,2.08-1.83.74-1.25,4.36-2.78.94-.51.57-.07v-.71l-.78-1.79-1.56-2.7-2.59-1.51-.82-.08-.61.15-.44.39.2.35.79.47.13-.65,1.07.29.62.84,1.88,1.58.39.84-1.43,1.77-1.9,1.62-2,.16-1.51-.41-1.39-2.37-1.79-.35-.08-.71.24-.5-2.92-2.93-1.32-.27-2.66.26-.88-.34.88-2.5.37-1.52.15-1.26.95-.75.9-1.34.6-.37-.06-.55-.42-.31-.43.12-.5.39-.55.11-1-.74-.61-.9-.74-.82v-2.44l-.3-2.67.29-.95.48-.73.13-4.66,1.21-3.31,1-3.55-.68-.39-.53-.13.53-2.24,1-1.89,1.13-.89.14.75.22.56.57-.42.54-.7.63.38.55.17v-.71l-.6-1.09-.21-.87.39.1.41.67h.48l-.34-2.09.32-1,.54.76.66,1.22.4-.29-.26-2,.34.29.75,1.12.46-.36.23-1.2.85-1.31,1.65-.36.77-1.44.46-1.48-.49-1.43.09-3.86-.71-1.58,1.09-1.56.13-1.46.32-.6.42,1.16v1.19l.3.06.46-.38.42.09-.62,1.58.08.89,1.12-.53h1.67l.81.53h.61l-.11-.94-.66-1.39v-1.45l-.09-1.31.72.54.73.21.52-.84.25-.84.35-.31.6-.27h1.22l.7.84.89.81.42-.54.23-.52-.06-.94.8-.11-.08-2.66.55-.44h1l1-.34.57-.56v-1.51l1.16-.76.87-1.27,2.36-.57,1.38-4-.23-.38-.42-.21-1.31.2-.56-1.06.07-1-1.06-1.7-.76-.8-.17-.59.72.24,1.24-.84.82-.11.51.83.69.36,2-1.23,2-2.23,1.27.48.8-1.2.8-1.6,1-1.33.21-.75-1.58-1,.83-1.27.1-.61.34-.53v1.3l-.19,1,2.69.85.88-.42,3.26-4.08,2.11-4,2.17-2.63,1.26-2.44,1.35-.94.76-4.31-1.44-1.54-.18-.66,1.86.89,1.18.78.77-.84,1-.69v1.42l-.32.78-.87,3.36-2,4.34-.2,2.36.66.13.55-.16h1.27l.3-1.46.77-1,3.4-1.21,2.87-1.89,2.48-.5,3.42-2.08,3.26-1-.74,1.36-3.42,2-3.4,3.82-.5,1.82,1.65,2-2-1.07-1.67.28-.56-.83-.35-1v-.66l-.24-.81-1.68.19.78.33-.09,1.16-3.08,3.21-1.37,2-6.37,11.09-.26.61-.11,1,1.51-1.4.79-1.09v.62l-.76,1.52-.59.93-1.16.65-1.5,1.39-.88,1.6-.41,1.45-.15.85v.74l1.44-3.76,1-.31-1.29,5.07.62,4.68.52,1.18,3,4.54,1.7.81.16-.88v-.82l1.33-.17,1.15.82,2.64,2.63h1.19l1.09-.93,1.35.15.35-.3v-.81l.51-.33h.66l-.78-2.28.73-1.65.76-.46,1.11-.44,1.68-3.95v-1.35l.92-2.51.41-2.9,1-1.46.13-2.73.64-.06.38-1.13-1.14-1.25-.58-.4-.25-2.25,1.17-1.4,1.67,1.42.2-1.41-.36-.78.07-1.32,1.29.29.9.85,1.18.22,1,.07,1.93-.82.22-.89v-.68l-.75-1.14-1.2-1,1,.14,1.22-.26.83-.7,1-.29,1.25-2.2.84-.37.65-.47,2.6-3,2.58-2.67,2.19-3.28,2.37-2.58,2-3.13.81-.66.53-1.12.73-.93.82-.52,1.07-1.23.77-1.58,1.23-1.15h1l.22-.57.06-.94-.82-.44-.6-.09-4.4,2,.6-1.34.85-1.17-.27-.66-1.79-1.28-1.61-.85-1.13-.28-1.54,1.87-1.55.52-1.74-.41-1.19-1.32-.62-.86-.54-.1-1.87,4.15-1.84,2.49-.08.59-.26.57-1.59-.06-1.86,1.26v-.89l-.28-1.1-2.84.66-2.42,1.11-1.1,1.12-.86.58-.53-.37-.78-.31-2.38-.23-.74.3-1.45,1.18-3-.8h-2.74l2-2.92-.83-.46-.69-.1-3,.88-1-.1-4.14,1.59-.8-1.21-1.48-.28-.53-1.31-1.32-1.3-1.81-2.7h-1.33l-1.85-1.89-.84-1.05-.13-1.51-.48-2.09-1.54.18-1.21.53-1.45,1.58h-1l-1-.25,1.63-3.76.9-3.47-1-4,.1-2.39.3-1.3-2.64-.34-2,1.06.06-1.24-2.35,1.94-1,1.45-1,2.27-1.31,1-.93-.15-2.44-2.5-1.55-.42-4.91.58-2.37-.51-.86.26-1.93,2.14-1,.18,2.21-3.18,1.65-.28.73-.77,2.07-.64.45-1.2.65-1.24,2.68.46,4-.09,1.53-.28,1.09-.75,1.87-2.82.42-1.41,1.29-1.46.39-.9v-1.84l.4-1.33,2.73-2.77v-2.86l-1.17-2.6-2.94-1.08-1.47-.11,1.66-.78,2.14-.33-.69-1.19-1-.61-5.13-1.58-3.83-.07-7,1.83-1.49.63-3.77,2.7-3.28,1.84-4.11,3.84-4.67,5.74-4.28,4.33-2.84,4-3.28,3.73-1.61,2.56-.76,2.18-1.68,2.49-.75.54-1.33,2.56-2.08,5.85-1.37,2.31-.24,3.22-1.18,4.84-1.49,3.9.06,2-1.17,2.38-.83,4.07-1,2.23-4.59,5.68-1.74,1.39-.92,1.7-2,1.52-2.44,2.36-2.74,1.5-2.07,2.49-.71,1.11-.2,1.56-1.54,1.32-1.3,1.59-1.87,4.32-2.76,2.65-1.56,2.54-.24,3.2-.8,2.53-.44,2.81v.95l.38,2.58-.29.82-2.5,1.49-2.75,4.2-2.54,2-3,4.09-1.65,1.34,3.36-5.39.18-.23,2.49-3.15,1.49-.95-.89-1.56h-3.61l-1.12-.44,3.8-.66,1.43-1.8.71-2.17.75-1.45,2.87-1.56,1.44-3.94.52-2.84.16-.94,1.23-1.58-.07-1.88,1.42-1.63,1.9-1.21,4-5.69.15-1.64,1.89-1.73,1.33-2.2,1.63-.32,1.49-1.1,3.79-3.53,1-3.16,1.19-2.22,2.35-3.79,1.11-6.57,1.23-2.21,2-5.93.38-2.16-.1-2.57-.32-3-1.65-.94-1.53-.11-2.38.14-5.12-.35-2.05.84-2.13.53-1.41-.63-1.4-.18,8.31-1.35,4,.33,1.37-.4,2.28.45,1.2-.14,1-.58,1.1-1.57,1.06-3.4.28-4.2,1.59-6.25,2.2-3.36v-1.46l.6-1.33,1.17-1.46,1.28-.88.59-1-1.1-.57,2.15-2.25,5.28-4,.9-.46,1-.76.42-2.46-.94-2.92.07-8.73,1.67-2.36.58-2.28.76-.48.19-1.21.84-.67.63.09,1.31-.92,1.48-.26,1.1-2.61,2.47-.4,5-3.77,1.17-.08,3.69-1.31,3.68-2.59,4.11-1.17,1.4-1.49,1.69-1.11,1.41-.5h2l4-1.71.65-1.51,2.06-1,1.21-.88,1.26-.67,2.06-.71,2-.92,2.5-.47,2.73-1.35,1.26.14,2.11,1,3.76-4.37,1.28-.47,2.28-1.61,1.16-1.7,2.42-.71,1.65-1.36,3.67-2.49,1.43-2.3-.28-2.24,1.4-2.58.57-4.69,1.14-3.17.17-2.57,1.25-7.75-.46-1.29v-.49l.45-1.18.58-.62,1.88-.91,1.68-1.43.56-.62.89-2.42.57-1,2.65-2.73,1.53-1.21,2.39-.69h.06l.73-.57.3-.47,1.81-6.64,1.34-3.74,1.13-4,.79-5.69-.37-1-.77-.76h-1.33l-.84-.19-2.34.1-.34-.37,1.4-.32,1.22-.7.28-.86-.32-.7-.92-.52-1.29.05-2.39.88-1.69,1.17-1,.48v-.71l1.21-.83,2.53-2.91.21-.63-.54-.48-1.19-.64-.86-1.59-.36-1.12-2-1.67-.73-2.83-.79-1.37-.57-.46-.82-.43-.39-.4-.32-.56-1-.46-1.44-1-2.7-1.06-1.65.81-1.08.11-1.92-1-.73-.67-.57.35-1.53,1.24-1.16,1.21-.88,2.22-.39,3.77-.39,1.71-1.54-1.23-.58-.18-1.21.38-.1-.22.09-.58,1.43-2.94.36-1.25-.18-.74-.76-.86-1.33-1-4.73-2.74-2.2.73-5.89,2.87-.83,1.16-.11.79.14.33.86.43,1.15-1.13,1.12-.61,1.56-.42.06.26-1.43.95-1.86,2.09-2.32,3.23-1.47,3.37-.62,3.53-.81,2.89-1,2.25-.8,1.38-1.71,1.79-.26.74-.12,2.15-.7,2.45-1.38,1.77-.2-.15-.2-.16.43-.91-.06-.59h-.71l-.17-.64.71-1.8.17-1-1-.4-2.88-.14-.73-.65h1.75l1.32-.44.12-.41-.08-.52-.52-1.28-.09-.71.12-.74.89-1.63.21-.76.64-.56,1.06-.38,1.49-1,1.85-3.39,1.2-1.57.12-.37v-.79l.32-.74.64-.68,1.22-.63.72-.69.14-1.37-.19-2.9.45-.89,1-1.41.18-.92-.24-.59,2.11-2.16,1.76-1.19.68-1.75-.13-1.79.16-1.4-.23-.35-1.29-.37-1.45.7-1.18.19-1.46-.15-1.57-.32-1.45-1.56-1,.46-1.1,1.09.34,1.08-1.22,1.71-1.06.44-3.25.7-2.24-1.34-1.78-1.37-1.42-1.38-1.2-.07-1.81.71-.09,1.19.12,1.65v.63l-1.23,4.77-.06,1.77-.37-1-.09-1.74.4-4.72v-1.07l-1,.09-.56.92-1,.08-.84-1.23-1-.34-.82.84-.26,1-2.42,2-.77,1.46-.72,3.42-.5.46.2-1.74-.08-1.63-.29-.84-.63-2.55.47-2.13-.1-.81-1.9-.68-1-.71-.92-.34-.23-1.27-.58-1.45-.71.33-.76.06v1.84l-1.22-1.36h-.47l-1.64-.49-.64-.92-1,.2-.11,1.1-.42,1.46-.92.44-.55-.2-.54-.67-.77-.15-1.72.57-1.15.14-.28-.47,1.13-1.23-.52-.38-1.84-2.22-.58.2-1.14,1-1.69.42-.54-1,1.54-1.79.34-1-1.14-.05-1.73.83-2.58.85-1-.17.49-1.48,1.24-.83v-.38l-1.16-.38h-.53l-1.34.61-1.94-.68-3.24.34-1.68-.73.17-.49.64-.76.74-.34-.33,1.24.35.28,3.52-.39,5.37-2,1.2-1.31-1-1.65-1-1.25-.31-1.43-.82-1.61-4.51-1.46-.93.23-.65.6-.68.13-1.09-.11-.5-.17.07-.66-.28-1.56.09-.58-.12-.18-1-.33-1.85.3-1,.51-.85.8-.93.35-.67.05-.65-.27,1.19-.4.28-.32.32-1.2.7-.58.49-.87.53-1.47-.26-1.17-1.63-1.43-.11-.73.26-.66-.25-.71-1.06-.57-2-.11-.65.59-1.12.22-3.681-2.49-1,.44-1.76,1.64-1.1,1.44-1.14,2.78h-.5l.28-1.77.37-1.19,1.5-2.52v-2.76l-.89-3.1-.35-.32-1.11.71-.76.71-1.45,2.3-.47.35-.2-.61-.42-.2-.65.2-.51.88-.46,2.8-.56.32.19-1.69-.12-1.18.85-2,.77-1,.72-3.33-1.41-1.37-1.66-1.18-.6-.2-1,1-.95.3.08-1.05-.12-.33-1.33-1-.5-.26v-.17l.48-.79-.34-.07-.81.14-.63.38-1.15,1.38-1.79,1.42-1.3.69-.53-.32.41-.5,1.38-.69.82-.79.86-1.3v-1.82l-2.51-1.84-.93.31-.36,1.67-.2.11-.27-.81-.51-.43-1.75.23-.51-.39.66-1.24.21-1.61-1.41-.66-1.48-.83-.89-.73-.64-.95-1.37-.85-.52.95-.13,1.27-.56-2.12-1.4-2.16-1.78-1.14-1.08.55-1.09,1.07-1,1.59-.45-.1.22-.69,1-1.84.16-1.84-.71-.93-.95-.42-1.36-.15-1.08-.12-.91.59v.52l-.16.59v.79l.65,4,.41,1.36.26,1.8.32.78.55.55.68.29,1.05.17-.05.43-1.94-.29-.75.19-.52.47-.28.45-.06.46.42,1.74.36.76.41.51,1.35,1.07.82.23.88-.09,1.14.17,1.39.43.5.28-.22.34-2.6-.62-.81.08-1,.71.09.47,1.87,1.71.11.29-1.24-.17v.67l.43,1.47v.7l-.64-.06-.27.15.08.32.89.92.47.33.46.15,1.17-.15h1.31l.1.44-1.15.63.08.51-1.55.32-.15.27.19.38.48.48-.92.24-.39.27-.11,1.47.2.32,1.08.26v.33l-.94.64-.52.67.26.61.76.82,1.45,1.2.57.59.42.68.27.69.34,2.18-.14.07-1.4-2.37-.5-.63-.93-.74-1.35-.87-1-.5-.77-.12-.55.34-.5,1.6v.75l.17,1.28.36,1.79-.51,1.55-1.38,1.29-.82,1.06-.75,1.75-1.39,2.23-1,2.37v.61l.22.92.44,1.22.33,1.74-.34-.23-.73-1.85-.37-.57-.94-1.86-1.72-2.35-.35-.27-.1.92.32,1.08v.82l-.36,2.83-.4.48.29-3v-.61l-.37-.56-2.05-2-.58-.27-.73.6v1.55l.93,4.56.18,1.84-.24,1-.41,1.07-2.4,1.86-1.83,2.43-.16-.45.49-1.16.87-1.06,1.84-1.64.87-1.26.22-2.07-.17-1.33-.77-3.47-.72-1.56-.44-.76-.42-.44-1-.39-1.82-2.45-.66-.6-.92-.49-1.18-.4-.9-.11h-.66l-2.12,1.29-1.21.33-1,.47-.8.63-.74,1.06-1.47,3.3-1,1.27-.9.22-1.85-.27-1.27.2-.29-.5,1.46-1.21.7-1.17v-.56l-.08-.49-.2-.43v-.36l.19-.31.42.17,1.63,1.67.36.08.3-.32.37-1-.15-1.06-.44-1.54-.18-1,.09-.45-.1-.37-1-1-.15-.53.08-2.17-.16-.5-.82-.4-2.54.95-.7-.81-.65-1.82-.33-1.53v-1.26l-.24-1.05-.48-.82-1.25-1.64-.81-.72-1-.62-.87-.21-4.94,1.53-1.26.54-1.5.34-.67-.63,1.41-.35,4.91-2.15,1.41-.86.7-1.31v-1l-.14-.45-.51-.94-.23-.38-1.24-.9-.69-.72-.62-1-.48-.92-.33-.89-.43-1.56-.34-2.53.12-1.22.42-1,.19-.84v-.7l-.26-.68-.49-.65-1.28-1.25-.53-.41-.64-.15-.49.44.08.74.32,1.27v.75l-.73.5-.55,1.26-.7.38-1.11-.05-.8-.56-.5-1.08-.46-.67-.42-.25-1-.17-.87.47-1.2,1-1.71.44-3.33-.15-1.4.13-1.55.57-.73.09-1.57-.55-2.7-1.59-.19-.68.53-.79-.1-.27-1.37.38-.68-.13-.1-.52.25-1.41.67-.79.14-.54v-.4l-.5-.34-2.56-.51-.39.41v.89l-.31.65-1.48,1.12-.39-.17,1.12-1.29.15-.56-.1-.29-.75-.74-.59-.3-.85-.71-.65-.38-1.62-.57-1.53-.15-.47.51-.4,1.1-.39.67-.39.12v-2.46l-.28-1.43-.21-.47-.3-.39-.51-.6-.23-.15h-.46l-1.22.6-1.39-.65-.75-.17-1.89-1-1.25-.5-1.45-.39-2.39-.93-.79-.1-.47.26-.71,1-1,1.72-1,1.4-1.56,1.61-1.43,1.8-.18.65,1.11.84-.1.23-3.24-1.27-1.26-.28-.84.16-2.27-.08-.56.29-.54.63-1.87,2.88-.27-.2.77-1.44-1.7-.82-8-.48-2.71-.37-3,.45h-1.61l-1.75,1.4-1.91,2.77-1,1.79-.12.81v.74l.35,1.41.74,1.88,1.71,3.3,1.09,1.56,1.12,1.12.73.47.9.43,1.49,1,2.12.8-.71,1.84-.52,1,.16.87,1.26,3,.12.46v1l-.13,1.57-.43,1.82-1.12,3.46v.68h.6l1.1-.51,1.41.27,2.23-1.5.23.28-.53.56-.09,1.95-.13.41v.82l1.11,1h.77l1.18-.29.24.35-.64.95-.27,1.74.73,1.12,3.24,3.51v.26l-.84.93-.05.28.54.4,2.35-.33.34.31-.16,2.07.31.76.72.83.2.71-.84,1.95.1.61,1.19,1.2.8.39-.4.32-2.57-1.52-1.27.48-.09.39.63,1.43v.47l-.54,1.88.34.56.84.44.38.52-.32,1.65-1,1.55-.49,1.09-.34,1.32-.36,2.32-1,3.06-.1.62v.9l.17,1.2.4,1.68.3.6.71.76,1.23.09,4.48,2.44,1.58.53,2.37.52,1.63.58.91.65,4.45,2.3,4.35,4.09,1.46,1.63.63,1.05,2.74,3.69,1.26,1.87.89,1.57,2.38,5.31,1.26,3.47,1.24,3.94.75,2.72.43,3.2.11,1.9-.46,2.47-1,3-.72,2.55-.4,2.06-1,2.57-2.73,5.23-.47,1.24-.91,1.42-2.06,2.38-1.4,2.12-1.53,1.64-3.49,3.18-.54.7-7.27,5.81-.37.63.08.33h.52l.53.23.52.42,1.47,1.88,1,1.71.83,1,1.24,1.17.93.71,1.06.35.87.1.15.21-.22.89-.6.54,2.22.36.8.35.27.37-.57,1.22.08.37.78.85,1.21.5v.17l-.68.09-.31.47v1.58l-.22.57.49,1.12,1.18,1.66,1.43,2.72,1.66,3.76,1.47,3,.89,1.15,1.74,1.11.45.75-.11,1,.15,1,.84,1.93.39.46,1.95,1.38.75.68.85,1.68.54,1.68.26.34.92.35-.45.32-.31.9-.23,1.59-.67,2.4-1.08,1.75-.23,1.09.15,1.38-.17,1-.5.64.27.77,3.31,2.56.69.62.22.54-.76,1.62-.11,1,.16,2.28.32,1.39-.72-1-1.27-2.28-.46-.68-.63-.62-.81-.57-.86-.27h-.93l-.56-.18-.77-1.25h-.53l-1.56,1.62-.15.56v1.06l-.23.92-.48.93-.18,1.43.09,1.94.18,1.3.26.67.38.57,1.3,1.07,1.83,1.23,1.07.72,1.31,1.35.78,1.28-1.9-1.82-1-.62-2.06-1.29-3.08-2.6-1.81-.8-2-.47-2.11-.14-1.3.05-1.2.77-1.79,2.85-1.05,1.48-.64.3,1.44-3.23,1.71-2.08.4-1-.27-.83-1.06-1.64-1.82-2.46-1.29-1.54-.77-.63-4-2.57-2.24-1-2.08-.39-1.6-.7-1.1-1-1.14-.39-1.17.23-1.86.9-.19-.1.47-.71,1.15-1.11.44-.72.26-1-.65-1.18-2.31-2.13-1.79-1.37-2.65-2.65-1.34-1-1.31-.6-.86-.6-.69-1.26-.17-.69-.07-1.89.22-1.11.44-1.18-.33-2-1.13-2.67-.58-1.87-.16-2.59-.28-1.53-.57-1.26-1.64-2.86-.4-.49-2-1.73-.65-1.16-.46-2.16-.08-2.59.09-6.76-.27-.81-1.6-2.53-1.28-1.12-2.42-1.09h-1.29l-1.21.47-.76.08-1.16-1-.48-.08-2.44.88-4.14-.05-1.09.18-2.91-.4-.67.15-.5.44-.88.32-1.26.22-1.48.52-1.69.82-2.08.42h-2.48l-1.57.27-.68.52-.77,1-1.1,3.14v-.32l.85-4.25-.27-1-.86-.53-1.57-.67-1-.68-1.16-1.11-1.54-.94-1.91-.77-1.85-.45-1.78-.11-2.84-.61-6.47-1.72-4.26-.49-2.31-.55-1-.54-4.44-5-2.57-2.11-2.35-1-2.15-1.13-2.89-1.9-1.86-1.5-1.43-.54-2.94-.23-1.51-.42-5-.63-3.26-1-3.16-1.53-2.86-1.15-3.36-.24-2.25.58-9.33,4.55-2.38,1.33-1.07.87-.18-.07.69-1-.1-.45-1.64.35-.55.34-1.39,1.4-.75.56-.77.3-.06-.12.65-.54.6-.79.56-1,.56-1.48.56-1.93.26-1.41v-.89l-.31-1.25-.61-1.6-2.91-5.85-.54-1.26-1.55-4.45-1.18-2.83-2.35-5-.42-1.43-.55-2.53-.31-.59-1.09-.51-1,.39h-1.16l-3.09-.3-2.83.47-.65.52-.71,2.23-.25,4.93-.49,1.63-.08-.82v-6.32l-.16-1.12-1.41-.48-1.41-1.93-.44-.36-.47-.11-.5.14-.47-.62-.42-1.39-.4-.87-.77-.53-1.16-.29.86-.44.43-1.27.14-2.31-.2-4.14-.81-9.32.07-1,.14-2.09.41-3.85v-2.27l-.29-.71-.38-.45-.59-.37.76-.83,1.07-.16.49-1.27.6-2.53.92-2.83,1.24-3.14.64-2.29v-1.43l-.15-1.07-.34-.71.2-.29,1.15.1.45-.75v-.39l-.64-1.52.2-.76,1.72-2.53,2.55-2.25.58-.72.32-.57v-.24l-1.16-.54-.67-.63-.36-.45-.65-1.34,2,.09.36-.11.5-.6-.26-.38-.71-.59.12-.31,1.7-.23.83-.6.47-.68-.14-.3-.44-.34v-.43l1.36-1.42-.15-.57-.77-.74-1.91-1.08-.27-.28.47-.08,2.8.94,1.32.79.92.93.71.53.5.13-.23-.64-.94-1.43-.8-.89-.64-.36-.09-.59.48-.8.93-1.11.23-.67v-.87l.46-.4.91.06.69-.22.45-.49h.57l1.26.68h.68l.5-.75v-.33l-.31-1-1.82-.21-.91-.27-.56-.53-.42-.4-.38-.72-.16-.54.2-.39,1.49-.34.38-.24.33-.48.68-.11,1.57.4,3.92.17.86-.39,1.87-2.25.92-.49,1.23-.25.77-.61.33-.94.13-.94-.06-.92-.72-3.73-.45-.89-2.25-1.53-1.27-.5-2.11-.36-1.56-.91-2-1.7-1.48-.59-1,.54-1,.81-1.71,1.69-1.55.32v-.29l2.08-1.93.34-.72-.38-.28-1.33-.4-1.75-.34-5.93-2.2-.79-.42-1.17-.32-.23.16.31.79.52.49.58.33v.24l-1.28.17-1.33-.42-1.07-1.4v-.62l.38-.66v-.71l-1.08-2,2.57,2.1,4.22,1.41,3.95,1.75,2,.62,1.3.1.86-.26.44-.61.47-.23.49.14.11.22-.27.3v.29l.3.27h2.26l1.25.19,4.09,1.65,1.53.41h1.2l.89-.43.56-.6.24-.77.54-.15.86.47.72.14,1-.48.66-1,.9-2.39-.11-.48-.51-.88-1.25-1.84.22-.09,2,.49.53-.34-.11-.42-1.12-1.86-.34-.35-.9-.42.29-.3,1.88-1,.21.21.46,1.3.34.4,1.16.76.61.23.44-.06.27-.34.5-.27,1.83.84.77.2.17-.28-1.29-2.27.05-.18,1.48,1.36.91.33,1.34.17,1.38-.55,2.1-1.91,2-2.19.72-1.32.08-1.18.31-2,3.54-9.07.43-2.08.75-2.86v-.9l-.56-1.69-.77-.39-2.5-.28-4.54.37-2.22.36-6.69-.32-1.43-.72-1.12-.84-3.61-3.47-1.83-1.5-1.25-.69-1.09-.35h-.93l-3.8-.93-3.26-.27-.61.46v.28l.42,1.05-2.18-1-1.3-.9.1-.24.85-.2,2.41-.31h1.54l1.45.3h1.19l1.59-.33,1.76.64.92-.13,1,.15.33-.12-1-1.08.42-.2,1.16-.07,1.36.34,1.57.74,3.12,1.95,1.28.52,1.17.05.57.17.82,1.21.79.35,1.83,1.13,2.7,2,1.42.68,2.46-.14,1.85-.38,1.28-.54.69-.68.71-1.28.7-1.86,1.48-3.1,3.87-7.75.13-.54.13-1.43-.2-.67-.43-.57-1.06-.56-1.69-.57-2.47-.58-1-.59-.72-1v-.31l.26-.25v-.3l-.6-1,.18-.28.56-.26,4.54-.63,2.08-.66,1.32-1,1.41.34,1.5,1.63,1.23,1.17,1,.69,1.74.72,2.52.75,1.32.29.12-.16.13-1.49.44-.73.24-.08,2.52.67.94.19.27-.1.44-.6-.48-.93-1.73-2.24-1.54-1.79-.77-1.12-.52-1-.48-.59-.88-.4-2.8-2.3-.19-.34-.4-.45-.92-.44-1,.06-.26.34-.4,1-.27.24-.81-.21-.09-.31.34-1,1.16-1.7h1.24l1.39.58.12.21.66.53,1.51,1,.41.38-.61.47v.22l.47.49,1.12.67h.44l.77-.33.46.12.84.81,2.14,2.43.93.79.3.42.67,1.31.62.24.9-.25.75-.59.57-.93,1.33-2.72,2.19-1.26.5-.81.91-2,.72-.78.34-.6.32-1.3.3-2,.3-1.18.32-.34,1.17-.26.61-.48.84-1.6.06-.48-.13-1.91-.32-3.33-.37-2-.4-.66-1.44-1.61-.83-.63-2.09-1.2-1.64-1.2-1.12-.93-1-1.08-.62-1.09-.18-.55-.1-.63-.11-2.44-.11-.39h-.17l-.22.39-.32.89-.22.16-.32-.14-2-2.33-.28-.16-.11-.18.09-.66-.24-.32-.51-.39-1-1.05-.09-.42.3-.28.74-.16,1.18-.87h.78l.92.5.68-.1.44-.68,1.15-1.05.63-.8,1.15-2.36v-.7l-.25-1-.3-.68-.75-.77-.48-.32-.76-.12-1.56.14-1.93.4-.1-.49,1.08-1.24.77-1.14,1.28-2.7-.06-.37-.66-.77-.31-.17-2.56-.55h-1.62l-1.23.85-.53.14-.22-.27.08-.67-.36-.63-1-1.32-2.55-.35-1-.48.7-.65.87-.5.34-1.47-.12-.79-1.94-.52-.89.14-1.62.57-3.92.56-.75.26-2-.48-2.66-1.2h-.57l-2.25.36-1.22.55-1.13.85-1.07.21-1-.41-.82-.1-.61.21-.14.23.33.26.54.71.13.56.07,1.91.29.59.53.66.25.6v.56l.16.6.36.64.17.48v.32l.16,1.1.19.67.68,1.58,1.06,1,.28.13.89-.25,1.93,1.06.28.32v1.05l.13.62v.53l-.59.38-.34.9v.73l.11.51,2,.66.08.33-2.77,1.21h-.48l-.75-.41-.47.1-.18.12-.13.85-.45.67-.2.61-.14.84.15,1,.44,1.17.26,1.35.1,2.31-.07,5.11-.12.56-1.92,4.76-.1.51-.22,1.77.06,1.25.31,2.6v.68l-.24.67-.44.65-.45.4-.46.16-.66,1-.86,1.91-1.08,1.85-.37.29h-.32l-.3-.23-.3-.4-.83-2.05-.34-.55-4.83-4.55-2-2.44-1.57-3.4-.22-.73-.61-3.4-.65-1.75v-.57l.64-1.1h.21l.72,1.24.31.24h.92l.71-.23.22-.41.06-.67-.07-.89-.2-1.12-.3-.82-.39-.52-.67-1.61-.93-2.71-.94-1.87-1.7-1.76-.62-.68-2.69-1.63-1.54-1.28-1.29-1.47-.89-.76-1,.08-.52.36-.42.62-1,2.93-.59,1.47-.06,1.68.16,2.32v1.5l-.38,2.23v.61l.36,1.38v.61l-.5,1.9-.63,1.25-.2.68v.7l-.19.27-.35-.15-.35-.43-.36-.71-.37-.27-.61-.87-.89-.62-.46-.77-.05-2.68-.12-1.51-.53-1.83-.07-.65.38-.92-.13-.33-1-1.16-1.61-2.91-4-3,.09-.33.5-.07.59-.38h.25l-.11.45.36.26.83.09.43-.51v-1.1l.2-.92.35-.74.5-.41.65-.08.66-.32-.3-.32-.83-.46-.82-.11-.82.24h-1.18l-2.46-.24-1,.46.06-.25.74-.93.84-.87.08-.34-.37-.1-1.3.06-.94.79-1.2,1.49-1.29.42-2.28-1.16-.42-.56.15-.38-.62-.32-1.3-.07-1,.57-1.11.27h-.37l-.27-.24.86-1,2.83-3.76,1.27-1.94.5-1.12-.65-.57-.51-.2-2.19.26-.51-.35.29-.94.5-1,.21-.7.19-.11.67.76.67.46.93.42,1,.1,1.62-.48.27-.3v-.32l-.77-1-.59-1.22-.38-.49-.45-.25-.35.25-.25.74-.36.22-.49-.3-.21-.28.12-1-.14-.42-1.38-1.86-1-2.14-.34-.48-.26-.29-1.3-.7-.56-.44-1.13-1.43-1.28-.66-.17-.25.32-.71.05-.57-.21-3-.17-1-.7-2.65-.31-.72-.4-.64-1.73-2.27-1.11-1.06-1.18-.83-1.35-1.23-.19-.69.11-.83v-.5l-.46-.42-1.76.05-.52.29h-.89l-1.24-1.53-.19-1.28-.52-1.15-.36-.13-.77.13-.93.45-1.89,1.28-1.78,2.58-.54,1.8-1.3,1.76-.19.5.34.89.38.21.66.16,1.47-.12.28.25-.22.63-.58,2.42-.42.38-.62-.15-.87-.59-.51-.59-.49-.31h-.44l-.48.37-.79,1.15-.8,1.3-.23.67.24,1.21-.14.35-.37.33-.11.31.42,1.09-.06,1.31-.27,2.2.1,1.56,1.43,2.45.72.67.49.05,1.81-1.25.14.06-.59,1.54.09.45.74.82-1.17-.29-.5.14-.67.41-.45.62-.22.81-1.26,2.83v1.63l.1.63.5,1.64,1.7,2.5.76,1.25.44,1,.53.76.63.52.83.3,1,.07.88.39.73.69,1.48.89,3.46,1.51.22-.17.44-1.27.24-.17.31.12,1,1.22.79,1.23.65.78.52.34.78.11,1-.1.69-.27.78-.85,1-.49.92.66.13.58-.06.87.09.46.78.07-.1.4-.72,1.2-1.15,1.48-.57-.47.08-.56,1.1-2.47-.07-.27-1.6.93-2.09.84-.65.6-.09.76v.65l.38,1.73.27.27,1-.07v.25l-1,1.51-1.57,1.9-.55.95-.09,2.12.15.53.85.58,1.89-.5,1.06-.55.47-.74.26-1.36.13-1.83.08-.29.2-.08.31.12.38.42.44.71.34.83.23.94.13,1.05.08,1.9.34,1,.3.16h1.17l-.21.41-1.14,1.19-1.9,1.51-1.13,1.55-1,2.08-.84,1.42-.7.78-1.68,2.37-.84.63-.72-.12-1.34-.55-.79.51-1.12.15-.31.22-.23.48-1,5.6.18.65,1.44,1.74.7,1.76,1,3,.43,1.89-.32,2.17v3.36l-.31.63-.68.53-1.06.22-2.8-.54-.49.31v.28l.3,1,2.13,2.7.27.68-.25,1.45h-.08l-.23-1.43-.64-1-4.24-4.56-.54-.88v-.31l.13-.23.42-.15,1.14,1.35h1l.57-.52.52.13.77.59.76.18,1.23-.24h.41l.45-.17.34-.2.27-.48v-.84l-.07-1.16-.14-.77-1-1-.23-.11-.54.11-1.15.59-.05-.17.54-2.08-.22-.34-1.21.42-1,.6h-1l-.24-.32-.22-1.68-.25-.55-1.34-2-.07-.86,1-2.49.18-.76.08-2.23.62-6.38.38-1.8-.77.28-2.64,1.81-.15.3-.19,1-.26.43-.44.31-1,.23v-.43l1.65-3.61.29-.94v-.4l-1.42,1.24h-2.63l-.18-.18-.6-1.3-.52-.86-1-1.41-.54-.49-.57-.32h-.53l-.48.41-.69-.11-1.44-1-.71.2-.09.26.24,1.18.92,1.18-2.19.86-1,.59-1.9-1.22h-.4l-.3.25-.66.16.15.63,1.11,2.06.33.44.55,1.32v.33l-.87-.31v.54l.49,1,1.94,2.71.64.37,1.47-1,1.31-.52,1.48.29,1.65,1.1,1,.86.4.63.16.5-.09.81v.55l-.28.59-.59.61-1.35,1-1.19-.23-2.54-1.48-.38-.53-.67-.59-2.81-4.18-1-1.12-.71-.49-.44.13-.22.48v.81l.16.67.76,1,1.09,1.06.4.56.05.38-.31.19-1.87.39-.86.7-.83.37-.86.15-.88-.08-1.13-.41-1.38-.75-2.31-.58-3.37-.46h-1.86l-.49.41-.74.19h-1l-.84.19-1.32.63-.54.06-3.55,1.28-1-.32-1.47-.75-1.33-.19-1.19.36-.84-.08-.51-.53-2.29-1-1.1-.85-1.3-1.75-2.16-2.5-1.09-1.05-1.44.83-1.88.45-2.23.07-1.17-.27-1-.48-1-1.2-.21-.55.29-1.25-.11-.32-.84-.48-.83.08-.24-.12-.1-1-.16-.16h-.26l-.41.36-.41-.23-.65-.68-1.22-1.71-.31-.89v-2.34l-.37-2.77-.37-1.27-.5-.93-.76-.77-1.51-.93-1.06-.36-1.2.3-3,1.29-.88.12-4.7,1.9-2.53.52-4.11.29-.27.22-2.77,4-.8,1.5.18.41,2.12,2.21.27.49.45.13,1.23-.24.56.18h2.22l.5-.52-.31-1v-.66l1-.78.88.24,1.43.67h1.15l.87-.75.78-.46.72-.18.54.05,1.22.69.38-.58.32-1.37.74-1,1.76-1,1.64-.77.72-.2,1.12.58.15.38-.35,1.26-.66.95-.54.46-.86.63-.73.28h-1l-1.12,1.15-.25.58-.14,1.71-.27.07-.54-.31-1-.22-.34.15-.73,1.14-.38.28-.68.22-.55.1-1-.13-.78.21-1,.53-.74.15-.45-.23-2,.33-.27-.13v.49l.31,1.08-.39,1-1.09.87-.61.67-.32,1.67.06.63.53,1.25.73,1.1.61,1.55v.73l-.2.88v.84l.33,2.23.49,1.5,1.11,1.51.22.5-.61.89.11.64.45.95.55,1.91h-.34l-.91-1.06-.54-.36-.17.32-.26.05-.36-.22-.84-1.4-.82.28-.22.43-.31,2.86v.87l.1.59.87,2.47,1.85,4,.09.52-.25-.09-.59-.7-.72-1.19-1.46-3-.33-.94-1.33-2.06-.25-.75-.32-.55-.36-.36-.37-.67-.35-1-1.55-2.57-.24-.6.29.06.81.74.95.25,1.08-.26.83-.41.56-.56.25-.67-.07-.79-.32-1.1-2.4-3.15-.91-1.67-.49-2.17-.14-.16-.49-.22-.33.42-1.16,2.72-.33.27-.26-.35-.29-1.14v-.75l.09-2.05-.18-1.09-.28-.41-1-.51-3.08-.45-.37-.43-.35-1.39-.4-.95-.53-.22-.2-.31-.52-1.83-.18-.34h-.22l-1,.61-1.17-.17-3.66,1.88-1.54.59h-.75l-.47-.29-.2-.51h-.77l-1.34.56-1,.22-1-.17h-3l-1-.16-.63.12-1,.52h-.53l-2.85-.45-1.45-.4-1-.48-3.53-.61-1.56-.44-1.09-.61-.9-.33-.71-.06-1.12-.63-1.55-1.19-1.36-.64-1.19-.1-.85-.44-.9-1.24-.94-.81.16-.39,2-1.07.35-.33.17-1.28.17-.36.5-.45,2.31-.79,1-1.29,3.49,1.15,1.4-.11.38-.25.34-.4.82-1.68-.1-.34-.46-.08-.21-.45.05-.83-.45-1.58-.93-2.32-1.09-1.95-2.19-2.52-1.55-1.16-1.2-1.24-1.19-.89-1.17-.54-.54-.13-.52.47-1.54-.69-.55-.1-.14.29.8,2.24-.05.36-1.11-.45-.65-.69-.61-.27-.9-.17-3.16-1.49h-.8l-.64-.28-.48-.54-3.28-2.13-1.89-1.39-1.19-1.31-.94-1.3-1.28-2.15-.71-.65-6.19-3.48-1.72-1.26-.78-1-1.7-3.48-.57-1.19-.7-1.1-2-2.25-1.07-1-1.25-.84-2-1-2.15-.52-2-.85h-.59l-1.05-.57h-.52l-.54.39-.54.74-1,1.86-1.12,1.52-.39.31-.92.18-1.22,1.18-.68.41h-.63l-3-.93-.52.11-1.47-.63-.47-.47-.15-.49.13-.48.41-.47.67-.58,2.92-2.31.37-.64-1.13-1.33-.13-.73.74-2.9.52-1.15.78-1.39.35-.89-.14-.69-.26-.3h-.62l-.61.29-.54.58-1.63.22-.36.19.07.32.22.22.37.14.49.5-.34.33-.87.37-.83.57-.8.76-.52.37h-.25l-.46-.46-.74,1.24-.14.46-1.37,1-.36.63.15,1.32-.06,1.79-.44.93-2,.91-.9-.38-1.11-1-.87-1.14-.63-1.27-.59-1.88-.81-4.23-.08-1,.16-1.55.41-2.09.27-2.08.17-3.71-.06-1.23-.32-1.68-1-3.59-.4-.85-.57-.77h-.51l-.91.54-.64.67-.55,1.09.11.5.52.95-.64.47-.06.26.18.56,1.52,1.32-.84.48-2.59.23-1.62.47-1.57,1.93-.41.41-3.35,1.82-1.46.65-1.1.37h-.63l-.15-.41.08-.68.32-1,.41-.52,1.64-.21.32-.29.83-1.13-.08-.09-.83.35-.56.38-.68.2h-1.22l-2.2-.33-4.41.35-2.08.46-1.84,1.05-1.75,1.14-2.89,2.2-.58.5-1.09,1.17.36-.81,1-1.94.45-1.23-.1-.53-.23-.3-.35-.07-.52.26-1.19.95h-.22l.66-.88-.06-.47-1.13-1.11-.45-.16h-1.25l-.5.43.12.34-.21.29-.64.48-1,.53-1.9.32-.83.33-1.25.15-1.45-.12-1.71.52-.61.54-.39.47-.36.7-.34,1v.57l1,.61-.09.28-.56.34-1.15.17-3.49-2.47-.33.1v.33l.38,1.15v.69l-.45-.07-.66-1v-.4l.29-1.11.68-.6,1.77-.91,1.51-.83,1.5-.87,2-1.34,1.37-.52,1.42.4,1.29-.14,1.42-.53.8-.44,2-1.58.48-.15h.62l2.72.64,1.21.19h.8l1.71.44h1l1.1-.25,2.45-.94,7.08-1.56,1.39-1,.29-.56.05-1.33-.09-.59-.35-.13-1.83,1-.43.14-.57-.35-.9-.2-.5-.49-.45-.89-.5-.53-1.17-.19-2.33.58-.71.4-.63.56-1.34,1-.55-.13-.41-.7-.81-.25-1.22.21-3.43,1.2-1.9.16-.39-.26-.19-1.07-1.09-.23-.42.05-.4.25-.07.15.49.37.22.52-.1.29-.41.06-.5-.16-1.87-1.23-.67.13-1.93,1.75-.73.48-.86.38h-1l-1.2-.46h-1.73l-2.27.34-1.9.1.34-.45,2-1.37.86-.48,1.23-1.12.09-.42-.77-1.07v-.69l.2-1.06v-.68l-.88-.75-.43.14-.48.49-.77,1-.26.46-.51,1.27-.32.05-2-1.48-1.94-.63-.55.11-.45.31-1.25,1.64-.4.15-.95-1.19-1.2.4-.25-.6-3.51,2.63v.72l.31.9.36.62.42.33-.29.27-.73-.23-1.09-.61h-.41l-.29.27-.25,1v.23l1.2,1.23.72,1.55v.32l-.31,2.72-.28.08-.52-.56-1.67-4-1-1.72-1.84-1.34-.31-.22-1.43-.63-1.49-2.31-1-.89-2.21-4.32-.87-1.91-.19-1.7-1.21-3-.53-5.05-3.3-4.64-2.68-1.27-2.18-2.23-.61-.78-.34-.44-1.1-.87-.5.1-.31-.37.11-1.43-.27-1.55-2-3.86.21-1.58-.35-2.59-1.68-3.26-.59.11-.5-.22-1-1-.95-.71-2.32-.5-2.09-1.22-1.83.07-2.69-2.72.14-.55-.83-1.08-.5-3.22-1.29-.89-.73-1.37-2.29-2-1.91-1-2.57-3.38-.1-.7.51-1.26-.67-.9.06-1-.5-.46-1.21.1-.48-.5.39-2.33-.63-.79-.87-2.84-.82-.47-.32-.88-1.6-1.34-2.37-.31-.71-.38-.47-.7v-1.27l-.26-.8-2.16-.74-.89-.46h-.95l-2.8-3.65,1.47-.28.5-.29.48-.17-1.9-1.74-.2-.52.64-.72-.5-.66.19-.77,1.37-1,2.1-.18.26-.8-.33-1.31-.65-.93-.73-.3-1.09-2.75-1.8-.58-.84-.95-1.2-.75-2.4-.21-.26-1.39-.76-1.03v-1.47l.78-.18,1.17-.56.37-1.47v-1l-.68-1.22-.53-.06-1.43.51-3.05.39-1.14-.11-1.06-.5-.3-.56.69-1.11v-.82l2.51.69,1.77-.1,1.19-.53.72-1.11-.58-.83-1-4.34.43-1.09.89-.17.7.23-.12-.48-2.71-.28-2.22.27-3.13.74-1.41.08-2.74-.06-2.56-.4-.6-.23-2-2.27-.45.14-.79-.26-1.42-1.84h-.81l-1.08-.56-.14-.31.35-.53h.85l.61.16.44-.39.13-.4-.29-.42-3-.65-4.12-.09.44.6-.93,2.34,1.31,1.84-2-.87-.18-.9-.85.41-1.14.71-1.1.81-.81.51.73-.86-.7-.95,2.29-1v-.81l2.18-.47v-.62l-.18-.42-4.46-.8-.49.24-3.32-.35-3.65-2.42-1.14-.21-1.4-.81-.35-.35h.51l1,.32h1.09l.38.19.27-.33.09-.32.47-.85h-1.12l-1.4.24-3.36.13-8.11.8-3.12,1-2.88,1.63-1.31.59-.23-.06.15-.23-1,.3-4.16.5-3.6-.28-2.42-.73-1-.56-2.79-2.9-.92-.64-2-2.47-2.16-4.13-1.5,1.13-4.4,1.9-3,1.08h-.87l-1-.4-.05-.59h1.28l-.65-.4-1.38-.3.05,1.68.38,1.11.08,1.34-1.17,3,.18,4.61-2.82,12.54-1.52,2.6-3,3.3-1,1.37-.84,2.24.94,4.06,1.18,1.31.45,1.28h2.22l-.76.52-.61.61,2.36,2.14.58,1.8-.27,1.09-1.44.06-2.69.62-1.66,1.41-.15,1.73-.42,1.32.11,1.53,3.27.78,1.16.87-.1,2.13,1.43,1.56-.24,1.04-.9,1-1.49,1.1-2.74-1.87-.43-.93.29-2.71-.13-.9-.78-1.06-1.82-1,.27-3.15,1.2-2.18,2.14-1.25-.21-.89,1.47-2.17v-1l-.79-.49-1.08-.36-1.3,1.49-.85,1.31.62.92-.14,1.25-2.05,4.3-1.51.83-.3,1,1.9,1.24.71,3.45-.43.81-1.65,1.58.5-1.09-.76-.3-.2-1.21.07-1.1-1-.22-4.52.9-.71-.58-.8-2.06-2-2-.45-.94-.06-1.49-1.67-1.47-2.15-3.34.82-3.69,1-.07.81.08,1.55-1.15,2.45-.71.75-.35.26-.75v-.51l.47.39.6,1.19.34-1-1.5-2-2.01-2.22-1.48-.92-3.67-1-.51-.86-1.56-1.22-2.94-1-.69.13-.88.32-.23,2.67-.51.07-.41-.09-.72-.38-1-1.91-.09-.38.13-1.49-1.23-.94-1.34-.4-1.66-.74-2.24.11h-1.38l-.8-.18-1.63-2h-2.55l-2.7-1.33.55-.45.59-.4-.83-.2-1.41.16-.92,1-.31.63-.3,5.5,1.52,5.83.49.2.92,3.27-.18.5-.29.52-.44-1.19-1.22-.83-2,.55-1.31-1.31-.18-.77.09-.52-.21-.07-.66,1.38-1.38,3.49.1,1.22-1.73,1.2-.81-.12-1.25.79-1.13,2.24v1.73l1.83,5.51.55,2.63.52,1.2.48.44h.53l.66-.19.61.2.06.33-.11.43,3.08,1.63,2.8,3.83.4,2-.24,2.36-.3,1.44,1.12-.42.95-.17-.35-1,.17-.86.47-.89,1.25.07-.76,3.82-2.08,2.24.52.58,1.6-.43,4.18-.1,1.88.22,2.55,1.13,1.76-.25.21,1.1.86,1,3.52.11.3.34v.7l-.6,1.43-.34,1.07-.51.71-1.12,1.08-1.43.53-.75.19-1.32-.16-1-.69-.93-1.54-1.92.7.62.6.11,1.61-1.23,3.48-3.21,3.4-1.27,1.66-1.59,1.91-1.72.86-1.65.25-2.59.21-1.86-.31-1.71-1.2-2.65-2.92-.11-.78.77-1.18-.3-.63-.64-.44-1.67.46-4.45.63-1.93-.51-2.24.21-1.18-.33-1.7-1.11-.37-.48.34-.93-.05-.83-1.55-.38-1.12-.1.18-.25.41-.06.69.15h.49l.68-.32.55-1.67-.08-2.13-.56-1.32-2.25-1.49h-.77l-1.29.28-.53,2-.45.23v-.43l-1.62-1.56h-1.27l-1.07.39-2.23,1.13-2,1.71-.79.85,1.42.07,1,.3-.43.23-1.78.33-1.16-.72-1,1.2-.06.45h-.38l.08-1.25-.25-1-.93-.56-1-.09-4.15.27-4.76.62-1.71.82-.81.78-.46.53-.54,1.39-1.64-1.16-.82-1.13-1-.26-.66,1.1.14,2.19h-.42l-1.89-1.54.06-.38-.29-.19-1,.79-.69.6-.39.92,1.42.44.32,1-.54.91-2,.27-1,1.15.25,1.72-2,2.15-.76,1.26.31.73.7.6,1.07-.77.68-.64,1.21-.23.46.33v.3h-1l-.68.12-.15.83.1.77h.86l.21.09-1.12.71-.29.9,1,.75.31.57-.45.27-1.33-.33-2.23-.33-.24.86v.52l1.8,2.19.6,3.1,2.37,3.35,3.06.46v1.07l-.2,1-.86-.22-.92-1.38-.82-.17,1,2.5.2,1.13-.19,1.19-2.13.41-2.34-.53.82-1.69.89-1.53v-.47l-.21-.57h-2l-2.3-.24-.59-.28,1.2-.32,1.6-.58.51-1,.14-.69-.37-1.36v-1.92l-.3-1.18-.81-.46-2.86.8h-5.13l.37,1.21.63.8v1l-.73.29-.94.56-.33,1.88-.06,1.43.67,1.09-1.56,3.42-.75,4.56-.81.52-.88.58-.19,3,1.19,1.76,3.31,2.91,3.2,1.55,2,.15.86,1.26,1-.38,1.65-.91,1-1.15.4-.58-.15-1.51.94.26,2.34-.32,4.44-1.15h1l1.19-.22.54.38.61.76-.09.25-2.23-.46-3.42,1-3.59,1.25-.72,2.71-2.65,3.44-3,5.25-1.57,2.28-1.21,1-1.64.86-1.3.48-1.92.32-2,2.17-.59,1.63,1.11.27.9,1.13-2.37.17-1.07.89-.79.78-1.29,1.77h-2l-1.44-.73-1.48-.49,1.85,3.42,3.32,2.22,1.39-.76.52.07.87-.21.21.21,2.87,1.27.65.81,2.31.06,1.67.3,1.67.56-.63,1.86-.36,1.71.11,2.92.8.43,1.49-.14.71.29-.42,3.2-.51,1.71-2.13,5.58-.15,1.89,1.62.69,1.33-1,2.49-3.46,1.31-.89,2.04-1.05.89-1.26-.06.69.21.9,1.51-.15,1.76-.69.85.42.5,2.2v1.87l-.67-.82-.36-1.33-.87-.66-1.27.5-1.49,1.05-.63,1.42-.24.89-1,2.11.31,1.21,1.51.86,4,1,5.43,1.89,2.87-.33,3.22-1-3.33,1.66-3.67,1.93-.21.63.11.36-3.14-.44-3.64.31-1.66.73-1.07,1-1.22,1.66.35,1,.36.4.38,1.64-2-1.49-1.24-.36-1.73.88-2.42,2.17-2.8,1.68-1.06.83-.51.72-.06,1.07-.66,1.15v.5l.29.55-.09.27-.85-.22-.55-1v-.44l.22-.54-.14-.43-1-.51-.59-.13-2.58.34h-1.25l-1-.35-1.34-.08-2.47.27-2.06.37-1.65.5-.75.48-.86.7-.83.84-.81,1-.57.4-.32-.16-.4-.67-.46-1.17.32-.62.53-.5-.84-.24h-2.52l-2.1.2-5.36-2.13-3.69-.29-1.33-.24h-2.3l-1.63.42-2.18.81-1.57.67-1,.56-.56.67-.13.8.08,2.39-.24.76-.56.21-.47-.37-.35-1-.09-.79.17-.62-.3-.72-.79-.8-.6-.2-1.2,1.28-.34.07-.31-.29-.06-.64.75-2.87.36-.37,1.17.44.62-.21.22-.5-.84-.23-1.47-1.17-.28-.42.16-.57.88-.16-.14-.4-5-2.32-2.89-.81-3.11-.36-3.24.14-3.37.64-2.53.15-1.69-.32h-1.16l-.64.35h-.6l-.55-.3-.26-.43v-.56l-.62-.44-2.23-.4-.58.15-.6.49-.64.84-1,.74-1.43.65-.58.53.29.42.86.23h1.43l1.11-.52.83-1.04.53-.34.47,1.29-.59,2.37.23.45,1.71.59,1-.12.55-.42,2.11-2.28.55-.28.52.8-.23.87-.53,1.44-.51.66-.49-.14-.27.17-.06.47.13.48.33.48.75.17,1.18-.14.66.06.55.83h1.56l4.62-.71.61-.24,2-1.22.72-.23h.83l.95.32.56.33.42,1.06.17,1.31v.6l-.17.33-.52-1.12-.44-.46-.59-.05-.56.07-1,.41-1.08.91-.12.35.45.88,1.66,1.43.8.4,1.05.13,1.31-.16.7.17.39,1.45.56.13.93-.22.58.3.23.82.4.41h.57l1.24-.35h.57l1.28.69,2.94.13,1.07.21.3.43.39.2h.94l.4.2.24.18.15.79-.36.53-2.34,2.13-.22.36h.76l.94-.27,1-.55,1.06-.74,1.15.27,6.68,3,1.44-.15,2.24-1,.7-.16.25.24-.16.32-1.28,1.52v.3h.41l.85-.18h2.38v-.23l.58-.93.2-.59v-.63l-.32-.87-.65-.39v-.19l.44-.22,2.38-.5.7.22,1.52.9.8.17.51.27.62.69.53.24.18-.15-.18-.55-.57-.89,1-.2,1.91.44.79.66.41,1,.36.57.33.14.93-.19,1.56-1,.81-.07.64.09.49.34.34.58.51.44.69.28,1,.05,1.34-.18.9.05.45.31h.65l.86-.21.63.34.5.71.96-.46,1,.3h.42l2-.92.54-.51.46-1.12v-.47l.22-.29.78-.16,2.68.1.82.42.2.76.28.21,1.29-1h.54l1.53,1.14.39.13,1.2-.52h1.39l.65-.18.51-.45.8.06,1.09.56,1.16.28,2.26.06.81-.13,2.15-.87,3.58,2.37.81-.79h.2l1.57.69.91.89.43.06,1.17-1.05,1-.63-.46-.58.11-.21,2.33.48.67-.26.59-.72,1-.47,2.49-.35h.52l1.2.51,1,.12,2.71-.29,1.49-.51.72-.35.43-.35.26-.45.17-1.3-.56-2.79-.5-1.33-.64-.9-1-2.19.18-.86,1.51-1,1.89-1,.24-.54,3.5.19.95-.13.77-.28,1.41-.18.33-.17-.14-.7.3-.06h2.24l.75.16.18.47-.13.23-.88.6v.23l1,.68,1.54.36h.62l1.08-.81.13-.35-.73-1.61.38-.05.81.26,2.06,1.27,1,.29,1.77-.51.85-.46.6-.65.35-.85.14-1.35-.07-1.85-.25-1.63.14-.06.65.7.21,1.5.34.6.53.45,1.16.32h2.2l1.17-.18.62-.23.31-.95.26-.3,1-.62,4.08-.6h1.63l.64.42h.45l.87-1.4.37-.36,1.07-.5,1.94-.18,1.4.3,1.61.68,1.53.14,1.42-.4,1.56-.07,3.72.44.39.19.14.3-.13,1,2.62,2.06,1.08.62h.42l1.58-.79.9-.33,1.68-.12.7.17,1.53.9.68.67-2.95-.33h-1.72l-1.41.32-1,.36-.53.41-.48.1-.9-.26-.56.15-.08,1.28.88,4.22.55,1.25,1.86,2.34-.18,1.2-.15.12-.64-.64-2.29-3.86-1.44-1.5-1.37-.43-.84-.66-.32-.89-.14-.94v-1l-.63-.57-3.86-.39-2.24.06-3.93-.77-.52.09-.88,1-1.23,1.86-.93,1.41-3.29,2.39-1.4.75-2.68.67-2.32.81-1.29.71-2.42,1.67-.6,1.16.08.66,1.11,2.36.44.42.5.11,4,.05.13.31-.07.23-2.88,1.16-1.25.33-2,.19-1.29-.21-1.58-.85-1.91-.16-.53.08-1,.36-1,.67-.17.41.25.37.2,2.17.85.8,1.63.25,1,.49.39.71.43.47.48.21.34-.26.18-.74.28-.06.56,1.11.27,1.19.27.09,1-.6.88-.31,2.45-.2,1.12-.47.78-.85.49-.35.2.14v.78l.27.28,1.71.22.33.23.11.43.38.45,3.38-.48.36-.32.46-1.34h.18l.27.28.59,1.71.31-.08,1-1.41.38-.31,1.45-.49-.11.56-.99,2.05-.11.39h.15l2-1.63,1.62-.58.67-.38,1.47-1.44h.22l-.58,2,.07.48,1.54.33-.05.83.21.71.81,1.44.63.61.92.51.69.21.46-.09.29.2.12.47h.45l2.48-1.52.62-.12.36.26.33.07.3-.12,1.17-1.71.75-.86.65-.58.53-.32h.67l.79.27h.72l.64-.37.36-.72.09-1.09-.4-.53h-.88l-1-.39-1.07-.82-1-.41h-.93l-.07-.14.77-.28,1.19-.14.4.14.91.8h.42l.5-.29,1.08-.88.24-.45-.2-.86-.29-.49-.23-2,.33-.37.73.37.51.51.65-.05,1.52-1.06,1.78-.91.06-.32-.54-.23-1.17-.18v-.15l.5-.28.65-.09.8.08.52.26.26.43.82.58h.77l2.08-.45.92-.08.18.11-4.23,1.89-.92.6-.17.4v1.5l.55.56,1.43.5.54-.19.84-.56.38-.1v.65l.39.83-.11.76.17.22.44.06.54-.13.63-.33.68.05.73.42.44.51.16.6,1.13.17,2.11-.26,1.63-.05,1.56,1,.43.93-3.08-.82-1.06.77-1.25,1.51-.08.62.12.92.67,1.24-1.46.28-.53-.1-.39.12.14.84,1.64.29.86.37.33.61-.13.4-.29.38-.28.6,3.45,2.83-.49.39-1.28.58-.86.31-1.26.26.27.43,1,.76.84,1.31.73,1.86.92.89,1.09-.09,1-.26,1.9-.73,1.72-.37,1.83-.25.34.09-1.78.85-.93.62-1.22,1-1.96,1.78-.12.93.58,1,.25.78-.08.56.63.94,1.36,1.33.66,1.46-.05,1.63-.23.38-.81-.14-.25.56,1.22,1.05,1.43.89,2.87.94,4.95,2.35,3,2.31,3,3.24,2.76,3.36,1.43.32h.95l.57-.19.4-.79.27-.39.21-.09.23.46v.54l-.59,1.54-.31.38-1.82.71.29.89,2.58,4.66,1.32,1.44,1.75,1.39,1.86.78,3.37.18.83-.09,3.57-1.24,1.25-.28.67.52.12.34.14,2.65,1.49,2.26-.58-.18-1-.85-.57.13-.62.52-.54.6-.94,1.35-.55.68-.19.1,1.12-2.35,1.24-1.85.19-.58-.09-2-.22-.3h-.36l-.57.14-.36.28-.45.49-.36.54-.45,1.12-.26,1.35-.37.45-1.8,1-.78.09-1-.11-.5.17v.45l.23.7.7,1.41,1,2.69,2.38,4.69,1,1.76,1.4,1.32-.2.2-.59.2v.36l.69.52.6.89.54,1.25.74,2.89v1.21l-.23.9v1.41l.17,1.93.29,1.26.4.59.09.48-.3.67v.22l2.26,5.57,1.21,2.12.82,2,.59.84.24.1,1.91-.87,3.22,1.21h.58l.42-.23.64-1.23.17-1.14-.13-2.28-.63-.84-1.53-.67,1.34-.71.16-.39-.69-1.29v-.29l.18-.69-.17-.62-.7-1.32-.91-1.22-.71-.44-.84-.07-.11-.23,1.16-.55h.45l.28-.58.13-1.19.25-.17.87,1.65,1.89,2,.14.86-.16.94.07.41.44.67.31,1.1.43.73.4.1.54-.14.51-.43.49-.73.26-.57.22-1.11,1.1-1.73.06.23-.1.85-.62,2.12.09.49,1.06-.12.87.59-2.69.33-.34.56-.28,3.67-.2.94-1.32,1.87-.65,1.12.16.22,2.9,1.11.75,1.21v1.79l.13,1,1.25,1.15h.59l.59-.45.37-.44.22-.66.86-3.46.46-1.53.59-1.54.6-2.12.61-2.69,1.3-3.39.11-2.56.69.17.27.2.2-.58.07-1.49.73.15.43-.56,1-1v.23l-.93,1.46-.6,1.64-.6,3.39-1.53,4.53v1.08l.51,1v.52l-.73,1.8-.36,4.19.35,1.75,1.46,1.13.76,1.91.15,1.32.34.43,1.16-.48,2.16-2,1.63-1.07.46-.15.34.1-.29.29-.71.35-2.71,2.69-.91,1.31-.72,1.51-.29,1.12.52,2,.15,1.36v1.81l.11.29.57.35.45-.14,1.24-.91.58.27,2.4,2.21-.27.14-2.67-1.61-.39.18-.27.56-.35,1.13.3,1.22,1.52,4.33-.35.08-1.18-2.26-1.4-2.11-.46-.22-.39.22-.53.51.22,2.08-1,4.38-1.8,2.82,4.15,4.77.92.25v.32l-1,1.34-.18.57v.77l.31,1.77.38.75,1.21,1.23-.94,2.17.27.46.68.5v.51l-.36.84-.07.81.21.78.12,1.57.3.6.92.86.09,1.29-.1,1.08.12.74.33.42,2.7,1.71h-2.24l-1.06-.45-3.62,3.46-1.63,1.26-1.19.77-.73.27-.44.51-.39,2.52.11.71,1.06,1.25.55-.17,1.57-1.35,1.12-1.44.57-.43.19-.29.18-1.08.27-.29.51-.27,2-.35,4.16.09,3.19-.27-.78.62-1.06.57-.19.74.26,3.37v1.64l-.65,2.45-.45,1.14-.83,1.65-.64,2v.52l.77.64-.19.38-2.83-.07-1.18.91-.2.39-.11,2.07-.47,2.23-.31,3,2.28,1.35.25.57.24.56,2.47-.39,2.59-1.8.54-1.49.24-.66,1.1-1.21,2.71-2.37.34-.85.36-1.35.29-2.33.29-1.2.51-1.3.63-1.15.75-1,.84-.87.93-.75v.16l-1,1.06-.76,1-.56,1-.5,1.16-.43,1.33-.38,1.83-.32,2.33-.96,1.72-1.21,1-1.05,1.46v1.12l1.09-.73,2.24-2.1,1-1.09,1-1.72,1-2.1.39-.42-.19,1.25v.88l.18.49.34.19.5-.14.8.11-3.73,2.42-2.07,1.66-1.29,1.29-3.23,2.88-.86,1-1.56,1.36-1.17.17-.82.64-.49.56-.85,1.4-.54,1.08-.86.91-.22,1.43.46,2,1.45,2.55h2.32l1.17.27,1.74.85-2.25.47-2.94-.52-.43.43-1.29,2.3-2.43,1.34-2.25,2.19.2,1.61,1.39,2.3,1.55,1.17-.13,3,.83,2.07.68,2.06,1.85-1.31,2.29-.09.48-.34.66-1.06.86-1.77.76-1.1,2.69-1.87.61-.19.92-.58.16.09v.39h.46l2.67-.86.58.23.81,1.63-.4.12-1.1-.14-.83.14-.56.42-.45.54-.33.67-.19,1v2.29l.45,1.22.74.93.41.28,1.24.07,1.7.81.73,1.09.93,2.85-.17,1.12-.94-2.4-.23-1.12-1.42-1.42-.71-.32-1.69.41-.61-.46-2.17-3.63-.71-.5,1.41-1.73.26-.75-.79-.54-1.1.06-1.4.54-1.45,1.75-.25,1.88-.06,1.6,2,1.64,1.7,2.5.62,2.47-1.2,5.23.57,1.32,3.47-.41.61.15-1,.75-.65.87-2.07,3.13-2.27,3.17-.5,1.37h.38l.93-.49,2.54-1.68h1.2v.12l-1.3.68-.62.56-.28.45-.29,1.72-.27.42-4.76,1.6.65,3.71-.52,4.31,2.4-2.57,2.52-3.35,1.49-1.58.76-.54,1.09-.21,1.9.18.58-.13,6.58-3.41.6-.21.56-.41.51-.63.33-.62.48-1.7h.13l.05,1.26-.07.69-.22.56-.94,1-3,1.46-.51.65-.14.82-.07,1.32.2.59,1.68,1.95.11,1-.21.77.81,2.71.08,1.13-.25-.18-.57-1.49-.39-1.49-.2-1.49-.29-.88-1.72-1.14-.17-1.78-2.47-.09-1.68.63-1.72.32-1.82.64-1.3,1.75-.88,1.73,1.5.51-2,1.7-.8,1-.4.82-.53,2-.15,1.43.38,1.44-.06.79.05.36.43.43.28.08.66-.51.74-.78,2.35-1.61,1.39-.09,3.54,1.1,3.82,1.67h-.58l-2.82-.54-3.68-1-.84-.06-1.04.37-3.73,2.48-1.27,1.3-.83,1.3-.77,2.22.89,1.7,1,2.49.67,1.18.83.94,2.09,1.8.5.2.81-.28,4,1,1.15-.66,1.16-1.53-.29,1.95-1.08,1.62.22.6.88.13.42.42-.47.48-1.15.44-.82.62-.28.86.2.23,1.4.61,4.88.76.85.43-.06.42-2.13-.32-2.29.06-2.19-.41-.5.23-.29.7.4.57,1.93.82,1.5,1.07.82.3.63.42,1.64.07.78.32.17.69.42.44.67.2.5-.25.87-1.56.76-1,.29-.21-.6,2.23v.58l.3.32,3,1.46,2-.11,1.38-1.19,1-1.23.48-1,.08-.95.48-.81,1.27-.88-.48.83-.49,2.12-.28.94-.3.56-1.52,1.6-2.19,1.78-.2,1.09.64.39.25,1.3-.27.75.6,4.1-.31,1,.56,1.5,1.69,3.7.67.85,1.55.62,1.81.15,1.38-.84,1-.13.25-.27.49-1.47.31-.39,1.59-1.16.22-.57-.49-1.86h.18l.55.48.47.77.23.85-.08.37-.75.7-.9.27-.45.61-1.14,3.54v1.23l.37,1.2.51.72.65.23h1.67l-.51.33-1.92.75-1-.17-.06-1.07-.42-1.83-.34-.49-.4-.13-.53.35-.67.83v1.22l.55,1.61.45,1,.32.35,3.49,2.88h.31l1.16-.66.41.32.88-.09.5-1.05v-.59l.33-.58,2.29-1.45.06.16-.26.48-.72.91-1.18,2.72-.51.94-.36.21-.15.28.08.35,1.28.3,1.79,1.09.67.05,1.46-1-.86,1.32-.6.45-1.48-.42-1.52-.17-.66.16.23.93-.49,1.35.07.4.34.28.93.08-.05.25-.59.52-.27.51v1.61l.16.1.26-.24.54-.79.44-.34.57-.11.48.14.93,1.25.26.81v2.93l.12,1.25.23.71.69.13.31-.16.22.09.12.36-.13,1.9-.68,2.18.07.39-.13.63-.67.17-1-.51h-.41l-.29.43v.38l.24.34.66.3.41.49.46.89.55,1.84-.08.49h-.86l-.84.37-.28.54-.07.8.12.65,1,1.25.14-.08v-1.79l.15-.12.25.44.15,1.13.26.78.49.94.07.67-1.4,1.21-.34.61-1.24,1.27-.31.66.07.69-.22.68-.52.67-.18.45.24.59v.5l-.51,1.43-.44,2.64-.16.44-1.19.9-.66.14-.6-.15-.5.25-1.36,1.83-.42.35-1.15.36-.36-.12-.85-1-1.4-.11-1.41-.58.71-.49.81-1.26.73-.72,1.43-.55.16.2-.21,2.09.15.2,1.09-1.49.24-.16.55.89.54.3.44-.26.94-2,.28-1.13v-1.38l-.66-1.94h.17l.4.31.23-.09.23-1.54.26-.34,1.52-.73.43-.85.31-2.07-.62-.35-.16.19-.28,1.18-.37.31-1.81,1-.85,1-1,.59-1.55.61-1.16.65-1.3,1.28-.3.45-.39,1,.62.16,1.39.06-.12.18-1.66.49h-1l-.36-.27.14-.59.4-1,1.68-1.88,4.3-3.75.14.24-.23.94h.32l2.35-2.28v-1.06l-.29-1.78v-1.31l.27-.84v-.38l-1.31.6-.68.08-.84-.18-.58-.35-.86-1.7-.45-.22-1.28.25-.59-.08-8.24-3.58-1.35-1.08-.7-1.11-2.8-2.12-2.07-2.23-.92-.42-.22,1.92-1.1,2.47-.63,3.54.1,1.5,1.28,2.93.29,2.74-.7,5.11.21,4.18-.37,2.44-.34,1.39-.05,1.26.56-.78.27-.65.86.38.45,1.09,1.7,1-4.05.84-.18,2.42,1.25,1.14.6,1.21-1,2.33-1,1.79-.39-2,.14-1.71-.75,2.16-.64,2.27-.91,1.67,1.59.05.64.89,2.74.27.3.76,2.43.68.5,1.19,1.09,1.38.6.25.32.39-1.37-.22-1-.52-.52-1.3-.65-.47-2.21.16-3.09-.95-.41-1h-.38l-.06.84.14.83-1.93,5.64-1.14,5.21-1,1.8-.25,1.49-5.09,11.47-.56,2.54-1,2.36-.31,1.89-1.22,1.54-2,5.19-2.4,6.85-.72.62-1.38,1.9-1.42,2.29.9-.28.42.41-1.39.73-.61-.2-.51.39-3.37,5.84-1,1.26-1.28,2.19.49,3.15v1.82l-1.36,3.82-.29,1.51-.27,3.71,1.07,2.89.15.38-.5,1.85-1.07,1.78.75,1.67.1,2.06-.26,3.31-.37,1.46-2.28,4.07-.93,3.59-1.77,2.55-.45.51-.13.29.44.2-.4.42-.44.9-.4-.28.25-.42-.09-.29-.59.44-1.21,2-1.27,1.85-.45,2.36-.19,2.43,2.23,4,2,5.46.28,1.87-.12,3.22-.47,2-1.41,2.63.11,5.38-.81,4,2.85,5.65,1.27,3.27,2.06,2.39.37,3.1.75.79.76,1.88.1,1.54-1-2.43-.52,2.55-.89,1.36-.12.6,1.34-1,.73.81,1.28,2,1,1.17,1.3,1,.71,1.18h.87l.16-2.34.93-2.94,1.53-.32.8.41,1.61,1.75.78.36,2.12-.61.55.22.73.88.74.45,2,.43,1,.37h.9l1.37,1-.73-.13-.94-.43-1.31.21-5.54-1.91-2-.36-1.61.24-1.3.61.1.84.36.61.05,2.2.82,1.43.45,2.3.11,1.73.3.61.2.88-.71-.29-.62-.56-.64-1.46-.91-.82-.77-1.54.11-1.72.32-.89-.87-.44-1.16.21-.38,2.36-.53,2.12.54,3.65-.6,3.25,2.45,5.14,4.07,2.18.7,2v1l-.25,1.35-1,1.26-1.68,1.29-.53,2.73v2.1l2.46,4.29,2,5.19.2,1.36,1.06,1.74.41,2.49,2,1.92,1.23,2.9,1.67,1.57.35,1.31-.78,1.65.14,1.37,2.13,1.61.6.87.2,1-1,2.34v2.81l-.47,1.16-.18,1.59-.66,1.65,1.18,1,.94,1.7,1.29.57,3.67.56,1.82.59,2.93,1.87,2.17.77h1.78l2.74,2.26,2,2.12.14,1.92,1.26,1.35,4.65,2.84,3.77.64,1.42.67,1.22,3.49-.72,2.16,1.75,1,.66-.79,1.62.51,1.2.84,1.7,2.44,2.34,2.14,4.33,5.82,1.72,4.29.35,3.32-.12,1.3-.52,1.39v2.85l1.06-.26.63.91-.27,2.15v.13l.41,3.9.34.84,1.63,2.47.4,4.13,3.28,3.58-.36,1.8-.53.25-.81-.22-.37.11.77.87-.34,2.62.66,1.45,2.06,3.17,1.58,3.48.15,1.54-.24,1.48v1.61l3.41,4,.14,2-.33,2.77.08,3,2.16,1.5.55,1.22-.24,4.34-.69,2.35.94.66.73,3.72,1.62,1.82,3.89,3.65,2.18,2.48,2.83,1.35.87.8.85,1.54,3.12,4.26,5.11,8.11,2.5,2.88,1.21,3.76-1.31,3.85-2.16,3.78-1.62,1.29.17.55h1.67l-.12,1-.41.68.43,2.13,1,1.17-1.2-.11-1.55-1.17-1.06-1.32.4-1.18-.11-.7-1.35.4-1.44.64-2.15-.1-4.3-1.64-3.67-.87-.07.84.52,1.34,2.14,1.89,2.17,2.75,2.79,2.62.58,1.19.08,1.84.43,1.37,1.8,1.49,2.28.67,1.52,1,1.69,2.61,1.06.22,1.63.63,1.24,2.09.78,1.7,1.64,1.64,3.24-1,2.7.5,1.34-1.1,1.09-1.59-.14,3,.24,1.53,1.43,2.84,5.82,6.11,2.25,1.18,2.52,1.53,3,6.35.65,3-.2,2.63.28.94.4.28.07,1.68-.75,3.12-1.51,5.32-.06,2.13.64,1.94,3.7,3.83.34.8-.07,1.14.3.64,1-.1,1.22.13,1.67,2.44,2.66,2.58,6.55,5.21,2.14,2.98,2.21,2.1,2.21,3,4.66,3.13,1.21,1.85.63,2.13,1.05,1.5,1.17,6.69,1.28,2.32,1.52.33,1.91-.5,1.85-1,2-1.67,2.62-1.31.78-1,1.1-3.6v-1.45l-1.44-2.46-3-1.56-.39-2.82-1.1-1.31-.52-1.5-1.34-2-1.5-1.66-.62-1.34-4.08-3.79h-.75l-.45.6v.92l.32,1.29-.52,1-.93.66-.72-.68.25-.64-.37-.4-2.23-.87-1.82-2.71-.9-5,.25-1.57,1.16-2.15v-1.55l-1-2.61-2.22-3.21-1.62-5.62-.17-2.11-2-1.15-2.12-4.53-.37-2.75.36-3.76-1-2.88-.07-1.68-.7-1.24.1-1.92-1.2-1.58-.15-2.55-3.63-3.88-.51.22-.14,2.13.53,1.43,1.18,2.25-.46.26-.53-.23-1.7-2.31v-3.19l-1.95-2.77v-.84l.36-1.32-1.52-1.53-1.56-1-1.24-3.35-.42-3.53-3.62-3.16-2.78-3.74-.25-1.51.38-1.81-.8-2,.49-2.2-1.17-1.86.2-1.14.08-1.44-1.38-.87-1.29-.52-.95-.92-1.23-5.88-.87-.53h-1.09l-.18-.54.19-.65-.73-1.57-2.08.07-.43-2,.09-1.55-2.93-5.73-1.07-1.6-3.54-4-1.67-2.75-3-2.42-.34-1.37-2.15-2.87-1-2.84-.1-1.64,1-5.18-.55-2.37.11-2.86-.41-3.93-1.05-2.61-.41-1.59,1.69-7.32,1.29-2-.38-3.1-.77-1.17-.49-1.09,2.94,2.53.65.7,1.43.55.92.73,4.25,4.29,1.79,1.24,1.15.13,1.35-.07.61-1.25.6-.63,3,1.91.9.83,1,1.26-.17,2.4,2.26,1.4,4.1,1.39.71.51,1.65.82.55.64-.17,1.81-.58.43-.55-.41-.25.54.17.44.08,1.79-.77,2.76.53,2.9,1.44,3,1.63,4.41.69,3.57v2.78l.54,1.44.64,1,1,3.13,2.29,4,.26,1.55-.17.78.08,1.44,1.27.67,1.22,1.23.19,3,.29,2,1.75,2.68,1.64,1.67.32.54.1.91,1.07,2.21,1.29,1.84,1,2,3.44,2.17,2.74,5.66,2.51,3.25,2.29,1.1,1.07.86,1.32-.4,1.57.24,3.93,1.48-1,1.24-.93,2.67.18,2.18.39,1.9.62,1.15.59,1.51,1.61,2,1.64,1.59,5.75,2.29.23,1v1l.38,1.9.91,2.33,1.19,1.45,1.39.27,3.46.12,3.39,3.82.45,1.69v.89l.36,1,1.16,1.09.44,1.09-.74-.19-.65-1-1.38,1.07-1.67,1.87-1.46,1.92.22,6,1.29,2,.87.56,1,.43,2.06-.23,1.41-.38,1.4-.81.94-.75v.73l-1.75,1.93-1.79.54v.69l.56.76,2.5-.35,1-.53,1,.21.48,2.27.92.9,4,2.69,1.57,1.53,4.94,2.43.72.58.24.64-.82.26-1.1-.1-.93-.33-.86-.92-.67-.21,1.17,2.19,3.23,4v1.75l.94,1.62,2.35,1.69,1.93.44.63.48,1.29.37,1-.2.65.36.34,1.3-.16,1-.63.13-3.49-2.48-.7-.07,11.86,9.87,2.58,2.83,3.49,5.53,2.81,3.35,2.76,5.13,3,2.82,3.71,4.76,1.4,1.1,2.67,3.08,2.44,6-.38,6.54,2.12,3.42,1.18,2.89.44,1.08,4.08,2.71-.56,2.1.05,2.53-.34,2.5-1.3,1.72-1.83,1.83-1.25,1.52-1.06.61.32.64,1.37.11,1.74.54,1.34,1.71.12.66-.34,1.05-2.27,1.16-3.15.09-1.94,1.07-.57.94,1,1.4.78,1.75.59,3,.87,2,3.51,5.41,3.29,3,1.1,2.36,1.94,2.68,6.32,3.34,3.75,1.37,2.18,1.51,4.38,2.11,2.51,1.71,4,3.92,2.21,2.94,2.59,3.16,8.11,2.94,6.12,2.57,3,.49,6.37,1.78,4.29-.2,1.49.28,1.37.75,1.62,1.57,3.1,3.7,2.2.73,2,2,4.6,2.38,2.83,2.28,3,1.47,8.11,2.67,3.68,1.54,4.27,1.22,6.53,3.84,6.71,1,6.8,1.53,1.84.69,2.86.15,4.79,4.32,7.51,1.75,7.62,4.4,11.24.8,7.49,3.25,5.76,1.26,2-.67,3.84-.34,8.58-4.09,6-1.94,6.35-4.19,3.6-.82,2.94-.16.26-.38-1.2-.27-3.45-.41-.07-.54,1.69-1.49.64-.77.82-.08,1.33,1-.06.72.16.75.74-.12,2-1.27.67.05.61.57-1.8,1.78.42.48,3.76.07,9.34,2.63-.56-.79-3.31-1.39-1.12-.35h-1.05l-1.34-.42-1.12-.52.29-1.18h.68l1.27.8,1.43.57,3.2.94,3.28,1.54,3.71,2.91,3.92,2.38,7.64,5.24,2.94,2.41,2.16,1.26,2.26,1.69,5.79,5.26,5.55,4.74.61.38,8.58,5.33,3.66,1.84,5.38,1.89,4.67.8,10.69-1.1,2.57.28,7.84,2.33,2.55.75,3.46,2,5.66.36h4.92l8.44,2.75,7.21,1,.53-.32-2-.67-1.5-.09-.62-.35,1.87-.22,3.57.86,4.77.35,3.12-.48,1.82-.47,1-1,1-1.3-.51-1.86.46-.31.92.31,1.24.15,2.06-.76,2.3.32.15.79-.21.72.89,1,1,1.54,1.67.6.08,2v.55l-1,.69-.69.09-1.56-1-1-.93h-.84l-1.57,1.69.16,1.17,4.36,2.22,5.82,4,1.38,1.23,5.78,2.77,2.06,1.46,2.29,3,4.14,4.06,10.87,6.19,2.89,2.11,1.86,1.82.06.5v.36l-.07,1.11-1.27.79,47.56.1v.002Z" fill="#feffe9" stroke="#27bbea" stroke-width=".5"/><path id="f" d="m325.956,238.895l-.73.33-1.35,2.07-.14.64-.81,1.63.38-.06,1.59-2.29,1.4-1.47-.34-.85h0Z" fill="#feffe9" stroke="#27bbea" stroke-width=".5"/><path id="g" d="m329.006,236.895l-1.29.58-.77,1.08.64-.1,3.82-2.55,2.26-1.31.14-.86-.26.11-.58.73-1.17.18-2.79,2.14h0Z" fill="#feffe9" stroke="#27bbea" stroke-width=".5"/><path id="h" d="m317.226,254.895l-.11,1.67.52-1.13,1.71-4.76,3.23-5.59-1.2.88-2.8,5.09-1.35,3.84h0Z" fill="#feffe9" stroke="#27bbea" stroke-width=".5"/><path id="i" d="m357.106,217.645l2.94-2.27,1.61-1.78h-1l-.74,1-3.69,3.29.88-.24h0Z" fill="#feffe9" stroke="#27bbea" stroke-width=".5"/><path id="j" d="m316.736,259.355l.22,5.45,2.66,9.48,1.6,4.17.22-.91-.64-2.71-2.92-9.69-.81-7.68-.33,1.89h0Z" fill="#feffe9" stroke="#27bbea" stroke-width=".5"/><path id="k" d="m76.446,289.905l1.1,1.32.9.43-.31-2.23-.43-.81-1.63-1.09-.18.11-.14.66.69,1.61Z" fill="#feffe9" stroke="#27bbea" stroke-width=".5"/><path id="l" d="m38.126,198.465l.16-1.53-.51-1.44-1.39-1.69-1.32-.47-.41,2.13.1,1,1.18,2.28,3.45,4.72,1.61,1.47.16-.32-.18-1.61v-3.36l-2.85-1.18h0Z" fill="#feffe9" stroke="#27bbea" stroke-width=".5"/><path id="m" d="m21.666,148.735h.56l.16-.34-.26-.7-.92-.9h-.24l-.2.81.9,1.13h0Z" fill="#feffe9" stroke="#27bbea" stroke-width=".5"/><path id="n" d="m2.636,212.365l-.12,2.41-1.93,2,2.73,1.82.33-.59.68-1.92-.4-3.17-.52-.89-.77.34h0Z" fill="#feffe9" stroke="#27bbea" stroke-width=".5"/><path id="o" d="m69.906,267.485l-.84.47-1.16,3.87.39-.22,1.54-2.74.68.58.14-.19-.15-.73.28-1-.88-.04h0Z" fill="#feffe9" stroke="#27bbea" stroke-width=".5"/><path id="p" d="m57.006,205.485l-.07-1.61-.29-.71-2.48.38-.88.58-1.71,5.17.18,1,2.58,1.84,1.32.26,1.86-4.4-.51-2.51h0Z" fill="#feffe9" stroke="#27bbea" stroke-width=".5"/><path id="q" d="m48.396,288.785v-.87l1.93-6.39-.37-1.26-1.85,6.32-1.69,2.94,1.5.73.56.73.06,1.57,1.31,2.45.39-.16-.11-.76-.92-1.51.09-1.47-.46-1.44-.44-.88h0Z" fill="#feffe9" stroke="#27bbea" stroke-width=".5"/></g><g id="r" opacity=".5"><path id="s" d="m135.136-20.515l-.52,4.92-.52,4.92-.52,4.91-.52,4.92-.51,4.92-.51,4.92-.51,4.92-.51,4.91-.5,4.92-.51,4.91-.5,4.92-.5,4.91-.5,4.91-.5,4.91-.49,4.92-.49,4.91-.7,7-.69,7-.69,7-.68,7-.68,7-.68,6.95-.67,7-.67,6.94-.67,7-.66,7-.66,6.94-.65,6.94-.65,6.94-.64,6.94-.65,6.93-.64,7" fill="none" stroke="#787878" stroke-width=".25"/><path id="t" d="m238.436,65.465l.07-3.7.07-3.69.07-3.7.07-3.7.07-3.7.08-3.7.07-3.7.07-3.7.07-3.7.08-3.7.07-3.74.07-3.7.08-3.7.07-3.7.08-3.7.07-3.71.06-2.46.06-2.47V-1.175l.06-2.47.06-2.46.05-2.47.06-2.47.06-2.47-3.74-.1-3.74-.11-3.74-.12-3.74-.13-3.74-.14-3.68-.15-3.74-.17-3.74-.18-4.7-.23-4.7-.26-4.69-.27-4.7-.29-4.7-.31-4.69-.33-4.69-.34-4.69-.37-4.69-.38-4.69-.4-4.68-.41-4.68-.44-4.69-.45-4.67-.47-4.68-.48-4.67-.51-3.73-.41-3.72-.43-3.73-.44-3.73-.43-3.72-.46-3.71-.47-3.72-.49-3.71-.49.32-2.46.31-2.45.32-2.46.32-2.45.32-2.46.33-2.45.32-2.46.32-2.45.4-3.07.41-3.07.4-3.06.41-3.07.4-3.07.41-3.07.41-3.06.41-3.07.41-3.07.41-3.07.41-3.06.41-3.07.42-3.07.41-3.07.42-3.06.41-3.07.34-2.47.34-2.46.34-2.47.34-2.47,3,.42,3,.4,3.05.4,3,.39,3,.38,3.05.37,3.05.36,3.05.36,3.06.35,3.05.34,3.06.33,3,.32,3.06.31,3.06.31,3.06.3,3.06.29,3.06.28,3.06.27,3.06.26,3.07.26,3.06.25,3.07.24,3.06.23,3.07.22,3.07.22,3.07.2,3.07.2,3.07.19,3.07.18,3.07.18,3.07.16,3.07.16h.71v-.24l.21-4.6.2-4.59.21-4.6.21-4.59.17-3.77.17-3.77.17-3.77.17-3.77.17-3.77.18-3.77.17-3.78.18-3.77.17-3.77.18-3.77.17-3.77.18-3.77.18-3.77.17-3.77.18-3.77.17-3.75" fill="none" stroke="#787878" stroke-width=".25"/><path id="u" d="m341.226,4.655l-2.74.16-3.18.16-3.19.16-3.19.15-3.18.15-3.19.13-3.18.13-3.19.12-3.19.11-3.19.1-3.19.1-3.18.09-3.19.08-3.19.07-3.19.06-3.19.06h-41.47l-3.19-.06-3.19-.06-3.19-.08" fill="none" stroke="#787878" stroke-width=".25"/><path id="v" d="m222.436,74.835l.08-2.46.08-2.46.07-2.46.08-2.46" fill="none" stroke="#787878" stroke-width=".25"/><path id="w" d="m355.846,63.115l-3.67.23-3.66.22-3.66.21-3.67.2-3.66.18-3.67.18-3.66.17-3.67.16-3.67.15-3.67.14-3.67.13-3.66.12-3.67.1-3.67.1-3.67.09-3.67.08-3.67.07-3.68.06h-36.71l-3.67-.06-3.67-.06-3.67-.07-3.67-.08-3.92-.1-3.93-.11-3.92-.13-3.92-.13-6-.23-6-.25-6-.28-6-.31-6-.34-6-.36-6-.39-6-.41-6-.44-6-.47-6-.5-6-.52-6-.55-6-.58-6-.6-6-.63-4.92-.55-4.92-.56-4.92-.58-4.91-.6-4.91-.62-4.91-.64-4.9-.65-4.91-.68-4.89-.69-4.9-.71-4.89-.73-4.89-.74-4.89-.77-4.88-.78-4.87-.8-4.88-.82" fill="none" stroke="#787878" stroke-width=".25"/><path id="x" d="m356.426,72.955l4.44-.29,4.44-.31,4.44-.32,4.48-.3,4.44-.35,4.44-.37,4.43-.38,4.44-.39,4.43-.41,4.43-.42,4.43-.44,4.42-.45,4.43-.47,4.42-.48,4.42-.5,4.42-.51.87,1.46.8.91.19.72-.05.75-1,1.73-1,.86-.49.86-.73.85-1,2.23,2.62-.34,2.61-.35,2.62-.36,2.92-.4" fill="none" stroke="#787878" stroke-width=".25"/><path id="y" d="m369.986,140.875l3-.22,3-.22,3-.23,3-.23,3-.24,3-.25,3-.26,3-.25,3-.27,3-.27,3-.28,3-.29,3-.29,3-.3,3-.3,3.26-.35" fill="none" stroke="#787878" stroke-width=".25"/><path id="z" d="m211.936-54.095l5,.23,5,.22,5,.19,5,.18,5,.15,5,.13,5,.11,5,.09,5,.06,5,.05h20l5-.06,5.74-.09,4.4,2.85,2.62.85,1.2-.89,2.65-.57,4.09-.25,2.6.32,1.11.9,2.15,1,3.17,1,1.93,1.19.68,1.33,1.13.82,1.14.22.44.09,1.06,1.7.54,3.1,1,2.47,1.47,1.85.76,1.37v.88l.37.93.71,1,.34,1.71v2.43l.34,1.28.71.13.32.33-.07.53.26.38.57.23.19.69-.19,1.16.24.71.67.26.15.56-.37.85.09.66.56.45.47,2.1.37,3.76v2.21l-.29.66.97,1.32,1,1.42.41.6.93,2,.45,2,.89,1.29,1.33.54.94,1.26.55,2,1.18,1.63.25.16,3.65,2.35h.92l1.07-.47.85.53.65,1.54v.81l-.72.07-.84,1-1,1.93.37,1.72,1.71,1.54,1.17,1.57.63,1.62,1.14,1.22,2.48,1.22v.76l.16,2.57.17,2.57.16,2.57.16,2.56.16,2.57.17,2.57.16,2.57.16,2.56.16,2.57.16,2.57.16,2.56.16,2.57.16,2.57.16,2.56.16,2.57.16,2.56.14,2.47.15,2.46.14,2.46.15,2.46.52,2.71.52,2.72.52,2.71.52,2.72.52,2.71.53,2.72.52,2.71.53,2.71.08,2.14.09,2.14.08,2.14.08,2.14.08,2.14.08,2.14.08,2.14.08,2.14.08,2.13.08,2.14.08,2.14.08,2.14.07,2.13.08,2.14.08,2.14.08,2.13" fill="none" stroke="#787878" stroke-width=".25"/><path id="aa" d="m33.456,84.965l-3.69-4.9-3.42-4.59-3.39-4.6-3.36-4.62-3.37-4.62-3.32-4.63-3.28-4.64-3.23-4.63-2.36-3.27-2.34-3.26-2.33-3.28-2.32-3.27-2.3-3.28-2.29-3.29-2.23-3.35-2.26-3.3-2.92-4-2.9-4-2.88-4-2.85-4-2.83-4-2.82-4-2.79-4-2.77-4,.84-3.64.84-3.63.85-3.63.84-3.63.85-3.63.8-3.54.85-3.63.86-3.64.85-3.63.86-3.63.86-3.63.87-3.63.86-3.63.87-3.63.87-3.63.87-3.63" fill="none" stroke="#787878" stroke-width=".25"/><path id="ab" d="m64.426-50.515l-.51,3-.51,3.06-.51,3-.51,3.06-.51,3.06-.5,3.05-.5,3.06-.51,3.05-.5,3.06-.5,3-.5,3.06-.5,3-.5,3.05-.49,3.06-.5,3.05-.49,3.06-.49,3-.49,3.06-.5,3-.48,3.06-.49,3-.49,3.05-.49,3.06-.48,3-.48,3.05-.49,3.06-.48,3.05-.48,3-.48,3.05-.47,3.06-.48,3-.48,3.05-1.2,7.65-1.33,8.41-.32.08-1.21,1.77-1.15.73-.77-.16-.69-.69-.62-1.23-1.08-.83-1.54-.43-1.41-.07-1.28.3-.85.58-.63,1.33.05.61.51,1.42-.28,2-.15,1.65.28,1-.09,1-.53,1.61v1.4l.54,2.56-1.41,6.88v.12l-.26,1.63.51,2.35,1.94,4.44.16,1h0l-.06,1,.85,1.26,2.19,1.93.43.83v.06l-.09.54-.71.54-3,1.72-1.71,1.52-1.91,2.62-.14,2.36-.36,1.92-.6,1.46-.77,1.31-1,1.15-.91.63-.87.1-.55,1.64-.24,3.19.63,2.07,1.5,1,.83,1.21.14,1.45-.34,1.35-.85,1.24-1.19.55-2.32-.2h0l-.09.17" fill="none" stroke="#787878" stroke-width=".25"/><path id="ac" d="m377.846,200.005l1-2,.23-.72-.38-3.31-.58-1.17v-.7l.42-1.86-.19-1.65.82-2.08.63-1.1.64-2.2.09-1.4.27-1.06-.31-1.1.5-.85-.43-1.1-.2-1.49-.71-.53-1.32-2.12v-1l-1.36-2-.07-.7-1.25-1-.27-.68-.29-2.85-.37-.82-1.11-1.57-2.44-2.21-.15-2.48-.14-2.49-.15-2.48-.15-2.48-.15-2.48-.15-2.48-.14-2.49-.15-2.48-.19-2.66-.19-2.66-.19-2.66-.2-2.66-.88-.39-1.55-.12-.76.21-.94-.06-.6.48-.42.1-.34-.07-.22-.37-.71-.24-.92-.9-3.78-.76-1-.58-1.76-.61-1.61-1.38-3.13-1.66-1.17-.37-.37.07-.58.93-1.58.8-.88.08-1.6-.19-.32-.21-.25-.53-.66-.35-.45.32-2.29.88-.32.55-1.31.08-1.31-.32-3.22,1.35-1.09,1-1.16.38-.57.94-.37-.12-1.27-1.08-1.27-.28-1.74-1.08-.1-1-.18-.12-.32-.1-.38.12-.72.86-.43.24h-.43l-1.7-.5-.73-1-.36-.3h-.38l-.71.33-.37,1.12-.31.31-.7.21.06.56-.57,1.55-.33.32h-.43l-.46-.36-.35-.54-.16-.45.21-1.23-.15-.4-.34-.11-.8.6h-.72l-.91.6-.57.19-.53-.12-.87-.9-1.5-.56-.6-1.07-.27-.31-.32-.07h-.32l-.51.37-1.68,1.48-.77.47-.66.11-.65-.12-.41-.36-.11-1.46-.39-.43-1.6-.88-.35-.85-.17-1.2-1.9.23-2.34-.07-1,1.07-.54.21-.67-.2-1.91-1.4-2,.33-1.18-.17-2.82-1-2.2-.07-.91-.19-.48-.23-.23-1.63-.88-1.36-.29-.38-1.49-1h-.24l-.16.22-.33,1.08-.44.06-1.71-.3-1.58.33-.88-.53-3-2.5-1.21-.65-1-.21v-37.64h-24l-3-.06-3-.06-3-.07-3-.08-3-.08-3-.09-3-.1-3-.1h-.67l-.21,5.53-.2,5.54-.21,5.53-.2,5.53-.21,5.53-.2,5.53-.21,5.53-.2,5.52-.2,5.53-.21,5.52-.2,5.52-.2,5.52-.2,5.52-.2,5.52-.19,5.51-.2,5.52-3.8-.14-3.81-.15-3.8-.16-3.8-.17-3.8-.17-3.8-.19-3.8-.2-3.8-.21-3.8-.22-3.8-.22-3.79-.24-3.8-.25-3.79-.26-3.8-.26-3.79-.28-3.79-.29h-.11l1.49,3.69h0l2,1.15" fill="none" stroke="#787878" stroke-width=".25"/><path id="ad" d="m405.286-145.875l-2.34.18-2.34.18-2.33.17-2.34.16-2.5,2.21-2.51,2.2-2.52,2.19-2.53,2.19-1.57,1.13-1.58,1.14-1.57,1.14-1.58,1.13-1.8-.46h-.44l-.83,1.19-.33.75-.89.29.27,2.84.27,2.84.28,2.85.27,2.84-.42.33-.51.72-.77.23-3.45,2.71-.55.73-.52,1.62-1.06,1.87-.22,1,.17,1.25,2,.85.79.92.45,1.16v1l-.76,2.12-.1.82.32,2.48-.41.81.57,2,.09.69-.1,2.23-.15.66.48,1.11v.12l1.91,1.43,1.58.74,1.37.16,1.11.58.86,1,1.09.6,1.33.21,1.4.77,2.23,2,1.2,1.76,1.89,1.16,3,1.13,2,1,1,1,.88,2.67,1.15,5.81.23,1.21.38.86.65.65.94.45.26,1-.42,1.61v1.94l.43,2.27.66,2,.89,1.75,1.73,1.17,2.58.58,1.6,1.14.64,1.72.12.14,1,1.24,1.67,1,1,1,.34,1,1.06,1,1.79,1,1.08.94.37.89.13,1.42-.13,2-.44,1.46-.76,1-.5,1.26-.24,1.58-1.15,1.56-2.07,1.55-2.38,1.16-2.67.78-1.5,1.29-.32,1.81.38,1.44,1.1,1.07.68,1.19.29,1.3-.46,2.26-1.2,3.21-1.48,2.15-1.77,1.1-.69,1.41.38,1.73-.06,1-.73.43-.57,3.11.22,2.53.82,3,.85,2.22.87,1.45,2.85,2.61,4.86,3.77,3.2,3.73,1.54,3.69,1.48,1.38,1.44-.93,1.94.13,2.13.4,1.16.62.27.23.14.26-.05.29-.2.78-1.85,6.64-.57,3,.24,1.08,1.21,1.45,2.17,1.84,1.85,1.14,1.53.45,2.47,1.38,3.42,2.31,1.79,1.82.16,1.34.48,1.34.81,1.32.15,1.35-.49,1.36.46,1.69,1.39,2,1.13,1.19.86.35h.17v-.21l-.15-.28-.07-.26v-.38l.14-.17.14-.06.81.44,1.25,1.05" fill="none" stroke="#787878" stroke-width=".25"/></g><path id="ae" d="m-15.414,125.075l4.77.53,4.77.52,4.78.5,4.77.48,4.78.47,4.78.45,4.78.44,4.78.41,1.91.13-1.48,2.73-1,1,7.41,4.23,7.45,4.2,7.49,4.15,7.52,4.11,7.56,4.07,7.6,4,7.64,4,7.67,4,6,.74,6,.72,6,.7,6,.67,6,.64,3.85.4,2.14.22,6,.6,6,.57.2-2.2.19-2.2.2-2.2.19-2.2,3.71.38,3.71.36,3.71.35,3.72.35,3.71.33,3.72.33,3.71.31,3.72.31h.13l.15.09,1.4,1.79,1.38,2.74,1.71,2,2.05,1.19,3.36,3.25,4.81,5.43,3.89,3.65,3,1.88,2,1.58,1,1.29,1.28,2.73,2.37,6.28-.13,2.81.9,2.72,1.9,3.56,1.7,2.12,1.51.69,1.64,1.31,1.75,1.92,2.05,1.33,2.37.73,3.23,1.79,4.12,2.83,2.85,1.47,1.56.11,1.4-.8,1.23-1.72,1.18-1.1,1.15-.47.48-.8-.18-1.13.84-2.49,1.84-3.85,2.13-2.06,2.41-.26,1.59-.69.77-1.12,1.29-.09,1.81,1,3,.65,4.14.35,2.44-.05.75-.42h.39v.48l.61.22,1.2-.06,1,.69,1.3,2.15,4.57,3.45h0l.37,1.17,1.6,1.7,2.94,2.62,1.66,2.24.38,1.87,1.5,3,2.63,4.06,1.18,2.19-.29.31.2,1.14.71,2,1.31,1.66,1.93,1.37,1.95,2.44,2,3.52,2.4,2.68,2.83,1.82,1.61,1.7.38,1.58v1.35l-.43,1.13.19,1.07.8,1,.27,1.24-.3,1.73v.48h0l.23.39,2.54,3,1.32,2.38,1.06,3.81h0l1.18,2.27,1.67.92,2.56.31,1.95.77,1.35,1.23,1.69.72,2,.23,2,.79,1.88,1.35,3.49.84,5.09.31,3.89,1,2.69,1.74,1.18.34h.27l.14-.28.19-.52,1-.62,2.43-.46" fill="none" opacity=".5" stroke="#787878" stroke-width=".75"/></g><g id="af"><g id="ag"><path id="ah" d="m35.226,95.355l.6-.93.62,1.35,1.54,1.4,2,2.39-1.07,1.34-.44-.31-.22-1.33-1-1.17-1.38-1.64-.65-1.1h0Z" fill="#d3ebfa" stroke="#27bbea" stroke-width=".25"/><path id="ai" d="m108.226,38.645l-.76,1.12-.65,1.89-2.29,2.28-2.06,2.36-.5,1.08-1.43,1.46-1.14,1.56.61.71h2.22l-.5.6-1.82-.14-3.33.68-1.92.5-1.33.89-1.88-.11-1.27.6-1.3,1-.25-.3-.65-2,1.51-.38.82.2.75-.05.64-.65.87-.83.64.64.48-.27.38-.54,1.36.71h1.8l1.46-2.06.61-1.33,1-.22,1.16-1.42-.07-1.9.36-.14.8.19,1.48-1,.73-.67.71-.75,1.29-1.75.42-2,.57-.62.54.23-.06.43h0Z" fill="#d3ebfa" stroke="#27bbea" stroke-width=".25"/><path id="aj" d="m254.386,213.185l-.28.17-.73.11-1.06.37h-1.07l-.88-.18-.68-.49-.75-.23-.68.09-.25-.17.2-.39.26-.7-.13-.31-.21-.13h-.37l-.16-.36v-.38l.08-.24.53-.25,1.06.88.56.47.68.42.59.6.61.36.65-.3.54-.42.2.25.29-.43.46-1,.11.09-.21.8.07.7.32.43.25.1v.14h0Z" fill="#d3ebfa" stroke="#27bbea" stroke-width=".25"/><path id="ak" d="m285.646,266.735h.56l.11.43-.64,1.47v1.18l-.4.54h-.51l-.78-.42-.22-1.68-.52-1.74-.86-.85-1.13.17.15-.23.39-.28-.08-1.26-.6-1.33-1.13-1.38.13-.61.75.24.83.82,1.64,1.56,1.06.2v2l.62.88.63.29h0Z" fill="#d3ebfa" stroke="#27bbea" stroke-width=".25"/><path id="al" d="m11.226,114.455l-3.23-3.23-.77-1.49-1-.24-.76.25-.37,1.33,2,3,1.49,3.42,1.46.43,1.61-1.39.24-1-.67-1.08h0Z" fill="#d3ebfa" stroke="#27bbea" stroke-width=".25"/><path id="am" d="m51.646,70.655l-.76-2.09-1-2-1.08-1.53-.86-1.36-.94-1.51-.53-.11-1.32,1.68-1.21,1.29-1.13.35-.91-1.37-.88-2.13.57-2.42.71-2.07.21-1.48h-.45l-.46.56-.83,2.55-.63,2.12-1.4.63-2.36.38-2.67.19-.08.92.51,1.19.41.2.46-.12,1.42-1.4,2.16.37.75.67.74-.1.56-.09.74.6.29,1,1.28.7,1.63-.25,1.53-2.38.8.11.46.78.77,1.14,1.37,1.63.83,1.89.65,1.69.52.32.13-.55h0Z" fill="#d3ebfa" stroke="#27bbea" stroke-width=".25"/></g></g></g><g id="an"><g id="ao" opacity=".7"><path d="m295.696,71.735c-1.13,0-8-.31-10.13,3.73-1.16,2.22-.34,4.74.8,8.26,1.21,3.71,2,6.19,4.27,7.46,4.31,2.45,10.69-1.41,13.86-4.53,1.7-1.67,4.4-4.33,4-7.46-.62-4.69-7.83-7.27-12.8-7.46h0Z" fill="#0b5b68" isolation="isolate" opacity=".5"/><path d="m255.984,211.209c.99,1.872,2.238,3.604,3.752,5.13,5.674,5.716,13.954,7.793,21.795,9.632,5.183,1.216,10.466,2.44,15.773,2.026,7.376-.576,10.459-4.507,8.431-11.462-3.359-11.521-12.418-16.596-20.496-24.346-6.195-5.943-13.235-17.801-23.554-12.314-3.412,1.815-5.551,5.379-6.87,9.011-2.615,7.202-2.361,15.65,1.168,22.323Z" fill="#ce5134" isolation="isolate" opacity=".5"/><path d="m80.851,86.756c-1.341,1.687-.487,2.641-1.858,4.899-1.506,2.48-3.075,2.217-3.379,3.717-.43,2.124,2.663,2.909,4.899,7.433.486.984,1.789,3.621,1.858,7.096.053,2.662-.667,3.389,0,5.068.967,2.437,3.017,2.255,3.548,4.393.44,1.772-.872,2.282-.845,5.237.01,1.051.025,2.709,1.014,4.055,1.455,1.981,3.406,1.086,4.899,2.534,2.37,2.299-.844,6.199.845,12.164.342,1.208,1.544,5.456,4.899,6.589,2.533.855,5.067-.479,6.082-1.014,1.681-.885,2.247-1.75,5.913-6.251,4.645-5.704,5.372-6.326,5.913-6.758,2.466-1.968,3.409-1.856,4.887-3.717.31-.391,2.141-2.756,2.377-6.082.227-3.201-1.234-4.307-2.377-7.94-2.389-7.591,1.044-12.125-1.846-14.36-1.654-1.279-2.805.184-6.082-1.183-2.221-.926-2.414-1.899-6.42-5.575-4.647-4.265-4.953-3.474-6.589-5.744-1.736-2.409-1.756-3.804-4.224-6.589-2.125-2.399-3.242-2.641-3.717-2.703-.942-.124-1.426.189-5.068,2.027-3.902,1.969-4.207,2.045-4.73,2.703Z" fill="#819a35" isolation="isolate" opacity=".5"/><path d="m108.769,54.06c-1.161.957-1.441,3.448-.381,4.652,1.713,1.944,5.931-.708,7.433,1.183,1.07,1.346-.603,2.858.169,6.082.106.443.925,3.669,3.536,5.068,2.565,1.375,5.488.253,5.581.648.146.624-7.596,1.434-8.779,5.265-.721,2.334,1.628,3.738.845,6.927-.692,2.82-3.114,4.104-2.703,4.73.426.648,2.829-1.016,6.251-1.352,1.335-.131,2.038.017,10.306,2.534,8.088,2.462,8.263,2.578,9.292,2.534,1.053-.045,2.652-.242,4.224.676,1.63.952,1.867,2.806,2.365,2.703.86-.178-.387-5.323,1.689-6.589,1.195-.729,2.345.527,3.379-.169,1.918-1.291-.954-6.346,1.183-8.447.911-.896,1.605-.146,5.913-1.183,2.444-.588,3.685-.902,4.561-1.858,1.391-1.518.555-2.776,2.027-4.224,1.089-1.071,2.876-1.69,4.393-1.352,1.308.292,1.329,1.053,2.534,1.183,1.466.157,2.015-.907,3.717-1.183,1.619-.262,1.823.697,3.548.676.337-.004,3.042-.081,4.393-2.196,1.026-1.607.837-3.713,0-5.068-1.324-2.142-4.67.108-8.616-1.52-2.596-1.071-2.431-2.413-4.899-4.224-5.047-3.702-13.113-3.503-18.584-1.183-2.567,1.089-3.633,2.25-7.602,3.548-3.656,1.195-5.788,1.203-6.589,1.183-1.565-.039-4.084-.102-6.42-1.52-3.466-2.105-2.511-4.756-6.251-7.94-1.056-.899-4.333-3.69-7.433-2.872-2.114.558-2.364,2.323-5.068,2.872-2.071.42-3.034-.39-4.012.416Z" fill="#819a35" isolation="isolate" opacity=".5"/><path d="m103.41,152.659c1.058,2.688,4.126,3.735,5.437,4.182,2.674.912,4.3.472,8.666.257,3.565-.176,1.884.147,10.992.161,8.732.014,8.24-.287,11.293,0,3.41.32,4.946.781,8.156.627,3.04-.146,4.415-1.813,6.483-1.046,2.14.794,3.071,3.046,3.15,3.244,1.099,2.768-.833,4.417-.013,6.375.856,2.042,3.64,1.876,9.62,3.346,4.185,1.029,7.251,2.219,13.384,4.601,7.435,2.887,6.134,3.125,8.365,3.555,8.857,1.709,11.742-5.441,20.912-3.973,3.681.589,4.692,1.977,10.456,2.719,3.836.493,4.447.015,7.319.836,2.395.685,3.931,1.579,6.065,1.046,1.238-.31,2.298-1.005,2.928-1.673,2.413-2.559,1.023-7.383,0-11.711-3.024-12.791-.513-11.41-3.555-21.54-1.7-5.66-3.48-9.407-6.065-14.848-3.723-7.838-5.466-9.668-6.886-10.859-2.858-2.396-5.595-3.194-10.68-4.616-8.723-2.44-9.851-.812-17.775-2.928-7.305-1.951-11.295-4.656-12.966-2.928-1.289,1.334.429,3.629-.836,6.483-1.124,2.535-3.174,2.032-7.11,4.81-4.697,3.314-4.377,5.716-9.411,8.574-3.758,2.133-5.405,1.629-5.855,1.464-.503-.184-1.042-.507-3.764-4.182-1.942-2.622-2.917-3.95-3.137-4.81-.773-3.021,1.077-4.352,0-6.065-.565-.899-1.19-.716-5.646-2.509-2.161-.87-3.256-1.316-3.973-1.882-2.049-1.618-1.728-2.892-3.346-3.973-1.838-1.229-2.816.039-5.855-.627-3.702-.811-3.902-3.054-8.156-4.182-1.639-.435-3.592-.953-5.019,0-2.085,1.393-1.489,5.387-1.046,8.574.928,6.669,2.997,7.259,2.928,11.92-.051,3.421-1.211,6.187-2.3,8.783-1.288,3.07-2.8,5.362-3.764,6.692-3.491,4.816-5.398,4.753-7.528,8.783-1.058,2.002-2.49,4.712-1.464,7.319Z" fill="#819a35" isolation="isolate" opacity=".5"/><path d="m181.471,70.734c.848.807,2.046.439,3.587,1.973.323.322,1.234,1.25,1.614,2.69.107.405.467,1.971-.717,4.663-1.537,3.493-3.132,3.098-4.125,5.739-1.008,2.68.498,3.453-.717,6.814-.385,1.066-.975,2.695-2.511,3.945-1.471,1.197-2.44.931-3.228,1.973-1.307,1.728-.237,4.57,0,5.201,1.157,3.074,4.284,4.887,8.608,6.456,10.633,3.858,12.879.27,20.443,3.587,6.24,2.736,7.854,6.555,13.27,6.277.819-.042,4.649-.239,6.097-2.69,1.302-2.203-.432-4.346-.538-8.966-.068-2.971.589-4.686,1.435-7.89,2.272-8.613.881-8.95,3.228-20.443,1.623-7.949,2.649-9.559,2.67-14.834.021-5.277-.989-8.292-1.773-10.092-1.265-2.903-2.834-4.687-5.021-7.173-3.138-3.568-5.464-6.212-9.504-8.07-4.011-1.844-7.522-1.908-11.118-1.973-4.17-.075-6.889-.124-9.684,1.614-2.852,1.774-4.251,4.457-5.201,6.277-1.399,2.683-1.641,4.522-2.331,7.352-2.523,10.346-6.565,15.593-4.483,17.574Z" fill="#ce5134" isolation="isolate" opacity=".5"/></g><g isolation="isolate"><text transform="translate(172.547 153.719)" fill="#576324" font-family="Helvetica-Bold, Helvetica" font-size="7.2" font-weight="700" letter-spacing=".2em"><tspan x="0" y="0">MESCALERO</tspan></text></g><g isolation="isolate"><text transform="translate(193.535 100.512) rotate(-68.063)" fill="#a23422" font-family="Helvetica-Bold, Helvetica" font-size="7.2" font-weight="700"><tspan x="0" y="0" letter-spacing=".2em">JICARILL</tspan><tspan x="43.92" y="0" letter-spacing=".163em">A</tspan></text></g><text transform="translate(201.471 99.428) rotate(-68.063)" fill="#a23422" font-family="Helvetica-BoldOblique, Helvetica" font-size="4" font-style="oblique" font-weight="700" isolation="isolate"><tspan x="0" y="0" letter-spacing=".2em">ABACHI MIZA</tspan><tspan x="38.93" y="0" letter-spacing=".163em">A</tspan></text><text transform="translate(199.21 160.735)" fill="#576324" font-family="Helvetica-BoldOblique, Helvetica" font-size="4" font-style="oblique" font-weight="700" isolation="isolate"><tspan x="0" y="0" letter-spacing=".2em">NDEE BIZA</tspan><tspan x="28.757" y="0" letter-spacing=".163em">A</tspan></text><g isolation="isolate"><text transform="translate(123.595 71.091)" fill="#576324" font-family="Helvetica-Bold, Helvetica" font-size="7.2" font-weight="700"><tspan x="0" y="0" letter-spacing=".2em">N</tspan><tspan x="6.64" y="0" letter-spacing=".126em">AV</tspan><tspan x="18.46" y="0" letter-spacing=".2em">AJO</tspan></text></g><text transform="translate(123.595 78.108)" fill="#576324" font-family="Helvetica-BoldOblique, Helvetica" font-size="4" font-style="oblique" font-weight="700" isolation="isolate" letter-spacing=".2em"><tspan x="0" y="0">DIN BIZAAD</tspan></text><g isolation="isolate"><text transform="translate(263.449 207.272)" fill="#a23422" font-family="Helvetica-Bold, Helvetica" font-size="7.2" font-weight="700"><tspan x="0" y="0" letter-spacing=".2em">LI</tspan><tspan x="9.278" y="0" letter-spacing=".126em">P</tspan><tspan x="14.99" y="0" letter-spacing=".2em">AN</tspan></text></g><text transform="translate(261.991 214.288)" fill="#a23422" font-family="Helvetica-BoldOblique, Helvetica" font-size="4" font-style="oblique" font-weight="700" isolation="isolate"><tspan x="0" y="0" letter-spacing=".2em">ND MIIZA</tspan><tspan x="27.644" y="0" letter-spacing=".163em">A</tspan></text><path d="m151.104,127.687c.647,1.709-.791,3.457-1.084,5.261-.211,1.295.164,2.717-.452,3.875-.341.135-.683.27-1.024.406-.443.685-.542,1.58-.26,2.345.089.241.214.472.259.725.069.385-.053.776-.176,1.147-.395,1.195-.813,2.467-.505,3.688s1.68,2.255,2.82,1.721c.423-.198.803-.59,1.267-.534.822.099.804,1.279,1.128,2.041.307.722,1.049,1.144,1.58,1.722,1.007,1.097,1.186,2.869.419,4.145" fill="none" opacity=".5" stroke="#fff" stroke-linecap="round" stroke-miterlimit="10" stroke-width=".75"/><g isolation="isolate"><text transform="translate(117.41 138.963)" fill="#576324" font-family="Helvetica-Bold, Helvetica" font-size="5.812" font-weight="700"><tspan x="0" y="0" letter-spacing=".2em">CHIRICAHU</tspan><tspan x="43.072" y="0" letter-spacing=".163em">A</tspan></text></g><g isolation="isolate"><text transform="translate(284.702 100.05)" fill="#0b5b68" font-family="Helvetica-Bold, Helvetica" font-size="5.812" font-weight="700"><tspan x="0" y="0" letter-spacing=".2em">KIO</tspan><tspan x="13.82" y="0" letter-spacing=".145em">W</tspan><tspan x="20.15" y="0" letter-spacing=".163em">A</tspan><tspan x="-2.896" y="6.975" letter-spacing=".2em">A</tspan><tspan x="2.464" y="6.975" letter-spacing=".126em">P</tspan><tspan x="7.075" y="6.975" letter-spacing=".2em">ACHE</tspan></text></g><text transform="translate(117.409 144.627)" fill="#576324" font-family="Helvetica-BoldOblique, Helvetica" font-size="3.229" font-style="oblique" font-weight="700" isolation="isolate"><tspan x="0" y="0" letter-spacing=".2em">NDEE BIZA</tspan><tspan x="23.213" y="0" letter-spacing=".163em">A</tspan></text><g isolation="isolate"><text transform="translate(86.673 93.914) rotate(55.497)" fill="#576324" font-family="Helvetica-Bold, Helvetica" font-size="5.812" font-weight="700"><tspan x="0" y="0" letter-spacing=".145em">W</tspan><tspan x="6.33" y="0" letter-spacing=".2em">.</tspan><tspan x="9.107" y="0" letter-spacing=".163em"> </tspan><tspan x="11.672" y="0" letter-spacing=".2em">A</tspan><tspan x="17.032" y="0" letter-spacing=".126em">P</tspan><tspan x="21.642" y="0" letter-spacing=".2em">ACHE</tspan></text></g><text transform="translate(85.911 102.805) rotate(55.497)" fill="#576324" font-family="Helvetica-BoldOblique, Helvetica" font-size="3.229" font-style="oblique" font-weight="700" isolation="isolate" letter-spacing=".2em"><tspan x="0" y="0">NDEE BIYTI&apos;</tspan></text><path d="m178.956,65.175c-.12,1.08-.15,2.13-.06,3.11-.09-.98-.07-2.02.06-3.11Z" fill="none" stroke="#0b5b68" stroke-miterlimit="10"/><path d="m178.956,65.175c.07-.66.18-1.33.32-2.01-.13.68-.24,1.35-.32,2.01Z" fill="none" stroke="#0b5b68" stroke-miterlimit="10"/><path d="m307.676,225.215c-2.709,3.514-7.167,4.509-11.75,4.96-8.23.81-17.76-1.23-25.37-4.41-6.92-2.9-13.17-7.91-16.43-14.67-5.53-11.47-4.43-25.45-5.82-37.82-.89-7.95-2.33-19.2-5.9-29.1v-.02c-3.42-9.44-8.77-17.64-17.45-20.54-.03-.01-.06-.02-.09-.03-.22-.08-.44-.16-.66-.23-.07-.02-.14-.04-.21-.06-.13-.05-.25-.08-.36-.11-.18-.05-.35-.1-.51-.14-.08-.03-.16-.05-.28-.07-1.68-.44-3.43-.55-5.17-.43-.24.02-.49.03-.75.03-.36,0-.75-.01-1.16-.05-7.2-.67-8.16-6.29-16.72-8.51-5.62-1.45-5.52.41-12.32-.73-5.21-.88-12.46-4.79-14.4-10.13-1.01-2.75.4-4.32,2.2-5.86,1.68-1.43,3.7-2.84,4.45-5.16.49-1.53.29-2.16.39-3.73,0,0,.01-.85.36-2.66.68-3.52,5.16-5.37,5.19-8.16,0-.18-.02-.34-.06-.5-.41-1.99-3.43-2.5-5.06-5.59-.5-.95-.79-2.03-.9-3.21-.09-.98-.06-2.03.06-3.11.08-.66.19-1.33.32-2.01.07-.33.14-.66.22-1,.1-.43.21-.86.33-1.29s.25-.86.38-1.3l.18-.57c.22-.68.45-1.36.7-2.04.59-1.6,1.16-3.31,1.78-5.06,2.04-5.76,4.6-11.81,9.95-14.57,9.504-4.903,24.286,1.587,26.46,2.68,25.741,12.942,14.906,44.274,40.546,87.716,12.365,20.949,37.798,52.485,47.401,78.072,1.883,5.018,4.696,13.907.453,19.412Z" fill="none" stroke="#a23422" stroke-miterlimit="10"/><path d="m237.136,190.945c-5.21,1.97-9.65-5.38-23.59-6.41-8.31-.61-8.83,1.85-20.44,2.15-6.6.18-16,.42-25.07-3.65-10.86-4.87-9.48-10.64-18.48-15.89-15.48-9.02-26.03,4.31-43.91-2.95-12.32-5-21.86-17.24-25.52-28.34-2.72-8.24-.95-12.07-5.58-24.53-3.54-9.54-5.92-10.92-5.94-16.36-.06-10,7.91-21.46,16.37-22.25,8.51-.79,13.68,9.62,19.33,6.97,2.97-1.4,4.76-5.7,4.04-8.99-1.16-5.29-8.56-4.87-9.89-9.44-1.58-5.44,6.34-15,15.35-16.48,8-1.33,17.25,8.88,26.82,7.58,10.92-1.49,17.35-2.41,24.19-2.38,0,0,5.521.556,10.46,1.073,3.847.403,6.319,4.259,5.117,7.935-.003.008-.005.015-.007.022,0,0-.44,1.44-.56,1.87s-.23.86-.33,1.29c-.08.34-.15.67-.22,1-.13.68-.24,1.35-.32,2.01-.12,1.08-.15,2.13-.06,3.11.11,1.18.4,2.26.9,3.21,1.63,3.09,4.65,3.6,5.06,5.59.04.16.06.32.06.5-.03,2.79-4.51,4.64-5.19,8.16-.35,1.81-.36,2.66-.36,2.66-.1,1.57.1,2.2-.39,3.73-.75,2.32-2.77,3.73-4.45,5.16-1.8,1.54-3.21,3.11-2.2,5.86,1.94,5.34,9.19,9.25,14.4,10.13,6.8,1.14,6.7-.72,12.32.73,8.56,2.22,9.52,7.84,16.72,8.51.41.04.8.05,1.16.05.26,0,.51-.01.75-.03,1.74-.12,3.49-.01,5.17.43.12.02.2.04.28.07.16.04.33.09.51.14.11.03.23.06.36.11.07.02.14.04.21.06.22.07.44.15.66.23.03.01.06.02.09.03,8.68,2.9,14.03,11.1,17.45,20.54v.02c3.25,19.75,3.18,43.57-5.27,46.77Z" fill="none" stroke="#6d7f2d" stroke-miterlimit="10"/><circle cx="296.77" cy="89.845" r="27.841" fill="none" stroke="#0b5b68" stroke-miterlimit="10"/><text transform="translate(130.649 171.154) rotate(-7.244)" fill="#576324" font-family="Helvetica-Bold, Helvetica" font-size="5" font-weight="700" isolation="isolate"><tspan x="0" y="0">W</tspan></text><text transform="translate(136.195 170.541) rotate(3.439)" fill="#576324" font-family="Helvetica-Bold, Helvetica" font-size="5" font-weight="700"><tspan x="0" y="0">E</tspan></text><text transform="translate(140.373 170.884) rotate(16.787)" fill="#576324" font-family="Helvetica-Bold, Helvetica" font-size="5" font-weight="700"><tspan x="0" y="0">S</tspan></text><text transform="translate(144.352 172.211) rotate(28.529)" fill="#576324" font-family="Helvetica-Bold, Helvetica" font-size="5" font-weight="700"><tspan x="0" y="0">T</tspan></text><text transform="translate(147.761 174.117) rotate(39.688)" fill="#576324" font-family="Helvetica-Bold, Helvetica" font-size="5" font-weight="700"><tspan x="0" y="0">E</tspan></text><text transform="translate(150.905 176.889) rotate(51.014)" fill="#576324" font-family="Helvetica-Bold, Helvetica" font-size="5" font-weight="700"><tspan x="0" y="0">R</tspan></text><text transform="translate(153.826 180.624) rotate(49.102)" fill="#576324" font-family="Helvetica-Bold, Helvetica" font-size="5" font-weight="700"><tspan x="0" y="0">N</tspan></text><text transform="translate(157.243 184.314) rotate(40.947)" fill="#576324" font-family="Helvetica-Bold, Helvetica" font-size="5" font-weight="700"><tspan x="0" y="0"> </tspan></text><text transform="translate(159.388 186.137) rotate(32.411)" fill="#576324" font-family="Helvetica-Bold, Helvetica" font-size="5" font-weight="700"><tspan x="0" y="0">B</tspan></text><text transform="translate(163.727 188.74) rotate(23.706)" fill="#576324" font-family="Helvetica-Bold, Helvetica" font-size="5" font-weight="700"><tspan x="0" y="0">R</tspan></text><text transform="translate(168.271 190.657) rotate(17.205)" fill="#576324" font-family="Helvetica-Bold, Helvetica" font-size="5" font-weight="700"><tspan x="0" y="0">A</tspan></text><text transform="translate(173.008 192.046) rotate(11.162)" fill="#576324" font-family="Helvetica-Bold, Helvetica" font-size="5" font-weight="700"><tspan x="0" y="0">N</tspan></text><text transform="translate(177.783 192.924) rotate(6.043)" fill="#576324" font-family="Helvetica-Bold, Helvetica" font-size="5" font-weight="700"><tspan x="0" y="0">C</tspan></text><text transform="translate(182.589 193.382) rotate(1.927)" fill="#576324" font-family="Helvetica-Bold, Helvetica" font-size="5" font-weight="700"><tspan x="0" y="0">H</tspan></text><text transform="translate(110.484 42.514) rotate(-13.116)" fill="#576324" font-family="Helvetica-Bold, Helvetica" font-size="5" font-weight="700" isolation="isolate"><tspan x="0" y="0">W</tspan></text><text transform="translate(115.81 41.558) rotate(10.766)" fill="#576324" font-family="Helvetica-Bold, Helvetica" font-size="5" font-weight="700"><tspan x="0" y="0">E</tspan></text><text transform="translate(119.872 42.478) rotate(22.279)" fill="#576324" font-family="Helvetica-Bold, Helvetica" font-size="5" font-weight="700"><tspan x="0" y="0">S</tspan></text><text transform="translate(123.81 44.168) rotate(26.121)" fill="#576324" font-family="Helvetica-Bold, Helvetica" font-size="5" font-weight="700"><tspan x="0" y="0">T</tspan></text><text transform="translate(127.459 45.98) rotate(25.075)" fill="#576324" font-family="Helvetica-Bold, Helvetica" font-size="5" font-weight="700"><tspan x="0" y="0">E</tspan></text><text transform="translate(131.617 47.903) rotate(18.308)" fill="#576324" font-family="Helvetica-Bold, Helvetica" font-size="5" font-weight="700"><tspan x="0" y="0">R</tspan></text><text transform="translate(136.614 49.396) rotate(2.04)" fill="#576324" font-family="Helvetica-Bold, Helvetica" font-size="5" font-weight="700"><tspan x="0" y="0">N</tspan></text><text transform="translate(141.568 49.227) rotate(-7.781)" fill="#576324" font-family="Helvetica-Bold, Helvetica" font-size="5" font-weight="700"><tspan x="0" y="0"> </tspan></text><text transform="translate(143.927 48.905) rotate(-7.687)" fill="#576324" font-family="Helvetica-Bold, Helvetica" font-size="5" font-weight="700"><tspan x="0" y="0">B</tspan></text><text transform="translate(148.481 48.29) rotate(-7.176)" fill="#576324" font-family="Helvetica-Bold, Helvetica" font-size="5" font-weight="700"><tspan x="0" y="0">R</tspan></text><text transform="translate(153.035 47.72) rotate(-5.941)" fill="#576324" font-family="Helvetica-Bold, Helvetica" font-size="5" font-weight="700"><tspan x="0" y="0">A</tspan></text><text transform="translate(157.599 47.257) rotate(-3.651)" fill="#576324" font-family="Helvetica-Bold, Helvetica" font-size="5" font-weight="700"><tspan x="0" y="0">N</tspan></text><text transform="translate(162.151 46.99) rotate(-.411)" fill="#576324" font-family="Helvetica-Bold, Helvetica" font-size="5" font-weight="700"><tspan x="0" y="0">C</tspan></text><text transform="translate(166.683 47.164) rotate(5.824)" fill="#576324" font-family="Helvetica-Bold, Helvetica" font-size="5" font-weight="700"><tspan x="0" y="0">H</tspan></text><text transform="translate(273.643 68.978) rotate(-44.873)" fill="#0b5b68" font-family="Helvetica-Bold, Helvetica" font-size="5" font-weight="700"><tspan x="0" y="0">P</tspan></text><text transform="translate(276.686 66.044) rotate(-37.393)" fill="#0b5b68" font-family="Helvetica-Bold, Helvetica" font-size="5" font-weight="700"><tspan x="0" y="0">L</tspan></text><text transform="translate(279.86 63.671) rotate(-29.599)" fill="#0b5b68" font-family="Helvetica-Bold, Helvetica" font-size="5" font-weight="700"><tspan x="0" y="0">A</tspan></text><text transform="translate(283.851 61.534) rotate(-23.278)" fill="#0b5b68" font-family="Helvetica-Bold, Helvetica" font-size="5" font-weight="700"><tspan x="0" y="0">I</tspan></text><text transform="translate(285.955 60.616) rotate(-16.967)" fill="#0b5b68" font-family="Helvetica-Bold, Helvetica" font-size="5" font-weight="700"><tspan x="0" y="0">N</tspan></text><text transform="translate(290.289 59.372) rotate(-8.866)" fill="#0b5b68" font-family="Helvetica-Bold, Helvetica" font-size="5" font-weight="700"><tspan x="0" y="0">S</tspan></text><text transform="translate(294.501 58.815) rotate(-2.856)" fill="#0b5b68" font-family="Helvetica-Bold, Helvetica" font-size="5" font-weight="700"><tspan x="0" y="0"> </tspan></text><text transform="translate(296.618 58.689) rotate(2.993)" fill="#0b5b68" font-family="Helvetica-Bold, Helvetica" font-size="5" font-weight="700"><tspan x="0" y="0">A</tspan></text><text transform="translate(301.118 58.997) rotate(11.027)" fill="#0b5b68" font-family="Helvetica-Bold, Helvetica" font-size="5" font-weight="700"><tspan x="0" y="0">P</tspan></text><text transform="translate(304.898 59.759) rotate(18.428)" fill="#0b5b68" font-family="Helvetica-Bold, Helvetica" font-size="5" font-weight="700"><tspan x="0" y="0">A</tspan></text><text transform="translate(309.151 61.245) rotate(26.775)" fill="#0b5b68" font-family="Helvetica-Bold, Helvetica" font-size="5" font-weight="700"><tspan x="0" y="0">C</tspan></text><text transform="translate(313.146 63.333) rotate(35.075)" fill="#0b5b68" font-family="Helvetica-Bold, Helvetica" font-size="5" font-weight="700"><tspan x="0" y="0">H</tspan></text><text transform="translate(316.774 65.968) rotate(43.034)" fill="#0b5b68" font-family="Helvetica-Bold, Helvetica" font-size="5" font-weight="700"><tspan x="0" y="0">E</tspan></text></g><g id="ap"><text transform="translate(248.101 92.727) rotate(72.815)" fill="#a23422" font-family="Helvetica-Bold, Helvetica" font-size="5" font-weight="700" isolation="isolate"><tspan x="0" y="0">E</tspan></text><text transform="translate(249.38 96.828) rotate(71.35)" fill="#a23422" font-family="Helvetica-Bold, Helvetica" font-size="5" font-weight="700"><tspan x="0" y="0">A</tspan></text><text transform="translate(250.861 101.169) rotate(69.76)" fill="#a23422" font-family="Helvetica-Bold, Helvetica" font-size="5" font-weight="700"><tspan x="0" y="0">S</tspan></text><text transform="translate(252.376 105.232) rotate(68.182)" fill="#a23422" font-family="Helvetica-Bold, Helvetica" font-size="5" font-weight="700"><tspan x="0" y="0">T</tspan></text><text transform="translate(253.886 108.978) rotate(66.561)" fill="#a23422" font-family="Helvetica-Bold, Helvetica" font-size="5" font-weight="700"><tspan x="0" y="0">E</tspan></text><text transform="translate(255.607 112.912) rotate(64.819)" fill="#a23422" font-family="Helvetica-Bold, Helvetica" font-size="5" font-weight="700"><tspan x="0" y="0">R</tspan></text><text transform="translate(257.574 117.059) rotate(63.012)" fill="#a23422" font-family="Helvetica-Bold, Helvetica" font-size="5" font-weight="700"><tspan x="0" y="0">N</tspan></text><text transform="translate(259.678 121.137) rotate(61.654)" fill="#a23422" font-family="Helvetica-Bold, Helvetica" font-size="5" font-weight="700"><tspan x="0" y="0"> </tspan></text><text transform="translate(260.818 123.251) rotate(60.296)" fill="#a23422" font-family="Helvetica-Bold, Helvetica" font-size="5" font-weight="700"><tspan x="0" y="0">B</tspan></text><text transform="translate(263.108 127.233) rotate(58.634)" fill="#a23422" font-family="Helvetica-Bold, Helvetica" font-size="5" font-weight="700"><tspan x="0" y="0">R</tspan></text><text transform="translate(265.518 131.163) rotate(57.47)" fill="#a23422" font-family="Helvetica-Bold, Helvetica" font-size="5" font-weight="700"><tspan x="0" y="0">A</tspan></text><text transform="translate(268.002 135.038) rotate(56.689)" fill="#a23422" font-family="Helvetica-Bold, Helvetica" font-size="5" font-weight="700"><tspan x="0" y="0">N</tspan></text><text transform="translate(270.541 138.89) rotate(56.174)" fill="#a23422" font-family="Helvetica-Bold, Helvetica" font-size="5" font-weight="700"><tspan x="0" y="0">C</tspan></text><text transform="translate(273.106 142.711) rotate(55.857)" fill="#a23422" font-family="Helvetica-Bold, Helvetica" font-size="5" font-weight="700"><tspan x="0" y="0">H</tspan></text></g></svg>