<svg xmlns="http://www.w3.org/2000/svg" width="1026" height="621" viewBox="0 0 1026 621" version="1.1"><path d="M 749 85.563 C 745.425 86.901, 741.600 88.406, 740.500 88.907 C 739.400 89.408, 737.778 90.045, 736.896 90.322 C 736.015 90.598, 731.380 93.624, 726.596 97.045 L 717.900 103.266 711.200 102.584 C 707.515 102.209, 703.521 101.659, 702.325 101.362 L 700.150 100.821 695.605 105.010 L 691.060 109.199 695.280 114.122 C 697.601 116.829, 701.300 120.258, 703.500 121.742 C 705.700 123.225, 709.587 126.140, 712.139 128.219 C 714.690 130.299, 717.030 132, 717.339 132 C 717.647 132, 720.042 133.446, 722.660 135.213 L 727.421 138.426 736.711 138.832 L 746 139.239 746 140.072 L 746 140.906 741 140.453 C 738.250 140.204, 733.770 139.799, 731.045 139.552 L 726.090 139.105 723.295 137.335 C 721.758 136.362, 716.999 132.963, 712.721 129.783 C 708.442 126.602, 704.582 124, 704.142 124 C 703.702 124, 700.133 120.759, 696.211 116.797 L 689.079 109.594 682.790 112.399 C 669.837 118.174, 671.319 116.529, 667.376 129.500 C 665.871 134.450, 663.617 140.349, 662.367 142.608 L 660.094 146.716 662.852 149.358 C 664.369 150.811, 665.907 152, 666.270 152 C 666.633 152, 669.084 153.353, 671.715 155.006 L 676.500 158.012 685.548 168.951 L 694.597 179.891 704.768 189.195 C 715.577 199.085, 725.402 207, 726.867 207 C 727.356 207, 728.354 207.722, 729.086 208.604 C 729.819 209.486, 731.336 210.623, 732.459 211.130 C 733.582 211.636, 736.020 213.159, 737.878 214.512 L 741.257 216.974 743.657 216.371 L 746.057 215.769 748.668 218.587 L 751.279 221.405 755.014 221.135 L 758.749 220.865 760.874 223.567 L 763 226.270 763.025 228.885 L 763.049 231.500 766.566 233.250 C 768.500 234.213, 770.758 235, 771.584 235 L 773.086 235 778.059 239.652 L 783.033 244.305 790.951 242.135 L 798.868 239.965 811.383 239.331 L 823.897 238.697 827.699 244.970 C 829.789 248.420, 832.475 252.426, 833.666 253.872 L 835.832 256.500 838.331 254.156 L 840.830 251.811 842.589 254.495 C 843.556 255.972, 845.057 258.500, 845.924 260.114 L 847.500 263.049 852 265.474 C 854.475 266.808, 858.353 268.882, 860.617 270.084 L 864.734 272.269 866.427 276.385 C 867.358 278.648, 868.761 281.962, 869.544 283.750 L 870.968 287 872.505 287 L 874.043 287 875.193 284.476 L 876.343 281.952 878.726 281.354 L 881.109 280.756 884.755 281.348 L 888.401 281.939 891.344 284.882 L 894.286 287.825 894.905 291.662 L 895.524 295.500 899.742 295.807 L 903.960 296.113 905.558 299.807 C 906.437 301.838, 908.053 305.491, 909.150 307.925 L 911.144 312.349 907.830 318.678 L 904.517 325.008 899.234 327.754 L 893.950 330.500 892.991 329 C 892.464 328.175, 891.866 327.050, 891.662 326.500 L 891.291 325.500 884.896 328.811 L 878.500 332.123 871.500 331.811 L 864.500 331.500 864.185 335.321 L 863.871 339.142 866.452 342.526 L 869.033 345.909 875.766 346.259 L 882.500 346.608 875.264 346.804 L 868.028 347 865.441 343.091 L 862.854 339.181 862.482 332.433 L 862.109 325.685 860.804 324.858 C 860.087 324.403, 858.517 324.024, 857.315 324.015 C 856.113 324.007, 853.910 323.536, 852.418 322.969 L 849.705 321.937 844.980 323.506 C 842.382 324.370, 838.225 325.171, 835.743 325.288 L 831.231 325.500 832.992 329 C 835.356 333.697, 836.717 340.569, 837.548 352.010 L 838.239 361.519 836.471 368.010 C 835.499 371.579, 834.500 376.166, 834.251 378.203 L 833.799 381.906 837.018 387.703 C 838.789 390.891, 842.041 396.875, 844.245 401 C 846.450 405.125, 848.884 409.517, 849.656 410.760 L 851.060 413.021 853.780 411.640 C 855.276 410.881, 858.658 409.946, 861.296 409.562 L 866.092 408.864 871.296 404.630 L 876.500 400.397 878.740 395.948 C 879.971 393.502, 880.984 391.014, 880.990 390.421 L 881 389.342 885.883 387.055 L 890.766 384.768 894.307 380.125 L 897.848 375.482 902.452 374.122 L 907.057 372.762 908.075 370.861 L 909.092 368.959 908.514 368.023 L 907.936 367.088 909.314 363.794 L 910.691 360.500 916.385 358.750 C 919.517 357.788, 922.943 357, 923.999 357 L 925.920 357 927.127 352.970 L 928.334 348.940 924.917 345.386 L 921.500 341.832 909.845 342.166 L 898.190 342.500 899.345 341.765 L 900.500 341.031 911.458 341.015 L 922.416 341 926.049 344.547 L 929.681 348.095 933.341 343.629 C 935.353 341.173, 937 338.677, 937 338.082 C 937 336.787, 939.216 336.651, 940.550 337.864 C 941.072 338.338, 943.027 339.238, 944.894 339.862 L 948.287 340.996 953.144 337.293 L 958 333.589 958 331.991 L 958 330.392 954.551 327.050 L 951.103 323.707 950.025 318.680 L 948.947 313.653 949.723 312.942 C 950.151 312.550, 953.966 312.022, 958.202 311.768 L 965.904 311.307 966.542 312.903 C 968.209 317.076, 970.955 328.868, 970.976 331.945 L 971 335.391 968.434 338.068 L 965.869 340.746 967.908 346.958 L 969.947 353.170 967.429 357.835 C 966.044 360.401, 963.952 364.188, 962.780 366.250 L 960.648 370 958.435 370 L 956.222 370 954.212 371.750 L 952.203 373.500 951.102 382.568 C 950.496 387.555, 950 393.116, 950 394.926 L 950 398.216 954.908 404.358 C 963.150 414.672, 965.185 416.151, 977.079 420.476 L 981.658 422.141 985.579 421.821 L 989.500 421.500 990 410.401 L 990.500 399.303 991.606 397.901 C 992.214 397.131, 994.176 393.800, 995.965 390.500 L 999.217 384.500 998.607 378.500 L 997.997 372.500 1000.078 365.500 C 1001.222 361.650, 1002.734 356.451, 1003.437 353.946 L 1004.716 349.392 1009.358 343.086 L 1014 336.780 1014 330.140 L 1014 323.500 1010.386 320.617 L 1006.772 317.733 1007.350 313.617 L 1007.927 309.500 1005.914 302.500 C 1004.807 298.650, 1003.281 293.250, 1002.522 290.500 C 1001.764 287.750, 1000.158 282.169, 998.954 278.099 L 996.765 270.697 1000.601 267.476 L 1004.438 264.256 1003.074 255.378 C 1002.323 250.495, 1001.407 244.078, 1001.038 241.119 L 1000.366 235.737 1002.433 233.784 C 1003.570 232.709, 1005.712 231.195, 1007.194 230.419 L 1009.888 229.007 1011.382 226.253 C 1012.204 224.739, 1013.860 221.575, 1015.062 219.221 L 1017.247 214.942 1014.874 210.319 C 1012.185 205.082, 1008.080 200.731, 999.008 193.500 C 992.231 188.099, 990.598 186.049, 989.579 181.666 L 988.920 178.832 989.960 179.475 L 991 180.118 991 182.436 L 991 184.755 998.250 191.182 C 1002.237 194.718, 1006.850 198.550, 1008.500 199.698 L 1011.500 201.787 1015 208.380 L 1018.500 214.973 1015.250 221.276 C 1013.462 224.743, 1012 228.077, 1012 228.685 L 1012 229.792 1006.910 233.058 L 1001.821 236.324 1002.373 239.412 C 1002.678 241.110, 1003.694 247.584, 1004.633 253.798 L 1006.340 265.095 1002.798 268.015 L 999.257 270.934 1000.061 274.717 C 1000.962 278.956, 1003.871 289.221, 1006.943 299 L 1008.985 305.500 1008.992 311.095 L 1009 316.690 1010.750 318.193 C 1011.712 319.020, 1013.288 319.975, 1014.250 320.317 L 1016 320.937 1016 328.979 L 1016 337.021 1012.345 342.260 C 1010.335 345.142, 1007.860 348.573, 1006.845 349.885 C 1005.830 351.197, 1005 353.130, 1005 354.181 C 1005 355.232, 1003.885 359.558, 1002.522 363.796 L 1000.043 371.500 1000.127 379 L 1000.210 386.500 997.398 392 C 995.852 395.025, 993.779 398.573, 992.793 399.885 L 991 402.270 991 411.166 L 991 420.063 992.389 420.596 L 993.778 421.129 1000.841 419.667 L 1007.905 418.205 1016.702 411.592 L 1025.500 404.980 1026.144 409.240 L 1026.788 413.500 1026.614 287.304 C 1026.519 217.896, 1026.223 160.889, 1025.956 160.622 C 1025.466 160.133, 1015.128 159.154, 1009.394 159.054 L 1006.288 159 1001.704 155.500 L 997.120 152 991.768 152 L 986.416 152 982.208 156.288 C 979.894 158.646, 978 161.155, 978 161.862 C 978 162.570, 980.475 165.743, 983.500 168.915 C 986.525 172.086, 989 175.270, 989 175.990 L 989 177.300 986.124 173.400 C 984.542 171.255, 981.635 167.966, 979.663 166.092 L 976.079 162.684 966.289 169.039 C 960.905 172.535, 955.712 176.051, 954.750 176.852 L 953 178.310 953 182.671 L 953 187.032 949.750 188.415 C 947.962 189.176, 944.475 190.564, 942 191.500 C 939.525 192.436, 936.085 193.802, 934.355 194.535 L 931.210 195.867 927.355 200.462 L 923.500 205.058 922.882 208.279 L 922.263 211.500 922.132 208.322 L 922 205.144 916.250 204.449 C 913.087 204.066, 909.952 203.316, 909.282 202.781 C 907.614 201.449, 896.864 195, 896.312 195 C 895.568 195, 888.583 189.713, 887.292 188.173 C 886.627 187.380, 885.133 183.530, 883.971 179.616 C 881.339 170.748, 879.951 167.881, 878.016 167.312 C 877.182 167.067, 874.161 165.749, 871.301 164.383 L 866.102 161.900 861.858 156.830 L 857.614 151.761 856.827 145.131 L 856.041 138.500 853.963 136.793 L 851.885 135.086 850.943 131.800 L 850 128.513 850 118.287 L 850 108.061 844.481 104.531 C 841.445 102.589, 838.575 101, 838.103 101 C 837.631 101, 836.678 100.317, 835.985 99.482 C 835.292 98.646, 833.099 97.221, 831.112 96.314 C 829.126 95.407, 826.725 94.007, 825.778 93.202 L 824.055 91.740 819.278 92.370 C 816.650 92.717, 812.801 93.276, 810.724 93.612 L 806.949 94.225 800.724 91.950 C 797.301 90.698, 793.984 89.281, 793.352 88.800 L 792.205 87.925 787.578 90.508 L 782.952 93.091 775.726 92.796 L 768.500 92.500 767.282 91 C 766.612 90.175, 766.049 88.596, 766.032 87.491 L 766 85.481 764.250 84.445 C 763.288 83.876, 760.925 83.347, 759 83.270 L 755.500 83.130 749 85.563 M 88.710 139.421 C 87.726 140.167, 83.226 142.218, 78.710 143.978 C 74.195 145.737, 68.489 148.086, 66.032 149.196 C 63.574 150.307, 60.649 151.577, 59.532 152.018 C 55.382 153.658, 44.865 161.774, 35.265 170.747 L 25.370 179.994 23.011 185.747 C 20.249 192.484, 19.703 192.964, 14.787 192.985 L 11.074 193 6.111 197.250 L 1.147 201.500 1.074 223.250 C 1.033 235.213, 1.243 245, 1.540 245 C 1.838 245, 3.300 244.120, 4.790 243.044 L 7.500 241.087 11 241.941 L 14.500 242.795 10.654 242.898 L 6.809 243 3.910 245.064 L 1.012 247.128 1.064 330.477 L 1.116 413.827 4.301 412.914 C 6.053 412.411, 7.609 412, 7.759 412 C 8.313 412, 16 428.352, 16 429.531 C 16 430.204, 16.675 431.315, 17.499 431.999 L 18.998 433.244 27.749 432.089 C 32.562 431.454, 39.425 430.573, 43 430.132 L 49.500 429.329 54.799 430.664 L 60.098 432 72.015 432 L 83.932 432 87.216 433.419 C 89.022 434.199, 92.616 435.766, 95.201 436.901 L 99.903 438.965 100.518 442.245 C 100.857 444.049, 101.985 446.645, 103.025 448.013 L 104.916 450.500 106.708 449.391 L 108.500 448.282 109.647 444.891 C 110.277 443.026, 111.371 439.475, 112.077 437 C 112.783 434.525, 113.769 431.956, 114.268 431.291 L 115.176 430.083 114.582 422.265 L 113.987 414.448 111.993 407.477 C 110.897 403.643, 110.007 400.055, 110.015 399.503 L 110.031 398.500 111 400 C 111.533 400.825, 111.986 402.400, 112.007 403.500 C 112.028 404.600, 112.848 406.544, 113.829 407.820 L 115.614 410.140 118.807 405.003 C 120.563 402.178, 122 399.469, 122 398.983 C 122 398.497, 122.642 397.740, 123.427 397.300 L 124.854 396.500 134.427 397.437 L 144 398.373 144 399.657 C 144 400.364, 142.681 402.867, 141.069 405.221 L 138.139 409.500 135.918 419.500 L 133.696 429.500 131.860 432.138 L 130.024 434.775 131.312 435.844 L 132.600 436.913 139.550 436.660 L 146.500 436.407 156.500 434.093 C 162 432.821, 168.300 430.975, 170.500 429.992 C 172.700 429.008, 176.677 427.237, 179.337 426.056 L 184.175 423.908 183.462 418.704 L 182.749 413.500 180.264 410.500 C 175.838 405.156, 169.908 399, 169.187 399 C 168.800 399, 166.310 400.158, 163.652 401.572 L 158.820 404.145 157.410 403.604 L 156 403.063 156 400.275 C 156 398.741, 155.608 396.118, 155.128 394.446 L 154.256 391.405 156.878 384.198 L 159.500 376.991 164.066 373.745 C 166.577 371.960, 170.016 369.332, 171.709 367.904 L 174.788 365.308 176.073 359.567 L 177.357 353.825 180.298 350.163 C 182.881 346.945, 186.312 342.094, 189.500 337.150 C 190.050 336.297, 192.053 333.327, 193.952 330.550 C 195.850 327.772, 199.275 322.722, 201.562 319.326 L 205.720 313.153 206.408 308.848 L 207.097 304.544 212.144 298.741 L 217.191 292.938 214.596 290.897 L 212 288.855 212 284.927 L 212 281 214.116 278.884 L 216.232 276.768 220.116 277.289 L 224 277.810 224 277.105 C 224 276.717, 223.485 275.885, 222.855 275.255 L 221.709 274.109 222.992 269.529 C 223.697 267.010, 224.663 264.709, 225.137 264.415 C 226.377 263.649, 226.200 259.532, 224.795 256.449 L 223.589 253.803 228.614 249.152 C 231.377 246.593, 235.839 242.665, 238.529 240.421 L 243.420 236.343 243.568 229.921 L 243.716 223.500 246.433 219.500 L 249.150 215.500 248.566 212.582 C 248.245 210.977, 247.688 206.489, 247.327 202.609 L 246.671 195.554 244.586 193.811 C 243.439 192.851, 242.050 192.052, 241.500 192.033 C 240.214 191.991, 234.031 186.169, 226.848 178.240 L 221.196 172 219.187 172 C 216.009 172, 195.914 167.144, 191.500 165.309 C 189.300 164.394, 185.612 162.826, 183.305 161.823 C 180.998 160.820, 178.704 160, 178.209 160 C 177.713 160, 175.904 159.300, 174.190 158.445 C 172.475 157.589, 167.216 155.938, 162.503 154.774 L 153.934 152.659 150.019 156.482 L 146.103 160.305 145.702 162.902 L 145.300 165.500 145.150 162.437 L 145 159.374 148 156.500 C 149.650 154.919, 151 153.060, 151 152.368 L 151 151.109 143.750 147.630 L 136.500 144.151 128 143.044 C 113.154 141.110, 104.640 139.870, 99.701 138.922 C 93.285 137.690, 90.847 137.800, 88.710 139.421 M 755.662 141.717 L 758.825 142.114 765.148 149.807 C 773.680 160.187, 778.140 165, 779.227 165 C 779.726 165, 781.753 166.238, 783.732 167.750 C 785.711 169.262, 790.045 171.861, 793.362 173.525 L 799.394 176.550 802.991 183.352 L 806.588 190.155 810.544 193.540 C 812.720 195.402, 815.007 196.942, 815.628 196.962 C 816.248 196.983, 817.312 197.671, 817.992 198.490 C 818.672 199.310, 821.914 201.814, 825.197 204.054 L 831.166 208.129 839.083 211.152 L 847 214.175 847 215.633 C 847 216.435, 848.129 218.220, 849.508 219.599 L 852.017 222.108 853.058 221.464 L 854.099 220.821 851.549 218.458 L 849 216.095 849 214.568 L 849 213.041 845.250 211.200 C 843.188 210.187, 839.475 208.741, 837 207.985 L 832.500 206.612 829.363 204.056 C 827.637 202.650, 822.208 198.712, 817.298 195.305 L 808.371 189.109 805.980 184.305 C 804.665 181.662, 802.750 178.261, 801.724 176.747 L 799.860 173.995 794.180 171.408 C 791.056 169.986, 787.825 168.219, 787 167.482 C 786.175 166.745, 785.158 166.120, 784.740 166.092 C 781.087 165.847, 776.405 161.481, 765 147.686 L 759.500 141.034 756 141.177 L 752.500 141.320 755.662 141.717 M 141.561 182.356 L 140.892 187.711 135.696 194.465 C 132.838 198.180, 130.050 201.958, 129.500 202.860 C 128.950 203.762, 128.263 204.725, 127.974 205 C 127.685 205.275, 125.945 207.431, 124.107 209.792 L 120.766 214.084 122.383 215.871 L 124 217.657 124 219.745 C 124 220.894, 123.659 221.983, 123.243 222.167 C 122.826 222.350, 121.008 224.387, 119.203 226.693 L 115.922 230.886 112.376 228.693 C 110.426 227.487, 107.631 225.745, 106.165 224.823 L 103.500 223.146 100.500 223.175 L 97.500 223.205 100.865 224 C 102.716 224.437, 105.511 225.741, 107.075 226.897 C 108.639 228.054, 110.317 229, 110.805 229 C 111.292 229, 112.495 229.889, 113.478 230.975 L 115.266 232.951 114.756 237.475 L 114.246 242 115.123 242 L 116 242 116 237.599 L 116 233.198 120.500 227.212 L 125 221.226 125 219.235 L 125 217.245 123.541 216.034 L 122.083 214.824 124.291 211.582 C 129.211 204.361, 133.430 199, 134.193 199 C 134.637 199, 135 198.395, 135 197.655 C 135 196.915, 135.946 195.454, 137.102 194.407 C 138.259 193.361, 139.809 191.337, 140.547 189.909 C 141.923 187.247, 143.667 177, 142.744 177 C 142.462 177, 141.929 179.410, 141.561 182.356 M 923.150 214.636 C 922.970 217.198, 921.288 220.564, 918.285 224.372 L 916.071 227.180 909.785 230.567 C 903.182 234.126, 902.630 235.169, 908.849 232.338 C 914.540 229.746, 918.848 226.200, 921.597 221.846 L 924.119 217.852 923.709 215.176 L 923.300 212.500 923.150 214.636 M 84 223.163 C 82.075 224.274, 80.050 225.643, 79.500 226.204 L 78.500 227.225 80.750 226.545 L 83 225.865 83 226.733 C 83 227.210, 81.088 230.298, 78.750 233.595 C 76.412 236.892, 73.932 240.584, 73.239 241.799 L 71.977 244.009 75.534 251.504 L 79.091 258.999 78.455 262.389 L 77.819 265.778 71.908 273.139 C 68.658 277.188, 63.861 283.084, 61.249 286.242 L 56.500 291.985 38.250 300.934 L 20 309.883 20 311.004 C 20 312.301, 22.553 320.781, 24.597 326.270 C 25.368 328.344, 26 330.890, 26 331.928 L 26 333.816 21.585 336.610 L 17.169 339.403 16.578 342.361 C 16.252 343.988, 16.211 345.544, 16.486 345.819 C 16.761 346.094, 17.274 344.878, 17.627 343.116 L 18.268 339.912 22.634 336.908 L 27 333.904 27 332.084 C 27 331.084, 25.638 326.132, 23.973 321.080 L 20.947 311.896 21.517 310.972 C 21.831 310.464, 28.256 307.068, 35.794 303.426 C 43.332 299.783, 51.300 295.901, 53.500 294.799 L 57.500 292.794 61.500 287.863 C 63.700 285.150, 67.120 281.034, 69.101 278.715 C 71.081 276.397, 74.082 272.571, 75.769 270.213 L 78.837 265.925 79.465 262.205 L 80.094 258.484 76.969 251.593 L 73.845 244.702 74.275 243.101 C 74.511 242.220, 77.764 237.104, 81.504 231.731 L 88.302 221.961 90.276 222.588 L 92.250 223.214 91.566 222.107 C 90.573 220.500, 87.988 220.860, 84 223.163 M 859.475 222.960 L 860.118 224 862.451 224 L 864.784 224 869.789 228.500 C 872.542 230.975, 875.280 233, 875.875 233 L 876.955 233 872.728 229.142 C 868.071 224.893, 865.910 223.614, 861.666 222.598 L 858.832 221.920 859.475 222.960 M 67 232.570 C 61.775 235.594, 56.600 238.243, 55.500 238.458 C 54.400 238.673, 51.475 239.302, 49 239.856 L 44.500 240.863 50.470 240.289 L 56.440 239.715 60.970 237.193 C 63.462 235.806, 67.075 233.771, 69 232.672 C 70.925 231.573, 73.737 230.039, 75.250 229.263 C 77.931 227.889, 78.762 226.964, 77.250 227.036 C 76.838 227.055, 72.225 229.546, 67 232.570 M 36.946 243.750 C 36.393 245.262, 35.743 247.063, 35.502 247.750 L 35.063 249 33.090 249 C 32.006 249, 30.848 248.563, 30.518 248.028 C 30.187 247.494, 27.854 246.144, 25.331 245.028 L 20.746 243 18.123 243.115 L 15.500 243.230 19.139 243.940 L 22.778 244.649 27.727 247.825 C 30.448 249.571, 33.325 251, 34.118 251 L 35.562 251 37.031 246.789 L 38.500 242.578 41 241.889 L 43.500 241.199 40.725 241.100 L 37.950 241 36.946 243.750 M 110.307 250.870 L 106.114 255.739 105.899 262.378 C 105.781 266.030, 105.980 269.314, 106.342 269.675 L 107 270.333 107 263.520 L 107 256.706 110.321 252.603 C 116.627 244.811, 116.617 243.542, 110.307 250.870 M 104.606 277.107 C 103.945 279.193, 102.840 303.494, 103.432 302.901 C 104.028 302.305, 105.900 276.691, 105.390 276.107 C 105.201 275.891, 104.849 276.341, 104.606 277.107 M 9.281 292.779 C 12.427 295.957, 14.992 298.995, 14.982 299.529 C 14.972 300.063, 13.202 301.962, 11.049 303.750 L 7.135 307 5.126 307 C 4.022 307, 2.829 307.468, 2.475 308.040 L 1.832 309.080 4.666 308.405 C 8.203 307.563, 8.952 307.143, 12.853 303.815 L 16 301.129 16 299.280 L 16 297.432 10.719 292.216 C 7.814 289.347, 5.015 287, 4.500 287 C 3.984 287, 6.136 289.601, 9.281 292.779 M 104.169 320.095 L 104 328.690 105.750 330.222 C 106.713 331.065, 111.551 333.816, 116.502 336.334 L 125.503 340.913 128.752 347.308 L 132 353.703 132 358.474 L 132 363.245 126.127 369.523 L 120.254 375.801 119.559 382.294 L 118.864 388.786 113.932 391.852 L 109 394.917 109 396.681 L 109 398.445 110.520 396.275 C 111.355 395.082, 113.810 393.111, 115.975 391.894 L 119.910 389.682 120.574 382.942 L 121.239 376.201 127.119 370.382 L 133 364.563 133 358.868 L 133 353.172 129.909 347.133 C 126.203 339.892, 126.446 340.108, 116.317 335.039 C 111.876 332.816, 107.626 330.256, 106.871 329.351 L 105.500 327.704 104.919 319.602 L 104.338 311.500 104.169 320.095 M 14.943 351.495 L 14.500 356.490 11.500 357.127 L 8.500 357.763 11.731 357.882 L 14.962 358 15.555 355.638 C 15.881 354.339, 15.976 351.752, 15.766 349.888 L 15.385 346.500 14.943 351.495 M 2.607 357.582 C 2.273 358.452, 2.053 360.364, 2.118 361.832 L 2.237 364.500 2.873 361.527 L 3.510 358.554 6.005 357.292 L 8.500 356.029 5.857 356.015 L 3.214 356 2.607 357.582" stroke="none" fill="#cfcfcf" fill-rule="evenodd"/><path d="M 629.395 114.165 C 629.171 114.530, 629.471 114.990, 630.061 115.187 L 631.135 115.545 635.365 126.216 L 639.595 136.888 647.039 130.969 C 651.133 127.714, 654.635 124.595, 654.820 124.039 C 655.006 123.483, 653.518 121.028, 651.515 118.584 L 647.873 114.139 638.838 113.819 L 629.803 113.500 629.395 114.165 M 230.125 165.877 L 228.750 166.773 228.750 169.476 L 228.750 172.179 230.290 173.719 L 231.831 175.259 234.400 174.614 L 236.970 173.970 237.632 171.330 L 238.295 168.690 237.296 167.095 L 236.298 165.500 233.899 165.241 C 232.580 165.098, 230.881 165.385, 230.125 165.877 M 428.312 206.535 L 425.125 209.047 419.424 208.153 C 412.130 207.009, 411.055 207.360, 407.869 211.923 L 405.239 215.691 407.054 219.596 L 408.869 223.500 408.184 224.045 C 407.808 224.344, 404.800 225.451, 401.500 226.504 L 395.500 228.419 391.500 231.450 C 389.300 233.117, 384.337 237.250, 380.471 240.633 L 373.441 246.785 371.575 253.980 L 369.709 261.174 368.254 261.733 L 366.798 262.291 365.952 260.922 L 365.105 259.552 362.738 261.776 L 360.371 264 357.258 264 L 354.145 264 352.044 261.329 L 349.943 258.657 349.149 259.579 C 348.713 260.085, 346.976 262.300, 345.290 264.500 L 342.224 268.500 336.312 270.250 L 330.401 272 324.356 272 L 318.310 272 316.609 273.880 L 314.908 275.759 319.204 279.078 C 321.567 280.903, 325.330 283.995, 327.566 285.948 C 342.176 298.710, 347.612 302.481, 357.266 306.553 L 365.352 309.963 368.147 312.640 L 370.941 315.318 371.577 313.659 C 371.928 312.746, 372.593 312, 373.057 312 C 374.207 312, 386 329.012, 386 330.671 C 386 331.402, 386.337 332.038, 386.750 332.083 C 388.914 332.324, 391.757 332.916, 393.852 333.561 L 396.204 334.287 389.992 325.393 C 386.575 320.502, 382.220 314.182, 380.314 311.348 L 376.847 306.196 378.481 303.036 L 380.116 299.876 381.808 300.199 L 383.500 300.522 395.055 317.011 C 401.411 326.080, 424.992 360.050, 447.459 392.500 C 469.925 424.950, 489.849 453.634, 491.733 456.243 L 495.159 460.985 497.080 459.957 C 498.136 459.392, 499 458.483, 499 457.938 C 499 457.140, 482.060 432.295, 459.495 400 C 456.079 395.110, 449.985 386.328, 413.711 334.013 L 389.798 299.526 392.649 298.308 C 394.217 297.638, 396.255 297.070, 397.177 297.045 L 398.854 297 409.117 311.750 C 414.762 319.863, 432.641 345.625, 448.848 369 C 465.055 392.375, 482.857 418.029, 488.407 426.008 C 493.958 433.988, 500.300 443.157, 502.500 446.384 C 504.700 449.611, 507.097 452.482, 507.828 452.763 L 509.155 453.273 510.631 451.798 L 512.106 450.322 494.113 424.411 C 484.217 410.160, 470.805 390.868, 464.310 381.540 C 444.071 352.476, 418.760 315.972, 411.033 304.704 L 403.631 293.908 406.783 290.755 C 408.517 289.021, 410.104 287.804, 410.310 288.051 C 410.740 288.567, 471.145 375.571, 487.686 399.500 C 511.182 433.488, 515.533 439.571, 516.500 439.782 L 517.500 440 518.322 437.534 L 519.144 435.067 502.327 410.784 C 493.077 397.428, 483.707 383.916, 481.505 380.758 C 470.980 365.666, 450.874 336.726, 439.640 320.500 C 432.786 310.600, 424.438 298.581, 421.089 293.790 C 417.740 289, 415.016 284.725, 415.036 284.290 C 415.056 283.856, 416.170 282.156, 417.513 280.513 L 419.954 277.525 421.382 279.013 C 422.663 280.346, 453.625 324.745, 492.504 381 C 510.395 406.887, 519.105 419.362, 519.734 420 C 520.005 420.275, 519.915 418.025, 519.536 415 L 518.845 409.500 514.118 402.500 C 511.518 398.650, 501.574 384.250, 492.020 370.500 C 472.368 342.216, 432.050 283.957, 427.108 276.703 L 423.839 271.906 425.109 266.953 C 425.807 264.229, 426.631 262.003, 426.939 262.007 C 427.248 262.011, 442.523 283.611, 460.884 310.007 C 479.245 336.403, 494.390 358, 494.539 358 C 494.688 358, 494.568 356.087, 494.273 353.750 L 493.737 349.500 487.868 341.226 C 484.641 336.675, 482 332.743, 482 332.487 C 482 332.231, 480.053 329.430, 477.673 326.261 C 473.534 320.749, 468.728 313.854, 452.042 289.486 C 442.292 275.247, 437.383 268.205, 432.750 261.813 L 429 256.639 429 254.780 C 429 253.757, 429.920 251.116, 431.045 248.911 L 433.090 244.902 452.180 272.201 C 478.533 309.888, 489.431 325.897, 491.518 329.988 L 493.297 333.476 494.399 331.524 C 495.004 330.451, 497.975 326.906, 501 323.645 L 506.500 317.718 513 313.558 C 520.415 308.811, 523.828 307.342, 529.500 306.456 C 531.700 306.113, 534.850 305.432, 536.500 304.943 C 538.150 304.454, 546.700 303.113, 555.500 301.962 C 564.300 300.811, 574.309 299.170, 577.743 298.315 L 583.985 296.761 587.447 294.130 L 590.909 291.500 592.454 287.072 C 593.304 284.636, 594.020 281.486, 594.044 280.072 C 594.068 278.657, 594.725 275.711, 595.504 273.524 L 596.920 269.548 595.210 266.820 C 593.492 264.080, 590.263 259.409, 575.166 237.825 C 570.675 231.404, 567 225.666, 567 225.075 L 567 224 565.530 224 C 564.041 224, 557.679 220.738, 555.083 218.643 C 554.303 218.015, 555.907 220.650, 558.647 224.500 C 561.386 228.350, 565.264 233.975, 567.264 237 C 569.264 240.025, 572.337 244.525, 574.092 247 C 582.207 258.442, 588 266.938, 588 267.398 C 588 267.675, 586.087 267.034, 583.750 265.973 C 581.413 264.912, 578.716 264.034, 577.757 264.022 L 576.014 264 570.654 256.750 C 567.705 252.762, 563.664 247.025, 561.673 244 C 557.206 237.213, 549.587 226.254, 548.760 225.427 L 548.147 224.814 546.666 227.678 L 545.185 230.543 547.912 234.521 C 557.870 249.053, 565.759 260.681, 566.386 261.750 L 567.118 263 562.195 263 L 557.271 263 551.386 254.469 C 548.148 249.777, 544.068 243.891, 542.318 241.388 L 539.135 236.838 537.580 239.669 C 536.725 241.226, 534.720 243.998, 533.124 245.829 L 530.223 249.157 525.656 245.671 C 523.143 243.753, 519.381 241.634, 517.294 240.962 C 515.207 240.289, 513.050 239.410, 512.500 239.008 C 511.265 238.104, 505.798 236.604, 504.676 236.861 L 503.851 237.050 504.420 236.130 L 504.989 235.210 503.404 234.602 C 502.533 234.267, 501.437 234.230, 500.970 234.519 L 500.120 235.044 496.810 233.026 C 491.643 229.875, 491.547 230.561, 496.288 236.750 C 498.711 239.912, 501.206 243.472, 501.833 244.659 L 502.973 246.819 502.107 251.456 C 501.631 254.006, 501.008 256.325, 500.724 256.609 C 500.440 256.893, 498.473 254.609, 496.354 251.532 C 494.234 248.456, 489.688 241.928, 486.250 237.025 C 482.813 232.123, 480 227.411, 480 226.556 C 480 225.700, 479.663 224.966, 479.250 224.923 C 476.379 224.631, 474.508 223.809, 470.414 221.046 C 467.854 219.319, 465.514 218.152, 465.214 218.453 C 464.913 218.754, 465.153 219, 465.748 219 C 466.342 219, 468.180 221.137, 469.831 223.750 C 471.483 226.363, 474.665 231.082, 476.902 234.238 C 483.479 243.518, 487.301 248.987, 493.375 257.812 L 499.095 266.124 498.531 267.812 C 498.221 268.740, 497.134 270.580, 496.116 271.900 L 494.264 274.301 490.303 268.400 C 485.669 261.499, 480.899 254.605, 467.664 235.687 C 462.349 228.091, 458 221.464, 458 220.962 L 458 220.050 454.950 220.660 L 451.900 221.270 449.911 219.135 C 446.565 215.543, 446.825 216.754, 450.409 221.449 C 452.277 223.895, 456.324 229.633, 459.404 234.199 C 464.942 242.410, 466.961 245.334, 475.836 258 C 478.340 261.575, 482.752 267.938, 485.640 272.141 L 490.890 279.782 489.083 284.540 L 487.277 289.298 482.889 283.022 C 474.470 270.980, 465.447 257.965, 458.105 247.271 C 454.038 241.347, 448.738 233.726, 446.328 230.335 L 441.946 224.170 442.827 218.550 L 443.708 212.930 438.104 208.473 C 435.022 206.021, 432.275 204.017, 432 204.019 C 431.725 204.021, 430.066 205.153, 428.312 206.535 M 743 217.969 L 743 218.937 744.513 218.357 L 746.025 217.776 747.467 218.973 L 748.909 220.169 748.326 226.411 L 747.743 232.653 750.506 234.826 L 753.270 237 755.680 237 L 758.091 237 760.468 234.623 L 762.845 232.246 762.011 228.548 L 761.177 224.850 759.338 223.403 L 757.500 221.956 754.376 222.395 L 751.253 222.833 749.096 219.917 L 746.940 217 744.970 217 L 743 217 743 217.969 M 597.877 231.707 L 604.331 240.913 605.166 240.398 C 605.625 240.114, 606 239.459, 606 238.941 L 606 238 604.370 238 L 602.740 238 603.231 233.642 L 603.722 229.283 601.883 226.892 C 600.872 225.576, 600.034 224.050, 600.022 223.500 L 600 222.500 595.711 222.500 L 591.423 222.500 597.877 231.707 M 578.655 223.868 L 575.810 224.500 577.750 227 C 578.817 228.375, 581.418 231.975, 583.530 235 C 585.642 238.025, 589.587 243.650, 592.298 247.500 C 595.008 251.350, 598.605 256.658, 600.291 259.296 L 603.356 264.092 605.428 263.796 L 607.500 263.499 607.369 261.794 C 607.296 260.857, 601.784 252.233, 595.119 242.630 C 588.453 233.027, 583 224.682, 583 224.085 C 583 222.919, 582.943 222.916, 578.655 223.868 M 437.690 234.524 C 436.760 236.473, 436 238.715, 436 239.506 C 436 240.297, 438.901 245.120, 442.447 250.222 C 445.993 255.325, 451.086 262.650, 453.765 266.500 C 456.445 270.350, 461.262 277.325, 464.471 282 C 467.679 286.675, 471.136 291.429, 472.152 292.564 C 473.169 293.700, 474 294.934, 474 295.307 C 474 295.680, 476.137 298.959, 478.750 302.594 L 483.500 309.204 484.208 302.934 L 484.915 296.665 482.127 292.582 C 480.594 290.337, 475.819 283.325, 471.517 277 C 467.214 270.675, 462.927 264.600, 461.990 263.500 C 461.052 262.400, 455.883 254.975, 450.502 247 C 445.122 239.025, 440.418 232.158, 440.050 231.740 L 439.380 230.980 437.690 234.524 M 535.461 247.355 L 534.783 250.971 537.001 255.235 C 538.221 257.581, 539.732 259.831, 540.359 260.235 C 541.738 261.123, 548 261.250, 548 260.390 C 548 259.819, 538.697 246.556, 536.939 244.620 L 536.139 243.739 535.461 247.355 M 647.618 247.267 L 646.903 251.034 647.511 252.017 C 648.406 253.467, 649.704 253.213, 650.378 251.457 L 650.970 249.913 649.652 246.707 L 648.334 243.500 647.618 247.267 M 310.697 272.700 L 308.894 273.167 309.828 274.334 L 310.763 275.500 311.191 281.691 L 311.619 287.883 310.850 287.407 C 310.427 287.146, 308.443 284.278, 306.441 281.035 L 302.801 275.139 301.461 275.653 C 300.723 275.936, 299.408 277.255, 298.537 278.584 L 296.954 281 298.227 281.033 L 299.500 281.066 314.419 302.533 C 322.625 314.340, 329.625 324, 329.975 324 C 331.531 324, 343.694 319.565, 345.473 318.349 L 347.445 317 352.756 317 L 358.066 317 362.942 319.471 L 367.818 321.942 371.220 326.221 C 376.457 332.809, 377.889 335.477, 379.493 341.634 L 380.974 347.321 389.237 359.524 L 397.500 371.727 399.197 369.170 L 400.895 366.612 395.627 359.056 C 374.361 328.549, 368 319.128, 368 318.136 L 368 317 369.250 316.995 L 370.500 316.990 367.500 314.526 C 365.850 313.171, 363.600 311.785, 362.500 311.447 C 361.400 311.108, 357.125 309.209, 353 307.225 L 345.500 303.620 338.835 297.810 C 335.169 294.614, 331.719 292, 331.168 292 C 330.617 292, 330.017 291.634, 329.833 291.187 C 329.650 290.739, 326.012 287.525, 321.750 284.044 C 314.075 277.776, 313.602 277.151, 313.948 273.750 L 314.126 272 313.313 272.116 C 312.866 272.180, 311.689 272.442, 310.697 272.700 M 215.250 279.495 L 213 281.113 213 284.411 L 213 287.708 215.452 290.354 L 217.905 293 219.998 293 L 222.091 293 224.545 290.545 L 227 288.091 227 284.668 L 227 281.245 225.589 280.074 C 224.813 279.430, 222.676 278.672, 220.839 278.390 L 217.500 277.877 215.250 279.495 M 291.452 290.460 L 289.843 293.851 283.671 296.470 C 280.277 297.910, 278.518 298.884, 279.762 298.635 L 282.024 298.181 287.206 300.075 L 292.388 301.969 301.944 309.289 C 307.200 313.315, 312.132 316.991, 312.904 317.459 L 314.308 318.309 311.298 313.904 C 309.642 311.482, 304.861 304.453, 300.674 298.284 L 293.061 287.068 291.452 290.460 M 392.810 339.243 C 395.075 342.309, 398.315 346.996, 400.009 349.659 L 403.089 354.500 402.440 350 L 401.791 345.500 398.681 340.811 L 395.572 336.121 394.036 335.674 C 393.191 335.428, 391.643 334.876, 390.596 334.447 L 388.691 333.668 392.810 339.243 M 730.054 347.421 L 726.608 351 727.804 351 L 729 351 729 352.474 L 729 353.949 725.822 355.592 L 722.645 357.235 721.420 355.559 L 720.195 353.884 718.597 356.164 C 717.719 357.419, 717 358.920, 717 359.500 L 717 360.555 708.250 360.379 L 699.500 360.203 694 361.700 L 688.500 363.196 680.051 367.848 L 671.602 372.500 663.239 381 L 654.876 389.500 651.756 395 C 650.041 398.025, 647.532 401.973, 646.182 403.774 L 643.727 407.047 644.308 412.774 C 645.095 420.515, 646.544 425.083, 649.494 429.118 C 650.855 430.978, 652.763 433.662, 653.734 435.082 L 655.500 437.664 661 436.374 C 664.025 435.665, 668.893 435.066, 671.817 435.042 L 677.133 435 680.474 437.548 L 683.814 440.096 687.462 440.688 L 691.109 441.279 693.555 439.971 C 694.900 439.251, 696 438.144, 696 437.511 C 696 436.878, 697.013 435.411, 698.250 434.250 C 699.487 433.089, 701.040 431.476, 701.699 430.666 L 702.899 429.193 706.885 428.519 L 710.871 427.846 712.435 425.458 C 713.296 424.145, 714 422.155, 714 421.035 L 714 419 715.878 419 L 717.755 419 719.010 417.488 L 720.265 415.975 721.585 417.070 L 722.904 418.165 724.952 417.515 L 727 416.865 727 415.761 C 727 415.154, 726.272 413.853, 725.381 412.869 L 723.763 411.081 724.379 408.790 C 724.717 407.531, 725.802 405.464, 726.790 404.198 L 728.587 401.897 731.967 406.698 C 733.826 409.339, 735.492 411.686, 735.669 411.912 C 735.846 412.139, 737.150 411.797, 738.566 411.152 L 741.140 409.979 736.570 403.442 C 734.057 399.846, 732 396.228, 732 395.402 C 732 393.385, 734.837 388, 735.900 388 C 736.966 388, 747 403.193, 747 404.808 C 747 408.273, 752.107 403.383, 754.521 397.605 L 756.137 393.738 754.971 388.879 L 753.805 384.020 748.757 374.260 L 743.709 364.500 743.604 360.261 L 743.500 356.023 742.146 355.503 L 740.792 354.983 741.385 353.440 L 741.977 351.896 741.239 352.331 C 740.832 352.570, 739.487 352.383, 738.250 351.915 L 736 351.064 736 349.567 L 736 348.070 737.934 347.035 C 740.436 345.696, 740.569 345.712, 742.429 347.571 L 744 349.143 744 347.071 L 744 345 742.250 344.989 C 741.288 344.983, 738.925 344.723, 737 344.410 L 733.500 343.843 730.054 347.421 M 404.481 352.427 L 404.462 359 405.559 359 L 406.656 359 422.021 381.250 C 430.472 393.488, 442.556 410.925, 448.875 420 C 455.194 429.075, 465.057 443.250, 470.792 451.500 C 476.526 459.750, 481.845 467.159, 482.609 467.964 L 484 469.429 485.637 467.792 L 487.273 466.155 486.657 464.828 C 486.318 464.097, 482.543 458.507, 478.270 452.404 C 473.996 446.300, 461.725 428.632, 451 413.140 C 440.275 397.648, 425.875 376.923, 419 367.083 C 412.125 357.243, 406.050 348.441, 405.500 347.523 L 404.500 345.854 404.481 352.427 M 381 365.651 C 381 367.636, 382.110 371.670, 384.163 377.143 L 385.154 379.786 387.827 379.030 L 390.500 378.273 390.251 377.141 C 390.027 376.119, 383.847 366.886, 381.823 364.550 L 381 363.600 381 365.651 M 400.154 371.006 L 398.075 373.817 399.389 374.908 C 400.112 375.508, 411.008 390.868, 423.602 409.040 C 449.257 446.061, 456.243 456.093, 466.317 470.387 L 473.285 480.274 475.004 477.995 L 476.723 475.716 453.038 441.608 C 421.498 396.189, 417.716 390.731, 409.366 378.578 L 402.232 368.195 400.154 371.006 M 740.160 373.860 C 739.522 375.989, 739 378.643, 739 379.756 L 739 381.780 743.667 388.120 L 748.335 394.460 749.591 390.980 C 750.282 389.066, 750.882 386.575, 750.924 385.445 L 751 383.391 746.568 377.097 C 744.131 373.635, 741.953 370.619, 741.728 370.395 C 741.504 370.171, 740.798 371.730, 740.160 373.860 M 283.992 378 C 284.546 379.100, 285.450 380.894, 286 381.986 C 286.550 383.079, 287 384.660, 287 385.500 C 287 386.340, 287.511 387.845, 288.135 388.845 L 289.271 390.663 287.851 393.582 L 286.432 396.500 284.215 396.421 L 281.999 396.341 283.249 397.921 C 283.937 398.789, 285.850 402.120, 287.500 405.321 L 290.500 411.143 297.500 414.434 C 305.958 418.410, 317.436 423, 318.921 423 L 320 423 319.985 421.250 L 319.969 419.500 319.155 420.784 L 318.340 422.068 316.677 421.430 L 315.014 420.791 315.661 418.146 C 316.017 416.691, 316.735 415.220, 317.257 414.878 L 318.205 414.255 314.180 403.133 L 310.154 392.010 306.327 387.114 C 304.222 384.421, 301.600 381.638, 300.500 380.929 L 298.500 379.642 293.721 379.417 L 288.941 379.192 286.506 377.596 C 283.303 375.497, 282.773 375.583, 283.992 378 M 389.069 380.754 L 385.799 382.088 392.649 388.931 L 399.500 395.774 401.875 396.494 L 404.250 397.214 403.420 395.857 C 402.963 395.111, 400.283 391.107, 397.464 386.960 L 392.338 379.419 389.069 380.754 M 424 430.553 L 424 435.105 438.750 456.442 L 453.500 477.780 456 478.248 C 457.375 478.506, 459.324 479.068, 460.332 479.497 L 462.163 480.277 454.619 469.388 C 450.470 463.400, 442.025 451.188, 435.853 442.250 C 429.681 433.313, 424.489 426, 424.315 426 C 424.142 426, 424 428.049, 424 430.553 M 421.059 451.323 L 421 456.147 430.500 469.733 L 440 483.319 440 481.729 L 440 480.139 441.995 479.820 L 443.990 479.500 433.745 464.787 C 428.110 456.695, 422.964 449.270, 422.309 448.287 L 421.118 446.500 421.059 451.323" stroke="none" fill="#91c3f1" fill-rule="evenodd"/><path d="M 529.021 103.116 C 527.657 103.660, 525.744 104.826, 524.771 105.708 L 523 107.310 523 109.655 L 523 112 527.032 112 L 531.064 112 534.532 110.551 L 538 109.102 538 106.751 L 538 104.400 536.800 103.200 C 535.379 101.779, 532.451 101.747, 529.021 103.116 M 599.441 111.468 C 598.374 112.276, 596.514 112.951, 595.309 112.968 C 594.104 112.986, 592.840 113.450, 592.500 114 C 592.160 114.550, 591.064 115, 590.063 115 L 588.245 115 580.467 120.305 L 572.688 125.610 570.964 131.055 C 570.015 134.050, 569.335 136.725, 569.451 137 C 569.568 137.275, 570.426 139.168, 571.358 141.207 L 573.053 144.914 571.180 150.462 L 569.307 156.010 570.751 157.208 C 571.545 157.867, 572.990 158.528, 573.961 158.676 C 576.907 159.126, 581.001 160.902, 580.989 161.725 C 580.982 162.151, 579.624 166.990, 577.969 172.478 L 574.961 182.456 571.404 186.098 L 567.848 189.740 567.022 193.402 L 566.196 197.064 570.348 200.525 C 572.632 202.429, 576.991 205.275, 580.037 206.851 C 583.082 208.427, 586.628 210.343, 587.917 211.108 L 590.261 212.500 590.761 211.108 C 591.036 210.343, 592.777 208.038, 594.631 205.987 C 596.484 203.936, 598 201.828, 598 201.303 C 598 200.778, 599.132 199.285, 600.516 197.985 C 604.492 194.250, 607.443 188.277, 610.586 177.601 L 613.500 167.702 617.143 164.769 L 620.787 161.837 622.125 155.802 L 623.464 149.768 625.982 147.833 C 627.367 146.769, 630.862 144.083, 633.750 141.864 C 636.638 139.645, 639.001 137.306, 639.003 136.665 C 639.009 134.485, 631.843 116.986, 630.322 115.465 L 628.807 113.950 625.654 114.095 C 623.919 114.175, 618.545 113.286, 613.711 112.120 C 603.282 109.604, 601.984 109.545, 599.441 111.468 M 511.250 111.662 L 510 112.167 510 114.048 L 510 115.930 511.934 116.965 C 514.290 118.225, 519.986 118.295, 521.896 117.086 L 523.291 116.202 522.671 114.586 L 522.051 112.970 519.461 111.985 C 516.735 110.949, 513.349 110.816, 511.250 111.662 M 442.667 219.162 L 442.056 224.324 446.383 230.412 C 448.763 233.760, 454.038 241.347, 458.105 247.271 C 465.447 257.965, 474.470 270.980, 482.889 283.022 L 487.277 289.298 489.083 284.540 L 490.890 279.782 485.642 272.141 C 482.756 267.938, 478.809 262.250, 476.871 259.500 C 472.273 252.977, 465.913 243.762, 458.644 233.094 C 451.104 222.027, 444.955 214, 444.018 214 C 443.611 214, 443.003 216.323, 442.667 219.162 M 460.250 219.031 C 459.012 219.529, 458 220.372, 458 220.905 C 458 221.439, 462.349 228.091, 467.664 235.687 C 480.899 254.605, 485.669 261.499, 490.303 268.400 L 494.264 274.301 496.116 271.900 C 497.134 270.580, 498.221 268.740, 498.531 267.812 L 499.095 266.124 493.375 257.812 C 487.743 249.629, 484.603 245.122, 477.307 234.750 C 475.276 231.863, 472.282 227.475, 470.654 225 C 466.055 218.007, 464.713 217.237, 460.250 219.031 M 551.001 221.998 L 548.797 225.094 553.361 231.797 C 566.125 250.540, 570.510 256.826, 573.210 260.250 L 576.168 264 577.834 264.022 C 578.750 264.034, 581.413 264.912, 583.750 265.973 C 586.087 267.034, 588 267.675, 588 267.398 C 588 267.121, 585.551 263.379, 582.558 259.083 C 573.404 245.945, 570.783 242.146, 562.963 230.687 C 558.818 224.612, 554.926 219.475, 554.316 219.272 L 553.206 218.902 551.001 221.998 M 332.329 223.504 L 329.299 224.778 328.650 226.471 C 328.292 227.402, 328 229.669, 328 231.509 L 328 234.855 330.635 236.927 L 333.270 239 335.500 239 L 337.730 239 340.253 237.016 L 342.775 235.032 343.409 232.507 L 344.042 229.983 342.552 227.100 L 341.061 224.217 338.210 223.223 L 335.360 222.229 332.329 223.504 M 354.635 224.073 L 352 226.145 352 229.898 L 352 233.651 354.314 235.826 L 356.629 238 359.391 238 L 362.154 238 365.179 234.975 L 368.204 231.950 367.564 229.225 L 366.925 226.500 364.407 224.250 L 361.888 222 359.579 222 L 357.270 222 354.635 224.073 M 586.750 222.796 L 583 223.121 583 224.146 C 583 224.709, 588.453 233.027, 595.119 242.630 C 601.784 252.233, 607.296 260.857, 607.369 261.794 L 607.500 263.499 605.428 263.796 L 603.356 264.092 600.291 259.296 C 598.605 256.658, 595.008 251.350, 592.298 247.500 C 589.587 243.650, 585.635 238.025, 583.516 235 C 581.396 231.975, 578.753 228.262, 577.643 226.750 L 575.624 224 571.312 224 L 567 224 567 225.075 C 567 225.666, 570.675 231.404, 575.166 237.825 C 590.263 259.409, 593.492 264.080, 595.210 266.820 L 596.920 269.548 595.504 273.524 C 594.725 275.711, 594.068 278.657, 594.044 280.072 C 594.020 281.486, 593.304 284.636, 592.454 287.072 L 590.909 291.500 587.447 294.130 L 583.985 296.761 577.743 298.315 C 574.309 299.170, 564.300 300.811, 555.500 301.962 C 546.700 303.113, 538.150 304.454, 536.500 304.943 C 534.850 305.432, 531.700 306.113, 529.500 306.456 C 523.828 307.342, 520.415 308.811, 513 313.558 L 506.500 317.718 501 323.645 C 497.975 326.906, 495.004 330.451, 494.399 331.524 L 493.297 333.476 491.518 329.988 C 489.431 325.897, 478.533 309.888, 452.180 272.201 L 433.090 244.902 431.045 248.911 C 429.920 251.116, 429 253.757, 429 254.780 L 429 256.639 432.750 261.813 C 437.383 268.205, 442.292 275.247, 452.042 289.486 C 468.728 313.854, 473.534 320.749, 477.673 326.261 C 480.053 329.430, 482 332.231, 482 332.487 C 482 332.743, 484.641 336.675, 487.868 341.226 L 493.737 349.500 494.273 353.750 C 494.568 356.087, 494.688 358, 494.539 358 C 494.390 358, 479.245 336.403, 460.884 310.007 C 442.523 283.611, 427.248 262.011, 426.939 262.007 C 426.631 262.003, 425.807 264.229, 425.109 266.953 L 423.839 271.906 427.108 276.703 C 432.050 283.957, 472.368 342.216, 492.020 370.500 C 501.574 384.250, 511.518 398.650, 514.118 402.500 L 518.845 409.500 519.536 415 C 519.915 418.025, 520.005 420.275, 519.734 420 C 519.105 419.362, 510.395 406.887, 492.504 381 C 453.625 324.745, 422.663 280.346, 421.382 279.013 L 419.954 277.525 417.513 280.513 C 416.170 282.156, 415.056 283.856, 415.036 284.290 C 415.016 284.725, 417.740 289, 421.089 293.790 C 424.438 298.581, 432.786 310.600, 439.640 320.500 C 450.874 336.726, 470.980 365.666, 481.505 380.758 C 483.707 383.916, 493.077 397.428, 502.327 410.784 L 519.144 435.067 518.239 437.784 C 517.741 439.278, 517.067 440.500, 516.742 440.500 C 516.167 440.500, 510.533 432.550, 487.686 399.500 C 471.145 375.571, 410.740 288.567, 410.310 288.051 C 410.104 287.804, 408.517 289.021, 406.783 290.755 L 403.631 293.908 411.033 304.704 C 418.760 315.972, 444.071 352.476, 464.310 381.540 C 470.805 390.868, 484.217 410.160, 494.113 424.411 L 512.106 450.322 510.631 451.798 L 509.155 453.273 507.828 452.763 C 507.097 452.482, 504.700 449.611, 502.500 446.384 C 500.300 443.157, 493.958 433.988, 488.407 426.008 C 482.857 418.029, 465.055 392.375, 448.848 369 C 432.641 345.625, 414.762 319.863, 409.117 311.750 L 398.854 297 397.177 297.045 C 396.255 297.070, 394.217 297.638, 392.649 298.308 L 389.798 299.526 413.711 334.013 C 449.985 386.328, 456.079 395.110, 459.495 400 C 482.060 432.295, 499 457.140, 499 457.938 C 499 458.483, 498.136 459.392, 497.080 459.957 L 495.159 460.985 491.733 456.243 C 489.849 453.634, 469.925 424.950, 447.459 392.500 C 424.992 360.050, 401.411 326.080, 395.055 317.011 L 383.500 300.522 381.808 300.199 L 380.116 299.876 378.471 303.055 L 376.827 306.235 384.499 317.368 C 388.719 323.490, 395.464 333.225, 399.489 339 C 432.464 386.313, 474.812 447.415, 486.483 464.522 L 487.466 465.962 485.733 467.696 L 484 469.429 482.609 467.964 C 481.845 467.159, 476.526 459.750, 470.792 451.500 C 465.057 443.250, 455.194 429.075, 448.875 420 C 442.556 410.925, 430.472 393.488, 422.021 381.250 L 406.656 359 405.467 359 L 404.279 359 403.659 364.234 L 403.039 369.467 409.586 378.984 C 413.186 384.218, 418.645 392.100, 421.717 396.500 C 424.788 400.900, 438.420 420.524, 452.011 440.109 L 476.721 475.718 475.003 477.996 L 473.285 480.274 466.310 470.387 C 458.200 458.888, 454.265 453.235, 425.332 411.500 C 413.511 394.450, 402.697 378.997, 401.300 377.159 L 398.759 373.818 395.821 377.034 L 392.883 380.251 396.692 385.851 C 398.786 388.931, 401.367 392.755, 402.426 394.349 L 404.353 397.247 401.926 396.490 L 399.500 395.734 401.250 397.696 C 403.588 400.316, 403.475 401.304, 400.270 406.270 C 396.713 411.783, 395.233 414.196, 394.395 415.847 L 393.711 417.195 396.389 419.347 L 399.067 421.500 400.444 426.754 L 401.821 432.007 400.997 431.498 C 400.545 431.219, 399.880 429.247, 399.520 427.118 L 398.866 423.245 395.933 420.436 C 394.320 418.890, 393 417.137, 393 416.540 C 393 415.943, 394.577 413.060, 396.505 410.133 C 398.432 407.206, 400.288 403.702, 400.628 402.347 L 401.246 399.882 392.538 390.983 L 383.830 382.084 384.444 381.091 L 385.058 380.097 382.951 373.575 C 381.792 369.987, 380.991 366.314, 381.172 365.411 L 381.500 363.770 386.356 370.885 L 391.213 378 392.491 378 C 393.866 378, 397 373.794, 397 371.950 C 397 371.334, 393.399 365.559, 388.998 359.117 L 380.996 347.404 379.504 341.676 C 377.889 335.478, 376.463 332.816, 371.220 326.221 L 367.818 321.942 362.942 319.471 L 358.066 317 352.756 317 L 347.445 317 345.473 318.349 C 343.694 319.565, 331.531 324, 329.975 324 C 329.625 324, 322.625 314.340, 314.419 302.533 C 306.214 290.726, 299.122 281.051, 298.660 281.033 C 297.388 280.983, 294.071 285.291, 294.033 287.043 L 294 288.586 304.175 303.460 C 309.771 311.641, 313.708 317.946, 312.925 317.471 C 312.141 316.997, 307.200 313.315, 301.944 309.289 L 292.388 301.969 287.111 300.041 L 281.835 298.112 279.405 299.036 L 276.975 299.960 275.877 302.730 C 273.934 307.628, 270.745 315.410, 269.353 318.651 C 268.609 320.384, 268 322.191, 268 322.666 C 268 323.141, 267.093 325.222, 265.984 327.290 L 263.969 331.051 265.234 331.467 C 265.930 331.696, 267.364 332.022, 268.419 332.191 L 270.338 332.500 272.096 335.500 C 273.063 337.150, 273.887 339.486, 273.927 340.691 C 273.967 341.896, 274.398 343.128, 274.885 343.429 C 275.371 343.729, 275.978 345.395, 276.232 347.130 L 276.695 350.285 274.986 355.810 L 273.277 361.335 276.178 365.417 C 277.774 367.663, 280.067 370.928, 281.274 372.673 C 282.482 374.418, 284.747 376.601, 286.309 377.523 L 289.149 379.201 293.824 379.421 L 298.500 379.642 300.500 380.929 C 301.600 381.638, 304.234 384.436, 306.354 387.148 L 310.208 392.078 313.721 401.789 C 316.998 410.850, 319.961 420.522, 319.988 422.250 C 319.995 422.663, 319.514 423, 318.921 423 C 317.431 423, 305.953 418.407, 297.417 414.396 L 290.333 411.067 287.118 404.784 C 285.349 401.328, 283.345 397.757, 282.664 396.849 L 281.425 395.199 278.936 394.873 L 276.447 394.546 272.366 397.826 L 268.285 401.106 267.114 405.015 L 265.943 408.923 266.580 411.462 L 267.217 414 265.737 414 L 264.257 414 263.097 423.750 C 262.459 429.113, 261.763 435.226, 261.552 437.337 L 261.167 441.173 257.266 445.837 C 255.120 448.401, 253.083 451.258, 252.738 452.185 L 252.113 453.870 254.281 461.021 L 256.449 468.171 262.337 472.835 C 265.575 475.401, 270.213 479.176, 272.643 481.224 L 277.062 484.948 283.514 484.757 L 289.966 484.566 291.183 485.783 C 291.852 486.452, 293.360 487, 294.533 487 C 295.707 487, 296.975 487.308, 297.352 487.685 C 298.048 488.381, 301.876 489.858, 310 492.564 C 312.475 493.388, 315.190 494.442, 316.033 494.904 C 316.876 495.367, 319.010 496.063, 320.774 496.450 L 323.983 497.155 329.480 494.466 L 334.976 491.777 336.738 492.504 C 337.707 492.904, 339.845 493.408, 341.488 493.624 C 346.610 494.297, 347.824 494.990, 351.077 499.097 L 354.236 503.086 358.868 505.400 C 361.416 506.673, 364.660 507.992, 366.079 508.333 L 368.657 508.952 369.807 511.476 L 370.957 514 375.979 514 L 381 514 382.852 512.148 L 384.704 510.296 385.860 512.148 L 387.017 514 390.449 514 L 393.882 514 394.500 513 L 395.118 512 398.073 512 C 399.698 512, 401.809 511.592, 402.764 511.094 C 403.719 510.595, 408.100 509.383, 412.500 508.400 C 416.900 507.416, 421.063 506.194, 421.750 505.684 L 423 504.755 423 502.562 L 423 500.368 426.542 497.232 C 428.491 495.507, 430.403 494.162, 430.792 494.242 C 431.811 494.453, 438.989 484.755, 438.995 483.159 C 438.998 482.422, 434.950 476.050, 430 469 L 421 456.181 421.032 451.341 L 421.064 446.500 422.282 448.186 C 422.952 449.114, 428.174 456.651, 433.888 464.936 L 444.275 480 445.513 480 C 446.193 480, 448.156 479.719, 449.875 479.375 L 453 478.750 453 477.773 C 453 477.235, 446.451 467.387, 438.446 455.888 L 423.891 434.981 424.196 430.404 L 424.500 425.827 430.913 435.164 C 443.717 453.802, 455.427 470.609, 459.035 475.523 L 462.723 480.547 471.111 482.926 C 475.725 484.235, 479.950 485.561, 480.500 485.874 C 481.050 486.188, 482.175 486.544, 483 486.667 C 484.551 486.898, 492.308 489.182, 499.785 491.609 C 505.292 493.397, 505.995 493.350, 509 491 C 512.294 488.424, 513.869 488.506, 516.945 491.418 L 519.500 493.835 527.500 492.521 L 535.500 491.208 539.500 489.215 C 541.700 488.120, 545.525 486.462, 548 485.531 C 550.475 484.600, 554.300 483.012, 556.500 482.001 L 560.500 480.163 568.929 479.497 L 577.358 478.831 582.929 475.138 C 589.109 471.040, 593.204 469.455, 600.185 468.460 L 604.869 467.793 612.101 462.795 C 618.649 458.270, 640.410 446.692, 647.250 444.094 L 650 443.050 650 441.500 L 650 439.950 652.500 439 C 655.700 437.783, 655.645 436.812, 652.147 432.785 C 650.577 430.978, 648.712 428.396, 648.002 427.046 C 646.051 423.338, 644.025 414.984, 644.012 410.594 L 644 406.689 646.319 403.594 C 647.594 401.892, 650.041 398.025, 651.756 395 L 654.876 389.500 663.239 381 L 671.602 372.500 680.051 367.848 L 688.500 363.196 694 361.700 L 699.500 360.203 708.250 360.379 L 717 360.555 717 359.500 C 717 358.920, 717.719 357.419, 718.597 356.164 L 720.195 353.884 721.420 355.559 L 722.645 357.235 725.822 355.592 L 729 353.949 729 352.581 C 729 351.829, 728.380 350.976, 727.622 350.685 L 726.244 350.156 725.145 351.255 L 724.047 352.353 722.195 350.676 C 719.815 348.522, 719.695 348.536, 715 351.500 L 711.040 354 702.270 351.690 L 693.500 349.379 692.908 343.252 L 692.316 337.124 687.908 330.345 L 683.500 323.566 683.500 310.533 L 683.500 297.500 678.164 297.195 L 672.828 296.890 673.537 295.195 C 675.875 289.605, 676.349 288.015, 675.830 287.497 C 675.511 287.178, 670.132 287.302, 663.875 287.772 L 652.500 288.627 642.767 285.497 C 637.413 283.775, 632.780 282.113, 632.470 281.803 C 632.160 281.493, 632.457 278.250, 633.130 274.597 L 634.354 267.954 633.177 266.777 C 632.530 266.130, 632 264.655, 632 263.500 C 632 262.345, 631.529 260.929, 630.954 260.354 L 629.908 259.308 631.912 252.074 L 633.917 244.840 633.075 243.170 C 632.612 242.251, 631.688 240.325, 631.022 238.889 L 629.810 236.277 624.155 233.686 C 621.045 232.260, 617.563 230.841, 616.418 230.533 L 614.336 229.972 612.802 231.736 C 611.959 232.706, 610.975 234.738, 610.615 236.250 L 609.962 239 608.181 239 C 607.201 239, 605.941 239.459, 605.381 240.019 L 604.362 241.038 598.150 232.059 C 594.733 227.120, 591.614 222.943, 591.219 222.775 C 590.823 222.608, 588.813 222.617, 586.750 222.796 M 600.005 223.250 C 600.008 223.938, 601.117 225.850, 602.469 227.500 L 604.928 230.500 604.964 226.250 L 605 222 602.500 222 L 600 222 600.005 223.250 M 480 226.949 C 480 227.588, 482.813 232.123, 486.250 237.025 C 489.688 241.928, 494.252 248.482, 496.393 251.589 L 500.287 257.239 501.010 255.869 C 501.407 255.116, 502.013 252.649, 502.356 250.386 L 502.980 246.272 500.240 242.297 C 498.733 240.111, 496.150 236.463, 494.500 234.191 L 491.500 230.059 487.500 228.635 C 485.300 227.852, 482.712 226.891, 481.750 226.499 L 480 225.786 480 226.949 M 637.250 227.649 L 634 229.250 634 230.884 L 634 232.519 635.885 233.696 L 637.770 234.873 639.885 234.320 C 641.048 234.016, 642.045 233.482, 642.101 233.133 C 642.156 232.785, 642.269 231.188, 642.351 229.585 L 642.500 226.670 641.500 226.359 C 640.950 226.188, 639.038 226.769, 637.250 227.649 M 437.690 234.524 C 436.760 236.473, 436 238.715, 436 239.506 C 436 240.297, 438.901 245.120, 442.447 250.222 C 445.993 255.325, 451.086 262.650, 453.765 266.500 C 456.445 270.350, 461.262 277.325, 464.471 282 C 467.679 286.675, 471.136 291.429, 472.152 292.564 C 473.169 293.700, 474 294.934, 474 295.307 C 474 295.680, 476.137 298.959, 478.750 302.594 L 483.500 309.204 484.208 302.934 L 484.915 296.665 482.127 292.582 C 480.594 290.337, 475.819 283.325, 471.517 277 C 467.214 270.675, 462.927 264.600, 461.990 263.500 C 461.052 262.400, 455.883 254.975, 450.502 247 C 445.122 239.025, 440.418 232.158, 440.050 231.740 L 439.380 230.980 437.690 234.524 M 542.068 233.904 C 540.931 235.502, 540 237.085, 540 237.422 C 540 237.984, 550.760 253.875, 555.534 260.363 L 557.568 263.127 562.314 262.814 L 567.061 262.500 558.444 250 C 553.705 243.125, 548.922 236.037, 547.815 234.250 C 545.346 230.262, 544.690 230.223, 542.068 233.904 M 642.219 241.250 L 641.194 242.500 639.943 252 C 639.256 257.225, 638.649 262.850, 638.596 264.500 L 638.500 267.500 645 267.500 L 651.500 267.500 651.790 259.250 L 652.081 251 651.124 251 C 650.597 251, 649.990 251.530, 649.774 252.177 L 649.382 253.354 648.120 252.574 L 646.859 251.795 647.528 247.835 L 648.197 243.875 646.443 241.938 C 644.393 239.672, 643.617 239.546, 642.219 241.250 M 535.461 247.355 L 534.783 250.971 537.001 255.235 C 538.221 257.581, 539.732 259.831, 540.359 260.235 C 541.738 261.123, 548 261.250, 548 260.390 C 548 259.819, 538.697 246.556, 536.939 244.620 L 536.139 243.739 535.461 247.355 M 352.635 251.073 L 350 253.145 350 255.938 L 350 258.730 352.073 261.365 L 354.145 264 357.385 264 L 360.626 264 363.367 261.139 L 366.108 258.278 365.442 255.623 L 364.775 252.968 362.253 250.984 L 359.730 249 357.500 249 L 355.270 249 352.635 251.073 M 668.606 254.488 C 666.464 255.786, 664.398 257.356, 664.014 257.978 L 663.315 259.108 665.762 266.304 L 668.210 273.500 674.828 280.250 C 678.468 283.962, 681.775 287, 682.176 287 C 682.578 287, 683.654 285.425, 684.567 283.499 L 686.229 279.998 684.537 277.417 C 683.607 275.997, 681.263 273.084, 679.329 270.943 L 675.812 267.050 674.988 260.407 C 674.535 256.754, 673.790 253.397, 673.332 252.946 L 672.500 252.128 668.606 254.488 M 679.750 253.689 L 678 254.147 678 256.073 L 678 258 678.935 258 C 679.449 258, 681.024 257.561, 682.435 257.025 L 685 256.050 685 254.525 L 685 253 683.250 253.116 C 682.288 253.180, 680.712 253.438, 679.750 253.689 M 270.177 273.988 L 264.853 278.940 265.177 281.220 L 265.500 283.500 268.891 283.500 L 272.282 283.500 272.984 282 C 273.370 281.175, 274.658 278.475, 275.846 276 C 277.034 273.525, 278.004 270.938, 278.003 270.250 L 278 269 276.750 269.018 C 276.063 269.027, 273.104 271.264, 270.177 273.988 M 304.233 274.810 L 302.967 275.639 307.036 281.934 C 309.273 285.396, 311.223 288.065, 311.368 287.864 C 311.514 287.664, 311.378 284.575, 311.066 281 L 310.500 274.500 308 274.241 C 306.625 274.098, 304.930 274.355, 304.233 274.810 M 692.357 280.080 L 689.213 281.002 688.666 282.428 L 688.119 283.854 689.610 285.091 L 691.100 286.328 694.800 285.414 L 698.500 284.500 698.500 282.014 L 698.500 279.527 697 279.343 C 696.175 279.241, 694.085 279.573, 692.357 280.080 M 704.703 282.331 L 704.151 283.770 705.632 285.885 L 707.113 288 709.120 288 L 711.127 288 710.813 284.750 L 710.500 281.500 707.878 281.196 L 705.255 280.892 704.703 282.331 M 711.638 290.776 C 710.969 291.859, 713.236 300, 714.207 300 L 715 300 715 302.378 L 715 304.755 716.324 305.854 L 717.648 306.952 718.647 305.953 L 719.647 304.953 719.210 301.977 L 718.773 299 717.906 299 L 717.038 299 717.655 294.500 L 718.272 290 715.195 290 C 713.503 290, 711.902 290.349, 711.638 290.776 M 728.250 302.662 L 727 303.167 727 305.083 L 727 307 728.066 307 C 728.652 307, 730.002 306.534, 731.066 305.965 L 733 304.930 733 303.465 L 733 302 731.250 302.079 C 730.288 302.122, 728.938 302.385, 728.250 302.662 M 765.446 307.087 L 764.774 308.174 765.887 309.287 C 766.499 309.899, 767 311.210, 767 312.200 L 767 314 768.934 314 L 770.867 314 771.184 316.750 L 771.500 319.500 769.250 322.890 L 767 326.279 767 328.640 L 767 331 768.345 331 C 769.085 331, 770.505 330.100, 771.500 329 L 773.310 327 776.770 327 L 780.230 327 778.615 329.465 C 777.727 330.820, 777 332.473, 777 333.136 C 777 333.800, 776.264 335.156, 775.364 336.150 L 773.728 337.958 775.114 338.365 C 780.036 339.809, 784.896 341, 785.866 341 L 787 341 786.994 337.250 C 786.991 335.188, 786.520 331.813, 785.947 329.750 L 784.906 326 783.453 326 C 782.654 326, 782 325.550, 782 325 C 782 324.450, 782.391 324, 782.869 324 L 783.738 324 784.330 320.750 C 784.656 318.962, 785.236 316.416, 785.619 315.092 L 786.316 312.684 784.408 313.229 C 783.359 313.528, 781.772 314.075, 780.881 314.443 L 779.263 315.113 778.691 312.927 L 778.119 310.740 776.673 311.295 L 775.226 311.850 775.730 309.925 L 776.233 308 773.676 308 L 771.118 308 770.500 307 C 769.675 305.665, 766.289 305.723, 765.446 307.087 M 371.507 313.977 L 370.845 316.063 378.134 324.148 L 385.422 332.233 385.833 331 L 386.244 329.767 380.294 321.191 C 377.021 316.474, 373.854 312.451, 373.256 312.252 L 372.170 311.890 371.507 313.977 M 368.177 318.492 C 368.355 319.313, 375.845 330.569, 384.821 343.507 L 401.143 367.030 402.071 366.456 L 403 365.882 403 359.980 L 403 354.077 397.393 345.789 C 394.308 341.230, 390.855 336.488, 389.718 335.250 L 387.651 333 385.953 333 L 384.255 333 380.377 328.651 C 378.245 326.259, 375.051 322.659, 373.281 320.651 C 371.510 318.643, 369.565 317, 368.958 317 L 367.853 317 368.177 318.492 M 723.190 325.750 L 723.527 327.500 725 327.500 L 726.473 327.500 726.810 325.750 L 727.147 324 725 324 L 722.853 324 723.190 325.750 M 734 326 L 734 328.147 735.750 327.810 L 737.500 327.473 737.500 326 L 737.500 324.527 735.750 324.190 L 734 323.853 734 326 M 821.250 326.036 C 818.362 327.116, 813.790 328.812, 811.088 329.804 C 808.387 330.797, 805.478 332.188, 804.624 332.897 C 802.921 334.311, 795.855 344.548, 794.905 346.978 L 794.310 348.500 789.913 349 L 785.516 349.500 784.309 352 C 783.645 353.375, 781.836 356.007, 780.288 357.848 L 777.473 361.196 766.225 358.422 L 754.977 355.648 751.995 358.505 L 749.013 361.361 746.612 359.105 L 744.211 356.850 743.531 357.949 L 742.852 359.049 743.558 362.274 C 743.947 364.048, 746.412 369.667, 749.035 374.760 L 753.805 384.020 754.971 388.879 L 756.137 393.738 754.521 397.605 C 752.107 403.383, 747 408.273, 747 404.808 C 747 403.193, 736.966 388, 735.900 388 C 734.837 388, 732 393.385, 732 395.402 C 732 396.228, 734.057 399.846, 736.570 403.442 L 741.140 409.979 738.566 411.152 C 737.150 411.797, 735.846 412.139, 735.669 411.912 C 735.492 411.686, 733.826 409.339, 731.967 406.698 L 728.587 401.897 726.790 404.198 C 725.802 405.464, 724.717 407.531, 724.379 408.790 L 723.763 411.081 725.381 412.869 C 726.272 413.853, 727 415.154, 727 415.761 L 727 416.865 724.952 417.515 L 722.904 418.165 721.585 417.070 L 720.265 415.975 719.010 417.488 L 717.755 419 715.878 419 L 714 419 713.968 421.250 C 713.951 422.488, 713.276 424.373, 712.468 425.441 L 711 427.382 711.837 427.941 C 712.297 428.248, 713.876 430.571, 715.345 433.103 C 716.815 435.635, 718.855 438.464, 719.879 439.391 L 721.741 441.075 724.218 439.946 L 726.696 438.818 732.819 441.909 C 736.187 443.609, 739.397 445, 739.951 445 C 740.506 445, 741.878 443.200, 743 441 L 745.041 437 747.270 436.968 C 748.497 436.951, 750.354 436.290, 751.397 435.500 L 753.295 434.064 754.191 434.618 L 755.088 435.172 756.648 433.877 C 757.506 433.165, 758.600 431.551, 759.079 430.291 L 759.950 428 761.916 428 C 762.997 428, 764.160 428.450, 764.500 429 L 765.118 430 767.573 430 C 768.923 430, 770.809 429.596, 771.764 429.103 C 772.719 428.609, 775.413 427.416, 777.750 426.451 L 782 424.696 782 423.701 C 782 423.154, 783.575 420.784, 785.500 418.435 C 787.425 416.085, 789 413.746, 789 413.237 C 789 412.727, 789.823 411.565, 790.829 410.655 L 792.657 409 800.579 408.983 L 808.500 408.966 813.468 406.042 L 818.436 403.117 822.468 405.277 C 824.686 406.466, 828.376 408.914, 830.668 410.719 C 832.961 412.523, 835.117 414, 835.459 414 C 835.801 414, 837.373 414.955, 838.952 416.123 L 841.824 418.246 844.951 416.873 L 848.078 415.500 848.600 413.439 L 849.122 411.378 841.934 398.521 C 837.981 391.450, 834.331 384.160, 833.823 382.323 L 832.901 378.981 835.076 371.241 L 837.251 363.500 836.703 352.500 L 836.154 341.500 834.146 334.515 L 832.138 327.530 829.958 325.765 C 827.322 323.630, 827.714 323.618, 821.250 326.036 M 712 327 L 712 329 713.500 329 L 715 329 715 327 L 715 325 713.500 325 L 712 325 712 327 M 717 336.927 L 717 339 719.073 339 L 721.147 339 720.812 337.261 L 720.477 335.523 718.739 335.188 L 717 334.853 717 336.927 M 737.750 347.080 L 736 348.099 736 349.582 L 736 351.064 738.250 351.917 L 740.500 352.770 741.750 351.762 C 742.438 351.208, 743 349.958, 743 348.985 L 743 347.214 741.418 346.607 C 739.527 345.881, 739.888 345.835, 737.750 347.080 M 740.160 373.860 C 739.522 375.989, 739 378.643, 739 379.756 L 739 381.780 743.667 388.120 L 748.335 394.460 749.591 390.980 C 750.282 389.066, 750.882 386.575, 750.924 385.445 L 751 383.391 746.568 377.097 C 744.131 373.635, 741.953 370.619, 741.728 370.395 C 741.504 370.171, 740.798 371.730, 740.160 373.860 M 402.495 436.037 L 403.011 439.573 398.505 443.995 L 394 448.416 394.206 466.958 L 394.411 485.500 394.956 467.289 L 395.500 449.079 399.750 444.752 L 404 440.424 403.930 438.462 C 403.891 437.383, 403.436 435.600, 402.919 434.500 L 401.979 432.500 402.495 436.037 M 392.043 492.250 C 387.181 502.954, 385.004 508.337, 385.383 508.716 C 385.824 509.157, 390.996 498.669, 391.006 497.312 C 391.010 496.865, 391.596 495.375, 392.310 494 C 394.131 490.491, 395.022 488, 394.456 488 C 394.191 488, 393.105 489.913, 392.043 492.250" stroke="none" fill="#0685fb" fill-rule="evenodd"/></svg>