<?xml version="1.0" encoding="UTF-8" standalone="no"?>
<svg
   xmlns:osb="http://www.openswatchbook.org/uri/2009/osb"
   xmlns:dc="http://purl.org/dc/elements/1.1/"
   xmlns:cc="http://creativecommons.org/ns#"
   xmlns:rdf="http://www.w3.org/1999/02/22-rdf-syntax-ns#"
   xmlns:svg="http://www.w3.org/2000/svg"
   xmlns="http://www.w3.org/2000/svg"
   xmlns:xlink="http://www.w3.org/1999/xlink"
   xmlns:sodipodi="http://sodipodi.sourceforge.net/DTD/sodipodi-0.dtd"
   xmlns:inkscape="http://www.inkscape.org/namespaces/inkscape"
   version="1.1"
   height="809.70251"
   width="1189.6328"
   viewBox="0 0 3484.7512 2611.6022"
   id="svg2"
   sodipodi:version="0.32"
   inkscape:version="0.48.0 r9654"
   sodipodi:docname="BlankMap-Middle_East.svg.2010_12_22_18_05_11.0.svg"
   inkscape:output_extension="org.inkscape.output.svg.inkscape">
  <metadata
     id="metadata2478">
    <rdf:RDF>
      <cc:Work
         rdf:about="">
        <dc:format>image/svg+xml</dc:format>
        <dc:type
           rdf:resource="http://purl.org/dc/dcmitype/StillImage" />
      </cc:Work>
    </rdf:RDF>
  </metadata>
  <defs
     id="defs2476">
    <linearGradient
       id="linearGradient5891">
      <stop
         style="stop-color:#8800c8;stop-opacity:0.94656491;"
         offset="0"
         id="stop5893" />
      <stop
         id="stop5899"
         offset="0.5"
         style="stop-color:#3100c8;stop-opacity:0.49803922;" />
      <stop
         style="stop-color:#3100c8;stop-opacity:0;"
         offset="1"
         id="stop5895" />
    </linearGradient>
    <linearGradient
       id="linearGradient4430">
      <stop
         style="stop-color:#000000;stop-opacity:1;"
         offset="0"
         id="stop4432" />
      <stop
         style="stop-color:#3d48a1;stop-opacity:0;"
         offset="1"
         id="stop4434" />
    </linearGradient>
    <linearGradient
       id="linearGradient4381"
       osb:paint="solid">
      <stop
         style="stop-color:#000000;stop-opacity:1;"
         offset="0"
         id="stop4383" />
    </linearGradient>
    <inkscape:perspective
       sodipodi:type="inkscape:persp3d"
       inkscape:vp_x="0 : 238.3638 : 1"
       inkscape:vp_y="0 : 1000 : 0"
       inkscape:vp_z="939.74725 : 238.3638 : 1"
       inkscape:persp3d-origin="469.87363 : 158.9092 : 1"
       id="perspective2480" />
    <inkscape:perspective
       sodipodi:type="inkscape:persp3d"
       inkscape:vp_x="0 : 572 : 1"
       inkscape:vp_y="0 : 1000 : 0"
       inkscape:vp_z="984 : 572 : 1"
       inkscape:persp3d-origin="492 : 381.33333 : 1"
       id="perspective9821" />
    <inkscape:perspective
       id="perspective12527"
       inkscape:persp3d-origin="372.04724 : 350.78739 : 1"
       inkscape:vp_z="744.09448 : 526.18109 : 1"
       inkscape:vp_y="0 : 1000 : 0"
       inkscape:vp_x="0 : 526.18109 : 1"
       sodipodi:type="inkscape:persp3d" />
    <inkscape:perspective
       sodipodi:type="inkscape:persp3d"
       inkscape:vp_x="0 : 224.86328 : 1"
       inkscape:vp_y="0 : 1000 : 0"
       inkscape:vp_z="454.1705 : 224.86328 : 1"
       inkscape:persp3d-origin="227.08525 : 149.90885 : 1"
       id="perspective12416" />
    <clipPath
       clipPathUnits="userSpaceOnUse"
       id="clipPath52696">
      <path
         d="m 651.395,592.157 0,-525.067 500.715,0 0,525.067"
         id="path52698"
         inkscape:connector-curvature="0" />
    </clipPath>
    <clipPath
       clipPathUnits="userSpaceOnUse"
       id="clipPath52714">
      <path
         d="m 651.395,592.157 0,-525.067 500.715,0 0,525.067"
         id="path52716"
         inkscape:connector-curvature="0" />
    </clipPath>
    <clipPath
       clipPathUnits="userSpaceOnUse"
       id="clipPath52736">
      <path
         d="m 651.395,592.157 0,-525.067 500.715,0 0,525.067"
         id="path52738"
         inkscape:connector-curvature="0" />
    </clipPath>
    <clipPath
       clipPathUnits="userSpaceOnUse"
       id="clipPath52750">
      <path
         d="m 651.395,592.157 0,-525.067 500.715,0 0,525.067"
         id="path52752"
         inkscape:connector-curvature="0" />
    </clipPath>
    <clipPath
       clipPathUnits="userSpaceOnUse"
       id="clipPath52766">
      <path
         d="m 651.395,592.157 0,-525.067 500.715,0 0,525.067"
         id="path52768"
         inkscape:connector-curvature="0" />
    </clipPath>
    <clipPath
       clipPathUnits="userSpaceOnUse"
       id="clipPath52780">
      <path
         d="m 651.395,592.157 0,-525.067 500.715,0 0,525.067"
         id="path52782"
         inkscape:connector-curvature="0" />
    </clipPath>
    <clipPath
       clipPathUnits="userSpaceOnUse"
       id="clipPath52796">
      <path
         d="m 651.395,592.157 0,-525.067 500.715,0 0,525.067"
         id="path52798"
         inkscape:connector-curvature="0" />
    </clipPath>
    <inkscape:perspective
       sodipodi:type="inkscape:persp3d"
       inkscape:vp_x="0 : 526.18109 : 1"
       inkscape:vp_y="0 : 1000 : 0"
       inkscape:vp_z="744.09448 : 526.18109 : 1"
       inkscape:persp3d-origin="372.04724 : 350.78739 : 1"
       id="perspective46839" />
    <g
       id="s">
      <g
         id="c">
        <path
           transform="matrix(0.951056,0.309017,-0.309017,0.951056,0,-1)"
           d="M 0,0 0,1 0.5,1 0,0 z"
           id="t"
           inkscape:connector-curvature="0" />
        <use
           id="use48500"
           transform="scale(-1,1)"
           xlink:href="#t"
           x="0"
           y="0"
           width="435.87225"
           height="309.15567" />
      </g>
      <g
         id="a">
        <use
           id="use48503"
           transform="matrix(0.309017,0.951056,-0.951056,0.309017,0,0)"
           xlink:href="#c"
           x="0"
           y="0"
           width="435.87225"
           height="309.15567" />
        <use
           id="use48505"
           transform="matrix(-0.809017,0.587785,-0.587785,-0.809017,0,0)"
           xlink:href="#c"
           x="0"
           y="0"
           width="435.87225"
           height="309.15567" />
      </g>
      <use
         id="use48507"
         transform="scale(-1,1)"
         xlink:href="#a"
         x="0"
         y="0"
         width="435.87225"
         height="309.15567" />
    </g>
    <inkscape:perspective
       id="perspective48533"
       inkscape:persp3d-origin="405 : 180 : 1"
       inkscape:vp_z="810 : 270 : 1"
       inkscape:vp_y="0 : 1000 : 0"
       inkscape:vp_x="0 : 270 : 1"
       sodipodi:type="inkscape:persp3d" />
    <clipPath
       id="clipPath10186"
       clipPathUnits="userSpaceOnUse">
      <path
         id="path10188"
         d="m 0.029999,1191.03 841.980001,0 0,-1191 -841.980001,0 0,1191 z"
         inkscape:connector-curvature="0" />
    </clipPath>
    <clipPath
       id="clipPath10180"
       clipPathUnits="userSpaceOnUse">
      <path
         id="path10182"
         d="m 0.055023,1190.776 841.889997,0 0,-1190.552 -841.889997,0 0,1190.552 z"
         inkscape:connector-curvature="0" />
    </clipPath>
    <clipPath
       id="clipPath9472"
       clipPathUnits="userSpaceOnUse">
      <path
         id="path9474"
         d="m 251.835,935.084 -6.818,2.431 -4.266,-11.042 6.937,-2.471 4.147,11.082"
         inkscape:connector-curvature="0" />
    </clipPath>
    <clipPath
       id="clipPath9456"
       clipPathUnits="userSpaceOnUse">
      <path
         id="path9458"
         d="m 246.485,996.169 3.235,9.153 -5.411,2.099 -3.21,-9.269 5.386,-1.983"
         inkscape:connector-curvature="0" />
    </clipPath>
    <clipPath
       id="clipPath9180"
       clipPathUnits="userSpaceOnUse">
      <path
         id="path9182"
         d="m 236.012,966.139 -6.736,-17.725 c 0,0 -5.953,0.872 -10.497,2.362 -1.03,0.338 -59.665,20.81 -59.665,20.81 l 3.998,12.474 10.433,-3.207 2.766,6.886 59.701,-21.6"
         inkscape:connector-curvature="0" />
    </clipPath>
    <clipPath
       id="clipPath8676"
       clipPathUnits="userSpaceOnUse">
      <path
         id="path8678"
         d="m 93.869,707.478 7.006,0 0,14.711 -7.006,0 0,-14.711"
         inkscape:connector-curvature="0" />
    </clipPath>
    <clipPath
       id="clipPath8658"
       clipPathUnits="userSpaceOnUse">
      <path
         id="path8660"
         d="m 80.034,707.478 7.005,0 0,14.711 -7.005,0 0,-14.711"
         inkscape:connector-curvature="0" />
    </clipPath>
    <clipPath
       id="clipPath8494"
       clipPathUnits="userSpaceOnUse">
      <path
         id="path8496"
         d="m 345.869,861.374 -16.514,0.033 -3.781,-10.388 12.339,-11.508 7.956,21.863"
         inkscape:connector-curvature="0" />
    </clipPath>
    <clipPath
       id="clipPath8404"
       clipPathUnits="userSpaceOnUse">
      <path
         id="path8406"
         d="m 188.491,933.042 c 5.044,-3.386 7.654,-8.45 6.024,-12.558 -1.517,-3.823 -6.413,-5.602 -11.894,-5.049 l 5.87,17.607"
         inkscape:connector-curvature="0" />
    </clipPath>
    <clipPath
       id="clipPath8174"
       clipPathUnits="userSpaceOnUse">
      <path
         id="path8176"
         d="m 54.579,1149.39 531.153,0 0,-986.954 -531.153,0 0,986.954 z"
         inkscape:connector-curvature="0" />
    </clipPath>
    <clipPath
       id="clipPath5748"
       clipPathUnits="userSpaceOnUse">
      <path
         id="path5227"
         d="m 54.579,1149.39 531.153,0 0,-986.954 -531.153,0 0,986.954 z"
         inkscape:connector-curvature="0" />
    </clipPath>
    <clipPath
       id="clipPath5712"
       clipPathUnits="userSpaceOnUse">
      <path
         id="path5714"
         d="m 0.029999,1191.03 841.980001,0 0,-1191 -841.980001,0 0,1191 z"
         inkscape:connector-curvature="0" />
    </clipPath>
    <clipPath
       id="clipPath5706"
       clipPathUnits="userSpaceOnUse">
      <path
         id="path5708"
         d="m 0.055023,1190.776 841.889997,0 0,-1190.552 -841.889997,0 0,1190.552 z"
         inkscape:connector-curvature="0" />
    </clipPath>
    <inkscape:perspective
       id="perspective5696"
       inkscape:persp3d-origin="372.04724 : 350.78739 : 1"
       inkscape:vp_z="744.09448 : 526.18109 : 1"
       inkscape:vp_y="0 : 1000 : 0"
       inkscape:vp_x="0 : 526.18109 : 1"
       sodipodi:type="inkscape:persp3d" />
    <clipPath
       id="clipPath13675"
       clipPathUnits="userSpaceOnUse">
      <rect
         style="fill:#f5f5f5;fill-opacity:1;fill-rule:nonzero;stroke:none"
         id="rect13660"
         width="127.00825"
         height="127.00825"
         x="-373.117"
         y="455.25894" />
    </clipPath>
    <inkscape:perspective
       id="perspective2802"
       inkscape:persp3d-origin="290.84277 : 150.22812 : 1"
       inkscape:vp_z="581.68555 : 225.34218 : 1"
       inkscape:vp_y="0 : 1000 : 0"
       inkscape:vp_x="0 : 225.34218 : 1"
       sodipodi:type="inkscape:persp3d" />
    <inkscape:perspective
       id="perspective2477"
       inkscape:persp3d-origin="469.87363 : 158.9092 : 1"
       inkscape:vp_z="939.74725 : 238.3638 : 1"
       inkscape:vp_y="0 : 1000 : 0"
       inkscape:vp_x="0 : 238.3638 : 1"
       sodipodi:type="inkscape:persp3d" />
    <clipPath
       clipPathUnits="userSpaceOnUse"
       id="clipPath3522">
      <rect
         style="fill:#0000ff;fill-opacity:0.67796613;stroke:#000000;stroke-width:2.25776935;stroke-linecap:round;stroke-miterlimit:4;stroke-opacity:1;stroke-dasharray:none;stroke-dashoffset:0"
         id="rect3524"
         width="119.04517"
         height="82.481735"
         x="1516.0907"
         y="408.93457"
         ry="3.225385"
         rx="3.225385" />
    </clipPath>
    <clipPath
       clipPathUnits="userSpaceOnUse"
       id="clipPath3526">
      <rect
         style="fill:#0000ff;fill-opacity:0.67796613;stroke:#000000;stroke-width:2.25776935;stroke-linecap:round;stroke-miterlimit:4;stroke-opacity:1;stroke-dasharray:none;stroke-dashoffset:0"
         id="rect3528"
         width="119.04517"
         height="82.481735"
         x="1516.0907"
         y="408.93457"
         ry="3.225385"
         rx="3.225385" />
    </clipPath>
    <clipPath
       clipPathUnits="userSpaceOnUse"
       id="clipPath3530">
      <rect
         style="fill:#0000ff;fill-opacity:0.67796613;stroke:#000000;stroke-width:2.25776935;stroke-linecap:round;stroke-miterlimit:4;stroke-opacity:1;stroke-dasharray:none;stroke-dashoffset:0"
         id="rect3532"
         width="119.04517"
         height="82.481735"
         x="1516.0907"
         y="408.93457"
         ry="3.225385"
         rx="3.225385" />
    </clipPath>
    <clipPath
       clipPathUnits="userSpaceOnUse"
       id="clipPath3534">
      <rect
         style="fill:#0000ff;fill-opacity:0.67796613;stroke:#000000;stroke-width:2.25776935;stroke-linecap:round;stroke-miterlimit:4;stroke-opacity:1;stroke-dasharray:none;stroke-dashoffset:0"
         id="rect3536"
         width="119.04517"
         height="82.481735"
         x="1516.0907"
         y="408.93457"
         ry="3.225385"
         rx="3.225385" />
    </clipPath>
    <clipPath
       clipPathUnits="userSpaceOnUse"
       id="clipPath3538">
      <rect
         style="fill:#0000ff;fill-opacity:0.67796613;stroke:#000000;stroke-width:2.25776935;stroke-linecap:round;stroke-miterlimit:4;stroke-opacity:1;stroke-dasharray:none;stroke-dashoffset:0"
         id="rect3540"
         width="119.04517"
         height="82.481735"
         x="1516.0907"
         y="408.93457"
         ry="3.225385"
         rx="3.225385" />
    </clipPath>
    <clipPath
       clipPathUnits="userSpaceOnUse"
       id="clipPath3542">
      <rect
         style="fill:#0000ff;fill-opacity:0.67796613;stroke:#000000;stroke-width:2.25776935;stroke-linecap:round;stroke-miterlimit:4;stroke-opacity:1;stroke-dasharray:none;stroke-dashoffset:0"
         id="rect3544"
         width="119.04517"
         height="82.481735"
         x="1516.0907"
         y="408.93457"
         ry="3.225385"
         rx="3.225385" />
    </clipPath>
    <clipPath
       clipPathUnits="userSpaceOnUse"
       id="clipPath3546">
      <rect
         style="fill:#0000ff;fill-opacity:0.67796613;stroke:#000000;stroke-width:2.25776935;stroke-linecap:round;stroke-miterlimit:4;stroke-opacity:1;stroke-dasharray:none;stroke-dashoffset:0"
         id="rect3548"
         width="119.04517"
         height="82.481735"
         x="1516.0907"
         y="408.93457"
         ry="3.225385"
         rx="3.225385" />
    </clipPath>
    <clipPath
       clipPathUnits="userSpaceOnUse"
       id="clipPath3550">
      <rect
         style="fill:#0000ff;fill-opacity:0.67796613;stroke:#000000;stroke-width:2.25776935;stroke-linecap:round;stroke-miterlimit:4;stroke-opacity:1;stroke-dasharray:none;stroke-dashoffset:0"
         id="rect3552"
         width="493.48389"
         height="335.44003"
         x="1576.7665"
         y="41.051411"
         ry="3.225385"
         rx="3.225385" />
    </clipPath>
    <clipPath
       clipPathUnits="userSpaceOnUse"
       id="clipPath3554">
      <rect
         style="fill:#0000ff;fill-opacity:0.67796613;stroke:#000000;stroke-width:2.25776935;stroke-linecap:round;stroke-miterlimit:4;stroke-opacity:1;stroke-dasharray:none;stroke-dashoffset:0"
         id="rect3556"
         width="493.48389"
         height="335.44003"
         x="1576.7665"
         y="41.051411"
         ry="3.225385"
         rx="3.225385" />
    </clipPath>
    <clipPath
       clipPathUnits="userSpaceOnUse"
       id="clipPath3558">
      <rect
         style="fill:#0000ff;fill-opacity:0.67796613;stroke:#000000;stroke-width:2.25776935;stroke-linecap:round;stroke-miterlimit:4;stroke-opacity:1;stroke-dasharray:none;stroke-dashoffset:0"
         id="rect3560"
         width="119.04517"
         height="82.481735"
         x="1545.9917"
         y="454.01132"
         ry="3.225385"
         rx="3.225385" />
    </clipPath>
    <clipPath
       clipPathUnits="userSpaceOnUse"
       id="clipPath3562">
      <rect
         style="fill:#0000ff;fill-opacity:0.67796613;stroke:#000000;stroke-width:2.25776935;stroke-linecap:round;stroke-miterlimit:4;stroke-opacity:1;stroke-dasharray:none;stroke-dashoffset:0"
         id="rect3564"
         width="493.48389"
         height="335.44003"
         x="1576.7665"
         y="41.051411"
         ry="3.225385"
         rx="3.225385" />
    </clipPath>
    <clipPath
       clipPathUnits="userSpaceOnUse"
       id="clipPath3566">
      <rect
         style="fill:#0000ff;fill-opacity:0.67796613;stroke:#000000;stroke-width:2.25776935;stroke-linecap:round;stroke-miterlimit:4;stroke-opacity:1;stroke-dasharray:none;stroke-dashoffset:0"
         id="rect3568"
         width="119.04517"
         height="82.481735"
         x="1545.9917"
         y="454.01132"
         ry="3.225385"
         rx="3.225385" />
    </clipPath>
    <clipPath
       clipPathUnits="userSpaceOnUse"
       id="clipPath3570">
      <rect
         style="fill:#0000ff;fill-opacity:0.67796613;stroke:#000000;stroke-width:2.25776935;stroke-linecap:round;stroke-miterlimit:4;stroke-opacity:1;stroke-dasharray:none;stroke-dashoffset:0"
         id="rect3572"
         width="493.48389"
         height="335.44003"
         x="1576.7665"
         y="41.051411"
         ry="3.225385"
         rx="3.225385" />
    </clipPath>
    <clipPath
       clipPathUnits="userSpaceOnUse"
       id="clipPath3574">
      <rect
         style="fill:#0000ff;fill-opacity:0.67796613;stroke:#000000;stroke-width:2.25776935;stroke-linecap:round;stroke-miterlimit:4;stroke-opacity:1;stroke-dasharray:none;stroke-dashoffset:0"
         id="rect3576"
         width="493.48389"
         height="335.44003"
         x="1576.7665"
         y="41.051411"
         ry="3.225385"
         rx="3.225385" />
    </clipPath>
    <clipPath
       clipPathUnits="userSpaceOnUse"
       id="clipPath3578">
      <rect
         style="fill:#0000ff;fill-opacity:0.67796613;stroke:#000000;stroke-width:2.25776935;stroke-linecap:round;stroke-miterlimit:4;stroke-opacity:1;stroke-dasharray:none;stroke-dashoffset:0"
         id="rect3580"
         width="493.48389"
         height="335.44003"
         x="1576.7665"
         y="41.051411"
         ry="3.225385"
         rx="3.225385" />
    </clipPath>
    <clipPath
       clipPathUnits="userSpaceOnUse"
       id="clipPath3582">
      <rect
         style="fill:#0000ff;fill-opacity:0.67796613;stroke:#000000;stroke-width:2.25776935;stroke-linecap:round;stroke-miterlimit:4;stroke-opacity:1;stroke-dasharray:none;stroke-dashoffset:0"
         id="rect3584"
         width="119.04517"
         height="82.481735"
         x="1545.9917"
         y="454.01132"
         ry="3.225385"
         rx="3.225385" />
    </clipPath>
    <clipPath
       clipPathUnits="userSpaceOnUse"
       id="clipPath3586">
      <rect
         style="fill:#0000ff;fill-opacity:0.67796613;stroke:#000000;stroke-width:2.25776935;stroke-linecap:round;stroke-miterlimit:4;stroke-opacity:1;stroke-dasharray:none;stroke-dashoffset:0"
         id="rect3588"
         width="493.48389"
         height="335.44003"
         x="1576.7665"
         y="41.051411"
         ry="3.225385"
         rx="3.225385" />
    </clipPath>
    <clipPath
       clipPathUnits="userSpaceOnUse"
       id="clipPath3590">
      <rect
         style="fill:#0000ff;fill-opacity:0.67796613;stroke:#000000;stroke-width:2.25776935;stroke-linecap:round;stroke-miterlimit:4;stroke-opacity:1;stroke-dasharray:none;stroke-dashoffset:0"
         id="rect3592"
         width="119.04517"
         height="82.481735"
         x="1545.9917"
         y="454.01132"
         ry="3.225385"
         rx="3.225385" />
    </clipPath>
    <clipPath
       clipPathUnits="userSpaceOnUse"
       id="clipPath3594">
      <rect
         style="fill:#0000ff;fill-opacity:0.67796613;stroke:#000000;stroke-width:2.25776935;stroke-linecap:round;stroke-miterlimit:4;stroke-opacity:1;stroke-dasharray:none;stroke-dashoffset:0"
         id="rect3596"
         width="493.48389"
         height="335.44003"
         x="1576.7665"
         y="41.051411"
         ry="3.225385"
         rx="3.225385" />
    </clipPath>
    <clipPath
       clipPathUnits="userSpaceOnUse"
       id="clipPath3598">
      <rect
         style="fill:#0000ff;fill-opacity:0.67796613;stroke:#000000;stroke-width:2.25776935;stroke-linecap:round;stroke-miterlimit:4;stroke-opacity:1;stroke-dasharray:none;stroke-dashoffset:0"
         id="rect3600"
         width="493.48389"
         height="335.44003"
         x="1576.7665"
         y="41.051411"
         ry="3.225385"
         rx="3.225385" />
    </clipPath>
    <clipPath
       clipPathUnits="userSpaceOnUse"
       id="clipPath3602">
      <rect
         style="fill:#0000ff;fill-opacity:0.67796613;stroke:#000000;stroke-width:2.25776935;stroke-linecap:round;stroke-miterlimit:4;stroke-opacity:1;stroke-dasharray:none;stroke-dashoffset:0"
         id="rect3604"
         width="119.04517"
         height="82.481735"
         x="1516.2089"
         y="408.96161"
         ry="3.225385"
         rx="3.225385" />
    </clipPath>
  </defs>
  <sodipodi:namedview
     inkscape:window-height="976"
     inkscape:window-width="1680"
     inkscape:pageshadow="2"
     inkscape:pageopacity="0.0"
     guidetolerance="10.0"
     gridtolerance="10.0"
     objecttolerance="10.0"
     borderopacity="1.0"
     bordercolor="#666666"
     pagecolor="#ffffff"
     id="base"
     showgrid="false"
     showguides="true"
     inkscape:guide-bbox="true"
     inkscape:zoom="0.70710678"
     inkscape:cx="698.43394"
     inkscape:cy="317.98564"
     inkscape:current-layer="svg2"
     inkscape:window-x="0"
     inkscape:window-y="24"
     inkscape:window-maximized="1"
     fit-margin-top="0"
     fit-margin-left="0"
     fit-margin-right="0"
     fit-margin-bottom="0" />
  <style
     type="text/css"
     id="style_css_sheet"> 
/*
 * Below are Cascading Style Sheet (CSS) definitions in use in this file,
 * which allow easily changing how countries are displayed.
 *
 */

/*
 * circles around small countries
 *
 * Change opacity to 1 to display all circles.
 *
 */
.circlexx
{
   opacity:0;
   fill:#b9b9b9;
   fill-opacity:1;
   stroke:black;
   stroke-width:0.5;
   stroke-miterlimit:3.97446823;
   stroke-dasharray:none;
   stroke-opacity:1;
}

/*
 * Smaller circles around French DOMs and Chinese SARs
 *
 * Change opacity to 1 to display all subnational circles.
 *
 */
.subxx
{
   opacity:0;
   stroke-width:0.3;
}

/*
 * land
 */
.landxx
{
   fill: #b9b9b9;
   fill-opacity: 1;
   stroke:white;
   stroke-opacity: 1;
   stroke-width:0.5;
   stroke-miterlimit: 3.97446823;
   stroke-dasharray: none;
}

/*
 * Styles for coastlines of islands with no borders
 */
.coastxx
{
   stroke-width: 0.3;
}

/*
 * Additional style rules
 *
 * The following are examples of colouring countries.  You can substitute these with your own styles to colour the countries on the map.
 *
 * Color a few countries:
 *
 * .gb, .au, .nc
 * {
 *    fill:       #ff0000;
 * }
 *
 * Color a few small country circles (and the countries):
 *
 * .ms, .ky
 * {
 *    opacity:    1;
 *    fill:       #ff0000;
 * }
 *
 */
/*
 * Antarctica
 */

.aq
{
   fill:#e6e6e6;
}

/*
 * Sea
 */

.ocean
{
   opacity: 1;
   color: #000000;
   fill:white;
   fill-opacity:1;
   fill-rule:nonzero;
   stroke:#000000;
   stroke-width:0.5;
   stroke-linecap:butt;
   stroke-linejoin:miter;
   marker:none;
   marker-start:none;
   marker-mid:none;
   marker-end:none;
   stroke-miterlimit:1;
   stroke-dasharray:none;
   stroke-dashoffset:0;
   stroke-opacity:1;
   visibility:visible;
   display:inline;
   overflow:visible;
}

.lake
{
   fill:white;
   fill-opacity:1;
   stroke:none;
   stroke-opacity: 1;
   stroke-width:0.3;
   stroke-miterlimit: 3.97446823;
   stroke-dasharray: none;
}
</style>
  <g
     transform="matrix(32.231647,0,0,31.662782,-50005.993,-14375.262)"
     class="landxx az"
     id="az"
     style="fill:#b9b9b9;fill-opacity:1;stroke:#ffffff;stroke-width:0.06426335;stroke-miterlimit:3.9744699;stroke-opacity:1;stroke-dasharray:none"
     clip-path="url(#clipPath3558)">
    <path
       d="m 1621.815,447.5016 c 2.1141,-1.62053 3.4022,-1.3626 5.291,0.2544 1.1911,1.01973 2.0993,0.43649 3.419,0.763 1.105,0.2734 1.5305,1.01331 2.4905,0.53439 2.1443,-1.06975 -1.7212,-3.06452 -2.1104,-3.28578 -0.9433,-0.53619 -1.3147,-1.30062 -1.2556,-1.69481 0.062,-0.41001 1.6597,-1.34963 0.9218,-2.02142 0.6074,-0.17621 3.4744,1.16771 4.3529,2.31959 0.5909,0.77494 1.7895,0.84269 2.0902,1.45369 0.4235,0.86074 0.6906,1.69034 1.6306,2.00034 0.836,0.275 1.776,0.531 2.663,0.511 0.802,-0.018 1.2476,-1.14097 1.589,-1.81 0.1643,-0.32191 3.3827,-2.82835 2.6828,-3.72525 1.542,0.5 3.1772,2.32125 4.0222,3.60525 1.212,1.84 2.213,3.483 3.736,5.107 0.242,0.092 0.482,0.188 0.721,0.288 0.021,0.264 0.045,0.528 0.069,0.792 0.692,0.769 1.417,1.128 2.463,1.211 2.283,0.182 3.47,0.864 4.377,2.965 -0.82,-1.139 -3.13,-1.628 -4.314,-0.856 -1.698,1.107 -1.758,1.891 -2.09,3.744 -0.298,1.664 -0.017,2.781 0.333,4.306 0.125,0.543 -0.677,1.108 -0.733,1.752 -0.085,0.976 0.345,1.728 -0.825,1.494 1.219,-1.152 -1.253,-1.803 -0.997,-0.487 0.358,1.843 -0.4084,3.65419 0.2476,5.59619 -0.533,0.015 -1.4108,0.0881 -1.883,-0.23757 -1.711,-1.1803 -4.7392,-2.9008 -4.5502,-3.92943 0.097,-0.52945 1.38,-0.49842 1.4424,-0.91221 0.1311,-0.86851 -1.9025,-2.45834 0.2702,-3.27098 -1.9042,-2.18778 -3.5845,-3.66832 -5.533,-1.613 -1.9052,2.00956 -2.9937,1.81553 -3.2456,2.54484 -1.5583,2.31408 -2.3715,2.46668 -3.5118,3.18398 -0.46,-0.577 -1.1416,-2.66382 0.1204,-2.81982 -0.341,-0.416 -1.911,-1.122 -1.634,-1.823 0.12,-0.304 0.7636,-0.47885 0.28,-0.8476 -0.3773,-0.28769 -1.0221,-0.5861 -1.438,-0.49 -1.5321,0.35401 -3.5797,-2.34904 -5.349,-3.3904 0.8234,-0.3961 1.9947,-0.0787 2.447,-1.091 0.4794,-1.07308 -0.902,-1.378 -1.624,-1.739 -1.181,-0.588 -4.577,-3.147 -1.823,-4.01 -0.655,-1.782 -2.711,-1.798 -4.041,-2.809 1.9987,0.32061 -0.5304,-1.13372 -0.702,-1.5624"
       id="path5796"
       style="fill:#b9b9b9;fill-opacity:1;stroke-width:0.06426335"
       inkscape:connector-curvature="0"
       sodipodi:nodetypes="ccssccccccccccccccccccccccsccccccccsscccccc" />
    <path
       d="m 1622.158,461.231 c 1.156,-0.253 3.096,-0.808 2.96,1.08 0.855,-0.499 1.443,0.691 2.392,0.396 0.481,-0.149 1.855,-0.485 2.227,0.048 0.768,1.099 -0.2706,1.3216 1.2594,2.0856 0.633,0.316 1.3946,2.91161 1.9866,3.58061 -4.2763,-0.24703 -4.3486,-0.69403 -6.355,-2.33621 -1.6665,-1.36401 -3.61,-2.804 -4.47,-4.854"
       id="path5798"
       style="fill:#b9b9b9;fill-opacity:1;stroke-width:0.06426335"
       inkscape:connector-curvature="0" />
  </g>
  <path
     class="landxx am"
     d="m 1845.0876,19.126746 c 3.1765,-0.207328 12.2512,2.155106 17.5893,0.06285 7.6203,-2.986733 16.7285,-1.563466 24.7661,-1.475165 -0.3844,-1.563435 2.0688,-2.754693 3.6895,-2.996014 0.97,0.927254 10.9811,7.880286 2.852,6.216945 5.5134,4.11156 14.0363,4.17257 16.7514,11.423736 -10.7116,3.294137 1.2147,12.668214 5.874,15.397052 2.4623,1.439661 8.0212,2.395369 8.6804,5.669171 1.285,6.364607 -6.9103,5.351958 -10.4091,6.750957 3.6147,1.354246 17.3649,15.20996 21.0833,13.749968 1.8902,-0.744237 10.7654,2.004959 7.4077,3.981436 -4.9993,2.940321 3.5732,6.905485 5.2522,8.914512 -5.2356,0.630346 -2.2708,9.23395 -0.364,11.580515 -0.6173,0.506417 -10.6195,2.587611 -11.1875,1.034773 -3.2789,-5.225876 -5.129,-12.955406 -10.6191,-15.974506 -2.3591,-1.297322 -0.4871,-6.824356 -4.1877,-7.580941 -2.3097,-0.472397 -4.0716,-0.392497 -7.4791,0.560857 -4.2753,1.196182 -6.3577,-3.711244 -10.0162,-1.62601 0.5371,-8.45799 -8.9655,-4.560914 -12.2658,-4.40226 -4.6137,-3.375473 -10.6423,-11.781147 -17.0428,-11.59 -6.6034,0.199274 -12.2155,-0.08801 -18.1557,-3.036476 2.3293,-1.545106 0.8577,-4.639727 -0.1375,-6.807093 -1.8523,-4.033946 -1.9563,-4.900962 -0.4417,-8.52134 2.8301,-6.763968 -9.3285,-9.125293 -11.6397,-21.405443"
     id="am"
     style="fill:#b9b9b9;fill-opacity:1;stroke:#ffffff;stroke-width:0.26385888;stroke-miterlimit:3.9744699;stroke-opacity:1;stroke-dasharray:none"
     clip-path="url(#clipPath3554)"
     inkscape:connector-curvature="0"
     transform="matrix(7.7753742,0,0,7.7855983,-12436.084,-319.60902)" />
  <g
     transform="matrix(32.231647,0,0,31.662782,-50005.993,-14375.262)"
     class="landxx coastxx ir"
     id="ir"
     style="fill:#b9b9b9;fill-opacity:1;stroke:#ffffff;stroke-width:0.03855801;stroke-miterlimit:3.9744699;stroke-opacity:1;stroke-dasharray:none"
     clip-path="url(#clipPath3582)">
    <path
       class="landxx ir"
       d="m 1617.268,464.04 c 1.9933,-0.67926 2.7065,0.79238 2.6638,-2.355 -0.019,-1.36548 1.1779,-0.85775 2.0402,-0.224 0.8481,0.62334 1.313,1.616 2.086,2.319 0.747,0.679 1.6,1.228 2.345,1.908 1.526,1.392 2.19,2.166 4.385,2.505 1.36,0.21 3.291,0.356 4.62,-0.038 0.733,-0.217 3.204,-2.359 3.456,-3.046 0.291,-0.792 1.383,-0.963 1.983,-1.478 0.695,-0.597 1.298,-1.308 2.057,-1.831 1.982,-1.365 3.755,0.716 4.965,2.167 -2.644,0.995 0.938,3.218 -0.538,3.553 -2.74,0.622 0.102,2.232 1.271,2.96 0.824,0.513 1.561,1.305 2.445,1.711 0.357,0.163 1.435,-0.047 1.545,0.177 1.099,2.233 0.937,5.913 3.409,7.209 2.102,1.104 4.602,0.585 6.727,1.494 107.6533,6.10568 100.8558,240.12267 1.574,62.062 -0.243,-0.485 -1.725,-0.745 -2.184,-1.482 0.747,-0.049 1.491,0.243 2.229,0 -0.244,-0.998 -1.413,-1.268 -2.229,-0.792 0.188,0.222 0.381,0.438 0.58,0.647 -2.141,-0.28 1.35,4.627 -2.38,3.097 0.256,0.749 -0.391,0.945 -0.965,0.692 -0.806,-0.354 -0.841,-1.285 -1.127,-2.003 -0.589,-1.482 -2.675,-1.604 -2.922,-3.438 -0.156,-1.166 0.376,-3.487 -1.276,-3.436 -2.599,0.081 -1.789,-3.48 -1.437,-5.246 0.47,-2.347 -0.691,-2.778 -2.063,-4.427 -1.395,-1.677 -1.129,-2.643 -3.394,-3.072 -1.728,-0.327 -2.867,-2.176 -4.236,-3.12 -0.747,-0.515 -1.621,-1.163 -2.577,-1.083 -1.601,0.132 -0.643,-0.77 -1.813,-1.221 2.563,-0.782 -2.482,-4.771 -3.298,-5.466 -0.597,-0.509 -1.12,-1.116 -1.703,-1.643 -0.865,-0.781 -0.071,-0.962 0.286,-1.939 0.326,-0.89 0.149,-1.324 -0.58,-1.894 -0.726,-0.567 -0.154,-1.407 -0.035,-2.091 0.463,0.285 0.967,0.429 1.511,0.433 -0.119,-0.638 -0.433,-1.231 -0.501,-1.88 -0.12,-1.123 1.123,-0.941 1.211,-1.773 0.128,-1.214 0.175,-0.87 1.194,-0.864 0.959,0.005 0.849,-0.866 0.527,-1.417 -0.538,-0.926 -1.84,-1.813 -1.51,-3.043 0.284,-1.062 1.904,-0.79 2.178,-1.966 -0.695,0.202 -1.196,-0.321 -1.875,-0.252 -0.826,0.084 -1.72,0.482 -2.524,0.036 -1.217,-0.674 -1.414,-1.66 -3.021,-1.296 1.1,-2.538 -3.011,-3.271 -2.845,-4.968 0.097,-0.989 0.02,-1.339 -0.917,-1.733 -0.241,-0.102 -1.7004,-3.29486 -1.5992,-3.721 0.3638,-1.531 -0.6594,-0.92038 -1.4098,-1.963 -0.7429,-1.03216 -0.3786,-2.75795 -1.219,-3.119 -0.4405,-0.18924 -2.1421,-0.72219 -2.0761,-1.40719 0.099,-1.025 0.5791,-2.44281 1.3561,-3.17681 -2.1547,-0.44342 -1.1657,-3.28636 -2.1293,-4.37906 -0.5393,-0.61157 -0.3583,-1.1581 -0.7025,-1.87319 -0.1906,-0.39597 -1.0476,-2.00397 -1.5582,-2.81375"
       id="path4606"
       style="fill:#b9b9b9;fill-opacity:1;stroke:#ffffff;stroke-width:0.06426335;stroke-miterlimit:3.9744699;stroke-opacity:1;stroke-dasharray:none"
       inkscape:connector-curvature="0"
       sodipodi:nodetypes="cccccccccccccccccccccccccccccccccccccccccccccccccccccccssc" />
    <path
       d="m 1697.328,572.904 c 0.226,-0.115 0.466,-0.163 0.72,-0.145 -0.479,-0.294 -0.983,-0.342 -1.51,-0.144 0.264,0.097 0.526,0.194 0.79,0.289"
       id="path4560"
       style="fill:#b9b9b9;fill-opacity:1;stroke-width:0.03855801"
       inkscape:connector-curvature="0" />
    <path
       d="m 1703.088,575.496 c 0.134,-0.601 -0.106,-0.648 -0.72,-0.144 0.24,0.048 0.48,0.096 0.72,0.144"
       id="path4562"
       style="fill:#b9b9b9;fill-opacity:1;stroke-width:0.03855801"
       inkscape:connector-curvature="0" />
    <path
       d="m 1716.048,571.68 c -1.181,0.987 -1.996,2.694 -3.89,2.376 -0.169,1.771 2.514,-0.035 3.125,-0.305 0.638,-0.281 1.373,-0.061 2.014,-0.363 0.902,-0.425 1.058,-1.826 2.131,-1.924 -1.204,-1.177 -2.143,0.774 -3.38,0.216"
       id="path4564"
       style="fill:#b9b9b9;fill-opacity:1;stroke-width:0.03855801"
       inkscape:connector-curvature="0" />
  </g>
  <g
     transform="matrix(32.231647,0,0,31.662782,-50005.993,-14375.262)"
     class="landxx tr"
     id="tr"
     style="fill:#b9b9b9;fill-opacity:1;stroke:#ffffff;stroke-width:0.06426335;stroke-miterlimit:3.9744699;stroke-opacity:1;stroke-dasharray:none"
     clip-path="url(#clipPath3590)">
    <path
       d="m 1545.518,441.863 c 1.239,0 2.553,0.51 3.78,0.144 0.567,-0.17 0.755,-0.847 1.3,-1.008 0.556,-0.163 1.038,0.167 1.58,0.216 -0.918,1.107 0.655,2.612 1.656,2.917 0.76,0.231 1.545,0.422 2.345,0.317 0.875,-0.114 1.619,-1.099 1.619,0.15 0.201,-1.856 1.394,0.402 1.568,0.933 0.23,0.702 2.147,3.077 2.899,2.27 0.992,-1.066 2.054,-0.831 3.121,0.023 1.3,1.041 2.899,1.229 4.353,1.956 0.818,0.412 0.959,-1.279 2.083,-0.045 0.903,0.992 2.658,0.968 3.896,1.092 1.721,0.173 3.483,-1.017 5.21,-1.187 1.476,-0.146 2.286,-0.34 3.698,0.166 1.979,0.709 3.448,1.193 5.485,0.239 2.444,-1.145 4.681,-2.45 6.769,-4.131 0.836,-0.673 1.612,0.466 2.457,0.484 0.517,0.012 0.475,-0.697 1.08,-0.576 0.393,0.078 0.783,0.167 1.175,0.247 0.568,0.117 2.186,0.755 2.532,-0.011 0.424,-0.938 2.466,-1.72 1.833,-0.308 0.645,-0.121 1.204,0.292 1.663,0.676 0.33,0.3 0.675,0.583 1.034,0.847 0.579,0.072 0.712,0.34 0.396,0.806 0.267,0.806 1.358,0.021 1.802,0.68 0.289,0.429 0.4757,1.70127 0.903,2.04664 1.3631,1.10163 2.477,2.20136 1.696,3.32636 -0.771,1.111 1.309,2.761 0.215,3.498 1.754,0.885 2.651,0.683 4.487,0.751 1.569,0.058 3.771,2.142 4.362,3.497 -0.854,-0.704 -2.155,-1.725 -2.515,0 -0.111,0.532 0.027,1.091 -0.136,1.621 -0.212,0.686 -2.028,0.323 -2.6,0.539 0.421,0.498 1.264,1.782 1.427,2.407 0.271,1.043 0.732,1.586 1.102,2.552 0.543,1.421 0.048,3.498 1.862,4.113 -0.615,0.581 -0.975,1.746 -1.168,2.542 -0.388,1.598 1.267,1.364 2.107,2.138 0.846,0.777 0.677,1.802 0.945,2.818 0.135,0.508 1.034,0.733 1.386,1.046 0.39,0.346 0.046,1.167 0.26,1.607 -1.677,-1.183 -2.37,1.757 -3.332,1.439 -1.245,-0.412 -0.226,-2.052 -1.139,-2.663 -0.456,-0.305 -1.213,-0.277 -1.626,0.096 -0.745,0.672 -1.84,0.515 -2.719,0.239 -1.433,-0.45 -2.537,-0.923 -4.052,-0.901 -1.075,0.016 -1.748,-0.283 -2.311,0.662 -0.681,1.144 -2.042,2.172 -2.508,0.466 -0.405,-1.487 -2.282,0.302 -3.104,0.568 -2.111,0.684 -3.881,0.664 -6.024,0.381 -3.849,-0.508 -7.174,3.366 -11.07,3.637 -1.555,0.108 -4.362,0.492 -5.668,-0.496 -1.425,-1.078 -2.317,-1.697 -4.076,-0.843 -1.879,0.912 -5.967,3.063 -7.584,1.059 -0.811,-1.005 -2.534,-1.354 -2.781,0.228 -0.243,1.556 0.3,2.645 0.964,3.977 -0.706,0.04 -1.455,0.241 -2.16,0.071 -0.115,0.616 0.297,1.267 0.08,1.872 -0.256,0.718 -1.209,0.869 -1.439,1.656 -0.541,-0.363 -1.086,-0.773 -1.73,-0.936 0.619,-0.807 -0.234,-1.856 -0.722,-2.46 -0.909,-1.126 0.075,-1.789 1.013,-2.604 0.964,-0.837 1.589,-1.427 0.65,-2.694 -0.375,-0.506 -1.161,-1.131 -1.696,-0.438 -0.741,0.958 -1.49,0.807 -2.415,1.5 1.533,-0.156 -0.04,1.387 -1.177,1.179 -1.411,-0.258 -2.667,-1.088 -3.93,-1.721 -3.007,-1.507 -4.569,2.915 -5.983,4.718 -0.215,-0.241 -0.432,-0.481 -0.65,-0.72 -0.542,0.569 -0.899,1.581 -1.779,1.248 -0.764,-0.289 -2.924,0.242 -3.644,0.602"
       id="path3458"
       style="fill:#b9b9b9;fill-opacity:1;stroke-width:0.06426335"
       inkscape:connector-curvature="0"
       sodipodi:nodetypes="ccccccccccccccccccccccccccccccccccccccccccccccccccccsccccccccccscccccccc" />
  </g>
  <path
     class="landxx sy"
     d="m 1645.9767,296.17892 c 2.5994,-3.2309 7.6059,-9.95399 12.2287,-10.83405 -7.0554,-6.45813 3.0262,-10.52092 8.9499,-8.78436 -5.2067,-6.206 2.5523,-6.95998 4.345,-12.89106 0.9936,-3.28663 -3.1694,-9.93416 -7.0089,-10.63236 -4.3784,-0.7962 3.9584,-6.96001 -2.8263,-5.09328 -11.306,3.1105 -12.1388,-3.96202 -12.6623,-9.70105 -0.476,-5.21549 2.9639,-14.74229 -1.8117,-18.58138 -3.826,-3.07859 -0.8531,-11.26262 -0.9981,-15.76461 -0.1078,-3.37955 6.296,1.93167 7.5271,2.52949 0.098,0.44666 1.5678,-3.00084 4.2879,-4.61423 3.357,-1.99088 1.0886,-6.47033 1.6773,-9.58148 2.9225,0.69137 6.0274,-0.13014 8.954,-0.28874 -2.3372,-4.70533 -3.8644,-5.92537 -4.535,-11.58642 -0.2442,-2.06018 -0.054,-7.8799 2.8892,-8.59973 2.2136,-0.54497 4.4372,-0.56513 6.199,0.34585 4.7506,2.4523 5.6833,6.61572 10.579,5.86741 5.9734,-0.91503 9.9347,-1.60961 15.6345,-4.0253 5.845,-2.4767 10.127,-5.91726 16.6891,-4.99409 4.8461,0.67917 7.6939,4.05708 11.7936,5.94003 4.6677,2.14728 13.8073,1.25337 18.8646,0.82643 12.9074,-1.08968 22.1267,-8.32328 33.8145,-12.90896 11.8159,-4.63592 24.7245,1.86746 36.8497,-2.88096 6.1897,-2.424 15.2759,-11.70285 16.1776,2.80772 0.2103,3.37954 -8.1913,10.23215 -10.6121,12.58279 -4.3898,4.26611 -9.2856,3.96516 -14.2309,6.81194 -10.6122,6.11246 0.5057,19.34597 1.3389,26.65 0.4933,4.31897 -2.168,9.61808 -2.4872,14.08345 -0.4685,6.6493 0,17.40588 -0.034,23.98996 -0.082,15.40335 -66.1874,44.86599 -99.7366,67.39596 -9.1355,6.135 -23.9145,20.89135 -35.795,12.73327 -4.3237,-2.96473 -7.4377,-5.24407 -11.8972,-8.25162 -7.7365,-5.21783 -11.2136,-1.31199 -12.4966,-1.49337 -0.269,-0.95572 2.7956,-19.14583 -1.668,-21.05725"
     id="sy"
     style="fill:#b9b9b9;fill-opacity:1;stroke:#ffffff;stroke-width:0.26385888;stroke-miterlimit:3.9744699;stroke-opacity:1;stroke-dasharray:none"
     clip-path="url(#clipPath3574)"
     inkscape:connector-curvature="0"
     transform="matrix(7.7753742,0,0,7.7855983,-12436.084,-319.60902)" />
  <g
     transform="matrix(32.231647,0,0,31.662782,-49046.046,-12948.862)"
     id="ge"
     style="fill:#b9b9b9;fill-opacity:1"
     clip-path="url(#clipPath3602)">
    <path
       sodipodi:nodetypes="cssssssssssssssssssssscccssssssc"
       id="abkhazia"
       d="m 1565.9381,391.04125 c -0.075,-0.24217 -0.4457,-0.58874 -0.6616,-0.87217 -0.2828,-0.37137 -0.5274,-0.34611 -1.4075,-0.79553 -0.9208,-0.47018 -1.3148,-0.76076 -1.6708,-1.20327 -0.6826,-0.84854 -1.5505,-0.99847 -3.4075,-1.28909 -1.2484,-0.19538 -1.4766,-0.40404 -2.4808,-1.39481 -0.5941,-0.58615 -0.8608,-0.65634 -1.2881,-0.90995 -0.1538,-0.0913 -0.483,-0.0912 -0.4927,-0.12226 -0.01,-0.0311 0.1539,-0.66436 0.2291,-0.78788 0.2008,-0.32973 0.3495,-0.46848 0.7144,-0.60342 0.1741,-0.0644 0.3547,-0.15636 0.6474,-0.1792 0.5003,-0.039 0.7385,-0.0172 1.1966,0.0318 0.7462,0.0798 1.5005,0.2731 2.399,0.53968 1.1539,0.3424 2.2627,0.77614 3.4842,1.29726 0.8184,0.34912 1.5784,0.68157 2.3281,0.96477 0.5426,0.20495 1.1267,0.30618 1.6287,0.37722 0.5168,0.0731 1.203,0.008 1.7765,-0.0494 0.2385,-0.0239 0.6891,-0.11844 0.6998,-0.11851 0.06,-2.1e-4 0.048,0.15389 -0.063,0.3806 -0.1169,0.23748 -0.5197,0.48153 -0.7657,0.68467 -0.2869,0.23691 0.1122,-0.23055 -0.27,0.19774 -0.1761,0.19733 -0.4862,0.3977 -0.4124,0.55336 0.2524,0.53252 0.056,0.42396 0.2115,0.63968 l -0.1103,0.48209 -0.057,0.55887 c -0.097,0.30226 -0.038,0.33975 0.032,0.64258 0.055,0.23738 -0.4497,0.21591 -0.6487,0.32694 -0.1671,0.0933 -0.083,0.18979 -0.2889,0.31883 -0.1654,0.10372 -0.048,0.23608 -0.3112,0.39098 -0.2043,0.12048 -0.1697,0.42501 -0.2928,0.53812 -0.1231,0.11313 -0.3257,0.16421 -0.3303,0.15529 l -0.3878,-0.75499 z"
       style="fill:#b9b9b9;fill-opacity:1;fill-rule:nonzero;stroke:none;stroke-width:0.499935;marker:none;visibility:visible;display:inline;overflow:visible"
       inkscape:connector-curvature="0" />
    <path
       sodipodi:nodetypes="csssssssscccsssssssssssssssssssssssssssssccccc"
       id="south_ossetia"
       d="m 1586.1028,395.2726 c -0.2842,-0.008 -0.2792,-0.19355 -0.2817,-0.19629 0,-0.003 -0.032,-0.0645 -0.066,-0.13727 -0.034,-0.0728 -0.1363,-0.22365 -0.2278,-0.33532 -0.265,-0.32353 -0.4897,-0.46023 -0.8095,-0.49254 -0.2295,-0.0232 -0.2438,-0.0346 -0.3699,-0.29471 -0.092,-0.19068 -0.194,-0.26577 -0.4179,-0.3088 -0.2427,-0.0466 -0.3891,0.0144 -0.805,0.3359 -0.058,0.0447 -0.1542,0.11192 -0.2142,0.14946 -0.06,0.0375 -0.088,0.16747 -0.1273,0.22438 l -0.1191,0.1687 -0.1545,-0.23591 c -0.1184,-0.0821 -0.2928,-0.16503 -0.384,-0.0242 -0.2809,0.4336 -0.3668,0.0292 -0.5883,-0.10531 -0.1002,-0.0608 -0.2337,-0.12815 -0.2966,-0.14959 -0.092,-0.0312 -0.3314,0.0878 -0.2471,-0.26405 0.024,-0.0984 0.258,-0.18912 0.237,-0.49227 -0.01,-0.11334 -0.3318,-0.0469 -0.5331,-0.1973 -0.1569,-0.11721 0.01,-0.34028 0,-0.47546 0,-0.11269 -0.1265,-0.10265 -0.1212,-0.20314 0.01,-0.11859 0.08,-0.24577 0.094,-0.36694 0.043,-0.36395 0.084,-0.52289 0.1604,-0.67804 0.046,-0.0943 -0.095,-0.25072 -0.09,-0.26767 0.062,-0.23134 0.392,-0.71027 0.5957,-0.46487 0.041,0.0497 0.1293,0.27425 0.1714,0.31408 0.1052,0.0996 0.2048,0.25954 0.2435,0.27651 0.3189,0.13995 0.6611,0.12036 1.1094,0.10539 0.2586,-0.009 0.6981,-0.0671 0.8568,-0.12995 0.3405,-0.13494 0.8527,-0.33799 1.2867,-0.50555 0.2742,-0.10589 0.3827,-0.1451 0.5724,-0.12381 0.1061,0.0119 -0.025,-0.007 0.011,-0.0107 0.4452,-0.0448 0.4202,0.33126 0.4566,0.41051 0.02,0.0429 0.068,0.15011 0.1065,0.23819 0.059,0.13328 0.5185,0.25044 0.2944,0.35786 -0.7385,0.35408 0.2656,0.21449 0.43,0.28048 0.1135,0.0455 0.331,0.14688 0.4835,0.22526 0.1524,0.0784 0.3438,0.16324 0.4253,0.18862 0.187,0.0583 0.3174,0.30219 0.5303,0.4802 0.1078,0.0902 -0.1084,0.32141 -0.071,0.41149 0.067,0.16279 0.067,0.16559 0.038,0.46239 -0.033,0.33864 0.107,0.70195 -0.2538,1.08842 -0.3223,0.34531 -0.6093,0.17274 -0.7146,0.38313 l -0.104,0.20791 -0.1771,-0.005 c -0.097,-0.003 -0.3717,0.31558 -0.6558,0.30736 l -0.2772,-0.15119 z"
       style="fill:#b9b9b9;fill-opacity:1;fill-rule:nonzero;stroke:none;stroke-width:0.499935;marker:none;visibility:visible;display:inline;overflow:visible"
       inkscape:connector-curvature="0" />
  </g>
  <path
     class="landxx jo"
     d="m 1636.1148,433.80072 c -0.572,-9.81732 3.4572,-19.16702 3.5526,-28.92736 0.1119,-11.22047 5.2148,-19.5412 6.5995,-30.22069 0.5803,-4.44917 -0.7297,-8.98776 -0.3732,-13.50601 0.3399,-4.27017 1.7886,-8.47122 1.9504,-12.6316 0.3316,-8.7193 -0.8855,-19.19159 -1.2129,-27.99225 -0.2737,-7.47077 9.2279,-5.1728 13.5681,-2.22842 7.1508,4.84767 13.6145,12.19182 23.2276,10.33733 9.6794,-1.87074 18.5865,-10.80095 26.5912,-16.03495 10.2308,-6.6859 20.4449,-14.07941 31.1813,-19.93159 3.3121,10.41112 7.6565,20.46025 11.3168,30.74936 -3.6894,0.38229 -1.2809,5.32348 1.0944,5.92133 3.7639,0.94755 8.5128,0.36673 2.4233,6.63373 -19.1038,11.45714 -38.2375,17.53015 -61.2006,23.14953 l 34.2381,35.24787 c -3.08,1.48443 -11.2236,1.30326 -13.4165,4.0118 -2.5204,3.11515 0.335,9.40466 -2.3596,12.51993 -4.5224,5.22585 -15.9383,0.77582 -21.7999,6.26604 -6.6864,6.26287 -8.8731,18.0373 -18.4239,21.72598 -8.6431,3.33068 -28.1976,-2.86549 -36.9567,-5.09003"
     id="jo"
     style="fill:#b9b9b9;fill-opacity:1;stroke:#ffffff;stroke-width:0.26385888;stroke-miterlimit:3.9744699;stroke-opacity:1;stroke-dasharray:none"
     clip-path="url(#clipPath3594)"
     inkscape:connector-curvature="0"
     transform="matrix(7.7753742,0,0,7.7855983,-12436.084,-319.60902)" />
  <path
     class="landxx iq"
     d="m 1741.1953,292.66518 c 18.0849,-8.70132 33.9706,-17.19454 50.0575,-28.0353 5.1139,-3.44617 10.63,-7.71073 13.5695,-12.11251 5.6448,-8.45282 1.1445,-19.62646 2.2711,-22.78948 0.1195,-13.14091 3.7318,-14.76647 2.9628,-21.08066 -0.859,-7.05822 -11.0966,-19.44903 -3.1945,-25.48979 4.5214,-3.45628 10.1354,-3.31158 14.8023,-7.13238 3.9185,-3.20841 14.4581,-11.60817 11.3317,-14.99927 -1.4293,-1.5502 1.436,0.14552 3.5791,-0.49297 3.5401,-1.04926 4.6946,-4.31464 6.2354,-7.08363 1.5127,-2.71774 17.2792,-0.20459 20.735,1.09805 2.736,1.03127 5.4966,2.00496 8.3778,2.58652 4.7381,0.95977 6.1557,-2.04824 10.2764,-2.79799 10.3906,-1.89072 3.2979,11.46688 9.1901,10.94385 4.293,-0.38105 5.9967,-6.75823 10.7224,-6.58335 5.9982,0.21961 5.7852,10.21911 8.4175,13.67998 1.2478,1.64301 2.8761,1.35427 3.9167,3.41208 1.2683,2.51331 -0.4147,6.089 1.7425,8.15723 4.5458,4.35855 14.5391,8.65297 10.4579,16.18036 6.7454,-1.48032 9.5157,4.46129 12.5232,5.57807 5.7507,2.13575 5.8367,-2.3392 18.2353,0.87843 -1.0819,4.57114 -6.4941,3.51131 -8.4382,7.04539 -3.2914,5.97013 6.0082,10.40949 6.543,15.83465 0.7006,7.1617 -8.2202,-0.7117 -7.9632,6.54761 0.1119,3.26974 -3.4945,2.71908 -4.4148,5.79768 -1.0405,3.48121 0.709,6.07342 1.3181,9.28216 -2.2549,-0.0122 -4.3442,-0.59784 -6.2636,-1.76095 -0.5053,2.94484 -2.5913,5.18493 -0.223,7.62126 2.581,2.65526 4.518,3.78955 3.0932,8.14261 -1.3592,4.15241 -5.1501,5.09493 -1.5063,8.32807 3.1215,2.76545 5.8645,6.07339 9.3725,8.38583 3.5047,2.30996 21.7608,17.65821 11.3585,20.52532 4.0558,0.97052 3.0265,5.60179 6.3712,4.83872 4.8071,-1.09666 7.4993,1.90406 11.3509,4.03757 7.0757,3.91956 11.5974,12.82476 21.3907,13.57343 4.6434,0.35497 13.2013,15.19553 17.3018,18.75061 6.203,5.37749 2.3994,10.93246 0.8409,18.33005 -0.7463,3.53407 -0.5588,13.56787 4.7803,13.94194 1.8739,0.13424 5.0077,-0.24818 6.4752,1.58601 1.8942,2.35465 1.8856,7.10191 1.4541,9.97924 -0.9593,6.39256 2.4412,8.26576 9.7249,13.41488 3.6729,2.5966 2.8426,10.65371 8.0478,11.88743 -2.6902,0.19925 -18.7303,-2.04401 -19.0869,-4.92335 2.2096,5.11604 -6.9632,1.01175 -10.5491,0.85721 -5.1857,-0.21964 -11.8912,0.98206 -14.2401,5.87751 -5.0904,10.61037 -4.1776,31.74856 -21.452,29.80983 l -43.5983,-4.89302 c -14.593,-2.04801 -15.1405,-9.57303 -28.4894,-17.80402 -36.9164,-26.63803 -72.2778,-58.55957 -113.6127,-76.32377 -14.8529,-6.38325 -28.0429,-5.84029 -41.4639,-8.74447 8.413,-8.94407 -1.7199,-5.00245 -4.2424,-8.80731 -0.6264,-0.94505 -1.1487,-2.82828 -0.6055,-3.77991 2.1099,-2.37503 0.021,-4.79148 -1.2976,-8.25641 -2.9308,-7.67006 -5.7028,-15.2107 -8.1858,-23.01904"
     id="iq"
     style="fill:#b9b9b9;fill-opacity:1;stroke:#ffffff;stroke-width:0.26385888;stroke-miterlimit:3.9744699;stroke-opacity:1;stroke-dasharray:none"
     clip-path="url(#clipPath3586)"
     inkscape:connector-curvature="0"
     transform="matrix(7.7753742,0,0,7.7855983,-12436.084,-319.60902)" />
  <path
     style="fill:#0101ff;fill-opacity:0.09803922;stroke:#000097;stroke-width:0.64507699;stroke-linecap:round;stroke-miterlimit:0;stroke-opacity:1;stroke-dasharray:none;stroke-dashoffset:0"
     d="m 2464.9773,1562.2222 c -456.5922,-80.3011 -447.9969,17.5037 -561.0093,-340.0512 9.6775,-63.747 -493.0056,-69.3052 -339.5817,-161.0421 375.8132,-224.7104 -39.5958,-516.23961 649.8053,-976.30103 655.0928,-18.1735 480.0887,1467.17533 250.7857,1477.39433 z"
     id="path3607"
     inkscape:connector-curvature="0"
     sodipodi:nodetypes="ccscc" />
  <path
     class="landxx eg"
     d="m 1547.1889,365.58357 c -20.3232,-15.15345 -6.9692,3.84841 -1.4924,9.07723 0,-1.19566 9.7623,-5.23812 2.6944,-8.49159 7.5197,1.7162 10.0193,8.52404 18.8406,7.76767 2.8604,-0.24406 11.3045,-5.42518 9.8038,0.72392 5.4677,-3.40805 11.6029,-1.41932 17.4768,-3.1559 5.1734,-1.52507 10.3514,-3.51217 14.5009,-7.04624 l 25.2017,65.2699"
     id="eg"
     style="fill:#b9b9b9;fill-opacity:1;stroke:#ffffff;stroke-width:0.26385888;stroke-miterlimit:3.9744699;stroke-opacity:1;stroke-dasharray:none"
     clip-path="url(#clipPath3570)"
     inkscape:connector-curvature="0"
     sodipodi:nodetypes="cccccccc"
     transform="matrix(7.7753742,0,0,7.7855983,-12436.084,-319.60902)" />
  <g
     transform="matrix(32.231647,0,0,31.662782,-50005.993,-14375.262)"
     class="landxx coastxx sa"
     id="sa"
     style="fill:#b9b9b9;fill-opacity:1;stroke:#ffffff;stroke-width:0.03855801;stroke-miterlimit:3.9744699;stroke-opacity:1;stroke-dasharray:none"
     clip-path="url(#clipPath3566)">
    <path
       d="m 1619.718,661.32 c -0.041,-0.811 -0.376,-1.567 -1.079,-2.017 -0.016,0.265 -0.043,0.529 -0.08,0.792 -0.938,0.037 -1.275,-0.954 -2.08,-1.224 0.78,1.298 2.789,1.272 3.239,2.449"
       id="path3234"
       style="fill:#b9b9b9;fill-opacity:1;stroke-width:0.03855801"
       inkscape:connector-curvature="0" />
    <path
       class="landxx sa"
       d="m 1575.106,545.744 c 1.203,-0.19 4.1559,0.11407 4.027,-1.508 -0.2941,-3.69942 1.3153,-2.58881 3.5546,-3.34406 -2.9226,-2.79949 -5.703,-5.71917 -8.3765,-8.754 5.1925,-1.08478 8.6393,-2.25469 14.76,-5.52458 2.5927,0.49723 7.217,0.77985 10.0595,2.09578 9.5514,4.4217 17.4184,11.18186 25.7094,17.49086"
       id="path3380"
       style="fill:#b9b9b9;fill-opacity:1;stroke:#ffffff;stroke-width:0.06426335;stroke-miterlimit:3.9744699;stroke-opacity:1;stroke-dasharray:none"
       inkscape:connector-curvature="0"
       sodipodi:nodetypes="cccccsc" />
    <path
       d="m 1617.268,657.504 c 0.531,0.132 0.65,0.3 0.36,0.504 -0.12,-0.168 -0.24,-0.336 -0.36,-0.504"
       id="path5480"
       style="fill:#b9b9b9;fill-opacity:1;stroke-width:0.03855801"
       inkscape:connector-curvature="0" />
    <path
       d="m 1617.628,658.008 c 0.219,0.31 0.265,0.646 0.14,1.008 -0.264,-0.073 -0.503,-0.193 -0.72,-0.359 0.193,-0.217 0.387,-0.433 0.58,-0.649"
       id="path5482"
       style="fill:#b9b9b9;fill-opacity:1;stroke-width:0.03855801"
       inkscape:connector-curvature="0" />
  </g>
  <path
     class="landxx il"
     d="m 1610.7412,368.79639 c 1.4426,-1.9399 9.2939,-11.23262 5.679,-13.46937 6.1643,-10.07357 7.6276,-21.77387 9.8619,-33.08781 0.6881,-3.46086 0.7876,-9.15037 3.6395,-11.64334 2.1392,-1.86668 -1.115,-5.90911 0.8374,-7.97507 1.7949,-1.89516 6.1517,0.0203 8.2285,0.27249 4.9123,0.59374 4.2615,-4.38406 5.7869,-7.29999 7.1553,0.35975 1.8058,27.16022 2.413,34.99294 -0.8614,-3.1263 -5.9381,-7.25446 -9.778,-8.2608 -4.5885,-1.20257 -6.0194,4.47336 -6.9198,7.96096 -1.0082,3.90538 -3.192,17.76024 2.5659,17.02894 12.0465,-1.52994 -5.1671,6.48793 -2.822,14.94562 1.3111,4.72974 13.7327,-4.33247 16.3193,-4.36094 -0.6006,4.2758 -0.4041,6.95926 -0.2043,13.77328 0.1783,6.08047 -2.3293,13.97861 -4.1756,19.30541 -3.5953,10.37213 -0.951,28.19507 -8.135,38.42578 l -23.2967,-60.6081"
     id="il"
     style="fill:#b9b9b9;fill-opacity:1;stroke:#ffffff;stroke-width:0.26385888;stroke-miterlimit:3.9744699;stroke-opacity:1;stroke-dasharray:none"
     clip-path="url(#clipPath3550)"
     inkscape:connector-curvature="0"
     transform="matrix(7.7753742,0,0,7.7855983,-12436.084,-319.60902)" />
  <g
     class="landxx coastxx gr"
     id="gr"
     transform="matrix(32.231647,0,0,31.662782,-49042.236,-12948.006)"
     style="fill:#b9b9b9;fill-opacity:1;stroke:#ffffff;stroke-width:0.03855801;stroke-miterlimit:3.9744699;stroke-opacity:1;stroke-dasharray:none"
     clip-path="url(#clipPath3546)">
    <path
       d="m 1457.6963,412.84555 c -0.58,-0.949 1.268,-1.967 1.63,-0.979 0.21,0.574 -1.282,0.955 -1.63,0.979"
       id="path3606"
       style="fill:#b9b9b9;fill-opacity:1;stroke-width:0.03855801"
       inkscape:connector-curvature="0" />
    <path
       d="m 1468.3463,442.29355 c -1.169,-1.104 1.743,-2.073 2.52,-1.872 -0.613,0.49 -2.463,0.925 -2.52,1.872"
       id="path3608"
       style="fill:#b9b9b9;fill-opacity:1;stroke-width:0.03855801"
       inkscape:connector-curvature="0" />
    <path
       d="m 1417.5153,418.31755 c 0.263,0.168 0.527,0.336 0.79,0.504 -1.398,0.27 -3.235,-2.124 -3.17,-3.384 2.8,-0.276 0.411,2.246 2.38,2.88"
       id="path6518"
       style="fill:#b9b9b9;fill-opacity:1;stroke-width:0.03855801"
       inkscape:connector-curvature="0" />
    <path
       d="m 1442.9263,430.84555 c 0.477,0.755 0.1,0.944 -0.57,0.937 0.024,-0.415 0.215,-0.727 0.57,-0.937"
       id="path6530"
       style="fill:#b9b9b9;fill-opacity:1;stroke-width:0.03855801"
       inkscape:connector-curvature="0" />
    <path
       d="m 1444.0063,421.62955 c -0.256,-0.198 -0.496,-0.415 -0.721,-0.648 0.544,-0.14 0.854,0.065 0.721,0.648"
       id="path6536"
       style="fill:#b9b9b9;fill-opacity:1;stroke-width:0.03855801"
       inkscape:connector-curvature="0" />
    <path
       d="m 1448.7663,434.94955 c -0.291,-0.583 0.021,-1.062 0.57,-1.297 0.104,0.561 -0.087,0.994 -0.57,1.297"
       id="path6540"
       style="fill:#b9b9b9;fill-opacity:1;stroke-width:0.03855801"
       inkscape:connector-curvature="0" />
    <path
       d="m 1449.4863,442.50955 c 0,-0.264 0,-0.528 0,-0.792 0.5,0.497 1.108,0.43 1.51,-0.143 0.051,0.948 -0.889,0.772 -1.51,0.935"
       id="path6542"
       style="fill:#b9b9b9;fill-opacity:1;stroke-width:0.03855801"
       inkscape:connector-curvature="0" />
    <path
       d="m 1449.7763,408.74055 c -1.004,-0.281 -1.104,-2.119 0.141,-1.872 1.125,0.225 0.905,1.722 -0.141,1.872"
       id="path6544"
       style="fill:#b9b9b9;fill-opacity:1;stroke-width:0.03855801"
       inkscape:connector-curvature="0" />
    <path
       d="m 1452.0763,440.27855 c -0.12,-0.24 -0.239,-0.48 -0.359,-0.721 0.822,-10e-4 0.943,0.24 0.359,0.721"
       id="path6548"
       style="fill:#b9b9b9;fill-opacity:1;stroke-width:0.03855801"
       inkscape:connector-curvature="0" />
    <path
       d="m 1453.2963,413.63755 c 0.814,-0.123 1.608,0.354 2.38,-0.072 -0.275,0.467 -0.419,0.971 -0.431,1.513 -1.107,-0.607 -2.793,0.707 -1.949,-1.441"
       id="path6550"
       style="fill:#b9b9b9;fill-opacity:1;stroke-width:0.03855801"
       inkscape:connector-curvature="0" />
    <path
       d="m 1453.4463,433.58155 c -0.661,-0.707 -1.209,-1.535 -2.02,-2.089 0.201,-0.241 0.44,-0.433 0.72,-0.575 0.344,1.145 2.153,1.146 1.3,2.664"
       id="path6552"
       style="fill:#b9b9b9;fill-opacity:1;stroke-width:0.03855801"
       inkscape:connector-curvature="0" />
    <path
       d="m 1453.9463,443.01355 c -0.264,-0.144 -0.526,-0.288 -0.79,-0.432 0.536,-0.062 0.468,0.172 0.79,0.432"
       id="path6556"
       style="fill:#b9b9b9;fill-opacity:1;stroke-width:0.03855801"
       inkscape:connector-curvature="0" />
    <path
       d="m 1455.4563,439.70155 c -0.63,-0.494 -0.575,-1.089 0.149,-1.44 0.433,0.477 0.344,1.052 -0.149,1.44"
       id="path6558"
       style="fill:#b9b9b9;fill-opacity:1;stroke-width:0.03855801"
       inkscape:connector-curvature="0" />
    <path
       d="m 1456.8963,409.38955 c 0,0.24 0,0.479 0,0.72 -0.581,0.113 -1.019,-0.198 -1.08,-0.792 0.368,-0.102 0.728,-0.078 1.08,0.072"
       id="path6564"
       style="fill:#b9b9b9;fill-opacity:1;stroke-width:0.03855801"
       inkscape:connector-curvature="0" />
    <path
       d="m 1459.8563,441.50155 c 0.282,-0.798 1.071,-1.155 1.87,-1.152 -0.689,0.281 -1.202,0.835 -1.87,1.152"
       id="path6568"
       style="fill:#b9b9b9;fill-opacity:1;stroke-width:0.03855801"
       inkscape:connector-curvature="0" />
    <path
       d="m 1466.6963,433.94155 c -0.123,-0.138 -2.725,-0.904 -1.137,-1.335 0.847,-0.23 1.748,0.422 2.567,0.184 -0.229,0.613 -0.772,1.074 -1.43,1.151"
       id="path6576"
       style="fill:#b9b9b9;fill-opacity:1;stroke-width:0.03855801"
       inkscape:connector-curvature="0" />
    <path
       d="m 1467.3363,438.62155 c -0.24,-0.216 -0.48,-0.433 -0.721,-0.648 0.577,-0.004 0.558,0.203 0.721,0.648"
       id="path6578"
       style="fill:#b9b9b9;fill-opacity:1;stroke-width:0.03855801"
       inkscape:connector-curvature="0" />
    <path
       d="m 1468.2063,440.13355 c -0.542,-0.702 -0.398,-0.942 0.43,-0.72 -0.143,0.241 -0.286,0.48 -0.43,0.72"
       id="path6580"
       style="fill:#b9b9b9;fill-opacity:1;stroke-width:0.03855801"
       inkscape:connector-curvature="0" />
    <path
       d="m 1470.2163,453.30955 c -0.29,-1.361 -0.232,-2.375 0.29,-3.672 0.196,0.776 0.421,3.239 -0.29,3.672"
       id="path6582"
       style="fill:#b9b9b9;fill-opacity:1;stroke-width:0.03855801"
       inkscape:connector-curvature="0" />
    <path
       d="m 1475.4763,448.12555 c -0.731,1.979 -1.345,-0.231 -1.447,-1.007 -0.197,-1.493 2.06,-2.571 3.317,-2.81 0.209,0.875 -0.284,1.691 -0.522,2.493 -0.43,1.446 -0.558,0.246 -1.348,1.324"
       id="path6584"
       style="fill:#b9b9b9;fill-opacity:1;stroke-width:0.03855801"
       inkscape:connector-curvature="0" />
  </g>
  <g
     id="lb"
     transform="matrix(32.231647,0,0,31.662782,-49042.236,-12948.006)"
     style="fill:#b9b9b9;fill-opacity:1"
     clip-path="url(#clipPath3542)">
    <path
       class="landxx lb"
       d="m 1529.1163,473.25355 c 1.59,-1.854 1.538,-5.199 2.888,-7.283 0.669,-1.032 -0.115,-2.426 0.653,-3.421 0.599,-0.774 2.236,-1.63 1.709,-2.832 0.617,0.13 1.551,0.393 2.142,0.041 1.359,-0.81 0.399,0.732 0.599,1.196 -0.026,-0.062 0.895,0.282 0.991,0.375 0.685,0.659 0.299,0.513 0.817,1.463 1.104,2.021 -2.423,2.345 -1.019,4.052 -1.429,-0.427 -3.861,0.572 -2.159,2.16 -0.634,0.146 -2.786,2.234 -2.881,2.88 -0.156,-0.083 -0.276,-0.203 -0.359,-0.36 -0.237,0.465 -0.2511,1.0165 -0.505,1.491 -0.5382,1.00587 -2.0934,-0.39296 -2.876,0.238"
       id="lb-"
       style="fill:#b9b9b9;fill-opacity:1;stroke:#ffffff;stroke-width:0.06426335;stroke-miterlimit:3.9744699;stroke-opacity:1;stroke-dasharray:none"
       inkscape:connector-curvature="0" />
    <path
       class="circlexx lb"
       d="m 1533.8287,472.0092 c 7.7226,0 7.7226,-12.02606 0,-12.02606 -7.7282,0 -7.7282,12.02606 0,12.02606"
       id="lb."
       style="opacity:0;fill:#b9b9b9;fill-opacity:1;stroke:#000000;stroke-width:0.06426335;stroke-miterlimit:3.9744699;stroke-opacity:1;stroke-dasharray:none"
       inkscape:connector-curvature="0" />
  </g>
  <g
     id="kw"
     transform="matrix(32.231647,0,0,31.662782,-49042.236,-12948.006)"
     style="fill:#b9b9b9;fill-opacity:1"
     clip-path="url(#clipPath3538)">
    <g
       transform="translate(-29.9017,-45.0745)"
       class="landxx coastxx kw"
       id="kw-"
       style="fill:#b9b9b9;fill-opacity:1;stroke:#ffffff;stroke-width:0.03855801;stroke-miterlimit:3.9744699;stroke-opacity:1;stroke-dasharray:none">
      <path
         d="m 1657.008,545.256 c 0.141,0.313 -1.702,3.358 0.58,3.132 1.975,-0.196 -0.036,-2.463 -0.58,-3.132"
         id="path5440"
         style="fill:#b9b9b9;fill-opacity:1;stroke-width:0.03855801"
         inkscape:connector-curvature="0" />
    </g>
    <path
       class="circlexx kw"
       d="m 1623.295,511.16096 c 7.7226,0 7.7226,-12.02611 0,-12.02611 -7.7281,0 -7.7281,12.02611 0,12.02611"
       id="kw."
       style="opacity:0;fill:#b9b9b9;fill-opacity:1;stroke:#000000;stroke-width:0.06426335;stroke-miterlimit:3.9744699;stroke-opacity:1;stroke-dasharray:none"
       inkscape:connector-curvature="0" />
  </g>
  <g
     id="qa"
     transform="matrix(32.231647,0,0,31.662782,-49042.236,-12948.006)"
     style="fill:#b9b9b9;fill-opacity:1"
     clip-path="url(#clipPath3534)">
    <path
       class="circlexx qa"
       d="m 1652.491,548.0035 c 7.7226,0 7.7226,-12.02611 0,-12.02611 -7.7282,0 -7.7282,12.02611 0,12.02611"
       id="qa."
       style="opacity:0;fill:#b9b9b9;fill-opacity:1;stroke:#000000;stroke-width:0.06426335;stroke-miterlimit:3.9744699;stroke-opacity:1;stroke-dasharray:none"
       inkscape:connector-curvature="0" />
  </g>
  <g
     id="cy"
     transform="matrix(32.231647,0,0,31.662782,-49042.236,-12948.006)"
     style="fill:#b9b9b9;fill-opacity:1"
     clip-path="url(#clipPath3530)">
    <path
       class="landxx coastxx cy"
       d="m 1507.5863,456.76555 c -0.097,-0.264 -0.193,-0.528 -0.29,-0.792 0.983,0.968 2.432,-0.875 3.556,-0.799 1.729,0.117 0.43,-1.62 2.035,-1.582 1.722,0.042 3.253,0.349 4.98,-0.116 1.941,-0.522 3.677,-2.54 5.709,-2.544 -1.287,0.81 -2.441,2.705 -3.872,3.154 -1.563,0.49 0,1.988 0.622,2.678 -0.668,0.082 -2.186,-0.051 -2.699,0.411 -0.57,0.514 -0.763,1.243 -1.545,1.513 -0.684,0.235 -3.377,0.524 -2.956,1.748 -2.257,-1.14 -4.476,-0.802 -5.54,-3.671"
       id="cy-"
       style="fill:#b9b9b9;fill-opacity:1;stroke:#ffffff;stroke-width:0.03855801;stroke-miterlimit:3.9744699;stroke-opacity:1;stroke-dasharray:none"
       inkscape:connector-curvature="0" />
    <path
       class="circlexx cy"
       d="m 1514.8529,462.84858 c 7.7225,0 7.7225,-12.02611 0,-12.02611 -7.7282,0 -7.7282,12.02611 0,12.02611"
       id="cy."
       style="opacity:0;fill:#b9b9b9;fill-opacity:1;stroke:#000000;stroke-width:0.06426335;stroke-miterlimit:3.9744699;stroke-opacity:1;stroke-dasharray:none"
       inkscape:connector-curvature="0" />
  </g>
  <g
     id="ps"
     transform="matrix(32.231647,0,0,31.662782,-49042.236,-12948.006)"
     style="fill:#b9b9b9;fill-opacity:1"
     clip-path="url(#clipPath3526)">
    <g
       transform="translate(-29.9017,-45.0745)"
       class="landxx ps"
       id="ps-"
       style="fill:#b9b9b9;fill-opacity:1;stroke:#ffffff;stroke-width:0.06426335;stroke-miterlimit:3.9744699;stroke-opacity:1;stroke-dasharray:none">
      <path
         d="m 1553.758,533.592 c 0.694,-0.685 1.34,-1.438 1.801,-2.304 0.861,0.544 -0.967,2.8688 -1.37,3.2878 -0.171,-0.299 -0.315,-0.6588 -0.431,-0.9838"
         id="path5472"
         style="fill:#b9b9b9;fill-opacity:1;stroke-width:0.06426335"
         inkscape:connector-curvature="0" />
      <path
         d="m 1558.658,526.104 c 0.3667,-0.85734 0.4906,-3.26436 1.957,-2.976 0.5086,0.10002 1.9952,0.97283 2.1818,1.46686 0.5422,1.43525 0.4024,3.44979 0.3541,5.01014 -0.033,1.07192 -0.049,2.22754 -0.6136,2.49214 l -2.0942,0.98058 c -0.9939,0.46534 -1.986,0.49834 -1.56,-1.06066 0.113,-0.413 1.5829,-2.58706 1.7929,-2.51606 -0.436,-0.149 -1.5651,0.28277 -1.828,-0.478 -0.4643,-1.34373 0,-2.35464 -0.19,-2.919"
         id="path5474"
         style="fill:#b9b9b9;fill-opacity:1;stroke-width:0.06426335"
         inkscape:connector-curvature="0" />
    </g>
    <path
       class="circlexx ps"
       d="m 1534.2589,489.46103 c 7.7226,0 7.7226,-12.02611 0,-12.02611 -7.7282,0 -7.7282,12.02611 0,12.02611"
       id="ps."
       style="opacity:0;fill:#b9b9b9;fill-opacity:1;stroke:#000000;stroke-width:0.06426335;stroke-miterlimit:3.9744699;stroke-opacity:1;stroke-dasharray:none"
       inkscape:connector-curvature="0" />
  </g>
  <g
     id="bh"
     transform="matrix(32.231647,0,0,31.662782,-49042.236,-12948.006)"
     style="fill:#b9b9b9;fill-opacity:1"
     clip-path="url(#clipPath3522)">
    <path
       class="circlexx bh"
       d="m 1645.5894,537.46726 c 7.7226,0 7.7226,-12.02611 0,-12.02611 -7.7282,0 -7.7282,12.02611 0,12.02611"
       id="bh."
       style="opacity:0;fill:#b9b9b9;fill-opacity:1;stroke:#000000;stroke-width:0.06426335;stroke-miterlimit:3.9744699;stroke-opacity:1;stroke-dasharray:none"
       inkscape:connector-curvature="0" />
  </g>
  <path
     style="fill:#ff0101;fill-opacity:0.09803922;stroke:#a40000;stroke-width:0.64507699;stroke-linecap:round;stroke-miterlimit:0;stroke-opacity:1;stroke-dasharray:none;stroke-dashoffset:0"
     d="M 1815.2991,968.09602 C 1664.8277,1158.6195 1599.9499,1338.2121 1435.4254,1506.9397 1270.9008,1675.6672 676.05082,1359.7146 660.56412,1074.8201 645.07742,789.9257 1220.1579,584.03991 1542.0093,642.7006 c 368.713,-25.28753 273.2898,116.03837 273.2898,325.39542 z"
     id="path3609"
     inkscape:connector-curvature="0"
     sodipodi:nodetypes="czzcc" />
  <path
     sodipodi:type="arc"
     style="fill:#629e62;fill-opacity:0.58050847;stroke:#006400;stroke-width:0.03673709000000000;stroke-linecap:round;stroke-miterlimit:4;stroke-opacity:1;stroke-dasharray:none;stroke-dashoffset:0"
     id="path3611"
     sodipodi:cx="561.79633"
     sodipodi:cy="92.768616"
     sodipodi:rx="3.5961943"
     sodipodi:ry="3.8890872"
     d="m 565.39252,92.768616 a 3.5961943,3.8890872 0 1 1 -7.19239,0 3.5961943,3.8890872 0 1 1 7.19239,0 z"
     transform="matrix(17.679245,0,0,17.440135,-9433.1302,262.12245)" />
  <path
     style="fill:#dc0000;fill-opacity:0.29411765;stroke:none"
     d=""
     id="path3970"
     inkscape:connector-curvature="0" />
  <path
     style="fill:#00b4d2;fill-opacity:0.63135594;stroke:none"
     d="m 2133.1978,848.30021 c 0,110.51641 31.0452,142.03726 -123.0418,142.03726 -154.0869,0 -201.8103,-108.15191 -184.9544,-217.37184 21.6341,-140.18139 159.9783,-148.75051 200.6285,-115.35618 94.9936,78.03731 107.3677,80.17438 107.3677,190.69076 z"
     id="path3994"
     inkscape:connector-curvature="0"
     sodipodi:nodetypes="sssss" />
  <path
     style="fill:#3880a2;fill-opacity:0.78813559;stroke:none"
     d="m 2442.9076,680.71058 c 0,110.51635 137.538,265.63568 -112.07,463.77902 -169.897,134.8675 -220.6193,-361.62166 -203.7635,-470.84163 21.6342,-140.18137 -11.3676,-163.33777 40.7528,-170.28769 143.517,-19.1371 275.0807,66.83392 275.0807,177.3503 z"
     id="path3994-0"
     inkscape:connector-curvature="0"
     sodipodi:nodetypes="sssss" />
  <path
     style="opacity:0.47307691000000002;fill:#a400ff;fill-opacity:0.90677965;fill-rule:nonzero;stroke:none"
     d="m 2641.2472,1156.248 c -3.3913,-1.4117 -11.87,-5.4508 -18.8414,-8.976 -90.806,-45.9168 -180.7005,-151.11891 -248.0522,-290.2917 -52.3567,-108.18748 -83.8997,-219.77555 -86.2503,-305.12362 -1.0461,-37.98404 3.0632,-65.02852 12.9221,-85.04174 5.3407,-10.8418 10.9178,-17.2624 24.6237,-28.34778 22.3119,-18.04586 40.8428,-29.42694 56.8746,-34.93009 7.8272,-2.68693 10.5554,-3.05082 23.2748,-3.10479 21.9011,-0.0929 27.3921,1.64656 42.1374,13.34955 16.9665,13.46564 24.1591,18.39554 35.9995,24.67504 16.5969,8.80195 39.2242,15.50947 64.3632,19.07954 5.9513,0.845 13.6156,3.49806 28.6809,9.92755 11.3077,4.8258 27.7654,11.68029 36.5721,15.23206 l 16.0128,6.45786 1.9866,7.76846 c 41.816,163.51889 51.6609,387.59281 26.3295,599.28346 -2.7396,22.894 -7.5945,58.0908 -8.3817,60.7607 -0.7106,2.411 -0.74,2.4085 -8.2516,-0.7186 l 0,0 z"
     id="path5591"
     inkscape:connector-curvature="0" />
  <path
     style="opacity:0.47307691000000002;fill:#0021c0;fill-opacity:0.82203388;fill-rule:nonzero;stroke:none"
     d="m 2425.9711,1555.7648 c -41.3096,-6.9688 -105.6945,-16.0673 -160.1533,-22.6322 -115.8365,-13.9637 -139.8571,-17.2991 -165.027,-22.9146 -71.6778,-15.9916 -104.6437,-45.1564 -138.4534,-122.4902 -12.5667,-28.7442 -29.892,-77.188 -47.8264,-133.729 -5.0339,-15.8698 -10.5403,-28.9052 -10.2603,-31.7841 1.0116,-10.4016 -11.1226,-20.6373 -39.5601,-30.561 -56.8708,-15.0192 -58.5862,-15.9821 -134.2242,-29.8622 -1.4573,-1.4528 74.5734,-80.665 95.6295,-95.6427 36.2472,-25.7836 57.0519,-33.663 114.8504,-43.4978 14.3975,-2.4499 41.6344,-7.2071 60.5264,-10.5716 20.8716,-3.7172 37.5235,-6.1174 42.4401,-6.1174 14.3162,0 33.8885,5.1723 54.1633,14.3136 85.4247,38.5152 203.395,152.8532 283.515,274.7852 47.805,72.7532 75.8662,136.6232 84.3448,191.9768 2.5608,16.72 1.7541,45.2674 -1.6067,56.8509 -3.62,12.4769 -5.6834,16.9795 -7.7226,16.8516 -1.0005,-0.062 -14.7864,-2.3018 -30.6355,-4.9753 z"
     id="path5599"
     inkscape:connector-curvature="0"
     sodipodi:nodetypes="ssssssccsssssssscs" />
  <path
     style="fill:#f2003e;fill-opacity:0.75423729;stroke:none"
     d="m 1427.4502,922.60122 c -34.5257,-4.90066 -61.9903,-18.76953 -86.6418,-43.75181 -43.7329,-44.3196 -48.8326,-84.73306 -15.9125,-126.09971 32.6511,-41.02859 101.2976,-75.92835 193.6357,-98.44423 52.0482,-12.69152 58.04,-13.44578 106.0209,-13.34627 44.6813,0.0929 66.5116,1.76559 93.261,7.14712 59.9911,12.06906 90.2049,36.18114 103.0305,82.22341 3.2298,11.59431 3.4825,15.62026 3.3003,52.57729 -0.1702,34.51098 -2.4963,76.25659 -4.3527,78.11548 -0.3219,0.32233 -11.0551,1.58328 -23.8518,2.80226 -53.1326,5.06158 -90.1374,11.77681 -185.4939,33.66173 -66.6185,15.28937 -85.3621,19.18405 -109.5571,22.76432 -19.9412,2.95091 -60.1434,4.23753 -73.4386,2.35047 l 0,0 z"
     id="path3188"
     inkscape:connector-curvature="0" />
  <rect
     style="fill:#a7a7c0;fill-opacity:1;stroke:#000000;stroke-width:2.25776934999999979;stroke-linecap:round;stroke-miterlimit:4;stroke-opacity:1;stroke-dasharray:none;stroke-dashoffset:0"
     id="rect3933"
     width="341.89078"
     height="164.49463"
     x="1066.7659"
     y="1779.4523" />
  <rect
     style="fill:#c0a7a7;fill-opacity:1;stroke:#000000;stroke-width:2.25776934999999979;stroke-linecap:round;stroke-miterlimit:4;stroke-opacity:1;stroke-dasharray:none;stroke-dashoffset:0"
     id="rect3933-9"
     width="341.89078"
     height="164.49463"
     x="1066.7659"
     y="2061.6741" />
  <rect
     style="fill:#629e62;fill-opacity:0.67796612;stroke:#000000;stroke-width:2.25776934999999979;stroke-linecap:round;stroke-miterlimit:4;stroke-opacity:1;stroke-dasharray:none;stroke-dashoffset:0"
     id="rect3933-4"
     width="341.89078"
     height="164.49463"
     x="1066.7659"
     y="2344.7" />
  <rect
     style="fill:#6673c0;fill-opacity:1;stroke:#000000;stroke-width:2.25776935;stroke-linecap:round;stroke-miterlimit:4;stroke-opacity:1;stroke-dasharray:none;stroke-dashoffset:0"
     id="rect3933-47"
     width="202.10123"
     height="96.761551"
     x="2405.3005"
     y="1656.8881" />
  <rect
     style="fill:#5088a8;fill-opacity:1;stroke:#000000;stroke-width:2.25776935;stroke-linecap:round;stroke-miterlimit:4;stroke-opacity:1;stroke-dasharray:none;stroke-dashoffset:0"
     id="rect3933-47-1"
     width="202.10123"
     height="96.761551"
     x="2405.3005"
     y="1851.3788" />
  <rect
     style="fill:#9100ff;fill-opacity:0.48235294;stroke:#000000;stroke-width:2.25776934999999979;stroke-linecap:round;stroke-miterlimit:4;stroke-opacity:1;stroke-dasharray:none;stroke-dashoffset:0"
     id="rect3933-47-17"
     width="202.10123"
     height="96.761551"
     x="2405.3005"
     y="1949.108" />
  <rect
     style="fill:#3eafcb;fill-opacity:1;stroke:#000000;stroke-width:2.25776935;stroke-linecap:round;stroke-miterlimit:4;stroke-opacity:1;stroke-dasharray:none;stroke-dashoffset:0"
     id="rect3933-47-8"
     width="202.10123"
     height="96.761551"
     x="2405.3005"
     y="1754.1334" />
  <rect
     style="fill:#f2003d;fill-opacity:0.77647269;stroke:#000000;stroke-width:2.25776934999999979;stroke-linecap:round;stroke-miterlimit:4;stroke-opacity:1;stroke-dasharray:none;stroke-dashoffset:0"
     id="rect3933-47-17-4"
     width="202.10123"
     height="96.761551"
     x="2405.3005"
     y="2124.5691" />
  <text
     xml:space="preserve"
     style="font-size:64.50769806px;font-style:normal;font-variant:normal;font-weight:normal;font-stretch:normal;text-align:start;line-height:125%;letter-spacing:0px;word-spacing:0px;writing-mode:lr-tb;text-anchor:start;fill:#000000;fill-opacity:1;stroke:none;font-family:Ubuntu;-inkscape-font-specification:Sans"
     x="1501.0638"
     y="1879.4398"
     id="text4042"
     sodipodi:linespacing="125%"><tspan
       sodipodi:role="line"
       id="tspan4044"
       x="1501.0638"
       y="1879.4398">Eastern Syriac Dialects</tspan></text>
  <text
     xml:space="preserve"
     style="font-size:64.50769806px;font-style:normal;font-variant:normal;font-weight:normal;font-stretch:normal;text-align:start;line-height:125%;letter-spacing:0px;word-spacing:0px;writing-mode:lr-tb;text-anchor:start;fill:#000000;fill-opacity:1;stroke:none;font-family:Ubuntu;-inkscape-font-specification:Sans"
     x="1517.1908"
     y="2169.7244"
     id="text4046"
     sodipodi:linespacing="125%"><tspan
       sodipodi:role="line"
       id="tspan4048"
       x="1517.1908"
       y="2169.7244">Western Syriac Dialects</tspan></text>
  <text
     xml:space="preserve"
     style="font-size:64.50769806px;font-style:normal;font-variant:normal;font-weight:normal;font-stretch:normal;text-align:start;line-height:125%;letter-spacing:0px;word-spacing:0px;writing-mode:lr-tb;text-anchor:start;fill:#000000;fill-opacity:1;stroke:none;font-family:Ubuntu;-inkscape-font-specification:Sans"
     x="1523.6416"
     y="2450.333"
     id="text4050"
     sodipodi:linespacing="125%"><tspan
       sodipodi:role="line"
       id="tspan4052"
       x="1523.6416"
       y="2450.333">Western Aramaic Dialects</tspan></text>
  <text
     xml:space="preserve"
     style="font-size:64.50769806px;font-style:normal;font-variant:normal;font-weight:normal;font-stretch:normal;text-align:start;line-height:125%;letter-spacing:0px;word-spacing:0px;writing-mode:lr-tb;text-anchor:start;fill:#000000;fill-opacity:1;stroke:none;font-family:Ubuntu;-inkscape-font-specification:Sans"
     x="2656.5259"
     y="1721.396"
     id="text4054"
     sodipodi:linespacing="125%"><tspan
       sodipodi:role="line"
       id="tspan4056"
       x="2656.5259"
       y="1721.396">Nineveh Plains Dialect <tspan
   style="font-size:45.15538749px"
   id="tspan4074">(Chaldean)</tspan></tspan></text>
  <text
     xml:space="preserve"
     style="font-size:64.50769806px;font-style:normal;font-variant:normal;font-weight:normal;font-stretch:normal;text-align:start;line-height:125%;letter-spacing:0px;word-spacing:0px;writing-mode:lr-tb;text-anchor:start;fill:#000000;fill-opacity:1;stroke:none;font-family:Ubuntu;-inkscape-font-specification:Sans"
     x="2661.5574"
     y="1821.3829"
     id="text4058"
     sodipodi:linespacing="125%"><tspan
       sodipodi:role="line"
       id="tspan4060"
       x="2661.5574"
       y="1821.3829">Ashiret <tspan
   style="font-size:45.15538749px"
   id="tspan4078">(Nochiya, Tiari)</tspan></tspan></text>
  <text
     xml:space="preserve"
     style="font-size:64.50769806px;font-style:normal;font-variant:normal;font-weight:normal;font-stretch:normal;text-align:start;line-height:125%;letter-spacing:0px;word-spacing:0px;writing-mode:lr-tb;text-anchor:start;fill:#000000;fill-opacity:1;stroke:none;font-family:Ubuntu;-inkscape-font-specification:Sans"
     x="2656.5259"
     y="1927.8206"
     id="text4062"
     sodipodi:linespacing="125%"><tspan
       sodipodi:role="line"
       id="tspan4064"
       x="2656.5259"
       y="1927.8206">Northern Assyrian Group <tspan
   style="font-size:45.15538749px"
   id="tspan4076">(Jilu, Baz)</tspan></tspan></text>
  <text
     xml:space="preserve"
     style="font-size:64.50769806px;font-style:normal;font-variant:normal;font-weight:normal;font-stretch:normal;text-align:start;line-height:125%;letter-spacing:0px;word-spacing:0px;writing-mode:lr-tb;text-anchor:start;fill:#000000;fill-opacity:1;stroke:none;font-family:Ubuntu;-inkscape-font-specification:Sans"
     x="2656.8484"
     y="2027.8075"
     id="text4066"
     sodipodi:linespacing="125%"><tspan
       sodipodi:role="line"
       id="tspan4068"
       x="2656.8484"
       y="2027.8075">Urmian</tspan></text>
  <text
     xml:space="preserve"
     style="font-size:64.50769806px;font-style:normal;font-variant:normal;font-weight:normal;font-stretch:normal;text-align:start;line-height:125%;letter-spacing:0px;word-spacing:0px;writing-mode:lr-tb;text-anchor:start;fill:#000000;fill-opacity:1;stroke:none;font-family:Ubuntu;-inkscape-font-specification:Sans"
     x="2661.0413"
     y="2198.5908"
     id="text4070"
     sodipodi:linespacing="125%"><tspan
       sodipodi:role="line"
       id="tspan4072"
       x="2661.0413"
       y="2198.5908">Turoyo</tspan></text>
</svg>
