<?xml version="1.0" encoding="UTF-8" standalone="no"?>
<!-- Created with Inkscape (http://www.inkscape.org/) -->

<svg
   xmlns:dc="http://purl.org/dc/elements/1.1/"
   xmlns:cc="http://creativecommons.org/ns#"
   xmlns:rdf="http://www.w3.org/1999/02/22-rdf-syntax-ns#"
   xmlns:svg="http://www.w3.org/2000/svg"
   xmlns="http://www.w3.org/2000/svg"
   xmlns:sodipodi="http://sodipodi.sourceforge.net/DTD/sodipodi-0.dtd"
   xmlns:inkscape="http://www.inkscape.org/namespaces/inkscape"
   width="400"
   height="400"
   id="svg4048"
   version="1.1"
   inkscape:version="0.92.1 r15371"
   sodipodi:docname="Tawellemmet-fr.svg">
  <title
     id="title3257">Tawellemmet </title>
  <defs
     id="defs4050" />
  <sodipodi:namedview
     id="base"
     pagecolor="#ffffff"
     bordercolor="#666666"
     borderopacity="1.0"
     inkscape:pageopacity="0.0"
     inkscape:pageshadow="2"
     inkscape:zoom="1.2648373"
     inkscape:cx="225.09809"
     inkscape:cy="165.48537"
     inkscape:document-units="px"
     inkscape:current-layer="layer1"
     showgrid="false"
     inkscape:window-width="1920"
     inkscape:window-height="1053"
     inkscape:window-x="-9"
     inkscape:window-y="-9"
     inkscape:window-maximized="1" />
  <metadata
     id="metadata4053">
    <rdf:RDF>
      <cc:Work
         rdf:about="">
        <dc:format>image/svg+xml</dc:format>
        <dc:type
           rdf:resource="http://purl.org/dc/dcmitype/StillImage" />
        <dc:title>Tawellemmet </dc:title>
        <dc:date>9 février 2019</dc:date>
        <dc:creator>
          <cc:Agent>
            <dc:title>SyntaxTerror</dc:title>
          </cc:Agent>
        </dc:creator>
        <dc:rights>
          <cc:Agent>
            <dc:title>Domaine public</dc:title>
          </cc:Agent>
        </dc:rights>
        <dc:source>données : Ethnologue.com, fond de carte : Africa map political-fr.svg (Wikimedia commons)</dc:source>
        <dc:language>fr</dc:language>
        <dc:description>Lambert azimutal equal-area projection
Standard meridian : 15°E
Standard parallel : 0°</dc:description>
        <cc:license
           rdf:resource="http://creativecommons.org/publicdomain/zero/1.0/" />
      </cc:Work>
      <cc:License
         rdf:about="http://creativecommons.org/publicdomain/zero/1.0/">
        <cc:permits
           rdf:resource="http://creativecommons.org/ns#Reproduction" />
        <cc:permits
           rdf:resource="http://creativecommons.org/ns#Distribution" />
        <cc:permits
           rdf:resource="http://creativecommons.org/ns#DerivativeWorks" />
      </cc:License>
    </rdf:RDF>
  </metadata>
  <g
     inkscape:label="fond"
     inkscape:groupmode="layer"
     id="layer1"
     transform="translate(0,-722.51967)"
     style="display:inline">
    <rect
       style="opacity:1;vector-effect:none;fill:#ffffff;fill-opacity:1;fill-rule:evenodd;stroke:none;stroke-width:2.11773992;stroke-linecap:round;stroke-linejoin:miter;stroke-miterlimit:4;stroke-dasharray:none;stroke-dashoffset:0;stroke-opacity:1"
       id="rect5617"
       width="397.88226"
       height="397.88226"
       x="1.0588684"
       y="723.57855" />
  </g>
  <g
     inkscape:groupmode="layer"
     id="layer22"
     inkscape:label="Tawellemmet"
     style="display:inline"
     transform="translate(0,-37.33334)">
    <path
       style="display:inline;opacity:1;fill:#d40000;fill-opacity:1;stroke:#000000;stroke-width:2.20420408px;stroke-linecap:butt;stroke-linejoin:miter;stroke-opacity:1"
       d="m 207.93189,223.76831 -6.42375,-5.04017 -5.23783,-4.64487 -9.98152,-2.66832 -4.84252,0.29648 -8.59795,1.77888 -6.81905,4.24956 c 0,0 -6.91789,3.6566 -7.11554,4.05191 -0.19766,0.3953 -3.16247,4.64486 -3.16247,4.64486 l -1.68005,4.24956 -5.43549,6.42375 -6.52258,3.95308 -6.52257,0.39531 -7.60968,0.98827 c 0,0 -3.95308,1.18592 -4.24956,1.58123 -0.29648,0.39531 -2.07536,4.54604 -2.07536,4.54604 l 2.27302,1.97654 2.27302,-0.0988 4.15073,-1.97654 10.87096,-1.68006 14.03343,-1.77888 7.80733,-0.29648 7.51084,0.69179 3.75543,1.4824 2.96481,-0.39531 4.24956,-3.6566 h 5.33665 l 6.32492,0.79062 6.42376,-1.68006 6.52257,-3.85425 3.95308,-5.33665 -0.0988,-6.52258 z m 98.97626,-29.71827 10.09553,3.61314 h 7.22626 l 14.13372,3.18806 13.49614,0.63761 3.82567,1.27522 6.1636,2.65671 5.73849,5.84479 3.50688,7.12001 2.65672,7.7576 -0.10631,24.12299 -1.91285,4.25077 -8.28894,9.67043 -10.62689,6.1636 -4.88835,1.38148 -1.27522,1.38151 -3.18808,2.12537 -15.62148,4.03821 -6.37614,5.84477 -10.41433,10.20179 -0.95641,5.63226 -3.40059,4.14448 -4.25077,13.9212 -3.71939,6.80117 -12.64598,-0.3188 -13.28358,-2.76298 -14.87763,-0.31881 -10.30804,-1.70028 -10.09555,-1.80658 -6.16356,-2.33791 -25.07944,0.3188 -13.60238,3.29433 -26.67344,0.85014 -10.20179,4.25075 -8.28898,0.63763 -40.91344,11.37075 c -2.21957,-1.17321 -6.29957,-0.38264 -5.50093,-4.74173 -5.213593,-5.11489 -7.11619,-9.92878 -8.268925,-14.6745 1.311448,-2.09058 1.954434,-4.30763 -0.15119,-7.04469 l -5.63224,-6.58866 c -2.171998,-3.42679 -1.670326,-6.12946 0.62607,-8.34606 0.394054,-3.56988 0.02096,-7.61923 1.34944,-10.60509 l -15.471644,-5.91573 c -3.613435,-1.42984 -5.979625,-0.51193 -8.0221,1.01533 -2.128034,-0.81175 -4.216735,-2.19154 -6.430454,-2.42596 l 3.613163,-20.69323 3.931931,-2.12538 6.482382,-3.71941 6.588672,-0.21253 7.76712,-3.40112 c 3.8495,3.32444 6.763584,4.89971 8.28242,6.89365 2.387842,3.13477 8.528395,8.21298 10.839925,10.7348 1.42941,6.29884 -3.15995,12.98318 -5.92632,16.65487 3.49003,1.44374 7.64817,2.03731 11.6917,1.72958 2.15695,-2.15722 0.36745,-8.79627 3.46459,-18.29317 -3.59826,-10.4696 -9.92781,-7.31912 -12.30618,-10.12412 -0.0825,-3.98944 -0.96465,-8.65232 -4.143783,-13.6821 l 7.854023,-6.55897 10.62685,-12.64598 13.2836,-18.17194 17.53433,-31.45555 5.31344,-9.03282 7.01374,-6.69493 7.54506,-2.01912 87.67171,0.31882 1.27522,-27.09853 7.86388,9.2454 9.77671,16.15283 6.4824,12.22091 6.6949,6.8012 7.2263,10.20179 5.52596,4.25074 5.31343,6.05733 z m -2.01911,10.5206 -6.90748,1.38148 -15.62149,10.09553 -6.8012,5.20718 -6.80118,7.65136 -2.57248,2.71162 -1.14693,4.51464 0.53135,4.56956 1.91284,2.23162 3.61313,0.31882 9.24539,-1.27522 7.97012,-1.80656 5.63226,-2.55045 14.13372,-4.99462 9.03287,-5.31345 c 0,0 3.93193,-4.0382 4.14447,-4.67582 0.21252,-0.63763 1.91282,-4.46327 1.91282,-4.46327 v -3.61316 l -2.23164,-4.46329 -8.39521,-3.82567 -7.01374,-1.59403 z"
       id="path5478"
       inkscape:connector-curvature="0"
       sodipodi:nodetypes="ccccccccccccccsccccccccccccccccccccccccccccccccccccccccccccccccccccccccccccccccccccsccccccccccccccccccccccccccccccccccccccccccccc" />
  </g>
  <g
     inkscape:groupmode="layer"
     id="layer3"
     inkscape:label="Lakes"
     transform="translate(0,-37.33334)">
    <path
       inkscape:connector-curvature="0"
       id="path2892"
       d="m 246.35719,441.60086 c -1.10956,-0.96383 -8.7312,-10.37206 -4.87518,-6.39951 4.40338,2.80309 5.5413,8.98526 12.07531,7.7012"
       style="display:inline;fill:#c8ebff;stroke:#0978ab;stroke-width:0.6612612;stroke-linecap:round;stroke-miterlimit:4;stroke-dasharray:none"
       sodipodi:nodetypes="ccc" />
    <path
       inkscape:connector-curvature="0"
       id="path2898"
       d="m 280.68452,233.36104 c -5.13205,-1.02237 -9.93123,1.57744 -14.49931,-1.74323 -2.55841,1.73838 -4.5652,-1.74074 -3.48714,-4.55781 -5.68033,0.3179 -9.18644,8.50408 -11.94448,13.12874 3.48773,0.36583 10.16057,-6.31437 11.90147,-1.9292 -3.85037,-1.10052 -6.90753,1.28569 -4.10467,3.45816 -2.77429,2.32071 -2.74512,-3.59752 -5.7961,0.15055 -4.41801,2.05132 -11.84877,0.76554 -13.13998,6.91807 -1.36514,3.36959 3.53941,5.71589 -0.83822,6.85874 -2.05024,3.98788 7.5894,1.9871 2.22718,4.13207 -3.23009,0.01 -6.71986,-4.90748 -5.77021,-2.72157 -5.01481,0.17942 -9.33795,5.14233 -12.05907,8.62444 0.22328,5.58203 -4.26155,10.34924 -2.29236,16.39884 1.67556,5.94065 -1.76386,11.21311 -5.83255,15.03738 2.22459,4.55656 3.44691,10.65112 2.66434,16.34847 -1.551,4.03818 0.14625,6.77201 4.3396,5.29231 -2.89653,2.98872 -14.68641,5.00254 -11.04377,9.95375 -4.60808,-1.50813 -10.4314,2.9532 -12.63923,6.63906 2.15839,7.29643 -2.38808,13.4196 -3.33307,20.46805 -0.16911,4.74949 -2.54999,8.5568 -0.47583,13.23598 -0.83982,3.47245 -3.86943,7.85197 -2.41952,1.42041 -3.3207,-7.5933 1.0171,-14.26667 1.40884,-21.70376 0.86704,-5.63584 0.15564,-10.58838 3.42534,-14.67551 3.17874,-5.64713 12.48562,-5.8172 11.80465,-13.5861 2.66307,-5.26715 4.64691,-10.30468 2.54904,-16.01376 -0.67575,-3.26314 -0.19858,-8.49009 0.97241,-12.39246 -3.54998,-1.45405 -7.74107,-12.2164 -6.95982,-9.83472 2.88342,1.62474 5.02871,11.64589 8.40916,6.4827 3.44509,-6.26794 1.38055,-12.95414 -0.0435,-19.50336 0.64839,-5.32611 -0.29466,-10.7863 0.79898,-16.08642 2.21233,-5.11243 3.30201,-10.58928 2.79956,-16.15347 2.76519,-4.98933 -1.08738,-11.62069 4.43212,-13.7235 1.56153,-3.98589 6.23261,-4.2143 6.18545,-8.96772 3.03684,-2.80714 4.44042,-1.42888 0.5163,0.85625 -3.14089,6.18907 8.43655,1.83354 8.02382,1.66103 3.27396,-3.2057 0.17724,5.28753 -1.9044,2.2452 -5.43092,-0.18221 -5.46001,-0.0493 -5.55827,2.6132 -2.25503,-1.33251 -5.66646,0.82482 -6.3717,4.05648 -4.38441,0.51176 -1.6634,7.85371 -4.46244,11.2062 -0.28226,5.42797 1.43346,9.93088 -0.0325,15.36874 -1.66226,3.93532 2.35554,5.12115 -0.8867,8.28145 -1.76408,2.23267 2.15766,12.9805 3.30635,7.60141 -4.06398,-4.42948 2.11149,0.64164 1.49378,-1.34142 -0.86755,-5.47985 6.40452,-7.71705 9.38854,-11.54006 5.85984,2.13683 8.75526,-7.75047 4.96041,-10.33339 1.45565,-3.77444 0.72154,3.06201 3.00712,-0.42946 3.63747,-4.90292 1.70132,-15.86903 10.29432,-18.02481 2.68243,-1.86073 6.78355,-5.26608 2.94055,-0.19252 -6.82176,1.64323 -7.79906,9.4208 -9.29479,15.11813 6.83847,0.73982 9.64537,-8.45895 13.74245,-12.99568 4.41982,-2.27173 6.69604,-8.63087 12.08649,-7.64278 -1.92918,3.14363 -6.04585,4.01411 -5.07167,8.37141 1.97205,-3.04252 3.26228,-1.68929 3.33916,1.40875 0.7906,0.73871 6.30481,2.98104 9.3352,1.08418 2.36527,0.96567 3.78168,-0.63234 3.90826,1.6729 z"
       style="display:inline;fill:#c8ebff;stroke:#0978ab;stroke-width:0.6612612;stroke-linecap:round;stroke-miterlimit:4;stroke-dasharray:none" />
  </g>
  <g
     inkscape:groupmode="layer"
     id="layer5"
     inkscape:label="Boundaries"
     transform="translate(0,-37.33334)">
    <path
       id="polyline7840"
       d="m 140.99031,29.497903 c 4.03077,5.29032 -5.92266,16.94197 4.74386,15.70982 5.45715,4.77386 15.00537,5.19287 14.54065,14.49153 5.48322,4.72736 11.8755,8.50999 18.83489,5.32006 7.32467,0.48447 8.08655,12.87278 17.29352,11.14557 8.09178,1.21185 17.00038,2.70653 22.76857,9.08857 -3.22838,7.6486 4.32744,16.486147 -3.45539,22.120507 -5.69076,8.23887 8.46025,13.91978 14.90902,9.98064 30.00057,-4.93873 59.8508,-10.73205 89.78588,-16.04352 11.54312,-9.481024 49.35214,-36.286769 86.64879,-62.751242"
       style="display:inline;fill:none;stroke:#646464;stroke-width:2.20420408;stroke-linecap:round;stroke-miterlimit:4;stroke-dasharray:none"
       inkscape:connector-curvature="0"
       sodipodi:nodetypes="cccccccccc" />
    <path
       id="polyline7842"
       style="display:inline;fill:none;stroke:#646464;stroke-width:2.20420408;stroke-linecap:round;stroke-miterlimit:4;stroke-dasharray:none"
       d="m 100.26584,281.95109 c -1.524635,1.27648 -3.624715,1.49646 -5.510115,1.13143 -8.87971,-4.28165 -5.66484,7.89216 -7.09144,12.82209 -8.17545,9.44633 11.41151,13.06322 5.1575,21.97941 0.94417,5.51295 4.34758,10.71864 8.268935,14.6745 -1.107475,5.21294 5.14631,3.30743 7.56974,5.6474 8.06063,-10e-4 8.41766,9.80211 15.578,10.5319 6.49289,1.92802 0.66978,3.12357 -2.73157,3.25649 -6.79913,-5.75673 -5.29965,6.06157 -5.6472,10.08158 3.22884,4.15186 9.35085,5.00377 12.8793,10.00644 5.78288,6.01459 13.34818,12.50667 22.08624,9.54685 4.09083,-7.28512 14.1865,-3.43747 14.65445,4.1481 5.42042,7.20641 -9.51732,2.81959 -6.10334,9.22304 4.02568,5.12476 7.1277,10.90639 11.15563,16.02343 0.88013,2.46652 4.87305,-3.71936 1.75025,-5.75669 -5.19068,-7.85314 4.63534,-9.35288 10.33206,-9.78402 4.77643,-5.59252 10.94583,-2.59457 14.44067,2.83591 7.42632,5.4812 9.68783,15.49315 19.24838,17.36341 -0.32148,6.12193 10.66605,5.66261 5.30115,0.20065 0.74308,-7.3777 1.35678,-15.08008 1.81884,-22.94709 -2.14038,-8.40684 7.16818,-10.46999 11.76028,-15.18343 4.94801,-5.84841 8.92632,-13.02157 8.9893,-20.86743 -3.13429,-8.5759 5.32145,-9.87174 9.86998,-14.52858 3.79361,-5.45628 11.08258,-4.38833 16.71955,-6.41575 7.45432,-0.66701 18.90974,4.44807 24.53271,-3.58097 7.60713,-3.88468 14.18582,3.21484 21.29744,5.0514 6.32709,4.82343 14.21385,0.4426 19.96395,5.28456 5.06064,4.97907 10.72489,9.79417 13.40013,16.56987 2.08738,5.59583 7.98118,11.66819 14.38282,8.61869 2.7074,-4.71591 7.86799,-4.45891 12.32458,-4.25016 7.36571,-2.98406 15.17824,-11.05078 23.67251,-9.01873"
       sodipodi:nodetypes="ccccccccccccccccccccccccccccccc"
       inkscape:connector-curvature="0" />
    <path
       id="polyline7856"
       d="m 100.45759,281.9544 c 8.73218,3.78044 20.13824,2.39269 26.1167,-5.58566 4.07311,-5.79089 10.76697,-6.76603 17.29238,-6.04766 19.0451,-0.77679 38.13637,-2.00759 57.20321,-1.04041 2.81433,-7.21062 11.22676,-0.64978 17.06894,-1.11728 6.35578,3.25425 3.54813,-7.19321 9.6239,-8.2087 4.31961,-4.16507 12.68358,-4.28409 11.5042,-12.71427 4.19359,-7.59195 4.55943,-17.1926 12.24624,-22.76922 -0.0858,-8.63012 0.14689,-17.36406 2.87888,-25.6036 1.23196,-28.72804 2.2356,-57.49754 3.69129,-86.22734"
       style="display:inline;fill:none;stroke:#646464;stroke-width:2.20420408;stroke-linecap:round;stroke-miterlimit:4;stroke-dasharray:none"
       inkscape:connector-curvature="0" />
    <path
       id="polyline7864"
       d="m 171.25337,412.32205 c -2.02597,8.83688 -9.98742,13.2444 -16.00777,19.04718 -6.12922,-0.79307 -12.36324,1.52929 -18.19014,0.58609 -4.06123,-5.72495 -11.26774,8.41654 -10.60013,5.03333 -2.68249,-1.56038 -1.69237,4.01518 -5.41689,0.96014 M -5.1508022,315.09508 c 6.283242,-2.82996 -0.173572,-16.23482 10.106034,-13.4033 8.0087922,1.07541 13.5388472,-6.20418 20.2789342,-9.14855 9.806728,-1.38557 17.455393,-7.22957 24.480447,-13.98018 5.133464,-2.22778 11.654583,-0.5907 15.805435,1.83589 5.115783,-4.0059 9.146667,-0.13002 14.213757,1.43229"
       style="display:inline;fill:none;stroke:#646464;stroke-width:2.20420408;stroke-linecap:round;stroke-miterlimit:4;stroke-dasharray:none"
       inkscape:connector-curvature="0"
       sodipodi:nodetypes="ccccccccccc" />
    <path
       id="polyline7870"
       d="m 218.07117,437.45851 c -5.2476,-4.87129 -1.17571,-11.57399 2.06107,-16.1486"
       style="display:inline;fill:none;stroke:#646464;stroke-width:2.20420408;stroke-linecap:round;stroke-miterlimit:4;stroke-dasharray:none"
       sodipodi:nodetypes="cc"
       inkscape:connector-curvature="0" />
    <path
       id="polyline7874"
       d="m 79.733695,281.83363 c 3.09339,1.15543 6.18674,2.31065 9.28013,3.46589"
       style="display:inline;fill:none;stroke:#646464;stroke-width:2.20420408;stroke-linecap:round;stroke-miterlimit:4;stroke-dasharray:none"
       inkscape:connector-curvature="0" />
    <path
       id="polyline5098"
       d="m 110.11991,406.00828 v 0 0"
       style="display:inline;fill:none;stroke:#0978ab;stroke-width:0.6612612;stroke-linecap:round;stroke-miterlimit:4;stroke-dasharray:none"
       inkscape:connector-curvature="0" />
  </g>
  <g
     inkscape:groupmode="layer"
     id="layer6"
     inkscape:label="Rivers"
     transform="translate(0,-37.33334)">
    <path
       id="polyline5096"
       d="m 70.798081,490.37193 v 0 0"
       style="display:inline;fill:none;stroke:#0978ab;stroke-width:0.6612612;stroke-linecap:round;stroke-miterlimit:4;stroke-dasharray:none"
       inkscape:connector-curvature="0" />
    <path
       id="polyline5164"
       d="m 140.33644,329.0231 c 0.34452,1.48717 1.19035,4.85806 3.15256,4.66144"
       style="display:inline;fill:none;stroke:#0978ab;stroke-width:0.6612612;stroke-linecap:round;stroke-miterlimit:4;stroke-dasharray:none"
       sodipodi:nodetypes="cc"
       inkscape:connector-curvature="0" />
    <path
       id="polyline5166"
       d="m 138.62717,321.52967 c 1.64813,2.44734 0.75144,5.73557 2.44748,8.16129"
       style="display:inline;fill:none;stroke:#0978ab;stroke-width:0.6612612;stroke-linecap:round;stroke-miterlimit:4;stroke-dasharray:none"
       inkscape:connector-curvature="0" />
    <path
       id="polyline5168"
       d="m 132.41136,312.56496 c 1.30771,2.23177 2.99563,2.94923 4.12895,3.80115"
       style="display:inline;fill:none;stroke:#0978ab;stroke-width:0.6612612;stroke-linecap:round;stroke-miterlimit:4;stroke-dasharray:none"
       sodipodi:nodetypes="cc"
       inkscape:connector-curvature="0" />
    <path
       id="polyline5170"
       d="m 129.60894,311.32621 c 1.67893,1.16093 4.86112,-0.42476 5.86285,3.61136"
       style="display:inline;fill:none;stroke:#0978ab;stroke-width:0.6612612;stroke-linecap:round;stroke-miterlimit:4;stroke-dasharray:none"
       sodipodi:nodetypes="cc"
       inkscape:connector-curvature="0" />
    <path
       id="polyline5172"
       d="m 122.66767,304.20022 c -0.58598,-5.68398 -6.76204,-7.53992 -7.64735,-12.19894"
       style="display:inline;fill:none;stroke:#0978ab;stroke-width:0.6612612;stroke-linecap:round;stroke-miterlimit:4;stroke-dasharray:none"
       sodipodi:nodetypes="cc"
       inkscape:connector-curvature="0" />
    <path
       id="polyline5176"
       d="m 106.22052,279.6853 c 1.38704,-4.09322 5.10652,-8.68569 4.0494,-12.74539"
       style="display:inline;fill:none;stroke:#0978ab;stroke-width:0.6612612;stroke-linecap:round;stroke-miterlimit:4;stroke-dasharray:none"
       sodipodi:nodetypes="cc"
       inkscape:connector-curvature="0" />
    <path
       id="polyline5178"
       d="m 109.36986,264.61184 c -0.6261,-3.60695 -4.45331,-4.84175 -5.80053,-4.32508"
       style="display:inline;fill:none;stroke:#0978ab;stroke-width:0.6612612;stroke-linecap:round;stroke-miterlimit:4;stroke-dasharray:none"
       sodipodi:nodetypes="cc"
       inkscape:connector-curvature="0" />
    <path
       id="polyline5180"
       d="m 103.77017,260.44501 c -7.064675,-2.18193 -1.65516,-8.17386 -6.296745,-9.59048"
       style="display:inline;fill:none;stroke:#0978ab;stroke-width:0.6612612;stroke-linecap:round;stroke-miterlimit:4;stroke-dasharray:none"
       sodipodi:nodetypes="cc"
       inkscape:connector-curvature="0" />
    <path
       id="polyline5198"
       d="m 181.56203,384.7081 c 3.49114,1.63995 5.19512,5.77505 8.56751,7.10484"
       style="display:inline;fill:none;stroke:#0978ab;stroke-width:0.6612612;stroke-linecap:round;stroke-miterlimit:4;stroke-dasharray:none"
       inkscape:connector-curvature="0" />
    <path
       id="polyline5200"
       d="m 192.13065,374.21764 c -0.69823,5.76335 0.22872,11.94856 -2.63392,17.25783"
       style="display:inline;fill:none;stroke:#0978ab;stroke-width:0.6612612;stroke-linecap:round;stroke-miterlimit:4;stroke-dasharray:none"
       inkscape:connector-curvature="0" />
    <path
       id="polyline5204"
       d="m 200.60808,401.55815 c 2.41474,0.12334 4.25912,2.85753 4.38707,5.59361"
       style="display:inline;fill:none;stroke:#0978ab;stroke-width:0.6612612;stroke-linecap:round;stroke-miterlimit:4;stroke-dasharray:none"
       sodipodi:nodetypes="cc"
       inkscape:connector-curvature="0" />
    <path
       id="polyline5206"
       d="m 204.71105,406.42351 c -0.0178,1.15388 1.44658,2.37833 2.0229,3.16919"
       style="display:inline;fill:none;stroke:#0978ab;stroke-width:0.6612612;stroke-linecap:round;stroke-miterlimit:4;stroke-dasharray:none"
       sodipodi:nodetypes="cc"
       inkscape:connector-curvature="0" />
    <path
       id="polyline5208"
       d="m 218.21312,418.68063 c 1.01747,5.27951 7.47693,8.6332 11.26896,8.75619"
       style="display:inline;fill:none;stroke:#0978ab;stroke-width:0.6612612;stroke-linecap:round;stroke-miterlimit:4;stroke-dasharray:none"
       sodipodi:nodetypes="cc"
       inkscape:connector-curvature="0" />
    <path
       id="polyline5210"
       d="m 335.70865,352.92063 c 2.66615,-6.49182 -4.28329,-14.39038 -10.73819,-9.51664 -8.24807,2.90073 -17.12889,4.2292 -24.28915,9.60681 -5.19469,2.76888 -11.23948,9.79942 -16.06295,13.01229"
       style="display:inline;fill:none;stroke:#0978ab;stroke-width:0.6612612;stroke-linecap:round;stroke-miterlimit:4;stroke-dasharray:none"
       sodipodi:nodetypes="cccc"
       inkscape:connector-curvature="0" />
    <path
       id="polyline5212"
       d="m 399.40236,398.20204 c -6.85655,5.27686 -12.78352,-6.43518 -20.26584,-3.11234 -4.5018,0.60967 -9.21759,1.40186 -13.63571,-0.11029"
       style="display:inline;fill:none;stroke:#0978ab;stroke-width:0.6612612;stroke-linecap:round;stroke-miterlimit:4;stroke-dasharray:none"
       inkscape:connector-curvature="0" />
    <path
       id="polyline5214"
       d="m 365.47684,394.97949 c -9.86208,-4.54771 -13.3146,-15.23657 -18.50053,-23.55985 -6.20246,-4.47696 -7.65825,-12.22651 -11.31339,-18.31739"
       style="display:inline;fill:none;stroke:#0978ab;stroke-width:0.6612612;stroke-linecap:round;stroke-miterlimit:4;stroke-dasharray:none"
       sodipodi:nodetypes="ccc"
       inkscape:connector-curvature="0" />
    <path
       id="polyline5230"
       d="m 354.67217,430.84804 c -1.58015,7.20489 -7.1228,14.02029 -11.83806,19.02449"
       style="display:inline;fill:none;stroke:#0978ab;stroke-width:0.6612612;stroke-linecap:round;stroke-miterlimit:4;stroke-dasharray:none"
       inkscape:connector-curvature="0"
       sodipodi:nodetypes="cc" />
    <path
       id="polyline6448"
       d="m 62.208372,199.50319 c 2.212251,-0.0242 4.417866,0.20271 6.630229,0.17427"
       style="display:inline;fill:none;stroke:#0978ab;stroke-width:0.6612612;stroke-linecap:round;stroke-miterlimit:4;stroke-dasharray:none"
       inkscape:connector-curvature="0" />
    <path
       id="polyline6450"
       d="m 68.803525,199.67601 c 3.460749,7.21038 6.19703,15.27292 10.15394,21.70721 l -0.40018,0.9487"
       style="display:inline;fill:none;stroke:#0978ab;stroke-width:0.6612612;stroke-linecap:round;stroke-miterlimit:4;stroke-dasharray:none"
       inkscape:connector-curvature="0" />
    <path
       id="polyline6452"
       d="m 78.493235,222.22061 c -3.52008,-6.95229 -7.359086,-13.77872 -9.160153,-21.42797 l -0.447708,-1.11509"
       style="display:inline;fill:none;stroke:#0978ab;stroke-width:0.6612612;stroke-linecap:round;stroke-miterlimit:4;stroke-dasharray:none"
       inkscape:connector-curvature="0" />
    <path
       id="polyline6454"
       d="m 62.149902,199.50208 c -6.715611,1.05472 -13.113869,-4.04559 -19.679007,-3.04466 l -1.222,-0.69631 -4.879357,-0.38022"
       style="display:inline;fill:none;stroke:#0978ab;stroke-width:0.6612612;stroke-linecap:round;stroke-miterlimit:4;stroke-dasharray:none"
       sodipodi:nodetypes="cccc"
       inkscape:connector-curvature="0" />
    <path
       id="polyline6456"
       d="m 36.234678,195.38486 c -8.520369,1.85727 -17.818404,-1.10872 -25.412718,4.61075 -5.1892344,1.85964 -10.55829631,2.96006 -15.960479,3.92961"
       style="display:inline;fill:none;stroke:#0978ab;stroke-width:0.6612612;stroke-linecap:round;stroke-miterlimit:4;stroke-dasharray:none"
       sodipodi:nodetypes="ccc"
       inkscape:connector-curvature="0" />
    <path
       id="polyline6476"
       d="m 5.9964888,201.37521 c 0.367908,-1.41288 2.148975,-1.33 3.222057,-0.9791"
       style="display:inline;fill:none;stroke:#0978ab;stroke-width:0.6612612;stroke-linecap:round;stroke-miterlimit:4;stroke-dasharray:none"
       inkscape:connector-curvature="0" />
    <path
       id="polyline6818"
       d="m 78.559425,222.29533 c 2.53445,8.41939 7.52674,15.79927 12.63908,22.77867 7.89154,3.96603 8.61328,13.56576 15.575285,17.83774 8.61794,3.83046 -1.70819,11.05432 -0.59471,16.89499"
       style="display:inline;fill:none;stroke:#0978ab;stroke-width:0.6612612;stroke-linecap:round;stroke-miterlimit:4;stroke-dasharray:none"
       inkscape:connector-curvature="0" />
    <path
       id="polyline6820"
       d="m 106.22176,279.66083 c 0.49465,6.11292 11.8681,6.06466 8.2561,13.62089 2.86412,7.21522 9.9293,11.92736 14.65586,17.83265 8.1518,2.256 9.78157,9.44281 10.70994,16.65188 2.99554,7.64574 10.65808,11.73143 17.71167,14.81093 4.9835,5.47854 14.07466,9.9996 14.29166,17.91709 -2.41922,7.67394 3.09234,13.33501 4.41901,20.30226 0.2902,3.00543 1.82021,6.81474 5.27521,3.82586"
       style="display:inline;fill:none;stroke:#0978ab;stroke-width:0.6612612;stroke-linecap:round;stroke-miterlimit:4;stroke-dasharray:none"
       inkscape:connector-curvature="0" />
    <path
       id="polyline6822"
       d="m 95.876125,248.96575 c -8.35039,-4.03898 -12.82962,-13.05154 -15.20358,-20.96925"
       style="display:inline;fill:none;stroke:#0978ab;stroke-width:0.6612612;stroke-linecap:round;stroke-miterlimit:4;stroke-dasharray:none"
       sodipodi:nodetypes="cc"
       inkscape:connector-curvature="0" />
    <path
       id="polyline6824"
       d="m 144.07816,443.16448 c 4.73255,-3.26442 8.62837,-13.8177 -0.79425,-11.35407 -5.68743,1.07102 -13.07228,-4.53272 -16.12587,2.9642 -2.67222,5.24293 -10.97034,2.75812 -10.45286,10.59232"
       style="display:inline;fill:none;stroke:#0978ab;stroke-width:0.6612612;stroke-linecap:round;stroke-miterlimit:4;stroke-dasharray:none"
       inkscape:connector-curvature="0"
       sodipodi:nodetypes="cccc" />
    <path
       id="polyline6836"
       d="m 190.10567,391.81248 c 5.51414,5.56078 12.31351,10.28637 15.92781,17.3462 6.00344,4.67313 12.35453,8.67775 17.22709,14.63856 5.36889,4.02686 12.50147,5.58326 17.36207,10.36484"
       style="display:inline;fill:none;stroke:#0978ab;stroke-width:0.6612612;stroke-linecap:round;stroke-miterlimit:4;stroke-dasharray:none"
       sodipodi:nodetypes="cccc"
       inkscape:connector-curvature="0" />
    <path
       id="polyline6838"
       d="m 372.16805,427.47231 c -10.70103,0.53674 -18.10445,-8.98806 -22.14613,-17.77052 -4.99406,-10.49928 -17.10115,-13.67796 -24.2797,-22.09052 -3.23893,-6.93907 -13.9016,-6.89541 -15.60523,-15.17064 -5.30346,-5.33265 -11.97553,-9.83209 -19.81399,-7.95917 -7.12433,2.74711 -14.23928,2.41426 -21.26117,1.99239 -5.73496,4.56094 -8.79749,11.39971 -15.19199,15.466 -4.11449,5.70648 -12.03658,5.85791 -16.27508,11.19495 -3.55628,8.75002 4.70432,16.83328 4.383,25.62232 -0.0616,5.35709 7.01839,12.71231 -1.3366,15.61767"
       style="display:inline;fill:none;stroke:#0978ab;stroke-width:0.6612612;stroke-linecap:round;stroke-miterlimit:4;stroke-dasharray:none"
       sodipodi:nodetypes="cccccccccc"
       inkscape:connector-curvature="0" />
    <path
       id="polyline7382"
       d="m -4.3455864,204.36232 c 2.8799005,-0.53656 5.7575873,-1.07319 8.6286652,-1.62557 8.0938742,-1.66393 15.3503252,-7.69597 23.8718402,-5.70934 2.771712,0.33902 5.868479,0.3227 8.15451,-1.53103"
       style="display:inline;fill:none;stroke:#0978ab;stroke-width:0.6612612;stroke-linecap:round;stroke-miterlimit:4;stroke-dasharray:none"
       inkscape:connector-curvature="0"
       sodipodi:nodetypes="cccc" />
    <path
       id="polyline7384"
       d="m 36.310209,195.48404 c 6.747981,1.96902 13.873741,2.9682 20.202962,4.99629 1.841888,1.09217 4.662187,1.30178 5.731804,-1.00074"
       style="display:inline;fill:none;stroke:#0978ab;stroke-width:0.6612612;stroke-linecap:round;stroke-miterlimit:4;stroke-dasharray:none"
       inkscape:connector-curvature="0" />
    <path
       id="polyline7390"
       d="m -6.1194072,321.4933 c 1.745296,8.19766 -2.821126,16.61309 -0.829077,24.38402 3.252723,5.70469 -7.9625358,14.44987 1.058266,16.19582 7.149763,-2.94394 14.353066,-0.28831 20.9738562,2.75855 8.028227,-0.32201 15.502676,3.97906 15.137485,13.06984 2.313802,6.91767 -1.492341,14.14989 0.920752,20.92386 2.215403,7.4158 11.041857,12.15882 10.955457,19.93084 -1.49939,8.86243 9.825618,7.01135 10.273693,14.42696 2.250971,7.01025 6.747853,12.58447 4.622877,20.47859"
       style="display:inline;fill:none;stroke:#0978ab;stroke-width:0.6612612;stroke-linecap:round;stroke-miterlimit:4;stroke-dasharray:none"
       inkscape:connector-curvature="0"
       sodipodi:nodetypes="ccccccccc" />
  </g>
  <g
     inkscape:groupmode="layer"
     id="layer7"
     inkscape:label="Countries"
     transform="translate(0,-37.33334)">
    <text
       xml:space="preserve"
       style="font-style:normal;font-variant:normal;font-weight:bold;font-stretch:normal;font-size:26.45044899px;line-height:0%;font-family:Arial;text-align:center;writing-mode:lr-tb;text-anchor:middle;display:inline;fill:#646464;fill-opacity:1;stroke:none;stroke-width:2.20420408"
       x="283.74329"
       y="73.078148"
       id="text8357"><tspan
         y="73.078148"
         x="283.74329"
         id="tspan8361"
         sodipodi:role="line"
         style="font-size:26.66666603px;line-height:1.25;stroke-width:2.20420408">ALGÉRIE</tspan></text>
    <text
       xml:space="preserve"
       style="font-style:normal;font-variant:normal;font-weight:bold;font-stretch:normal;font-size:26.45044899px;line-height:0%;font-family:Arial;text-align:center;writing-mode:lr-tb;text-anchor:middle;display:inline;fill:#646464;fill-opacity:1;stroke:none;stroke-width:2.20420408"
       x="86.117271"
       y="127.40403"
       id="text8399"><tspan
         y="127.40403"
         x="86.117271"
         id="tspan8403"
         sodipodi:role="line"
         style="font-size:26.66666603px;line-height:1.25;stroke-width:2.20420408">MALI</tspan></text>
    <text
       id="text8405"
       y="153.34622"
       x="340.36182"
       style="font-style:normal;font-variant:normal;font-weight:bold;font-stretch:normal;font-size:26.45044899px;line-height:0%;font-family:Arial;text-align:center;writing-mode:lr-tb;text-anchor:middle;display:inline;fill:#646464;fill-opacity:1;stroke:none;stroke-width:2.20420408"
       xml:space="preserve"><tspan
         y="153.34622"
         x="340.36182"
         id="tspan8409"
         sodipodi:role="line"
         style="font-size:26.66666603px;line-height:1.25;stroke-width:2.20420408">NIGER</tspan></text>
    <text
       xml:space="preserve"
       style="font-style:normal;font-variant:normal;font-weight:bold;font-stretch:normal;font-size:16.24151993px;line-height:0%;font-family:Arial;text-align:center;writing-mode:lr-tb;text-anchor:middle;display:inline;fill:#646464;fill-opacity:1;stroke:none;stroke-width:1.35346007"
       x="61.579758"
       y="356.46524"
       id="text8459"><tspan
         y="356.46524"
         x="61.579758"
         id="tspan8463"
         sodipodi:role="line"
         style="font-size:21.33333397px;line-height:1.25;stroke-width:1.35346007">BURKINA</tspan><tspan
         y="383.1319"
         x="61.579758"
         id="tspan8465"
         sodipodi:role="line"
         style="font-size:21.33333397px;line-height:1.25;stroke-width:1.35346007">FASO</tspan></text>
    <text
       xml:space="preserve"
       style="font-style:normal;font-variant:normal;font-weight:bold;font-stretch:normal;font-size:13.31604004px;line-height:0%;font-family:Arial;text-align:center;writing-mode:lr-tb;text-anchor:middle;display:inline;fill:#646464;fill-opacity:1;stroke:none;stroke-width:1.10967004"
       x="192.64735"
       y="425.6564"
       id="text8523"><tspan
         y="425.6564"
         x="192.64735"
         id="tspan8527"
         sodipodi:role="line"
         style="font-size:12.93502808px;line-height:1.25;stroke-width:1.10967004">BÉNIN</tspan></text>
    <text
       id="text8529"
       y="411.81754"
       x="307.55896"
       style="font-style:normal;font-variant:normal;font-weight:bold;font-stretch:normal;font-size:26.45044899px;line-height:0%;font-family:Arial;text-align:center;writing-mode:lr-tb;text-anchor:middle;display:inline;fill:#646464;fill-opacity:1;stroke:none;stroke-width:2.20420408"
       xml:space="preserve"><tspan
         y="411.81754"
         x="307.55896"
         id="tspan8533"
         sodipodi:role="line"
         style="font-size:26.66666603px;line-height:1.25;stroke-width:2.20420408">NIGERIA</tspan></text>
  </g>
  <g
     inkscape:groupmode="layer"
     id="layer8"
     inkscape:label="Cities"
     transform="translate(0,-37.33334)">
    <path
       sodipodi:type="arc"
       style="display:inline;fill:#000000;fill-opacity:1;stroke:none;stroke-width:1.22317386"
       id="path5154-2"
       sodipodi:cx="80.601387"
       sodipodi:cy="225.2196"
       sodipodi:rx="5.5099754"
       sodipodi:ry="5.5240517"
       d="m 81.248501,219.73378 a 5.5099754,5.5240517 0 0 1 4.851834,5.83513 5.5099754,5.5240517 0 0 1 -5.547637,5.17453 5.5099754,5.5240517 0 0 1 -5.455558,-5.27201 5.5099754,5.5240517 0 0 1 4.953936,-5.74826"
       sodipodi:start="4.8301047"
       sodipodi:end="4.6123467"
       sodipodi:open="true"
       inkscape:transform-center-x="60.785698"
       inkscape:transform-center-y="23.379112" />
    <path
       sodipodi:type="arc"
       style="display:inline;fill:#000000;fill-opacity:1;stroke:none;stroke-width:1.22317386"
       id="path5154-6"
       sodipodi:cx="356.72943"
       sodipodi:cy="212.09845"
       sodipodi:rx="5.5099754"
       sodipodi:ry="5.5240517"
       d="m 357.37654,206.61263 a 5.5099754,5.5240517 0 0 1 4.85184,5.83513 5.5099754,5.5240517 0 0 1 -5.54764,5.17453 5.5099754,5.5240517 0 0 1 -5.45556,-5.27202 5.5099754,5.5240517 0 0 1 4.95394,-5.74825"
       sodipodi:start="4.8301047"
       sodipodi:end="4.6123467"
       sodipodi:open="true"
       inkscape:transform-center-x="60.785672"
       inkscape:transform-center-y="23.379115" />
    <path
       sodipodi:type="arc"
       style="display:inline;fill:#000000;fill-opacity:1;stroke:none;stroke-width:1.22317386"
       id="path5154-61"
       sodipodi:cx="174.8311"
       sodipodi:cy="346.45081"
       sodipodi:rx="5.5099754"
       sodipodi:ry="5.5240517"
       d="m 175.47821,340.96498 a 5.5099754,5.5240517 0 0 1 4.85184,5.83513 5.5099754,5.5240517 0 0 1 -5.54764,5.17453 5.5099754,5.5240517 0 0 1 -5.45556,-5.27201 5.5099754,5.5240517 0 0 1 4.95394,-5.74826"
       sodipodi:start="4.8301047"
       sodipodi:end="4.6123467"
       sodipodi:open="true"
       inkscape:transform-center-x="60.785697"
       inkscape:transform-center-y="23.379119" />
    <text
       xml:space="preserve"
       style="font-style:normal;font-variant:normal;font-weight:normal;font-stretch:normal;font-size:26.45044899px;line-height:0%;font-family:'DejaVu Sans';-inkscape-font-specification:'DejaVu Sans';text-align:start;letter-spacing:0px;word-spacing:0px;writing-mode:lr-tb;text-anchor:start;display:inline;fill:#000000;fill-opacity:1;stroke:none;stroke-width:2.20420408"
       x="28.995455"
       y="233.31709"
       id="text5964"><tspan
         sodipodi:role="line"
         x="28.995455"
         y="233.31709"
         id="tspan5966"
         style="font-size:21.33333397px;line-height:1.25;stroke-width:2.20420408"><tspan
           x="28.995455"
           y="233.31709"
           id="tspan5968"
           style="font-size:21.33333397px;stroke-width:2.20420408">Gao</tspan></tspan></text>
    <text
       xml:space="preserve"
       style="font-style:normal;font-variant:normal;font-weight:normal;font-stretch:normal;font-size:26.45044899px;line-height:0%;font-family:'DejaVu Sans';-inkscape-font-specification:'DejaVu Sans';text-align:start;letter-spacing:0px;word-spacing:0px;writing-mode:lr-tb;text-anchor:start;display:inline;fill:#000000;fill-opacity:1;stroke:none;stroke-width:2.20420408"
       x="136.22687"
       y="368.37344"
       id="text5958"><tspan
         sodipodi:role="line"
         x="136.22687"
         y="368.37344"
         id="tspan5960"
         style="font-size:21.33333397px;line-height:1.25;stroke-width:2.20420408"><tspan
           x="136.22687"
           y="368.37344"
           id="tspan5962"
           style="font-size:21.33333397px;stroke-width:2.20420408">Niamey</tspan></tspan></text>
    <text
       xml:space="preserve"
       style="font-style:normal;font-variant:normal;font-weight:normal;font-stretch:normal;font-size:26.45044899px;line-height:0%;font-family:'DejaVu Sans';-inkscape-font-specification:'DejaVu Sans';text-align:start;letter-spacing:0px;word-spacing:0px;writing-mode:lr-tb;text-anchor:start;display:inline;fill:#000000;fill-opacity:1;stroke:none;stroke-width:2.20420408"
       x="329.64474"
       y="196.80067"
       id="text5952"><tspan
         sodipodi:role="line"
         x="329.64474"
         y="196.80067"
         id="tspan5954"
         style="font-size:21.33333397px;line-height:1.25;stroke-width:2.20420408"><tspan
           x="329.64474"
           y="196.80067"
           id="tspan5956"
           style="font-size:21.33333397px;stroke-width:2.20420408">In Gall</tspan></tspan></text>
  </g>
</svg>
