<svg xmlns="http://www.w3.org/2000/svg" xmlns:xlink="http://www.w3.org/1999/xlink" viewBox="0 0 545.25 308.15"><defs><clipPath id="clip-path" transform="translate(-25.17 -38.07)"><rect y="-178.72" width="595.28" height="841.89" style="fill:none"/></clipPath></defs><title>tibetic nepal</title><g id="tibetan"><g id="Layer_20" data-name="Layer 20"><path d="M404.56,209c-.9-1.66-3.75-1.79-5.37-2.05a24.93,24.93,0,0,0-5.61-.61,1.54,1.54,0,0,0-.91-.37c-1.81-.12-2.68,1.32-3.17,2.88-.42,1.37-1.19,4-.13,5.29,1.34,1.62,4.16.46,5.79.12,2.49-.51,6-.61,8.24-1.92A2.53,2.53,0,0,0,404.56,209Z" transform="translate(-25.17 -38.07)" style="fill:#0094a0;opacity:0.7000000000000001"/></g><g id="Layer_21" data-name="Layer 21"><path d="M386.91,202.31a15.5,15.5,0,0,0-2,.39,13.73,13.73,0,0,1-5.19-.34c-1.38-.23-3.06-.62-4.44-.12a2.88,2.88,0,0,0-1.31.94,1.59,1.59,0,0,0-2.24,1.73c.44,2.1-10.06,19.32.17,15.7,1.88-.66,3.11-2,4.5-3.38a29.77,29.77,0,0,1,5.81-4.31c2.43-1.41,8-3.57,8.71-6.72C391.51,203.7,389,202.27,386.91,202.31Z" transform="translate(-25.17 -38.07)" style="fill:#3985ad;opacity:0.7000000000000001"/></g><g id="Layer_16" data-name="Layer 16"><path d="M451.37,228.63c-2.38-1.74-3.83,1.39-5,3-1.44,2-4,2.84-5.35,4.92-.76,1.19-.4,2-.62,3.26-.27,1.51-1.91,6.84-5.07,4.11-1.72-1.48-1.82-4.33-.86-6.16,1.48-2.84,4.14-5,6.57-7,1.21-1-.11-2.85-1.46-2.51-5.81,1.44-5.2-4.94-7.8-7.92a1.51,1.51,0,0,0-2.35.3c-2.69,4.26.69,8.51.41,13-.4,6.6-4.56,11.31-6.6,17.22a1.5,1.5,0,0,0,.39,1.46c.22.21,4.66.77,4.89.91,1.51,2.39,3.17,2.08,5.4,2.21h.41l.71.34a1.57,1.57,0,0,0,2.11-.76c2.27-.8,3.86-2.64,5.53-4.92,3.14-4.26,6.23-8.66,8.27-13.58C451.8,234.65,453.78,230.38,451.37,228.63Z" transform="translate(-25.17 -38.07)" style="fill:#0094a0;opacity:0.7000000000000001"/></g><g id="Layer_19" data-name="Layer 19"><path d="M558.43,247.56a9.58,9.58,0,0,0-4-.05q-1.65.45-3.27,1a3.37,3.37,0,0,1,.88-3.71c1.58-2.77,4.47-4.48,5.54-7.63.92-2.72.22-9-3.94-8.67-4,.33-4,8.9-4.85,11.69a16.07,16.07,0,0,1-1.34,3.47c-2.15.38-2.93-.35-2.33-2.17-.37-1.4.35-3.35.28-4.86a10,10,0,0,0-3-7.33,1.47,1.47,0,0,0-1.67-.27,1.55,1.55,0,0,0-1.48,1.43l-1.5,16.77c-.27,3-2.22,9.37-.23,11.94,1.53,2,3.91,1.18,5.65.08l1.4-.9a1.25,1.25,0,0,0,.74-.48c4.26-2.79,8.21-5.5,13.16-7.41C559.64,250,560.06,247.82,558.43,247.56Z" transform="translate(-25.17 -38.07)" style="fill:#007fa1;opacity:0.7000000000000001"/></g><g id="Layer_18" data-name="Layer 18"><path d="M530.86,233.73c-2,1.29-4.83-1.4-7-1.15a23.31,23.31,0,0,0-6.69,2.26,1.38,1.38,0,0,0-1.39-.36c-6.51,1.71-7.82,8.41-7.64,14.34.22,6.93,6.28,9.69,12.75,10.35,1.82.18,3.77.08,4.76-1.7,1.07-1.94-.21-2.44-.8-4-1.66-4.51,3-6.38,5.25-9.55a17.69,17.69,0,0,0,3-8.87A1.51,1.51,0,0,0,530.86,233.73Z" transform="translate(-25.17 -38.07)" style="fill:#3985ad;opacity:0.7000000000000001"/></g><g id="Layer_17" data-name="Layer 17"><path d="M424.72,231.63a1.44,1.44,0,0,0-2.31-.76,5,5,0,0,0-1.61-1.67c-1.12-.79-2.41-2-3.67-2.88a11.28,11.28,0,0,1,1.15-.6c1.67-.76.37-3-1.16-2.74-4.9.75-8.8,8.38-10.62,12.41-2.07,4.58-1.46,7.24,2.74,9.66,1.66,1,3,3.08,4.87,3.45,2.3.46,4-1.44,5.41-2.92C423.29,241.72,426,237.14,424.72,231.63Z" transform="translate(-25.17 -38.07)" style="fill:#4cb0e3;opacity:0.7000000000000001"/><path d="M502.73,237.38c-.75-1.07-2.51-1.5-3.65-2a13,13,0,0,1-5.4-4.15c-1.48-2-2.37-4.51-4.52-5.94s-4.66-.35-6.55-1.57-1.93-3-4.41-3.44c-1.14-.2-2.25.32-3.33.23-.67-.05-3.69-.94-4-1.75-.17-.43.28-1.61.23-2.18-.16-1.61-.8-2.81-2.43-3.25-2.11-.57-3.17.85-4.74,1.93-2.28,1.55-5,.85-7.24,2.63-5.4,4.28-3.36,12.07-3.5,17.93-.22,8.84-8.44,12.64-10.88,20.51-.51,1.65,1.73,2.45,2.63,1.3,9,0,19.84-1.39,28,2.33,5.07,2.3,10.05,3.32,14.11-1.4a13.56,13.56,0,0,0,3-7.33c.22-1.62.14-3.28.48-4.89.25-1.18.74-3.33,1.81-4.11,2.49-1.84,3.56-.28,5.64.12C500.72,242.87,505.1,240.7,502.73,237.38Z" transform="translate(-25.17 -38.07)" style="fill:#4cb0e3;opacity:0.7000000000000001"/><path d="M540.89,271.66c-4.16-3.84-11.79-3-11.47-10.62a1.51,1.51,0,0,0-1.9-1.44,4.33,4.33,0,0,0-2.56,1.51c-.3.37-.44.92-.75,1.25a5.53,5.53,0,0,0-.33.94c-.47,2.08-2.24,2.71-5.33,1.88-.28-1.48-2.53-1.37-2.89,0-.21.8-.28,6.42.39,6.38a1.55,1.55,0,0,0-.73,2.86,1.53,1.53,0,0,0,2.18.94c6.85-3.78,12.72-1.36,19.45,1,1.7.59,3.79,1.28,5-.53C543,274.32,542.06,272.74,540.89,271.66Z" transform="translate(-25.17 -38.07)" style="fill:#4cb0e3;opacity:0.7000000000000001"/></g><g id="Layer_15" data-name="Layer 15"><path d="M360.92,179.48a1.09,1.09,0,0,1,0-.18h0c0-.13,0-.26,0-.4-.23-1.73-2.9-1.22-2.94.4,0,.71,0,1.44-.13,2.16C357,183.71,354,185,352,185.79c-1.7.68-4.42,1.41-3.73,3.81a1.52,1.52,0,0,0,2.5.64,1.36,1.36,0,0,0,.77-.42,28.62,28.62,0,0,0,3.34-.64,2.89,2.89,0,0,0,.48.59c1,1,3,0,2.5-1.46a3.45,3.45,0,0,0-.3-.64c.51-.06,2.43-2.94,2.57-3.28a10.13,10.13,0,0,0,.68-2.81A7.31,7.31,0,0,0,360.92,179.48Z" transform="translate(-25.17 -38.07)" style="fill:#0094a0;opacity:0.7000000000000001"/></g><g id="Layer_14" data-name="Layer 14"><path d="M346.59,186.49c-1.79-1.77.15-4.7-2.84-4.64-1.88,0-2.3.35-3.82-.24a35.66,35.66,0,0,1-3.57-1.6c-1.61-.84-3.08-1.85-4.6-2.82-.89-.57-2.23-1.14-3.11-.73a1.43,1.43,0,0,0-1.27,1.72c.32,2.27,3,3.06,4.85,3.29,3.36.42,5.37,3.08,8.6,3.75,1.1.22,2,.12,3,1,.46.41.7,1,1.12,1.42s1.05,1.15,1.79,1C348.46,188.37,347.24,187.13,346.59,186.49Z" transform="translate(-25.17 -38.07)" style="fill:#459ecc;opacity:0.7000000000000001"/></g><g id="Layer_13" data-name="Layer 13"><path d="M319.43,175.88a1.54,1.54,0,0,0-1.44-1.1c-2-.11-3.56,2.26-4.67,3.73a11.76,11.76,0,0,0-2.08,3,16.48,16.48,0,0,0-2.38,6,9.86,9.86,0,0,0,.33,3.65c0,3.06.67,6.95,4.2,6.88,4.16-.08,4.61-4.84,3.78-7.87-.43-1.55-1.11-2.71-1-4.4.1-2.1,1.31-3.46,2.28-5.19C319.24,179.07,320,177.56,319.43,175.88Z" transform="translate(-25.17 -38.07)" style="fill:#0094a0;opacity:0.7000000000000001"/></g><g id="Layer_12" data-name="Layer 12"><path d="M308.26,183.55c-.32-2.15-1.74-4.52-2.53-6.56a22,22,0,0,1-1.67-7.34c-.3-6.53-7.16-4.59-8.71.32-.82,2.58,1.22,5.31,2.29,7.53a17.46,17.46,0,0,0,3.12,5.09c.06.28.11.56.18.83.71,2.56,2.65,4.31,5.38,3.57a1.36,1.36,0,0,0,1-1A2.3,2.3,0,0,0,308.26,183.55Z" transform="translate(-25.17 -38.07)" style="fill:#4cb0e3;opacity:0.7000000000000001"/></g><g id="Layer_7" data-name="Layer 7"><path d="M184.79,115.35s-1.52,4.34.87,6.94,3.69,5.2,3.47,8.89-.22,8.46,2.82,9.76,8.45,3,8.89,1.51.86-7.15-2-8.67-1.74-5.2-2.61-7.15.22-4.77.22-6.94-7.37-4.34-8.24-4.34Z" transform="translate(-25.17 -38.07)" style="fill:#3985ad;opacity:0.7000000000000001"/></g><g id="Layer_11" data-name="Layer 11"><path d="M278.75,152.31c-1.09-2.08-3.37-2.17-5.5-1.78a9.61,9.61,0,0,0-2.94,1.36c-1.82,1-3.45.59-5.33,1.15-1.67.49-4.19,1.4-3.75,3.61.62,3.06,4,1.5,5.95,2,1.45.4,1.6,1.79,2.76,2.46a4.86,4.86,0,0,0,2.33.47,6.22,6.22,0,0,0,1.24.39c2.22.45,4,0,5-2.09A9,9,0,0,0,278.75,152.31Z" transform="translate(-25.17 -38.07)" style="fill:#0094a0;opacity:0.7000000000000001"/></g><g id="Layer_10" data-name="Layer 10"><path d="M297.17,138.79a5.13,5.13,0,0,0-3.57-.42c-3.48.55-4.65,2.45-7.93.45s-1.34-1.95-1.88-4.73a4.59,4.59,0,0,0-1.36-2.53,1.51,1.51,0,0,0-1.49-.41c-4.9,1.53-7.49,8-9.16,12.45-1,2.81-1.63,8.29,2.54,7.54l.21.15c1.81,1,4.88.46,7.31,0a12.33,12.33,0,0,0,3.59,1.19c3.16.31,4.46-1.83,6.51-3.84C293.71,146.92,303.62,142.47,297.17,138.79Z" transform="translate(-25.17 -38.07)" style="fill:#3985ad;opacity:0.7000000000000001"/></g><path d="M170.47,104.51c2.85,4.28,20,2.86,27.1,7.14s13.78,6.89,17.83,12.83,4.75-2.37,7.13,8.8c.56,2.66-2.11,5.87-.72,7.13,4.47,4,15.46.71,15.46.71s9.5-3.56,9.5-6.18,1.91-10.46-2.61-12.6-8.8-10.22-15.93-10.46-23.29-5.94-26.15-6.18-14-7.13-21.63-4.51-6.18-.72-8.32,1S170.47,104.51,170.47,104.51Z" transform="translate(-25.17 -38.07)" style="fill:#4cb0e3;opacity:0.7000000000000001"/><g id="Layer_9" data-name="Layer 9"><path d="M217.88,151.32c-.36-.77-1.31-2.81-2.64-2.94a2.11,2.11,0,0,0-2,1.24c-.46,1.11.69,2,1.86,4.81.57,1.4.25,1.09,1.24,4a19.09,19.09,0,0,0,2,4.65,5.44,5.44,0,0,0,2.17,2.33,4.49,4.49,0,0,0,3.73,0c1.69-.89,2.08-2.84,2.33-4,.34-1.68-.06-2.21,0-3.72.12-3.52,2.39-4,3.41-8.23.46-1.9.83-5.23-.47-5.9-.83-.43-2.2.32-2.94,1.09-1,1-.48,1.56-1.4,3.1-1.11,1.87-2.13,1.58-3,3.42-.42.93-.35,1.44-.93,1.86a2.27,2.27,0,0,1-2.49,0C218.3,152.67,218.32,152.26,217.88,151.32Z" transform="translate(-25.17 -38.07)" style="fill:#007fa1;opacity:0.7000000000000001"/></g><g id="Layer_6" data-name="Layer 6"><path d="M146.05,76.63a22.14,22.14,0,0,1,11,7c4.4,5.42,9.4,12,10,13.9s-.06,3.17-1.7,3S155.54,89.17,154.52,89s-6.1-6.1-7.62-6.61-2.71-1.19-2.54-2.88A4.7,4.7,0,0,1,146.05,76.63Z" transform="translate(-25.17 -38.07)" style="fill:#0094a0;opacity:0.7000000000000001"/></g><path d="M146.08,74.71c-1.23-2.14-4.08-1.35-5.53-3.18-2.11-2.64-1-9.69-1.08-13-.11-3,0-6.51-2-9-4.2-5.27-12.68-3.14-17.16-8.61-1-1.23-2.82.12-2.51,1.46.46,1.93-.25,5.65-.32,7.62A11.89,11.89,0,0,1,116,55.85c-.58.94-4.48,5.2-5.8,4.7a5.82,5.82,0,0,0-.54-.4c-1.53-1-2.81,1.12-1.82,2.35a3.45,3.45,0,0,0,.7.64c.75,1.22-.13,3.78,0,4.9a6.27,6.27,0,0,0,.74,2.44c-.42,4.44,2.5,7.92,6,10.63,2,1.57,3.5,1.41,5.72,2.33,2.45,1,3.72,3.46,6.11,4.55a1.52,1.52,0,0,0,2.26-1.3c0-1.06-.38-1.78-.38-2.44a4.41,4.41,0,0,1,1.68-3.47c1.88-1.21,5.21-.81,7.33-1s4.86,1.08,6.68-.2C146.13,78.56,147.1,76.47,146.08,74.71Z" transform="translate(-25.17 -38.07)" style="fill:#459ecc;opacity:0.7000000000000001"/><path d="M129.22,86.29s4.77-2.21,5.45,5.62,1.53,11.41,6.47,12.1,12.27-.34,14.65,1.19,9.88,4.94,10.39,3.58,2.73-4.43.34-4.77-5.28.17-6.81-.69-5.28-2-2.05-5.28.18-6.13-.85-5.79-7.83,2-7.83,2-4.09,2.38-4.09-2.22-2.55-10.9-4.6-11.41-5.39-1.49-7.8-.8-3,1.55-3.71,3.27C127.88,85.41,129.22,86.29,129.22,86.29Z" transform="translate(-25.17 -38.07)" style="fill:#007fa1;opacity:0.7000000000000001"/></g><g id="tibetan_text" data-name="tibetan text"><text transform="translate(92.66 24.19)" style="font-size:4.822263717651367px;fill:#231f20;font-family:Helvetica-Bold, Helvetica;font-weight:700">HUMLI<tspan x="-2.77" y="5.79">TAMANG</tspan></text><text transform="translate(201.25 92.86)" style="font-size:4.822263717651367px;fill:#231f20;font-family:Helvetica-Bold, Helvetica;font-weight:700">DOLPO</text><text transform="translate(179.7 120.18)" style="font-size:4.822263717651367px;fill:#231f20;font-family:Helvetica-Bold, Helvetica;font-weight:700">TICHURONG</text><text transform="translate(254.45 108.57)" style="font-size:4.822263717651367px;fill:#231f20;font-family:Helvetica-Bold, Helvetica;font-weight:700">LO</text><text transform="translate(241.28 120.21)" style="font-size:4.822263717651367px;fill:#231f20;font-family:Helvetica-Bold, Helvetica;font-weight:700">KAG</text><text transform="translate(271.1 137.75)" style="font-size:4.822263717651367px;fill:#231f20;font-family:Helvetica-Bold, Helvetica;font-weight:700">NAR<tspan x="0.13" y="5.79">PHU</tspan></text><text transform="translate(401.23 213.18)" style="font-size:4.822263717651367px;fill:#231f20;font-family:Helvetica-Bold, Helvetica;font-weight:700">JIREL</text><text transform="translate(486.03 206.77)" style="font-size:4.822263717651367px;fill:#231f20;font-family:Helvetica-Bold, Helvetica;font-weight:700">LHOMI</text><text transform="translate(505.23 213.58)" style="font-size:4.822263717651367px;fill:#231f20;font-family:Helvetica-Bold, Helvetica;font-weight:700">WALUNGGE</text><text transform="translate(379.51 200.48)" style="font-size:4.822263717651367px;fill:#231f20;font-family:Helvetica-Bold, Helvetica;font-weight:700">SHERPA</text><text transform="translate(435.82 205.34)" style="font-size:4.822263717651367px;fill:#231f20;font-family:Helvetica-Bold, Helvetica;font-weight:700">SHERPA</text><text transform="translate(492.05 233.05)" style="font-size:4.822263717651367px;fill:#231f20;font-family:Helvetica-Bold, Helvetica;font-weight:700">SHERPA</text><text transform="translate(322.61 150.91)" style="font-size:4.822263717651367px;fill:#231f20;font-family:Helvetica-Bold, Helvetica;font-weight:700">TSUM</text><text transform="translate(357.72 177.92)" style="font-size:4.822263717651367px;fill:#231f20;font-family:Helvetica-Bold, Helvetica;font-weight:700">LANGTANG</text><text transform="translate(335.79 175.45)" style="font-size:4.822263717651367px;fill:#231f20;font-family:Helvetica-Bold, Helvetica;font-weight:700">KACHAD</text><text transform="translate(302.5 146.87)" style="font-size:4.822263717651367px;fill:#231f20;font-family:Helvetica-Bold, Helvetica;font-weight:700">NUBRI</text><text transform="translate(277.97 152.68)" style="font-size:4.822263717651367px;fill:#231f20;font-family:Helvetica-Bold, Helvetica;font-weight:700">GYASUMDO</text><text transform="translate(147.99 96.11)" style="font-size:4.822263717651367px;fill:#231f20;font-family:Helvetica-Bold, Helvetica;font-weight:700">RENGPUNGMO</text><text transform="translate(129.61 49.16)" style="font-size:4.822263717651367px;fill:#231f20;font-family:Helvetica-Bold, Helvetica;font-weight:700">KHAM</text><text transform="translate(96.35 62.29)" style="font-size:4.822263717651367px;fill:#231f20;font-family:Helvetica-Bold, Helvetica;font-weight:700">KARMARONG</text></g><g id="Layer_1" data-name="Layer 1"><g style="clip-path:url(#clip-path)"><path d="M424.61,230.84c.13.25.3.3.48.48-1.28.77-1.94,2.83-2.64,4.09-1.15,2.08-1,.86,0,3.84.6,1.82.55,3.44,0,3.84-.27.19-3.25.49-4.08,0-.17,1.3-1.11,1.57-1.44,2.4-.22.54.24,1.7,0,2.64-.51,2-3.43,3.38-3.36,5-1.77-.14-2.09,3-4.08,2.64,0,1.46.4,4.5-1.2,4.8-.51,1.32.11,2.47.72,3.6.14.75-1,.5.48,1-1.27,1.12-1.94,1.16-2.64,1.92s-.05,1.7-1,2.16c-.46.23-1.09-.79-1.68-.72-4.51.55-1.14,4.46-3.6,5.52-.62-.95-1.38-.69-1.92.24a1.85,1.85,0,0,1-1.44-1.2q-.12.36.24.24c-.2-.44-.19-.35-.72-.48-.14.82-3.9.89-4.32.72-.62.14-.39.46-.72-.24-1-.15-3.58,0-3.12-1.44q-.36-.12-.24.24c-.4-.67-.47-.47-.72-.48v-.48a11.3,11.3,0,0,0-1.68.48c.16-.26.28-.25.48-.48a8.53,8.53,0,0,0-1.68-1.44c-.12.63-.19.37-.48.72-.17-1.25-.44-.92-1-1.68a4.79,4.79,0,0,0-1,.48v-.48a6,6,0,0,1-1.44.48c-.12-.11-.16-.59-.24-.72-.08.11-.19.45-.48.48h0a5.32,5.32,0,0,0-4.8-2.16c-.67-1.91-4.06-.48-3.84-2.4-1.2-.72-1.95-3.42-.48-4.08-.3-.23-.24-.13,0-.48-.58-.1-.79-.31-1.44-.48.45-.59.44-.89,1.2-1.2-.24-.65,0-1,1-1.44-.73-.74-.82-.64-1.2-.48-.86-1.24.29-3.3-1.68-3.6,1.62-2.7-1.36-3.54-3.37-3.84-1.32-.2-1.87.52-3.59-.72-.85-.61-1-2.7-2.41-1.44h0c-.78.09-.94,0-1.44,1-1-.09-.18-.33-1.2.24,0-.54-.12-.32,0-1q-.36.12-.24-.24c-.6,1.08-1.93-.17-3.36-.24a3.86,3.86,0,0,1-2.88,1.68,6.79,6.79,0,0,1-1.92-.48c-1,.13-1.13.85-1.68,1-.76.14-.46.49-1.2.48-.47,0-1.22-.9-1.68-1-1.88-.27-2.08.37-3.36,1.2a12.41,12.41,0,0,1-1-1.44c1.34-1.26-1.05-3.23-1.92-3.36a9.08,9.08,0,0,0-4.32,1.2c-2.07-.85-.36-3-1.44-3.6" transform="translate(-25.17 -38.07)" style="fill:none;stroke:#231f20;stroke-linejoin:round;stroke-width:0.4000000059604645px;stroke-dasharray:4,1,1,1"/><path d="M332,242.13c-.15-.91-.22-1.28-1.44-.72-.52-.33.25-.51-.72-.24.21-.44-.21-.87-.24-1,.19-.1.52.07.72,0a2.71,2.71,0,0,0-1.92-1.21c.54-.76,2.08-1,3.12-1.2" transform="translate(-25.17 -38.07)" style="fill:none;stroke:#231f20;stroke-linejoin:round;stroke-width:0.4000000059604645px;stroke-dasharray:4,1,1,1"/><path d="M376.85,318.93c.07-.54.12-1.11,1.44-1.2-.58-1,0-1-1.44-1.2,1-.81.66-1.6-.48-1.92.55-1.33,2.63-3.36,1.2-4.32.19-.3.31,0,.24,0,.59-.59,2.44-1.05,2.88-1.68.57-.82.2-2.65.24-3.6.05-1.24.61-2.41.48-3.36s-.89-2.16-.72-3.12c.25-1.4,2.48-4.45,3.36-5.76.62-.93,3.5-5.28,4.32-5.52-.05-.46-.47-.34,0-.72a4.89,4.89,0,0,1-1.68-.72q.36.12.24-.24c-.18.73.65-.21.72-.24-.15-.32-.41-.1-.48-.72.61.2,1,0,1.44,0-.06-.48-.16-1.42-.24-1.92-.46.19-.69,0-1.2.24.59-4.32-2.2-3.43-3.84-5.76-2-2.86,1.79-3.71,3.12-5.52" transform="translate(-25.17 -38.07)" style="fill:none;stroke:#231f20;stroke-linejoin:round;stroke-width:0.4000000059604645px;stroke-dasharray:4,1,1,1"/><path d="M489.42,330.21c-.9-2.91.19-5,1-7,1.09-2.84.64-4.71,2.4-7.44,3.33,4.53,6.67-5.24,7-6.48s1.66-3.48,1-5c-.89-2-3.91-1.46-4.8,0A3.75,3.75,0,0,0,493,305a1.86,1.86,0,0,0-.72-.48,24.92,24.92,0,0,1-2.4,1.68c-.8-.42-1.26-.53-1.68-1.44-.84.51-1.19.08-1.92.24.12-1.11.39-1.7,1-1.68.13-1.88.41-2.81.48-3.6-.72-.35-.27-.52-1.2-.72,1.26-1,.64-2.54-1-2.88.13-.58,1.2-2.18,1.2-2.64s-.86-1.7-1-2.16c-6.31-1.23,0-3.91-2.64-6.24.25-1.48,1.1-2.11,1-3.36s-1.39-1.45-1.92-2.88q.12.36-.24.24c.53-2,2.39-.76,3.6-1.68,1-.74.82-2.44,2.4-2.88-2-.92-4.85-4.14-3.84-5.76-3.67-1.43.16-6.61,1.92-7.44-2.79-2.07-.23-2.84,0-4.32.29-1.89-.92-2.19-.72-4.56.25-3,2.88-6.7,3.36-9.61a16.08,16.08,0,0,1-2.16-1.68c0-1.34.21-2.1.24-3.12,2.14-.6,2-3.07-.48-2.64,2.52-1.86-2.6-6,.24-7a4.75,4.75,0,0,1,0-2.4" transform="translate(-25.17 -38.07)" style="fill:none;stroke:#231f20;stroke-linejoin:round;stroke-width:0.4000000059604645px;stroke-dasharray:4,1,1,1"/><path d="M532.62,235.64c1,1.12.56,2.41-.72,3.36.7,1,0,1.93-1,2.41.14.53-.06.41-.24,1a2.18,2.18,0,0,1,.24.72c-2-.66-1.51,1.25-1.92,2.64a1.25,1.25,0,0,0-1.92,0c-.44-1.44-1.15-1.94-1.44-1.2-.82.76-.77,2.22-1.68,3.12.93.68.84.74,0,1.44a13.44,13.44,0,0,1-.24,2.88c-.24-.19-.72-.31-1-.48a8.79,8.79,0,0,1-2.16,2.4c.81,1.73-.33,6.72-1,9.12-1.11,4.24-.31,5.66,2.4,9.36,2.14,2.91,5.63,2.93,9.13,3.36,2.27.28,8.46,1.83,8.4,4.32-.05,1.67-1.19.82-1.68,1.68a16.39,16.39,0,0,0-.72,2.64c-1.14,1.29-3.48,1.8-4.8,2.64a22,22,0,0,0-7.21,7c.22.07.62,0,.48,0,.17.31,0,.8.24,1.2-.45.39-2.18,2.73-3.12,2.64.88,1.76,4.27,4.51,2.16,7.44,3.57-.81,4.77,3.34,7.68,3.12.25.44-.09.41.48.72-.09.23-.2-.29,0,.24.36-.15.75.26,1.45,1-1.33,1.85,2.43,1.74.23,4.32.86,0,.36.17.73.48a7.1,7.1,0,0,1,1-.48q-.12.36.24.24c-1.45,2.42-2.66,3.64-2.88,5.76-.15,1.42,1.47,5.23-.48,6,.51,3.37.14,10,2.88,11.27-.54.49.14.6.24,1" transform="translate(-25.17 -38.07)" style="fill:none;stroke:#231f20;stroke-linejoin:round;stroke-width:0.4000000059604645px;stroke-dasharray:4,1,1,1"/><path d="M96.25,67.63A12.21,12.21,0,0,0,90.73,76c-.28,2.06.9,1.8,1.68,4.56.4,1.43-.46,4.33,1.92,4.08.35,1.59-.69,7.69-3.36,6-1,.19-2.63,1.85-3.12,1.92-1.39.2-2.16-.68-3.84-.24-2.75.72-5.6,3.81-7.92,2.4-.2.4-.11.52-.24,1-.34-.1,0-.26-.72-.24.09,1-.06.46,0,1-1.84-.37-1.26,2.21.72,1.92-1.24.81-.93,5.35-1.44,6.72-2-1.48-1.57.85-.72,1.92,1.31,1.66,2.25.18,3.6,1,2,1.16,2.87,6.07,5.76,5.52V114c-1.59.74-2.19,1.9-3.84,2.16,2.7,2.48-4.39,2.77-5.28,3.6h-.48c-.26-.14.2-.31-.24-.48-.06,1.48-.59,2.79,1,3.6,0,.39-.15.71-.24,1.2-2.31-2.16-2.24.91-2.16,1.92,1.65.29.46,1.53-.48,1.92-.31.62-1.77,1.14-2.4,2.4.63,1,.24,1.19,0,1.44s-.12.63-.24.72c-1.71-.72-7.58.51-7,2.64-2.65-.25-1.2,2.63-4.56,3.12-.11,2.7,2.94,1.55,1.2,5-.36.72-2.1,4.69-4.08,2.89q.12.36-.24.24c.9,1.28-.16,2.78-1,4.32.71.5.64.65,1.2,1.2a3.8,3.8,0,0,0,1.2-.24q-.12.36.24.24c-.8,2-.15,6.15-.48,7,.47,0,.41-.09.72-.24a.38.38,0,0,0,.24.48c-.54.52-.24.08-.24.72h-.48a2.45,2.45,0,0,1,.48.72,4.57,4.57,0,0,1,2.16,2.88c-.31.06-.65-.05-1,0,.29,1.26.4,1.6,1.2,1.2-.61.74-.28.7-1.2,1.2.59.34.95,1,1.44,1.44-1,.21-.19.16-.72.72-.34-.17-.45-.41-.72-.48a1.84,1.84,0,0,0,.72,1.92" transform="translate(-25.17 -38.07)" style="fill:none;stroke:#231f20;stroke-linejoin:round;stroke-width:0.4000000059604645px;stroke-dasharray:4,1,1,1"/><path d="M192.74,149.48a7,7,0,0,0-4.8,5c-1,4.14-.8,3.17-4.32,4.56a19,19,0,0,0-2.88,1.68c-.93.64-1.47,2.46-1.92,2.88-1.07,1-7,1.23-5.28,3.36a13.37,13.37,0,0,0-.72,4.8c-1.24-.38-3.43-2.82-3.6.48,0,0-.86.48-1.2.72-.39-.33-.41-.18-1-.48a6.86,6.86,0,0,1-.24,3.36q-.36.12-.24-.24.12.36-.24.24c.92,1.65-1.65,2.08-2.88,1.68.1-.44.19-.39.24-.72a25.54,25.54,0,0,0-4.32.48c-.68-.77-.49-.63-1.68-1.2.13-.51.14-.44.24-1-.31.22-.43.19-1,.24-.31,0,.06.38-1,0-.07.84-.48,1-.24,2.16a11.38,11.38,0,0,1-1.44-.24c1,1.89-1,1.85-.72,3.6.1.66,1.3,2.55,1.44,3.12.27,1.05.77,1.56-.24,3.12-.5.76-2,2.11-1.92,2.88-.66-.22-.83.06-1.44-.48-.37,1.75.07,3.5,1.68,4.32-1.78.64.08,3.57-2.16,3.12-1.48,2.63-8.29-2.37-10.32-2.64s-2.65.74-3.36,3.12c-.78,2.59-.05,3,1.92,3.6.08.7.46.81.48,1.68,2-1.07,5.37.91,4.56,2.88,1-.28.75.18,1.44-.48a20.94,20.94,0,0,0,2.88,2.4,5.6,5.6,0,0,0,2.64,1.68c0,.72,1.66,1.2,2.4,2.4s.64,3.73,1.44,4.8c.62.84,6.3,2.78,7.68,3.36s3.17.75,3.6,2.16c0,0-.29,5.11-.24,5-.44.56-3.91.22-4.32.24a22.37,22.37,0,0,1-3.84,0,1.79,1.79,0,0,0-.24,1.92" transform="translate(-25.17 -38.07)" style="fill:none;stroke:#231f20;stroke-linejoin:round;stroke-width:0.4000000059604645px;stroke-dasharray:4,1,1,1"/><path d="M230,168.44a3.86,3.86,0,0,0-1.92.24c-.64-1.41-1.54-2.16-2.16-3.36-1.19.79-4.42-.66-5.52-1.44-1.39.6-2.33-1.15-3.12-1.92-2.06.62-7,.63-8.64-.24-1.24,1.29-2.57.15-3.6,1.68a9.8,9.8,0,0,0-2.65-2.88c-1.07-1-2.33-.72-1.68-3.12a.39.39,0,0,1-.48.24c3.14-4.21-10-11-13.92-9.6-1.89.67-1.5,2.33-4.08.48-1.06-.77-1.29.32-1.68-1.21-.09-.35.86-2,1-2.39,1-4.53-2.66-4.53-6.24-5a16.45,16.45,0,0,0-3.12-.48,4.69,4.69,0,0,0,.48.72c-1.06.38-1.79.94-2.88.48-.37,1.06-.69,1.44-1.68,1.2a2.34,2.34,0,0,1-1.44,2.16c-.19-.31-.49-.4-.72-.72h0c-1.21,1.08-4,4.38-3.12,5.77-2.13.54-2.92,2.64-5,.72-1.17-1.06-.84-2.44-2.64-3.61a7.31,7.31,0,0,1-5.28,3.61,30.61,30.61,0,0,1-5.28.72c-1.11-1.52-3-1-3.6-3.36-2.07-1-3.57.16-5.28-1.21a5.67,5.67,0,0,0-5.76-1c-.21.19-3.48-.19-4.08-1.21-1.09-1.8,1.4-3.79,1.2-6a1.87,1.87,0,0,0-1,.72" transform="translate(-25.17 -38.07)" style="fill:none;stroke:#231f20;stroke-linejoin:round;stroke-width:0.4000000059604645px;stroke-dasharray:4,1,1,1"/><path d="M302,157.64c-.85-.1-1.56-.62-2.4-.48s-.64.93-1.44,1.2c-1.09.36-2.66-.79-3.6.24-.33-.29-.85-.43-1.2-.72-.23.55-.13.38-.48.72.14,1-.7,4-2.4,2.64-.41,1.71-.32,1.49-1.69,2.4-1.66,1.1-.28.91-2.16,0-.56-.28-2.79-1.72-2.88-1.68-1.77.7.14,2.16-.72,3.6-.45.76-2.15.76-2.88,1.44-1,.93-.11,1.84-1.44,2.64-1.91,1.15-4.26,1-5.76,3.12,2.55,1,6.62,4.21,4.32,6.24-1.3,1.15-3.15.72-3.12,2.64s2.68,2.83.24,4.32c-1.89.27-6.8,6.52-4.32,8.64.27,0,.57-.39.72-.48.28.57.15.65,0,1.2-1.34-.51-2.51-.24-3.6-.72a1.93,1.93,0,0,0,1.44,1.92c-.83,1.58,2,4.1,3.36,5-.52.44-.54.88-1,1.2a3.46,3.46,0,0,0,1,.48c-.28.37-.51.7-.72,1a19.37,19.37,0,0,1,3.6,1c.95,1.49-1.93,1.64-.72,3.12.5-.47-.49.5-.24-.24-.34,1.69-4.48,2.38-2.4,3.84-.29,2.07-1,1.13-2.64,2.16-1.32.85-2.16,2.05,0,2.88-.54.84-.47,1.17-1.68,1,1.31,2.16-.35,1.8-.72,4.08q.12-.36-.24-.24v.48q.36-.12.24.24-.12-.36.24-.24v.48c-1.35.73-4.43.82-4.56,1.68-.31-.07-1.36-.21-1.44-.24a10.3,10.3,0,0,1-1.2-1.44c-.43-.11-.91-.41-1.92-.72V219.8c.92-.21.61-.52,1.44-.72a1,1,0,0,1-.24-.72c-1.43-1.14-1.07-1.77-2.88-2.4s-2.85.62-4.08-.24c0,0,.17-.66.24-1a2.92,2.92,0,0,1-2.64,0,1.49,1.49,0,0,1-1.2.48c-.17-2.25-3.17-4-4.32-5.52-1.76,1.72-5.41.38-6.48-.48a47,47,0,0,1-4.8-5c-.37.53-.91.58-1.2,1-.74-1.41-1.77-.32-2.4.72-.54-.76-1.13-.52-2.4-.51" transform="translate(-25.17 -38.07)" style="fill:none;stroke:#231f20;stroke-linejoin:round;stroke-width:0.4000000059604645px;stroke-dasharray:4,1,1,1"/><path d="M315.16,244.29c.17-.55-.88-2.75-2.64-2.64-1.16.06-1.71,2.13-2.64,2.4-1.72-.22-3.27-4.47-2.4-5.76a2,2,0,0,0-2.64-1,4.76,4.76,0,0,0-2.64-1c-.07,0,0,.62,0,.72-.47-.43,0-.29-.65-.64,0,0-.16.16-.24.19s-.39.21-.55.21a2.6,2.6,0,0,1,.24-.73,3.69,3.69,0,0,1-2.3.09c-1.39.93-1.3-.54-3.29.1.22-.24.07-.44.31-.67a1.9,1.9,0,0,0-.72-.23c-.13.12-.07.38-.17.52-.46-.35-.29-.4-.55-.77-.48.5-.2.37-1,.25a4.26,4.26,0,0,0,.48-.48,8,8,0,0,0-1.68-.25c.05.07.31.37.24.48h-.48c.24.08.32,0,.24-.23h-.48c-.55,1.07-.56,1.37-1.68.71-.2.45.17.49-.48.48-.12-.37.19-.1.24-.48-.75-.29-1.06-.26-1.68-.48a3.92,3.92,0,0,0,.48,1c-.35,0-1.57-.28-1.44-.23-1.19-2-3.06-.79-4.32-1.93-.83,1-2.95-.13-3.85-.72-.68.55-1.05.31-1.44,1.21a6.17,6.17,0,0,1-.48-.73h-.48c-.29.23-.37.09-.59.57-1.93-.81-1.15.18-2.29-.57s-2-2.44-2.88-1.68c-.29.05-.4-.35-1-.24,0,.51.31,0,.24.48-1.55-.8-3-2.14-4.32-1.2-.72-1.49-1.58.66-2.64,1.44-.47-.3-.06,0-.72-.24-.14-1.07-.16-.54-.72-1.2.1-.31.38-.42.48-.72-1.48.24-2.65-.67-3.6-.24a2.63,2.63,0,0,1,.24-.72c-.83,0-1.42.65-2.88.72-.11-.21.07-.45,0-.72a2.92,2.92,0,0,0-.48,1h-.48c-.12-.18-.7-.86-1-1.2q.12.36-.24.24c.3.25.66.37.48.24-1.81,1.7-2.71-.34-4.8.24a4.58,4.58,0,0,0,.24-1c2.71-.86,1.5-2.33,4.08-2.16.94.07,1.4.51,2.16.48,1.24-.05,1.47-1,2.88-.48.49-1.27,1.74-1.28,1.92-2.88" transform="translate(-25.17 -38.07)" style="fill:none;stroke:#231f20;stroke-linejoin:round;stroke-width:0.4000000059604645px;stroke-dasharray:4,1,1,1"/><path d="M455.1,226.28c1.07,2.27,2.38,1.7,2.64,4.8a14,14,0,0,1-.72,6c3.14.23,1.08,2.84,2.4,4.57-1,.47-1.68,2.52-2.16,4.08-.84,2.66-.65,2.45-2.16,4.32-.36.43,0,1.76-.72,2.16-.46.23-2.25-.24-2.89,0a12.83,12.83,0,0,0-3.83,2.64c-2.05,2-3.63,5-5.77,7.2s-4.79,5.48-5.28,7.44c-.83,3.35.76,5,1.2,7.68a7.91,7.91,0,0,0-1.92,1.44c-1.7,1.76,2.5,3,2.88.72a.8.8,0,0,0,.72-.24c1.27,1.57,2.58.8,4.32,2.16,1.45,1.13,1.12,2.51,3.37,2.64,1.18,1.35-.06,3.54-1.21,4.32-.48-.62-.57-.14-1.19-.72-.37,1.15-.46,1.18-.25,1.44-.15,1-.79,1.52-2.16,1.44,1.08,1.3,2.6-.05,3.84.72a9.29,9.29,0,0,1-1,2.64q.36.12.24-.24c.82,1,1,2,2.17,2.88-1.28.79-.68,4-3.13,5-1.86.78-4.63,1.14-5,4.08-.5.05-.47-.14-1-.24a2.75,2.75,0,0,1-1.44.72,3.4,3.4,0,0,1,0,1.2c-1-1.36-3.2-1.6-4.32-3.36-1.63.44-2.21,2.71-1.44,3.6-.15.92,1,4.17,1.44,5-.93,3.55.37,4.44,1.92,7.2.5.89,1.29,2.13,1,3.36-.46,1.77-1.71,1.46-1.92,3.12a3.45,3.45,0,0,0-1.2,0c.45.53.13.86.24,1.2" transform="translate(-25.17 -38.07)" style="fill:none;stroke:#231f20;stroke-linejoin:bevel;stroke-width:0.800000011920929px;stroke-dasharray:4,1,1,1"/><path d="M108,68.83c1.72.7,7,4.11,8.4,1.68,1.3,1.25,4.18,1.14,3.85,2.88,1.71,1.58-1.91,4.56,0,6.72,1.64,1.86,2.69-.33,3.6-1,.58-.41,1.32-1.56,2.88-1a3.87,3.87,0,0,1,1.68-1c.33.36.81.41,1.2.72.11-.52.58-.75.72-1.2,1.06.57,3.18,0,3.84.24,1.24.43.57,0,1.68.72.62.42.83,1.27,1.2,1.92,1.93,0,4-.59,5.52.72-.59,1.46-.06,3.52-1.44,4.56.82,1.91-.69,2.26-1.44,3.12a8.54,8.54,0,0,0-1.92,3.36c-1,2.47-2.73,5.48-1.92,7.92-.28.32-.06.43-.24.24.24.5.37.22,0,.48,1.36,1.92,3,1.63,4.8,2.88,2.07,1.43,1,3.34,1.2,5.28-1,.68-.94.61-1,1.68a3.93,3.93,0,0,0-1.2.24c4.65-.26,2.86,9.37.24,8.4-.67.83-1.46,1.85-1,3.12-.66,1.68-6.16,3-7.2,1.92s.72-2.64-1.2-3.36c-1.51-.56-3.7.28-3.84,1.44-.2-.23-.51-.49-.72-.72-.59,1.44-2,3.21-3.36,3.12a5.26,5.26,0,0,1-2.64,3.12c3.55,1.85-.86,5.83,1.68,7.92-.12.51,2.81,3.1,4.56,3.36-3.85,1.92-9.1,4.59-10.57,9.37,1,.8.82,2,1.2,3.12a8.23,8.23,0,0,0,1-.24c-.14,1.82,3.15,5.48,4.09,5.28,1.41,3,8.3,11.65.72,10.8,2.41-1.42-2.82-7.78-3.61-9.36s.17-.84-1.44-2.16a2.25,2.25,0,0,0-2.4-.72c-1.68.26-4.16,3-4.8-.24-1.1-.39-1.57-1.24-3.12-1-.68.12-.58,1-1.2,1.2-.86.27-.59-.76-1.2-.72-2.9.17-4.08.43-6.24-1.44-2-1.7-3-2.82-5.76-3.12a8.8,8.8,0,0,0-5.76,2.16c.88,1,4.86,5.37,6,5,1.15,3.17,2.94,2.05,4.56.24.25,1.47,1,1.94.72,3.6,1.23-1,2.23.5,3.36,1-.24-.78.17-.58-.72-1.44.09-.38.31-1.47.48-2.16h.48c-.31,1.34,1.16,2,1.44,2.64.9,2-.48,1.41-.24,2.88.14.83,1.94,2.49,2.16,3.12.35,1,1,2.52.24,3.6,5.84,1.1-7.21,14.76-8.16,15.36-1.79,1-7,5.37-5.66,7.3" transform="translate(-25.17 -38.07)" style="fill:none;stroke:#231f20;stroke-linejoin:bevel;stroke-width:0.800000011920929px;stroke-dasharray:4,1,1,1"/><path d="M264.27,136.41c.13.08.45-.28.72.34-.09.12-.35.14-.48.24a8.28,8.28,0,0,1,1.44,3.13c-1.53-.17-2.44.17-1.92,1.44a2.11,2.11,0,0,0-2.64.72c2.2,1.38.2,4,0,6-.26,2.77-1.27,3-3.12,5.52-.45-.05-1.8,1.69-2.64,2.64a10,10,0,0,0-1.44,1.92c-.21.5.48,1.2,0,2.16-.35.71-1.53.21-1.68.72-.2.69.38,1.85.24,2.4-.5,2-.35,2.46-2.4,3.12-1.51.48-3.32.52-4.32,1-2,.9-1.39,1.09-3.84,1.44-1.76.25-2.73.92-3.84.72-1.8-.33-2.59-1.91-3.84-.24-2.2-1.5-4.18-1.93-4.32.24-.07,1,1.09,4.62-1.68,3.84a5.83,5.83,0,0,1-.24,3.36c-1.81-.61-4.46.46-6,.24-2.41-.34-3.54.09-5,2.16,1,2.5,3.51,1.34,1.44,4.32a7.61,7.61,0,0,0-3.36-2.16c-.48.55,0,.07-.48.24a5.5,5.5,0,0,0,0,2.88,3.05,3.05,0,0,1-2.64,1c1,.76,1.29,2,2.4,2.88-4-1.08-.77,2.85,0,4.08a5.77,5.77,0,0,0,1.44,1.44c.46.61,1.5,2.11,1.2,3.36,2.65-.33,2,1,3.36,1.92,1.14.8,2.42.58,3.36,1.2,2.69,1.79,3.06,4.07,1.44,6.48-.72-.94-2.17-1.06-3.6-.48.09.31.4.31.48.48a2.76,2.76,0,0,0,.48,2.16c-.39,2.21-.19,3.28,1.2,4.8,0,0-.09-.31-.48-.24a2.68,2.68,0,0,1,.24,2.64c-1,.85-2.11.58-3.36-.48q.12.36-.24.24c.55,1.86-2.05,3.46-2.64,5.28,1.37.46,1,2.17,1,2.4-.56.22-.59.55-1.44.72v.48a4.08,4.08,0,0,0,1.44,0c.3,1,.68,1.09,1.44,1,1.07,1.27,1.91,2.09,1,2.88a4.07,4.07,0,0,1,.24,1.44q-.36-.12-.24.24a6.1,6.1,0,0,0-.48-1c-.94.27-2.95-.21-3.6,0-1.61.54-2.3,3.19-3.6,1.2-.35.47-8.32,1.38-5.76,3.61-.4,0-.81,0-1.2,0v.48a3.85,3.85,0,0,1,1,0c-.82.35-3.69,1.66-4.09,2.87a15.44,15.44,0,0,1,2.65,2.17c.13-.33.42-.83.48-1,1.08,1.28.77,2.55-.72,2.88-.47-1.14-2.52-.83-3.61-.48.3,1.88-2.68,0-1.68,3.6" transform="translate(-25.17 -38.07)" style="fill:none;stroke:#231f20;stroke-linejoin:bevel;stroke-width:0.800000011920929px;stroke-dasharray:4,1,1,1"/><path d="M360.76,198.44c-2.5-.36-4,1.38-4.8,3.12-.06.14.16,3.36-.72,3.36s-1.91,1.2-1.92,1.2c-2.2,2-1.66,2.89-1.92,5.52-.16,1.67-.62,4.48-2.4,3.36-.28,1.7-1.24,1.91-2.4,2.16-1.72-3.56-3.44-.5-4.32,1.92-.52,1.45-1.07,5.48-1.92,5.28q.12.36-.24.24.36-.12.24.24a14.42,14.42,0,0,0-1.92,1.68.39.39,0,0,1,.48.24c-.79.36-1.09.55-2.16,1-.09,1-2,5,.48,5.52-.12,1.42,1.54,4.31,2.16,5.52-.7-.21-.58.21-1.44-.48-1.13,1.74-2.36,1.7-4.08,1a5.65,5.65,0,0,1-2.16-1.2c-1.11-1.1.44-1.76-1.44-2.16-.13-.53.34-.36.24-.72a1.64,1.64,0,0,0-.72.24c-.23-.36-.75-.85-1-1.2-1.24-1.39-3.1.77-4.56,1.92-2.38,1.88-2.51,2.24-6.24,1.92.15-.3,0,.42,0,.48-1.16-.71-2.58,0-2.16,1.92s2.6.52,2.64,3.13c-1.32-1.58-1.6.43-3.36.71,1.34,1.93.35,2.86-1.2,3.61-2.9,1.39-1.31-.72-3.84-.72-1,0-2.76,2-3.84,2.64a45.6,45.6,0,0,1-4.32,1.92,12.18,12.18,0,0,0-3.6,2.4c-.87.76-2.17,3.1-3.36,3.84-1.44.88-3.34-.07-4.32.24s-.74,1.34-1.44,1.44c-1.14.16-1.69-.38-2.88-.48-1-.09-3-.71-3.85,0s-1.3,3.05.72,2c2.47-1.23.94.33.72,1.32-.08.36-1,.24-1.2.72-.1.2.65.81.48,1.2-.44,1,.08,1.32-.94,1.9" transform="translate(-25.17 -38.07)" style="fill:none;stroke:#231f20;stroke-linejoin:bevel;stroke-width:0.800000011920929px;stroke-dasharray:4,1,1,1"/></g><g style="clip-path:url(#clip-path)"><path d="M88.16,126a3.68,3.68,0,0,0-.81-1.2,3.62,3.62,0,0,0-1.19-.8,3.8,3.8,0,0,0-2.91,0,3.57,3.57,0,0,0-1.18.8,3.66,3.66,0,0,0-.8,1.2,3.8,3.8,0,0,0,0,2.91,3.72,3.72,0,0,0,.8,1.19,3.75,3.75,0,0,0,4.09.8,3.62,3.62,0,0,0,1.19-.8,3.75,3.75,0,0,0,.81-4.1m-.67,2.63a3.1,3.1,0,0,1-.64,1,3.24,3.24,0,0,1-1,.65,3.12,3.12,0,0,1-2.35,0,3,3,0,0,1-1.6-1.61,3.12,3.12,0,0,1,0-2.35,3,3,0,0,1,.64-1,3,3,0,0,1,1-.65,3,3,0,0,1,4.2,2.78,2.93,2.93,0,0,1-.24,1.18" transform="translate(-25.17 -38.07)" style="fill:#231f20"/><path d="M85.92,126.19a1.85,1.85,0,0,0-.54-.37,1.79,1.79,0,0,0-1.34,0,1.85,1.85,0,0,0-.54.37,1.87,1.87,0,0,0-.36.55,1.63,1.63,0,0,0-.14.66,1.67,1.67,0,0,0,.14.67,1.7,1.7,0,0,0,.36.54,1.69,1.69,0,0,0,2.42,0,1.58,1.58,0,0,0,.37-.54,1.67,1.67,0,0,0,.13-.67,1.62,1.62,0,0,0-.13-.66,1.72,1.72,0,0,0-.37-.55" transform="translate(-25.17 -38.07)" style="fill:#231f20"/><path d="M132.78,178.92a3.92,3.92,0,0,0-.81-1.19,3.72,3.72,0,0,0-1.19-.8,3.59,3.59,0,0,0-1.46-.29,3.51,3.51,0,0,0-1.45.29,3.62,3.62,0,0,0-1.19.8,3.86,3.86,0,0,0-.79,1.19,3.59,3.59,0,0,0-.3,1.45,3.53,3.53,0,0,0,.3,1.46,3.86,3.86,0,0,0,.79,1.19,3.62,3.62,0,0,0,1.19.8,3.52,3.52,0,0,0,1.45.3,3.6,3.6,0,0,0,1.46-.3A3.72,3.72,0,0,0,132,183a3.92,3.92,0,0,0,.81-1.19,3.69,3.69,0,0,0,.29-1.46,3.75,3.75,0,0,0-.29-1.45m-.67,2.63a2.91,2.91,0,0,1-.65,1,3,3,0,0,1-1,.65,3,3,0,0,1-2.35,0,3.13,3.13,0,0,1-1-.65,3,3,0,0,1-.64-1,3,3,0,0,1,0-2.35,3,3,0,0,1,.64-1,3,3,0,0,1,1-.65,3,3,0,0,1,4,4" transform="translate(-25.17 -38.07)" style="fill:#231f20"/><path d="M130.54,179.16a1.69,1.69,0,0,0-.55-.36,1.65,1.65,0,0,0-1.33,0,1.55,1.55,0,0,0-.54.36,1.72,1.72,0,0,0-.37.55,1.77,1.77,0,0,0,0,1.33,1.72,1.72,0,0,0,.37.55,1.55,1.55,0,0,0,.54.36,1.65,1.65,0,0,0,1.33,0,1.69,1.69,0,0,0,.55-.36,1.72,1.72,0,0,0,.37-.55,1.77,1.77,0,0,0,0-1.33,1.72,1.72,0,0,0-.37-.55" transform="translate(-25.17 -38.07)" style="fill:#231f20"/><path d="M289.05,207.37a3.68,3.68,0,0,0-.81-1.2,3.62,3.62,0,0,0-1.19-.8,3.8,3.8,0,0,0-2.91,0,3.57,3.57,0,0,0-1.18.8,3.66,3.66,0,0,0-.8,1.2,3.8,3.8,0,0,0,0,2.91,3.72,3.72,0,0,0,.8,1.19,3.75,3.75,0,0,0,4.09.8,3.62,3.62,0,0,0,1.19-.8,3.75,3.75,0,0,0,.81-4.1m-.67,2.63a3.1,3.1,0,0,1-.64,1,3.24,3.24,0,0,1-1,.65,3.12,3.12,0,0,1-2.35,0,3,3,0,0,1-1.6-1.61,3.12,3.12,0,0,1,0-2.35,3,3,0,0,1,.64-1,3,3,0,0,1,1-.65,3,3,0,0,1,4.2,2.78,2.93,2.93,0,0,1-.24,1.18" transform="translate(-25.17 -38.07)" style="fill:#231f20"/><path d="M286.81,207.61a1.85,1.85,0,0,0-.54-.37,1.79,1.79,0,0,0-1.34,0,1.85,1.85,0,0,0-.54.37,1.87,1.87,0,0,0-.36.55,1.65,1.65,0,0,0,0,1.33,1.87,1.87,0,0,0,.36.55,1.82,1.82,0,0,0,.54.36,1.67,1.67,0,0,0,1.34,0,1.82,1.82,0,0,0,.54-.36,1.72,1.72,0,0,0,.37-.55,1.77,1.77,0,0,0,0-1.33,1.72,1.72,0,0,0-.37-.55" transform="translate(-25.17 -38.07)" style="fill:#231f20"/><path d="M515.9,297.38a3.72,3.72,0,0,0-.8-1.19,3.66,3.66,0,0,0-1.2-.8,3.8,3.8,0,0,0-2.91,0,3.68,3.68,0,0,0-1.18.8,3.74,3.74,0,0,0,0,5.29,3.68,3.68,0,0,0,1.18.8,3.68,3.68,0,0,0,2.91,0,3.66,3.66,0,0,0,1.2-.8,3.77,3.77,0,0,0,.8-4.1m-.66,2.63a3,3,0,0,1-1.62,1.61,2.88,2.88,0,0,1-1.17.24,2.93,2.93,0,0,1-1.18-.24,3,3,0,0,1-.95-.65,3.07,3.07,0,0,1-.65-1,3,3,0,0,1-.23-1.18,3,3,0,0,1,.88-2.13,2.82,2.82,0,0,1,.95-.65,2.92,2.92,0,0,1,1.18-.23,2.87,2.87,0,0,1,1.17.23,2.9,2.9,0,0,1,1,.65,3,3,0,0,1,.88,2.13,3,3,0,0,1-.23,1.18" transform="translate(-25.17 -38.07)" style="fill:#231f20"/><path d="M513.66,297.62a1.82,1.82,0,0,0-.54-.36,1.67,1.67,0,0,0-1.34,0,2,2,0,0,0-.54.36,1.87,1.87,0,0,0-.36.55,1.65,1.65,0,0,0,0,1.33,1.87,1.87,0,0,0,.36.55,2,2,0,0,0,.54.37,1.69,1.69,0,0,0,1.88-.37,1.72,1.72,0,0,0,.37-.55,1.65,1.65,0,0,0,0-1.33,1.72,1.72,0,0,0-.37-.55" transform="translate(-25.17 -38.07)" style="fill:#231f20"/><path d="M379.89,244.86a5.09,5.09,0,0,0-1.1-1.64,5.25,5.25,0,0,0-1.64-1.1,5.2,5.2,0,0,0-4,0,5.07,5.07,0,0,0-2.72,2.74,5.2,5.2,0,0,0,0,4,5.07,5.07,0,0,0,2.72,2.74,5.2,5.2,0,0,0,4,0,5.25,5.25,0,0,0,1.64-1.1,5.09,5.09,0,0,0,1.1-1.64,5.2,5.2,0,0,0,0-4M378,244a4.06,4.06,0,0,1,.85,1.26H376l-.82-2.44a4,4,0,0,1,1.53.32A3.84,3.84,0,0,1,378,244m-5.71,0a4,4,0,0,1,1.28-.86,3.7,3.7,0,0,1,1.37-.3l-.81,2.42h-2.68a4.21,4.21,0,0,1,.84-1.26m-.86,4.43a3.89,3.89,0,0,1-.31-1.57,4.16,4.16,0,0,1,.23-1.32l2.16,1.71-.88,2.74c-.12-.09-.23-.17-.34-.27a4.22,4.22,0,0,1-.86-1.29m5.28,2.15a4,4,0,0,1-3.14,0,3.77,3.77,0,0,1-.78-.45l2.27-1.7,2.39,1.75a4.36,4.36,0,0,1-.74.4m2.16-2.15a4.08,4.08,0,0,1-.87,1.29,3.89,3.89,0,0,1-.39.32l-.91-2.79,2.23-1.75a3.85,3.85,0,0,1-.06,2.93" transform="translate(-25.17 -38.07)" style="fill:#231f20"/></g></g><g id="Layer_3" data-name="Layer 3"><path d="M254.19,129.55c1.41,0,1,3,1.68,3.6,1.33,1.34,2,.4,2.88,1A10.59,10.59,0,0,0,260,136c.6.48,1.21-.47,1.92.24,1.86,1.86,3.3-2.58,4.8-3.84,1.08-.9,1.43-1.68,3-1.68.83,0,1.39.36,2.24.12,2-.57,1-.59,1.72-1.56.14-.17.33-1.33,1-1.92.81-.74,1.37-.09,1.68-.24,1.48-.69,2.87-1.31,4.32-2,.86-.43,1.19-.27,2,.24,1.39.84.94-.78,2-.6s1.25,0,2.17.72c.5.42-.85,1.16,0,1.68,2.12,1.32,6.1-1.49,7.92,1.2.51.77-1.14,2.88,1,2.88,1.42,0,4-.72,4.32.72.35,1.75-1.33,1.44-1.92,2.64s-.22,2.27.12,3.6,2.14,1.66,1.92,2.77c-.37,1.82-1.1,2.95-.84,4.92,5.05-2.42,3.44,4,2.88,6-.37,1.35-1.29,3.47-.48,4.8.72,1.18,2.16.7,3.6,1.2s2.47,1.28,3.84,1.44a16,16,0,0,1,3.48.6c2.52.84.1,1.18.84,2.28.95,1.41,2.57-.38,2.16,2.88,0,.16-2.33,5.39-.36,4.08s3.65,1.18,5.64,1.44c5.19.68,6.93-3.89,10,2.16.43.85,1.9.83,2.52,1.92.37.64-.67,1.17-.24,1.92s1.62.94,2.28,1.2c1.59.63,3,.71,4.56,1.56.85.47,2.38,1.94,3.24,2s1.34-.53,2.28-.84c2.17-.72,5.15.49,6.84-.84.65-.51,1.48-2.79,2.16-3.6a10.6,10.6,0,0,1,3.12-2.64c4-1.71,4.1,2.4,7.21,2.4,1.57,0,1.19,1.74,1.19,2.64,0,.28-.67.76-.71,1.2-.08.7.81,1.56.71,2.16-.24,1.5-1.5,1.92-1.8,3.12-.64,2.57-.46,2-2.52,3-3.11,1.55.38,5.65.24,7.8-.11,1.8-1.9,1.74-.24,3.36,1.11,1.07,4,.84,4.93-.12,1.39-1.39,2.63,3.66,3.47,4.08,1.58.79,4.88-.79,6.25-1.56,1.59,4.09,3.83-1.46,4.8-2.16,1.41-1,6.36-1.07,7.68.24,1.1,1.11,2.41,1,3.6,1.56,2.13,1.07-.5,2.27,1,3.48,2.66,2.21,3.88-7,5.52-6.72-.2-.85,0-1.8-.24-2.64,2.81-.53,2.6.5,3.12,2.88a64.75,64.75,0,0,0,1.32,6.6c1.53,4.61,5.94,3.61,7.8,7.32a15.71,15.71,0,0,1,.84,2.28c.33,1,1.5.95,1.92,1.8.91,1.81-.62,2.86,1.2,4.68.9.9,3.78,2.54,4,3.48.1.53-1.61,3.32-1.92,3.84,2.51.9,4.63,2.76,7.2,2.64.51,0,4.63-1.54,4.8-1.92.46-1-1.2-1.72-1.2-2.88s-1.16-1.88-1.44-2.88c-.4-1.41,0-2.28,0-3.72,0-.8-.48-1.45-.48-2.28,0-1.09,1.62-.11,2.16-.48,1-.69,1.19-1.88,2.4-3.12" transform="translate(-25.17 -38.07)" style="fill:none;stroke:#231f20;stroke-linejoin:round;stroke-width:1.5px"/><path d="M92.89,56.59c.34.76,1.68,2.1,1.68,2.88,0-.12,1.14,3,1.2,3.12A12.13,12.13,0,0,1,96,64c.08.26,1.07-.26,1.2.72s-1.27,2.81-.72,3.36c2.77,2.76,3.14,2.19,6.72,2.4,1.21.07,1.09,1.15,2.76.6,1.22-.41,1.28-.87.12-1.8,2.16-.4,4.06-4.13,3-6.24-.63-1.28-2.14-1.6-1.32-2.64,1-1.28,3.2.33,4.08,0a12.23,12.23,0,0,0,2.88-2.4c1.82-1.82,1-1.66,1.68-4.08.22-.8,1.29-1.49,1.44-2.16.1-.41-.66-1.35-.72-1.2.17-.46,1.66-1.46.6-2.16-1.37-.92-.72-.6-.6-2.16.06-.67-.22-1.21,0-1.93.08-.23,1.66.35,1.68-.48,0-1.34-2.4-1.3-1.2-2.88,1.11-1.43,2.77.72,3.6,1.2,1.68,1,3.35,2.16,5.41,2.16,1.21,0,.11-3.07.84-3.84,1.1-1.17,5.4,2.28,4.08-1.68,1.57.62,3.46,1.38,5,2.16,1.36.68,1.94,1.93,3.12,2.4s2.76,0,4.08.25a37.08,37.08,0,0,1,4.32,1.44c1.07.33,3,2.24,4.2,1.44,1.64-1.1,1.8,2,3.72,2.16.8.08,1-1.68,1.68-1.32.45.22,1.4.77,1.92.6,1.82-.6,1.86-2.84,3.84-.24s-1.28,5.6-.48,7.92c0,.08,2.5,2.55,2.64,2.64.79.49,1.92.3,2.4.72,1.07.94-.81,1.72.84,2.28,1,.33-3,5.34-1.08,6.84.61.48,3.15,0,3.84-.36.93-.47,3,1.67,3.6,2.28,1.26,1.26,2.14-1.24,3.12.72,1.18,2.35,1.83.18,3.72,1.44s4.54,4.68,6.84,5c1.14.18,1.52-1.4,3.12-.6,1.76.88,2.27,5.31,4.08,5.76,3.77.94-2.52,5,3.72,2.88,1.33-.44,2.78-.41,3.49,1.32,1,2.39-.94,1.44-1.93,3.12-1.63,2.79,2.94.6,4.21,3.12.64,1.28.63,1.29,2.16,1.8,2.16.72.48,1.54,2,2.52,1.37.87,6.4-.84,7.68-1.68.18.85-.43,3.84,1,3.84,1,0,3.25-1.17,3.72-.24.75,1.5,3.64,4.72,5.16,4,1.09-.55,2.32-1.18,3.6-.6,1.13.52.6,2.88,2,1.92,1.79-1.19,1.14-.23,2.52.48,1.07.55,2.86.94,3.6,2,.36.54-1.19.86-.36,2.52s0,1.76,2,2.4c1.36.43,1.72-1,3.12.72.62.76.28,2.59,1.2,3.6,1.18,1.3,2.46,1,3.36,1.92s-.08,2.74.24,3.84c.23.79,1.15.68,1.44,1.44.2.53-.08,1.45,0,1.68" transform="translate(-25.17 -38.07)" style="fill:none;stroke:#231f20;stroke-linejoin:round;stroke-width:1.5px"/><path d="M452,227.24c.61-.53,2.5-.48,2.88-1,.68-.86-.2-1.63,0-2.4.24-.95,1.2-2.24,1.2-3.12,0-1.36.15-1.17,1.32-1.56s.23-1.89.6-2.76c1.85-4.4,2.24,1.2,3.6,1.2,2.53,0,3.41-3.58,5.88-2.76a11.68,11.68,0,0,1,2.76.84c.55.35.35,1,1.44,1.44-3,3,1.26,2.91,3.36,4,1.24.62,1.85-1,3.12-.6,1.57.55,1.19,2.64,3.48,2.64,2.05,0,.22,1.43,1.08,2.16,1.54,1.32,3.83.16,5.52.48,2.74.53,3.75,2.3,5,4.32.5.78,1.47,2.9,1.92,3.36.91.94,2,.59,2.88,1.44a6,6,0,0,0,3.12.72c2.23-.21,1.4-.95,3.12-1.92,2.37-1.33,4.52,1,7,1,.53,0,6.22-4.88,5.76-1.44,0,.3-1.92.9-2.16,1,2.83.66,3.39-.18,6-1,.95-.28,2-.13,2.88-.48s.92-2.06,2.4-1.32c2.08,1,.08,4,3.12,3.48,1.11-.17.7-1.95,2.17-1.68,1.17.23,1.14,1.31,1.19,2.4,1.09-.57,2.79.26,4.09-.48a29.83,29.83,0,0,0,2.88-4.08c.38-.73.12-1.74.48-2.4a11.23,11.23,0,0,1,1.92-1.92c1.2-1.2.32-3.44,2.88-1.68.63.44-.58,1.49.36,1.8,1.21.41,2,0,3.24.12s4.65,2.11,5.28,1.8a11.05,11.05,0,0,1,2.64-1.32c1-.07,1.8,1.38,2.88.84,1.75-.87,1.68,2.81,4.32.6" transform="translate(-25.17 -38.07)" style="fill:none;stroke:#231f20;stroke-linejoin:round;stroke-width:1.5px"/><path d="M430.37,213.56a2.43,2.43,0,0,0,1.68-2.64,3.77,3.77,0,0,0,.62,2.38c.37.55,1.76,2,1.78,2.66s-.73.76-.72,1c.13,1.8-.57,6.26,1.56,7.68,1.59,1.06,3.71-.49,4.92.72s2,3,2.88.48c-.39,2.55,1.69,1.48,3.12,2.16" transform="translate(-25.17 -38.07)" style="fill:none;stroke:#231f20;stroke-linejoin:round;stroke-width:1.5px"/><path d="M43.2,121.63c-.19-.52-2.15-.47-2.15-1.68a7.22,7.22,0,0,0-.49-2.16c-.44-1.39.26-2.14-1.92-2.88.51-1.35,0-3.27,1.92-3.12" transform="translate(-25.17 -38.07)" style="fill:none;stroke:#231f20;stroke-linejoin:round;stroke-width:1.5px"/><path d="M28.32,147.08c.63-.67,1.06.23,1.8-1a3.62,3.62,0,0,0,.6-1.45c.15-.57,0-2.5.43-3.73.39-1,.49-3.32,1.49-3.83a4.8,4.8,0,0,0,1.44-2c1.58,1.83,3.72,2.08,5,.24.93-1.28.7-.65,0-2.88-.25-.81-1-2.18-.72-3.36,1,.74,1.8,1.16,2.88,1.92" transform="translate(-25.17 -38.07)" style="fill:none;stroke:#231f20;stroke-linejoin:round;stroke-width:1.5px"/><path d="M563.59,228.92c1.38.87,5.6,1.86,3.43,3.59-1,.81-.67.91.1,2,1.08,1.52-.23,1-.65,2.35a6.3,6.3,0,0,0,0,1.68c0,1.09-1.44.27-1.44,1.45a15.65,15.65,0,0,1-.6,4.91c-.24.73-1.18,1.06-1.56,1.81s0,1.6-.48,2.4c-1.31,2.09-1.53,2-2.16,4.08-.36,1.17-1.2,1.88-1.2,3.48,0,.81-1.06,1.46-1,2.28.07.62,1.4,1.81,1.68,2.52.87,2.17-1.41,2.75-1.44,4.92,0,1.67,1.85,2.8,1,4.14-2.11,3.37-2.28,7.5-2.69,11.22a12.06,12.06,0,0,1-1,3.95c-1,2,1.74,2,1.74,3.85,0,3.26,2.31,2.43,4.08,3.48s1.89,3,4.08,3.6c-.82.73-1.57,2.58-.24,3.24,1.51.76.74,2.31,1.45,3.37,1.54,2.32,2,2.82,2.63,5.63.81,3.65-.09,6-.72,9.36-.28,1.48.17,2.91-.24,4.32-.28,1-1.68,2.24-2.16,3.12-.71,1.31-.69,5-1.8,6.13-.83.83.59,5.35-.36,6.83-.44.68-2.26,1.55-3,2.28-1.29,1.29-.57,2.92-2.52,2.53-1.42-.29-.49-1.39-1.2-1.92a12.76,12.76,0,0,0-1.94-.73c-1.28-.64-3.68-1.54-2.62-3.11-.56,0-1.09-.31-1.68-.25a1.8,1.8,0,0,0-.48-2.63,7.19,7.19,0,0,0-3.12,3.83c-1.7-.35-2.25-2-4.08-2.64-.67,1-.48,4.08-1.68,4.81-1.5.9-4.1-2.36-6-1.68.35.95-1.5,3.11-2.29,3.11-2.35,0-2.37.89-4.43-.23-3.82-2.08-7-4.34-11.72-1.68-2.48,1.42-1.88,2.21-3,4.56a1.68,1.68,0,0,1-1.92.48c-1.16-.78-3.11-.59-4-1.21-.66-.48.22-2.05-1.2-2.87-1-.61-1.44.44-2.4.48a4.75,4.75,0,0,0-1.92-.48c-.05,0-1.37,1.24-2.52.48-4.87-3.25-5-7.44-5.83-12.88-.39-2.54-2.42,2.3-2.69,2.43-.87.44-1.16,1.4-2.16,1.8s-2.25.05-2.88.36c-1.69.84-.73,1.59-1.68,2.52-.32.32-1.63-.32-1.92,0s-.26,1.59-.72,1.92c-2.25,1.63-4,2.25-6.84,1.21-2.3-.84-2,3.14-4.2,2-1.52-.75-3.21-1.84-5.15-2.81-1.78-.89-6.14-1.9-6.73-4.27-.44-1.73-6.39-2.91-8.05-3.6-2.66-1.11-5.62-3.36-7.84-3.36a24.94,24.94,0,0,0-4.16.24c-2.69.89-.5,1.87-3.6,1.2l-.24-1h-1.44c-.47-.16-1.34.25-1.72.36-.14,0-3.38-2.07-4.22-2.49-1.11-.55-2.58-1.75-3.9-1.71a14.45,14.45,0,0,0-4.56,1.44c-.86.91-.36,2.23-1,2.88-.27.3-1.44.15-1.92.48-1.67,1.15-2.95,3.1-4.8,3.12.74-2,.47-2.09-1-3.36.61.54-1.81,0-1.68,0-.94-.32-2-1.42-3.08-1.86-4.25-1.82-2.68-5.6-2.68-9.37,0-2.42,0-3.82-1.85-5.32a5.25,5.25,0,0,0-2.49-1.27c-1.37-.17-2.13-2.08-2.86-2.1-1.13,0-.9,1.35-1.44,1.44.25,0-2.17.45-1.44,0a10.58,10.58,0,0,0-3.19,2.05c-1.26,1.51-2.22,1.25-3.77,2-.58.29-.45,1.44-1.56,1.44-1.28,0-2.69-.79-3.72.24a12.24,12.24,0,0,1-5,2.88c-1.33.19-5.11-1.08-6.48-1.44s-1.06.83-2.12-.77c-.69-1-1.75-1.91-.89-3.07,1.22-1.62.59-4.08-1.31-4.08h-4c-1.07,0-1.07,1.12-1.32,1.2-1,.33-4.08,1.06-4.08-.12s1-1.74,1.92-2c-1-.75-2.13-.29-3.36-.6s.11-2.14-2.64-1.32c1.37-2.35-.37-4.08-2.88-4.08a7.24,7.24,0,0,1-4.08-1.2c-1.05-.78-1.11-2.52-2.64-2.64-.95-.07-1.53,1.25-2.4,1.44-.61.13-.51-2.13-1.8-.84s-6.33-2-8-2.52c.33-1.59,1.45-2.51,1.92-3.6.54-1.25.33-3.37,1.2-4.56-.68-.67-.74-2.61-.24-3.6.9-1.8-1.67-4.9-2.45-6.39-1.28-2.47-2-3.4-4.91-4.05-2-.44-5-.4-6.56-1.56-.38.59-10.13-.87-11.52-1.44-.61-.25-1.64-.1-2.16-.72s.28-2.26-.72-2.76c-.81-.41-.63-1.18-1.68-1.44-.87-.22-1.59.88-1.92.72-.92-.46.34-1.91-1.2-2.16a3.11,3.11,0,0,1-1.92-1.08c-1-1-1.08-3.16-1.92-2.52-2.16,1.61-1.67-1.86-2.76,1.44-.39,1.15-1.95.59-2.12,1.45-.36,1.81-.32,2.15-1.84,2.75s-4.13,0-6,0c-1,0-4.56.6-5.76,0-3-1.51-.61,2.22-.12,2.88,1.11,1.48,1.83,5-1.08,3-4.46-3.13-9.8-5.26-14.67-7.7-2.27-1.13-15-2.09-16.29-.58.83.38,1,.53,1,1.44,0,.48-1.27.62-1.2,1.44,0,.33,1,.63,1,1,0,1,1-.05,0,1.72-.4.69-.73.42-.73,1.28s-1,1.31-1.44,1.8-.53,1.08-1.2,1.44-1.61-.14-1.8.24c-1.39,2.79-3.42-4-3.48-4.08-.67-1-2.84-2-3.84-2.88-1.47-1.36-1.33-2-3.6-2.4-3.31-.59-6.82.44-10.24.06-4.07-.45-3.65-3.78-7.7-3.51a58.69,58.69,0,0,1-8.71-.39,6.6,6.6,0,0,0-1.2-4.32c.3.13.69.12,1,.24-.51-1.11.24-1.47,0-2.64,0,0-1.5-2.52-1.44-2.4l.48-.48c-.19-.88-1.45-1.74-1.68-2.4-.32-.93.67-3.51-.72-4.21-2.61-1.31-9.69,3.84-11.76,1.57-4.15,3-8.2-.3-10.84-3.6-1.17-1.46-3.9-2-5.35-3.47s-3.58-2.66-5.24-4a15.28,15.28,0,0,0-2.29-1.44c-1.66-1-1.31.16-3.14-.53s-2-4.22-4.19-4.56-5.77-1.36-7.07.59c-1.07,1.6-1.78,4.31-3.88,4.26-1.49,0-3.32-2.31-4.56-3.12a49.77,49.77,0,0,1-6.83-5.47c-1.94-1.79-4.26-.92-6.13-2.33-2.12-1.59-4-2.88-6.27-4.3-.88-.55-2.72-.8-3.34-1.58s-.06-1.21-.48-1.92c-.58-1-1.24-3.81-2.16-4.56-1.7-1.39-4.8-1.18-6.87-1.82s-3.61-2.73-4.83-4.43c-2-2.79-1.44-3.52-2.22-6.47A5.17,5.17,0,0,0,99,194.6c-3.2-1.17-6.88-1.83-9.48-2.88a6.61,6.61,0,0,1-.48,1c-1.27-1.12-.46-1.93-.24-3.12-.14.17-.15.62-.24.72-.92-1.48-1.76-2.71-3.12-.72-.73-.63-.47-1.26,0-1.92-1.26,1.84-2.8-.55-4.56-.24-.52-1.41.36-2.21-1-3.12a2.62,2.62,0,0,0-2.76.48c0-.09-2.13-1.1-2.52-1.44s.08-1-1-1c-1.52,0-.13-.82-.48-1.2-2.16-2.36-4.42-1.76-6.48-3.84a9.14,9.14,0,0,1-1.32-2.88c-.44-1.74-3.3.08-4-1.92-2.2.59-.74-1.42-1.2-1.92a3.87,3.87,0,0,0-3.6-1c-5.09,1.56.59,7.7-1.44,10.08-.71-.82-2.05-1.39-2.64-2.16-.93-1.21-.8-3-2.16-3.84-2.73-1.69-5.16,1.36-7.45-2.4-.42-.7-.58-2.84-1.08-3-.66-.22-4.41-1.35-3.48-2.28,1.71-1.71-3.84-2.89-4.92-3.6-1.42-.95-2.23-3.08-3.72-3.84-1-.53-3.84.33-3.84-1.08" transform="translate(-25.17 -38.07)" style="fill:none;stroke:#231f20;stroke-linejoin:round;stroke-width:1.5px"/><path d="M92.89,56.59" transform="translate(-25.17 -38.07)" style="fill:none;stroke:#231f20;stroke-linejoin:round;stroke-width:1.5px"/><path d="M40.56,111.79c.45.08,1.45-.12,2.16,0-1.19-1.21-1.1-3,.72-2.64.22-1.47,2.46-1.74,3.13-3.12.22-.45-1.12-.89-.48-1.92.12-.2,1.65-.27,1.92-.48,2.09-1.7,3.17-5.08,2.16-7.2-.16-.33-1.2-.06-1.2-.84a10.72,10.72,0,0,0-.48-2c-.62-2-.73-2.68,0-4.08a20.19,20.19,0,0,1,2.64-3.36c1.58-1.16,3.36-.12,5.28,0-.38-1.76,3.77-3.7,4.56-5,1-1.74.77-4.39,2.39-6.41s4.12,0,6.25-1.51c.64-.45,2.35-1.88,2.4-1.92.24-.21,1-.43,1.37-.71.93-.75.29-1.7.79-2.41a16.57,16.57,0,0,1,1.92-1.92c.56-.55,3.58-2.37,3.72-2.64.41-.83,1.86-1.1,2-1.44.44-.84-.38-3.66-.24-3.72,1-.51,1-1.65,1.75-2.36" transform="translate(-25.17 -38.07)" style="fill:none;stroke:#231f20;stroke-linejoin:round;stroke-width:1.5px"/></g></svg>