<svg xmlns="http://www.w3.org/2000/svg" viewBox="0 0 152.8 202.7"><title>wappo map</title><g id="Layer_1" data-name="Layer 1"><g id="Layer_4" data-name="Layer 4"><path d="M-44.9-29.2l-.1.2.4.5-.9,3.4-.4.3-.1.7.3.6-.1.3h-.5l-.1.4.3.7a1.61,1.61,0,0,1,.7.4l-.7.3-.1.3.5.6-.2.9-.4.2a2.92,2.92,0,0,0,.1,1.6l-.2.3.1.6c-.2.1-.3.5-.3.7l.3.6a1.16,1.16,0,0,1-.5.7l.1.5.6.3v.3h-.5l-.3.3.4.6-.5.6.2.4a2,2,0,0,1,.9.9l-.1.3.5.8.2-.1.3.2v.5l.6.8-.3.3-.6.3-.2.5.8.6h.7l.3.2L-44-6l.1.7h-.6l-.1.2c.3.6-.3,1.6.4,2l.6-.1.8,1.7-.1.3.8,1.9-.2.4.1.4.7.6-.4.4c.3.1.5.6.6.8l-.1.3-.4.1-.1.2.5,1-.2.5.1.4a2.1,2.1,0,0,0,1.1.4c.2,1.7.8,1.5,1.4,2.5.3.5.6,1.2.9,1.7l-.3.4.1.4-.2.4.4.6h.4l.8.7a1.39,1.39,0,0,0,.2,1.1l-.2.3.5.7c-.2.7.4,1.1.6,1.7a12.25,12.25,0,0,1,.2,1.9c.1.2.2.5.3.7.1.6.2,1.2.3,1.7a8.8,8.8,0,0,1,.5,1.5c.2.8,0,1.7.4,2.4-.3.4-.2.8-.3,1.3a18,18,0,0,1-.6,3.2c-.1.3-.3.4-.4.6-.6,1-.9,1.9-1.4,2.8-.3.5-.8,1-1.1,1.5l-.4.1-.5-.2-.2.1a21.28,21.28,0,0,1,1.6,2.5l-.4.7.3,1.1,1.2.3.2.6.2.1c.3.2.6,1,1,1.3a5,5,0,0,1,1.5,1.4l.1.3a3.13,3.13,0,0,1,1,.5c2,1.6,1,2.4,2.3,3.9,1.2-.1,1.8,2.4,3.1,2.1a2.45,2.45,0,0,1,1.1,1.7l-.2.4a2.59,2.59,0,0,1,1.1.7h1.1c.4.4,1.7,1.5,1.8,2.1a4.81,4.81,0,0,1,2.3,1.7c.4.5.4,1.2.9,1.6v.6c.5.3,1.2.7,1.4,1.2.2,0,1.5.5,1.6.5.7.5,1.3,1.4,2.1,1.8.4.3,1,.3,1.3.8a3.38,3.38,0,0,0,.6,1.2c.2.3.7.5.9.8.3.5.6,1,.9,1.4a2.77,2.77,0,0,0,.1.9l1.2.7a3.37,3.37,0,0,0,1.1,1.7l.2.9.2.2.1.6c1.5.9,1.8,2.8,3.1,3.8v.3l-.3.5c0,.2,1.4.9,1.6.9.7.6,1.7,2,1.4,3l.6.7h.5l.3.6a5.56,5.56,0,0,1,1.7.9L2,82c.2,0,.5.4.6.6,1.1.2,1.7,1,2.7,1.5a4.63,4.63,0,0,0,1.3,1.8l.2.6.7-.3c.3.4,4.8,2.8,5.5,3.3,1.5,1,1.2,1.1,2.1,2l.9.6c.2.2.4.5.6.6.8.4,1.4.3,1.9,1.3l-.1.7a3.51,3.51,0,0,1,.6,1.4l.5.2.4.8.6.3a6.94,6.94,0,0,1,.8,2.8c1.5.5,2.7,3.9,2.8,5.4a14.46,14.46,0,0,1-.4,2.9l-.5.1v.3a2.65,2.65,0,0,1,.6.5l-.1.4a5.37,5.37,0,0,1,1,1.6,1.06,1.06,0,0,0,.8-.1.86.86,0,0,0-.3-.6l-.2.2-.3-.7.6.3-.3-.7.5-1-.6-1.3.1-.5c1.1.4,1.1,1.2,1.8,1.5l-.3,1.1h-.6l-.2.2c1.8.1,3.1.2,4.1,1.9a2,2,0,0,1,.8.4v.6l.4.6a1.14,1.14,0,0,1,.8.3,1.79,1.79,0,0,0,.4,1.4l.3-.1.2.1a7.94,7.94,0,0,1,1,2.7l.4.7c.8.9,1.9,1.3,2.6,2.3a8.75,8.75,0,0,1,1,2.2c.5,1,1.4,2,1.9,3,.2.4.4.7.6,1.1a48.67,48.67,0,0,0,4,5c.2.3,2.1,3.6,2.3,4.1a2.77,2.77,0,0,1,.3,1.3,11.92,11.92,0,0,1-1.8-1.5,12.88,12.88,0,0,1-1.7-1.6c-1.8-2.5-3.1-5.4-4.8-8-1.5-2.3-3.6-4-5.4-6.1l-.8-.9-.8-1-.5-.2c-.3.6.7,1.7,1.1,2.1.1,1.9,1.2,1.6,1.7,3.6a2,2,0,0,1-.1,1.3l1,.7c1.3,2.7.1,4.9-.7,7.6a51.53,51.53,0,0,1-2.4,7.6c-.7,1.5-1.5,2.8-2.1,4.4a3.55,3.55,0,0,0-.4.9c-.1.3-.8.5-.8,1l.1.3a2,2,0,0,0,1.3-.2,2.84,2.84,0,0,0,1.2.4l.5-.2.3.2c.7-.2,1.5.4,1.9.2l-.1-.3-1.3-.8-.3-.6c.9-3.6,3.8-2.9,4.4-3.6l-.3-1.1c-.8-.7-1.7-1.2-1.8-2.3l.2-.6a1.61,1.61,0,0,1,1.1-.5c.6-.4.7-1,1.1-1.5,1,1.2.9,3.5,1.5,4.1a14.44,14.44,0,0,1,4,1.8l1.1.6c1.7.5,4.2,3.3,5,5.1l.9.4a10.1,10.1,0,0,1,1.8,4.1l.4.1.3.4.6.1.5.7a2.35,2.35,0,0,1,1.6.5c2.3,1.6,1.4,3.2,2.3,3.6l.9.3c.1.3.4.9.7,1l.6-.3c.3-.7.5-.8,1.2-1.1a3.33,3.33,0,0,1-.1-2.2,2.36,2.36,0,0,1-.6-.9l.1-.5a2,2,0,0,1,1.1.9l.7.2c.3.4,1.6,1.6,1.7,1.8a2.82,2.82,0,0,0-1.8.2l1.7.3.2-.4c.4.8,1.2,1,1.7,1.6.4.4.6,1,1,1.4.7.7,2.1.1,3,1.2.4.5.5,1.4,1.1,1.6l.8-.2.5.7h.6l.2.1.4,1.1.5.3.3.8,1.1.6.7,1.7.2-.1.3-.6.5-.2a2.28,2.28,0,0,1,1.6.4,3.46,3.46,0,0,1,1.6-.8l.5.3.2-.2.2-.9.4-.2v-.4a2.67,2.67,0,0,1-.5-2.1,2.83,2.83,0,0,0-1.8-1.4l-.3-.6a2.54,2.54,0,0,1-1.2-1.3l-.9-.2v-.5c1.2,0,1.4.8,2.3,1.1l.1-.2-.6-1.2.2-.6.3.2.9.1c2.6,1.4.8,2.5,2.6,3.5l.4-.1-.3-.7.1-.3c.1.1.6,0,.8,0a1.34,1.34,0,0,0,.6-.7l.6-.3a3.92,3.92,0,0,0-.8-1.4c-1.2.1-2.8-1.1-2.7-2.4l-.9-.9c-2,.1-1.4-1.6-2.3-2.6a5.84,5.84,0,0,1,2.2.8,3.92,3.92,0,0,0,.8-1l-.2-.4-.9-.1c-.3-.1-.6-1.2-.7-1.4l.4-1.2.8.1.4-.5.6-.1.2-.9.6-.1.9.5.6-.7c.1-.5-.5-1.4-.8-1.7a6.22,6.22,0,0,1-3-1.8c-.3.1-.8-.2-1.1-.3A17.85,17.85,0,0,0,78,142c.1-.4.3-.8.4-1.2.1-.6,0-2.1.8-2.4a14.08,14.08,0,0,0-.1-2.9c-.1-.3-.5-.5-.5-.9l.2-.4-.2-.4c-2.6-1-1.7-3.3-3.3-4.4l.1-.3c1.6.7,1.3,3.2,2.6,3.7a23.48,23.48,0,0,0,3.7-.5l.5-.6.4.8.3.1a13.55,13.55,0,0,0,3.7-3,3.18,3.18,0,0,0,.2-1.4c1.2,1,4.2,1.6,5.6,2.4.4.2.8.6,1.3.9a8.39,8.39,0,0,1,2.8,1.8c.1.1.3.7.4.8.8.9,1.6,1.8,2.4,2.6.1,0,.3.4.4.6l.6-.1.7.1.3-.5.7-.1c2.6,1,1.7,1.8,4.9,1a14.42,14.42,0,0,1,2.7,2.2h1.5c.1-.1.8-.6.9-.7.7-.7,1.3-1.5,2-2.2,1.1-1.2,3-2.1,3.7-3.6.4-.8.2-1.9.4-2.8.8-1.2,4.5-2.5,5.9-2.3a.6.6,0,0,1,.4.1,2.3,2.3,0,0,1,1.7,2.6c-.3,1-1.6,1.9-2.1,2.8l.1.7c1,1.2,4.9,1.9,6.4,1.8.8,0,1.4-.3,2.2-.3l.5.3-.1.6c-.4.5-1.5,1.2-1.7,1.6l.3.5c1.3-.1,4.1-.5,5-1.5l-.1-.7.3-.5c1.2-.3,4.9,1.1,6.5.8.4-.1,1-.3,1.4-.4a4.81,4.81,0,0,0,1.6-.8c2.9-1.9,4-4.4,6.2-6.9.4-.4.6-1,1.1-1.3a19.68,19.68,0,0,1-.6,3.5c-.3,1-1.1,1.8-1.4,2.8-.1.2-.1.5-.2.7a3,3,0,0,1-.8.8c-1.2.7-5.8.8-5.9,3a1.91,1.91,0,0,0,.7,1.4c2.1,2,3.9.7,6-.4a8.17,8.17,0,0,0,2-1.2,2.84,2.84,0,0,0,.4-1.2,2,2,0,0,1-.2-1.5c.6-2.3,2.8-1.6,4.5-1.6,2-1.2,2.3-2,4.9-1.3.4.1,1,.1,1.3.2,1.4.6,1.3,3.4,2.6,4,.7.2,1.3.4,2,.6a25.64,25.64,0,0,1,3.5,2.2c.7.6,1.3,1.4,2,2.1.9.8,2.8,2.2,2.9,3.5l-.3.6c-1.4.1-2.3-1.7-3.2-2.5-.6-.5-1.6-.6-2.1-1.1s-.2-1.2-.6-1.7l-.7-.3a6.12,6.12,0,0,0-1.2.5c-1-.1-1.2-.9-1.7-1.6l-.4-.2a8.34,8.34,0,0,1-1.2-.8c-.6-.3-1.2-.5-1.8-.8-.2-.1-.3-.2-.5-.3a6.36,6.36,0,0,1-.6-1.8c-.1-.2-.1-.3-.2-.4a2.58,2.58,0,0,0-3.6-.7c-.4.3-.7.9-1.2,1.2l-1.4-.3c-2.6-.1-1.3,3.3-2.7,4.6-.2.1-.3.2-.5.3a4.31,4.31,0,0,1-2.2.9l-.3.7.3.6c.9.5,2-.2,2.7.6l.1.6a6,6,0,0,1-3.2.7c-1.3-.2-2.2-1.4-3.5-1.5a17.7,17.7,0,0,1-2.3.1c-1.5-.1-2.9-.4-4.4-.6-.7-.1-1.5-.1-2.3-.2-1.8-.3-3.2-1.4-4.9-1.9a45.2,45.2,0,0,0-5.3-.6c-1.1-.2-4-.3-4.8-1.1a35.53,35.53,0,0,0-4.6.3c-2.1.6-6.1,3.1-7.4,3.3h-1.6c-2.6-.2-5.7-5.6-9.6-3.2a2.35,2.35,0,0,1,.2.8c-.2.1-.4,1.3-.5,1.6l-.8.3a4.35,4.35,0,0,1-.8,1.5l-.5.1c0,.4-.7,1.2-1,1.4a12.1,12.1,0,0,1-1.9-.1l-1.2,1.1c-.9.4-1.6-.7-2.6-.6a2,2,0,0,0-.8-.4l-.3.6c.1.8,1.1,1.5,1,2.1a4.07,4.07,0,0,1-1.2,1.7l-.9-.1-.2,1.1c-.3.2-.8.6-.8,1h-.4l-.1.7a1.7,1.7,0,0,0-1-.6l-.2-.9c-.5.2-1-.2-1.6,0l.3.9.4.2.1.3-.2.5.1.4.7.2.2.3.1,1,.9.1,1.3,1.3.1.4-.4.8.1.3a2.66,2.66,0,0,1,1.2-.3l.7.6h.5l.2-.2-.3-1.1-.7-.8c.2-.1.6,0,.8,0,0,.3.6.9.6,1.8l.7-.7.5.1.1.2-.2.5h.5c.2-.1.6-.4.8-.4a2.37,2.37,0,0,1,1.3,1.1l-.2.4.5.1c.1.2.3.7.4.9l-.3.2-.2.5c.8.4,1.8,5.2,2.1,6.1l-.2.4-3.5.7-.2.4.2.2.7-.2.7.2,1-.4a.76.76,0,0,1,.2.5l-.6.1a1.76,1.76,0,0,1-.8.9h-.7v.3c0,.2.4.4.4.6h-.3c.9,1.2,3.3.9,4.5.8.6,0,1.1.7,1.8.8l.3.4.8-.1c.6.3.4.6.8,1s1.9,1.4,1.9,2.1h.4l.3.8.4.1a1.43,1.43,0,0,0,.6,1.2l-.4.2-.4-.4-.5.3c-.5-.6-1.2-.4-1.6-.9l.1-.4.6-.4.1-.5c-.2-.6-2.5-2.1-3.3-2.6h-.4c-.2-.4-.9-.6-1.3-1-.9-.1-1.6.2-2.5.1a6.75,6.75,0,0,1-1.4-.2c-.5-.1-.7-.5-1.3-.5l.4,1.2h.3l.2.8c.3.2,1.1.6,1.5.4l.3-.4h.8v.2l-.3.6c.1.2.7.4.9.5l.7-.2.7.5.7-.1c.3.4.8.4,1.2.6a5.78,5.78,0,0,1,1.8,2l-.2,1a2.88,2.88,0,0,0-1.3-.1v.2l1,.9c0,.3-.5.8-.7,1a4.88,4.88,0,0,1,2.4,2.5l.5-.1c.3-.2.5-1.1.6-1.4a4.18,4.18,0,0,1,1-.4c.1.2.4,1.1.6,1.2h.4a6.82,6.82,0,0,0,1.2,2.6c.1.1.8.5,1,.7s.3.6.6.8a4.28,4.28,0,0,0,.6,2.2l-.2.5a2.82,2.82,0,0,1,.2,1.8l.3.3c-.2,1.2.3,2.3.3,3.5,0,.5-.1,1-.1,1.5l.1.3.3.2c.1.8.7,1.5.7,2.2l.4.2.2.7c1.2.8,1.7,3.3,1.8,4.6l1.2,1.5a2.84,2.84,0,0,0,1.7-.7c.9.1,2.7,1.1,2.7,2.2a7.57,7.57,0,0,1-.1,1.5l.3.5a6.53,6.53,0,0,0,2,.5l.3.5c-.3.5-.7.9-1,1.4a8.13,8.13,0,0,1-3.1.2c-3-.1-3.8-1.2-5-3.8-.3-.6-.2-1.3-.6-1.9-.1-.4-.8-.8-1.1-1a1.61,1.61,0,0,0-.9.3l-.2.6c.2.7,1,.9,1.2,1.6l-.2.4h-.3a3.62,3.62,0,0,0-1.5-1.5c-.3,0-.9,0-1.1.2a10.59,10.59,0,0,1-1.2-1c-.7-.5-1-.2-1.3-1.2l-.4-.2-.1-.4c.3-.6.6-1.2.9-1.7h0a1.51,1.51,0,0,0-2-.8c-.3-.2-.7-.3-1-.5a15.29,15.29,0,0,1-2.6-3.1l-.9-.4c-.9.3-3.1.6-3.9,0l-.7-.8a3.69,3.69,0,0,1-.7-1.4l-.3-.1c-.7.8-2.1.6-3.1.5l-.2-.4-.5-.1-.4-.8c-.3-.1-.8-.2-.9-.6s.2-.9.3-1.2l.6.1.2-.5-.1-.3-.4-.2.2-.6-.7-.1-.5-.4-.2.1-.6-.1v-.2l.4-.4-.1-.2h-.5l-.1-.3h-.3l-.3.4-.1-.4.4-.5v-.4H89l.2-.5-.1-.2-.5-.3-.1-.4.2-.4-.1-.3-.3.2H88l-.1-.2.7-1a7.25,7.25,0,0,0-.6-4.1l.1-.4h.3c.4.4,1.3,1.8,1.7,1.8l.3-.1v-.4c-.3-.7-1.2-1-1.6-1.7a1,1,0,0,0,.3-.9l.6-.3.1.7,1,.4.5-.6-.1-.4.3-.4a2.34,2.34,0,0,0-.7-.7l-.5.5-.4-.2a1.5,1.5,0,0,0-.9-1l-.1-.2v-.3l.4-.2a3.79,3.79,0,0,1,0-1.5c-.6-.8-.2-1.3-.3-2.1,0-.5-.4-.8-.1-1.4-.4-.7-1.7-2.5-2.5-2.7-.8.1-1.5.9-2.3.3l-.4.3c-1-.4-1.8.9-3-.3l-.5.1c-.5.2-.4,1.9-1.2,2.3a2.46,2.46,0,0,1-1.7.2,2.29,2.29,0,0,0-.7,1,27.15,27.15,0,0,1,.5,4.9v1.6c.2,1.5.9,2.8,1,4.3a32.85,32.85,0,0,1-.2,8.3c0,.1.1.6.1.7l-.5.9.2.4-.2.7a1.38,1.38,0,0,1-1.1-.1l-.4.5a17,17,0,0,1,.2,3.9l.3.9-.4,2c-.2.5.3,1.1.2,1.6l.4.4a4.1,4.1,0,0,1,.1,1.1l.9.6a2.08,2.08,0,0,1,.1,1.1l.3-.1.2-.5a2.91,2.91,0,0,1,3.5,1.2c.2.4.4,1.1.6,1.5v.3l.3.3c-.2.3.1.8.1,1.1l.3,3.5c0,.1.4.6.4.7.2.4.2.9.4,1.3.1.2.4.5.5.7a2.54,2.54,0,0,1,.2.7c0,.1.3.4.3.5.1.4.1.9.2,1.3a5.36,5.36,0,0,1,.5,1.1l.1.3.3.1c.3.2.4,1.5.4,1.8a2.34,2.34,0,0,1,.7.7c-.2.7-.2,3.2-.4,4.1l-.2.2c0,1,0,2.1-.1,3.1-.1.8-1.2,5.8-1.1,6.2.2.6.6,1.2.8,1.9v1.2c.2.7.7,1.3.5,2.2a1.71,1.71,0,0,1,.7,1.3l.4.3c1.4-.4,1.6,1.1,2.5,1.2l.8,1.2-.2,1.4c.4.2.9.8,1.4.8l.1.5.5.4.3,2.2.6.2.2.7,1.6-.8.5.1a31.12,31.12,0,0,0,2.8,2.3c.2.8.7,1,.9,1.4a38.5,38.5,0,0,0,3.9,6s.3.9.3,1c.3.5.9.4,1.1.5s2.2,1.8,2.4,2,.3.5.5.7c.4.4,1,.5,1.4,1v.2c.6.3,1.3.8,1.2,1.6l1-.2a5,5,0,0,0,1.4,1.5l.6-.1.4.4a1.42,1.42,0,0,1,.6.2h8.6a1.7,1.7,0,0,0,.8-.6l.3.3a2,2,0,0,1,1.1.3h3.2l.1-.1c.3-.3.3-.8.7-1l1.6-.8a5.1,5.1,0,0,1,3.1,1.1,10.47,10.47,0,0,1,1.1.8H221V-36H-41.5c-.6,2.4-1.2,4.8-2.7,6.7h-.7ZM39,18.5a12.1,12.1,0,0,0,.1-1.9,1.1,1.1,0,0,1,0-.8,1.79,1.79,0,0,1,.5-.7,3.1,3.1,0,0,0,.6-1.3c.2-.8,0-.8.2-1.7a3.51,3.51,0,0,1,.6-1.4c.2-.2.5-.3.7-.6s-.1-.3.1-.5.8.4,1,.3.2-.5.4-.6.4.1.8.2.7-.1,1.4,0A3,3,0,0,1,47,10c.3.3.3.4.7.8s.6.3.9.6.2.4.6.9.5.3.8.8.2.8.6,1.1c.2.2.3.2.4.4a1.45,1.45,0,0,1,.2.7c0,.5-.2.8-.1,1s.2.1.3.3-.2.5-.2.8.3.4.4.6,0,.2,0,.4a1.16,1.16,0,0,0,1.1,1l.5-.1.6-.1a.6.6,0,0,1,.4-.1c.1,0,.4-.1.6.1s0,.5,0,.7.1.5,1.2,1a4.92,4.92,0,0,0,1.7.6,6.15,6.15,0,0,0,1.9.2H61a3.4,3.4,0,0,1,1,.1c.5.1,1,.2,1,.4s-.3.5-.6.6a.76.76,0,0,0-.5.2.22.22,0,0,0-.2.2c-.1.3.4.7.2.9a.58.58,0,0,1-.4.1,2.44,2.44,0,0,1-1.2,0,2.35,2.35,0,0,1-.8-.2c-.4-.2-.4-.4-.8-.5a6.37,6.37,0,0,0-.7-.2,2.77,2.77,0,0,0-.9-.1h-.7l.4.2a5.5,5.5,0,0,1,.9.7c.4.3.4.2.8.5a2.7,2.7,0,0,1,.8.7.84.84,0,0,1,.2.7c-.1.4-.5.6-.5.7s.4-.1.7-.1a2.15,2.15,0,0,1,1.6.4,4.43,4.43,0,0,1,1.5,1.2,7.1,7.1,0,0,1,1,1.4,1.33,1.33,0,0,1,.3.8c.1.6-.2.8,0,1.1.3.5,1.3.2,1.6.7a1.06,1.06,0,0,1-.1.8c-.1.3-.1.5-.3.6a1,1,0,0,1-.9.1,1.37,1.37,0,0,1-.8-.5c-.1-.3.1-.5,0-.9s-.5-.5-.5-.8a2.13,2.13,0,0,0,0-.8.52.52,0,0,0-.2-.4c-.2-.1-.3.1-.5.2a4.87,4.87,0,0,1-1.2.1,2.77,2.77,0,0,1-.9-.1,3.55,3.55,0,0,1-.9-.4,3.45,3.45,0,0,1-.8-.9,1.79,1.79,0,0,0-.5-.7.76.76,0,0,0-.5-.2c-.2,0-.3.2-.4.3s0,.3-.1.5-.5-.1-.9-.3-.4-.3-.8-.5-.5-.3-.6-.5h0c.5,2.4.7,3.7,0,4.6s-1.6.9-3.2,1.2c-1.8.3-3.4.6-4.7-.2-1.7-1-2-3.2-2.2-5-.4-2.9.1-6.7,1.5-7.4a6.31,6.31,0,0,1-.9-.4,6.73,6.73,0,0,0-2-.1,14.77,14.77,0,0,0-2.1.1c-.4.1-.7,0-1.1.1a1.07,1.07,0,0,1-.8,0c-.2-.1-.3-.2-.3-.4A5.21,5.21,0,0,1,39,18.5ZM35.7,54.2c1.1-4.1,9.5-6.3,13-7,5.2-1.1,9.9,0,14.8,1.6,3.7,1.2,8.8,2.4,11.4,5.5,1.5,1.8,1.5,4.1,2.7,6,1.6,2.5,4,2.8,6.4,4.2,6.8,3.9,6.2,13.7,11.1,19.7,3.2,3.9,15.4,14.6,11.4,20.8-2.5,3.9-13.2,0-16.2-.8-6.2-1.6-13.7-2.7-19.3-5.6-4-2.1-5.2-6.2-7.1-9.9a41.17,41.17,0,0,0-7.8-10.3C51.5,73.4,33.6,62,35.7,54.2Z" fill="#fefee9"/><path d="M48.2,20.9c-.2-.1-.4-.1-.6-.2a8.79,8.79,0,0,0,1,.6C48.4,21.2,48.3,21,48.2,20.9Z" fill="#fefee9"/><path d="M54.9,27.1c0-.4.4-.5.5-.9v-.6c-.2-.6-.5-.7-.9-1.3a2.2,2.2,0,0,1-.6-1.5c0-.6.3-.9.1-1.4q-.15-.3-.3-.3a.6.6,0,0,0-.6.3c-.1.3.1.5.2.8C54.1,23.1,54.4,24.8,54.9,27.1Z" fill="#fefee9"/><path d="M114.6,269.3a1.42,1.42,0,0,0-.6-.2l-.4-.4-.6.1a5,5,0,0,1-1.4-1.5l-1,.2c.1-.8-.6-1.3-1.2-1.6v-.2c-.4-.5-1-.6-1.4-1-.2-.2-.3-.5-.5-.7s-2.2-1.9-2.4-2-.8,0-1.1-.5c0-.1-.3-1-.3-1a38.5,38.5,0,0,1-3.9-6c-.2-.4-.7-.6-.9-1.4a31.12,31.12,0,0,1-2.8-2.3l-.5-.1-1.6.8-.2-.7-.6-.2-.3-2.2-.5-.4-.1-.5c-.5,0-1-.6-1.4-.8l.2-1.4-.8-1.2c-.9-.1-1.1-1.6-2.5-1.2l-.4-.3a1.71,1.71,0,0,0-.7-1.3c.2-.9-.3-1.5-.5-2.2v-1.2c-.2-.7-.6-1.3-.8-1.9-.1-.4,1-5.4,1.1-6.2.1-1,.1-2.1.1-3.1l.2-.2c.2-.9.2-3.4.4-4.1a2.34,2.34,0,0,0-.7-.7c0-.3-.1-1.6-.4-1.8l-.3-.1-.1-.3a5.36,5.36,0,0,0-.5-1.1c-.1-.4-.1-.9-.2-1.3,0-.1-.3-.4-.3-.5a2.54,2.54,0,0,0-.2-.7c-.1-.2-.4-.5-.5-.7-.2-.4-.2-.9-.4-1.3,0-.1-.4-.6-.4-.7l-.3-3.5c0-.3-.3-.8-.1-1.1l-.3-.3V208c-.2-.4-.4-1.1-.6-1.5a2.91,2.91,0,0,0-3.5-1.2l-.2.5-.3.1a2.08,2.08,0,0,0-.1-1.1l-.9-.6a4.1,4.1,0,0,0-.1-1.1l-.4-.4c.1-.5-.4-1.1-.2-1.6l.4-2-.3-.9a17,17,0,0,0-.2-3.9l.4-.5a1.38,1.38,0,0,0,1.1.1l.2-.7-.2-.4.5-.9c0-.1-.1-.6-.1-.7a32.85,32.85,0,0,0,.2-8.3c-.1-1.5-.8-2.8-1-4.3V177a27.15,27.15,0,0,0-.5-4.9,2.29,2.29,0,0,1,.7-1,2.46,2.46,0,0,0,1.7-.2c.8-.4.7-2.1,1.2-2.3l.5-.1c1.2,1.2,2-.1,3,.3l.4-.3c.8.6,1.5-.2,2.3-.3.8.2,2.1,2,2.5,2.7-.3.6.1.9.1,1.4.1.8-.3,1.3.3,2.1a3.79,3.79,0,0,0,0,1.5l-.4.2v.3l.1.2a1.5,1.5,0,0,1,.9,1l.4.2.5-.5a2.34,2.34,0,0,1,.7.7l-.3.4.1.4-.5.6-1-.4-.1-.7-.6.3a1,1,0,0,1-.3.9c.4.7,1.3,1,1.6,1.7v.4l-.3.1c-.4,0-1.3-1.4-1.7-1.8h-.3l-.1.4a7.25,7.25,0,0,1,.6,4.1l-.7,1,.1.2h.3l.3-.2.1.3-.2.4.1.4.5.3.1.2-.2.5H87.9v.4l-.4.5.1.4.3-.4h.3l.1.3h.5l.1.2-.4.4v.2l.6.1.2-.1.5.4.7.1-.2.6.4.2.1.3-.2.5-.6-.1c-.1.3-.4.8-.3,1.2s.6.5.9.6l.4.8.5.1.2.4c1,.1,2.4.3,3.1-.5l.3.1a3.69,3.69,0,0,0,.7,1.4l.7.8c.8.6,3,.3,3.9,0l.9.4a15.29,15.29,0,0,0,2.6,3.1c.3.2.7.3,1,.5a1.51,1.51,0,0,1,2,.8h0c-.3.5-.6,1.1-.9,1.7l.1.4.4.2c.3,1,.6.7,1.3,1.2a10.59,10.59,0,0,0,1.2,1c.2-.2.8-.2,1.1-.2a3.62,3.62,0,0,1,1.5,1.5h.3l.2-.4c-.2-.7-1-.9-1.2-1.6l.2-.6a1.61,1.61,0,0,1,.9-.3c.3.2,1,.6,1.1,1,.4.6.3,1.3.6,1.9,1.2,2.6,2,3.7,5,3.8a8.13,8.13,0,0,0,3.1-.2c.3-.5.7-.9,1-1.4l-.3-.5a6.53,6.53,0,0,1-2-.5l-.3-.5a7.57,7.57,0,0,0,.1-1.5c0-1.1-1.8-2.1-2.7-2.2a2.84,2.84,0,0,1-1.7.7l-1.2-1.5c-.1-1.3-.6-3.8-1.8-4.6l-.2-.7-.4-.2c0-.7-.6-1.4-.7-2.2l-.3-.2-.1-.3c0-.5.1-1,.1-1.5,0-1.2-.5-2.3-.3-3.5l-.3-.3a2.82,2.82,0,0,0-.2-1.8l.2-.5a4.28,4.28,0,0,1-.6-2.2c-.3-.2-.4-.6-.6-.8s-.9-.6-1-.7a6.82,6.82,0,0,1-1.2-2.6h-.4c-.2-.1-.5-1-.6-1.2a4.18,4.18,0,0,0-1,.4c-.1.3-.3,1.2-.6,1.4l-.5.1a4.88,4.88,0,0,0-2.4-2.5c.2-.2.7-.7.7-1l-1-.9v-.2a2.88,2.88,0,0,1,1.3.1l.2-1a5.78,5.78,0,0,0-1.8-2c-.4-.2-.9-.2-1.2-.6l-.7.1-.7-.5-.7.2c-.2-.1-.8-.3-.9-.5l.3-.6v-.2h-.8l-.3.4c-.4.2-1.2-.2-1.5-.4l-.2-.8h-.3l-.4-1.2c.6,0,.8.4,1.3.5a6.75,6.75,0,0,0,1.4.2c.9.1,1.6-.2,2.5-.1.4.4,1.1.6,1.3,1h.4c.8.5,3.1,2,3.3,2.6l-.1.5-.6.4-.1.4c.4.5,1.1.3,1.6.9l.5-.3.4.4.4-.2a1.43,1.43,0,0,1-.6-1.2l-.4-.1-.3-.8h-.4c0-.7-1.5-1.7-1.9-2.1s-.2-.7-.8-1l-.8.1-.3-.4c-.7-.1-1.2-.8-1.8-.8-1.2.1-3.6.4-4.5-.8h.3c0-.2-.4-.4-.4-.6v-.3h.7a1.76,1.76,0,0,0,.8-.9l.6-.1a.76.76,0,0,0-.2-.5l-1,.4-.7-.2-.7.2-.2-.2.2-.4,3.5-.7.2-.4c-.3-.9-1.3-5.7-2.1-6.1l.2-.5.3-.2c-.1-.2-.3-.7-.4-.9l-.5-.1.2-.4a2.37,2.37,0,0,0-1.3-1.1c-.2,0-.6.3-.8.4h-.5l.2-.5-.1-.2L92,156l-.7.7c0-.9-.6-1.5-.6-1.8-.2,0-.6-.1-.8,0l.7.8.3,1.1-.2.2h-.5l-.7-.6a2.66,2.66,0,0,0-1.2.3l-.1-.3.4-.8-.1-.4-1.3-1.3-.9-.1-.1-1-.2-.3-.7-.2-.1-.4.2-.5-.1-.3-.4-.2-.3-.9c.6-.2,1.1.2,1.6,0l.2.9a1.7,1.7,0,0,1,1,.6l.1-.7h.4c0-.4.5-.8.8-1l.2-1.1.9.1a4.07,4.07,0,0,0,1.2-1.7c.1-.6-.9-1.3-1-2.1l.3-.6a2,2,0,0,1,.8.4c1-.1,1.7,1,2.6.6l1.2-1.1a12.1,12.1,0,0,0,1.9.1c.3-.2,1-1,1-1.4l.5-.1a4.35,4.35,0,0,0,.8-1.5l.8-.3c.1-.3.3-1.5.5-1.6a2.35,2.35,0,0,0-.2-.8c3.9-2.4,7,3,9.6,3.2h1.6c1.3-.2,5.3-2.7,7.4-3.3a35.53,35.53,0,0,1,4.6-.3c.8.8,3.7.9,4.8,1.1a45.2,45.2,0,0,1,5.3.6c1.7.5,3.1,1.6,4.9,1.9.8.1,1.6.1,2.3.2,1.5.2,2.9.5,4.4.6a17.7,17.7,0,0,0,2.3-.1c1.3.1,2.2,1.3,3.5,1.5a6,6,0,0,0,3.2-.7l-.1-.6c-.7-.8-1.8-.1-2.7-.6l-.3-.6.3-.7a4.31,4.31,0,0,0,2.2-.9c.2-.1.3-.2.5-.3,1.4-1.3.1-4.7,2.7-4.6l1.4.3c.5-.3.8-.9,1.2-1.2a2.58,2.58,0,0,1,3.6.7.76.76,0,0,1,.2.4,6.36,6.36,0,0,0,.6,1.8c.2.1.3.2.5.3.6.3,1.2.5,1.8.8a8.34,8.34,0,0,0,1.2.8l.4.2c.5.7.7,1.5,1.7,1.6a6.12,6.12,0,0,1,1.2-.5l.7.3c.4.5.1,1.2.6,1.7s1.5.6,2.1,1.1c.9.8,1.8,2.6,3.2,2.5l.3-.6c-.1-1.3-2-2.7-2.9-3.5-.7-.7-1.3-1.5-2-2.1a25.64,25.64,0,0,0-3.5-2.2c-.7-.2-1.3-.4-2-.6-1.3-.6-1.2-3.4-2.6-4-.3-.1-.9-.1-1.3-.2-2.6-.7-2.9.1-4.9,1.3-1.7,0-3.9-.7-4.5,1.6a2,2,0,0,0,.2,1.5,2.84,2.84,0,0,1-.4,1.2,8.17,8.17,0,0,1-2,1.2c-2.1,1.1-3.9,2.4-6,.4a1.91,1.91,0,0,1-.7-1.4c.1-2.2,4.7-2.3,5.9-3a3,3,0,0,0,.8-.8c.1-.2.1-.5.2-.7.3-1,1.1-1.8,1.4-2.8a19.68,19.68,0,0,0,.6-3.5c-.5.3-.7.9-1.1,1.3-2.2,2.5-3.3,5-6.2,6.9a4.81,4.81,0,0,1-1.6.8c-.4.1-1,.3-1.4.4-1.6.3-5.3-1.1-6.5-.8l-.3.5.1.7c-.9,1-3.7,1.4-5,1.5l-.3-.5c.2-.4,1.3-1.1,1.7-1.6l.1-.6-.5-.3c-.8,0-1.4.3-2.2.3-1.5.1-5.4-.6-6.4-1.8l-.1-.7c.5-.9,1.8-1.8,2.1-2.8a2.12,2.12,0,0,0-1.7-2.6c-.1,0-.3-.1-.4-.1-1.4-.2-5.1,1.1-5.9,2.3-.2.9,0,2-.4,2.8-.7,1.5-2.6,2.4-3.7,3.6-.7.7-1.3,1.5-2,2.2-.1.1-.8.6-.9.7h-1.5a14.42,14.42,0,0,0-2.7-2.2c-3.2.8-2.3,0-4.9-1l-.7.1-.3.5-.7-.1-.6.1c-.1-.2-.3-.6-.4-.6-.8-.8-1.6-1.7-2.4-2.6-.1-.1-.3-.7-.4-.8a8.39,8.39,0,0,0-2.8-1.8c-.5-.3-.9-.7-1.3-.9-1.4-.8-4.4-1.4-5.6-2.4a3.18,3.18,0,0,1-.2,1.4,13.55,13.55,0,0,1-3.7,3l-.3-.1-.4-.8-.5.6a23.48,23.48,0,0,1-3.7.5c-1.3-.5-1-3-2.6-3.7l-.1.3c1.6,1.1.7,3.4,3.3,4.4l.2.4-.2.4c0,.4.4.6.5.9a14.08,14.08,0,0,1,.1,2.9c-.8.3-.7,1.8-.8,2.4-.1.4-.3.8-.4,1.2a17.85,17.85,0,0,1-.2,2.3c.3.1.8.4,1.1.3a6.22,6.22,0,0,0,3,1.8c.3.3.9,1.2.8,1.7l-.6.7-.9-.5-.6.1-.2.9-.6.1-.4.5-.8-.1-.4,1.2c.1.2.4,1.3.7,1.4l.9.1.2.4a3.92,3.92,0,0,1-.8,1,5.84,5.84,0,0,0-2.2-.8c.9,1,.3,2.7,2.3,2.6l.9.9c-.1,1.3,1.5,2.5,2.7,2.4a3.92,3.92,0,0,1,.8,1.4l-.6.3a1.34,1.34,0,0,1-.6.7c-.2,0-.7.1-.8,0l-.1.3.3.7-.4.1c-1.8-1,0-2.1-2.6-3.5l-.9-.1-.3-.2-.2.6.6,1.2-.1.2c-.9-.3-1.1-1.1-2.3-1.1v.5l.9.2a2.54,2.54,0,0,0,1.2,1.3l.3.6a2.83,2.83,0,0,1,1.8,1.4,2.67,2.67,0,0,0,.5,2.1v.4l-.4.2-.2.9-.2.2-.5-.3a3.46,3.46,0,0,0-1.6.8,2.28,2.28,0,0,0-1.6-.4l-.5.2-.3.6-.2.1-.7-1.7-1.1-.6-.3-.8-.5-.3-.4-1.1-.2-.1h-.6l-.5-.7-.8.2c-.6-.2-.7-1.1-1.1-1.6-.9-1.1-2.3-.5-3-1.2-.4-.4-.6-1-1-1.4-.5-.6-1.3-.8-1.7-1.6l-.2.4-1.7-.3a2.82,2.82,0,0,1,1.8-.2c-.1-.2-1.4-1.4-1.7-1.8l-.7-.2a2,2,0,0,0-1.1-.9l-.1.5a2.36,2.36,0,0,0,.6.9,3.33,3.33,0,0,0,.1,2.2c-.7.3-.9.4-1.2,1.1l-.6.3c-.3-.1-.6-.7-.7-1l-.9-.3c-.9-.4,0-2-2.3-3.6a2.35,2.35,0,0,0-1.6-.5l-.5-.7-.6-.1-.3-.4-.4-.1a10.1,10.1,0,0,0-1.8-4.1l-.9-.4c-.8-1.8-3.3-4.6-5-5.1l-1.1-.6a14.44,14.44,0,0,0-4-1.8c-.6-.6-.5-2.9-1.5-4.1-.4.5-.5,1.1-1.1,1.5a1.61,1.61,0,0,0-1.1.5l-.2.6c.1,1.1,1,1.6,1.8,2.3l.3,1.1c-.6.7-3.5,0-4.4,3.6l.3.6,1.3.8.1.3c-.4.2-1.2-.4-1.9-.2l-.3-.2-.5.2a2.84,2.84,0,0,1-1.2-.4,2,2,0,0,1-1.3.2l-.1-.3c0-.5.7-.7.8-1a3.55,3.55,0,0,1,.4-.9c.6-1.6,1.4-2.9,2.1-4.4a51.53,51.53,0,0,0,2.4-7.6c.8-2.7,2-4.9.7-7.6l-1-.7a2,2,0,0,0,.1-1.3c-.5-2-1.6-1.7-1.7-3.6-.4-.4-1.4-1.5-1.1-2.1l.5.2.8,1,.8.9c1.8,2.1,3.9,3.8,5.4,6.1,1.7,2.6,3,5.5,4.8,8a12.88,12.88,0,0,0,1.7,1.6,11.92,11.92,0,0,0,1.8,1.5,2.77,2.77,0,0,0-.3-1.3c-.2-.5-2.1-3.8-2.3-4.1a48.67,48.67,0,0,1-4-5c-.2-.4-.4-.7-.6-1.1-.5-1-1.4-2-1.9-3a8.75,8.75,0,0,0-1-2.2c-.7-1-1.8-1.4-2.6-2.3l-.4-.7a7.94,7.94,0,0,0-1-2.7l-.2-.1-.3.1a1.79,1.79,0,0,1-.4-1.4,1.14,1.14,0,0,0-.8-.3l-.4-.6v-.6a2,2,0,0,0-.8-.4c-1-1.7-2.3-1.8-4.1-1.9l.2-.2h.6l.3-1.1c-.7-.3-.7-1.1-1.8-1.5l-.1.5.6,1.3-.5,1,.3.7-.6-.3.3.7.2-.2a.86.86,0,0,1,.3.6,1.06,1.06,0,0,1-.8.1,5.37,5.37,0,0,0-1-1.6l.1-.4a2.65,2.65,0,0,0-.6-.5v-.3l.5-.1a14.46,14.46,0,0,0,.4-2.9c-.1-1.5-1.3-4.9-2.8-5.4a6.94,6.94,0,0,0-.8-2.8l-.6-.3-.4-.8-.5-.2a3.51,3.51,0,0,0-.6-1.4l.1-.7c-.5-1-1.1-.9-1.9-1.3-.2-.1-.4-.4-.6-.6l-.9-.6c-.9-.9-.6-1-2.1-2-.7-.5-5.2-2.9-5.5-3.3l-.7.3-.2-.6a4.63,4.63,0,0,1-1.3-1.8c-1-.5-1.6-1.3-2.7-1.5-.1-.2-.4-.6-.6-.6l-.2-.7a5.56,5.56,0,0,0-1.7-.9l-.3-.6H-.7l-.6-.7c.3-1-.7-2.4-1.4-3-.2,0-1.6-.7-1.6-.9l.3-.5v-.3c-1.3-1-1.6-2.9-3.1-3.8l-.1-.6-.2-.2-.2-.9a3.37,3.37,0,0,1-1.1-1.7l-1.2-.7a2.77,2.77,0,0,1-.1-.9c-.3-.4-.6-.9-.9-1.4-.2-.3-.7-.5-.9-.8a3.38,3.38,0,0,1-.6-1.2c-.3-.5-.9-.5-1.3-.8-.8-.4-1.4-1.3-2.1-1.8-.1,0-1.4-.5-1.6-.5-.2-.5-.9-.9-1.4-1.2v-.6c-.5-.4-.5-1.1-.9-1.6A4.81,4.81,0,0,0-22,54c-.1-.6-1.4-1.7-1.8-2.1h-1.1a2.59,2.59,0,0,0-1.1-.7l.2-.4a2.45,2.45,0,0,0-1.1-1.7c-1.3.3-1.9-2.2-3.1-2.1-1.3-1.5-.3-2.3-2.3-3.9a3.13,3.13,0,0,0-1-.5l-.1-.3a5,5,0,0,0-1.5-1.4c-.4-.3-.7-1.1-1-1.3l-.2-.1-.2-.6-1.2-.3-.3-1.1.4-.7A21.28,21.28,0,0,0-39,34.3l.2-.1.5.2.4-.1c.3-.5.8-1,1.1-1.5.5-.9.8-1.8,1.4-2.8.1-.2.3-.3.4-.6a18,18,0,0,0,.6-3.2c.1-.5,0-.9.3-1.3-.4-.7-.2-1.6-.4-2.4A8.8,8.8,0,0,0-35,21c-.1-.5-.2-1.1-.3-1.7-.1-.2-.2-.5-.3-.7a12.25,12.25,0,0,0-.2-1.9c-.2-.6-.8-1-.6-1.7l-.5-.7.2-.3a1.39,1.39,0,0,1-.2-1.1l-.8-.7h-.4l-.4-.6.2-.4-.1-.4.3-.4c-.3-.5-.6-1.2-.9-1.7-.6-1-1.2-.8-1.4-2.5a2.1,2.1,0,0,1-1.1-.4l-.1-.4.2-.5-.5-1,.1-.2.4-.1.1-.3c-.1-.2-.3-.7-.6-.8l.4-.4-.7-.6-.1-.4.2-.4-.8-1.9.1-.3-.8-1.7-.6.1c-.7-.4-.1-1.4-.4-2l.1-.2h.6L-44-6l.3-.6-.3-.2h-.7l-.8-.6.2-.5.6-.3.3-.3-.6-.8v-.5l-.3-.2-.2.1-.5-.8.1-.3a2,2,0,0,0-.9-.9l-.2-.4.5-.6-.4-.6.3-.3h.5v-.3l-.6-.3-.1-.5a1.16,1.16,0,0,0,.5-.7l-.3-.6c0-.2.1-.6.3-.7l-.1-.6.2-.3a2.92,2.92,0,0,1-.1-1.6l.4-.2.2-.9-.5-.6.1-.3.7-.3a1.61,1.61,0,0,0-.7-.4l-.3-.7.1-.4h.5l.1-.3-.3-.6.1-.7.4-.3.9-3.4L-45-29l.1-.2h.7c1.5-1.9,2.1-4.3,2.7-6.7H-84.2V269.3ZM91.3,158h.2c.3,0,.6.5.7.8l-.1.2a2.36,2.36,0,0,0-.9-.6l-.1-.2ZM90,166.4l.6.2a2.38,2.38,0,0,1,.6,1.1c-.1.2-.4.4-.6.6l.6.6v.4l-.3.2-.4-.1c-.3-.4-.2-1.4-.8-2.2Zm-6.5-3.6.5-.2V162l.4.1.3-.4.4-.2a2.38,2.38,0,0,1,.9,1.3,1.42,1.42,0,0,1-.2.6l-.4.2-.7-.1-.3.2-.4-.1-.5-.5Z" fill="#c6ecff"/><path d="M92.1,159l.1-.2c-.1-.3-.4-.8-.7-.8h-.2l-.2.2.1.2A3.49,3.49,0,0,1,92.1,159Z" fill="#fefee9"/><path d="M84.4,163.7l.3-.2.7.1.4-.2a1.42,1.42,0,0,0,.2-.6,2.38,2.38,0,0,0-.9-1.3l-.4.2-.3.4L84,162v.6l-.5.2v.3l.5.5Z" fill="#fefee9"/><path d="M90.9,169.5l.3-.2v-.4l-.6-.6c.2-.2.5-.4.6-.6a2.38,2.38,0,0,0-.6-1.1l-.6-.2-.3.8c.6.8.5,1.8.8,2.2Z" fill="#fefee9"/><path d="M53.3,22.2a.9.9,0,0,1,.1.5,1,1,0,0,1-.5.4,2,2,0,0,1-.8.1h-.7a3,3,0,0,0-.8.4c-.6.4-.7.4-.9.4-.4-.1-.6-.8-.6-.8,0-.3.1-.3,0-.7a3.38,3.38,0,0,0-.6-1.2,8.79,8.79,0,0,1-1-.6,6.25,6.25,0,0,1-1.2-.1h-.1c-1.3.7-1.8,4.5-1.5,7.4.2,1.8.5,4,2.2,5,1.3.8,2.9.6,4.7.2s2.6-.4,3.2-1.2.5-2.2,0-4.6a.6.6,0,0,1-.1-.4C54.4,24.8,54.1,23.1,53.3,22.2Z" fill="#fefee9"/><path d="M56.2,78.3A41.17,41.17,0,0,1,64,88.6c1.9,3.7,3.1,7.9,7.1,9.9,5.6,2.9,13.2,4,19.3,5.6,3.1.8,13.7,4.7,16.2.8,4-6.2-8.2-16.9-11.4-20.8-4.9-6-4.3-15.8-11.1-19.7-2.4-1.4-4.8-1.7-6.4-4.2-1.3-1.9-1.2-4.2-2.7-6-2.6-3.2-7.7-4.3-11.4-5.5-4.9-1.6-9.6-2.8-14.8-1.6-3.6.8-11.9,2.9-13,7C33.6,62,51.5,73.4,56.2,78.3Z" fill="#fefee9"/><path d="M39.4,20.3a1.1,1.1,0,0,0,.8,0c.4-.1.7,0,1.1-.1a14.77,14.77,0,0,1,2.1-.1,6.73,6.73,0,0,1,2,.1c.5.1.5.3.9.4h.1a6.25,6.25,0,0,0,1.2.1.73.73,0,0,1,.6.2c.2.1.3.3.4.4a2.28,2.28,0,0,1,.6,1.2c.1.3,0,.4,0,.7,0,0,.2.7.6.8.2,0,.2-.1.9-.4a2,2,0,0,1,.8-.4h.7a2.2,2.2,0,0,0,.8-.1,1,1,0,0,0,.5-.4c.1-.2,0-.3-.1-.5s-.3-.5-.2-.8.4-.4.6-.3.3.2.3.3c.2.5-.1.8-.1,1.4a2.53,2.53,0,0,0,.6,1.5,3.81,3.81,0,0,1,.9,1.3.64.64,0,0,1,0,.6c-.1.4-.5.5-.5.9a.6.6,0,0,0,.1.4h0c.1.2.3.3.6.5a2.77,2.77,0,0,0,.8.5c.4.2.7.5.9.3s0-.2.1-.5.2-.3.4-.3a.76.76,0,0,1,.5.2,1.79,1.79,0,0,1,.5.7,2.36,2.36,0,0,0,.8.9,3.55,3.55,0,0,0,.9.4,2.77,2.77,0,0,0,.9.1,1.67,1.67,0,0,0,1.2-.1,1.69,1.69,0,0,1,.5-.2.52.52,0,0,1,.2.4,2.13,2.13,0,0,1,0,.8c0,.3.4.4.5.8s-.1.6,0,.9a1,1,0,0,0,.8.5,1,1,0,0,0,.9-.1,1.63,1.63,0,0,0,.3-.6,2.49,2.49,0,0,0,.1-.8c-.2-.5-1.3-.2-1.6-.7-.2-.3.1-.5,0-1.1a6.89,6.89,0,0,0-.3-.8,7.1,7.1,0,0,0-1-1.4,4.43,4.43,0,0,0-1.5-1.2,2.4,2.4,0,0,0-1.6-.4c-.3,0-.6.2-.7.1s.4-.3.5-.7a1,1,0,0,0-.2-.7,2.7,2.7,0,0,0-.8-.7,9.22,9.22,0,0,0-.8-.5c-.3-.2-.6-.5-.9-.7a1.09,1.09,0,0,1-.4-.2h.7a2.77,2.77,0,0,1,.9.1,2.54,2.54,0,0,1,.7.2c.4.1.4.3.8.5a2.35,2.35,0,0,0,.8.2,2.44,2.44,0,0,0,1.2,0,.58.58,0,0,0,.4-.1c.1-.2-.4-.6-.2-.9.1-.1.1-.2.2-.2s.3-.2.5-.2.6-.4.6-.6-.5-.3-1-.4a3.4,3.4,0,0,0-1-.1H60a11.08,11.08,0,0,1-1.9-.2,8.51,8.51,0,0,1-1.7-.6c-1.1-.5-1.2-.8-1.2-1s.2-.6,0-.7-.5-.1-.6-.1-.3.1-.4.1l-.6.1-.5.1a1.09,1.09,0,0,1-1.1-1c0-.2.1-.2,0-.4s-.3-.3-.4-.6.3-.5.2-.8-.2-.2-.3-.3.2-.5.1-1a1.45,1.45,0,0,0-.2-.7c-.1-.2-.2-.2-.4-.4-.4-.4-.2-.6-.6-1.1s-.4-.3-.8-.8-.3-.6-.6-.9-.5-.3-.9-.6-.4-.5-.7-.8a3,3,0,0,0-1.6-.5c-.7-.1-.9.2-1.4,0s-.6-.3-.8-.2-.6.8-.8.9-.8-.4-1-.3,0,.2-.1.5a1.06,1.06,0,0,1-.7.6,2,2,0,0,0-.6,1.4c-.2.9,0,.9-.2,1.7a3.1,3.1,0,0,1-.6,1.3c-.2.3-.4.4-.5.7a1.1,1.1,0,0,0,0,.8,12.1,12.1,0,0,1-.1,1.9,2.25,2.25,0,0,0,.1,1.4A.54.54,0,0,0,39.4,20.3Z" fill="#c6ecff" stroke="#0978ab" stroke-miterlimit="10" stroke-width="0.5"/><g id="svg2466_copy" data-name="svg2466 copy"><g id="layer1"><g id="California"><path id="path45" d="M164.8,377.5a6.42,6.42,0,0,1-1.1-3c-2.5-1-2.7-4.4-4-6.4a24.28,24.28,0,0,0-2.4-3.2l-.9-.9a14.63,14.63,0,0,0-.9-1.3c-.5-.5-1.3-.8-1.9-1.4-.3-.3-.5-.9-.8-1.2a16.32,16.32,0,0,0-2-1.7c-1.5-1-3.1-2-4.6-3a8,8,0,0,0-1.6-.8c-.2-.1-1.2-.2-1.4-.3-.8-.4-1.5-1.3-2.4-1.7-.3-1.1-1.2-3.6-2.5-3.8a2.89,2.89,0,0,0-1.5-1.2,2.53,2.53,0,0,0-2.3-1.5l.6-.7a8.88,8.88,0,0,0,.1-2.3l.2-.4c-.1-1.2-1-1.9-1.5-2.9l.4-1.1-.4-.7a3.13,3.13,0,0,1,.5-1c.1-1-.5-1.1-1.3-1.6l.4-.6-.2-.3.1-.3-.3-.5a5.19,5.19,0,0,0-1.7-4.7c.9-1.6-.4-2.5-.7-4.4l-.4-.3.5-.5c.5-1.8-1.2-2.4-1.3-2.8l.2-.4a1.5,1.5,0,0,1,1.1.4,1.61,1.61,0,0,1,1.1-.5l.1-1.2a1.34,1.34,0,0,0-.6-.7l-.1-.3.3-.3a2,2,0,0,0-.5-1.8h-.4l-.1-.3c-.1-.1-.8-.3-.9-.4l-.2.6-.3-.1-.6-.6-.5-.1-.5-.9-.5-.2-.1-.3.4-.4h.7l.2-.5-.1-.4c.3-.5.4-1.4.8-2,.2,0,.6,0,.7-.1l.2-.7.4-.2a3.19,3.19,0,0,0,.3-1.9l.2-.4a2.54,2.54,0,0,1,1.2.2l.4.8,1.7.9a7.71,7.71,0,0,0,1.4,2.1c1.6.4,2.8-1,3.7-2.1a3.55,3.55,0,0,0,.4-.9,13.73,13.73,0,0,0,1.3-2c1.9-5,2.2-5.8,2.5-11.1,0-.2.1-.5.1-.8l1.2,1.1.1-.3-.9-1.1.1-.7-.2-.2c.6-1.7,0-3.5,1.2-4.8l-.2-.6c.4-.8-.6-1.8-.9-2.4a17.1,17.1,0,0,1-.9-3c0-.1-.2-.1-.2-.2-.5-1-.8-2-1.3-2.9s-1.1-1.8-1.6-2.8c-1.9-3.5-2.3-5.7-5.9-8a5.1,5.1,0,0,0-3.1-1.1l-1.6.8c-.4.2-.4.7-.7,1s-.6.3-.7.7a1.39,1.39,0,0,1-.9,0l-.3-.3h-.9a2.45,2.45,0,0,0-1.6-.6l-.3-.3c-.1.3-.7.6-1,.7v.6l-.2.3c-.3.2-1.5-.1-2.3.5-.3-.1-.7-.2-1-.3l-.4.2-.8-.1-.4-.4h-.5l-.6-.3-.9.2-.3-.3-.5-.1a1.74,1.74,0,0,0-1.1-.6l-.4-.4-.6.1a5,5,0,0,1-1.4-1.5l-1,.2c.1-.8-.6-1.3-1.2-1.6v-.2c-.4-.5-1-.6-1.4-1-.2-.2-.3-.5-.5-.7s-2.2-1.9-2.4-2-.8,0-1.1-.5c0-.1-.3-1-.3-1a38.5,38.5,0,0,1-3.9-6c-.2-.4-.7-.6-.9-1.4a31.12,31.12,0,0,1-2.8-2.3l-.5-.1-1.6.8-.2-.7-.6-.2-.3-2.2-.5-.4-.1-.5c-.5,0-1-.6-1.4-.8l.2-1.4-.8-1.2c-.9-.1-1.1-1.6-2.5-1.2l-.4-.3a1.71,1.71,0,0,0-.7-1.3c.2-.9-.3-1.5-.5-2.2v-1.2c-.2-.7-.6-1.3-.8-1.9-.1-.4,1-5.4,1.1-6.2.1-1,.1-2.1.1-3.1l.2-.2c.2-.9.2-3.4.4-4.1a2.34,2.34,0,0,0-.7-.7c0-.3-.1-1.6-.4-1.8l-.3-.1-.1-.3a5.36,5.36,0,0,0-.5-1.1c-.1-.4-.1-.9-.2-1.3,0-.1-.3-.4-.3-.5a2.54,2.54,0,0,0-.2-.7c-.1-.2-.4-.5-.5-.7-.2-.4-.2-.9-.4-1.3,0-.1-.4-.6-.4-.7l-.3-3.5c0-.3-.3-.8-.1-1.1l-.3-.3V208c-.2-.4-.4-1.1-.6-1.5a2.91,2.91,0,0,0-3.5-1.2l-.2.5-.3.1a2.08,2.08,0,0,0-.1-1.1l-.9-.6a4.1,4.1,0,0,0-.1-1.1l-.4-.4c.1-.5-.4-1.1-.2-1.6l.4-2-.3-.9a17,17,0,0,0-.2-3.9l.4-.5a1.38,1.38,0,0,0,1.1.1l.2-.7-.2-.4.5-.9c0-.1-.1-.6-.1-.7a32.85,32.85,0,0,0,.2-8.3c-.1-1.5-.8-2.8-1-4.3a4.3,4.3,0,0,1,0-1.6,27.15,27.15,0,0,0-.5-4.9,2.29,2.29,0,0,1,.7-1,2.46,2.46,0,0,0,1.7-.2c.8-.4.7-2.1,1.2-2.3l.5-.1c1.2,1.2,2-.1,3,.3l.4-.3c.8.6,1.5-.2,2.3-.3.8.2,2.1,2,2.5,2.7-.3.6.1.9.1,1.4.1.8-.3,1.3.3,2.1a3.79,3.79,0,0,0,0,1.5l-.4.2v.3l.1.2a1.5,1.5,0,0,1,.9,1l.4.2.5-.5a2.34,2.34,0,0,1,.7.7l-.3.4.1.4-.5.6-1-.4-.1-.7-.6.3a1,1,0,0,1-.3.9c.4.7,1.3,1,1.6,1.7v.4l-.3.1c-.4,0-1.3-1.4-1.7-1.8h-.3l-.1.4a7.25,7.25,0,0,1,.6,4.1l-.7,1,.1.2h.3l.3-.2.1.3-.2.4.1.4.5.3.1.2-.2.5H87.8v.4l-.4.5.1.4.3-.4h.3l.1.3h.5l.1.2-.4.4v.2l.6.1.2-.1.5.4.7.1-.2.6.4.2.1.3-.2.5-.6-.1c-.1.3-.4.8-.3,1.2s.6.5.9.6l.4.8.5.1.2.4c1,.1,2.4.3,3.1-.5l.3.1a3.69,3.69,0,0,0,.7,1.4l.7.8c.8.6,3,.3,3.9,0l.9.4a15.29,15.29,0,0,0,2.6,3.1c.3.2.7.3,1,.5a1.51,1.51,0,0,1,2,.8h0c-.3.5-.6,1.1-.9,1.7l.1.4.4.2c.3,1,.6.7,1.3,1.2a10.59,10.59,0,0,0,1.2,1c.2-.2.8-.2,1.1-.2a3.62,3.62,0,0,1,1.5,1.5h.3l.2-.4c-.2-.7-1-.9-1.2-1.6l.2-.6a1.61,1.61,0,0,1,.9-.3c.3.2,1,.6,1.1,1,.4.6.3,1.3.6,1.9,1.2,2.6,2,3.7,5,3.8a8.13,8.13,0,0,0,3.1-.2c.3-.5.7-.9,1-1.4l-.3-.5a6.53,6.53,0,0,1-2-.5l-.3-.5a7.57,7.57,0,0,0,.1-1.5c0-1.1-1.8-2.1-2.7-2.2a2.84,2.84,0,0,1-1.7.7l-1.2-1.5c-.1-1.3-.6-3.8-1.8-4.6l-.2-.7-.4-.2c0-.7-.6-1.4-.7-2.2l-.3-.2-.1-.3c0-.5.1-1,.1-1.5,0-1.2-.5-2.3-.3-3.5l-.3-.3a2.82,2.82,0,0,0-.2-1.8l.2-.5a4.28,4.28,0,0,1-.6-2.2c-.3-.2-.4-.6-.6-.8s-.9-.6-1-.7a6.82,6.82,0,0,1-1.2-2.6h-.4c-.2-.1-.5-1-.6-1.2a4.18,4.18,0,0,0-1,.4c-.1.3-.3,1.2-.6,1.4l-.5.1a4.88,4.88,0,0,0-2.4-2.5c.2-.2.7-.7.7-1l-1-.9v-.2a2.88,2.88,0,0,1,1.3.1l.2-1a5.78,5.78,0,0,0-1.8-2c-.4-.2-.9-.2-1.2-.6l-.7.1-.7-.5-.7.2c-.2-.1-.8-.3-.9-.5l.3-.6v-.2h-.8l-.3.4c-.4.2-1.2-.2-1.5-.4l-.2-.8h-.3l-.4-1.2c.6,0,.8.4,1.3.5a6.75,6.75,0,0,0,1.4.2c.9.1,1.6-.2,2.5-.1.4.4,1.1.6,1.3,1h.4c.8.5,3.1,2,3.3,2.6l-.1.5-.6.4-.1.4c.4.5,1.1.3,1.6.9l.5-.3.4.4.4-.2a1.43,1.43,0,0,1-.6-1.2l-.4-.1-.3-.8h-.4c0-.7-1.5-1.7-1.9-2.1s-.2-.7-.8-1l-.8.1-.3-.4c-.7-.1-1.2-.8-1.8-.8-1.2.1-3.6.4-4.5-.8h.3c0-.2-.4-.4-.4-.6v-.3h.7a1.76,1.76,0,0,0,.8-.9l.6-.1a.76.76,0,0,0-.2-.5l-1,.4-.7-.2-.7.2-.2-.2.2-.4,3.5-.7.2-.4c-.3-.9-1.3-5.7-2.1-6.1l.2-.5.3-.2c-.1-.2-.3-.7-.4-.9l-.5-.1.2-.4a2.37,2.37,0,0,0-1.3-1.1c-.2,0-.6.3-.8.4h-.5l.2-.5-.1-.2L92,156l-.7.7c0-.9-.6-1.5-.6-1.8-.2,0-.6-.1-.8,0l.7.8.3,1.1-.2.2h-.5l-.7-.6a2.66,2.66,0,0,0-1.2.3l-.1-.3.4-.8-.1-.4-1.3-1.3-.9-.1-.1-1-.2-.3-.7-.2-.1-.4.2-.5-.1-.3-.4-.2-.3-.9c.6-.2,1.1.2,1.6,0l.2.9a1.7,1.7,0,0,1,1,.6l.1-.7h.4c0-.4.5-.8.8-1l.2-1.1.9.1a4.07,4.07,0,0,0,1.2-1.7c.1-.6-.9-1.3-1-2.1l.3-.6a2,2,0,0,1,.8.4c1-.1,1.7,1,2.6.6l1.2-1.1a12.1,12.1,0,0,0,1.9.1c.3-.2,1-1,1-1.4l.5-.1a4.35,4.35,0,0,0,.8-1.5l.8-.3c.1-.3.3-1.5.5-1.6a2.35,2.35,0,0,0-.2-.8c3.9-2.4,7,3,9.6,3.2h1.6c1.3-.2,5.3-2.7,7.4-3.3a35.53,35.53,0,0,1,4.6-.3c.8.8,3.7.9,4.8,1.1a45.2,45.2,0,0,1,5.3.6c1.7.5,3.1,1.6,4.9,1.9.8.1,1.6.1,2.3.2,1.5.2,2.9.5,4.4.6a17.7,17.7,0,0,0,2.3-.1c1.3.1,2.2,1.3,3.5,1.5a6,6,0,0,0,3.2-.7l-.1-.6c-.7-.8-1.8-.1-2.7-.6l-.3-.6.3-.7a4.31,4.31,0,0,0,2.2-.9c.2-.1.3-.2.5-.3,1.4-1.3.1-4.7,2.7-4.6l1.4.3c.5-.3.8-.9,1.2-1.2a2.58,2.58,0,0,1,3.6.7.76.76,0,0,1,.2.4,6.36,6.36,0,0,0,.6,1.8c.2.1.3.2.5.3.6.3,1.2.5,1.8.8a8.34,8.34,0,0,0,1.2.8l.4.2c.5.7.7,1.5,1.7,1.6a6.12,6.12,0,0,1,1.2-.5l.7.3c.4.5.1,1.2.6,1.7s1.5.6,2.1,1.1c.9.8,1.8,2.6,3.2,2.5l.3-.6c-.1-1.3-2-2.7-2.9-3.5-.7-.7-1.3-1.5-2-2.1a25.64,25.64,0,0,0-3.5-2.2c-.7-.2-1.3-.4-2-.6-1.3-.6-1.2-3.4-2.6-4-.3-.1-.9-.1-1.3-.2-2.6-.7-2.9.1-4.9,1.3-1.7,0-3.9-.7-4.5,1.6a2,2,0,0,0,.2,1.5,2.84,2.84,0,0,1-.4,1.2,8.17,8.17,0,0,1-2,1.2c-2.1,1.1-3.9,2.4-6,.4a1.91,1.91,0,0,1-.7-1.4c.1-2.2,4.7-2.3,5.9-3a3,3,0,0,0,.8-.8c.1-.2.1-.5.2-.7.3-1,1.1-1.8,1.4-2.8a19.68,19.68,0,0,0,.6-3.5c-.5.3-.7.9-1.1,1.3-2.2,2.5-3.3,5-6.2,6.9a4.81,4.81,0,0,1-1.6.8c-.4.1-1,.3-1.4.4-1.6.3-5.3-1.1-6.5-.8l-.3.5.1.7c-.9,1-3.7,1.4-5,1.5l-.3-.5c.2-.4,1.3-1.1,1.7-1.6l.1-.6-.5-.3c-.8,0-1.4.3-2.2.3-1.5.1-5.4-.6-6.4-1.8l-.1-.7c.5-.9,1.8-1.8,2.1-2.8a2.12,2.12,0,0,0-1.7-2.6c-.1,0-.3-.1-.4-.1-1.4-.2-5.1,1.1-5.9,2.3-.2.9,0,2-.4,2.8-.7,1.5-2.6,2.4-3.7,3.6-.7.7-1.3,1.5-2,2.2-.1.1-.8.6-.9.7h-1.5a14.42,14.42,0,0,0-2.7-2.2c-3.2.8-2.3,0-4.9-1l-.7.1-.3.5-.7-.1-.6.1c-.1-.2-.3-.6-.4-.6-.8-.8-1.6-1.7-2.4-2.6-.1-.1-.3-.7-.4-.8a8.39,8.39,0,0,0-2.8-1.8c-.5-.3-.9-.7-1.3-.9-1.4-.8-4.4-1.4-5.6-2.4a3.18,3.18,0,0,1-.2,1.4,13.55,13.55,0,0,1-3.7,3l-.3-.1-.4-.8-.5.6a23.48,23.48,0,0,1-3.7.5c-1.3-.5-1-3-2.6-3.7l-.1.3c1.6,1.1.7,3.4,3.3,4.4l.2.4-.2.4c0,.4.4.6.5.9a14.08,14.08,0,0,1,.1,2.9c-.8.3-.7,1.8-.8,2.4-.1.4-.3.8-.4,1.2a17.85,17.85,0,0,1-.2,2.3c.3.1.8.4,1.1.3a6.22,6.22,0,0,0,3,1.8c.3.3.9,1.2.8,1.7l-.6.7-.9-.5-.6.1-.2.9-.6.1-.4.5-.8-.1-.4,1.2c.1.2.4,1.3.7,1.4l.9.1.2.4a3.92,3.92,0,0,1-.8,1,5.84,5.84,0,0,0-2.2-.8c.9,1,.3,2.7,2.3,2.6l.9.9c-.1,1.3,1.5,2.5,2.7,2.4a3.92,3.92,0,0,1,.8,1.4l-.6.3a1.34,1.34,0,0,1-.6.7c-.2,0-.7.1-.8,0l-.1.3.3.7-.4.1c-1.8-1,0-2.1-2.6-3.5l-.9-.1-.3-.2-.2.6.6,1.2-.1.2c-.9-.3-1.1-1.1-2.3-1.1v.5l.9.2a2.54,2.54,0,0,0,1.2,1.3l.3.6a2.83,2.83,0,0,1,1.8,1.4,2.67,2.67,0,0,0,.5,2.1v.4l-.4.2-.2.9-.2.2-.5-.3a3.46,3.46,0,0,0-1.6.8,2.28,2.28,0,0,0-1.6-.4l-.5.2-.3.6-.2.1-.7-1.7-1.1-.6-.3-.8-.5-.3-.4-1.1-.2-.1h-.6l-.5-.7-.8.2c-.6-.2-.7-1.1-1.1-1.6-.9-1.1-2.3-.5-3-1.2-.4-.4-.6-1-1-1.4-.5-.6-1.3-.8-1.7-1.6l-.2.4-1.7-.3a2.82,2.82,0,0,1,1.8-.2c-.1-.2-1.4-1.4-1.7-1.8l-.7-.2a2,2,0,0,0-1.1-.9l-.1.5a2.36,2.36,0,0,0,.6.9,3.33,3.33,0,0,0,.1,2.2c-.7.3-.9.4-1.2,1.1l-.6.3c-.3-.1-.6-.7-.7-1l-.9-.3c-.9-.4,0-2-2.3-3.6a2.35,2.35,0,0,0-1.6-.5l-.5-.7-.6-.1-.3-.4-.4-.1a10.1,10.1,0,0,0-1.8-4.1l-.9-.4c-.8-1.8-3.3-4.6-5-5.1l-1.1-.6a14.44,14.44,0,0,0-4-1.8c-.6-.6-.5-2.9-1.5-4.1-.4.5-.5,1.1-1.1,1.5a1.61,1.61,0,0,0-1.1.5l-.2.6c.1,1.1,1,1.6,1.8,2.3l.3,1.1c-.6.7-3.5,0-4.4,3.6l.3.6,1.3.8.1.3c-.4.2-1.2-.4-1.9-.2l-.3-.2-.5.2a2.84,2.84,0,0,1-1.2-.4,2,2,0,0,1-1.3.2l-.1-.3c0-.5.7-.7.8-1a3.55,3.55,0,0,1,.4-.9c.6-1.6,1.4-2.9,2.1-4.4a51.53,51.53,0,0,0,2.4-7.6c.8-2.7,2-4.9.7-7.6l-1-.7a2,2,0,0,0,.1-1.3c-.5-2-1.6-1.7-1.7-3.6-.4-.4-1.4-1.5-1.1-2.1l.5.2.8,1,.8.9c1.8,2.1,3.9,3.8,5.4,6.1,1.7,2.6,3,5.5,4.8,8a12.88,12.88,0,0,0,1.7,1.6,11.92,11.92,0,0,0,1.8,1.5,2.77,2.77,0,0,0-.3-1.3c-.2-.5-2.1-3.8-2.3-4.1a48.67,48.67,0,0,1-4-5c-.2-.4-.4-.7-.6-1.1-.5-1-1.4-2-1.9-3a8.75,8.75,0,0,0-1-2.2c-.7-1-1.8-1.4-2.6-2.3l-.4-.7a7.94,7.94,0,0,0-1-2.7l-.2-.1-.3.1a1.79,1.79,0,0,1-.4-1.4,1.14,1.14,0,0,0-.8-.3l-.4-.6v-.6a2,2,0,0,0-.8-.4c-1-1.7-2.3-1.8-4.1-1.9l.2-.2h.6l.3-1.1c-.7-.3-.7-1.1-1.8-1.5l-.1.5.6,1.3-.5,1,.3.7-.6-.3.3.7.2-.2a.86.86,0,0,1,.3.6,1.06,1.06,0,0,1-.8.1,5.37,5.37,0,0,0-1-1.6l.1-.4a2.65,2.65,0,0,0-.6-.5v-.3l.5-.1a14.46,14.46,0,0,0,.4-2.9c-.1-1.5-1.3-4.9-2.8-5.4a6.94,6.94,0,0,0-.8-2.8l-.6-.3-.4-.8-.5-.2a3.51,3.51,0,0,0-.6-1.4l.1-.7c-.5-1-1.1-.9-1.9-1.3-.2-.1-.4-.4-.6-.6l-.9-.6c-.9-.9-.6-1-2.1-2-.7-.5-5.2-2.9-5.5-3.3l-.7.3-.2-.6a4.63,4.63,0,0,1-1.3-1.8c-1-.5-1.6-1.3-2.7-1.5-.1-.2-.4-.6-.6-.6l-.2-.7a5.56,5.56,0,0,0-1.7-.9l-.3-.6H-.7l-.6-.7c.3-1-.7-2.4-1.4-3-.2,0-1.6-.7-1.6-.9l.3-.5v-.3c-1.3-1-1.6-2.9-3.1-3.8l-.1-.6-.2-.2-.2-.9a3.37,3.37,0,0,1-1.1-1.7l-1.2-.7a2.77,2.77,0,0,1-.1-.9c-.3-.4-.6-.9-.9-1.4-.2-.3-.7-.5-.9-.8a3.38,3.38,0,0,1-.6-1.2c-.3-.5-.9-.5-1.3-.8-.8-.4-1.4-1.3-2.1-1.8-.1,0-1.4-.5-1.6-.5-.2-.5-.9-.9-1.4-1.2v-.6c-.5-.4-.5-1.1-.9-1.6A4.81,4.81,0,0,0-22,54c-.1-.6-1.4-1.7-1.8-2.1h-1.1a2.59,2.59,0,0,0-1.1-.7l.2-.4a2.45,2.45,0,0,0-1.1-1.7c-1.3.3-1.9-2.2-3.1-2.1-1.3-1.5-.3-2.3-2.3-3.9a3.13,3.13,0,0,0-1-.5l-.1-.3a5,5,0,0,0-1.5-1.4c-.4-.3-.7-1.1-1-1.3l-.2-.1-.2-.6-1.2-.3-.3-1.1.4-.7A21.28,21.28,0,0,0-39,34.3l.2-.1.5.2.4-.1c.3-.5.8-1,1.1-1.5.5-.9.8-1.8,1.4-2.8.1-.2.3-.3.4-.6a18,18,0,0,0,.6-3.2c.1-.5,0-.9.3-1.3-.4-.7-.2-1.6-.4-2.4A8.8,8.8,0,0,0-35,21c-.1-.5-.2-1.1-.3-1.7-.1-.2-.2-.5-.3-.7a12.25,12.25,0,0,0-.2-1.9c-.2-.6-.8-1-.6-1.7l-.5-.7.2-.3a1.39,1.39,0,0,1-.2-1.1l-.8-.7h-.4l-.4-.6.2-.4-.1-.4.3-.4c-.3-.5-.6-1.2-.9-1.7-.6-1-1.2-.8-1.4-2.5a2.1,2.1,0,0,1-1.1-.4l-.1-.4.2-.5-.5-1,.1-.2.4-.1.1-.3c-.1-.2-.3-.7-.6-.8l.4-.4-.7-.6-.1-.4.2-.4-.8-1.9.1-.3-.8-1.7-.6.1c-.7-.4-.1-1.4-.4-2l.1-.2h.6L-44-6l.3-.6-.3-.2h-.7l-.8-.6.2-.5.6-.3.3-.3-.6-.8v-.5l-.3-.2-.2.1-.5-.8.1-.3a2,2,0,0,0-.9-.9l-.2-.4.5-.6-.4-.6.3-.3h.5v-.3l-.6-.3-.1-.5a1.16,1.16,0,0,0,.5-.7l-.3-.6c0-.2.1-.6.3-.7l-.1-.6.2-.3a2.92,2.92,0,0,1-.1-1.6l.4-.2.2-.9-.5-.6.1-.3.7-.3a1.61,1.61,0,0,0-.7-.4l-.3-.7.1-.4h.5l.1-.3-.3-.6.1-.7.4-.3.9-3.4L-45-29l.1-.2h.7c1.6-2,2.2-4.6,2.8-7.1.5-1.8-1.3-2.4-1-4a3.21,3.21,0,0,1-1-2.2l.6-1.5c.2-.5-.3-1.1-.4-1.6-.2-1,.2-1.9-.2-3.4a6.94,6.94,0,0,1-.5-1.3c-.1-.9.2-1.9-.2-2.8a2.7,2.7,0,0,1-.7-.8c-.7-1.1-.5-1.9-2.1-2.2-.4-.4-.8-1.3-.4-1.8l-.5-.8.1-.7c-.8-1.9-.4-3.1-.5-5.1a21.45,21.45,0,0,0-1.2-5" fill="none" stroke="#0978ab" stroke-linejoin="round" stroke-width="0.5"/><path id="path111" d="M119.6-68a7.89,7.89,0,0,1,1.5,1.2c.2-.1.3-.2.5-.2,2.5-.4,1,2.9,1,3.1s.3.9.4.9a9.8,9.8,0,0,1,3.6,3.4c.6-.2,1.5-1,2.1-.2a10.08,10.08,0,0,1,1.2,2.3c.5,1.3,2.6,4.3,0,4.7.8,1.2-1,2-2,1.9-.2.1-.5.2-.7.3,1.9.4,2.5,3.1-.5,3.4a1.14,1.14,0,0,0-.3.8c.7.8,2.1,1.8.9,2.9a2.73,2.73,0,0,1-1.2.9c-.1.6.1,2.2-.3,2.6,1,.4.5,2.2-.2,2.7l-.1.3.3.9a4.35,4.35,0,0,1,.6.7s.5,1.4.3,1.7c-.2.7.3,1.4.2,2.1s-.6,1.2-.7,1.9c-.3,1.6.4,4,.1,5.4a2.59,2.59,0,0,1-1.1,1.4c-.6,1.7.4,1.8.5,3.2,0,.4-.4,5.2-.5,5.4-.2.6-1.2,1.8-1.5,2.6a22.57,22.57,0,0,1,.7,6.3,3.33,3.33,0,0,0,.1,1.4l.5.3.6-.3.3.4c-.2,1.3,1.1,3.9.2,4.7l.1.7c1,.8,1.1,2.1,1.8,3,.9.7,2.4-.3,3.4-.1L131.2,6h0l-.3.6v.2l.2.4.1.3.3.7,1.2,1.2c.7,1.1.7,1,.5,2.1-.1.6-1,.7-1.4.8a4.35,4.35,0,0,0,.7.6l.5.1.2.1a1.59,1.59,0,0,1,.8,1,1,1,0,0,1,.4.5l.1.2.2,1,.7.6c.3.4.6.7.4,1.2a1.38,1.38,0,0,1,.1,1.1l.2.2.9.5,1.1-.1c1.3-.2,1.3-.3,2.1.6.6.5.5.6.7,1.4v.3l-.1.4.1.6.4.5.1.2.1.4c.5.5.5.6.6,1.4l.1.8.5,1.1.8.7c.6.2.8.3,1,.8l.1.3c0,1.1-.5,1.4-1.5,1.6l-.7.1a2.06,2.06,0,0,1-1,1.9,1,1,0,0,1-.5,1.3V34l.2.5c.7.8.4,1.1,0,2.1l1.2.7c.2.1,1.2.5,1.3,1a1.19,1.19,0,0,1,1.5.7,1.38,1.38,0,0,1-.3,1.2l-.7.5c-.1,1-.6,1.2-1.3,1.5.2.1.9.6,1,1a2.87,2.87,0,0,1,1.8.7l.3-.1.9-.4.4-.2c.7-1.1,1.8-.8,2.3.2l.5.3c.5.3,1.1.5.9,1.3.8.4.4,1,0,1.5V47l-.1.3.1.2c.6.9.5.7.6,1.9V50a1,1,0,0,1,.2.9c.6,0,.9-.1,1.1,0l.8.4.2.2.3.4c.5.7.7.9.5,1.6v.3c.3.9.3.9-.2,1.7l.4.2a5.55,5.55,0,0,1,.8.6c.3-.9.8-1.3,1.3-1.3l.1-.3.2-.2a1.44,1.44,0,0,1,1.4-.3c0-.5.9-1.4,1.5-1.2l1.1.3.2.1,1.1.7.2.2.6,1,.1.2c.5,1.8.4,1.2-.2,3l-.7,1.2-.1.5-.1,1.2-.1.2-.4,1,.6.2-1.2,1.3-.8.7v.4l.6,1,1.8,2,1.5,1.2h.2c1.1-.6,1.9-1,2.6.3l.1.3.2,3.2.1.8.6.7c.8-.6.7-.4,1.8-.5h.2a2.69,2.69,0,0,1,1.5.5l.2.2.3.6.1.2.2.6.1.5c.2,1-.1,1-.7,2l-.4.8.1.4.5,1.1c.5,1.8-.1,2.2-1.5,3a1.08,1.08,0,0,1,.2,1.4l-.1.1a1.44,1.44,0,0,1-1.8.5l-.5.2-.2.3-.1.8.1.4.7,1,.5.6.6.1,1.5.1h.2c1,.4.9.4,1.4,1.4l.1.3.1,1.1.1.9v.8l-.2.5-.2.3c-.7.7-.6.6-1.7.8h-.5l.4.8.3.4.8,1.6.1.3.1.9v.2l-.2.6-.1.3-.4.5-.5.5.1.9c-.1,2-.1,1.5-1.6,3-.5.5-1.4.5-2.1.7v.4c-.1.5-.2.9-.3,1.4.1,1.7,4.4,6.7,5.7,8.1a2.84,2.84,0,0,1-.4,1.2c-1.5.7-1.6,0-2.7.2l-.5.4c-.6,1.1,1,5.9-3.2,7.9-2.4,1.1-7-1.1-8.6-.3-.5.2-1.6.2-1.8.6-.4.8-1.4,1.2-1.3,2" fill="none" stroke="#0978ab" stroke-linejoin="round" stroke-width="0.25"/><path id="path249" d="M91.2,158.4l-.1-.2.2-.2h.2c.3,0,.6.5.7.8l-.1.2A3.49,3.49,0,0,0,91.2,158.4Z" fill="#fefee9" stroke="#0978ab" stroke-linejoin="round" stroke-width="0.5"/><path id="path251" d="M85.8,163.4l-.4.2-.7-.1-.3.2-.4-.1-.5-.5v-.3l.5-.2V162l.4.1.3-.4.4-.2a2.38,2.38,0,0,1,.9,1.3C86,163.1,86,163.3,85.8,163.4Z" fill="#fefee9" stroke="#0978ab" stroke-linejoin="round" stroke-width="0.5"/><path id="path253" d="M90.6,168.3l.6.6v.4l-.3.2-.4-.1c-.3-.4-.2-1.4-.8-2.2l.3-.8.6.2a2.38,2.38,0,0,1,.6,1.1C91.1,167.9,90.8,168.1,90.6,168.3Z" fill="#fefee9" stroke="#0978ab" stroke-linejoin="round" stroke-width="0.5"/></g></g></g></g><g id="Layer_5" data-name="Layer 5"><path d="M53.3,22.2a.9.9,0,0,1,.1.5,1,1,0,0,1-.5.4,2,2,0,0,1-.8.1h-.7a3,3,0,0,0-.8.4c-.6.4-.7.4-.9.4-.4-.1-.6-.8-.6-.8,0-.3.1-.3,0-.7a3.38,3.38,0,0,0-.6-1.2,8.79,8.79,0,0,1-1-.6,6.25,6.25,0,0,1-1.2-.1h-.1c-1.3.7-1.8,4.5-1.5,7.4.2,1.8.5,4,2.2,5,1.3.8,2.9.6,4.7.2s2.6-.4,3.2-1.2.5-2.2,0-4.6a.6.6,0,0,1-.1-.4C54.4,24.8,54.1,23.1,53.3,22.2Z" fill="#988ba0" opacity="0.7" style="isolation:isolate"/><path d="M56.2,78.3A41.17,41.17,0,0,1,64,88.6c1.9,3.7,3.1,7.9,7.1,9.9,5.6,2.9,13.2,4,19.3,5.6,3.1.8,13.7,4.7,16.2.8,4-6.2-8.2-16.9-11.4-20.8-4.9-6-4.3-15.8-11.1-19.7-2.4-1.4-4.8-1.7-6.4-4.2-1.3-1.9-1.2-4.2-2.7-6-2.6-3.2-7.7-4.3-11.4-5.5-4.9-1.6-9.6-2.8-14.8-1.6-3.6.8-11.9,2.9-13,7C33.6,62,51.5,73.4,56.2,78.3Z" fill="#988ba0" opacity="0.7" style="isolation:isolate"/><g opacity="0.8" style="isolation:isolate"><text transform="translate(50.92 122.58)" font-size="3.5" fill="#988ba0" font-family="Arial-BoldMT, Arial" font-weight="700" style="isolation:isolate">COAST </text><text transform="translate(50.82 126.78)" font-size="3.5" fill="#988ba0" font-family="Arial-BoldMT, Arial" font-weight="700" style="isolation:isolate">MIWOK</text></g><text transform="translate(128.2 66.71)" opacity="0.8" font-size="3.5" fill="#988ba0" font-family="Arial-BoldMT, Arial" font-weight="700" style="isolation:isolate">PATWIN</text><text transform="translate(127.61 172.97)" opacity="0.8" font-size="3.5" fill="#988ba0" font-family="Arial-BoldMT, Arial" font-weight="700" style="isolation:isolate">OHLONE</text><g style="isolation:isolate"><text transform="translate(64.75 39.16)" font-size="3.5" fill="#988ba0" font-family="Arial-BoldMT, Arial" font-weight="700" style="isolation:isolate">LAKE </text><text transform="translate(63.25 43.36)" font-size="3.5" fill="#988ba0" font-family="Arial-BoldMT, Arial" font-weight="700" style="isolation:isolate">MIWOK</text></g><text transform="translate(10.33 43.36)" opacity="0.8" font-size="3.5" fill="#988ba0" font-family="Arial-BoldMT, Arial" font-weight="700" style="isolation:isolate">POMO</text></g><path d="M61.93,89.52a99.49,99.49,0,0,0,11.15-5c7.52-4,8.74-5.92,9.2-6.74,1.17-2.1,1.07-3.56,2.72-5.06a9.15,9.15,0,0,1,6.48-1.94" fill="none" stroke="#fefee9" stroke-miterlimit="10" opacity="0.3"/></g><g id="Layer_3" data-name="Layer 3"><path d="M84.4,60.91a17.57,17.57,0,0,0-8.71,1.61c-1.85.89-2.39,1.61-5.61,3.43a28.24,28.24,0,0,1-5.85,2.87C58.5,70.42,55,67,52.66,69.16c-1.58,1.46-.51,3.6-2.29,5-1.59,1.3-4.08.89-5.95.34" fill="none" stroke="#fefee9" stroke-miterlimit="10" opacity="0.3"/><line x1="110.37" y1="20.6" x2="110.37" y2="20.7" fill="none" stroke="#fefee9" stroke-miterlimit="10"/></g><g id="Layer_4-2" data-name="Layer 4"><path d="M49.93,44a60.58,60.58,0,0,1,5.65,6.34c5.09,6.63,6.08,9.21,6.34,10.23a15.06,15.06,0,0,1,.35,6.34A10.59,10.59,0,0,1,62.05,68" fill="none" stroke="#fefee9" stroke-linecap="round" stroke-miterlimit="10" opacity="0.3"/></g><g id="Layer_2" data-name="Layer 2"><g style="isolation:isolate"><path d="M81,91.41l.35,0a.58.58,0,0,0,.13.26.43.43,0,0,0,.27.08.47.47,0,0,0,.26-.07.23.23,0,0,0,.09-.18.21.21,0,0,0,0-.11.32.32,0,0,0-.13-.07l-.29-.08a1.06,1.06,0,0,1-.41-.18.46.46,0,0,1-.16-.36.45.45,0,0,1,.07-.25.62.62,0,0,1,.23-.19.91.91,0,0,1,.35-.06.76.76,0,0,1,.51.15.55.55,0,0,1,.18.39l-.36,0a.34.34,0,0,0-.1-.2.39.39,0,0,0-.23-.06.37.37,0,0,0-.25.07.11.11,0,0,0-.06.11.14.14,0,0,0,.06.11,1.3,1.3,0,0,0,.33.12,2.32,2.32,0,0,1,.39.12.61.61,0,0,1,.2.19.58.58,0,0,1,.07.28.52.52,0,0,1-.09.29.48.48,0,0,1-.24.2,1.07,1.07,0,0,1-.39.06.79.79,0,0,1-.52-.15A.74.74,0,0,1,81,91.41Z" fill="#fefee9"/><path d="M82.64,91.11a1.22,1.22,0,0,1,.08-.46,1,1,0,0,1,.17-.25.73.73,0,0,1,.23-.16,1.12,1.12,0,0,1,.38-.07.83.83,0,0,1,.64.25,1,1,0,0,1,.24.68.92.92,0,0,1-.24.68,1,1,0,0,1-1.27,0A1,1,0,0,1,82.64,91.11Zm.37,0a.7.7,0,0,0,.14.46.48.48,0,0,0,.36.15.45.45,0,0,0,.35-.15.66.66,0,0,0,.14-.47.68.68,0,0,0-.13-.46.51.51,0,0,0-.72,0A.71.71,0,0,0,83,91.1Z" fill="#fefee9"/><path d="M84.65,90.2H85v1a2,2,0,0,0,0,.3.29.29,0,0,0,.11.18.43.43,0,0,0,.24.06.37.37,0,0,0,.23-.06.24.24,0,0,0,.09-.15,2.05,2.05,0,0,0,0-.31v-1h.36v.94a2.39,2.39,0,0,1,0,.46.42.42,0,0,1-.11.22.57.57,0,0,1-.21.15.81.81,0,0,1-.34,0A1,1,0,0,1,85,92a.57.57,0,0,1-.21-.15.54.54,0,0,1-.1-.2,2.31,2.31,0,0,1,0-.45Z" fill="#fefee9"/><path d="M86.87,92V90.51h-.54V90.2h1.43v.31h-.53V92Z" fill="#fefee9"/><path d="M88,92V90.2h.36v.71h.71V90.2h.36V92h-.36v-.78h-.71V92Z" fill="#fefee9"/><path d="M89.79,92V90.2h1.33v.31h-1v.39h.89v.3h-.89v.49h1V92Z" fill="#fefee9"/><path d="M91.46,92V90.2h.76a1.35,1.35,0,0,1,.42,0,.39.39,0,0,1,.21.17.57.57,0,0,1,.08.28.49.49,0,0,1-.12.34.6.6,0,0,1-.36.16,1.15,1.15,0,0,1,.2.15,1.94,1.94,0,0,1,.2.29l.22.35h-.43l-.26-.39a3,3,0,0,0-.19-.26.23.23,0,0,0-.11-.07.44.44,0,0,0-.18,0h-.08V92Zm.36-1h.27a1.87,1.87,0,0,0,.33,0,.25.25,0,0,0,.1-.08.25.25,0,0,0,0-.13.24.24,0,0,0,0-.15.31.31,0,0,0-.14-.07h-.55Z" fill="#fefee9"/><path d="M93.27,92V90.2h.35l.74,1.2V90.2h.33V92h-.36l-.72-1.16V92Z" fill="#fefee9"/><path d="M83.66,95l-.43-1.79h.37l.27,1.23.33-1.23h.43l.31,1.25.28-1.25h.36L85.15,95h-.39l-.35-1.34L84.05,95Z" fill="#fefee9"/><path d="M87.24,95h-.39l-.16-.4H86l-.15.4h-.38l.69-1.79h.38Zm-.66-.71-.25-.66-.24.66Z" fill="#fefee9"/><path d="M87.43,95V93.2H88a1.85,1.85,0,0,1,.43,0,.5.5,0,0,1,.26.17.56.56,0,0,1,.1.35.58.58,0,0,1-.06.28.54.54,0,0,1-.15.18.46.46,0,0,1-.19.08,1.7,1.7,0,0,1-.37,0h-.24V95Zm.36-1.48V94H88l.29,0a.24.24,0,0,0,.11-.09.23.23,0,0,0,0-.14.21.21,0,0,0-.06-.16.22.22,0,0,0-.14-.08h-.44Z" fill="#fefee9"/><path d="M89.1,95V93.2h.58a1.91,1.91,0,0,1,.43,0,.5.5,0,0,1,.26.17.56.56,0,0,1,.1.35.58.58,0,0,1-.06.28.54.54,0,0,1-.15.18.52.52,0,0,1-.19.08,1.7,1.7,0,0,1-.37,0h-.24V95Zm.36-1.48V94h.2a1.43,1.43,0,0,0,.28,0,.27.27,0,0,0,.12-.09.33.33,0,0,0,0-.14A.21.21,0,0,0,90,93.6a.29.29,0,0,0-.14-.08h-.44Z" fill="#fefee9"/><path d="M90.69,94.11a1,1,0,0,1,.09-.46,1,1,0,0,1,.16-.25.87.87,0,0,1,.23-.16,1.18,1.18,0,0,1,.39-.07.82.82,0,0,1,.63.25,1.08,1.08,0,0,1,0,1.36.82.82,0,0,1-.63.24.85.85,0,0,1-.63-.24A.92.92,0,0,1,90.69,94.11Zm.38,0a.65.65,0,0,0,.14.46.45.45,0,0,0,.35.15.46.46,0,0,0,.36-.15.71.71,0,0,0,.14-.47.68.68,0,0,0-.14-.46.46.46,0,0,0-.36-.15.48.48,0,0,0-.36.15A.71.71,0,0,0,91.07,94.1Z" fill="#fefee9"/></g><g style="isolation:isolate"><path d="M66,74.12l.35.11a.73.73,0,0,1-.27.43.71.71,0,0,1-.47.14.78.78,0,0,1-.59-.24.94.94,0,0,1-.23-.67A1,1,0,0,1,65,73.2a.83.83,0,0,1,.61-.25.72.72,0,0,1,.53.2.65.65,0,0,1,.18.33l-.35.08a.4.4,0,0,0-.14-.22.36.36,0,0,0-.24-.08.39.39,0,0,0-.32.15.63.63,0,0,0-.13.46.71.71,0,0,0,.13.48.38.38,0,0,0,.56.05A.5.5,0,0,0,66,74.12Z" fill="#fefee9"/><path d="M66.61,74.77V73h1.33v.31H67v.39h.9V74H67v.49h1v.3Z" fill="#fefee9"/><path d="M68.28,74.77V73h.35l.73,1.2V73h.34v1.79h-.36l-.72-1.16v1.16Z" fill="#fefee9"/><path d="M70.49,74.77V73.29H70V73h1.43v.31h-.53v1.48Z" fill="#fefee9"/><path d="M71.61,74.77V73h.76a1.4,1.4,0,0,1,.42,0,.43.43,0,0,1,.21.17.57.57,0,0,1,.07.29.47.47,0,0,1-.11.33.55.55,0,0,1-.36.16,1.15,1.15,0,0,1,.2.15,2.68,2.68,0,0,1,.2.29l.22.35h-.43l-.26-.39-.19-.26a.23.23,0,0,0-.11-.07.44.44,0,0,0-.18,0H72v.74Zm.36-1h.27a1.73,1.73,0,0,0,.32,0,.23.23,0,0,0,.11-.08.25.25,0,0,0,0-.13.2.2,0,0,0,0-.15.23.23,0,0,0-.13-.07H72Z" fill="#fefee9"/><path d="M75,74.77h-.39l-.16-.4h-.72l-.14.4h-.39l.7-1.79h.38Zm-.67-.7-.24-.67-.24.67Z" fill="#fefee9"/><path d="M75.23,74.77V73h.36v1.47h.9v.3Z" fill="#fefee9"/><path d="M66.38,77.77,66,76h.37l.27,1.23L66.92,76h.43l.31,1.25L67.93,76h.37l-.44,1.79h-.38l-.36-1.33-.35,1.33Z" fill="#fefee9"/><path d="M70,77.77h-.4l-.15-.4h-.72l-.14.4h-.39l.7-1.79h.38Zm-.67-.7-.24-.67-.25.67Z" fill="#fefee9"/><path d="M70.15,77.77V76h.58a1.91,1.91,0,0,1,.43,0,.51.51,0,0,1,.26.18.53.53,0,0,1,.1.34.58.58,0,0,1-.06.28.47.47,0,0,1-.34.26,1.7,1.7,0,0,1-.37,0h-.24v.67Zm.36-1.48v.5h.2a.91.91,0,0,0,.28,0,.27.27,0,0,0,.12-.09.23.23,0,0,0,0-.14.21.21,0,0,0-.06-.16A.29.29,0,0,0,71,76.3h-.44Z" fill="#fefee9"/><path d="M71.82,77.77V76h.58a1.91,1.91,0,0,1,.43,0,.45.45,0,0,1,.25.18.53.53,0,0,1,.11.34.58.58,0,0,1-.06.28A.45.45,0,0,1,73,77a.6.6,0,0,1-.19.08,1.81,1.81,0,0,1-.38,0h-.23v.67Zm.36-1.48v.5h.2a1,1,0,0,0,.28,0,.2.2,0,0,0,.11-.09.24.24,0,0,0,0-.14.21.21,0,0,0-.06-.16.28.28,0,0,0-.15-.08h-.43Z" fill="#fefee9"/><path d="M73.41,76.89a1.22,1.22,0,0,1,.08-.46.81.81,0,0,1,.17-.24.72.72,0,0,1,.23-.17,1.13,1.13,0,0,1,.39-.07.86.86,0,0,1,.63.25,1.08,1.08,0,0,1,0,1.36.85.85,0,0,1-.63.24.84.84,0,0,1-.63-.24A.92.92,0,0,1,73.41,76.89Zm.37,0a.7.7,0,0,0,.14.46.5.5,0,0,0,.36.16.48.48,0,0,0,.36-.16.69.69,0,0,0,.13-.47.68.68,0,0,0-.13-.46.46.46,0,0,0-.36-.15.44.44,0,0,0-.36.16A.67.67,0,0,0,73.78,76.88Z" fill="#fefee9"/></g><g style="isolation:isolate"><path d="M60.15,56V54.17h.35l.73,1.2v-1.2h.34V56h-.36l-.72-1.17V56Z" fill="#fefee9"/><path d="M61.88,55.08a1.19,1.19,0,0,1,.08-.46,1,1,0,0,1,.17-.25.87.87,0,0,1,.23-.16.94.94,0,0,1,.39-.07.82.82,0,0,1,.63.25.92.92,0,0,1,.24.68.94.94,0,0,1-.24.68.85.85,0,0,1-.63.24.82.82,0,0,1-.63-.24A.92.92,0,0,1,61.88,55.08Zm.37,0a.71.71,0,0,0,.14.47.48.48,0,0,0,.36.15.45.45,0,0,0,.35-.15.66.66,0,0,0,.14-.47.68.68,0,0,0-.13-.46.51.51,0,0,0-.72,0A.7.7,0,0,0,62.25,55.06Z" fill="#fefee9"/><path d="M63.9,56V54.17h.76a1.4,1.4,0,0,1,.42,0,.41.41,0,0,1,.2.17.46.46,0,0,1,.08.28.49.49,0,0,1-.12.34.57.57,0,0,1-.35.16,1,1,0,0,1,.19.15,2.84,2.84,0,0,1,.21.29l.22.35h-.43l-.27-.39a1.31,1.31,0,0,0-.19-.26.28.28,0,0,0-.11-.08l-.18,0h-.07V56Zm.36-1h.27a1.73,1.73,0,0,0,.32,0A.22.22,0,0,0,65,54.7a.25.25,0,0,0,0-.15.21.21,0,0,0-.14-.07h-.54Z" fill="#fefee9"/><path d="M66.11,56V54.47h-.54v-.3H67v.3h-.53V56Z" fill="#fefee9"/><path d="M67.23,56V54.17h.36v.71h.71v-.71h.36V56H68.3v-.78h-.71V56Z" fill="#fefee9"/><path d="M69,56V54.17h1.33v.3h-1v.4h.89v.3H69.4v.49h1V56Z" fill="#fefee9"/><path d="M70.7,56V54.17h.76a1.35,1.35,0,0,1,.42,0,.39.39,0,0,1,.21.17.54.54,0,0,1,.08.28.49.49,0,0,1-.12.34.6.6,0,0,1-.35.16,1.57,1.57,0,0,1,.19.15,1.94,1.94,0,0,1,.2.29l.22.35h-.43l-.26-.39a1.93,1.93,0,0,0-.19-.26.38.38,0,0,0-.11-.08l-.18,0h-.07V56Zm.37-1h.26a1.87,1.87,0,0,0,.33,0,.25.25,0,0,0,.1-.08.28.28,0,0,0,0-.13.24.24,0,0,0,0-.15.23.23,0,0,0-.14-.07h-.54Z" fill="#fefee9"/><path d="M72.51,56V54.17h.35l.74,1.2v-1.2h.33V56h-.36l-.72-1.17V56Z" fill="#fefee9"/><path d="M62.83,59l-.43-1.79h.37L63,58.4l.33-1.23h.43l.31,1.25.28-1.25h.36L64.32,59h-.39l-.35-1.34L63.22,59Z" fill="#fefee9"/><path d="M66.41,59H66l-.16-.41h-.71L65,59h-.38l.69-1.79h.39Zm-.66-.71-.25-.66-.24.66Z" fill="#fefee9"/><path d="M66.6,59V57.17h.58a1.85,1.85,0,0,1,.43,0,.41.41,0,0,1,.26.17.56.56,0,0,1,.1.35.61.61,0,0,1,0,.28.69.69,0,0,1-.16.18.48.48,0,0,1-.18.08,1.87,1.87,0,0,1-.38,0H67V59ZM67,57.47V58h.2a.89.89,0,0,0,.29,0,.18.18,0,0,0,.11-.08.23.23,0,0,0,0-.14.21.21,0,0,0-.06-.16.18.18,0,0,0-.14-.08l-.26,0Z" fill="#fefee9"/><path d="M68.27,59V57.17h.58a1.91,1.91,0,0,1,.43,0,.44.44,0,0,1,.26.17.56.56,0,0,1,.1.35.61.61,0,0,1-.06.28.65.65,0,0,1-.15.18.46.46,0,0,1-.19.08,1.7,1.7,0,0,1-.37,0h-.24V59Zm.36-1.49V58h.2a.93.93,0,0,0,.29,0,.21.21,0,0,0,.11-.08.23.23,0,0,0,0-.14.21.21,0,0,0-.06-.16.23.23,0,0,0-.14-.08,1.34,1.34,0,0,0-.26,0Z" fill="#fefee9"/><path d="M69.87,58.08a1,1,0,0,1,.08-.46,1,1,0,0,1,.16-.25.78.78,0,0,1,.24-.16.92.92,0,0,1,.38-.07.79.79,0,0,1,.63.25.92.92,0,0,1,.24.68,1,1,0,0,1-.23.68,1,1,0,0,1-1.27,0A.91.91,0,0,1,69.87,58.08Zm.37,0a.71.71,0,0,0,.14.47.45.45,0,0,0,.35.15.46.46,0,0,0,.36-.15.71.71,0,0,0,.14-.47.68.68,0,0,0-.14-.46.46.46,0,0,0-.36-.15.45.45,0,0,0-.35.15A.65.65,0,0,0,70.24,58.06Z" fill="#fefee9"/></g><text transform="translate(46.27 27.74)" font-size="2" fill="#fefee9" font-family="Arial-BoldMT, Arial" font-weight="700" style="isolation:isolate">LIKEEK<tspan x="-0.06" y="2.4">WAPPO</tspan></text><g style="isolation:isolate"><path d="M42.77,59l-.43-1.78h.37L43,58.44l.33-1.22h.43l.31,1.25.28-1.25h.36L44.26,59h-.39l-.35-1.33L43.16,59Z" fill="#fefee9"/><path d="M44.87,59V57.22H46.2v.3h-1v.4h.9v.3h-.9v.48h1V59Z" fill="#fefee9"/><path d="M46.45,58.42l.35,0a.46.46,0,0,0,.13.26.42.42,0,0,0,.26.08.41.41,0,0,0,.27-.07.25.25,0,0,0,.08-.17.18.18,0,0,0,0-.11.32.32,0,0,0-.13-.08l-.29-.08a1,1,0,0,1-.41-.18.44.44,0,0,1-.16-.36.45.45,0,0,1,.07-.25.47.47,0,0,1,.23-.18.87.87,0,0,1,.35-.07.78.78,0,0,1,.51.15.51.51,0,0,1,.17.4h-.36a.3.3,0,0,0-.1-.2.35.35,0,0,0-.23-.06.43.43,0,0,0-.24.07.13.13,0,0,0-.06.11.16.16,0,0,0,0,.11,1,1,0,0,0,.34.12,1.6,1.6,0,0,1,.39.13.41.41,0,0,1,.19.18.51.51,0,0,1,.08.28.5.5,0,0,1-.09.29.52.52,0,0,1-.24.2,1.13,1.13,0,0,1-.39.07.79.79,0,0,1-.52-.16A.67.67,0,0,1,46.45,58.42Z" fill="#fefee9"/><path d="M48.61,59V57.52h-.53v-.3H49.5v.3H49V59Z" fill="#fefee9"/><path d="M49.74,59V57.22h1.32v.3h-1v.4H51v.3h-.9v.48h1V59Z" fill="#fefee9"/><path d="M51.4,59V57.22h.77a1.35,1.35,0,0,1,.41,0,.44.44,0,0,1,.21.17.57.57,0,0,1,.08.29.48.48,0,0,1-.12.33.55.55,0,0,1-.35.16,1,1,0,0,1,.19.16,1.51,1.51,0,0,1,.2.29L53,59h-.43l-.26-.38c-.09-.14-.16-.23-.19-.27a.26.26,0,0,0-.11-.07.44.44,0,0,0-.18,0h-.07V59Zm.37-1H52a1.87,1.87,0,0,0,.33,0,.16.16,0,0,0,.1-.08.25.25,0,0,0,0-.13.25.25,0,0,0,0-.15.26.26,0,0,0-.14-.07h-.54Z" fill="#fefee9"/><path d="M53.21,59V57.22h.35l.74,1.19V57.22h.33V59h-.36l-.72-1.16V59Z" fill="#fefee9"/><path d="M44.36,62l-.42-1.78h.37l.27,1.22.32-1.22h.43l.32,1.25.27-1.25h.37L45.85,62h-.38l-.36-1.33L44.76,62Z" fill="#fefee9"/><path d="M48,62h-.4l-.15-.4h-.72l-.15.4h-.38l.7-1.78h.38Zm-.67-.7L47,60.63l-.24.67Z" fill="#fefee9"/><path d="M48.14,62V60.22h.58a2.14,2.14,0,0,1,.43,0,.51.51,0,0,1,.26.18.61.61,0,0,1,.1.35.54.54,0,0,1-.06.27.45.45,0,0,1-.15.18.52.52,0,0,1-.19.08,1.77,1.77,0,0,1-.37,0H48.5V62Zm.36-1.48V61h.2A.81.81,0,0,0,49,61a.27.27,0,0,0,.12-.09.33.33,0,0,0,0-.14.23.23,0,0,0-.06-.16.28.28,0,0,0-.15-.08H48.5Z" fill="#fefee9"/><path d="M49.81,62V60.22h.58a2,2,0,0,1,.42,0,.48.48,0,0,1,.26.18.62.62,0,0,1,0,.62.4.4,0,0,1-.16.18.48.48,0,0,1-.18.08,1.81,1.81,0,0,1-.38,0h-.23V62Zm.36-1.48V61h.19a.89.89,0,0,0,.29,0,.2.2,0,0,0,.11-.09.23.23,0,0,0,0-.14.22.22,0,0,0-.2-.24h-.43Z" fill="#fefee9"/><path d="M51.4,61.12a1.26,1.26,0,0,1,.08-.46.81.81,0,0,1,.17-.24.57.57,0,0,1,.23-.16.93.93,0,0,1,.39-.08.86.86,0,0,1,.63.25,1.08,1.08,0,0,1,0,1.36.86.86,0,0,1-.63.25.83.83,0,0,1-.63-.25A.9.9,0,0,1,51.4,61.12Zm.37,0a.7.7,0,0,0,.14.46.5.5,0,0,0,.36.16.46.46,0,0,0,.35-.16.65.65,0,0,0,.14-.47.65.65,0,0,0-.13-.45.48.48,0,0,0-.72,0A.67.67,0,0,0,51.77,61.11Z" fill="#fefee9"/></g></g></svg>