<?xml version="1.0" encoding="UTF-8" standalone="no"?>
<svg
   viewBox="0 0 455.24 378.31"
   version="1.1"
   id="svg4"
   xmlns="http://www.w3.org/2000/svg"
   xmlns:svg="http://www.w3.org/2000/svg"
   xmlns:rdf="http://www.w3.org/1999/02/22-rdf-syntax-ns#"
   xmlns:cc="http://creativecommons.org/ns#"
   xmlns:dc="http://purl.org/dc/elements/1.1/">
  <defs
     id="defs4" />
  <title
     id="title1">Yucatec map</title>
  <g
     id="Layer_1"
     data-name="Layer 1">
    <g
       id="svg2">
      <g
         id="g32412">
        <path
           id="path32416"
           d="M-89.85-391.66V671.1h1582V-391.66Z"
           fill="#c6ecff" />
        <path
           id="path32466"
           d="M395.05,246.56l-2.68.89-3.56,1.78H387l2.68-2.67,1.78-.89,2.67-.89,1.79-.89h5.35l-2.68.89-3.56,1.78"
           fill="#fefee9" />
        <path
           id="path32534"
           d="M335.32,183.27l-1.78.9,1.78-2.68v-1.78l1.79-3.57.89-2.67h.89l.89.89-.89,1.78-.89,2.68-.89,1.78-1.79,2.67"
           fill="#fefee9" />
        <path
           id="path32536"
           d="M339.78,203.78l-3.56,5.32v-1.78l2.67-5.35,1.78-1.78v-1.78l.89.89v1.8l-1.78,2.68"
           fill="#fefee9" />
        <path
           id="path32538"
           d="M191.82,152.1,190,153h-2.67l-.89-.89,2.67-.9,1.78-.89,2.68-.89,1.78-.89h1.78v.89l-1.78.89-2.67.89-.89.9"
           fill="#fefee9" />
        <path
           id="path32544"
           d="M374.54,86.1l-1.78.89-.89-1.79V82.55l.89-1.78V78.1l2.68-2.67H379l2.68-.89v.89L379.89,79l-1.78,2.68-1.78,1.78-1.79,2.65"
           fill="#fefee9" />
        <path
           id="path32602"
           d="M608.08-391.66,606.3-389l-2.68.89-1.78.89h-1.78l-.89.89.89.89.89,1.79v.89l-.89.89-2.67.89-1.77,1.78,1.79,1.79-.9,1.78-2.67,1.78v.89l.89.89.89-.85.89.89-1.78,1.79-.89,1.78-1.78,2.67-3.57.9v.89l2.68.89.89,1.78-.89,1.78-1.79,1.79h-1.76l-.89-.89-.89,2.67v1.78L585-351.5v2.6l-1.79,3.57v2.67l.89,2.67,1.79,3.57.89,2.67v2.68l.89,2.67v2.68l.89,2.67v1.78l2.68,8v2.68l.89,1.78.89,2.68v2.67l.89,1.78.89,2.68.89,1.78.89,2.67.9,1.79,1.78,5.34,1.78,1.79,1.78,5.35.89,1.78,1.79,2.67.89,2.68.89,1.78L609-268.7l.89,1.79,1.79,2.67,1.78,1.78.89,2.68,1.78,1.78.9,2.67,1.78,1.79,1.78,2.67.89,2.67-1.78,2.68v9.8l.89,2.68.89,1.78.89,2.67.89,1.79.9,2.67-1.83-1.77-.89-1.78-3.56-10.7v-5.35l.89-3.56v-2.61l-.89.89-1.79,5.35-.89,1.78-1.78-5.34.89-1.79.89-2.67v-.89l-2.67-1.79-.89-1.78.89-1.78-1.78-.89h-.9V-257l.9,2.67.89,3.57.89,1.78v2.68l.89,2.67.89,1.78.89,2.68,1.78,3.56,1.79,5.35.89,1.78,1.78,2.68,2.68,8L625-216l1.78,5.35,1.78,2.68.89,1.78L633-195.55l4.46,4.46.89,3.57.89,2.67v2.68l.89,2.67V-167l-.89,2.67v4.45l-.89,2.67v2.68l-.89,2.67v12.48l-.9-.89v-.89l-.89-.89-.89,3.56-.89,2.68-1.78,2.67-1.78,1.78v2.68l-.9,2.67v2.67l-.89,1.79-.89,2.67-1.78,1.78-2.68,1.79h-2.67l-2.67.89-1.79.89-2.67,1.78-2.67-.89H609l-2.67.89-3.57.89-3.56-.89-1.79-3.56v-1.79l.9-.89,1.78-.89,1.78,1.78,2.68,1.79.89-.89-.89-2.68-3.57-.89-1.78-.89-.89-2.68-1.79-1.78-.89-2.67-.89-1.78-1.78-1.79L592-134l-1.79-1.78-.89-1.79v-1.78l-8-2.67L576-145.64l-.89-2.67-1.78-1.79-.89-2.67-.89-1.78v-2.68l-.94-2.67v-1.78l-.89-2.68-1.78-.89L566.17-167l1.78-1.78.89-1.79,1.78-1.78.9-2.67-1.79.89L568-172.38l-1.78,3.57h-2.68l-.89-3.57-.89-2.67v-2.68l.89-2.67v-2.68l1.78-2.67h-3.56l-2.67.89v3.57h-2.68l-1.78-.89L551-184.9l-1.78-2.67-.89-2.68L546.62-192l-.89-2.67-.9-1.79-1.78-2.67-.89-2.67-.89-1.79-1.78-1.78L537.62-208h.9l1.78-.9,1.78-1.78.89-2.67,5.35-5.35.89-2.67v-.9l-1.78-1.78-1.78.89h-.9L543-226.75l-2.67-.89-1.78.89,1.78,2.67,1.78.89-.89,1.79v3.56l-1.78.89h-1.79l-1.78.89-.89-1.78-.89-.89-1.78-3.57,1.78-5.34v-2.68l1.78-5.35v-2.67l.89-1.78,2.68-8V-259.7l.89-1.79-1.74-5.41-1.79-1.79L535-271.36l-1.78-1.78-2.68-1.76-1.78-1.78-2.67-1.78-1.79-1.78L521.62-282l-1.78-1.78-2.68-1.78-1.78-1.79L513.62-290l-3.57-3.57-1.78-2.67-1.78-1.78-1.79-2.68-3.56-3.56L499.35-307l-2.73-1.78-2.67-.89-2.68-1.78-2.67-.89-2.68-1.79h-2.67l-1.78.89h-2.68l-2.67.9-1.78.89-.89,2.67.89,1.78-.89.9h-7.14l-1.69,1.78-2.67.89-2.68,1.78-1.78.89h-3.56l-3.57.9-1.78.89-3.57.89h-2.67l-2.68.89h-4.45l-1.79-3.57v-2.67l.9,2.67,1.78,1.79.89-.89.89-1.79-1.78-3.56-1.78-.89-2.7-1.82-1.78-.89L423.62-315h1.78l.89-.89-2.67-1.78.89-1.78,1.78-1.79h-2.67L421-319.45v.89l-.9,1.78h-.89l-2.67-1.78-5.35-1.79-1.78-.89-2.68-.89L404-323.9h-2.67l-8-2.68h5.33l2.68-.89,2.67.89h1.78v-1.78l-.89-.89-3.56-.89h-2.68l-1.78.89-3.57-.89-2.67.89-2.68,1.78-3.56.89-2.67.9h-5.35l-2.68.89H371l-3.57.89h-2.67l.89-.89,1.78-.89,5.35-1.79.89-2.67-.89-2.68H371l-1.78,2.68-1.8-1.76h-1.79v3.56l-4.45,4.44-1.78.89-2.67.89h-3.57l1.78-2.67v-.89l-2.67.89L350.48-323l-1.79,2.67h-6.23l-2.68.9h-6.24l.89-.9h2.68l2.67-.89,1.78-.89-.89-1.78-1.78-2.68H338l-.89-1.78v-4.46l-.89-2.67-2.68-2.67-.89.89-.89,1.78L330-330.14l-.9,3.56-.89,1.79H306.8l-1.78-.89-2.68-.9h-3.56l-5.35,1.79-3.57.89h-7.13L281-322.12l-.89,1.78-1.78.9-2.66,1.77-2.67.89-2.67-.89-3.57-.89-8-2.68-1.79-.89-1.82-1.77L248-325.68,246.19-323l-1.78,1.78-3.57,5.33,5.35,3.57,1.78.89h5.35l3.56-.89,1.79-1.79,1.78-.89H264l1.78-.89.89-.89,2.67.89v.89l-3.56,3.57-1.78.89.89,1.78,1.78,1.78,1.78.9h4.46l.89-3.57,2.67-2.67,3.57.89-.89.89.89,1.78,1.78,1.78-.89,3.57.89.89-4.45,1.78h-2.68l-1.78,1.85.89,1.78-2.67.89-1.79-.89v.89l-1.74,1.73,1.78,3.57,3.57,1.78,2.67,2.68,8,2.67,1.78.89h2.67l1.78,1.78.9,1.79,1.78,1.78h1.78v2.66l-3.56,1.79L289-269.55l-.89-1.78-1.78-.89-3.57,3.56H281l.89-3.56-1.78-.89-1.78-3.57-2.67-2.66-2.67-.89L269.38-282h-1.76l-2.67-.89v-1.78l-.89-1.78-13.44-4.43v.89l.9,1.78h1.78l1.78,1.79v3.54l-.89,1.78-.89,2.68v1.78l-1.76,1.76-2.68,1.79-1.78-.9-1.78-5.34-2.68-1.78h-5.35l-2.67.9L231-274.9l-3.56.89-1.78-.89-5.35-1.78h-1.78l-3.57-.89-2.67-1.78L207-281.14V-282l1.78-.89,3.57.89v-1.78l-3.57-3.57-.89-2.67.89-1.78h-.89L205.19-290l-1.79-.89h-2.67l-2.68-.89-1.78-1.79-.89-1.78-1.76-2.66-.89-1.78h-6.24l-.89-1.79-1.79-1.78-2.67.89-1.78.89-2.74,1.79-1.78,1.78.89,1.78,1.78,1.78-.89.89-7.13,1.79h-2.67l-2.68-.89h-5.35l-2.67-.9h-2.63l-1.79-.89-5.34-1.78-3.57-1.78-8-2.68-4.46-.89-4.46.89h-11.6l-2.68.9-1.78.89-1.78-.89-.89-2.68h1.78l.89-.89,1.81-2.67v-1.82l-.89-.89h-1.81L107.14-307l-.9,2.68-1.78,1.78,1.78,1.78.9,1.79v1.78h-2.68l-2.67.89H99.11l-8,2.67-2.67,1.79-8,2.67-1.82,1.81-2.67.9-2.68,1.78.89-1.78,1.79-.9,1.78-1.78L80.4-290l1.79-1.78H76.83l-2.68.89-1.78-.89,1.78-1.79.9-2.67-.9-3.56H70.62l-1.78,3.56-3.57-1.78H63.46v2.67l.89,2.68v1.81L67-288.23l.9,1.79.89,2.67L66.13-282l-2.67,2.68-2.68,1.78L59-275.78l-.89,3.57-1.78,2.67-2.71,1.78L51.84-266l-2.67.89-5.35,3.56-2.68.9-1.78,1.78L34-256.17l-2.67,1.78-3.57.9-2.67.89-2.67,1.78L18.86-249l-2.67.89,2.67-1.78,1.78-.89,2.68-1.78,1.78-1.79-3.57.9-3.56-.9-2.67-.89H10.84v.89L8.17-252.6l-2.68-1.79-1.78-1.78v-.89l-1.78-.89-.9.89.9,1.78.89,2.68,1.78,1.78.89,2.67H7.27l1.79.9-1.79,2.67L3.71-242.8H1.93l-2.68.89-3.56-3.56v1.78L-5.2-241v3.56l-1.79.89-1.78,1.78-.89-.89-.89-1.78-.89,1.78-1.79.89h-3.56l-1.79.9v3.56l2.68-.89,1.78-.89-.89,1.78-.89,2.68-1.75,1.74-1.79,2.67-2.67.89h-2.68l-2.67-.89-1.78,1.79,1.78,1.78,1.78,2.76,1.79,1.78-3.57,10.7-.89,1.78L-31-200h-1.78l-1.78-.89-2.67-1.79-3.57-1.78-1.78-1.78.89,2.67.89,1.79,1.78,2.67,1.79.89h2.67l2.67.89.89,2.68v2.67l-1.78,2.67-1.78,3.57,1.78,1.78v3.57l2.68,8v3.57l.89,2.67.89,3.57.89,1.78,1.78,2.67.89,1.78.9,2.68,1.78,1.78.89,2.68h2.67v9.8L-20.33-134v1.78l-.89,2.68L-23-126.9l-.89,1.78-1.79,2.68-.89,2.67-.89,1.78-1.78,2.68-.89,2.67-.9,1.78-.89,2.68v1.78l-2.67,8v2.68l-.89,1.82-.9,2.63v2.68l-1.79,5.35v2.67L-39-77.9v5.35l-.89,2.65v2.67l-.89,2.67v8l-.89.89.89,1.78v4.46l-.89,2.67v8L-42.61-37v2.67l.89,2.68v12.47l-1.78,1.79-1.79,5.46-.89,3.56.89,2.67V-3.9l.89,1.78V.55l.9,2.68L-42.61,5V12.1L-39,17.45l.89,1.78,1.78,2.71.89,2.67,1.78,1.78,1.79,2.71,5.35,3.56,1.78,1.79-.89,2.65v2.67l-1.78,2.68-.92,1.77V46l-.89-2.67V38.87l1.78-2.67V34.42l-2.67-1.79-1.79-1.78-1.78-2.67-1.78-1.79-.87-1.78-1.79-2.67-.89-1.79-1.78-2.67-.89-1.78.89,2.67v1.78l1.78,5.35v2.68l.89,2.67.9,1.78,1.78,2.68.89,1.78,1.78.89.89,1.78v1.79l.89,1.78.9,2.67,1.76,2.68.89,1.78,1.78,5.35,1.79,2.67.89,2.68,1.78,1.78.89,2.67v3.57L-18.58,71l.9,2.68,8.91,8.91L-7,85.22l5.35,5.35L.14,93.25,1.93,95l.89,1.78,1.8,2.68,1.78,1.78,1.79,2.67.89,1.79v2.67l2.67,8L13.53,120l.89,2.67v2.68l2.68,1.78,3.56,3.56.89,2.68.9,1.78L26,136.9l.89,1.79.89,2.67.9,1.78L34,146.71l-.89.89-2.67-1.78-1.78-.89v1.78l1.78.89,1.78,1.78,8,2.68H42l-5.35-3.57h.93L43,150.27l1.78.89H57.22L59,153l2.68,1.78,1.78,1.78,5.35,1.79,3.56.89.89,1.78,1.79,2.67,1.78,1.79,3.56,5.34.9,1.79,3.56.89h2.68l2.67-.89h2.67l5.35-1.79,1.78-.89,8-2.67,3.62-1.76,8-2.68h2.68l2.67-.89h9.81l1.78.89,1.78-.89H141l2.67-.89h1.78l2.68-.89,3.56-3.57.89-1.78h2.68l2.67-.89,3.57-.89.89-.89H174l1.78-.89h5.35l1.78.89,1.78,1.78v1.78L182,157.42l.89.9,2.68.89,1.78,1.78H190l2.68.89h2.67l2.67-.89,1.79-1.78,1.78-.89,1.78-1.79,1.79-.89,2.67-.89v-4.46l-1.78-1.78H204.3v-1.78l.9-2.68v-.89L203.41,145l-2.67.89h-.89l3.56-3.57,5.35-1.78,1.78-1.78,2.68-.9,2.67-2.67,1.78-.89,2.68-.89,1.78-2.68,1.78-1.78,2.71-1.8,1.78-2.68v-1.78l.89-2.67v-5.35l.89-2.68v-2.67L232,106.6l1.78-1.79,1.78-.89,1.78-1.78.9-1.78v-25l.89-2.68v-3.5L240,67.4l2.67-8,.89-1.78,1.79-1.78L248,54.06l1.78-1.79,2.68-.89,1.78-.89,2.67-.89,1.79-.89,2.67-1.78,2.68-.9h2.67l1.78-.89h5.35l2.67-.89h2.68l2.67-.89h2.68l2.67-.89h2.67l2.68-.89h2.67l1.79-.89h2.67l5.35-1.79,1.78-.89,2.67-.89,1.79-1.78H314l1.78-.89h8l2.67-.89h.89v-.9h6.24l2.68.9,3.56.89,2.68.89H346l10.7,3.56h7.13l.89-.89.87-1.81-.89-.89h-.89l-.89.89h-1.79l-3.54-.89.89-.89h3.57l5.34-2.68L371,33.53l3.55,3.57.9,1.78L379,40.67V47.8l1.78,3.56L379.89,54V57.6l-1.78,1.78-.89,2.72-.89,1.78-.89,2.68-3.57,3.54-1.78,2.67-1.79,1.79-2.68,1.75-3.56,3.57-.9,2.67-1.78,1.78L357.62,87l-1.78,1.78L354,94.1v4.45l1.79,3.57L354,105.69h-.89l-3.53,1.82-.9,1.78-1.81,1.81-.89,1.79v1.78l1.78,1.78,1.79-.89h6.24v3.54L354,120.88l-3.56,1.78-2.68.89-.89.89v4.46h1.78l.93-1.8,1.78-.89h1.78v.89l-2.67,8-.89,1.78-.9,2.68v2.67l-1.78,5.35-2.67,5.35-.89,3.56v5.35L339.81,169H338l-.89-2.67-.89-1.78-.9-2.68-2.73-1.74-.89-1.78.89-2.68V153l.89-2.68-.89-2.67v-1.78h-1.78l-1.79,2.67-2.67,1.78v3.57l-3.56,5.35V161L321,162.77l-.89,2.68,2.68.89,1.78-.89h4.45l1.79,5.35-.89,1.78v2.67l-.9,1.78-.89,2.68-.89,1.78-.89,2.68-.89,1.78v4.45l-1.78,5.35.89,1.79,1.78,1.78L324.62,202l-.89,2.68-.89,3.56V218l.89,1.78v5.35l-.89,2.67v2.68l-.9,2.67v2.67l-1.78,1.79-.89,1.78-.89,2.67-2.68,1.79-.89,1.78L313,247.45l-.89,2.68-5.35,1.78-.89,1.78-1.78,1.78-.89,1.79-3.57,3.56-.89,2.68.89,2.67,1.78.89h1.79l1.78,1.78,5.35,2.68,1.78-1.78L313,268l-.89-2.67-1.78-.89.89-.89,1.78,1.78,2.67,1.78,2.68.89,1.78,1.79,2.68,1.78,1.78.89,2.67.89,1.79.89.89-1.78,3.56-1.78,3.57-3.57,1.78-.89h4.46l1.78-.89h3.57l.93,1.82,3.56,3.57,2.68-.89,1.78-.9h6.24l2.67.9h1.79l2.67.89h2.61l2.68.89,5.35-1.78H395l1.78.89,2.67-1.79,1.79-.89,2.67-1.78h1.78l5.35-1.78,1.78-.89v-1.79l-1.78-.89h2.67l2.68.89h2.67l2.68.9,1.78.89,2.67.89,1.79.89,2.67.89,2.67-.89h9.81l1.78-1.78,5.35-1.79,8,2.68,1.79.89,2.67.89,3.56,3.57h4.46l.89-.9L469,268l-.89-.89h2.67l1.78.89,2.68.89h2.67l1.79,1.79,2.67,1.78,3.56,3.57,2.68,1.78,3.56,3.56,2.68,1.79,1.78,1.78v.89L493.05,284l-1.79-1.78-2.67-.9H485l-1.78.9.89,2.67v.89l1.78.89,1.79-.89,2.67.89,2.68,1.78,2.67,2.68,1.78,2.67h.89l1.79-1.78h3.56l1.88,1.74h1.79l-1.79-3.56-2.67-.89-2.67-1.79h.89l2.67.89,1.78.9,2.68.89,1.78,1.78,1.78.89,1.79,1.78.89,2.68.89,1.78,5.35,3.57-2.68,2.67-.89,2.67-2.67,2.68v-3.57l-1.78-.89-.9,1.78-1.78,1.79,1.78,1.78,1.79.89h.89l1.78,5.35.89,1.78v2.68l.89,2.67.9,1.78v2.68l-1.79,5.35-1.78,2.67-.89,1.78L512.76,341,511,343.72l-3.56,10.7v1.78l-.89,2.67v2.68l-.9,1.78V366l-.89,2.68V374l.89,1.78v5.35l.9,2.67v8l-.9,2.68v6.24l.9,3.56v3.57l-1.79.89h-.89L502,406.1v-1.78l1.78-2.67V396.3L502,399.86l-1.78,1.79-1.79.89-.89,1.78.89,1.78v2.68l2.68,2.67v1.79l-.89,2.67v8h-.89l-.9-.89-1.78-.89v5.35l-1.78,1.78v1.84l.89.89h3.57l.89,2.68.89,1.78V440l-1.78.89-1.79,1.78-.89,2.67L494.88,448l-1.78,3.56v4.46l.89,1.78v2.68l1.78,2.67.89,2.68,2.68,2.67,2.67.89,1.78,3.57.89,3.56.89,2.68.9,1.78.89,2.67,1.78,3.57.89,2.67,1.78,1.79.9,1.78,1.78,2.67,1.78,1.78,1.78,2.68,1.79,1.78,1.78,2.69,3.56,1.78,1.79,2.67,1.78,1.79.89,2.67,1.78,1.78,2.68,1.78.89,2.68,1.78.89,2.68.89h1.78l4.46,4.46,5.34,3.56v1.79l-.89,1.78,1.79,5.35,2.67.89,2.67-.89v1.78l-1.78.89v4.46l1.78.89,2.68,1.78,1.78,1.79,2.67-.9h8.92l-1.78-3.56-2.68-2.68V541.6l1.78.89,1.79,1.79,1.78.89,5.35,5.34.89,1.79,1.78,2.67h2.68l2.67.89,1.78.89,3.57-.89h5.35L601,555l1.78-.89,2.68-.89h1.78l2.67-.89,3.57-3.57,5.35-3.56,1.78-.89,5.35-1.79,1.78-.89,2.68-.89h1.78l5.35-1.78,5.34-5.35,2.68-.89,3.56-1.78,1.79-1.79,1.78-.89,1.78-1.78.89-1.78,2.68-1.79,2.67.89h3.57l2.67.9h2.71l2.67.89h3.56l1.79.89h1.78l1.78,2.67L683,530h11.58l2.68.89h2.67l1.78.9,2.68.89,1.78.89,2.68.89,2.67,1.78,1.78.89,2.68.9,1.78.89,1.78,1.78,1.78.89,2.68,1.78,1.78.9,5.35,8,1.78.89,3.57,3.56,2.67,1.79,1.78.89,1.79,1.78,1.78.89.89,1.79.89,2.67.89,1.78,5.35,3.57,1.78,1.78,1.79,2.67,1.78,1.79.89,1.78.89,2.67,3.57,1.79-.89,1.78-1.79.89v2.67l1.79,1.79h3.56l1.78-3.57v-2.67l-.89-1.78v-5.35L765,572.78l-.89-3.57-1.78-1.78-1.79-2.67.9-1.79,3.56-.89,2.68-.89,1.78-.89,1.78-1.78,2.67-1.79,1.79-.89,5.35-5.35,2.67-.89,1.78-1.78.89-1.78.89-2.68,1.79-2.67.89-1.78.89-2.68,1.78-1.78,2.68-1.78,1.78-1.79,2.67-.89h2.68l2.67.89,2.68-.89,1.78-.89,1.78-3.56-.89-2.68v-2.67l-1.83-2.66.89-1.78.89-2.67v-1.79l.89-1.78v-8l1.78-1.78.9-1.79-.9-.89-1.78.89-1.78,1.79-2.68.89,3.57-3.57.89-1.78,1.78-1.78,2.68-8,1.78-3.57,1.78-1.78,2.68-1.79,1.78-1.78.89-1.78,5.35-3.57,3.57-3.56,1.78-2.68,1.78-1.78,3.57-1.78,2.67.89,1.78.89,8,2.68h7.13l-.9.89h-1.77l-3.56,1.78-.89,2.67,1.78,3.57,2.67.89,1.78-1.78.9-3.57.89-2.67.89-1.78,1.78-2.68.89-1.78V457l.89-1.78,1.79-2.68,3.56-.89,8,2.68h4.46l1.78.89,2.68-.89h8.91l2.68-.89,1.78-.9,2.67-1.78,3.67-3.62,2.67-.89,3.57-3.57,2.67-.89,3.57-3.57,2.67-1.78,1.78-.89,10.7-3.57,1.78-.89,2.68-1.78.89-1.78,3.56-5.35v-2.68l.9-1.78,2.67-2.67h3.57l1.78-.89v-1.79l1.78-.89,2.67-1.78,3.57-1.78h2.67l1.79-.89H970l1.79.89,2.67,1.78,1.78.89,2.68.89.89,1.78,1.78,2.68.89,2.67.89,1.79v2.74L978,428.45l-1.83,2.65-.89,1.78L970,436.45l-2.67.89h-2.68l-1.79.89L957.48,440h-2.66l-2.67,2.67v6.24l.89,2.67.89,1.79,1.78,2.67.89,1.78,1.79,2.68,3.56,3.56,1.78.89-.89.89h-2.67l.89,2.68v1.78L962,473l1.78,1.78,1.79,2.67v2.65l-2.68,8-3.56,3.56-.89,1.79-1.77,2.65-1.78,3.57-2.67,2.67-1.81,2.76-.89,1.79-.89,2.67-1.78,2.68-.89,1.78,1.78,2.67.89,2.68,1.78,1.78.9,3.56.89,1.79,1.78,1.78.89,1.78,2.67,1.79,1.79,1.78-.89,3.56.89,2.68.89,1.78,1.78,2.67,2.68.9h3.56l1.78-.9h2.65l1.78-.89,2.67-.89,1.79-1.78,1.78-2.67,4.46-4.46V529.1l.89-2.67V521.1l.89-2.67-1.75-5.33-.89-1.79L980.67,506l-1.78-5.35-1.79-1.78-1.78-.9-1.78-1.84-.89-2.67-.89-3.57L970,484.51l-.89-3.56-.89-2.68-.89-3.56,3.57-1.78v-5.35l2.67-.89h2.67l1.79-.89,2.67-.9,2.67-1.78,2.68-.89,1.78-.89,2.67-1.78,2.68-.9,2.67-1.78h2.68l2.67-.89h2.68l2.67-.89,1.78-.89,5.35-1.79,1.78-.89,2.68-.89,4.45-4.45.9-1.79h1.78l1.78.89,2.67.9,1.79,1.78,3.56-1.78.89-2.68-1.78-5.35h-3.53l-2.68.89h-2.67l-2.68.9h-2.67l-.89-1.79v-1.78l-.89-2.67-.89-1.79-.9-2.67.9-1.78.89-2.68V423.1l.89-1.78,5.35-2.68,2.67-.89,1.78.89,1.79,1.79,1.78,2.67.89,1.78.89,3.57V432l.89,1.79.89,2.67v1.78l.9,2.68,1.78,1.78.89,1.78,1.78,1.79H1044l1.78-.9h5.35l2.67-.89h2.68l2.67.89,1.78.9,2.68.89h2.67l3.57.89h2.67l1.78,1.78,1.79.89,2.67.89,3.56,3.57,2.68.89,5.35,5.35.89,2.67v1.79l.89,1.78,1.78,2.67-1.78,3.57v1.78l2.67,8,1.79.89,1.78,1.79H1101l2.68.89h8l5.35-1.78h3.56l1.79-.9h8l1.78-.89h5.35l5.35-1.78h8l2.67-.89h17.83l5.35,1.78.89,2.68v1.78l9,8.84h2.68l2.67.89h2.65l1.78.89,2.67.9,1.79.89,2.67.89,1.78.89h1.78l8,2.67,1.78-.89h1.75l3.57-.89h3.56l3.57-1.78,2.67-1.78,1.79-.9,2.67-1.78,3.57-1.78,2.67-1.78,3.56-1.79,2.68-1.78,1.78-.89H1265l3.57-1.78-2.68-1.79-2.67-.89H1257l-2.67-.89h-1.79l-3.56,1.78-1.78-3.56h5.34l2.68-.89h5.35l2.67-.89,2.67.89h14.27l1.78-.89h2.71l2.68-.9,1.78-.89h12.48l1.78-.89H1306l1.78-.89,2.67.89h5.35l2.67.89h5.35l1.79.89,2.67-.89h4.46l2.67-.89h4.46l-1.79,2.68h-1.78l-2.7.93h-2.68l-1.78.89h-2.67l-3.57,1.78-2.67,1.78h-1.79l-2.67-.89H1306l-2.68.89h-3.56l2.67,1.79v3.56h2.67l1.79,1.78,1.78,3.57.89,3.57v1.78l-.89,1.78-1.78,1.78h3.56l1.79-2.67v-3.57l3.56,1.79,3.57,10.69,3.56,5.35.89-.89h.89l.9-.89.89-2.68,1.78,1.79V514h.89l-.89-2.68.89-2.67v-.89l1.78-.89.9.89,2.67.89,1.78,1.78,2.68,1.79.89,1.78,1.78,1.78v1.78l2.67,2.68.9,1.78v-3.56l-.9-1.79V514h5.35l1.79-2.68,2.67,1.79,1.78,1.78.89,1.78,5.35,5.35,5.35,1.78h2.67l2.68.9,1.78,1.78,1.78.89,5.35,5.35-.89,1.78-.89,2.67-5.35,1.79-1.78,2.67-.89,1.78v2.72l-1.79,2.67v.89l-.89,2.68v1.76l-.89,1.78-1.78,2.68-.89,2.67-1.79,2.68h-14.26l7.13,3.56,1.79,1.78,1.78.89,1.78,1.79,1.78-1.79,2.68-1.78H1372l2.67-1.78,1.78-.89,5.35-1.78,1.78.89h2.68l2.67.89h4.46l1.78-.89,1.78-1.79h8.92l7.13,3.57,1.78,1.78,1.78,2.68,1.79,1.78,3.56,1.78v-1.8l3.57.89,1.78.89,5.35,3.57,1.78.89,2.68,1.78,1.78,1.78,1.78.9,2.67,1.78,12.48,12.48,2.68,1.78,2.67,2.67L1462,604l3.57,2.67.89,1.78,1.78,2.68,1.79,1.78.89,2.67v11.59l-1.79,2.68-.89,2.67-1.78,2.67v3.57l-.89,2.67v8l-.89,2.67-.89,1.78,2.67-2.67v-1.78l.89-2.68V644.1l.89-1.78,1.79-2.68,1.78-1.78,1.78-2.68,1.78-.89H1478l1.78.89,2.68.9h4.46l2.68,1.78V670H744.46l-1.79-2.68-1.78-1.78-1.78-2.67v-4.46l1.78.89.89-.89.89-1.78V653.9l.89-1.78v-5.35l-1.78-2.67-.89-2.68h-3.57l-2.7-5.32-1.78-1.79-1.78-3.56-1.76-2.65-.89-1.78-1.79-2.71-5.35-5.35-.89-1.78-3.57-3.57-.89-1.78-1.78-2.68-1.78-1.78-.89-1.78-1.79-2.68-.89-2.67L707,596.87l-.89-1.79-1.79-2.67-.89-1.78V588l-.89-1.78,2.68-.89H707l.89-.89.89-1.79v-1.78l-.89-2.67,1.78-1.79,2.68-1.78.89-1.78H715l1.78,3.56,1.79,1.79,2.67.89,1.78,1.78,5.35,1.78L724.84,579l-2.68-.89-3.54-3.57-1.79-2.67-1.78-3.57-2.68,1.76-1.75,1.81-1.82-1.81-3.56-.89-1.79-1.78.89,2.67v3.57h-.89l-.89-1.78-1.78-1.79v-2.67l-.89-2.67L699,563l-3.57-3.56-2.67-1.78h-.89L689.19,555l-2.67-.85-2.68-1.78-1.78-1.79-2.67-1.78L674,547h-10.7l-2.67,1.78L658,551.43l-3.56,1.78-1.81,3.54-3.54,5.35,2.67,1.79-2.67,1.78-1.78.89-3.57,3.54-2.67.9-1.78,1.78-5.35,2.67h-1.79l-1.78.89h-2.67l-1.79.9-1.78,2.67v5.35L625.9,587l1.79.89,1.78,2.68.89,1.78,5.35,5.35,1.78,2.67,1.79,1.78.89,2.68,1.78,3.56-2.67,1.79-1.79.89h-1.78L633,612h-1.79l-2.63,1.8-.89,1.78-2.68,2.68h-1.78l-2.67.89h-1.79l-2.67.89H609l-1.78-1.78v-3.57l-.9-3.56-.89-1.79-.89-2.67-.89-1.78-.89-2.68-.89-1.78v-2.67l-.89-2.68v-2.67l-.89.89-2.68.89-.89,1.78v2.68l-.89,3.56-.89,1.79h-1.83l-1.78-1.79-1.78-.89L584,599.54l-.89-2.67-1.78-1.77-.89-2.67-1.83-2.7-.89-1.78-.89-2.67-1.78-2.68-2.68-.89h-1.76l-2.67-.89-1.79-.89-2.67-.89h-2.67l-1.79.89-2.67-.89-.89-3.57-1.79.89-2.67.9h-2.67l-1.79-.9h-1.78l-3.56-.89H535l-1.79,1.79-1.78.89v2.67l.89,3.57-.89.89-1.78-1.78-.89-2.68L526.94,579l-1.78-2.68-1.78-.89-1.76-1.78v-6.24l-1.79-3.56-1.78-.9-2.67-1.78-1.79-.89-2.67-.89h-2.67L510,563l1.78,1.79,1.78.89,1.79,1.78v4.46l-3.57-.89-2.67-.9h-3.52L503,568.34l-1.79-1.78-.89-1.78L498.49,563l1.78-1.78,1.79-2.67.89-2.68v-7.13l-.89-2.67-1.79-2.68-1.78-1.78-2.67-1.78-3.57-3.57-2.67-.89-1.79-.89-2.67-1.78-1.78-.89-3.57-3.57H477.1l-8-2.67h-1.79l-1.78-.89-1.78-1.79-.89-1.78-.9-2.67.9-3.57-.9-1.78-1.78-2.68-1.78-.89L454.83,506l-2.67-.89-3.57-3.57-2.67-.89-1.78-.89-2.68-.89-.89-1.79-.95-.93v2.68l.89,3.56.89,1.78,1.79,1.79,2.67.89,2.67,1.78,2.68.89,1.78,1.79.89,2.67-1.78,1.78-.89,1.78-1.78,1.79-2.68.89v2.67l-1.78.89L443.19,522l-.9-1.78-3.56-3.57L437,513.93h-1.79l-5.34-1.78-1.79-.89-2.67-.9-1.74-1.74-3.57-5.35-.89-1.78-.89-2.67-.89-1.79-.9-2.67.9-1.78v-1.79l1.78-2.67,1.78-1.78,1.78-2.68.9-2.67v-4.46L420.05,473l-2.67-.89-2.76-1.79.89-.89,2.68-1.78,1.78-.89.89-2.68v-1.78l-1.78-2.67-14.26-14.27-2.68-1.78-1.78-.89L395,437.31l-2.67-1.78-.89-1.78L389.66,432l-.89-2.67-3.56-3.57-.89-2.67-.9-1.78-1.78-2.68-5.35-5.34-2.67-1.79-1.78-.89-2.68-1.78-8-8-.89-1.79-5.35-5.34-2.67-.9-3.57-3.56-1.78-.89v-2.68l.89-1.78,1.83-1.75,1.79.89,4.45,4.46h1.76l1.79-.9v-6.24l-2.68-.89L355,375.86l-1.8-2.76.89-1.78-.89-1.78-1.78-.89h-4.46l-1.78.89-2.68-.89-1.78-.89-.89.89.89,1.78v1.78l-1.78,2.68-2.68,1.78-3.56.89H327.3l-2.68-.86H322l-1.78-.89h-2.68l-1.78-.89L313,374l-1.79-1.79h-3.56l.89,1.79h2.67l3.57,1.78-.89.89-1.78-.89-2.68-.89h-1.78l-5.35-1.82-1.78-.89-2.68-.89-1.78-.89-2.67-.89-1.81-1.75-2.67-.9-1.78-.89-2.68-1.78H280l-2.68-.89h-2.67l-2.68-.89h-2.67l-2.67-.89H264L260.43,358l-2.68-1.78-2.67-.89-1.78-.89-2.68-1.79-5.35-1.78-1.78-.89-2.67-1.78-5.35-1.79H212.31l-1.78-.89-2.67-.89h-1.79l-2.67-.89-1.78-.89-2.68-1.73-2.67-.9-2.65-1.83-2.67-.89-1.78-1.78-2.68-1.79-3.56-3.56-1.78-.89-2.68-1.79-5.35-5.34-2.67-.89-.89-.9-1.79-2.67-7.15-7.13-.89-1.78-3.56-3.57-1.79-2.67-3.56-3.57L149,296.48l-2.68-1.79-3.57-3.59-2.68-.89-1.78-2.68L133,282.19l-2.67-1.79L125,275.1l-2.67-1.78-1.79-1.78-1.78-.89-1.78-1.78-1.79-.9L108,260.84l-1.78-.89-2.62-1.8-1.79-.89-1.78-1.79-2.67-.89-1.79-.89H93.76l-5.35-3.59H86.62v2.67l1.78.89,2.68.89h1.78l2.67.89,1.79,1.79,1.78.89,2.67.89.9,1.78L92,257.23l-1.78-.89-2.68-.9-2.67-1.78h-8v-.89L78.62,251l1.78-2.68-1.78-.89h-.9l-1.79.89-1.78,1.76H72.37v-3.57l-2.68-1.78H67.91L67,246.53l-1.78.89-1.78,1.79v.89l1.78.89h2.67l1.78.89h2.68v.89H66.13l-2.67.89H61.67l-2.67.89-1.78.89-2.68,1.79-1.78.89L51,259.9l-2.68,1.78-1.78.9-5.35,1.78-1.78.89H36.71l-2.67.89-1.78.89-2.64,1.81-2.67.9-1.78.89-2.68.89-2.67,1.78-2.67.89H10L6.45,276l-2.67-.9H1.1l-1.78-.89-2.7-.89-1.78-.89-5.35-1.78-1.78-1.79-5.37-1.74-2.67-1.78h-4.46l-2.67-.89h-4.46l-2.67-.89H-39l-5.35-1.79L-46.18,260l-1.78-.89-2.68-1.78-1.78-.89-1.78-1.79-5.35-1.78-1.79-.89-2.67-.89h-2.67l-2.7-1-1.78-.89-3.57-3.57-2.67-1.78-1.78-1.79L-81,239.4h-5.35l-3.57-1.78V-391.66h698"
           fill="#fefee9" />
        <path
           id="path32608"
           d="M383.46,47.79l.89,1.78h-.89L381.68,46h.94v.9l.89.89"
           fill="#fefee9" />
        <path
           id="path32660"
           d="M397.72,243.89h3.57l-2.68.89-3.56,1.78-2.68.89-3.56,1.78H387l2.68-2.67,1.78-.89,2.67-.89,1.79-.89Z"
           fill="none"
           stroke="#0978ab"
           stroke-miterlimit="3.33"
           stroke-width="0.25" />
        <path
           id="path32728"
           d="M339.78,174.36l-.89-.89H338l-.89,2.67-1.79,3.57v1.78l-1.78,2.68,1.78-.9,1.79-2.67.89-1.78.89-2.68.89-1.78Z"
           fill="none"
           stroke="#0978ab"
           stroke-miterlimit="3.33"
           stroke-width="0.25" />
        <path
           id="path32730"
           d="M338,203.78l-1.78,3.56v1.76l5.34-8v-1.78l-.89-.89v1.78L338.89,202l-.89,1.79Z"
           fill="none"
           stroke="#0978ab"
           stroke-miterlimit="3.33"
           stroke-width="0.25" />
        <path
           id="path32732"
           d="M186.47,152.1l.89.89H190l1.79-.89.89-.9,2.67-.89,1.78-.89v-.89h-1.78l-1.78.89-2.68.89-1.78.89Z"
           fill="none"
           stroke="#0978ab"
           stroke-miterlimit="3.33"
           stroke-width="0.25" />
        <path
           id="path32738"
           d="M375.44,75.42l-2.68,2.68v2.68l-.89,1.78v2.67l.89,1.79,1.78-.89,1.79-2.68,1.78-1.78L379.89,79l1.79-3.56v-.89l-2.68.89Z"
           fill="none"
           stroke="#0978ab"
           stroke-miterlimit="3.33"
           stroke-width="0.25" />
        <path
           id="path32796"
           d="M-89.85,237.65l1.78.89,1.78.89h5.35l1.78,2.67,1.78,1.79,2.68,1.78,1.78,1.78,1.78,1.78,1.79.9,2.67.89H-64l2.68.89,1.78.89,2.68.89,2.67.89,1.78,1.79,1.79.89L-48,259l1.78.89,1.78,1.78,2.68.89,2.67.9h4.46l2.67.89h4.46l2.68.89h4.45l2.68,1.78L-15,268l2.67.89,1.79,1.79,2.67.89,2.68.89,1.78.89,2.67.89,1.78.89H3.74l2.67.9,1.79-.9,1.78-.89h7.13l2.67-.89,2.68-1.78,2.67-.89,1.78-.89,2.68-.9,2.67-1.78,1.78-.89,2.68-.89h2.67l1.78-.89,2.68-.89,2.67-.9,1.79-.89L51,259.93l1.78-1.78,1.79-.89,2.67-1.79,1.78-.89,2.68-.89h1.78l2.67-.89h6.24v-.89H69.7L67.92,251H65.24l-1.78-.92v-.9l1.78-1.78,1.78-.89.9-1.78H69.7l2.67,1.78v3.57h1.79l1.78-1.79,1.78-.89h.9l1.78.89L78.62,251l-1.78,1.78v.89h8l2.68,1.78,2.67.9,1.78.89,2.68.89,2.67.89,2.67.89,2.68.89-.89-1.78-2.68-.89-1.78-.89-1.78-1.79-2.68-.89H91.09l-2.67-.89-1.8-.89v-2.7h1.8l2.67,1.78,2.68,1.78h1.78l1.78.89,2.67.89,1.79,1.79,1.78.89,2.67,1.78,1.79.89,1.78,1.79,1.81,1.81,1.79,1.78,1.78,1.78,1.78.89,1.78,1.79,1.79.89,1.78,1.78,2.64,1.8,1.79,1.79,1.78,1.78,1.78,1.78,2.68,1.79,1.78,1.78,1.78,1.78,1.78,1.78,1.79,2.68,2.67.89,1.83,1.76,1.79,1.78,2.67,1.79,1.78,2.67,1.76,1.78,1.78,1.79,1.78,2.67,1.78,1.78,1.79,1.79.89,1.78,1.78,1.78,1.78,1.78,1.79,1.79,1.78,1.78,1.78,2.67.89.9,2.68.89,1.78,1.78,1.78,1.78,1.78,1.78,2.68,1.79,1.78.89,1.78,1.78,1.79,1.78,2.67,1.79,1.78,1.78,2.68.89,2.67,1.78,2.68.9,2.67,1.78,1.78.89,2.68.89h1.78l2.67.89,1.79.89h23.17l2.68.89,2.67.9,2.67,1.78,1.79.89,2.67.89,2.68.89,2.67,1.79,1.78.89,2.68.89,2.67,1.78,1.78,1.78,1.79,1.79h2.67l2.67.89h2.68l2.67.89h2.68l2.67.89h4.46l2.67,1.78,1.78.89,2.68.9,1.78,1.78,2.67.89,1.79.89,2.67.89,1.78.89,2.68.9,2.67.89h1.79l2.67.89,1.78.89.89-.89-1.78-.89-1.78-.89h-2.66l-.89-1.79h3.57l1.78,1.79,2.67.89,1.79.89h2.67l1.78.89h2.63l2.67.89h5.33l3.57-.89,2.67-1.78,1.78-2.68v-1.78l-.89-1.78.89-.89,1.79.89,2.67.89,1.78-.89h4.46l1.78.89.89,1.78-.89,1.78,1.78,2.68.9,1.78.89,1.78,2.67.89v6.24l-1.78.9H355.8l-2.68-2.68-1.78-1.78-1.72-.84-1.79,1.78-.89,1.78v2.68l1.78.89,1.79,1.78,1.78,1.78,2.67.89,1.79,1.79,1.78,1.78,1.78,1.78.89,1.79L363,402.6l1.78,1.78,2.67,2.68,1.79,1.78,2.67,1.78,1.78.89,2.68,1.79,1.78,1.78,1.78,1.78,1.79,1.78,1.78,2.68.89,1.78.89,2.67,1.78,1.79,1.79,1.78.89,2.67,1.78,1.79.89,1.78,2.68,1.78,1.78,1.78,1.78,1.79,1.78,1.78,1.79.89,2.67,1.78,1.74,1.72,1.79,1.78,1.78,1.78,1.78,1.79,1.78,1.78,1.79,1.78,1.78,1.78,1.78,1.79,1.79,2.67v1.85l-.9,2.68-1.78.89-2.67,1.78-.89.89,2.67,1.79L420,473l1.79,1.78,1.78,1.78V481l-.89,2.67-1.78,2.68-1.78,1.71-1.78,2.67v1.79l-.89,1.78.89,2.67.89,1.79.89,2.67.89,1.78,1.79,2.68,1.78,2.67,1.78,1.78,2.68.89,1.78.9,2.67.89,2.68.89h1.78l1.78,2.67,1.79,1.79,1.78,1.78.89,1.78,1.78,1.78,1.78-.89v-2.67l2.68-.89,1.78-1.79.89-1.78,1.79-1.78-.9-2.68-1.78-1.78-2.67-.89-2.68-1.78-2.67-.89-1.78-1.79-.89-1.78-.9-3.56v-2.7l.9.89.89,1.79,2.67.89,1.78.89,2.68.89,1.78,1.78,1.78,1.79,2.68.89,1.78,1.78,1.78,1.78,1.79.89L461.9,513l.89,1.78-.89,3.57.89,2.67.89,1.78,1.78,1.79,1.79.89H469l2.67.89,2.68.89,2.67.89h2.68l1.78,1.78,1.78,1.79,1.78.89,2.68,1.78,1.78.89,2.67.89L494,538l1.78,1.78,2.67,1.78,1.79,1.78L502,546l.89,2.67v7.13L502,558.5l-1.78,2.67L498.44,563l1.79,1.79.89,1.78,1.78,1.78,2.72,1.8h3.57l2.67.9,3.57.89v-4.46l-1.81-1.76-1.79-.89L510.05,563l-.89-1.78-.89-1.78h2.67l2.68.89,1.78.89,2.67,1.78,1.79.9,1.78,3.56v6.24l1.78,1.78,1.78.89L527,579l1.78,1.78.89,2.68,1.78,1.78.9-.89-.9-3.57v-2.67l1.79-.89,1.78-1.79h6.24l3.56.89h1.81l1.78.9h2.67l2.68-.9,1.78-.89.89,3.57,2.68.89,1.78-.89h2.67l2.68.89,1.78.89,2.67.89h1.79l2.67.89,1.78,2.68.9,2.67.89,1.78,1.78,2.68.89,2.67,1.78,1.79.89,2.67,2.68.89,2.67.89,1.79.89L593,604h1.78l.89-1.79.89-3.56V596l.9-1.78,2.67-.89.89-.89v2.69l.89,2.68v2.67l.89,1.78.89,2.68.9,1.78.89,2.67.89,1.79.89,3.56v3.57l1.78,1.78h7.13l2.68-.89h1.78l2.67-.89h1.79l2.67-2.68.89-1.78L631.3,612h1.78l2.67-.89h1.79l1.78-.89,2.67-1.79-.89-1.78-.89-1.78-.89-2.68-1.78-1.78-1.79-2.67L634,596l-1.78-1.78-1.78-1.78-.9-1.78L627.73,588l-1.78-.89-1.78-1.78V580l1.78-2.67,1.78-.9h2.68l1.78-.89H634l3.57-1.78,1.78-.89L641.1,571l2.68-.9,1.78-1.78,1.78-1.78,1.78-.89,2.68-1.78-2.72-1.81,1.79-2.67,1.78-2.68,1.78-3.56,1.78-.89,1.79-.89.89-.9,1.78-1.78,2.68-1.78H674l2.68.89,2.67.89,2.67,1.78,1.79,1.79,2.67,1.8,2.68.89,2.67,2.68h.89l2.67,1.78,1.79,1.78L699,563l.89,1.79.89,2.67v2.63l1.79,1.79.89,1.78h.89V570.1l-.89-2.67.89.89.89.89,3.57.89.89.9.89.89.89-.89.89-.9,2.67-1.78.9,1.78.89,1.79,1.78,2.67,1.78,1.78,1.79,1.79,2.67.89,1.78,1.78,1.79,1.78-2.68-.89-2.67-.89L721.28,579l-2.67-.89-1.78-1.79-.89-1.78-.9-1.78h-1.78l-.89,1.78-2.67,1.78-1.79,1.79.9,2.67v1.78l-.9,1.79-.89.89h-1.78l-2.67.89.89,1.78v2.68l.89,1.78,1.78,2.67.89,1.79,1.79,2.67.89,2.67,1.78,2.68.89,1.78,1.78,1.78,1.79,2.68.89,1.78,1.78,1.78,1.78,1.79.89,1.78,1.79,1.78,1.78,1.78,1.78,1.79,1.79,2.67.89,1.78,1.78,2.68.89,1.78.89,1.78,1.75,1.82.9,1.78.89,1.78.89,1.78h3.56l.9,2.68,1.78,2.67v5.31l-.89,1.78v2.68l-.89,1.78-.9.89-1.78-.89v4.46l1.78,2.67,1.79,1.78,1.78,2.68"
           fill="none"
           stroke="#0978ab"
           stroke-miterlimit="3.33"
           stroke-width="0.25" />
        <path
           id="path32798"
           d="M1489.62,637.87l-2.67-1.78h-4.46l-2.68-.89-1.78-.9h-2.67l-1.78.9-1.79,2.67-1.78,1.78-1.78,2.68-.89,1.78v2.67l-.9,2.68v1.78l-1.78,1.78-.89.89.89-1.78.89-2.67v-8l.89-2.67V635.2l1.79-2.68.89-2.67,1.78-2.68V615.59l-.89-2.68-1.78-1.78-1.79-2.68-.89-1.78L1462,604l-.89-1.79-1.79-1.78-.89-.89-2.67-1.78L1454,596l-1.79-1.79-1.78-1.78-1.78-1.78-1.78-1.79-1.79-1.78-1.78-1.78-2.65-1.78-1.79-.9-1.78-1.78-2.67-1.78-1.79-.89-2.67-1.78-2.67-1.79-1.79-.89-3.56-.89v1.78l-3.57-1.78-1.78-1.78-1.78-2.68-1.79-1.78-1.78-.89-1.78-.89-1.78-.89-1.79-.9h-8.91l-1.78,1.79-1.79.89h-4.45l-2.68-.89h-2.62l-1.78-.89-2.68.89-2.67.89-1.78.89-2.68,1.78h-5.41l-2.67,1.79-1.78,1.78-1.79-1.78-1.78-.9-1.78-1.78-3.57-1.78-1.78-.89-1.78-.89H1364l1.78-2.68.89-2.67,1.79-2.68.89-1.78V552.3l.89-2.68v-.89l1.78-2.67v-2.68l.89-1.78,1.79-2.67,2.67-.89,2.67-.89.9-2.68.89-1.78-1.79-1.78-1.77-1.81-1.78-1.78-1.78-.89-1.79-1.78-2.67-.89h-2.67l-2.68-.9-2.67-.89-1.79-1.78-1.78-1.78-1.78-1.79-.89-1.78-1.79-1.78-2.67-1.78L1349.7,514h-5.35v2.67l.89,1.79V522l-.89-1.78-1.78-1.78-.89-.89v-1.79l-1.79-1.78-.89-1.78-2.67-1.79-1.78-1.78-2.68-.89-.89-.89-1.78.89v.89l-.89,2.68.89,2.67h-.89v-.85l-1.79-1.78-.89,2.67-.89.89h-.89l-.89.89-1.79-2.67-1.78-2.68-.89-2.67-.88-2.65-.89-2.68-.89-2.67-1.79-.89-1.78-.89v3.56l-1.78,2.68h-3.57l1.79-1.79.89-1.78v-1.78l-.89-3.57-.9-1.78-.89-1.78-1.78-1.79h-2.67v-3.56l-2.68-1.79h3.57l2.67-.89h9.81l2.67.89h1.78l2.68-1.78,1.78-.89,1.78-.89h2.68l1.78-.89h2.63l2.68-.89h1.78l1.78-2.68h-4.45l-2.68.89h-4.45l-2.68.9-1.78-.9h-5.35l-2.67-.89h-5.35l-2.68-.89-1.78.89h-2.67l-1.79.89h-12.47l-1.79.9-2.67.89h-2.68l-1.78.89h-14.26l-2.67-.89-2.68.89h-5.35l-2.67.89h-5.35l.89,1.78.89,1.78,3.57-1.78h1.78l2.68.89h6.24l2.67.89,2.67,1.79-1.78.89-1.78.89h-14.26l-1.79.89-2.67,1.78-1.78.9-1.79.89L1240,494.4l-1.78.89-1.78.89-2.68,1.79-1.78.89-2.68,1.78-1.78.89-1.78.89h-3.57l-3.56.89h-1.78l-1.79.89-2.67-.89-2.68-.89-2.67-.89h-1.78l-1.78-.89-2.68-.89-1.78-.89-2.68-.89-1.78-.9h-2.67l-2.68-.89h-2.6l-1.78-1.78-1.79-1.78-1.78-1.79-1.78-1.78-1.78-1.78v-1.78l-.9-2.68-2.67-.89-2.67-.89h-17.85l-2.67.89h-8l-2.67.89-2.67.89h-5.35l-1.79.89h-8l-1.78.9h-3.57l-2.67.89-2.67.89h-8l-2.67-.89h-2.67l-1.79-1.79-1.78-.89L1094,481l-.89-2.67-.89-2.68V473.9l1.78-3.57-1.78-2.67-.9-1.78V464.1l-.89-2.67-1.78-1.78-1.78-1.79-1.78-1.78-2.68-.89-1.78-1.78-1.78-1.79-2.68-.89-1.78-.89-1.78-1.78h-2.68l-3.56-.89h-2.73l-2.67-.89-1.78-.9-2.68-.89h-2.67l-2.68.89h-5.34l-1.79.9h-2.67l-1.78-1.79-.9-1.78-1.78-1.78-.89-2.68v-1.78l-.89-2.67-.89-1.79V428.4l-.89-3.57-.9-1.78-1.8-2.67-1.78-1.79-1.78-.89-2.68.89-1.78.9-3.57,1.78-.89,1.78v1.78l-.89,2.68-.89,1.78.89,2.67.89,1.79.89,2.67v1.78l.9,1.79h2.69l2.67-.89H1028l2.67-.9h3.57l.89,2.68.89,2.67-.89,2.68-3.57,1.78-1.78-1.78-2.67-.9-1.79-.89h-1.78l-.89,1.79-1.78,1.78-2.68,2.67-2.67.89-1.78.9-2.68.89-2.67.89-1.78.89-2.68.89h-2.67l-2.68.89h-2.67l-2.67,1.79-2.68.89-2.67,1.78-1.79.89-2.67.89-2.67,1.78-2.68.9-1.78.89H973.6l-2.68.89V473l-1.78.89-1.78.89.89,3.56.89,2.68.89,3.56.89,2.68.89,2.67.89,3.57.9,2.67,1.78,1.78,1.78.9,1.78,1.78.9,2.67.89,2.68,1.78,2.67,1.78,2.68.89,1.78.9,2.67.89,2.68-.89,2.67v5.35l-.9,2.67v4.46l-1.78,1.78-.89.89L980.73,538l-1.79,2.67-1.78,1.78-2.67.89-1.79.9H970l-1.78.89h-3.63l-2.67-.89-1.78-2.68-.9-1.78-.89-2.68.89-3.56-1.78-1.78L954.82,530l-.89-1.78-1.79-1.78-.89-1.78-.89-3.57-1.74-1.78-.89-2.68L945.94,514l.9-1.78,1.78-2.68.89-2.67.89-1.78,1.78-2.68,2.68-2.67.89-1.79.87-1.82,1.78-2.67.89-1.78,1.79-1.79,1.78-1.78.89-2.67.89-2.68.89-2.67v-2.68l-1.78-2.67L962,472.93l-.89-2.68v-1.78l-.89-2.67h2.67l.89-.9L962,464l-1.78-1.78-1.79-1.78-1.78-2.64-.89-1.78L954,453.36l-.89-1.79-.9-2.67v-6.24l1.79-1.78.89-.89h2.67l2.68-.9,2.67-.89,1.78-.89h2.68l2.67-.89,2.68-1.78,2.67-1.78.89-1.79L978,428.4l1.79-1.78,1.78-1.79,1.78-1.78v-2.67l-.89-1.79-.89-2.67-1.78-2.67-.9-1.79-2.67-.89-1.78-.89-2.68-1.78L970,407h-4.47l-1.78.89h-2.67l-1.79.89-1.78.89-2.67,1.78-1.78.89v1.75l-1.79.89H947.7L945,417.66l-.89,1.78v2.68l-1.78,2.67-1.73,2.72-.9,1.78L937,431.1l-1.78.89-2.68.9-2.67.89-2.67.89-2.68.89-1.78.89-2.68,1.78L918.28,440l-1.78,1.78-2.67.89L912,444.47l-1.78,1.79-2.64.84-1.79,1.78-1.78,1.78-2.67,1.79-1.79.89-2.67.89H888l-2.68.89-1.78-.89h-4.46l-2.67-.89-2.68-.89-2.67-.9-3.57.9-1.81,2.65-.89,1.78v4.46l-.89,1.78-1.78,2.68-.89,1.78-.9,2.67-.89,3.57-1.78,1.78-2.67-.89-1.79-3.57.89-2.67,3.57-1.78h1.78l.89-.89h-7.13l-2.67-.9-2.67-.89-2.68-.89-1.78-.89-2.68-.89-3.56,1.78-1.78,1.78-1.77,2.72-1.78,1.78-1.78,1.78L827.38,473l-2.67,1.78-.89,1.78L822,478.31l-2.7,1.79-1.78,1.78-1.78,3.57-.89,2.67-.9,2.67-.89,2.68-1.78,1.78-.89,1.78-1.81,1.79-1.79,1.78,2.68-.89,1.78-1.79,1.78-.89.89.89-.89,1.79-1.78,1.78v8l-.89,1.79v1.82l-.89,2.67-.89,1.79,1.78,2.67v2.67l.89,2.68-1.75,3.52-1.79.89-2.67.9-2.67-.9h-2.68l-2.67.9-1.78,1.78-2.66,1.8-1.78,1.78-.89,2.68-.89,1.78-1.79,2.67-.89,2.68-.89,1.78-1.78,1.78-2.68.9-1.78,1.78-1.8,1.8-1.78,1.78-1.79.89-2.67,1.79-1.78,1.78-1.79.89-2.67.89-3.57.89-.89,1.79,1.78,2.67,1.79,1.78.89,3.57.89,2.67.89,2.68v5.35l.89,1.78V588l-1.78,3.57H762.3l-.9-.89-.89-.89V587.1l1.78-.89.9-1.78-1.79-.89-1.78-.9-.89-2.67-.89-1.78-1.78-1.79-1.79-2.67L752.49,572l-2.67-1.85-2.68-1.79-.89-1.78-.89-2.67-.89-1.79-1.78-.89-1.79-1.78-1.78-.89-2.67-1.79L734.62,555l-1.78-1.78-1.78-.89-1.79-2.68L727.49,547l-1.78-2.67-1.78-.9-2.68-1.78-1.78-.89-1.78-1.78L715.9,538l-2.67-.89-1.78-.9-2.68-1.78-2.67-.89-1.78-.89-2.68-.89-1.78-.89h-2.67l-2.68-.9H683l-1.78-.89-1.78-2.67h-1.78l-1.79-.89h-3.56l-2.68-.89h-2.67l-2.67-.9h-3.57l-2.67-.89-2.68,1.79-.89,1.78-1.82,1.78-1.79.89-1.78,1.79-1.78.89-1.78.89-2.68.89L641,535.36l-1.78,1.79-1.79,1.78-2.67.89-2.67.89h-1.79l-2.67.89-1.78.89-2.68.89-2.67.9-1.78.89L616.07,547l-2.67,1.78-1.78,1.79-1.78,1.78-2.67.89h-1.75l-2.68.89L601,555l-2.68.89h-5.34l-3.57.9-1.78-.9-2.68-.89h-2.67l-1.78-2.67-.89-1.78-1.79-1.79L576,547l-1.78-1.78-1.79-.89-1.81-1.79-1.78-.89v1.78l2.67,2.68.89,1.78.9,1.78h-8.92l-2.67.9-1.78-1.79L557.25,547l-1.78-.89V541.6l1.78-.89v-1.78l-2.67.89-2.68-.89-.89-2.68-.89-2.67.89-1.78V530l-2.67-1.78-2.68-1.78L543,523.77,541.21,522h-1.79l-2.67-.89-1.78-.89-.89-2.67-2.68-1.79L529.62,514l-.89-2.67L527,509.51l-1.79-2.67-1.78-.89-1.76-.85-1.79-2.68-1.78-1.78L516.27,498l-1.77-1.87-1.79-2.67-.89-1.78L510,489.86l-.89-2.67-.89-1.78-.89-1.79-.9-2.67-.89-1.78-.89-2.68-.89-3.56-.89-1.79-.89-1.78-2.68-.89-2.67-2.67-.89-2.68L494,460.45v-2.68l-.9-1.78v-4.46l1.79-3.56,1.78-2.68.89-2.67,1.78-1.78,1.79-.89v-3.57l-.9-1.78-.89-2.68h-3.56l-.89-.89v-1.78l1.78-1.78v-5.35l1.78.89.89.89h.89v-8l.9-2.67v-1.79l-2.68-2.67V406.1l-.89-1.78.89-1.78,1.78-.89,1.79-1.78.89-1.79.89-1.78v5.35L502,404.32v1.78l1.78,2.68h.89l1.78-.89v-3.57l-.89-3.56v-6.24l.89-2.68v-8l-.89-2.67v-5.35l-.89-1.78v-5.35l.89-2.68v-2.67l.89-1.78v-2.68l.9-2.67v-1.78l.89-2.68.89-2.67.89-2.68.89-2.67,1.78-2.67,1.79-1.79.89-1.78,1.78-2.67.89-2.68.89-2.67v-2.68l-.89-1.78-.89-2.67v-2.68l-.89-1.78-.89-2.67-.89-2.68h-.88l-1.79-.89-1.78-1.78,1.77-1.76.89-1.79,1.79.89v3.57l.89-.89,1.78-1.78.89-2.68.89-.89,1.79-1.78L518.06,301l-2.67-1.78-.89-1.78-.89-2.68-1.79-1.78-1.78-.89-1.78-1.78-2.68-.89-1.78-.89-2.67-.9h-.9l2.68,1.79,2.67.89,1.79,3.56h-1.75l-1.78-1.78h-3.57l-1.78,1.78h-.89l-1.82-2.73-2.68-2.67-2.67-1.79-2.67-.89-1.79.89-1.78-.89v-.89l-.89-2.67,1.78-.9h3.54l2.67.9,1.78,1.78,1.79.89,1.78.89v-.89l-1.75-1.76-2.68-1.79-1.78-1.78-1.81-1.77L485.94,276l-1.78-1.79-1.78-1.78-2.68-1.78-1.78-1.78h-2.67l-2.68-.9-1.75-.85h-2.67l.89.89,2.67.9-.89.89h-4.46L464.62,268l-1.78-1.78-2.68-.89-1.78-.89-2.67-.89-2.68-.89-2.67-.9-2.68.9-2.67.89-1.78,1.78h-9.81l-2.67.89-2.68-.89-1.78-.89-2.67-.89-1.79-.89-2.67-.9h-2.67l-2.68-.89h-2.67l1.78.89v1.79l-1.78.89-2.68.89-2.67.89H404L401.33,268l-1.78.9-2.67,1.78-1.79-.89H381.68l-2.67.89-2.67.89-2.68-.89H371l-2.68-.89h-1.78l-2.67-.89h-6.24l-1.79.89-2.67.89-1.78-1.78-1.76-1.75-.89-1.78h-3.56l-1.78.89h-4.46l-1.78.89-1.79,1.79-1.78,1.78-1.78.89-1.79.89-.89,1.78-1.78-.89-2.67-.89-1.79-.89-2.67-1.78L318.43,268l-2.71-.89-2.67-1.78-1.78-1.78-.9.89,1.79.89.89,2.67-.89,1.79-1.79,1.78-1.78-.89-1.78-.89-1.78-.89-1.79-1.79h-1.78l-1.78-.89-.89-2.67.89-2.68,1.78-1.78,1.78-1.78.9-1.79,1.78-1.78.89-1.78,2.67-.89,2.68-.89.89-2.68,1.78-1.78.89-1.78,2.68-1.79.89-2.67.89-1.78L322,235.9v-2.67l.89-2.67v-2.68l.89-2.67v-5.35l-.89-1.78v-9.81l.89-3.56.9-2.68,1.78-2.67-1.8-1.82-.9-1.79.9-2.65.89-2.67V186l.89-1.78.89-2.68.89-1.78.89-2.67.89-1.79V172.6l.9-1.78-.9-2.68-.89-2.67h-4.45l-1.79.89-2.67-.89.89-2.68,1.78-1.78v-1.78l1.79-2.68,1.78-2.67v-3.57l2.67-1.78,1.79-2.67h1.76v1.78l.89,2.67-.89,2.68v2.67l-.89,2.68.89,1.76,2.67,1.78.89,2.68.9,1.78L338,169h1.78l.89-1.78.89-1.78.89-1.79.89-1.78v-5.35l.9-3.56.89-1.78.89-1.79.89-1.78.89-2.67.89-2.68V139.6l.89-2.68.9-1.78.89-2.67.89-2.68.89-2.67v-.89h-1.78l-1.72.87-.89,1.78h-1.81v-4.46l.89-.89,2.68-.89,1.78-.89,1.78-.89,1.78-1.78v-3.57h-6.21l-1.78.89-1.78-1.78v-1.78l.89-1.79,1.78-1.78.89-1.78,3.57-1.78h.89l.89-1.79.89-1.78-.89-1.78-.89-1.78V94.1l.89-2.68.89-2.67L357.62,87l1.78-2.68,1.78-1.78.89-2.67,1.79-1.78,1.76-1.79,2.67-1.78,1.79-1.78,1.8-2.65,1.74-1.81,1.78-1.78.89-2.68.9-1.78.89-2.67,1.78-1.79V54l.89-2.68-.89-1.78L379,47.79V40.66l-3.57-1.79-.85-1.77-1.78-1.78L371,33.54l-3.57-1.79-3.56,1.79-1.79.89h-3.56l-.89.89,3.56.89H363l.9-.89h.89l.89.89L364.75,38l-.89.89h-7.14L354.05,38l-2.67-.89-2.68-.89L346,35.32h-3.57l-2.67-.89-3.57-.89-2.67-.9h-6.24v.9h-.89l-2.68.89h-8l-1.78.89h-2.67l-1.81,1.78-2.67.89-1.78.89-2.68.9-2.67.89H297l-1.78.89h-2.67l-2.68.89H287.2l-2.68.89h-2.67l-2.67.89H276.5l-2.67.89h-5.35L266.7,46H264l-2.67.9-2.67,1.78-1.79.89-2.67.89-1.78.89-2.68.89L248,54l-2.68,1.78-1.78,1.78-.9,1.78-.88,2.72-.89,2.67L240,67.45l-.89,1.78V72.8l-.9,2.67v25l-.89,1.78L235.5,104l-1.78.89-1.79,1.79-1.78,2.67v2.68l-.89,2.67v5.35l-.89,2.67v1.78l-1.75,2.57-2.68,1.78-1.78,1.78-1.78,2.68-2.68.89-1.78.89-2.67,2.68-2.68.89-1.78,1.78-2.68.89-2.67.89-1.82,1.85-.89.9-.89.89h.89l2.67-.89,1.78-1.79v.89l-.89,2.68v1.78h1.78l1.79,1.78v4.46l-2.68.89-1.78.89-1.78,1.74-1.78.89L198.05,161l-2.67.89H192.7L190,161h-2.67l-1.74-1.78-2.67-.89-.89-.89,2.67-1.79v-1.78l-1.82-1.76-1.78-.89h-5.35l-1.78.89H162.41l-.89.89-3.57.89-2.67.89h-2.66l-.89,1.78L150,158.34l-1.8,1.76-2.68.89h-1.78l-2.67.89h-2.68l-1.78.89-1.78-.89H125l-2.67.89h-2.68l-2.67.89-2.68.9-2.67.89-1.78.89-1.79.89-2.67.89-2.67.89-2.68.89-1.78.9-2.67.89-2.68.89H90.21l-2.68.89H84.86l-3.57-.89-.89-1.78-1.78-2.7-1.78-2.67-1.79-1.79L73.27,161l-.89-1.78-3.57-.89-2.67-.89-2.67-.9-1.79-1.78L59,153l-1.78-1.78H44.75l-1.78-.9-2.68-.89-2.67-.89h-.89l2.67,1.78,2.67,1.79H40.29l-2.67-.89-2.68-.9-2.67-.89-1.78-1.78-1.79-.89V145l1.79.89,2.67,1.78.89-.89L31.38,145l-2.68-1.79-.89-1.78-.89-2.67L26,136.92,24.25,136l-1.79-.89-.89-1.78-.89-2.68L18.9,128.9l-1.78-1.8-2.68-1.78v-2.68L13.55,120l-.89-1.78-.89-1.79-.89-2.67-.9-2.68-.89-2.67v-2.65l-.89-1.79-1.78-2.67-1.8-1.78L2.83,96.81,1.94,95,.16,93.25l-1.78-2.68-1.76-1.78L-5.16,87l-1.78-1.79-1.78-2.67-1.79-1.78L-12.29,79l-1.79-1.79-1.78-1.78-1.79-1.78L-18.54,71l-1.78-1.78V65.61l-.89-2.67L-23,61.16l-.9-2.68-1.78-2.67-.89-2.71-.89-2.68-.93-1.74L-30.17,46l-.89-2.67-.89-1.78V39.77L-32.84,38l-1.74-.88-.89-1.78-1.79-2.68-.89-1.78L-39,28.19V25.5l-.89-2.67-.89-2.67V18.37l-.89-2.67.89,1.78L-39,20.16l.89,1.78,1.77,2.67.89,1.78,1.78,1.79,1.78,2.67,1.78,1.78,2.68,1.79V36.2l-1.78,2.67v4.46l.87,2.67V44.22l.89-1.78,1.78-2.67V37.1l.89-2.67-1.78-1.79-2.67-1.78-2.64-1.76-1.78-2.68-1.78-1.78-.91-2.7-1.79-2.68-.89-1.78-1.78-2.67L-42.6,12.1V5l-.9-1.78L-44.38.55V-2.13l-.9-1.77V-5.68l-.89-2.68.89-3.56.89-2.68.89-2.67L-41.71-19V-31.54l-.89-2.68V-36.9l.89-1.78v-8l.89-2.67v-4.46l-.89-1.78.89-.89v-8l.89-2.68V-69.9l.89-2.68V-77.9l.89-2.68v-2.67l.89-2.68.9-2.67v-2.68l.89-2.67.89-1.78v-2.68l.89-2.67.89-2.67.89-2.68v-1.78l.89-2.68.89-1.78.9-2.67,1.78-2.68.89-1.78.89-2.67,1.78-2.68.9-1.78,1.78-2.67.89-2.68v-1.78l.89-2.67.89-2.68v-9.8h-2.67l-.89-2.68-1.79-1.78-.89-2.67-.89-1.79-1.78-2.67-.89-1.78-.89-3.57-.9-2.67v-3.57l-.89-2.67-.89-2.68-.89-2.67V-184l-1.78-1.78,1.78-3.57L-31-192v-2.67l-.89-2.68-2.67-.89h-2.68l-1.78-.89-1.78-2.67-.89-1.79-.89-2.67,1.78,1.78,1.78.89,1.78.89,2.68,1.8,1.78.89H-31l.89-.89,1.79-1.79.89-1.78.89-2.67.89-2.68.89-2.67.89-2.67-1.78-1.74-1.78-2.67-1.78-1.78.89-.9.89-.89,2.67.89h2.68l2.67-.89,1.78-2.67,1.79-1.78.89-2.68.89-1.78-1.78.89-2.68.89v-3.63l1.78-.89h3.57l1.78-.9.89-1.78.9,1.78.89.9,1.78-1.79,1.78-.89V-241l.89-2.68v-1.78l1.79,1.78,1.78,1.78L2-242.82H3.75l3.56-1.78,1.78-2.67-1.78-.9H5.53l-.89-2.67-1.79-1.78L2-255.3l-.89-1.78L2-258l1.79.89v.89l1.78,1.79,2.67,1.78,2.68-1.78v-.9h4.45l2.68.9,3.56.89,3.57-.89-1.78,1.78-2.68,1.78-1.78.89-2.68,1.78,2.68-.89,1.78-.89,1.78-.89,2.68-1.78,2.67-.89,3.57-.89,2.67-1.79,1.78-.89,3.57-1.78,1.78-1.78,2.68-.9,2.67-1.78,2.67-1.78,2.68-.89,1.74-1.77,2.68-1.78,1.78-2.67.89-3.57,1.78-1.78,2.68-1.78L66.1-282l2.67-1.78-.89-2.67L67-288.26l-2.63-2.64v-1.78l-.89-2.68V-298h1.78l1.78.89,1.78.89,1.81-3.59h3.56l.89,3.56-.89,2.68-1.78,1.78,1.78.89,2.68-.89h5.35L80.42-290l-2.67.89L76-287.37l-1.79.9-.89,1.78L76-286.47l2.67-.9,1.78-1.78L83.1-290l2.67-.89,2.67-.89,2.68-1.78,2.67-.9,2.68-.89,2.67-.89h2.68l2.67-.89h2.67v-1.73l-.89-1.79-1.78-1.78,1.78-1.78.89-2.68,1.79-1.78h1.78l.89.81v1.79l-1.78,2.67-.89.89h-1.81l.89,2.68,1.79.89,1.78-.89,2.67-.9h11.59l4.46-.89,4.46.89,2.67.9,2.67.89,2.68.89,3.56,1.78,2.68.89,2.67.89,1.78.9h2.68l2.67.89h5.35l2.67.89h2.68l3.56-.89,3.57-.89.89-.9-1.78-1.78-.89-1.78,1.78-1.78,2.67-1.79,1.79-.89,2.67-.89,1.78,1.78.89,1.79h6.24l.9,1.78,1.78,2.67.89,1.79,1.78,1.78,2.68.89h2.67l1.78.89,2.68-1.78h.89l-.89,1.78.89,2.67,1.78,1.79,1.78,1.78V-282l-3.56-.89L207-282v.89l2.67.9,2.67.89,2.68,1.78,3.56.89h1.79l2.67.89,2.67.89,1.79.9,3.56-.9,1.79-2.67,1.78-2.67,2.67-.9h5.34l2.67,1.79.9,2.67.89,2.68,1.78.89,2.67-1.79,1.79-1.78v-1.78l.89-2.68.89-1.78v-3.56l-1.78-1.79h-1.79l-.89-1.78v-.83l2.68.89,2.67.89,2.68.89,2.67.89,2.67.9.89,1.78v1.76l2.68.89h1.78l1.78.89,1.79.9,2.67.89,2.67,2.67.9,1.78.89,1.79,1.78.89-.89,3.56h1.78l1.78-1.78,1.79-1.78,1.78.89.89,1.78.89-1.78.89-1.78,3.57-1.79v-2.67h-1.78l-1.79-1.78-.89-1.79-1.77-1.78h-2.67l-1.8-.9-2.67-.89-2.68-.89-2.67-.89-2.67-2.68-1.79-.89-1.78-.89-1.74-3.57.89-.89.89-.89v-.89l1.78.89,2.68-.89-.89-1.78,1.78-1.79h2.67l4.46-1.78-.89-.89.89-3.57-1.78-1.78-.89-1.78.89-.89-3.57-.89-2.67,2.67-.89,3.57h-4.46l-1.78-.9-1.79-1.78-.89-1.78,1.79-.89,1.78-1.78L269.4-315v-.9l-2.67-.89-.89.89-1.79.89h-3.56l-1.79.89-1.78,1.79-3.56.89H248l-1.78-.89-2.68-1.79-2.7-1.78,1.78-2.67,1.78-2.68L246.2-323,248-325.7l3.56.89,3.57.89,1.78,1.78,1.78.89,2.68.89,2.67.9,2.68.89,3.56.89,2.68.89,2.67-.89,2.67-1.78,1.79-.9.89-1.78,1.78-1.78h7.13l3.57-.89,2.67-.89,2.68-.9h3.56l2.68.9,1.78.89H328.2l.89-1.79.89-3.56.9-2.67.89-2.68.89-1.78.89-.89,2.67,2.67.89,2.68v4.45l.9,1.78h.89l1.78,2.68.89,1.78-1.78.89-2.68.89h-2.67l-.89.9h6.24l2.67-.9h6.24l1.79-2.67,1.78-1.78.89-.89h1.78v.89l-1.78,2.67h3.56l2.68-.89,1.78-.89L363-325.7l2.68-2.68v-3.52h1.78l1.78,1.78,1.79-2.67h1.78l.89,2.67-.89,2.67-2.67.89-2.68.9-1.78.89-.89.89h2.67l3.57-.89h2.63l2.67-.89h5.35l2.68-.9,3.56-.89,2.68-1.78,2.67-.89,3.57.89,1.78-.89h2.67l3.57.89.89.89v1.78h-1.78l-2.68-.89-2.67.89h-5.35l2.67.9,2.68.89,2.67.89h2.68l2.67,1.78,2.68.89,1.78.89,2.67.9,2.68.89,2.67,1.78H420l.89-1.78v-.89l2.68-1.79h2.67l-1.78,1.79-.89,1.78,2.67,1.78-.89.89h-1.7l1.78,1.79,2.67,2.67,1.79,1.78,1.76.83,2.67,1.79,1.79.89,1.78,3.56-.89,1.79-.89.89-1.79-1.79-.89-2.67v2.67l1.78,3.57h4.44l2.68-.89H445l3.56-.89,1.79-.89,3.56-.9h3.57l1.78-.89,2.68-1.78,2.67-.89,1.78-1.78h7.13l.89-.9-.89-1.78.89-2.67,1.79-.89,2.67-.89h2.68l1.78-.9H486l2.68,1.79,2.67.89,2.67,1.78,2.68.89,2.67,1.78,1.79,2.68,1.78,1.78,1.78,1.78,1.78,2.68,1.79,1.78,1.78,2.68,1.78,1.78,1.78,1.78,1.79,2.67,1.78,1.79,2.67,1.78,1.79,1.78,2.67,1.79,1.78,1.78,2.68,1.78,1.78,1.78,2.67,1.79,1.79,1.78,1.78,2.67,1.78,1.79.89,2.67.9,2.67-.9,1.79v11.58l-.89,2.68-.89,2.67-.89,2.68-.89,1.78v2.67L535-233l-.89,2.67v2.68l-.9,2.67-.89,2.67,1.79,3.57.89.89.89,1.78,1.78-.89h1.78l1.79-.89v-3.56l.89-1.79-1.78-.89-1.79-2.67,1.79-.89,2.67.89,1.78,3.56h.89l1.79-.89,1.78,1.78v.9l-.89,2.67-1.75,1.86-1.79,1.79-1.78,1.78-.89,2.67-1.81,1.76-1.79.9h-.89l1.78,2.67,1.79,1.78.89,1.79.89,2.67,1.78,2.67.89,1.79.89,2.67,1.79,1.78.89,2.68,1.78,2.67,2.68,2.68,1.78.89h2.67v-3.64l2.68-.89h3.56l-1.79,2.71v2.68l-.89,2.67V-175l.89,2.67.89,3.57h2.67l1.79-3.57,1.78-1.78,1.78-.89-.89,2.67-1.78,1.78-.89,1.79L566.18-167l1.79,1.78,1.78.89.89,2.68v1.78l.89,2.67v2.68l.89,1.78.9,2.67,1.78,1.79.89,2.67,2.67,1.78,2.68,1.79,2.67.89,2.68.89,2.67.89v1.78l.89,1.79L592-134l.9,2.67,1.78,1.79.89,1.78.89,2.67,1.78,1.79.9,2.67,1.78.89,3.56.89.89,2.68-.89.89-2.67-1.78-1.77-1.79-1.79.89-.89.9v1.78l.89,1.78.9,1.78,3.56.89,3.57-.89,2.67-.89h1.78l2.68.89,2.67-1.78,1.78-.89,2.68-.89h2.67l2.68-1.78,1.78-1.79.89-2.67.89-1.78V-126l.89-2.67v-2.68l1.79-1.78,1.78-2.67.89-2.68.89-3.56.89.89v.89l.89.89v-12.5l.89-2.67v-2.68l.9-2.67v-4.46l.89-2.67v-12.48l-.89-2.67v-2.7l-.9-2.67-.89-3.57-2.67-2.67-1.78-1.78-.89-2.68-.9-2.67-.89-2.68-.89-2.67-.89-1.78-1.78-2.68-.89-2.67-.9-2.68-.89-1.78-.89-2.67-.89-2.68-.89-2.67-1.78-2.68-.89-1.78-.9-2.67-.89-2.68-1.78-3.56-.89-2.68-.89-1.78-.89-2.67v-2.68l-.9-1.78-.89-3.56-.89-2.68v-1.78h.89l1.79.89-.9,1.78.9,1.79,2.67,1.78v.89l-.89,2.67-.89,1.79.89,2.67.89,2.67.89-1.78.89-2.67.89-2.68.9-.89v2.68l-.9,3.56v5.35l.9,2.67.89,2.68.89,2.67.89,2.68.89,1.78,1.78,1.78-.89-2.67-.89-1.79-.89-2.67-.89-1.78-.89-2.68v-9.8l1.78-2.68-.89-2.67-1.78-2.67L617-255.32l-.89-2.67-1.78-1.78-.89-2.68-1.82-1.74-1.75-2.71-.89-1.79-1.78-2.67-.89-1.78-.9-2.68-1.79-2.63-.89-1.78-.89-2.68-.89-2.67-1.78-1.79-.9-2.67-.89-2.67-.89-1.79-.89-2.67-.88-1.73-.89-2.68-.89-1.78V-306l-.9-2.68-.89-1.78v-2.67l-.89-2.68-.89-2.67-.89-2.68V-323l-.89-2.67v-2.68L586.7-331v-2.68l-.89-2.67-.9-1.78-.89-1.79-.89-2.67v-2.67L584-347l.89-1.78v-2.67l.9-2.68v-1.78l.89-2.67.89.89h1.78l1.78-1.79.89-1.78-.89-1.78-2.67-.89v-.93l3.56-.9,1.79-2.67.89-1.78L596.5-372l-.88-.87-.89.9-.89-.9v-.89l2.67-1.78.89-1.78-.89-.89-.89-.9,1.78-1.78,2.68-.89.89-.89v-.89l-.89-1.79-.89-.89.89-.89h1.78l1.78-.89,2.68-.89,1.78-2.67"
           fill="none"
           stroke="#0978ab"
           stroke-miterlimit="3.33"
           stroke-width="0.25" />
        <path
           id="path32800"
           d="M412,243.89l.89.89,2.68-1.78,1.78-1.79-1.78-.89L412,243.89Z"
           fill="none"
           stroke="#0978ab"
           stroke-miterlimit="3.33"
           stroke-width="0.25" />
        <path
           id="path32806"
           d="M382.62,46.9V46h-.89l1.78,3.57h.89l-.89-1.78Z"
           fill="none"
           stroke="#0978ab"
           stroke-miterlimit="3.33"
           stroke-width="0.25" />
        <path
           id="path32810"
           d="M253.32,354.42l-.89-1.79V350l8.91-8.91h3.57l1.78-.9.89-2.67,1.78-1.78,3.57-1.79h.89V332.1l-.89-2.67v-1.79l1.78-.89h.91l3.57-.89H281v.89"
           fill="none"
           stroke="#646464"
           stroke-miterlimit="3.33"
           stroke-width="0.47" />
        <path
           id="path32812"
           d="M281,326.78h1.78l1.79.89h1.78l2.67.9h1.79l2.67.89,1.78,3.56,5.35,3.57.89,1.78,3.57,1.78,1.78,1.79,1.78.89,5.35,1.78h.89v4.49h1.8l1.78-.89,2.67-.9,1.79-1.78,5.34-1.78,2.68.89,1.78,2.67,1.78.9h1.79l1.78-.9,3.56.9,2.68,1.78.89.89-.89,2.67-.89,1.79V358l-.89,2.68v1.78l1.78,1.78V366l-3.57,1.79"
           fill="none"
           stroke="#646464"
           stroke-miterlimit="3.33"
           stroke-width="0.47" />
        <path
           id="path32814"
           d="M359.39,384.72h10.7l1.78-.89,1.75-1.73,1.79-5.35V375l1.81-1.87h3.56l1.79-.89.89-.89-.89-3.56V365.1l-.89-2.67V358l-.9-2.67.9-1.79.89-.89h8.91l2.67.89h1.79l1.78-.89,3.57-5.35,3.56-3.56,2.68-1.78,1.78-.89,1.78,3.56,2.67,1.78,3.57,1.79,1.78,1.78.89-.89h.9l.89-.89-.89-1.79,1.78-2.67,2.67-.89,1.79-.89,1.78-1.79,1.78-.89,2.67-2.67,1.79-2.68,1.78-.89,1.78-1.78,2.68-.89.89-.89-.89-1.78,1.78-5.35,1.78-2.68h1.79l.89-.89V315.2l2.67-2.68,1.78-.89,2.68-1.78,2.67.89,2.68,3.56,2.67,1.79,2.67.89,1.79.89,3.56-.89,1.81-1.78,1.79-.9,2.67.9H478v-1.79l.89-.89,3.57,1.78,1.78-1.78v-.89h7.13l3.57-1.78,2.67-1.78,2.68-.9H502l1.78-.89,1.79-2.67,2.67-.89,1.78-.89,2.68.89h8"
           fill="none"
           stroke="#646464"
           stroke-miterlimit="3.33"
           stroke-width="0.47" />
        <path
           id="path32816"
           d="M324.62,272.41l-.89,1.78-3.57,3.57-2.67,1.78-1.79,1.78L313,283.1l-1.78,1.78-1.78.89-5.35,5.33-2.68.89-1.78,2.67L297,296.45h-.9l-1.78.89-2.67.89-1.78.89-.9,1.78-1.78,5.35v1.85l.89,2.68v2.67l.89,2.68v2.67l-2.67,1.78-1.78.9-2.68,2.62-.89,2.67"
           fill="none"
           stroke="#646464"
           stroke-miterlimit="3.33"
           stroke-width="0.47" />
        <path
           id="path32828"
           d="M299.67,266.17H286.3V251l.89-2.68V228.73l.89-2.67V202.88l.89-2.67V187.73"
           fill="none"
           stroke="#646464"
           stroke-miterlimit="3.33"
           stroke-width="0.47" />
        <path
           id="path32832"
           d="M170.42,321.44l1.79-3.57L174,315.2l-1.78-5.35,1.78-3.57v-3.56l1.78-.89.89-2.68-1.78-1.78-.89-2.68-1.78-1.78v-3.56l1.78-2.68.89-1.78,1.78-2.67.89-1.79,1.79-2.67,1.78-3.57,1.78-2.67.89-2.68,1.83-1.74.89-2.67,3.56-5.35H240l-.89-3.57v-4.45l1.78-3.57v-1.78l-1.78-1.78-2.68-.89h-1.8l-1.78-1.79-1.78-5.35-1.79-2.67-3.56-3.57-2.68-.89L221.25,227l-3.63-1.82-5.34-5.35-.89-1.78L206,212.69l-2.68-1.78-.89-.9h5.35l2.67.9h8V187.73H288.9v-3.56l.9-2.68,3.56-1.78,1.78,1.78,2.68.89,1.78.89h.89l3.57-3.56L305,177l1.78-1.78,1.78-2.67.9-1.79,1.78-2.67.89-1.78.89-2.68.89-1.78,1.78-.89,3.57-.89,3.57.89,1.78,1.78h8v8.92l2.67.89h5.35"
           fill="none"
           stroke="#646464"
           stroke-miterlimit="3.33"
           stroke-width="0.47" />
      </g>
    </g>
    <path
       d="m 320.18,165.45 0.89,-2.68 1.78,-1.78 v -1.78 l 1.79,-2.68 1.78,-2.67 v -3.57 l 2.67,-1.78 1.79,-2.67 h 1.74 v 1.78 l 0.89,2.67 -0.89,2.68 v 2.67 l -0.89,2.68 0.89,1.78 2.67,1.78 0.89,2.68 0.9,1.78 0.92,2.66 h 1.78 l 0.89,-1.78 0.89,-1.78 0.89,-1.79 0.89,-1.78 v -5.35 l 0.9,-3.56 0.89,-1.78 0.89,-1.79 0.89,-1.78 0.89,-2.67 0.89,-2.68 v -2.66 l 0.89,-2.68 0.9,-1.78 0.89,-2.67 0.89,-2.68 0.89,-2.67 v -0.89 h -1.78 l -1.72,0.87 -0.89,1.78 h -1.81 v -4.46 l 0.89,-0.89 2.68,-0.89 1.78,-0.89 1.78,-0.89 1.78,-1.78 v -3.57 h -6.21 l -1.78,0.89 -1.78,-1.78 v -1.78 l 0.89,-1.79 1.78,-1.78 0.89,-1.78 3.57,-1.78 h 0.89 l 0.89,-1.79 0.89,-1.78 -0.89,-1.78 -0.89,-1.78 V 94.1 l 0.89,-2.68 0.89,-2.67 1.73,-1.75 1.78,-2.68 1.78,-1.78 0.89,-2.67 1.79,-1.78 1.76,-1.79 2.67,-1.78 1.79,-1.78 1.8,-2.65 1.74,-1.81 1.78,-1.78 0.89,-2.68 0.9,-1.78 0.89,-2.67 1.78,-1.79 V 54 l 0.89,-2.68 -0.89,-1.78 -0.86,-1.75 v -7.13 l -3.57,-1.79 -0.85,-1.77 -1.78,-1.78 -1.8,-1.78 -3.57,-1.79 -3.56,1.79 -1.79,0.89 h -3.56 l -0.89,0.89 3.56,0.89 H 363 l 0.9,-0.89 h 0.89 l 0.89,0.89 -0.93,1.79 -0.89,0.89 h -7.14 L 354.05,38 351.38,37.11 348.7,36.22 346,35.32 h -3.57 l -2.67,-0.89 -3.57,-0.89 -2.67,-0.9 h -6.24 v 0.9 h -0.89 l -2.68,0.89 h -8 l -1.78,0.89 h -2.67 l -1.81,1.78 -2.67,0.89 -1.78,0.89 -2.68,0.9 -2.67,0.89 H 297 l -1.78,0.89 h -2.67 l -2.68,0.89 h -2.67 l -2.68,0.89 h -2.67 l -2.67,0.89 h -2.68 l -2.67,0.89 h -5.35 L 266.7,46 H 264 l -2.67,0.9 -2.67,1.78 -1.79,0.89 -2.67,0.89 -1.78,0.89 -2.68,0.89 -1.74,1.76 -2.68,1.78 -1.78,1.78 -0.9,1.78 -0.88,2.72 -0.89,2.67 -0.87,2.72 -0.89,1.78 v 3.57 l -0.9,2.67 v 25 l -0.89,1.78 -1.82,1.75 -1.78,0.89 -1.79,1.79 -1.78,2.67 v 2.68 l -0.89,2.67 v 5.35 l -0.89,2.67 2.59,4 c 2.35666,3.61749 4.23874,7.5228 5.6,11.62 3.68,11 6.44,17.34 12.66,21.68 4.42,3.08 6.68,2.44 15.89,8.27 5.58,3.53 8.37,5.3 9.86,7.85 2.12,3.66 11.7488,6.86038 13.67144,8.79586 6.46421,3.20685 13.86065,3.28238 19.01511,-0.78654 C 316.95504,176.10195 312.84,172.69 319.4,165.54 Z"
       fill="#79896d"
       opacity="0.5"
       style="isolation:isolate"
       id="path1" />
    <path
       id="path32544-2"
       d="M374.54,86.1l-1.78.89-.89-1.79V82.55l.89-1.78V78.1l2.68-2.67H379l2.68-.89v.89L379.89,79l-1.78,2.68-1.78,1.78-1.79,2.65"
       fill="#79896d"
       opacity="0.5"
       style="isolation:isolate" />
    <text
       transform="translate(283.26 103.94) scale(0.9 1)"
       font-size="5.98"
       fill="#fff"
       font-family="Helvetica-Bold, Helvetica"
       font-weight="700"
       style="isolation:isolate"
       id="text1">YUCATEC</text>
  </g>
  <g
     id="Layer_2"
     data-name="Layer 2">
    <g
       opacity="0.3"
       id="g4">
      <text
         transform="translate(62.83 209.1) scale(0.9 1)"
         font-size="5"
         font-family="Helvetica-Bold, Helvetica"
         font-weight="700"
         id="text2">MEXICO</text>
      <text
         transform="translate(221.83 299.59) scale(0.9 1)"
         font-size="5"
         font-family="Helvetica-Bold, Helvetica"
         font-weight="700"
         id="text3">GUATEMALA</text>
      <text
         transform="translate(295.88 209.1) scale(0.9 1)"
         font-size="5"
         font-family="Helvetica-Bold, Helvetica"
         font-weight="700"
         id="text4">BELIZE</text>
    </g>
  </g>
  <metadata
     id="metadata4">
    <rdf:RDF>
      <cc:Work
         rdf:about="">
        <dc:title>Yucatec map</dc:title>
      </cc:Work>
    </rdf:RDF>
  </metadata>
</svg>
